<?xml version="1.0" encoding="utf-8" standalone="no"?>
<!DOCTYPE svg PUBLIC "-//W3C//DTD SVG 1.1//EN"
  "http://www.w3.org/Graphics/SVG/1.1/DTD/svg11.dtd">
<!-- Created with matplotlib (https://matplotlib.org/) -->
<svg height="288pt" version="1.1" viewBox="0 0 432 288" width="432pt" xmlns="http://www.w3.org/2000/svg" xmlns:xlink="http://www.w3.org/1999/xlink">
 <metadata>
  <rdf:RDF xmlns:cc="http://creativecommons.org/ns#" xmlns:dc="http://purl.org/dc/elements/1.1/" xmlns:rdf="http://www.w3.org/1999/02/22-rdf-syntax-ns#">
   <cc:Work>
    <dc:type rdf:resource="http://purl.org/dc/dcmitype/StillImage"/>
    <dc:date>2021-02-21T16:02:45.016393</dc:date>
    <dc:format>image/svg+xml</dc:format>
    <dc:creator>
     <cc:Agent>
      <dc:title>Matplotlib v3.3.3, https://matplotlib.org/</dc:title>
     </cc:Agent>
    </dc:creator>
   </cc:Work>
  </rdf:RDF>
 </metadata>
 <defs>
  <style type="text/css">*{stroke-linecap:butt;stroke-linejoin:round;}</style>
 </defs>
 <g id="figure_1">
  <g id="patch_1">
   <path d="M 0 288 
L 432 288 
L 432 0 
L 0 0 
z
" style="fill:none;"/>
  </g>
  <g id="axes_1">
   <g id="patch_2">
    <path d="M 54 133.396364 
L 388.8 133.396364 
L 388.8 34.56 
L 54 34.56 
z
" style="fill:#ffffff;"/>
   </g>
   <g id="matplotlib.axis_1">
    <g id="xtick_1">
     <g id="line2d_1">
      <path clip-path="url(#p32663e073f)" d="M 106.444238 133.396364 
L 106.444238 34.56 
" style="fill:none;stroke:#b0b0b0;stroke-linecap:square;stroke-width:0.8;"/>
     </g>
     <g id="line2d_2">
      <defs>
       <path d="M 0 0 
L 0 -5 
" id="mcbbfcb55bb" style="stroke:#000000;stroke-width:0.8;"/>
      </defs>
      <g>
       <use style="stroke:#000000;stroke-width:0.8;" x="106.444238" xlink:href="#mcbbfcb55bb" y="133.396364"/>
      </g>
     </g>
     <g id="text_1">
      <!-- $\mathdefault{10^{1}}$ -->
      <g transform="translate(99.477284 143.814862)scale(0.1 -0.1)">
       <defs>
        <path d="M 26.59375 63.40625 
C 26.59375 65.5 26.5 65.5 25.09375 65.5 
C 21.203125 61.1875 15.296875 59.796875 9.703125 59.796875 
C 9.40625 59.796875 8.90625 59.796875 8.796875 59.5 
C 8.703125 59.296875 8.703125 59.09375 8.703125 57 
C 11.796875 57 17 57.59375 21 59.984375 
L 21 7.203125 
C 21 3.6875 20.796875 2.5 12.203125 2.5 
L 9.203125 2.5 
L 9.203125 0 
C 14 0 19 0 23.796875 0 
C 28.59375 0 33.59375 0 38.40625 0 
L 38.40625 2.5 
L 35.40625 2.5 
C 26.796875 2.5 26.59375 3.59375 26.59375 7.15625 
z
" id="CMR17-49"/>
        <path d="M 42 31.640625 
C 42 37.75 41.90625 48.125 37.703125 56.109375 
C 34 63.109375 28.09375 65.59375 22.90625 65.59375 
C 18.09375 65.59375 12 63.40625 8.203125 56.203125 
C 4.203125 48.71875 3.796875 39.4375 3.796875 31.640625 
C 3.796875 25.953125 3.90625 17.28125 7 9.671875 
C 11.296875 -0.609375 19 -2 22.90625 -2 
C 27.5 -2 34.5 -0.109375 38.59375 9.375 
C 41.59375 16.28125 42 24.359375 42 31.640625 
z
M 22.90625 -0.40625 
C 16.5 -0.40625 12.703125 5.078125 11.296875 12.6875 
C 10.203125 18.5625 10.203125 27.15625 10.203125 32.75 
C 10.203125 40.4375 10.203125 46.828125 11.5 52.921875 
C 13.40625 61.390625 19 64 22.90625 64 
C 27 64 32.296875 61.296875 34.203125 53.125 
C 35.5 47.4375 35.59375 40.734375 35.59375 32.75 
C 35.59375 26.25 35.59375 18.265625 34.40625 12.375 
C 32.296875 1.484375 26.40625 -0.40625 22.90625 -0.40625 
z
" id="CMR17-48"/>
       </defs>
       <use transform="scale(0.996264)" xlink:href="#CMR17-49"/>
       <use transform="translate(45.690477 0)scale(0.996264)" xlink:href="#CMR17-48"/>
       <use transform="translate(91.380954 36.153639)scale(0.697382)" xlink:href="#CMR17-49"/>
      </g>
     </g>
    </g>
    <g id="xtick_2">
     <g id="line2d_3">
      <path clip-path="url(#p32663e073f)" d="M 180.896352 133.396364 
L 180.896352 34.56 
" style="fill:none;stroke:#b0b0b0;stroke-linecap:square;stroke-width:0.8;"/>
     </g>
     <g id="line2d_4">
      <g>
       <use style="stroke:#000000;stroke-width:0.8;" x="180.896352" xlink:href="#mcbbfcb55bb" y="133.396364"/>
      </g>
     </g>
     <g id="text_2">
      <!-- $\mathdefault{10^{3}}$ -->
      <g transform="translate(173.929398 143.814862)scale(0.1 -0.1)">
       <defs>
        <path d="M 22.09375 33.703125 
C 31 33.703125 34.90625 25.96875 34.90625 17.03125 
C 34.90625 5 28.5 0.390625 22.703125 0.390625 
C 17.40625 0.390625 8.796875 3.03125 6.09375 10.828125 
C 6.59375 10.625 7.09375 10.625 7.59375 10.625 
C 10 10.625 11.796875 12.21875 11.796875 14.8125 
C 11.796875 17.703125 9.59375 19 7.59375 19 
C 5.90625 19 3.296875 18.203125 3.296875 14.46875 
C 3.296875 5.234375 12.296875 -2 22.90625 -2 
C 34 -2 42.5 6.71875 42.5 16.953125 
C 42.5 26.671875 34.5 33.703125 25 34.796875 
C 32.59375 36.375 39.90625 43.0625 39.90625 52.015625 
C 39.90625 59.6875 32 65.296875 23 65.296875 
C 13.90625 65.296875 5.90625 59.828125 5.90625 52.015625 
C 5.90625 48.59375 8.5 48 9.796875 48 
C 11.90625 48 13.703125 49.296875 13.703125 51.890625 
C 13.703125 54.46875 11.90625 55.765625 9.796875 55.765625 
C 9.40625 55.765625 8.90625 55.765625 8.5 55.578125 
C 11.40625 61.859375 19.296875 63 22.796875 63 
C 26.296875 63 32.90625 61.328125 32.90625 51.875 
C 32.90625 49.109375 32.5 44.1875 29.09375 39.84375 
C 26.09375 36 22.703125 36 19.40625 35.6875 
C 18.90625 35.6875 16.59375 35.453125 16.203125 35.453125 
C 15.5 35.359375 15.09375 35.265625 15.09375 34.5 
C 15.09375 33.796875 15.203125 33.703125 17.203125 33.703125 
z
" id="CMR17-51"/>
       </defs>
       <use transform="scale(0.996264)" xlink:href="#CMR17-49"/>
       <use transform="translate(45.690477 0)scale(0.996264)" xlink:href="#CMR17-48"/>
       <use transform="translate(91.380954 36.153639)scale(0.697382)" xlink:href="#CMR17-51"/>
      </g>
     </g>
    </g>
    <g id="xtick_3">
     <g id="line2d_5">
      <path clip-path="url(#p32663e073f)" d="M 255.348465 133.396364 
L 255.348465 34.56 
" style="fill:none;stroke:#b0b0b0;stroke-linecap:square;stroke-width:0.8;"/>
     </g>
     <g id="line2d_6">
      <g>
       <use style="stroke:#000000;stroke-width:0.8;" x="255.348465" xlink:href="#mcbbfcb55bb" y="133.396364"/>
      </g>
     </g>
     <g id="text_3">
      <!-- $\mathdefault{10^{5}}$ -->
      <g transform="translate(248.381511 143.814862)scale(0.1 -0.1)">
       <defs>
        <path d="M 11.40625 57.6875 
C 12.40625 57.28125 16.5 56 20.703125 56 
C 30 56 35.09375 61.109375 38 64.0625 
C 38 64.953125 38 65.5 37.40625 65.5 
C 37.296875 65.5 37.09375 65.5 36.296875 65.046875 
C 32.796875 63.40625 28.703125 62.078125 23.703125 62.078125 
C 20.703125 62.078125 16.203125 62.484375 11.296875 64.671875 
C 10.203125 65.171875 10 65.171875 9.90625 65.171875 
C 9.40625 65.171875 9.296875 65.0625 9.296875 63.078125 
L 9.296875 34.421875 
C 9.296875 32.640625 9.296875 32.140625 10.296875 32.140625 
C 10.796875 32.140625 11 32.34375 11.5 33.03125 
C 14.703125 37.515625 19.09375 39.40625 24.09375 39.40625 
C 27.59375 39.40625 35.09375 37.21875 35.09375 20.140625 
C 35.09375 16.953125 35.09375 11.171875 32.09375 6.578125 
C 29.59375 2.484375 25.703125 0.390625 21.40625 0.390625 
C 14.796875 0.390625 8.09375 5 6.296875 12.71875 
C 6.703125 12.609375 7.5 12.421875 7.90625 12.421875 
C 9.203125 12.421875 11.703125 13.125 11.703125 16.21875 
C 11.703125 18.90625 9.796875 20 7.90625 20 
C 5.59375 20 4.09375 18.59375 4.09375 15.796875 
C 4.09375 7.09375 11 -2 21.59375 -2 
C 31.90625 -2 41.703125 6.875 41.703125 19.75 
C 41.703125 31.71875 33.90625 41 24.203125 41 
C 19.09375 41 14.796875 39.109375 11.40625 35.53125 
z
" id="CMR17-53"/>
       </defs>
       <use transform="scale(0.996264)" xlink:href="#CMR17-49"/>
       <use transform="translate(45.690477 0)scale(0.996264)" xlink:href="#CMR17-48"/>
       <use transform="translate(91.380954 36.153639)scale(0.697382)" xlink:href="#CMR17-53"/>
      </g>
     </g>
    </g>
    <g id="xtick_4">
     <g id="line2d_7">
      <path clip-path="url(#p32663e073f)" d="M 329.800578 133.396364 
L 329.800578 34.56 
" style="fill:none;stroke:#b0b0b0;stroke-linecap:square;stroke-width:0.8;"/>
     </g>
     <g id="line2d_8">
      <g>
       <use style="stroke:#000000;stroke-width:0.8;" x="329.800578" xlink:href="#mcbbfcb55bb" y="133.396364"/>
      </g>
     </g>
     <g id="text_4">
      <!-- $\mathdefault{10^{7}}$ -->
      <g transform="translate(322.833624 143.814862)scale(0.1 -0.1)">
       <defs>
        <path d="M 45.09375 61.578125 
L 45.09375 63.765625 
L 21.59375 63.765625 
C 9.90625 63.765625 9.703125 65.078125 9.296875 67 
L 7.5 67 
L 4.59375 48.34375 
L 6.40625 48.34375 
C 6.703125 50.234375 7.40625 55.3125 8.59375 57.203125 
C 9.203125 58 16.59375 58 18.296875 58 
L 40.296875 58 
L 29.203125 41.578125 
C 21.796875 30.53125 16.703125 15.609375 16.703125 2.578125 
C 16.703125 1.390625 16.703125 -2 20.296875 -2 
C 23.90625 -2 23.90625 1.390625 23.90625 2.671875 
L 23.90625 7.265625 
C 23.90625 23.5625 26.703125 34.3125 31.296875 41.1875 
z
" id="CMR17-55"/>
       </defs>
       <use transform="scale(0.996264)" xlink:href="#CMR17-49"/>
       <use transform="translate(45.690477 0)scale(0.996264)" xlink:href="#CMR17-48"/>
       <use transform="translate(91.380954 36.153639)scale(0.697382)" xlink:href="#CMR17-55"/>
      </g>
     </g>
    </g>
    <g id="text_5">
     <!-- f in Hz -->
     <g transform="translate(207.099432 156.670539)scale(0.1 -0.1)">
      <defs>
       <path d="M 16.796875 37 
L 26.90625 37 
L 26.90625 42.765625 
L 16.59375 42.765625 
L 16.59375 55.609375 
C 16.59375 62.71875 22 63.9375 25.09375 63.9375 
C 26.09375 63.9375 28.90625 63.9375 32.5 62.640625 
L 32.5 69.203125 
C 30.203125 69.703125 27.40625 70 25.203125 70 
C 15.90625 70 9.40625 62.390625 9.40625 52.484375 
L 9.40625 42.765625 
L 2.5 42.765625 
L 2.5 37 
L 9.40625 37 
L 9.40625 0 
L 16.796875 0 
z
" id="CMSS17-102"/>
       <path d="M 15.296875 65.359375 
L 6.90625 65.359375 
L 6.90625 57 
L 15.296875 57 
z
M 14.796875 42.796875 
L 7.40625 42.796875 
L 7.40625 0 
L 14.796875 0 
z
" id="CMSS17-105"/>
       <path d="M 40.90625 29.328125 
C 40.90625 35.671875 39.40625 44 28.09375 44 
C 21.703125 44 17.5 40.71875 14.703125 37.328125 
L 14.703125 43.09375 
L 7.40625 43.09375 
L 7.40625 0 
L 15 0 
L 15 24.359375 
C 15 30.6875 17.40625 37.9375 24.203125 37.9375 
C 33 37.9375 33.296875 32 33.296875 28.578125 
L 33.296875 0 
L 40.90625 0 
z
" id="CMSS17-110"/>
       <path d="M 57.40625 69 
L 49 69 
L 49 39.078125 
L 17.203125 39.078125 
L 17.203125 69 
L 8.796875 69 
L 8.796875 0 
L 17.203125 0 
L 17.203125 33 
L 49 33 
L 49 0 
L 57.40625 0 
z
" id="CMSS17-72"/>
       <path d="M 37.5 39.09375 
L 37.5 42.96875 
L 3.90625 42.96875 
L 3.90625 37 
L 16.703125 37 
C 17.90625 37 19.09375 37 20.296875 37 
L 27.296875 37 
L 2.59375 4.078125 
L 2.59375 0 
L 37.796875 0 
L 37.796875 6.171875 
L 24.203125 6.171875 
C 23 6.171875 21.796875 6.171875 20.59375 6.171875 
L 12.90625 6.171875 
z
" id="CMSS17-122"/>
      </defs>
      <use transform="scale(0.996264)" xlink:href="#CMSS17-102"/>
      <use transform="translate(59.855772 0)scale(0.996264)" xlink:href="#CMSS17-105"/>
      <use transform="translate(82.036495 0)scale(0.996264)" xlink:href="#CMSS17-110"/>
      <use transform="translate(161.47055 0)scale(0.996264)" xlink:href="#CMSS17-72"/>
      <use transform="translate(227.53207 0)scale(0.996264)" xlink:href="#CMSS17-122"/>
     </g>
    </g>
   </g>
   <g id="matplotlib.axis_2">
    <g id="ytick_1">
     <g id="line2d_9">
      <path clip-path="url(#p32663e073f)" d="M 54 97.628721 
L 388.8 97.628721 
" style="fill:none;stroke:#b0b0b0;stroke-linecap:square;stroke-width:0.8;"/>
     </g>
     <g id="line2d_10">
      <defs>
       <path d="M 0 0 
L 5 0 
" id="mfb3a91d0db" style="stroke:#000000;stroke-width:0.8;"/>
      </defs>
      <g>
       <use style="stroke:#000000;stroke-width:0.8;" x="54" xlink:href="#mfb3a91d0db" y="97.628721"/>
      </g>
     </g>
     <g id="text_6">
      <!-- $\mathdefault{−10}$ -->
      <g transform="translate(32.788586 101.08797)scale(0.1 -0.1)">
       <defs>
        <path d="M 65.90625 23 
C 67.59375 23 69.40625 23 69.40625 25 
C 69.40625 27 67.59375 27 65.90625 27 
L 11.796875 27 
C 10.09375 27 8.296875 27 8.296875 25 
C 8.296875 23 10.09375 23 11.796875 23 
z
" id="CMSY10-0"/>
       </defs>
       <use transform="scale(0.996264)" xlink:href="#CMSY10-0"/>
       <use transform="translate(77.487468 0)scale(0.996264)" xlink:href="#CMR17-49"/>
       <use transform="translate(123.177945 0)scale(0.996264)" xlink:href="#CMR17-48"/>
      </g>
     </g>
    </g>
    <g id="ytick_2">
     <g id="line2d_11">
      <path clip-path="url(#p32663e073f)" d="M 54 53.581379 
L 388.8 53.581379 
" style="fill:none;stroke:#b0b0b0;stroke-linecap:square;stroke-width:0.8;"/>
     </g>
     <g id="line2d_12">
      <g>
       <use style="stroke:#000000;stroke-width:0.8;" x="54" xlink:href="#mfb3a91d0db" y="53.581379"/>
      </g>
     </g>
     <g id="text_7">
      <!-- $\mathdefault{0}$ -->
      <g transform="translate(45.518665 57.040628)scale(0.1 -0.1)">
       <use transform="scale(0.996264)" xlink:href="#CMR17-48"/>
      </g>
     </g>
    </g>
    <g id="text_8">
     <!-- Magnitude in dB -->
     <g transform="translate(26.851407 119.124216)rotate(-90)scale(0.1 -0.1)">
      <defs>
       <path d="M 49.90625 37.046875 
L 45.09375 23.015625 
C 44.296875 20.421875 41.59375 12.359375 41 9.171875 
L 40.90625 9.171875 
C 40.59375 11.171875 40 13.265625 38.40625 18.34375 
C 37.5 21.328125 36.5 24.40625 35.5 27.203125 
L 20.703125 69 
L 9 69 
L 9 0 
L 16.796875 0 
L 16.796875 60.9375 
L 16.90625 60.9375 
C 16.90625 60.84375 17.796875 56.453125 23.90625 39.046875 
L 37.09375 1.5 
L 44.5 1.5 
L 56.40625 34.859375 
C 57.203125 37.15625 59.703125 44.421875 60.796875 47.90625 
C 61.796875 50.890625 64.296875 58.25 64.90625 61.140625 
L 65 61.140625 
L 65 0 
L 72.90625 0 
L 72.90625 69 
L 61.296875 69 
z
" id="CMSS17-77"/>
       <path d="M 37.59375 27.984375 
C 37.59375 37.375 30.90625 43.875 21.90625 43.875 
C 17.5 43.875 12.703125 43.078125 7.203125 39.890625 
L 7.796875 33.359375 
C 10.296875 35.125 14.59375 38 21.796875 38 
C 26.90625 38 30 34.0625 30 27.84375 
L 30 24 
C 14 24 4 19.34375 4 11.34375 
C 4 7.203125 6.5 -1 14.796875 -1 
C 16.296875 -1 24.40625 -1 30.203125 3.390625 
L 30.203125 -0.296875 
L 37.59375 -0.296875 
z
M 30 12.75 
C 30 10.953125 30 8.5625 27 6.78125 
C 24.40625 5.078125 21.09375 5.078125 19.703125 5.078125 
C 14.703125 5.078125 11.296875 7.984375 11.296875 11.625 
C 11.296875 18.921875 26.90625 18.921875 30 18.921875 
z
" id="CMSS17-97"/>
       <path d="M 44.5 43.875 
C 38.796875 43.875 33.90625 42.78125 29.90625 40.890625 
C 26.59375 43.390625 23.203125 43.875 20.90625 43.875 
C 12.203125 43.875 5.59375 36.703125 5.59375 28.34375 
C 5.59375 22.9375 8.59375 18.859375 8.796875 18.671875 
C 7 16.171875 6 13.484375 6 10.5 
C 6 7 7.40625 4.515625 8.5 3.125 
C 3.296875 -0.046875 2.59375 -4.90625 2.59375 -6.796875 
C 2.59375 -14.03125 11.703125 -20 23.40625 -20 
C 35.203125 -20 44.296875 -14.03125 44.296875 -6.6875 
C 44.296875 7 29 7 24.796875 7 
L 16.703125 7 
C 15.203125 7 11.203125 7 11.203125 12.359375 
C 11.203125 14.390625 12.09375 15.6875 12.203125 15.78125 
C 13.703125 14.6875 16.796875 13 20.90625 13 
C 29.203125 13 36.09375 19.96875 36.09375 28.546875 
C 36.09375 33.3125 33.90625 36.796875 33 38 
L 33.296875 38 
C 33.59375 38 37.796875 38 39.296875 38 
C 42.5 38 42.796875 37.953125 45.59375 37.796875 
z
M 20.90625 18.46875 
C 17.5 18.46875 12.703125 20.546875 12.703125 28.484375 
C 12.703125 37.109375 18.203125 38.5 20.796875 38.5 
C 24.203125 38.5 29 36.421875 29 28.484375 
C 29 19.859375 23.5 18.46875 20.90625 18.46875 
z
M 24.703125 -0.15625 
C 27.09375 -0.15625 37.203125 -0.15625 37.203125 -6.90625 
C 37.203125 -11.15625 31 -14.515625 23.5 -14.515625 
C 15.90625 -14.515625 9.703125 -11.25 9.703125 -6.796875 
C 9.703125 -6.296875 9.703125 -0.15625 16.59375 -0.15625 
z
" id="CMSS17-103"/>
       <path d="M 16.703125 37 
L 29.703125 37 
L 29.703125 42.765625 
L 16.703125 42.765625 
L 16.703125 55 
L 9.59375 55 
L 9.59375 42.765625 
L 1.703125 42.765625 
L 1.703125 37 
L 9.40625 37 
L 9.40625 11.703125 
C 9.40625 6 10.703125 -1 17.296875 -1 
C 22.296875 -1 26.90625 0.390625 31.296875 2.6875 
L 29.703125 8.5625 
C 27.296875 6.46875 24.40625 5.265625 21.296875 5.265625 
C 16.90625 5.265625 16.703125 10.875 16.703125 13.375 
z
" id="CMSS17-116"/>
       <path d="M 40.90625 42.796875 
L 33.296875 42.796875 
L 33.296875 15.1875 
C 33.296875 7.78125 27.90625 4.78125 22.203125 4.78125 
C 15.59375 4.78125 15 6.984375 15 11.078125 
L 15 42.796875 
L 7.40625 42.796875 
L 7.40625 10.59375 
C 7.40625 2.796875 10.09375 -1 17 -1 
C 20.40625 -1 28.09375 -0.203125 33.5 4.78125 
L 33.5 0 
L 40.90625 0 
z
" id="CMSS17-117"/>
       <path d="M 40.796875 69 
L 33.40625 69 
L 33.40625 38.09375 
C 30.296875 40.671875 25.203125 43.0625 19.59375 43.0625 
C 10.5 43.0625 3.296875 33.296875 3.296875 21.046875 
C 3.296875 8.78125 10.40625 -1 19.296875 -1 
C 26.203125 -1 30.796875 2.6875 33.203125 4.78125 
L 33.203125 -0.203125 
L 40.796875 -0.203125 
z
M 33.203125 13.0625 
C 33.203125 11.671875 33.203125 10.203125 30.09375 7.53125 
C 28.09375 5.859375 25.703125 5.078125 23.40625 5.078125 
C 18 5.078125 10.90625 9 10.90625 20.9375 
C 10.90625 33.34375 18.90625 37 24.40625 37 
C 28.09375 37 31.09375 35.21875 33.203125 32.265625 
z
" id="CMSS17-100"/>
       <path d="M 39.09375 21.515625 
C 39.09375 24.84375 38.90625 31.296875 35.703125 36.640625 
C 32.203125 42.390625 26.5 44 22.203125 44 
C 11.796875 44 3 34.1875 3 21.484375 
C 3 9.09375 12.09375 -1 23.59375 -1 
C 28.09375 -1 33.59375 0.296875 38.59375 3.875 
C 38.59375 4.28125 38.40625 6.46875 38.296875 6.5625 
C 38.296875 6.765625 38 9.84375 38 10.25 
C 33.203125 6.359375 27.703125 5.078125 23.703125 5.078125 
C 17.296875 5.078125 10.40625 10.421875 10.09375 21.515625 
z
M 10.90625 27 
C 12.203125 32.5625 16.59375 37.828125 22.203125 37.828125 
C 23.703125 37.828125 30.703125 37.828125 32.5 27 
z
" id="CMSS17-101"/>
       <path d="M 8.90625 69 
L 8.90625 0 
L 33.796875 0 
C 47.40625 0 57.296875 8.96875 57.296875 18.75 
C 57.296875 26.328125 50.796875 34 39.09375 36.203125 
C 52.09375 39.96875 54.703125 47.5 54.703125 51.765625 
C 54.703125 60.671875 44.90625 69 31.203125 69 
z
M 17 39 
L 17 63.421875 
L 28.5 63.421875 
C 38.796875 63.421875 46.90625 58.1875 46.90625 51.65625 
C 46.90625 45.71875 40.5 39 27.59375 39 
z
M 17 5.578125 
L 17 32.921875 
L 30.296875 32.921875 
C 41.09375 32.921875 49.40625 26.234375 49.40625 18.84375 
C 49.40625 12.0625 42.09375 5.578125 31 5.578125 
z
" id="CMSS17-66"/>
      </defs>
      <use transform="scale(0.996264)" xlink:href="#CMSS17-77"/>
      <use transform="translate(81.67603 0)scale(0.996264)" xlink:href="#CMSS17-97"/>
      <use transform="translate(126.597951 0)scale(0.996264)" xlink:href="#CMSS17-103"/>
      <use transform="translate(173.441574 0)scale(0.996264)" xlink:href="#CMSS17-110"/>
      <use transform="translate(221.646517 0)scale(0.996264)" xlink:href="#CMSS17-105"/>
      <use transform="translate(243.82724 0)scale(0.996264)" xlink:href="#CMSS17-116"/>
      <use transform="translate(277.658807 0)scale(0.996264)" xlink:href="#CMSS17-117"/>
      <use transform="translate(325.86375 0)scale(0.996264)" xlink:href="#CMSS17-100"/>
      <use transform="translate(374.068693 0)scale(0.996264)" xlink:href="#CMSS17-101"/>
      <use transform="translate(446.936628 0)scale(0.996264)" xlink:href="#CMSS17-105"/>
      <use transform="translate(469.117351 0)scale(0.996264)" xlink:href="#CMSS17-110"/>
      <use transform="translate(548.551407 0)scale(0.996264)" xlink:href="#CMSS17-100"/>
      <use transform="translate(596.75635 0)scale(0.996264)" xlink:href="#CMSS17-66"/>
     </g>
    </g>
   </g>
   <g id="line2d_13">
    <path clip-path="url(#p32663e073f)" d="M 69.218182 53.619619 
L 309.522783 53.516719 
L 318.930747 53.290344 
L 324.839161 52.93655 
L 329.156783 52.456528 
L 332.560998 51.852361 
L 335.371594 51.127516 
L 337.765179 50.287554 
L 339.979515 49.274537 
L 342.041032 48.083755 
L 344.071249 46.649932 
L 346.404841 44.707079 
L 349.625376 42.012538 
L 350.65987 41.445542 
L 351.4423 41.25391 
L 352.127712 41.322699 
L 352.726561 41.609978 
L 353.360645 42.18651 
L 354.025138 43.128542 
L 354.767364 44.620043 
L 355.575886 46.779272 
L 356.532797 50.008274 
L 357.740857 54.947762 
L 359.41834 62.86741 
L 363.785075 85.08298 
L 367.099296 101.152341 
L 370.091145 114.566843 
L 373.022006 126.696167 
L 373.581818 128.903802 
L 373.581818 128.903802 
" style="fill:none;stroke:#0051a2;stroke-linecap:square;stroke-width:1.5;"/>
   </g>
   <g id="line2d_14">
    <path clip-path="url(#p32663e073f)" d="M 69.218182 52.523278 
L 268.377584 52.517809 
L 310.070767 52.408328 
L 319.377284 52.170488 
L 324.96119 51.82501 
L 329.056057 51.369686 
L 332.406408 50.784376 
L 335.012223 50.133186 
L 337.618049 49.245063 
L 339.851612 48.238958 
L 342.085176 46.95421 
L 343.94648 45.644414 
L 346.180045 43.803178 
L 349.53039 40.976365 
L 350.647172 40.349435 
L 351.391691 40.157216 
L 352.136214 40.224027 
L 352.880734 40.621788 
L 353.625253 41.417279 
L 354.369776 42.661193 
L 355.114297 44.378035 
L 355.858817 46.56059 
L 356.9756 50.61904 
L 358.464643 57.150535 
L 360.698206 68.228045 
L 365.909853 94.423748 
L 368.887931 108.198761 
L 371.866024 120.927121 
L 373.35506 126.912714 
L 373.35506 126.912714 
" style="fill:none;stroke:#93003a;stroke-linecap:square;stroke-width:1.5;"/>
   </g>
   <g id="line2d_15">
    <path clip-path="url(#p32663e073f)" d="M 69.218182 51.422094 
L 268.377584 51.416625 
L 310.070767 51.307144 
L 319.377284 51.069304 
L 324.96119 50.723827 
L 329.056057 50.268502 
L 332.406408 49.683193 
L 335.012223 49.032002 
L 337.618049 48.143879 
L 339.851612 47.137774 
L 342.085176 45.853027 
L 343.94648 44.54323 
L 346.180045 42.701994 
L 349.53039 39.875181 
L 350.647172 39.248251 
L 351.391691 39.056033 
L 352.136214 39.122844 
L 352.880734 39.520605 
L 353.625253 40.316095 
L 354.369776 41.56001 
L 355.114297 43.276852 
L 355.858817 45.459406 
L 356.9756 49.517856 
L 358.464643 56.049352 
L 360.698206 67.126862 
L 365.909853 93.322564 
L 368.887931 107.097578 
L 371.866024 119.825938 
L 373.35506 125.811531 
L 373.35506 125.811531 
" style="fill:none;stroke:#97964a;stroke-linecap:square;stroke-width:1.5;"/>
   </g>
   <g id="patch_3">
    <path d="M 54 133.396364 
L 54 34.56 
" style="fill:none;stroke:#000000;stroke-linecap:square;stroke-linejoin:miter;stroke-width:0.8;"/>
   </g>
   <g id="patch_4">
    <path d="M 388.8 133.396364 
L 388.8 34.56 
" style="fill:none;stroke:#000000;stroke-linecap:square;stroke-linejoin:miter;stroke-width:0.8;"/>
   </g>
   <g id="patch_5">
    <path d="M 54 133.396364 
L 388.8 133.396364 
" style="fill:none;stroke:#000000;stroke-linecap:square;stroke-linejoin:miter;stroke-width:0.8;"/>
   </g>
   <g id="patch_6">
    <path d="M 54 34.56 
L 388.8 34.56 
" style="fill:none;stroke:#000000;stroke-linecap:square;stroke-linejoin:miter;stroke-width:0.8;"/>
   </g>
   <g id="legend_1">
    <g id="patch_7">
     <path d="M 59.831 129.231364 
L 193.987499 129.231364 
Q 195.653499 129.231364 195.653499 127.565364 
L 195.653499 91.83644 
Q 195.653499 90.17044 193.987499 90.17044 
L 59.831 90.17044 
Q 58.165 90.17044 58.165 91.83644 
L 58.165 127.565364 
Q 58.165 129.231364 59.831 129.231364 
z
" style="fill:#ffffff;opacity:0.8;stroke:#cccccc;stroke-linejoin:miter;"/>
    </g>
    <g id="line2d_16">
     <path d="M 61.497 96.916438 
L 78.157 96.916438 
" style="fill:none;stroke:#0051a2;stroke-linecap:square;stroke-width:1.5;"/>
    </g>
    <g id="line2d_17"/>
    <g id="text_9">
     <!-- calculated -->
     <g transform="translate(84.821 99.831938)scale(0.0833 -0.0833)">
      <defs>
       <path d="M 38.5 39.703125 
C 38.5 40.390625 33.90625 42.40625 32.703125 42.796875 
C 29.40625 44 25.203125 44 24.09375 44 
C 11.09375 44 3.296875 32.703125 3.296875 21.296875 
C 3.296875 9.296875 12 -1 23.703125 -1 
C 30.40625 -1 35.203125 1.1875 39.09375 3.78125 
L 38.5 10.375 
C 34.203125 7.078125 29.203125 5.265625 23.796875 5.265625 
C 16 5.265625 10.90625 12.09375 10.90625 21.390625 
C 10.90625 28.609375 14.203125 37.71875 24.203125 37.71875 
C 29.703125 37.71875 32.796875 36.609375 37.40625 33.515625 
z
" id="CMSS17-99"/>
       <path d="M 14.796875 69 
L 7.40625 69 
L 7.40625 0 
L 14.796875 0 
z
" id="CMSS17-108"/>
      </defs>
      <use transform="scale(0.996264)" xlink:href="#CMSS17-99"/>
      <use transform="translate(41.638822 0)scale(0.996264)" xlink:href="#CMSS17-97"/>
      <use transform="translate(86.560743 0)scale(0.996264)" xlink:href="#CMSS17-108"/>
      <use transform="translate(108.741466 0)scale(0.996264)" xlink:href="#CMSS17-99"/>
      <use transform="translate(150.380288 0)scale(0.996264)" xlink:href="#CMSS17-117"/>
      <use transform="translate(198.585231 0)scale(0.996264)" xlink:href="#CMSS17-108"/>
      <use transform="translate(220.765954 0)scale(0.996264)" xlink:href="#CMSS17-97"/>
      <use transform="translate(265.687875 0)scale(0.996264)" xlink:href="#CMSS17-116"/>
      <use transform="translate(299.519441 0)scale(0.996264)" xlink:href="#CMSS17-101"/>
      <use transform="translate(341.158263 0)scale(0.996264)" xlink:href="#CMSS17-100"/>
     </g>
    </g>
    <g id="line2d_18">
     <path d="M 61.497 109.143316 
L 78.157 109.143316 
" style="fill:none;stroke:#93003a;stroke-linecap:square;stroke-width:1.5;"/>
    </g>
    <g id="line2d_19"/>
    <g id="text_10">
     <!-- spice single ended + 0.25 dB -->
     <g transform="translate(84.821 112.058816)scale(0.0833 -0.0833)">
      <defs>
       <path d="M 32.203125 41.046875 
C 26.296875 43.859375 21.703125 43.859375 18.703125 43.859375 
C 11.59375 43.859375 3.09375 41.375 3.09375 31.296875 
C 3.09375 21.234375 14.09375 19.03125 17.09375 18.421875 
C 21.703125 17.53125 26.796875 16.53125 26.796875 11.5625 
C 26.796875 5.265625 19.59375 5.265625 18.296875 5.265625 
C 14.296875 5.265625 8.796875 6.359375 3.796875 9.96875 
L 2.59375 3.28125 
C 8.296875 0 13.796875 -1 18.40625 -1 
C 30.703125 -1 33.796875 6.5 33.796875 12.203125 
C 33.796875 17.09375 31 20.390625 29.09375 21.890625 
C 25.796875 24.5 24.59375 24.796875 16.40625 26.5 
C 15 26.703125 10.09375 27.796875 10.09375 32.28125 
C 10.09375 38 16.40625 38 17.796875 38 
C 24.296875 38 28.296875 35.984375 31 34.5 
z
" id="CMSS17-115"/>
       <path d="M 15.09375 5.203125 
C 18.40625 2.015625 22.90625 -0.078125 27.703125 -0.078125 
C 37 -0.078125 45 9.421875 45 22.0625 
C 45 33.734375 39 44 30.40625 44 
C 25.40625 44 19.40625 42.21875 14.90625 38.625 
L 14.90625 43.203125 
L 7.5 43.203125 
L 7.5 -19 
L 15.09375 -19 
z
M 15.09375 32.8125 
C 15.90625 34 19.296875 37.734375 24.796875 37.734375 
C 31.796875 37.734375 37.40625 30.625 37.40625 22.0625 
C 37.40625 12.296875 30.59375 6 23.90625 6 
C 21.90625 6 19.796875 6.484375 17.796875 8.171875 
C 15.09375 10.53125 15.09375 12 15.09375 13.390625 
z
" id="CMSS17-112"/>
       <path d="M 38.296875 23.515625 
L 64.703125 23.515625 
C 66.09375 23.515625 67.796875 23.515625 67.796875 25.203125 
C 67.796875 27 66.203125 27 64.703125 27 
L 38.296875 27 
L 38.296875 53.328125 
C 38.296875 54.71875 38.296875 56.421875 36.59375 56.421875 
C 34.796875 56.421875 34.796875 54.828125 34.796875 53.328125 
L 34.796875 27 
L 8.296875 27 
C 6.90625 27 5.203125 27 5.203125 25.3125 
C 5.203125 23.515625 6.796875 23.515625 8.296875 23.515625 
L 34.796875 23.515625 
L 34.796875 -2.90625 
C 34.796875 -4.296875 34.796875 -6 36.5 -6 
C 38.296875 -6 38.296875 -4.40625 38.296875 -2.90625 
z
" id="CMSS17-43"/>
       <path d="M 43.09375 31.9375 
C 43.09375 37.578125 43 48.078125 38.90625 56.1875 
C 34.796875 64 28.203125 66.078125 23.5 66.078125 
C 16.703125 66.078125 10.90625 62.109375 7.90625 55.78125 
C 4.703125 49.15625 3.796875 42.328125 3.796875 31.9375 
C 3.796875 24.828125 4.09375 16.109375 7.703125 8.484375 
C 11.796875 0.078125 18.703125 -2 23.40625 -2 
C 29.59375 -2 35.59375 1.265625 39 8.09375 
C 42.5 15.21875 43.09375 23.03125 43.09375 31.9375 
z
M 23.40625 4.078125 
C 15.796875 4.078125 13.5 12.671875 12.796875 15.546875 
C 11.59375 20.46875 11.40625 25.21875 11.40625 33.03125 
C 11.40625 39.15625 11.40625 46.0625 13.296875 51.515625 
C 15.59375 57.828125 19.59375 60 23.40625 60 
C 30.796875 60 33.203125 52.6875 34 50.125 
C 35.5 44.890625 35.5 38.765625 35.5 33.03125 
C 35.5 23.84375 35.5 4.078125 23.40625 4.078125 
z
" id="CMSS17-48"/>
       <path d="M 17 7.96875 
L 9 7.96875 
L 9 0 
L 17 0 
z
" id="CMSS17-46"/>
       <path d="M 25.796875 21.203125 
C 28.59375 24.078125 32.796875 27.5625 35.703125 31.046875 
C 38.5 34.4375 42.203125 39.234375 42.203125 46.203125 
C 42.203125 57.140625 34.796875 67 22.203125 67 
C 12.296875 67 6.59375 60.828125 3.90625 51.15625 
L 7.796875 45.765625 
C 10 54.84375 13.09375 60.625 20.90625 60.625 
C 29.5 60.625 34.296875 53.640625 34.296875 45.96875 
C 34.296875 36.796875 27.296875 29.703125 22 24.421875 
C 16.09375 18.546875 10.296875 12.5625 4.703125 6.375 
L 4.703125 0 
L 42.203125 0 
L 42.203125 6.765625 
L 25.203125 6.765625 
C 24 6.765625 22.796875 6.765625 21.59375 6.765625 
L 11.59375 6.765625 
L 11.59375 6.859375 
z
" id="CMSS17-50"/>
       <path d="M 14.59375 58.625 
L 39.09375 58.625 
L 39.09375 65 
L 7.296875 65 
L 7.296875 27.828125 
L 14 27.828125 
C 15.796875 31.96875 19.5 35 24.296875 35 
C 28.796875 35 33.796875 31.078125 33.796875 19.78125 
C 33.796875 7.703125 26.703125 4.171875 21.5 4.171875 
C 15.09375 4.171875 9.203125 8 6.59375 13.296875 
L 3.40625 7.796875 
C 8 0.765625 15.5 -2 21.5 -2 
C 33.09375 -2 42.203125 7.765625 42.203125 19.578125 
C 42.203125 31.71875 34.09375 41.078125 24.40625 41.078125 
C 20.90625 41.078125 17.5 39.890625 14.59375 37.484375 
z
" id="CMSS17-53"/>
      </defs>
      <use transform="scale(0.996264)" xlink:href="#CMSS17-115"/>
      <use transform="translate(35.913542 0)scale(0.996264)" xlink:href="#CMSS17-112"/>
      <use transform="translate(84.118485 0)scale(0.996264)" xlink:href="#CMSS17-105"/>
      <use transform="translate(106.299208 0)scale(0.996264)" xlink:href="#CMSS17-99"/>
      <use transform="translate(147.93803 0)scale(0.996264)" xlink:href="#CMSS17-101"/>
      <use transform="translate(220.805965 0)scale(0.996264)" xlink:href="#CMSS17-115"/>
      <use transform="translate(256.719507 0)scale(0.996264)" xlink:href="#CMSS17-105"/>
      <use transform="translate(278.90023 0)scale(0.996264)" xlink:href="#CMSS17-110"/>
      <use transform="translate(327.105173 0)scale(0.996264)" xlink:href="#CMSS17-103"/>
      <use transform="translate(373.948797 0)scale(0.996264)" xlink:href="#CMSS17-108"/>
      <use transform="translate(396.12952 0)scale(0.996264)" xlink:href="#CMSS17-101"/>
      <use transform="translate(468.997455 0)scale(0.996264)" xlink:href="#CMSS17-101"/>
      <use transform="translate(510.636277 0)scale(0.996264)" xlink:href="#CMSS17-110"/>
      <use transform="translate(558.84122 0)scale(0.996264)" xlink:href="#CMSS17-100"/>
      <use transform="translate(607.046163 0)scale(0.996264)" xlink:href="#CMSS17-101"/>
      <use transform="translate(648.684985 0)scale(0.996264)" xlink:href="#CMSS17-100"/>
      <use transform="translate(728.119041 0)scale(0.996264)" xlink:href="#CMSS17-43"/>
      <use transform="translate(832.216088 0)scale(0.996264)" xlink:href="#CMSS17-48"/>
      <use transform="translate(879.059712 0)scale(0.996264)" xlink:href="#CMSS17-46"/>
      <use transform="translate(905.083917 0)scale(0.996264)" xlink:href="#CMSS17-50"/>
      <use transform="translate(951.92754 0)scale(0.996264)" xlink:href="#CMSS17-53"/>
      <use transform="translate(1030.000277 0)scale(0.996264)" xlink:href="#CMSS17-100"/>
      <use transform="translate(1078.20522 0)scale(0.996264)" xlink:href="#CMSS17-66"/>
     </g>
    </g>
    <g id="line2d_20">
     <path d="M 61.497 121.370194 
L 78.157 121.370194 
" style="fill:none;stroke:#97964a;stroke-linecap:square;stroke-width:1.5;"/>
    </g>
    <g id="line2d_21"/>
    <g id="text_11">
     <!-- spice differential + 0.5 dB -->
     <g transform="translate(84.821 124.285694)scale(0.0833 -0.0833)">
      <defs>
       <path d="M 16.796875 37 
L 27.09375 37 
L 27.09375 42.765625 
L 16.59375 42.765625 
L 16.59375 55.609375 
C 16.59375 62.515625 21.796875 63.9375 25.203125 63.9375 
C 28.703125 63.9375 31.59375 63.03125 32.703125 62.640625 
L 32.703125 69.203125 
C 31.59375 69.40625 28.59375 70 25.296875 70 
C 16.09375 70 9.40625 62.484375 9.40625 52.484375 
L 9.40625 42.765625 
L 2.5 42.765625 
L 2.5 37 
L 9.40625 37 
L 9.40625 0 
L 16.796875 0 
z
M 42.796875 37 
L 53.09375 37 
L 53.09375 42.765625 
L 42.59375 42.765625 
L 42.59375 55.609375 
C 42.59375 62.515625 47.796875 63.9375 51.203125 63.9375 
C 54.703125 63.9375 57.59375 63.03125 58.703125 62.640625 
L 58.703125 69.203125 
C 57.59375 69.40625 54.59375 70 51.296875 70 
C 42.09375 70 35.40625 62.515625 35.40625 52.546875 
L 35.40625 0 
L 42.796875 0 
z
" id="CMSS17-11"/>
       <path d="M 14.90625 21.296875 
C 14.90625 30.703125 21.796875 37 30.59375 37 
L 30.59375 43.578125 
C 24.203125 43.578125 18.203125 40.390625 14.59375 35.203125 
L 14.59375 43.09375 
L 7.5 43.09375 
L 7.5 0 
L 14.90625 0 
z
" id="CMSS17-114"/>
      </defs>
      <use transform="scale(0.996264)" xlink:href="#CMSS17-115"/>
      <use transform="translate(35.913542 0)scale(0.996264)" xlink:href="#CMSS17-112"/>
      <use transform="translate(84.118485 0)scale(0.996264)" xlink:href="#CMSS17-105"/>
      <use transform="translate(106.299208 0)scale(0.996264)" xlink:href="#CMSS17-99"/>
      <use transform="translate(147.93803 0)scale(0.996264)" xlink:href="#CMSS17-101"/>
      <use transform="translate(220.805965 0)scale(0.996264)" xlink:href="#CMSS17-100"/>
      <use transform="translate(269.010908 0)scale(0.996264)" xlink:href="#CMSS17-105"/>
      <use transform="translate(291.191631 0)scale(0.996264)" xlink:href="#CMSS17-11"/>
      <use transform="translate(345.842601 0)scale(0.996264)" xlink:href="#CMSS17-101"/>
      <use transform="translate(387.481423 0)scale(0.996264)" xlink:href="#CMSS17-114"/>
      <use transform="translate(419.391196 0)scale(0.996264)" xlink:href="#CMSS17-101"/>
      <use transform="translate(461.030018 0)scale(0.996264)" xlink:href="#CMSS17-110"/>
      <use transform="translate(509.234961 0)scale(0.996264)" xlink:href="#CMSS17-116"/>
      <use transform="translate(543.066528 0)scale(0.996264)" xlink:href="#CMSS17-105"/>
      <use transform="translate(565.247251 0)scale(0.996264)" xlink:href="#CMSS17-97"/>
      <use transform="translate(610.169172 0)scale(0.996264)" xlink:href="#CMSS17-108"/>
      <use transform="translate(663.579007 0)scale(0.996264)" xlink:href="#CMSS17-43"/>
      <use transform="translate(767.676055 0)scale(0.996264)" xlink:href="#CMSS17-48"/>
      <use transform="translate(814.519678 0)scale(0.996264)" xlink:href="#CMSS17-46"/>
      <use transform="translate(840.543883 0)scale(0.996264)" xlink:href="#CMSS17-53"/>
      <use transform="translate(918.61662 0)scale(0.996264)" xlink:href="#CMSS17-100"/>
      <use transform="translate(966.821563 0)scale(0.996264)" xlink:href="#CMSS17-66"/>
     </g>
    </g>
   </g>
  </g>
  <g id="axes_2">
   <g id="patch_8">
    <path d="M 54 252 
L 388.8 252 
L 388.8 153.163636 
L 54 153.163636 
z
" style="fill:#ffffff;"/>
   </g>
   <g id="matplotlib.axis_3">
    <g id="xtick_5">
     <g id="line2d_22">
      <path clip-path="url(#p401f7f0ed5)" d="M 106.444238 252 
L 106.444238 153.163636 
" style="fill:none;stroke:#b0b0b0;stroke-linecap:square;stroke-width:0.8;"/>
     </g>
     <g id="line2d_23">
      <g>
       <use style="stroke:#000000;stroke-width:0.8;" x="106.444238" xlink:href="#mcbbfcb55bb" y="252"/>
      </g>
     </g>
     <g id="text_12">
      <!-- $\mathdefault{10^{1}}$ -->
      <g transform="translate(99.477284 262.418498)scale(0.1 -0.1)">
       <use transform="scale(0.996264)" xlink:href="#CMR17-49"/>
       <use transform="translate(45.690477 0)scale(0.996264)" xlink:href="#CMR17-48"/>
       <use transform="translate(91.380954 36.153639)scale(0.697382)" xlink:href="#CMR17-49"/>
      </g>
     </g>
    </g>
    <g id="xtick_6">
     <g id="line2d_24">
      <path clip-path="url(#p401f7f0ed5)" d="M 180.896352 252 
L 180.896352 153.163636 
" style="fill:none;stroke:#b0b0b0;stroke-linecap:square;stroke-width:0.8;"/>
     </g>
     <g id="line2d_25">
      <g>
       <use style="stroke:#000000;stroke-width:0.8;" x="180.896352" xlink:href="#mcbbfcb55bb" y="252"/>
      </g>
     </g>
     <g id="text_13">
      <!-- $\mathdefault{10^{3}}$ -->
      <g transform="translate(173.929398 262.418498)scale(0.1 -0.1)">
       <use transform="scale(0.996264)" xlink:href="#CMR17-49"/>
       <use transform="translate(45.690477 0)scale(0.996264)" xlink:href="#CMR17-48"/>
       <use transform="translate(91.380954 36.153639)scale(0.697382)" xlink:href="#CMR17-51"/>
      </g>
     </g>
    </g>
    <g id="xtick_7">
     <g id="line2d_26">
      <path clip-path="url(#p401f7f0ed5)" d="M 255.348465 252 
L 255.348465 153.163636 
" style="fill:none;stroke:#b0b0b0;stroke-linecap:square;stroke-width:0.8;"/>
     </g>
     <g id="line2d_27">
      <g>
       <use style="stroke:#000000;stroke-width:0.8;" x="255.348465" xlink:href="#mcbbfcb55bb" y="252"/>
      </g>
     </g>
     <g id="text_14">
      <!-- $\mathdefault{10^{5}}$ -->
      <g transform="translate(248.381511 262.418498)scale(0.1 -0.1)">
       <use transform="scale(0.996264)" xlink:href="#CMR17-49"/>
       <use transform="translate(45.690477 0)scale(0.996264)" xlink:href="#CMR17-48"/>
       <use transform="translate(91.380954 36.153639)scale(0.697382)" xlink:href="#CMR17-53"/>
      </g>
     </g>
    </g>
    <g id="xtick_8">
     <g id="line2d_28">
      <path clip-path="url(#p401f7f0ed5)" d="M 329.800578 252 
L 329.800578 153.163636 
" style="fill:none;stroke:#b0b0b0;stroke-linecap:square;stroke-width:0.8;"/>
     </g>
     <g id="line2d_29">
      <g>
       <use style="stroke:#000000;stroke-width:0.8;" x="329.800578" xlink:href="#mcbbfcb55bb" y="252"/>
      </g>
     </g>
     <g id="text_15">
      <!-- $\mathdefault{10^{7}}$ -->
      <g transform="translate(322.833624 262.418498)scale(0.1 -0.1)">
       <use transform="scale(0.996264)" xlink:href="#CMR17-49"/>
       <use transform="translate(45.690477 0)scale(0.996264)" xlink:href="#CMR17-48"/>
       <use transform="translate(91.380954 36.153639)scale(0.697382)" xlink:href="#CMR17-55"/>
      </g>
     </g>
    </g>
    <g id="text_16">
     <!-- f in Hz -->
     <g transform="translate(207.099432 275.274175)scale(0.1 -0.1)">
      <use transform="scale(0.996264)" xlink:href="#CMSS17-102"/>
      <use transform="translate(59.855772 0)scale(0.996264)" xlink:href="#CMSS17-105"/>
      <use transform="translate(82.036495 0)scale(0.996264)" xlink:href="#CMSS17-110"/>
      <use transform="translate(161.47055 0)scale(0.996264)" xlink:href="#CMSS17-72"/>
      <use transform="translate(227.53207 0)scale(0.996264)" xlink:href="#CMSS17-122"/>
     </g>
    </g>
   </g>
   <g id="matplotlib.axis_4">
    <g id="ytick_3">
     <g id="line2d_30">
      <path clip-path="url(#p401f7f0ed5)" d="M 54 252 
L 388.8 252 
" style="fill:none;stroke:#b0b0b0;stroke-linecap:square;stroke-width:0.8;"/>
     </g>
     <g id="line2d_31">
      <g>
       <use style="stroke:#000000;stroke-width:0.8;" x="54" xlink:href="#mfb3a91d0db" y="252"/>
      </g>
     </g>
     <g id="text_17">
      <!-- $-\pi$ -->
      <g transform="translate(37.072281 255.459249)scale(0.1 -0.1)">
       <defs>
        <path d="M 25.90625 37.625 
L 37.203125 37.625 
C 34.5 26.4375 32.796875 19.15625 32.796875 11.1875 
C 32.796875 9.78125 32.796875 -1 36.90625 -1 
C 39 -1 40.796875 0.890625 40.796875 2.59375 
C 40.796875 3.078125 40.796875 3.28125 40.09375 4.78125 
C 37.40625 11.671875 37.40625 20.25 37.40625 20.953125 
C 37.40625 21.546875 37.40625 28.625 39.5 37.625 
L 50.703125 37.625 
C 52 37.625 55.296875 37.625 55.296875 40.8125 
C 55.296875 43 53.40625 43 51.59375 43 
L 18.703125 43 
C 16.40625 43 13 43 8.40625 38.125 
C 5.796875 35.21875 2.59375 29.9375 2.59375 29.34375 
C 2.59375 28.75 3.09375 28.546875 3.703125 28.546875 
C 4.40625 28.546875 4.5 28.84375 5 29.4375 
C 10.203125 37.625 15.40625 37.625 17.90625 37.625 
L 23.59375 37.625 
C 21.40625 30.140625 18.90625 21.453125 10.703125 4 
C 9.90625 2.40625 9.90625 2.1875 9.90625 1.59375 
C 9.90625 -0.5 11.703125 -1 12.59375 -1 
C 15.5 -1 16.296875 1.59375 17.5 5.78125 
C 19.09375 10.875 19.09375 11.078125 20.09375 15.0625 
z
" id="CMMI12-25"/>
       </defs>
       <use transform="scale(0.996264)" xlink:href="#CMSY10-0"/>
       <use transform="translate(77.487468 0)scale(0.996264)" xlink:href="#CMMI12-25"/>
      </g>
     </g>
    </g>
    <g id="ytick_4">
     <g id="line2d_32">
      <path clip-path="url(#p401f7f0ed5)" d="M 54 219.054545 
L 388.8 219.054545 
" style="fill:none;stroke:#b0b0b0;stroke-linecap:square;stroke-width:0.8;"/>
     </g>
     <g id="line2d_33">
      <g>
       <use style="stroke:#000000;stroke-width:0.8;" x="54" xlink:href="#mfb3a91d0db" y="219.054545"/>
      </g>
     </g>
     <g id="text_18">
      <!-- $-\frac{\pi}{2}$ -->
      <g transform="translate(36.646677 222.517162)scale(0.1 -0.1)">
       <defs>
        <path d="M 41.703125 15.453125 
L 39.90625 15.453125 
C 38.90625 8.375 38.09375 7.171875 37.703125 6.5625 
C 37.203125 5.765625 30 5.765625 28.59375 5.765625 
L 9.40625 5.765625 
C 13 9.671875 20 16.75 28.5 24.953125 
C 34.59375 30.734375 41.703125 37.53125 41.703125 47.421875 
C 41.703125 59.21875 32.296875 66 21.796875 66 
C 10.796875 66 4.09375 56.3125 4.09375 47.34375 
C 4.09375 43.4375 7 42.9375 8.203125 42.9375 
C 9.203125 42.9375 12.203125 43.546875 12.203125 47.03125 
C 12.203125 50.109375 9.59375 51 8.203125 51 
C 7.59375 51 7 50.90625 6.59375 50.703125 
C 8.5 59.21875 14.296875 63.40625 20.40625 63.40625 
C 29.09375 63.40625 34.796875 56.515625 34.796875 47.421875 
C 34.796875 38.734375 29.703125 31.25 24 24.75 
L 4.09375 2.28125 
L 4.09375 0 
L 39.296875 0 
z
" id="CMR17-50"/>
       </defs>
       <use transform="scale(0.996264)" xlink:href="#CMSY10-0"/>
       <use transform="translate(78.682981 39.226102)scale(0.697382)" xlink:href="#CMMI12-25"/>
       <use transform="translate(83.310009 -34.355253)scale(0.697382)" xlink:href="#CMR17-50"/>
       <path d="M 78.682981 22.914133 
L 119.920203 22.914133 
L 119.920203 26.899083 
L 78.682981 26.899083 
L 78.682981 22.914133 
z
"/>
      </g>
     </g>
    </g>
    <g id="ytick_5">
     <g id="line2d_34">
      <path clip-path="url(#p401f7f0ed5)" d="M 54 186.109091 
L 388.8 186.109091 
" style="fill:none;stroke:#b0b0b0;stroke-linecap:square;stroke-width:0.8;"/>
     </g>
     <g id="line2d_35">
      <g>
       <use style="stroke:#000000;stroke-width:0.8;" x="54" xlink:href="#mfb3a91d0db" y="186.109091"/>
      </g>
     </g>
     <g id="text_19">
      <!-- 0 -->
      <g transform="translate(45.518665 189.56834)scale(0.1 -0.1)">
       <use transform="scale(0.996264)" xlink:href="#CMSS17-48"/>
      </g>
     </g>
    </g>
    <g id="ytick_6">
     <g id="line2d_36">
      <path clip-path="url(#p401f7f0ed5)" d="M 54 153.163636 
L 388.8 153.163636 
" style="fill:none;stroke:#b0b0b0;stroke-linecap:square;stroke-width:0.8;"/>
     </g>
     <g id="line2d_37">
      <g>
       <use style="stroke:#000000;stroke-width:0.8;" x="54" xlink:href="#mfb3a91d0db" y="153.163636"/>
      </g>
     </g>
     <g id="text_20">
      <!-- $\frac{\pi}{2}$ -->
      <g transform="translate(45.590934 156.626253)scale(0.1 -0.1)">
       <use transform="translate(0 39.226102)scale(0.697382)" xlink:href="#CMMI12-25"/>
       <use transform="translate(4.627027 -34.355253)scale(0.697382)" xlink:href="#CMR17-50"/>
       <path d="M 0 22.914133 
L 41.237221 22.914133 
L 41.237221 26.899083 
L 0 26.899083 
L 0 22.914133 
z
"/>
      </g>
     </g>
    </g>
    <g id="text_21">
     <!-- Phase in rad -->
     <g transform="translate(30.709498 228.609246)rotate(-90)scale(0.1 -0.1)">
      <defs>
       <path d="M 32.90625 29 
C 44.90625 29 54.703125 38.328125 54.703125 49.34375 
C 54.703125 60.15625 45.296875 69.578125 32.296875 69.578125 
L 8.90625 69.578125 
L 8.90625 0 
L 17.296875 0 
L 17.296875 29 
z
M 30.09375 64 
C 41.703125 64 46.796875 56.671875 46.796875 49.328125 
C 46.796875 42.5 42.09375 34.78125 30.09375 34.78125 
L 17.09375 34.78125 
L 17.09375 64 
z
" id="CMSS17-80"/>
       <path d="M 40.90625 29.546875 
C 40.90625 35.8125 39.40625 44.0625 28.09375 44.0625 
C 21.796875 44.0625 17.703125 40.984375 14.796875 37.609375 
L 14.796875 69.5 
L 7.40625 69.5 
L 7.40625 0.5 
L 15 0.5 
L 15 24.578125 
C 15 30.828125 17.40625 38 24.203125 38 
C 33 38 33.296875 32.125 33.296875 28.734375 
L 33.296875 0.5 
L 40.90625 0.5 
z
" id="CMSS17-104"/>
      </defs>
      <use transform="scale(0.996264)" xlink:href="#CMSS17-80"/>
      <use transform="translate(59.735586 0)scale(0.996264)" xlink:href="#CMSS17-104"/>
      <use transform="translate(107.940529 0)scale(0.996264)" xlink:href="#CMSS17-97"/>
      <use transform="translate(152.86245 0)scale(0.996264)" xlink:href="#CMSS17-115"/>
      <use transform="translate(188.775992 0)scale(0.996264)" xlink:href="#CMSS17-101"/>
      <use transform="translate(261.643927 0)scale(0.996264)" xlink:href="#CMSS17-105"/>
      <use transform="translate(283.82465 0)scale(0.996264)" xlink:href="#CMSS17-110"/>
      <use transform="translate(363.258706 0)scale(0.996264)" xlink:href="#CMSS17-114"/>
      <use transform="translate(395.168478 0)scale(0.996264)" xlink:href="#CMSS17-97"/>
      <use transform="translate(440.090399 0)scale(0.996264)" xlink:href="#CMSS17-100"/>
     </g>
    </g>
   </g>
   <g id="line2d_38">
    <path clip-path="url(#p401f7f0ed5)" d="M 69.218182 186.109091 
L 284.33217 186.251445 
L 302.093494 186.536857 
L 312.611586 186.933048 
L 320.297792 187.44898 
L 326.107817 188.064187 
L 330.605549 188.761295 
L 334.120478 189.519361 
L 337.006022 190.356734 
L 339.45371 191.294023 
L 341.461505 192.288116 
L 343.247271 193.412397 
L 344.855261 194.68945 
L 346.317687 196.141853 
L 347.658731 197.789587 
L 348.971338 199.768837 
L 350.25398 202.120272 
L 351.569101 205.002695 
L 353.132936 209.009256 
L 357.826853 221.503756 
L 359.143983 224.131124 
L 360.361844 226.082622 
L 361.562571 227.597332 
L 362.775261 228.771182 
L 363.991403 229.646556 
L 365.285459 230.303405 
L 366.658349 230.746749 
L 368.129096 230.986994 
L 369.766576 231.026126 
L 371.622901 230.843203 
L 373.581818 230.452269 
L 373.581818 230.452269 
" style="fill:none;stroke:#0051a2;stroke-linecap:square;stroke-width:1.5;"/>
   </g>
   <g id="line2d_39">
    <path clip-path="url(#p401f7f0ed5)" d="M 69.218182 182.629494 
L 84.108602 182.830212 
L 109.422317 182.935291 
L 191.691912 182.963396 
L 280.289922 183.073927 
L 298.530693 183.305897 
L 310.070767 183.665806 
L 318.2605 184.139602 
L 324.588931 184.7319 
L 329.428317 185.408093 
L 333.150926 186.140076 
L 336.129004 186.930366 
L 338.734834 187.84587 
L 340.968393 188.874841 
L 342.829697 189.979108 
L 344.318741 191.084423 
L 345.807784 192.452959 
L 347.296824 194.164834 
L 348.785869 196.318417 
L 349.902651 198.285962 
L 351.391691 201.439782 
L 352.880734 205.181704 
L 357.72012 218.121026 
L 359.209163 221.100973 
L 360.325944 222.885208 
L 361.442727 224.316875 
L 362.559509 225.439809 
L 363.67629 226.299731 
L 364.793072 226.937333 
L 366.282114 227.502155 
L 367.771163 227.802079 
L 369.260204 227.890379 
L 371.121507 227.766844 
L 373.35506 227.359953 
L 373.35506 227.359953 
" style="fill:none;stroke:#93003a;stroke-linecap:square;stroke-width:1.5;"/>
   </g>
   <g id="line2d_40">
    <path clip-path="url(#p401f7f0ed5)" d="M 69.218182 179.483435 
L 84.108602 179.684153 
L 109.422317 179.789232 
L 191.691912 179.817336 
L 280.289922 179.927868 
L 298.530693 180.159837 
L 310.070767 180.519747 
L 318.2605 180.993543 
L 324.588931 181.585841 
L 329.428317 182.262034 
L 333.150926 182.994017 
L 336.129004 183.784307 
L 338.734834 184.69981 
L 340.968393 185.728782 
L 342.829697 186.833048 
L 344.318741 187.938364 
L 345.807784 189.3069 
L 347.296824 191.018775 
L 348.785869 193.172358 
L 349.902651 195.139903 
L 351.391691 198.293722 
L 352.880734 202.035645 
L 357.72012 214.974967 
L 359.209163 217.954914 
L 360.325944 219.739149 
L 361.442727 221.170816 
L 362.559509 222.293749 
L 363.67629 223.153672 
L 364.793072 223.791274 
L 366.282114 224.356096 
L 367.771163 224.65602 
L 369.260204 224.74432 
L 371.121507 224.620784 
L 373.35506 224.213894 
L 373.35506 224.213894 
" style="fill:none;stroke:#97964a;stroke-linecap:square;stroke-width:1.5;"/>
   </g>
   <g id="patch_9">
    <path d="M 54 252 
L 54 153.163636 
" style="fill:none;stroke:#000000;stroke-linecap:square;stroke-linejoin:miter;stroke-width:0.8;"/>
   </g>
   <g id="patch_10">
    <path d="M 388.8 252 
L 388.8 153.163636 
" style="fill:none;stroke:#000000;stroke-linecap:square;stroke-linejoin:miter;stroke-width:0.8;"/>
   </g>
   <g id="patch_11">
    <path d="M 54 252 
L 388.8 252 
" style="fill:none;stroke:#000000;stroke-linecap:square;stroke-linejoin:miter;stroke-width:0.8;"/>
   </g>
   <g id="patch_12">
    <path d="M 54 153.163636 
L 388.8 153.163636 
" style="fill:none;stroke:#000000;stroke-linecap:square;stroke-linejoin:miter;stroke-width:0.8;"/>
   </g>
   <g id="legend_2">
    <g id="patch_13">
     <path d="M 59.831 247.835 
L 195.356237 247.835 
Q 197.022237 247.835 197.022237 246.169 
L 197.022237 210.440076 
Q 197.022237 208.774076 195.356237 208.774076 
L 59.831 208.774076 
Q 58.165 208.774076 58.165 210.440076 
L 58.165 246.169 
Q 58.165 247.835 59.831 247.835 
z
" style="fill:#ffffff;opacity:0.8;stroke:#cccccc;stroke-linejoin:miter;"/>
    </g>
    <g id="line2d_41">
     <path d="M 61.497 215.520075 
L 78.157 215.520075 
" style="fill:none;stroke:#0051a2;stroke-linecap:square;stroke-width:1.5;"/>
    </g>
    <g id="line2d_42"/>
    <g id="text_22">
     <!-- calculated -->
     <g transform="translate(84.821 218.435575)scale(0.0833 -0.0833)">
      <use transform="scale(0.996264)" xlink:href="#CMSS17-99"/>
      <use transform="translate(41.638822 0)scale(0.996264)" xlink:href="#CMSS17-97"/>
      <use transform="translate(86.560743 0)scale(0.996264)" xlink:href="#CMSS17-108"/>
      <use transform="translate(108.741466 0)scale(0.996264)" xlink:href="#CMSS17-99"/>
      <use transform="translate(150.380288 0)scale(0.996264)" xlink:href="#CMSS17-117"/>
      <use transform="translate(198.585231 0)scale(0.996264)" xlink:href="#CMSS17-108"/>
      <use transform="translate(220.765954 0)scale(0.996264)" xlink:href="#CMSS17-97"/>
      <use transform="translate(265.687875 0)scale(0.996264)" xlink:href="#CMSS17-116"/>
      <use transform="translate(299.519441 0)scale(0.996264)" xlink:href="#CMSS17-101"/>
      <use transform="translate(341.158263 0)scale(0.996264)" xlink:href="#CMSS17-100"/>
     </g>
    </g>
    <g id="line2d_43">
     <path d="M 61.497 227.746953 
L 78.157 227.746953 
" style="fill:none;stroke:#93003a;stroke-linecap:square;stroke-width:1.5;"/>
    </g>
    <g id="line2d_44"/>
    <g id="text_23">
     <!-- spice single ended + 0.15 rad -->
     <g transform="translate(84.821 230.662453)scale(0.0833 -0.0833)">
      <defs>
       <path d="M 28.40625 67 
L 26.5 67 
C 21.09375 61.5625 14.796875 60.78125 8.40625 60.78125 
L 8.40625 55 
C 11.296875 55 16 55 20.703125 57.296875 
L 20.703125 5.765625 
L 8.90625 5.765625 
L 8.90625 0 
L 40.203125 0 
L 40.203125 5.765625 
L 28.40625 5.765625 
z
" id="CMSS17-49"/>
      </defs>
      <use transform="scale(0.996264)" xlink:href="#CMSS17-115"/>
      <use transform="translate(35.913542 0)scale(0.996264)" xlink:href="#CMSS17-112"/>
      <use transform="translate(84.118485 0)scale(0.996264)" xlink:href="#CMSS17-105"/>
      <use transform="translate(106.299208 0)scale(0.996264)" xlink:href="#CMSS17-99"/>
      <use transform="translate(147.93803 0)scale(0.996264)" xlink:href="#CMSS17-101"/>
      <use transform="translate(220.805965 0)scale(0.996264)" xlink:href="#CMSS17-115"/>
      <use transform="translate(256.719507 0)scale(0.996264)" xlink:href="#CMSS17-105"/>
      <use transform="translate(278.90023 0)scale(0.996264)" xlink:href="#CMSS17-110"/>
      <use transform="translate(327.105173 0)scale(0.996264)" xlink:href="#CMSS17-103"/>
      <use transform="translate(373.948797 0)scale(0.996264)" xlink:href="#CMSS17-108"/>
      <use transform="translate(396.12952 0)scale(0.996264)" xlink:href="#CMSS17-101"/>
      <use transform="translate(468.997455 0)scale(0.996264)" xlink:href="#CMSS17-101"/>
      <use transform="translate(510.636277 0)scale(0.996264)" xlink:href="#CMSS17-110"/>
      <use transform="translate(558.84122 0)scale(0.996264)" xlink:href="#CMSS17-100"/>
      <use transform="translate(607.046163 0)scale(0.996264)" xlink:href="#CMSS17-101"/>
      <use transform="translate(648.684985 0)scale(0.996264)" xlink:href="#CMSS17-100"/>
      <use transform="translate(728.119041 0)scale(0.996264)" xlink:href="#CMSS17-43"/>
      <use transform="translate(832.216088 0)scale(0.996264)" xlink:href="#CMSS17-48"/>
      <use transform="translate(879.059712 0)scale(0.996264)" xlink:href="#CMSS17-46"/>
      <use transform="translate(905.083917 0)scale(0.996264)" xlink:href="#CMSS17-49"/>
      <use transform="translate(951.92754 0)scale(0.996264)" xlink:href="#CMSS17-53"/>
      <use transform="translate(1030.000277 0)scale(0.996264)" xlink:href="#CMSS17-114"/>
      <use transform="translate(1061.910049 0)scale(0.996264)" xlink:href="#CMSS17-97"/>
      <use transform="translate(1106.83197 0)scale(0.996264)" xlink:href="#CMSS17-100"/>
     </g>
    </g>
    <g id="line2d_45">
     <path d="M 61.497 239.973831 
L 78.157 239.973831 
" style="fill:none;stroke:#97964a;stroke-linecap:square;stroke-width:1.5;"/>
    </g>
    <g id="line2d_46"/>
    <g id="text_24">
     <!-- spice differential + 0.3 rad -->
     <g transform="translate(84.821 242.889331)scale(0.0833 -0.0833)">
      <defs>
       <path d="M 15.703125 31.640625 
L 22.5 31.640625 
C 31.90625 31.640625 34.59375 23.546875 34.59375 17.90625 
C 34.59375 10.203125 30.203125 4.171875 23 4.171875 
C 17.40625 4.171875 9.5 6.9375 5 14.25 
C 4.296875 10.796875 4.296875 10.59375 3.90625 8.21875 
C 8.59375 1.375 16.203125 -2 23.203125 -2 
C 34.59375 -2 43 7.390625 43 17.78125 
C 43 25.59375 37.5 32.140625 30 34.609375 
C 36 37.875 40.40625 44 40.40625 51.140625 
C 40.40625 59.453125 32.703125 66.078125 23.296875 66.078125 
C 14.703125 66.078125 8 60.8125 5.203125 55.15625 
C 5.90625 54.1875 7.703125 51.3125 8.59375 49.828125 
C 10.796875 55.65625 16.5 60 23.203125 60 
C 28.796875 60 32.5 56.359375 32.5 51.109375 
C 32.5 45.671875 29 39.734375 23.09375 38.359375 
C 22.703125 38.359375 16.5 37.765625 15.703125 37.671875 
z
" id="CMSS17-51"/>
      </defs>
      <use transform="scale(0.996264)" xlink:href="#CMSS17-115"/>
      <use transform="translate(35.913542 0)scale(0.996264)" xlink:href="#CMSS17-112"/>
      <use transform="translate(84.118485 0)scale(0.996264)" xlink:href="#CMSS17-105"/>
      <use transform="translate(106.299208 0)scale(0.996264)" xlink:href="#CMSS17-99"/>
      <use transform="translate(147.93803 0)scale(0.996264)" xlink:href="#CMSS17-101"/>
      <use transform="translate(220.805965 0)scale(0.996264)" xlink:href="#CMSS17-100"/>
      <use transform="translate(269.010908 0)scale(0.996264)" xlink:href="#CMSS17-105"/>
      <use transform="translate(291.191631 0)scale(0.996264)" xlink:href="#CMSS17-11"/>
      <use transform="translate(345.842601 0)scale(0.996264)" xlink:href="#CMSS17-101"/>
      <use transform="translate(387.481423 0)scale(0.996264)" xlink:href="#CMSS17-114"/>
      <use transform="translate(419.391196 0)scale(0.996264)" xlink:href="#CMSS17-101"/>
      <use transform="translate(461.030018 0)scale(0.996264)" xlink:href="#CMSS17-110"/>
      <use transform="translate(509.234961 0)scale(0.996264)" xlink:href="#CMSS17-116"/>
      <use transform="translate(543.066528 0)scale(0.996264)" xlink:href="#CMSS17-105"/>
      <use transform="translate(565.247251 0)scale(0.996264)" xlink:href="#CMSS17-97"/>
      <use transform="translate(610.169172 0)scale(0.996264)" xlink:href="#CMSS17-108"/>
      <use transform="translate(663.579007 0)scale(0.996264)" xlink:href="#CMSS17-43"/>
      <use transform="translate(767.676055 0)scale(0.996264)" xlink:href="#CMSS17-48"/>
      <use transform="translate(814.519678 0)scale(0.996264)" xlink:href="#CMSS17-46"/>
      <use transform="translate(840.543883 0)scale(0.996264)" xlink:href="#CMSS17-51"/>
      <use transform="translate(918.61662 0)scale(0.996264)" xlink:href="#CMSS17-114"/>
      <use transform="translate(950.526392 0)scale(0.996264)" xlink:href="#CMSS17-97"/>
      <use transform="translate(995.448313 0)scale(0.996264)" xlink:href="#CMSS17-100"/>
     </g>
    </g>
   </g>
  </g>
 </g>
 <defs>
  <clipPath id="p32663e073f">
   <rect height="98.836364" width="334.8" x="54" y="34.56"/>
  </clipPath>
  <clipPath id="p401f7f0ed5">
   <rect height="98.836364" width="334.8" x="54" y="153.163636"/>
  </clipPath>
 </defs>
</svg>
