<?xml version="1.0" encoding="UTF-8" standalone="no"?>
<!DOCTYPE svg PUBLIC "-//W3C//DTD SVG 1.1//EN"
 "http://www.w3.org/Graphics/SVG/1.1/DTD/svg11.dtd">
<!-- Generated by graphviz version 2.38.0 (20140413.2041)
 -->
<!-- Title: %3 Pages: 1 -->
<svg width="392pt" height="116pt"
 viewBox="0.00 0.00 391.63 116.00" xmlns="http://www.w3.org/2000/svg" xmlns:xlink="http://www.w3.org/1999/xlink">
<g id="graph0" class="graph" transform="scale(1 1) rotate(0) translate(4 112)">
<title>%3</title>
<polygon fill="white" stroke="none" points="-4,4 -4,-112 387.634,-112 387.634,4 -4,4"/>
<!-- ITF&#45;mET_Transducer -->
<g id="node1" class="node"><title>ITF&#45;mET_Transducer</title>
<ellipse fill="none" stroke="black" cx="89.0421" cy="-90" rx="89.0842" ry="18"/>
<text text-anchor="middle" x="89.0421" y="-86.3" font-family="Times,serif" font-size="14.00">ITF&#45;mET_Transducer</text>
</g>
<!-- Tri&#45;Piezo Head -->
<g id="node2" class="node"><title>Tri&#45;Piezo Head</title>
<ellipse fill="none" stroke="black" cx="89.0421" cy="-18" rx="64.9885" ry="18"/>
<text text-anchor="middle" x="89.0421" y="-14.3" font-family="Times,serif" font-size="14.00">Tri&#45;Piezo Head</text>
</g>
<!-- ITF&#45;mET_Transducer&#45;&gt;Tri&#45;Piezo Head -->
<g id="edge1" class="edge"><title>ITF&#45;mET_Transducer&#45;&gt;Tri&#45;Piezo Head</title>
<path fill="none" stroke="black" d="M83.1264,-71.6966C82.3307,-63.9827 82.1042,-54.7125 82.4468,-46.1124"/>
<polygon fill="black" stroke="black" points="85.9405,-46.3243 83.1471,-36.1043 78.9575,-45.8356 85.9405,-46.3243"/>
</g>
<!-- Tri&#45;Piezo Head&#45;&gt;ITF&#45;mET_Transducer -->
<g id="edge2" class="edge"><title>Tri&#45;Piezo Head&#45;&gt;ITF&#45;mET_Transducer</title>
<path fill="none" stroke="black" d="M94.9371,-36.1043C95.7426,-43.7913 95.979,-53.0537 95.6461,-61.6651"/>
<polygon fill="black" stroke="black" points="92.1506,-61.4805 94.9578,-71.6966 99.1342,-61.9597 92.1506,-61.4805"/>
</g>
<!-- ITF&#45;N_cc_motor_pwm -->
<g id="node3" class="node"><title>ITF&#45;N_cc_motor_pwm</title>
<ellipse fill="none" stroke="black" cx="290.042" cy="-90" rx="93.6835" ry="18"/>
<text text-anchor="middle" x="290.042" y="-86.3" font-family="Times,serif" font-size="14.00">ITF&#45;N_cc_motor_pwm</text>
</g>
<!-- Motor -->
<g id="node4" class="node"><title>Motor</title>
<ellipse fill="none" stroke="black" cx="290.042" cy="-18" rx="33.2948" ry="18"/>
<text text-anchor="middle" x="290.042" y="-14.3" font-family="Times,serif" font-size="14.00">Motor</text>
</g>
<!-- ITF&#45;N_cc_motor_pwm&#45;&gt;Motor -->
<g id="edge3" class="edge"><title>ITF&#45;N_cc_motor_pwm&#45;&gt;Motor</title>
<path fill="none" stroke="black" d="M290.042,-71.6966C290.042,-63.9827 290.042,-54.7125 290.042,-46.1124"/>
<polygon fill="black" stroke="black" points="293.542,-46.1043 290.042,-36.1043 286.542,-46.1044 293.542,-46.1043"/>
</g>
</g>
</svg>
