<?xml version="1.0" encoding="UTF-8" standalone="no"?>
<!DOCTYPE svg PUBLIC "-//W3C//DTD SVG 1.1//EN"
 "http://www.w3.org/Graphics/SVG/1.1/DTD/svg11.dtd">
<!-- Generated by graphviz version 2.38.0 (20140413.2041)
 -->
<!-- Title: %3 Pages: 1 -->
<svg width="392pt" height="188pt"
 viewBox="0.00 0.00 391.63 188.00" xmlns="http://www.w3.org/2000/svg" xmlns:xlink="http://www.w3.org/1999/xlink">
<g id="graph0" class="graph" transform="scale(1 1) rotate(0) translate(4 184)">
<title>%3</title>
<polygon fill="white" stroke="none" points="-4,4 -4,-184 387.634,-184 387.634,4 -4,4"/>
<!-- ITF&#45;mET_Transducer -->
<g id="node1" class="node"><title>ITF&#45;mET_Transducer</title>
<ellipse fill="none" stroke="black" cx="294.592" cy="-162" rx="89.0842" ry="18"/>
<text text-anchor="middle" x="294.592" y="-158.3" font-family="Times,serif" font-size="14.00">ITF&#45;mET_Transducer</text>
</g>
<!-- ATL3 -->
<g id="node2" class="node"><title>ATL3</title>
<ellipse fill="none" stroke="black" cx="206.592" cy="-90" rx="32.4942" ry="18"/>
<text text-anchor="middle" x="206.592" y="-86.3" font-family="Times,serif" font-size="14.00">ATL3</text>
</g>
<!-- ITF&#45;mET_Transducer&#45;&gt;ATL3 -->
<g id="edge1" class="edge"><title>ITF&#45;mET_Transducer&#45;&gt;ATL3</title>
<path fill="none" stroke="black" d="M273.737,-144.411C261.396,-134.594 245.659,-122.076 232.522,-111.627"/>
<polygon fill="black" stroke="black" points="234.332,-108.594 224.327,-105.108 229.974,-114.072 234.332,-108.594"/>
</g>
<!-- Tri&#45;Piezo Head -->
<g id="node3" class="node"><title>Tri&#45;Piezo Head</title>
<ellipse fill="none" stroke="black" cx="294.592" cy="-18" rx="64.9885" ry="18"/>
<text text-anchor="middle" x="294.592" y="-14.3" font-family="Times,serif" font-size="14.00">Tri&#45;Piezo Head</text>
</g>
<!-- ATL3&#45;&gt;Tri&#45;Piezo Head -->
<g id="edge2" class="edge"><title>ATL3&#45;&gt;Tri&#45;Piezo Head</title>
<path fill="none" stroke="black" d="M224.4,-74.8345C236.295,-65.3726 252.205,-52.7169 265.87,-41.8468"/>
<polygon fill="black" stroke="black" points="268.385,-44.3183 274.033,-35.3539 264.028,-38.8401 268.385,-44.3183"/>
</g>
<!-- Motor -->
<g id="node5" class="node"><title>Motor</title>
<ellipse fill="none" stroke="black" cx="178.592" cy="-18" rx="33.2948" ry="18"/>
<text text-anchor="middle" x="178.592" y="-14.3" font-family="Times,serif" font-size="14.00">Motor</text>
</g>
<!-- ATL3&#45;&gt;Motor -->
<g id="edge5" class="edge"><title>ATL3&#45;&gt;Motor</title>
<path fill="none" stroke="black" d="M199.814,-72.055C196.581,-63.9726 192.64,-54.1214 189.036,-45.1117"/>
<polygon fill="black" stroke="black" points="192.271,-43.7739 185.307,-35.789 185.772,-46.3737 192.271,-43.7739"/>
</g>
<!-- Tri&#45;Piezo Head&#45;&gt;ITF&#45;mET_Transducer -->
<g id="edge3" class="edge"><title>Tri&#45;Piezo Head&#45;&gt;ITF&#45;mET_Transducer</title>
<path fill="none" stroke="black" d="M294.592,-36.1893C294.592,-60.4244 294.592,-104.888 294.592,-133.679"/>
<polygon fill="black" stroke="black" points="291.092,-133.871 294.592,-143.871 298.092,-133.872 291.092,-133.871"/>
</g>
<!-- ITF&#45;N_cc_motor_pwm -->
<g id="node4" class="node"><title>ITF&#45;N_cc_motor_pwm</title>
<ellipse fill="none" stroke="black" cx="93.5917" cy="-162" rx="93.6835" ry="18"/>
<text text-anchor="middle" x="93.5917" y="-158.3" font-family="Times,serif" font-size="14.00">ITF&#45;N_cc_motor_pwm</text>
</g>
<!-- ITF&#45;N_cc_motor_pwm&#45;&gt;ATL3 -->
<g id="edge4" class="edge"><title>ITF&#45;N_cc_motor_pwm&#45;&gt;ATL3</title>
<path fill="none" stroke="black" d="M120.085,-144.588C137.084,-134.058 159.187,-120.366 176.795,-109.458"/>
<polygon fill="black" stroke="black" points="178.885,-112.28 185.543,-104.039 175.199,-106.33 178.885,-112.28"/>
</g>
</g>
</svg>
