<?xml version="1.0" encoding="UTF-8" standalone="no"?>
<!DOCTYPE svg PUBLIC "-//W3C//DTD SVG 1.1//EN"
 "http://www.w3.org/Graphics/SVG/1.1/DTD/svg11.dtd">
<!-- Generated by graphviz version 2.38.0 (20140413.2041)
 -->
<!-- Title: %3 Pages: 1 -->
<svg width="102pt" height="260pt"
 viewBox="0.00 0.00 101.59 260.00" xmlns="http://www.w3.org/2000/svg" xmlns:xlink="http://www.w3.org/1999/xlink">
<g id="graph0" class="graph" transform="scale(1 1) rotate(0) translate(4 256)">
<title>%3</title>
<polygon fill="white" stroke="none" points="-4,4 -4,-256 97.5917,-256 97.5917,4 -4,4"/>
<!-- ITF&#45;B_5v -->
<g id="node1" class="node"><title>ITF&#45;B_5v</title>
<ellipse fill="none" stroke="black" cx="46.7958" cy="-234" rx="46.2923" ry="18"/>
<text text-anchor="middle" x="46.7958" y="-230.3" font-family="Times,serif" font-size="14.00">ITF&#45;B_5v</text>
</g>
<!-- BBB -->
<g id="node2" class="node"><title>BBB</title>
<ellipse fill="none" stroke="black" cx="46.7958" cy="-162" rx="28.6953" ry="18"/>
<text text-anchor="middle" x="46.7958" y="-158.3" font-family="Times,serif" font-size="14.00">BBB</text>
</g>
<!-- ITF&#45;B_5v&#45;&gt;BBB -->
<g id="edge1" class="edge"><title>ITF&#45;B_5v&#45;&gt;BBB</title>
<path fill="none" stroke="black" d="M46.7958,-215.697C46.7958,-207.983 46.7958,-198.712 46.7958,-190.112"/>
<polygon fill="black" stroke="black" points="50.2959,-190.104 46.7958,-180.104 43.2959,-190.104 50.2959,-190.104"/>
</g>
<!-- PRUDAQ -->
<g id="node3" class="node"><title>PRUDAQ</title>
<ellipse fill="none" stroke="black" cx="46.7958" cy="-90" rx="46.5926" ry="18"/>
<text text-anchor="middle" x="46.7958" y="-86.3" font-family="Times,serif" font-size="14.00">PRUDAQ</text>
</g>
<!-- BBB&#45;&gt;PRUDAQ -->
<g id="edge2" class="edge"><title>BBB&#45;&gt;PRUDAQ</title>
<path fill="none" stroke="black" d="M46.7958,-143.697C46.7958,-135.983 46.7958,-126.712 46.7958,-118.112"/>
<polygon fill="black" stroke="black" points="50.2959,-118.104 46.7958,-108.104 43.2959,-118.104 50.2959,-118.104"/>
</g>
<!-- File -->
<g id="node4" class="node"><title>File</title>
<ellipse fill="none" stroke="black" cx="46.7958" cy="-18" rx="27" ry="18"/>
<text text-anchor="middle" x="46.7958" y="-14.3" font-family="Times,serif" font-size="14.00">File</text>
</g>
<!-- PRUDAQ&#45;&gt;File -->
<g id="edge3" class="edge"><title>PRUDAQ&#45;&gt;File</title>
<path fill="none" stroke="black" d="M46.7958,-71.6966C46.7958,-63.9827 46.7958,-54.7125 46.7958,-46.1124"/>
<polygon fill="black" stroke="black" points="50.2959,-46.1043 46.7958,-36.1043 43.2959,-46.1044 50.2959,-46.1043"/>
</g>
</g>
</svg>
