%FSLAX42Y42*%
%MOMM*%
G71*
G01*
G75*
G04 Layer_Color=8421504*
%ADD10R,0.75X1.60*%
%ADD11R,0.40X1.55*%
%ADD12R,1.45X0.55*%
%ADD13R,1.45X0.55*%
%ADD14R,0.80X0.80*%
%ADD15R,0.80X0.80*%
%ADD16R,0.90X1.60*%
%ADD17R,1.30X1.30*%
%ADD18R,0.90X1.25*%
%ADD19R,1.25X0.90*%
%ADD20R,1.60X0.90*%
%ADD21R,1.30X1.30*%
%ADD22R,1.50X1.50*%
%ADD23O,0.30X0.80*%
%ADD24O,0.80X0.30*%
%ADD25R,1.75X1.75*%
%ADD26O,1.45X0.45*%
%ADD27R,1.60X4.90*%
%ADD28R,0.70X2.35*%
%ADD29C,0.25*%
%ADD30C,0.38*%
%ADD31C,0.51*%
%ADD32C,0.64*%
%ADD33C,1.30*%
%ADD34R,1.20X1.20*%
%ADD35C,1.02*%
%ADD36C,1.52*%
%ADD37R,1.52X1.52*%
%ADD38C,0.89*%
%ADD39C,0.76*%
%ADD40C,0.25*%
%ADD41C,0.20*%
%ADD42C,0.30*%
%ADD43C,0.60*%
%ADD44C,0.15*%
%ADD45C,0.18*%
%ADD46C,0.10*%
%ADD47C,0.12*%
%ADD48C,0.25*%
%ADD49C,0.15*%
%ADD50C,0.13*%
D10*
X5977Y4302D02*
D03*
X5850D02*
D03*
X5723D02*
D03*
Y3973D02*
D03*
X5977D02*
D03*
D11*
X7457Y3928D02*
D03*
X7393D02*
D03*
X7328D02*
D03*
X7262D02*
D03*
X7457Y3512D02*
D03*
X7393D02*
D03*
X7328D02*
D03*
X7262D02*
D03*
D12*
X6878Y3745D02*
D03*
D13*
X6878Y3840D02*
D03*
Y3935D02*
D03*
X6662D02*
D03*
Y3745D02*
D03*
D14*
X6400Y4298D02*
D03*
Y4123D02*
D03*
X6400Y3762D02*
D03*
Y3937D02*
D03*
X6670Y4122D02*
D03*
Y4297D02*
D03*
X6870Y4122D02*
D03*
Y4297D02*
D03*
X7070Y4122D02*
D03*
Y4297D02*
D03*
X6380Y5568D02*
D03*
Y5393D02*
D03*
X5630Y5568D02*
D03*
Y5393D02*
D03*
X7250Y5437D02*
D03*
Y5262D02*
D03*
X6890Y5263D02*
D03*
Y5438D02*
D03*
X7070Y5437D02*
D03*
Y5262D02*
D03*
X6430Y5047D02*
D03*
Y4872D02*
D03*
X6200Y4873D02*
D03*
Y5048D02*
D03*
D15*
X6178Y6530D02*
D03*
X6003D02*
D03*
X7532Y5640D02*
D03*
X7707D02*
D03*
X7532Y6500D02*
D03*
X7707D02*
D03*
X5948Y7020D02*
D03*
X5773D02*
D03*
X7532Y6690D02*
D03*
X7707D02*
D03*
X7543Y4840D02*
D03*
X7718D02*
D03*
X7543Y5220D02*
D03*
X7718D02*
D03*
X7717Y4660D02*
D03*
X7542D02*
D03*
X7717Y5030D02*
D03*
X7542D02*
D03*
X6003Y5980D02*
D03*
X6178D02*
D03*
X7707Y6260D02*
D03*
X7532D02*
D03*
X7707Y6060D02*
D03*
X7532D02*
D03*
X7707Y5840D02*
D03*
X7532D02*
D03*
X7583Y7390D02*
D03*
X7758D02*
D03*
X7583Y7200D02*
D03*
X7758D02*
D03*
X6177Y6170D02*
D03*
X6002D02*
D03*
X6003Y6350D02*
D03*
X6178D02*
D03*
X7297Y7390D02*
D03*
X7122D02*
D03*
X7297Y7200D02*
D03*
X7122D02*
D03*
X6727Y7230D02*
D03*
X6552D02*
D03*
X6163Y7020D02*
D03*
X6338D02*
D03*
X6162Y7230D02*
D03*
X6337D02*
D03*
X6178Y6730D02*
D03*
X6003D02*
D03*
D16*
X5770Y6664D02*
D03*
X5490D02*
D03*
D17*
X5630Y6421D02*
D03*
D18*
X7560Y6980D02*
D03*
X7740D02*
D03*
X7140D02*
D03*
X7320D02*
D03*
X5920Y7230D02*
D03*
X5740D02*
D03*
D19*
X6140Y5380D02*
D03*
Y5560D02*
D03*
X5880Y5380D02*
D03*
Y5560D02*
D03*
D20*
X6656Y3480D02*
D03*
Y3200D02*
D03*
D21*
X6899Y3340D02*
D03*
D22*
X5930Y5020D02*
D03*
Y4820D02*
D03*
X5590Y5020D02*
D03*
Y4820D02*
D03*
D23*
X7135Y5020D02*
D03*
X7085D02*
D03*
X7035D02*
D03*
X6985D02*
D03*
Y4720D02*
D03*
X7035D02*
D03*
X7085D02*
D03*
X7135D02*
D03*
D24*
X6910Y4945D02*
D03*
Y4895D02*
D03*
Y4845D02*
D03*
Y4795D02*
D03*
X7210D02*
D03*
Y4845D02*
D03*
Y4895D02*
D03*
Y4945D02*
D03*
D25*
X7060Y4870D02*
D03*
D26*
X7182Y6042D02*
D03*
Y6106D02*
D03*
Y6170D02*
D03*
Y6234D02*
D03*
Y6298D02*
D03*
Y6362D02*
D03*
Y6426D02*
D03*
Y6490D02*
D03*
Y6554D02*
D03*
Y6618D02*
D03*
X6638Y6042D02*
D03*
Y6106D02*
D03*
Y6170D02*
D03*
Y6234D02*
D03*
Y6298D02*
D03*
Y6362D02*
D03*
Y6426D02*
D03*
Y6490D02*
D03*
Y6554D02*
D03*
Y6618D02*
D03*
D27*
X6865Y7722D02*
D03*
X6015D02*
D03*
D28*
X6440Y7880D02*
D03*
D29*
X5000Y3000D02*
X8500D01*
Y8000D01*
X5000D02*
X8500D01*
X5000Y3000D02*
Y8000D01*
M02*
