%FSLAX42Y42*%
%MOMM*%
G71*
G01*
G75*
G04 Layer_Color=2752767*
%ADD10R,0.75X1.60*%
%ADD11R,0.40X1.55*%
%ADD12R,1.45X0.55*%
%ADD13R,1.45X0.55*%
%ADD14R,0.80X0.80*%
%ADD15R,0.80X0.80*%
%ADD16R,0.90X1.60*%
%ADD17R,1.30X1.30*%
%ADD18R,0.90X1.25*%
%ADD19R,1.25X0.90*%
%ADD20R,1.60X0.90*%
%ADD21R,1.30X1.30*%
%ADD22R,1.50X1.50*%
%ADD23O,0.30X0.80*%
%ADD24O,0.80X0.30*%
%ADD25R,1.75X1.75*%
%ADD26O,1.45X0.45*%
%ADD27R,1.60X4.90*%
%ADD28R,0.70X2.35*%
%ADD29C,0.25*%
%ADD30C,0.38*%
%ADD31C,0.51*%
%ADD32C,0.64*%
%ADD33C,1.30*%
%ADD34R,1.20X1.20*%
%ADD35C,1.02*%
%ADD36C,1.52*%
%ADD37R,1.52X1.52*%
%ADD38C,0.89*%
%ADD39C,0.76*%
%ADD40C,0.25*%
%ADD41C,0.20*%
%ADD42C,0.30*%
%ADD43C,0.60*%
%ADD44C,0.15*%
%ADD45C,0.18*%
%ADD46C,0.10*%
%ADD47C,0.12*%
%ADD48C,0.25*%
%ADD49C,0.15*%
%ADD50C,0.13*%
%ADD51R,0.95X1.80*%
%ADD52R,0.60X1.75*%
%ADD53R,1.65X0.75*%
%ADD54R,1.65X0.75*%
%ADD55R,1.00X1.00*%
%ADD56R,1.00X1.00*%
%ADD57R,1.10X1.80*%
%ADD58R,1.50X1.50*%
%ADD59R,1.10X1.45*%
%ADD60R,1.45X1.10*%
%ADD61R,1.80X1.10*%
%ADD62R,1.50X1.50*%
%ADD63R,1.70X1.70*%
%ADD64O,0.50X1.00*%
%ADD65O,1.00X0.50*%
%ADD66R,1.95X1.95*%
%ADD67O,1.65X0.65*%
%ADD68R,1.80X5.10*%
%ADD69R,0.90X2.55*%
%ADD70C,1.50*%
%ADD71R,1.40X1.40*%
%ADD72C,1.22*%
%ADD73C,1.73*%
%ADD74R,1.73X1.73*%
%ADD75C,1.09*%
%ADD76C,0.05*%
%ADD77C,0.13*%
%ADD78C,0.17*%
D29*
X5000Y3000D02*
X8500D01*
Y8000D01*
X5000D02*
X8500D01*
X5000Y3000D02*
Y8000D01*
D77*
X7809Y4259D02*
Y4361D01*
X7911D01*
Y4259D01*
X7809D01*
Y4059D02*
Y4161D01*
X7911D01*
Y4059D01*
X7809D01*
Y3859D02*
Y3961D01*
X7911D01*
Y3859D01*
X7809D01*
Y3659D02*
Y3761D01*
X7911D01*
Y3659D01*
X7809D01*
Y3259D02*
Y3361D01*
X7911D01*
Y3259D01*
X7809D01*
Y3459D02*
Y3561D01*
X7911D01*
Y3459D01*
X7809D01*
X5250Y7721D02*
X5199Y7823D01*
X5301D01*
X5250Y7721D01*
Y7467D02*
X5199Y7569D01*
X5301D01*
X5250Y7467D01*
Y7213D02*
X5199Y7315D01*
X5301D01*
X5250Y7213D01*
Y6959D02*
X5199Y7061D01*
X5301D01*
X5250Y6959D01*
Y6705D02*
X5199Y6807D01*
X5301D01*
X5250Y6705D01*
Y6451D02*
X5199Y6553D01*
X5301D01*
X5250Y6451D01*
Y6197D02*
X5199Y6299D01*
X5301D01*
X5250Y6197D01*
Y5943D02*
X5199Y6045D01*
X5301D01*
X5250Y5943D01*
Y5689D02*
X5199Y5791D01*
X5301D01*
X5250Y5689D01*
Y5435D02*
X5199Y5537D01*
X5301D01*
X5250Y5435D01*
Y5181D02*
X5199Y5283D01*
X5301D01*
X5250Y5181D01*
Y4927D02*
X5199Y5029D01*
X5301D01*
X5250Y4927D01*
Y4673D02*
X5199Y4775D01*
X5301D01*
X5250Y4673D01*
Y4419D02*
X5199Y4521D01*
X5301D01*
X5250Y4419D01*
Y4165D02*
X5199Y4267D01*
X5301D01*
X5250Y4165D01*
Y3911D02*
X5199Y4013D01*
X5301D01*
X5250Y3911D01*
Y3657D02*
X5199Y3759D01*
X5301D01*
X5250Y3657D01*
Y3149D02*
X5199Y3251D01*
X5301D01*
X5250Y3149D01*
Y3403D02*
X5199Y3505D01*
X5301D01*
X5250Y3403D01*
X8300Y7721D02*
X8249Y7823D01*
X8351D01*
X8300Y7721D01*
Y7467D02*
X8249Y7569D01*
X8351D01*
X8300Y7467D01*
Y7213D02*
X8249Y7315D01*
X8351D01*
X8300Y7213D01*
Y6959D02*
X8249Y7061D01*
X8351D01*
X8300Y6959D01*
Y6705D02*
X8249Y6807D01*
X8351D01*
X8300Y6705D01*
Y6451D02*
X8249Y6553D01*
X8351D01*
X8300Y6451D01*
Y6197D02*
X8249Y6299D01*
X8351D01*
X8300Y6197D01*
Y5943D02*
X8249Y6045D01*
X8351D01*
X8300Y5943D01*
Y5689D02*
X8249Y5791D01*
X8351D01*
X8300Y5689D01*
Y5435D02*
X8249Y5537D01*
X8351D01*
X8300Y5435D01*
Y5181D02*
X8249Y5283D01*
X8351D01*
X8300Y5181D01*
Y4927D02*
X8249Y5029D01*
X8351D01*
X8300Y4927D01*
Y4673D02*
X8249Y4775D01*
X8351D01*
X8300Y4673D01*
Y4419D02*
X8249Y4521D01*
X8351D01*
X8300Y4419D01*
Y4165D02*
X8249Y4267D01*
X8351D01*
X8300Y4165D01*
Y3911D02*
X8249Y4013D01*
X8351D01*
X8300Y3911D01*
Y3657D02*
X8249Y3759D01*
X8351D01*
X8300Y3657D01*
Y3149D02*
X8249Y3251D01*
X8351D01*
X8300Y3149D01*
Y3403D02*
X8249Y3505D01*
X8351D01*
X8300Y3403D01*
X7140Y3689D02*
X7165Y3715D01*
X7191D01*
X7165Y3740D01*
X7191Y3765D01*
X7165D01*
X7140Y3791D01*
X7115Y3765D01*
X7089D01*
X7115Y3740D01*
X7089Y3715D01*
X7115D01*
X7140Y3689D01*
X6000Y6819D02*
X6025Y6845D01*
X6051D01*
X6025Y6870D01*
X6051Y6895D01*
X6025D01*
X6000Y6921D01*
X5975Y6895D01*
X5949D01*
X5975Y6870D01*
X5949Y6845D01*
X5975D01*
X6000Y6819D01*
X7950Y5269D02*
X7975Y5295D01*
X8001D01*
X7975Y5320D01*
X8001Y5345D01*
X7975D01*
X7950Y5371D01*
X7925Y5345D01*
X7899D01*
X7925Y5320D01*
X7899Y5295D01*
X7925D01*
X7950Y5269D01*
X7160Y3289D02*
X7185Y3315D01*
X7211D01*
X7185Y3340D01*
X7211Y3365D01*
X7185D01*
X7160Y3391D01*
X7135Y3365D01*
X7109D01*
X7135Y3340D01*
X7109Y3315D01*
X7135D01*
X7160Y3289D01*
X7200Y7639D02*
X7225Y7665D01*
X7251D01*
X7225Y7690D01*
X7251Y7715D01*
X7225D01*
X7200Y7741D01*
X7175Y7715D01*
X7149D01*
X7175Y7690D01*
X7149Y7665D01*
X7175D01*
X7200Y7639D01*
Y6719D02*
X7225Y6745D01*
X7251D01*
X7225Y6770D01*
X7251Y6795D01*
X7225D01*
X7200Y6821D01*
X7175Y6795D01*
X7149D01*
X7175Y6770D01*
X7149Y6745D01*
X7175D01*
X7200Y6719D01*
X7440Y6769D02*
X7465Y6795D01*
X7491D01*
X7465Y6820D01*
X7491Y6845D01*
X7465D01*
X7440Y6871D01*
X7415Y6845D01*
X7389D01*
X7415Y6820D01*
X7389Y6795D01*
X7415D01*
X7440Y6769D01*
X6900Y5059D02*
X6925Y5085D01*
X6951D01*
X6925Y5110D01*
X6951Y5135D01*
X6925D01*
X6900Y5161D01*
X6875Y5135D01*
X6849D01*
X6875Y5110D01*
X6849Y5085D01*
X6875D01*
X6900Y5059D01*
X7620Y3899D02*
X7645Y3925D01*
X7671D01*
X7645Y3950D01*
X7671Y3975D01*
X7645D01*
X7620Y4001D01*
X7595Y3975D01*
X7569D01*
X7595Y3950D01*
X7569Y3925D01*
X7595D01*
X7620Y3899D01*
X7320Y4509D02*
X7345Y4535D01*
X7371D01*
X7345Y4560D01*
X7371Y4585D01*
X7345D01*
X7320Y4611D01*
X7295Y4585D01*
X7269D01*
X7295Y4560D01*
X7269Y4535D01*
X7295D01*
X7320Y4509D01*
X6790Y5139D02*
X6815Y5165D01*
X6841D01*
X6815Y5190D01*
X6841Y5215D01*
X6815D01*
X6790Y5241D01*
X6765Y5215D01*
X6739D01*
X6765Y5190D01*
X6739Y5165D01*
X6765D01*
X6790Y5139D01*
X5860Y7839D02*
X5885Y7865D01*
X5911D01*
X5885Y7890D01*
X5911Y7915D01*
X5885D01*
X5860Y7941D01*
X5835Y7915D01*
X5809D01*
X5835Y7890D01*
X5809Y7865D01*
X5835D01*
X5860Y7839D01*
D78*
X5721Y7607D02*
G03*
X5721Y7607I-51J0D01*
G01*
Y7480D02*
G03*
X5721Y7480I-51J0D01*
G01*
Y7734D02*
G03*
X5721Y7734I-51J0D01*
G01*
X5710Y5990D02*
G03*
X5710Y5990I-51J0D01*
G01*
X5583D02*
G03*
X5583Y5990I-51J0D01*
G01*
X5837D02*
G03*
X5837Y5990I-51J0D01*
G01*
M02*
