<?xml version="1.0" encoding="UTF-8" standalone="no"?>
<!DOCTYPE svg PUBLIC "-//W3C//DTD SVG 1.1//EN"
 "http://www.w3.org/Graphics/SVG/1.1/DTD/svg11.dtd">
<!-- Generated by graphviz version 2.38.0 (20140413.2041)
 -->
<!-- Title: %3 Pages: 1 -->
<svg width="683pt" height="692pt"
 viewBox="0.00 0.00 682.58 692.00" xmlns="http://www.w3.org/2000/svg" xmlns:xlink="http://www.w3.org/1999/xlink">
<g id="graph0" class="graph" transform="scale(1 1) rotate(0) translate(4 688)">
<title>%3</title>
<polygon fill="white" stroke="none" points="-4,4 -4,-688 678.585,-688 678.585,4 -4,4"/>
<!-- ITF&#45;7_GAIN -->
<g id="node1" class="node"><title>ITF&#45;7_GAIN</title>
<ellipse fill="none" stroke="black" cx="57.8449" cy="-666" rx="57.6901" ry="18"/>
<text text-anchor="middle" x="57.8449" y="-662.3" font-family="Times,serif" font-size="14.00">ITF&#45;7_GAIN</text>
</g>
<!-- Goblin_Jumper2 -->
<g id="node2" class="node"><title>Goblin_Jumper2</title>
<ellipse fill="none" stroke="black" cx="252.845" cy="-594" rx="70.3881" ry="18"/>
<text text-anchor="middle" x="252.845" y="-590.3" font-family="Times,serif" font-size="14.00">Goblin_Jumper2</text>
</g>
<!-- ITF&#45;7_GAIN&#45;&gt;Goblin_Jumper2 -->
<g id="edge1" class="edge"><title>ITF&#45;7_GAIN&#45;&gt;Goblin_Jumper2</title>
<path fill="none" stroke="black" d="M94.5229,-651.834C125.45,-640.731 169.972,-624.749 203.931,-612.559"/>
<polygon fill="black" stroke="black" points="205.425,-615.741 213.655,-609.068 203.06,-609.153 205.425,-615.741"/>
</g>
<!-- AD8331 -->
<g id="node3" class="node"><title>AD8331</title>
<ellipse fill="none" stroke="black" cx="348.845" cy="-522" rx="40.8928" ry="18"/>
<text text-anchor="middle" x="348.845" y="-518.3" font-family="Times,serif" font-size="14.00">AD8331</text>
</g>
<!-- Goblin_Jumper2&#45;&gt;AD8331 -->
<g id="edge2" class="edge"><title>Goblin_Jumper2&#45;&gt;AD8331</title>
<path fill="none" stroke="black" d="M275.11,-576.765C288.631,-566.906 306.018,-554.228 320.513,-543.659"/>
<polygon fill="black" stroke="black" points="322.644,-546.437 328.662,-537.717 318.519,-540.781 322.644,-546.437"/>
</g>
<!-- ITF&#45;C_amplified_raw_signal -->
<g id="node4" class="node"><title>ITF&#45;C_amplified_raw_signal</title>
<ellipse fill="none" stroke="black" cx="348.845" cy="-450" rx="114.28" ry="18"/>
<text text-anchor="middle" x="348.845" y="-446.3" font-family="Times,serif" font-size="14.00">ITF&#45;C_amplified_raw_signal</text>
</g>
<!-- AD8331&#45;&gt;ITF&#45;C_amplified_raw_signal -->
<g id="edge3" class="edge"><title>AD8331&#45;&gt;ITF&#45;C_amplified_raw_signal</title>
<path fill="none" stroke="black" d="M348.845,-503.697C348.845,-495.983 348.845,-486.712 348.845,-478.112"/>
<polygon fill="black" stroke="black" points="352.345,-478.104 348.845,-468.104 345.345,-478.104 352.345,-478.104"/>
</g>
<!-- ADL5511 -->
<g id="node5" class="node"><title>ADL5511</title>
<ellipse fill="none" stroke="black" cx="348.845" cy="-378" rx="46.2923" ry="18"/>
<text text-anchor="middle" x="348.845" y="-374.3" font-family="Times,serif" font-size="14.00">ADL5511</text>
</g>
<!-- ITF&#45;C_amplified_raw_signal&#45;&gt;ADL5511 -->
<g id="edge4" class="edge"><title>ITF&#45;C_amplified_raw_signal&#45;&gt;ADL5511</title>
<path fill="none" stroke="black" d="M348.845,-431.697C348.845,-423.983 348.845,-414.712 348.845,-406.112"/>
<polygon fill="black" stroke="black" points="352.345,-406.104 348.845,-396.104 345.345,-406.104 352.345,-406.104"/>
</g>
<!-- ITF&#45;3_ENV -->
<g id="node6" class="node"><title>ITF&#45;3_ENV</title>
<ellipse fill="none" stroke="black" cx="290.845" cy="-306" rx="53.8905" ry="18"/>
<text text-anchor="middle" x="290.845" y="-302.3" font-family="Times,serif" font-size="14.00">ITF&#45;3_ENV</text>
</g>
<!-- ADL5511&#45;&gt;ITF&#45;3_ENV -->
<g id="edge5" class="edge"><title>ADL5511&#45;&gt;ITF&#45;3_ENV</title>
<path fill="none" stroke="black" d="M335.393,-360.765C328.177,-352.056 319.138,-341.147 311.091,-331.435"/>
<polygon fill="black" stroke="black" points="313.702,-329.101 304.627,-323.633 308.312,-333.567 313.702,-329.101"/>
</g>
<!-- Int&#45;Offset -->
<g id="node16" class="node"><title>Int&#45;Offset</title>
<ellipse fill="none" stroke="black" cx="407.845" cy="-306" rx="45.4919" ry="18"/>
<text text-anchor="middle" x="407.845" y="-302.3" font-family="Times,serif" font-size="14.00">Int&#45;Offset</text>
</g>
<!-- ADL5511&#45;&gt;Int&#45;Offset -->
<g id="edge15" class="edge"><title>ADL5511&#45;&gt;Int&#45;Offset</title>
<path fill="none" stroke="black" d="M362.529,-360.765C369.869,-352.056 379.064,-341.147 387.25,-331.435"/>
<polygon fill="black" stroke="black" points="390.057,-333.535 393.825,-323.633 384.704,-329.024 390.057,-333.535"/>
</g>
<!-- AD8691 -->
<g id="node7" class="node"><title>AD8691</title>
<ellipse fill="none" stroke="black" cx="348.845" cy="-234" rx="40.8928" ry="18"/>
<text text-anchor="middle" x="348.845" y="-230.3" font-family="Times,serif" font-size="14.00">AD8691</text>
</g>
<!-- ITF&#45;3_ENV&#45;&gt;AD8691 -->
<g id="edge6" class="edge"><title>ITF&#45;3_ENV&#45;&gt;AD8691</title>
<path fill="none" stroke="black" d="M304.59,-288.411C311.813,-279.693 320.802,-268.845 328.787,-259.208"/>
<polygon fill="black" stroke="black" points="331.513,-261.403 335.198,-251.47 326.123,-256.937 331.513,-261.403"/>
</g>
<!-- ITF&#45;Ext_Amplified -->
<g id="node8" class="node"><title>ITF&#45;Ext_Amplified</title>
<ellipse fill="none" stroke="black" cx="348.845" cy="-162" rx="79.8859" ry="18"/>
<text text-anchor="middle" x="348.845" y="-158.3" font-family="Times,serif" font-size="14.00">ITF&#45;Ext_Amplified</text>
</g>
<!-- AD8691&#45;&gt;ITF&#45;Ext_Amplified -->
<g id="edge7" class="edge"><title>AD8691&#45;&gt;ITF&#45;Ext_Amplified</title>
<path fill="none" stroke="black" d="M348.845,-215.697C348.845,-207.983 348.845,-198.712 348.845,-190.112"/>
<polygon fill="black" stroke="black" points="352.345,-190.104 348.845,-180.104 345.345,-190.104 352.345,-190.104"/>
</g>
<!-- AD7274 -->
<g id="node9" class="node"><title>AD7274</title>
<ellipse fill="none" stroke="black" cx="454.845" cy="-90" rx="40.8928" ry="18"/>
<text text-anchor="middle" x="454.845" y="-86.3" font-family="Times,serif" font-size="14.00">AD7274</text>
</g>
<!-- ITF&#45;Ext_Amplified&#45;&gt;AD7274 -->
<g id="edge8" class="edge"><title>ITF&#45;Ext_Amplified&#45;&gt;AD7274</title>
<path fill="none" stroke="black" d="M373.43,-144.765C388.601,-134.746 408.183,-121.815 424.34,-111.145"/>
<polygon fill="black" stroke="black" points="426.498,-113.914 432.914,-105.483 422.64,-108.073 426.498,-113.914"/>
</g>
<!-- ITF&#45;mEG_SPI -->
<g id="node10" class="node"><title>ITF&#45;mEG_SPI</title>
<ellipse fill="none" stroke="black" cx="454.845" cy="-18" rx="63.0888" ry="18"/>
<text text-anchor="middle" x="454.845" y="-14.3" font-family="Times,serif" font-size="14.00">ITF&#45;mEG_SPI</text>
</g>
<!-- AD7274&#45;&gt;ITF&#45;mEG_SPI -->
<g id="edge9" class="edge"><title>AD7274&#45;&gt;ITF&#45;mEG_SPI</title>
<path fill="none" stroke="black" d="M454.845,-71.6966C454.845,-63.9827 454.845,-54.7125 454.845,-46.1124"/>
<polygon fill="black" stroke="black" points="458.345,-46.1043 454.845,-36.1043 451.345,-46.1044 458.345,-46.1043"/>
</g>
<!-- ITF&#45;18_Raw -->
<g id="node11" class="node"><title>ITF&#45;18_Raw</title>
<ellipse fill="none" stroke="black" cx="445.845" cy="-666" rx="55.7903" ry="18"/>
<text text-anchor="middle" x="445.845" y="-662.3" font-family="Times,serif" font-size="14.00">ITF&#45;18_Raw</text>
</g>
<!-- Goblin_Jumper1 -->
<g id="node12" class="node"><title>Goblin_Jumper1</title>
<ellipse fill="none" stroke="black" cx="445.845" cy="-594" rx="70.3881" ry="18"/>
<text text-anchor="middle" x="445.845" y="-590.3" font-family="Times,serif" font-size="14.00">Goblin_Jumper1</text>
</g>
<!-- ITF&#45;18_Raw&#45;&gt;Goblin_Jumper1 -->
<g id="edge10" class="edge"><title>ITF&#45;18_Raw&#45;&gt;Goblin_Jumper1</title>
<path fill="none" stroke="black" d="M445.845,-647.697C445.845,-639.983 445.845,-630.712 445.845,-622.112"/>
<polygon fill="black" stroke="black" points="449.345,-622.104 445.845,-612.104 442.345,-622.104 449.345,-622.104"/>
</g>
<!-- Goblin_Jumper1&#45;&gt;AD8331 -->
<g id="edge11" class="edge"><title>Goblin_Jumper1&#45;&gt;AD8331</title>
<path fill="none" stroke="black" d="M423.347,-576.765C409.686,-566.906 392.118,-554.228 377.472,-543.659"/>
<polygon fill="black" stroke="black" points="379.396,-540.731 369.238,-537.717 375.299,-546.407 379.396,-540.731"/>
</g>
<!-- ITF&#45;mET_SMA -->
<g id="node13" class="node"><title>ITF&#45;mET_SMA</title>
<ellipse fill="none" stroke="black" cx="588.845" cy="-666" rx="68.7879" ry="18"/>
<text text-anchor="middle" x="588.845" y="-662.3" font-family="Times,serif" font-size="14.00">ITF&#45;mET_SMA</text>
</g>
<!-- ITF&#45;mET_SMA&#45;&gt;Goblin_Jumper1 -->
<g id="edge12" class="edge"><title>ITF&#45;mET_SMA&#45;&gt;Goblin_Jumper1</title>
<path fill="none" stroke="black" d="M557.816,-649.811C536.735,-639.492 508.654,-625.746 485.888,-614.602"/>
<polygon fill="black" stroke="black" points="487.334,-611.412 476.813,-610.159 484.256,-617.7 487.334,-611.412"/>
</g>
<!-- ITF&#45;InternalPot1_gain_control -->
<g id="node14" class="node"><title>ITF&#45;InternalPot1_gain_control</title>
<ellipse fill="none" stroke="black" cx="252.845" cy="-666" rx="118.879" ry="18"/>
<text text-anchor="middle" x="252.845" y="-662.3" font-family="Times,serif" font-size="14.00">ITF&#45;InternalPot1_gain_control</text>
</g>
<!-- ITF&#45;InternalPot1_gain_control&#45;&gt;Goblin_Jumper2 -->
<g id="edge13" class="edge"><title>ITF&#45;InternalPot1_gain_control&#45;&gt;Goblin_Jumper2</title>
<path fill="none" stroke="black" d="M252.845,-647.697C252.845,-639.983 252.845,-630.712 252.845,-622.112"/>
<polygon fill="black" stroke="black" points="256.345,-622.104 252.845,-612.104 249.345,-622.104 256.345,-622.104"/>
</g>
<!-- ITF&#45;InternalPot2_ADC_Vref -->
<g id="node15" class="node"><title>ITF&#45;InternalPot2_ADC_Vref</title>
<ellipse fill="none" stroke="black" cx="560.845" cy="-162" rx="113.98" ry="18"/>
<text text-anchor="middle" x="560.845" y="-158.3" font-family="Times,serif" font-size="14.00">ITF&#45;InternalPot2_ADC_Vref</text>
</g>
<!-- ITF&#45;InternalPot2_ADC_Vref&#45;&gt;AD7274 -->
<g id="edge14" class="edge"><title>ITF&#45;InternalPot2_ADC_Vref&#45;&gt;AD7274</title>
<path fill="none" stroke="black" d="M535.724,-144.411C520.537,-134.382 501.081,-121.533 485.057,-110.952"/>
<polygon fill="black" stroke="black" points="486.831,-107.928 476.557,-105.338 482.973,-113.77 486.831,-107.928"/>
</g>
<!-- Int&#45;Offset&#45;&gt;AD8691 -->
<g id="edge16" class="edge"><title>Int&#45;Offset&#45;&gt;AD8691</title>
<path fill="none" stroke="black" d="M394.161,-288.765C386.714,-279.93 377.359,-268.83 369.085,-259.014"/>
<polygon fill="black" stroke="black" points="371.576,-256.538 362.455,-251.147 366.223,-261.049 371.576,-256.538"/>
</g>
</g>
</svg>
