<?xml version="1.0" encoding="UTF-8" standalone="no"?>
<!DOCTYPE svg PUBLIC "-//W3C//DTD SVG 1.1//EN"
 "http://www.w3.org/Graphics/SVG/1.1/DTD/svg11.dtd">
<!-- Generated by graphviz version 2.38.0 (20140413.2041)
 -->
<!-- Title: %3 Pages: 1 -->
<svg width="480pt" height="476pt"
 viewBox="0.00 0.00 479.79 476.00" xmlns="http://www.w3.org/2000/svg" xmlns:xlink="http://www.w3.org/1999/xlink">
<g id="graph0" class="graph" transform="scale(1 1) rotate(0) translate(4 472)">
<title>%3</title>
<polygon fill="white" stroke="none" points="-4,4 -4,-472 475.787,-472 475.787,4 -4,4"/>
<!-- ITF&#45;G_gain_control -->
<g id="node1" class="node"><title>ITF&#45;G_gain_control</title>
<ellipse fill="none" stroke="black" cx="81.8927" cy="-450" rx="81.7856" ry="18"/>
<text text-anchor="middle" x="81.8927" y="-446.3" font-family="Times,serif" font-size="14.00">ITF&#45;G_gain_control</text>
</g>
<!-- AD8331 -->
<g id="node2" class="node"><title>AD8331</title>
<ellipse fill="none" stroke="black" cx="248.893" cy="-378" rx="40.8928" ry="18"/>
<text text-anchor="middle" x="248.893" y="-374.3" font-family="Times,serif" font-size="14.00">AD8331</text>
</g>
<!-- ITF&#45;G_gain_control&#45;&gt;AD8331 -->
<g id="edge1" class="edge"><title>ITF&#45;G_gain_control&#45;&gt;AD8331</title>
<path fill="none" stroke="black" d="M118.129,-433.811C145.503,-422.337 182.982,-406.627 210.8,-394.967"/>
<polygon fill="black" stroke="black" points="212.334,-398.119 220.204,-391.025 209.628,-391.663 212.334,-398.119"/>
</g>
<!-- ITF&#45;C_amplified_raw_signal -->
<g id="node3" class="node"><title>ITF&#45;C_amplified_raw_signal</title>
<ellipse fill="none" stroke="black" cx="248.893" cy="-306" rx="114.28" ry="18"/>
<text text-anchor="middle" x="248.893" y="-302.3" font-family="Times,serif" font-size="14.00">ITF&#45;C_amplified_raw_signal</text>
</g>
<!-- AD8331&#45;&gt;ITF&#45;C_amplified_raw_signal -->
<g id="edge2" class="edge"><title>AD8331&#45;&gt;ITF&#45;C_amplified_raw_signal</title>
<path fill="none" stroke="black" d="M248.893,-359.697C248.893,-351.983 248.893,-342.712 248.893,-334.112"/>
<polygon fill="black" stroke="black" points="252.393,-334.104 248.893,-324.104 245.393,-334.104 252.393,-334.104"/>
</g>
<!-- ADL5511 -->
<g id="node4" class="node"><title>ADL5511</title>
<ellipse fill="none" stroke="black" cx="248.893" cy="-234" rx="46.2923" ry="18"/>
<text text-anchor="middle" x="248.893" y="-230.3" font-family="Times,serif" font-size="14.00">ADL5511</text>
</g>
<!-- ITF&#45;C_amplified_raw_signal&#45;&gt;ADL5511 -->
<g id="edge3" class="edge"><title>ITF&#45;C_amplified_raw_signal&#45;&gt;ADL5511</title>
<path fill="none" stroke="black" d="M248.893,-287.697C248.893,-279.983 248.893,-270.712 248.893,-262.112"/>
<polygon fill="black" stroke="black" points="252.393,-262.104 248.893,-252.104 245.393,-262.104 252.393,-262.104"/>
</g>
<!-- ITF&#45;E_signal_envelope -->
<g id="node5" class="node"><title>ITF&#45;E_signal_envelope</title>
<ellipse fill="none" stroke="black" cx="248.893" cy="-162" rx="93.6835" ry="18"/>
<text text-anchor="middle" x="248.893" y="-158.3" font-family="Times,serif" font-size="14.00">ITF&#45;E_signal_envelope</text>
</g>
<!-- ADL5511&#45;&gt;ITF&#45;E_signal_envelope -->
<g id="edge4" class="edge"><title>ADL5511&#45;&gt;ITF&#45;E_signal_envelope</title>
<path fill="none" stroke="black" d="M248.893,-215.697C248.893,-207.983 248.893,-198.712 248.893,-190.112"/>
<polygon fill="black" stroke="black" points="252.393,-190.104 248.893,-180.104 245.393,-190.104 252.393,-190.104"/>
</g>
<!-- AD7274 -->
<g id="node6" class="node"><title>AD7274</title>
<ellipse fill="none" stroke="black" cx="248.893" cy="-90" rx="40.8928" ry="18"/>
<text text-anchor="middle" x="248.893" y="-86.3" font-family="Times,serif" font-size="14.00">AD7274</text>
</g>
<!-- ITF&#45;E_signal_envelope&#45;&gt;AD7274 -->
<g id="edge5" class="edge"><title>ITF&#45;E_signal_envelope&#45;&gt;AD7274</title>
<path fill="none" stroke="black" d="M248.893,-143.697C248.893,-135.983 248.893,-126.712 248.893,-118.112"/>
<polygon fill="black" stroke="black" points="252.393,-118.104 248.893,-108.104 245.393,-118.104 252.393,-118.104"/>
</g>
<!-- ITF&#45;mEG_SPI -->
<g id="node7" class="node"><title>ITF&#45;mEG_SPI</title>
<ellipse fill="none" stroke="black" cx="248.893" cy="-18" rx="63.0888" ry="18"/>
<text text-anchor="middle" x="248.893" y="-14.3" font-family="Times,serif" font-size="14.00">ITF&#45;mEG_SPI</text>
</g>
<!-- AD7274&#45;&gt;ITF&#45;mEG_SPI -->
<g id="edge6" class="edge"><title>AD7274&#45;&gt;ITF&#45;mEG_SPI</title>
<path fill="none" stroke="black" d="M248.893,-71.6966C248.893,-63.9827 248.893,-54.7125 248.893,-46.1124"/>
<polygon fill="black" stroke="black" points="252.393,-46.1043 248.893,-36.1043 245.393,-46.1044 252.393,-46.1043"/>
</g>
<!-- ITF&#45;R_reserved -->
<g id="node8" class="node"><title>ITF&#45;R_reserved</title>
<ellipse fill="none" stroke="black" cx="248.893" cy="-450" rx="66.8882" ry="18"/>
<text text-anchor="middle" x="248.893" y="-446.3" font-family="Times,serif" font-size="14.00">ITF&#45;R_reserved</text>
</g>
<!-- ITF&#45;R_reserved&#45;&gt;AD8331 -->
<g id="edge7" class="edge"><title>ITF&#45;R_reserved&#45;&gt;AD8331</title>
<path fill="none" stroke="black" d="M248.893,-431.697C248.893,-423.983 248.893,-414.712 248.893,-406.112"/>
<polygon fill="black" stroke="black" points="252.393,-406.104 248.893,-396.104 245.393,-406.104 252.393,-406.104"/>
</g>
<!-- ITF&#45;mET_SMA -->
<g id="node9" class="node"><title>ITF&#45;mET_SMA</title>
<ellipse fill="none" stroke="black" cx="402.893" cy="-450" rx="68.7879" ry="18"/>
<text text-anchor="middle" x="402.893" y="-446.3" font-family="Times,serif" font-size="14.00">ITF&#45;mET_SMA</text>
</g>
<!-- ITF&#45;mET_SMA&#45;&gt;AD8331 -->
<g id="edge8" class="edge"><title>ITF&#45;mET_SMA&#45;&gt;AD8331</title>
<path fill="none" stroke="black" d="M369.856,-433.983C345.092,-422.727 311.204,-407.323 285.595,-395.683"/>
<polygon fill="black" stroke="black" points="286.774,-392.374 276.222,-391.423 283.878,-398.747 286.774,-392.374"/>
</g>
</g>
</svg>
