<?xml version="1.0" encoding="UTF-8" standalone="no"?>
<!DOCTYPE svg PUBLIC "-//W3C//DTD SVG 1.1//EN"
 "http://www.w3.org/Graphics/SVG/1.1/DTD/svg11.dtd">
<!-- Generated by graphviz version 2.38.0 (20140413.2041)
 -->
<!-- Title: %3 Pages: 1 -->
<svg width="737pt" height="692pt"
 viewBox="0.00 0.00 736.63 692.00" xmlns="http://www.w3.org/2000/svg" xmlns:xlink="http://www.w3.org/1999/xlink">
<g id="graph0" class="graph" transform="scale(1 1) rotate(0) translate(4 688)">
<title>%3</title>
<polygon fill="white" stroke="none" points="-4,4 -4,-688 732.633,-688 732.633,4 -4,4"/>
<!-- ITF&#45;G_gain_control -->
<g id="node1" class="node"><title>ITF&#45;G_gain_control</title>
<ellipse fill="none" stroke="black" cx="81.8927" cy="-666" rx="81.7856" ry="18"/>
<text text-anchor="middle" x="81.8927" y="-662.3" font-family="Times,serif" font-size="14.00">ITF&#45;G_gain_control</text>
</g>
<!-- Goblin_Jumper2 -->
<g id="node2" class="node"><title>Goblin_Jumper2</title>
<ellipse fill="none" stroke="black" cx="300.893" cy="-594" rx="70.3881" ry="18"/>
<text text-anchor="middle" x="300.893" y="-590.3" font-family="Times,serif" font-size="14.00">Goblin_Jumper2</text>
</g>
<!-- ITF&#45;G_gain_control&#45;&gt;Goblin_Jumper2 -->
<g id="edge1" class="edge"><title>ITF&#45;G_gain_control&#45;&gt;Goblin_Jumper2</title>
<path fill="none" stroke="black" d="M126.211,-650.834C161.778,-639.466 211.77,-623.487 249.166,-611.534"/>
<polygon fill="black" stroke="black" points="250.41,-614.81 258.87,-608.432 248.279,-608.143 250.41,-614.81"/>
</g>
<!-- AD8331 -->
<g id="node3" class="node"><title>AD8331</title>
<ellipse fill="none" stroke="black" cx="402.893" cy="-522" rx="40.8928" ry="18"/>
<text text-anchor="middle" x="402.893" y="-518.3" font-family="Times,serif" font-size="14.00">AD8331</text>
</g>
<!-- Goblin_Jumper2&#45;&gt;AD8331 -->
<g id="edge2" class="edge"><title>Goblin_Jumper2&#45;&gt;AD8331</title>
<path fill="none" stroke="black" d="M324.294,-576.941C338.884,-566.928 357.786,-553.955 373.398,-543.242"/>
<polygon fill="black" stroke="black" points="375.419,-546.099 381.684,-537.555 371.458,-540.328 375.419,-546.099"/>
</g>
<!-- ITF&#45;C_amplified_raw_signal -->
<g id="node4" class="node"><title>ITF&#45;C_amplified_raw_signal</title>
<ellipse fill="none" stroke="black" cx="402.893" cy="-450" rx="114.28" ry="18"/>
<text text-anchor="middle" x="402.893" y="-446.3" font-family="Times,serif" font-size="14.00">ITF&#45;C_amplified_raw_signal</text>
</g>
<!-- AD8331&#45;&gt;ITF&#45;C_amplified_raw_signal -->
<g id="edge3" class="edge"><title>AD8331&#45;&gt;ITF&#45;C_amplified_raw_signal</title>
<path fill="none" stroke="black" d="M402.893,-503.697C402.893,-495.983 402.893,-486.712 402.893,-478.112"/>
<polygon fill="black" stroke="black" points="406.393,-478.104 402.893,-468.104 399.393,-478.104 406.393,-478.104"/>
</g>
<!-- ADL5511 -->
<g id="node5" class="node"><title>ADL5511</title>
<ellipse fill="none" stroke="black" cx="402.893" cy="-378" rx="46.2923" ry="18"/>
<text text-anchor="middle" x="402.893" y="-374.3" font-family="Times,serif" font-size="14.00">ADL5511</text>
</g>
<!-- ITF&#45;C_amplified_raw_signal&#45;&gt;ADL5511 -->
<g id="edge4" class="edge"><title>ITF&#45;C_amplified_raw_signal&#45;&gt;ADL5511</title>
<path fill="none" stroke="black" d="M402.893,-431.697C402.893,-423.983 402.893,-414.712 402.893,-406.112"/>
<polygon fill="black" stroke="black" points="406.393,-406.104 402.893,-396.104 399.393,-406.104 406.393,-406.104"/>
</g>
<!-- ITF&#45;E_signal_envelope -->
<g id="node6" class="node"><title>ITF&#45;E_signal_envelope</title>
<ellipse fill="none" stroke="black" cx="324.893" cy="-306" rx="93.6835" ry="18"/>
<text text-anchor="middle" x="324.893" y="-302.3" font-family="Times,serif" font-size="14.00">ITF&#45;E_signal_envelope</text>
</g>
<!-- ADL5511&#45;&gt;ITF&#45;E_signal_envelope -->
<g id="edge5" class="edge"><title>ADL5511&#45;&gt;ITF&#45;E_signal_envelope</title>
<path fill="none" stroke="black" d="M385.193,-361.116C375.114,-352.07 362.296,-340.567 351.072,-330.494"/>
<polygon fill="black" stroke="black" points="353.39,-327.872 343.61,-323.797 348.715,-333.081 353.39,-327.872"/>
</g>
<!-- Int&#45;Offset -->
<g id="node16" class="node"><title>Int&#45;Offset</title>
<ellipse fill="none" stroke="black" cx="481.893" cy="-306" rx="45.4919" ry="18"/>
<text text-anchor="middle" x="481.893" y="-302.3" font-family="Times,serif" font-size="14.00">Int&#45;Offset</text>
</g>
<!-- ADL5511&#45;&gt;Int&#45;Offset -->
<g id="edge15" class="edge"><title>ADL5511&#45;&gt;Int&#45;Offset</title>
<path fill="none" stroke="black" d="M420.819,-361.116C431.324,-351.808 444.765,-339.898 456.362,-329.622"/>
<polygon fill="black" stroke="black" points="458.874,-332.073 464.037,-322.821 454.232,-326.834 458.874,-332.073"/>
</g>
<!-- AD8691 -->
<g id="node7" class="node"><title>AD8691</title>
<ellipse fill="none" stroke="black" cx="402.893" cy="-234" rx="40.8928" ry="18"/>
<text text-anchor="middle" x="402.893" y="-230.3" font-family="Times,serif" font-size="14.00">AD8691</text>
</g>
<!-- ITF&#45;E_signal_envelope&#45;&gt;AD8691 -->
<g id="edge6" class="edge"><title>ITF&#45;E_signal_envelope&#45;&gt;AD8691</title>
<path fill="none" stroke="black" d="M343.774,-288.055C354.078,-278.808 366.962,-267.246 378.069,-257.277"/>
<polygon fill="black" stroke="black" points="380.677,-259.64 385.781,-250.356 376.001,-254.431 380.677,-259.64"/>
</g>
<!-- ITF&#45;Ext_Amplified -->
<g id="node8" class="node"><title>ITF&#45;Ext_Amplified</title>
<ellipse fill="none" stroke="black" cx="402.893" cy="-162" rx="79.8859" ry="18"/>
<text text-anchor="middle" x="402.893" y="-158.3" font-family="Times,serif" font-size="14.00">ITF&#45;Ext_Amplified</text>
</g>
<!-- AD8691&#45;&gt;ITF&#45;Ext_Amplified -->
<g id="edge7" class="edge"><title>AD8691&#45;&gt;ITF&#45;Ext_Amplified</title>
<path fill="none" stroke="black" d="M402.893,-215.697C402.893,-207.983 402.893,-198.712 402.893,-190.112"/>
<polygon fill="black" stroke="black" points="406.393,-190.104 402.893,-180.104 399.393,-190.104 406.393,-190.104"/>
</g>
<!-- AD7274 -->
<g id="node9" class="node"><title>AD7274</title>
<ellipse fill="none" stroke="black" cx="508.893" cy="-90" rx="40.8928" ry="18"/>
<text text-anchor="middle" x="508.893" y="-86.3" font-family="Times,serif" font-size="14.00">AD7274</text>
</g>
<!-- ITF&#45;Ext_Amplified&#45;&gt;AD7274 -->
<g id="edge8" class="edge"><title>ITF&#45;Ext_Amplified&#45;&gt;AD7274</title>
<path fill="none" stroke="black" d="M427.478,-144.765C442.649,-134.746 462.231,-121.815 478.388,-111.145"/>
<polygon fill="black" stroke="black" points="480.546,-113.914 486.962,-105.483 476.688,-108.073 480.546,-113.914"/>
</g>
<!-- ITF&#45;mEG_SPI -->
<g id="node10" class="node"><title>ITF&#45;mEG_SPI</title>
<ellipse fill="none" stroke="black" cx="508.893" cy="-18" rx="63.0888" ry="18"/>
<text text-anchor="middle" x="508.893" y="-14.3" font-family="Times,serif" font-size="14.00">ITF&#45;mEG_SPI</text>
</g>
<!-- AD7274&#45;&gt;ITF&#45;mEG_SPI -->
<g id="edge9" class="edge"><title>AD7274&#45;&gt;ITF&#45;mEG_SPI</title>
<path fill="none" stroke="black" d="M508.893,-71.6966C508.893,-63.9827 508.893,-54.7125 508.893,-46.1124"/>
<polygon fill="black" stroke="black" points="512.393,-46.1043 508.893,-36.1043 505.393,-46.1044 512.393,-46.1043"/>
</g>
<!-- ITF&#45;R_reserved -->
<g id="node11" class="node"><title>ITF&#45;R_reserved</title>
<ellipse fill="none" stroke="black" cx="504.893" cy="-666" rx="66.8882" ry="18"/>
<text text-anchor="middle" x="504.893" y="-662.3" font-family="Times,serif" font-size="14.00">ITF&#45;R_reserved</text>
</g>
<!-- Goblin_Jumper1 -->
<g id="node12" class="node"><title>Goblin_Jumper1</title>
<ellipse fill="none" stroke="black" cx="504.893" cy="-594" rx="70.3881" ry="18"/>
<text text-anchor="middle" x="504.893" y="-590.3" font-family="Times,serif" font-size="14.00">Goblin_Jumper1</text>
</g>
<!-- ITF&#45;R_reserved&#45;&gt;Goblin_Jumper1 -->
<g id="edge10" class="edge"><title>ITF&#45;R_reserved&#45;&gt;Goblin_Jumper1</title>
<path fill="none" stroke="black" d="M504.893,-647.697C504.893,-639.983 504.893,-630.712 504.893,-622.112"/>
<polygon fill="black" stroke="black" points="508.393,-622.104 504.893,-612.104 501.393,-622.104 508.393,-622.104"/>
</g>
<!-- Goblin_Jumper1&#45;&gt;AD8331 -->
<g id="edge11" class="edge"><title>Goblin_Jumper1&#45;&gt;AD8331</title>
<path fill="none" stroke="black" d="M481.492,-576.941C466.902,-566.928 447.999,-553.955 432.388,-543.242"/>
<polygon fill="black" stroke="black" points="434.327,-540.328 424.102,-537.555 430.366,-546.099 434.327,-540.328"/>
</g>
<!-- ITF&#45;mET_SMA -->
<g id="node13" class="node"><title>ITF&#45;mET_SMA</title>
<ellipse fill="none" stroke="black" cx="658.893" cy="-666" rx="68.7879" ry="18"/>
<text text-anchor="middle" x="658.893" y="-662.3" font-family="Times,serif" font-size="14.00">ITF&#45;mET_SMA</text>
</g>
<!-- ITF&#45;mET_SMA&#45;&gt;Goblin_Jumper1 -->
<g id="edge12" class="edge"><title>ITF&#45;mET_SMA&#45;&gt;Goblin_Jumper1</title>
<path fill="none" stroke="black" d="M625.856,-649.983C602.816,-639.51 571.878,-625.448 547.059,-614.166"/>
<polygon fill="black" stroke="black" points="548.427,-610.944 537.875,-609.992 545.53,-617.316 548.427,-610.944"/>
</g>
<!-- ITF&#45;InternalPot1_gain_control -->
<g id="node14" class="node"><title>ITF&#45;InternalPot1_gain_control</title>
<ellipse fill="none" stroke="black" cx="300.893" cy="-666" rx="118.879" ry="18"/>
<text text-anchor="middle" x="300.893" y="-662.3" font-family="Times,serif" font-size="14.00">ITF&#45;InternalPot1_gain_control</text>
</g>
<!-- ITF&#45;InternalPot1_gain_control&#45;&gt;Goblin_Jumper2 -->
<g id="edge13" class="edge"><title>ITF&#45;InternalPot1_gain_control&#45;&gt;Goblin_Jumper2</title>
<path fill="none" stroke="black" d="M300.893,-647.697C300.893,-639.983 300.893,-630.712 300.893,-622.112"/>
<polygon fill="black" stroke="black" points="304.393,-622.104 300.893,-612.104 297.393,-622.104 304.393,-622.104"/>
</g>
<!-- ITF&#45;InternalPot2_ADC_Vref -->
<g id="node15" class="node"><title>ITF&#45;InternalPot2_ADC_Vref</title>
<ellipse fill="none" stroke="black" cx="614.893" cy="-162" rx="113.98" ry="18"/>
<text text-anchor="middle" x="614.893" y="-158.3" font-family="Times,serif" font-size="14.00">ITF&#45;InternalPot2_ADC_Vref</text>
</g>
<!-- ITF&#45;InternalPot2_ADC_Vref&#45;&gt;AD7274 -->
<g id="edge14" class="edge"><title>ITF&#45;InternalPot2_ADC_Vref&#45;&gt;AD7274</title>
<path fill="none" stroke="black" d="M589.772,-144.411C574.585,-134.382 555.129,-121.533 539.105,-110.952"/>
<polygon fill="black" stroke="black" points="540.879,-107.928 530.605,-105.338 537.021,-113.77 540.879,-107.928"/>
</g>
<!-- Int&#45;Offset&#45;&gt;AD8691 -->
<g id="edge16" class="edge"><title>Int&#45;Offset&#45;&gt;AD8691</title>
<path fill="none" stroke="black" d="M463.966,-289.116C453.314,-279.677 439.641,-267.562 427.935,-257.189"/>
<polygon fill="black" stroke="black" points="430.011,-254.352 420.205,-250.34 425.369,-259.592 430.011,-254.352"/>
</g>
</g>
</svg>
