<?xml version="1.0" encoding="UTF-8" standalone="no"?>
<!DOCTYPE svg PUBLIC "-//W3C//DTD SVG 1.1//EN"
 "http://www.w3.org/Graphics/SVG/1.1/DTD/svg11.dtd">
<!-- Generated by graphviz version 2.38.0 (20140413.2041)
 -->
<!-- Title: %3 Pages: 1 -->
<svg width="736pt" height="476pt"
 viewBox="0.00 0.00 735.83 476.00" xmlns="http://www.w3.org/2000/svg" xmlns:xlink="http://www.w3.org/1999/xlink">
<g id="graph0" class="graph" transform="scale(1 1) rotate(0) translate(4 472)">
<title>%3</title>
<polygon fill="white" stroke="none" points="-4,4 -4,-472 731.832,-472 731.832,4 -4,4"/>
<!-- ITF&#45;G_gain_control -->
<g id="node1" class="node"><title>ITF&#45;G_gain_control</title>
<ellipse fill="none" stroke="black" cx="81.8927" cy="-450" rx="81.7856" ry="18"/>
<text text-anchor="middle" x="81.8927" y="-446.3" font-family="Times,serif" font-size="14.00">ITF&#45;G_gain_control</text>
</g>
<!-- AD8331 -->
<g id="node2" class="node"><title>AD8331</title>
<ellipse fill="none" stroke="black" cx="325.893" cy="-378" rx="40.8928" ry="18"/>
<text text-anchor="middle" x="325.893" y="-374.3" font-family="Times,serif" font-size="14.00">AD8331</text>
</g>
<!-- ITF&#45;G_gain_control&#45;&gt;AD8331 -->
<g id="edge1" class="edge"><title>ITF&#45;G_gain_control&#45;&gt;AD8331</title>
<path fill="none" stroke="black" d="M129.518,-435.337C173.942,-422.592 239.643,-403.744 282.61,-391.417"/>
<polygon fill="black" stroke="black" points="283.836,-394.707 292.483,-388.585 281.906,-387.978 283.836,-394.707"/>
</g>
<!-- ITF&#45;C_amplified_raw_signal -->
<g id="node3" class="node"><title>ITF&#45;C_amplified_raw_signal</title>
<ellipse fill="none" stroke="black" cx="325.893" cy="-306" rx="114.28" ry="18"/>
<text text-anchor="middle" x="325.893" y="-302.3" font-family="Times,serif" font-size="14.00">ITF&#45;C_amplified_raw_signal</text>
</g>
<!-- AD8331&#45;&gt;ITF&#45;C_amplified_raw_signal -->
<g id="edge2" class="edge"><title>AD8331&#45;&gt;ITF&#45;C_amplified_raw_signal</title>
<path fill="none" stroke="black" d="M325.893,-359.697C325.893,-351.983 325.893,-342.712 325.893,-334.112"/>
<polygon fill="black" stroke="black" points="329.393,-334.104 325.893,-324.104 322.393,-334.104 329.393,-334.104"/>
</g>
<!-- ADL5511 -->
<g id="node4" class="node"><title>ADL5511</title>
<ellipse fill="none" stroke="black" cx="325.893" cy="-234" rx="46.2923" ry="18"/>
<text text-anchor="middle" x="325.893" y="-230.3" font-family="Times,serif" font-size="14.00">ADL5511</text>
</g>
<!-- ITF&#45;C_amplified_raw_signal&#45;&gt;ADL5511 -->
<g id="edge3" class="edge"><title>ITF&#45;C_amplified_raw_signal&#45;&gt;ADL5511</title>
<path fill="none" stroke="black" d="M325.893,-287.697C325.893,-279.983 325.893,-270.712 325.893,-262.112"/>
<polygon fill="black" stroke="black" points="329.393,-262.104 325.893,-252.104 322.393,-262.104 329.393,-262.104"/>
</g>
<!-- ITF&#45;E_signal_envelope -->
<g id="node5" class="node"><title>ITF&#45;E_signal_envelope</title>
<ellipse fill="none" stroke="black" cx="325.893" cy="-162" rx="93.6835" ry="18"/>
<text text-anchor="middle" x="325.893" y="-158.3" font-family="Times,serif" font-size="14.00">ITF&#45;E_signal_envelope</text>
</g>
<!-- ADL5511&#45;&gt;ITF&#45;E_signal_envelope -->
<g id="edge4" class="edge"><title>ADL5511&#45;&gt;ITF&#45;E_signal_envelope</title>
<path fill="none" stroke="black" d="M325.893,-215.697C325.893,-207.983 325.893,-198.712 325.893,-190.112"/>
<polygon fill="black" stroke="black" points="329.393,-190.104 325.893,-180.104 322.393,-190.104 329.393,-190.104"/>
</g>
<!-- AD7274 -->
<g id="node6" class="node"><title>AD7274</title>
<ellipse fill="none" stroke="black" cx="437.893" cy="-90" rx="40.8928" ry="18"/>
<text text-anchor="middle" x="437.893" y="-86.3" font-family="Times,serif" font-size="14.00">AD7274</text>
</g>
<!-- ITF&#45;E_signal_envelope&#45;&gt;AD7274 -->
<g id="edge5" class="edge"><title>ITF&#45;E_signal_envelope&#45;&gt;AD7274</title>
<path fill="none" stroke="black" d="M352.152,-144.588C368.449,-134.402 389.481,-121.258 406.635,-110.536"/>
<polygon fill="black" stroke="black" points="408.582,-113.447 415.207,-105.179 404.872,-107.511 408.582,-113.447"/>
</g>
<!-- ITF&#45;mEG_SPI -->
<g id="node7" class="node"><title>ITF&#45;mEG_SPI</title>
<ellipse fill="none" stroke="black" cx="437.893" cy="-18" rx="63.0888" ry="18"/>
<text text-anchor="middle" x="437.893" y="-14.3" font-family="Times,serif" font-size="14.00">ITF&#45;mEG_SPI</text>
</g>
<!-- AD7274&#45;&gt;ITF&#45;mEG_SPI -->
<g id="edge6" class="edge"><title>AD7274&#45;&gt;ITF&#45;mEG_SPI</title>
<path fill="none" stroke="black" d="M437.893,-71.6966C437.893,-63.9827 437.893,-54.7125 437.893,-46.1124"/>
<polygon fill="black" stroke="black" points="441.393,-46.1043 437.893,-36.1043 434.393,-46.1044 441.393,-46.1043"/>
</g>
<!-- ITF&#45;R_reserved -->
<g id="node8" class="node"><title>ITF&#45;R_reserved</title>
<ellipse fill="none" stroke="black" cx="248.893" cy="-450" rx="66.8882" ry="18"/>
<text text-anchor="middle" x="248.893" y="-446.3" font-family="Times,serif" font-size="14.00">ITF&#45;R_reserved</text>
</g>
<!-- ITF&#45;R_reserved&#45;&gt;AD8331 -->
<g id="edge7" class="edge"><title>ITF&#45;R_reserved&#45;&gt;AD8331</title>
<path fill="none" stroke="black" d="M267.141,-432.411C277.304,-423.172 290.1,-411.539 301.153,-401.491"/>
<polygon fill="black" stroke="black" points="303.786,-403.827 308.831,-394.511 299.077,-398.648 303.786,-403.827"/>
</g>
<!-- ITF&#45;mET_SMA -->
<g id="node9" class="node"><title>ITF&#45;mET_SMA</title>
<ellipse fill="none" stroke="black" cx="402.893" cy="-450" rx="68.7879" ry="18"/>
<text text-anchor="middle" x="402.893" y="-446.3" font-family="Times,serif" font-size="14.00">ITF&#45;mET_SMA</text>
</g>
<!-- ITF&#45;mET_SMA&#45;&gt;AD8331 -->
<g id="edge8" class="edge"><title>ITF&#45;mET_SMA&#45;&gt;AD8331</title>
<path fill="none" stroke="black" d="M384.645,-432.411C374.481,-423.172 361.686,-411.539 350.633,-401.491"/>
<polygon fill="black" stroke="black" points="352.708,-398.648 342.955,-394.511 348,-403.827 352.708,-398.648"/>
</g>
<!-- ITF&#45;InternalPot1_gain_control -->
<g id="node10" class="node"><title>ITF&#45;InternalPot1_gain_control</title>
<ellipse fill="none" stroke="black" cx="608.893" cy="-450" rx="118.879" ry="18"/>
<text text-anchor="middle" x="608.893" y="-446.3" font-family="Times,serif" font-size="14.00">ITF&#45;InternalPot1_gain_control</text>
</g>
<!-- ITF&#45;InternalPot1_gain_control&#45;&gt;AD8331 -->
<g id="edge9" class="edge"><title>ITF&#45;InternalPot1_gain_control&#45;&gt;AD8331</title>
<path fill="none" stroke="black" d="M549.567,-434.326C496.152,-421.114 418.83,-401.988 370.507,-390.035"/>
<polygon fill="black" stroke="black" points="371.203,-386.602 360.655,-387.598 369.522,-393.397 371.203,-386.602"/>
</g>
<!-- ITF&#45;InternalPot2_ADC_Vref -->
<g id="node11" class="node"><title>ITF&#45;InternalPot2_ADC_Vref</title>
<ellipse fill="none" stroke="black" cx="550.893" cy="-162" rx="113.98" ry="18"/>
<text text-anchor="middle" x="550.893" y="-158.3" font-family="Times,serif" font-size="14.00">ITF&#45;InternalPot2_ADC_Vref</text>
</g>
<!-- ITF&#45;InternalPot2_ADC_Vref&#45;&gt;AD7274 -->
<g id="edge10" class="edge"><title>ITF&#45;InternalPot2_ADC_Vref&#45;&gt;AD7274</title>
<path fill="none" stroke="black" d="M524.113,-144.411C507.662,-134.22 486.512,-121.118 469.277,-110.442"/>
<polygon fill="black" stroke="black" points="471.011,-107.398 460.666,-105.108 467.324,-113.349 471.011,-107.398"/>
</g>
</g>
</svg>
