%FSLAX44Y44*%
%MOMM*%
G71*
G01*
G75*
G04 Layer_Color=8388736*
G04:AMPARAMS|DCode=10|XSize=1.5mm|YSize=1.3mm|CornerRadius=0.325mm|HoleSize=0mm|Usage=FLASHONLY|Rotation=180.000|XOffset=0mm|YOffset=0mm|HoleType=Round|Shape=RoundedRectangle|*
%AMROUNDEDRECTD10*
21,1,1.5000,0.6500,0,0,180.0*
21,1,0.8500,1.3000,0,0,180.0*
1,1,0.6500,-0.4250,0.3250*
1,1,0.6500,0.4250,0.3250*
1,1,0.6500,0.4250,-0.3250*
1,1,0.6500,-0.4250,-0.3250*
%
%ADD10ROUNDEDRECTD10*%
G04:AMPARAMS|DCode=11|XSize=1.5mm|YSize=1.3mm|CornerRadius=0.325mm|HoleSize=0mm|Usage=FLASHONLY|Rotation=90.000|XOffset=0mm|YOffset=0mm|HoleType=Round|Shape=RoundedRectangle|*
%AMROUNDEDRECTD11*
21,1,1.5000,0.6500,0,0,90.0*
21,1,0.8500,1.3000,0,0,90.0*
1,1,0.6500,0.3250,0.4250*
1,1,0.6500,0.3250,-0.4250*
1,1,0.6500,-0.3250,-0.4250*
1,1,0.6500,-0.3250,0.4250*
%
%ADD11ROUNDEDRECTD11*%
%ADD12O,0.6000X2.2000*%
%ADD13O,0.4500X2.1000*%
G04:AMPARAMS|DCode=14|XSize=1.8mm|YSize=1.65mm|CornerRadius=0.1238mm|HoleSize=0mm|Usage=FLASHONLY|Rotation=90.000|XOffset=0mm|YOffset=0mm|HoleType=Round|Shape=RoundedRectangle|*
%AMROUNDEDRECTD14*
21,1,1.8000,1.4025,0,0,90.0*
21,1,1.5525,1.6500,0,0,90.0*
1,1,0.2475,0.7013,0.7763*
1,1,0.2475,0.7013,-0.7763*
1,1,0.2475,-0.7013,-0.7763*
1,1,0.2475,-0.7013,0.7763*
%
%ADD14ROUNDEDRECTD14*%
G04:AMPARAMS|DCode=15|XSize=1.8mm|YSize=1.65mm|CornerRadius=0.1238mm|HoleSize=0mm|Usage=FLASHONLY|Rotation=180.000|XOffset=0mm|YOffset=0mm|HoleType=Round|Shape=RoundedRectangle|*
%AMROUNDEDRECTD15*
21,1,1.8000,1.4025,0,0,180.0*
21,1,1.5525,1.6500,0,0,180.0*
1,1,0.2475,-0.7763,0.7013*
1,1,0.2475,0.7763,0.7013*
1,1,0.2475,0.7763,-0.7013*
1,1,0.2475,-0.7763,-0.7013*
%
%ADD15ROUNDEDRECTD15*%
%ADD16R,2.4000X1.0000*%
%ADD17R,2.4000X3.3000*%
G04:AMPARAMS|DCode=18|XSize=0.6706mm|YSize=1.0668mm|CornerRadius=0.0838mm|HoleSize=0mm|Usage=FLASHONLY|Rotation=90.000|XOffset=0mm|YOffset=0mm|HoleType=Round|Shape=RoundedRectangle|*
%AMROUNDEDRECTD18*
21,1,0.6706,0.8992,0,0,90.0*
21,1,0.5029,1.0668,0,0,90.0*
1,1,0.1676,0.4496,0.2515*
1,1,0.1676,0.4496,-0.2515*
1,1,0.1676,-0.4496,-0.2515*
1,1,0.1676,-0.4496,0.2515*
%
%ADD18ROUNDEDRECTD18*%
%ADD19C,0.3000*%
%ADD20C,0.4000*%
%ADD21C,0.2000*%
%ADD22R,1.5000X0.6500*%
%ADD23R,0.6500X1.5000*%
%ADD24R,1.2500X1.7500*%
G04:AMPARAMS|DCode=25|XSize=1.8mm|YSize=1.8mm|CornerRadius=0.45mm|HoleSize=0mm|Usage=FLASHONLY|Rotation=180.000|XOffset=0mm|YOffset=0mm|HoleType=Round|Shape=RoundedRectangle|*
%AMROUNDEDRECTD25*
21,1,1.8000,0.9000,0,0,180.0*
21,1,0.9000,1.8000,0,0,180.0*
1,1,0.9000,-0.4500,0.4500*
1,1,0.9000,0.4500,0.4500*
1,1,0.9000,0.4500,-0.4500*
1,1,0.9000,-0.4500,-0.4500*
%
%ADD25ROUNDEDRECTD25*%
%ADD26C,1.8000*%
G04:AMPARAMS|DCode=27|XSize=1.8mm|YSize=1.8mm|CornerRadius=0.45mm|HoleSize=0mm|Usage=FLASHONLY|Rotation=90.000|XOffset=0mm|YOffset=0mm|HoleType=Round|Shape=RoundedRectangle|*
%AMROUNDEDRECTD27*
21,1,1.8000,0.9000,0,0,90.0*
21,1,0.9000,1.8000,0,0,90.0*
1,1,0.9000,0.4500,0.4500*
1,1,0.9000,0.4500,-0.4500*
1,1,0.9000,-0.4500,-0.4500*
1,1,0.9000,-0.4500,0.4500*
%
%ADD27ROUNDEDRECTD27*%
%ADD28C,1.5000*%
G04:AMPARAMS|DCode=29|XSize=1.5mm|YSize=1.5mm|CornerRadius=0.225mm|HoleSize=0mm|Usage=FLASHONLY|Rotation=0.000|XOffset=0mm|YOffset=0mm|HoleType=Round|Shape=RoundedRectangle|*
%AMROUNDEDRECTD29*
21,1,1.5000,1.0500,0,0,0.0*
21,1,1.0500,1.5000,0,0,0.0*
1,1,0.4500,0.5250,-0.5250*
1,1,0.4500,-0.5250,-0.5250*
1,1,0.4500,-0.5250,0.5250*
1,1,0.4500,0.5250,0.5250*
%
%ADD29ROUNDEDRECTD29*%
%ADD30C,0.6500*%
%ADD31C,0.7200*%
%ADD32O,0.6000X2.3000*%
%ADD33C,0.5000*%
%ADD34C,0.1800*%
G04:AMPARAMS|DCode=35|XSize=1.7032mm|YSize=1.5032mm|CornerRadius=0.4266mm|HoleSize=0mm|Usage=FLASHONLY|Rotation=180.000|XOffset=0mm|YOffset=0mm|HoleType=Round|Shape=RoundedRectangle|*
%AMROUNDEDRECTD35*
21,1,1.7032,0.6500,0,0,180.0*
21,1,0.8500,1.5032,0,0,180.0*
1,1,0.8532,-0.4250,0.3250*
1,1,0.8532,0.4250,0.3250*
1,1,0.8532,0.4250,-0.3250*
1,1,0.8532,-0.4250,-0.3250*
%
%ADD35ROUNDEDRECTD35*%
G04:AMPARAMS|DCode=36|XSize=1.7032mm|YSize=1.5032mm|CornerRadius=0.4266mm|HoleSize=0mm|Usage=FLASHONLY|Rotation=90.000|XOffset=0mm|YOffset=0mm|HoleType=Round|Shape=RoundedRectangle|*
%AMROUNDEDRECTD36*
21,1,1.7032,0.6500,0,0,90.0*
21,1,0.8500,1.5032,0,0,90.0*
1,1,0.8532,0.3250,0.4250*
1,1,0.8532,0.3250,-0.4250*
1,1,0.8532,-0.3250,-0.4250*
1,1,0.8532,-0.3250,0.4250*
%
%ADD36ROUNDEDRECTD36*%
%ADD37O,0.8032X2.4032*%
%ADD38O,0.6532X2.3032*%
G04:AMPARAMS|DCode=39|XSize=2.0032mm|YSize=1.8532mm|CornerRadius=0.2253mm|HoleSize=0mm|Usage=FLASHONLY|Rotation=90.000|XOffset=0mm|YOffset=0mm|HoleType=Round|Shape=RoundedRectangle|*
%AMROUNDEDRECTD39*
21,1,2.0032,1.4025,0,0,90.0*
21,1,1.5525,1.8532,0,0,90.0*
1,1,0.4507,0.7013,0.7763*
1,1,0.4507,0.7013,-0.7763*
1,1,0.4507,-0.7013,-0.7763*
1,1,0.4507,-0.7013,0.7763*
%
%ADD39ROUNDEDRECTD39*%
G04:AMPARAMS|DCode=40|XSize=2.0032mm|YSize=1.8532mm|CornerRadius=0.2253mm|HoleSize=0mm|Usage=FLASHONLY|Rotation=180.000|XOffset=0mm|YOffset=0mm|HoleType=Round|Shape=RoundedRectangle|*
%AMROUNDEDRECTD40*
21,1,2.0032,1.4025,0,0,180.0*
21,1,1.5525,1.8532,0,0,180.0*
1,1,0.4507,-0.7763,0.7013*
1,1,0.4507,0.7763,0.7013*
1,1,0.4507,0.7763,-0.7013*
1,1,0.4507,-0.7763,-0.7013*
%
%ADD40ROUNDEDRECTD40*%
%ADD41R,2.6032X1.2032*%
%ADD42R,2.6032X3.5032*%
G04:AMPARAMS|DCode=43|XSize=0.8738mm|YSize=1.27mm|CornerRadius=0.1854mm|HoleSize=0mm|Usage=FLASHONLY|Rotation=90.000|XOffset=0mm|YOffset=0mm|HoleType=Round|Shape=RoundedRectangle|*
%AMROUNDEDRECTD43*
21,1,0.8738,0.8992,0,0,90.0*
21,1,0.5029,1.2700,0,0,90.0*
1,1,0.3708,0.4496,0.2515*
1,1,0.3708,0.4496,-0.2515*
1,1,0.3708,-0.4496,-0.2515*
1,1,0.3708,-0.4496,0.2515*
%
%ADD43ROUNDEDRECTD43*%
%ADD44R,1.7032X0.8532*%
%ADD45R,0.8532X1.7032*%
%ADD46R,1.4532X1.9532*%
G04:AMPARAMS|DCode=47|XSize=2.0032mm|YSize=2.0032mm|CornerRadius=0.5516mm|HoleSize=0mm|Usage=FLASHONLY|Rotation=180.000|XOffset=0mm|YOffset=0mm|HoleType=Round|Shape=RoundedRectangle|*
%AMROUNDEDRECTD47*
21,1,2.0032,0.9000,0,0,180.0*
21,1,0.9000,2.0032,0,0,180.0*
1,1,1.1032,-0.4500,0.4500*
1,1,1.1032,0.4500,0.4500*
1,1,1.1032,0.4500,-0.4500*
1,1,1.1032,-0.4500,-0.4500*
%
%ADD47ROUNDEDRECTD47*%
%ADD48C,2.0032*%
G04:AMPARAMS|DCode=49|XSize=2.0032mm|YSize=2.0032mm|CornerRadius=0.5516mm|HoleSize=0mm|Usage=FLASHONLY|Rotation=90.000|XOffset=0mm|YOffset=0mm|HoleType=Round|Shape=RoundedRectangle|*
%AMROUNDEDRECTD49*
21,1,2.0032,0.9000,0,0,90.0*
21,1,0.9000,2.0032,0,0,90.0*
1,1,1.1032,0.4500,0.4500*
1,1,1.1032,0.4500,-0.4500*
1,1,1.1032,-0.4500,-0.4500*
1,1,1.1032,-0.4500,0.4500*
%
%ADD49ROUNDEDRECTD49*%
%ADD50C,1.7032*%
G04:AMPARAMS|DCode=51|XSize=1.7032mm|YSize=1.7032mm|CornerRadius=0.3266mm|HoleSize=0mm|Usage=FLASHONLY|Rotation=0.000|XOffset=0mm|YOffset=0mm|HoleType=Round|Shape=RoundedRectangle|*
%AMROUNDEDRECTD51*
21,1,1.7032,1.0500,0,0,0.0*
21,1,1.0500,1.7032,0,0,0.0*
1,1,0.6532,0.5250,-0.5250*
1,1,0.6532,-0.5250,-0.5250*
1,1,0.6532,-0.5250,0.5250*
1,1,0.6532,0.5250,0.5250*
%
%ADD51ROUNDEDRECTD51*%
%ADD52C,0.2032*%
D35*
X1444250Y764500D02*
D03*
Y783500D02*
D03*
X1295000Y827000D02*
D03*
Y808000D02*
D03*
X1245000Y885500D02*
D03*
Y904500D02*
D03*
X1300000Y718000D02*
D03*
Y737000D02*
D03*
X1597500Y797000D02*
D03*
Y778000D02*
D03*
X1443750Y723750D02*
D03*
Y742750D02*
D03*
X1323000Y718000D02*
D03*
Y737000D02*
D03*
X1466750Y742000D02*
D03*
Y723000D02*
D03*
D36*
X1318000Y801500D02*
D03*
X1337000D02*
D03*
X1347750Y925500D02*
D03*
X1328750D02*
D03*
X1337000Y823000D02*
D03*
X1318000D02*
D03*
X1306750Y925250D02*
D03*
X1287750D02*
D03*
X1094500Y910000D02*
D03*
X1075500D02*
D03*
X1365500Y905750D02*
D03*
X1384500D02*
D03*
X1257500Y715000D02*
D03*
X1276500D02*
D03*
X1215000D02*
D03*
X1234000D02*
D03*
X1558000Y715000D02*
D03*
X1577000D02*
D03*
X1518000D02*
D03*
X1537000D02*
D03*
D37*
X1264900Y853000D02*
D03*
X1277600D02*
D03*
X1290300D02*
D03*
X1303000D02*
D03*
X1315700D02*
D03*
X1328400D02*
D03*
X1341100D02*
D03*
X1264900Y901000D02*
D03*
X1277600D02*
D03*
X1290300D02*
D03*
X1303000D02*
D03*
X1315700D02*
D03*
X1328400D02*
D03*
X1341100D02*
D03*
D38*
X1187000Y745250D02*
D03*
X1193500D02*
D03*
X1200000D02*
D03*
X1206500D02*
D03*
X1213000D02*
D03*
X1219500D02*
D03*
X1226000D02*
D03*
X1232500D02*
D03*
X1239000D02*
D03*
X1245500D02*
D03*
X1252000D02*
D03*
X1258500D02*
D03*
X1265000D02*
D03*
X1271500D02*
D03*
X1187000Y814250D02*
D03*
X1193500D02*
D03*
X1200000D02*
D03*
X1206500D02*
D03*
X1213000D02*
D03*
X1219500D02*
D03*
X1226000D02*
D03*
X1232500D02*
D03*
X1239000D02*
D03*
X1245500D02*
D03*
X1252000D02*
D03*
X1258500D02*
D03*
X1265000D02*
D03*
X1271500D02*
D03*
X1488750Y751250D02*
D03*
X1495250D02*
D03*
X1501750D02*
D03*
X1508250D02*
D03*
X1514750D02*
D03*
X1521250D02*
D03*
X1527750D02*
D03*
X1534250D02*
D03*
X1540750D02*
D03*
X1547250D02*
D03*
X1553750D02*
D03*
X1560250D02*
D03*
X1566750D02*
D03*
X1573250D02*
D03*
X1488750Y820250D02*
D03*
X1495250D02*
D03*
X1501750D02*
D03*
X1508250D02*
D03*
X1514750D02*
D03*
X1521250D02*
D03*
X1527750D02*
D03*
X1534250D02*
D03*
X1540750D02*
D03*
X1547250D02*
D03*
X1553750D02*
D03*
X1560250D02*
D03*
X1566750D02*
D03*
X1573250D02*
D03*
D39*
X1021000Y910000D02*
D03*
X1049000D02*
D03*
X1599000Y860000D02*
D03*
X1571000D02*
D03*
D40*
X1020000Y786000D02*
D03*
Y814000D02*
D03*
X1127500Y891500D02*
D03*
Y863500D02*
D03*
D41*
X1093750Y834750D02*
D03*
Y857750D02*
D03*
Y880750D02*
D03*
D42*
X1035750Y857750D02*
D03*
D43*
X1361750Y885500D02*
D03*
Y876000D02*
D03*
Y866500D02*
D03*
X1385750D02*
D03*
Y885500D02*
D03*
D44*
X1444250Y767750D02*
D03*
Y780250D02*
D03*
X1295001Y823750D02*
D03*
Y811250D02*
D03*
X1245001Y888750D02*
D03*
Y901250D02*
D03*
X1300000Y721250D02*
D03*
Y733750D02*
D03*
X1597500Y793750D02*
D03*
Y781250D02*
D03*
X1443751Y726999D02*
D03*
Y739499D02*
D03*
X1323000Y721250D02*
D03*
Y733750D02*
D03*
X1466750Y738750D02*
D03*
Y726250D02*
D03*
D45*
X1321250Y801500D02*
D03*
X1333750D02*
D03*
X1344500Y925500D02*
D03*
X1332000D02*
D03*
X1333750Y823000D02*
D03*
X1321250D02*
D03*
X1303500Y925250D02*
D03*
X1291000D02*
D03*
X1091250Y910000D02*
D03*
X1078750D02*
D03*
X1368750Y905750D02*
D03*
X1381250D02*
D03*
X1260750Y715000D02*
D03*
X1273250D02*
D03*
X1218250D02*
D03*
X1230750D02*
D03*
X1561250D02*
D03*
X1573750D02*
D03*
X1521250D02*
D03*
X1533750D02*
D03*
D46*
X1401750Y827750D02*
D03*
D47*
X1420900Y827750D02*
D03*
D48*
X1395500D02*
D03*
X1370100D02*
D03*
X1404500Y779150D02*
D03*
Y753750D02*
D03*
D49*
Y728350D02*
D03*
D50*
X1413900Y977700D02*
D03*
X1439300D02*
D03*
X1464700D02*
D03*
X1490100D02*
D03*
X1566300D02*
D03*
X1540900D02*
D03*
X1515500D02*
D03*
Y952300D02*
D03*
X1540900D02*
D03*
X1566300D02*
D03*
X1490100D02*
D03*
X1464700D02*
D03*
X1439300D02*
D03*
X1413900D02*
D03*
X1210700D02*
D03*
X1109100D02*
D03*
X1236100D02*
D03*
X1134500D02*
D03*
X1261500D02*
D03*
X1159900D02*
D03*
X1286900D02*
D03*
X1185300D02*
D03*
X1312300D02*
D03*
X1388500D02*
D03*
X1363100D02*
D03*
X1337700D02*
D03*
Y977700D02*
D03*
X1363100D02*
D03*
X1388500D02*
D03*
X1312300D02*
D03*
X1185300D02*
D03*
X1286900D02*
D03*
X1159900D02*
D03*
X1261500D02*
D03*
X1134500D02*
D03*
X1236100D02*
D03*
X1109100D02*
D03*
X1210700D02*
D03*
X1083700D02*
D03*
D51*
Y952300D02*
D03*
D52*
X1615000Y965000D02*
D03*
Y735000D02*
D03*
X1035000D02*
D03*
Y965000D02*
D03*
M02*
