%FSLAX44Y44*%
%MOMM*%
G71*
G01*
G75*
G04 Layer_Physical_Order=1*
G04 Layer_Color=255*
G04:AMPARAMS|DCode=10|XSize=1.5mm|YSize=1.3mm|CornerRadius=0.325mm|HoleSize=0mm|Usage=FLASHONLY|Rotation=180.000|XOffset=0mm|YOffset=0mm|HoleType=Round|Shape=RoundedRectangle|*
%AMROUNDEDRECTD10*
21,1,1.5000,0.6500,0,0,180.0*
21,1,0.8500,1.3000,0,0,180.0*
1,1,0.6500,-0.4250,0.3250*
1,1,0.6500,0.4250,0.3250*
1,1,0.6500,0.4250,-0.3250*
1,1,0.6500,-0.4250,-0.3250*
%
%ADD10ROUNDEDRECTD10*%
G04:AMPARAMS|DCode=11|XSize=1.5mm|YSize=1.3mm|CornerRadius=0.325mm|HoleSize=0mm|Usage=FLASHONLY|Rotation=90.000|XOffset=0mm|YOffset=0mm|HoleType=Round|Shape=RoundedRectangle|*
%AMROUNDEDRECTD11*
21,1,1.5000,0.6500,0,0,90.0*
21,1,0.8500,1.3000,0,0,90.0*
1,1,0.6500,0.3250,0.4250*
1,1,0.6500,0.3250,-0.4250*
1,1,0.6500,-0.3250,-0.4250*
1,1,0.6500,-0.3250,0.4250*
%
%ADD11ROUNDEDRECTD11*%
%ADD12O,0.6000X2.2000*%
%ADD13O,0.4500X2.1000*%
G04:AMPARAMS|DCode=14|XSize=1.8mm|YSize=1.65mm|CornerRadius=0.1238mm|HoleSize=0mm|Usage=FLASHONLY|Rotation=90.000|XOffset=0mm|YOffset=0mm|HoleType=Round|Shape=RoundedRectangle|*
%AMROUNDEDRECTD14*
21,1,1.8000,1.4025,0,0,90.0*
21,1,1.5525,1.6500,0,0,90.0*
1,1,0.2475,0.7013,0.7763*
1,1,0.2475,0.7013,-0.7763*
1,1,0.2475,-0.7013,-0.7763*
1,1,0.2475,-0.7013,0.7763*
%
%ADD14ROUNDEDRECTD14*%
G04:AMPARAMS|DCode=15|XSize=1.8mm|YSize=1.65mm|CornerRadius=0.1238mm|HoleSize=0mm|Usage=FLASHONLY|Rotation=180.000|XOffset=0mm|YOffset=0mm|HoleType=Round|Shape=RoundedRectangle|*
%AMROUNDEDRECTD15*
21,1,1.8000,1.4025,0,0,180.0*
21,1,1.5525,1.6500,0,0,180.0*
1,1,0.2475,-0.7763,0.7013*
1,1,0.2475,0.7763,0.7013*
1,1,0.2475,0.7763,-0.7013*
1,1,0.2475,-0.7763,-0.7013*
%
%ADD15ROUNDEDRECTD15*%
%ADD16R,2.4000X1.0000*%
%ADD17R,2.4000X3.3000*%
G04:AMPARAMS|DCode=18|XSize=0.6706mm|YSize=1.0668mm|CornerRadius=0.0838mm|HoleSize=0mm|Usage=FLASHONLY|Rotation=90.000|XOffset=0mm|YOffset=0mm|HoleType=Round|Shape=RoundedRectangle|*
%AMROUNDEDRECTD18*
21,1,0.6706,0.8992,0,0,90.0*
21,1,0.5029,1.0668,0,0,90.0*
1,1,0.1676,0.4496,0.2515*
1,1,0.1676,0.4496,-0.2515*
1,1,0.1676,-0.4496,-0.2515*
1,1,0.1676,-0.4496,0.2515*
%
%ADD18ROUNDEDRECTD18*%
%ADD19C,0.3000*%
%ADD20C,0.4000*%
%ADD21C,0.2000*%
%ADD22R,1.5000X0.6500*%
%ADD23R,0.6500X1.5000*%
%ADD24R,1.2500X1.7500*%
G04:AMPARAMS|DCode=25|XSize=1.8mm|YSize=1.8mm|CornerRadius=0.45mm|HoleSize=0mm|Usage=FLASHONLY|Rotation=180.000|XOffset=0mm|YOffset=0mm|HoleType=Round|Shape=RoundedRectangle|*
%AMROUNDEDRECTD25*
21,1,1.8000,0.9000,0,0,180.0*
21,1,0.9000,1.8000,0,0,180.0*
1,1,0.9000,-0.4500,0.4500*
1,1,0.9000,0.4500,0.4500*
1,1,0.9000,0.4500,-0.4500*
1,1,0.9000,-0.4500,-0.4500*
%
%ADD25ROUNDEDRECTD25*%
%ADD26C,1.8000*%
G04:AMPARAMS|DCode=27|XSize=1.8mm|YSize=1.8mm|CornerRadius=0.45mm|HoleSize=0mm|Usage=FLASHONLY|Rotation=90.000|XOffset=0mm|YOffset=0mm|HoleType=Round|Shape=RoundedRectangle|*
%AMROUNDEDRECTD27*
21,1,1.8000,0.9000,0,0,90.0*
21,1,0.9000,1.8000,0,0,90.0*
1,1,0.9000,0.4500,0.4500*
1,1,0.9000,0.4500,-0.4500*
1,1,0.9000,-0.4500,-0.4500*
1,1,0.9000,-0.4500,0.4500*
%
%ADD27ROUNDEDRECTD27*%
%ADD28C,1.5000*%
G04:AMPARAMS|DCode=29|XSize=1.5mm|YSize=1.5mm|CornerRadius=0.225mm|HoleSize=0mm|Usage=FLASHONLY|Rotation=0.000|XOffset=0mm|YOffset=0mm|HoleType=Round|Shape=RoundedRectangle|*
%AMROUNDEDRECTD29*
21,1,1.5000,1.0500,0,0,0.0*
21,1,1.0500,1.5000,0,0,0.0*
1,1,0.4500,0.5250,-0.5250*
1,1,0.4500,-0.5250,-0.5250*
1,1,0.4500,-0.5250,0.5250*
1,1,0.4500,0.5250,0.5250*
%
%ADD29ROUNDEDRECTD29*%
%ADD30C,0.6500*%
%ADD31C,0.7200*%
G36*
X1285692Y801830D02*
X1286620Y800620D01*
X1287830Y799693D01*
X1289238Y799109D01*
X1290750Y798910D01*
X1299250D01*
X1300762Y799109D01*
X1301819Y799547D01*
X1302767Y798914D01*
X1303931Y797397D01*
Y787500D01*
X1303931Y787500D01*
X1303931D01*
X1304203Y786134D01*
X1304977Y784977D01*
X1305839Y784115D01*
X1305929Y783428D01*
X1305533Y781434D01*
X1304674Y781078D01*
X1303399Y780101D01*
X1302422Y778826D01*
X1301807Y777342D01*
X1301597Y775750D01*
X1301726Y774773D01*
X1290522Y763569D01*
X1280996D01*
X1279149Y764986D01*
X1278685Y765680D01*
X1279193Y766908D01*
X1279403Y768500D01*
X1279193Y770092D01*
X1278578Y771576D01*
X1277601Y772851D01*
X1276326Y773828D01*
X1274842Y774443D01*
X1273250Y774653D01*
X1271658Y774443D01*
X1270174Y773828D01*
X1268899Y772851D01*
X1267922Y771576D01*
X1267307Y770092D01*
X1267307Y770088D01*
X1243651D01*
X1243490Y770248D01*
X1243489Y770256D01*
X1242494Y771744D01*
X1241006Y772739D01*
X1240545Y772831D01*
X1239808Y775261D01*
X1244478Y779931D01*
X1258273D01*
X1259639Y780203D01*
X1260797Y780977D01*
X1281085Y801265D01*
X1282063Y801137D01*
X1283655Y801346D01*
X1285139Y801961D01*
X1285155Y801974D01*
X1285692Y801830D01*
D02*
G37*
G36*
X1262072Y800928D02*
X1263484Y800343D01*
X1265000Y800144D01*
X1265216Y800172D01*
X1266558Y798015D01*
X1264173Y794446D01*
X1256795Y787069D01*
X1243000D01*
X1241972Y786864D01*
X1240775Y789104D01*
X1246102Y794431D01*
X1248750D01*
X1250116Y794703D01*
X1251273Y795477D01*
X1254523Y798727D01*
X1255297Y799884D01*
X1255297Y799884D01*
Y799884D01*
D01*
X1255497Y800643D01*
X1256966Y800351D01*
X1256984Y800343D01*
X1258500Y800144D01*
X1260016Y800343D01*
X1261428Y800928D01*
X1261750Y801176D01*
X1262072Y800928D01*
D02*
G37*
G36*
X1363477Y763977D02*
X1364634Y763203D01*
X1366000Y762931D01*
X1388799D01*
X1389399Y762149D01*
X1390674Y761172D01*
X1392158Y760557D01*
X1392157D01*
X1392158Y760557D01*
D01*
X1392844Y758578D01*
X1392126Y756211D01*
X1391883Y753750D01*
X1392126Y751289D01*
X1392401Y750380D01*
X1390223Y749074D01*
X1388273Y751023D01*
X1387116Y751797D01*
X1385750Y752069D01*
X1368978D01*
X1360023Y761023D01*
X1358866Y761797D01*
X1357500Y762069D01*
X1337978D01*
X1331237Y768810D01*
X1330942Y771053D01*
X1331114Y771919D01*
X1332326Y772422D01*
X1333601Y773399D01*
X1334201Y774181D01*
X1353272D01*
X1363477Y763977D01*
D02*
G37*
G36*
X1272520Y888851D02*
X1273522Y886900D01*
D01*
X1273781Y885598D01*
X1273832Y885339D01*
X1274716Y884016D01*
X1274716Y884016D01*
X1274716Y884016D01*
X1278866Y879866D01*
X1280189Y878982D01*
X1281750Y878672D01*
X1317561D01*
X1323116Y873116D01*
X1323116Y873116D01*
X1324322Y871911D01*
Y866134D01*
X1323724Y865676D01*
X1323320Y865149D01*
X1320780D01*
X1320376Y865676D01*
X1319006Y866727D01*
X1317411Y867387D01*
X1315700Y867613D01*
X1313988Y867387D01*
X1312394Y866727D01*
X1311024Y865676D01*
X1310620Y865149D01*
X1308080D01*
X1307676Y865676D01*
X1306306Y866727D01*
X1304711Y867387D01*
X1303000Y867613D01*
X1301288Y867387D01*
X1299694Y866727D01*
X1298324Y865676D01*
X1297920Y865149D01*
X1295380D01*
X1294976Y865676D01*
X1293606Y866727D01*
X1292011Y867387D01*
X1290300Y867613D01*
X1288589Y867387D01*
X1286994Y866727D01*
X1285624Y865676D01*
X1285220Y865149D01*
X1282680D01*
X1282276Y865676D01*
X1280906Y866727D01*
X1279311Y867387D01*
X1277600Y867613D01*
X1275889Y867387D01*
X1274294Y866727D01*
X1272924Y865676D01*
X1272520Y865149D01*
X1269980D01*
X1269576Y865676D01*
X1268206Y866727D01*
X1266611Y867387D01*
X1264900Y867613D01*
X1263188Y867387D01*
X1262604Y867145D01*
X1260640Y868756D01*
X1260778Y869450D01*
Y885325D01*
X1262890Y886736D01*
X1263188Y886613D01*
X1264900Y886387D01*
X1266611Y886613D01*
X1268206Y887273D01*
X1269576Y888324D01*
X1269980Y888851D01*
X1272520D01*
Y888851D01*
D02*
G37*
G36*
X1594779Y992981D02*
X1593953Y992429D01*
X1590553Y989447D01*
X1587571Y986047D01*
X1585058Y982287D01*
X1583058Y978231D01*
X1581604Y973948D01*
X1580722Y969513D01*
X1580426Y965000D01*
X1580722Y960487D01*
X1581604Y956052D01*
X1583058Y951769D01*
X1585058Y947713D01*
X1587571Y943953D01*
X1590553Y940553D01*
X1593953Y937571D01*
X1597713Y935058D01*
X1601769Y933058D01*
X1606052Y931604D01*
X1610487Y930722D01*
X1615000Y930426D01*
X1619513Y930722D01*
X1623948Y931604D01*
X1628231Y933058D01*
X1632287Y935058D01*
X1636047Y937571D01*
X1639447Y940553D01*
X1642429Y943953D01*
X1642981Y944779D01*
X1645412Y944041D01*
Y755959D01*
X1642981Y755221D01*
X1642429Y756047D01*
X1639447Y759447D01*
X1636047Y762429D01*
X1632287Y764942D01*
X1628231Y766942D01*
X1623948Y768396D01*
X1619513Y769278D01*
X1615000Y769574D01*
X1610487Y769278D01*
X1608881Y768959D01*
X1607540Y771116D01*
X1607695Y771318D01*
X1608381Y772973D01*
X1608615Y774750D01*
Y781250D01*
X1608381Y783027D01*
X1607695Y784682D01*
X1607449Y785003D01*
X1607355Y785476D01*
X1606802Y786302D01*
X1605975Y786855D01*
X1605975Y786855D01*
X1605975D01*
X1604670Y788692D01*
X1604670Y788692D01*
Y788692D01*
Y788692D01*
X1605880Y789621D01*
X1606808Y790830D01*
X1607391Y792238D01*
X1607590Y793750D01*
Y800250D01*
X1607391Y801761D01*
X1606808Y803170D01*
X1605880Y804379D01*
X1604670Y805307D01*
X1603262Y805891D01*
X1601750Y806090D01*
X1593250D01*
X1591738Y805891D01*
X1590330Y805307D01*
X1589120Y804379D01*
X1588192Y803170D01*
X1587609Y801761D01*
X1587410Y800250D01*
Y793750D01*
X1587609Y792238D01*
X1588192Y790830D01*
X1589120Y789621D01*
X1590330Y788692D01*
D01*
X1590330D01*
X1590330Y788692D01*
X1590330Y788692D01*
X1589024Y786855D01*
X1589024D01*
X1589024Y786855D01*
X1588197Y786302D01*
X1587645Y785476D01*
X1587551Y785003D01*
X1587305Y784682D01*
X1586619Y783027D01*
X1586385Y781250D01*
Y774750D01*
X1586517Y773748D01*
X1584843Y771838D01*
X1578186D01*
X1577601Y772601D01*
X1576326Y773578D01*
X1574842Y774193D01*
X1573250Y774403D01*
X1571658Y774193D01*
X1570174Y773578D01*
X1569209Y772838D01*
X1564523Y777523D01*
X1563366Y778297D01*
X1562000Y778569D01*
X1555750D01*
X1554384Y778297D01*
X1553227Y777523D01*
X1552022Y776319D01*
X1505500D01*
X1504134Y776047D01*
X1502977Y775273D01*
X1500272Y772569D01*
X1453993D01*
X1453339Y774722D01*
X1453553Y775198D01*
X1453553Y775198D01*
X1453553D01*
X1454105Y776025D01*
X1454199Y776498D01*
X1454445Y776818D01*
X1455131Y778473D01*
X1455365Y780250D01*
Y786750D01*
X1455131Y788527D01*
X1454445Y790182D01*
X1453354Y791604D01*
X1451932Y792695D01*
X1450277Y793381D01*
X1448500Y793615D01*
X1440000D01*
X1438223Y793381D01*
X1436568Y792695D01*
X1435146Y791604D01*
X1434055Y790182D01*
X1433369Y788527D01*
X1433244Y787578D01*
X1413826D01*
X1413421Y788071D01*
X1411510Y789640D01*
X1409328Y790806D01*
X1408578Y791034D01*
Y803250D01*
X1408578Y803250D01*
X1408319Y804552D01*
X1408268Y804811D01*
X1407384Y806134D01*
X1407384Y806134D01*
X1400364Y813153D01*
X1401336Y815500D01*
X1414059D01*
X1414297Y815401D01*
X1416400Y815125D01*
X1425400D01*
X1427503Y815401D01*
X1427741Y815500D01*
X1431500D01*
Y817966D01*
X1432437Y819187D01*
X1433249Y821147D01*
X1433526Y823250D01*
Y832250D01*
X1433251Y834333D01*
X1445884Y846966D01*
X1445884Y846966D01*
X1446475Y847850D01*
X1446768Y848289D01*
X1447078Y849850D01*
X1447078Y849850D01*
Y901250D01*
X1446768Y902811D01*
X1445884Y904134D01*
X1445884Y904134D01*
X1443378Y906639D01*
Y942022D01*
X1444876Y942643D01*
X1447185Y944415D01*
X1448957Y946724D01*
X1450071Y949414D01*
X1450451Y952300D01*
X1450071Y955186D01*
X1448957Y957876D01*
X1447185Y960185D01*
X1444876Y961957D01*
X1442186Y963071D01*
X1439300Y963451D01*
X1436414Y963071D01*
X1433724Y961957D01*
X1431415Y960185D01*
X1429643Y957876D01*
X1428529Y955186D01*
X1428149Y952300D01*
X1428529Y949414D01*
X1429643Y946724D01*
X1431415Y944415D01*
X1433724Y942643D01*
X1435222Y942022D01*
Y904950D01*
X1435222Y904950D01*
X1435481Y903648D01*
X1435532Y903389D01*
X1436416Y902066D01*
X1438922Y899561D01*
Y851539D01*
X1427882Y840500D01*
X1386000D01*
Y835966D01*
X1385010Y834760D01*
X1383844Y832578D01*
X1383563Y831653D01*
X1381026Y831528D01*
X1380180Y833570D01*
X1378330Y835980D01*
X1375920Y837830D01*
X1373112Y838993D01*
X1370100Y839390D01*
X1367088Y838993D01*
X1364280Y837830D01*
X1361870Y835980D01*
X1360020Y833570D01*
X1358857Y830762D01*
X1358461Y827750D01*
X1358857Y824737D01*
X1360020Y821930D01*
X1361870Y819520D01*
X1364280Y817670D01*
X1367088Y816507D01*
X1370100Y816111D01*
X1373112Y816507D01*
X1375920Y817670D01*
X1378330Y819520D01*
X1380180Y821930D01*
X1381026Y823972D01*
X1383563Y823848D01*
X1383844Y822922D01*
X1385010Y820741D01*
X1386000Y819534D01*
Y815750D01*
X1386250Y815500D01*
X1391422D01*
Y812250D01*
X1391422Y812250D01*
X1391681Y810948D01*
X1391732Y810689D01*
X1392616Y809366D01*
X1400422Y801561D01*
Y791034D01*
X1399672Y790806D01*
X1397491Y789640D01*
X1395579Y788071D01*
X1394010Y786160D01*
X1392844Y783978D01*
X1392126Y781611D01*
X1391883Y779150D01*
X1392126Y776689D01*
X1392844Y774322D01*
X1392986Y774056D01*
X1392158Y772443D01*
X1390674Y771828D01*
X1389399Y770851D01*
X1388799Y770069D01*
X1367478D01*
X1357273Y780273D01*
X1356116Y781047D01*
X1354750Y781319D01*
X1334201D01*
X1333601Y782101D01*
X1332326Y783078D01*
X1330842Y783693D01*
X1329250Y783903D01*
X1327658Y783693D01*
X1326174Y783078D01*
X1324899Y782101D01*
X1323922Y780826D01*
X1323419Y779614D01*
X1322553Y779442D01*
X1320310Y779737D01*
X1311739Y788308D01*
X1311987Y790836D01*
X1313181Y791633D01*
X1313239Y791609D01*
X1314750Y791410D01*
X1321250D01*
X1322762Y791609D01*
X1324170Y792193D01*
X1325379Y793121D01*
X1328145Y793025D01*
D01*
X1328698Y792198D01*
X1329525Y791645D01*
X1329997Y791551D01*
X1330318Y791305D01*
X1331973Y790619D01*
X1333750Y790385D01*
X1340250D01*
X1342027Y790619D01*
X1343682Y791305D01*
X1345104Y792396D01*
X1346195Y793818D01*
X1346881Y795473D01*
X1347115Y797250D01*
Y805750D01*
X1346881Y807527D01*
X1346195Y809182D01*
X1345104Y810604D01*
X1344614Y810980D01*
Y813520D01*
X1345104Y813896D01*
X1346195Y815318D01*
X1346881Y816973D01*
X1347115Y818750D01*
Y827250D01*
X1346881Y829027D01*
X1346195Y830682D01*
X1345104Y832104D01*
X1343682Y833195D01*
X1342027Y833881D01*
X1340250Y834115D01*
X1333750D01*
X1331973Y833881D01*
X1331402Y833644D01*
X1328892Y836154D01*
X1329709Y838560D01*
X1330111Y838613D01*
X1331706Y839273D01*
X1333076Y840324D01*
X1334120Y841685D01*
X1336660D01*
X1337149Y841049D01*
X1338306Y840161D01*
X1339654Y839603D01*
X1341100Y839412D01*
X1342546Y839603D01*
X1343894Y840161D01*
X1345051Y841049D01*
X1345939Y842206D01*
X1346497Y843554D01*
X1346688Y845000D01*
Y861000D01*
X1346497Y862446D01*
X1345939Y863794D01*
X1345051Y864951D01*
X1343894Y865839D01*
X1342546Y866397D01*
X1341100Y866588D01*
X1339654Y866397D01*
X1338306Y865839D01*
X1337149Y864951D01*
X1336660Y864315D01*
X1334120D01*
X1333076Y865676D01*
X1332478Y866134D01*
Y871911D01*
X1332489Y871922D01*
X1352386D01*
X1353997Y869958D01*
X1353810Y869015D01*
Y863985D01*
X1354072Y862667D01*
X1354819Y861550D01*
X1355936Y860803D01*
X1357254Y860541D01*
X1366246D01*
X1367564Y860803D01*
X1368681Y861550D01*
X1369428Y862667D01*
X1369690Y863985D01*
Y869015D01*
X1369428Y870333D01*
X1369426Y870336D01*
X1370385Y871771D01*
X1370726Y873485D01*
Y878515D01*
X1370385Y880229D01*
X1370037Y880750D01*
X1370385Y881271D01*
X1370726Y882985D01*
Y888015D01*
X1370385Y889729D01*
X1369414Y891183D01*
X1367960Y892154D01*
X1366246Y892495D01*
X1357254D01*
X1355540Y892154D01*
X1354086Y891183D01*
X1353115Y889729D01*
X1353085Y889578D01*
X1349189D01*
X1347513Y891488D01*
X1347713Y893000D01*
Y909000D01*
X1347487Y910712D01*
X1346827Y912306D01*
X1346193Y913132D01*
X1347316Y915410D01*
X1351000D01*
X1352511Y915609D01*
X1353920Y916192D01*
X1355129Y917121D01*
X1356057Y918330D01*
X1356641Y919738D01*
X1356840Y921250D01*
Y929750D01*
X1356641Y931262D01*
X1356057Y932670D01*
X1355129Y933879D01*
X1353920Y934808D01*
X1352511Y935391D01*
X1351000Y935590D01*
X1344500D01*
X1342988Y935391D01*
X1341580Y934808D01*
X1340370Y933879D01*
X1339442Y932670D01*
X1339442Y932670D01*
Y932670D01*
X1337605Y933976D01*
Y933976D01*
X1337605Y933976D01*
X1337052Y934802D01*
X1336225Y935355D01*
X1335753Y935449D01*
X1335432Y935695D01*
X1333777Y936381D01*
X1332000Y936615D01*
X1325500D01*
X1323723Y936381D01*
X1322068Y935695D01*
X1320646Y934604D01*
X1319555Y933182D01*
X1318968Y931766D01*
X1316428D01*
X1315945Y932932D01*
X1314854Y934354D01*
X1313432Y935445D01*
X1311777Y936131D01*
X1310000Y936365D01*
X1303500D01*
X1301723Y936131D01*
X1300068Y935445D01*
X1299747Y935199D01*
X1299275Y935105D01*
X1298448Y934552D01*
X1297895Y933726D01*
X1296052Y934552D01*
X1296052Y934553D01*
Y934552D01*
X1295226Y935105D01*
X1294753Y935199D01*
X1294432Y935445D01*
X1292777Y936131D01*
X1291000Y936365D01*
X1284500D01*
X1282723Y936131D01*
X1281068Y935445D01*
X1279646Y934354D01*
X1278555Y932932D01*
X1277869Y931277D01*
X1277635Y929500D01*
Y921000D01*
X1277869Y919223D01*
X1278475Y917760D01*
X1277205Y915561D01*
X1275889Y915387D01*
X1274294Y914727D01*
X1272924Y913676D01*
X1272520Y913149D01*
X1269980D01*
X1269576Y913676D01*
X1268206Y914727D01*
X1266611Y915387D01*
X1264900Y915613D01*
X1263188Y915387D01*
X1261594Y914727D01*
X1260224Y913676D01*
X1259173Y912306D01*
X1258513Y910712D01*
X1258400Y909858D01*
X1255881Y909527D01*
X1255195Y911182D01*
X1254104Y912604D01*
X1252682Y913695D01*
X1251027Y914381D01*
X1249250Y914615D01*
X1240750D01*
X1238973Y914381D01*
X1237318Y913695D01*
X1235896Y912604D01*
X1234805Y911182D01*
X1234119Y909527D01*
X1233885Y907750D01*
Y901250D01*
X1234119Y899473D01*
X1234805Y897818D01*
X1235053Y897495D01*
X1235146Y897025D01*
X1235699Y896198D01*
X1236526Y895646D01*
X1236526Y895645D01*
X1236526D01*
X1237830Y893808D01*
X1237830Y893808D01*
X1237830D01*
X1236620Y892879D01*
X1235692Y891670D01*
X1235109Y890262D01*
X1234910Y888750D01*
Y882250D01*
X1235109Y880739D01*
X1235692Y879330D01*
X1236620Y878120D01*
X1237830Y877193D01*
X1239239Y876609D01*
X1240750Y876410D01*
X1249250D01*
X1250712Y876602D01*
X1250794Y876531D01*
X1252107Y873362D01*
X1251750Y870653D01*
X1250158Y870443D01*
X1248674Y869828D01*
X1247399Y868851D01*
X1246422Y867576D01*
X1245993Y866541D01*
X1244563Y866256D01*
X1243098Y866449D01*
X1240211Y869336D01*
X1239053Y870109D01*
X1237688Y870381D01*
X1227916D01*
X1223631Y874666D01*
Y892138D01*
X1223359Y893503D01*
X1222586Y894661D01*
X1169840Y947407D01*
X1170671Y949414D01*
X1171051Y952300D01*
X1170671Y955186D01*
X1169557Y957876D01*
X1169551Y957884D01*
X1170675Y960162D01*
X1175806D01*
X1176929Y957884D01*
X1176530Y957363D01*
X1175518Y954921D01*
X1175173Y952300D01*
X1175518Y949679D01*
X1176530Y947237D01*
X1178139Y945139D01*
X1180237Y943530D01*
X1182679Y942518D01*
X1185300Y942173D01*
X1187921Y942518D01*
X1190363Y943530D01*
X1192461Y945139D01*
X1194070Y947237D01*
X1195082Y949679D01*
X1195427Y952300D01*
X1195082Y954921D01*
X1194070Y957363D01*
X1193671Y957884D01*
X1194794Y960162D01*
X1199925D01*
X1201049Y957884D01*
X1201043Y957876D01*
X1199929Y955186D01*
X1199549Y952300D01*
X1199929Y949414D01*
X1201043Y946724D01*
X1202815Y944415D01*
X1205124Y942643D01*
X1207814Y941529D01*
X1210700Y941149D01*
X1213586Y941529D01*
X1216276Y942643D01*
X1218585Y944415D01*
X1220357Y946724D01*
X1221471Y949414D01*
X1221851Y952300D01*
X1221471Y955186D01*
X1220357Y957876D01*
X1220351Y957884D01*
X1221475Y960162D01*
X1225325D01*
X1226449Y957884D01*
X1226443Y957876D01*
X1225329Y955186D01*
X1224949Y952300D01*
X1225329Y949414D01*
X1226443Y946724D01*
X1228215Y944415D01*
X1230524Y942643D01*
X1233214Y941529D01*
X1236100Y941149D01*
X1238986Y941529D01*
X1241676Y942643D01*
X1243985Y944415D01*
X1245757Y946724D01*
X1246871Y949414D01*
X1247251Y952300D01*
X1246871Y955186D01*
X1245757Y957876D01*
X1245751Y957884D01*
X1246875Y960162D01*
X1250725D01*
X1251849Y957884D01*
X1251843Y957876D01*
X1250729Y955186D01*
X1250349Y952300D01*
X1250729Y949414D01*
X1251843Y946724D01*
X1253615Y944415D01*
X1255924Y942643D01*
X1258614Y941529D01*
X1261500Y941149D01*
X1264386Y941529D01*
X1267076Y942643D01*
X1269385Y944415D01*
X1271157Y946724D01*
X1272271Y949414D01*
X1272651Y952300D01*
X1272271Y955186D01*
X1271157Y957876D01*
X1271151Y957884D01*
X1271401Y958390D01*
X1273907Y958804D01*
X1276538Y956174D01*
X1276129Y955186D01*
X1275749Y952300D01*
X1276129Y949414D01*
X1277243Y946724D01*
X1279015Y944415D01*
X1281324Y942643D01*
X1284014Y941529D01*
X1286900Y941149D01*
X1289786Y941529D01*
X1292476Y942643D01*
X1294785Y944415D01*
X1296557Y946724D01*
X1297671Y949414D01*
X1298051Y952300D01*
X1297671Y955186D01*
X1296557Y957876D01*
X1294785Y960185D01*
X1292476Y961957D01*
X1289786Y963071D01*
X1286900Y963451D01*
X1284014Y963071D01*
X1283026Y962662D01*
X1279246Y966442D01*
X1280921Y968352D01*
X1281324Y968043D01*
X1284014Y966929D01*
X1286900Y966549D01*
X1289786Y966929D01*
X1292476Y968043D01*
X1294785Y969815D01*
X1296557Y972124D01*
X1297671Y974814D01*
X1298051Y977700D01*
X1297671Y980586D01*
X1296557Y983276D01*
X1294785Y985585D01*
X1292476Y987357D01*
X1289786Y988471D01*
X1286900Y988851D01*
X1284014Y988471D01*
X1281324Y987357D01*
X1279015Y985585D01*
X1277243Y983276D01*
X1276129Y980586D01*
X1275749Y977700D01*
X1276129Y974814D01*
X1277243Y972124D01*
X1278525Y970454D01*
X1276788Y968600D01*
X1276206Y968989D01*
X1274450Y969338D01*
X1271891D01*
X1270768Y971616D01*
X1271157Y972124D01*
X1272271Y974814D01*
X1272651Y977700D01*
X1272271Y980586D01*
X1271157Y983276D01*
X1269385Y985585D01*
X1267076Y987357D01*
X1264386Y988471D01*
X1261500Y988851D01*
X1258614Y988471D01*
X1255924Y987357D01*
X1253615Y985585D01*
X1251843Y983276D01*
X1250729Y980586D01*
X1250349Y977700D01*
X1250729Y974814D01*
X1251843Y972124D01*
X1252233Y971616D01*
X1251109Y969338D01*
X1245210D01*
X1244087Y971616D01*
X1244870Y972637D01*
X1245882Y975079D01*
X1246227Y977700D01*
X1245882Y980321D01*
X1244870Y982763D01*
X1243261Y984861D01*
X1241163Y986470D01*
X1238721Y987482D01*
X1236100Y987827D01*
X1233479Y987482D01*
X1231037Y986470D01*
X1228939Y984861D01*
X1227330Y982763D01*
X1226318Y980321D01*
X1225973Y977700D01*
X1226318Y975079D01*
X1227330Y972637D01*
X1228113Y971616D01*
X1226990Y969338D01*
X1221091D01*
X1219967Y971616D01*
X1220357Y972124D01*
X1221471Y974814D01*
X1221851Y977700D01*
X1221471Y980586D01*
X1220357Y983276D01*
X1218585Y985585D01*
X1216276Y987357D01*
X1213586Y988471D01*
X1210700Y988851D01*
X1207814Y988471D01*
X1205124Y987357D01*
X1202815Y985585D01*
X1201043Y983276D01*
X1199929Y980586D01*
X1199549Y977700D01*
X1199929Y974814D01*
X1201043Y972124D01*
X1201432Y971616D01*
X1200309Y969338D01*
X1195691D01*
X1194567Y971616D01*
X1194957Y972124D01*
X1196071Y974814D01*
X1196451Y977700D01*
X1196071Y980586D01*
X1194957Y983276D01*
X1193185Y985585D01*
X1190876Y987357D01*
X1188186Y988471D01*
X1185300Y988851D01*
X1182414Y988471D01*
X1179724Y987357D01*
X1177415Y985585D01*
X1175643Y983276D01*
X1174529Y980586D01*
X1174149Y977700D01*
X1174529Y974814D01*
X1175643Y972124D01*
X1176032Y971616D01*
X1174909Y969338D01*
X1170291D01*
X1169167Y971616D01*
X1169557Y972124D01*
X1170671Y974814D01*
X1171051Y977700D01*
X1170671Y980586D01*
X1169557Y983276D01*
X1167785Y985585D01*
X1165476Y987357D01*
X1162786Y988471D01*
X1159900Y988851D01*
X1157014Y988471D01*
X1154324Y987357D01*
X1152015Y985585D01*
X1150243Y983276D01*
X1149129Y980586D01*
X1148749Y977700D01*
X1149129Y974814D01*
X1150243Y972124D01*
X1150632Y971616D01*
X1149509Y969338D01*
X1143610D01*
X1142487Y971616D01*
X1143270Y972637D01*
X1144282Y975079D01*
X1144627Y977700D01*
X1144282Y980321D01*
X1143270Y982763D01*
X1141661Y984861D01*
X1139563Y986470D01*
X1137121Y987482D01*
X1134500Y987827D01*
X1131879Y987482D01*
X1129437Y986470D01*
X1127339Y984861D01*
X1125730Y982763D01*
X1124718Y980321D01*
X1124373Y977700D01*
X1124718Y975079D01*
X1125730Y972637D01*
X1126513Y971616D01*
X1125390Y969338D01*
X1119491D01*
X1118367Y971616D01*
X1118757Y972124D01*
X1119871Y974814D01*
X1120251Y977700D01*
X1119871Y980586D01*
X1118757Y983276D01*
X1116985Y985585D01*
X1114676Y987357D01*
X1111986Y988471D01*
X1109100Y988851D01*
X1106214Y988471D01*
X1103524Y987357D01*
X1101215Y985585D01*
X1099443Y983276D01*
X1099034Y982288D01*
X1093766D01*
X1093357Y983276D01*
X1091585Y985585D01*
X1089276Y987357D01*
X1086586Y988471D01*
X1083700Y988851D01*
X1080814Y988471D01*
X1078124Y987357D01*
X1075815Y985585D01*
X1074043Y983276D01*
X1072929Y980586D01*
X1072549Y977700D01*
X1072929Y974814D01*
X1074043Y972124D01*
X1075733Y969921D01*
X1071826Y966015D01*
X1069449Y966909D01*
X1069278Y969513D01*
X1068396Y973948D01*
X1066942Y978231D01*
X1064942Y982287D01*
X1062429Y986047D01*
X1059447Y989447D01*
X1056047Y992429D01*
X1055221Y992981D01*
X1055959Y995412D01*
X1594041D01*
X1594779Y992981D01*
D02*
G37*
G36*
X1150249Y957884D02*
X1150243Y957876D01*
X1149129Y955186D01*
X1148749Y952300D01*
X1149129Y949414D01*
X1150243Y946724D01*
X1152015Y944415D01*
X1154324Y942643D01*
X1157014Y941529D01*
X1159900Y941149D01*
X1162786Y941529D01*
X1164793Y942360D01*
X1216494Y890659D01*
Y873187D01*
X1216494Y873187D01*
X1216494D01*
X1216766Y871822D01*
X1217539Y870664D01*
X1223914Y864289D01*
D01*
X1223914D01*
Y864289D01*
D01*
X1223914D01*
Y864289D01*
X1223914D01*
X1223914Y864289D01*
Y864289D01*
X1223914Y864289D01*
Y864289D01*
X1225072Y863516D01*
X1226438Y863244D01*
X1236209D01*
X1243977Y855477D01*
X1243977Y855477D01*
X1243977D01*
X1243977Y855477D01*
X1243977D01*
X1243977Y855477D01*
Y855477D01*
Y855477D01*
D01*
D01*
X1243977D01*
Y855477D01*
X1245134Y854703D01*
X1246500Y854431D01*
X1246500Y854431D01*
X1246118Y853134D01*
X1246118Y853134D01*
X1246118Y853134D01*
X1245909Y851542D01*
X1246118Y849949D01*
X1246733Y848465D01*
X1247710Y847191D01*
X1248493Y846591D01*
Y846189D01*
X1248764Y844823D01*
X1249538Y843665D01*
X1261117Y832086D01*
X1261034Y829548D01*
X1259522Y828222D01*
X1258500Y828356D01*
X1256984Y828157D01*
X1255572Y827571D01*
X1255250Y827325D01*
X1254928Y827571D01*
X1253516Y828157D01*
X1252000Y828356D01*
X1250484Y828157D01*
X1249072Y827571D01*
X1248750Y827325D01*
X1248428Y827571D01*
X1247016Y828157D01*
X1245500Y828356D01*
X1243984Y828157D01*
X1242572Y827571D01*
X1242250Y827325D01*
X1241928Y827571D01*
X1240516Y828157D01*
X1239000Y828356D01*
X1237484Y828157D01*
X1236072Y827571D01*
X1235750Y827325D01*
X1235428Y827571D01*
X1234016Y828157D01*
X1232500Y828356D01*
X1230984Y828157D01*
X1229572Y827571D01*
X1229250Y827325D01*
X1228928Y827571D01*
X1227516Y828157D01*
X1226000Y828356D01*
X1224484Y828157D01*
X1223072Y827571D01*
X1222750Y827325D01*
X1222428Y827571D01*
X1221016Y828157D01*
X1219500Y828356D01*
X1217984Y828157D01*
X1216572Y827571D01*
X1216250Y827325D01*
X1215928Y827571D01*
X1214516Y828157D01*
X1213000Y828356D01*
X1211484Y828157D01*
X1210072Y827571D01*
X1209750Y827325D01*
X1209428Y827571D01*
X1208016Y828157D01*
X1206500Y828356D01*
X1204984Y828157D01*
X1203572Y827571D01*
X1203250Y827325D01*
X1202928Y827571D01*
X1201516Y828157D01*
X1200000Y828356D01*
X1198484Y828157D01*
X1197072Y827571D01*
X1196750Y827325D01*
X1196428Y827571D01*
X1195016Y828157D01*
X1193500Y828356D01*
X1191984Y828157D01*
X1190572Y827571D01*
X1189390Y826664D01*
X1188869Y827012D01*
X1187000Y827384D01*
X1185131Y827012D01*
X1183547Y825953D01*
X1182488Y824369D01*
X1182116Y822500D01*
Y806000D01*
X1182488Y804131D01*
X1181366Y803397D01*
X1181366D01*
X1180276Y802669D01*
X1115804D01*
X1114438Y802397D01*
X1113281Y801623D01*
X1109726Y798069D01*
X1071451D01*
X1070851Y798851D01*
X1069576Y799828D01*
X1068092Y800443D01*
X1066500Y800653D01*
X1064908Y800443D01*
X1063424Y799828D01*
X1062149Y798851D01*
X1061172Y797576D01*
X1060557Y796092D01*
X1060347Y794500D01*
X1060557Y792908D01*
X1061172Y791424D01*
X1062149Y790149D01*
X1063424Y789172D01*
X1064908Y788557D01*
X1066500Y788347D01*
X1068092Y788557D01*
X1068288Y788638D01*
X1070488Y787368D01*
X1070610Y786446D01*
X1071224Y784962D01*
X1072202Y783688D01*
X1073476Y782710D01*
X1074960Y782095D01*
X1076553Y781886D01*
X1078145Y782095D01*
X1079629Y782710D01*
X1080903Y783688D01*
X1081082Y783921D01*
X1083536Y783264D01*
X1083610Y782696D01*
X1084225Y781212D01*
X1085203Y779938D01*
X1086477Y778960D01*
X1087961Y778345D01*
X1089553Y778136D01*
X1091146Y778345D01*
X1092629Y778960D01*
X1093904Y779938D01*
X1094882Y781212D01*
X1095269Y781317D01*
X1095095Y781269D01*
X1097208Y779860D01*
X1097361Y778696D01*
X1097975Y777212D01*
X1098953Y775938D01*
X1100228Y774960D01*
X1101711Y774345D01*
X1103304Y774136D01*
X1104896Y774345D01*
X1106380Y774960D01*
X1107654Y775938D01*
X1108632Y777212D01*
X1109099Y778339D01*
X1111474Y777703D01*
X1111545Y777622D01*
X1111402Y776538D01*
X1111612Y774946D01*
X1112226Y773462D01*
X1113204Y772187D01*
X1114478Y771210D01*
X1115962Y770595D01*
X1117554Y770385D01*
X1119147Y770595D01*
X1120631Y771210D01*
X1121905Y772187D01*
Y772187D01*
X1123204Y772937D01*
X1124479Y771960D01*
X1125963Y771345D01*
X1127555Y771135D01*
X1129147Y771345D01*
X1130631Y771960D01*
X1131906Y772937D01*
X1132883Y774212D01*
X1132984Y774454D01*
X1135437Y773796D01*
X1135403Y773538D01*
X1135613Y771945D01*
X1136227Y770462D01*
X1137205Y769187D01*
X1138479Y768209D01*
X1139963Y767595D01*
X1141556Y767385D01*
X1143148Y767595D01*
X1144018Y767955D01*
X1146365Y766983D01*
X1146478Y766711D01*
X1147456Y765437D01*
X1148730Y764459D01*
X1150214Y763845D01*
X1151806Y763635D01*
X1153399Y763845D01*
X1154883Y764459D01*
X1156157Y765437D01*
X1157134Y766711D01*
X1157482Y767550D01*
X1158753Y767760D01*
X1161034Y766772D01*
X1160904Y765787D01*
X1161114Y764195D01*
X1161729Y762711D01*
X1162706Y761437D01*
X1163981Y760459D01*
X1165464Y759844D01*
X1167057Y759635D01*
X1168649Y759844D01*
X1170133Y760459D01*
X1171407Y761437D01*
X1172385Y762711D01*
X1173000Y764195D01*
X1173031Y764431D01*
X1186066D01*
X1187038Y762085D01*
X1184477Y759523D01*
X1183703Y758366D01*
X1183685Y758275D01*
X1182859Y757641D01*
X1181928Y756428D01*
X1181344Y755016D01*
X1181144Y753500D01*
Y737000D01*
X1181344Y735484D01*
X1181928Y734072D01*
X1182859Y732859D01*
X1184072Y731928D01*
X1185484Y731343D01*
X1187000Y731144D01*
X1188516Y731343D01*
X1189928Y731928D01*
X1191110Y732836D01*
X1191631Y732488D01*
X1193500Y732116D01*
X1195369Y732488D01*
X1196750Y733411D01*
X1198131Y732488D01*
X1199966Y732123D01*
X1200060Y731813D01*
X1200519Y729508D01*
X1194350Y723338D01*
X1107150D01*
X1040588Y789901D01*
Y798250D01*
D01*
Y798250D01*
X1040588D01*
D01*
Y798250D01*
X1040588D01*
Y798250D01*
X1040588Y798250D01*
X1040588Y798250D01*
D01*
D01*
D01*
D01*
X1040239Y800006D01*
X1039903Y800508D01*
X1039903Y800508D01*
X1039244Y801494D01*
Y801494D01*
X1039244Y801494D01*
X1032650Y808089D01*
Y821012D01*
X1032278Y822883D01*
X1031218Y824468D01*
X1029633Y825528D01*
X1027763Y825900D01*
X1024588D01*
Y835350D01*
X1026933Y837694D01*
X1051306D01*
Y852912D01*
X1078194D01*
Y849194D01*
X1109306D01*
Y852912D01*
X1116461D01*
X1117867Y851972D01*
X1119737Y851600D01*
X1135263D01*
X1137133Y851972D01*
X1138718Y853032D01*
X1139778Y854617D01*
X1140150Y856488D01*
Y870512D01*
X1139778Y872383D01*
X1138718Y873968D01*
X1137133Y875028D01*
X1135263Y875400D01*
X1119737D01*
X1117867Y875028D01*
X1116282Y873968D01*
X1115222Y872383D01*
X1114850Y870512D01*
Y862088D01*
X1109306D01*
Y866306D01*
X1078194D01*
Y862088D01*
X1051306D01*
Y877806D01*
X1020194D01*
Y843933D01*
X1016756Y840494D01*
X1015761Y839006D01*
X1015412Y837250D01*
X1015412Y837250D01*
X1015412D01*
X1015412Y837250D01*
X1015412D01*
Y825900D01*
X1012237D01*
X1010367Y825528D01*
X1008782Y824468D01*
X1007722Y822883D01*
X1007350Y821012D01*
Y806988D01*
X1007722Y805117D01*
X1008782Y803532D01*
X1010367Y802472D01*
X1012237Y802100D01*
X1025661D01*
X1028283Y799479D01*
X1027932Y797718D01*
X1027579Y796864D01*
X1012237D01*
X1010764Y796571D01*
X1009514Y795736D01*
X1008679Y794486D01*
X1008386Y793012D01*
Y778988D01*
X1008679Y777514D01*
X1009514Y776264D01*
X1010764Y775429D01*
X1012237Y775136D01*
X1027763D01*
X1029236Y775429D01*
X1030486Y776264D01*
X1031321Y777514D01*
X1031614Y778988D01*
Y782579D01*
X1033961Y783551D01*
X1047816Y769695D01*
X1046475Y767538D01*
X1043948Y768396D01*
X1039513Y769278D01*
X1035000Y769574D01*
X1030487Y769278D01*
X1026052Y768396D01*
X1021769Y766942D01*
X1017713Y764942D01*
X1013953Y762429D01*
X1010553Y759447D01*
X1007571Y756047D01*
X1007019Y755221D01*
X1004588Y755959D01*
Y944041D01*
X1007019Y944779D01*
X1007571Y943953D01*
X1010553Y940553D01*
X1013953Y937571D01*
X1017713Y935058D01*
X1021769Y933058D01*
X1026052Y931604D01*
X1030487Y930722D01*
X1035000Y930426D01*
X1039513Y930722D01*
X1043948Y931604D01*
X1048231Y933058D01*
X1052287Y935058D01*
X1056047Y937571D01*
X1059447Y940553D01*
X1062429Y943953D01*
X1063263Y945201D01*
X1065694Y944463D01*
Y939718D01*
X1065694Y939718D01*
X1065694D01*
X1066043Y937962D01*
X1067038Y936474D01*
X1069476Y934035D01*
Y920468D01*
X1068818Y920195D01*
X1067396Y919104D01*
X1066305Y917682D01*
X1065619Y916027D01*
X1065430Y914588D01*
X1060900D01*
Y917763D01*
X1060528Y919633D01*
X1059468Y921218D01*
X1057883Y922278D01*
X1056012Y922650D01*
X1041988D01*
X1040117Y922278D01*
X1038532Y921218D01*
X1037472Y919633D01*
X1037100Y917763D01*
Y902237D01*
X1037472Y900367D01*
X1038532Y898782D01*
X1040117Y897722D01*
X1041988Y897350D01*
X1056012D01*
X1057883Y897722D01*
X1059468Y898782D01*
X1060528Y900367D01*
X1060900Y902237D01*
Y905412D01*
X1065430D01*
X1065619Y903973D01*
X1066305Y902318D01*
X1067396Y900896D01*
X1068818Y899805D01*
X1070473Y899119D01*
X1070912Y899062D01*
Y892000D01*
X1070912Y892000D01*
X1070912D01*
X1071261Y890244D01*
X1072256Y888756D01*
X1078194Y882817D01*
Y872194D01*
X1109306D01*
Y889306D01*
X1084683D01*
X1080088Y893901D01*
Y899062D01*
X1080527Y899119D01*
X1082182Y899805D01*
X1082503Y900051D01*
X1082975Y900145D01*
X1083802Y900698D01*
X1084355Y901525D01*
X1084355Y901525D01*
Y901525D01*
X1086192Y902830D01*
X1086192D01*
X1087121Y901620D01*
X1088330Y900693D01*
X1089738Y900109D01*
X1091250Y899910D01*
X1097750D01*
X1099261Y900109D01*
X1100670Y900693D01*
X1101879Y901620D01*
X1102807Y902830D01*
X1103391Y904239D01*
X1103590Y905750D01*
Y914250D01*
X1103391Y915761D01*
X1102807Y917170D01*
X1101879Y918380D01*
X1100670Y919308D01*
X1099261Y919891D01*
X1097750Y920090D01*
X1091250D01*
X1089738Y919891D01*
X1088330Y919308D01*
X1087121Y918380D01*
X1086192Y917170D01*
X1086192Y917170D01*
Y917170D01*
X1084355Y918475D01*
Y918475D01*
X1084355Y918475D01*
X1083802Y919302D01*
X1082975Y919855D01*
X1082503Y919949D01*
X1082182Y920195D01*
X1080527Y920881D01*
X1078750Y921115D01*
X1078652D01*
Y935936D01*
D01*
Y935936D01*
X1078652D01*
D01*
Y935936D01*
X1078652D01*
Y935936D01*
X1078652Y935936D01*
X1078652Y935936D01*
D01*
D01*
D01*
D01*
X1078303Y937692D01*
X1077967Y938194D01*
X1077967Y938194D01*
X1077460Y938954D01*
X1078657Y941194D01*
X1088950D01*
X1090466Y941394D01*
X1091878Y941979D01*
X1093091Y942909D01*
X1094022Y944122D01*
X1094606Y945534D01*
X1094806Y947050D01*
Y956917D01*
X1096693Y958804D01*
X1099199Y958390D01*
X1099449Y957884D01*
X1099443Y957876D01*
X1098329Y955186D01*
X1097949Y952300D01*
X1098329Y949414D01*
X1099443Y946724D01*
X1101215Y944415D01*
X1103524Y942643D01*
X1106214Y941529D01*
X1109100Y941149D01*
X1111986Y941529D01*
X1114676Y942643D01*
X1116985Y944415D01*
X1118757Y946724D01*
X1119871Y949414D01*
X1120251Y952300D01*
X1119871Y955186D01*
X1118757Y957876D01*
X1118751Y957884D01*
X1119875Y960162D01*
X1123725D01*
X1124849Y957884D01*
X1124843Y957876D01*
X1123729Y955186D01*
X1123349Y952300D01*
X1123729Y949414D01*
X1124843Y946724D01*
X1126615Y944415D01*
X1128924Y942643D01*
X1131614Y941529D01*
X1134500Y941149D01*
X1137386Y941529D01*
X1140076Y942643D01*
X1142385Y944415D01*
X1144157Y946724D01*
X1145271Y949414D01*
X1145651Y952300D01*
X1145271Y955186D01*
X1144157Y957876D01*
X1144151Y957884D01*
X1145275Y960162D01*
X1149125D01*
X1150249Y957884D01*
D02*
G37*
G36*
X1482894Y743000D02*
X1483094Y741484D01*
X1483678Y740072D01*
X1484609Y738859D01*
X1485822Y737928D01*
X1487234Y737343D01*
X1488750Y737144D01*
X1490266Y737343D01*
X1491678Y737928D01*
X1492860Y738836D01*
X1493381Y738488D01*
X1495250Y738116D01*
X1497119Y738488D01*
X1498500Y739411D01*
X1499881Y738488D01*
X1501750Y738116D01*
D01*
D01*
D01*
X1501750Y738116D01*
X1501750Y738116D01*
D01*
X1501750Y738116D01*
X1503662Y738465D01*
Y734650D01*
X1483849Y714838D01*
X1478654D01*
X1476324Y716626D01*
X1476107Y716950D01*
X1476641Y718239D01*
X1476840Y719750D01*
Y726250D01*
X1476641Y727762D01*
X1476058Y729170D01*
X1475130Y730379D01*
X1473920Y731308D01*
X1473920Y731308D01*
X1473920D01*
X1475226Y733146D01*
X1475226D01*
X1475226Y733146D01*
X1476053Y733698D01*
X1476605Y734525D01*
X1476699Y734998D01*
X1476945Y735318D01*
X1477631Y736973D01*
X1477865Y738750D01*
Y745250D01*
X1477631Y747027D01*
X1476945Y748682D01*
X1475854Y750104D01*
X1474432Y751195D01*
X1473260Y751680D01*
X1473756Y754172D01*
X1482894D01*
Y743000D01*
D02*
G37*
G36*
X1432635Y744520D02*
Y739500D01*
X1432869Y737723D01*
X1433555Y736068D01*
X1433802Y735746D01*
X1433896Y735274D01*
X1434448Y734447D01*
X1435275Y733895D01*
X1435275Y733895D01*
X1435275D01*
X1436580Y732058D01*
X1436580Y732057D01*
X1436580D01*
X1435370Y731130D01*
X1434442Y729920D01*
X1433859Y728512D01*
X1433660Y727000D01*
Y720500D01*
X1433859Y718988D01*
X1434442Y717580D01*
X1434798Y717116D01*
X1433675Y714838D01*
X1414440D01*
X1413624Y717243D01*
X1414746Y718104D01*
X1416037Y719787D01*
X1416849Y721747D01*
X1417126Y723850D01*
Y732850D01*
X1416849Y734953D01*
X1416386Y736069D01*
X1417797Y738181D01*
X1421500D01*
X1422866Y738453D01*
X1424023Y739227D01*
X1430289Y745492D01*
X1432635Y744520D01*
D02*
G37*
G36*
X1102006Y715506D02*
X1103494Y714511D01*
X1105250Y714162D01*
X1196250D01*
X1198006Y714511D01*
X1199494Y715506D01*
X1199494Y715506D01*
X1199494Y715506D01*
X1203597Y719090D01*
X1205910Y718039D01*
Y710750D01*
X1206109Y709239D01*
X1206693Y707830D01*
X1207432Y706866D01*
X1206754Y705491D01*
X1206061Y704588D01*
X1055959D01*
X1055221Y707019D01*
X1056047Y707571D01*
X1059447Y710553D01*
X1062429Y713953D01*
X1064942Y717713D01*
X1066942Y721769D01*
X1068396Y726052D01*
X1069278Y730487D01*
X1069574Y735000D01*
X1069278Y739513D01*
X1068396Y743948D01*
X1067538Y746475D01*
X1069695Y747816D01*
X1102006Y715506D01*
D02*
G37*
G36*
X1580694Y739089D02*
X1580426Y735000D01*
X1580722Y730487D01*
X1580865Y729765D01*
X1580337Y725752D01*
X1579793Y725090D01*
X1573750D01*
X1572238Y724891D01*
X1570830Y724307D01*
X1569621Y723380D01*
X1568692Y722170D01*
X1568692Y722170D01*
Y722170D01*
X1566855Y723475D01*
Y723475D01*
X1566855Y723475D01*
X1566302Y724302D01*
X1565475Y724855D01*
X1565003Y724949D01*
X1564682Y725195D01*
X1563027Y725881D01*
X1561250Y726115D01*
X1559139D01*
X1559153Y728000D01*
X1559153Y728000D01*
X1559153D01*
D01*
D01*
D01*
X1558943Y729592D01*
X1558328Y731076D01*
X1557351Y732351D01*
X1556076Y733328D01*
X1554592Y733943D01*
X1553000Y734153D01*
X1552728Y734117D01*
X1551761Y734965D01*
X1551803Y737505D01*
X1552782Y738309D01*
X1553750Y738116D01*
X1555619Y738488D01*
X1556140Y738836D01*
X1557322Y737928D01*
X1558734Y737343D01*
X1560250Y737144D01*
X1561766Y737343D01*
X1563178Y737928D01*
X1563500Y738176D01*
X1563822Y737928D01*
X1565234Y737343D01*
X1566750Y737144D01*
X1568266Y737343D01*
X1569678Y737928D01*
X1570000Y738176D01*
X1570322Y737928D01*
X1571734Y737343D01*
X1573250Y737144D01*
X1574766Y737343D01*
X1576178Y737928D01*
X1577391Y738859D01*
X1578322Y740072D01*
X1580694Y739089D01*
D02*
G37*
G36*
X1433135Y761250D02*
X1433316Y759878D01*
X1431908Y759693D01*
X1430424Y759078D01*
X1429149Y758101D01*
X1428172Y756826D01*
X1427557Y755342D01*
X1427347Y753750D01*
X1427476Y752773D01*
X1420022Y745319D01*
X1416701D01*
X1415395Y747497D01*
X1416156Y748922D01*
X1416874Y751289D01*
X1417117Y753750D01*
X1416874Y756211D01*
X1416223Y758357D01*
X1417600Y760492D01*
X1418092Y760557D01*
X1419576Y761172D01*
X1420851Y762149D01*
X1421451Y762931D01*
X1433135D01*
Y761250D01*
D02*
G37*
G36*
X1288885Y740250D02*
Y733750D01*
X1289119Y731973D01*
X1289805Y730318D01*
X1290051Y729997D01*
X1290145Y729525D01*
X1290698Y728698D01*
X1291525Y728145D01*
X1291525Y728145D01*
X1291525D01*
X1292830Y726308D01*
X1292830Y726308D01*
X1292830D01*
X1291620Y725379D01*
X1290692Y724170D01*
X1290109Y722762D01*
X1289910Y721250D01*
Y714750D01*
X1290109Y713239D01*
X1290692Y711830D01*
X1291620Y710620D01*
X1292830Y709693D01*
X1294238Y709109D01*
X1295750Y708910D01*
X1304250D01*
X1305762Y709109D01*
X1307170Y709693D01*
X1308380Y710620D01*
X1309308Y711830D01*
X1309891Y713239D01*
X1310090Y714750D01*
Y721250D01*
X1309891Y722762D01*
X1309308Y724170D01*
X1308380Y725379D01*
X1307170Y726308D01*
X1307170Y726308D01*
X1307170D01*
X1308476Y728145D01*
X1308476D01*
X1308476Y728145D01*
X1309303Y728698D01*
X1309855Y729525D01*
X1309949Y729997D01*
X1310195Y730318D01*
X1310230Y730402D01*
X1312770D01*
X1312805Y730318D01*
X1313051Y729996D01*
X1313145Y729524D01*
X1313698Y728697D01*
X1314525Y728145D01*
X1314525Y728145D01*
X1314525D01*
X1315830Y726308D01*
X1315830Y726308D01*
X1315830D01*
X1314621Y725379D01*
X1313692Y724170D01*
X1313109Y722762D01*
X1312910Y721250D01*
Y714750D01*
X1313109Y713239D01*
X1313692Y711830D01*
X1314621Y710620D01*
X1315830Y709693D01*
X1317238Y709109D01*
X1318750Y708910D01*
X1327250D01*
X1328761Y709109D01*
X1330170Y709693D01*
X1331380Y710620D01*
X1332307Y711830D01*
X1332404Y712063D01*
X1334895Y712558D01*
X1340518Y706935D01*
X1339546Y704588D01*
X1285439D01*
X1284746Y705491D01*
X1284068Y706866D01*
X1284807Y707830D01*
X1285391Y709239D01*
X1285590Y710750D01*
Y719250D01*
X1285391Y720761D01*
X1284807Y722170D01*
X1283879Y723380D01*
X1282670Y724308D01*
X1281261Y724891D01*
X1279750Y725090D01*
X1273250D01*
X1271739Y724891D01*
X1270330Y724308D01*
X1269120Y723380D01*
X1268193Y722170D01*
X1268192Y722170D01*
Y722170D01*
X1266355Y723475D01*
Y723475D01*
X1266355Y723475D01*
X1265802Y724302D01*
X1264975Y724855D01*
X1264503Y724949D01*
X1264182Y725195D01*
X1262527Y725881D01*
X1260750Y726115D01*
X1254250D01*
X1253722Y726045D01*
X1251358Y728410D01*
X1251403Y728750D01*
X1251193Y730342D01*
X1252000Y732116D01*
D01*
X1252000Y732116D01*
X1253869Y732488D01*
X1254390Y732836D01*
X1255572Y731928D01*
X1256984Y731343D01*
X1258500Y731144D01*
X1260016Y731343D01*
X1261428Y731928D01*
X1261750Y732176D01*
X1262072Y731928D01*
X1263484Y731343D01*
X1265000Y731144D01*
X1266516Y731343D01*
X1267928Y731928D01*
X1268250Y732176D01*
X1268572Y731928D01*
X1269984Y731343D01*
X1271500Y731144D01*
X1273016Y731343D01*
X1274428Y731928D01*
X1275641Y732859D01*
X1276572Y734072D01*
X1277157Y735484D01*
X1277356Y737000D01*
Y740662D01*
X1288524D01*
X1288885Y740250D01*
D02*
G37*
%LPC*%
G36*
X1312300Y963451D02*
X1309414Y963071D01*
X1306724Y961957D01*
X1304415Y960185D01*
X1302643Y957876D01*
X1301529Y955186D01*
X1301149Y952300D01*
X1301529Y949414D01*
X1302643Y946724D01*
X1304415Y944415D01*
X1306724Y942643D01*
X1309414Y941529D01*
X1312300Y941149D01*
X1315186Y941529D01*
X1317876Y942643D01*
X1320185Y944415D01*
X1321957Y946724D01*
X1323071Y949414D01*
X1323451Y952300D01*
X1323071Y955186D01*
X1321957Y957876D01*
X1320185Y960185D01*
X1317876Y961957D01*
X1315186Y963071D01*
X1312300Y963451D01*
D02*
G37*
G36*
X1028012Y921614D02*
X1013988D01*
X1012514Y921321D01*
X1011264Y920486D01*
X1010429Y919236D01*
X1010136Y917763D01*
Y902237D01*
X1010429Y900764D01*
X1011264Y899514D01*
X1012514Y898679D01*
X1013988Y898386D01*
X1028012D01*
X1029486Y898679D01*
X1030736Y899514D01*
X1031571Y900764D01*
X1031864Y902237D01*
Y917763D01*
X1031571Y919236D01*
X1030736Y920486D01*
X1029486Y921321D01*
X1028012Y921614D01*
D02*
G37*
G36*
X1387750Y916865D02*
X1381250D01*
X1379473Y916631D01*
X1377818Y915945D01*
X1377497Y915699D01*
X1377025Y915605D01*
X1376198Y915052D01*
X1375645Y914225D01*
X1375645Y914225D01*
Y914225D01*
X1373808Y912920D01*
X1373808Y912920D01*
Y912920D01*
X1372879Y914129D01*
X1371670Y915058D01*
X1370262Y915641D01*
X1368750Y915840D01*
X1362250D01*
X1360739Y915641D01*
X1359330Y915058D01*
X1358121Y914129D01*
X1357193Y912920D01*
X1356609Y911512D01*
X1356410Y910000D01*
Y901500D01*
X1356609Y899988D01*
X1357193Y898580D01*
X1358121Y897371D01*
X1359330Y896442D01*
X1360739Y895859D01*
X1362250Y895660D01*
X1368750D01*
X1370262Y895859D01*
X1371670Y896442D01*
X1372879Y897371D01*
X1375645Y897274D01*
D01*
X1376198Y896448D01*
X1377025Y895895D01*
X1377497Y895801D01*
X1377818Y895555D01*
X1379473Y894869D01*
X1379998Y894800D01*
X1380081Y892262D01*
X1379540Y892154D01*
X1378086Y891183D01*
X1377115Y889729D01*
X1376774Y888015D01*
Y882985D01*
X1377115Y881271D01*
X1378086Y879817D01*
X1379540Y878846D01*
X1381254Y878505D01*
X1390246D01*
X1391181Y877737D01*
Y874728D01*
X1389948Y873495D01*
X1381254D01*
X1379540Y873154D01*
X1378086Y872183D01*
X1377115Y870729D01*
X1376774Y869015D01*
Y863985D01*
X1377115Y862271D01*
X1378086Y860817D01*
X1379540Y859846D01*
X1381254Y859505D01*
X1390246D01*
X1391960Y859846D01*
X1393414Y860817D01*
X1394385Y862271D01*
X1394726Y863985D01*
Y868179D01*
X1397273Y870727D01*
X1398047Y871884D01*
X1398319Y873250D01*
Y891791D01*
X1398679Y892660D01*
X1398888Y894253D01*
X1398679Y895845D01*
X1398064Y897329D01*
X1397086Y898603D01*
X1396222Y899266D01*
X1397039Y901672D01*
X1400561D01*
X1421922Y880311D01*
Y868559D01*
X1421649Y868351D01*
X1420672Y867076D01*
X1420057Y865592D01*
X1419847Y864000D01*
X1420057Y862408D01*
X1420672Y860924D01*
X1421649Y859649D01*
X1422924Y858672D01*
X1424408Y858057D01*
X1426000Y857847D01*
X1427592Y858057D01*
X1429076Y858672D01*
X1430351Y859649D01*
X1431328Y860924D01*
X1431943Y862408D01*
X1432153Y864000D01*
X1431943Y865592D01*
X1431328Y867076D01*
X1430351Y868351D01*
X1430078Y868559D01*
Y882000D01*
X1429768Y883561D01*
X1428884Y884884D01*
X1428884Y884884D01*
X1405134Y908634D01*
X1403811Y909518D01*
X1403552Y909569D01*
X1402250Y909828D01*
X1402250Y909828D01*
X1394615D01*
Y910000D01*
X1394381Y911777D01*
X1393695Y913432D01*
X1392604Y914854D01*
X1391182Y915945D01*
X1389527Y916631D01*
X1387750Y916865D01*
D02*
G37*
G36*
X1578013Y872650D02*
X1563987D01*
X1562117Y872278D01*
X1560532Y871218D01*
X1559472Y869633D01*
X1559100Y867763D01*
Y867117D01*
X1558000Y866153D01*
X1556408Y865943D01*
X1554924Y865328D01*
X1553649Y864351D01*
X1552672Y863076D01*
X1552057Y861592D01*
X1551847Y860000D01*
X1552057Y858408D01*
X1552672Y856924D01*
X1553649Y855649D01*
X1554924Y854672D01*
X1556408Y854057D01*
X1558000Y853847D01*
X1559100Y852883D01*
Y852237D01*
X1559472Y850367D01*
X1560401Y848978D01*
X1559352Y846664D01*
X1557984Y846484D01*
X1556500Y845869D01*
X1555226Y844892D01*
X1554275Y843653D01*
X1551757Y843321D01*
X1551226Y843728D01*
X1549742Y844343D01*
X1548150Y844553D01*
X1546558Y844343D01*
X1545403Y844750D01*
Y844750D01*
X1545193Y846342D01*
X1544578Y847826D01*
X1543601Y849101D01*
X1542326Y850078D01*
X1540842Y850693D01*
X1539250Y850903D01*
X1537658Y850693D01*
X1536174Y850078D01*
X1534899Y849101D01*
X1533922Y847826D01*
X1533307Y846342D01*
X1533097Y844750D01*
X1533307Y843158D01*
X1533357Y843037D01*
X1531342Y841491D01*
X1530576Y842078D01*
X1529092Y842693D01*
X1527500Y842903D01*
X1525908Y842693D01*
X1524424Y842078D01*
X1523149Y841101D01*
X1522172Y839826D01*
D01*
X1520078Y840576D01*
X1519101Y841851D01*
X1517826Y842828D01*
X1516342Y843443D01*
X1514750Y843653D01*
X1513158Y843443D01*
X1511674Y842828D01*
X1510399Y841851D01*
X1508924Y842141D01*
X1507650Y843119D01*
X1506166Y843734D01*
X1504573Y843943D01*
X1502981Y843734D01*
X1501497Y843119D01*
X1500223Y842141D01*
X1500191Y842101D01*
X1499850D01*
X1498576Y843078D01*
X1497092Y843693D01*
X1495500Y843903D01*
X1493908Y843693D01*
X1492424Y843078D01*
X1491149Y842101D01*
X1490172Y840826D01*
X1489557Y839342D01*
X1489347Y837750D01*
X1489557Y836158D01*
X1489791Y835593D01*
X1488594Y833353D01*
X1486881Y833012D01*
X1485297Y831953D01*
X1484238Y830369D01*
X1483866Y828500D01*
Y812000D01*
X1484238Y810131D01*
X1485297Y808547D01*
X1486881Y807488D01*
X1488750Y807116D01*
X1490619Y807488D01*
X1491140Y807836D01*
X1492322Y806928D01*
X1493734Y806343D01*
X1495250Y806144D01*
X1496766Y806343D01*
X1498178Y806928D01*
X1498500Y807176D01*
X1498822Y806928D01*
X1500234Y806343D01*
X1501750Y806144D01*
X1503266Y806343D01*
X1504678Y806928D01*
X1505000Y807176D01*
X1505322Y806928D01*
X1506734Y806343D01*
X1508250Y806144D01*
X1509766Y806343D01*
X1511178Y806928D01*
X1511500Y807176D01*
X1511822Y806928D01*
X1513234Y806343D01*
X1514750Y806144D01*
X1515262Y806211D01*
X1517172Y804537D01*
Y802500D01*
X1517172Y802500D01*
X1517431Y801198D01*
X1517482Y800939D01*
X1518366Y799616D01*
X1518366Y799616D01*
X1518366Y799616D01*
X1518366Y799616D01*
Y799616D01*
X1520892Y797090D01*
X1520847Y796750D01*
X1521057Y795158D01*
X1521672Y793674D01*
X1522649Y792399D01*
X1523924Y791422D01*
X1525408Y790807D01*
X1527000Y790597D01*
X1528592Y790807D01*
X1530076Y791422D01*
X1531351Y792399D01*
X1532328Y793674D01*
X1532943Y795158D01*
X1533153Y796750D01*
X1532943Y798342D01*
X1532328Y799826D01*
X1531351Y801101D01*
X1530076Y802078D01*
X1528592Y802693D01*
X1527242Y802871D01*
X1526677Y803929D01*
X1526621Y805670D01*
X1527238Y806211D01*
X1527750Y806144D01*
X1529266Y806343D01*
X1530678Y806928D01*
X1531000Y807176D01*
X1531322Y806928D01*
X1532734Y806343D01*
X1534250Y806144D01*
X1535766Y806343D01*
X1537178Y806928D01*
X1537500Y807176D01*
X1537822Y806928D01*
X1539234Y806343D01*
X1540750Y806144D01*
X1541772Y806278D01*
X1542590Y805561D01*
X1543681Y802925D01*
Y802750D01*
X1543953Y801384D01*
X1544727Y800227D01*
X1548726Y796227D01*
X1548597Y795250D01*
X1548807Y793658D01*
X1549422Y792174D01*
X1550399Y790899D01*
X1551674Y789922D01*
X1553158Y789307D01*
X1554750Y789097D01*
X1556342Y789307D01*
X1557826Y789922D01*
X1559101Y790899D01*
X1560078Y792174D01*
X1560693Y793658D01*
X1560903Y795250D01*
X1560693Y796842D01*
X1560078Y798326D01*
X1559101Y799601D01*
X1557826Y800578D01*
X1556342Y801193D01*
X1554750Y801403D01*
X1553773Y801274D01*
X1551932Y803114D01*
X1552015Y805653D01*
X1552728Y806278D01*
X1553750Y806144D01*
X1555266Y806343D01*
X1556678Y806928D01*
X1557000Y807176D01*
X1557322Y806928D01*
X1558734Y806343D01*
X1560250Y806144D01*
X1561766Y806343D01*
X1563178Y806928D01*
X1563500Y807176D01*
X1563822Y806928D01*
X1565234Y806343D01*
X1566750Y806144D01*
X1568266Y806343D01*
X1569678Y806928D01*
X1570860Y807836D01*
X1571381Y807488D01*
X1573250Y807116D01*
X1575119Y807488D01*
X1576703Y808547D01*
X1577762Y810131D01*
X1578134Y812000D01*
Y828500D01*
X1577762Y830369D01*
X1576703Y831953D01*
X1575119Y833012D01*
X1573250Y833384D01*
X1572792Y833293D01*
X1570828Y834904D01*
Y847350D01*
X1578013D01*
X1579883Y847722D01*
X1581468Y848782D01*
X1582528Y850367D01*
X1582900Y852237D01*
Y867763D01*
X1582528Y869633D01*
X1581468Y871218D01*
X1579883Y872278D01*
X1578013Y872650D01*
D02*
G37*
G36*
X1108290Y842290D02*
X1079210D01*
Y827210D01*
X1108290D01*
Y842290D01*
D02*
G37*
G36*
X1606013Y871614D02*
X1591987D01*
X1590514Y871321D01*
X1589264Y870486D01*
X1588429Y869236D01*
X1588136Y867763D01*
Y852237D01*
X1588429Y850764D01*
X1589264Y849514D01*
X1590514Y848679D01*
X1591987Y848386D01*
X1606013D01*
X1607486Y848679D01*
X1608736Y849514D01*
X1609571Y850764D01*
X1609864Y852237D01*
Y867763D01*
X1609571Y869236D01*
X1608736Y870486D01*
X1607486Y871321D01*
X1606013Y871614D01*
D02*
G37*
G36*
X1187250Y887403D02*
X1185658Y887193D01*
X1184174Y886578D01*
X1182899Y885601D01*
X1182299Y884819D01*
X1177201D01*
X1176601Y885601D01*
X1175326Y886578D01*
X1173842Y887193D01*
X1172250Y887403D01*
X1170658Y887193D01*
X1169174Y886578D01*
X1167899Y885601D01*
X1166922Y884326D01*
X1166307Y882842D01*
X1166097Y881250D01*
X1166307Y879658D01*
X1166922Y878174D01*
X1167899Y876899D01*
X1169174Y875922D01*
X1170658Y875307D01*
X1172250Y875097D01*
X1173842Y875307D01*
X1175326Y875922D01*
X1176601Y876899D01*
X1177201Y877681D01*
X1182299D01*
X1182899Y876899D01*
X1184174Y875922D01*
X1185658Y875307D01*
X1187250Y875097D01*
X1188842Y875307D01*
X1190326Y875922D01*
X1191601Y876899D01*
X1192578Y878174D01*
X1193193Y879658D01*
X1193403Y881250D01*
X1193193Y882842D01*
X1192578Y884326D01*
X1191601Y885601D01*
X1190326Y886578D01*
X1188842Y887193D01*
X1187250Y887403D01*
D02*
G37*
G36*
X1135263Y902364D02*
X1119737D01*
X1118264Y902071D01*
X1117014Y901236D01*
X1116179Y899986D01*
X1115886Y898512D01*
Y884488D01*
X1116179Y883014D01*
X1117014Y881764D01*
X1118264Y880929D01*
X1119737Y880636D01*
X1135263D01*
X1136736Y880929D01*
X1137986Y881764D01*
X1138821Y883014D01*
X1139114Y884488D01*
Y898512D01*
X1138821Y899986D01*
X1137986Y901236D01*
X1136736Y902071D01*
X1135263Y902364D01*
D02*
G37*
G36*
X1337700Y963451D02*
X1334814Y963071D01*
X1332124Y961957D01*
X1329815Y960185D01*
X1328043Y957876D01*
X1326929Y955186D01*
X1326549Y952300D01*
X1326929Y949414D01*
X1328043Y946724D01*
X1329815Y944415D01*
X1332124Y942643D01*
X1334814Y941529D01*
X1337700Y941149D01*
X1340586Y941529D01*
X1343276Y942643D01*
X1345585Y944415D01*
X1347357Y946724D01*
X1348471Y949414D01*
X1348851Y952300D01*
X1348471Y955186D01*
X1347357Y957876D01*
X1345585Y960185D01*
X1343276Y961957D01*
X1340586Y963071D01*
X1337700Y963451D01*
D02*
G37*
G36*
X1464700Y988851D02*
X1461814Y988471D01*
X1459124Y987357D01*
X1456815Y985585D01*
X1455043Y983276D01*
X1453929Y980586D01*
X1453549Y977700D01*
X1453929Y974814D01*
X1455043Y972124D01*
X1456815Y969815D01*
X1459124Y968043D01*
X1461814Y966929D01*
X1464700Y966549D01*
X1467586Y966929D01*
X1470276Y968043D01*
X1472585Y969815D01*
X1474357Y972124D01*
X1475471Y974814D01*
X1475851Y977700D01*
X1475471Y980586D01*
X1474357Y983276D01*
X1472585Y985585D01*
X1470276Y987357D01*
X1467586Y988471D01*
X1464700Y988851D01*
D02*
G37*
G36*
X1515500D02*
X1512614Y988471D01*
X1509924Y987357D01*
X1507615Y985585D01*
X1505843Y983276D01*
X1504729Y980586D01*
X1504349Y977700D01*
X1504729Y974814D01*
X1505843Y972124D01*
X1507615Y969815D01*
X1509924Y968043D01*
X1512614Y966929D01*
X1515500Y966549D01*
X1518386Y966929D01*
X1521076Y968043D01*
X1523385Y969815D01*
X1525157Y972124D01*
X1526271Y974814D01*
X1526651Y977700D01*
X1526271Y980586D01*
X1525157Y983276D01*
X1523385Y985585D01*
X1521076Y987357D01*
X1518386Y988471D01*
X1515500Y988851D01*
D02*
G37*
G36*
X1388500D02*
X1385614Y988471D01*
X1382924Y987357D01*
X1380615Y985585D01*
X1378843Y983276D01*
X1377729Y980586D01*
X1377349Y977700D01*
X1377729Y974814D01*
X1378843Y972124D01*
X1380615Y969815D01*
X1382924Y968043D01*
X1385614Y966929D01*
X1388500Y966549D01*
X1391386Y966929D01*
X1394076Y968043D01*
X1396385Y969815D01*
X1398157Y972124D01*
X1399271Y974814D01*
X1399651Y977700D01*
X1399271Y980586D01*
X1398157Y983276D01*
X1396385Y985585D01*
X1394076Y987357D01*
X1391386Y988471D01*
X1388500Y988851D01*
D02*
G37*
G36*
X1413900D02*
X1411014Y988471D01*
X1408324Y987357D01*
X1406015Y985585D01*
X1404243Y983276D01*
X1403129Y980586D01*
X1402749Y977700D01*
X1403129Y974814D01*
X1404243Y972124D01*
X1406015Y969815D01*
X1408324Y968043D01*
X1411014Y966929D01*
X1413900Y966549D01*
X1416786Y966929D01*
X1419476Y968043D01*
X1421785Y969815D01*
X1423557Y972124D01*
X1424671Y974814D01*
X1425051Y977700D01*
X1424671Y980586D01*
X1423557Y983276D01*
X1421785Y985585D01*
X1419476Y987357D01*
X1416786Y988471D01*
X1413900Y988851D01*
D02*
G37*
G36*
X1540900D02*
X1538014Y988471D01*
X1535324Y987357D01*
X1533015Y985585D01*
X1531243Y983276D01*
X1530129Y980586D01*
X1529749Y977700D01*
X1530129Y974814D01*
X1531243Y972124D01*
X1533015Y969815D01*
X1535324Y968043D01*
X1538014Y966929D01*
X1540900Y966549D01*
X1543786Y966929D01*
X1546476Y968043D01*
X1548785Y969815D01*
X1550557Y972124D01*
X1551671Y974814D01*
X1552051Y977700D01*
X1551671Y980586D01*
X1550557Y983276D01*
X1548785Y985585D01*
X1546476Y987357D01*
X1543786Y988471D01*
X1540900Y988851D01*
D02*
G37*
G36*
X1439300Y987827D02*
X1436679Y987482D01*
X1434237Y986470D01*
X1432139Y984861D01*
X1430530Y982763D01*
X1429518Y980321D01*
X1429173Y977700D01*
X1429518Y975079D01*
X1430530Y972637D01*
X1432139Y970539D01*
X1434237Y968930D01*
X1436679Y967918D01*
X1439300Y967573D01*
X1441921Y967918D01*
X1444363Y968930D01*
X1446461Y970539D01*
X1448070Y972637D01*
X1449082Y975079D01*
X1449427Y977700D01*
X1449082Y980321D01*
X1448070Y982763D01*
X1446461Y984861D01*
X1444363Y986470D01*
X1441921Y987482D01*
X1439300Y987827D01*
D02*
G37*
G36*
X1490100D02*
X1487479Y987482D01*
X1485037Y986470D01*
X1482939Y984861D01*
X1481330Y982763D01*
X1480318Y980321D01*
X1479973Y977700D01*
X1480318Y975079D01*
X1481330Y972637D01*
X1482939Y970539D01*
X1485037Y968930D01*
X1487479Y967918D01*
X1490100Y967573D01*
X1492721Y967918D01*
X1495163Y968930D01*
X1497261Y970539D01*
X1498870Y972637D01*
X1499882Y975079D01*
X1500227Y977700D01*
X1499882Y980321D01*
X1498870Y982763D01*
X1497261Y984861D01*
X1495163Y986470D01*
X1492721Y987482D01*
X1490100Y987827D01*
D02*
G37*
G36*
X1566300Y988851D02*
X1563414Y988471D01*
X1560724Y987357D01*
X1558415Y985585D01*
X1556643Y983276D01*
X1555529Y980586D01*
X1555149Y977700D01*
X1555529Y974814D01*
X1556643Y972124D01*
X1558415Y969815D01*
X1560724Y968043D01*
X1563414Y966929D01*
X1566300Y966549D01*
X1569186Y966929D01*
X1571876Y968043D01*
X1574185Y969815D01*
X1575957Y972124D01*
X1577071Y974814D01*
X1577451Y977700D01*
X1577071Y980586D01*
X1575957Y983276D01*
X1574185Y985585D01*
X1571876Y987357D01*
X1569186Y988471D01*
X1566300Y988851D01*
D02*
G37*
G36*
X1312300Y987827D02*
X1309679Y987482D01*
X1307237Y986470D01*
X1305139Y984861D01*
X1303530Y982763D01*
X1302518Y980321D01*
X1302173Y977700D01*
X1302518Y975079D01*
X1303530Y972637D01*
X1305139Y970539D01*
X1307237Y968930D01*
X1309679Y967918D01*
X1312300Y967573D01*
X1314921Y967918D01*
X1317363Y968930D01*
X1319461Y970539D01*
X1321070Y972637D01*
X1322082Y975079D01*
X1322427Y977700D01*
X1322082Y980321D01*
X1321070Y982763D01*
X1319461Y984861D01*
X1317363Y986470D01*
X1314921Y987482D01*
X1312300Y987827D01*
D02*
G37*
G36*
X1363100Y988851D02*
X1360214Y988471D01*
X1357524Y987357D01*
X1355215Y985585D01*
X1353443Y983276D01*
X1352329Y980586D01*
X1351949Y977700D01*
X1352329Y974814D01*
X1353443Y972124D01*
X1355215Y969815D01*
X1357524Y968043D01*
X1360214Y966929D01*
X1363100Y966549D01*
X1365986Y966929D01*
X1368676Y968043D01*
X1370985Y969815D01*
X1372757Y972124D01*
X1373871Y974814D01*
X1374251Y977700D01*
X1373871Y980586D01*
X1372757Y983276D01*
X1370985Y985585D01*
X1368676Y987357D01*
X1365986Y988471D01*
X1363100Y988851D01*
D02*
G37*
G36*
X1464700Y963451D02*
X1461814Y963071D01*
X1459124Y961957D01*
X1456815Y960185D01*
X1455043Y957876D01*
X1453929Y955186D01*
X1453549Y952300D01*
X1453929Y949414D01*
X1455043Y946724D01*
X1456815Y944415D01*
X1459124Y942643D01*
X1461814Y941529D01*
X1464700Y941149D01*
X1467586Y941529D01*
X1470276Y942643D01*
X1472585Y944415D01*
X1474357Y946724D01*
X1475471Y949414D01*
X1475851Y952300D01*
X1475471Y955186D01*
X1474357Y957876D01*
X1472585Y960185D01*
X1470276Y961957D01*
X1467586Y963071D01*
X1464700Y963451D01*
D02*
G37*
G36*
X1490100D02*
X1487214Y963071D01*
X1484524Y961957D01*
X1482215Y960185D01*
X1480443Y957876D01*
X1479329Y955186D01*
X1478949Y952300D01*
X1479329Y949414D01*
X1480443Y946724D01*
X1482215Y944415D01*
X1484524Y942643D01*
X1487214Y941529D01*
X1490100Y941149D01*
X1492986Y941529D01*
X1495676Y942643D01*
X1497985Y944415D01*
X1499757Y946724D01*
X1500871Y949414D01*
X1501251Y952300D01*
X1500871Y955186D01*
X1499757Y957876D01*
X1497985Y960185D01*
X1495676Y961957D01*
X1492986Y963071D01*
X1490100Y963451D01*
D02*
G37*
G36*
X1363100D02*
X1360214Y963071D01*
X1357524Y961957D01*
X1355215Y960185D01*
X1353443Y957876D01*
X1352329Y955186D01*
X1351949Y952300D01*
X1352329Y949414D01*
X1353443Y946724D01*
X1355215Y944415D01*
X1357524Y942643D01*
X1360214Y941529D01*
X1363100Y941149D01*
X1365986Y941529D01*
X1368676Y942643D01*
X1370985Y944415D01*
X1372757Y946724D01*
X1373871Y949414D01*
X1374251Y952300D01*
X1373871Y955186D01*
X1372757Y957876D01*
X1370985Y960185D01*
X1368676Y961957D01*
X1365986Y963071D01*
X1363100Y963451D01*
D02*
G37*
G36*
X1413900D02*
X1411014Y963071D01*
X1408324Y961957D01*
X1406015Y960185D01*
X1404243Y957876D01*
X1403129Y955186D01*
X1402749Y952300D01*
X1403129Y949414D01*
X1404243Y946724D01*
X1406015Y944415D01*
X1408324Y942643D01*
X1411014Y941529D01*
X1413900Y941149D01*
X1416786Y941529D01*
X1419476Y942643D01*
X1421785Y944415D01*
X1423557Y946724D01*
X1424671Y949414D01*
X1425051Y952300D01*
X1424671Y955186D01*
X1423557Y957876D01*
X1421785Y960185D01*
X1419476Y961957D01*
X1416786Y963071D01*
X1413900Y963451D01*
D02*
G37*
G36*
X1515500D02*
X1512614Y963071D01*
X1509924Y961957D01*
X1507615Y960185D01*
X1505843Y957876D01*
X1504729Y955186D01*
X1504349Y952300D01*
X1504729Y949414D01*
X1505843Y946724D01*
X1507615Y944415D01*
X1509924Y942643D01*
X1512614Y941529D01*
X1515500Y941149D01*
X1518386Y941529D01*
X1521076Y942643D01*
X1523385Y944415D01*
X1525157Y946724D01*
X1526271Y949414D01*
X1526651Y952300D01*
X1526271Y955186D01*
X1525157Y957876D01*
X1523385Y960185D01*
X1521076Y961957D01*
X1518386Y963071D01*
X1515500Y963451D01*
D02*
G37*
G36*
X1566300Y962427D02*
X1563679Y962082D01*
X1561237Y961070D01*
X1559139Y959461D01*
X1557530Y957363D01*
X1556518Y954921D01*
X1556173Y952300D01*
X1556518Y949679D01*
X1557530Y947237D01*
X1559139Y945139D01*
X1561237Y943530D01*
X1563679Y942518D01*
X1566300Y942173D01*
X1568921Y942518D01*
X1571363Y943530D01*
X1573461Y945139D01*
X1575070Y947237D01*
X1576082Y949679D01*
X1576427Y952300D01*
X1576082Y954921D01*
X1575070Y957363D01*
X1573461Y959461D01*
X1571363Y961070D01*
X1568921Y962082D01*
X1566300Y962427D01*
D02*
G37*
G36*
X1337700Y988851D02*
X1334814Y988471D01*
X1332124Y987357D01*
X1329815Y985585D01*
X1328043Y983276D01*
X1326929Y980586D01*
X1326549Y977700D01*
X1326929Y974814D01*
X1328043Y972124D01*
X1329815Y969815D01*
X1332124Y968043D01*
X1334814Y966929D01*
X1337700Y966549D01*
X1340586Y966929D01*
X1343276Y968043D01*
X1345585Y969815D01*
X1347357Y972124D01*
X1348471Y974814D01*
X1348851Y977700D01*
X1348471Y980586D01*
X1347357Y983276D01*
X1345585Y985585D01*
X1343276Y987357D01*
X1340586Y988471D01*
X1337700Y988851D01*
D02*
G37*
G36*
X1540900Y963451D02*
X1538014Y963071D01*
X1535324Y961957D01*
X1533015Y960185D01*
X1531243Y957876D01*
X1530129Y955186D01*
X1529749Y952300D01*
X1530129Y949414D01*
X1531243Y946724D01*
X1533015Y944415D01*
X1535324Y942643D01*
X1538014Y941529D01*
X1540900Y941149D01*
X1543786Y941529D01*
X1546476Y942643D01*
X1548785Y944415D01*
X1550557Y946724D01*
X1551671Y949414D01*
X1552051Y952300D01*
X1551671Y955186D01*
X1550557Y957876D01*
X1548785Y960185D01*
X1546476Y961957D01*
X1543786Y963071D01*
X1540900Y963451D01*
D02*
G37*
G36*
X1388500Y962427D02*
X1385879Y962082D01*
X1383437Y961070D01*
X1381339Y959461D01*
X1379730Y957363D01*
X1378718Y954921D01*
X1378373Y952300D01*
X1378718Y949679D01*
X1379730Y947237D01*
X1381339Y945139D01*
X1383437Y943530D01*
X1385879Y942518D01*
X1388500Y942173D01*
X1391121Y942518D01*
X1393563Y943530D01*
X1395661Y945139D01*
X1397270Y947237D01*
X1398282Y949679D01*
X1398627Y952300D01*
X1398282Y954921D01*
X1397270Y957363D01*
X1395661Y959461D01*
X1393563Y961070D01*
X1391121Y962082D01*
X1388500Y962427D01*
D02*
G37*
%LPD*%
D10*
X1444250Y764500D02*
D03*
Y783500D02*
D03*
X1295000Y827000D02*
D03*
Y808000D02*
D03*
X1245000Y885500D02*
D03*
Y904500D02*
D03*
X1300000Y718000D02*
D03*
Y737000D02*
D03*
X1597500Y797000D02*
D03*
Y778000D02*
D03*
X1443750Y723750D02*
D03*
Y742750D02*
D03*
X1323000Y718000D02*
D03*
Y737000D02*
D03*
X1466750Y742000D02*
D03*
Y723000D02*
D03*
D11*
X1318000Y801500D02*
D03*
X1337000D02*
D03*
X1347750Y925500D02*
D03*
X1328750D02*
D03*
X1337000Y823000D02*
D03*
X1318000D02*
D03*
X1306750Y925250D02*
D03*
X1287750D02*
D03*
X1094500Y910000D02*
D03*
X1075500D02*
D03*
X1365500Y905750D02*
D03*
X1384500D02*
D03*
X1257500Y715000D02*
D03*
X1276500D02*
D03*
X1215000D02*
D03*
X1234000D02*
D03*
X1558000Y715000D02*
D03*
X1577000D02*
D03*
X1518000D02*
D03*
X1537000D02*
D03*
D12*
X1264900Y853000D02*
D03*
X1277600D02*
D03*
X1290300D02*
D03*
X1303000D02*
D03*
X1315700D02*
D03*
X1328400D02*
D03*
X1341100D02*
D03*
X1264900Y901000D02*
D03*
X1277600D02*
D03*
X1290300D02*
D03*
X1303000D02*
D03*
X1315700D02*
D03*
X1328400D02*
D03*
X1341100D02*
D03*
D13*
X1187000Y745250D02*
D03*
X1193500D02*
D03*
X1200000D02*
D03*
X1206500D02*
D03*
X1213000D02*
D03*
X1219500D02*
D03*
X1226000D02*
D03*
X1232500D02*
D03*
X1239000D02*
D03*
X1245500D02*
D03*
X1252000D02*
D03*
X1258500D02*
D03*
X1265000D02*
D03*
X1271500D02*
D03*
X1187000Y814250D02*
D03*
X1193500D02*
D03*
X1200000D02*
D03*
X1206500D02*
D03*
X1213000D02*
D03*
X1219500D02*
D03*
X1226000D02*
D03*
X1232500D02*
D03*
X1239000D02*
D03*
X1245500D02*
D03*
X1252000D02*
D03*
X1258500D02*
D03*
X1265000D02*
D03*
X1271500D02*
D03*
X1488750Y751250D02*
D03*
X1495250D02*
D03*
X1501750D02*
D03*
X1508250D02*
D03*
X1514750D02*
D03*
X1521250D02*
D03*
X1527750D02*
D03*
X1534250D02*
D03*
X1540750D02*
D03*
X1547250D02*
D03*
X1553750D02*
D03*
X1560250D02*
D03*
X1566750D02*
D03*
X1573250D02*
D03*
X1488750Y820250D02*
D03*
X1495250D02*
D03*
X1501750D02*
D03*
X1508250D02*
D03*
X1514750D02*
D03*
X1521250D02*
D03*
X1527750D02*
D03*
X1534250D02*
D03*
X1540750D02*
D03*
X1547250D02*
D03*
X1553750D02*
D03*
X1560250D02*
D03*
X1566750D02*
D03*
X1573250D02*
D03*
D14*
X1021000Y910000D02*
D03*
X1049000D02*
D03*
X1599000Y860000D02*
D03*
X1571000D02*
D03*
D15*
X1020000Y786000D02*
D03*
Y814000D02*
D03*
X1127500Y891500D02*
D03*
Y863500D02*
D03*
D16*
X1093750Y834750D02*
D03*
Y857750D02*
D03*
Y880750D02*
D03*
D17*
X1035750Y857750D02*
D03*
D18*
X1361750Y885500D02*
D03*
Y876000D02*
D03*
Y866500D02*
D03*
X1385750D02*
D03*
Y885500D02*
D03*
D19*
X1134500Y977700D02*
Y991000D01*
X1324000Y964500D02*
Y966000D01*
X1312300Y977700D02*
X1324000Y966000D01*
X1426000D02*
X1437700Y977700D01*
X1439300D01*
X1477500Y964500D02*
X1490100Y977100D01*
Y977700D01*
X1566300Y935800D02*
Y952300D01*
X1124500Y846000D02*
X1137000D01*
X1113250Y834750D02*
X1124500Y846000D01*
X1093750Y834750D02*
X1113250D01*
X1071250D02*
X1093750D01*
X1264250Y728250D02*
X1276500Y716000D01*
X1297000Y715000D02*
X1300000Y718000D01*
X1276500Y715000D02*
X1297000D01*
X1258000Y728250D02*
X1264250D01*
X1252000Y734250D02*
X1258000Y728250D01*
X1252000Y734250D02*
Y745250D01*
X1199250Y710250D02*
X1204000Y715000D01*
X1215000D01*
X1375250Y871750D02*
Y875000D01*
X1370000Y866500D02*
X1375250Y871750D01*
X1361750Y866500D02*
X1370000D01*
X1619750Y797000D02*
X1620000Y797250D01*
X1597500Y797000D02*
X1619750D01*
X1599000Y844500D02*
Y860000D01*
X1370000Y800750D02*
X1370100Y800850D01*
Y827750D01*
X1187000Y814250D02*
Y832000D01*
X1022500Y786000D02*
X1032750Y775750D01*
X1020000Y786000D02*
X1022500D01*
X1166500Y766344D02*
X1167057Y765787D01*
X1594000Y800500D02*
X1597500Y797000D01*
X1581250Y800500D02*
X1594000D01*
X1573250Y808500D02*
X1581250Y800500D01*
X1573250Y808500D02*
Y820250D01*
X1527500Y836750D02*
X1527750Y836500D01*
Y820250D02*
Y836500D01*
X1521250Y802500D02*
X1527000Y796750D01*
X1521250Y802500D02*
Y820250D01*
X1480750Y831500D02*
X1485750D01*
X1488750Y828500D01*
Y820250D02*
Y828500D01*
X1553750Y741250D02*
X1577000Y718000D01*
X1553750Y741250D02*
Y751250D01*
X1482750Y723000D02*
X1492500Y732750D01*
X1466750Y723000D02*
X1482750D01*
X1466000Y723750D02*
X1466750Y723000D01*
X1443750Y723750D02*
X1466000D01*
X1324500Y718000D02*
X1335250Y707250D01*
X1323000Y718000D02*
X1324500D01*
X1300000D02*
X1323000D01*
X1219500Y728500D02*
Y745250D01*
Y719500D02*
Y728500D01*
X1215750D02*
X1219500D01*
X1213000Y731250D02*
X1215750Y728500D01*
X1213000Y731250D02*
Y745250D01*
X1443000Y849850D02*
Y901250D01*
X1439300Y904950D02*
X1443000Y901250D01*
X1439300Y904950D02*
Y952300D01*
X1506000Y715000D02*
X1518000D01*
X1506000Y713000D02*
Y715000D01*
X1516250Y733500D02*
X1521250Y738500D01*
Y751250D01*
X1514750Y735000D02*
X1516250Y733500D01*
X1514750Y735000D02*
Y751250D01*
X1577000Y715000D02*
Y718000D01*
X1454750Y753750D02*
X1459250Y758250D01*
X1488000D01*
X1488750Y757500D01*
Y751250D02*
Y757500D01*
X1404500Y782000D02*
Y803250D01*
Y779150D02*
Y782000D01*
X1406000Y783500D01*
X1444250D01*
X1404500Y753750D02*
Y779150D01*
X1395500Y812250D02*
Y827750D01*
Y812250D02*
X1404500Y803250D01*
X1501750Y739500D02*
Y751250D01*
X1492500Y732750D02*
X1495000D01*
X1495250Y740000D02*
Y751250D01*
X1498750Y736500D02*
X1501750Y739500D01*
X1496500Y734250D02*
Y738750D01*
X1495250Y740000D02*
X1496500Y738750D01*
X1498750Y736500D01*
X1495000Y732750D02*
X1496500Y734250D01*
X1498750Y736500D01*
X1194750Y728250D02*
X1197000Y730500D01*
X1193250Y726750D02*
X1194750Y728250D01*
Y732750D02*
X1197000Y730500D01*
X1193500Y734000D02*
X1194750Y732750D01*
Y728250D02*
Y732750D01*
X1197000Y730500D02*
X1200000Y733500D01*
X1193500Y734000D02*
Y745250D01*
X1190750Y726750D02*
X1193250D01*
X1200000Y733500D02*
Y745250D01*
X1232750Y716250D02*
Y729000D01*
X1257500Y715000D02*
Y716500D01*
X1245250Y728750D02*
X1257500Y716500D01*
X1245250Y728750D02*
X1245500Y729000D01*
Y745250D01*
X1232500Y729250D02*
X1232750Y729000D01*
X1232500Y729250D02*
Y745250D01*
X1225750Y760750D02*
X1226000Y760500D01*
Y745250D02*
Y760500D01*
X1228500Y888000D02*
Y933250D01*
X1234500Y939250D01*
X1347750D01*
Y925500D02*
Y939250D01*
X1365500Y920000D02*
X1388500Y943000D01*
Y952300D01*
X1006000Y883500D02*
X1017750Y895250D01*
X1006000Y796750D02*
Y883500D01*
Y796750D02*
X1016750Y786000D01*
X1020000D01*
X1148500Y857500D02*
Y879500D01*
X1137000Y846000D02*
X1148500Y857500D01*
X1055594Y880000D02*
Y882156D01*
X1052250Y885500D02*
X1055594Y882156D01*
X1027500Y885500D02*
X1052250D01*
X1017750Y895250D02*
X1027500Y885500D01*
X1132750Y886250D02*
X1141750D01*
X1148500Y879500D01*
X1055594Y880000D02*
X1055801Y879793D01*
X1017750Y895250D02*
Y902250D01*
X1021000Y905500D01*
Y910000D01*
X1022500Y911500D01*
Y927750D01*
X1573250Y833250D02*
X1577500Y837500D01*
X1573250Y820250D02*
Y833250D01*
X1566750Y855750D02*
X1571000Y860000D01*
X1566750Y820250D02*
Y855750D01*
X1604000Y855000D02*
X1615000D01*
X1599000Y860000D02*
X1604000Y855000D01*
X1420900Y827750D02*
X1443000Y849850D01*
X1426000Y864000D02*
Y882000D01*
X1402250Y905750D02*
X1426000Y882000D01*
X1384500Y905750D02*
X1402250D01*
X1359250Y866500D02*
X1361750D01*
X1354000Y861250D02*
X1359250Y866500D01*
X1344000Y861250D02*
X1354000D01*
X1341100Y858350D02*
X1344000Y861250D01*
X1295000Y797250D02*
X1295250Y797000D01*
X1295000Y797250D02*
Y808000D01*
X1318000Y789250D02*
X1318500Y788750D01*
X1318000Y789250D02*
Y801500D01*
X1306750Y925250D02*
X1307000Y925500D01*
X1328750D01*
X1347750D02*
X1359750D01*
X1365500Y905750D02*
Y920000D01*
X1384500Y905750D02*
X1385750Y904500D01*
Y885500D02*
Y904500D01*
X1341100Y891900D02*
Y901000D01*
Y891900D02*
X1347500Y885500D01*
X1361750D01*
X1341100Y853000D02*
Y858350D01*
X1319250Y882750D02*
X1326000Y876000D01*
X1281750Y882750D02*
X1319250D01*
X1277600Y886900D02*
X1281750Y882750D01*
X1326000Y876000D02*
X1328400Y873600D01*
X1326000Y876000D02*
X1330800D01*
X1328400Y873600D02*
X1330800Y876000D01*
X1361750D01*
X1328400Y853000D02*
Y873600D01*
X1277600Y886900D02*
Y901000D01*
Y845750D02*
X1290000D01*
X1277600Y837400D02*
Y845750D01*
Y837400D02*
X1282000Y833000D01*
X1316000Y909000D02*
X1328000D01*
X1303000Y901000D02*
Y921500D01*
X1290300Y901000D02*
Y922700D01*
X1206500Y871750D02*
X1221250Y857000D01*
X1206500Y871750D02*
Y888250D01*
X1228500Y888000D02*
X1231000Y885500D01*
X1245000D01*
X1288750Y814250D02*
X1295000Y808000D01*
X1271500Y814250D02*
X1288750D01*
X1256700Y901000D02*
X1264900D01*
X1248500D02*
X1256700D01*
X1251750Y864500D02*
X1256700Y869450D01*
Y901000D01*
X1242000Y904500D02*
X1245000D01*
X1248500Y901000D01*
D20*
X1270250Y765500D02*
X1273250Y768500D01*
X1241750Y765500D02*
X1270250D01*
X1239000Y768250D02*
X1241750Y765500D01*
X1210450Y759950D02*
X1214238D01*
X1206500Y756000D02*
X1210450Y759950D01*
X1222788Y768500D02*
X1239250D01*
X1214238Y759950D02*
X1222788Y768500D01*
X1558000Y860000D02*
Y860000D01*
X1571000D01*
X1074064Y911436D02*
Y935936D01*
X1070282Y939718D02*
X1074064Y935936D01*
X1070282Y939718D02*
Y957982D01*
X1239000Y745250D02*
Y768250D01*
X1342650Y719650D02*
X1343500Y720500D01*
X1343750Y720750D02*
X1354250Y710250D01*
X1292750Y748000D02*
X1294250Y749500D01*
X1336750D01*
X1342650Y743600D01*
Y719650D02*
Y743600D01*
X1342500Y719500D02*
X1342650Y719650D01*
X1512750Y767250D02*
X1540750D01*
X1508250Y762750D02*
X1512750Y767250D01*
X1508250Y751250D02*
Y762750D01*
X1573250Y767250D02*
X1586750D01*
X1540750D02*
X1559000D01*
Y768500D01*
X1540750Y751250D02*
Y767250D01*
X1573250D02*
X1573250Y767250D01*
Y751250D02*
Y767250D01*
X1586750Y767250D02*
X1597500Y778000D01*
X1485750Y710250D02*
X1508250Y732750D01*
X1354250Y710250D02*
X1485750D01*
X1508250Y732750D02*
Y751250D01*
X1206500Y729000D02*
Y756000D01*
X1196250Y718750D02*
X1206500Y729000D01*
X1105250Y718750D02*
X1196250D01*
X1036000Y788000D02*
X1105250Y718750D01*
X1291750Y745250D02*
X1300000Y737000D01*
X1271500Y745250D02*
X1291750D01*
X1036000Y788000D02*
Y798250D01*
X1020250Y814000D02*
X1036000Y798250D01*
X1020000Y814000D02*
X1020250D01*
X1035750Y853000D02*
Y857750D01*
X1020000Y837250D02*
X1035750Y853000D01*
X1020000Y814000D02*
Y837250D01*
X1036000Y857500D02*
X1121500D01*
X1127500Y863500D01*
X1035750Y857750D02*
X1036000Y857500D01*
X1094500Y910000D02*
X1097000Y907500D01*
X1107500D01*
X1123500Y891500D01*
X1127500D01*
X1049000Y910000D02*
X1075500D01*
Y892000D02*
Y910000D01*
Y892000D02*
X1086750Y880750D01*
X1093750D01*
X1070282Y957982D02*
X1083700Y971400D01*
Y977700D01*
X1109100D01*
X1274450Y964750D02*
X1286900Y952300D01*
X1096150Y964750D02*
X1274450D01*
X1083700Y952300D02*
X1096150Y964750D01*
D21*
X1292000Y760000D02*
X1307750Y775750D01*
X1268750Y760000D02*
X1292000D01*
X1207000Y773500D02*
X1214400Y780900D01*
X1208574Y769700D02*
X1215974Y777100D01*
X1219224D01*
X1214400Y780900D02*
X1217650D01*
X1225250Y788500D01*
X1219224Y777100D02*
X1226824Y784700D01*
X1220300Y773300D02*
X1232800D01*
X1211750Y764750D02*
X1220300Y773300D01*
X1200500Y764750D02*
X1211750D01*
X1197500Y761750D02*
X1200500Y764750D01*
X1191750Y761750D02*
X1197500D01*
X1193800Y768000D02*
X1195500Y769700D01*
X1168156Y768000D02*
X1193800D01*
X1192500Y772250D02*
X1193750Y773500D01*
X1152000Y772250D02*
X1192500D01*
X1258273Y783500D02*
X1282063Y807289D01*
X1243000Y783500D02*
X1258273D01*
X1232800Y773300D02*
X1243000Y783500D01*
X1329250Y777750D02*
X1354750D01*
X1328750D02*
X1329250D01*
X1307500Y787500D02*
X1336500Y758500D01*
X1307500Y787500D02*
Y812500D01*
X1336500Y758500D02*
X1357500D01*
X1226438Y866813D02*
X1237688D01*
X1220062Y873187D02*
X1226438Y866813D01*
X1220062Y873187D02*
Y892138D01*
X1237688Y866813D02*
X1246500Y858000D01*
X1252000Y801250D02*
Y814250D01*
X1248750Y798000D02*
X1252000Y801250D01*
X1244624Y798000D02*
X1248750D01*
X1231324Y784700D02*
X1244624Y798000D01*
X1226824Y784700D02*
X1231324D01*
X1195500Y769700D02*
X1208574D01*
X1195850Y800100D02*
X1200000Y804250D01*
X1182732Y800100D02*
X1195850D01*
X1181732Y799100D02*
X1182732Y800100D01*
X1115804Y799100D02*
X1181732D01*
X1197442Y796300D02*
X1206500Y805358D01*
X1184306Y796300D02*
X1197442D01*
X1183306Y795300D02*
X1184306Y796300D01*
X1117378Y795300D02*
X1183306D01*
X1199130Y792500D02*
X1206580Y799950D01*
X1185880Y792500D02*
X1199130D01*
X1184880Y791500D02*
X1185880Y792500D01*
X1118952Y791500D02*
X1184880D01*
X1200704Y788700D02*
X1208154Y796150D01*
X1187454Y788700D02*
X1200704D01*
X1186454Y787700D02*
X1187454Y788700D01*
X1120526Y787700D02*
X1186454D01*
X1202278Y784900D02*
X1209728Y792350D01*
X1189028Y784900D02*
X1202278D01*
X1188028Y783900D02*
X1189028Y784900D01*
X1122100Y783900D02*
X1188028D01*
X1203852Y781100D02*
X1211302Y788550D01*
X1190602Y781100D02*
X1203852D01*
X1189602Y780100D02*
X1190602Y781100D01*
X1129850Y780100D02*
X1189602D01*
X1205426Y777300D02*
X1212876Y784750D01*
X1192176Y777300D02*
X1205426D01*
X1191176Y776300D02*
X1192176Y777300D01*
X1144318Y776300D02*
X1191176D01*
X1193750Y773500D02*
X1207000D01*
X1206580Y799950D02*
X1209450D01*
X1208154Y796150D02*
X1211278D01*
X1209728Y792350D02*
X1212852D01*
X1211302Y788550D02*
X1214426D01*
X1212876Y784750D02*
X1216000D01*
X1187000Y757000D02*
X1191750Y761750D01*
X1225250Y788500D02*
X1229750D01*
X1245500Y804250D01*
X1216000Y784750D02*
X1224000Y792750D01*
X1214426Y788550D02*
X1222426Y796550D01*
X1212852Y792350D02*
X1220852Y800350D01*
X1211278Y796150D02*
X1219500Y804372D01*
X1209450Y799950D02*
X1213000Y803500D01*
Y814250D01*
X1166500Y766344D02*
X1168156Y768000D01*
X1151806Y769788D02*
X1152000Y769981D01*
Y772250D01*
X1245500Y804250D02*
Y814250D01*
X1223600Y800350D02*
X1226000Y802750D01*
X1220852Y800350D02*
X1223600D01*
X1225550Y796550D02*
X1232500Y803500D01*
X1222426Y796550D02*
X1225550D01*
X1228374Y792750D02*
X1239000Y803376D01*
X1224000Y792750D02*
X1228374D01*
X1232500Y803500D02*
Y814250D01*
X1226000Y802750D02*
Y814250D01*
X1219500Y804372D02*
Y814250D01*
X1239000Y803376D02*
Y814250D01*
X1141556Y773538D02*
X1144318Y776300D01*
X1127555Y777288D02*
Y777805D01*
X1129850Y780100D01*
X1111204Y794500D02*
X1115804Y799100D01*
X1066500Y794500D02*
X1111204D01*
X1112778Y790700D02*
X1117378Y795300D01*
X1078450Y790700D02*
X1112778D01*
X1114352Y786900D02*
X1118952Y791500D01*
X1091400Y786900D02*
X1114352D01*
X1115926Y783100D02*
X1120526Y787700D01*
X1106116Y783100D02*
X1115926D01*
X1117500Y776592D02*
Y779300D01*
X1122100Y783900D01*
X1117500Y776592D02*
X1117554Y776538D01*
X1103304Y780288D02*
X1106116Y783100D01*
X1089553Y784288D02*
Y785053D01*
X1091400Y786900D01*
X1076553Y788038D02*
Y788802D01*
X1078450Y790700D01*
X1206500Y805358D02*
Y814250D01*
X1200000Y804250D02*
Y814250D01*
X1187000Y745250D02*
Y757000D01*
X1394750Y873250D02*
Y892239D01*
X1388000Y866500D02*
X1394750Y873250D01*
X1385750Y866500D02*
X1388000D01*
X1392736Y894253D02*
X1394750Y892239D01*
X1547250Y802750D02*
Y820250D01*
Y802750D02*
X1554750Y795250D01*
X1559250Y840215D02*
X1559576Y840541D01*
X1559250Y836500D02*
Y840215D01*
X1553750Y831000D02*
X1559250Y836500D01*
X1553750Y820250D02*
Y831000D01*
X1546650Y838400D02*
X1548150D01*
X1540750Y832500D02*
X1546650Y838400D01*
X1540750Y820250D02*
Y832500D01*
X1534250Y833366D02*
X1539250Y838366D01*
X1534250Y820250D02*
Y833366D01*
X1539250Y838366D02*
Y844750D01*
X1514750Y820250D02*
Y837500D01*
X1504573Y837791D02*
X1508250Y834114D01*
X1504250Y838114D02*
X1504573Y837791D01*
X1508250Y820250D02*
Y834114D01*
X1501750Y820250D02*
Y831500D01*
X1495500Y837750D02*
X1501750Y831500D01*
X1357500Y758500D02*
X1367500Y748500D01*
X1385750D01*
X1335000Y737000D02*
X1335250Y737250D01*
X1323000Y737000D02*
X1335000D01*
Y717500D02*
Y737000D01*
Y717500D02*
X1347050Y705450D01*
X1416500Y766500D02*
X1442250D01*
X1366000D02*
X1393750D01*
X1354750Y777750D02*
X1366000Y766500D01*
X1505500Y772750D02*
X1553500D01*
X1501750Y769000D02*
X1505500Y772750D01*
X1448750Y769000D02*
X1501750D01*
X1553500Y772750D02*
X1555750Y775000D01*
X1562000D01*
X1566750Y770250D01*
Y751250D02*
Y770250D01*
X1444250Y764500D02*
X1448750Y769000D01*
X1520250Y726250D02*
X1527750Y733750D01*
X1509000Y726250D02*
X1520250D01*
X1488200Y705450D02*
X1509000Y726250D01*
X1527750Y733750D02*
Y751250D01*
X1552500Y720500D02*
Y729000D01*
X1547250Y734250D02*
X1552500Y729000D01*
X1547250Y734250D02*
Y751250D01*
X1552500Y720500D02*
X1558000Y715000D01*
X1534250Y717750D02*
Y731750D01*
X1534250Y731750D01*
Y751250D01*
X1323000Y737000D02*
X1328500Y731500D01*
X1347050Y705450D02*
X1488200D01*
X1385750Y748500D02*
X1392500Y741750D01*
X1421500D01*
X1433500Y753750D01*
X1466000Y742750D02*
X1466750Y742000D01*
X1443750Y742750D02*
X1466000D01*
X1443750D02*
X1444250Y743250D01*
Y764500D01*
X1265000Y756250D02*
X1268750Y760000D01*
X1265000Y745250D02*
Y756250D01*
X1315700Y844300D02*
Y853000D01*
Y844300D02*
X1337000Y823000D01*
Y801500D02*
Y823000D01*
X1303000Y839500D02*
Y853000D01*
Y839500D02*
X1318000Y824500D01*
Y823000D02*
Y824500D01*
X1307500Y812500D02*
X1318000Y823000D01*
X1282000Y830000D02*
Y833000D01*
X1277500Y845750D02*
X1277600D01*
Y845850D02*
Y853000D01*
Y845750D02*
Y845850D01*
X1282063Y830063D02*
Y830790D01*
X1282000Y830000D02*
X1282063Y830063D01*
X1287500Y824250D02*
X1290250Y827000D01*
X1278750Y824250D02*
X1287500D01*
X1273250Y829750D02*
X1278750Y824250D01*
X1265000Y829750D02*
X1273250D01*
X1277500Y845750D02*
X1277600Y845850D01*
X1328000Y901400D02*
Y909000D01*
Y901400D02*
X1328400Y901000D01*
X1303000Y921500D02*
X1306750Y925250D01*
X1287750D02*
X1290300Y922700D01*
X1265000Y829750D02*
Y833250D01*
Y814250D02*
Y829750D01*
X1290250Y827000D02*
X1295000D01*
X1252061Y846189D02*
X1265000Y833250D01*
X1252061Y846189D02*
Y851542D01*
X1246500Y858000D02*
X1257250D01*
X1259750Y855500D01*
X1262400D01*
X1264900Y853000D01*
X1159900Y952300D02*
X1220062Y892138D01*
X1172250Y881250D02*
X1187250D01*
D22*
X1444250Y767750D02*
D03*
Y780250D02*
D03*
X1295001Y823750D02*
D03*
Y811250D02*
D03*
X1245001Y888750D02*
D03*
Y901250D02*
D03*
X1300000Y721250D02*
D03*
Y733750D02*
D03*
X1597500Y793750D02*
D03*
Y781250D02*
D03*
X1443751Y726999D02*
D03*
Y739499D02*
D03*
X1323000Y721250D02*
D03*
Y733750D02*
D03*
X1466750Y738750D02*
D03*
Y726250D02*
D03*
D23*
X1321250Y801500D02*
D03*
X1333750D02*
D03*
X1344500Y925500D02*
D03*
X1332000D02*
D03*
X1333750Y823000D02*
D03*
X1321250D02*
D03*
X1303500Y925250D02*
D03*
X1291000D02*
D03*
X1091250Y910000D02*
D03*
X1078750D02*
D03*
X1368750Y905750D02*
D03*
X1381250D02*
D03*
X1260750Y715000D02*
D03*
X1273250D02*
D03*
X1218250D02*
D03*
X1230750D02*
D03*
X1561250D02*
D03*
X1573750D02*
D03*
X1521250D02*
D03*
X1533750D02*
D03*
D24*
X1401750Y827750D02*
D03*
D25*
X1420900Y827750D02*
D03*
D26*
X1395500D02*
D03*
X1370100D02*
D03*
X1404500Y779150D02*
D03*
Y753750D02*
D03*
D27*
Y728350D02*
D03*
D28*
X1413900Y977700D02*
D03*
X1439300D02*
D03*
X1464700D02*
D03*
X1490100D02*
D03*
X1566300D02*
D03*
X1540900D02*
D03*
X1515500D02*
D03*
Y952300D02*
D03*
X1540900D02*
D03*
X1566300D02*
D03*
X1490100D02*
D03*
X1464700D02*
D03*
X1439300D02*
D03*
X1413900D02*
D03*
X1210700D02*
D03*
X1109100D02*
D03*
X1236100D02*
D03*
X1134500D02*
D03*
X1261500D02*
D03*
X1159900D02*
D03*
X1286900D02*
D03*
X1185300D02*
D03*
X1312300D02*
D03*
X1388500D02*
D03*
X1363100D02*
D03*
X1337700D02*
D03*
Y977700D02*
D03*
X1363100D02*
D03*
X1388500D02*
D03*
X1312300D02*
D03*
X1185300D02*
D03*
X1286900D02*
D03*
X1159900D02*
D03*
X1261500D02*
D03*
X1134500D02*
D03*
X1236100D02*
D03*
X1109100D02*
D03*
X1210700D02*
D03*
X1083700D02*
D03*
D29*
Y952300D02*
D03*
D30*
X1387000Y775000D02*
D03*
X1416000Y791250D02*
D03*
X1459000Y777000D02*
D03*
X1422750Y776250D02*
D03*
X1422000Y757000D02*
D03*
X1011500Y831500D02*
D03*
X1028750Y830750D02*
D03*
X1335500Y837750D02*
D03*
X1315000Y875000D02*
D03*
X1231750Y912500D02*
D03*
X1272500Y919750D02*
D03*
X1451750Y943500D02*
D03*
X1426500D02*
D03*
X1432000Y908750D02*
D03*
X1439000Y834500D02*
D03*
X1576750Y734500D02*
D03*
X1073000Y879250D02*
D03*
X1115250Y836750D02*
D03*
X1070750Y834250D02*
D03*
X1051000Y929000D02*
D03*
X1165500Y861750D02*
D03*
X1159750Y728250D02*
D03*
X1298500Y782250D02*
D03*
X1336500Y785250D02*
D03*
X1620500Y824000D02*
D03*
X1639750Y813500D02*
D03*
X1485000Y854750D02*
D03*
X1388000Y803500D02*
D03*
X1132750Y766500D02*
D03*
X1163500Y833500D02*
D03*
X1216250Y909500D02*
D03*
X1192000Y907250D02*
D03*
X1193000Y892500D02*
D03*
X1427750Y990250D02*
D03*
X1477250Y989750D02*
D03*
X1528500Y990500D02*
D03*
X1581500Y989250D02*
D03*
X1638000Y884250D02*
D03*
X1620750Y880000D02*
D03*
X1640750Y934000D02*
D03*
X1602500Y924250D02*
D03*
X1579250Y940750D02*
D03*
X1529500Y879250D02*
D03*
X1450250Y826500D02*
D03*
X1354750Y806750D02*
D03*
X1352750Y835000D02*
D03*
X1404000Y855750D02*
D03*
X1457000Y900500D02*
D03*
X1449500Y916750D02*
D03*
X1413750Y915000D02*
D03*
X1379250Y921500D02*
D03*
X1350250Y940250D02*
D03*
X1351000Y965250D02*
D03*
X1300250Y965000D02*
D03*
X1299750Y990000D02*
D03*
X1224750Y990250D02*
D03*
X1173250Y990750D02*
D03*
X1096000Y989750D02*
D03*
X1067250Y990000D02*
D03*
X1008750Y934500D02*
D03*
X1010000Y766750D02*
D03*
X1015500Y849750D02*
D03*
X1015250Y876750D02*
D03*
X1059750Y846500D02*
D03*
X1146500Y862250D02*
D03*
X1184000Y856500D02*
D03*
X1222500Y834000D02*
D03*
X1238000Y852000D02*
D03*
X1248250Y834500D02*
D03*
X1260750Y796750D02*
D03*
X1250500Y790750D02*
D03*
X1246250Y774000D02*
D03*
X1272250Y786000D02*
D03*
X1176000Y753000D02*
D03*
X1112750Y729000D02*
D03*
X1101500Y753000D02*
D03*
X1050000Y787000D02*
D03*
X1078500Y727500D02*
D03*
X1084750Y711250D02*
D03*
X1132000Y710750D02*
D03*
X1163250Y708500D02*
D03*
X1288500Y707750D02*
D03*
X1282000Y734000D02*
D03*
X1382750Y757250D02*
D03*
X1370250Y759000D02*
D03*
X1482250Y732500D02*
D03*
X1424750Y720750D02*
D03*
X1426250Y732500D02*
D03*
X1497250Y776000D02*
D03*
X1541250Y792000D02*
D03*
X1580000Y781500D02*
D03*
X1640000Y767500D02*
D03*
X1620000Y782500D02*
D03*
X1469500Y783500D02*
D03*
X1433500Y803000D02*
D03*
X1377250Y780500D02*
D03*
X1422000Y852250D02*
D03*
X1463500Y851250D02*
D03*
X1523250D02*
D03*
X1603250Y831500D02*
D03*
X1599000Y842000D02*
D03*
X1267000Y727750D02*
D03*
X1199250Y710250D02*
D03*
X1215750Y728500D02*
D03*
X1592500Y882000D02*
D03*
X1476000Y880000D02*
D03*
X1375250Y875000D02*
D03*
X1230250D02*
D03*
X1266750D02*
D03*
X1634750Y913750D02*
D03*
X1046250Y830750D02*
D03*
X1567000Y730000D02*
D03*
X1335250Y707250D02*
D03*
X1350750Y859250D02*
D03*
D31*
X1329250Y777750D02*
D03*
X1307750Y775750D02*
D03*
X1620000Y797250D02*
D03*
X1370000Y800750D02*
D03*
X1369500Y853250D02*
D03*
X1187000Y832000D02*
D03*
X1032750Y775750D02*
D03*
X1167057Y765787D02*
D03*
X1151806Y769788D02*
D03*
X1141556Y773538D02*
D03*
X1127555Y777288D02*
D03*
X1117554Y776538D02*
D03*
X1103304Y780288D02*
D03*
X1089553Y784288D02*
D03*
X1076553Y788038D02*
D03*
X1066500Y794500D02*
D03*
X1392736Y894253D02*
D03*
X1558000Y860000D02*
D03*
X1554750Y795250D02*
D03*
X1559576Y840541D02*
D03*
X1548150Y838400D02*
D03*
X1539250Y844750D02*
D03*
X1527500Y836750D02*
D03*
X1527000Y796750D02*
D03*
X1514750Y837500D02*
D03*
X1504573Y837791D02*
D03*
X1495500Y837750D02*
D03*
X1480750Y831500D02*
D03*
X1335250Y737250D02*
D03*
X1342500Y719500D02*
D03*
X1416500Y766500D02*
D03*
X1393750D02*
D03*
X1573250Y768250D02*
D03*
X1559000Y768500D02*
D03*
X1506000Y713000D02*
D03*
X1516250Y733500D02*
D03*
X1553000Y728000D02*
D03*
X1534250Y731750D02*
D03*
X1433500Y753750D02*
D03*
X1454750D02*
D03*
X1492500Y732750D02*
D03*
X1190750Y726750D02*
D03*
X1292750Y748000D02*
D03*
X1273250Y768500D02*
D03*
X1245250Y728750D02*
D03*
X1232750Y729000D02*
D03*
X1225750Y760750D02*
D03*
X1148500Y879500D02*
D03*
X1055801Y879793D02*
D03*
X1017750Y895250D02*
D03*
X1022500Y927750D02*
D03*
X1577500Y837500D02*
D03*
X1615000Y855000D02*
D03*
X1635000Y835000D02*
D03*
X1426000Y864000D02*
D03*
X1295250Y797000D02*
D03*
X1318500Y788750D02*
D03*
X1359750Y925500D02*
D03*
X1365500Y920000D02*
D03*
X1282063Y807289D02*
D03*
Y830790D02*
D03*
X1221250Y857000D02*
D03*
X1206500Y888250D02*
D03*
X1228500Y888000D02*
D03*
X1252061Y851542D02*
D03*
X1251750Y864500D02*
D03*
X1172250Y881250D02*
D03*
X1187250D02*
D03*
M02*
