*
G04 Mass Parameters ***
*
G04 Image ***
*
%IND:\JOBS\UPWORKS\MOTHERBOARD1\MOTHERBOARD1.BOT*%
%ICAS*%
%MOIN*%
%IPPOS*%
%ASAXBY*%
G74*%FSLAN2X34Y34*%
*
G04 Aperture Definitions ***
*
%ADD10C,0.0650*%
%ADD11R,0.0650X0.0650*%
%ADD12C,0.0800*%
%ADD13R,0.0800X0.0800*%
%ADD14C,0.0750*%
%ADD15R,0.0750X0.0750*%
%ADD16R,0.0531X0.0157*%
%ADD17C,0.0709*%
%ADD18R,0.0790X0.0790*%
%ADD19R,0.0709X0.0709*%
%ADD20C,0.0700*%
%ADD21R,0.0700X0.0700*%
%ADD22C,0.1380*%
%ADD23C,0.0100*%
%ADD24C,0.0200*%
%ADD25C,0.0500*%
%ADD26C,0.0120*%
%ADD27C,0.0180*%
%ADD28C,0.0080*%
%ADD29C,0.0140*%
*
G04 Plot Data ***
*
G54D23*
G01X-0017500Y0046700D02*
Y0034500D01*
X-0018000Y0034000D01*
Y0033000D01*
X-0017550Y0032550D01*
X-0017500D01*
X-0004500D02*
X-0005000Y0033050D01*
Y0034000D01*
X-0004500Y0034500D01*
Y0046700D01*
X-0003500Y0047700D02*
X-0003450D01*
X-0003000Y0047250D01*
Y0034500D01*
X-0003500Y0034000D01*
Y0033550D01*
Y0046700D02*
Y0034500D01*
X-0004000Y0034000D01*
Y0033000D01*
X-0003550Y0032550D01*
X-0003500D01*
X-0002500Y0047700D02*
X-0002450D01*
X-0002000Y0047250D01*
Y0034500D01*
X-0002500Y0034000D01*
Y0033550D01*
Y0032550D02*
X-0003000Y0033050D01*
Y0034000D01*
X-0002500Y0034500D01*
Y0046700D01*
X-0009500D02*
Y0034500D01*
X-0010000Y0034000D01*
Y0033000D01*
X-0009550Y0032550D01*
X-0009500D01*
Y0047700D02*
X-0009450D01*
X-0009000Y0047250D01*
Y0034500D01*
X-0009500Y0034000D01*
Y0033550D01*
X-0010500Y0047700D02*
X-0010450D01*
X-0010000Y0047250D01*
Y0034500D01*
X-0010500Y0034000D01*
Y0033550D01*
X-0011500Y0032550D02*
X-0012000Y0033050D01*
Y0034000D01*
X-0011500Y0034500D01*
Y0046700D01*
Y0047700D02*
X-0011450D01*
X-0011000Y0047250D01*
Y0034500D01*
X-0011500Y0034000D01*
Y0033550D01*
X-0010500Y0032550D02*
X-0011000Y0033050D01*
Y0034000D01*
X-0010500Y0034500D01*
Y0046700D01*
X-0012500D02*
Y0034500D01*
X-0013000Y0034000D01*
Y0033000D01*
X-0012550Y0032550D01*
X-0012500D01*
Y0047700D02*
X-0012450D01*
X-0012000Y0047250D01*
Y0034500D01*
X-0012500Y0034000D01*
Y0033550D01*
X-0001500Y0047700D02*
X-0001450D01*
X-0001000Y0047250D01*
Y0034500D01*
X-0001500Y0034000D01*
Y0033550D01*
Y0046700D02*
Y0034500D01*
X-0002000Y0034000D01*
Y0033000D01*
X-0001550Y0032550D01*
X-0001500D01*
X-0006500Y0046700D02*
Y0034500D01*
X-0007000Y0034000D01*
Y0033000D01*
X-0006550Y0032550D01*
X-0006500D01*
X-0013500D02*
X-0014000Y0033050D01*
Y0034000D01*
X-0013500Y0034500D01*
Y0046700D01*
Y0047700D02*
X-0013450D01*
X-0013000Y0047250D01*
Y0034500D01*
X-0013500Y0034000D01*
Y0033550D01*
X-0000500Y0047700D02*
X-0000200D01*
X0000000Y0047500D01*
Y0034000D01*
X-0000450Y0033550D01*
X-0000500D01*
Y0032550D02*
X-0001000Y0033050D01*
Y0034000D01*
X-0000500Y0034500D01*
Y0046700D01*
X-0007500Y0032550D02*
X-0008000Y0033050D01*
Y0034000D01*
X-0007500Y0034500D01*
Y0046700D01*
X-0014500D02*
Y0034500D01*
X-0015000Y0034000D01*
Y0033000D01*
X-0014550Y0032550D01*
X-0014500D01*
X-0018500Y0047700D02*
X-0018450D01*
X-0018000Y0047250D01*
Y0034500D01*
X-0018500Y0034000D01*
Y0033550D01*
X-0014500D02*
Y0034000D01*
X-0014000Y0034500D01*
Y0047200D01*
X-0014500Y0047700D01*
X-0015500Y0046700D02*
Y0034500D01*
X-0016000Y0034000D01*
Y0033000D01*
X-0015550Y0032550D01*
X-0015500D01*
Y0047700D02*
X-0015450D01*
X-0015000Y0047250D01*
Y0034500D01*
X-0015500Y0034000D01*
Y0033550D01*
X-0016500Y0046700D02*
Y0034500D01*
X-0017000Y0034000D01*
Y0033000D01*
X-0016550Y0032550D01*
X-0016500D01*
Y0033550D02*
Y0034000D01*
X-0016000Y0034500D01*
Y0047200D01*
X-0016500Y0047700D01*
X-0017500D02*
X-0017450D01*
X-0017000Y0047250D01*
Y0034500D01*
X-0017500Y0034000D01*
Y0033550D01*
X-0018500Y0032550D02*
X-0019000Y0033050D01*
Y0034000D01*
X-0018500Y0034500D01*
Y0046700D01*
X-0019500Y0033550D02*
Y0034000D01*
X-0019000Y0034500D01*
Y0047200D01*
X-0019500Y0047700D01*
X-0008500D02*
X-0008450D01*
X-0008000Y0047250D01*
Y0034500D01*
X-0008500Y0034000D01*
Y0033550D01*
Y0046700D02*
Y0034500D01*
X-0009000Y0034000D01*
Y0033000D01*
X-0008550Y0032550D01*
X-0008500D01*
X-0007500Y0047700D02*
X-0007450D01*
X-0007000Y0047250D01*
Y0034500D01*
X-0007500Y0034000D01*
Y0033550D01*
X-0006500Y0047700D02*
X-0006450D01*
X-0006000Y0047250D01*
Y0034500D01*
X-0006500Y0034000D01*
Y0033550D01*
X-0005500Y0047700D02*
X-0005450D01*
X-0005000Y0047250D01*
Y0034500D01*
X-0005500Y0034000D01*
Y0033550D01*
Y0046700D02*
Y0034500D01*
X-0006000Y0034000D01*
Y0033000D01*
X-0005550Y0032550D01*
X-0005500D01*
X-0004500Y0047700D02*
X-0004450D01*
X-0004000Y0047250D01*
Y0034500D01*
X-0004500Y0034000D01*
Y0033550D01*
X-0043544Y0033652D02*
Y0032775D01*
X-0043634Y0033652D02*
Y0032775D01*
X-0042806Y0033625D02*
X-0043674D01*
X-0042806Y0033535D02*
X-0043674D01*
X-0042806Y0033445D02*
X-0043674D01*
X-0042806Y0033355D02*
X-0043674D01*
X-0042806Y0033265D02*
X-0043674D01*
X-0042806Y0033175D02*
X-0043674D01*
X-0042806Y0033085D02*
X-0043674D01*
X-0042806Y0032995D02*
X-0043674D01*
X-0042806Y0032905D02*
X-0043674D01*
Y0033652D02*
Y0032775D01*
X-0043229D02*
X-0043674D01*
X-0042824Y0033652D02*
Y0032775D01*
X-0042914Y0033652D02*
Y0032775D01*
X-0043004Y0033652D02*
Y0032775D01*
X-0043094Y0033652D02*
Y0032775D01*
X-0043184Y0033652D02*
Y0032775D01*
X-0043274Y0033652D02*
Y0032775D01*
X-0043364Y0033652D02*
Y0032775D01*
X-0043454Y0033652D02*
Y0032775D01*
X-0042806Y0032815D02*
X-0043674D01*
X-0042806Y0032775D02*
X-0043229D01*
X-0042806Y0033652D02*
Y0032775D01*
Y0033652D02*
X-0043674D01*
X-0043537Y0036611D02*
Y0035733D01*
X-0043627Y0036611D02*
Y0035733D01*
X-0042799Y0036583D02*
X-0043667D01*
X-0042799Y0036493D02*
X-0043667D01*
X-0042799Y0036403D02*
X-0043667D01*
X-0042799Y0036313D02*
X-0043667D01*
X-0042799Y0036223D02*
X-0043667D01*
X-0042799Y0036133D02*
X-0043667D01*
X-0042799Y0036043D02*
X-0043667D01*
X-0042799Y0035953D02*
X-0043667D01*
X-0042799Y0035863D02*
X-0043667D01*
X-0042799Y0036614D02*
Y0035733D01*
Y0036614D02*
X-0043253D01*
X-0042817D02*
Y0035733D01*
X-0042907Y0036614D02*
Y0035733D01*
X-0042997Y0036614D02*
Y0035733D01*
X-0043087Y0036633D02*
Y0035733D01*
X-0043177Y0036633D02*
Y0035733D01*
X-0043267Y0036611D02*
Y0035733D01*
X-0043357Y0036611D02*
Y0035733D01*
X-0043447Y0036611D02*
Y0035733D01*
X-0042799Y0035773D02*
X-0043667D01*
X-0043253Y0036614D02*
X-0042813Y0036611D01*
X-0043667D01*
Y0035733D01*
X-0042799D02*
X-0043667D01*
G54D26*
G01X-0011500Y0010250D02*
X-0010750D01*
X-0010700Y0010200D01*
X-0007650D01*
X-0007600Y0010250D01*
X-0006750D01*
X-0004100D01*
X-0004150Y0010200D01*
X-0011450D01*
X-0011500Y0010250D01*
X-0006750D02*
X-0007600D01*
X-0007650Y0010200D01*
X-0011450D01*
X-0011500Y0010250D01*
X-0006750D01*
X-0002750D02*
X-0006750D01*
X0009250D02*
X0009300D01*
X0009350Y0010200D01*
X-0004150D01*
X-0004100Y0010250D01*
X-0006750D01*
X-0023500D02*
X-0023650D01*
X-0023700Y0010200D01*
X-0011450D01*
X-0011500Y0010250D01*
X-0002750Y0011250D02*
X-0006750D01*
X0009250D02*
X0009300D01*
X0009350Y0011200D01*
X-0004150D01*
X-0004100Y0011250D01*
X-0006750D01*
X-0023500D02*
X-0023650D01*
X-0023700Y0011200D01*
X-0011450D01*
X-0011500Y0011250D01*
X-0002750Y0012250D02*
X-0006750D01*
X0009250D02*
X0009300D01*
X0009350Y0012200D01*
X-0004150D01*
X-0004100Y0012250D01*
X-0006750D01*
X-0023500D02*
X-0023650D01*
X-0023700Y0012200D01*
X-0011450D01*
X-0011500Y0012250D01*
X-0002750Y0013250D02*
X-0006750D01*
X0009250D02*
X0009300D01*
X0009350Y0013200D01*
X-0004150D01*
X-0004100Y0013250D01*
X-0006750D01*
X-0023500D02*
X-0023650D01*
X-0023700Y0013200D01*
X-0011450D01*
X-0011500Y0013250D01*
X-0002750Y0014250D02*
X-0006750D01*
X0009250D02*
X0009300D01*
X0009350Y0014200D01*
X-0004150D01*
X-0004100Y0014250D01*
X-0006750D01*
X-0023500D02*
X-0023650D01*
X-0023700Y0014200D01*
X-0011450D01*
X-0011500Y0014250D01*
X-0002750Y0015250D02*
X-0006750D01*
X0009250D02*
X0009300D01*
X0009350Y0015200D01*
X-0004150D01*
X-0004100Y0015250D01*
X-0006750D01*
X-0023500D02*
X-0023650D01*
X-0023700Y0015200D01*
X-0011450D01*
X-0011500Y0015250D01*
X-0002750Y0016250D02*
X-0006750D01*
X0009250D02*
X0009300D01*
X0009350Y0016200D01*
X-0004150D01*
X-0004100Y0016250D01*
X-0006750D01*
X-0023500D02*
X-0023650D01*
X-0023700Y0016200D01*
X-0011450D01*
X-0011500Y0016250D01*
X-0002750Y0017250D02*
X-0006750D01*
X0009250D02*
X0009300D01*
X0009350Y0017200D01*
X-0004150D01*
X-0004100Y0017250D01*
X-0006750D01*
X-0023500D02*
X-0023650D01*
X-0023700Y0017200D01*
X-0011450D01*
X-0011500Y0017250D01*
X-0002750Y0018250D02*
X-0006750D01*
X0009250D02*
X0009300D01*
X0009350Y0018200D01*
X-0004150D01*
X-0004100Y0018250D01*
X-0006750D01*
X-0023500D02*
X-0023650D01*
X-0023700Y0018200D01*
X-0011450D01*
X-0011500Y0018250D01*
X-0002750Y0019250D02*
X-0006750D01*
X0009250D02*
X0009300D01*
X0009350Y0019200D01*
X-0004150D01*
X-0004100Y0019250D01*
X-0006750D01*
X-0023500D02*
X-0023650D01*
X-0023700Y0019200D01*
X-0011450D01*
X-0011500Y0019250D01*
X-0002750Y0021250D02*
X-0006750D01*
X0009250D02*
X0009300D01*
X0009350Y0021200D01*
X-0004150D01*
X-0004100Y0021250D01*
X-0006750D01*
X-0023500D02*
X-0023650D01*
X-0023700Y0021200D01*
X-0011450D01*
X-0011500Y0021250D01*
X-0002750Y0022250D02*
X-0006750D01*
X0009250D02*
X0009300D01*
X0009350Y0022200D01*
X-0004150D01*
X-0004100Y0022250D01*
X-0006750D01*
X-0023500D02*
X-0023650D01*
X-0023700Y0022200D01*
X-0011450D01*
X-0011500Y0022250D01*
X-0002750Y0023250D02*
X-0006750D01*
X0009250D02*
X0009300D01*
X0009350Y0023200D01*
X-0004150D01*
X-0004100Y0023250D01*
X-0006750D01*
X-0023500D02*
X-0023650D01*
X-0023700Y0023200D01*
X-0011450D01*
X-0011500Y0023250D01*
X-0002750Y0024250D02*
X-0006750D01*
X0009250D02*
X0009300D01*
X0009350Y0024200D01*
X-0004150D01*
X-0004100Y0024250D01*
X-0006750D01*
X-0023500D02*
X-0023650D01*
X-0023700Y0024200D01*
X-0011450D01*
X-0011500Y0024250D01*
X-0002750Y0025250D02*
X-0006750D01*
X0009250D02*
X0009300D01*
X0009350Y0025200D01*
X-0004150D01*
X-0004100Y0025250D01*
X-0006750D01*
X-0023500D02*
X-0023650D01*
X-0023700Y0025200D01*
X-0011450D01*
X-0011500Y0025250D01*
X-0002750Y0026250D02*
X-0006750D01*
X0009250D02*
X0009300D01*
X0009350Y0026200D01*
X-0004150D01*
X-0004100Y0026250D01*
X-0006750D01*
X-0023500D02*
X-0023650D01*
X-0023700Y0026200D01*
X-0011450D01*
X-0011500Y0026250D01*
X-0002750Y0027250D02*
X-0006750D01*
X0009250D02*
X0009300D01*
X0009350Y0027200D01*
X-0004150D01*
X-0004100Y0027250D01*
X-0006750D01*
X-0023500D02*
X-0023650D01*
X-0023700Y0027200D01*
X-0011450D01*
X-0011500Y0027250D01*
X-0028050Y0027200D02*
X-0028950D01*
X-0030000Y0028250D01*
X-0033000D01*
X-0033100Y0028150D01*
X-0044750Y0041750D02*
X-0043500D01*
X-0042000Y0040250D01*
Y0037750D01*
X-0042250Y0037500D01*
X-0036900Y0039850D02*
X-0037900D01*
X-0036900Y0038850D02*
X-0037900D01*
X-0028050Y0010200D02*
X-0028100Y0010250D01*
X-0030250D01*
X-0030750Y0010750D01*
X-0033350D01*
X-0034250D01*
X-0034700Y0011200D01*
X-0036500D01*
X-0044750Y0042750D02*
X-0045750D01*
X-0011500Y0027250D02*
X-0006750D01*
X-0019500Y0046700D02*
X-0022050D01*
X-0022500Y0046250D01*
Y0042250D01*
X-0023100Y0041650D01*
X-0023650D01*
X-0036900Y0041850D02*
X-0037900D01*
X-0023500Y0026250D02*
X-0024400D01*
X-0024450Y0026200D01*
X-0028050D01*
X-0006750Y0027250D02*
X-0007600D01*
X-0007650Y0027200D01*
X-0011450D01*
X-0011500Y0027250D01*
X-0023500Y0010250D02*
X-0024400D01*
X-0024450Y0010200D01*
X-0028050D01*
X-0011500Y0011250D02*
X-0006750D01*
X-0007600D01*
X-0007650Y0011200D01*
X-0011450D01*
X-0011500Y0011250D01*
X-0006750D02*
X-0004100D01*
X-0004150Y0011200D01*
X-0011450D01*
X-0011500Y0011250D01*
X-0010750D01*
X-0010700Y0011200D01*
X-0007650D01*
X-0007600Y0011250D01*
X-0006750D01*
Y0027250D02*
X-0004100D01*
X-0004150Y0027200D01*
X-0011450D01*
X-0011500Y0027250D01*
X-0023500Y0011250D02*
X-0024400D01*
X-0024450Y0011200D01*
X-0028050D01*
X-0036900Y0046850D02*
X-0037900D01*
X-0036900Y0045850D02*
X-0037900D01*
X-0036900Y0044850D02*
X-0037900D01*
X-0036900Y0043850D02*
X-0037900D01*
X-0011500Y0012250D02*
X-0006750D01*
X-0025500Y0032500D02*
Y0032250D01*
X-0026000Y0031750D01*
X-0033250D01*
X-0040750Y0039250D01*
Y0041000D01*
X-0043500Y0043750D01*
X-0044750D01*
X-0023500Y0012250D02*
X-0024400D01*
X-0024450Y0012200D01*
X-0028050D01*
X-0011500Y0013250D02*
X-0006750D01*
X-0007600D01*
X-0007650Y0013200D01*
X-0011450D01*
X-0011500Y0013250D01*
X-0023500Y0019250D02*
X-0024400D01*
X-0024450Y0019200D01*
X-0028050D01*
X-0036900Y0042850D02*
X-0037900D01*
X-0023500Y0020250D02*
X-0024400D01*
X-0024450Y0020200D01*
X-0028050D01*
X-0011500Y0021250D02*
X-0006750D01*
X-0007600D01*
X-0007650Y0021200D01*
X-0011450D01*
X-0011500Y0021250D01*
X-0023500Y0024250D02*
X-0024400D01*
X-0024450Y0024200D01*
X-0028050D01*
X-0023500Y0014250D02*
X-0024400D01*
X-0024450Y0014200D01*
X-0028050D01*
X-0011500Y0015250D02*
X-0006750D01*
X-0023500Y0013250D02*
X-0024400D01*
X-0024450Y0013200D01*
X-0028050D01*
X-0006750Y0015250D02*
X-0007600D01*
X-0007650Y0015200D01*
X-0011450D01*
X-0011500Y0015250D01*
X-0023500D02*
X-0024400D01*
X-0024450Y0015200D01*
X-0028050D01*
X-0011500Y0016250D02*
X-0006750D01*
X-0007600D01*
X-0007650Y0016200D01*
X-0011450D01*
X-0011500Y0016250D01*
X-0006750Y0015250D02*
X-0004100D01*
X-0004150Y0015200D01*
X-0011450D01*
X-0011500Y0015250D01*
X-0006750Y0016250D02*
X-0004100D01*
X-0004150Y0016200D01*
X-0011450D01*
X-0011500Y0016250D01*
X-0023500D02*
X-0024400D01*
X-0024450Y0016200D01*
X-0028050D01*
X-0011500Y0017250D02*
X-0006750D01*
X-0007600D01*
X-0007650Y0017200D01*
X-0011450D01*
X-0011500Y0017250D01*
Y0016250D02*
X-0010750D01*
X-0010700Y0016200D01*
X-0007650D01*
X-0007600Y0016250D01*
X-0006750D01*
Y0017250D02*
X-0004100D01*
X-0004150Y0017200D01*
X-0011450D01*
X-0011500Y0017250D01*
X-0023500Y0018250D02*
X-0024400D01*
X-0024450Y0018200D01*
X-0028050D01*
X-0011500Y0019250D02*
X-0006750D01*
X-0007600D01*
X-0007650Y0019200D01*
X-0011450D01*
X-0011500Y0019250D01*
Y0017250D02*
X-0010750D01*
X-0010700Y0017200D01*
X-0007650D01*
X-0007600Y0017250D01*
X-0006750D01*
Y0019250D02*
X-0004100D01*
X-0004150Y0019200D01*
X-0011450D01*
X-0011500Y0019250D01*
X-0023500Y0017250D02*
X-0024400D01*
X-0024450Y0017200D01*
X-0028050D01*
X-0011500Y0018250D02*
X-0006750D01*
X-0007600D01*
X-0007650Y0018200D01*
X-0011450D01*
X-0011500Y0018250D01*
Y0019250D02*
X-0010750D01*
X-0010700Y0019200D01*
X-0007650D01*
X-0007600Y0019250D01*
X-0006750D01*
Y0018250D02*
X-0004100D01*
X-0004150Y0018200D01*
X-0011450D01*
X-0011500Y0018250D01*
X-0023500Y0021250D02*
X-0024400D01*
X-0024450Y0021200D01*
X-0028050D01*
X-0011500Y0022250D02*
X-0006750D01*
X-0007600D01*
X-0007650Y0022200D01*
X-0011450D01*
X-0011500Y0022250D01*
Y0018250D02*
X-0010750D01*
X-0010700Y0018200D01*
X-0007650D01*
X-0007600Y0018250D01*
X-0006750D01*
Y0022250D02*
X-0004100D01*
X-0004150Y0022200D01*
X-0011450D01*
X-0011500Y0022250D01*
X-0023500D02*
X-0024400D01*
X-0024450Y0022200D01*
X-0028050D01*
X-0011500Y0023250D02*
X-0006750D01*
X-0007600D01*
X-0007650Y0023200D01*
X-0011450D01*
X-0011500Y0023250D01*
Y0022250D02*
X-0010750D01*
X-0010700Y0022200D01*
X-0007650D01*
X-0007600Y0022250D01*
X-0006750D01*
Y0023250D02*
X-0004100D01*
X-0004150Y0023200D01*
X-0011450D01*
X-0011500Y0023250D01*
X-0006750Y0021250D02*
X-0004100D01*
X-0004150Y0021200D01*
X-0011450D01*
X-0011500Y0021250D01*
X-0006750Y0012250D02*
X-0007600D01*
X-0007650Y0012200D01*
X-0011450D01*
X-0011500Y0012250D01*
X-0023500Y0020250D02*
X-0023650D01*
X-0023700Y0020200D01*
X-0011450D01*
X-0011500Y0020250D02*
X-0006750D01*
Y0012250D02*
X-0004100D01*
X-0004150Y0012200D01*
X-0011450D01*
X-0011500Y0012250D01*
Y0025250D02*
X-0006750D01*
X-0028050Y0027200D02*
X-0024450D01*
X-0024400Y0027250D01*
X-0023500D01*
Y0025250D02*
X-0024400D01*
X-0024450Y0025200D01*
X-0028050D01*
X-0011500Y0012250D02*
X-0010750D01*
X-0010700Y0012200D01*
X-0007650D01*
X-0007600Y0012250D01*
X-0006750D01*
X-0044750Y0040750D02*
X-0045750D01*
X-0023650Y0033650D02*
X-0024100D01*
X-0024500Y0033250D01*
Y0032500D01*
X-0025750Y0031250D01*
X-0033750D01*
X-0041250Y0038750D01*
Y0040750D01*
X-0043250Y0042750D01*
X-0044750D01*
X-0036900Y0040850D02*
X-0037900D01*
X-0006750Y0025250D02*
X-0007600D01*
X-0007650Y0025200D01*
X-0011450D01*
X-0011500Y0025250D01*
X-0006750D02*
X-0004100D01*
X-0004150Y0025200D01*
X-0011450D01*
X-0011500Y0025250D01*
Y0027250D02*
X-0010750D01*
X-0010700Y0027200D01*
X-0007650D01*
X-0007600Y0027250D01*
X-0006750D01*
X-0023500Y0023250D02*
X-0024400D01*
X-0024450Y0023200D01*
X-0028050D01*
X-0011500Y0025250D02*
X-0010750D01*
X-0010700Y0025200D01*
X-0007650D01*
X-0007600Y0025250D01*
X-0006750D01*
X-0011500Y0014250D02*
X-0006750D01*
X-0044750Y0041750D02*
X-0045750D01*
X-0011500Y0024250D02*
X-0006750D01*
X-0007600D01*
X-0007650Y0024200D01*
X-0011450D01*
X-0011500Y0024250D01*
Y0023250D02*
X-0010750D01*
X-0010700Y0023200D01*
X-0007650D01*
X-0007600Y0023250D01*
X-0006750D01*
Y0024250D02*
X-0004100D01*
X-0004150Y0024200D01*
X-0011450D01*
X-0011500Y0024250D01*
Y0026250D02*
X-0006750D01*
X-0007600D01*
X-0007650Y0026200D01*
X-0011450D01*
X-0011500Y0026250D01*
X-0006750D02*
X-0004100D01*
X-0004150Y0026200D01*
X-0011450D01*
X-0011500Y0026250D01*
X-0036900Y0037850D02*
X-0037900D01*
X-0011500Y0026250D02*
X-0010750D01*
X-0010700Y0026200D01*
X-0007650D01*
X-0007600Y0026250D01*
X-0006750D01*
Y0014250D02*
X-0007600D01*
X-0007650Y0014200D01*
X-0011450D01*
X-0011500Y0014250D01*
X-0030250Y0032750D02*
Y0033750D01*
X-0028500Y0035500D01*
X-0023800D01*
X-0023650Y0035650D01*
X-0044750Y0043750D02*
X-0045750D01*
X-0006750Y0014250D02*
X-0004100D01*
X-0004150Y0014200D01*
X-0011450D01*
X-0011500Y0014250D01*
Y0015250D02*
X-0010750D01*
X-0010700Y0015200D01*
X-0007650D01*
X-0007600Y0015250D01*
X-0006750D01*
X-0011500Y0024250D02*
X-0010750D01*
X-0010700Y0024200D01*
X-0007650D01*
X-0007600Y0024250D01*
X-0006750D01*
Y0013250D02*
X-0004100D01*
X-0004150Y0013200D01*
X-0011450D01*
X-0011500Y0013250D01*
X-0010750D01*
X-0010700Y0013200D01*
X-0007650D01*
X-0007600Y0013250D01*
X-0006750D01*
X-0011500Y0021250D02*
X-0010750D01*
X-0010700Y0021200D01*
X-0007650D01*
X-0007600Y0021250D01*
X-0006750D01*
X-0011500Y0014250D02*
X-0010750D01*
X-0010700Y0014200D01*
X-0007650D01*
X-0007600Y0014250D01*
X-0006750D01*
G54D27*
G01X-0002750Y0028250D02*
X-0006750D01*
X-0011500D02*
X-0016250D01*
X-0017500Y0029500D01*
Y0032550D01*
X0009250Y0028250D02*
X0009300D01*
X0009350Y0028200D01*
X-0004150D01*
X-0004100Y0028250D01*
X-0006750D01*
X-0023500D02*
X-0023650D01*
X-0023700Y0028200D01*
X-0011450D01*
X-0011500Y0028250D01*
X-0006750D01*
X-0007600D01*
X-0007650Y0028200D01*
X-0011450D01*
X-0011500Y0028250D01*
X-0006750D02*
X-0004100D01*
X-0004150Y0028200D01*
X-0011450D01*
X-0011500Y0028250D01*
X0008750Y0046750D02*
X0009250D01*
X0010000Y0046000D01*
Y0027750D01*
X0009500Y0027250D01*
X0009250D01*
X-0011500Y0028250D02*
X-0010750D01*
X-0010700Y0028200D01*
X-0007650D01*
X-0007600Y0028250D01*
X-0006750D01*
X-0033200Y0021100D02*
X-0032500D01*
X-0032100Y0020700D01*
Y0012650D01*
X-0033000Y0011750D01*
X-0033350D01*
X-0042250Y0037500D02*
X-0041500D01*
X-0036500Y0032500D01*
Y0029700D01*
X-0041676Y0034176D02*
X-0041500Y0034000D01*
Y0032500D01*
X-0042000Y0032000D01*
X-0044000D01*
X-0044500Y0032500D01*
Y0037250D01*
X-0044250Y0037500D01*
X-0041500D01*
X-0036500Y0032500D01*
Y0029700D01*
X-0028050Y0028200D02*
X-0024450D01*
X-0024400Y0028250D01*
X-0023500D01*
X0008750Y0045750D02*
X0008000D01*
X0007750Y0045500D01*
Y0029000D01*
X0008500Y0028250D01*
X0009250D01*
X-0028050Y0028200D02*
Y0028800D01*
X-0028750Y0029500D01*
X-0032750D01*
X-0033100Y0029150D01*
X-0033200Y0021100D02*
X-0035500Y0023400D01*
Y0029250D01*
X-0035950Y0029700D01*
X-0036500D01*
X-0033100Y0029150D02*
X-0033650Y0029700D01*
X-0036500D01*
X-0019500Y0032550D02*
X-0020250Y0033300D01*
Y0034000D01*
X-0019500Y0034750D01*
Y0046700D01*
X-0036500Y0029700D02*
X-0040000D01*
Y0011200D02*
X-0036500D01*
Y0028700D02*
X-0040000D01*
G54D28*
G01X-0011450Y0020200D02*
X-0011500Y0020250D01*
X0009250D02*
X0009300D01*
X0009350Y0020200D01*
X-0004150D01*
X-0004100Y0020250D01*
X-0006750D01*
X-0002750D02*
X-0006750D01*
G54D29*
G01X-0042147Y0034176D02*
X-0041676D01*
G54D10*
X-0037900Y0046850D03*
X-0036900Y0045850D03*
X-0037900D03*
X-0036900Y0044850D03*
X-0037900D03*
X-0036900Y0043850D03*
X-0037900D03*
X-0036900Y0042850D03*
X-0037900D03*
X-0036900Y0041850D03*
X-0037900D03*
X-0036900Y0040850D03*
X-0037900D03*
X-0036900Y0039850D03*
X-0037900D03*
X-0036900Y0038850D03*
X-0037900D03*
X-0036900Y0037850D03*
X-0037900D03*
X-0019500Y0032550D03*
X-0018500Y0033550D03*
Y0032550D03*
X-0017500Y0033550D03*
Y0032550D03*
X-0016500Y0033550D03*
Y0032550D03*
X-0015500Y0033550D03*
Y0032550D03*
X-0014500Y0033550D03*
Y0032550D03*
X-0013500Y0033550D03*
Y0032550D03*
X-0012500Y0033550D03*
Y0032550D03*
X-0011500Y0033550D03*
Y0032550D03*
X-0010500Y0033550D03*
Y0032550D03*
X-0009500Y0033550D03*
Y0032550D03*
X-0008500Y0033550D03*
Y0032550D03*
X-0007500Y0033550D03*
Y0032550D03*
X-0006500Y0033550D03*
Y0032550D03*
X-0005500Y0033550D03*
Y0032550D03*
X-0004500Y0033550D03*
Y0032550D03*
X-0003500Y0033550D03*
Y0032550D03*
X-0002500Y0033550D03*
Y0032550D03*
X-0001500Y0033550D03*
Y0032550D03*
X-0000500Y0033550D03*
Y0032550D03*
X-0019500Y0046700D03*
X-0018500Y0047700D03*
Y0046700D03*
X-0017500Y0047700D03*
Y0046700D03*
X-0016500Y0047700D03*
Y0046700D03*
X-0015500Y0047700D03*
Y0046700D03*
X-0014500Y0047700D03*
Y0046700D03*
X-0013500Y0047700D03*
Y0046700D03*
X-0012500Y0047700D03*
Y0046700D03*
X-0011500Y0047700D03*
Y0046700D03*
X-0010500Y0047700D03*
Y0046700D03*
X-0009500Y0047700D03*
Y0046700D03*
X-0008500Y0047700D03*
Y0046700D03*
X-0007500Y0047700D03*
Y0046700D03*
X-0006500Y0047700D03*
Y0046700D03*
X-0005500Y0047700D03*
Y0046700D03*
X-0004500Y0047700D03*
Y0046700D03*
X-0003500Y0047700D03*
Y0046700D03*
X-0002500Y0047700D03*
Y0046700D03*
X-0001500Y0047700D03*
Y0046700D03*
X-0000500Y0047700D03*
Y0046700D03*
X-0033350Y0011750D03*
X-0033100Y0029150D03*
G54D11*
X-0036900Y0046850D03*
X-0019500Y0033550D03*
Y0047700D03*
X-0033350Y0010750D03*
X-0033100Y0028150D03*
G54D12*
X0002750Y0045750D03*
Y0044750D03*
Y0043750D03*
Y0042750D03*
Y0041750D03*
Y0040750D03*
Y0039750D03*
Y0038750D03*
Y0037750D03*
Y0036750D03*
Y0035750D03*
X0008750D03*
Y0036750D03*
Y0037750D03*
Y0038750D03*
Y0039750D03*
Y0040750D03*
Y0041750D03*
Y0042750D03*
Y0043750D03*
Y0044750D03*
Y0045750D03*
Y0046750D03*
X-0023500Y0027250D03*
Y0026250D03*
Y0025250D03*
Y0024250D03*
Y0023250D03*
Y0022250D03*
Y0021250D03*
Y0020250D03*
Y0019250D03*
Y0018250D03*
Y0017250D03*
Y0016250D03*
Y0015250D03*
Y0014250D03*
Y0013250D03*
Y0012250D03*
Y0011250D03*
Y0010250D03*
X-0011500D03*
Y0011250D03*
Y0012250D03*
Y0013250D03*
Y0014250D03*
Y0015250D03*
Y0016250D03*
Y0017250D03*
Y0018250D03*
Y0019250D03*
Y0020250D03*
Y0021250D03*
Y0022250D03*
Y0023250D03*
Y0024250D03*
Y0025250D03*
Y0026250D03*
Y0027250D03*
Y0028250D03*
X-0002750Y0027250D03*
Y0026250D03*
Y0025250D03*
Y0024250D03*
Y0023250D03*
Y0022250D03*
Y0021250D03*
Y0020250D03*
Y0019250D03*
Y0018250D03*
Y0017250D03*
Y0016250D03*
Y0015250D03*
Y0014250D03*
Y0013250D03*
Y0012250D03*
Y0011250D03*
Y0010250D03*
X0009250D03*
Y0011250D03*
Y0012250D03*
Y0013250D03*
Y0014250D03*
Y0015250D03*
Y0016250D03*
Y0017250D03*
Y0018250D03*
Y0019250D03*
Y0020250D03*
Y0021250D03*
Y0022250D03*
Y0023250D03*
Y0024250D03*
Y0025250D03*
Y0026250D03*
Y0027250D03*
Y0028250D03*
X-0006750Y0027250D03*
Y0026250D03*
Y0025250D03*
Y0024250D03*
Y0023250D03*
Y0022250D03*
Y0021250D03*
Y0020250D03*
Y0019250D03*
Y0018250D03*
Y0017250D03*
Y0016250D03*
Y0015250D03*
Y0014250D03*
Y0013250D03*
Y0012250D03*
Y0011250D03*
Y0010250D03*
X-0028050Y0027200D03*
Y0026200D03*
Y0025200D03*
Y0024200D03*
Y0023200D03*
Y0022200D03*
Y0021200D03*
Y0020200D03*
Y0019200D03*
Y0018200D03*
Y0017200D03*
Y0016200D03*
Y0015200D03*
Y0014200D03*
Y0013200D03*
Y0012200D03*
Y0011200D03*
Y0010200D03*
G54D13*
X0002750Y0046750D03*
X-0023500Y0028250D03*
X-0002750D03*
X-0006750D03*
X-0028050Y0028200D03*
G54D14*
X-0033200Y0020100D03*
Y0021100D03*
G54D15*
Y0019100D03*
G54D16*
X-0042150Y0035200D03*
Y0034949D03*
X-0042148Y0034686D03*
X-0042146Y0034423D03*
X-0042147Y0034176D03*
G54D17*
X-0045750Y0043750D03*
X-0044750Y0042750D03*
X-0045750D03*
X-0044750Y0041750D03*
X-0045750D03*
X-0044750Y0040750D03*
X-0045750D03*
X-0040000Y0028700D03*
Y0012200D03*
Y0011200D03*
X-0036500Y0029700D03*
Y0028700D03*
Y0012200D03*
Y0011200D03*
G54D18*
X-0040000Y0029700D03*
G54D19*
X-0044750Y0043750D03*
G54D20*
X-0023650Y0042650D03*
Y0041650D03*
Y0040650D03*
Y0039650D03*
Y0038650D03*
Y0037650D03*
Y0036650D03*
Y0035650D03*
Y0034650D03*
Y0033650D03*
Y0032650D03*
X-0031650D03*
Y0033650D03*
Y0034650D03*
Y0035650D03*
Y0036650D03*
Y0037650D03*
Y0038650D03*
Y0039650D03*
Y0040650D03*
Y0041650D03*
Y0042650D03*
Y0043650D03*
Y0044650D03*
Y0045650D03*
Y0046650D03*
Y0047650D03*
G54D21*
X-0023650Y0043650D03*
G54D22*
X-0041000Y0016750D03*
Y0044500D03*
X0005750Y0032000D03*
Y0044500D03*
G54D25*
X-0025500Y0032500D03*
X-0030250Y0032750D03*
M02*
