*
G04 Mass Parameters ***
*
G04 Image ***
*
%IND:\JOBS\UPWORKS\MOTHERBOARD1\MOTHERBOARD1.PWR*%
%ICAS*%
%MOIN*%
%IPPOS*%
%ASAXBY*%
G74*%FSLAN2X34Y34*%
*
G04 Aperture Definitions ***
*
%ADD10C,0.0650*%
%ADD11R,0.0650X0.0650*%
%ADD12C,0.0800*%
%ADD13R,0.0800X0.0800*%
%ADD14C,0.0750*%
%ADD15R,0.0750X0.0750*%
%ADD16R,0.0531X0.0157*%
%ADD17C,0.0709*%
%ADD18R,0.0790X0.0790*%
%ADD19R,0.0709X0.0709*%
%ADD20C,0.0700*%
%ADD21R,0.0700X0.0700*%
%ADD22C,0.1380*%
%ADD23C,0.0100*%
%ADD24C,0.0200*%
%ADD25C,0.0500*%
%ADD26C,0.0120*%
%ADD27C,0.0180*%
%ADD28C,0.0080*%
%ADD29C,0.0140*%
%ADD30C,0.0680*%
%ADD31R,0.0157X0.0157*%
%ADD32O,0.0650X0.0790*%
%ADD33C,0.0750*%
*
G04 Plot Data ***
*
G54D24*
G01X-0047250Y0008500D02*
X0011500D01*
Y0050500D01*
X-0047250D01*
Y0008500D01*
G54D10*
X-0037900Y0046850D03*
X-0036900Y0045850D03*
X-0037900D03*
X-0036900Y0044850D03*
X-0037900D03*
X-0036900Y0043850D03*
X-0037900D03*
X-0036900Y0042850D03*
X-0037900D03*
X-0036900Y0041850D03*
X-0037900D03*
X-0036900Y0040850D03*
X-0037900D03*
X-0036900Y0039850D03*
X-0037900D03*
X-0036900Y0038850D03*
X-0037900D03*
X-0036900Y0037850D03*
X-0037900D03*
X-0019500Y0032550D03*
X-0018500Y0033550D03*
Y0032550D03*
X-0017500Y0033550D03*
Y0032550D03*
X-0016500Y0033550D03*
Y0032550D03*
X-0015500Y0033550D03*
Y0032550D03*
X-0014500Y0033550D03*
Y0032550D03*
X-0013500Y0033550D03*
Y0032550D03*
X-0012500Y0033550D03*
Y0032550D03*
X-0011500Y0033550D03*
Y0032550D03*
X-0010500Y0033550D03*
Y0032550D03*
X-0009500Y0033550D03*
Y0032550D03*
X-0008500Y0033550D03*
Y0032550D03*
X-0007500Y0033550D03*
Y0032550D03*
X-0006500Y0033550D03*
Y0032550D03*
X-0005500Y0033550D03*
Y0032550D03*
X-0004500Y0033550D03*
Y0032550D03*
X-0003500Y0033550D03*
Y0032550D03*
X-0002500Y0033550D03*
Y0032550D03*
X-0001500Y0033550D03*
Y0032550D03*
X-0000500Y0033550D03*
Y0032550D03*
X-0019500Y0046700D03*
X-0018500Y0047700D03*
Y0046700D03*
X-0017500Y0047700D03*
Y0046700D03*
X-0016500Y0047700D03*
Y0046700D03*
X-0015500Y0047700D03*
Y0046700D03*
X-0014500Y0047700D03*
Y0046700D03*
X-0013500Y0047700D03*
Y0046700D03*
X-0012500Y0047700D03*
Y0046700D03*
X-0011500Y0047700D03*
Y0046700D03*
X-0010500Y0047700D03*
Y0046700D03*
X-0009500Y0047700D03*
Y0046700D03*
X-0008500Y0047700D03*
Y0046700D03*
X-0007500Y0047700D03*
Y0046700D03*
X-0006500Y0047700D03*
Y0046700D03*
X-0005500Y0047700D03*
Y0046700D03*
X-0004500Y0047700D03*
Y0046700D03*
X-0003500Y0047700D03*
Y0046700D03*
X-0002500Y0047700D03*
Y0046700D03*
X-0001500Y0047700D03*
Y0046700D03*
X-0000500Y0047700D03*
Y0046700D03*
X-0033350Y0011750D03*
X-0033100Y0029150D03*
G54D11*
X-0044750Y0043750D03*
X-0036900Y0046850D03*
X-0019500Y0033550D03*
Y0047700D03*
X-0033350Y0010750D03*
X-0033100Y0028150D03*
G54D17*
X-0045750Y0043750D03*
X-0044750Y0042750D03*
X-0045750D03*
X-0044750Y0041750D03*
X-0045750D03*
X-0044750Y0040750D03*
X-0045750D03*
G54D20*
X-0023650Y0042650D03*
Y0041650D03*
Y0040650D03*
Y0039650D03*
Y0038650D03*
Y0037650D03*
Y0036650D03*
Y0035650D03*
Y0034650D03*
Y0033650D03*
Y0032650D03*
X-0031650D03*
Y0033650D03*
Y0034650D03*
Y0035650D03*
Y0036650D03*
Y0037650D03*
Y0038650D03*
Y0039650D03*
Y0040650D03*
Y0041650D03*
Y0042650D03*
Y0043650D03*
Y0044650D03*
Y0045650D03*
Y0046650D03*
Y0047650D03*
X0002750Y0045750D03*
Y0044750D03*
Y0043750D03*
Y0042750D03*
Y0041750D03*
Y0040750D03*
Y0039750D03*
Y0038750D03*
Y0037750D03*
Y0036750D03*
Y0035750D03*
X0008750D03*
Y0036750D03*
Y0037750D03*
Y0038750D03*
Y0039750D03*
Y0040750D03*
Y0041750D03*
Y0042750D03*
Y0043750D03*
Y0044750D03*
Y0045750D03*
Y0046750D03*
X-0023500Y0027250D03*
Y0026250D03*
Y0025250D03*
Y0024250D03*
Y0023250D03*
Y0022250D03*
Y0021250D03*
Y0020250D03*
Y0019250D03*
Y0018250D03*
Y0017250D03*
Y0016250D03*
Y0015250D03*
Y0014250D03*
Y0013250D03*
Y0012250D03*
Y0011250D03*
Y0010250D03*
X-0011500D03*
Y0011250D03*
Y0012250D03*
Y0013250D03*
Y0014250D03*
Y0015250D03*
Y0016250D03*
Y0017250D03*
Y0018250D03*
Y0019250D03*
Y0020250D03*
Y0021250D03*
Y0022250D03*
Y0023250D03*
Y0024250D03*
Y0025250D03*
Y0026250D03*
Y0027250D03*
Y0028250D03*
X-0002750Y0027250D03*
Y0026250D03*
Y0025250D03*
Y0024250D03*
Y0023250D03*
Y0022250D03*
Y0021250D03*
Y0020250D03*
Y0019250D03*
Y0018250D03*
Y0017250D03*
Y0016250D03*
Y0015250D03*
Y0014250D03*
Y0013250D03*
Y0012250D03*
Y0011250D03*
Y0010250D03*
X0009250D03*
Y0011250D03*
Y0012250D03*
Y0013250D03*
Y0014250D03*
Y0015250D03*
Y0016250D03*
Y0017250D03*
Y0018250D03*
Y0019250D03*
Y0020250D03*
Y0021250D03*
Y0022250D03*
Y0023250D03*
Y0024250D03*
Y0025250D03*
Y0026250D03*
Y0027250D03*
Y0028250D03*
X-0006750Y0027250D03*
Y0026250D03*
Y0025250D03*
Y0024250D03*
Y0023250D03*
Y0022250D03*
Y0021250D03*
Y0020250D03*
Y0019250D03*
Y0018250D03*
Y0017250D03*
Y0016250D03*
Y0015250D03*
Y0014250D03*
Y0013250D03*
Y0012250D03*
Y0011250D03*
Y0010250D03*
X-0033200Y0020100D03*
Y0021100D03*
X-0028050Y0027200D03*
Y0026200D03*
Y0025200D03*
Y0024200D03*
Y0023200D03*
Y0022200D03*
Y0021200D03*
Y0020200D03*
Y0019200D03*
Y0018200D03*
Y0017200D03*
Y0016200D03*
Y0015200D03*
Y0014200D03*
Y0013200D03*
Y0012200D03*
Y0011200D03*
Y0010200D03*
G54D21*
X-0023650Y0043650D03*
X-0040000Y0029700D03*
G54D22*
X-0041000Y0016750D03*
Y0044500D03*
X0005750Y0032000D03*
Y0044500D03*
G54D30*
X0002750Y0046750D03*
X-0023500Y0028250D03*
X-0002750D03*
X-0006750D03*
X-0033200Y0019100D03*
X-0028050Y0028200D03*
G54D31*
X-0042150Y0035200D03*
Y0034949D03*
X-0042148Y0034686D03*
X-0042146Y0034423D03*
X-0042147Y0034176D03*
G54D32*
X-0040000Y0028700D03*
Y0012200D03*
Y0011200D03*
X-0036500Y0029700D03*
Y0028700D03*
Y0012200D03*
Y0011200D03*
G54D33*
X-0025500Y0032500D03*
X-0030250Y0032750D03*
M02*
