*
G04 Mass Parameters ***
*
G04 Image ***
*
%IND:\JOBS\UPWORKS\MOTHERBOARD1\MOTHERBOARD1.SST*%
%ICAS*%
%MOIN*%
%IPPOS*%
%ASAXBY*%
G74*%FSLAN2X34Y34*%
*
G04 Aperture Definitions ***
*
%ADD10C,0.0650*%
%ADD11R,0.0650X0.0650*%
%ADD12C,0.0800*%
%ADD13R,0.0800X0.0800*%
%ADD14C,0.0750*%
%ADD15R,0.0750X0.0750*%
%ADD16R,0.0531X0.0157*%
%ADD17C,0.0709*%
%ADD18R,0.0790X0.0790*%
%ADD19R,0.0709X0.0709*%
%ADD20C,0.0700*%
%ADD21R,0.0700X0.0700*%
%ADD22C,0.1380*%
%ADD23C,0.0100*%
%ADD24C,0.0200*%
%ADD25C,0.0500*%
%ADD26C,0.0120*%
%ADD27C,0.0180*%
%ADD28C,0.0080*%
%ADD29C,0.0140*%
%ADD30C,0.0680*%
%ADD31R,0.0157X0.0157*%
%ADD32O,0.0650X0.0790*%
%ADD33C,0.0750*%
%ADD34C,0.0730*%
%ADD35R,0.0730X0.0730*%
%ADD36C,0.0880*%
%ADD37R,0.0880X0.0880*%
%ADD38C,0.0830*%
%ADD39R,0.0830X0.0830*%
%ADD40O,0.0730X0.0870*%
%ADD41R,0.0670X0.0670*%
%ADD42C,0.0780*%
%ADD43R,0.0780X0.0780*%
%ADD44C,0.1980*%
%ADD45C,0.0010*%
%ADD46C,0.0550*%
%ADD47C,0.0157*%
%ADD48C,0.0150*%
%ADD49C,0.0040*%
%ADD50C,0.0050*%
%ADD51C,0.0118*%
*
G04 Plot Data ***
*
G54D23*
G01X-0019708Y0048658D02*
X-0019875D01*
X-0019792D02*
Y0049158D01*
X-0019875Y0049075D01*
X-0007042Y0029458D02*
Y0029625D01*
Y0029542D02*
X-0006542D01*
X-0006625Y0029625D01*
X-0044792Y0044708D02*
Y0044875D01*
Y0044792D02*
X-0044292D01*
X-0044375Y0044875D01*
X-0036942Y0048058D02*
Y0048225D01*
Y0048142D02*
X-0036442D01*
X-0036525Y0048225D01*
X-0040958Y0029408D02*
X-0041125D01*
X-0041042D02*
Y0029908D01*
X-0041125Y0029825D01*
X-0032908Y0018392D02*
Y0018225D01*
Y0018308D02*
X-0033408D01*
X-0033325Y0018225D01*
X-0019708Y0034508D02*
X-0019875D01*
X-0019792D02*
Y0035008D01*
X-0019875Y0034925D01*
X-0028342Y0029408D02*
Y0029575D01*
Y0029492D02*
X-0027842D01*
X-0027925Y0029575D01*
X-0042442Y0036158D02*
Y0036325D01*
Y0036242D02*
X-0041942D01*
X-0042025Y0036325D01*
X-0038650Y0041100D02*
Y0036850D01*
X-0036150D01*
Y0047600D01*
X-0038650D01*
Y0041100D01*
X-0044250Y0044250D02*
Y0040250D01*
X-0046250D01*
Y0044250D01*
X-0044250D01*
G54D26*
G01X-0034229Y0010042D02*
Y0010442D01*
X-0034429Y0010242D02*
X-0034029D01*
X-0033979Y0027442D02*
Y0027842D01*
X-0034179Y0027642D02*
X-0033779D01*
G54D28*
G01X-0016797Y0048867D02*
X-0016863Y0048933D01*
X-0016897Y0049000D01*
Y0049133D01*
X-0016863Y0049200D01*
X-0016797Y0049267D01*
X-0016730D01*
X-0016663Y0049200D01*
X-0016630Y0049133D01*
Y0049000D01*
X-0016663Y0048933D01*
X-0016730Y0048867D01*
X-0016797D01*
X-0017090D02*
X-0017223D01*
X-0017157D02*
Y0049267D01*
X-0017223Y0049200D01*
X-0017717Y0049000D02*
Y0048933D01*
X-0017683Y0048867D01*
X-0017550D01*
X-0017517Y0048933D01*
Y0049267D01*
X-0017483D02*
X-0017617D01*
X-0005353Y0022262D02*
X-0005281Y0022226D01*
X-0005208D01*
X-0005136Y0022262D01*
Y0022479D01*
X-0005208Y0022515D01*
X-0005281D01*
X-0005353Y0022479D01*
Y0022262D01*
X-0005425Y0022226D01*
X-0005497D01*
X-0005569Y0022262D01*
Y0022479D01*
X-0005497Y0022515D01*
X-0005425D01*
X-0005353Y0022479D01*
X-0005425Y0022964D02*
X-0005497D01*
X-0005569Y0022928D01*
Y0022783D01*
X-0005497Y0022747D01*
X-0005136D01*
Y0022711D02*
Y0022856D01*
X-0043747Y0042979D02*
X-0043819Y0042943D01*
Y0042726D01*
X-0043747Y0042690D01*
X-0043603D01*
X-0043531Y0042762D01*
Y0042979D01*
X-0043386D01*
Y0042690D01*
Y0043175D02*
X-0043747D01*
X-0043819Y0043211D01*
Y0043428D01*
X-0043747Y0043464D01*
X-0043386D01*
X-0035733Y0041980D02*
Y0042247D01*
X-0035467Y0041980D01*
X-0035400D01*
X-0035333Y0042013D01*
Y0042213D01*
X-0035400Y0042247D01*
X-0035733Y0042440D02*
Y0042573D01*
Y0042507D02*
X-0035333D01*
X-0035400Y0042573D01*
X-0035600Y0043067D02*
X-0035667D01*
X-0035733Y0043033D01*
Y0042900D01*
X-0035667Y0042867D01*
X-0035333D01*
Y0042833D02*
Y0042967D01*
X-0038690Y0030775D02*
X-0038979D01*
X-0038834Y0031064D01*
X-0038762D01*
Y0030630D01*
X-0039175Y0031064D02*
Y0030703D01*
X-0039211Y0030630D01*
X-0039428D01*
X-0039464Y0030703D01*
Y0031064D01*
X-0016697Y0034717D02*
X-0016830D01*
X-0016763D02*
Y0035117D01*
X-0016830Y0035050D01*
X-0017090Y0034717D02*
X-0017223D01*
X-0017157D02*
Y0035117D01*
X-0017223Y0035050D01*
X-0017717Y0034850D02*
Y0034783D01*
X-0017683Y0034717D01*
X-0017550D01*
X-0017517Y0034783D01*
Y0035117D01*
X-0017483D02*
X-0017617D01*
X-0034275Y0019624D02*
Y0019335D01*
X-0034564Y0019479D01*
Y0019551D01*
X-0034130D01*
X-0034275Y0018886D02*
X-0034203D01*
X-0034130Y0018922D01*
Y0019067D01*
X-0034203Y0019103D01*
X-0034564D01*
Y0019139D02*
Y0018994D01*
X-0034658Y0010889D02*
Y0010667D01*
X-0034880Y0010889D01*
X-0034935D01*
X-0034991Y0010862D01*
Y0010695D01*
X-0034935Y0010667D01*
X-0034713Y0010479D02*
X-0034658Y0010452D01*
Y0010285D01*
X-0034713Y0010257D01*
X-0034935D01*
X-0034991Y0010285D01*
Y0010452D01*
X-0034935Y0010479D01*
X-0032260Y0013658D02*
X-0032149D01*
X-0031926Y0013546D01*
X-0032149Y0013435D01*
X-0032260D01*
X-0032093Y0013053D02*
Y0013220D01*
X-0032038Y0013248D01*
X-0031982D01*
X-0031926Y0013220D01*
Y0013053D01*
X-0031982Y0013025D01*
X-0032038D01*
X-0032260Y0013136D01*
X-0031926Y0012838D02*
Y0012727D01*
Y0012782D02*
X-0032260D01*
X-0032204Y0012727D01*
X-0032260Y0012483D02*
X-0031926Y0012317D01*
X-0032093Y0012045D02*
Y0011879D01*
X-0031926D02*
X-0032260D01*
Y0012101D01*
Y0011691D02*
X-0031982D01*
X-0031926Y0011663D01*
Y0011497D01*
X-0031982Y0011469D01*
X-0032260D01*
X-0031926Y0011142D02*
X-0031982Y0011087D01*
X-0032038Y0011059D01*
X-0032149D01*
X-0032204Y0011087D01*
X-0032260Y0011142D01*
Y0011198D01*
X-0032204Y0011253D01*
X-0032149Y0011281D01*
X-0032038D01*
X-0031982Y0011253D01*
X-0031926Y0011198D01*
Y0011142D01*
Y0010732D02*
X-0031982Y0010677D01*
X-0032038Y0010649D01*
X-0032149D01*
X-0032204Y0010677D01*
X-0032260Y0010732D01*
Y0010788D01*
X-0032204Y0010843D01*
X-0032149Y0010871D01*
X-0032038D01*
X-0031982Y0010843D01*
X-0031926Y0010788D01*
Y0010732D01*
Y0010461D02*
Y0010350D01*
Y0010406D02*
X-0032260D01*
X-0032204Y0010350D01*
X-0034408Y0028234D02*
Y0028123D01*
Y0028178D02*
X-0034741D01*
X-0034685Y0028123D01*
X-0034463Y0027879D02*
X-0034408Y0027852D01*
Y0027685D01*
X-0034463Y0027657D01*
X-0034685D01*
X-0034741Y0027685D01*
Y0027852D01*
X-0034685Y0027879D01*
X-0032010Y0031058D02*
X-0031899D01*
X-0031676Y0030946D01*
X-0031899Y0030835D01*
X-0032010D01*
X-0031843Y0030453D02*
Y0030620D01*
X-0031788Y0030648D01*
X-0031732D01*
X-0031676Y0030620D01*
Y0030453D01*
X-0031732Y0030425D01*
X-0031788D01*
X-0032010Y0030536D01*
X-0031676Y0030238D02*
Y0030127D01*
Y0030182D02*
X-0032010D01*
X-0031954Y0030127D01*
X-0032010Y0029883D02*
X-0031676Y0029717D01*
X-0031843Y0029445D02*
Y0029279D01*
X-0031676D02*
X-0032010D01*
Y0029501D01*
Y0029091D02*
X-0031732D01*
X-0031676Y0029063D01*
Y0028897D01*
X-0031732Y0028869D01*
X-0032010D01*
X-0031676Y0028542D02*
X-0031732Y0028487D01*
X-0031788Y0028459D01*
X-0031899D01*
X-0031954Y0028487D01*
X-0032010Y0028542D01*
Y0028598D01*
X-0031954Y0028653D01*
X-0031899Y0028681D01*
X-0031788D01*
X-0031732Y0028653D01*
X-0031676Y0028598D01*
Y0028542D01*
Y0028132D02*
X-0031732Y0028077D01*
X-0031788Y0028049D01*
X-0031899D01*
X-0031954Y0028077D01*
X-0032010Y0028132D01*
Y0028188D01*
X-0031954Y0028243D01*
X-0031899Y0028271D01*
X-0031788D01*
X-0031732Y0028243D01*
X-0031676Y0028188D01*
Y0028132D01*
Y0027861D02*
Y0027750D01*
Y0027806D02*
X-0032010D01*
X-0031954Y0027750D01*
X-0026797Y0022465D02*
X-0026869Y0022393D01*
Y0022248D01*
X-0026797Y0022176D01*
X-0026725D01*
X-0026581Y0022321D01*
X-0026436Y0022176D01*
Y0022465D01*
X-0026725Y0022914D02*
X-0026797D01*
X-0026869Y0022878D01*
Y0022733D01*
X-0026797Y0022697D01*
X-0026436D01*
Y0022661D02*
Y0022806D01*
X-0041219Y0034143D02*
X-0040786Y0033926D01*
Y0034215D01*
X-0041075Y0034664D02*
X-0041147D01*
X-0041219Y0034628D01*
Y0034483D01*
X-0041147Y0034447D01*
X-0040786D01*
Y0034411D02*
Y0034556D01*
X-0032360Y0011300D02*
X-0034320D01*
X-0032110Y0028700D02*
X-0034070D01*
G01X-0034350Y0011250D02*
G03X-0033350Y0010250I0001000J0000000D01*
Y0012250D02*
G03X-0034350Y0011250I0000000J0001000D01*
G01X-0032350D02*
G03X-0033350Y0012250I0001000J0000000D01*
Y0010250D02*
G03X-0032350Y0011250I0000000J0001000D01*
G01X-0034100Y0028650D02*
G03X-0033100Y0027650I0001000J0000000D01*
Y0029650D02*
G03X-0034100Y0028650I0000000J0001000D01*
G01X-0032100D02*
G03X-0033100Y0029650I0001000J0000000D01*
Y0027650D02*
G03X-0032100Y0028650I0000000J0001000D01*
G54D45*
G01X-0036000Y0030950D02*
X-0046250D01*
Y0009700D01*
X-0035000D01*
Y0013700D01*
X-0036500D01*
Y0027200D01*
X-0035000D01*
Y0030950D01*
X-0036000D01*
G54D47*
G01X-0042163Y0036006D02*
Y0036189D01*
X-0043973D01*
Y0033193D01*
X-0042163D01*
Y0036152D01*
G54D48*
G01X-0020250Y0048200D02*
Y0045950D01*
X0000250D01*
Y0048450D01*
X-0020250D01*
Y0034050D02*
Y0031800D01*
X0000250D01*
Y0034300D01*
X-0020250D01*
X-0006050Y0029050D02*
X-0007450D01*
Y0009550D01*
X-0006050D01*
Y0029050D01*
X-0022650Y0048900D02*
Y0049400D01*
X-0032900D01*
Y0030650D01*
X-0022650D01*
Y0048900D01*
X-0027350Y0029000D02*
X-0028750D01*
Y0009500D01*
X-0027350D01*
Y0029000D01*
G54D49*
G01X-0033350Y0011250D02*
X-0033983Y0010617D01*
X-0032350Y0011250D02*
X-0034350D01*
X-0034100D02*
X-0034285Y0011064D01*
X-0033850Y0011250D02*
X-0034201Y0010899D01*
X-0033600Y0011250D02*
X-0034100Y0010750D01*
X-0032600D02*
X-0032850Y0010500D01*
X-0032350Y0011250D02*
X-0033350Y0010250D01*
X-0032600Y0011250D02*
X-0033535Y0010314D01*
X-0032850Y0011250D02*
X-0033701Y0010399D01*
X-0033100Y0011250D02*
X-0033850Y0010500D01*
X-0033100Y0028650D02*
X-0033733Y0028017D01*
X-0032100Y0028650D02*
X-0034100D01*
X-0033850D02*
X-0034035Y0028464D01*
X-0033600Y0028650D02*
X-0033951Y0028299D01*
X-0033350Y0028650D02*
X-0033850Y0028150D01*
X-0032350D02*
X-0032600Y0027900D01*
X-0032100Y0028650D02*
X-0033100Y0027650D01*
X-0032350Y0028650D02*
X-0033285Y0027714D01*
X-0032600Y0028650D02*
X-0033451Y0027799D01*
X-0032850Y0028650D02*
X-0033600Y0027900D01*
G01X-0034350Y0011250D02*
G03X-0033350Y0010250I0001375J0000375D01*
G03X-0032350Y0011250I0000375J0001375D01*
G01X-0034100Y0028650D02*
G03X-0033100Y0027650I0001375J0000375D01*
G03X-0032100Y0028650I0000375J0001375D01*
G54D50*
G01X-0033700Y0018600D02*
X-0033825D01*
Y0021600D01*
X-0032575D01*
Y0018600D01*
X-0033700D01*
G54D51*
G01X-0025302Y0046044D02*
X-0024646D01*
X-0025302Y0046099D02*
Y0045771D01*
X-0025083Y0045662D01*
X-0024864D01*
X-0024646Y0045771D01*
Y0046099D01*
X-0024974Y0046500D02*
Y0046828D01*
X-0025302Y0046390D02*
Y0046828D01*
X-0024646D01*
Y0046390D01*
X-0025192Y0047119D02*
X-0025302Y0047173D01*
Y0047501D01*
X-0025192Y0047556D01*
X-0024755D01*
X-0024646Y0047501D01*
Y0047173D01*
X-0024755Y0047119D01*
X-0025302Y0047847D02*
Y0048066D01*
Y0047956D02*
X-0024646D01*
Y0047847D02*
Y0048066D01*
Y0048466D02*
X-0025192D01*
X-0025302Y0048521D01*
X-0024974Y0048685D01*
X-0024864D02*
X-0024974D01*
X-0025302Y0048849D01*
X-0025192Y0048904D01*
X-0024646D01*
X-0024302Y0047927D02*
X-0023646Y0047599D01*
Y0048036D01*
Y0048327D02*
X-0024192D01*
X-0024302Y0048382D01*
Y0048710D01*
X-0024192Y0048765D01*
X-0023646D01*
M02*
