%
T1C0.028F200S100
X-030250Y032750
X-025500Y032500
T4C0.038F200S100
X-031650Y034650
X-031650Y035650
X-031650Y036650
X-031650Y037650
X-031650Y038650
X-031650Y039650
X-031650Y040650
X-031650Y041650
X-031650Y042650
X-031650Y043650
X-031650Y044650
X-031650Y045650
X-031650Y046650
X-031650Y047650
X-023650Y043650
T3C0.035F200S100
X-033350Y010750
X-033100Y028150
X-031650Y032650
X-031650Y033650
X-023650Y032650
X-023650Y033650
X-023650Y034650
X-023650Y035650
X-023650Y036650
X-023650Y037650
X-023650Y038650
X-023650Y039650
X-023650Y040650
X-023650Y041650
X-023650Y042650
T2C0.034F200S100
X-033350Y011750
X-033100Y029150
T7C0.042F200S100
X-040000Y029700
X-037900Y037850
X-037900Y038850
X-037900Y039850
X-037900Y040850
X-037900Y041850
X-037900Y042850
X-037900Y043850
X-037900Y044850
X-037900Y045850
X-037900Y046850
X-036900Y037850
X-036900Y038850
X-036900Y039850
X-036900Y040850
X-036900Y041850
X-036900Y042850
X-036900Y043850
X-036900Y044850
X-036900Y045850
X-036900Y046850
X-028050Y028200
X-023500Y028250
X-019500Y032550
X-019500Y033550
X-019500Y046700
X-019500Y047700
X-018500Y032550
X-018500Y033550
X-017500Y032550
X-017500Y033550
X-017500Y046700
X-018500Y046700
X-018500Y047700
X-017500Y047700
X-016500Y032550
X-016500Y033550
X-015500Y032550
X-015500Y033550
X-015500Y046700
X-016500Y046700
X-016500Y047700
X-015500Y047700
X-014500Y032550
X-014500Y033550
X-013500Y032550
X-013500Y033550
X-013500Y046700
X-014500Y046700
X-014500Y047700
X-013500Y047700
X-012500Y032550
X-012500Y033550
X-011500Y032550
X-011500Y033550
X-011500Y046700
X-012500Y046700
X-012500Y047700
X-011500Y047700
X-010500Y032550
X-010500Y033550
X-009500Y032550
X-009500Y033550
X-009500Y046700
X-010500Y046700
X-010500Y047700
X-009500Y047700
X-008500Y032550
X-008500Y033550
X-007500Y032550
X-007500Y033550
X-007500Y046700
X-008500Y046700
X-008500Y047700
X-007500Y047700
X-006750Y028250
X-006500Y032550
X-006500Y033550
X-006500Y046700
X-006500Y047700
X-005500Y032550
X-005500Y033550
X-004500Y032550
X-004500Y033550
X-004500Y046700
X-005500Y046700
X-005500Y047700
X-004500Y047700
X-003500Y032550
X-003500Y033550
X-002750Y028250
X-003500Y046700
X-003500Y047700
X-002500Y032550
X-002500Y033550
X-001500Y032550
X-001500Y033550
X-001500Y046700
X-002500Y046700
X-002500Y047700
X-001500Y047700
X-000500Y032550
X-000500Y033550
X-000500Y046700
X-000500Y047700
X002750Y046750
T6C0.040F200S100
X-033200Y019100
X-033200Y020100
X-033200Y021100
X-028050Y010200
X-028050Y011200
X-028050Y012200
X-028050Y013200
X-028050Y014200
X-028050Y015200
X-028050Y016200
X-028050Y017200
X-028050Y018200
X-028050Y019200
X-028050Y020200
X-028050Y021200
X-028050Y022200
X-028050Y023200
X-028050Y024200
X-028050Y025200
X-028050Y026200
X-028050Y027200
X-023500Y010250
X-023500Y011250
X-023500Y012250
X-023500Y013250
X-023500Y014250
X-023500Y015250
X-023500Y016250
X-023500Y017250
X-023500Y018250
X-023500Y019250
X-023500Y020250
X-023500Y021250
X-023500Y022250
X-023500Y023250
X-023500Y024250
X-023500Y025250
X-023500Y026250
X-023500Y027250
X-011500Y010250
X-011500Y011250
X-011500Y012250
X-011500Y013250
X-011500Y014250
X-011500Y015250
X-011500Y016250
X-011500Y017250
X-011500Y018250
X-011500Y019250
X-011500Y020250
X-011500Y021250
X-011500Y022250
X-011500Y023250
X-011500Y024250
X-011500Y025250
X-011500Y026250
X-011500Y027250
X-011500Y028250
X-006750Y010250
X-006750Y011250
X-006750Y012250
X-006750Y013250
X-006750Y014250
X-006750Y015250
X-006750Y016250
X-006750Y017250
X-006750Y018250
X-006750Y019250
X-006750Y020250
X-006750Y021250
X-006750Y022250
X-006750Y023250
X-006750Y024250
X-006750Y025250
X-006750Y026250
X-006750Y027250
X-002750Y010250
X-002750Y011250
X-002750Y012250
X-002750Y013250
X-002750Y014250
X-002750Y015250
X-002750Y016250
X-002750Y017250
X-002750Y018250
X-002750Y019250
X-002750Y020250
X-002750Y021250
X-002750Y022250
X-002750Y023250
X-002750Y024250
X-002750Y025250
X-002750Y026250
X-002750Y027250
X002750Y035750
X002750Y036750
X002750Y037750
X002750Y038750
X002750Y039750
X002750Y040750
X002750Y041750
X002750Y042750
X002750Y043750
X002750Y044750
X002750Y045750
X008750Y035750
X008750Y036750
X008750Y037750
X008750Y038750
X008750Y039750
X008750Y040750
X008750Y041750
X008750Y042750
X008750Y043750
X008750Y044750
X008750Y045750
X008750Y046750
X009250Y010250
X009250Y011250
X009250Y012250
X009250Y013250
X009250Y014250
X009250Y015250
X009250Y016250
X009250Y017250
X009250Y018250
X009250Y019250
X009250Y020250
X009250Y021250
X009250Y022250
X009250Y023250
X009250Y024250
X009250Y025250
X009250Y026250
X009250Y027250
X009250Y028250
T5C0.039F200S100
X-045750Y040750
X-045750Y041750
X-045750Y042750
X-045750Y043750
X-044750Y040750
X-044750Y041750
X-044750Y042750
X-044750Y043750
X-040000Y011200
X-040000Y012200
X-036500Y011200
X-036500Y012200
X-036500Y028700
X-036500Y029700
X-040000Y028700
T8C0.118F200S100
X-041000Y016750
X-041000Y044500
X005750Y032000
X005750Y044500
M30
