%FSAX24Y24*%
%MOIN*%
G70*
G01*
G75*
G04 Layer_Color=8388736*
G04:AMPARAMS|DCode=10|XSize=59.1mil|YSize=51.2mil|CornerRadius=12.8mil|HoleSize=0mil|Usage=FLASHONLY|Rotation=180.000|XOffset=0mil|YOffset=0mil|HoleType=Round|Shape=RoundedRectangle|*
%AMROUNDEDRECTD10*
21,1,0.0591,0.0256,0,0,180.0*
21,1,0.0335,0.0512,0,0,180.0*
1,1,0.0256,-0.0167,0.0128*
1,1,0.0256,0.0167,0.0128*
1,1,0.0256,0.0167,-0.0128*
1,1,0.0256,-0.0167,-0.0128*
%
%ADD10ROUNDEDRECTD10*%
%ADD11O,0.0236X0.0827*%
G04:AMPARAMS|DCode=12|XSize=17.7mil|YSize=43.3mil|CornerRadius=4.4mil|HoleSize=0mil|Usage=FLASHONLY|Rotation=180.000|XOffset=0mil|YOffset=0mil|HoleType=Round|Shape=RoundedRectangle|*
%AMROUNDEDRECTD12*
21,1,0.0177,0.0344,0,0,180.0*
21,1,0.0089,0.0433,0,0,180.0*
1,1,0.0089,-0.0044,0.0172*
1,1,0.0089,0.0044,0.0172*
1,1,0.0089,0.0044,-0.0172*
1,1,0.0089,-0.0044,-0.0172*
%
%ADD12ROUNDEDRECTD12*%
G04:AMPARAMS|DCode=13|XSize=84.6mil|YSize=84.6mil|CornerRadius=4.2mil|HoleSize=0mil|Usage=FLASHONLY|Rotation=90.000|XOffset=0mil|YOffset=0mil|HoleType=Round|Shape=RoundedRectangle|*
%AMROUNDEDRECTD13*
21,1,0.0846,0.0762,0,0,90.0*
21,1,0.0762,0.0846,0,0,90.0*
1,1,0.0085,0.0381,0.0381*
1,1,0.0085,0.0381,-0.0381*
1,1,0.0085,-0.0381,-0.0381*
1,1,0.0085,-0.0381,0.0381*
%
%ADD13ROUNDEDRECTD13*%
G04:AMPARAMS|DCode=14|XSize=17.7mil|YSize=43.3mil|CornerRadius=4.4mil|HoleSize=0mil|Usage=FLASHONLY|Rotation=270.000|XOffset=0mil|YOffset=0mil|HoleType=Round|Shape=RoundedRectangle|*
%AMROUNDEDRECTD14*
21,1,0.0177,0.0344,0,0,270.0*
21,1,0.0089,0.0433,0,0,270.0*
1,1,0.0089,-0.0172,-0.0044*
1,1,0.0089,-0.0172,0.0044*
1,1,0.0089,0.0172,0.0044*
1,1,0.0089,0.0172,-0.0044*
%
%ADD14ROUNDEDRECTD14*%
G04:AMPARAMS|DCode=15|XSize=39.4mil|YSize=39.4mil|CornerRadius=9.8mil|HoleSize=0mil|Usage=FLASHONLY|Rotation=0.000|XOffset=0mil|YOffset=0mil|HoleType=Round|Shape=RoundedRectangle|*
%AMROUNDEDRECTD15*
21,1,0.0394,0.0197,0,0,0.0*
21,1,0.0197,0.0394,0,0,0.0*
1,1,0.0197,0.0098,-0.0098*
1,1,0.0197,-0.0098,-0.0098*
1,1,0.0197,-0.0098,0.0098*
1,1,0.0197,0.0098,0.0098*
%
%ADD15ROUNDEDRECTD15*%
G04:AMPARAMS|DCode=16|XSize=39.4mil|YSize=39.4mil|CornerRadius=9.8mil|HoleSize=0mil|Usage=FLASHONLY|Rotation=90.000|XOffset=0mil|YOffset=0mil|HoleType=Round|Shape=RoundedRectangle|*
%AMROUNDEDRECTD16*
21,1,0.0394,0.0197,0,0,90.0*
21,1,0.0197,0.0394,0,0,90.0*
1,1,0.0197,0.0098,0.0098*
1,1,0.0197,0.0098,-0.0098*
1,1,0.0197,-0.0098,-0.0098*
1,1,0.0197,-0.0098,0.0098*
%
%ADD16ROUNDEDRECTD16*%
G04:AMPARAMS|DCode=17|XSize=59.1mil|YSize=51.2mil|CornerRadius=12.8mil|HoleSize=0mil|Usage=FLASHONLY|Rotation=270.000|XOffset=0mil|YOffset=0mil|HoleType=Round|Shape=RoundedRectangle|*
%AMROUNDEDRECTD17*
21,1,0.0591,0.0256,0,0,270.0*
21,1,0.0335,0.0512,0,0,270.0*
1,1,0.0256,-0.0128,-0.0167*
1,1,0.0256,-0.0128,0.0167*
1,1,0.0256,0.0128,0.0167*
1,1,0.0256,0.0128,-0.0167*
%
%ADD17ROUNDEDRECTD17*%
G04:AMPARAMS|DCode=18|XSize=32mil|YSize=40mil|CornerRadius=4mil|HoleSize=0mil|Usage=FLASHONLY|Rotation=90.000|XOffset=0mil|YOffset=0mil|HoleType=Round|Shape=RoundedRectangle|*
%AMROUNDEDRECTD18*
21,1,0.0320,0.0320,0,0,90.0*
21,1,0.0240,0.0400,0,0,90.0*
1,1,0.0080,0.0160,0.0120*
1,1,0.0080,0.0160,-0.0120*
1,1,0.0080,-0.0160,-0.0120*
1,1,0.0080,-0.0160,0.0120*
%
%ADD18ROUNDEDRECTD18*%
G04:AMPARAMS|DCode=19|XSize=32mil|YSize=40mil|CornerRadius=4mil|HoleSize=0mil|Usage=FLASHONLY|Rotation=0.000|XOffset=0mil|YOffset=0mil|HoleType=Round|Shape=RoundedRectangle|*
%AMROUNDEDRECTD19*
21,1,0.0320,0.0320,0,0,0.0*
21,1,0.0240,0.0400,0,0,0.0*
1,1,0.0080,0.0120,-0.0160*
1,1,0.0080,-0.0120,-0.0160*
1,1,0.0080,-0.0120,0.0160*
1,1,0.0080,0.0120,0.0160*
%
%ADD19ROUNDEDRECTD19*%
G04:AMPARAMS|DCode=20|XSize=70.9mil|YSize=65mil|CornerRadius=4.9mil|HoleSize=0mil|Usage=FLASHONLY|Rotation=0.000|XOffset=0mil|YOffset=0mil|HoleType=Round|Shape=RoundedRectangle|*
%AMROUNDEDRECTD20*
21,1,0.0709,0.0552,0,0,0.0*
21,1,0.0611,0.0650,0,0,0.0*
1,1,0.0097,0.0306,-0.0276*
1,1,0.0097,-0.0306,-0.0276*
1,1,0.0097,-0.0306,0.0276*
1,1,0.0097,0.0306,0.0276*
%
%ADD20ROUNDEDRECTD20*%
%ADD21R,0.0630X0.1929*%
%ADD22R,0.0276X0.0925*%
%ADD23R,0.0512X0.0354*%
%ADD24R,0.0748X0.0354*%
%ADD25R,0.1063X0.0669*%
%ADD26C,0.0118*%
%ADD27C,0.0100*%
%ADD28C,0.0079*%
%ADD29C,0.0197*%
%ADD30R,0.0591X0.0256*%
%ADD31R,0.0394X0.0217*%
%ADD32R,0.0217X0.0394*%
%ADD33R,0.0256X0.0591*%
%ADD34C,0.0600*%
%ADD35R,0.0600X0.0600*%
%ADD36C,0.0591*%
G04:AMPARAMS|DCode=37|XSize=63mil|YSize=63mil|CornerRadius=7.9mil|HoleSize=0mil|Usage=FLASHONLY|Rotation=270.000|XOffset=0mil|YOffset=0mil|HoleType=Round|Shape=RoundedRectangle|*
%AMROUNDEDRECTD37*
21,1,0.0630,0.0472,0,0,270.0*
21,1,0.0472,0.0630,0,0,270.0*
1,1,0.0157,-0.0236,-0.0236*
1,1,0.0157,-0.0236,0.0236*
1,1,0.0157,0.0236,0.0236*
1,1,0.0157,0.0236,-0.0236*
%
%ADD37ROUNDEDRECTD37*%
%ADD38C,0.0630*%
G04:AMPARAMS|DCode=39|XSize=59.1mil|YSize=59.1mil|CornerRadius=14.8mil|HoleSize=0mil|Usage=FLASHONLY|Rotation=180.000|XOffset=0mil|YOffset=0mil|HoleType=Round|Shape=RoundedRectangle|*
%AMROUNDEDRECTD39*
21,1,0.0591,0.0295,0,0,180.0*
21,1,0.0295,0.0591,0,0,180.0*
1,1,0.0295,-0.0148,0.0148*
1,1,0.0295,0.0148,0.0148*
1,1,0.0295,0.0148,-0.0148*
1,1,0.0295,-0.0148,-0.0148*
%
%ADD39ROUNDEDRECTD39*%
G04:AMPARAMS|DCode=40|XSize=70.9mil|YSize=70.9mil|CornerRadius=17.7mil|HoleSize=0mil|Usage=FLASHONLY|Rotation=180.000|XOffset=0mil|YOffset=0mil|HoleType=Round|Shape=RoundedRectangle|*
%AMROUNDEDRECTD40*
21,1,0.0709,0.0354,0,0,180.0*
21,1,0.0354,0.0709,0,0,180.0*
1,1,0.0354,-0.0177,0.0177*
1,1,0.0354,0.0177,0.0177*
1,1,0.0354,0.0177,-0.0177*
1,1,0.0354,-0.0177,-0.0177*
%
%ADD40ROUNDEDRECTD40*%
%ADD41C,0.0709*%
%ADD42C,0.0256*%
%ADD43C,0.0098*%
%ADD44C,0.0059*%
%ADD45C,0.0039*%
%ADD46R,0.0551X0.0472*%
%ADD47R,0.0226X0.0581*%
%ADD48R,0.0374X0.0384*%
%ADD49R,0.0384X0.0374*%
%ADD50R,0.0472X0.0551*%
%ADD51R,0.0394X0.0315*%
%ADD52R,0.0315X0.0394*%
%ADD53R,0.0669X0.0620*%
G04:AMPARAMS|DCode=54|XSize=21.7mil|YSize=47.2mil|CornerRadius=6.4mil|HoleSize=0mil|Usage=FLASHONLY|Rotation=180.000|XOffset=0mil|YOffset=0mil|HoleType=Round|Shape=RoundedRectangle|*
%AMROUNDEDRECTD54*
21,1,0.0217,0.0344,0,0,180.0*
21,1,0.0089,0.0472,0,0,180.0*
1,1,0.0128,-0.0044,0.0172*
1,1,0.0128,0.0044,0.0172*
1,1,0.0128,0.0044,-0.0172*
1,1,0.0128,-0.0044,-0.0172*
%
%ADD54ROUNDEDRECTD54*%
G04:AMPARAMS|DCode=55|XSize=88.6mil|YSize=88.6mil|CornerRadius=6.2mil|HoleSize=0mil|Usage=FLASHONLY|Rotation=90.000|XOffset=0mil|YOffset=0mil|HoleType=Round|Shape=RoundedRectangle|*
%AMROUNDEDRECTD55*
21,1,0.0886,0.0762,0,0,90.0*
21,1,0.0762,0.0886,0,0,90.0*
1,1,0.0124,0.0381,0.0381*
1,1,0.0124,0.0381,-0.0381*
1,1,0.0124,-0.0381,-0.0381*
1,1,0.0124,-0.0381,0.0381*
%
%ADD55ROUNDEDRECTD55*%
G04:AMPARAMS|DCode=56|XSize=21.7mil|YSize=47.2mil|CornerRadius=6.4mil|HoleSize=0mil|Usage=FLASHONLY|Rotation=270.000|XOffset=0mil|YOffset=0mil|HoleType=Round|Shape=RoundedRectangle|*
%AMROUNDEDRECTD56*
21,1,0.0217,0.0344,0,0,270.0*
21,1,0.0089,0.0472,0,0,270.0*
1,1,0.0128,-0.0172,-0.0044*
1,1,0.0128,-0.0172,0.0044*
1,1,0.0128,0.0172,0.0044*
1,1,0.0128,0.0172,-0.0044*
%
%ADD56ROUNDEDRECTD56*%
%ADD57R,0.0669X0.1969*%
%ADD58R,0.0315X0.0965*%
%ADD59R,0.0551X0.0394*%
%ADD60R,0.0787X0.0394*%
%ADD61R,0.1102X0.0709*%
G04:AMPARAMS|DCode=62|XSize=67.1mil|YSize=59.2mil|CornerRadius=16.8mil|HoleSize=0mil|Usage=FLASHONLY|Rotation=180.000|XOffset=0mil|YOffset=0mil|HoleType=Round|Shape=RoundedRectangle|*
%AMROUNDEDRECTD62*
21,1,0.0671,0.0256,0,0,180.0*
21,1,0.0335,0.0592,0,0,180.0*
1,1,0.0336,-0.0167,0.0128*
1,1,0.0336,0.0167,0.0128*
1,1,0.0336,0.0167,-0.0128*
1,1,0.0336,-0.0167,-0.0128*
%
%ADD62ROUNDEDRECTD62*%
%ADD63O,0.0316X0.0907*%
G04:AMPARAMS|DCode=64|XSize=25.7mil|YSize=51.3mil|CornerRadius=8.4mil|HoleSize=0mil|Usage=FLASHONLY|Rotation=180.000|XOffset=0mil|YOffset=0mil|HoleType=Round|Shape=RoundedRectangle|*
%AMROUNDEDRECTD64*
21,1,0.0257,0.0344,0,0,180.0*
21,1,0.0089,0.0513,0,0,180.0*
1,1,0.0169,-0.0044,0.0172*
1,1,0.0169,0.0044,0.0172*
1,1,0.0169,0.0044,-0.0172*
1,1,0.0169,-0.0044,-0.0172*
%
%ADD64ROUNDEDRECTD64*%
G04:AMPARAMS|DCode=65|XSize=92.6mil|YSize=92.6mil|CornerRadius=8.2mil|HoleSize=0mil|Usage=FLASHONLY|Rotation=90.000|XOffset=0mil|YOffset=0mil|HoleType=Round|Shape=RoundedRectangle|*
%AMROUNDEDRECTD65*
21,1,0.0926,0.0762,0,0,90.0*
21,1,0.0762,0.0926,0,0,90.0*
1,1,0.0165,0.0381,0.0381*
1,1,0.0165,0.0381,-0.0381*
1,1,0.0165,-0.0381,-0.0381*
1,1,0.0165,-0.0381,0.0381*
%
%ADD65ROUNDEDRECTD65*%
G04:AMPARAMS|DCode=66|XSize=25.7mil|YSize=51.3mil|CornerRadius=8.4mil|HoleSize=0mil|Usage=FLASHONLY|Rotation=270.000|XOffset=0mil|YOffset=0mil|HoleType=Round|Shape=RoundedRectangle|*
%AMROUNDEDRECTD66*
21,1,0.0257,0.0344,0,0,270.0*
21,1,0.0089,0.0513,0,0,270.0*
1,1,0.0169,-0.0172,-0.0044*
1,1,0.0169,-0.0172,0.0044*
1,1,0.0169,0.0172,0.0044*
1,1,0.0169,0.0172,-0.0044*
%
%ADD66ROUNDEDRECTD66*%
G04:AMPARAMS|DCode=67|XSize=45.4mil|YSize=45.4mil|CornerRadius=12.8mil|HoleSize=0mil|Usage=FLASHONLY|Rotation=0.000|XOffset=0mil|YOffset=0mil|HoleType=Round|Shape=RoundedRectangle|*
%AMROUNDEDRECTD67*
21,1,0.0454,0.0197,0,0,0.0*
21,1,0.0197,0.0454,0,0,0.0*
1,1,0.0257,0.0098,-0.0098*
1,1,0.0257,-0.0098,-0.0098*
1,1,0.0257,-0.0098,0.0098*
1,1,0.0257,0.0098,0.0098*
%
%ADD67ROUNDEDRECTD67*%
G04:AMPARAMS|DCode=68|XSize=45.4mil|YSize=45.4mil|CornerRadius=12.8mil|HoleSize=0mil|Usage=FLASHONLY|Rotation=90.000|XOffset=0mil|YOffset=0mil|HoleType=Round|Shape=RoundedRectangle|*
%AMROUNDEDRECTD68*
21,1,0.0454,0.0197,0,0,90.0*
21,1,0.0197,0.0454,0,0,90.0*
1,1,0.0257,0.0098,0.0098*
1,1,0.0257,0.0098,-0.0098*
1,1,0.0257,-0.0098,-0.0098*
1,1,0.0257,-0.0098,0.0098*
%
%ADD68ROUNDEDRECTD68*%
G04:AMPARAMS|DCode=69|XSize=67.1mil|YSize=59.2mil|CornerRadius=16.8mil|HoleSize=0mil|Usage=FLASHONLY|Rotation=270.000|XOffset=0mil|YOffset=0mil|HoleType=Round|Shape=RoundedRectangle|*
%AMROUNDEDRECTD69*
21,1,0.0671,0.0256,0,0,270.0*
21,1,0.0335,0.0592,0,0,270.0*
1,1,0.0336,-0.0128,-0.0167*
1,1,0.0336,-0.0128,0.0167*
1,1,0.0336,0.0128,0.0167*
1,1,0.0336,0.0128,-0.0167*
%
%ADD69ROUNDEDRECTD69*%
G04:AMPARAMS|DCode=70|XSize=40mil|YSize=48mil|CornerRadius=8mil|HoleSize=0mil|Usage=FLASHONLY|Rotation=90.000|XOffset=0mil|YOffset=0mil|HoleType=Round|Shape=RoundedRectangle|*
%AMROUNDEDRECTD70*
21,1,0.0400,0.0320,0,0,90.0*
21,1,0.0240,0.0480,0,0,90.0*
1,1,0.0160,0.0160,0.0120*
1,1,0.0160,0.0160,-0.0120*
1,1,0.0160,-0.0160,-0.0120*
1,1,0.0160,-0.0160,0.0120*
%
%ADD70ROUNDEDRECTD70*%
G04:AMPARAMS|DCode=71|XSize=40mil|YSize=48mil|CornerRadius=8mil|HoleSize=0mil|Usage=FLASHONLY|Rotation=0.000|XOffset=0mil|YOffset=0mil|HoleType=Round|Shape=RoundedRectangle|*
%AMROUNDEDRECTD71*
21,1,0.0400,0.0320,0,0,0.0*
21,1,0.0240,0.0480,0,0,0.0*
1,1,0.0160,0.0120,-0.0160*
1,1,0.0160,-0.0120,-0.0160*
1,1,0.0160,-0.0120,0.0160*
1,1,0.0160,0.0120,0.0160*
%
%ADD71ROUNDEDRECTD71*%
G04:AMPARAMS|DCode=72|XSize=78.9mil|YSize=73mil|CornerRadius=8.9mil|HoleSize=0mil|Usage=FLASHONLY|Rotation=0.000|XOffset=0mil|YOffset=0mil|HoleType=Round|Shape=RoundedRectangle|*
%AMROUNDEDRECTD72*
21,1,0.0789,0.0552,0,0,0.0*
21,1,0.0611,0.0730,0,0,0.0*
1,1,0.0177,0.0306,-0.0276*
1,1,0.0177,-0.0306,-0.0276*
1,1,0.0177,-0.0306,0.0276*
1,1,0.0177,0.0306,0.0276*
%
%ADD72ROUNDEDRECTD72*%
%ADD73R,0.0710X0.2009*%
%ADD74R,0.0356X0.1005*%
%ADD75R,0.0592X0.0434*%
%ADD76R,0.0828X0.0434*%
%ADD77R,0.1143X0.0749*%
%ADD78R,0.0671X0.0336*%
%ADD79R,0.0454X0.0277*%
%ADD80R,0.0277X0.0454*%
%ADD81R,0.0336X0.0671*%
%ADD82C,0.0680*%
%ADD83R,0.0680X0.0680*%
%ADD84C,0.0671*%
G04:AMPARAMS|DCode=85|XSize=71mil|YSize=71mil|CornerRadius=11.9mil|HoleSize=0mil|Usage=FLASHONLY|Rotation=270.000|XOffset=0mil|YOffset=0mil|HoleType=Round|Shape=RoundedRectangle|*
%AMROUNDEDRECTD85*
21,1,0.0710,0.0472,0,0,270.0*
21,1,0.0472,0.0710,0,0,270.0*
1,1,0.0237,-0.0236,-0.0236*
1,1,0.0237,-0.0236,0.0236*
1,1,0.0237,0.0236,0.0236*
1,1,0.0237,0.0236,-0.0236*
%
%ADD85ROUNDEDRECTD85*%
%ADD86C,0.0710*%
G04:AMPARAMS|DCode=87|XSize=67.1mil|YSize=67.1mil|CornerRadius=18.8mil|HoleSize=0mil|Usage=FLASHONLY|Rotation=180.000|XOffset=0mil|YOffset=0mil|HoleType=Round|Shape=RoundedRectangle|*
%AMROUNDEDRECTD87*
21,1,0.0671,0.0295,0,0,180.0*
21,1,0.0295,0.0671,0,0,180.0*
1,1,0.0375,-0.0148,0.0148*
1,1,0.0375,0.0148,0.0148*
1,1,0.0375,0.0148,-0.0148*
1,1,0.0375,-0.0148,-0.0148*
%
%ADD87ROUNDEDRECTD87*%
G04:AMPARAMS|DCode=88|XSize=78.9mil|YSize=78.9mil|CornerRadius=21.7mil|HoleSize=0mil|Usage=FLASHONLY|Rotation=180.000|XOffset=0mil|YOffset=0mil|HoleType=Round|Shape=RoundedRectangle|*
%AMROUNDEDRECTD88*
21,1,0.0789,0.0354,0,0,180.0*
21,1,0.0354,0.0789,0,0,180.0*
1,1,0.0434,-0.0177,0.0177*
1,1,0.0434,0.0177,0.0177*
1,1,0.0434,0.0177,-0.0177*
1,1,0.0434,-0.0177,-0.0177*
%
%ADD88ROUNDEDRECTD88*%
%ADD89C,0.0789*%
%ADD90C,0.0336*%
D62*
X048091Y029350D02*
D03*
Y028602D02*
D03*
X044606Y029272D02*
D03*
Y028524D02*
D03*
X041526Y036732D02*
D03*
Y037480D02*
D03*
X051181Y036732D02*
D03*
Y037480D02*
D03*
X042500Y036732D02*
D03*
Y037480D02*
D03*
X050217Y036732D02*
D03*
Y037480D02*
D03*
X043465Y036722D02*
D03*
Y037470D02*
D03*
X049232Y036732D02*
D03*
Y037480D02*
D03*
X050669Y042461D02*
D03*
Y043209D02*
D03*
X046900Y038730D02*
D03*
Y039478D02*
D03*
D63*
X048167Y042461D02*
D03*
X048667D02*
D03*
X049167D02*
D03*
X049667D02*
D03*
X048167Y044390D02*
D03*
X048667D02*
D03*
X049167D02*
D03*
X049667D02*
D03*
X043974Y039793D02*
D03*
X044474D02*
D03*
X044974D02*
D03*
X045474D02*
D03*
X043974Y041722D02*
D03*
X044474D02*
D03*
X044974D02*
D03*
X045474D02*
D03*
D64*
X049970Y038992D02*
D03*
X050285D02*
D03*
X050600D02*
D03*
X049970Y040472D02*
D03*
X050285D02*
D03*
X050600D02*
D03*
X046998Y036217D02*
D03*
X047313D02*
D03*
X047628D02*
D03*
X046998Y037697D02*
D03*
X047313D02*
D03*
X047628D02*
D03*
D65*
X050285Y039732D02*
D03*
X047313Y036957D02*
D03*
D66*
X051026Y040047D02*
D03*
Y039732D02*
D03*
Y039417D02*
D03*
X049545D02*
D03*
Y039732D02*
D03*
Y040047D02*
D03*
X048053Y037272D02*
D03*
Y036957D02*
D03*
Y036642D02*
D03*
X046573D02*
D03*
Y036957D02*
D03*
Y037272D02*
D03*
D67*
X051476Y040896D02*
D03*
Y041565D02*
D03*
X046358Y028829D02*
D03*
Y028159D02*
D03*
D68*
X047717Y035305D02*
D03*
X047047D02*
D03*
X045896Y035463D02*
D03*
X045226D02*
D03*
X048760Y039439D02*
D03*
X048091D02*
D03*
X045896Y036033D02*
D03*
X045226D02*
D03*
D69*
X044803Y030266D02*
D03*
X045551D02*
D03*
X048110D02*
D03*
X047362D02*
D03*
X048760Y041132D02*
D03*
X048012D02*
D03*
X045827Y038661D02*
D03*
X045079D02*
D03*
X045846Y037717D02*
D03*
X045098D02*
D03*
X045020Y036772D02*
D03*
X045768D02*
D03*
X048002Y040207D02*
D03*
X048750D02*
D03*
D70*
X046174Y044341D02*
D03*
X047134Y044715D02*
D03*
Y043967D02*
D03*
X041833Y043593D02*
D03*
Y042844D02*
D03*
X042793Y043218D02*
D03*
D71*
X042667Y042163D02*
D03*
X043041Y041203D02*
D03*
X042293D02*
D03*
D72*
X041693Y040138D02*
D03*
Y039035D02*
D03*
X042835Y040167D02*
D03*
Y039065D02*
D03*
D73*
X042028Y046083D02*
D03*
X045374D02*
D03*
D74*
X043701Y046703D02*
D03*
D75*
X043705Y044301D02*
D03*
Y043120D02*
D03*
D76*
X043823Y043711D02*
D03*
D77*
X044728D02*
D03*
D78*
X048091Y029222D02*
D03*
Y028730D02*
D03*
X044606Y029144D02*
D03*
Y028652D02*
D03*
X041526Y036860D02*
D03*
Y037352D02*
D03*
X051181Y036860D02*
D03*
Y037352D02*
D03*
X042500Y036860D02*
D03*
Y037352D02*
D03*
X050217Y036860D02*
D03*
Y037352D02*
D03*
X043465Y036850D02*
D03*
Y037343D02*
D03*
X049232Y036860D02*
D03*
Y037352D02*
D03*
X050669Y042589D02*
D03*
Y043081D02*
D03*
X046900Y038858D02*
D03*
Y039350D02*
D03*
D79*
X051476Y041457D02*
D03*
Y041004D02*
D03*
X046358Y028268D02*
D03*
Y028720D02*
D03*
D80*
X047156Y035305D02*
D03*
X047608D02*
D03*
X045335Y035463D02*
D03*
X045787D02*
D03*
X048199Y039439D02*
D03*
X048652D02*
D03*
X045335Y036033D02*
D03*
X045787D02*
D03*
D81*
X044931Y030266D02*
D03*
X045423D02*
D03*
X047982D02*
D03*
X047490D02*
D03*
X048632Y041132D02*
D03*
X048140D02*
D03*
X045699Y038661D02*
D03*
X045207D02*
D03*
X045718Y037717D02*
D03*
X045226D02*
D03*
X045148Y036772D02*
D03*
X045640D02*
D03*
X048130Y040207D02*
D03*
X048622D02*
D03*
D82*
X052362Y029346D02*
D03*
Y030346D02*
D03*
Y031346D02*
D03*
Y032346D02*
D03*
Y033346D02*
D03*
Y034346D02*
D03*
Y035346D02*
D03*
Y036346D02*
D03*
Y037346D02*
D03*
Y038346D02*
D03*
Y039346D02*
D03*
Y040346D02*
D03*
Y041346D02*
D03*
Y042346D02*
D03*
Y043346D02*
D03*
Y044346D02*
D03*
Y045346D02*
D03*
Y046346D02*
D03*
X040354Y029346D02*
D03*
Y030346D02*
D03*
Y031346D02*
D03*
Y032346D02*
D03*
Y033346D02*
D03*
Y034346D02*
D03*
Y035346D02*
D03*
Y036346D02*
D03*
Y037346D02*
D03*
Y038346D02*
D03*
Y039346D02*
D03*
Y040346D02*
D03*
Y041346D02*
D03*
Y042346D02*
D03*
Y043346D02*
D03*
Y044346D02*
D03*
Y045346D02*
D03*
Y046346D02*
D03*
D83*
X052362Y028346D02*
D03*
X040354D02*
D03*
D84*
X051083Y035543D02*
D03*
Y034543D02*
D03*
Y033543D02*
D03*
Y032543D02*
D03*
Y029543D02*
D03*
Y028543D02*
D03*
X046638Y046555D02*
D03*
X043602Y035528D02*
D03*
Y034528D02*
D03*
Y033528D02*
D03*
Y032528D02*
D03*
Y029528D02*
D03*
Y028528D02*
D03*
D85*
X044776Y034325D02*
D03*
X046941D02*
D03*
D86*
X045776D02*
D03*
X044776Y033325D02*
D03*
X045776D02*
D03*
X044776Y032325D02*
D03*
X045776D02*
D03*
X044776Y031325D02*
D03*
X045776D02*
D03*
X047941Y034325D02*
D03*
X046941Y033325D02*
D03*
X047941D02*
D03*
X046941Y032325D02*
D03*
X047941D02*
D03*
X046941Y031325D02*
D03*
X047941D02*
D03*
D87*
X047638Y046555D02*
D03*
D88*
X051000Y046654D02*
D03*
D89*
X050000D02*
D03*
X049000D02*
D03*
D90*
X050010Y040008D02*
D03*
Y039457D02*
D03*
X050561D02*
D03*
Y040008D02*
D03*
X047037Y037232D02*
D03*
Y036681D02*
D03*
X047589D02*
D03*
Y037232D02*
D03*
M02*
