<?xml version="1.0" encoding="UTF-8" standalone="no"?>
<!DOCTYPE svg PUBLIC "-//W3C//DTD SVG 1.1//EN"
 "http://www.w3.org/Graphics/SVG/1.1/DTD/svg11.dtd">
<!-- Generated by graphviz version 2.38.0 (20140413.2041)
 -->
<!-- Title: %3 Pages: 1 -->
<svg width="609pt" height="548pt"
 viewBox="0.00 0.00 608.64 548.00" xmlns="http://www.w3.org/2000/svg" xmlns:xlink="http://www.w3.org/1999/xlink">
<g id="graph0" class="graph" transform="scale(1 1) rotate(0) translate(4 544)">
<title>%3</title>
<polygon fill="white" stroke="none" points="-4,4 -4,-544 604.638,-544 604.638,4 -4,4"/>
<!-- Raw Signal -->
<g id="node1" class="node"><title>Raw Signal</title>
<ellipse fill="none" stroke="black" cx="341.694" cy="-450" rx="51.9908" ry="18"/>
<text text-anchor="middle" x="341.694" y="-446.3" font-family="Times,serif" font-size="14.00">Raw Signal</text>
</g>
<!-- ITF&#45;12_RPIn -->
<g id="node2" class="node"><title>ITF&#45;12_RPIn</title>
<ellipse fill="none" stroke="black" cx="208.694" cy="-378" rx="57.6901" ry="18"/>
<text text-anchor="middle" x="208.694" y="-374.3" font-family="Times,serif" font-size="14.00">ITF&#45;12_RPIn</text>
</g>
<!-- Raw Signal&#45;&gt;ITF&#45;12_RPIn -->
<g id="edge1" class="edge"><title>Raw Signal&#45;&gt;ITF&#45;12_RPIn</title>
<path fill="none" stroke="black" d="M314.459,-434.666C294.642,-424.236 267.579,-409.992 245.789,-398.524"/>
<polygon fill="black" stroke="black" points="247.289,-395.358 236.81,-393.798 244.029,-401.552 247.289,-395.358"/>
</g>
<!-- Onboard header -->
<g id="node8" class="node"><title>Onboard header</title>
<ellipse fill="none" stroke="black" cx="351.694" cy="-378" rx="67.6881" ry="18"/>
<text text-anchor="middle" x="351.694" y="-374.3" font-family="Times,serif" font-size="14.00">Onboard header</text>
</g>
<!-- Raw Signal&#45;&gt;Onboard header -->
<g id="edge7" class="edge"><title>Raw Signal&#45;&gt;Onboard header</title>
<path fill="none" stroke="black" d="M344.166,-431.697C345.268,-423.983 346.593,-414.712 347.821,-406.112"/>
<polygon fill="black" stroke="black" points="351.301,-406.499 349.251,-396.104 344.372,-405.509 351.301,-406.499"/>
</g>
<!-- Selector -->
<g id="node3" class="node"><title>Selector</title>
<ellipse fill="none" stroke="black" cx="408.694" cy="-306" rx="39.7935" ry="18"/>
<text text-anchor="middle" x="408.694" y="-302.3" font-family="Times,serif" font-size="14.00">Selector</text>
</g>
<!-- ITF&#45;12_RPIn&#45;&gt;Selector -->
<g id="edge2" class="edge"><title>ITF&#45;12_RPIn&#45;&gt;Selector</title>
<path fill="none" stroke="black" d="M245.844,-363.998C280.745,-351.782 332.823,-333.555 368.64,-321.019"/>
<polygon fill="black" stroke="black" points="370.001,-324.251 378.283,-317.644 367.688,-317.644 370.001,-324.251"/>
</g>
<!-- ADC -->
<g id="node4" class="node"><title>ADC</title>
<ellipse fill="none" stroke="black" cx="470.694" cy="-234" rx="29.4969" ry="18"/>
<text text-anchor="middle" x="470.694" y="-230.3" font-family="Times,serif" font-size="14.00">ADC</text>
</g>
<!-- Selector&#45;&gt;ADC -->
<g id="edge3" class="edge"><title>Selector&#45;&gt;ADC</title>
<path fill="none" stroke="black" d="M422.763,-289.116C430.882,-279.949 441.237,-268.259 450.242,-258.091"/>
<polygon fill="black" stroke="black" points="453.097,-260.147 457.107,-250.34 447.857,-255.505 453.097,-260.147"/>
</g>
<!-- Buffer -->
<g id="node5" class="node"><title>Buffer</title>
<ellipse fill="none" stroke="black" cx="470.694" cy="-162" rx="33.5952" ry="18"/>
<text text-anchor="middle" x="470.694" y="-158.3" font-family="Times,serif" font-size="14.00">Buffer</text>
</g>
<!-- ADC&#45;&gt;Buffer -->
<g id="edge4" class="edge"><title>ADC&#45;&gt;Buffer</title>
<path fill="none" stroke="black" d="M470.694,-215.697C470.694,-207.983 470.694,-198.712 470.694,-190.112"/>
<polygon fill="black" stroke="black" points="474.194,-190.104 470.694,-180.104 467.194,-190.104 474.194,-190.104"/>
</g>
<!-- Pi -->
<g id="node6" class="node"><title>Pi</title>
<ellipse fill="none" stroke="black" cx="470.694" cy="-90" rx="27" ry="18"/>
<text text-anchor="middle" x="470.694" y="-86.3" font-family="Times,serif" font-size="14.00">Pi</text>
</g>
<!-- Buffer&#45;&gt;Pi -->
<g id="edge5" class="edge"><title>Buffer&#45;&gt;Pi</title>
<path fill="none" stroke="black" d="M470.694,-143.697C470.694,-135.983 470.694,-126.712 470.694,-118.112"/>
<polygon fill="black" stroke="black" points="474.194,-118.104 470.694,-108.104 467.194,-118.104 474.194,-118.104"/>
</g>
<!-- Signal Digitalized -->
<g id="node7" class="node"><title>Signal Digitalized</title>
<ellipse fill="none" stroke="black" cx="470.694" cy="-18" rx="74.9875" ry="18"/>
<text text-anchor="middle" x="470.694" y="-14.3" font-family="Times,serif" font-size="14.00">Signal Digitalized</text>
</g>
<!-- Pi&#45;&gt;Signal Digitalized -->
<g id="edge6" class="edge"><title>Pi&#45;&gt;Signal Digitalized</title>
<path fill="none" stroke="black" d="M470.694,-71.6966C470.694,-63.9827 470.694,-54.7125 470.694,-46.1124"/>
<polygon fill="black" stroke="black" points="474.194,-46.1043 470.694,-36.1043 467.194,-46.1044 474.194,-46.1043"/>
</g>
<!-- Onboard header&#45;&gt;Selector -->
<g id="edge8" class="edge"><title>Onboard header&#45;&gt;Selector</title>
<path fill="none" stroke="black" d="M365.492,-360.055C372.526,-351.418 381.204,-340.76 388.933,-331.268"/>
<polygon fill="black" stroke="black" points="391.816,-333.271 395.416,-323.307 386.387,-328.851 391.816,-333.271"/>
</g>
<!-- +Vref/2 jumper -->
<g id="node9" class="node"><title>+Vref/2 jumper</title>
<ellipse fill="none" stroke="black" cx="533.694" cy="-306" rx="66.8882" ry="18"/>
<text text-anchor="middle" x="533.694" y="-302.3" font-family="Times,serif" font-size="14.00">+Vref/2 jumper</text>
</g>
<!-- +Vref/2 jumper&#45;&gt;ADC -->
<g id="edge9" class="edge"><title>+Vref/2 jumper&#45;&gt;ADC</title>
<path fill="none" stroke="black" d="M518.764,-288.411C510.495,-279.223 500.097,-267.67 491.088,-257.66"/>
<polygon fill="black" stroke="black" points="493.52,-255.13 484.229,-250.038 488.317,-259.813 493.52,-255.13"/>
</g>
<!-- GND -->
<g id="node10" class="node"><title>GND</title>
<ellipse fill="none" stroke="black" cx="466.694" cy="-378" rx="29.795" ry="18"/>
<text text-anchor="middle" x="466.694" y="-374.3" font-family="Times,serif" font-size="14.00">GND</text>
</g>
<!-- GND&#45;&gt;Selector -->
<g id="edge10" class="edge"><title>GND&#45;&gt;Selector</title>
<path fill="none" stroke="black" d="M453.822,-361.465C446.343,-352.439 436.766,-340.88 428.36,-330.735"/>
<polygon fill="black" stroke="black" points="431.008,-328.444 421.933,-322.977 425.618,-332.91 431.008,-328.444"/>
</g>
<!-- External -->
<g id="node11" class="node"><title>External</title>
<ellipse fill="none" stroke="black" cx="554.694" cy="-378" rx="40.0939" ry="18"/>
<text text-anchor="middle" x="554.694" y="-374.3" font-family="Times,serif" font-size="14.00">External</text>
</g>
<!-- External&#45;&gt;Selector -->
<g id="edge11" class="edge"><title>External&#45;&gt;Selector</title>
<path fill="none" stroke="black" d="M528.255,-364.324C504.689,-353.025 470.012,-336.399 444.065,-323.959"/>
<polygon fill="black" stroke="black" points="445.467,-320.75 434.937,-319.582 442.441,-327.062 445.467,-320.75"/>
</g>
<!-- ITF&#45;4_RawSig -->
<g id="node12" class="node"><title>ITF&#45;4_RawSig</title>
<ellipse fill="none" stroke="black" cx="63.6943" cy="-522" rx="63.8893" ry="18"/>
<text text-anchor="middle" x="63.6943" y="-518.3" font-family="Times,serif" font-size="14.00">ITF&#45;4_RawSig</text>
</g>
<!-- Doj Jumper -->
<g id="node13" class="node"><title>Doj Jumper</title>
<ellipse fill="none" stroke="black" cx="208.694" cy="-450" rx="52.7911" ry="18"/>
<text text-anchor="middle" x="208.694" y="-446.3" font-family="Times,serif" font-size="14.00">Doj Jumper</text>
</g>
<!-- ITF&#45;4_RawSig&#45;&gt;Doj Jumper -->
<g id="edge12" class="edge"><title>ITF&#45;4_RawSig&#45;&gt;Doj Jumper</title>
<path fill="none" stroke="black" d="M94.4451,-506.155C116.609,-495.455 146.669,-480.943 170.392,-469.491"/>
<polygon fill="black" stroke="black" points="171.988,-472.607 179.471,-465.108 168.944,-466.303 171.988,-472.607"/>
</g>
<!-- Doj Jumper&#45;&gt;ITF&#45;12_RPIn -->
<g id="edge13" class="edge"><title>Doj Jumper&#45;&gt;ITF&#45;12_RPIn</title>
<path fill="none" stroke="black" d="M208.694,-431.697C208.694,-423.983 208.694,-414.712 208.694,-406.112"/>
<polygon fill="black" stroke="black" points="212.194,-406.104 208.694,-396.104 205.194,-406.104 212.194,-406.104"/>
</g>
<!-- ITF&#45;11_OffSig -->
<g id="node14" class="node"><title>ITF&#45;11_OffSig</title>
<ellipse fill="none" stroke="black" cx="208.694" cy="-522" rx="63.8893" ry="18"/>
<text text-anchor="middle" x="208.694" y="-518.3" font-family="Times,serif" font-size="14.00">ITF&#45;11_OffSig</text>
</g>
<!-- ITF&#45;11_OffSig&#45;&gt;Doj Jumper -->
<g id="edge14" class="edge"><title>ITF&#45;11_OffSig&#45;&gt;Doj Jumper</title>
<path fill="none" stroke="black" d="M208.694,-503.697C208.694,-495.983 208.694,-486.712 208.694,-478.112"/>
<polygon fill="black" stroke="black" points="212.194,-478.104 208.694,-468.104 205.194,-478.104 212.194,-478.104"/>
</g>
<!-- ITF&#45;3_ENV -->
<g id="node15" class="node"><title>ITF&#45;3_ENV</title>
<ellipse fill="none" stroke="black" cx="344.694" cy="-522" rx="53.8905" ry="18"/>
<text text-anchor="middle" x="344.694" y="-518.3" font-family="Times,serif" font-size="14.00">ITF&#45;3_ENV</text>
</g>
<!-- ITF&#45;3_ENV&#45;&gt;Doj Jumper -->
<g id="edge15" class="edge"><title>ITF&#45;3_ENV&#45;&gt;Doj Jumper</title>
<path fill="none" stroke="black" d="M316.515,-506.496C296.092,-495.984 268.269,-481.663 246.002,-470.203"/>
<polygon fill="black" stroke="black" points="247.331,-466.95 236.838,-465.485 244.127,-473.174 247.331,-466.95"/>
</g>
</g>
</svg>
