<?xml version="1.0" encoding="UTF-8" standalone="no"?>
<!DOCTYPE svg PUBLIC "-//W3C//DTD SVG 1.1//EN"
 "http://www.w3.org/Graphics/SVG/1.1/DTD/svg11.dtd">
<!-- Generated by graphviz version 2.38.0 (20140413.2041)
 -->
<!-- Title: %3 Pages: 1 -->
<svg width="529pt" height="404pt"
 viewBox="0.00 0.00 528.94 404.00" xmlns="http://www.w3.org/2000/svg" xmlns:xlink="http://www.w3.org/1999/xlink">
<g id="graph0" class="graph" transform="scale(1 1) rotate(0) translate(4 400)">
<title>%3</title>
<polygon fill="white" stroke="none" points="-4,4 -4,-400 524.941,-400 524.941,4 -4,4"/>
<!-- Raw Signal -->
<g id="node1" class="node"><title>Raw Signal</title>
<ellipse fill="none" stroke="black" cx="51.9954" cy="-378" rx="51.9908" ry="18"/>
<text text-anchor="middle" x="51.9954" y="-374.3" font-family="Times,serif" font-size="14.00">Raw Signal</text>
</g>
<!-- ITF&#45;12_RPIn -->
<g id="node2" class="node"><title>ITF&#45;12_RPIn</title>
<ellipse fill="none" stroke="black" cx="257.995" cy="-306" rx="57.6901" ry="18"/>
<text text-anchor="middle" x="257.995" y="-302.3" font-family="Times,serif" font-size="14.00">ITF&#45;12_RPIn</text>
</g>
<!-- Raw Signal&#45;&gt;ITF&#45;12_RPIn -->
<g id="edge1" class="edge"><title>Raw Signal&#45;&gt;ITF&#45;12_RPIn</title>
<path fill="none" stroke="black" d="M87.8778,-364.807C121.951,-353.229 173.382,-335.752 210.771,-323.047"/>
<polygon fill="black" stroke="black" points="212.094,-326.294 220.436,-319.763 209.842,-319.666 212.094,-326.294"/>
</g>
<!-- ADC -->
<g id="node3" class="node"><title>ADC</title>
<ellipse fill="none" stroke="black" cx="257.995" cy="-234" rx="29.4969" ry="18"/>
<text text-anchor="middle" x="257.995" y="-230.3" font-family="Times,serif" font-size="14.00">ADC</text>
</g>
<!-- ITF&#45;12_RPIn&#45;&gt;ADC -->
<g id="edge2" class="edge"><title>ITF&#45;12_RPIn&#45;&gt;ADC</title>
<path fill="none" stroke="black" d="M257.995,-287.697C257.995,-279.983 257.995,-270.712 257.995,-262.112"/>
<polygon fill="black" stroke="black" points="261.495,-262.104 257.995,-252.104 254.495,-262.104 261.495,-262.104"/>
</g>
<!-- Buffer -->
<g id="node4" class="node"><title>Buffer</title>
<ellipse fill="none" stroke="black" cx="257.995" cy="-162" rx="33.5952" ry="18"/>
<text text-anchor="middle" x="257.995" y="-158.3" font-family="Times,serif" font-size="14.00">Buffer</text>
</g>
<!-- ADC&#45;&gt;Buffer -->
<g id="edge3" class="edge"><title>ADC&#45;&gt;Buffer</title>
<path fill="none" stroke="black" d="M257.995,-215.697C257.995,-207.983 257.995,-198.712 257.995,-190.112"/>
<polygon fill="black" stroke="black" points="261.495,-190.104 257.995,-180.104 254.495,-190.104 261.495,-190.104"/>
</g>
<!-- Pi -->
<g id="node5" class="node"><title>Pi</title>
<ellipse fill="none" stroke="black" cx="257.995" cy="-90" rx="27" ry="18"/>
<text text-anchor="middle" x="257.995" y="-86.3" font-family="Times,serif" font-size="14.00">Pi</text>
</g>
<!-- Buffer&#45;&gt;Pi -->
<g id="edge4" class="edge"><title>Buffer&#45;&gt;Pi</title>
<path fill="none" stroke="black" d="M257.995,-143.697C257.995,-135.983 257.995,-126.712 257.995,-118.112"/>
<polygon fill="black" stroke="black" points="261.495,-118.104 257.995,-108.104 254.495,-118.104 261.495,-118.104"/>
</g>
<!-- Signal Digitalized -->
<g id="node6" class="node"><title>Signal Digitalized</title>
<ellipse fill="none" stroke="black" cx="257.995" cy="-18" rx="74.9875" ry="18"/>
<text text-anchor="middle" x="257.995" y="-14.3" font-family="Times,serif" font-size="14.00">Signal Digitalized</text>
</g>
<!-- Pi&#45;&gt;Signal Digitalized -->
<g id="edge5" class="edge"><title>Pi&#45;&gt;Signal Digitalized</title>
<path fill="none" stroke="black" d="M257.995,-71.6966C257.995,-63.9827 257.995,-54.7125 257.995,-46.1124"/>
<polygon fill="black" stroke="black" points="261.495,-46.1043 257.995,-36.1043 254.495,-46.1044 261.495,-46.1043"/>
</g>
<!-- ITF&#45;4_RawSig -->
<g id="node7" class="node"><title>ITF&#45;4_RawSig</title>
<ellipse fill="none" stroke="black" cx="185.995" cy="-378" rx="63.8893" ry="18"/>
<text text-anchor="middle" x="185.995" y="-374.3" font-family="Times,serif" font-size="14.00">ITF&#45;4_RawSig</text>
</g>
<!-- ITF&#45;4_RawSig&#45;&gt;ITF&#45;12_RPIn -->
<g id="edge6" class="edge"><title>ITF&#45;4_RawSig&#45;&gt;ITF&#45;12_RPIn</title>
<path fill="none" stroke="black" d="M203.058,-360.411C212.204,-351.519 223.63,-340.411 233.689,-330.631"/>
<polygon fill="black" stroke="black" points="236.325,-332.95 241.055,-323.47 231.445,-327.931 236.325,-332.95"/>
</g>
<!-- ITF&#45;11_OffSig -->
<g id="node8" class="node"><title>ITF&#45;11_OffSig</title>
<ellipse fill="none" stroke="black" cx="330.995" cy="-378" rx="63.8893" ry="18"/>
<text text-anchor="middle" x="330.995" y="-374.3" font-family="Times,serif" font-size="14.00">ITF&#45;11_OffSig</text>
</g>
<!-- ITF&#45;11_OffSig&#45;&gt;ITF&#45;12_RPIn -->
<g id="edge7" class="edge"><title>ITF&#45;11_OffSig&#45;&gt;ITF&#45;12_RPIn</title>
<path fill="none" stroke="black" d="M313.695,-360.411C304.355,-351.455 292.67,-340.25 282.418,-330.419"/>
<polygon fill="black" stroke="black" points="284.56,-327.623 274.919,-323.228 279.715,-332.676 284.56,-327.623"/>
</g>
<!-- ITF&#45;3_ENV -->
<g id="node9" class="node"><title>ITF&#45;3_ENV</title>
<ellipse fill="none" stroke="black" cx="466.995" cy="-378" rx="53.8905" ry="18"/>
<text text-anchor="middle" x="466.995" y="-374.3" font-family="Times,serif" font-size="14.00">ITF&#45;3_ENV</text>
</g>
<!-- ITF&#45;3_ENV&#45;&gt;ITF&#45;12_RPIn -->
<g id="edge8" class="edge"><title>ITF&#45;3_ENV&#45;&gt;ITF&#45;12_RPIn</title>
<path fill="none" stroke="black" d="M430.111,-364.647C395.473,-353.045 343.464,-335.626 305.686,-322.973"/>
<polygon fill="black" stroke="black" points="306.515,-319.56 295.921,-319.702 304.292,-326.197 306.515,-319.56"/>
</g>
</g>
</svg>
