<?xml version="1.0" encoding="UTF-8" standalone="no"?>
<!DOCTYPE svg PUBLIC "-//W3C//DTD SVG 1.1//EN"
 "http://www.w3.org/Graphics/SVG/1.1/DTD/svg11.dtd">
<!-- Generated by graphviz version 2.38.0 (20140413.2041)
 -->
<!-- Title: %3 Pages: 1 -->
<svg width="441pt" height="332pt"
 viewBox="0.00 0.00 440.89 332.00" xmlns="http://www.w3.org/2000/svg" xmlns:xlink="http://www.w3.org/1999/xlink">
<g id="graph0" class="graph" transform="scale(1 1) rotate(0) translate(4 328)">
<title>%3</title>
<polygon fill="white" stroke="none" points="-4,4 -4,-328 436.894,-328 436.894,4 -4,4"/>
<!-- Pulse&#45;P -->
<g id="node1" class="node"><title>Pulse&#45;P</title>
<ellipse fill="none" stroke="black" cx="37.6967" cy="-234" rx="37.8943" ry="18"/>
<text text-anchor="middle" x="37.6967" y="-230.3" font-family="Times,serif" font-size="14.00">Pulse&#45;P</text>
</g>
<!-- TC6320TG -->
<g id="node2" class="node"><title>TC6320TG</title>
<ellipse fill="none" stroke="black" cx="229.697" cy="-162" rx="51.1914" ry="18"/>
<text text-anchor="middle" x="229.697" y="-158.3" font-family="Times,serif" font-size="14.00">TC6320TG</text>
</g>
<!-- Pulse&#45;P&#45;&gt;TC6320TG -->
<g id="edge1" class="edge"><title>Pulse&#45;P&#45;&gt;TC6320TG</title>
<path fill="none" stroke="black" d="M64.6414,-221.284C95.363,-209.386 145.861,-190.92 182.987,-177.969"/>
<polygon fill="black" stroke="black" points="184.294,-181.22 192.596,-174.638 182.001,-174.607 184.294,-181.22"/>
</g>
<!-- Pulse&#45;P&#45;&gt;TC6320TG -->
<g id="edge11" class="edge"><title>Pulse&#45;P&#45;&gt;TC6320TG</title>
<path fill="none" stroke="black" d="M68.8077,-223.414C101.463,-212.29 152.713,-193.736 188.637,-180.12"/>
<polygon fill="black" stroke="black" points="190.239,-183.254 198.335,-176.42 187.744,-176.714 190.239,-183.254"/>
</g>
<!-- ITF&#45;mET_Transducer -->
<g id="node8" class="node"><title>ITF&#45;mET_Transducer</title>
<ellipse fill="none" stroke="black" cx="229.697" cy="-90" rx="89.0842" ry="18"/>
<text text-anchor="middle" x="229.697" y="-86.3" font-family="Times,serif" font-size="14.00">ITF&#45;mET_Transducer</text>
</g>
<!-- TC6320TG&#45;&gt;ITF&#45;mET_Transducer -->
<g id="edge8" class="edge"><title>TC6320TG&#45;&gt;ITF&#45;mET_Transducer</title>
<path fill="none" stroke="black" d="M223.818,-144.055C223,-136.346 222.758,-127.027 223.092,-118.364"/>
<polygon fill="black" stroke="black" points="226.591,-118.491 223.784,-108.275 219.607,-118.012 226.591,-118.491"/>
</g>
<!-- TC6320TG&#45;&gt;ITF&#45;mET_Transducer -->
<g id="edge18" class="edge"><title>TC6320TG&#45;&gt;ITF&#45;mET_Transducer</title>
<path fill="none" stroke="black" d="M235.575,-144.055C236.393,-136.346 236.635,-127.027 236.302,-118.364"/>
<polygon fill="black" stroke="black" points="239.786,-118.012 235.609,-108.275 232.802,-118.491 239.786,-118.012"/>
</g>
<!-- Pulse&#45;N -->
<g id="node3" class="node"><title>Pulse&#45;N</title>
<ellipse fill="none" stroke="black" cx="132.697" cy="-234" rx="38.9931" ry="18"/>
<text text-anchor="middle" x="132.697" y="-230.3" font-family="Times,serif" font-size="14.00">Pulse&#45;N</text>
</g>
<!-- Pulse&#45;N&#45;&gt;TC6320TG -->
<g id="edge2" class="edge"><title>Pulse&#45;N&#45;&gt;TC6320TG</title>
<path fill="none" stroke="black" d="M148.504,-217.465C161.165,-207.473 179.148,-194.378 195.035,-183.533"/>
<polygon fill="black" stroke="black" points="197.254,-186.258 203.599,-177.773 193.347,-180.45 197.254,-186.258"/>
</g>
<!-- Pulse&#45;N&#45;&gt;TC6320TG -->
<g id="edge12" class="edge"><title>Pulse&#45;N&#45;&gt;TC6320TG</title>
<path fill="none" stroke="black" d="M156.605,-219.669C171.286,-210.052 189.905,-196.838 204.753,-185.589"/>
<polygon fill="black" stroke="black" points="207.215,-188.11 213.001,-179.235 202.943,-182.565 207.215,-188.11"/>
</g>
<!-- Damper -->
<g id="node4" class="node"><title>Damper</title>
<ellipse fill="none" stroke="black" cx="229.697" cy="-234" rx="39.7935" ry="18"/>
<text text-anchor="middle" x="229.697" y="-230.3" font-family="Times,serif" font-size="14.00">Damper</text>
</g>
<!-- Damper&#45;&gt;TC6320TG -->
<g id="edge3" class="edge"><title>Damper&#45;&gt;TC6320TG</title>
<path fill="none" stroke="black" d="M223.818,-216.055C223,-208.346 222.758,-199.027 223.092,-190.364"/>
<polygon fill="black" stroke="black" points="226.591,-190.491 223.784,-180.275 219.607,-190.012 226.591,-190.491"/>
</g>
<!-- Damper&#45;&gt;TC6320TG -->
<g id="edge13" class="edge"><title>Damper&#45;&gt;TC6320TG</title>
<path fill="none" stroke="black" d="M235.575,-216.055C236.393,-208.346 236.635,-199.027 236.302,-190.364"/>
<polygon fill="black" stroke="black" points="239.786,-190.012 235.609,-180.275 232.802,-190.491 239.786,-190.012"/>
</g>
<!-- NMT0572SC -->
<g id="node5" class="node"><title>NMT0572SC</title>
<ellipse fill="none" stroke="black" cx="360.697" cy="-306" rx="59.2899" ry="18"/>
<text text-anchor="middle" x="360.697" y="-302.3" font-family="Times,serif" font-size="14.00">NMT0572SC</text>
</g>
<!-- HV&#45;N -->
<g id="node6" class="node"><title>HV&#45;N</title>
<ellipse fill="none" stroke="black" cx="319.697" cy="-234" rx="32.4942" ry="18"/>
<text text-anchor="middle" x="319.697" y="-230.3" font-family="Times,serif" font-size="14.00">HV&#45;N</text>
</g>
<!-- NMT0572SC&#45;&gt;HV&#45;N -->
<g id="edge4" class="edge"><title>NMT0572SC&#45;&gt;HV&#45;N</title>
<path fill="none" stroke="black" d="M345.14,-288.411C339.469,-280.249 333.358,-270.22 328.413,-261.065"/>
<polygon fill="black" stroke="black" points="331.422,-259.262 323.749,-251.956 325.191,-262.452 331.422,-259.262"/>
</g>
<!-- NMT0572SC&#45;&gt;HV&#45;N -->
<g id="edge14" class="edge"><title>NMT0572SC&#45;&gt;HV&#45;N</title>
<path fill="none" stroke="black" d="M356.478,-287.697C352.229,-278.893 346.053,-268.063 339.886,-258.515"/>
<polygon fill="black" stroke="black" points="342.773,-256.537 334.281,-250.202 336.97,-260.45 342.773,-256.537"/>
</g>
<!-- HV&#45;P -->
<g id="node7" class="node"><title>HV&#45;P</title>
<ellipse fill="none" stroke="black" cx="401.697" cy="-234" rx="31.3957" ry="18"/>
<text text-anchor="middle" x="401.697" y="-230.3" font-family="Times,serif" font-size="14.00">HV&#45;P</text>
</g>
<!-- NMT0572SC&#45;&gt;HV&#45;P -->
<g id="edge6" class="edge"><title>NMT0572SC&#45;&gt;HV&#45;P</title>
<path fill="none" stroke="black" d="M364.916,-287.697C369.164,-278.893 375.341,-268.063 381.507,-258.515"/>
<polygon fill="black" stroke="black" points="384.424,-260.45 387.112,-250.202 378.62,-256.537 384.424,-260.45"/>
</g>
<!-- NMT0572SC&#45;&gt;HV&#45;P -->
<g id="edge16" class="edge"><title>NMT0572SC&#45;&gt;HV&#45;P</title>
<path fill="none" stroke="black" d="M376.253,-288.411C381.924,-280.249 388.035,-270.22 392.98,-261.065"/>
<polygon fill="black" stroke="black" points="396.202,-262.452 397.645,-251.956 389.972,-259.262 396.202,-262.452"/>
</g>
<!-- HV&#45;N&#45;&gt;TC6320TG -->
<g id="edge5" class="edge"><title>HV&#45;N&#45;&gt;TC6320TG</title>
<path fill="none" stroke="black" d="M297.825,-220.161C284.12,-210.593 266.654,-197.271 252.755,-185.895"/>
<polygon fill="black" stroke="black" points="254.962,-183.178 245.039,-179.464 250.48,-188.555 254.962,-183.178"/>
</g>
<!-- HV&#45;N&#45;&gt;TC6320TG -->
<g id="edge15" class="edge"><title>HV&#45;N&#45;&gt;TC6320TG</title>
<path fill="none" stroke="black" d="M305.443,-217.465C293.967,-207.633 277.64,-194.797 263.017,-184.055"/>
<polygon fill="black" stroke="black" points="264.809,-181.032 254.654,-178.011 260.709,-186.705 264.809,-181.032"/>
</g>
<!-- HV&#45;P&#45;&gt;TC6320TG -->
<g id="edge7" class="edge"><title>HV&#45;P&#45;&gt;TC6320TG</title>
<path fill="none" stroke="black" d="M374.058,-225.009C366.643,-222.154 358.827,-218.921 351.697,-216 323.262,-204.353 291.295,-191.417 267.112,-181.24"/>
<polygon fill="black" stroke="black" points="268.161,-177.884 257.589,-177.202 265.428,-184.328 268.161,-177.884"/>
</g>
<!-- HV&#45;P&#45;&gt;TC6320TG -->
<g id="edge17" class="edge"><title>HV&#45;P&#45;&gt;TC6320TG</title>
<path fill="none" stroke="black" d="M380.637,-220.529C376.999,-218.999 373.262,-217.46 369.697,-216 338.523,-203.231 303.103,-188.912 275.571,-178.38"/>
<polygon fill="black" stroke="black" points="276.773,-175.092 266.182,-174.821 274.292,-181.638 276.773,-175.092"/>
</g>
<!-- ITF&#45;mET_SMA -->
<g id="node9" class="node"><title>ITF&#45;mET_SMA</title>
<ellipse fill="none" stroke="black" cx="158.697" cy="-18" rx="68.7879" ry="18"/>
<text text-anchor="middle" x="158.697" y="-14.3" font-family="Times,serif" font-size="14.00">ITF&#45;mET_SMA</text>
</g>
<!-- ITF&#45;mET_Transducer&#45;&gt;ITF&#45;mET_SMA -->
<g id="edge9" class="edge"><title>ITF&#45;mET_Transducer&#45;&gt;ITF&#45;mET_SMA</title>
<path fill="none" stroke="black" d="M207.031,-72.411C197.283,-63.7338 186.133,-52.946 176.922,-43.3418"/>
<polygon fill="black" stroke="black" points="179.402,-40.8695 170.016,-35.9562 174.29,-45.6507 179.402,-40.8695"/>
</g>
<!-- ITF&#45;mET_Transducer&#45;&gt;ITF&#45;mET_SMA -->
<g id="edge19" class="edge"><title>ITF&#45;mET_Transducer&#45;&gt;ITF&#45;mET_SMA</title>
<path fill="none" stroke="black" d="M218.388,-72.055C210.167,-63.0034 198.903,-51.7333 188.314,-41.9113"/>
<polygon fill="black" stroke="black" points="190.532,-39.198 180.776,-35.0676 185.827,-44.3808 190.532,-39.198"/>
</g>
<!-- ITF&#45;18_Raw -->
<g id="node10" class="node"><title>ITF&#45;18_Raw</title>
<ellipse fill="none" stroke="black" cx="301.697" cy="-18" rx="55.7903" ry="18"/>
<text text-anchor="middle" x="301.697" y="-14.3" font-family="Times,serif" font-size="14.00">ITF&#45;18_Raw</text>
</g>
<!-- ITF&#45;mET_Transducer&#45;&gt;ITF&#45;18_Raw -->
<g id="edge10" class="edge"><title>ITF&#45;mET_Transducer&#45;&gt;ITF&#45;18_Raw</title>
<path fill="none" stroke="black" d="M241.248,-72.055C249.717,-62.8732 261.352,-51.4085 272.215,-41.4882"/>
<polygon fill="black" stroke="black" points="274.807,-43.8654 279.932,-34.5923 270.143,-38.6456 274.807,-43.8654"/>
</g>
<!-- ITF&#45;mET_Transducer&#45;&gt;ITF&#45;18_Raw -->
<g id="edge20" class="edge"><title>ITF&#45;mET_Transducer&#45;&gt;ITF&#45;18_Raw</title>
<path fill="none" stroke="black" d="M252.6,-72.411C262.472,-63.7338 273.776,-52.946 283.123,-43.3418"/>
<polygon fill="black" stroke="black" points="285.788,-45.6181 290.135,-35.9562 280.712,-40.7983 285.788,-45.6181"/>
</g>
</g>
</svg>
