<?xml version="1.0" encoding="UTF-8" standalone="no"?>
<!DOCTYPE svg PUBLIC "-//W3C//DTD SVG 1.1//EN"
 "http://www.w3.org/Graphics/SVG/1.1/DTD/svg11.dtd">
<!-- Generated by graphviz version 2.38.0 (20140413.2041)
 -->
<!-- Title: %3 Pages: 1 -->
<svg width="481pt" height="476pt"
 viewBox="0.00 0.00 481.29 476.00" xmlns="http://www.w3.org/2000/svg" xmlns:xlink="http://www.w3.org/1999/xlink">
<g id="graph0" class="graph" transform="scale(1 1) rotate(0) translate(4 472)">
<title>%3</title>
<polygon fill="white" stroke="none" points="-4,4 -4,-472 477.294,-472 477.294,4 -4,4"/>
<!-- ice40 -->
<g id="node1" class="node"><title>ice40</title>
<ellipse fill="none" stroke="black" cx="259.294" cy="-450" rx="29.795" ry="18"/>
<text text-anchor="middle" x="259.294" y="-446.3" font-family="Times,serif" font-size="14.00">ice40</text>
</g>
<!-- SPI -->
<g id="node2" class="node"><title>SPI</title>
<ellipse fill="none" stroke="black" cx="66.2941" cy="-378" rx="27" ry="18"/>
<text text-anchor="middle" x="66.2941" y="-374.3" font-family="Times,serif" font-size="14.00">SPI</text>
</g>
<!-- ice40&#45;&gt;SPI -->
<g id="edge1" class="edge"><title>ice40&#45;&gt;SPI</title>
<path fill="none" stroke="black" d="M231.985,-442.65C198.459,-433.397 140.918,-415.208 93.2941,-396 93.198,-395.961 93.1017,-395.922 93.0053,-395.883"/>
<polygon fill="black" stroke="black" points="94.5062,-392.719 83.9376,-391.973 91.7345,-399.147 94.5062,-392.719"/>
</g>
<!-- PulserControl -->
<g id="node4" class="node"><title>PulserControl</title>
<ellipse fill="none" stroke="black" cx="171.294" cy="-378" rx="59.5901" ry="18"/>
<text text-anchor="middle" x="171.294" y="-374.3" font-family="Times,serif" font-size="14.00">PulserControl</text>
</g>
<!-- ice40&#45;&gt;PulserControl -->
<g id="edge3" class="edge"><title>ice40&#45;&gt;PulserControl</title>
<path fill="none" stroke="black" d="M241.908,-435.17C229.765,-425.511 213.291,-412.406 199.309,-401.284"/>
<polygon fill="black" stroke="black" points="201.421,-398.492 191.416,-395.006 197.063,-403.97 201.421,-398.492"/>
</g>
<!-- Time Gain Compensator -->
<g id="node8" class="node"><title>Time Gain Compensator</title>
<ellipse fill="none" stroke="black" cx="259.294" cy="-90" rx="98.5829" ry="18"/>
<text text-anchor="middle" x="259.294" y="-86.3" font-family="Times,serif" font-size="14.00">Time Gain Compensator</text>
</g>
<!-- ice40&#45;&gt;Time Gain Compensator -->
<g id="edge10" class="edge"><title>ice40&#45;&gt;Time Gain Compensator</title>
<path fill="none" stroke="black" d="M259.294,-431.951C259.294,-405.292 259.294,-352.115 259.294,-307 259.294,-307 259.294,-307 259.294,-233 259.294,-192.996 259.294,-146.653 259.294,-118.08"/>
<polygon fill="black" stroke="black" points="262.794,-118.049 259.294,-108.049 255.794,-118.049 262.794,-118.049"/>
</g>
<!-- motor control -->
<g id="node10" class="node"><title>motor control</title>
<ellipse fill="none" stroke="black" cx="347.294" cy="-378" rx="59.5901" ry="18"/>
<text text-anchor="middle" x="347.294" y="-374.3" font-family="Times,serif" font-size="14.00">motor control</text>
</g>
<!-- ice40&#45;&gt;motor control -->
<g id="edge11" class="edge"><title>ice40&#45;&gt;motor control</title>
<path fill="none" stroke="black" d="M276.68,-435.17C288.823,-425.511 305.297,-412.406 319.28,-401.284"/>
<polygon fill="black" stroke="black" points="321.525,-403.97 327.172,-395.006 317.168,-398.492 321.525,-403.97"/>
</g>
<!-- SPI&#45;&gt;ice40 -->
<g id="edge15" class="edge"><title>SPI&#45;&gt;ice40</title>
<path fill="none" stroke="black" d="M90.2518,-386.847C97.1595,-389.874 104.499,-393.26 111.294,-396 149.766,-411.517 194.711,-426.369 225.021,-436.382"/>
<polygon fill="black" stroke="black" points="224.115,-439.769 234.709,-439.586 226.314,-433.123 224.115,-439.769"/>
</g>
<!-- Data Out -->
<g id="node3" class="node"><title>Data Out</title>
<ellipse fill="none" stroke="black" cx="66.2941" cy="-306" rx="42.7926" ry="18"/>
<text text-anchor="middle" x="66.2941" y="-302.3" font-family="Times,serif" font-size="14.00">Data Out</text>
</g>
<!-- SPI&#45;&gt;Data Out -->
<g id="edge2" class="edge"><title>SPI&#45;&gt;Data Out</title>
<path fill="none" stroke="black" d="M66.2941,-359.697C66.2941,-351.983 66.2941,-342.712 66.2941,-334.112"/>
<polygon fill="black" stroke="black" points="69.7942,-334.104 66.2941,-324.104 62.7942,-334.104 69.7942,-334.104"/>
</g>
<!-- Pulser -->
<g id="node5" class="node"><title>Pulser</title>
<ellipse fill="none" stroke="black" cx="174.294" cy="-306" rx="32.4942" ry="18"/>
<text text-anchor="middle" x="174.294" y="-302.3" font-family="Times,serif" font-size="14.00">Pulser</text>
</g>
<!-- PulserControl&#45;&gt;Pulser -->
<g id="edge4" class="edge"><title>PulserControl&#45;&gt;Pulser</title>
<path fill="none" stroke="black" d="M172.036,-359.697C172.366,-351.983 172.764,-342.712 173.132,-334.112"/>
<polygon fill="black" stroke="black" points="176.63,-334.245 173.561,-324.104 169.636,-333.945 176.63,-334.245"/>
</g>
<!-- Transducer -->
<g id="node6" class="node"><title>Transducer</title>
<ellipse fill="none" stroke="black" cx="176.294" cy="-234" rx="50.0912" ry="18"/>
<text text-anchor="middle" x="176.294" y="-230.3" font-family="Times,serif" font-size="14.00">Transducer</text>
</g>
<!-- Pulser&#45;&gt;Transducer -->
<g id="edge5" class="edge"><title>Pulser&#45;&gt;Transducer</title>
<path fill="none" stroke="black" d="M174.788,-287.697C175.009,-279.983 175.274,-270.712 175.519,-262.112"/>
<polygon fill="black" stroke="black" points="179.018,-262.2 175.805,-252.104 172.021,-262 179.018,-262.2"/>
</g>
<!-- Clipping -->
<g id="node7" class="node"><title>Clipping</title>
<ellipse fill="none" stroke="black" cx="183.294" cy="-162" rx="41.6928" ry="18"/>
<text text-anchor="middle" x="183.294" y="-158.3" font-family="Times,serif" font-size="14.00">Clipping</text>
</g>
<!-- Transducer&#45;&gt;Clipping -->
<g id="edge6" class="edge"><title>Transducer&#45;&gt;Clipping</title>
<path fill="none" stroke="black" d="M178.024,-215.697C178.796,-207.983 179.723,-198.712 180.583,-190.112"/>
<polygon fill="black" stroke="black" points="184.071,-190.403 181.584,-180.104 177.106,-189.706 184.071,-190.403"/>
</g>
<!-- Clipping&#45;&gt;Time Gain Compensator -->
<g id="edge7" class="edge"><title>Clipping&#45;&gt;Time Gain Compensator</title>
<path fill="none" stroke="black" d="M200.161,-145.465C210.039,-136.367 222.71,-124.696 233.787,-114.493"/>
<polygon fill="black" stroke="black" points="236.163,-117.063 241.148,-107.714 231.421,-111.914 236.163,-117.063"/>
</g>
<!-- 64Msps, 10&#45;bit ADC -->
<g id="node9" class="node"><title>64Msps, 10&#45;bit ADC</title>
<ellipse fill="none" stroke="black" cx="366.294" cy="-18" rx="85.5853" ry="18"/>
<text text-anchor="middle" x="366.294" y="-14.3" font-family="Times,serif" font-size="14.00">64Msps, 10&#45;bit ADC</text>
</g>
<!-- Time Gain Compensator&#45;&gt;64Msps, 10&#45;bit ADC -->
<g id="edge8" class="edge"><title>Time Gain Compensator&#45;&gt;64Msps, 10&#45;bit ADC</title>
<path fill="none" stroke="black" d="M284.381,-72.5881C298.87,-63.1095 317.275,-51.0685 332.968,-40.8023"/>
<polygon fill="black" stroke="black" points="334.912,-43.7126 341.365,-35.3091 331.08,-37.8548 334.912,-43.7126"/>
</g>
<!-- 64Msps, 10&#45;bit ADC&#45;&gt;ice40 -->
<g id="edge9" class="edge"><title>64Msps, 10&#45;bit ADC&#45;&gt;ice40</title>
<path fill="none" stroke="black" d="M390.307,-35.4118C421.854,-59.1316 473.294,-106.209 473.294,-161 473.294,-307 473.294,-307 473.294,-307 473.294,-350.367 465.839,-367.338 433.294,-396 395.711,-429.099 337.917,-441.529 299.376,-446.196"/>
<polygon fill="black" stroke="black" points="298.613,-442.758 289.049,-447.317 299.368,-449.717 298.613,-442.758"/>
</g>
<!-- feedback -->
<g id="node11" class="node"><title>feedback</title>
<ellipse fill="none" stroke="black" cx="375.294" cy="-306" rx="42.4939" ry="18"/>
<text text-anchor="middle" x="375.294" y="-302.3" font-family="Times,serif" font-size="14.00">feedback</text>
</g>
<!-- motor control&#45;&gt;feedback -->
<g id="edge12" class="edge"><title>motor control&#45;&gt;feedback</title>
<path fill="none" stroke="black" d="M354.072,-360.055C357.305,-351.973 361.246,-342.121 364.849,-333.112"/>
<polygon fill="black" stroke="black" points="368.114,-334.374 368.579,-323.789 361.615,-331.774 368.114,-334.374"/>
</g>
<!-- feedback&#45;&gt;ice40 -->
<g id="edge13" class="edge"><title>feedback&#45;&gt;ice40</title>
<path fill="none" stroke="black" d="M392.091,-322.758C409.822,-341.339 433.06,-372.644 416.294,-396 389.842,-432.849 336.415,-444.412 299.277,-447.858"/>
<polygon fill="black" stroke="black" points="298.972,-444.371 289.27,-448.629 299.51,-451.35 298.972,-444.371"/>
</g>
<!-- Settings control -->
<g id="node12" class="node"><title>Settings control</title>
<ellipse fill="none" stroke="black" cx="66.2941" cy="-450" rx="66.0889" ry="18"/>
<text text-anchor="middle" x="66.2941" y="-446.3" font-family="Times,serif" font-size="14.00">Settings control</text>
</g>
<!-- Settings control&#45;&gt;SPI -->
<g id="edge14" class="edge"><title>Settings control&#45;&gt;SPI</title>
<path fill="none" stroke="black" d="M66.2941,-431.697C66.2941,-423.983 66.2941,-414.712 66.2941,-406.112"/>
<polygon fill="black" stroke="black" points="69.7942,-406.104 66.2941,-396.104 62.7942,-406.104 69.7942,-406.104"/>
</g>
</g>
</svg>
