<?xml version="1.0" encoding="UTF-8" standalone="no"?>
<!DOCTYPE svg PUBLIC "-//W3C//DTD SVG 1.1//EN"
 "http://www.w3.org/Graphics/SVG/1.1/DTD/svg11.dtd">
<!-- Generated by graphviz version 2.38.0 (20140413.2041)
 -->
<!-- Title: %3 Pages: 1 -->
<svg width="530pt" height="188pt"
 viewBox="0.00 0.00 530.14 188.00" xmlns="http://www.w3.org/2000/svg" xmlns:xlink="http://www.w3.org/1999/xlink">
<g id="graph0" class="graph" transform="scale(1 1) rotate(0) translate(4 184)">
<title>%3</title>
<polygon fill="white" stroke="none" points="-4,4 -4,-184 526.139,-184 526.139,4 -4,4"/>
<!-- ITF&#45;2_VDD_5V -->
<g id="node1" class="node"><title>ITF&#45;2_VDD_5V</title>
<ellipse fill="none" stroke="black" cx="253.795" cy="-162" rx="69.5877" ry="18"/>
<text text-anchor="middle" x="253.795" y="-158.3" font-family="Times,serif" font-size="14.00">ITF&#45;2_VDD_5V</text>
</g>
<!-- ArduinoTrinketPro -->
<g id="node2" class="node"><title>ArduinoTrinketPro</title>
<ellipse fill="none" stroke="black" cx="253.795" cy="-90" rx="77.9862" ry="18"/>
<text text-anchor="middle" x="253.795" y="-86.3" font-family="Times,serif" font-size="14.00">ArduinoTrinketPro</text>
</g>
<!-- ITF&#45;2_VDD_5V&#45;&gt;ArduinoTrinketPro -->
<g id="edge1" class="edge"><title>ITF&#45;2_VDD_5V&#45;&gt;ArduinoTrinketPro</title>
<path fill="none" stroke="black" d="M253.795,-143.697C253.795,-135.983 253.795,-126.712 253.795,-118.112"/>
<polygon fill="black" stroke="black" points="257.295,-118.104 253.795,-108.104 250.295,-118.104 257.295,-118.104"/>
</g>
<!-- ITF&#45;7_GAIN  -->
<g id="node3" class="node"><title>ITF&#45;7_GAIN </title>
<ellipse fill="none" stroke="black" cx="59.7947" cy="-18" rx="59.5901" ry="18"/>
<text text-anchor="middle" x="59.7947" y="-14.3" font-family="Times,serif" font-size="14.00">ITF&#45;7_GAIN </text>
</g>
<!-- ArduinoTrinketPro&#45;&gt;ITF&#45;7_GAIN  -->
<g id="edge2" class="edge"><title>ArduinoTrinketPro&#45;&gt;ITF&#45;7_GAIN </title>
<path fill="none" stroke="black" d="M213.598,-74.496C182.418,-63.2456 139.149,-47.6329 106.444,-35.8324"/>
<polygon fill="black" stroke="black" points="107.253,-32.4035 96.6591,-32.3016 104.878,-38.9879 107.253,-32.4035"/>
</g>
<!-- ITF&#45;9_Pon  -->
<g id="node4" class="node"><title>ITF&#45;9_Pon </title>
<ellipse fill="none" stroke="black" cx="189.795" cy="-18" rx="51.9908" ry="18"/>
<text text-anchor="middle" x="189.795" y="-14.3" font-family="Times,serif" font-size="14.00">ITF&#45;9_Pon </text>
</g>
<!-- ArduinoTrinketPro&#45;&gt;ITF&#45;9_Pon  -->
<g id="edge3" class="edge"><title>ArduinoTrinketPro&#45;&gt;ITF&#45;9_Pon </title>
<path fill="none" stroke="black" d="M238.302,-72.055C230.245,-63.243 220.266,-52.3285 211.458,-42.6943"/>
<polygon fill="black" stroke="black" points="214.035,-40.3256 204.704,-35.307 208.869,-45.049 214.035,-40.3256"/>
</g>
<!-- ITF&#45;10_Poff  -->
<g id="node5" class="node"><title>ITF&#45;10_Poff </title>
<ellipse fill="none" stroke="black" cx="317.795" cy="-18" rx="57.6901" ry="18"/>
<text text-anchor="middle" x="317.795" y="-14.3" font-family="Times,serif" font-size="14.00">ITF&#45;10_Poff </text>
</g>
<!-- ArduinoTrinketPro&#45;&gt;ITF&#45;10_Poff  -->
<g id="edge4" class="edge"><title>ArduinoTrinketPro&#45;&gt;ITF&#45;10_Poff </title>
<path fill="none" stroke="black" d="M269.287,-72.055C277.149,-63.4567 286.84,-52.8566 295.489,-43.3974"/>
<polygon fill="black" stroke="black" points="298.28,-45.531 302.445,-35.789 293.114,-40.8076 298.28,-45.531"/>
</g>
<!-- ITF&#45;14_PWM  -->
<g id="node6" class="node"><title>ITF&#45;14_PWM </title>
<ellipse fill="none" stroke="black" cx="457.795" cy="-18" rx="64.189" ry="18"/>
<text text-anchor="middle" x="457.795" y="-14.3" font-family="Times,serif" font-size="14.00">ITF&#45;14_PWM </text>
</g>
<!-- ArduinoTrinketPro&#45;&gt;ITF&#45;14_PWM  -->
<g id="edge5" class="edge"><title>ArduinoTrinketPro&#45;&gt;ITF&#45;14_PWM </title>
<path fill="none" stroke="black" d="M295.569,-74.6655C328.459,-63.3799 374.364,-47.6282 408.952,-35.7598"/>
<polygon fill="black" stroke="black" points="410.518,-38.9229 418.84,-32.3667 408.246,-32.3019 410.518,-38.9229"/>
</g>
</g>
</svg>
