%FSLAX42Y42*%
%MOMM*%
G71*
G01*
G75*
G04 Layer_Color=2752767*
%ADD10R,1.50X1.50*%
%ADD11R,1.60X4.90*%
%ADD12R,0.70X2.35*%
%ADD13R,1.30X1.30*%
%ADD14R,0.90X1.60*%
%ADD15C,0.51*%
%ADD16C,0.25*%
%ADD17C,0.30*%
%ADD18C,1.02*%
%ADD19C,1.52*%
%ADD20R,1.52X1.52*%
%ADD21C,1.02*%
%ADD22C,1.60*%
%ADD23R,1.60X1.60*%
%ADD24C,1.27*%
%ADD25R,1.55X2.20*%
%ADD26R,0.95X1.00*%
%ADD27R,1.00X0.95*%
%ADD28R,1.45X1.15*%
%ADD29R,1.80X1.15*%
%ADD30R,1.50X5.40*%
%ADD31R,2.25X1.80*%
%ADD32R,0.32X0.32*%
%ADD33R,1.80X1.15*%
%ADD34R,0.90X0.45*%
%ADD35R,1.70X2.70*%
%ADD36R,0.90X1.30*%
%ADD37R,0.90X1.90*%
%ADD38C,0.38*%
%ADD39C,0.30*%
%ADD40C,0.20*%
%ADD41C,0.13*%
%ADD42R,1.70X1.70*%
%ADD43R,1.80X5.10*%
%ADD44R,0.90X2.55*%
%ADD45R,1.50X1.50*%
%ADD46R,1.10X1.80*%
%ADD47C,1.73*%
%ADD48R,1.73X1.73*%
%ADD49C,1.22*%
%ADD50C,1.80*%
%ADD51R,1.80X1.80*%
%ADD52C,1.47*%
%ADD53R,1.75X2.40*%
%ADD54R,1.15X1.20*%
%ADD55R,1.20X1.15*%
%ADD56R,1.65X1.35*%
%ADD57R,2.00X1.35*%
%ADD58R,1.70X5.60*%
%ADD59R,2.45X2.00*%
%ADD60R,0.47X0.47*%
%ADD61R,2.00X1.35*%
%ADD62R,1.10X0.65*%
%ADD63R,1.90X2.90*%
%ADD64R,1.10X1.50*%
%ADD65R,1.10X2.10*%
%ADD66C,0.25*%
%ADD67C,0.05*%
%ADD68C,0.10*%
%ADD69C,0.17*%
D16*
X8550Y8612D02*
Y9138D01*
Y4862D02*
Y5388D01*
X5000Y4500D02*
Y9500D01*
X8550D01*
X5000Y4500D02*
X8550D01*
Y6425D02*
Y7575D01*
Y5800D02*
Y6425D01*
Y7575D02*
Y8200D01*
Y8612D01*
Y9138D02*
Y9500D01*
Y4500D02*
Y4862D01*
Y5388D02*
Y5800D01*
D41*
X5199Y9221D02*
Y9323D01*
X5301D01*
Y9221D01*
X5199D01*
Y8967D02*
Y9069D01*
X5301D01*
Y8967D01*
X5199D01*
Y8713D02*
Y8815D01*
X5301D01*
Y8713D01*
X5199D01*
Y8459D02*
Y8561D01*
X5301D01*
Y8459D01*
X5199D01*
Y8205D02*
Y8307D01*
X5301D01*
Y8205D01*
X5199D01*
Y7951D02*
Y8053D01*
X5301D01*
Y7951D01*
X5199D01*
Y7697D02*
Y7799D01*
X5301D01*
Y7697D01*
X5199D01*
Y7443D02*
Y7545D01*
X5301D01*
Y7443D01*
X5199D01*
Y7189D02*
Y7291D01*
X5301D01*
Y7189D01*
X5199D01*
Y6935D02*
Y7037D01*
X5301D01*
Y6935D01*
X5199D01*
Y6681D02*
Y6783D01*
X5301D01*
Y6681D01*
X5199D01*
Y6427D02*
Y6529D01*
X5301D01*
Y6427D01*
X5199D01*
Y6173D02*
Y6275D01*
X5301D01*
Y6173D01*
X5199D01*
Y5919D02*
Y6021D01*
X5301D01*
Y5919D01*
X5199D01*
Y5665D02*
Y5767D01*
X5301D01*
Y5665D01*
X5199D01*
Y5411D02*
Y5513D01*
X5301D01*
Y5411D01*
X5199D01*
Y5157D02*
Y5259D01*
X5301D01*
Y5157D01*
X5199D01*
Y4649D02*
Y4751D01*
X5301D01*
Y4649D01*
X5199D01*
Y4903D02*
Y5005D01*
X5301D01*
Y4903D01*
X5199D01*
X8249Y9221D02*
Y9323D01*
X8351D01*
Y9221D01*
X8249D01*
Y8967D02*
Y9069D01*
X8351D01*
Y8967D01*
X8249D01*
Y8713D02*
Y8815D01*
X8351D01*
Y8713D01*
X8249D01*
Y8459D02*
Y8561D01*
X8351D01*
Y8459D01*
X8249D01*
Y8205D02*
Y8307D01*
X8351D01*
Y8205D01*
X8249D01*
Y7951D02*
Y8053D01*
X8351D01*
Y7951D01*
X8249D01*
Y7697D02*
Y7799D01*
X8351D01*
Y7697D01*
X8249D01*
Y7443D02*
Y7545D01*
X8351D01*
Y7443D01*
X8249D01*
Y7189D02*
Y7291D01*
X8351D01*
Y7189D01*
X8249D01*
Y6935D02*
Y7037D01*
X8351D01*
Y6935D01*
X8249D01*
Y6681D02*
Y6783D01*
X8351D01*
Y6681D01*
X8249D01*
Y6427D02*
Y6529D01*
X8351D01*
Y6427D01*
X8249D01*
Y6173D02*
Y6275D01*
X8351D01*
Y6173D01*
X8249D01*
Y5919D02*
Y6021D01*
X8351D01*
Y5919D01*
X8249D01*
Y5665D02*
Y5767D01*
X8351D01*
Y5665D01*
X8249D01*
Y5411D02*
Y5513D01*
X8351D01*
Y5411D01*
X8249D01*
Y5157D02*
Y5259D01*
X8351D01*
Y5157D01*
X8249D01*
Y4649D02*
Y4751D01*
X8351D01*
Y4649D01*
X8249D01*
Y4903D02*
Y5005D01*
X8351D01*
Y4903D01*
X8249D01*
X7562Y7469D02*
X7511Y7571D01*
X7613D01*
X7562Y7469D01*
X6038D02*
X5987Y7571D01*
X6089D01*
X6038Y7469D01*
X7562Y6961D02*
X7511Y7063D01*
X7613D01*
X7562Y6961D01*
Y6707D02*
X7511Y6809D01*
X7613D01*
X7562Y6707D01*
Y6453D02*
X7511Y6555D01*
X7613D01*
X7562Y6453D01*
X6038Y5183D02*
X5987Y5285D01*
X6089D01*
X6038Y5183D01*
Y4929D02*
X5987Y5031D01*
X6089D01*
X6038Y4929D01*
Y6961D02*
X5987Y7063D01*
X6089D01*
X6038Y6961D01*
Y6707D02*
X5987Y6809D01*
X6089D01*
X6038Y6707D01*
X7562Y5183D02*
X7511Y5285D01*
X7613D01*
X7562Y5183D01*
Y4929D02*
X7511Y5031D01*
X7613D01*
X7562Y4929D01*
X6038Y6453D02*
X5987Y6555D01*
X6089D01*
X6038Y6453D01*
D69*
X7622Y8400D02*
G03*
X7622Y8400I-51J0D01*
G01*
X7876D02*
G03*
X7876Y8400I-51J0D01*
G01*
X7749D02*
G03*
X7749Y8400I-51J0D01*
G01*
X6776Y9143D02*
G03*
X6776Y9143I-51J0D01*
G01*
X6251Y5500D02*
G03*
X6251Y5500I-51J0D01*
G01*
X6924Y5550D02*
G03*
X6924Y5550I-51J0D01*
G01*
X7651D02*
G03*
X7651Y5550I-51J0D01*
G01*
X6826Y8550D02*
G03*
X6826Y8550I-51J0D01*
G01*
X7401Y9000D02*
G03*
X7401Y9000I-51J0D01*
G01*
M02*
