G04 Layer_Color=128*
%FSLAX42Y42*%
%MOMM*%
G71*
G01*
G75*
%ADD11R,1.60X4.90*%
%ADD17C,0.25*%
%ADD26C,0.25*%
%ADD27R,1.55X2.20*%
%ADD28R,0.95X1.00*%
%ADD29R,1.00X0.95*%
%ADD30R,1.45X1.15*%
%ADD31R,1.80X1.15*%
%ADD32R,1.50X5.40*%
%ADD33R,2.25X1.80*%
%ADD34R,1.80X1.15*%
%ADD35R,0.90X0.45*%
%ADD36R,1.70X2.70*%
%ADD37R,0.90X1.30*%
%ADD38R,0.90X1.90*%
D11*
X6525Y9218D02*
D03*
X5675D02*
D03*
X7775D02*
D03*
X6925D02*
D03*
D17*
X8550Y8612D02*
Y9138D01*
Y4862D02*
Y5388D01*
X5000Y4500D02*
Y9500D01*
X8550D01*
X5000Y4500D02*
X8550D01*
Y6425D02*
Y7575D01*
Y5800D02*
Y6425D01*
Y7575D02*
Y8200D01*
Y8612D01*
Y9138D02*
Y9500D01*
Y4500D02*
Y4862D01*
Y5388D02*
Y5800D01*
D26*
X6368Y5763D02*
D03*
X6418D02*
D03*
X6468D02*
D03*
X6518D02*
D03*
X6618D02*
D03*
X6668D02*
D03*
X6718D02*
D03*
X6768D02*
D03*
X6418Y5813D02*
D03*
X6718D02*
D03*
X6518Y6013D02*
D03*
X6668D02*
D03*
X6518Y6063D02*
D03*
X6368Y6413D02*
D03*
X6418D02*
D03*
X6468D02*
D03*
X6518D02*
D03*
X6568D02*
D03*
X6618D02*
D03*
X6668D02*
D03*
X6718D02*
D03*
X6768D02*
D03*
D27*
X6775Y7255D02*
D03*
Y6845D02*
D03*
X7175Y6845D02*
D03*
Y7255D02*
D03*
D28*
X7355Y5550D02*
D03*
X7195D02*
D03*
X6359Y6627D02*
D03*
X6519D02*
D03*
X5795Y6100D02*
D03*
X5955D02*
D03*
D29*
X5800Y5745D02*
D03*
Y5905D02*
D03*
D30*
X6450Y7515D02*
D03*
Y7335D02*
D03*
D31*
X6600Y4950D02*
D03*
Y5250D02*
D03*
D32*
X7190Y6000D02*
D03*
X7710D02*
D03*
D33*
X6950Y5245D02*
D03*
Y4955D02*
D03*
D34*
X7900Y6945D02*
D03*
Y6655D02*
D03*
D35*
X7755Y8700D02*
D03*
X7545Y8765D02*
D03*
Y8635D02*
D03*
D36*
X7150Y8286D02*
D03*
D37*
X7300Y8546D02*
D03*
X7000D02*
D03*
D38*
X7150Y8517D02*
D03*
M02*
