%FSLAX42Y42*%
%MOMM*%
G71*
G01*
G75*
%ADD10R,0.90X1.60*%
%ADD11R,1.30X1.30*%
%ADD12R,1.50X1.50*%
%ADD13R,1.60X4.90*%
%ADD14R,0.70X2.35*%
%ADD15C,0.25*%
%ADD16C,1.02*%
%ADD17C,0.51*%
%ADD18C,0.30*%
%ADD19C,1.60*%
%ADD20R,1.60X1.60*%
%ADD21C,1.02*%
%ADD22C,1.52*%
%ADD23R,1.52X1.52*%
%ADD24C,1.27*%
%ADD25R,0.90X1.30*%
%ADD26R,0.90X1.90*%
%ADD27R,1.70X2.70*%
%ADD28R,0.90X0.45*%
%ADD29R,1.80X1.15*%
%ADD30R,0.32X0.32*%
%ADD31R,1.55X2.20*%
%ADD32R,2.25X1.80*%
%ADD33R,1.50X5.40*%
%ADD34R,1.80X1.15*%
%ADD35R,1.45X1.15*%
%ADD36R,0.95X1.00*%
%ADD37R,1.00X0.95*%
%ADD38C,0.38*%
%ADD39C,0.20*%
%ADD40C,0.30*%
%ADD41C,0.13*%
%ADD42R,1.10X1.80*%
%ADD43R,1.50X1.50*%
%ADD44R,1.70X1.70*%
%ADD45R,1.80X5.10*%
%ADD46R,0.90X2.55*%
%ADD47C,1.80*%
%ADD48R,1.80X1.80*%
%ADD49C,1.22*%
%ADD50C,1.73*%
%ADD51R,1.73X1.73*%
%ADD52C,1.47*%
%ADD53R,1.10X1.50*%
%ADD54R,1.10X2.10*%
%ADD55R,1.90X2.90*%
%ADD56R,1.10X0.65*%
%ADD57R,2.00X1.35*%
%ADD58R,0.47X0.47*%
%ADD59R,1.75X2.40*%
%ADD60R,2.45X2.00*%
%ADD61R,1.70X5.60*%
%ADD62R,2.00X1.35*%
%ADD63R,1.65X1.35*%
%ADD64R,1.15X1.20*%
%ADD65R,1.20X1.15*%
%ADD66C,0.25*%
%ADD67C,0.10*%
%ADD68C,0.17*%
D15*
X8500Y4500D02*
Y9500D01*
X5000Y4500D02*
X8500D01*
X5000Y9500D02*
X8500D01*
X5000Y4500D02*
Y9500D01*
D41*
X5988Y6504D02*
X6088D01*
X6038Y6454D02*
Y6554D01*
X7512Y4980D02*
X7612D01*
X7562Y4930D02*
Y5030D01*
X7512Y5234D02*
X7612D01*
X7562Y5184D02*
Y5284D01*
X5988Y6758D02*
X6088D01*
X6038Y6708D02*
Y6808D01*
X5988Y7012D02*
X6088D01*
X6038Y6962D02*
Y7062D01*
X5988Y4980D02*
X6088D01*
X6038Y4930D02*
Y5030D01*
X5988Y5234D02*
X6088D01*
X6038Y5184D02*
Y5284D01*
X7512Y6504D02*
X7612D01*
X7562Y6454D02*
Y6554D01*
X7512Y6758D02*
X7612D01*
X7562Y6708D02*
Y6808D01*
X7512Y7012D02*
X7612D01*
X7562Y6962D02*
Y7062D01*
X5988Y7520D02*
X6088D01*
X6038Y7470D02*
Y7570D01*
X7512Y7520D02*
X7612D01*
X7562Y7470D02*
Y7570D01*
X7662Y8400D02*
X7734D01*
X7698Y8364D02*
Y8436D01*
X7789Y8400D02*
X7861D01*
X7825Y8364D02*
Y8436D01*
X7535Y8400D02*
X7607D01*
X7571Y8364D02*
Y8436D01*
X8202Y4954D02*
X8298D01*
X8250Y4906D02*
Y5002D01*
X8202Y4700D02*
X8298D01*
X8250Y4652D02*
Y4748D01*
X8202Y5208D02*
X8298D01*
X8250Y5160D02*
Y5256D01*
X8202Y5462D02*
X8298D01*
X8250Y5414D02*
Y5510D01*
X8202Y5716D02*
X8298D01*
X8250Y5668D02*
Y5764D01*
X8202Y5970D02*
X8298D01*
X8250Y5922D02*
Y6018D01*
X8202Y6224D02*
X8298D01*
X8250Y6176D02*
Y6272D01*
X8202Y6478D02*
X8298D01*
X8250Y6430D02*
Y6526D01*
X8202Y6732D02*
X8298D01*
X8250Y6684D02*
Y6780D01*
X8202Y6986D02*
X8298D01*
X8250Y6938D02*
Y7034D01*
X8202Y7240D02*
X8298D01*
X8250Y7192D02*
Y7288D01*
X8202Y7494D02*
X8298D01*
X8250Y7446D02*
Y7542D01*
X8202Y7748D02*
X8298D01*
X8250Y7700D02*
Y7796D01*
X8202Y8002D02*
X8298D01*
X8250Y7954D02*
Y8050D01*
X8202Y8256D02*
X8298D01*
X8250Y8208D02*
Y8304D01*
X8202Y8510D02*
X8298D01*
X8250Y8462D02*
Y8558D01*
X8202Y8764D02*
X8298D01*
X8250Y8716D02*
Y8812D01*
X8202Y9018D02*
X8298D01*
X8250Y8970D02*
Y9066D01*
X8202Y9272D02*
X8298D01*
X8250Y9224D02*
Y9320D01*
X5202Y4954D02*
X5298D01*
X5250Y4906D02*
Y5002D01*
X5202Y4700D02*
X5298D01*
X5250Y4652D02*
Y4748D01*
X5202Y5208D02*
X5298D01*
X5250Y5160D02*
Y5256D01*
X5202Y5462D02*
X5298D01*
X5250Y5414D02*
Y5510D01*
X5202Y5716D02*
X5298D01*
X5250Y5668D02*
Y5764D01*
X5202Y5970D02*
X5298D01*
X5250Y5922D02*
Y6018D01*
X5202Y6224D02*
X5298D01*
X5250Y6176D02*
Y6272D01*
X5202Y6478D02*
X5298D01*
X5250Y6430D02*
Y6526D01*
X5202Y6732D02*
X5298D01*
X5250Y6684D02*
Y6780D01*
X5202Y6986D02*
X5298D01*
X5250Y6938D02*
Y7034D01*
X5202Y7240D02*
X5298D01*
X5250Y7192D02*
Y7288D01*
X5202Y7494D02*
X5298D01*
X5250Y7446D02*
Y7542D01*
X5202Y7748D02*
X5298D01*
X5250Y7700D02*
Y7796D01*
X5202Y8002D02*
X5298D01*
X5250Y7954D02*
Y8050D01*
X5202Y8256D02*
X5298D01*
X5250Y8208D02*
Y8304D01*
X5202Y8510D02*
X5298D01*
X5250Y8462D02*
Y8558D01*
X5202Y8764D02*
X5298D01*
X5250Y8716D02*
Y8812D01*
X5202Y9018D02*
X5298D01*
X5250Y8970D02*
Y9066D01*
X5202Y9272D02*
X5298D01*
X5250Y9224D02*
Y9320D01*
X7314Y9000D02*
X7386D01*
X7350Y8964D02*
Y9036D01*
X6739Y8550D02*
X6811D01*
X6775Y8514D02*
Y8586D01*
X7564Y5550D02*
X7636D01*
X7600Y5514D02*
Y5586D01*
X6838Y5550D02*
X6909D01*
X6873Y5514D02*
Y5586D01*
X6164Y5500D02*
X6236D01*
X6200Y5464D02*
Y5536D01*
X6689Y9143D02*
X6761D01*
X6725Y9107D02*
Y9178D01*
M02*
