<?xml version="1.0" encoding="UTF-8" standalone="no"?>
<!DOCTYPE svg PUBLIC "-//W3C//DTD SVG 1.1//EN"
 "http://www.w3.org/Graphics/SVG/1.1/DTD/svg11.dtd">
<!-- Generated by graphviz version 2.38.0 (20140413.2041)
 -->
<!-- Title: %3 Pages: 1 -->
<svg width="254pt" height="404pt"
 viewBox="0.00 0.00 254.29 404.00" xmlns="http://www.w3.org/2000/svg" xmlns:xlink="http://www.w3.org/1999/xlink">
<g id="graph0" class="graph" transform="scale(1 1) rotate(0) translate(4 400)">
<title>%3</title>
<polygon fill="white" stroke="none" points="-4,4 -4,-400 250.288,-400 250.288,4 -4,4"/>
<!-- ITF&#45;2_VDD_5V -->
<g id="node1" class="node"><title>ITF&#45;2_VDD_5V</title>
<ellipse fill="none" stroke="black" cx="69.5438" cy="-306" rx="69.5877" ry="18"/>
<text text-anchor="middle" x="69.5438" y="-302.3" font-family="Times,serif" font-size="14.00">ITF&#45;2_VDD_5V</text>
</g>
<!-- Feather WICED -->
<g id="node2" class="node"><title>Feather WICED</title>
<ellipse fill="none" stroke="black" cx="126.544" cy="-234" rx="68.7879" ry="18"/>
<text text-anchor="middle" x="126.544" y="-230.3" font-family="Times,serif" font-size="14.00">Feather WICED</text>
</g>
<!-- ITF&#45;2_VDD_5V&#45;&gt;Feather WICED -->
<g id="edge1" class="edge"><title>ITF&#45;2_VDD_5V&#45;&gt;Feather WICED</title>
<path fill="none" stroke="black" d="M83.3419,-288.055C90.2733,-279.543 98.8024,-269.068 106.446,-259.681"/>
<polygon fill="black" stroke="black" points="109.273,-261.753 112.873,-251.789 103.844,-257.333 109.273,-261.753"/>
</g>
<!-- DAC -->
<g id="node3" class="node"><title>DAC</title>
<ellipse fill="none" stroke="black" cx="126.544" cy="-162" rx="29.4969" ry="18"/>
<text text-anchor="middle" x="126.544" y="-158.3" font-family="Times,serif" font-size="14.00">DAC</text>
</g>
<!-- Feather WICED&#45;&gt;DAC -->
<g id="edge2" class="edge"><title>Feather WICED&#45;&gt;DAC</title>
<path fill="none" stroke="black" d="M126.544,-215.697C126.544,-207.983 126.544,-198.712 126.544,-190.112"/>
<polygon fill="black" stroke="black" points="130.044,-190.104 126.544,-180.104 123.044,-190.104 130.044,-190.104"/>
</g>
<!-- Biais removal -->
<g id="node4" class="node"><title>Biais removal</title>
<ellipse fill="none" stroke="black" cx="126.544" cy="-90" rx="60.3893" ry="18"/>
<text text-anchor="middle" x="126.544" y="-86.3" font-family="Times,serif" font-size="14.00">Biais removal</text>
</g>
<!-- DAC&#45;&gt;Biais removal -->
<g id="edge3" class="edge"><title>DAC&#45;&gt;Biais removal</title>
<path fill="none" stroke="black" d="M126.544,-143.697C126.544,-135.983 126.544,-126.712 126.544,-118.112"/>
<polygon fill="black" stroke="black" points="130.044,-118.104 126.544,-108.104 123.044,-118.104 130.044,-118.104"/>
</g>
<!-- ITF&#45;18_Raw -->
<g id="node5" class="node"><title>ITF&#45;18_Raw</title>
<ellipse fill="none" stroke="black" cx="126.544" cy="-18" rx="55.7903" ry="18"/>
<text text-anchor="middle" x="126.544" y="-14.3" font-family="Times,serif" font-size="14.00">ITF&#45;18_Raw</text>
</g>
<!-- Biais removal&#45;&gt;ITF&#45;18_Raw -->
<g id="edge4" class="edge"><title>Biais removal&#45;&gt;ITF&#45;18_Raw</title>
<path fill="none" stroke="black" d="M126.544,-71.6966C126.544,-63.9827 126.544,-54.7125 126.544,-46.1124"/>
<polygon fill="black" stroke="black" points="130.044,-46.1043 126.544,-36.1043 123.044,-46.1044 130.044,-46.1043"/>
</g>
<!-- ITF&#45;17_POff3 -->
<g id="node6" class="node"><title>ITF&#45;17_POff3</title>
<ellipse fill="none" stroke="black" cx="184.544" cy="-378" rx="61.99" ry="18"/>
<text text-anchor="middle" x="184.544" y="-374.3" font-family="Times,serif" font-size="14.00">ITF&#45;17_POff3</text>
</g>
<!-- B5 -->
<g id="node7" class="node"><title>B5</title>
<ellipse fill="none" stroke="black" cx="184.544" cy="-306" rx="27" ry="18"/>
<text text-anchor="middle" x="184.544" y="-302.3" font-family="Times,serif" font-size="14.00">B5</text>
</g>
<!-- ITF&#45;17_POff3&#45;&gt;B5 -->
<g id="edge5" class="edge"><title>ITF&#45;17_POff3&#45;&gt;B5</title>
<path fill="none" stroke="black" d="M184.544,-359.697C184.544,-351.983 184.544,-342.712 184.544,-334.112"/>
<polygon fill="black" stroke="black" points="188.044,-334.104 184.544,-324.104 181.044,-334.104 188.044,-334.104"/>
</g>
<!-- B5&#45;&gt;Feather WICED -->
<g id="edge6" class="edge"><title>B5&#45;&gt;Feather WICED</title>
<path fill="none" stroke="black" d="M171.959,-289.811C164.775,-281.141 155.587,-270.052 147.357,-260.12"/>
<polygon fill="black" stroke="black" points="149.81,-257.594 140.735,-252.127 144.42,-262.06 149.81,-257.594"/>
</g>
</g>
</svg>
