<?xml version="1.0" encoding="UTF-8" standalone="no"?>
<!DOCTYPE svg PUBLIC "-//W3C//DTD SVG 1.1//EN"
 "http://www.w3.org/Graphics/SVG/1.1/DTD/svg11.dtd">
<!-- Generated by graphviz version 2.38.0 (20140413.2041)
 -->
<!-- Title: %3 Pages: 1 -->
<svg width="213pt" height="476pt"
 viewBox="0.00 0.00 212.74 476.00" xmlns="http://www.w3.org/2000/svg" xmlns:xlink="http://www.w3.org/1999/xlink">
<g id="graph0" class="graph" transform="scale(1 1) rotate(0) translate(4 472)">
<title>%3</title>
<polygon fill="white" stroke="none" points="-4,4 -4,-472 208.74,-472 208.74,4 -4,4"/>
<!-- ITF&#45;B_5v -->
<g id="node1" class="node"><title>ITF&#45;B_5v</title>
<ellipse fill="none" stroke="black" cx="46.1459" cy="-306" rx="46.2923" ry="18"/>
<text text-anchor="middle" x="46.1459" y="-302.3" font-family="Times,serif" font-size="14.00">ITF&#45;B_5v</text>
</g>
<!-- Feather WICED -->
<g id="node2" class="node"><title>Feather WICED</title>
<ellipse fill="none" stroke="black" cx="91.1459" cy="-234" rx="68.7879" ry="18"/>
<text text-anchor="middle" x="91.1459" y="-230.3" font-family="Times,serif" font-size="14.00">Feather WICED</text>
</g>
<!-- ITF&#45;B_5v&#45;&gt;Feather WICED -->
<g id="edge1" class="edge"><title>ITF&#45;B_5v&#45;&gt;Feather WICED</title>
<path fill="none" stroke="black" d="M56.8103,-288.411C62.1676,-280.077 68.7763,-269.797 74.7606,-260.488"/>
<polygon fill="black" stroke="black" points="77.782,-262.261 80.2455,-251.956 71.8937,-258.475 77.782,-262.261"/>
</g>
<!-- DAC -->
<g id="node3" class="node"><title>DAC</title>
<ellipse fill="none" stroke="black" cx="91.1459" cy="-162" rx="29.4969" ry="18"/>
<text text-anchor="middle" x="91.1459" y="-158.3" font-family="Times,serif" font-size="14.00">DAC</text>
</g>
<!-- Feather WICED&#45;&gt;DAC -->
<g id="edge2" class="edge"><title>Feather WICED&#45;&gt;DAC</title>
<path fill="none" stroke="black" d="M91.1459,-215.697C91.1459,-207.983 91.1459,-198.712 91.1459,-190.112"/>
<polygon fill="black" stroke="black" points="94.646,-190.104 91.1459,-180.104 87.646,-190.104 94.646,-190.104"/>
</g>
<!-- Biais removal -->
<g id="node4" class="node"><title>Biais removal</title>
<ellipse fill="none" stroke="black" cx="91.1459" cy="-90" rx="60.3893" ry="18"/>
<text text-anchor="middle" x="91.1459" y="-86.3" font-family="Times,serif" font-size="14.00">Biais removal</text>
</g>
<!-- DAC&#45;&gt;Biais removal -->
<g id="edge3" class="edge"><title>DAC&#45;&gt;Biais removal</title>
<path fill="none" stroke="black" d="M91.1459,-143.697C91.1459,-135.983 91.1459,-126.712 91.1459,-118.112"/>
<polygon fill="black" stroke="black" points="94.646,-118.104 91.1459,-108.104 87.646,-118.104 94.646,-118.104"/>
</g>
<!-- ITF&#45;R_reserved -->
<g id="node5" class="node"><title>ITF&#45;R_reserved</title>
<ellipse fill="none" stroke="black" cx="91.1459" cy="-18" rx="66.8882" ry="18"/>
<text text-anchor="middle" x="91.1459" y="-14.3" font-family="Times,serif" font-size="14.00">ITF&#45;R_reserved</text>
</g>
<!-- Biais removal&#45;&gt;ITF&#45;R_reserved -->
<g id="edge4" class="edge"><title>Biais removal&#45;&gt;ITF&#45;R_reserved</title>
<path fill="none" stroke="black" d="M91.1459,-71.6966C91.1459,-63.9827 91.1459,-54.7125 91.1459,-46.1124"/>
<polygon fill="black" stroke="black" points="94.646,-46.1043 91.1459,-36.1043 87.646,-46.1044 94.646,-46.1043"/>
</g>
<!-- ITF&#45;J_pulse_off -->
<g id="node6" class="node"><title>ITF&#45;J_pulse_off</title>
<ellipse fill="none" stroke="black" cx="137.146" cy="-450" rx="67.6881" ry="18"/>
<text text-anchor="middle" x="137.146" y="-446.3" font-family="Times,serif" font-size="14.00">ITF&#45;J_pulse_off</text>
</g>
<!-- 5V to 3.3V -->
<g id="node7" class="node"><title>5V to 3.3V</title>
<ellipse fill="none" stroke="black" cx="137.146" cy="-378" rx="50.8918" ry="18"/>
<text text-anchor="middle" x="137.146" y="-374.3" font-family="Times,serif" font-size="14.00">5V to 3.3V</text>
</g>
<!-- ITF&#45;J_pulse_off&#45;&gt;5V to 3.3V -->
<g id="edge5" class="edge"><title>ITF&#45;J_pulse_off&#45;&gt;5V to 3.3V</title>
<path fill="none" stroke="black" d="M137.146,-431.697C137.146,-423.983 137.146,-414.712 137.146,-406.112"/>
<polygon fill="black" stroke="black" points="140.646,-406.104 137.146,-396.104 133.646,-406.104 140.646,-406.104"/>
</g>
<!-- B5 -->
<g id="node8" class="node"><title>B5</title>
<ellipse fill="none" stroke="black" cx="137.146" cy="-306" rx="27" ry="18"/>
<text text-anchor="middle" x="137.146" y="-302.3" font-family="Times,serif" font-size="14.00">B5</text>
</g>
<!-- 5V to 3.3V&#45;&gt;B5 -->
<g id="edge6" class="edge"><title>5V to 3.3V&#45;&gt;B5</title>
<path fill="none" stroke="black" d="M137.146,-359.697C137.146,-351.983 137.146,-342.712 137.146,-334.112"/>
<polygon fill="black" stroke="black" points="140.646,-334.104 137.146,-324.104 133.646,-334.104 140.646,-334.104"/>
</g>
<!-- B5&#45;&gt;Feather WICED -->
<g id="edge7" class="edge"><title>B5&#45;&gt;Feather WICED</title>
<path fill="none" stroke="black" d="M126.708,-289.116C121.106,-280.592 114.071,-269.886 107.74,-260.251"/>
<polygon fill="black" stroke="black" points="110.601,-258.232 102.184,-251.797 104.751,-262.077 110.601,-258.232"/>
</g>
</g>
</svg>
