<?xml version="1.0" encoding="UTF-8" standalone="no"?>
<!DOCTYPE svg PUBLIC "-//W3C//DTD SVG 1.1//EN"
 "http://www.w3.org/Graphics/SVG/1.1/DTD/svg11.dtd">
<!-- Generated by graphviz version 2.38.0 (20140413.2041)
 -->
<!-- Title: %3 Pages: 1 -->
<svg width="250pt" height="260pt"
 viewBox="0.00 0.00 249.79 260.00" xmlns="http://www.w3.org/2000/svg" xmlns:xlink="http://www.w3.org/1999/xlink">
<g id="graph0" class="graph" transform="scale(1 1) rotate(0) translate(4 256)">
<title>%3</title>
<polygon fill="white" stroke="none" points="-4,4 -4,-256 245.79,-256 245.79,4 -4,4"/>
<!-- ITF&#45;B_5v -->
<g id="node1" class="node"><title>ITF&#45;B_5v</title>
<ellipse fill="none" stroke="black" cx="46.1459" cy="-234" rx="46.2923" ry="18"/>
<text text-anchor="middle" x="46.1459" y="-230.3" font-family="Times,serif" font-size="14.00">ITF&#45;B_5v</text>
</g>
<!-- Teensy 3.2 -->
<g id="node2" class="node"><title>Teensy 3.2</title>
<ellipse fill="none" stroke="black" cx="111.146" cy="-162" rx="50.0912" ry="18"/>
<text text-anchor="middle" x="111.146" y="-158.3" font-family="Times,serif" font-size="14.00">Teensy 3.2</text>
</g>
<!-- ITF&#45;B_5v&#45;&gt;Teensy 3.2 -->
<g id="edge1" class="edge"><title>ITF&#45;B_5v&#45;&gt;Teensy 3.2</title>
<path fill="none" stroke="black" d="M61.2216,-216.765C69.3891,-207.969 79.641,-196.928 88.7265,-187.144"/>
<polygon fill="black" stroke="black" points="91.4609,-189.343 95.7006,-179.633 86.3313,-184.58 91.4609,-189.343"/>
</g>
<!-- DAC -->
<g id="node3" class="node"><title>DAC</title>
<ellipse fill="none" stroke="black" cx="111.146" cy="-90" rx="29.4969" ry="18"/>
<text text-anchor="middle" x="111.146" y="-86.3" font-family="Times,serif" font-size="14.00">DAC</text>
</g>
<!-- Teensy 3.2&#45;&gt;DAC -->
<g id="edge2" class="edge"><title>Teensy 3.2&#45;&gt;DAC</title>
<path fill="none" stroke="black" d="M111.146,-143.697C111.146,-135.983 111.146,-126.712 111.146,-118.112"/>
<polygon fill="black" stroke="black" points="114.646,-118.104 111.146,-108.104 107.646,-118.104 114.646,-118.104"/>
</g>
<!-- ITF&#45;E_signal_envelope -->
<g id="node4" class="node"><title>ITF&#45;E_signal_envelope</title>
<ellipse fill="none" stroke="black" cx="111.146" cy="-18" rx="93.6835" ry="18"/>
<text text-anchor="middle" x="111.146" y="-14.3" font-family="Times,serif" font-size="14.00">ITF&#45;E_signal_envelope</text>
</g>
<!-- DAC&#45;&gt;ITF&#45;E_signal_envelope -->
<g id="edge3" class="edge"><title>DAC&#45;&gt;ITF&#45;E_signal_envelope</title>
<path fill="none" stroke="black" d="M111.146,-71.6966C111.146,-63.9827 111.146,-54.7125 111.146,-46.1124"/>
<polygon fill="black" stroke="black" points="114.646,-46.1043 111.146,-36.1043 107.646,-46.1044 114.646,-46.1043"/>
</g>
<!-- ITF&#45;I_pulse_on -->
<g id="node5" class="node"><title>ITF&#45;I_pulse_on</title>
<ellipse fill="none" stroke="black" cx="176.146" cy="-234" rx="65.7887" ry="18"/>
<text text-anchor="middle" x="176.146" y="-230.3" font-family="Times,serif" font-size="14.00">ITF&#45;I_pulse_on</text>
</g>
<!-- ITF&#45;I_pulse_on&#45;&gt;Teensy 3.2 -->
<g id="edge4" class="edge"><title>ITF&#45;I_pulse_on&#45;&gt;Teensy 3.2</title>
<path fill="none" stroke="black" d="M160.742,-216.411C152.566,-207.606 142.372,-196.628 133.356,-186.919"/>
<polygon fill="black" stroke="black" points="135.809,-184.416 126.439,-179.47 130.679,-189.179 135.809,-184.416"/>
</g>
</g>
</svg>
