G04 Layer_Physical_Order=2*
G04 Layer_Color=16711680*
%FSAX24Y24*%
%MOIN*%
G70*
G01*
G75*
%ADD16R,0.0630X0.1929*%
%ADD26C,0.0197*%
%ADD27C,0.0118*%
%ADD28C,0.0079*%
%ADD33C,0.0591*%
%ADD34C,0.0709*%
G04:AMPARAMS|DCode=35|XSize=70.9mil|YSize=70.9mil|CornerRadius=17.7mil|HoleSize=0mil|Usage=FLASHONLY|Rotation=180.000|XOffset=0mil|YOffset=0mil|HoleType=Round|Shape=RoundedRectangle|*
%AMROUNDEDRECTD35*
21,1,0.0709,0.0354,0,0,180.0*
21,1,0.0354,0.0709,0,0,180.0*
1,1,0.0354,-0.0177,0.0177*
1,1,0.0354,0.0177,0.0177*
1,1,0.0354,0.0177,-0.0177*
1,1,0.0354,-0.0177,-0.0177*
%
%ADD35ROUNDEDRECTD35*%
G04:AMPARAMS|DCode=36|XSize=59.1mil|YSize=59.1mil|CornerRadius=14.8mil|HoleSize=0mil|Usage=FLASHONLY|Rotation=180.000|XOffset=0mil|YOffset=0mil|HoleType=Round|Shape=RoundedRectangle|*
%AMROUNDEDRECTD36*
21,1,0.0591,0.0295,0,0,180.0*
21,1,0.0295,0.0591,0,0,180.0*
1,1,0.0295,-0.0148,0.0148*
1,1,0.0295,0.0148,0.0148*
1,1,0.0295,0.0148,-0.0148*
1,1,0.0295,-0.0148,-0.0148*
%
%ADD36ROUNDEDRECTD36*%
%ADD37C,0.0630*%
G04:AMPARAMS|DCode=38|XSize=63mil|YSize=63mil|CornerRadius=7.9mil|HoleSize=0mil|Usage=FLASHONLY|Rotation=270.000|XOffset=0mil|YOffset=0mil|HoleType=Round|Shape=RoundedRectangle|*
%AMROUNDEDRECTD38*
21,1,0.0630,0.0472,0,0,270.0*
21,1,0.0472,0.0630,0,0,270.0*
1,1,0.0157,-0.0236,-0.0236*
1,1,0.0157,-0.0236,0.0236*
1,1,0.0157,0.0236,0.0236*
1,1,0.0157,0.0236,-0.0236*
%
%ADD38ROUNDEDRECTD38*%
%ADD39C,0.0600*%
%ADD40R,0.0600X0.0600*%
%ADD41C,0.0256*%
G36*
X044010Y047040D02*
X044094Y047023D01*
X044959D01*
Y045018D01*
X045789D01*
Y047023D01*
X046563D01*
X046568Y046945D01*
X046535Y046940D01*
X046438Y046900D01*
X046356Y046837D01*
X046293Y046754D01*
X046253Y046658D01*
X046239Y046555D01*
X046253Y046452D01*
X046293Y046356D01*
X046356Y046273D01*
X046438Y046210D01*
X046535Y046170D01*
X046638Y046156D01*
X046741Y046170D01*
X046837Y046210D01*
X046920Y046273D01*
X046983Y046356D01*
X047023Y046452D01*
X047036Y046555D01*
X047023Y046658D01*
X046983Y046754D01*
X046920Y046837D01*
X046837Y046900D01*
X046741Y046940D01*
X046708Y046945D01*
X046713Y047023D01*
X047182D01*
X047197Y047005D01*
X047217Y046945D01*
X047172Y046886D01*
X047135Y046798D01*
X047123Y046703D01*
Y046407D01*
X047135Y046312D01*
X047172Y046224D01*
X047230Y046148D01*
X047306Y046089D01*
X047395Y046053D01*
X047490Y046040D01*
X047785D01*
X047881Y046053D01*
X047969Y046089D01*
X048045Y046148D01*
X048104Y046224D01*
X048140Y046312D01*
X048153Y046407D01*
Y046703D01*
X048140Y046798D01*
X048104Y046886D01*
X048059Y046945D01*
X048079Y047005D01*
X048094Y047023D01*
X048475D01*
X048510Y046953D01*
X048501Y046941D01*
X048444Y046803D01*
X048424Y046654D01*
X048444Y046505D01*
X048501Y046366D01*
X048593Y046246D01*
X048712Y046155D01*
X048851Y046097D01*
X049000Y046078D01*
X049149Y046097D01*
X049288Y046155D01*
X049407Y046246D01*
X049450Y046303D01*
X049550D01*
X049593Y046246D01*
X049712Y046155D01*
X049851Y046097D01*
X050000Y046078D01*
X050149Y046097D01*
X050288Y046155D01*
X050407Y046246D01*
X050411Y046251D01*
X050505Y046244D01*
X050542Y046196D01*
X050624Y046132D01*
X050720Y046093D01*
X050823Y046079D01*
X051177D01*
X051280Y046093D01*
X051376Y046132D01*
X051458Y046196D01*
X051521Y046278D01*
X051561Y046374D01*
X051574Y046476D01*
Y046831D01*
X051561Y046933D01*
X051551Y046958D01*
X051594Y047023D01*
X052362D01*
Y046867D01*
X052227Y046850D01*
X052102Y046798D01*
X051994Y046715D01*
X051911Y046607D01*
X051859Y046481D01*
X051841Y046346D01*
X051859Y046212D01*
X051911Y046086D01*
X051994Y045978D01*
X052102Y045895D01*
X052124Y045886D01*
Y045807D01*
X052102Y045798D01*
X051994Y045715D01*
X051911Y045607D01*
X051859Y045481D01*
X051841Y045346D01*
X051859Y045212D01*
X051911Y045086D01*
X051994Y044978D01*
X052102Y044895D01*
X052124Y044886D01*
Y044807D01*
X052102Y044798D01*
X051994Y044715D01*
X051911Y044607D01*
X051859Y044481D01*
X051841Y044346D01*
X051859Y044212D01*
X051911Y044086D01*
X051994Y043978D01*
X052102Y043895D01*
X052124Y043886D01*
Y043807D01*
X052102Y043798D01*
X051994Y043715D01*
X051911Y043607D01*
X051859Y043481D01*
X051841Y043346D01*
X051859Y043212D01*
X051911Y043086D01*
X051994Y042978D01*
X052102Y042895D01*
X052124Y042886D01*
Y042807D01*
X052102Y042798D01*
X051994Y042715D01*
X051911Y042607D01*
X051859Y042481D01*
X051841Y042346D01*
X051859Y042212D01*
X051911Y042086D01*
X051994Y041978D01*
X052102Y041895D01*
X052124Y041886D01*
Y041807D01*
X052102Y041798D01*
X051994Y041715D01*
X051911Y041607D01*
X051859Y041481D01*
X051841Y041346D01*
X051859Y041212D01*
X051911Y041086D01*
X051994Y040978D01*
X052102Y040895D01*
X052124Y040886D01*
Y040807D01*
X052102Y040798D01*
X051994Y040715D01*
X051911Y040607D01*
X051859Y040481D01*
X051841Y040346D01*
X051859Y040212D01*
X051911Y040086D01*
X051994Y039978D01*
X052102Y039895D01*
X052124Y039886D01*
Y039807D01*
X052102Y039798D01*
X051994Y039715D01*
X051911Y039607D01*
X051859Y039481D01*
X051841Y039346D01*
X051859Y039212D01*
X051911Y039086D01*
X051994Y038978D01*
X052102Y038895D01*
X052124Y038886D01*
Y038807D01*
X052102Y038798D01*
X051994Y038715D01*
X051911Y038607D01*
X051859Y038481D01*
X051841Y038346D01*
X051859Y038212D01*
X051911Y038086D01*
X051994Y037978D01*
X052102Y037895D01*
X052124Y037886D01*
Y037807D01*
X052102Y037798D01*
X051994Y037715D01*
X051911Y037607D01*
X051859Y037481D01*
X051841Y037346D01*
X051859Y037212D01*
X051911Y037086D01*
X051994Y036978D01*
X052102Y036895D01*
X052124Y036886D01*
Y036807D01*
X052102Y036798D01*
X051994Y036715D01*
X051911Y036607D01*
X051859Y036481D01*
X051841Y036346D01*
X051859Y036212D01*
X051911Y036086D01*
X051994Y035978D01*
X052102Y035895D01*
X052124Y035886D01*
Y035807D01*
X052102Y035798D01*
X051994Y035715D01*
X051911Y035607D01*
X051859Y035481D01*
X051841Y035346D01*
X051859Y035212D01*
X051911Y035086D01*
X051994Y034978D01*
X052102Y034895D01*
X052124Y034886D01*
Y034807D01*
X052102Y034798D01*
X051994Y034715D01*
X051911Y034607D01*
X051859Y034481D01*
X051841Y034346D01*
X051859Y034212D01*
X051911Y034086D01*
X051994Y033978D01*
X052102Y033895D01*
X052124Y033886D01*
Y033807D01*
X052102Y033798D01*
X051994Y033715D01*
X051911Y033607D01*
X051859Y033481D01*
X051841Y033346D01*
X051859Y033212D01*
X051911Y033086D01*
X051994Y032978D01*
X052102Y032895D01*
X052124Y032886D01*
Y032807D01*
X052102Y032798D01*
X051994Y032715D01*
X051911Y032607D01*
X051859Y032481D01*
X051841Y032346D01*
X051859Y032212D01*
X051911Y032086D01*
X051994Y031978D01*
X052102Y031895D01*
X052124Y031886D01*
Y031807D01*
X052102Y031798D01*
X051994Y031715D01*
X051911Y031607D01*
X051859Y031481D01*
X051841Y031346D01*
X051859Y031212D01*
X051911Y031086D01*
X051994Y030978D01*
X052102Y030895D01*
X052124Y030886D01*
Y030807D01*
X052102Y030798D01*
X051994Y030715D01*
X051911Y030607D01*
X051859Y030481D01*
X051841Y030346D01*
X051859Y030212D01*
X051911Y030086D01*
X051994Y029978D01*
X052102Y029895D01*
X052124Y029886D01*
Y029807D01*
X052102Y029798D01*
X051994Y029715D01*
X051911Y029607D01*
X051859Y029481D01*
X051841Y029346D01*
X051859Y029212D01*
X051911Y029086D01*
X051994Y028978D01*
X052102Y028895D01*
X052227Y028843D01*
X052362Y028825D01*
Y028746D01*
X051962D01*
Y027946D01*
X052362D01*
Y027780D01*
X040354D01*
Y027946D01*
X040754D01*
Y028746D01*
X040354D01*
Y028825D01*
X040489Y028843D01*
X040615Y028895D01*
X040723Y028978D01*
X040806Y029086D01*
X040858Y029212D01*
X040875Y029346D01*
X040858Y029481D01*
X040806Y029607D01*
X040723Y029715D01*
X040615Y029798D01*
X040592Y029807D01*
Y029886D01*
X040615Y029895D01*
X040723Y029978D01*
X040806Y030086D01*
X040858Y030212D01*
X040875Y030346D01*
X040858Y030481D01*
X040806Y030607D01*
X040723Y030715D01*
X040615Y030798D01*
X040592Y030807D01*
Y030886D01*
X040615Y030895D01*
X040723Y030978D01*
X040806Y031086D01*
X040858Y031212D01*
X040875Y031346D01*
X040858Y031481D01*
X040806Y031607D01*
X040723Y031715D01*
X040615Y031798D01*
X040592Y031807D01*
Y031886D01*
X040615Y031895D01*
X040723Y031978D01*
X040806Y032086D01*
X040858Y032212D01*
X040875Y032346D01*
X040858Y032481D01*
X040806Y032607D01*
X040723Y032715D01*
X040615Y032798D01*
X040592Y032807D01*
Y032886D01*
X040615Y032895D01*
X040723Y032978D01*
X040806Y033086D01*
X040858Y033212D01*
X040875Y033346D01*
X040858Y033481D01*
X040806Y033607D01*
X040723Y033715D01*
X040615Y033798D01*
X040592Y033807D01*
Y033886D01*
X040615Y033895D01*
X040723Y033978D01*
X040806Y034086D01*
X040858Y034212D01*
X040875Y034346D01*
X040858Y034481D01*
X040806Y034607D01*
X040723Y034715D01*
X040615Y034798D01*
X040592Y034807D01*
Y034886D01*
X040615Y034895D01*
X040723Y034978D01*
X040806Y035086D01*
X040858Y035212D01*
X040875Y035346D01*
X040858Y035481D01*
X040806Y035607D01*
X040723Y035715D01*
X040615Y035798D01*
X040592Y035807D01*
Y035886D01*
X040615Y035895D01*
X040723Y035978D01*
X040806Y036086D01*
X040858Y036212D01*
X040875Y036346D01*
X040858Y036481D01*
X040806Y036607D01*
X040723Y036715D01*
X040615Y036798D01*
X040592Y036807D01*
Y036886D01*
X040615Y036895D01*
X040723Y036978D01*
X040806Y037086D01*
X040858Y037212D01*
X040875Y037346D01*
X040858Y037481D01*
X040806Y037607D01*
X040723Y037715D01*
X040615Y037798D01*
X040592Y037807D01*
Y037886D01*
X040615Y037895D01*
X040723Y037978D01*
X040806Y038086D01*
X040858Y038212D01*
X040875Y038346D01*
X040858Y038481D01*
X040806Y038607D01*
X040723Y038715D01*
X040615Y038798D01*
X040592Y038807D01*
Y038886D01*
X040615Y038895D01*
X040723Y038978D01*
X040806Y039086D01*
X040858Y039212D01*
X040875Y039346D01*
X040858Y039481D01*
X040806Y039607D01*
X040723Y039715D01*
X040615Y039798D01*
X040592Y039807D01*
Y039886D01*
X040615Y039895D01*
X040723Y039978D01*
X040806Y040086D01*
X040858Y040212D01*
X040875Y040346D01*
X040858Y040481D01*
X040806Y040607D01*
X040723Y040715D01*
X040615Y040798D01*
X040592Y040807D01*
Y040886D01*
X040615Y040895D01*
X040723Y040978D01*
X040806Y041086D01*
X040858Y041212D01*
X040875Y041346D01*
X040858Y041481D01*
X040806Y041607D01*
X040723Y041715D01*
X040615Y041798D01*
X040592Y041807D01*
Y041886D01*
X040615Y041895D01*
X040723Y041978D01*
X040806Y042086D01*
X040858Y042212D01*
X040875Y042346D01*
X040858Y042481D01*
X040806Y042607D01*
X040723Y042715D01*
X040615Y042798D01*
X040592Y042807D01*
Y042886D01*
X040615Y042895D01*
X040723Y042978D01*
X040806Y043086D01*
X040858Y043212D01*
X040875Y043346D01*
X040858Y043481D01*
X040806Y043607D01*
X040723Y043715D01*
X040615Y043798D01*
X040592Y043807D01*
Y043886D01*
X040615Y043895D01*
X040723Y043978D01*
X040806Y044086D01*
X040858Y044212D01*
X040875Y044346D01*
X040858Y044481D01*
X040806Y044607D01*
X040723Y044715D01*
X040615Y044798D01*
X040592Y044807D01*
Y044886D01*
X040615Y044895D01*
X040723Y044978D01*
X040806Y045086D01*
X040858Y045212D01*
X040875Y045346D01*
X040858Y045481D01*
X040806Y045607D01*
X040723Y045715D01*
X040615Y045798D01*
X040592Y045807D01*
Y045886D01*
X040615Y045895D01*
X040723Y045978D01*
X040806Y046086D01*
X040858Y046212D01*
X040875Y046346D01*
X040858Y046481D01*
X040806Y046607D01*
X040723Y046715D01*
X040615Y046798D01*
X040489Y046850D01*
X040354Y046867D01*
Y047023D01*
X041613D01*
Y045018D01*
X042443D01*
Y047023D01*
X043307D01*
X043392Y047040D01*
X043402Y047047D01*
X043999D01*
X044010Y047040D01*
D02*
G37*
%LPC*%
G36*
X051083Y029942D02*
X050979Y029928D01*
X050883Y029889D01*
X050801Y029825D01*
X050737Y029743D01*
X050698Y029646D01*
X050684Y029543D01*
X050698Y029440D01*
X050737Y029344D01*
X050801Y029261D01*
X050883Y029198D01*
X050979Y029158D01*
X051083Y029145D01*
X051186Y029158D01*
X051282Y029198D01*
X051365Y029261D01*
X051428Y029344D01*
X051468Y029440D01*
X051481Y029543D01*
X051468Y029646D01*
X051428Y029743D01*
X051365Y029825D01*
X051282Y029889D01*
X051186Y029928D01*
X051083Y029942D01*
D02*
G37*
G36*
Y032942D02*
X050979Y032928D01*
X050883Y032889D01*
X050801Y032825D01*
X050737Y032743D01*
X050698Y032646D01*
X050684Y032543D01*
X050698Y032440D01*
X050737Y032344D01*
X050801Y032261D01*
X050883Y032198D01*
X050979Y032158D01*
X051083Y032145D01*
X051186Y032158D01*
X051282Y032198D01*
X051365Y032261D01*
X051428Y032344D01*
X051468Y032440D01*
X051481Y032543D01*
X051468Y032646D01*
X051428Y032743D01*
X051365Y032825D01*
X051282Y032889D01*
X051186Y032928D01*
X051083Y032942D01*
D02*
G37*
G36*
Y036060D02*
X050949Y036042D01*
X050825Y035990D01*
X050718Y035908D01*
X050636Y035801D01*
X050584Y035677D01*
X050566Y035543D01*
X050584Y035410D01*
X050636Y035285D01*
X050718Y035178D01*
X050825Y035096D01*
X050849Y035086D01*
Y035001D01*
X050825Y034990D01*
X050718Y034908D01*
X050636Y034801D01*
X050584Y034677D01*
X050566Y034543D01*
X050584Y034410D01*
X050636Y034285D01*
X050718Y034178D01*
X050825Y034096D01*
X050849Y034086D01*
Y034001D01*
X050825Y033990D01*
X050718Y033908D01*
X050636Y033801D01*
X050584Y033677D01*
X050566Y033543D01*
X050584Y033410D01*
X050636Y033285D01*
X050718Y033178D01*
X050825Y033096D01*
X050949Y033045D01*
X051083Y033027D01*
X051216Y033045D01*
X051341Y033096D01*
X051448Y033178D01*
X051530Y033285D01*
X051581Y033410D01*
X051599Y033543D01*
X051581Y033677D01*
X051530Y033801D01*
X051448Y033908D01*
X051341Y033990D01*
X051316Y034001D01*
Y034086D01*
X051341Y034096D01*
X051448Y034178D01*
X051530Y034285D01*
X051581Y034410D01*
X051599Y034543D01*
X051581Y034677D01*
X051530Y034801D01*
X051448Y034908D01*
X051341Y034990D01*
X051316Y035001D01*
Y035086D01*
X051341Y035096D01*
X051448Y035178D01*
X051530Y035285D01*
X051581Y035410D01*
X051599Y035543D01*
X051581Y035677D01*
X051530Y035801D01*
X051448Y035908D01*
X051341Y035990D01*
X051216Y036042D01*
X051083Y036060D01*
D02*
G37*
G36*
X043602Y029044D02*
X043469Y029026D01*
X043344Y028975D01*
X043237Y028893D01*
X043155Y028786D01*
X043104Y028661D01*
X043086Y028528D01*
X043104Y028394D01*
X043155Y028269D01*
X043237Y028163D01*
X043344Y028080D01*
X043469Y028029D01*
X043602Y028011D01*
X043736Y028029D01*
X043860Y028080D01*
X043967Y028163D01*
X044049Y028269D01*
X044101Y028394D01*
X044119Y028528D01*
X044101Y028661D01*
X044049Y028786D01*
X043967Y028893D01*
X043860Y028975D01*
X043736Y029026D01*
X043602Y029044D01*
D02*
G37*
G36*
X051083Y029060D02*
X050949Y029042D01*
X050825Y028990D01*
X050718Y028908D01*
X050636Y028801D01*
X050584Y028677D01*
X050566Y028543D01*
X050584Y028410D01*
X050636Y028285D01*
X050718Y028178D01*
X050825Y028096D01*
X050949Y028045D01*
X051083Y028027D01*
X051216Y028045D01*
X051341Y028096D01*
X051448Y028178D01*
X051530Y028285D01*
X051581Y028410D01*
X051599Y028543D01*
X051581Y028677D01*
X051530Y028801D01*
X051448Y028908D01*
X051341Y028990D01*
X051216Y029042D01*
X051083Y029060D01*
D02*
G37*
G36*
X043602Y029926D02*
X043499Y029913D01*
X043403Y029873D01*
X043320Y029809D01*
X043257Y029727D01*
X043217Y029631D01*
X043204Y029528D01*
X043217Y029424D01*
X043257Y029328D01*
X043320Y029246D01*
X043403Y029182D01*
X043499Y029142D01*
X043602Y029129D01*
X043706Y029142D01*
X043802Y029182D01*
X043884Y029246D01*
X043948Y029328D01*
X043987Y029424D01*
X044001Y029528D01*
X043987Y029631D01*
X043948Y029727D01*
X043884Y029809D01*
X043802Y029873D01*
X043706Y029913D01*
X043602Y029926D01*
D02*
G37*
G36*
X043789Y039422D02*
X043715Y039412D01*
X043645Y039383D01*
X043586Y039337D01*
X043540Y039278D01*
X043511Y039208D01*
X043501Y039134D01*
X043511Y039059D01*
X043540Y038991D01*
X043540Y038988D01*
X043566Y038926D01*
X043607Y038873D01*
X043767Y038712D01*
Y038518D01*
X043748Y038470D01*
X043738Y038396D01*
X043748Y038321D01*
X043776Y038252D01*
X043822Y038192D01*
X043882Y038146D01*
X043951Y038118D01*
X044026Y038108D01*
X044100Y038118D01*
X044170Y038146D01*
X044229Y038192D01*
X044275Y038252D01*
X044304Y038321D01*
X044313Y038396D01*
X044304Y038470D01*
X044284Y038518D01*
Y038819D01*
X044275Y038886D01*
X044249Y038948D01*
X044208Y039001D01*
X044077Y039132D01*
X044077Y039134D01*
X044067Y039208D01*
X044039Y039278D01*
X043993Y039337D01*
X043933Y039383D01*
X043864Y039412D01*
X043789Y039422D01*
D02*
G37*
G36*
X049705Y038831D02*
X049630Y038821D01*
X049561Y038793D01*
X049501Y038747D01*
X049455Y038687D01*
X049427Y038618D01*
X049421Y038571D01*
X049328Y038479D01*
X049272Y038487D01*
X049197Y038477D01*
X049128Y038448D01*
X049068Y038402D01*
X049022Y038343D01*
X048994Y038273D01*
X048984Y038199D01*
X048994Y038124D01*
X049022Y038055D01*
X049068Y037995D01*
X049128Y037949D01*
X049197Y037921D01*
X049272Y037911D01*
X049346Y037921D01*
X049416Y037949D01*
X049475Y037995D01*
X049507Y038036D01*
X049516Y038043D01*
X049733Y038259D01*
X049779Y038265D01*
X049849Y038294D01*
X049908Y038340D01*
X049954Y038399D01*
X049983Y038469D01*
X049993Y038543D01*
X049983Y038618D01*
X049954Y038687D01*
X049908Y038747D01*
X049849Y038793D01*
X049779Y038821D01*
X049705Y038831D01*
D02*
G37*
G36*
X050472Y042050D02*
X050398Y042040D01*
X050328Y042011D01*
X050269Y041965D01*
X050223Y041906D01*
X050194Y041836D01*
X050185Y041762D01*
X050193Y041696D01*
X049745Y041249D01*
X049726Y041219D01*
X049698Y041198D01*
X049652Y041138D01*
X049623Y041069D01*
X049614Y040994D01*
X049623Y040920D01*
X049652Y040850D01*
X049698Y040791D01*
X049758Y040745D01*
X049827Y040716D01*
X049902Y040706D01*
X049976Y040716D01*
X050046Y040745D01*
X050105Y040791D01*
X050151Y040850D01*
X050180Y040920D01*
X050189Y040994D01*
X050181Y041060D01*
X050629Y041507D01*
X050648Y041537D01*
X050676Y041558D01*
X050722Y041618D01*
X050751Y041687D01*
X050760Y041762D01*
X050751Y041836D01*
X050722Y041906D01*
X050676Y041965D01*
X050616Y042011D01*
X050547Y042040D01*
X050472Y042050D01*
D02*
G37*
G36*
X046260Y036587D02*
X046185Y036577D01*
X046116Y036549D01*
X046056Y036503D01*
X046011Y036443D01*
X045982Y036374D01*
X045972Y036299D01*
X045982Y036225D01*
X046011Y036155D01*
X046056Y036096D01*
X046116Y036050D01*
X046164Y036030D01*
X046307Y035887D01*
Y035369D01*
X046287Y035321D01*
X046277Y035246D01*
X046284Y035191D01*
X046237Y035113D01*
X045072D01*
X044949Y035235D01*
X044878Y035283D01*
X044793Y035300D01*
X044744Y035290D01*
X044719D01*
X044681Y035318D01*
X044612Y035347D01*
X044537Y035357D01*
X044463Y035347D01*
X044393Y035318D01*
X044334Y035272D01*
X044288Y035213D01*
X044259Y035143D01*
X044250Y035069D01*
X044259Y034994D01*
X044288Y034925D01*
X044329Y034871D01*
X044334Y034862D01*
X044329Y034772D01*
X044281Y034710D01*
X044252Y034638D01*
X044242Y034561D01*
Y034089D01*
X044252Y034011D01*
X044281Y033940D01*
X044329Y033878D01*
X044390Y033831D01*
X044418Y033819D01*
X044430Y033729D01*
X044397Y033704D01*
X044311Y033593D01*
X044258Y033464D01*
X044240Y033325D01*
X044258Y033186D01*
X044311Y033057D01*
X044397Y032946D01*
X044496Y032869D01*
X044502Y032825D01*
X044496Y032780D01*
X044397Y032704D01*
X044311Y032593D01*
X044258Y032464D01*
X044240Y032325D01*
X044258Y032186D01*
X044311Y032057D01*
X044397Y031946D01*
X044496Y031869D01*
X044502Y031825D01*
X044496Y031780D01*
X044397Y031704D01*
X044311Y031593D01*
X044258Y031464D01*
X044240Y031325D01*
X044258Y031186D01*
X044311Y031057D01*
X044397Y030946D01*
X044508Y030861D01*
X044637Y030807D01*
X044776Y030789D01*
X044914Y030807D01*
X045044Y030861D01*
X045155Y030946D01*
X045240Y031057D01*
X045293Y031186D01*
X045369Y031208D01*
X045375Y031206D01*
X045413Y031116D01*
X045480Y031029D01*
X045566Y030962D01*
X045667Y030921D01*
X045776Y030906D01*
X045884Y030921D01*
X045985Y030962D01*
X046072Y031029D01*
X046138Y031116D01*
X046180Y031216D01*
X046194Y031325D01*
X046180Y031433D01*
X046138Y031534D01*
X046072Y031621D01*
X045985Y031687D01*
X045884Y031729D01*
X045776Y031743D01*
X045667Y031729D01*
X045566Y031687D01*
X045480Y031621D01*
X045413Y031534D01*
X045375Y031443D01*
X045369Y031442D01*
X045293Y031464D01*
X045240Y031593D01*
X045155Y031704D01*
X045055Y031780D01*
X045049Y031825D01*
X045055Y031869D01*
X045155Y031946D01*
X045240Y032057D01*
X045293Y032186D01*
X045369Y032208D01*
X045375Y032206D01*
X045413Y032116D01*
X045480Y032029D01*
X045566Y031962D01*
X045667Y031921D01*
X045776Y031906D01*
X045884Y031921D01*
X045985Y031962D01*
X046072Y032029D01*
X046138Y032116D01*
X046180Y032216D01*
X046194Y032325D01*
X046180Y032433D01*
X046138Y032534D01*
X046072Y032621D01*
X045985Y032687D01*
X045884Y032729D01*
X045776Y032743D01*
X045667Y032729D01*
X045566Y032687D01*
X045480Y032621D01*
X045413Y032534D01*
X045375Y032443D01*
X045369Y032442D01*
X045293Y032464D01*
X045240Y032593D01*
X045155Y032704D01*
X045055Y032780D01*
X045049Y032825D01*
X045055Y032869D01*
X045155Y032946D01*
X045240Y033057D01*
X045293Y033186D01*
X045369Y033208D01*
X045375Y033206D01*
X045413Y033116D01*
X045480Y033029D01*
X045566Y032962D01*
X045667Y032921D01*
X045776Y032906D01*
X045884Y032921D01*
X045985Y032962D01*
X046072Y033029D01*
X046138Y033116D01*
X046180Y033216D01*
X046194Y033325D01*
X046180Y033433D01*
X046138Y033534D01*
X046072Y033621D01*
X045985Y033687D01*
X045884Y033729D01*
X045776Y033743D01*
X045667Y033729D01*
X045566Y033687D01*
X045480Y033621D01*
X045413Y033534D01*
X045375Y033443D01*
X045369Y033442D01*
X045293Y033464D01*
X045240Y033593D01*
X045155Y033704D01*
X045122Y033729D01*
X045133Y033819D01*
X045161Y033831D01*
X045222Y033878D01*
X045270Y033940D01*
X045299Y034011D01*
X045310Y034089D01*
Y034160D01*
X045388Y034175D01*
X045413Y034116D01*
X045480Y034029D01*
X045566Y033962D01*
X045667Y033921D01*
X045776Y033906D01*
X045884Y033921D01*
X045985Y033962D01*
X046072Y034029D01*
X046138Y034116D01*
X046180Y034216D01*
X046194Y034325D01*
X046180Y034433D01*
X046138Y034534D01*
X046093Y034592D01*
X046130Y034671D01*
X046352D01*
X046411Y034592D01*
X046407Y034561D01*
Y034089D01*
X046417Y034011D01*
X046447Y033940D01*
X046494Y033878D01*
X046556Y033831D01*
X046583Y033819D01*
X046595Y033729D01*
X046562Y033704D01*
X046477Y033593D01*
X046423Y033464D01*
X046405Y033325D01*
X046423Y033186D01*
X046477Y033057D01*
X046562Y032946D01*
X046661Y032869D01*
X046668Y032825D01*
X046661Y032780D01*
X046562Y032704D01*
X046477Y032593D01*
X046423Y032464D01*
X046405Y032325D01*
X046423Y032186D01*
X046477Y032057D01*
X046562Y031946D01*
X046673Y031861D01*
X046802Y031807D01*
X046824Y031731D01*
X046823Y031725D01*
X046732Y031687D01*
X046645Y031621D01*
X046578Y031534D01*
X046537Y031433D01*
X046522Y031325D01*
X046537Y031216D01*
X046578Y031116D01*
X046645Y031029D01*
X046732Y030962D01*
X046833Y030921D01*
X046941Y030906D01*
X047049Y030921D01*
X047150Y030962D01*
X047237Y031029D01*
X047303Y031116D01*
X047341Y031206D01*
X047347Y031208D01*
X047423Y031186D01*
X047477Y031057D01*
X047562Y030946D01*
X047673Y030861D01*
X047802Y030807D01*
X047941Y030789D01*
X048080Y030807D01*
X048209Y030861D01*
X048320Y030946D01*
X048405Y031057D01*
X048459Y031186D01*
X048477Y031325D01*
X048459Y031464D01*
X048405Y031593D01*
X048320Y031704D01*
X048216Y031784D01*
X048213Y031820D01*
Y031830D01*
X048216Y031866D01*
X048320Y031946D01*
X048405Y032057D01*
X048459Y032186D01*
X048477Y032325D01*
X048459Y032464D01*
X048405Y032593D01*
X048320Y032704D01*
X048216Y032784D01*
X048213Y032820D01*
Y032830D01*
X048216Y032866D01*
X048320Y032946D01*
X048405Y033057D01*
X048459Y033186D01*
X048477Y033325D01*
X048459Y033464D01*
X048405Y033593D01*
X048320Y033704D01*
X048216Y033784D01*
X048213Y033820D01*
Y033830D01*
X048216Y033866D01*
X048320Y033946D01*
X048405Y034057D01*
X048459Y034186D01*
X048477Y034325D01*
X048459Y034464D01*
X048405Y034593D01*
X048320Y034704D01*
X048209Y034789D01*
X048080Y034843D01*
X047941Y034861D01*
X047802Y034843D01*
X047755Y034823D01*
X047530Y035048D01*
X047459Y035096D01*
X047374Y035113D01*
X046893D01*
X046846Y035191D01*
X046853Y035246D01*
X046843Y035321D01*
X046823Y035369D01*
Y035994D01*
X046814Y036061D01*
X046788Y036123D01*
X046747Y036177D01*
X046529Y036395D01*
X046509Y036443D01*
X046463Y036503D01*
X046404Y036549D01*
X046334Y036577D01*
X046260Y036587D01*
D02*
G37*
G36*
X044459Y036646D02*
X044384Y036636D01*
X044315Y036608D01*
X044278Y036579D01*
X042628D01*
X042543Y036562D01*
X042472Y036514D01*
X041278Y035321D01*
X041254Y035317D01*
X041185Y035289D01*
X041125Y035243D01*
X041079Y035183D01*
X041051Y035114D01*
X041041Y035039D01*
X041051Y034965D01*
X041079Y034895D01*
X041125Y034836D01*
X041185Y034790D01*
X041254Y034761D01*
X041329Y034751D01*
X041403Y034761D01*
X041473Y034790D01*
X041498Y034809D01*
X041547Y034827D01*
X041602Y034797D01*
X041617Y034777D01*
X041677Y034731D01*
X041746Y034702D01*
X041821Y034692D01*
X041895Y034702D01*
X041965Y034731D01*
X042024Y034777D01*
X042070Y034836D01*
X042099Y034906D01*
X042109Y034980D01*
X042099Y035055D01*
X042085Y035089D01*
X042906Y035911D01*
X043152D01*
X043191Y035832D01*
X043155Y035786D01*
X043104Y035661D01*
X043086Y035528D01*
X043104Y035394D01*
X043155Y035269D01*
X043237Y035163D01*
X043344Y035080D01*
X043369Y035070D01*
Y034985D01*
X043344Y034975D01*
X043237Y034893D01*
X043155Y034786D01*
X043104Y034661D01*
X043086Y034528D01*
X043104Y034394D01*
X043155Y034269D01*
X043237Y034163D01*
X043344Y034080D01*
X043369Y034070D01*
Y033985D01*
X043344Y033975D01*
X043237Y033893D01*
X043155Y033786D01*
X043104Y033661D01*
X043086Y033528D01*
X043104Y033394D01*
X043155Y033269D01*
X043237Y033163D01*
X043344Y033080D01*
X043369Y033070D01*
Y032985D01*
X043344Y032975D01*
X043237Y032893D01*
X043155Y032786D01*
X043104Y032661D01*
X043086Y032528D01*
X043104Y032394D01*
X043155Y032269D01*
X043237Y032163D01*
X043344Y032080D01*
X043469Y032029D01*
X043602Y032011D01*
X043736Y032029D01*
X043860Y032080D01*
X043967Y032163D01*
X044049Y032269D01*
X044101Y032394D01*
X044119Y032528D01*
X044101Y032661D01*
X044049Y032786D01*
X043967Y032893D01*
X043860Y032975D01*
X043836Y032985D01*
Y033070D01*
X043860Y033080D01*
X043967Y033163D01*
X044049Y033269D01*
X044101Y033394D01*
X044119Y033528D01*
X044101Y033661D01*
X044049Y033786D01*
X043967Y033893D01*
X043860Y033975D01*
X043836Y033985D01*
Y034070D01*
X043860Y034080D01*
X043967Y034163D01*
X044049Y034269D01*
X044101Y034394D01*
X044119Y034528D01*
X044101Y034661D01*
X044049Y034786D01*
X043967Y034893D01*
X043860Y034975D01*
X043836Y034985D01*
Y035070D01*
X043860Y035080D01*
X043967Y035163D01*
X044049Y035269D01*
X044101Y035394D01*
X044119Y035528D01*
X044101Y035661D01*
X044049Y035786D01*
X044014Y035832D01*
X044052Y035911D01*
X044170D01*
X044194Y035887D01*
X044200Y035841D01*
X044229Y035771D01*
X044275Y035712D01*
X044334Y035666D01*
X044404Y035637D01*
X044478Y035627D01*
X044553Y035637D01*
X044622Y035666D01*
X044682Y035712D01*
X044728Y035771D01*
X044756Y035841D01*
X044766Y035915D01*
X044756Y035990D01*
X044728Y036059D01*
X044705Y036088D01*
X044683Y036123D01*
X044700Y036204D01*
X044708Y036214D01*
X044737Y036284D01*
X044747Y036358D01*
X044737Y036433D01*
X044708Y036502D01*
X044662Y036562D01*
X044603Y036608D01*
X044533Y036636D01*
X044459Y036646D01*
D02*
G37*
G36*
X046831Y038506D02*
X046756Y038497D01*
X046687Y038468D01*
X046627Y038422D01*
X046581Y038362D01*
X046553Y038293D01*
X046547Y038247D01*
X046289Y037989D01*
X046254Y037985D01*
X046185Y037956D01*
X046125Y037910D01*
X046079Y037851D01*
X046051Y037781D01*
X046041Y037707D01*
X046051Y037632D01*
X046079Y037563D01*
X046125Y037503D01*
X046185Y037457D01*
X046254Y037429D01*
X046329Y037419D01*
X046403Y037429D01*
X046473Y037457D01*
X046532Y037503D01*
X046578Y037563D01*
X046607Y037632D01*
X046614Y037690D01*
X046859Y037934D01*
X046905Y037940D01*
X046975Y037969D01*
X047034Y038015D01*
X047080Y038075D01*
X047109Y038144D01*
X047119Y038219D01*
X047109Y038293D01*
X047080Y038362D01*
X047034Y038422D01*
X046975Y038468D01*
X046905Y038497D01*
X046831Y038506D01*
D02*
G37*
%LPD*%
D16*
X045374Y046083D02*
D03*
X042028D02*
D03*
D26*
X040354Y028346D02*
X041437D01*
X047941Y031325D02*
Y032325D01*
Y033325D01*
Y034325D01*
X051083Y031575D02*
Y032543D01*
X045776Y031325D02*
X046941D01*
X044026Y038396D02*
Y038819D01*
X046565Y035246D02*
Y035994D01*
X046260Y036299D02*
X046565Y035994D01*
X043789Y039055D02*
X044026Y038819D01*
X043789Y039055D02*
Y039134D01*
X045776Y030608D02*
Y031325D01*
Y032325D01*
Y033325D01*
Y034325D01*
D27*
X052362Y027844D02*
Y028346D01*
X051742D02*
X052362D01*
X051083Y029543D02*
Y030325D01*
X050417Y029543D02*
X051083D01*
X043602Y029528D02*
X044262D01*
X043002D02*
X043602D01*
X044783Y035069D02*
X044793Y035079D01*
X044537Y035069D02*
X044783D01*
X046329Y037717D02*
X046831Y038219D01*
X046329Y037707D02*
Y037717D01*
X049902Y040994D02*
Y041093D01*
X050472Y041663D01*
Y041762D01*
X049360Y038199D02*
X049705Y038543D01*
X049272Y038199D02*
X049360D01*
X044793Y035079D02*
X044980Y034892D01*
X047374D01*
X047941Y034325D01*
X046638Y045909D02*
Y046555D01*
X046024D02*
X046638D01*
X045374Y046083D02*
X046132D01*
X044547D02*
X045374D01*
Y044508D02*
Y046083D01*
X042028Y044626D02*
Y046083D01*
X041319D02*
X042028D01*
X042717D01*
X044262Y036132D02*
X044478Y035915D01*
X042628Y036358D02*
X044459D01*
X041329Y035059D02*
X042628Y036358D01*
X041821Y034980D02*
Y035138D01*
X042815Y036132D01*
X044262D01*
D28*
X041329Y035039D02*
Y035059D01*
D33*
X043602Y028528D02*
D03*
Y029528D02*
D03*
Y032528D02*
D03*
Y033528D02*
D03*
Y034528D02*
D03*
Y035528D02*
D03*
X046638Y046555D02*
D03*
X051083Y028543D02*
D03*
Y029543D02*
D03*
Y032543D02*
D03*
Y033543D02*
D03*
Y034543D02*
D03*
Y035543D02*
D03*
D34*
X049000Y046654D02*
D03*
X050000D02*
D03*
D35*
X051000D02*
D03*
D36*
X047638Y046555D02*
D03*
D37*
X047941Y031325D02*
D03*
X046941D02*
D03*
X047941Y032325D02*
D03*
X046941D02*
D03*
X047941Y033325D02*
D03*
X046941D02*
D03*
X047941Y034325D02*
D03*
X045776Y031325D02*
D03*
X044776D02*
D03*
X045776Y032325D02*
D03*
X044776D02*
D03*
X045776Y033325D02*
D03*
X044776D02*
D03*
X045776Y034325D02*
D03*
D38*
X046941D02*
D03*
X044776D02*
D03*
D39*
X040354Y046346D02*
D03*
Y045346D02*
D03*
Y044346D02*
D03*
Y043346D02*
D03*
Y042346D02*
D03*
Y041346D02*
D03*
Y040346D02*
D03*
Y039346D02*
D03*
Y038346D02*
D03*
Y037346D02*
D03*
Y036346D02*
D03*
Y035346D02*
D03*
Y034346D02*
D03*
Y033346D02*
D03*
Y032346D02*
D03*
Y031346D02*
D03*
Y030346D02*
D03*
Y029346D02*
D03*
X052362Y046346D02*
D03*
Y045346D02*
D03*
Y044346D02*
D03*
Y043346D02*
D03*
Y042346D02*
D03*
Y041346D02*
D03*
Y040346D02*
D03*
Y039346D02*
D03*
Y038346D02*
D03*
Y037346D02*
D03*
Y036346D02*
D03*
Y035346D02*
D03*
Y034346D02*
D03*
Y033346D02*
D03*
Y032346D02*
D03*
Y031346D02*
D03*
Y030346D02*
D03*
Y029346D02*
D03*
D40*
X040354Y028346D02*
D03*
X052362D02*
D03*
D41*
X047589Y037232D02*
D03*
Y036681D02*
D03*
X047037D02*
D03*
Y037232D02*
D03*
X050561Y040008D02*
D03*
Y039457D02*
D03*
X050010D02*
D03*
Y040008D02*
D03*
X047667Y044331D02*
D03*
X042461Y033268D02*
D03*
X046762Y030738D02*
D03*
X048730Y028986D02*
D03*
X042451Y029154D02*
D03*
X041821Y044006D02*
D03*
X041417Y042844D02*
D03*
X043465Y040167D02*
D03*
X044026Y038396D02*
D03*
X047313Y035778D02*
D03*
X046565Y035246D02*
D03*
X046260Y036299D02*
D03*
X044537Y035069D02*
D03*
X048472Y036642D02*
D03*
X048474Y037274D02*
D03*
X050472Y041762D02*
D03*
X046831Y038219D02*
D03*
X046329Y037707D02*
D03*
X049902Y040994D02*
D03*
X051437Y040049D02*
D03*
X051427Y039734D02*
D03*
X051457Y039419D02*
D03*
X049705Y038543D02*
D03*
X049272Y038199D02*
D03*
X049167Y043085D02*
D03*
X048167Y043089D02*
D03*
X044567Y037717D02*
D03*
X050285Y038553D02*
D03*
X043789Y039134D02*
D03*
X047441Y041132D02*
D03*
X047657Y039449D02*
D03*
X051191Y038041D02*
D03*
X050217Y037943D02*
D03*
X044478Y035915D02*
D03*
X041821Y034980D02*
D03*
X044459Y036358D02*
D03*
X041329Y035039D02*
D03*
X041585Y028445D02*
D03*
X049587Y028110D02*
D03*
X047362Y030904D02*
D03*
X045472Y030846D02*
D03*
X045600Y028081D02*
D03*
X047185Y028091D02*
D03*
X046171Y042146D02*
D03*
X043386Y042372D02*
D03*
X041083Y041850D02*
D03*
X041043Y045866D02*
D03*
X051171Y045758D02*
D03*
X051644Y042835D02*
D03*
X046437Y040679D02*
D03*
X048238Y038789D02*
D03*
X051929Y038858D02*
D03*
X051860Y036860D02*
D03*
X048278Y035571D02*
D03*
X041024Y038041D02*
D03*
X044154Y027953D02*
D03*
X048632Y027933D02*
D03*
X051585Y027923D02*
D03*
X051722Y029872D02*
D03*
X046831Y029331D02*
D03*
X045935Y029321D02*
D03*
X044055Y030217D02*
D03*
X042933Y029862D02*
D03*
X041811Y034409D02*
D03*
X040935Y032805D02*
D03*
X041014Y029882D02*
D03*
X051722Y032982D02*
D03*
X048937Y031230D02*
D03*
X050128Y029370D02*
D03*
X042717Y046654D02*
D03*
X044925Y036220D02*
D03*
X050207Y035266D02*
D03*
X048740Y034213D02*
D03*
X049203Y036043D02*
D03*
X048986Y035089D02*
D03*
X045758Y043120D02*
D03*
X046772Y043150D02*
D03*
X050049Y045679D02*
D03*
X048337Y045856D02*
D03*
X046211Y045748D02*
D03*
X044606Y045374D02*
D03*
X044577Y046654D02*
D03*
X046033Y046772D02*
D03*
X050837Y043839D02*
D03*
X051811Y044823D02*
D03*
Y046870D02*
D03*
X050246Y044596D02*
D03*
X040886Y039862D02*
D03*
X044232Y040640D02*
D03*
X048268Y041713D02*
D03*
X044478Y038425D02*
D03*
Y037185D02*
D03*
M02*
