G04 Layer_Color=16711935*
%FSAX24Y24*%
%MOIN*%
G70*
G01*
G75*
%ADD48R,0.0710X0.2009*%
%ADD62C,0.0671*%
%ADD63C,0.0789*%
G04:AMPARAMS|DCode=64|XSize=78.9mil|YSize=78.9mil|CornerRadius=21.7mil|HoleSize=0mil|Usage=FLASHONLY|Rotation=180.000|XOffset=0mil|YOffset=0mil|HoleType=Round|Shape=RoundedRectangle|*
%AMROUNDEDRECTD64*
21,1,0.0789,0.0354,0,0,180.0*
21,1,0.0354,0.0789,0,0,180.0*
1,1,0.0434,-0.0177,0.0177*
1,1,0.0434,0.0177,0.0177*
1,1,0.0434,0.0177,-0.0177*
1,1,0.0434,-0.0177,-0.0177*
%
%ADD64ROUNDEDRECTD64*%
G04:AMPARAMS|DCode=65|XSize=67.1mil|YSize=67.1mil|CornerRadius=18.8mil|HoleSize=0mil|Usage=FLASHONLY|Rotation=180.000|XOffset=0mil|YOffset=0mil|HoleType=Round|Shape=RoundedRectangle|*
%AMROUNDEDRECTD65*
21,1,0.0671,0.0295,0,0,180.0*
21,1,0.0295,0.0671,0,0,180.0*
1,1,0.0375,-0.0148,0.0148*
1,1,0.0375,0.0148,0.0148*
1,1,0.0375,0.0148,-0.0148*
1,1,0.0375,-0.0148,-0.0148*
%
%ADD65ROUNDEDRECTD65*%
%ADD66C,0.0710*%
G04:AMPARAMS|DCode=67|XSize=71mil|YSize=71mil|CornerRadius=11.9mil|HoleSize=0mil|Usage=FLASHONLY|Rotation=270.000|XOffset=0mil|YOffset=0mil|HoleType=Round|Shape=RoundedRectangle|*
%AMROUNDEDRECTD67*
21,1,0.0710,0.0472,0,0,270.0*
21,1,0.0472,0.0710,0,0,270.0*
1,1,0.0237,-0.0236,-0.0236*
1,1,0.0237,-0.0236,0.0236*
1,1,0.0237,0.0236,0.0236*
1,1,0.0237,0.0236,-0.0236*
%
%ADD67ROUNDEDRECTD67*%
%ADD68C,0.0680*%
%ADD69R,0.0680X0.0680*%
D48*
X045374Y046083D02*
D03*
X042028D02*
D03*
D62*
X043602Y028528D02*
D03*
Y029528D02*
D03*
Y032528D02*
D03*
Y033528D02*
D03*
Y034528D02*
D03*
Y035528D02*
D03*
X046638Y046555D02*
D03*
X051083Y028543D02*
D03*
Y029543D02*
D03*
Y032543D02*
D03*
Y033543D02*
D03*
Y034543D02*
D03*
Y035543D02*
D03*
D63*
X049000Y046654D02*
D03*
X050000D02*
D03*
D64*
X051000D02*
D03*
D65*
X047638Y046555D02*
D03*
D66*
X047941Y031325D02*
D03*
X046941D02*
D03*
X047941Y032325D02*
D03*
X046941D02*
D03*
X047941Y033325D02*
D03*
X046941D02*
D03*
X047941Y034325D02*
D03*
X045776Y031325D02*
D03*
X044776D02*
D03*
X045776Y032325D02*
D03*
X044776D02*
D03*
X045776Y033325D02*
D03*
X044776D02*
D03*
X045776Y034325D02*
D03*
D67*
X046941D02*
D03*
X044776D02*
D03*
D68*
X040354Y046346D02*
D03*
Y045346D02*
D03*
Y044346D02*
D03*
Y043346D02*
D03*
Y042346D02*
D03*
Y041346D02*
D03*
Y040346D02*
D03*
Y039346D02*
D03*
Y038346D02*
D03*
Y037346D02*
D03*
Y036346D02*
D03*
Y035346D02*
D03*
Y034346D02*
D03*
Y033346D02*
D03*
Y032346D02*
D03*
Y031346D02*
D03*
Y030346D02*
D03*
Y029346D02*
D03*
X052362Y046346D02*
D03*
Y045346D02*
D03*
Y044346D02*
D03*
Y043346D02*
D03*
Y042346D02*
D03*
Y041346D02*
D03*
Y040346D02*
D03*
Y039346D02*
D03*
Y038346D02*
D03*
Y037346D02*
D03*
Y036346D02*
D03*
Y035346D02*
D03*
Y034346D02*
D03*
Y033346D02*
D03*
Y032346D02*
D03*
Y031346D02*
D03*
Y030346D02*
D03*
Y029346D02*
D03*
D69*
X040354Y028346D02*
D03*
X052362D02*
D03*
M02*
