<?xml version="1.0" encoding="utf-8"?>
<!-- Generator: Adobe Illustrator 17.0.0, SVG Export Plug-In . SVG Version: 6.00 Build 0)  -->
<!DOCTYPE svg PUBLIC "-//W3C//DTD SVG 1.1//EN" "http://www.w3.org/Graphics/SVG/1.1/DTD/svg11.dtd">
<svg version="1.1" id="Layer_1" xmlns="http://www.w3.org/2000/svg" xmlns:xlink="http://www.w3.org/1999/xlink" x="0px" y="0px"
	 width="595.276px" height="841.89px" viewBox="0 0 595.276 841.89" enable-background="new 0 0 595.276 841.89"
	 xml:space="preserve">
<path fill="#FFFFFF" d="M573.28,411.444l-68.672-12.774c-1.676-0.313-3.5-1.885-4.064-3.497l-21.05-49.12
	c-0.785-1.516-0.639-3.898,0.334-5.311l40.011-58.328c0.957-1.405,0.768-3.539-0.438-4.747l-49.974-49.985
	c-1.207-1.207-3.338-1.403-4.741-0.438l-59.34,40.73c-1.403,0.965-3.81,1.136-5.338,0.383l-47.606-19.491
	c-1.616-0.534-3.191-2.344-3.509-4.02l-13.217-71.042c-0.309-1.676-1.96-3.046-3.664-3.046h-70.681c-1.701,0-3.354,1.37-3.664,3.046
	l-13.212,71.042c-0.317,1.676-1.889,3.486-3.513,4.02l-47.61,19.491c-1.525,0.752-3.935,0.582-5.331-0.383l-59.34-40.73
	c-1.403-0.965-3.542-0.768-4.741,0.438l-49.978,49.985c-1.2,1.208-1.404,3.342-0.439,4.747l40.016,58.328
	c0.96,1.413,1.115,3.795,0.334,5.311l-21.057,49.12c-0.557,1.612-2.381,3.184-4.065,3.497l-68.667,12.774
	c-1.676,0.317-3.046,1.964-3.046,3.668l0.004,70.693c0,1.704,1.37,3.364,3.046,3.668l66.984,12.468
	c1.675,0.306,3.472,1.898,3.981,3.523l20.907,52.25c0.752,1.534,0.577,3.931-0.397,5.336l-38.048,55.463
	c-0.96,1.403-0.764,3.539,0.439,4.746l49.986,49.985c1.2,1.198,3.338,1.395,4.741,0.443l54.469-37.396
	c1.4-0.961,3.751-1.036,5.222-0.175l24.019,12.827c1.517,0.773,3.297,0.122,3.944-1.453l49.527-119.7
	c0.66-1.575,0-3.589-1.449-4.479l-6.012-3.677c-1.111-0.681-2.619-1.848-3.801-2.917c-21.685-13.888-36.076-38.185-36.076-65.854
	c0-43.178,35.002-78.18,78.167-78.18c43.164,0,78.159,35.001,78.159,78.18c0,27.669-14.383,51.966-36.072,65.854
	c-1.173,1.069-2.682,2.236-3.793,2.917l-6.011,3.677c-1.446,0.891-2.105,2.904-1.454,4.479l49.526,119.7
	c0.652,1.575,2.423,2.227,3.948,1.453l24.02-12.827c1.466-0.861,3.817-0.786,5.221,0.175l54.469,37.396
	c1.403,0.953,3.543,0.756,4.741-0.443l49.983-49.985c1.208-1.207,1.399-3.342,0.438-4.746l-38.051-55.463
	c-0.965-1.404-1.145-3.802-0.393-5.336l20.912-52.25c0.514-1.625,2.294-3.217,3.973-3.523l66.984-12.468
	c1.671-0.304,3.045-1.964,3.045-3.668l0.008-70.693C576.325,413.407,574.95,411.761,573.28,411.444z"/>
<path d="M562.32,484.96c-6.76,0.27-13.13,2.32-18.75,5.76c-2.6,1.6-5.05,3.49-7.3,5.64l5.61-1.04c1.02-0.77,2.06-1.48,3.13-2.14
	c5.23-3.2,11.14-5.11,17.41-5.35L562.32,484.96z M472.54,670.11c-2.18,1.23-4.27,2.62-6.28,4.15c1.14,0.14,2.36-0.22,3.17-1.02
	l3.15-3.16L472.54,670.11z M443.99,657.72c-2.09-1.21-4.32-2.16-6.65-2.8L453,665.66C450.46,662.41,447.41,659.71,443.99,657.72z
	 M149.12,657.72c-3.55,2.06-6.69,4.89-9.28,8.29l16.31-11.2C153.68,655.45,151.32,656.44,149.12,657.72z M121.08,670.4l2.84,2.84
	c0.75,0.76,1.87,1.11,2.95,1.04C125.02,672.86,123.08,671.56,121.08,670.4z M48.88,490.33c-5.87-3.45-12.53-5.4-19.58-5.4v2.87
	c6.54,0,12.72,1.81,18.18,5.02c1.26,0.74,2.49,1.55,3.67,2.44l5.63,1.05C54.36,494,51.71,491.99,48.88,490.33z M267.55,170.76
	c-4.14,2.92-7.93,6.45-11.27,10.48l-1.15,6.23c4.53-6.62,10.21-12.12,16.7-16.11c0.33-0.21,0.67-0.41,1-0.6H267.55z M337.13,181.61
	c-3.42-4.19-7.31-7.84-11.58-10.85h-5.28c0.42,0.24,0.84,0.49,1.25,0.75c6.54,4.07,12.26,9.7,16.79,16.45L337.13,181.61z
	 M536.98,478.37c-7.64,4.84-14.18,11.71-19.11,19.97c-3.27-1.21-6.65-2.15-10.11-2.78c5.56-10.7,13.34-19.68,22.59-26.07
	c9.41-6.51,20.35-10.36,32.05-10.65l-0.07-2.86c-2.14,0.05-4.25,0.22-6.34,0.49c-1.53-3.03-3.23-5.93-5.08-8.68
	c1.21-2.22,2.81-4.09,4.7-5.5c2.02-1.5,4.37-2.47,6.89-2.72l-0.27-2.85c-3.03,0.3-5.85,1.46-8.28,3.26
	c-1.88,1.4-3.52,3.19-4.83,5.26c-2.14-2.92-4.46-5.66-6.95-8.19c2.36-3.39,5.29-6.21,8.61-8.27c3.5-2.16,7.46-3.48,11.66-3.72
	l-0.15-2.86c-4.67,0.26-9.07,1.73-12.97,4.13c-3.54,2.19-6.67,5.16-9.2,8.7c-2.54-2.39-5.24-4.58-8.07-6.54
	c3.5-5.18,7.92-9.48,12.96-12.57c5.23-3.2,11.14-5.11,17.41-5.36l-0.04-1.14l-5.74-1.07c-4.65,0.89-9.05,2.64-13.07,5.11
	c-5.42,3.32-10.15,7.93-13.89,13.47c-2.92-1.85-5.98-3.45-9.15-4.8c4.29-7.06,9.83-13.03,16.26-17.47l-3.86-0.72
	c-5.91,4.55-11.03,10.38-15.06,17.14c-3.27-1.21-6.65-2.15-10.11-2.78c3.25-6.26,7.26-11.93,11.88-16.83l-3.29-0.62
	c-1.64,1.83-3.19,3.76-4.67,5.76c-1.46-2.32-3.33-4.28-5.49-5.74c-2.7-1.82-5.84-2.87-9.2-2.87c-3.35,0-6.49,1.05-9.18,2.87
	c-2.17,1.46-4.04,3.42-5.5,5.74c-2.15-2.92-4.47-5.66-6.95-8.19c2.5-3.6,5.64-6.55,9.21-8.64c3.68-2.13,7.82-3.35,12.21-3.39
	l-1.22-2.84c-4.43,0.23-8.62,1.56-12.37,3.74c-3.83,2.23-7.19,5.35-9.88,9.11c-2.55-2.39-5.25-4.59-8.08-6.55
	c3.65-5.39,8.28-9.83,13.59-12.94c3.7-2.17,7.73-3.7,11.99-4.46l-1.16-2.71c-4.33,0.86-8.44,2.46-12.23,4.69
	c-5.7,3.34-10.67,8.1-14.55,13.86c-2.93-1.84-5.98-3.45-9.15-4.79c4.79-7.9,11.15-14.43,18.55-18.98c3.98-2.45,8.27-4.32,12.77-5.53
	l-1.14-2.66c-4.61,1.28-9,3.22-13.08,5.73c-7.92,4.87-14.71,11.89-19.76,20.38c-3.27-1.21-6.65-2.15-10.11-2.78
	c5.68-10.93,13.67-20.06,23.19-26.49c4.72-3.18,9.82-5.7,15.2-7.45c-0.34-0.86-0.43-1.92-0.28-2.92c-0.99,0.31-1.97,0.65-2.94,1.01
	c-5-8.4-11.69-15.36-19.5-20.22c-7.87-4.9-16.87-7.68-26.44-7.68c-9.46,0-18.37,2.72-26.18,7.52c-7.91,4.87-14.69,11.88-19.76,20.38
	c-3.27-1.21-6.64-2.15-10.11-2.78c5.69-10.93,13.68-20.07,23.2-26.49c9.65-6.51,20.87-10.24,32.85-10.24s23.21,3.73,32.86,10.24
	c7.95,5.37,14.83,12.62,20.19,21.24l1.75-2.55c-0.29-0.45-0.59-0.9-0.89-1.34c1.33-2.43,3.14-4.46,5.27-5.9
	c0.33-0.22,0.67-0.43,1.01-0.62l2.87-4.19c-1.94,0.47-3.77,1.3-5.43,2.42c-2.17,1.46-4.04,3.42-5.51,5.74
	c-2.14-2.92-4.46-5.66-6.94-8.19c2.5-3.59,5.64-6.55,9.21-8.63c3.74-2.17,7.96-3.39,12.42-3.39c1.45,0,2.88,0.12,4.27,0.37
	l1.76-2.57c-1.95-0.45-3.96-0.68-6.03-0.68c-4.96,0-9.65,1.36-13.81,3.78c-3.82,2.22-7.18,5.34-9.87,9.11
	c-2.55-2.4-5.25-4.59-8.08-6.55c3.65-5.39,8.28-9.83,13.59-12.94c5.45-3.21,11.63-5.01,18.17-5.01c4.49,0,8.79,0.84,12.81,2.4
	l1.66-2.41c-4.52-1.86-9.39-2.87-14.47-2.87c-7.04,0-13.69,1.95-19.57,5.4c-5.7,3.35-10.67,8.1-14.55,13.87
	c-2.93-1.85-5.99-3.46-9.15-4.8c4.79-7.89,11.15-14.42,18.55-18.98c7.38-4.53,15.79-7.1,24.72-7.1c7.45,0,14.54,1.79,20.97,5.01
	l1.63-2.38c-6.91-3.54-14.55-5.51-22.6-5.51c-9.46,0-18.37,2.72-26.17,7.52c-7.92,4.87-14.7,11.89-19.76,20.39
	c-3.27-1.22-6.65-2.15-10.11-2.79c5.68-10.93,13.67-20.06,23.19-26.48c9.65-6.51,20.88-10.25,32.85-10.25
	c3.96,0,7.83,0.41,11.6,1.19l-3.7-3.7l-0.07,0.15c-2.57-0.34-5.18-0.51-7.83-0.51c-2.64,0-5.25,0.17-7.82,0.51
	c-1.53-3.03-3.22-5.93-5.08-8.68c1.33-2.42,3.14-4.45,5.27-5.89c0.22-0.15,0.45-0.29,0.68-0.43l-2.07-2.07l-0.16,0.1
	c-2.17,1.47-4.04,3.43-5.51,5.75c-2.14-2.92-4.46-5.66-6.94-8.19c1.41-2.04,3.03-3.87,4.82-5.45l-2.01-2.02
	c-1.79,1.61-3.42,3.44-4.86,5.45c-2.55-2.39-5.25-4.59-8.08-6.54c1.6-2.37,3.39-4.54,5.33-6.51l-1.13-1.14
	c-0.3-0.29-0.65-0.53-1.04-0.7c-2.02,2.06-3.87,4.33-5.52,6.78c-1.36-0.86-2.75-1.66-4.16-2.41l-2.68,1.83
	c2.42,1.21,4.76,2.58,7.01,4.1c9.51,6.42,17.51,15.55,23.19,26.48c-3.47,0.64-6.84,1.57-10.11,2.78c-5-8.39-11.69-15.35-19.5-20.22
	c-3.71-2.3-7.66-4.14-11.81-5.44l-3.07,2.11c4.74,1.23,9.25,3.19,13.41,5.78c7.29,4.55,13.56,11.02,18.3,18.83
	c-3.16,1.34-6.22,2.95-9.15,4.8c-3.88-5.77-8.84-10.52-14.54-13.87c-5.88-3.45-12.54-5.4-19.58-5.4c-1.15,0-2.3,0.05-3.43,0.15
	l-5.73,3.94c2.94-0.8,6.01-1.21,9.16-1.21c6.55,0,12.73,1.8,18.18,5.01c5.31,3.11,9.94,7.55,13.58,12.94
	c-2.83,1.96-5.53,4.15-8.07,6.54c-2.69-3.77-6.06-6.88-9.88-9.11c-4.15-2.41-8.84-3.77-13.81-3.77c-4.96,0-9.65,1.36-13.81,3.77
	c-3.82,2.23-7.19,5.35-9.88,9.11c-2.54-2.39-5.24-4.58-8.07-6.54c1.23-1.83,2.58-3.54,4.03-5.14c-0.88,0.03-1.75-0.12-2.44-0.46
	l-0.68-0.28c-1.16,1.36-2.26,2.8-3.28,4.31c-2.92-1.84-5.98-3.45-9.15-4.79c0.76-1.25,1.55-2.46,2.39-3.63l-2.69-1.1
	c-0.82,1.19-1.6,2.42-2.35,3.67c-3.27-1.21-6.65-2.14-10.12-2.78c0.87-1.66,1.79-3.29,2.76-4.87l-2.66-1.09
	c-1.08,1.78-2.09,3.62-3.04,5.5c-2.57-0.34-5.18-0.51-7.82-0.51c-2.65,0-5.26,0.17-7.82,0.51c-1.53-3.03-3.23-5.93-5.08-8.68
	c1.04-1.92,2.4-3.59,3.97-4.92l-2.04-0.83c-0.28-0.1-0.56-0.23-0.83-0.39c-1.09,1.06-2.06,2.27-2.89,3.59
	c-2.14-2.92-4.47-5.66-6.95-8.19c1.67-2.4,3.63-4.52,5.81-6.28l-0.58-3.14c-2.76,2.01-5.22,4.52-7.28,7.41
	c-2.55-2.4-5.24-4.59-8.07-6.54c3.54-5.25,8.03-9.59,13.15-12.69l-0.55-2.98c-0.14,0.08-0.28,0.16-0.42,0.24
	c-5.7,3.34-10.66,8.1-14.55,13.86c-2.93-1.84-5.98-3.45-9.15-4.79c4.79-7.9,11.15-14.43,18.56-18.98c1.11-0.68,2.24-1.32,3.4-1.91
	l-0.54-2.93c-1.47,0.72-2.91,1.52-4.32,2.38c-7.92,4.87-14.7,11.89-19.76,20.38c-3.27-1.21-6.65-2.15-10.11-2.78
	c5.68-10.93,13.68-20.06,23.2-26.49c2.82-1.9,5.78-3.57,8.85-4.97l-0.54-2.9c-2.81,1.25-5.53,2.71-8.15,4.36
	c-3.88-5.76-8.85-10.52-14.54-13.86c-5.89-3.46-12.54-5.41-19.59-5.41c-7.04,0-13.69,1.95-19.57,5.4
	c-5.7,3.35-10.67,8.11-14.55,13.87c-2.55-1.61-5.2-3.04-7.94-4.26l-0.54,2.9c3,1.38,5.89,3.02,8.64,4.88
	c9.52,6.42,17.51,15.55,23.2,26.48c-3.46,0.63-6.84,1.57-10.11,2.78c-5-8.4-11.69-15.35-19.51-20.22c-1.41-0.88-2.87-1.69-4.35-2.44
	l-0.55,2.93c1.17,0.61,2.32,1.26,3.44,1.96c7.29,4.54,13.56,11.02,18.3,18.83c-3.16,1.34-6.22,2.95-9.15,4.79
	c-3.88-5.76-8.84-10.52-14.54-13.86l-0.2-0.12l-0.56,2.99c5.04,3.09,9.45,7.38,12.94,12.56c-2.83,1.96-5.53,4.14-8.07,6.54
	c-2.01-2.81-4.4-5.27-7.07-7.26l-0.59,3.16c2.1,1.73,3.99,3.79,5.61,6.11c-2.49,2.54-4.81,5.28-6.95,8.2
	c-0.82-1.29-1.76-2.47-2.8-3.51c-0.23,0.12-0.46,0.22-0.69,0.3l-2.2,0.9c1.54,1.32,2.87,2.96,3.9,4.85
	c-1.85,2.75-3.55,5.65-5.08,8.68c-2.57-0.34-5.17-0.51-7.82-0.51c-2.64,0-5.26,0.17-7.82,0.51c-0.94-1.86-1.94-3.66-3-5.42
	l-2.66,1.09c0.96,1.55,1.86,3.15,2.71,4.79c-3.46,0.64-6.84,1.57-10.11,2.78c-0.73-1.23-1.5-2.43-2.3-3.6l-2.69,1.1
	c0.81,1.15,1.59,2.34,2.33,3.56c-3.17,1.34-6.22,2.95-9.15,4.8c-1-1.49-2.07-2.91-3.21-4.25l-0.51,0.21
	c-0.75,0.37-1.73,0.52-2.68,0.45c1.45,1.6,2.8,3.32,4.04,5.15c-2.83,1.96-5.53,4.15-8.08,6.54c-2.69-3.76-6.05-6.88-9.87-9.1
	c-4.16-2.42-8.85-3.78-13.81-3.78c-4.97,0-9.66,1.36-13.81,3.77c-3.83,2.23-7.19,5.35-9.88,9.11c-2.55-2.39-5.24-4.58-8.07-6.54
	c3.64-5.39,8.27-9.83,13.58-12.95c5.45-3.2,11.63-5,18.18-5c3.29,0,6.49,0.45,9.56,1.32l-5.85-4.02c-1.23-0.12-2.46-0.18-3.71-0.18
	c-7.04,0-13.7,1.95-19.58,5.4c-5.7,3.35-10.66,8.1-14.55,13.87c-2.92-1.85-5.98-3.46-9.15-4.8c4.79-7.89,11.15-14.42,18.55-18.97
	c4.15-2.55,8.63-4.48,13.34-5.68l-3.08-2.12c-4.11,1.27-8.03,3.07-11.71,5.33c-7.92,4.87-14.7,11.89-19.76,20.38
	c-3.27-1.21-6.65-2.14-10.11-2.78c5.68-10.93,13.68-20.06,23.2-26.48c2.29-1.55,4.67-2.94,7.13-4.16l-2.68-1.84
	c-1.46,0.77-2.89,1.6-4.29,2.48c-1.64-2.42-3.46-4.67-5.45-6.7c-0.32,0.16-0.62,0.37-0.87,0.62l-1.26,1.26
	c1.9,1.94,3.65,4.07,5.21,6.39c-2.83,1.96-5.52,4.14-8.07,6.54c-1.4-1.97-2.99-3.76-4.73-5.33l-2.02,2.01
	c1.74,1.56,3.32,3.35,4.7,5.33c-2.48,2.54-4.81,5.28-6.95,8.2c-1.46-2.32-3.33-4.28-5.49-5.74l-0.03-0.02l-2.06,2.07
	c0.18,0.11,0.36,0.22,0.53,0.34c2.13,1.44,3.94,3.47,5.27,5.89c-1.86,2.75-3.56,5.65-5.09,8.68c-2.56-0.34-5.17-0.51-7.82-0.51
	c-2.64,0-5.24,0.17-7.8,0.51l-3.49,3.49c3.67-0.74,7.44-1.13,11.29-1.13c11.98,0,23.21,3.74,32.86,10.25
	c9.52,6.43,17.51,15.56,23.19,26.49c-3.46,0.63-6.84,1.56-10.11,2.77c-5-8.39-11.69-15.35-19.51-20.22
	c-7.87-4.9-16.87-7.68-26.43-7.68c-7.97,0-15.56,1.94-22.42,5.42l1.64,2.38c6.38-3.17,13.4-4.92,20.78-4.92
	c9.03,0,17.54,2.63,24.97,7.25c7.29,4.55,13.56,11.02,18.3,18.83c-3.16,1.35-6.22,2.95-9.15,4.8c-3.88-5.76-8.84-10.52-14.54-13.86
	c-5.88-3.46-12.54-5.41-19.58-5.41c-5,0-9.81,0.98-14.28,2.79l1.66,2.42c3.97-1.51,8.21-2.33,12.62-2.33
	c6.55,0,12.73,1.8,18.18,5.01c5.31,3.11,9.94,7.55,13.58,12.94c-2.83,1.96-5.52,4.15-8.07,6.55c-2.69-3.77-6.05-6.89-9.88-9.11
	c-4.15-2.42-8.84-3.78-13.81-3.78c-1.99,0-3.93,0.22-5.82,0.64l1.77,2.58c1.32-0.23,2.68-0.34,4.05-0.34
	c4.47,0,8.69,1.22,12.42,3.39c3.58,2.08,6.72,5.04,9.22,8.63c-2.48,2.53-4.81,5.27-6.95,8.19c-1.46-2.31-3.34-4.27-5.49-5.73
	c-1.59-1.07-3.32-1.87-5.16-2.35l2.98,4.34c0.21,0.13,0.42,0.26,0.62,0.4c2.13,1.44,3.94,3.47,5.26,5.89
	c-0.26,0.38-0.51,0.77-0.77,1.16l1.75,2.54c5.35-8.53,12.19-15.72,20.09-21.05c9.64-6.51,20.87-10.24,32.85-10.24
	c11.97,0,23.2,3.73,32.85,10.25c9.52,6.42,17.51,15.55,23.19,26.48c-3.46,0.63-6.84,1.57-10.11,2.78c-5-8.4-11.69-15.35-19.5-20.22
	c-7.87-4.9-16.87-7.68-26.43-7.68c-9.46,0-18.38,2.72-26.18,7.52c-7.92,4.87-14.7,11.88-19.76,20.38c-0.89-0.33-1.79-0.64-2.7-0.93
	c0.14,1,0.04,2.06-0.32,2.91c5.31,1.74,10.34,4.24,15,7.39c9.52,6.42,17.51,15.55,23.19,26.48c-3.46,0.64-6.84,1.57-10.11,2.78
	c-5-8.4-11.69-15.35-19.51-20.22c-4.09-2.55-8.49-4.52-13.12-5.83l-1.14,2.66c4.52,1.23,8.81,3.14,12.8,5.62
	c7.29,4.54,13.56,11.02,18.3,18.83c-3.16,1.34-6.22,2.95-9.14,4.79c-3.89-5.76-8.85-10.51-14.55-13.86
	c-3.72-2.19-7.76-3.77-12.01-4.64l-1.16,2.7c4.18,0.77,8.14,2.29,11.77,4.42c5.31,3.12,9.94,7.56,13.58,12.95
	c-2.83,1.96-5.52,4.15-8.07,6.54c-2.69-3.77-6.05-6.89-9.88-9.11c-3.69-2.15-7.8-3.46-12.15-3.73l-1.21,2.83
	c4.3,0.08,8.36,1.29,11.97,3.39c3.58,2.08,6.72,5.04,9.22,8.63c-2.48,2.54-4.81,5.28-6.95,8.2c-1.46-2.32-3.33-4.28-5.49-5.74
	c-2.7-1.82-5.85-2.87-9.2-2.87c-3.35,0-6.49,1.05-9.19,2.87c-2.16,1.46-4.03,3.42-5.5,5.74c-1.46-1.99-3-3.9-4.63-5.72l-3.29,0.61
	c4.6,4.9,8.6,10.56,11.85,16.8c-3.47,0.63-6.84,1.57-10.11,2.78c-4.02-6.74-9.12-12.56-15.02-17.11l-3.85,0.72
	c6.4,4.43,11.92,10.39,16.2,17.44c-3.17,1.35-6.22,2.95-9.15,4.8c-3.88-5.76-8.84-10.52-14.54-13.86c-3.81-2.24-7.94-3.85-12.3-4.7
	l-7.28,1.36v0.8c6.54,0,12.72,1.81,18.18,5.02c5.31,3.11,9.94,7.55,13.58,12.94c-2.83,1.96-5.53,4.15-8.07,6.54
	c-2.69-3.76-6.05-6.88-9.88-9.1c-4.15-2.41-8.84-3.77-13.81-3.77v2.86c4.46,0,8.68,1.23,12.42,3.4c3.58,2.08,6.72,5.04,9.22,8.63
	c-2.49,2.53-4.81,5.27-6.95,8.19c-1.47-2.32-3.34-4.27-5.49-5.73c-2.7-1.82-5.84-2.87-9.2-2.87v2.87c2.78,0,5.39,0.87,7.64,2.39
	c2.13,1.44,3.94,3.46,5.26,5.88c-1.85,2.76-3.55,5.66-5.08,8.69c-2.57-0.34-5.17-0.51-7.82-0.51v2.86c11.97,0,23.2,3.74,32.86,10.26
	c9.51,6.42,17.5,15.55,23.19,26.48c-3.47,0.63-6.85,1.57-10.12,2.78c-5-8.4-11.69-15.35-19.5-20.22
	c-7.86-4.89-16.86-7.67-26.43-7.67v2.86c9.03,0,17.53,2.63,24.97,7.26c7.24,4.51,13.47,10.92,18.19,18.66l5.83,1.08
	c5.66-1.86,11.64-2.85,17.82-2.85c11.98,0,23.21,3.73,32.86,10.25c9.52,6.42,17.51,15.55,23.19,26.48
	c-3.46,0.64-6.84,1.57-10.11,2.78c-5-8.39-11.69-15.35-19.51-20.22c-7.87-4.9-16.87-7.68-26.43-7.68c-1.2,0-2.4,0.04-3.58,0.13
	l1.12,2.81c0.82-0.04,1.64-0.06,2.46-0.06c9.03,0,17.54,2.62,24.97,7.25c7.29,4.54,13.57,11.02,18.31,18.83
	c-3.17,1.34-6.23,2.95-9.15,4.8c-3.89-5.77-8.85-10.52-14.55-13.87c-5.27-3.09-11.16-4.98-17.39-5.34l1.19,2.98
	c5.29,0.5,10.29,2.2,14.8,4.85c5.31,3.11,9.94,7.55,13.58,12.94c-2.83,1.96-5.52,4.15-8.07,6.54c-2.69-3.77-6.05-6.88-9.88-9.11
	c-1.68-0.98-3.46-1.78-5.3-2.39l1.45,3.63c0.84,0.37,1.67,0.79,2.46,1.26c3.58,2.08,6.72,5.03,9.22,8.63
	c-1.9,1.93-3.7,3.99-5.4,6.15c0.19,1.37-0.1,2.92-0.81,3.95l-8.31,12.12c9.3,1.17,18.03,4.6,25.74,9.8
	c9.52,6.43,17.51,15.56,23.19,26.49c-3.46,0.63-6.84,1.56-10.11,2.78c-5-8.4-11.69-15.36-19.51-20.22
	c-7.86-4.9-16.87-7.68-26.43-7.68h-0.55l-2.02,2.95c0.85-0.05,1.71-0.08,2.57-0.08c9.03,0,17.54,2.63,24.97,7.26
	c7.29,4.54,13.56,11.01,18.3,18.82c-3.16,1.35-6.22,2.95-9.15,4.8c-3.88-5.76-8.84-10.52-14.53-13.86
	c-5.89-3.46-12.55-5.41-19.59-5.41c-4.07,0-8.02,0.65-11.76,1.87l-2.87,4.18c4.53-2.05,9.47-3.17,14.63-3.17
	c6.55,0,12.73,1.8,18.19,5.01c5.3,3.11,9.93,7.55,13.57,12.94c-2.83,1.96-5.52,4.15-8.07,6.55c-2.69-3.77-6.05-6.89-9.88-9.12
	c-4.15-2.41-8.84-3.78-13.81-3.78c-4.96,0-9.65,1.37-13.81,3.78c-2.55,1.49-4.89,3.37-6.97,5.57l2.01,2.01
	c1.9-2.02,4.03-3.73,6.35-5.08c3.74-2.17,7.95-3.4,12.42-3.4c4.47,0,8.69,1.23,12.42,3.4c3.58,2.08,6.72,5.04,9.22,8.63
	c-2.48,2.53-4.81,5.27-6.95,8.19c-1.46-2.32-3.33-4.28-5.49-5.73c-2.7-1.83-5.85-2.87-9.2-2.87c-3.35,0-6.49,1.04-9.18,2.86
	c-0.71,0.48-1.38,1-2.02,1.58l2.02,2.01c0.49-0.43,1.01-0.83,1.55-1.19c2.24-1.52,4.85-2.39,7.63-2.39c2.79,0,5.4,0.87,7.64,2.39
	c2.14,1.44,3.94,3.46,5.27,5.89c-1.86,2.75-3.56,5.65-5.08,8.68c-1.34-0.18-2.68-0.31-4.03-0.4l3.18,3.19
	c9.25,1.13,17.92,4.51,25.6,9.63c2.77,1.85,5.4,3.92,7.89,6.2l2.41-1.65c-2.47-2.31-5.08-4.42-7.82-6.32
	c3.64-5.39,8.27-9.83,13.58-12.94c5.45-3.21,11.63-5.01,18.18-5.01c3.27,0,6.46,0.45,9.5,1.3l3-2.06c-3.96-1.38-8.16-2.12-12.5-2.12
	c-7.05,0-13.7,1.95-19.58,5.4c-5.7,3.35-10.66,8.11-14.55,13.87c-2.92-1.85-5.98-3.45-9.15-4.8c4.79-7.89,11.15-14.42,18.55-18.97
	c7.38-4.53,15.79-7.1,24.73-7.1c9.03,0,17.53,2.62,24.96,7.25c1.59,0.99,3.13,2.07,4.61,3.23l9.46,5.05
	c-3.72-4.22-7.96-7.84-12.6-10.73c-7.87-4.9-16.87-7.68-26.43-7.68c-9.46,0-18.38,2.72-26.18,7.52
	c-7.92,4.87-14.7,11.88-19.76,20.38c-3.27-1.21-6.65-2.15-10.11-2.78c5.69-10.93,13.68-20.07,23.2-26.49
	c9.64-6.51,20.87-10.24,32.85-10.24c11.97,0,23.2,3.73,32.85,10.24c8.38,5.66,15.57,13.41,21.05,22.64l1.34-3.24
	c-0.43-0.69-0.88-1.38-1.33-2.05c1.13-2.07,2.61-3.84,4.34-5.21l1.85-4.47c-0.86,0.39-1.69,0.86-2.48,1.39
	c-2.16,1.46-4.04,3.42-5.5,5.74c-2.14-2.92-4.46-5.66-6.95-8.19c2.5-3.59,5.64-6.55,9.22-8.63c3.37-1.96,7.13-3.15,11.11-3.36
	l1.2-2.91c-4.92,0.02-9.58,1.37-13.7,3.77c-3.83,2.23-7.19,5.35-9.88,9.12c-2.54-2.4-5.24-4.59-8.07-6.55
	c3.64-5.39,8.28-9.83,13.58-12.95c5.46-3.2,11.63-5,18.18-5c1.55,0,3.07,0.1,4.57,0.29l1.14-2.74c-1.87-0.28-3.78-0.43-5.71-0.43
	c-7.04,0-13.69,1.95-19.58,5.4c-5.7,3.35-10.66,8.1-14.54,13.87c-2.93-1.85-5.99-3.46-9.16-4.8c4.79-7.89,11.15-14.42,18.56-18.97
	c7.37-4.54,15.79-7.11,24.72-7.11c3.49,0,6.91,0.4,10.21,1.15l1.12-2.69c-3.66-0.87-7.45-1.33-11.33-1.33
	c-9.46,0-18.37,2.72-26.18,7.52c-7.92,4.86-14.7,11.88-19.76,20.38c-3.27-1.22-6.65-2.15-10.11-2.79
	c5.69-10.93,13.68-20.06,23.2-26.48c9.65-6.51,20.87-10.24,32.85-10.24c5.44,0,10.72,0.77,15.76,2.21l1.11-2.66
	c-2-0.59-4.04-1.08-6.11-1.45c3.95-7.59,9.01-14.32,14.93-19.87l2.42-5.86c-1.52,1.21-2.99,2.49-4.42,3.83
	c-2.69-3.76-6.05-6.88-9.88-9.11c-4.15-2.41-8.85-3.77-13.81-3.77c-4.96,0-9.66,1.36-13.81,3.78c-3.83,2.22-7.19,5.34-9.88,9.1
	c-2.54-2.39-5.24-4.58-8.07-6.54c3.64-5.39,8.28-9.83,13.58-12.95c5.46-3.2,11.63-5.01,18.18-5.01s12.72,1.81,18.18,5.02
	c4.55,2.67,8.61,6.32,11.98,10.71l1.24-3c-3.39-4.13-7.38-7.59-11.82-10.2c-5.88-3.45-12.54-5.4-19.58-5.4
	c-7.04,0-13.7,1.94-19.58,5.4c-5.7,3.34-10.66,8.1-14.54,13.87c-2.93-1.85-5.99-3.46-9.16-4.8c4.79-7.9,11.15-14.43,18.56-18.98
	c7.37-4.53,15.79-7.1,24.72-7.1c9.03,0,17.54,2.62,24.97,7.25c3.98,2.48,7.65,5.53,10.94,9.06l0.19-0.47c0.66-1.58,0-3.59-1.45-4.48
	l-6.01-3.68c-1.11-0.68-2.62-1.85-3.8-2.91c-1.67-1.08-3.31-2.21-4.89-3.41c-6.2-2.74-12.92-4.24-19.95-4.24
	c-9.46,0-18.37,2.72-26.17,7.52c-7.92,4.87-14.71,11.89-19.77,20.38c-3.27-1.21-6.65-2.14-10.11-2.78
	c5.69-10.93,13.68-20.06,23.2-26.49c9.65-6.51,20.87-10.24,32.85-10.24c1.45,0,2.88,0.05,4.31,0.16c-0.74-0.98-1.45-1.98-2.14-3
	c-0.72-0.02-1.44-0.04-2.17-0.04c-2.64,0-5.26,0.18-7.82,0.52c-1.53-3.03-3.23-5.93-5.08-8.68c1.32-2.43,3.14-4.45,5.27-5.9
	c0.58-0.39,1.18-0.74,1.81-1.04c-0.35-0.89-0.69-1.78-1.01-2.69c-0.81,0.38-1.6,0.83-2.35,1.34c-2.17,1.46-4.05,3.42-5.51,5.74
	c-2.14-2.92-4.46-5.66-6.95-8.19c2.5-3.59,5.64-6.55,9.22-8.63c0.84-0.49,1.71-0.93,2.6-1.32c-0.19-0.96-0.35-1.93-0.5-2.9
	c-1.2,0.5-2.37,1.07-3.49,1.73c-3.83,2.22-7.19,5.34-9.88,9.11c-2.54-2.4-5.24-4.59-8.07-6.55c3.64-5.39,8.28-9.83,13.58-12.94
	c2.21-1.3,4.53-2.36,6.95-3.17l-0.01-0.15c0-0.96,0.03-1.92,0.06-2.88c-2.93,0.9-5.74,2.15-8.4,3.71
	c-5.7,3.35-10.66,8.11-14.55,13.87c-2.92-1.85-5.98-3.45-9.15-4.8c4.79-7.89,11.15-14.42,18.56-18.97
	c4.62-2.84,9.64-4.91,14.95-6.06c0.2-1.03,0.43-2.05,0.67-3.07c-6.08,1.15-11.83,3.44-17.08,6.67
	c-7.91,4.87-14.69,11.88-19.76,20.38c-3.27-1.21-6.64-2.15-10.11-2.78c5.69-10.93,13.68-20.07,23.2-26.49
	c8.27-5.58,17.69-9.12,27.76-10.01c0.43-1.01,0.88-2.01,1.34-2.99c-1.37,0.09-2.72,0.22-4.07,0.39c-1.53-3.02-3.23-5.92-5.08-8.68
	c1.32-2.42,3.13-4.45,5.27-5.89c2.24-1.51,4.85-2.38,7.63-2.38c2.04,0,3.99,0.46,5.76,1.31c0.61-0.76,1.23-1.52,1.87-2.26
	c-2.32-1.24-4.9-1.93-7.63-1.93c-3.35,0-6.49,1.05-9.19,2.87c-2.16,1.46-4.04,3.42-5.5,5.74c-2.14-2.92-4.46-5.66-6.95-8.19
	c2.5-3.6,5.64-6.55,9.22-8.64c3.73-2.17,7.95-3.39,12.42-3.39c4.47,0,8.68,1.22,12.42,3.39c1.09,0.64,2.14,1.36,3.15,2.15
	c0.73-0.63,1.47-1.26,2.22-1.86c-1.26-1.04-2.59-1.97-3.98-2.78c-4.16-2.42-8.85-3.78-13.81-3.78c-4.96,0-9.66,1.36-13.81,3.78
	c-3.83,2.23-7.19,5.34-9.88,9.11c-2.54-2.39-5.24-4.58-8.07-6.54c3.64-5.39,8.28-9.83,13.58-12.95c5.46-3.2,11.63-5.01,18.18-5.01
	s12.72,1.81,18.18,5.01c3.14,1.84,6.04,4.15,8.64,6.84c0.84-0.5,1.68-0.98,2.54-1.45c-2.92-3.12-6.2-5.77-9.78-7.87
	c-5.88-3.46-12.54-5.4-19.58-5.4c-7.04,0-13.7,1.94-19.58,5.4c-5.7,3.34-10.66,8.1-14.55,13.86c-2.92-1.84-5.98-3.45-9.15-4.79
	c4.79-7.9,11.15-14.43,18.56-18.98c7.37-4.53,15.79-7.1,24.72-7.1c9.03,0,17.54,2.62,24.97,7.25c5.41,3.37,10.25,7.8,14.33,13.05
	c0.92-0.36,1.86-0.69,2.8-1.01c-4.4-5.85-9.71-10.78-15.67-14.49c-7.87-4.9-16.87-7.68-26.43-7.68c-9.46,0-18.37,2.72-26.18,7.52
	c-7.92,4.87-14.7,11.89-19.76,20.38c-3.27-1.21-6.64-2.14-10.11-2.78c5.69-10.93,13.68-20.06,23.2-26.49
	c9.65-6.51,20.87-10.24,32.85-10.24s23.2,3.73,32.85,10.25c7.81,5.27,14.6,12.37,19.92,20.78c1.01-0.18,2.02-0.34,3.04-0.49
	c-0.61-1-1.25-1.98-1.9-2.95c1.33-2.42,3.14-4.45,5.27-5.89c2.24-1.52,4.85-2.38,7.63-2.38c2.79,0,5.4,0.87,7.64,2.38
	c2.13,1.44,3.94,3.47,5.26,5.89c-0.64,0.96-1.27,1.93-1.87,2.92c1.02,0.15,2.03,0.3,3.04,0.48c5.32-8.4,12.09-15.48,19.9-20.75
	c9.65-6.51,20.87-10.24,32.85-10.24c11.97,0,23.2,3.73,32.85,10.25c9.52,6.42,17.51,15.55,23.19,26.48
	c-3.46,0.64-6.84,1.57-10.11,2.78c-5-8.4-11.69-15.35-19.5-20.22c-7.87-4.9-16.87-7.68-26.43-7.68c-9.46,0-18.37,2.72-26.18,7.52
	c-6.04,3.71-11.41,8.68-15.87,14.59c0.94,0.32,1.88,0.65,2.8,1c4.13-5.3,9.04-9.76,14.53-13.13c7.37-4.53,15.79-7.1,24.72-7.1
	c9.03,0,17.53,2.62,24.96,7.25c7.3,4.54,13.57,11.02,18.31,18.83c-3.17,1.34-6.22,2.95-9.15,4.8c-3.88-5.77-8.85-10.53-14.54-13.87
	c-5.89-3.46-12.54-5.4-19.58-5.4s-13.7,1.94-19.58,5.4c-3.54,2.08-6.8,4.7-9.7,7.78c0.86,0.47,1.7,0.95,2.54,1.45
	c2.58-2.65,5.46-4.93,8.56-6.75c5.46-3.2,11.63-5.01,18.18-5.01c6.54,0,12.72,1.81,18.18,5.01c5.3,3.12,9.93,7.56,13.58,12.95
	c-2.83,1.96-5.53,4.15-8.07,6.54c-2.7-3.77-6.06-6.89-9.89-9.11c-4.15-2.42-8.84-3.78-13.8-3.78c-4.97,0-9.66,1.36-13.81,3.78
	c-1.35,0.79-2.65,1.68-3.87,2.68c0.75,0.61,1.5,1.23,2.23,1.86c0.97-0.75,1.98-1.44,3.03-2.05c3.73-2.17,7.95-3.39,12.42-3.39
	c4.46,0,8.68,1.22,12.41,3.39c3.58,2.09,6.73,5.04,9.22,8.63c-2.48,2.54-4.8,5.28-6.94,8.2c-1.47-2.32-3.34-4.28-5.5-5.74
	c-2.7-1.82-5.84-2.87-9.19-2.87c-2.67,0-5.19,0.66-7.47,1.85c0.63,0.74,1.26,1.5,1.87,2.26c1.73-0.79,3.62-1.23,5.6-1.23
	c2.78,0,5.39,0.87,7.64,2.38c2.13,1.44,3.93,3.47,5.26,5.89c-1.85,2.76-3.55,5.66-5.08,8.68c-1.27-0.16-2.55-0.29-3.84-0.38
	c0.47,0.99,0.92,1.99,1.34,3c9.98,0.93,19.33,4.46,27.54,10c9.51,6.42,17.5,15.55,23.18,26.48c-3.46,0.63-6.84,1.57-10.11,2.78
	c-5-8.4-11.69-15.36-19.5-20.22c-5.25-3.27-11-5.59-17.09-6.78c0.24,1.02,0.46,2.04,0.66,3.07c5.32,1.18,10.35,3.28,14.96,6.16
	c7.3,4.54,13.57,11.01,18.31,18.82c-3.17,1.35-6.23,2.95-9.15,4.8c-3.89-5.76-8.85-10.52-14.54-13.86
	c-2.59-1.52-5.32-2.75-8.18-3.65c0.04,0.93,0.06,1.87,0.06,2.81v0.22c2.33,0.81,4.58,1.85,6.72,3.1c5.3,3.11,9.93,7.55,13.57,12.94
	c-2.83,1.96-5.52,4.15-8.07,6.55c-2.69-3.77-6.05-6.89-9.88-9.11c-1.05-0.62-2.15-1.16-3.27-1.64c-0.15,0.97-0.32,1.94-0.5,2.9
	c0.81,0.37,1.61,0.78,2.39,1.23c3.57,2.08,6.71,5.04,9.21,8.63c-2.48,2.53-4.8,5.27-6.94,8.19c-1.47-2.31-3.34-4.27-5.5-5.74
	c-0.7-0.46-1.42-0.88-2.17-1.24c-0.32,0.9-0.66,1.8-1.01,2.69c0.56,0.28,1.1,0.6,1.62,0.95c2.13,1.44,3.94,3.46,5.27,5.89
	c-1.86,2.75-3.55,5.65-5.08,8.68c-2.57-0.34-5.18-0.52-7.82-0.52c-0.65,0-1.29,0.01-1.94,0.03c-0.68,1.02-1.39,2.02-2.13,2.99
	c1.35-0.09,2.7-0.14,4.07-0.14c11.98,0,23.2,3.73,32.85,10.25c9.52,6.42,17.51,15.55,23.19,26.48c-3.46,0.64-6.83,1.57-10.1,2.78
	c-5.01-8.39-11.7-15.35-19.51-20.22c-7.87-4.9-16.87-7.68-26.43-7.68c-6.83,0-13.37,1.42-19.41,4.01c-1.68,1.28-3.42,2.49-5.2,3.64
	c-1.18,1.06-2.68,2.23-3.8,2.91l-6.01,3.68c-1.44,0.89-2.1,2.9-1.45,4.48l0.12,0.3c3.32-3.53,7.02-6.58,11.03-9.04
	c7.37-4.53,15.79-7.1,24.72-7.1c9.03,0,17.53,2.62,24.96,7.25c7.3,4.54,13.57,11.02,18.31,18.83c-3.17,1.35-6.22,2.95-9.15,4.8
	c-3.88-5.77-8.85-10.52-14.54-13.87c-5.89-3.45-12.54-5.4-19.58-5.4s-13.7,1.94-19.58,5.4c-4.37,2.56-8.31,5.96-11.66,10.01
	l1.23,2.99c3.34-4.3,7.35-7.88,11.83-10.52c5.46-3.2,11.63-5.01,18.18-5.01c6.54,0,12.72,1.81,18.18,5.02
	c5.3,3.11,9.93,7.55,13.58,12.94c-2.83,1.96-5.53,4.15-8.07,6.54c-2.7-3.76-6.06-6.88-9.88-9.11c-4.16-2.41-8.85-3.77-13.81-3.77
	c-4.97,0-9.66,1.36-13.82,3.77c-3.82,2.23-7.18,5.34-9.87,9.11c-1.32-1.24-2.68-2.43-4.07-3.55l2.45,5.94
	c5.75,5.48,10.68,12.08,14.55,19.51c-2,0.36-3.97,0.83-5.9,1.39l1.1,2.66c4.99-1.4,10.2-2.15,15.56-2.15
	c11.98,0,23.2,3.73,32.85,10.25c9.52,6.42,17.51,15.55,23.19,26.48c-3.46,0.63-6.84,1.56-10.11,2.77c-5-8.39-11.69-15.35-19.5-20.21
	c-7.87-4.9-16.87-7.68-26.43-7.68c-3.81,0-7.52,0.44-11.12,1.28l1.12,2.69c3.24-0.72,6.58-1.1,10-1.1c9.03,0,17.53,2.63,24.96,7.26
	c7.3,4.54,13.57,11.01,18.31,18.82c-3.17,1.35-6.23,2.95-9.15,4.8c-3.89-5.76-8.85-10.52-14.54-13.87
	c-5.88-3.45-12.54-5.4-19.58-5.4c-1.86,0-3.69,0.13-5.49,0.4l1.14,2.74c1.43-0.17,2.88-0.26,4.35-0.26c6.54,0,12.72,1.8,18.18,5.01
	c5.3,3.11,9.93,7.55,13.57,12.94c-2.83,1.96-5.52,4.15-8.06,6.55c-2.7-3.77-6.06-6.89-9.89-9.12c-4.05-2.36-8.62-3.71-13.46-3.77
	l1.21,2.92c3.89,0.25,7.57,1.43,10.86,3.35c3.58,2.08,6.72,5.04,9.22,8.63c-2.48,2.53-4.8,5.27-6.94,8.19
	c-1.47-2.32-3.34-4.28-5.5-5.74c-0.7-0.47-1.43-0.89-2.19-1.25l1.91,4.61c1.58,1.33,2.94,3,3.99,4.93c-0.41,0.6-0.8,1.21-1.19,1.82
	l1.33,3.24c5.47-9.13,12.61-16.8,20.92-22.41c9.65-6.51,20.87-10.24,32.85-10.24s23.21,3.73,32.86,10.24
	c9.51,6.43,17.51,15.56,23.19,26.49c-3.46,0.63-6.84,1.57-10.11,2.78c-5-8.4-11.69-15.35-19.5-20.22
	c-7.87-4.9-16.88-7.68-26.44-7.68c-9.46,0-18.37,2.72-26.18,7.52c-4.82,2.96-9.22,6.73-13.07,11.13l9.18-4.9
	c1.71-1.37,3.5-2.63,5.35-3.77c7.37-4.53,15.79-7.1,24.72-7.1c9.04,0,17.54,2.62,24.97,7.25c7.29,4.54,13.56,11.01,18.3,18.83
	c-3.16,1.34-6.22,2.95-9.15,4.79c-3.88-5.76-8.84-10.52-14.54-13.86c-5.88-3.46-12.54-5.41-19.58-5.41c-4.29,0-8.43,0.72-12.35,2.07
	l3.01,2.07c3-0.83,6.13-1.26,9.34-1.26c6.55,0,12.73,1.81,18.18,5.01c5.3,3.12,9.94,7.56,13.58,12.95c-2.7,1.86-5.28,3.94-7.72,6.21
	l2.41,1.66c2.46-2.25,5.06-4.29,7.79-6.11c7.75-5.17,16.52-8.56,25.86-9.67l3.17-3.16c-1.44,0.08-2.86,0.22-4.28,0.4
	c-1.53-3.02-3.22-5.92-5.08-8.67c1.33-2.43,3.14-4.46,5.27-5.9c2.24-1.51,4.85-2.38,7.63-2.38c2.79,0,5.4,0.87,7.64,2.39
	c0.59,0.39,1.14,0.83,1.67,1.3l2.02-2.01c-0.67-0.62-1.39-1.18-2.13-1.68c-2.7-1.83-5.84-2.87-9.2-2.87c-3.35,0-6.49,1.04-9.18,2.86
	c-2.17,1.46-4.04,3.42-5.5,5.74c-2.15-2.92-4.47-5.66-6.95-8.19c2.5-3.59,5.64-6.55,9.21-8.63c3.74-2.17,7.96-3.4,12.42-3.4
	c4.47,0,8.69,1.23,12.42,3.4c2.37,1.38,4.54,3.14,6.47,5.21l2.01-2.01c-2.11-2.26-4.49-4.18-7.09-5.7
	c-4.15-2.41-8.84-3.78-13.81-3.78c-4.96,0-9.65,1.37-13.8,3.78c-3.83,2.23-7.19,5.35-9.88,9.12c-2.55-2.4-5.25-4.59-8.08-6.55
	c3.65-5.39,8.28-9.83,13.59-12.95c5.45-3.2,11.63-5,18.17-5c5.3,0,10.35,1.18,14.97,3.32l-2.9-4.23c-3.83-1.28-7.88-1.97-12.07-1.97
	c-7.04,0-13.69,1.95-19.57,5.4c-5.7,3.35-10.67,8.1-14.55,13.87c-2.93-1.85-5.99-3.46-9.15-4.8c4.79-7.89,11.15-14.42,18.55-18.97
	c7.38-4.54,15.79-7.11,24.72-7.11c0.95,0,1.88,0.03,2.81,0.09l-2.02-2.96h-0.79c-9.46,0-18.37,2.72-26.17,7.51
	c-7.92,4.87-14.7,11.89-19.76,20.38c-3.27-1.21-6.65-2.14-10.12-2.78c5.69-10.93,13.68-20.06,23.2-26.48
	c7.77-5.24,16.57-8.68,25.95-9.82l-8.29-12.1c-0.67-0.96-0.96-2.39-0.84-3.69c-1.75-2.26-3.62-4.4-5.6-6.41
	c2.5-3.59,5.64-6.55,9.21-8.63c0.89-0.52,1.81-0.98,2.75-1.39l1.44-3.59c-1.94,0.62-3.81,1.46-5.58,2.49
	c-3.82,2.22-7.18,5.34-9.87,9.1c-2.55-2.39-5.24-4.58-8.08-6.54c3.65-5.39,8.28-9.83,13.59-12.95c4.57-2.68,9.66-4.39,15.05-4.87
	l1.18-2.96c-6.32,0.32-12.29,2.21-17.63,5.35c-5.7,3.34-10.67,8.1-14.55,13.86c-2.93-1.84-5.99-3.45-9.15-4.79
	c4.79-7.9,11.15-14.43,18.56-18.98c7.37-4.53,15.78-7.1,24.71-7.1c0.91,0,1.81,0.02,2.7,0.08l1.12-2.81
	c-1.26-0.1-2.53-0.15-3.82-0.15c-9.46,0-18.36,2.72-26.17,7.52c-7.92,4.87-14.71,11.89-19.77,20.38c-3.27-1.21-6.64-2.14-10.11-2.78
	c5.69-10.93,13.68-20.06,23.2-26.49c9.65-6.51,20.88-10.24,32.85-10.24c6.21,0,12.22,1,17.91,2.88l5.71-1.06
	c4.64-7.63,10.75-13.97,17.86-18.48c7.14-4.53,15.28-7.21,23.94-7.47l-0.08-2.86C553.15,470.75,544.53,473.57,536.98,478.37z
	 M83.21,409.16c1.33-2.43,3.14-4.46,5.27-5.9c2.24-1.51,4.85-2.38,7.63-2.38c2.79,0,5.4,0.87,7.64,2.39
	c2.14,1.44,3.94,3.46,5.27,5.88c-1.86,2.76-3.56,5.66-5.09,8.68c-2.56-0.33-5.17-0.51-7.82-0.51c-2.64,0-5.25,0.18-7.82,0.51
	C86.76,414.81,85.06,411.91,83.21,409.16z M40.06,456.93c5.69-10.93,13.68-20.06,23.2-26.49c9.65-6.51,20.87-10.24,32.85-10.24
	c11.98,0,23.21,3.73,32.86,10.25c9.52,6.42,17.51,15.55,23.19,26.48c-3.46,0.63-6.84,1.56-10.11,2.78
	c-5-8.4-11.69-15.36-19.51-20.22c-7.87-4.9-16.87-7.68-26.43-7.68c-9.46,0-18.37,2.72-26.17,7.52c-7.92,4.87-14.7,11.88-19.76,20.38
	C46.91,458.5,43.53,457.56,40.06,456.93z M61.99,465.56c-2.93-1.85-5.99-3.45-9.16-4.8c4.79-7.89,11.16-14.42,18.56-18.97
	c7.38-4.54,15.79-7.1,24.72-7.1c9.03,0,17.54,2.62,24.97,7.25c7.29,4.54,13.56,11.01,18.3,18.82c-3.16,1.35-6.22,2.95-9.15,4.8
	c-3.88-5.76-8.84-10.52-14.53-13.86c-5.89-3.46-12.55-5.41-19.59-5.41c-7.04,0-13.69,1.95-19.57,5.4
	C70.84,455.04,65.87,459.79,61.99,465.56z M64.35,467.12c3.64-5.39,8.28-9.83,13.59-12.94c5.45-3.21,11.63-5.01,18.17-5.01
	c6.55,0,12.73,1.81,18.19,5.01c5.3,3.12,9.93,7.55,13.57,12.94c-2.83,1.96-5.53,4.15-8.07,6.55c-2.69-3.77-6.05-6.89-9.88-9.11
	c-4.15-2.42-8.84-3.78-13.81-3.78c-4.96,0-9.65,1.36-13.81,3.78c-3.82,2.22-7.19,5.34-9.88,9.11
	C69.88,471.27,67.18,469.08,64.35,467.12z M74.47,475.68c2.5-3.59,5.64-6.55,9.22-8.63c3.73-2.17,7.95-3.39,12.42-3.39
	c4.47,0,8.69,1.22,12.42,3.39c3.58,2.08,6.72,5.04,9.22,8.63c-2.48,2.53-4.81,5.27-6.95,8.19c-1.46-2.31-3.34-4.27-5.5-5.73
	c-2.7-1.83-5.84-2.88-9.19-2.88c-3.35,0-6.49,1.05-9.18,2.87c-2.17,1.46-4.04,3.42-5.51,5.74
	C79.28,480.95,76.96,478.21,74.47,475.68z M96.11,494.58c-2.64,0-5.25,0.18-7.82,0.52c-1.53-3.03-3.23-5.93-5.08-8.68
	c1.33-2.43,3.14-4.45,5.27-5.9c2.24-1.51,4.85-2.38,7.63-2.38c2.78,0,5.39,0.87,7.64,2.39c2.13,1.44,3.94,3.47,5.26,5.89
	c-1.85,2.75-3.55,5.65-5.08,8.68C101.37,494.76,98.76,494.58,96.11,494.58z M170.75,610.99c-2.57-0.34-5.18-0.51-7.82-0.51
	c-2.65,0-5.26,0.17-7.83,0.51c-1.52-3.02-3.22-5.92-5.07-8.67c1.32-2.43,3.13-4.45,5.26-5.89c2.24-1.52,4.85-2.38,7.64-2.38
	c2.78,0,5.39,0.86,7.63,2.38c2.14,1.44,3.94,3.47,5.27,5.88C173.97,605.07,172.27,607.97,170.75,610.99z M177.61,599.77
	c-1.46-2.31-3.33-4.27-5.49-5.73c-2.7-1.83-5.84-2.87-9.19-2.87c-3.36,0-6.5,1.04-9.2,2.86c-2.16,1.46-4.03,3.42-5.49,5.74
	c-2.14-2.92-4.47-5.66-6.95-8.19c2.5-3.59,5.64-6.55,9.21-8.63c3.74-2.17,7.96-3.4,12.43-3.4c4.46,0,8.68,1.23,12.42,3.4
	c3.57,2.08,6.72,5.03,9.21,8.63C182.08,594.11,179.75,596.85,177.61,599.77z M186.61,589.56c-2.69-3.76-6.05-6.88-9.87-9.11
	c-4.16-2.41-8.85-3.77-13.81-3.77c-4.97,0-9.66,1.36-13.82,3.78c-3.82,2.22-7.18,5.34-9.87,9.11c-2.55-2.4-5.24-4.59-8.07-6.55
	c3.64-5.39,8.27-9.83,13.58-12.94c5.45-3.2,11.63-5.01,18.18-5.01c6.54,0,12.72,1.81,18.18,5.01c5.3,3.11,9.93,7.55,13.58,12.94
	C191.86,584.98,189.16,587.17,186.61,589.56z M197.05,581.46c-3.88-5.76-8.85-10.52-14.54-13.86c-5.89-3.46-12.54-5.41-19.58-5.41
	c-7.05,0-13.7,1.95-19.58,5.4c-5.7,3.35-10.67,8.1-14.55,13.87c-2.93-1.85-5.98-3.45-9.15-4.8c4.79-7.89,11.15-14.42,18.55-18.98
	c7.38-4.53,15.79-7.1,24.73-7.1c9.03,0,17.53,2.63,24.96,7.25c7.3,4.55,13.57,11.02,18.31,18.83
	C203.03,578.01,199.98,579.61,197.05,581.46z M237.56,572.36c-2.57-0.33-5.18-0.51-7.82-0.51s-5.25,0.18-7.82,0.51
	c-1.53-3.02-3.23-5.92-5.08-8.68c1.32-2.42,3.14-4.45,5.27-5.89c2.24-1.51,4.85-2.38,7.63-2.38c2.78,0,5.39,0.87,7.64,2.38
	c2.13,1.45,3.94,3.47,5.26,5.89C240.79,566.44,239.09,569.34,237.56,572.36z M217.32,544.32c3.73-2.17,7.95-3.4,12.42-3.4
	c4.47,0,8.69,1.23,12.42,3.4c3.58,2.08,6.72,5.04,9.22,8.63c-2.49,2.53-4.81,5.27-6.95,8.19c-1.47-2.32-3.34-4.28-5.5-5.74
	c-2.7-1.82-5.84-2.87-9.19-2.87c-3.35,0-6.49,1.05-9.19,2.87c-2.16,1.46-4.03,3.42-5.5,5.74c-2.14-2.92-4.46-5.66-6.94-8.19
	C210.6,549.36,213.74,546.4,217.32,544.32z M195.78,546.34c9.52,6.43,17.51,15.56,23.2,26.49c-3.47,0.63-6.84,1.56-10.11,2.77
	c-5.01-8.39-11.7-15.35-19.51-20.22c-7.87-4.9-16.87-7.68-26.43-7.68c-9.46,0-18.38,2.72-26.18,7.52
	c-7.92,4.87-14.7,11.89-19.76,20.39c-3.27-1.21-6.65-2.15-10.11-2.78c5.68-10.93,13.68-20.07,23.2-26.49
	c9.65-6.51,20.87-10.24,32.85-10.24S186.13,539.83,195.78,546.34z M170.75,533.73c-2.57-0.34-5.18-0.51-7.82-0.51
	c-2.65,0-5.26,0.17-7.82,0.51c-1.53-3.02-3.23-5.92-5.08-8.68c1.32-2.42,3.13-4.45,5.26-5.89c2.24-1.52,4.85-2.38,7.64-2.38
	c2.78,0,5.39,0.87,7.63,2.38c2.14,1.44,3.94,3.47,5.27,5.89C173.97,527.81,172.27,530.7,170.75,533.73z M177.61,522.51
	c-1.46-2.32-3.33-4.28-5.49-5.74c-2.7-1.82-5.84-2.87-9.19-2.87c-3.36,0-6.5,1.04-9.19,2.87c-2.16,1.46-4.04,3.42-5.5,5.74
	c-2.14-2.93-4.47-5.66-6.95-8.2c2.5-3.59,5.64-6.55,9.22-8.63c3.73-2.17,7.95-3.39,12.42-3.39c4.46,0,8.68,1.22,12.42,3.39
	c3.57,2.09,6.71,5.04,9.21,8.63C182.08,516.85,179.75,519.59,177.61,522.51z M186.61,512.3c-2.69-3.77-6.05-6.88-9.87-9.11
	c-4.16-2.42-8.85-3.78-13.81-3.78c-4.97,0-9.66,1.36-13.81,3.78c-3.83,2.22-7.19,5.34-9.88,9.11c-2.55-2.4-5.24-4.59-8.07-6.54
	c3.64-5.4,8.27-9.83,13.58-12.95c5.45-3.2,11.63-5.01,18.18-5.01c6.54,0,12.72,1.81,18.18,5.01c5.3,3.12,9.93,7.56,13.58,12.94
	C191.86,507.71,189.16,509.9,186.61,512.3z M197.05,504.19c-3.88-5.76-8.85-10.51-14.54-13.86c-5.89-3.46-12.54-5.4-19.58-5.4
	c-7.05,0-13.7,1.94-19.58,5.4c-5.7,3.34-10.66,8.1-14.55,13.86c-2.92-1.84-5.98-3.45-9.15-4.8c4.79-7.89,11.15-14.42,18.55-18.97
	c7.38-4.53,15.79-7.1,24.73-7.1c9.03,0,17.53,2.62,24.96,7.25c7.3,4.54,13.57,11.02,18.31,18.83
	C203.03,500.74,199.98,502.35,197.05,504.19z M195.78,469.08c9.52,6.42,17.51,15.55,23.19,26.48c-3.46,0.63-6.84,1.57-10.11,2.78
	c-5-8.4-11.69-15.35-19.5-20.22c-7.87-4.9-16.87-7.68-26.43-7.68c-9.46,0-18.38,2.72-26.18,7.52c-7.92,4.87-14.7,11.88-19.76,20.38
	c-3.27-1.21-6.65-2.15-10.11-2.78c5.68-10.93,13.68-20.07,23.2-26.49c9.65-6.51,20.87-10.24,32.85-10.24
	C174.9,458.83,186.13,462.56,195.78,469.08z M170.75,456.46c-2.57-0.33-5.18-0.51-7.82-0.51c-2.65,0-5.26,0.18-7.83,0.51
	c-1.52-3.02-3.22-5.92-5.08-8.67c1.33-2.43,3.14-4.46,5.27-5.9c2.24-1.51,4.85-2.38,7.64-2.38c2.78,0,5.39,0.87,7.64,2.39
	c2.13,1.44,3.94,3.46,5.26,5.89C173.97,450.54,172.27,453.44,170.75,456.46z M177.61,445.24c-1.46-2.32-3.33-4.28-5.49-5.73
	c-2.7-1.83-5.84-2.87-9.19-2.87c-3.36,0-6.5,1.04-9.19,2.86c-2.17,1.46-4.04,3.42-5.5,5.74c-2.14-2.92-4.47-5.66-6.95-8.19
	c2.5-3.59,5.64-6.55,9.21-8.63c3.74-2.17,7.96-3.39,12.43-3.39c4.46,0,8.68,1.22,12.42,3.39c3.58,2.08,6.72,5.04,9.21,8.63
	C182.08,439.58,179.75,442.32,177.61,445.24z M186.61,435.04c-2.69-3.77-6.05-6.89-9.87-9.11c-4.16-2.42-8.85-3.78-13.81-3.78
	c-4.97,0-9.66,1.36-13.82,3.78c-3.82,2.22-7.18,5.34-9.87,9.11c-2.55-2.4-5.24-4.59-8.07-6.55c3.64-5.39,8.27-9.83,13.58-12.95
	c5.45-3.2,11.63-5,18.18-5c6.54,0,12.72,1.8,18.18,5.01c5.3,3.11,9.94,7.55,13.58,12.94C191.86,430.45,189.16,432.64,186.61,435.04z
	 M197.05,426.93c-3.88-5.77-8.84-10.52-14.54-13.87c-5.89-3.45-12.54-5.4-19.58-5.4c-7.05,0-13.7,1.95-19.58,5.4
	c-5.7,3.35-10.66,8.1-14.55,13.87c-2.93-1.85-5.98-3.46-9.15-4.8c4.79-7.89,11.15-14.42,18.55-18.98c7.38-4.53,15.79-7.1,24.73-7.1
	c9.03,0,17.53,2.63,24.96,7.26c7.3,4.54,13.57,11.01,18.31,18.82C203.03,423.48,199.98,425.08,197.05,426.93z M195.78,391.81
	c9.52,6.43,17.51,15.56,23.2,26.49c-3.47,0.63-6.85,1.56-10.12,2.78c-5-8.4-11.69-15.36-19.5-20.22c-7.87-4.9-16.87-7.69-26.43-7.69
	c-9.46,0-18.37,2.72-26.18,7.52c-7.92,4.87-14.7,11.89-19.76,20.39c-3.27-1.21-6.65-2.15-10.11-2.78
	c5.68-10.93,13.68-20.07,23.2-26.49c9.64-6.52,20.87-10.25,32.85-10.25C174.9,381.56,186.13,385.3,195.78,391.81z M170.75,379.2
	c-2.57-0.34-5.18-0.51-7.82-0.51c-2.65,0-5.26,0.17-7.83,0.51c-1.52-3.03-3.22-5.93-5.07-8.68c1.32-2.42,3.13-4.45,5.26-5.89
	c2.24-1.52,4.85-2.38,7.64-2.38c2.78,0,5.39,0.87,7.63,2.38c2.14,1.44,3.95,3.47,5.27,5.89
	C173.97,373.27,172.28,376.17,170.75,379.2z M177.61,367.98c-1.46-2.32-3.33-4.28-5.49-5.74c-2.7-1.82-5.84-2.87-9.19-2.87
	c-3.35,0-6.49,1.04-9.19,2.87c-2.17,1.46-4.04,3.42-5.5,5.73c-2.14-2.92-4.47-5.65-6.95-8.19c2.5-3.59,5.64-6.54,9.21-8.62
	c3.74-2.18,7.96-3.4,12.43-3.4c4.46,0,8.68,1.22,12.42,3.39c3.57,2.09,6.72,5.04,9.21,8.63
	C182.08,362.32,179.75,365.06,177.61,367.98z M186.61,357.77c-2.69-3.77-6.05-6.88-9.87-9.11c-4.16-2.42-8.85-3.78-13.81-3.78
	c-4.97,0-9.66,1.36-13.81,3.78c-3.83,2.23-7.19,5.34-9.88,9.11c-2.54-2.4-5.24-4.59-8.07-6.55c3.64-5.38,8.27-9.82,13.58-12.94
	c5.45-3.2,11.63-5.01,18.18-5.01c6.54,0,12.72,1.81,18.18,5.01c5.3,3.12,9.93,7.56,13.58,12.94
	C191.86,353.18,189.16,355.37,186.61,357.77z M197.05,349.66c-3.88-5.76-8.85-10.51-14.54-13.86c-5.88-3.46-12.54-5.4-19.58-5.4
	c-7.05,0-13.7,1.94-19.58,5.4c-5.7,3.34-10.66,8.1-14.55,13.86c-2.92-1.85-5.98-3.45-9.15-4.8c4.79-7.89,11.15-14.42,18.55-18.97
	c7.38-4.53,15.79-7.1,24.73-7.1c9.03,0,17.53,2.62,24.97,7.25c7.29,4.54,13.56,11.01,18.3,18.83
	C203.03,346.21,199.98,347.82,197.05,349.66z M378.06,329.34c-1.47-2.32-3.34-4.27-5.5-5.73c-2.7-1.83-5.84-2.87-9.19-2.87
	s-6.49,1.04-9.19,2.86c-2.17,1.46-4.04,3.42-5.5,5.74c-2.14-2.92-4.47-5.66-6.95-8.19c2.5-3.59,5.64-6.55,9.21-8.63
	c3.74-2.17,7.96-3.39,12.43-3.39c4.46,0,8.68,1.22,12.42,3.39c3.57,2.08,6.71,5.04,9.21,8.63
	C382.52,323.68,380.2,326.42,378.06,329.34z M387.06,319.14c-2.7-3.77-6.06-6.89-9.89-9.11c-4.15-2.42-8.84-3.78-13.8-3.78
	c-4.97,0-9.66,1.36-13.81,3.78c-3.83,2.22-7.19,5.34-9.88,9.1c-2.55-2.39-5.25-4.58-8.08-6.54c3.65-5.39,8.29-9.83,13.59-12.94
	c5.46-3.21,11.63-5.01,18.18-5.01c6.54,0,12.72,1.8,18.18,5.01c5.3,3.11,9.93,7.55,13.57,12.94
	C392.29,314.55,389.6,316.74,387.06,319.14z M397.49,311.03c-3.88-5.76-8.85-10.52-14.54-13.86c-5.89-3.46-12.54-5.41-19.58-5.41
	s-13.69,1.95-19.58,5.4c-5.7,3.35-10.66,8.1-14.55,13.87c-2.93-1.85-5.98-3.46-9.15-4.8c4.79-7.89,11.15-14.42,18.56-18.98
	c7.37-4.53,15.79-7.1,24.72-7.1c9.03,0,17.53,2.63,24.96,7.26c7.3,4.54,13.57,11.01,18.31,18.82
	C403.47,307.58,400.41,309.18,397.49,311.03z M438,301.93c-2.56-0.34-5.17-0.51-7.82-0.51c-2.64,0-5.26,0.17-7.82,0.51
	c-1.53-3.02-3.23-5.92-5.08-8.67c1.32-2.43,3.13-4.45,5.27-5.89c2.24-1.52,4.85-2.39,7.63-2.39c2.79,0,5.4,0.87,7.64,2.39
	c2.13,1.44,3.94,3.46,5.26,5.88C441.23,296,439.53,298.9,438,301.93z M417.76,273.89c3.73-2.17,7.95-3.39,12.42-3.39
	c4.47,0,8.69,1.22,12.42,3.39c3.58,2.08,6.72,5.03,9.22,8.62c-2.49,2.54-4.81,5.28-6.95,8.2c-1.46-2.32-3.34-4.28-5.5-5.73
	c-2.69-1.83-5.84-2.87-9.19-2.87c-3.35,0-6.49,1.04-9.19,2.86c-2.16,1.46-4.04,3.42-5.5,5.74c-2.14-2.92-4.46-5.66-6.95-8.19
	C411.04,278.93,414.18,275.97,417.76,273.89z M363.37,265.66c11.98,0,23.2,3.74,32.85,10.25c9.52,6.43,17.51,15.56,23.19,26.49
	c-3.46,0.63-6.84,1.56-10.11,2.77c-5-8.39-11.69-15.35-19.5-20.21c-7.87-4.91-16.87-7.69-26.43-7.69c-9.46,0-18.37,2.72-26.18,7.52
	c-7.91,4.87-14.69,11.89-19.76,20.39c-3.27-1.22-6.65-2.15-10.11-2.79c5.68-10.93,13.68-20.06,23.19-26.48
	C340.16,269.4,351.39,265.66,363.37,265.66z M278.38,261.01c5.45-3.2,11.63-5,18.17-5c6.55,0,12.73,1.8,18.19,5.01
	c5.3,3.11,9.93,7.55,13.57,12.94c-2.83,1.96-5.52,4.15-8.07,6.54c-2.69-3.77-6.05-6.88-9.88-9.11c-4.15-2.41-8.84-3.77-13.81-3.77
	c-4.96,0-9.65,1.36-13.81,3.78c-3.82,2.22-7.19,5.34-9.88,9.1c-2.54-2.39-5.24-4.58-8.07-6.54
	C268.43,268.57,273.07,264.13,278.38,261.01z M262.43,272.4c-2.93-1.85-5.99-3.46-9.15-4.8c4.79-7.89,11.15-14.42,18.55-18.98
	c7.38-4.53,15.79-7.1,24.72-7.1c9.04,0,17.54,2.63,24.97,7.26c7.29,4.54,13.56,11.01,18.3,18.82c-3.16,1.34-6.22,2.95-9.14,4.8
	c-3.89-5.77-8.85-10.52-14.54-13.87c-5.89-3.45-12.54-5.4-19.59-5.4c-7.04,0-13.69,1.95-19.57,5.4
	C271.28,261.88,266.31,266.63,262.43,272.4z M284.13,273.89c3.73-2.17,7.96-3.39,12.42-3.39c4.47,0,8.69,1.22,12.42,3.39
	c3.58,2.08,6.72,5.03,9.22,8.62c-2.49,2.54-4.81,5.28-6.95,8.2c-1.46-2.32-3.33-4.27-5.49-5.73c-2.7-1.83-5.84-2.87-9.2-2.87
	c-3.35,0-6.49,1.04-9.19,2.86c-2.16,1.46-4.03,3.42-5.5,5.74c-2.14-2.92-4.46-5.66-6.94-8.19
	C277.41,278.92,280.55,275.97,284.13,273.89z M288.92,287.36c2.24-1.51,4.85-2.38,7.63-2.38c2.79,0,5.4,0.87,7.64,2.39
	c2.13,1.44,3.94,3.46,5.26,5.88c-1.85,2.75-3.55,5.65-5.08,8.68c-2.56-0.34-5.17-0.51-7.82-0.51c-2.64,0-5.25,0.17-7.82,0.51
	c-1.53-3.02-3.22-5.92-5.08-8.67C284.98,290.83,286.79,288.8,288.92,287.36z M264.79,196.69c3.64-5.39,8.28-9.83,13.59-12.94
	c5.45-3.2,11.63-5.01,18.17-5.01c6.55,0,12.73,1.81,18.19,5.01c5.3,3.12,9.93,7.56,13.57,12.94c-2.83,1.96-5.52,4.15-8.07,6.55
	c-2.69-3.77-6.05-6.89-9.88-9.11c-4.15-2.42-8.84-3.78-13.81-3.78c-4.96,0-9.65,1.36-13.81,3.78c-3.82,2.22-7.19,5.34-9.88,9.11
	C270.32,200.84,267.62,198.65,264.79,196.69z M274.92,205.25c2.49-3.59,5.63-6.55,9.21-8.63c3.73-2.17,7.96-3.39,12.42-3.39
	c4.47,0,8.69,1.22,12.42,3.39c3.58,2.08,6.72,5.04,9.22,8.63c-2.49,2.53-4.81,5.27-6.95,8.19c-1.46-2.31-3.33-4.27-5.49-5.73
	c-2.7-1.82-5.84-2.87-9.2-2.87c-3.35,0-6.49,1.04-9.19,2.87c-2.16,1.46-4.03,3.42-5.5,5.73
	C279.72,210.52,277.4,207.79,274.92,205.25z M283.65,215.99c1.33-2.42,3.14-4.45,5.27-5.89c2.24-1.52,4.85-2.38,7.63-2.38
	c2.79,0,5.4,0.87,7.64,2.38c2.14,1.44,3.94,3.47,5.27,5.88c-1.86,2.76-3.56,5.66-5.09,8.69c-2.56-0.34-5.17-0.51-7.82-0.51
	c-2.64,0-5.25,0.17-7.82,0.51C287.2,221.64,285.51,218.74,283.65,215.99z M263.7,237.28c9.65-6.52,20.88-10.25,32.85-10.25
	c11.98,0,23.21,3.74,32.86,10.25c9.52,6.42,17.51,15.55,23.19,26.48c-3.46,0.64-6.84,1.57-10.11,2.78
	c-5-8.39-11.69-15.35-19.5-20.21c-7.87-4.9-16.87-7.69-26.44-7.69c-9.46,0-18.37,2.72-26.17,7.52c-7.92,4.87-14.7,11.89-19.76,20.38
	c-3.27-1.21-6.65-2.14-10.12-2.78C246.19,252.83,254.18,243.7,263.7,237.28z M141.29,282.51c2.5-3.59,5.64-6.54,9.21-8.62
	c3.74-2.17,7.96-3.39,12.43-3.39c4.46,0,8.68,1.22,12.42,3.39c3.57,2.08,6.71,5.04,9.21,8.63c-2.48,2.53-4.8,5.27-6.95,8.19
	c-1.46-2.32-3.33-4.27-5.49-5.73c-2.7-1.83-5.84-2.87-9.19-2.87c-3.35,0-6.49,1.04-9.19,2.86c-2.17,1.46-4.04,3.42-5.5,5.74
	C146.1,287.79,143.77,285.05,141.29,282.51z M162.93,301.42c-2.65,0-5.26,0.17-7.83,0.51c-1.52-3.02-3.22-5.92-5.07-8.67
	c1.32-2.43,3.13-4.46,5.26-5.9c2.24-1.51,4.85-2.38,7.64-2.38c2.78,0,5.39,0.87,7.63,2.39c2.13,1.44,3.94,3.46,5.27,5.89
	c-1.86,2.75-3.56,5.65-5.08,8.67C168.18,301.59,165.57,301.42,162.93,301.42z M173.69,302.39c5.69-10.93,13.68-20.06,23.2-26.48
	c9.65-6.51,20.87-10.25,32.85-10.25s23.2,3.74,32.85,10.25c9.52,6.43,17.51,15.56,23.2,26.49c-3.47,0.63-6.84,1.56-10.11,2.77
	c-5-8.39-11.69-15.35-19.51-20.22c-7.87-4.9-16.87-7.68-26.43-7.68c-9.46,0-18.37,2.72-26.18,7.52
	c-7.91,4.87-14.69,11.89-19.75,20.39C180.53,303.96,177.16,303.03,173.69,302.39z M195.62,311.03c-2.93-1.85-5.99-3.45-9.16-4.8
	c4.79-7.89,11.15-14.42,18.56-18.98c7.37-4.53,15.79-7.1,24.72-7.1c9.03,0,17.53,2.63,24.97,7.25c7.29,4.55,13.56,11.02,18.3,18.83
	c-3.16,1.35-6.22,2.95-9.15,4.8c-3.88-5.76-8.84-10.52-14.54-13.86c-5.88-3.46-12.54-5.41-19.58-5.41c-7.04,0-13.69,1.95-19.58,5.4
	C204.46,300.51,199.5,305.26,195.62,311.03z M197.98,312.59c3.64-5.39,8.28-9.83,13.58-12.94c5.46-3.21,11.63-5.01,18.18-5.01
	s12.72,1.8,18.18,5.01c5.3,3.11,9.94,7.55,13.58,12.94c-2.83,1.96-5.53,4.15-8.07,6.55c-2.69-3.77-6.06-6.89-9.88-9.11
	c-4.16-2.42-8.85-3.78-13.81-3.78c-4.96,0-9.66,1.36-13.81,3.78c-3.83,2.22-7.19,5.34-9.88,9.11
	C203.51,316.74,200.81,314.55,197.98,312.59z M208.1,321.15c2.5-3.59,5.64-6.55,9.22-8.63c3.73-2.17,7.95-3.39,12.42-3.39
	c4.47,0,8.69,1.22,12.42,3.39c3.58,2.08,6.72,5.04,9.22,8.63c-2.49,2.53-4.81,5.27-6.95,8.2c-1.47-2.32-3.34-4.28-5.5-5.74
	c-2.69-1.83-5.84-2.87-9.19-2.87c-3.35,0-6.49,1.04-9.19,2.86c-2.16,1.46-4.04,3.42-5.5,5.74
	C212.91,326.42,210.59,323.68,208.1,321.15z M229.74,340.05c-2.64,0-5.26,0.18-7.82,0.52c-1.53-3.03-3.23-5.93-5.08-8.68
	c1.32-2.43,3.13-4.45,5.27-5.89c2.24-1.52,4.85-2.39,7.63-2.39c2.79,0,5.4,0.87,7.64,2.39c2.13,1.44,3.94,3.47,5.26,5.89
	c-1.85,2.75-3.55,5.65-5.08,8.67C234.99,340.23,232.39,340.05,229.74,340.05z M311.24,367.97c-1.46-2.31-3.33-4.27-5.49-5.73
	c-2.7-1.82-5.84-2.87-9.2-2.87c-3.35,0-6.49,1.04-9.19,2.87c-2.16,1.46-4.03,3.42-5.5,5.73c-2.14-2.92-4.46-5.65-6.94-8.19
	c2.49-3.59,5.63-6.54,9.21-8.62c3.74-2.18,7.96-3.4,12.42-3.4c4.47,0,8.69,1.22,12.42,3.39c3.58,2.08,6.72,5.04,9.22,8.63
	C315.71,362.31,313.38,365.05,311.24,367.97z M320.24,357.77c-2.69-3.77-6.05-6.89-9.88-9.11c-4.15-2.42-8.84-3.78-13.81-3.78
	c-4.96,0-9.65,1.36-13.81,3.78c-3.82,2.23-7.18,5.34-9.88,9.11c-2.54-2.4-5.24-4.59-8.07-6.55c3.65-5.39,8.28-9.82,13.58-12.94
	c5.46-3.2,11.64-5.01,18.18-5.01c6.55,0,12.73,1.81,18.19,5.01c5.3,3.12,9.93,7.56,13.57,12.94
	C325.48,353.18,322.79,355.37,320.24,357.77z M330.68,349.66c-3.89-5.76-8.85-10.51-14.54-13.86c-5.89-3.46-12.54-5.4-19.59-5.4
	c-7.04,0-13.69,1.94-19.58,5.4c-5.69,3.34-10.66,8.1-14.54,13.86c-2.93-1.85-5.99-3.45-9.15-4.8c4.79-7.89,11.15-14.42,18.55-18.97
	c7.38-4.53,15.79-7.1,24.72-7.1c9.04,0,17.54,2.62,24.97,7.25c7.29,4.54,13.56,11.01,18.3,18.83
	C336.66,346.21,333.6,347.82,330.68,349.66z M342.49,343.81c-5-8.4-11.69-15.36-19.5-20.22c-7.87-4.9-16.87-7.68-26.44-7.68
	c-9.46,0-18.37,2.72-26.17,7.52c-7.92,4.87-14.7,11.88-19.76,20.38c-3.27-1.21-6.65-2.15-10.12-2.78
	c5.69-10.93,13.68-20.06,23.2-26.49c9.65-6.51,20.88-10.24,32.85-10.24c11.98,0,23.21,3.73,32.86,10.25
	c9.52,6.42,17.51,15.55,23.19,26.48C349.14,341.66,345.76,342.6,342.49,343.81z M363.37,340.05c-2.65,0-5.26,0.18-7.82,0.51
	c-1.53-3.02-3.23-5.92-5.08-8.67c1.32-2.43,3.13-4.45,5.26-5.89c2.24-1.52,4.85-2.39,7.64-2.39c2.78,0,5.39,0.87,7.63,2.39
	c2.13,1.44,3.94,3.46,5.27,5.89c-1.85,2.75-3.55,5.65-5.08,8.68C368.62,340.23,366.01,340.05,363.37,340.05z M511.68,483.88
	c-1.46-2.32-3.33-4.28-5.5-5.74c-2.69-1.83-5.83-2.88-9.19-2.88c-3.35,0-6.48,1.05-9.18,2.87c-2.16,1.46-4.04,3.42-5.51,5.74
	c-2.14-2.92-4.46-5.66-6.94-8.19c2.5-3.59,5.64-6.55,9.21-8.63c3.74-2.17,7.96-3.39,12.42-3.39c4.47,0,8.69,1.22,12.42,3.39
	c3.58,2.08,6.72,5.04,9.22,8.63C516.15,478.22,513.82,480.96,511.68,483.88z M520.68,473.67c-2.69-3.77-6.05-6.89-9.88-9.11
	c-4.15-2.42-8.84-3.78-13.81-3.78c-4.96,0-9.65,1.36-13.81,3.78c-3.82,2.22-7.18,5.34-9.87,9.11c-2.55-2.4-5.25-4.59-8.08-6.55
	c3.65-5.39,8.28-9.83,13.59-12.94c5.45-3.21,11.63-5.01,18.17-5.01c6.55,0,12.73,1.81,18.19,5.01c5.3,3.11,9.93,7.55,13.58,12.95
	C525.93,469.09,523.23,471.28,520.68,473.67z M531.12,465.56c-3.88-5.76-8.85-10.52-14.54-13.86c-5.89-3.46-12.54-5.41-19.59-5.41
	c-7.04,0-13.69,1.95-19.57,5.4c-5.7,3.35-10.67,8.1-14.55,13.87c-2.93-1.85-5.99-3.46-9.15-4.8c4.79-7.89,11.15-14.42,18.55-18.97
	c7.38-4.54,15.79-7.1,24.72-7.1c9.04,0,17.54,2.62,24.97,7.25c7.3,4.54,13.57,11.01,18.31,18.83
	C537.1,462.11,534.05,463.72,531.12,465.56z M529.85,430.45c9.52,6.42,17.51,15.55,23.2,26.48c-3.47,0.64-6.84,1.57-10.11,2.78
	c-5.01-8.4-11.7-15.36-19.51-20.22c-7.87-4.9-16.87-7.68-26.44-7.68c-9.46,0-18.37,2.72-26.17,7.52
	c-7.92,4.86-14.7,11.88-19.76,20.38c-3.27-1.22-6.65-2.15-10.11-2.78c5.68-10.93,13.67-20.07,23.19-26.49
	c9.65-6.51,20.88-10.24,32.85-10.24C508.97,420.2,520.2,423.93,529.85,430.45z M489.36,403.26c2.24-1.51,4.85-2.38,7.63-2.38
	c2.79,0,5.4,0.87,7.64,2.39c2.14,1.44,3.95,3.46,5.27,5.89c-1.86,2.75-3.56,5.65-5.08,8.67c-2.57-0.33-5.18-0.51-7.83-0.51
	c-2.64,0-5.25,0.18-7.81,0.51c-1.53-3.02-3.23-5.92-5.09-8.68C485.42,406.73,487.23,404.7,489.36,403.26z M396.06,349.66
	c-2.93-1.85-5.99-3.45-9.16-4.8c4.79-7.89,11.15-14.42,18.56-18.97c7.37-4.53,15.79-7.1,24.72-7.1c9.04,0,17.54,2.62,24.97,7.25
	c7.29,4.54,13.56,11.01,18.3,18.82c-3.16,1.35-6.22,2.96-9.15,4.8c-3.88-5.76-8.84-10.51-14.54-13.86
	c-5.88-3.46-12.54-5.4-19.58-5.4s-13.69,1.94-19.58,5.4C404.91,339.14,399.94,343.9,396.06,349.66z M398.42,351.22
	c3.64-5.39,8.28-9.83,13.58-12.94c5.46-3.2,11.63-5.01,18.18-5.01s12.73,1.81,18.18,5.01c5.31,3.12,9.94,7.56,13.58,12.95
	c-2.83,1.95-5.53,4.14-8.07,6.54c-2.69-3.77-6.06-6.89-9.88-9.11c-4.16-2.42-8.85-3.78-13.81-3.78s-9.65,1.36-13.81,3.78
	c-3.82,2.23-7.19,5.34-9.88,9.11C403.95,355.37,401.25,353.18,398.42,351.22z M408.55,359.78c2.49-3.59,5.63-6.54,9.21-8.62
	c3.73-2.18,7.95-3.4,12.42-3.4c4.47,0,8.69,1.22,12.42,3.39c3.58,2.08,6.72,5.04,9.22,8.63c-2.49,2.53-4.81,5.27-6.95,8.19
	c-1.46-2.31-3.33-4.27-5.5-5.73c-2.69-1.83-5.84-2.87-9.19-2.87c-3.35,0-6.49,1.04-9.19,2.87c-2.16,1.46-4.04,3.42-5.5,5.74
	C413.35,365.05,411.03,362.32,408.55,359.78z M417.28,370.52c1.32-2.42,3.13-4.45,5.27-5.89c2.24-1.52,4.85-2.38,7.63-2.38
	c2.79,0,5.4,0.87,7.64,2.38c2.13,1.44,3.94,3.47,5.26,5.89c-1.85,2.75-3.55,5.65-5.08,8.68c-2.56-0.34-5.17-0.51-7.82-0.51
	c-2.64,0-5.26,0.17-7.82,0.51C420.83,376.17,419.13,373.27,417.28,370.52z M374.13,418.3c5.69-10.93,13.68-20.07,23.2-26.49
	c9.65-6.52,20.87-10.25,32.85-10.25s23.21,3.74,32.86,10.25c9.51,6.43,17.51,15.56,23.19,26.49c-3.46,0.63-6.84,1.56-10.11,2.77
	c-5-8.39-11.69-15.35-19.51-20.22c-7.86-4.89-16.87-7.68-26.43-7.68c-9.46,0-18.37,2.72-26.18,7.52
	c-7.91,4.87-14.7,11.89-19.76,20.39C380.97,419.87,377.6,418.93,374.13,418.3z M396.05,426.93c-2.92-1.85-5.98-3.46-9.15-4.8
	c4.79-7.89,11.15-14.42,18.56-18.98c7.37-4.53,15.79-7.1,24.72-7.1c9.03,0,17.54,2.63,24.97,7.25c7.29,4.55,13.57,11.02,18.3,18.83
	c-3.16,1.35-6.22,2.95-9.15,4.8c-3.88-5.77-8.84-10.52-14.54-13.87c-5.88-3.45-12.54-5.4-19.58-5.4s-13.69,1.95-19.58,5.4
	C404.91,416.41,399.94,421.16,396.05,426.93z M398.42,428.49c3.64-5.39,8.28-9.83,13.58-12.95c5.46-3.2,11.63-5,18.18-5
	s12.73,1.8,18.18,5.01c5.31,3.11,9.94,7.55,13.58,12.94c-2.83,1.96-5.53,4.15-8.07,6.54c-2.69-3.76-6.05-6.88-9.88-9.1
	c-4.15-2.42-8.84-3.78-13.81-3.78c-4.96,0-9.66,1.36-13.81,3.78c-3.83,2.22-7.19,5.34-9.88,9.11
	C403.95,432.64,401.25,430.45,398.42,428.49z M408.55,437.05c2.49-3.59,5.63-6.55,9.21-8.63c3.73-2.17,7.95-3.39,12.42-3.39
	c4.47,0,8.69,1.22,12.42,3.39c3.58,2.08,6.72,5.04,9.22,8.63c-2.49,2.53-4.81,5.27-6.95,8.19c-1.46-2.32-3.33-4.28-5.49-5.74
	c-2.7-1.82-5.84-2.86-9.2-2.86c-3.35,0-6.49,1.04-9.19,2.86c-2.16,1.46-4.04,3.42-5.5,5.74
	C413.35,442.32,411.03,439.58,408.55,437.05z M417.28,447.79c1.32-2.43,3.13-4.46,5.27-5.89c2.24-1.52,4.85-2.39,7.63-2.39
	c2.79,0,5.4,0.87,7.64,2.39c2.13,1.44,3.94,3.46,5.26,5.88c-1.85,2.76-3.55,5.66-5.08,8.68c-2.56-0.33-5.17-0.51-7.82-0.51
	c-2.64,0-5.26,0.18-7.82,0.51C420.83,453.44,419.13,450.54,417.28,447.79z M341.73,552.94c2.5-3.59,5.64-6.54,9.21-8.62
	c3.74-2.17,7.96-3.4,12.43-3.4c4.46,0,8.68,1.23,12.42,3.4c3.57,2.08,6.72,5.03,9.21,8.63c-2.48,2.53-4.8,5.27-6.94,8.19
	c-1.47-2.32-3.34-4.28-5.5-5.74c-2.7-1.82-5.84-2.87-9.19-2.87s-6.49,1.05-9.19,2.87c-2.16,1.46-4.04,3.42-5.5,5.74
	C346.54,558.21,344.21,555.48,341.73,552.94z M363.37,571.85c-2.65,0-5.26,0.18-7.82,0.51c-1.53-3.02-3.23-5.92-5.08-8.68
	c1.32-2.42,3.13-4.45,5.26-5.89c2.25-1.51,4.86-2.38,7.64-2.38c2.78,0,5.39,0.87,7.63,2.38c2.13,1.44,3.94,3.47,5.27,5.89
	c-1.86,2.76-3.55,5.66-5.08,8.68C368.62,572.03,366.01,571.85,363.37,571.85z M438,610.99c-2.57-0.34-5.17-0.51-7.82-0.51
	c-2.64,0-5.26,0.17-7.82,0.51c-1.53-3.02-3.23-5.92-5.08-8.67c1.32-2.43,3.13-4.45,5.26-5.89c2.25-1.52,4.86-2.38,7.64-2.38
	c2.79,0,5.4,0.86,7.64,2.38c2.13,1.44,3.94,3.46,5.26,5.88C441.23,605.07,439.53,607.96,438,610.99z M444.87,599.77
	c-1.46-2.32-3.34-4.27-5.5-5.73c-2.69-1.83-5.84-2.87-9.19-2.87c-3.35,0-6.49,1.04-9.19,2.86c-2.16,1.46-4.04,3.42-5.5,5.74
	c-2.14-2.92-4.46-5.66-6.94-8.19c2.49-3.59,5.63-6.55,9.21-8.63c3.73-2.17,7.95-3.4,12.42-3.4c4.47,0,8.69,1.23,12.42,3.4
	c3.58,2.08,6.72,5.03,9.22,8.62C449.33,594.11,447.01,596.85,444.87,599.77z M453.87,589.56c-2.69-3.77-6.05-6.88-9.88-9.11
	c-4.15-2.41-8.84-3.77-13.81-3.77c-4.96,0-9.66,1.36-13.81,3.78c-3.82,2.22-7.19,5.34-9.88,9.11c-2.54-2.4-5.24-4.59-8.07-6.55
	c3.64-5.39,8.28-9.83,13.58-12.94c5.46-3.21,11.63-5.01,18.18-5.01s12.73,1.81,18.18,5.01c5.3,3.11,9.94,7.55,13.58,12.94
	C459.11,584.98,456.41,587.17,453.87,589.56z M464.3,581.46c-3.88-5.76-8.84-10.52-14.54-13.86c-5.88-3.46-12.54-5.41-19.58-5.41
	s-13.69,1.95-19.58,5.4c-5.69,3.35-10.66,8.1-14.55,13.87c-2.92-1.85-5.98-3.45-9.15-4.8c4.79-7.89,11.15-14.42,18.56-18.98
	c7.37-4.53,15.79-7.1,24.72-7.1c9.03,0,17.54,2.63,24.97,7.25c7.29,4.55,13.57,11.02,18.31,18.83
	C470.29,578,467.23,579.61,464.3,581.46z M463.04,546.34c9.52,6.43,17.51,15.56,23.19,26.49c-3.46,0.63-6.84,1.56-10.11,2.77
	c-5-8.39-11.69-15.35-19.51-20.22c-7.86-4.9-16.87-7.68-26.43-7.68c-9.46,0-18.37,2.72-26.18,7.52
	c-7.92,4.87-14.7,11.89-19.76,20.39c-3.27-1.22-6.64-2.15-10.11-2.78c5.68-10.93,13.68-20.07,23.2-26.49
	c9.65-6.51,20.87-10.24,32.85-10.24S453.39,539.83,463.04,546.34z M438,533.73c-2.57-0.34-5.17-0.51-7.82-0.51
	c-2.64,0-5.25,0.17-7.82,0.51c-1.53-3.02-3.23-5.92-5.08-8.68c1.32-2.42,3.13-4.45,5.27-5.89c2.24-1.52,4.85-2.38,7.63-2.38
	c2.79,0,5.4,0.87,7.64,2.38c2.13,1.44,3.94,3.47,5.26,5.89C441.23,527.8,439.53,530.7,438,533.73z M444.87,522.5
	c-1.46-2.31-3.34-4.27-5.5-5.73c-2.69-1.82-5.84-2.87-9.19-2.87c-3.35,0-6.49,1.04-9.19,2.87c-2.16,1.46-4.03,3.42-5.5,5.74
	c-2.14-2.92-4.46-5.66-6.95-8.2c2.5-3.59,5.64-6.55,9.22-8.63c3.74-2.17,7.95-3.39,12.42-3.39c4.47,0,8.69,1.22,12.42,3.39
	c3.58,2.08,6.72,5.04,9.22,8.63C449.33,516.85,447.01,519.58,444.87,522.5z M453.87,512.3c-2.69-3.77-6.06-6.89-9.88-9.11
	c-4.16-2.42-8.85-3.78-13.81-3.78s-9.65,1.36-13.81,3.78c-3.82,2.22-7.19,5.34-9.88,9.11c-2.54-2.4-5.24-4.59-8.07-6.55
	c3.64-5.39,8.28-9.83,13.58-12.94c5.46-3.2,11.63-5.01,18.18-5.01s12.73,1.81,18.18,5.01c5.31,3.12,9.94,7.56,13.58,12.94
	C459.11,507.71,456.41,509.9,453.87,512.3z M464.3,504.19c-3.88-5.76-8.84-10.51-14.54-13.86c-5.88-3.46-12.54-5.4-19.58-5.4
	s-13.69,1.94-19.58,5.4c-5.7,3.34-10.66,8.1-14.54,13.86c-2.93-1.85-5.99-3.45-9.16-4.8c4.79-7.89,11.15-14.42,18.56-18.97
	c7.37-4.53,15.79-7.1,24.72-7.1c9.03,0,17.54,2.62,24.97,7.25c7.29,4.54,13.56,11.01,18.3,18.83
	C470.29,500.74,467.23,502.35,464.3,504.19z M476.12,498.34c-5-8.4-11.69-15.35-19.51-20.22c-7.86-4.9-16.87-7.68-26.43-7.68
	c-9.46,0-18.37,2.72-26.18,7.52c-7.91,4.87-14.69,11.88-19.75,20.38c-3.28-1.21-6.65-2.15-10.12-2.78
	c5.69-10.93,13.68-20.06,23.2-26.49c9.65-6.51,20.87-10.24,32.85-10.24s23.21,3.73,32.86,10.25c9.51,6.42,17.51,15.55,23.19,26.48
	C482.77,496.19,479.39,497.13,476.12,498.34z M496.99,494.58c-2.64,0-5.25,0.18-7.82,0.52c-1.53-3.03-3.22-5.93-5.08-8.68
	c1.33-2.43,3.14-4.46,5.27-5.9c2.25-1.51,4.85-2.38,7.63-2.38c2.79,0,5.4,0.87,7.64,2.39c2.13,1.44,3.94,3.47,5.26,5.89
	c-1.85,2.75-3.55,5.65-5.07,8.68C502.25,494.76,499.64,494.58,496.99,494.58z"/>
<path d="M573.28,411.442l-68.672-12.774c-1.676-0.313-3.5-1.884-4.064-3.496l-21.05-49.12c-0.785-1.516-0.635-3.898,0.334-5.311
	l40.011-58.328c0.957-1.404,0.768-3.539-0.438-4.747l-49.974-49.985c-1.207-1.207-3.338-1.404-4.741-0.438l-59.34,40.73
	c-1.403,0.964-3.81,1.136-5.335,0.383l-47.609-19.492c-1.616-0.535-3.191-2.344-3.509-4.02l-13.217-71.044
	c-0.309-1.675-1.96-3.045-3.664-3.045h-70.681c-1.701,0-3.35,1.37-3.664,3.045l-13.212,71.044c-0.317,1.676-1.889,3.485-3.513,4.02
	l-47.61,19.492c-1.525,0.752-3.931,0.581-5.331-0.383l-59.34-40.73c-1.403-0.965-3.542-0.768-4.741,0.438l-49.978,49.985
	c-1.2,1.208-1.404,3.342-0.439,4.747l40.016,58.328c0.96,1.413,1.115,3.795,0.334,5.311l-21.054,49.12
	c-0.56,1.612-2.385,3.184-4.069,3.496l-68.667,12.774c-1.676,0.318-3.046,1.964-3.046,3.668l0.004,70.693
	c0,1.704,1.37,3.364,3.046,3.668l66.989,12.468c1.671,0.309,3.467,1.901,3.976,3.522l20.912,52.25
	c0.747,1.532,0.572,3.931-0.401,5.336l-38.048,55.462c-0.96,1.405-0.764,3.539,0.439,4.752l49.986,49.981
	c1.2,1.203,3.338,1.395,4.741,0.443l54.469-37.391c1.4-0.965,3.751-1.036,5.222-0.18l24.019,12.827
	c1.517,0.777,3.297,0.122,3.944-1.453l49.527-119.7c0.66-1.575,0-3.585-1.449-4.475l-6.012-3.681
	c-1.111-0.677-2.619-1.848-3.801-2.912c-21.685-13.893-36.076-38.19-36.076-65.858c0-43.178,35.002-78.18,78.167-78.18
	c43.164,0,78.159,35.001,78.159,78.18c0,27.669-14.383,51.965-36.072,65.858c-1.173,1.065-2.682,2.235-3.793,2.912l-6.011,3.681
	c-1.446,0.89-2.105,2.9-1.454,4.475l49.526,119.7c0.652,1.575,2.423,2.23,3.948,1.453l24.02-12.827
	c1.466-0.856,3.817-0.785,5.221,0.18l54.469,37.391c1.403,0.952,3.543,0.76,4.741-0.443l49.983-49.981
	c1.208-1.213,1.399-3.347,0.438-4.752l-38.051-55.462c-0.965-1.405-1.145-3.803-0.393-5.336l20.912-52.25
	c0.514-1.621,2.294-3.213,3.973-3.522l66.984-12.468c1.671-0.304,3.045-1.964,3.045-3.668l0.008-70.693
	C576.325,413.406,574.95,411.76,573.28,411.442z M561.274,478.073l-57.74,10.747c-4.373,0.865-7.214,2.695-9.666,4.809
	c-2.218,2.035-4.194,4.4-5.585,8.081l-20.763,51.873c-1.327,3.076-1.603,5.666-1.628,8.04c0.083,3.744,0.701,7.341,3.509,11.62
	l32.726,47.699l-36.686,36.689l-46.72-32.072c-4.09-2.708-7.749-3.36-11.3-3.418c-2.995,0.033-6.07,0.531-9.507,2.374h-0.004
	l-12.131,6.48l-40.705-98.385c0.978-0.711,1.88-1.433,2.791-2.21c25.26-16.609,41.999-45.322,41.999-77.867
	c-0.008-51.498-41.723-93.218-93.197-93.226c-51.473,0.008-93.185,41.729-93.205,93.226c0.008,32.545,16.742,61.258,42.007,77.867
	c0.902,0.769,1.8,1.491,2.79,2.205l-40.7,98.39l-12.127-6.48c-3.488-1.868-6.612-2.341-9.524-2.374
	c-3.597,0.058-7.227,0.719-11.312,3.435l-46.691,32.056l-36.694-36.689l32.729-47.717c2.782-4.27,3.413-7.847,3.5-11.602
	c-0.033-2.432-0.342-5.031-1.621-8.023l-20.799-51.986c-1.403-3.665-3.378-5.987-5.572-8.002c-2.46-2.106-5.276-3.928-9.696-4.8
	l-57.694-10.739l-0.003-51.89l59.422-11.06c4.308-0.865,7.068-2.608,9.512-4.646c2.173-1.934,4.153-4.165,5.623-7.713l0.008,0.004
	l20.924-48.845c1.413-3.088,1.809-5.832,1.834-8.507c-0.076-3.656-0.681-7.233-3.421-11.461L91.22,283.327l36.686-36.694
	l51.582,35.411c4.307,2.808,7.845,3.397,11.588,3.481c2.452-0.021,5.037-0.331,8.05-1.621l47.43-19.421
	c3.672-1.446,5.986-3.451,7.967-5.649c2.063-2.448,3.818-5.214,4.703-9.51l11.504-61.855h51.875l11.497,61.792
	c0.902,4.379,2.661,7.133,4.72,9.572c1.996,2.215,4.311,4.225,8.017,5.67l47.438,19.425c2.974,1.266,5.511,1.576,7.975,1.609
	c3.705-0.096,7.285-0.676,11.588-3.485l51.599-35.423l36.682,36.697l-34.694,50.57c-2.79,4.165-3.4,7.838-3.484,11.519
	c0.025,2.612,0.41,5.277,1.725,8.232l21.046,49.12h0.005c1.478,3.547,3.454,5.775,5.635,7.709c2.435,2.03,5.171,3.769,9.491,4.646
	l59.435,11.055L561.274,478.073z"/>
</svg>
