<?xml version="1.0" encoding="UTF-8" standalone="no"?>
<!DOCTYPE svg PUBLIC "-//W3C//DTD SVG 1.1//EN"
 "http://www.w3.org/Graphics/SVG/1.1/DTD/svg11.dtd">
<!-- Generated by graphviz version 2.38.0 (20140413.2041)
 -->
<!-- Title: %3 Pages: 1 -->
<svg width="441pt" height="332pt"
 viewBox="0.00 0.00 440.89 332.00" xmlns="http://www.w3.org/2000/svg" xmlns:xlink="http://www.w3.org/1999/xlink">
<g id="graph0" class="graph" transform="scale(1 1) rotate(0) translate(4 328)">
<title>%3</title>
<polygon fill="white" stroke="none" points="-4,4 -4,-328 436.894,-328 436.894,4 -4,4"/>
<!-- Pulse&#45;P -->
<g id="node1" class="node"><title>Pulse&#45;P</title>
<ellipse fill="none" stroke="black" cx="37.6967" cy="-234" rx="37.8943" ry="18"/>
<text text-anchor="middle" x="37.6967" y="-230.3" font-family="Times,serif" font-size="14.00">Pulse&#45;P</text>
</g>
<!-- TC6320TG -->
<g id="node2" class="node"><title>TC6320TG</title>
<ellipse fill="none" stroke="black" cx="229.697" cy="-162" rx="51.1914" ry="18"/>
<text text-anchor="middle" x="229.697" y="-158.3" font-family="Times,serif" font-size="14.00">TC6320TG</text>
</g>
<!-- Pulse&#45;P&#45;&gt;TC6320TG -->
<g id="edge1" class="edge"><title>Pulse&#45;P&#45;&gt;TC6320TG</title>
<path fill="none" stroke="black" d="M66.8573,-222.369C98.5399,-210.818 149.504,-192.237 185.979,-178.939"/>
<polygon fill="black" stroke="black" points="187.19,-182.223 195.386,-175.509 184.793,-175.646 187.19,-182.223"/>
</g>
<!-- ITF&#45;mET_Transducer -->
<g id="node8" class="node"><title>ITF&#45;mET_Transducer</title>
<ellipse fill="none" stroke="black" cx="229.697" cy="-90" rx="89.0842" ry="18"/>
<text text-anchor="middle" x="229.697" y="-86.3" font-family="Times,serif" font-size="14.00">ITF&#45;mET_Transducer</text>
</g>
<!-- TC6320TG&#45;&gt;ITF&#45;mET_Transducer -->
<g id="edge8" class="edge"><title>TC6320TG&#45;&gt;ITF&#45;mET_Transducer</title>
<path fill="none" stroke="black" d="M229.697,-143.697C229.697,-135.983 229.697,-126.712 229.697,-118.112"/>
<polygon fill="black" stroke="black" points="233.197,-118.104 229.697,-108.104 226.197,-118.104 233.197,-118.104"/>
</g>
<!-- Pulse&#45;N -->
<g id="node3" class="node"><title>Pulse&#45;N</title>
<ellipse fill="none" stroke="black" cx="132.697" cy="-234" rx="38.9931" ry="18"/>
<text text-anchor="middle" x="132.697" y="-230.3" font-family="Times,serif" font-size="14.00">Pulse&#45;N</text>
</g>
<!-- Pulse&#45;N&#45;&gt;TC6320TG -->
<g id="edge2" class="edge"><title>Pulse&#45;N&#45;&gt;TC6320TG</title>
<path fill="none" stroke="black" d="M152.795,-218.496C166.467,-208.63 184.788,-195.408 200.118,-184.346"/>
<polygon fill="black" stroke="black" points="202.217,-187.147 208.278,-178.457 198.121,-181.47 202.217,-187.147"/>
</g>
<!-- Damper -->
<g id="node4" class="node"><title>Damper</title>
<ellipse fill="none" stroke="black" cx="229.697" cy="-234" rx="39.7935" ry="18"/>
<text text-anchor="middle" x="229.697" y="-230.3" font-family="Times,serif" font-size="14.00">Damper</text>
</g>
<!-- Damper&#45;&gt;TC6320TG -->
<g id="edge3" class="edge"><title>Damper&#45;&gt;TC6320TG</title>
<path fill="none" stroke="black" d="M229.697,-215.697C229.697,-207.983 229.697,-198.712 229.697,-190.112"/>
<polygon fill="black" stroke="black" points="233.197,-190.104 229.697,-180.104 226.197,-190.104 233.197,-190.104"/>
</g>
<!-- NMT0572SC -->
<g id="node5" class="node"><title>NMT0572SC</title>
<ellipse fill="none" stroke="black" cx="360.697" cy="-306" rx="59.2899" ry="18"/>
<text text-anchor="middle" x="360.697" y="-302.3" font-family="Times,serif" font-size="14.00">NMT0572SC</text>
</g>
<!-- HV&#45;N -->
<g id="node6" class="node"><title>HV&#45;N</title>
<ellipse fill="none" stroke="black" cx="319.697" cy="-234" rx="32.4942" ry="18"/>
<text text-anchor="middle" x="319.697" y="-230.3" font-family="Times,serif" font-size="14.00">HV&#45;N</text>
</g>
<!-- NMT0572SC&#45;&gt;HV&#45;N -->
<g id="edge4" class="edge"><title>NMT0572SC&#45;&gt;HV&#45;N</title>
<path fill="none" stroke="black" d="M350.772,-288.055C345.866,-279.679 339.848,-269.404 334.418,-260.134"/>
<polygon fill="black" stroke="black" points="337.322,-258.167 329.248,-251.307 331.282,-261.705 337.322,-258.167"/>
</g>
<!-- HV&#45;P -->
<g id="node7" class="node"><title>HV&#45;P</title>
<ellipse fill="none" stroke="black" cx="401.697" cy="-234" rx="31.3957" ry="18"/>
<text text-anchor="middle" x="401.697" y="-230.3" font-family="Times,serif" font-size="14.00">HV&#45;P</text>
</g>
<!-- NMT0572SC&#45;&gt;HV&#45;P -->
<g id="edge6" class="edge"><title>NMT0572SC&#45;&gt;HV&#45;P</title>
<path fill="none" stroke="black" d="M370.622,-288.055C375.527,-279.679 381.546,-269.404 386.975,-260.134"/>
<polygon fill="black" stroke="black" points="390.111,-261.705 392.145,-251.307 384.071,-258.167 390.111,-261.705"/>
</g>
<!-- HV&#45;N&#45;&gt;TC6320TG -->
<g id="edge5" class="edge"><title>HV&#45;N&#45;&gt;TC6320TG</title>
<path fill="none" stroke="black" d="M301.484,-218.834C288.946,-209.083 272.047,-195.939 257.794,-184.854"/>
<polygon fill="black" stroke="black" points="259.804,-181.983 249.761,-178.606 255.506,-187.508 259.804,-181.983"/>
</g>
<!-- HV&#45;P&#45;&gt;TC6320TG -->
<g id="edge7" class="edge"><title>HV&#45;P&#45;&gt;TC6320TG</title>
<path fill="none" stroke="black" d="M376.995,-222.717C371.625,-220.494 365.973,-218.161 360.697,-216 330.902,-203.796 297.229,-190.177 271.484,-179.8"/>
<polygon fill="black" stroke="black" points="272.613,-176.481 262.029,-175.991 269.997,-182.974 272.613,-176.481"/>
</g>
<!-- ITF&#45;mET_SMA -->
<g id="node9" class="node"><title>ITF&#45;mET_SMA</title>
<ellipse fill="none" stroke="black" cx="158.697" cy="-18" rx="68.7879" ry="18"/>
<text text-anchor="middle" x="158.697" y="-14.3" font-family="Times,serif" font-size="14.00">ITF&#45;mET_SMA</text>
</g>
<!-- ITF&#45;mET_Transducer&#45;&gt;ITF&#45;mET_SMA -->
<g id="edge9" class="edge"><title>ITF&#45;mET_Transducer&#45;&gt;ITF&#45;mET_SMA</title>
<path fill="none" stroke="black" d="M212.51,-72.055C203.614,-63.2847 192.606,-52.4318 182.868,-42.8312"/>
<polygon fill="black" stroke="black" points="185.304,-40.3174 175.725,-35.789 180.389,-45.3021 185.304,-40.3174"/>
</g>
<!-- ITF&#45;18_Raw -->
<g id="node10" class="node"><title>ITF&#45;18_Raw</title>
<ellipse fill="none" stroke="black" cx="301.697" cy="-18" rx="55.7903" ry="18"/>
<text text-anchor="middle" x="301.697" y="-14.3" font-family="Times,serif" font-size="14.00">ITF&#45;18_Raw</text>
</g>
<!-- ITF&#45;mET_Transducer&#45;&gt;ITF&#45;18_Raw -->
<g id="edge10" class="edge"><title>ITF&#45;mET_Transducer&#45;&gt;ITF&#45;18_Raw</title>
<path fill="none" stroke="black" d="M247.126,-72.055C256.279,-63.1558 267.638,-52.1121 277.619,-42.4085"/>
<polygon fill="black" stroke="black" points="280.194,-44.7873 284.924,-35.307 275.314,-39.7683 280.194,-44.7873"/>
</g>
</g>
</svg>
