<?xml version="1.0" encoding="UTF-8" standalone="no"?>
<!-- Created with Inkscape (http://www.inkscape.org/) -->

<svg
   xmlns:dc="http://purl.org/dc/elements/1.1/"
   xmlns:cc="http://creativecommons.org/ns#"
   xmlns:rdf="http://www.w3.org/1999/02/22-rdf-syntax-ns#"
   xmlns:svg="http://www.w3.org/2000/svg"
   xmlns="http://www.w3.org/2000/svg"
   xmlns:sodipodi="http://sodipodi.sourceforge.net/DTD/sodipodi-0.dtd"
   xmlns:inkscape="http://www.inkscape.org/namespaces/inkscape"
   version="1.1"
   id="svg2"
   xml:space="preserve"
   width="1344"
   height="1344"
   viewBox="0 0 1344 1344"
   sodipodi:docname="Logo AI Vector_orange.svg"
   inkscape:version="0.92.3 (2405546, 2018-03-11)"><metadata
     id="metadata8"><rdf:RDF><cc:Work
         rdf:about=""><dc:format>image/svg+xml</dc:format><dc:type
           rdf:resource="http://purl.org/dc/dcmitype/StillImage" /><dc:title></dc:title></cc:Work></rdf:RDF></metadata><defs
     id="defs6"><clipPath
       clipPathUnits="userSpaceOnUse"
       id="clipPath20"><path
         d="M 0,1008 H 1008 V 0 H 0 Z"
         id="path18"
         inkscape:connector-curvature="0" /></clipPath></defs><sodipodi:namedview
     pagecolor="#ffffff"
     bordercolor="#666666"
     borderopacity="1"
     objecttolerance="10"
     gridtolerance="10"
     guidetolerance="10"
     inkscape:pageopacity="0"
     inkscape:pageshadow="2"
     inkscape:window-width="1299"
     inkscape:window-height="713"
     id="namedview4"
     showgrid="false"
     inkscape:zoom="0.17559524"
     inkscape:cx="444.20339"
     inkscape:cy="672"
     inkscape:window-x="67"
     inkscape:window-y="27"
     inkscape:window-maximized="1"
     inkscape:current-layer="g10" /><g
     id="g10"
     inkscape:groupmode="layer"
     inkscape:label="Logo AI Vector"
     transform="matrix(1.3333333,0,0,-1.3333333,0,1344)"><g
       id="g14"
       style="fill:#ff6600"><g
         id="g16"
         clip-path="url(#clipPath20)"
         style="fill:#ff6600"><g
           id="g22"
           transform="translate(452.9607,190.3584)"
           style="fill:#ff6600"><path
             d="m 0,0 c 7.955,-7.955 17.302,-13.668 27.256,-17.142 l 6.246,16.381 11.749,30.813 c -9.23,2.572 -16.006,11.034 -16.006,21.085 0,12.09 9.802,21.892 21.892,21.892 12.091,0 21.892,-9.802 21.892,-21.892 0,-10.201 -6.977,-18.772 -16.419,-21.202 L 68.364,-0.893 c 3.993,1.319 7.862,3.109 11.525,5.371 L 94.643,-6.635 c 2.657,2.006 5.21,4.214 7.631,6.635 2.421,2.421 4.629,4.974 6.635,7.631 L 97.796,22.385 c 3.115,5.045 5.342,10.481 6.668,16.09 l 18.286,2.574 c 0.937,6.69 0.937,13.486 0,20.176 l -18.286,2.574 c -1.326,5.609 -3.553,11.044 -6.668,16.09 l 11.113,14.754 c -2.006,2.657 -4.214,5.21 -6.635,7.631 -2.421,2.421 -4.974,4.629 -7.631,6.635 L 79.889,97.796 c -5.046,3.115 -10.481,5.342 -16.09,6.668 l -2.574,18.286 c -6.69,0.937 -13.486,0.937 -20.176,0 C 26.032,120.646 11.549,113.822 0,102.274 -28.242,74.032 -28.242,28.242 0,0 m -91.997,74.379 c 4.158,25.559 15.223,49.147 32.271,68.781 l -21.579,13.655 c -18.977,-22.896 -31.241,-50.12 -35.807,-79.51 z m 47.724,-8.584 c 4.271,19.442 14.183,37.473 28.422,51.58 l -18.14,11.479 C -49.79,111.937 -60.658,90.841 -65.224,68.236 Z m 227.247,4.044 c -4.566,22.605 -15.434,43.701 -31.233,60.618 l -18.14,-11.48 C 147.84,104.871 157.752,86.84 162.023,67.398 Z m 201.26,339.203 h -666.198 v 80.341 c 0,6.022 3.525,13.786 8.185,19.326 h 219.468 l 13.103,23.867 23.652,-65.543 25.105,131.498 31.74,-173.494 29.139,128.978 8.487,-45.914 h 95.476 l 7.498,23.212 8.256,-63.087 15.811,51.455 4.157,-10.115 h 51.629 l 8.856,15.296 11.266,-41.993 15.946,26.668 h 79.572 c 4.999,-5.567 8.852,-13.84 8.852,-20.154 z M 369.78,256.839 c -1.742,-3.4 -4.975,-5.099 -9.709,-5.099 -4.776,0 -8.455,1.619 -11.047,4.856 -2.426,2.992 -3.642,6.956 -3.642,11.894 0,5.341 1.419,9.486 4.249,12.439 2.469,2.591 5.584,3.887 9.348,3.887 4.933,0 8.413,-1.642 10.436,-4.918 h 0.123 v 16.023 h 6.918 V 252.59 h -6.553 v 4.249 z m -51.037,22.394 c 2.226,3.718 5.483,5.583 9.771,5.583 3.479,0 6.198,-0.911 8.163,-2.734 1.961,-1.818 2.941,-4.468 2.941,-7.948 V 252.59 h -6.917 v 19.722 c 0,4.695 -2.042,7.04 -6.129,7.04 -2.265,0 -4.095,-0.788 -5.491,-2.365 -1.396,-1.58 -2.096,-3.541 -2.096,-5.887 v -18.51 h -6.917 v 31.376 h 6.552 v -4.614 z M 271.47,268.309 c 0,-4.937 -1.377,-8.902 -4.13,-11.897 -2.872,-3.115 -6.775,-4.672 -11.712,-4.672 -4.934,0 -8.84,1.557 -11.713,4.672 -2.749,2.995 -4.126,6.96 -4.126,11.897 0,4.895 1.408,8.867 4.219,11.924 2.811,3.053 6.686,4.583 11.62,4.583 4.937,0 8.84,-1.561 11.712,-4.675 2.753,-2.992 4.13,-6.937 4.13,-11.832 m 26.397,-11.351 c -0.849,-1.538 -2.115,-2.792 -3.791,-3.761 -1.68,-0.973 -3.391,-1.457 -5.129,-1.457 -7.81,0 -11.713,4.107 -11.713,12.32 v 19.906 h 6.918 v -19.237 c 0,-5.018 2.003,-7.529 6.01,-7.529 5.137,0 7.705,2.853 7.705,8.559 v 18.207 h 6.918 V 252.59 h -6.795 v 4.368 z m -46.219,74.885 c 1.83,-3.12 4.71,-4.68 8.633,-4.68 6.298,0 9.932,3.376 10.897,10.129 h 13.216 c -0.904,-6.558 -3.461,-11.592 -7.671,-15.095 -4.211,-3.504 -9.66,-5.256 -16.346,-5.256 -7.525,0 -13.601,2.363 -18.23,7.089 -4.63,4.725 -6.945,10.851 -6.945,18.374 0,7.971 2.269,14.467 6.802,19.482 4.53,5.016 10.751,7.523 18.661,7.523 6.302,0 11.686,-1.64 16.158,-4.918 4.468,-3.28 6.894,-7.943 7.279,-13.985 h -13.405 c -0.903,5.721 -4.28,8.584 -10.128,8.584 -3.988,0 -6.929,-1.624 -8.825,-4.872 -1.899,-3.247 -2.845,-7.025 -2.845,-11.332 0,-4.245 0.915,-7.926 2.749,-11.043 M 218.852,272.8 c 0.404,-0.165 2.734,-0.731 6.979,-1.7 3.157,-0.73 5.484,-1.618 6.979,-2.672 2.104,-1.538 3.157,-3.699 3.157,-6.491 0,-3.441 -1.519,-6.071 -4.552,-7.89 -2.55,-1.538 -5.703,-2.307 -9.467,-2.307 -4.126,0 -7.402,0.888 -9.832,2.668 -2.669,1.946 -4.026,4.695 -4.065,8.256 h 6.918 c 0.323,-3.641 2.691,-5.464 7.102,-5.464 4.772,0 7.098,1.377 6.979,4.13 -0.081,1.942 -1.904,3.337 -5.464,4.187 -5.945,1.454 -9.163,2.303 -9.648,2.55 -3.48,1.534 -5.218,4.126 -5.218,7.767 0,3.114 1.477,5.46 4.43,7.04 2.346,1.292 5.237,1.942 8.679,1.942 3.518,0 6.409,-0.73 8.678,-2.188 2.546,-1.699 4.022,-4.187 4.43,-7.463 h -7.221 c -0.527,2.791 -2.654,4.187 -6.376,4.187 -3.803,0 -5.702,-1.073 -5.702,-3.214 0,-1.458 1.073,-2.573 3.214,-3.338 m -22.563,59.043 c 1.83,-3.12 4.71,-4.68 8.632,-4.68 6.299,0 9.932,3.376 10.898,10.129 h 13.215 c -0.903,-6.558 -3.46,-11.592 -7.671,-15.095 -4.21,-3.504 -9.659,-5.256 -16.346,-5.256 -7.525,0 -13.6,2.363 -18.23,7.089 -4.629,4.725 -6.944,10.851 -6.944,18.374 0,7.971 2.268,14.467 6.802,19.482 4.53,5.016 10.751,7.523 18.661,7.523 6.302,0 11.685,-1.64 16.157,-4.918 4.468,-3.28 6.895,-7.943 7.279,-13.985 h -13.404 c -0.904,5.721 -4.28,8.584 -10.128,8.584 -3.988,0 -6.929,-1.624 -8.825,-4.872 -1.9,-3.247 -2.846,-7.025 -2.846,-11.332 0,-4.245 0.916,-7.926 2.75,-11.043 m -6.991,-52.491 c -4.33,0 -6.633,-1.657 -6.917,-4.975 h -6.918 c 0.404,6.959 5.157,10.439 14.262,10.439 3.438,0 6.291,-0.692 8.556,-2.065 2.672,-1.618 4.006,-3.964 4.006,-7.04 v -16.142 c 0,-1.577 0.546,-2.369 1.638,-2.369 0.646,0 1.215,0.042 1.7,0.123 v -4.795 c -1.5,-0.523 -2.953,-0.788 -4.368,-0.788 -3.076,0 -4.857,1.273 -5.341,3.822 -2.592,-2.549 -6.214,-3.822 -10.863,-3.822 -3.038,0 -5.526,0.769 -7.467,2.307 -2.184,1.657 -3.276,3.945 -3.276,6.856 0,3.48 1.295,5.987 3.883,7.525 1.577,0.931 4.311,1.68 8.194,2.246 l 6.553,0.972 c 1.903,0.566 2.853,1.719 2.853,3.457 0,2.834 -2.165,4.249 -6.495,4.249 m -34.145,53.697 h 15.142 v -14.854 h -15.142 z m 5.991,-49.083 v -6.071 h 0.119 c 0.404,1.742 1.519,3.33 3.337,4.764 1.823,1.434 3.765,2.157 5.826,2.157 0.527,0 1.396,-0.061 2.611,-0.184 v -6.676 c -1.619,0.204 -2.611,0.304 -2.973,0.304 -2.468,0 -4.472,-0.93 -6.01,-2.791 -1.657,-1.942 -2.487,-4.592 -2.487,-7.948 V 252.59 h -6.918 v 31.376 z m -175.388,0 v -6.071 h 0.123 c 0.404,1.742 1.517,3.33 3.338,4.764 1.821,1.434 3.763,2.157 5.826,2.157 0.524,0 1.395,-0.061 2.609,-0.184 v -6.676 c -1.619,0.204 -2.609,0.304 -2.975,0.304 -2.466,0 -4.47,-0.93 -6.006,-2.791 -1.661,-1.942 -2.49,-4.592 -2.49,-7.948 V 252.59 h -6.917 v 31.376 z m 38.356,-1.941 c 2.75,-2.027 4.288,-4.876 4.613,-8.56 h -6.92 c -0.567,3.926 -2.953,5.887 -7.162,5.887 -2.305,0 -4.187,-0.707 -5.642,-2.122 -1.983,-1.942 -2.975,-5.037 -2.975,-9.286 0,-2.954 0.627,-5.403 1.883,-7.345 1.495,-2.265 3.641,-3.399 6.433,-3.399 2.022,0 3.691,0.638 5.006,1.915 1.313,1.273 2.134,3.022 2.457,5.249 h 6.92 c -1.337,-8.417 -6.13,-12.624 -14.383,-12.624 -4.776,0 -8.539,1.557 -11.288,4.672 -2.632,2.914 -3.945,6.756 -3.945,11.532 0,4.975 1.294,8.982 3.884,12.016 2.751,3.237 6.615,4.856 11.591,4.856 3.843,0 7.019,-0.934 9.528,-2.791 m 8.938,36.17 H 19.355 V 368.06 H 33.05 Z m 0,57.579 H 19.355 V 387.06 H 33.05 Z m 14.972,-90.958 c 4.41,0 8.032,-1.619 10.862,-4.856 2.711,-3.034 4.069,-6.756 4.069,-11.167 0,-0.769 -0.043,-1.538 -0.123,-2.307 H 39.768 c 0,-2.63 0.688,-4.795 2.063,-6.494 1.498,-1.861 3.622,-2.792 6.373,-2.792 3.884,0 6.431,1.742 7.647,5.222 h 6.556 c -0.731,-3.361 -2.4,-5.979 -5.011,-7.86 -2.607,-1.88 -5.671,-2.822 -9.192,-2.822 -4.816,0 -8.578,1.519 -11.287,4.553 -2.711,3.033 -4.067,7.017 -4.067,11.954 0,4.611 1.356,8.494 4.067,11.651 2.872,3.276 6.573,4.918 11.105,4.918 m 78.896,-32.226 h -6.921 v 43.332 h 6.921 z m 16.991,6.252 c 0.446,-0.731 1.396,-1.092 2.854,-1.092 1.292,0 2.264,0.077 2.91,0.242 v -5.341 c -3.034,-0.242 -4.529,-0.365 -4.491,-0.365 -3.395,0 -5.745,0.688 -7.037,2.065 -1.092,1.13 -1.638,3.114 -1.638,5.944 v 18.511 h -5.221 v 5.16 h 5.221 v 9.406 h 6.918 v -9.406 h 6.248 v -5.16 h -6.248 v -16.749 c 0,-1.619 0.161,-2.692 0.484,-3.215 m -12.481,109.217 h 16.204 l -18.807,-18.326 20.929,-31.538 h -16.588 l -13.697,22.279 -5.306,-5.111 V 318.195 H 100.47 v 68.865 h 13.693 V 350.119 Z M 97.909,257.2 c 5.137,0 7.706,2.853 7.706,8.559 v 18.207 h 6.918 V 252.59 h -6.795 v 4.368 h -0.123 c -0.85,-1.538 -2.115,-2.792 -3.791,-3.761 -1.681,-0.973 -3.392,-1.457 -5.13,-1.457 -7.809,0 -11.712,4.107 -11.712,12.32 v 19.906 h 6.917 v -19.237 c 0,-5.018 2.004,-7.529 6.01,-7.529 m -39.155,74.643 c 1.83,-3.12 4.714,-4.68 8.636,-4.68 6.298,0 9.928,3.376 10.897,10.129 h 13.212 c -0.899,-6.558 -3.46,-11.592 -7.667,-15.095 -4.214,-3.504 -9.659,-5.256 -16.35,-5.256 -7.521,0 -13.596,2.363 -18.228,7.089 -4.63,4.725 -6.944,10.851 -6.944,18.374 0,7.971 2.266,14.467 6.8,19.482 4.533,5.016 10.751,7.523 18.665,7.523 6.298,0 11.681,-1.64 16.157,-4.918 4.468,-3.28 6.891,-7.943 7.275,-13.985 H 77.803 c -0.9,5.721 -4.276,8.584 -10.128,8.584 -3.984,0 -6.93,-1.624 -8.821,-4.872 -1.9,-3.247 -2.846,-7.025 -2.846,-11.332 0,-4.245 0.915,-7.926 2.746,-11.043 M -5.334,358.8 c 1.284,3.149 3.407,5.706 6.365,7.667 2.957,1.961 6.139,2.942 9.548,2.942 0.834,0 1.832,-0.162 2.99,-0.483 v -12.729 c -1.415,0.319 -3.055,0.48 -4.918,0.48 -9.004,0 -13.503,-5.337 -13.503,-16.009 v -22.473 h -13.696 v 49.864 h 13.02 V 358.8 Z m -103.882,-93.283 c -5.949,1.454 -9.165,2.303 -9.65,2.55 -3.48,1.534 -5.22,4.126 -5.22,7.767 0,3.114 1.477,5.46 4.432,7.04 2.346,1.292 5.239,1.942 8.677,1.942 3.52,0 6.412,-0.73 8.678,-2.188 2.55,-1.699 4.026,-4.187 4.432,-7.463 h -7.223 c -0.525,2.791 -2.65,4.187 -6.372,4.187 -3.803,0 -5.704,-1.073 -5.704,-3.214 0,-1.458 1.071,-2.573 3.216,-3.338 0.404,-0.165 2.73,-0.731 6.979,-1.7 3.155,-0.73 5.482,-1.618 6.979,-2.672 2.104,-1.538 3.155,-3.699 3.155,-6.491 0,-3.441 -1.516,-6.071 -4.55,-7.89 -2.55,-1.538 -5.705,-2.307 -9.467,-2.307 -4.128,0 -7.404,0.888 -9.832,2.668 -2.671,1.946 -4.026,4.695 -4.067,8.256 h 6.92 c 0.323,-3.641 2.689,-5.464 7.1,-5.464 4.772,0 7.1,1.377 6.979,4.13 -0.083,1.942 -1.903,3.337 -5.462,4.187 m 43.754,14.624 c 2.752,-2.992 4.126,-6.937 4.126,-11.832 0,-4.937 -1.374,-8.902 -4.126,-11.897 -2.872,-3.115 -6.777,-4.672 -11.712,-4.672 -4.937,0 -8.84,1.557 -11.713,4.672 -2.751,2.995 -4.127,6.96 -4.127,11.897 0,4.895 1.405,8.867 4.218,11.924 2.811,3.053 6.685,4.583 11.622,4.583 4.935,0 8.84,-1.561 11.712,-4.675 m 32.254,44.275 c -2.38,-2.605 -5.001,-4.503 -7.86,-5.691 -2.862,-1.19 -6.062,-1.784 -9.597,-1.784 -7.46,0 -13.439,2.732 -17.94,8.198 -4.501,5.464 -6.752,14.498 -6.752,27.103 0,12.345 2.266,21.233 6.8,26.668 4.533,5.432 10.497,8.15 17.892,8.15 3.535,0 6.752,-0.596 9.645,-1.784 2.894,-1.192 5.512,-3.088 7.86,-5.691 2.347,-2.605 4.162,-6.221 5.451,-10.851 1.284,-4.63 1.928,-10.126 1.928,-16.492 0,-6.497 -0.644,-12.105 -1.928,-16.831 -1.289,-4.725 -3.121,-8.392 -5.499,-10.995 m -1.729,-67.458 c -0.849,-1.538 -2.114,-2.792 -3.793,-3.761 -1.678,-0.973 -3.387,-1.457 -5.127,-1.457 -7.81,0 -11.713,4.107 -11.713,12.32 v 19.906 h 6.918 v -19.237 c 0,-5.018 2.003,-7.529 6.008,-7.529 5.139,0 7.707,2.853 7.707,8.559 v 18.207 h 6.92 V 252.59 h -6.798 v 4.368 z m -81.12,104.157 c 3.344,5.529 8.423,8.294 15.239,8.294 6.879,0 11.637,-1.736 14.275,-5.209 2.636,-3.472 3.955,-8.582 3.955,-15.334 v -30.671 h -13.697 v 28.164 c 0,4.243 -0.659,7.344 -1.976,9.307 -1.319,1.959 -3.586,2.942 -6.8,2.942 -3.73,0 -6.432,-1.127 -8.102,-3.377 -1.673,-2.251 -2.507,-5.883 -2.507,-10.899 v -26.137 h -13.697 v 49.864 h 13.02 v -6.944 z m -67.925,-81.155 c 2.711,-3.034 4.066,-6.756 4.066,-11.167 0,-0.769 -0.04,-1.538 -0.121,-2.307 h -23.062 c 0,-2.63 0.689,-4.795 2.063,-6.494 1.498,-1.861 3.623,-2.792 6.374,-2.792 3.883,0 6.433,1.742 7.646,5.222 h 6.554 c -0.729,-3.361 -2.397,-5.979 -5.006,-7.86 -2.609,-1.88 -5.674,-2.822 -9.194,-2.822 -4.816,0 -8.579,1.519 -11.288,4.553 -2.711,3.033 -4.066,7.017 -4.066,11.954 0,4.611 1.355,8.494 4.066,11.651 2.873,3.276 6.574,4.918 11.105,4.918 4.411,0 8.031,-1.619 10.863,-4.856 m 23.729,-0.608 c -2.267,0 -4.098,-0.788 -5.493,-2.365 -1.396,-1.58 -2.094,-3.541 -2.094,-5.887 v -18.51 h -6.918 v 31.376 h 6.555 v -4.614 l 0.121,-0.119 c 2.224,3.718 5.481,5.583 9.77,5.583 3.48,0 6.201,-0.911 8.164,-2.734 1.961,-1.818 2.943,-4.468 2.943,-7.948 V 252.59 h -6.919 v 19.722 c 0,4.695 -2.044,7.04 -6.129,7.04 m -10.634,51.236 c 1.317,-1.961 3.583,-2.942 6.8,-2.942 3.728,0 6.429,1.125 8.102,3.376 1.67,2.25 2.507,5.883 2.507,10.899 v 26.138 h 13.696 v -49.864 h -13.021 v 6.944 h -0.289 c -3.28,-5.466 -8.359,-8.198 -15.24,-8.198 -6.881,0 -11.638,1.719 -14.274,5.16 -2.637,3.438 -3.954,8.535 -3.954,15.287 v 30.671 h 13.696 v -28.164 c 0,-4.243 0.658,-7.346 1.977,-9.307 m -67.834,-50.87 c 1.86,3.399 5.097,5.098 9.71,5.098 4.733,0 8.415,-1.642 11.045,-4.918 2.428,-2.995 3.641,-6.917 3.641,-11.774 0,-4.572 -1.092,-8.351 -3.276,-11.347 -2.468,-3.357 -5.887,-5.037 -10.257,-5.037 -4.937,0 -8.436,1.638 -10.499,4.914 h -0.121 V 241 h -6.918 v 42.966 h 6.554 v -4.248 z m -44.302,-11.409 c 0,4.895 1.405,8.867 4.218,11.924 2.811,3.053 6.685,4.583 11.622,4.583 4.936,0 8.84,-1.561 11.713,-4.675 2.751,-2.992 4.126,-6.937 4.126,-11.832 0,-4.937 -1.375,-8.902 -4.126,-11.897 -2.873,-3.115 -6.777,-4.672 -11.713,-4.672 -4.937,0 -8.84,1.557 -11.712,4.672 -2.751,2.995 -4.128,6.96 -4.128,11.897 M 384.234,137.745 c 0,-8.479 -6.94,-20.502 -14.285,-24.744 L 65.421,-62.817 c -3.472,-2.003 -8.813,-3.199 -14.285,-3.199 -5.473,0 -10.814,1.196 -14.287,3.199 l -304.526,175.822 c -7.344,4.238 -14.287,16.261 -14.287,24.74 v 80.343 H 384.234 Z M 36.849,689.944 c 3.475,2.006 8.814,3.204 14.287,3.204 5.472,0 10.813,-1.198 14.285,-3.204 L 360.682,519.477 h -70.509 l -6.794,-11.36 -11.39,42.447 -17.976,-31.058 h -39.24 l -12.163,29.62 -10.543,-34.296 -8.056,61.572 -18.857,-58.361 H 85.182 L 69.405,603.429 40.312,474.667 7.757,652.621 -20.517,504.519 -39.328,556.651 -60.194,518.649 H -259.845 Z M 383.4,537.425 78.872,713.241 c -7.598,4.391 -17.45,6.808 -27.736,6.808 -10.286,0 -20.135,-2.417 -27.737,-6.806 L -281.127,537.425 c -15.814,-9.129 -27.738,-29.783 -27.738,-48.042 V 137.745 c 0,-18.257 11.924,-38.909 27.738,-48.038 L 23.399,-86.115 c 7.602,-4.387 17.453,-6.802 27.737,-6.802 10.286,0 20.134,2.415 27.736,6.806 L 383.4,89.707 c 15.811,9.129 27.735,29.781 27.735,48.038 v 351.638 c 0,18.259 -11.924,38.911 -27.735,48.042 M 361.102,279.352 c -2.996,0 -5.28,-1.192 -6.856,-3.58 -1.296,-2.022 -1.942,-4.633 -1.942,-7.828 0,-2.954 0.684,-5.422 2.061,-7.402 1.58,-2.227 3.784,-3.342 6.617,-3.342 2.869,0 5.115,1.177 6.733,3.522 1.377,2.023 2.065,4.553 2.065,7.587 0,3.437 -0.78,6.137 -2.338,8.102 -1.557,1.961 -3.668,2.941 -6.34,2.941 M 260.915,85.064 l 33.653,3.921 c -2.796,38.171 -18.759,73.881 -45.249,101.325 l -29.404,-18.607 c 24.35,-22.671 38.931,-53.483 41,-86.639 m -26.053,-6.156 c -4.566,29.389 -16.83,56.614 -35.807,79.51 l -21.579,-13.655 c 17.048,-19.634 28.113,-43.223 32.271,-68.781 z m 13.971,196.926 c -1.419,-2.027 -2.126,-4.534 -2.126,-7.525 0,-3.034 0.707,-5.564 2.126,-7.587 1.615,-2.345 3.884,-3.522 6.795,-3.522 2.915,0 5.179,1.177 6.798,3.522 1.415,2.023 2.123,4.553 2.123,7.587 0,2.991 -0.708,5.498 -2.123,7.525 -1.619,2.345 -3.883,3.518 -6.798,3.518 -2.911,0 -5.18,-1.173 -6.795,-3.518 m -449.503,1.153 c -1.538,-1.58 -2.348,-3.56 -2.429,-5.948 h 16.144 c -0.123,2.307 -0.901,4.268 -2.337,5.887 -1.437,1.619 -3.288,2.426 -5.553,2.426 -2.347,0 -4.289,-0.788 -5.825,-2.365 m 254.244,-0.061 c -1.436,1.619 -3.287,2.426 -5.552,2.426 -2.348,0 -4.29,-0.788 -5.826,-2.365 -1.538,-1.58 -2.347,-3.56 -2.428,-5.948 h 16.144 c -0.123,2.307 -0.9,4.268 -2.338,5.887 M -102.165,170.1 l -29.404,18.607 c -26.49,-27.444 -42.452,-63.153 -45.249,-101.325 l 33.653,-3.92 c 2.069,33.155 16.65,63.967 41,86.638 m 62.399,189.809 c -0.131,1.832 -0.323,3.359 -0.579,4.582 -0.257,1.221 -0.659,2.603 -1.205,4.147 -0.548,1.544 -1.206,2.78 -1.979,3.712 -0.771,0.933 -1.768,1.736 -2.989,2.413 -1.221,0.675 -2.603,1.011 -4.147,1.011 -1.736,0 -3.28,-0.384 -4.63,-1.157 -1.35,-0.771 -2.411,-1.928 -3.182,-3.472 -0.773,-1.542 -1.384,-3.005 -1.834,-4.388 -0.45,-1.384 -0.771,-3.168 -0.963,-5.354 -0.194,-2.186 -0.306,-3.809 -0.339,-4.87 -0.032,-1.061 -0.048,-2.492 -0.048,-4.291 0,-2.252 0.016,-4.099 0.048,-5.547 0.033,-1.446 0.243,-3.487 0.627,-6.123 0.387,-2.638 0.933,-4.743 1.64,-6.318 0.708,-1.577 1.817,-2.99 3.328,-4.245 1.509,-1.254 3.294,-1.88 5.353,-1.88 2.122,0 3.937,0.626 5.448,1.88 1.511,1.255 2.621,2.668 3.328,4.245 0.708,1.575 1.254,3.68 1.64,6.318 0.387,2.636 0.61,4.677 0.675,6.123 0.064,1.448 0.096,3.295 0.096,5.547 0,1.478 -0.015,2.666 -0.048,3.568 -0.032,0.9 -0.113,2.267 -0.24,4.099 M -83.97,275.834 c -1.417,-2.027 -2.125,-4.534 -2.125,-7.525 0,-3.034 0.708,-5.564 2.125,-7.587 1.616,-2.345 3.883,-3.522 6.796,-3.522 2.913,0 5.177,1.177 6.796,3.522 1.417,2.023 2.125,4.553 2.125,7.587 0,2.991 -0.708,5.498 -2.125,7.525 -1.619,2.345 -3.883,3.518 -6.796,3.518 -2.913,0 -5.18,-1.173 -6.796,-3.518 M -229.921,257.2 c 2.913,0 5.159,1.154 6.737,3.461 1.294,1.98 1.942,4.51 1.942,7.586 0,3.034 -0.729,5.603 -2.186,7.706 -1.619,2.265 -3.784,3.399 -6.493,3.399 -2.832,0 -5.006,-0.992 -6.525,-2.972 -1.517,-1.984 -2.275,-4.695 -2.275,-8.133 0,-3.237 0.789,-5.887 2.367,-7.952 1.579,-2.061 3.722,-3.095 6.433,-3.095 m 416.793,9.225 c -3.761,-0.646 -5.645,-2.388 -5.645,-5.218 0,-1.377 0.769,-2.427 2.307,-3.157 1.173,-0.565 2.527,-0.85 4.065,-0.85 1.861,0 3.541,0.446 5.037,1.338 1.822,1.092 2.734,2.63 2.734,4.611 v 5.16 c -0.892,-0.569 -2.188,-0.992 -3.884,-1.277 -1.538,-0.204 -3.076,-0.404 -4.614,-0.607 M -267.183,257.2 c 2.913,0 5.178,1.177 6.797,3.522 1.417,2.023 2.124,4.553 2.124,7.587 0,2.991 -0.707,5.498 -2.124,7.525 -1.619,2.345 -3.884,3.518 -6.797,3.518 -2.912,0 -5.179,-1.173 -6.796,-3.518 -1.417,-2.027 -2.125,-4.534 -2.125,-7.525 0,-3.034 0.708,-5.564 2.125,-7.587 1.617,-2.345 3.884,-3.522 6.796,-3.522"
             style="fill:#ff6600;fill-opacity:1;fill-rule:nonzero;stroke:none"
             id="path24"
             inkscape:connector-curvature="0" /></g></g></g></g></svg>