<?xml version="1.0" encoding="utf-8"?>
<!-- Generator: Adobe Illustrator 17.0.0, SVG Export Plug-In . SVG Version: 6.00 Build 0)  -->
<!DOCTYPE svg PUBLIC "-//W3C//DTD SVG 1.1//EN" "http://www.w3.org/Graphics/SVG/1.1/DTD/svg11.dtd">
<svg version="1.1" id="Layer_1" xmlns="http://www.w3.org/2000/svg" xmlns:xlink="http://www.w3.org/1999/xlink" x="0px" y="0px"
	 width="1008px" height="1008px" viewBox="0 0 1008 1008" enable-background="new 0 0 1008 1008" xml:space="preserve">
<rect x="0" y="0" width="1008" height="1008"/>
<g>
	<path fill="#A1FF00" d="M185.778,560.442c2.913,0,5.178-1.177,6.796-3.522c1.417-2.023,2.124-4.553,2.124-7.587
		c0-2.992-0.708-5.499-2.124-7.525c-1.619-2.346-3.884-3.518-6.796-3.518c-2.913,0-5.179,1.173-6.796,3.518
		c-1.417,2.026-2.124,4.533-2.124,7.525c0,3.034,0.708,5.564,2.124,7.587C180.599,559.265,182.865,560.442,185.778,560.442z
		 M639.833,551.217c-3.761,0.646-5.645,2.388-5.645,5.218c0,1.377,0.769,2.426,2.307,3.157c1.173,0.565,2.526,0.85,4.064,0.85
		c1.861,0,3.541-0.446,5.037-1.338c1.823-1.092,2.734-2.63,2.734-4.61v-5.16c-0.892,0.569-2.188,0.992-3.884,1.277
		C642.909,550.813,641.371,551.013,639.833,551.217z M223.04,560.442c2.913,0,5.158-1.154,6.737-3.461
		c1.294-1.98,1.942-4.51,1.942-7.587c0-3.034-0.729-5.602-2.186-7.706c-1.619-2.265-3.784-3.399-6.493-3.399
		c-2.832,0-5.006,0.992-6.525,2.972c-1.517,1.984-2.274,4.695-2.274,8.133c0,3.238,0.788,5.887,2.367,7.952
		C218.185,559.407,220.329,560.442,223.04,560.442z M368.99,541.808c-1.417,2.026-2.124,4.533-2.124,7.525
		c0,3.034,0.708,5.564,2.124,7.587c1.617,2.346,3.884,3.522,6.796,3.522c2.913,0,5.178-1.177,6.796-3.522
		c1.417-2.023,2.124-4.553,2.124-7.587c0-2.992-0.708-5.499-2.124-7.525c-1.619-2.346-3.884-3.518-6.796-3.518
		C372.874,538.289,370.607,539.462,368.99,541.808z M413.195,457.732c-0.131-1.832-0.323-3.359-0.579-4.582
		c-0.258-1.221-0.659-2.603-1.205-4.147c-0.548-1.544-1.205-2.78-1.978-3.713c-0.771-0.932-1.769-1.736-2.99-2.413
		c-1.221-0.675-2.603-1.011-4.147-1.011c-1.736,0-3.28,0.385-4.63,1.157c-1.35,0.771-2.411,1.928-3.182,3.472
		c-0.773,1.542-1.384,3.005-1.834,4.387c-0.45,1.384-0.771,3.168-0.963,5.354c-0.194,2.186-0.306,3.809-0.338,4.87
		S391.3,463.6,391.3,465.4c0,2.251,0.015,4.099,0.048,5.547c0.033,1.446,0.242,3.488,0.627,6.123
		c0.386,2.638,0.932,4.743,1.64,6.318c0.708,1.577,1.817,2.99,3.328,4.245c1.509,1.254,3.293,1.88,5.353,1.88
		c2.123,0,3.937-0.627,5.449-1.88c1.511-1.255,2.621-2.669,3.328-4.245c0.708-1.575,1.254-3.68,1.64-6.318
		c0.386-2.636,0.609-4.678,0.675-6.123c0.063-1.448,0.096-3.295,0.096-5.547c0-1.478-0.015-2.667-0.048-3.568
		C413.402,460.932,413.322,459.565,413.195,457.732z M350.796,647.542l-29.404-18.607c-26.489,27.444-42.452,63.153-45.248,101.325
		l33.652,3.921C311.865,701.025,326.446,670.213,350.796,647.542z M506.535,540.716c-1.436-1.619-3.288-2.426-5.552-2.426
		c-2.347,0-4.289,0.788-5.825,2.365c-1.538,1.58-2.347,3.561-2.428,5.948h16.144C508.75,544.296,507.973,542.335,506.535,540.716z
		 M252.29,540.654c-1.538,1.58-2.347,3.561-2.428,5.948h16.144c-0.123-2.307-0.902-4.268-2.338-5.887s-3.288-2.426-5.552-2.426
		C255.768,538.289,253.827,539.078,252.29,540.654z M701.794,541.808c-1.419,2.026-2.126,4.533-2.126,7.525
		c0,3.034,0.707,5.564,2.126,7.587c1.615,2.346,3.884,3.522,6.794,3.522c2.915,0,5.18-1.177,6.798-3.522
		c1.415-2.023,2.123-4.553,2.123-7.587c0-2.992-0.708-5.499-2.123-7.525c-1.619-2.346-3.884-3.518-6.798-3.518
		C705.678,538.289,703.409,539.462,701.794,541.808z M687.823,738.734c-4.565-29.39-16.83-56.615-35.807-79.511l-21.579,13.655
		c17.048,19.634,28.113,43.223,32.271,68.781L687.823,738.734z M713.876,732.577l33.653-3.921
		c-2.796-38.171-18.759-73.88-45.249-101.325l-29.404,18.607C697.226,668.61,711.807,699.422,713.876,732.577z M814.062,538.289
		c-2.995,0-5.279,1.192-6.856,3.58c-1.296,2.023-1.942,4.633-1.942,7.829c0,2.953,0.684,5.422,2.061,7.402
		c1.58,2.226,3.784,3.341,6.618,3.341c2.868,0,5.114-1.177,6.733-3.522c1.377-2.023,2.065-4.553,2.065-7.587
		c0-3.438-0.781-6.137-2.338-8.102C818.846,539.27,816.735,538.289,814.062,538.289z M836.361,280.217L531.832,104.401
		c-7.598-4.391-17.45-6.808-27.735-6.808c-10.286,0-20.135,2.417-27.737,6.806L171.833,280.217
		c-15.813,9.128-27.737,29.783-27.737,48.042v351.638c0,18.257,11.924,38.91,27.737,48.038L476.36,903.756
		c7.602,4.387,17.453,6.802,27.737,6.802c10.286,0,20.133-2.415,27.735-6.806l304.528-175.818
		c15.811-9.128,27.735-29.781,27.735-48.038V328.259C864.096,310,852.172,289.347,836.361,280.217z M489.81,127.697
		c3.474-2.005,8.813-3.203,14.287-3.203c5.472,0,10.813,1.198,14.285,3.203l295.261,170.467h-70.509l-6.794,11.361l-11.389-42.447
		l-17.976,31.058h-39.24l-12.162-29.62l-10.544,34.295l-8.056-61.571l-18.857,58.361h-79.972l-15.777-85.388l-29.093,128.762
		l-32.555-177.954l-28.274,148.102l-18.811-52.131l-20.866,38.002H193.116L489.81,127.697z M837.195,679.896
		c0,8.479-6.941,20.503-14.285,24.744L518.382,880.458c-3.472,2.003-8.813,3.199-14.285,3.199c-5.474,0-10.815-1.196-14.287-3.199
		L185.284,704.637c-7.344-4.237-14.287-16.261-14.287-24.74v-80.343h666.198V679.896z M169.938,549.333
		c0-4.895,1.405-8.867,4.218-11.924c2.811-3.053,6.685-4.583,11.622-4.583c4.935,0,8.84,1.561,11.712,4.676
		c2.751,2.992,4.126,6.937,4.126,11.832c0,4.937-1.375,8.902-4.126,11.897c-2.872,3.115-6.777,4.672-11.712,4.672
		c-4.937,0-8.84-1.557-11.712-4.672C171.314,558.234,169.938,554.27,169.938,549.333z M214.24,537.924
		c1.859-3.399,5.097-5.099,9.709-5.099c4.733,0,8.415,1.642,11.045,4.918c2.428,2.995,3.641,6.918,3.641,11.774
		c0,4.572-1.092,8.352-3.276,11.347c-2.469,3.357-5.887,5.037-10.257,5.037c-4.937,0-8.436-1.638-10.499-4.914h-0.121v15.654h-6.918
		v-42.966h6.554v4.249H214.24z M282.073,487.054c1.317,1.961,3.584,2.942,6.8,2.942c3.728,0,6.429-1.125,8.102-3.376
		c1.671-2.249,2.507-5.883,2.507-10.899v-26.138h13.697v49.865h-13.022v-6.944h-0.288c-3.28,5.466-8.359,8.198-15.24,8.198
		s-11.637-1.719-14.273-5.16c-2.638-3.438-3.955-8.534-3.955-15.287v-30.671h13.697v28.164
		C280.097,481.99,280.754,485.093,282.073,487.054z M292.707,538.289c-2.267,0-4.097,0.788-5.493,2.365
		c-1.396,1.58-2.094,3.541-2.094,5.887v18.511h-6.918v-31.377h6.554v4.614l0.121,0.119c2.224-3.718,5.481-5.583,9.771-5.583
		c3.48,0,6.2,0.911,8.163,2.734c1.961,1.819,2.943,4.468,2.943,7.948v21.545h-6.919V545.33
		C298.836,540.635,296.793,538.289,292.707,538.289z M268.979,537.682c2.711,3.034,4.066,6.756,4.066,11.166
		c0,0.769-0.04,1.538-0.121,2.307h-23.062c0,2.63,0.688,4.795,2.063,6.495c1.498,1.861,3.622,2.792,6.373,2.792
		c3.884,0,6.433-1.742,7.646-5.222h6.554c-0.729,3.361-2.397,5.979-5.006,7.86c-2.609,1.88-5.674,2.822-9.194,2.822
		c-4.816,0-8.579-1.519-11.288-4.553c-2.711-3.034-4.066-7.017-4.066-11.955c0-4.61,1.355-8.494,4.066-11.651
		c2.872-3.276,6.573-4.918,11.105-4.918C262.526,532.825,266.147,534.444,268.979,537.682z M336.904,456.527
		c3.343-5.529,8.423-8.294,15.239-8.294c6.879,0,11.637,1.736,14.275,5.208c2.636,3.472,3.955,8.582,3.955,15.335v30.671h-13.697
		v-28.164c0-4.243-0.659-7.344-1.976-9.307c-1.319-1.959-3.586-2.942-6.8-2.942c-3.73,0-6.431,1.127-8.102,3.376
		c-1.673,2.251-2.507,5.883-2.507,10.899v26.138h-13.697v-49.865h13.02v6.944H336.904z M418.024,560.684
		c-0.85,1.538-2.115,2.792-3.793,3.761c-1.678,0.973-3.388,1.457-5.128,1.457c-7.81,0-11.712-4.107-11.712-12.32v-19.907h6.918
		v19.238c0,5.018,2.003,7.529,6.008,7.529c5.139,0,7.708-2.853,7.708-8.559v-18.207h6.919v31.377h-6.798v-4.368H418.024z
		 M419.753,493.226c-2.38,2.605-5.001,4.503-7.86,5.691c-2.863,1.19-6.062,1.784-9.598,1.784c-7.46,0-13.439-2.732-17.94-8.198
		c-4.501-5.464-6.752-14.498-6.752-27.103c0-12.345,2.267-21.233,6.8-26.668c4.534-5.431,10.497-8.15,17.892-8.15
		c3.536,0,6.752,0.596,9.646,1.784c2.893,1.192,5.512,3.088,7.86,5.691c2.347,2.605,4.162,6.222,5.451,10.851
		c1.284,4.63,1.928,10.126,1.928,16.492c0,6.496-0.644,12.105-1.928,16.83C423.963,486.956,422.131,490.622,419.753,493.226z
		 M387.499,537.501c2.751,2.992,4.126,6.937,4.126,11.832c0,4.937-1.375,8.902-4.126,11.897c-2.872,3.115-6.777,4.672-11.712,4.672
		c-4.937,0-8.84-1.557-11.712-4.672c-2.751-2.995-4.128-6.96-4.128-11.897c0-4.895,1.405-8.867,4.218-11.924
		c2.811-3.053,6.685-4.583,11.622-4.583C380.722,532.825,384.627,534.386,387.499,537.501z M343.745,552.124
		c-5.949-1.453-9.165-2.303-9.65-2.549c-3.48-1.534-5.22-4.126-5.22-7.767c0-3.115,1.477-5.46,4.432-7.041
		c2.346-1.292,5.239-1.942,8.677-1.942c3.52,0,6.412,0.731,8.679,2.188c2.549,1.7,4.026,4.187,4.432,7.464h-7.223
		c-0.525-2.792-2.649-4.187-6.371-4.187c-3.803,0-5.704,1.073-5.704,3.215c0,1.457,1.071,2.572,3.217,3.338
		c0.404,0.165,2.73,0.731,6.979,1.7c3.155,0.731,5.481,1.619,6.979,2.672c2.103,1.538,3.155,3.699,3.155,6.491
		c0,3.441-1.517,6.072-4.551,7.89c-2.549,1.538-5.704,2.307-9.467,2.307c-4.128,0-7.404-0.888-9.832-2.669
		c-2.671-1.946-4.026-4.695-4.066-8.256h6.919c0.323,3.641,2.69,5.464,7.1,5.464c4.772,0,7.1-1.377,6.979-4.13
		C349.124,554.37,347.303,552.974,343.745,552.124z M447.626,458.842c1.284-3.149,3.407-5.706,6.366-7.667
		c2.957-1.961,6.139-2.942,9.548-2.942c0.834,0,1.832,0.161,2.99,0.483v12.73c-1.415-0.319-3.055-0.481-4.918-0.481
		c-9.004,0-13.502,5.337-13.502,16.009v22.473h-13.697v-49.865h13.02v9.259H447.626z M511.714,485.799
		c1.83,3.12,4.714,4.68,8.636,4.68c6.298,0,9.928-3.376,10.897-10.128h13.212c-0.9,6.558-3.461,11.591-7.667,15.094
		c-4.214,3.505-9.659,5.256-16.35,5.256c-7.521,0-13.597-2.363-18.228-7.089c-4.63-4.726-6.944-10.851-6.944-18.374
		c0-7.971,2.267-14.468,6.8-19.482c4.534-5.016,10.751-7.523,18.665-7.523c6.298,0,11.682,1.64,16.158,4.918
		c4.468,3.28,6.891,7.942,7.275,13.985h-13.404c-0.9-5.722-4.276-8.584-10.128-8.584c-3.984,0-6.929,1.625-8.821,4.872
		c-1.9,3.247-2.845,7.025-2.845,11.332C508.969,479,509.884,482.682,511.714,485.799z M550.87,560.442
		c5.137,0,7.706-2.853,7.706-8.559v-18.207h6.918v31.377h-6.794v-4.368h-0.123c-0.85,1.538-2.115,2.792-3.791,3.761
		c-1.68,0.973-3.391,1.457-5.13,1.457c-7.81,0-11.712-4.107-11.712-12.32v-19.907h6.917v19.238
		C544.86,557.931,546.863,560.442,550.87,560.442z M584.389,449.583h16.204l-18.807,18.326l20.929,31.538h-16.588l-13.697-22.279
		l-5.306,5.11v17.169h-13.693v-68.866h13.693v36.941L584.389,449.583z M596.87,558.8c0.446,0.731,1.396,1.092,2.853,1.092
		c1.292,0,2.265-0.077,2.911-0.242v5.341c-3.034,0.242-4.53,0.365-4.491,0.365c-3.395,0-5.745-0.688-7.037-2.065
		c-1.092-1.13-1.638-3.115-1.638-5.945v-18.511h-5.222v-5.16h5.222v-9.405h6.918v9.405h6.248v5.16h-6.248v16.75
		C596.386,557.204,596.547,558.277,596.87,558.8z M579.878,521.72v43.332h-6.921V521.72H579.878z M500.982,532.825
		c4.41,0,8.033,1.619,10.863,4.857c2.711,3.034,4.068,6.756,4.068,11.166c0,0.769-0.042,1.538-0.123,2.307h-23.062
		c0,2.63,0.688,4.795,2.063,6.495c1.498,1.861,3.622,2.792,6.373,2.792c3.884,0,6.431-1.742,7.646-5.222h6.556
		c-0.731,3.361-2.399,5.979-5.01,7.86c-2.607,1.88-5.672,2.822-9.192,2.822c-4.816,0-8.579-1.519-11.288-4.553
		c-2.711-3.034-4.066-7.017-4.066-11.955c0-4.61,1.355-8.494,4.066-11.651C492.75,534.467,496.451,532.825,500.982,532.825z
		 M486.011,441.867h-13.695v-11.286h13.695V441.867z M486.011,449.583v49.865h-13.695v-49.865H486.011z M477.073,535.617
		c2.749,2.026,4.287,4.876,4.612,8.559h-6.919c-0.567-3.926-2.953-5.887-7.162-5.887c-2.305,0-4.187,0.708-5.643,2.123
		c-1.982,1.942-2.974,5.037-2.974,9.286c0,2.953,0.627,5.403,1.882,7.344c1.496,2.265,3.641,3.399,6.433,3.399
		c2.023,0,3.691-0.638,5.006-1.915c1.313-1.273,2.134-3.022,2.457-5.249h6.919c-1.336,8.417-6.129,12.624-14.383,12.624
		c-4.776,0-8.538-1.557-11.288-4.672c-2.632-2.915-3.945-6.756-3.945-11.532c0-4.976,1.294-8.982,3.884-12.016
		c2.751-3.238,6.616-4.857,11.591-4.857C471.388,532.825,474.564,533.76,477.073,535.617z M438.717,533.675v6.072h0.123
		c0.404-1.742,1.517-3.33,3.338-4.764c1.821-1.434,3.763-2.157,5.826-2.157c0.525,0,1.396,0.062,2.609,0.185v6.675
		c-1.619-0.204-2.609-0.304-2.974-0.304c-2.467,0-4.47,0.931-6.006,2.792c-1.661,1.942-2.49,4.591-2.49,7.948v14.931h-6.918v-31.377
		H438.717z M614.104,533.675v6.072h0.119c0.404-1.742,1.519-3.33,3.338-4.764c1.823-1.434,3.764-2.157,5.826-2.157
		c0.527,0,1.396,0.062,2.611,0.185v6.675c-1.619-0.204-2.611-0.304-2.972-0.304c-2.469,0-4.472,0.931-6.01,2.792
		c-1.657,1.942-2.488,4.591-2.488,7.948v14.931h-6.917v-31.377H614.104z M608.114,499.447v-14.854h15.142v14.854H608.114z
		 M642.259,538.289c-4.33,0-6.633,1.657-6.917,4.976h-6.918c0.404-6.96,5.156-10.44,14.262-10.44c3.438,0,6.291,0.692,8.556,2.065
		c2.672,1.619,4.007,3.964,4.007,7.041v16.142c0,1.577,0.546,2.369,1.638,2.369c0.646,0,1.215-0.042,1.7-0.123v4.795
		c-1.5,0.523-2.953,0.788-4.368,0.788c-3.076,0-4.857-1.273-5.341-3.822c-2.592,2.549-6.214,3.822-10.863,3.822
		c-3.038,0-5.526-0.769-7.467-2.307c-2.184-1.657-3.276-3.945-3.276-6.856c0-3.48,1.296-5.987,3.884-7.525
		c1.577-0.931,4.31-1.68,8.194-2.246l6.552-0.973c1.903-0.565,2.853-1.719,2.853-3.457
		C648.753,539.704,646.589,538.289,642.259,538.289z M649.249,485.799c1.83,3.12,4.71,4.68,8.632,4.68
		c6.298,0,9.932-3.376,10.897-10.128h13.216c-0.904,6.558-3.461,11.591-7.671,15.094c-4.21,3.505-9.659,5.256-16.346,5.256
		c-7.525,0-13.6-2.363-18.23-7.089c-4.63-4.726-6.944-10.851-6.944-18.374c0-7.971,2.269-14.468,6.802-19.482
		c4.53-5.016,10.751-7.523,18.661-7.523c6.302,0,11.686,1.64,16.158,4.918c4.468,3.28,6.894,7.942,7.279,13.985h-13.404
		c-0.904-5.722-4.28-8.584-10.128-8.584c-3.987,0-6.929,1.625-8.825,4.872c-1.9,3.247-2.845,7.025-2.845,11.332
		C646.5,479,647.415,482.682,649.249,485.799z M671.813,544.842c0.404,0.165,2.734,0.731,6.979,1.7
		c3.157,0.731,5.483,1.619,6.979,2.672c2.103,1.538,3.157,3.699,3.157,6.491c0,3.441-1.519,6.072-4.553,7.89
		c-2.549,1.538-5.702,2.307-9.467,2.307c-4.126,0-7.402-0.888-9.832-2.669c-2.669-1.946-4.026-4.695-4.064-8.256h6.918
		c0.323,3.641,2.692,5.464,7.102,5.464c4.772,0,7.098-1.377,6.979-4.13c-0.081-1.942-1.903-3.338-5.464-4.187
		c-5.945-1.453-9.163-2.303-9.648-2.549c-3.48-1.534-5.218-4.126-5.218-7.767c0-3.115,1.477-5.46,4.43-7.041
		c2.346-1.292,5.237-1.942,8.679-1.942c3.518,0,6.41,0.731,8.679,2.188c2.545,1.7,4.022,4.187,4.43,7.464h-7.221
		c-0.527-2.792-2.653-4.187-6.375-4.187c-3.803,0-5.702,1.073-5.702,3.215C668.599,542.961,669.671,544.076,671.813,544.842z
		 M704.609,485.799c1.83,3.12,4.71,4.68,8.633,4.68c6.298,0,9.932-3.376,10.897-10.128h13.216
		c-0.904,6.558-3.461,11.591-7.671,15.094c-4.21,3.505-9.659,5.256-16.346,5.256c-7.525,0-13.6-2.363-18.23-7.089
		c-4.63-4.726-6.944-10.851-6.944-18.374c0-7.971,2.269-14.468,6.802-19.482c4.53-5.016,10.751-7.523,18.661-7.523
		c6.302,0,11.686,1.64,16.157,4.918c4.468,3.28,6.894,7.942,7.279,13.985h-13.404c-0.904-5.722-4.28-8.584-10.128-8.584
		c-3.987,0-6.929,1.625-8.825,4.872c-1.9,3.247-2.845,7.025-2.845,11.332C701.859,479,702.775,482.682,704.609,485.799z
		 M750.828,560.684c-0.85,1.538-2.115,2.792-3.791,3.761c-1.68,0.973-3.391,1.457-5.129,1.457c-7.81,0-11.713-4.107-11.713-12.32
		v-19.907h6.918v19.238c0,5.018,2.003,7.529,6.01,7.529c5.137,0,7.706-2.853,7.706-8.559v-18.207h6.918v31.377h-6.794v-4.368
		H750.828z M724.431,549.333c0,4.937-1.377,8.902-4.13,11.897c-2.872,3.115-6.775,4.672-11.712,4.672
		c-4.933,0-8.84-1.557-11.712-4.672c-2.749-2.995-4.126-6.96-4.126-11.897c0-4.895,1.407-8.867,4.218-11.924
		c2.811-3.053,6.687-4.583,11.62-4.583c4.937,0,8.84,1.561,11.712,4.676C723.054,540.493,724.431,544.438,724.431,549.333z
		 M771.704,538.409c2.226-3.718,5.483-5.583,9.771-5.583c3.48,0,6.198,0.911,8.163,2.734c1.961,1.819,2.942,4.468,2.942,7.948
		v21.545h-6.917V545.33c0-4.695-2.042-7.041-6.129-7.041c-2.265,0-4.095,0.788-5.491,2.365c-1.396,1.58-2.096,3.541-2.096,5.887
		v18.511h-6.918v-31.377h6.552v4.614L771.704,538.409z M822.741,560.803c-1.742,3.399-4.976,5.099-9.709,5.099
		c-4.776,0-8.456-1.619-11.047-4.857c-2.426-2.992-3.641-6.956-3.641-11.893c0-5.341,1.419-9.486,4.249-12.439
		c2.469-2.592,5.583-3.888,9.348-3.888c4.933,0,8.413,1.642,10.436,4.918h0.123V521.72h6.918v43.332h-6.552v-4.249H822.741z
		 M837.195,408.6H170.997v-80.341c0-6.022,3.525-13.787,8.184-19.326H398.65l13.103-23.867l23.652,65.543l25.105-131.498
		l31.74,173.493l29.139-128.978l8.486,45.914h95.476l7.498-23.212l8.256,63.086l15.811-51.455l4.157,10.115h51.63l8.855-15.296
		l11.266,41.993l15.946-26.668h79.572c4.999,5.568,8.852,13.841,8.852,20.155V408.6z M635.935,747.803
		c-4.566-22.605-15.434-43.701-31.233-60.618l-18.14,11.479c14.239,14.107,24.151,32.137,28.422,51.58L635.935,747.803z
		 M408.688,751.847c4.271-19.443,14.183-37.473,28.422-51.58l-18.14-11.479c-15.799,16.917-26.667,38.013-31.233,60.618
		L408.688,751.847z M360.964,743.263c4.158-25.559,15.223-49.147,32.271-68.781l-21.579-13.655
		c-18.977,22.896-31.241,50.121-35.807,79.511L360.964,743.263z M452.961,817.642c7.955,7.955,17.302,13.669,27.256,17.142
		l6.246-16.381l11.749-30.813c-9.231-2.572-16.006-11.034-16.006-21.085c0-12.091,9.801-21.892,21.892-21.892
		s21.892,9.801,21.892,21.892c0,10.201-6.977,18.772-16.419,21.202l11.755,30.827c3.993-1.318,7.862-3.109,11.525-5.37
		l14.754,11.113c2.657-2.006,5.21-4.214,7.631-6.635c2.421-2.421,4.629-4.974,6.635-7.631l-11.113-14.755
		c3.115-5.045,5.342-10.481,6.668-16.09l18.285-2.574c0.937-6.69,0.937-13.486,0-20.176l-18.285-2.574
		c-1.326-5.609-3.553-11.045-6.668-16.09l11.113-14.755c-2.006-2.657-4.214-5.21-6.635-7.631c-2.421-2.421-4.974-4.629-7.631-6.635
		l-14.754,11.113c-5.045-3.115-10.481-5.342-16.09-6.668l-2.574-18.286c-6.69-0.937-13.486-0.937-20.176,0
		c-15.017,2.104-29.5,8.927-41.049,20.476C424.719,743.61,424.719,789.4,452.961,817.642z"/>
</g>
</svg>
