<?xml version="1.0" encoding="UTF-8" standalone="no"?>
<!DOCTYPE svg PUBLIC "-//W3C//DTD SVG 1.1//EN"
 "http://www.w3.org/Graphics/SVG/1.1/DTD/svg11.dtd">
<!-- Generated by graphviz version 2.38.0 (20140413.2041)
 -->
<!-- Title: %3 Pages: 1 -->
<svg width="679pt" height="188pt"
 viewBox="0.00 0.00 679.48 188.00" xmlns="http://www.w3.org/2000/svg" xmlns:xlink="http://www.w3.org/1999/xlink">
<g id="graph0" class="graph" transform="scale(1 1) rotate(0) translate(4 184)">
<title>%3</title>
<polygon fill="white" stroke="none" points="-4,4 -4,-184 675.484,-184 675.484,4 -4,4"/>
<!-- ITF&#45;B_5v -->
<g id="node1" class="node"><title>ITF&#45;B_5v</title>
<ellipse fill="none" stroke="black" cx="322.893" cy="-162" rx="46.2923" ry="18"/>
<text text-anchor="middle" x="322.893" y="-158.3" font-family="Times,serif" font-size="14.00">ITF&#45;B_5v</text>
</g>
<!-- ArduinoTrinketPro -->
<g id="node2" class="node"><title>ArduinoTrinketPro</title>
<ellipse fill="none" stroke="black" cx="322.893" cy="-90" rx="77.9862" ry="18"/>
<text text-anchor="middle" x="322.893" y="-86.3" font-family="Times,serif" font-size="14.00">ArduinoTrinketPro</text>
</g>
<!-- ITF&#45;B_5v&#45;&gt;ArduinoTrinketPro -->
<g id="edge1" class="edge"><title>ITF&#45;B_5v&#45;&gt;ArduinoTrinketPro</title>
<path fill="none" stroke="black" d="M322.893,-143.697C322.893,-135.983 322.893,-126.712 322.893,-118.112"/>
<polygon fill="black" stroke="black" points="326.393,-118.104 322.893,-108.104 319.393,-118.104 326.393,-118.104"/>
</g>
<!-- ITF&#45;G_gain_control -->
<g id="node3" class="node"><title>ITF&#45;G_gain_control</title>
<ellipse fill="none" stroke="black" cx="81.8927" cy="-18" rx="81.7856" ry="18"/>
<text text-anchor="middle" x="81.8927" y="-14.3" font-family="Times,serif" font-size="14.00">ITF&#45;G_gain_control</text>
</g>
<!-- ArduinoTrinketPro&#45;&gt;ITF&#45;G_gain_control -->
<g id="edge2" class="edge"><title>ArduinoTrinketPro&#45;&gt;ITF&#45;G_gain_control</title>
<path fill="none" stroke="black" d="M276.426,-75.5033C237.297,-64.1382 181.165,-47.8343 139.245,-35.6582"/>
<polygon fill="black" stroke="black" points="140.032,-32.2423 129.453,-32.8141 138.079,-38.9645 140.032,-32.2423"/>
</g>
<!-- ITF&#45;I_pulse_on -->
<g id="node4" class="node"><title>ITF&#45;I_pulse_on</title>
<ellipse fill="none" stroke="black" cx="247.893" cy="-18" rx="65.7887" ry="18"/>
<text text-anchor="middle" x="247.893" y="-14.3" font-family="Times,serif" font-size="14.00">ITF&#45;I_pulse_on</text>
</g>
<!-- ArduinoTrinketPro&#45;&gt;ITF&#45;I_pulse_on -->
<g id="edge3" class="edge"><title>ArduinoTrinketPro&#45;&gt;ITF&#45;I_pulse_on</title>
<path fill="none" stroke="black" d="M305.119,-72.411C295.498,-63.4318 283.456,-52.1926 272.904,-42.3436"/>
<polygon fill="black" stroke="black" points="275.238,-39.7345 265.539,-35.4699 270.462,-44.8519 275.238,-39.7345"/>
</g>
<!-- ITF&#45;J_pulse_off -->
<g id="node5" class="node"><title>ITF&#45;J_pulse_off</title>
<ellipse fill="none" stroke="black" cx="398.893" cy="-18" rx="67.6881" ry="18"/>
<text text-anchor="middle" x="398.893" y="-14.3" font-family="Times,serif" font-size="14.00">ITF&#45;J_pulse_off</text>
</g>
<!-- ArduinoTrinketPro&#45;&gt;ITF&#45;J_pulse_off -->
<g id="edge4" class="edge"><title>ArduinoTrinketPro&#45;&gt;ITF&#45;J_pulse_off</title>
<path fill="none" stroke="black" d="M340.904,-72.411C350.652,-63.4318 362.855,-52.1926 373.548,-42.3436"/>
<polygon fill="black" stroke="black" points="376.027,-44.8192 381.011,-35.4699 371.284,-39.6703 376.027,-44.8192"/>
</g>
<!-- ITF&#45;N_cc_motor_pwm -->
<g id="node6" class="node"><title>ITF&#45;N_cc_motor_pwm</title>
<ellipse fill="none" stroke="black" cx="577.893" cy="-18" rx="93.6835" ry="18"/>
<text text-anchor="middle" x="577.893" y="-14.3" font-family="Times,serif" font-size="14.00">ITF&#45;N_cc_motor_pwm</text>
</g>
<!-- ArduinoTrinketPro&#45;&gt;ITF&#45;N_cc_motor_pwm -->
<g id="edge5" class="edge"><title>ArduinoTrinketPro&#45;&gt;ITF&#45;N_cc_motor_pwm</title>
<path fill="none" stroke="black" d="M371.156,-75.7512C412.367,-64.4385 471.875,-48.1029 516.475,-35.8598"/>
<polygon fill="black" stroke="black" points="517.607,-39.1785 526.324,-33.1562 515.754,-32.4283 517.607,-39.1785"/>
</g>
</g>
</svg>
