%FSLAX23Y23*%
%MOIN*%
G70*
G01*
G75*
G04 Layer_Color=65535*
%ADD10R,0.065X0.040*%
%ADD11R,0.051X0.118*%
%ADD12R,0.022X0.039*%
%ADD13R,0.049X0.016*%
%ADD14R,0.040X0.055*%
%ADD15C,0.060*%
%ADD16R,0.060X0.060*%
%ADD17R,0.055X0.040*%
%ADD18C,0.020*%
%ADD19C,0.015*%
%ADD20C,0.010*%
%ADD21C,0.090*%
%ADD22C,0.067*%
%ADD23C,0.031*%
%ADD24R,0.060X0.060*%
%ADD25C,0.050*%
%ADD26C,0.012*%
%ADD27C,0.006*%
%ADD28C,0.007*%
%ADD29C,0.007*%
%ADD30C,0.008*%
D20*
X2494Y2121D02*
X2584D01*
X2494Y2311D02*
X2584D01*
Y2121D02*
Y2311D01*
X2494Y2121D02*
Y2311D01*
X2111Y2121D02*
X2201D01*
X2111Y2311D02*
X2201D01*
Y2121D02*
Y2311D01*
X2111Y2121D02*
Y2311D01*
X2065Y1413D02*
X2265D01*
X2065D02*
Y1736D01*
X2150D01*
X2181D01*
X2261D01*
X2265Y1413D02*
Y1732D01*
X2261Y1736D02*
X2265Y1732D01*
X1269Y1845D02*
X1316D01*
X1269D02*
Y2126D01*
X1269Y2126D01*
X1317D01*
X1486Y1846D02*
Y1859D01*
X1438Y1846D02*
X1486D01*
Y2115D02*
Y2126D01*
X1437D02*
X1486D01*
X2452Y1642D02*
Y1726D01*
X2307Y1642D02*
Y1726D01*
Y1642D02*
X2452D01*
X2307Y1726D02*
X2452D01*
X1869Y1413D02*
X2069D01*
X1869D02*
Y1736D01*
X1953D01*
X1984D01*
X2064D01*
X2069Y1413D02*
Y1732D01*
X2064Y1736D02*
X2069Y1732D01*
X1644Y1930D02*
X1734D01*
X1644Y2120D02*
X1734D01*
Y1930D02*
Y2120D01*
X1644Y1930D02*
Y2120D01*
X2680Y1863D02*
X2702D01*
X2612D02*
X2635D01*
X2702D02*
Y2083D01*
X2612Y1863D02*
Y2083D01*
X2635Y1863D02*
X2680D01*
X2612Y2083D02*
X2702D01*
X2494Y2084D02*
X2517D01*
X2562D02*
X2584D01*
X2494Y1864D02*
Y2084D01*
X2584Y1864D02*
Y2084D01*
X2517D02*
X2562D01*
X2494Y1864D02*
X2584D01*
X2434Y2089D02*
X2456D01*
X2366D02*
X2389D01*
X2456D02*
Y2309D01*
X2366Y2089D02*
Y2309D01*
X2389Y2089D02*
X2434D01*
X2366Y2309D02*
X2456D01*
X2238Y2311D02*
X2261D01*
X2306D02*
X2328D01*
X2238Y2091D02*
Y2311D01*
X2328Y2091D02*
Y2311D01*
X2261D02*
X2306D01*
X2238Y2091D02*
X2328D01*
X2178Y1863D02*
X2201D01*
X2111D02*
X2133D01*
X2201D02*
Y2083D01*
X2111Y1863D02*
Y2083D01*
X2133Y1863D02*
X2178D01*
X2111Y2083D02*
X2201D01*
X2543Y1551D02*
X2633D01*
X2543Y1741D02*
X2633D01*
Y1551D02*
Y1741D01*
X2543Y1551D02*
Y1741D01*
X2655Y1551D02*
X2745D01*
X2655Y1741D02*
X2745D01*
Y1551D02*
Y1741D01*
X2655Y1551D02*
Y1741D01*
X2366Y1865D02*
X2456D01*
X2366Y2055D02*
X2456D01*
Y1865D02*
Y2055D01*
X2366Y1865D02*
Y2055D01*
X2238Y1865D02*
X2328D01*
X2238Y2055D02*
X2328D01*
Y1865D02*
Y2055D01*
X2238Y1865D02*
Y2055D01*
X1966Y2200D02*
X2050D01*
X1966Y2055D02*
X2050D01*
Y2200D01*
X1966Y2055D02*
Y2200D01*
Y2023D02*
X2050D01*
X1966Y1878D02*
X2050D01*
Y2023D01*
X1966Y1878D02*
Y2023D01*
X1475Y1413D02*
X1675D01*
X1475D02*
Y1736D01*
X1559D01*
X1590D01*
X1670D01*
X1675Y1413D02*
Y1732D01*
X1670Y1736D02*
X1675Y1732D01*
X1672Y1736D02*
X1872D01*
Y1413D02*
Y1736D01*
X1787Y1413D02*
X1872D01*
X1756D02*
X1787D01*
X1676D02*
X1756D01*
X1672Y1418D02*
Y1736D01*
Y1418D02*
X1676Y1413D01*
X2309Y1469D02*
Y1594D01*
Y1294D02*
Y1494D01*
X2509Y1294D02*
Y1594D01*
X2309Y1294D02*
X2509D01*
X2309Y1594D02*
X2509D01*
X1260Y2380D02*
Y2415D01*
X1270Y2425D01*
X2790D01*
X1260Y1240D02*
Y2380D01*
X2790Y2425D02*
X2795Y2420D01*
Y1240D02*
Y2420D01*
X1260Y1240D02*
X2795D01*
D27*
X1728Y2173D02*
X1933D01*
X1728D02*
Y2324D01*
X1933D01*
Y2173D02*
Y2324D01*
X1775Y1947D02*
X1788Y1934D01*
X1907D01*
Y2111D01*
X1775Y1947D02*
Y1976D01*
X1777Y2111D02*
X1806D01*
X1775Y2110D02*
X1777Y2111D01*
X1775Y2069D02*
Y2110D01*
Y1976D02*
Y2069D01*
X1806Y2111D02*
X1878D01*
X1907D01*
X1907Y2111D01*
D28*
X1783Y1835D02*
X1820D01*
X1827Y1842D01*
Y1856D01*
X1820Y1864D01*
X1783D01*
X1827Y1878D02*
Y1892D01*
Y1885D01*
X1783D01*
X1791Y1878D01*
X2018Y1781D02*
X1974D01*
Y1803D01*
X1982Y1810D01*
X1996D01*
X2003Y1803D01*
Y1781D01*
Y1796D02*
X2018Y1810D01*
X1982Y1825D02*
X1974Y1832D01*
Y1846D01*
X1982Y1854D01*
X1989D01*
X1996Y1846D01*
Y1839D01*
Y1846D01*
X2003Y1854D01*
X2011D01*
X2018Y1846D01*
Y1832D01*
X2011Y1825D01*
X2028Y2234D02*
X1984D01*
Y2256D01*
X1991Y2263D01*
X2006D01*
X2013Y2256D01*
Y2234D01*
Y2249D02*
X2028Y2263D01*
Y2306D02*
Y2278D01*
X1999Y2306D01*
X1991D01*
X1984Y2299D01*
Y2285D01*
X1991Y2278D01*
X2468Y1659D02*
Y1703D01*
X2489D01*
X2496Y1696D01*
Y1681D01*
X2489Y1674D01*
X2468D01*
X2482D02*
X2496Y1659D01*
X2511D02*
X2525D01*
X2518D01*
Y1703D01*
X2511Y1696D01*
X1660Y2221D02*
X1704D01*
Y2250D01*
Y2265D02*
Y2279D01*
Y2272D01*
X1660D01*
X1668Y2265D01*
X1742Y1707D02*
Y1663D01*
Y1678D01*
X1771Y1707D01*
X1749Y1685D01*
X1771Y1663D01*
X1814Y1707D02*
X1785D01*
Y1685D01*
X1800Y1692D01*
X1807D01*
X1814Y1685D01*
Y1671D01*
X1807Y1663D01*
X1793D01*
X1785Y1671D01*
X1535Y1707D02*
Y1663D01*
Y1678D01*
X1564Y1707D01*
X1543Y1685D01*
X1564Y1663D01*
X1600D02*
Y1707D01*
X1579Y1685D01*
X1608D01*
X1939Y1707D02*
Y1663D01*
Y1678D01*
X1968Y1707D01*
X1946Y1685D01*
X1968Y1663D01*
X1982Y1699D02*
X1989Y1707D01*
X2004D01*
X2011Y1699D01*
Y1692D01*
X2004Y1685D01*
X1997D01*
X2004D01*
X2011Y1678D01*
Y1671D01*
X2004Y1663D01*
X1989D01*
X1982Y1671D01*
X2126Y1707D02*
Y1663D01*
Y1678D01*
X2155Y1707D01*
X2133Y1685D01*
X2155Y1663D01*
X2198D02*
X2169D01*
X2198Y1692D01*
Y1699D01*
X2191Y1707D01*
X2176D01*
X2169Y1699D01*
X1305Y1722D02*
X1348D01*
X1334D01*
X1305Y1751D01*
X1327Y1730D01*
X1348Y1751D01*
Y1766D02*
Y1780D01*
Y1773D01*
X1305D01*
X1312Y1766D01*
X2636Y1772D02*
X2679D01*
Y1793D01*
X2672Y1801D01*
X2643D01*
X2636Y1793D01*
Y1772D01*
Y1844D02*
Y1815D01*
X2657D01*
X2650Y1829D01*
Y1837D01*
X2657Y1844D01*
X2672D01*
X2679Y1837D01*
Y1822D01*
X2672Y1815D01*
X2516Y1772D02*
X2559D01*
Y1793D01*
X2552Y1801D01*
X2523D01*
X2516Y1793D01*
Y1772D01*
X2559Y1837D02*
X2516D01*
X2537Y1815D01*
Y1844D01*
X2388Y2333D02*
X2431D01*
Y2354D01*
X2424Y2362D01*
X2395D01*
X2388Y2354D01*
Y2333D01*
X2395Y2376D02*
X2388Y2383D01*
Y2398D01*
X2395Y2405D01*
X2402D01*
X2409Y2398D01*
Y2390D01*
Y2398D01*
X2417Y2405D01*
X2424D01*
X2431Y2398D01*
Y2383D01*
X2424Y2376D01*
X2260Y2333D02*
X2303D01*
Y2354D01*
X2296Y2362D01*
X2267D01*
X2260Y2354D01*
Y2333D01*
X2303Y2405D02*
Y2376D01*
X2274Y2405D01*
X2267D01*
X2260Y2398D01*
Y2383D01*
X2267Y2376D01*
X2132Y1781D02*
X2175D01*
Y1803D01*
X2168Y1810D01*
X2139D01*
X2132Y1803D01*
Y1781D01*
X2175Y1825D02*
Y1839D01*
Y1832D01*
X2132D01*
X2139Y1825D01*
X2405Y1801D02*
X2398Y1793D01*
Y1779D01*
X2405Y1772D01*
X2434D01*
X2441Y1779D01*
Y1793D01*
X2434Y1801D01*
X2398Y1815D02*
Y1844D01*
X2405D01*
X2434Y1815D01*
X2441D01*
X2267Y1801D02*
X2260Y1793D01*
Y1779D01*
X2267Y1772D01*
X2296D01*
X2303Y1779D01*
Y1793D01*
X2296Y1801D01*
X2260Y1844D02*
X2267Y1829D01*
X2282Y1815D01*
X2296D01*
X2303Y1822D01*
Y1837D01*
X2296Y1844D01*
X2289D01*
X2282Y1837D01*
Y1815D01*
X2687Y1487D02*
X2680Y1479D01*
Y1465D01*
X2687Y1458D01*
X2716D01*
X2723Y1465D01*
Y1479D01*
X2716Y1487D01*
X2680Y1530D02*
Y1501D01*
X2702D01*
X2695Y1515D01*
Y1523D01*
X2702Y1530D01*
X2716D01*
X2723Y1523D01*
Y1508D01*
X2716Y1501D01*
X2569Y1487D02*
X2562Y1479D01*
Y1465D01*
X2569Y1458D01*
X2598D01*
X2605Y1465D01*
Y1479D01*
X2598Y1487D01*
X2605Y1523D02*
X2562D01*
X2584Y1501D01*
Y1530D01*
X1677Y1856D02*
X1669Y1848D01*
Y1834D01*
X1677Y1827D01*
X1705D01*
X1713Y1834D01*
Y1848D01*
X1705Y1856D01*
X1677Y1870D02*
X1669Y1877D01*
Y1892D01*
X1677Y1899D01*
X1684D01*
X1691Y1892D01*
Y1884D01*
Y1892D01*
X1698Y1899D01*
X1705D01*
X1713Y1892D01*
Y1877D01*
X1705Y1870D01*
X2523Y2362D02*
X2516Y2354D01*
Y2340D01*
X2523Y2333D01*
X2552D01*
X2559Y2340D01*
Y2354D01*
X2552Y2362D01*
X2559Y2405D02*
Y2376D01*
X2530Y2405D01*
X2523D01*
X2516Y2398D01*
Y2383D01*
X2523Y2376D01*
X2139Y2362D02*
X2132Y2354D01*
Y2340D01*
X2139Y2333D01*
X2168D01*
X2175Y2340D01*
Y2354D01*
X2168Y2362D01*
X2175Y2376D02*
Y2390D01*
Y2383D01*
X2132D01*
X2139Y2376D01*
D29*
X2529Y1314D02*
X2568D01*
X2555D01*
X2529Y1340D01*
X2548Y1321D01*
X2568Y1340D01*
X2529Y1380D02*
X2535Y1366D01*
X2548Y1353D01*
X2561D01*
X2568Y1360D01*
Y1373D01*
X2561Y1380D01*
X2555D01*
X2548Y1373D01*
Y1353D01*
D30*
X2175Y1272D02*
Y1301D01*
X2161Y1286D02*
X2190D01*
X2154Y1315D02*
X2182D01*
X2197Y1329D01*
X2182Y1344D01*
X2154D01*
Y1358D02*
X2197D01*
X2175D01*
Y1387D01*
X2154D01*
X2197D01*
X1766Y1276D02*
Y1304D01*
X1751Y1290D02*
X1780D01*
X1744Y1348D02*
Y1319D01*
X1766D01*
X1759Y1333D01*
Y1341D01*
X1766Y1348D01*
X1780D01*
X1787Y1341D01*
Y1326D01*
X1780Y1319D01*
X1744Y1362D02*
X1773D01*
X1787Y1377D01*
X1773Y1391D01*
X1744D01*
X1952Y1304D02*
X1945Y1297D01*
Y1283D01*
X1952Y1276D01*
X1981D01*
X1988Y1283D01*
Y1297D01*
X1981Y1304D01*
X1967D01*
Y1290D01*
X1988Y1319D02*
X1945D01*
X1988Y1348D01*
X1945D01*
Y1362D02*
X1988D01*
Y1384D01*
X1981Y1391D01*
X1952D01*
X1945Y1384D01*
Y1362D01*
X1558Y1304D02*
X1551Y1297D01*
Y1283D01*
X1558Y1276D01*
X1587D01*
X1594Y1283D01*
Y1297D01*
X1587Y1304D01*
X1573D01*
Y1290D01*
X1594Y1319D02*
X1551D01*
X1594Y1348D01*
X1551D01*
Y1362D02*
X1594D01*
Y1384D01*
X1587Y1391D01*
X1558D01*
X1551Y1384D01*
Y1362D01*
M02*
