%FSLAX23Y23*%
%MOIN*%
G70*
G01*
G75*
G04 Layer_Color=2752767*
%ADD10R,0.065X0.040*%
%ADD11R,0.051X0.118*%
%ADD12R,0.022X0.039*%
%ADD13R,0.049X0.016*%
%ADD14R,0.040X0.055*%
%ADD15C,0.060*%
%ADD16R,0.060X0.060*%
%ADD17R,0.055X0.040*%
%ADD18C,0.020*%
%ADD19C,0.015*%
%ADD20C,0.010*%
%ADD21C,0.090*%
%ADD22C,0.067*%
%ADD23C,0.031*%
%ADD24R,0.060X0.060*%
%ADD25C,0.050*%
%ADD26C,0.012*%
%ADD27C,0.006*%
%ADD28C,0.007*%
%ADD29C,0.007*%
%ADD30C,0.008*%
%ADD31R,0.073X0.048*%
%ADD32R,0.059X0.126*%
%ADD33R,0.030X0.047*%
%ADD34R,0.057X0.024*%
%ADD35R,0.048X0.063*%
%ADD36C,0.068*%
%ADD37R,0.068X0.068*%
%ADD38R,0.063X0.048*%
%ADD39C,0.098*%
%ADD40C,0.075*%
%ADD41C,0.039*%
%ADD42R,0.068X0.068*%
%ADD43C,0.058*%
%ADD44C,0.005*%
%ADD45C,0.007*%
D20*
X1260Y2380D02*
Y2415D01*
X1270Y2425D01*
X2790D01*
X1260Y1240D02*
Y2380D01*
X2790Y2425D02*
X2795Y2420D01*
Y1240D02*
Y2420D01*
X1260Y1240D02*
X2795D01*
D44*
X2145Y1555D02*
Y1595D01*
X2185D01*
Y1555D01*
X2145D01*
X1486Y1871D02*
X1466Y1911D01*
X1506D01*
X1486Y1871D01*
Y2062D02*
X1466Y2102D01*
X1506D01*
X1486Y2062D01*
X1949Y1555D02*
Y1595D01*
X1989D01*
Y1555D01*
X1949D01*
X1555Y1555D02*
Y1595D01*
X1595D01*
Y1555D01*
X1555D01*
X1752Y1555D02*
Y1595D01*
X1792D01*
Y1555D01*
X1752D01*
X2697Y1319D02*
X2707Y1329D01*
X2717D01*
X2707Y1339D01*
X2717Y1349D01*
X2707D01*
X2697Y1359D01*
X2687Y1349D01*
X2677D01*
X2687Y1339D01*
X2677Y1329D01*
X2687D01*
X2697Y1319D01*
Y2303D02*
X2707Y2313D01*
X2717D01*
X2707Y2323D01*
X2717Y2333D01*
X2707D01*
X2697Y2343D01*
X2687Y2333D01*
X2677D01*
X2687Y2323D01*
X2677Y2313D01*
X2687D01*
X2697Y2303D01*
X1358Y1319D02*
X1368Y1329D01*
X1378D01*
X1368Y1339D01*
X1378Y1349D01*
X1368D01*
X1358Y1359D01*
X1348Y1349D01*
X1338D01*
X1348Y1339D01*
X1338Y1329D01*
X1348D01*
X1358Y1319D01*
Y2303D02*
X1368Y2313D01*
X1378D01*
X1368Y2323D01*
X1378Y2333D01*
X1368D01*
X1358Y2343D01*
X1348Y2333D01*
X1338D01*
X1348Y2323D01*
X1338Y2313D01*
X1348D01*
X1358Y2303D01*
X2339Y1324D02*
X2349Y1344D01*
X2339Y1364D01*
X2359Y1354D01*
X2379Y1364D01*
X2369Y1344D01*
X2379Y1324D01*
X2359Y1334D01*
X2339Y1324D01*
Y1524D02*
X2349Y1544D01*
X2339Y1564D01*
X2359Y1554D01*
X2379Y1564D01*
X2369Y1544D01*
X2379Y1524D01*
X2359Y1534D01*
X2339Y1524D01*
Y1424D02*
X2349Y1444D01*
X2339Y1464D01*
X2359Y1454D01*
X2379Y1464D01*
X2369Y1444D01*
X2379Y1424D01*
X2359Y1434D01*
X2339Y1424D01*
X2439Y1324D02*
X2449Y1344D01*
X2439Y1364D01*
X2459Y1354D01*
X2479Y1364D01*
X2469Y1344D01*
X2479Y1324D01*
X2459Y1334D01*
X2439Y1324D01*
Y1524D02*
X2449Y1544D01*
X2439Y1564D01*
X2459Y1554D01*
X2479Y1564D01*
X2469Y1544D01*
X2479Y1524D01*
X2459Y1534D01*
X2439Y1524D01*
Y1424D02*
X2449Y1444D01*
X2439Y1464D01*
X2459Y1454D01*
X2479Y1464D01*
X2469Y1444D01*
X2479Y1424D01*
X2459Y1434D01*
X2439Y1424D01*
X2342Y1791D02*
Y1781D01*
X2362D01*
Y1791D01*
X2372D01*
Y1811D01*
X2362D01*
Y1821D01*
X2342D01*
Y1811D01*
X2332D01*
Y1791D01*
X2342D01*
X2616Y2124D02*
Y2114D01*
X2636D01*
Y2124D01*
X2646D01*
Y2144D01*
X2636D01*
Y2154D01*
X2616D01*
Y2144D01*
X2606D01*
Y2124D01*
X2616D01*
X2684Y2122D02*
Y2112D01*
X2704D01*
Y2122D01*
X2714D01*
Y2142D01*
X2704D01*
Y2152D01*
X2684D01*
Y2142D01*
X2674D01*
Y2122D01*
X2684D01*
D45*
X1397Y1846D02*
G03*
X1397Y1846I-20J0D01*
G01*
Y2126D02*
G03*
X1397Y2126I-20J0D01*
G01*
M02*
