M48
;Layer_Color=9474304
;FILE_FORMAT=2:3
INCH,LZ
;TYPE=PLATED
T1F00S00C0.020
T2F00S00C0.028
T3F00S00C0.038
T4F00S00C0.047
T5F00S00C0.055
;TYPE=NON_PLATED
T6F00S00C0.122
%
T01
X01486Y01891
Y02082
T02
X02352Y01801
X02626Y02134
X02694Y02132
T03
X02359Y01344
Y01444
Y01544
X02459
Y01444
Y01344
T04
X01377Y01846
Y02126
T05
X01575Y01575
X01772Y01575
X01969
X02165
T06
X01358Y01339
X02697Y01339
Y02323
X01358
M30
