%FSLAX23Y23*%
%MOIN*%
G70*
G01*
G75*
%ADD10R,0.065X0.040*%
%ADD11R,0.051X0.118*%
%ADD12R,0.022X0.039*%
%ADD13R,0.049X0.016*%
%ADD14R,0.040X0.055*%
%ADD15C,0.060*%
%ADD16R,0.060X0.060*%
%ADD17R,0.055X0.040*%
%ADD18C,0.020*%
%ADD19C,0.015*%
%ADD20C,0.010*%
%ADD21C,0.090*%
%ADD22C,0.067*%
%ADD23C,0.031*%
%ADD24R,0.060X0.060*%
%ADD25C,0.050*%
%ADD26C,0.012*%
%ADD27C,0.006*%
%ADD28C,0.007*%
%ADD29C,0.007*%
%ADD30C,0.008*%
%ADD31R,0.073X0.048*%
%ADD32R,0.059X0.126*%
%ADD33R,0.030X0.047*%
%ADD34R,0.057X0.024*%
%ADD35R,0.048X0.063*%
%ADD36C,0.068*%
%ADD37R,0.068X0.068*%
%ADD38R,0.063X0.048*%
%ADD39C,0.098*%
%ADD40C,0.075*%
%ADD41C,0.039*%
%ADD42R,0.068X0.068*%
%ADD43C,0.058*%
%ADD44C,0.005*%
%ADD45C,0.007*%
D20*
X1260Y2380D02*
Y2415D01*
X1270Y2425D01*
X2790D01*
X1260Y1240D02*
Y2380D01*
X2790Y2425D02*
X2795Y2420D01*
Y1240D02*
Y2420D01*
X1260Y1240D02*
X2795D01*
D44*
X2138Y1575D02*
X2193D01*
X2165Y1547D02*
Y1602D01*
X1353Y1846D02*
X1401D01*
X1377Y1823D02*
Y1870D01*
X1353Y2126D02*
X1401D01*
X1377Y2102D02*
Y2150D01*
X1476Y1891D02*
X1496D01*
X1486Y1881D02*
Y1901D01*
X1476Y2082D02*
X1496D01*
X1486Y2072D02*
Y2092D01*
X1941Y1575D02*
X1996D01*
X1969Y1547D02*
Y1602D01*
X1547Y1575D02*
X1602D01*
X1575Y1547D02*
Y1602D01*
X1744Y1575D02*
X1799D01*
X1772Y1547D02*
Y1602D01*
X2636Y1339D02*
X2758D01*
X2697Y1278D02*
Y1400D01*
X2636Y2323D02*
X2758D01*
X2697Y2262D02*
Y2384D01*
X1297Y1339D02*
X1419D01*
X1358Y1278D02*
Y1400D01*
X1297Y2323D02*
X1419D01*
X1358Y2262D02*
Y2384D01*
X2340Y1344D02*
X2378D01*
X2359Y1325D02*
Y1363D01*
X2340Y1544D02*
X2378D01*
X2359Y1525D02*
Y1563D01*
X2340Y1444D02*
X2378D01*
X2359Y1425D02*
Y1463D01*
X2440Y1344D02*
X2478D01*
X2459Y1325D02*
Y1363D01*
X2440Y1544D02*
X2478D01*
X2459Y1525D02*
Y1563D01*
X2440Y1444D02*
X2478D01*
X2459Y1425D02*
Y1463D01*
X2338Y1801D02*
X2366D01*
X2352Y1787D02*
Y1815D01*
X2612Y2134D02*
X2640D01*
X2626Y2120D02*
Y2148D01*
X2680Y2132D02*
X2708D01*
X2694Y2118D02*
Y2146D01*
M02*
