%FSLAX23Y23*%
%MOIN*%
G70*
G01*
G75*
G04 Layer_Color=8388736*
%ADD10R,0.065X0.040*%
%ADD11R,0.051X0.118*%
%ADD12R,0.022X0.039*%
%ADD13R,0.049X0.016*%
%ADD14R,0.040X0.055*%
%ADD15C,0.060*%
%ADD16R,0.060X0.060*%
%ADD17R,0.055X0.040*%
%ADD18C,0.020*%
%ADD19C,0.015*%
%ADD20C,0.010*%
%ADD21C,0.090*%
%ADD22C,0.067*%
%ADD23C,0.031*%
%ADD24R,0.060X0.060*%
%ADD25C,0.050*%
%ADD26C,0.012*%
%ADD27C,0.006*%
%ADD28C,0.007*%
%ADD29C,0.007*%
%ADD30C,0.008*%
%ADD31R,0.073X0.048*%
%ADD32R,0.059X0.126*%
%ADD33R,0.030X0.047*%
%ADD34R,0.057X0.024*%
%ADD35R,0.048X0.063*%
%ADD36C,0.068*%
%ADD37R,0.068X0.068*%
%ADD38R,0.063X0.048*%
%ADD39C,0.098*%
%ADD40C,0.075*%
%ADD41C,0.039*%
%ADD42R,0.068X0.068*%
%ADD43C,0.058*%
D20*
X1260Y2380D02*
Y2415D01*
X1270Y2425D01*
X2790D01*
X1260Y1240D02*
Y2380D01*
X2790Y2425D02*
X2795Y2420D01*
Y1240D02*
Y2420D01*
X1260Y1240D02*
X2795D01*
D31*
X2539Y2276D02*
D03*
Y2156D02*
D03*
X2156Y2276D02*
D03*
Y2156D02*
D03*
X1689Y2085D02*
D03*
Y1965D02*
D03*
X2588Y1706D02*
D03*
Y1586D02*
D03*
X2700Y1706D02*
D03*
Y1586D02*
D03*
X2411Y2020D02*
D03*
Y1900D02*
D03*
X2283Y2020D02*
D03*
Y1900D02*
D03*
D32*
X1769Y2248D02*
D03*
X1895D02*
D03*
D33*
X1803Y2077D02*
D03*
X1841D02*
D03*
X1803Y1969D02*
D03*
X1841D02*
D03*
X1879Y2076D02*
D03*
Y1969D02*
D03*
D34*
X1486Y1935D02*
D03*
Y1961D02*
D03*
Y1986D02*
D03*
Y2012D02*
D03*
Y2037D02*
D03*
D35*
X2342Y1684D02*
D03*
X2417D02*
D03*
D36*
X2657Y2038D02*
D03*
X2539Y1909D02*
D03*
X2411Y2264D02*
D03*
X2283Y2136D02*
D03*
X2156Y2038D02*
D03*
X2697Y1339D02*
D03*
Y2323D02*
D03*
X1358Y1339D02*
D03*
Y2323D02*
D03*
X2359Y1344D02*
D03*
Y1444D02*
D03*
X2459Y1344D02*
D03*
Y1544D02*
D03*
Y1444D02*
D03*
D37*
X2657Y1908D02*
D03*
X2539Y2039D02*
D03*
X2411Y2134D02*
D03*
X2283Y2266D02*
D03*
X2156Y1908D02*
D03*
D38*
X2008Y2090D02*
D03*
Y2165D02*
D03*
Y1913D02*
D03*
Y1988D02*
D03*
D39*
X2165Y1575D02*
D03*
X1969D02*
D03*
X1575Y1575D02*
D03*
X1772Y1575D02*
D03*
D40*
X1377Y1846D02*
D03*
Y2126D02*
D03*
D41*
X1486Y1891D02*
D03*
Y2082D02*
D03*
D42*
X2359Y1544D02*
D03*
D43*
X2352Y1801D02*
D03*
X2626Y2134D02*
D03*
X2694Y2132D02*
D03*
M02*
