<?xml version="1.0" encoding="UTF-8" standalone="no"?>
<!DOCTYPE svg PUBLIC "-//W3C//DTD SVG 1.1//EN"
 "http://www.w3.org/Graphics/SVG/1.1/DTD/svg11.dtd">
<!-- Generated by graphviz version 2.38.0 (20140413.2041)
 -->
<!-- Title: %3 Pages: 1 -->
<svg width="405pt" height="332pt"
 viewBox="0.00 0.00 405.09 332.00" xmlns="http://www.w3.org/2000/svg" xmlns:xlink="http://www.w3.org/1999/xlink">
<g id="graph0" class="graph" transform="scale(1 1) rotate(0) translate(4 328)">
<title>%3</title>
<polygon fill="white" stroke="none" points="-4,4 -4,-328 401.09,-328 401.09,4 -4,4"/>
<!-- ITF&#45;I_pulse_on -->
<g id="node1" class="node"><title>ITF&#45;I_pulse_on</title>
<ellipse fill="none" stroke="black" cx="65.6442" cy="-234" rx="65.7887" ry="18"/>
<text text-anchor="middle" x="65.6442" y="-230.3" font-family="Times,serif" font-size="14.00">ITF&#45;I_pulse_on</text>
</g>
<!-- HV7360 -->
<g id="node2" class="node"><title>HV7360</title>
<ellipse fill="none" stroke="black" cx="216.644" cy="-162" rx="40.8928" ry="18"/>
<text text-anchor="middle" x="216.644" y="-158.3" font-family="Times,serif" font-size="14.00">HV7360</text>
</g>
<!-- ITF&#45;I_pulse_on&#45;&gt;HV7360 -->
<g id="edge1" class="edge"><title>ITF&#45;I_pulse_on&#45;&gt;HV7360</title>
<path fill="none" stroke="black" d="M97.6674,-218.155C121.772,-206.981 154.844,-191.649 180.003,-179.986"/>
<polygon fill="black" stroke="black" points="181.622,-183.093 189.223,-175.712 178.678,-176.742 181.622,-183.093"/>
</g>
<!-- ITF&#45;mET_Transducer -->
<g id="node6" class="node"><title>ITF&#45;mET_Transducer</title>
<ellipse fill="none" stroke="black" cx="216.644" cy="-90" rx="89.0842" ry="18"/>
<text text-anchor="middle" x="216.644" y="-86.3" font-family="Times,serif" font-size="14.00">ITF&#45;mET_Transducer</text>
</g>
<!-- HV7360&#45;&gt;ITF&#45;mET_Transducer -->
<g id="edge5" class="edge"><title>HV7360&#45;&gt;ITF&#45;mET_Transducer</title>
<path fill="none" stroke="black" d="M216.644,-143.697C216.644,-135.983 216.644,-126.712 216.644,-118.112"/>
<polygon fill="black" stroke="black" points="220.144,-118.104 216.644,-108.104 213.144,-118.104 220.144,-118.104"/>
</g>
<!-- ITF&#45;J_pulse_off -->
<g id="node3" class="node"><title>ITF&#45;J_pulse_off</title>
<ellipse fill="none" stroke="black" cx="216.644" cy="-234" rx="67.6881" ry="18"/>
<text text-anchor="middle" x="216.644" y="-230.3" font-family="Times,serif" font-size="14.00">ITF&#45;J_pulse_off</text>
</g>
<!-- ITF&#45;J_pulse_off&#45;&gt;HV7360 -->
<g id="edge2" class="edge"><title>ITF&#45;J_pulse_off&#45;&gt;HV7360</title>
<path fill="none" stroke="black" d="M216.644,-215.697C216.644,-207.983 216.644,-198.712 216.644,-190.112"/>
<polygon fill="black" stroke="black" points="220.144,-190.104 216.644,-180.104 213.144,-190.104 220.144,-190.104"/>
</g>
<!-- ITF&#45;B_5v -->
<g id="node4" class="node"><title>ITF&#45;B_5v</title>
<ellipse fill="none" stroke="black" cx="349.644" cy="-306" rx="46.2923" ry="18"/>
<text text-anchor="middle" x="349.644" y="-302.3" font-family="Times,serif" font-size="14.00">ITF&#45;B_5v</text>
</g>
<!-- R05&#45;100B -->
<g id="node5" class="node"><title>R05&#45;100B</title>
<ellipse fill="none" stroke="black" cx="349.644" cy="-234" rx="47.3916" ry="18"/>
<text text-anchor="middle" x="349.644" y="-230.3" font-family="Times,serif" font-size="14.00">R05&#45;100B</text>
</g>
<!-- ITF&#45;B_5v&#45;&gt;R05&#45;100B -->
<g id="edge3" class="edge"><title>ITF&#45;B_5v&#45;&gt;R05&#45;100B</title>
<path fill="none" stroke="black" d="M349.644,-287.697C349.644,-279.983 349.644,-270.712 349.644,-262.112"/>
<polygon fill="black" stroke="black" points="353.144,-262.104 349.644,-252.104 346.144,-262.104 353.144,-262.104"/>
</g>
<!-- R05&#45;100B&#45;&gt;HV7360 -->
<g id="edge4" class="edge"><title>R05&#45;100B&#45;&gt;HV7360</title>
<path fill="none" stroke="black" d="M323.049,-219.003C302.262,-208.062 273.219,-192.776 250.726,-180.938"/>
<polygon fill="black" stroke="black" points="252.321,-177.822 241.841,-176.262 249.06,-184.016 252.321,-177.822"/>
</g>
<!-- ITF&#45;mET_SMA -->
<g id="node7" class="node"><title>ITF&#45;mET_SMA</title>
<ellipse fill="none" stroke="black" cx="139.644" cy="-18" rx="68.7879" ry="18"/>
<text text-anchor="middle" x="139.644" y="-14.3" font-family="Times,serif" font-size="14.00">ITF&#45;mET_SMA</text>
</g>
<!-- ITF&#45;mET_Transducer&#45;&gt;ITF&#45;mET_SMA -->
<g id="edge6" class="edge"><title>ITF&#45;mET_Transducer&#45;&gt;ITF&#45;mET_SMA</title>
<path fill="none" stroke="black" d="M198.005,-72.055C188.191,-63.1336 176.007,-52.0572 165.314,-42.3361"/>
<polygon fill="black" stroke="black" points="167.6,-39.6844 157.846,-35.5475 162.891,-44.864 167.6,-39.6844"/>
</g>
<!-- ITF&#45;R_reserved -->
<g id="node8" class="node"><title>ITF&#45;R_reserved</title>
<ellipse fill="none" stroke="black" cx="293.644" cy="-18" rx="66.8882" ry="18"/>
<text text-anchor="middle" x="293.644" y="-14.3" font-family="Times,serif" font-size="14.00">ITF&#45;R_reserved</text>
</g>
<!-- ITF&#45;mET_Transducer&#45;&gt;ITF&#45;R_reserved -->
<g id="edge7" class="edge"><title>ITF&#45;mET_Transducer&#45;&gt;ITF&#45;R_reserved</title>
<path fill="none" stroke="black" d="M235.284,-72.055C245.097,-63.1336 257.281,-52.0572 267.974,-42.3361"/>
<polygon fill="black" stroke="black" points="270.397,-44.864 275.442,-35.5475 265.688,-39.6844 270.397,-44.864"/>
</g>
</g>
</svg>
