<?xml version="1.0" encoding="UTF-8" standalone="no"?>
<!DOCTYPE svg PUBLIC "-//W3C//DTD SVG 1.1//EN"
 "http://www.w3.org/Graphics/SVG/1.1/DTD/svg11.dtd">
<!-- Generated by graphviz version 2.38.0 (20140413.2041)
 -->
<!-- Title: %3 Pages: 1 -->
<svg width="371pt" height="332pt"
 viewBox="0.00 0.00 370.94 332.00" xmlns="http://www.w3.org/2000/svg" xmlns:xlink="http://www.w3.org/1999/xlink">
<g id="graph0" class="graph" transform="scale(1 1) rotate(0) translate(4 328)">
<title>%3</title>
<polygon fill="white" stroke="none" points="-4,4 -4,-328 366.939,-328 366.939,4 -4,4"/>
<!-- ITF&#45;9_Pon -->
<g id="node1" class="node"><title>ITF&#45;9_Pon</title>
<ellipse fill="none" stroke="black" cx="49.3956" cy="-234" rx="49.2915" ry="18"/>
<text text-anchor="middle" x="49.3956" y="-230.3" font-family="Times,serif" font-size="14.00">ITF&#45;9_Pon</text>
</g>
<!-- HV7360 -->
<g id="node2" class="node"><title>HV7360</title>
<ellipse fill="none" stroke="black" cx="172.396" cy="-162" rx="40.8928" ry="18"/>
<text text-anchor="middle" x="172.396" y="-158.3" font-family="Times,serif" font-size="14.00">HV7360</text>
</g>
<!-- ITF&#45;9_Pon&#45;&gt;HV7360 -->
<g id="edge1" class="edge"><title>ITF&#45;9_Pon&#45;&gt;HV7360</title>
<path fill="none" stroke="black" d="M74.8813,-218.496C93.5536,-207.869 119.065,-193.351 139.31,-181.829"/>
<polygon fill="black" stroke="black" points="141.238,-184.759 148.198,-176.771 137.776,-178.675 141.238,-184.759"/>
</g>
<!-- ITF&#45;mET_Transducer -->
<g id="node6" class="node"><title>ITF&#45;mET_Transducer</title>
<ellipse fill="none" stroke="black" cx="172.396" cy="-90" rx="89.0842" ry="18"/>
<text text-anchor="middle" x="172.396" y="-86.3" font-family="Times,serif" font-size="14.00">ITF&#45;mET_Transducer</text>
</g>
<!-- HV7360&#45;&gt;ITF&#45;mET_Transducer -->
<g id="edge5" class="edge"><title>HV7360&#45;&gt;ITF&#45;mET_Transducer</title>
<path fill="none" stroke="black" d="M172.396,-143.697C172.396,-135.983 172.396,-126.712 172.396,-118.112"/>
<polygon fill="black" stroke="black" points="175.896,-118.104 172.396,-108.104 168.896,-118.104 175.896,-118.104"/>
</g>
<!-- ITF&#45;10_Poff -->
<g id="node3" class="node"><title>ITF&#45;10_Poff</title>
<ellipse fill="none" stroke="black" cx="172.396" cy="-234" rx="55.4913" ry="18"/>
<text text-anchor="middle" x="172.396" y="-230.3" font-family="Times,serif" font-size="14.00">ITF&#45;10_Poff</text>
</g>
<!-- ITF&#45;10_Poff&#45;&gt;HV7360 -->
<g id="edge2" class="edge"><title>ITF&#45;10_Poff&#45;&gt;HV7360</title>
<path fill="none" stroke="black" d="M172.396,-215.697C172.396,-207.983 172.396,-198.712 172.396,-190.112"/>
<polygon fill="black" stroke="black" points="175.896,-190.104 172.396,-180.104 168.896,-190.104 175.896,-190.104"/>
</g>
<!-- ITF&#45;2_VDD_5V -->
<g id="node4" class="node"><title>ITF&#45;2_VDD_5V</title>
<ellipse fill="none" stroke="black" cx="293.396" cy="-306" rx="69.5877" ry="18"/>
<text text-anchor="middle" x="293.396" y="-302.3" font-family="Times,serif" font-size="14.00">ITF&#45;2_VDD_5V</text>
</g>
<!-- R05&#45;100B -->
<g id="node5" class="node"><title>R05&#45;100B</title>
<ellipse fill="none" stroke="black" cx="293.396" cy="-234" rx="47.3916" ry="18"/>
<text text-anchor="middle" x="293.396" y="-230.3" font-family="Times,serif" font-size="14.00">R05&#45;100B</text>
</g>
<!-- ITF&#45;2_VDD_5V&#45;&gt;R05&#45;100B -->
<g id="edge3" class="edge"><title>ITF&#45;2_VDD_5V&#45;&gt;R05&#45;100B</title>
<path fill="none" stroke="black" d="M293.396,-287.697C293.396,-279.983 293.396,-270.712 293.396,-262.112"/>
<polygon fill="black" stroke="black" points="296.896,-262.104 293.396,-252.104 289.896,-262.104 296.896,-262.104"/>
</g>
<!-- R05&#45;100B&#45;&gt;HV7360 -->
<g id="edge4" class="edge"><title>R05&#45;100B&#45;&gt;HV7360</title>
<path fill="none" stroke="black" d="M268.324,-218.496C249.956,-207.869 224.859,-193.351 204.943,-181.829"/>
<polygon fill="black" stroke="black" points="206.608,-178.749 196.2,-176.771 203.103,-184.808 206.608,-178.749"/>
</g>
<!-- ITF&#45;mET_SMA -->
<g id="node7" class="node"><title>ITF&#45;mET_SMA</title>
<ellipse fill="none" stroke="black" cx="101.396" cy="-18" rx="68.7879" ry="18"/>
<text text-anchor="middle" x="101.396" y="-14.3" font-family="Times,serif" font-size="14.00">ITF&#45;mET_SMA</text>
</g>
<!-- ITF&#45;mET_Transducer&#45;&gt;ITF&#45;mET_SMA -->
<g id="edge6" class="edge"><title>ITF&#45;mET_Transducer&#45;&gt;ITF&#45;mET_SMA</title>
<path fill="none" stroke="black" d="M155.208,-72.055C146.313,-63.2847 135.305,-52.4318 125.567,-42.8312"/>
<polygon fill="black" stroke="black" points="128.003,-40.3174 118.424,-35.789 123.088,-45.3021 128.003,-40.3174"/>
</g>
<!-- ITF&#45;18_Raw -->
<g id="node8" class="node"><title>ITF&#45;18_Raw</title>
<ellipse fill="none" stroke="black" cx="244.396" cy="-18" rx="55.7903" ry="18"/>
<text text-anchor="middle" x="244.396" y="-14.3" font-family="Times,serif" font-size="14.00">ITF&#45;18_Raw</text>
</g>
<!-- ITF&#45;mET_Transducer&#45;&gt;ITF&#45;18_Raw -->
<g id="edge7" class="edge"><title>ITF&#45;mET_Transducer&#45;&gt;ITF&#45;18_Raw</title>
<path fill="none" stroke="black" d="M189.825,-72.055C198.978,-63.1558 210.337,-52.1121 220.318,-42.4085"/>
<polygon fill="black" stroke="black" points="222.893,-44.7873 227.623,-35.307 218.013,-39.7683 222.893,-44.7873"/>
</g>
</g>
</svg>
