%FSLAX42Y42*%
%MOMM*%
G71*
G01*
G75*
G04 Layer_Physical_Order=2*
G04 Layer_Color=16711680*
%ADD10R,1.50X1.50*%
%ADD11R,1.60X4.90*%
%ADD12R,0.70X2.35*%
%ADD13R,1.30X1.30*%
%ADD14R,0.90X1.60*%
%ADD15C,0.51*%
%ADD16C,0.25*%
%ADD17C,0.30*%
%ADD18C,1.02*%
%ADD19C,1.52*%
%ADD20R,1.52X1.52*%
%ADD21C,1.02*%
%ADD22C,1.60*%
%ADD23R,1.60X1.60*%
%ADD24C,1.27*%
%ADD25R,1.55X2.20*%
%ADD26R,0.95X1.00*%
%ADD27R,1.00X0.95*%
%ADD28R,1.45X1.15*%
%ADD29R,1.80X1.15*%
%ADD30R,1.50X5.40*%
%ADD31R,2.25X1.80*%
%ADD32R,0.32X0.32*%
%ADD33R,1.80X1.15*%
%ADD34R,0.90X0.45*%
%ADD35R,1.70X2.70*%
%ADD36R,0.90X1.30*%
%ADD37R,0.90X1.90*%
%ADD38C,0.38*%
D11*
X6525Y9218D02*
D03*
X5675D02*
D03*
X7775D02*
D03*
X6925D02*
D03*
D15*
X5675Y7350D02*
X6013Y7012D01*
X5675Y7350D02*
Y9143D01*
X7545D01*
X7775D01*
X7545Y8765D02*
Y9143D01*
X7300Y8546D02*
Y8825D01*
X7721Y8546D02*
X7755Y8580D01*
X7698Y8523D02*
X7721Y8546D01*
X7300D02*
X7721D01*
X7755Y8580D02*
Y8700D01*
X7698Y8400D02*
Y8523D01*
X6978Y8525D02*
X7000Y8546D01*
X6775Y8525D02*
X6978D01*
X6775Y7255D02*
Y8525D01*
Y7255D02*
X7175D01*
Y6825D02*
Y6845D01*
X6420Y6350D02*
X6425D01*
X6600Y4950D02*
X6945D01*
X6961Y5234D02*
X7562D01*
X7195Y5245D02*
Y5550D01*
X6300Y4950D02*
X6600D01*
X6275Y4975D02*
X6300Y4950D01*
X6043Y4975D02*
X6275D01*
X7300Y8825D02*
X7350Y8875D01*
Y9000D01*
X6600Y5234D02*
X6939D01*
X6600Y5234D02*
X6600Y5234D01*
D16*
X6174Y5749D02*
X6175Y5750D01*
X6071Y5749D02*
X6174D01*
X5896Y5574D02*
X6071Y5749D01*
X6349Y5902D02*
Y5926D01*
X6032Y5854D02*
X6350D01*
Y5950D02*
X6425D01*
X6350Y5450D02*
Y5950D01*
X6275Y5375D02*
X6350Y5450D01*
X6025Y5375D02*
Y5600D01*
X6125Y5700D01*
X6175D01*
X6200Y5500D02*
X6275D01*
X6225Y5750D02*
X6300D01*
X6325Y6525D02*
X6580D01*
X6300Y6500D02*
X6325Y6525D01*
X6300Y6000D02*
Y6500D01*
X6250Y5950D02*
X6300Y6000D01*
X6175Y5950D02*
X6250D01*
X6425Y5700D02*
Y5800D01*
X6950Y5650D02*
X7190D01*
X6900Y5700D02*
X6950Y5650D01*
X6825Y5700D02*
X6900D01*
X6425Y5234D02*
Y5700D01*
X6750Y5550D02*
X6873D01*
X6725Y5575D02*
X6750Y5550D01*
X6725Y5575D02*
Y5850D01*
X6725Y5850D01*
X6825D01*
X6654Y5954D02*
X6825D01*
X6650Y5950D02*
X6654Y5954D01*
X6976Y5751D02*
X7025Y5800D01*
X6862Y5751D02*
X6976D01*
X6825Y5800D02*
X6923D01*
X6974Y5851D01*
X6238Y7012D02*
Y7335D01*
X6450D01*
X5923Y5745D02*
X6032Y5854D01*
X5800Y5745D02*
X5923D01*
X7545Y8635D02*
Y8765D01*
X7190Y6000D02*
Y6465D01*
X7375Y6650D01*
Y6950D01*
X7437Y7012D01*
X7562D01*
X7190Y5555D02*
X7195Y5550D01*
X6425Y5700D02*
X6650D01*
Y5950D01*
Y6000D01*
X6825Y5750D02*
X6976Y5751D01*
X6974Y5851D02*
Y6351D01*
X6775Y6550D02*
X6974Y6351D01*
X6775Y6550D02*
Y6845D01*
X7025Y5800D02*
Y6425D01*
X7175Y6575D01*
Y6825D01*
X7355Y5550D02*
X7600D01*
X7710Y5660D01*
Y6000D01*
X7900D01*
Y6655D01*
Y6945D02*
Y7350D01*
X7750Y7500D02*
X7900Y7350D01*
X7582Y7500D02*
X7750D01*
X7562Y7520D02*
X7582Y7500D01*
X6425Y5700D02*
X6425Y5700D01*
X6650Y6050D02*
Y6100D01*
Y6000D02*
Y6050D01*
X6650Y6050D01*
X6825D01*
X6650Y6100D02*
X6825D01*
X6625D02*
X6650D01*
Y6000D02*
X6825D01*
X6580Y6145D02*
X6625Y6100D01*
X6580Y6145D02*
Y6350D01*
X5629Y5574D02*
X5896D01*
X5549Y5654D02*
X5629Y5574D01*
X5549Y5654D02*
Y6576D01*
X5393Y6732D02*
X5549Y6576D01*
X5250Y6732D02*
X5393D01*
X5250Y6986D02*
X5489D01*
X5600Y6875D01*
Y5675D02*
Y6875D01*
Y5675D02*
X5650Y5625D01*
X5875D01*
X6050Y5800D01*
X6050Y5800D01*
X6175D01*
X6421Y5982D02*
X6425Y5986D01*
Y6350D01*
X6421Y5954D02*
Y5982D01*
X5795Y5750D02*
X5800Y5745D01*
X5675Y5750D02*
X5795D01*
X5675D02*
Y6100D01*
X5795D01*
X6050Y5905D02*
Y5950D01*
X5800Y5905D02*
X6050D01*
X6050Y5950D02*
X6050Y5950D01*
X6050Y6050D02*
X6175D01*
X6050D02*
Y6100D01*
Y5950D02*
Y6000D01*
Y6050D01*
Y6000D02*
X6175D01*
Y6050D02*
X6225D01*
X6050Y6100D02*
X6175D01*
X5955D02*
X6050D01*
X6050Y5950D02*
X6175D01*
X6945Y4950D02*
X6950Y4955D01*
X6975Y4980D01*
X6445Y7520D02*
X6450Y7515D01*
X6038Y7520D02*
X6445D01*
X7975Y8743D02*
X8250Y9018D01*
X7975Y8550D02*
Y8743D01*
X7825Y8400D02*
X7975Y8550D01*
X6038Y5234D02*
Y5362D01*
Y5375D02*
X6275D01*
Y5500D02*
Y5750D01*
X6425Y5234D02*
X6600D01*
X8550Y8612D02*
Y9138D01*
Y4862D02*
Y5388D01*
X5000Y4500D02*
Y9500D01*
X8550D01*
X5000Y4500D02*
X8550D01*
Y6425D02*
Y7575D01*
Y5800D02*
Y6425D01*
Y7575D02*
Y8200D01*
Y8612D01*
Y9138D02*
Y9500D01*
Y4500D02*
Y4862D01*
Y5388D02*
Y5800D01*
D17*
X6580Y6525D02*
Y6670D01*
Y6350D02*
Y6525D01*
X6238Y7012D02*
X6580Y6670D01*
X6038Y7012D02*
X6238D01*
D18*
X5246Y4950D02*
X5250Y4954D01*
Y4700D02*
X7450D01*
X7550Y4800D01*
Y4968D01*
X7562Y4980D01*
Y5234D01*
X5250Y4954D02*
X5629D01*
X5655Y4980D01*
X6038D01*
Y5234D01*
D19*
X5250Y9272D02*
D03*
Y9018D02*
D03*
Y8764D02*
D03*
Y8510D02*
D03*
Y8256D02*
D03*
Y8002D02*
D03*
Y7748D02*
D03*
Y7494D02*
D03*
Y7240D02*
D03*
Y6986D02*
D03*
Y6732D02*
D03*
Y6478D02*
D03*
Y6224D02*
D03*
Y5970D02*
D03*
Y5716D02*
D03*
Y5462D02*
D03*
Y5208D02*
D03*
Y4954D02*
D03*
X8300Y9272D02*
D03*
Y9018D02*
D03*
Y8764D02*
D03*
Y8510D02*
D03*
Y8256D02*
D03*
Y8002D02*
D03*
Y7748D02*
D03*
Y7494D02*
D03*
Y7240D02*
D03*
Y6986D02*
D03*
Y6732D02*
D03*
Y6478D02*
D03*
Y6224D02*
D03*
Y5970D02*
D03*
Y5716D02*
D03*
Y5462D02*
D03*
Y5208D02*
D03*
Y4954D02*
D03*
D20*
X5250Y4700D02*
D03*
X8300D02*
D03*
D21*
X7571Y8400D02*
D03*
X7825D02*
D03*
X7698D02*
D03*
D22*
X7562Y7520D02*
D03*
X6038D02*
D03*
X7562Y7012D02*
D03*
Y6758D02*
D03*
Y6504D02*
D03*
X6038Y5234D02*
D03*
Y4980D02*
D03*
Y7012D02*
D03*
Y6758D02*
D03*
X7562Y5234D02*
D03*
X6038Y6504D02*
D03*
D23*
X7562Y4980D02*
D03*
D24*
X6725Y9143D02*
D03*
X6200Y5500D02*
D03*
X6873Y5550D02*
D03*
X7600D02*
D03*
X6775Y8550D02*
D03*
X7350Y9000D02*
D03*
D25*
X6775Y7255D02*
D03*
Y6845D02*
D03*
X7175Y6845D02*
D03*
Y7255D02*
D03*
D26*
X7355Y5550D02*
D03*
X7195D02*
D03*
X6420Y6350D02*
D03*
X6580D02*
D03*
X5795Y6100D02*
D03*
X5955D02*
D03*
D27*
X5800Y5745D02*
D03*
Y5905D02*
D03*
D28*
X6450Y7515D02*
D03*
Y7335D02*
D03*
D29*
X6600Y4950D02*
D03*
Y5250D02*
D03*
D30*
X7190Y6000D02*
D03*
X7710D02*
D03*
D31*
X6950Y5245D02*
D03*
Y4955D02*
D03*
D32*
X6225Y6050D02*
D03*
X6175Y5800D02*
D03*
Y5750D02*
D03*
Y5850D02*
D03*
Y5950D02*
D03*
Y6000D02*
D03*
Y6050D02*
D03*
Y6100D02*
D03*
Y5700D02*
D03*
X6225Y5750D02*
D03*
X6425Y5950D02*
D03*
Y5800D02*
D03*
X6475Y5950D02*
D03*
X6825Y6100D02*
D03*
Y6050D02*
D03*
Y6000D02*
D03*
Y5950D02*
D03*
Y5900D02*
D03*
Y5850D02*
D03*
Y5800D02*
D03*
Y5750D02*
D03*
Y5700D02*
D03*
D33*
X7900Y6945D02*
D03*
Y6655D02*
D03*
D34*
X7755Y8700D02*
D03*
X7545Y8765D02*
D03*
Y8635D02*
D03*
D35*
X7150Y8286D02*
D03*
D36*
X7300Y8546D02*
D03*
X7000D02*
D03*
D37*
X7150Y8517D02*
D03*
D38*
X7190Y5650D02*
Y6000D01*
Y5555D02*
Y5650D01*
M02*
