%FSLAX42Y42*%
%MOMM*%
G71*
G01*
G75*
G04 Layer_Color=16711935*
%ADD10R,0.90X1.60*%
%ADD11R,1.30X1.30*%
%ADD12R,1.50X1.50*%
%ADD13R,1.60X4.90*%
%ADD14R,0.70X2.35*%
%ADD15C,0.25*%
%ADD16C,1.02*%
%ADD17C,0.51*%
%ADD18C,0.30*%
%ADD19C,1.60*%
%ADD20R,1.60X1.60*%
%ADD21C,1.02*%
%ADD22C,1.52*%
%ADD23R,1.52X1.52*%
%ADD24C,1.27*%
%ADD25R,0.90X1.30*%
%ADD26R,0.90X1.90*%
%ADD27R,1.70X2.70*%
%ADD28R,0.90X0.45*%
%ADD29R,1.80X1.15*%
%ADD30R,0.32X0.32*%
%ADD31R,1.55X2.20*%
%ADD32R,2.25X1.80*%
%ADD33R,1.50X5.40*%
%ADD34R,1.80X1.15*%
%ADD35R,1.45X1.15*%
%ADD36R,0.95X1.00*%
%ADD37R,1.00X0.95*%
%ADD38C,0.38*%
%ADD39C,0.20*%
%ADD40C,0.30*%
%ADD41C,0.13*%
%ADD42R,1.10X1.80*%
%ADD43R,1.50X1.50*%
%ADD44R,1.70X1.70*%
%ADD45R,1.80X5.10*%
%ADD46R,0.90X2.55*%
%ADD47C,1.80*%
%ADD48R,1.80X1.80*%
%ADD49C,1.22*%
%ADD50C,1.73*%
%ADD51R,1.73X1.73*%
%ADD52C,1.47*%
%ADD53R,1.10X1.50*%
%ADD54R,1.10X2.10*%
%ADD55R,1.90X2.90*%
%ADD56R,1.10X0.65*%
%ADD57R,2.00X1.35*%
%ADD58R,0.47X0.47*%
%ADD59R,1.75X2.40*%
%ADD60R,2.45X2.00*%
%ADD61R,1.70X5.60*%
%ADD62R,2.00X1.35*%
%ADD63R,1.65X1.35*%
%ADD64R,1.15X1.20*%
%ADD65R,1.20X1.15*%
D15*
X8500Y4500D02*
Y9500D01*
X5000Y4500D02*
X8500D01*
X5000Y9500D02*
X8500D01*
X5000Y4500D02*
Y9500D01*
D45*
X6925Y9218D02*
D03*
X7775D02*
D03*
X5675D02*
D03*
X6525D02*
D03*
D47*
X6038Y6504D02*
D03*
X7562Y5234D02*
D03*
X6038Y6758D02*
D03*
Y7012D02*
D03*
Y4980D02*
D03*
Y5234D02*
D03*
X7562Y6504D02*
D03*
Y6758D02*
D03*
Y7012D02*
D03*
X6038Y7520D02*
D03*
X7562D02*
D03*
D48*
Y4980D02*
D03*
D49*
X7698Y8400D02*
D03*
X7825D02*
D03*
X7571D02*
D03*
D50*
X8250Y4954D02*
D03*
Y5208D02*
D03*
Y5462D02*
D03*
Y5716D02*
D03*
Y5970D02*
D03*
Y6224D02*
D03*
Y6478D02*
D03*
Y6732D02*
D03*
Y6986D02*
D03*
Y7240D02*
D03*
Y7494D02*
D03*
Y7748D02*
D03*
Y8002D02*
D03*
Y8256D02*
D03*
Y8510D02*
D03*
Y8764D02*
D03*
Y9018D02*
D03*
Y9272D02*
D03*
X5250Y4954D02*
D03*
Y5208D02*
D03*
Y5462D02*
D03*
Y5716D02*
D03*
Y5970D02*
D03*
Y6224D02*
D03*
Y6478D02*
D03*
Y6732D02*
D03*
Y6986D02*
D03*
Y7240D02*
D03*
Y7494D02*
D03*
Y7748D02*
D03*
Y8002D02*
D03*
Y8256D02*
D03*
Y8510D02*
D03*
Y8764D02*
D03*
Y9018D02*
D03*
Y9272D02*
D03*
D51*
X8250Y4700D02*
D03*
X5250D02*
D03*
D52*
X7350Y9000D02*
D03*
X6775Y8550D02*
D03*
X7600Y5550D02*
D03*
X6873D02*
D03*
X6200Y5500D02*
D03*
X6725Y9143D02*
D03*
D53*
X7000Y8546D02*
D03*
X7300D02*
D03*
D54*
X7150Y8517D02*
D03*
D55*
Y8286D02*
D03*
D56*
X7545Y8635D02*
D03*
Y8765D02*
D03*
X7755Y8700D02*
D03*
D57*
X7900Y6655D02*
D03*
Y6945D02*
D03*
D58*
X6825Y5700D02*
D03*
Y5750D02*
D03*
Y5800D02*
D03*
Y5850D02*
D03*
Y5900D02*
D03*
Y5950D02*
D03*
Y6000D02*
D03*
Y6050D02*
D03*
Y6100D02*
D03*
X6475Y5950D02*
D03*
X6425Y5800D02*
D03*
Y5950D02*
D03*
X6225Y5750D02*
D03*
X6175Y5700D02*
D03*
Y6100D02*
D03*
Y6050D02*
D03*
Y6000D02*
D03*
Y5950D02*
D03*
Y5850D02*
D03*
Y5750D02*
D03*
Y5800D02*
D03*
X6225Y6050D02*
D03*
D59*
X7175Y7255D02*
D03*
Y6845D02*
D03*
X6775Y6845D02*
D03*
Y7255D02*
D03*
D60*
X6950Y4955D02*
D03*
Y5245D02*
D03*
D61*
X7710Y6000D02*
D03*
X7190D02*
D03*
D62*
X6600Y5250D02*
D03*
Y4950D02*
D03*
D63*
X6450Y7335D02*
D03*
Y7515D02*
D03*
D64*
X5955Y6100D02*
D03*
X5795D02*
D03*
X6580Y6350D02*
D03*
X6420D02*
D03*
X7195Y5550D02*
D03*
X7355D02*
D03*
D65*
X5800Y5905D02*
D03*
Y5745D02*
D03*
M02*
