G04 Layer_Physical_Order=1*
G04 Layer_Color=255*
%FSLAX42Y42*%
%MOMM*%
G71*
G01*
G75*
%ADD10R,1.50X1.50*%
%ADD11R,1.60X4.90*%
%ADD12R,0.70X2.35*%
%ADD13R,1.30X1.30*%
%ADD14R,0.90X1.60*%
%ADD15C,0.38*%
%ADD16C,0.51*%
%ADD17C,0.25*%
%ADD18C,0.30*%
%ADD19C,1.02*%
%ADD20C,1.52*%
%ADD21R,1.52X1.52*%
%ADD22C,1.02*%
%ADD23C,1.60*%
%ADD24R,1.60X1.60*%
%ADD25C,1.27*%
D10*
X6375Y8500D02*
D03*
X6575D02*
D03*
Y8050D02*
D03*
X6375D02*
D03*
D11*
X6525Y9218D02*
D03*
X5675D02*
D03*
X7775D02*
D03*
X6925D02*
D03*
D12*
X6100Y9375D02*
D03*
X7350D02*
D03*
D13*
X5950Y8504D02*
D03*
D14*
X6090Y8261D02*
D03*
X5810D02*
D03*
D15*
X6017Y5255D02*
Y5789D01*
Y5255D02*
X6038Y5234D01*
X6017Y6165D02*
X6137Y6284D01*
X6017Y5789D02*
Y6165D01*
D16*
X6038Y7012D02*
X7562D01*
X7000Y8700D02*
X7025Y8725D01*
X7000Y8350D02*
Y8700D01*
X6225Y8350D02*
X7000D01*
X6200Y8375D02*
X6225Y8350D01*
X6200Y8375D02*
Y8550D01*
X6075Y8675D02*
X6200Y8550D01*
X5825Y8675D02*
X6075D01*
X5675Y8825D02*
X5825Y8675D01*
X5675Y8825D02*
Y9218D01*
X6525Y9143D02*
X6925D01*
X7775Y8850D02*
Y9143D01*
X7650Y8725D02*
X7775Y8850D01*
X7025Y8725D02*
X7650D01*
X6925Y8825D02*
X7025Y8725D01*
X6925Y8825D02*
Y9143D01*
X7350Y9000D02*
Y9300D01*
X6625Y8550D02*
X6775D01*
X6575Y8500D02*
X6625Y8550D01*
X6575Y8500D02*
Y8500D01*
X6276Y8050D02*
X6375D01*
X6038Y7812D02*
X6276Y8050D01*
X6038Y7520D02*
Y7812D01*
X6375Y8500D02*
Y8600D01*
X6100Y8875D02*
X6375Y8600D01*
X6100Y8875D02*
Y9300D01*
X6375Y8050D02*
X6575D01*
X6375Y8500D02*
X6575D01*
X6038Y6504D02*
X7562D01*
X6038Y6758D02*
X7562D01*
D17*
X6873Y5550D02*
X7600D01*
X6038Y7520D02*
X7562D01*
X5875Y7825D02*
X6090Y8040D01*
X5875Y7175D02*
Y7825D01*
Y7175D02*
X6038Y7012D01*
X6090Y8040D02*
Y8261D01*
X7825Y8400D02*
Y8400D01*
X8550Y8612D02*
Y9138D01*
Y4862D02*
Y5388D01*
X5000Y4500D02*
Y9500D01*
X8550D01*
X5000Y4500D02*
X8550D01*
Y6425D02*
Y7575D01*
Y5800D02*
Y6425D01*
Y7575D02*
Y8200D01*
Y8612D01*
Y9138D02*
Y9500D01*
Y4500D02*
Y4862D01*
Y5388D02*
Y5800D01*
D18*
X6030Y6750D02*
X6038Y6758D01*
X5925Y6750D02*
X6030D01*
X5810Y6865D02*
X5925Y6750D01*
X5810Y6865D02*
Y8261D01*
X5729Y8504D02*
X5950D01*
X5625Y8400D02*
X5729Y8504D01*
X5625Y6733D02*
Y8400D01*
Y6733D02*
X5854Y6504D01*
X6038D01*
D19*
X5250Y4954D02*
X5254Y4950D01*
D20*
X5250Y9272D02*
D03*
Y9018D02*
D03*
Y8764D02*
D03*
Y8510D02*
D03*
Y8256D02*
D03*
Y8002D02*
D03*
Y7748D02*
D03*
Y7494D02*
D03*
Y7240D02*
D03*
Y6986D02*
D03*
Y6732D02*
D03*
Y6478D02*
D03*
Y6224D02*
D03*
Y5970D02*
D03*
Y5716D02*
D03*
Y5462D02*
D03*
Y5208D02*
D03*
Y4954D02*
D03*
X8300Y9272D02*
D03*
Y9018D02*
D03*
Y8764D02*
D03*
Y8510D02*
D03*
Y8256D02*
D03*
Y8002D02*
D03*
Y7748D02*
D03*
Y7494D02*
D03*
Y7240D02*
D03*
Y6986D02*
D03*
Y6732D02*
D03*
Y6478D02*
D03*
Y6224D02*
D03*
Y5970D02*
D03*
Y5716D02*
D03*
Y5462D02*
D03*
Y5208D02*
D03*
Y4954D02*
D03*
D21*
X5250Y4700D02*
D03*
X8300D02*
D03*
D22*
X7571Y8400D02*
D03*
X7825D02*
D03*
X7698D02*
D03*
D23*
X7562Y7520D02*
D03*
X6038D02*
D03*
X7562Y7012D02*
D03*
Y6758D02*
D03*
Y6504D02*
D03*
X6038Y5234D02*
D03*
Y4980D02*
D03*
Y7012D02*
D03*
Y6758D02*
D03*
X7562Y5234D02*
D03*
X6038Y6504D02*
D03*
D24*
X7562Y4980D02*
D03*
D25*
X6137Y6284D02*
D03*
X6017Y5789D02*
D03*
X6725Y9143D02*
D03*
X6873Y5550D02*
D03*
X7600D02*
D03*
X6775Y8550D02*
D03*
X7350Y9000D02*
D03*
M02*
