%FSLAX42Y42*%
%MOMM*%
G71*
G01*
G75*
G04 Layer_Color=2752767*
%ADD10R,0.90X1.60*%
%ADD11R,1.30X1.30*%
%ADD12R,1.50X1.50*%
%ADD13R,1.60X4.90*%
%ADD14R,0.70X2.35*%
%ADD15C,0.25*%
%ADD16C,1.02*%
%ADD17C,0.51*%
%ADD18C,0.30*%
%ADD19C,1.60*%
%ADD20R,1.60X1.60*%
%ADD21C,1.02*%
%ADD22C,1.52*%
%ADD23R,1.52X1.52*%
%ADD24C,1.27*%
%ADD25R,0.90X1.30*%
%ADD26R,0.90X1.90*%
%ADD27R,1.70X2.70*%
%ADD28R,0.90X0.45*%
%ADD29R,1.80X1.15*%
%ADD30R,0.32X0.32*%
%ADD31R,1.55X2.20*%
%ADD32R,2.25X1.80*%
%ADD33R,1.50X5.40*%
%ADD34R,1.80X1.15*%
%ADD35R,1.45X1.15*%
%ADD36R,0.95X1.00*%
%ADD37R,1.00X0.95*%
%ADD38C,0.38*%
%ADD39C,0.20*%
%ADD40C,0.30*%
%ADD41C,0.13*%
%ADD42R,1.10X1.80*%
%ADD43R,1.50X1.50*%
%ADD44R,1.70X1.70*%
%ADD45R,1.80X5.10*%
%ADD46R,0.90X2.55*%
%ADD47C,1.80*%
%ADD48R,1.80X1.80*%
%ADD49C,1.22*%
%ADD50C,1.73*%
%ADD51R,1.73X1.73*%
%ADD52C,1.47*%
%ADD53R,1.10X1.50*%
%ADD54R,1.10X2.10*%
%ADD55R,1.90X2.90*%
%ADD56R,1.10X0.65*%
%ADD57R,2.00X1.35*%
%ADD58R,0.47X0.47*%
%ADD59R,1.75X2.40*%
%ADD60R,2.45X2.00*%
%ADD61R,1.70X5.60*%
%ADD62R,2.00X1.35*%
%ADD63R,1.65X1.35*%
%ADD64R,1.15X1.20*%
%ADD65R,1.20X1.15*%
%ADD66C,0.25*%
%ADD67C,0.10*%
%ADD68C,0.17*%
D15*
X8500Y4500D02*
Y9500D01*
X5000Y4500D02*
X8500D01*
X5000Y9500D02*
X8500D01*
X5000Y4500D02*
Y9500D01*
D41*
X5987Y6453D02*
Y6555D01*
X6089D01*
Y6453D01*
X5987D01*
X7511Y4929D02*
Y5031D01*
X7613D01*
Y4929D01*
X7511D01*
Y5183D02*
Y5285D01*
X7613D01*
Y5183D01*
X7511D01*
X5987Y6707D02*
Y6809D01*
X6089D01*
Y6707D01*
X5987D01*
Y6961D02*
Y7063D01*
X6089D01*
Y6961D01*
X5987D01*
Y4929D02*
Y5031D01*
X6089D01*
Y4929D01*
X5987D01*
Y5183D02*
Y5285D01*
X6089D01*
Y5183D01*
X5987D01*
X7511Y6453D02*
Y6555D01*
X7613D01*
Y6453D01*
X7511D01*
Y6707D02*
Y6809D01*
X7613D01*
Y6707D01*
X7511D01*
Y6961D02*
Y7063D01*
X7613D01*
Y6961D01*
X7511D01*
X5987Y7469D02*
Y7571D01*
X6089D01*
Y7469D01*
X5987D01*
X7511D02*
Y7571D01*
X7613D01*
Y7469D01*
X7511D01*
X8250Y4903D02*
X8199Y5005D01*
X8301D01*
X8250Y4903D01*
Y4649D02*
X8199Y4751D01*
X8301D01*
X8250Y4649D01*
Y5157D02*
X8199Y5259D01*
X8301D01*
X8250Y5157D01*
Y5411D02*
X8199Y5513D01*
X8301D01*
X8250Y5411D01*
Y5665D02*
X8199Y5767D01*
X8301D01*
X8250Y5665D01*
Y5919D02*
X8199Y6021D01*
X8301D01*
X8250Y5919D01*
Y6173D02*
X8199Y6275D01*
X8301D01*
X8250Y6173D01*
Y6427D02*
X8199Y6529D01*
X8301D01*
X8250Y6427D01*
Y6681D02*
X8199Y6783D01*
X8301D01*
X8250Y6681D01*
Y6935D02*
X8199Y7037D01*
X8301D01*
X8250Y6935D01*
Y7189D02*
X8199Y7291D01*
X8301D01*
X8250Y7189D01*
Y7443D02*
X8199Y7545D01*
X8301D01*
X8250Y7443D01*
Y7697D02*
X8199Y7799D01*
X8301D01*
X8250Y7697D01*
Y7951D02*
X8199Y8053D01*
X8301D01*
X8250Y7951D01*
Y8205D02*
X8199Y8307D01*
X8301D01*
X8250Y8205D01*
Y8459D02*
X8199Y8561D01*
X8301D01*
X8250Y8459D01*
Y8713D02*
X8199Y8815D01*
X8301D01*
X8250Y8713D01*
Y8967D02*
X8199Y9069D01*
X8301D01*
X8250Y8967D01*
Y9221D02*
X8199Y9323D01*
X8301D01*
X8250Y9221D01*
X5250Y4903D02*
X5199Y5005D01*
X5301D01*
X5250Y4903D01*
Y4649D02*
X5199Y4751D01*
X5301D01*
X5250Y4649D01*
Y5157D02*
X5199Y5259D01*
X5301D01*
X5250Y5157D01*
Y5411D02*
X5199Y5513D01*
X5301D01*
X5250Y5411D01*
Y5665D02*
X5199Y5767D01*
X5301D01*
X5250Y5665D01*
Y5919D02*
X5199Y6021D01*
X5301D01*
X5250Y5919D01*
Y6173D02*
X5199Y6275D01*
X5301D01*
X5250Y6173D01*
Y6427D02*
X5199Y6529D01*
X5301D01*
X5250Y6427D01*
Y6681D02*
X5199Y6783D01*
X5301D01*
X5250Y6681D01*
Y6935D02*
X5199Y7037D01*
X5301D01*
X5250Y6935D01*
Y7189D02*
X5199Y7291D01*
X5301D01*
X5250Y7189D01*
Y7443D02*
X5199Y7545D01*
X5301D01*
X5250Y7443D01*
Y7697D02*
X5199Y7799D01*
X5301D01*
X5250Y7697D01*
Y7951D02*
X5199Y8053D01*
X5301D01*
X5250Y7951D01*
Y8205D02*
X5199Y8307D01*
X5301D01*
X5250Y8205D01*
Y8459D02*
X5199Y8561D01*
X5301D01*
X5250Y8459D01*
Y8713D02*
X5199Y8815D01*
X5301D01*
X5250Y8713D01*
Y8967D02*
X5199Y9069D01*
X5301D01*
X5250Y8967D01*
Y9221D02*
X5199Y9323D01*
X5301D01*
X5250Y9221D01*
D68*
X7749Y8400D02*
G03*
X7749Y8400I-51J0D01*
G01*
X7876D02*
G03*
X7876Y8400I-51J0D01*
G01*
X7622D02*
G03*
X7622Y8400I-51J0D01*
G01*
X7401Y9000D02*
G03*
X7401Y9000I-51J0D01*
G01*
X6826Y8550D02*
G03*
X6826Y8550I-51J0D01*
G01*
X7651Y5550D02*
G03*
X7651Y5550I-51J0D01*
G01*
X6924D02*
G03*
X6924Y5550I-51J0D01*
G01*
X6251Y5500D02*
G03*
X6251Y5500I-51J0D01*
G01*
X6776Y9143D02*
G03*
X6776Y9143I-51J0D01*
G01*
M02*
