%FSLAX42Y42*%
%MOMM*%
G71*
G01*
G75*
G04 Layer_Color=128*
%ADD10R,1.50X1.50*%
%ADD11R,1.60X4.90*%
%ADD12R,0.70X2.35*%
%ADD13R,1.30X1.30*%
%ADD14R,0.90X1.60*%
%ADD15C,0.51*%
%ADD16C,0.25*%
%ADD17C,0.30*%
%ADD18C,1.02*%
%ADD19C,1.52*%
%ADD20R,1.52X1.52*%
%ADD21C,1.02*%
%ADD22C,1.60*%
%ADD23R,1.60X1.60*%
%ADD24C,1.27*%
%ADD25R,1.55X2.20*%
%ADD26R,0.95X1.00*%
%ADD27R,1.00X0.95*%
%ADD28R,1.45X1.15*%
%ADD29R,1.80X1.15*%
%ADD30R,1.50X5.40*%
%ADD31R,2.25X1.80*%
%ADD32R,0.32X0.32*%
%ADD33R,1.80X1.15*%
%ADD34R,0.90X0.45*%
%ADD35R,1.70X2.70*%
%ADD36R,0.90X1.30*%
%ADD37R,0.90X1.90*%
%ADD38C,0.38*%
%ADD39C,0.30*%
%ADD40C,0.20*%
%ADD41C,0.13*%
%ADD42R,1.70X1.70*%
%ADD43R,1.80X5.10*%
%ADD44R,0.90X2.55*%
%ADD45R,1.50X1.50*%
%ADD46R,1.10X1.80*%
%ADD47C,1.73*%
%ADD48R,1.73X1.73*%
%ADD49C,1.22*%
%ADD50C,1.80*%
%ADD51R,1.80X1.80*%
%ADD52C,1.47*%
%ADD53R,1.75X2.40*%
%ADD54R,1.15X1.20*%
%ADD55R,1.20X1.15*%
%ADD56R,1.65X1.35*%
%ADD57R,2.00X1.35*%
%ADD58R,1.70X5.60*%
%ADD59R,2.45X2.00*%
%ADD60R,0.47X0.47*%
%ADD61R,2.00X1.35*%
%ADD62R,1.10X0.65*%
%ADD63R,1.90X2.90*%
%ADD64R,1.10X1.50*%
%ADD65R,1.10X2.10*%
D11*
X6525Y9218D02*
D03*
X5675D02*
D03*
X7775D02*
D03*
X6925D02*
D03*
D16*
X8550Y8612D02*
Y9138D01*
Y4862D02*
Y5388D01*
X5000Y4500D02*
Y9500D01*
X8550D01*
X5000Y4500D02*
X8550D01*
Y6425D02*
Y7575D01*
Y5800D02*
Y6425D01*
Y7575D02*
Y8200D01*
Y8612D01*
Y9138D02*
Y9500D01*
Y4500D02*
Y4862D01*
Y5388D02*
Y5800D01*
D25*
X6775Y7255D02*
D03*
Y6845D02*
D03*
X7175Y6845D02*
D03*
Y7255D02*
D03*
D26*
X7355Y5550D02*
D03*
X7195D02*
D03*
X6420Y6350D02*
D03*
X6580D02*
D03*
X5795Y6100D02*
D03*
X5955D02*
D03*
D27*
X5800Y5745D02*
D03*
Y5905D02*
D03*
D28*
X6450Y7515D02*
D03*
Y7335D02*
D03*
D29*
X6600Y4950D02*
D03*
Y5250D02*
D03*
D30*
X7190Y6000D02*
D03*
X7710D02*
D03*
D31*
X6950Y5245D02*
D03*
Y4955D02*
D03*
D32*
X6225Y6050D02*
D03*
X6175Y5800D02*
D03*
Y5750D02*
D03*
Y5850D02*
D03*
Y5950D02*
D03*
Y6000D02*
D03*
Y6050D02*
D03*
Y6100D02*
D03*
Y5700D02*
D03*
X6225Y5750D02*
D03*
X6425Y5950D02*
D03*
Y5800D02*
D03*
X6475Y5950D02*
D03*
X6825Y6100D02*
D03*
Y6050D02*
D03*
Y6000D02*
D03*
Y5950D02*
D03*
Y5900D02*
D03*
Y5850D02*
D03*
Y5800D02*
D03*
Y5750D02*
D03*
Y5700D02*
D03*
D33*
X7900Y6945D02*
D03*
Y6655D02*
D03*
D34*
X7755Y8700D02*
D03*
X7545Y8765D02*
D03*
Y8635D02*
D03*
D35*
X7150Y8286D02*
D03*
D36*
X7300Y8546D02*
D03*
X7000D02*
D03*
D37*
X7150Y8517D02*
D03*
M02*
