%FSLAX42Y42*%
%MOMM*%
G71*
G01*
G75*
G04 Layer_Physical_Order=2*
G04 Layer_Color=16711680*
%ADD10R,1.60X4.90*%
%ADD11R,0.70X2.35*%
%ADD12O,1.45X0.45*%
%ADD13R,1.65X2.54*%
%ADD14R,1.75X1.75*%
%ADD15O,0.80X0.30*%
%ADD16O,0.30X0.80*%
%ADD17R,1.50X1.50*%
%ADD18R,1.30X1.30*%
%ADD19R,1.60X0.90*%
%ADD20R,0.80X0.80*%
%ADD21R,0.80X0.80*%
%ADD22R,0.90X1.25*%
%ADD23R,1.25X0.90*%
%ADD24R,1.30X1.30*%
%ADD25R,0.90X1.60*%
%ADD26R,1.45X0.55*%
%ADD27R,1.45X0.55*%
%ADD28R,0.40X1.55*%
%ADD29C,0.25*%
%ADD30C,0.51*%
%ADD31C,0.64*%
%ADD32C,0.38*%
%ADD33C,0.76*%
%ADD34C,1.52*%
%ADD35R,1.52X1.52*%
%ADD36C,1.02*%
%ADD37C,1.30*%
%ADD38R,1.20X1.20*%
%ADD39C,0.89*%
G36*
X8550Y7968D02*
Y3027D01*
X5038D01*
X5023Y3042D01*
X5015Y7966D01*
X5024Y7975D01*
X5910D01*
Y7954D01*
X5898Y7949D01*
X5895Y7951D01*
X5878Y7958D01*
X5873Y7959D01*
Y7890D01*
Y7821D01*
X5878Y7822D01*
X5895Y7829D01*
X5898Y7831D01*
X5910Y7826D01*
Y7735D01*
X6120D01*
Y7975D01*
X6760D01*
Y7735D01*
X6865D01*
Y7722D01*
X6878D01*
Y7452D01*
X6970D01*
Y7678D01*
X7131D01*
X7132Y7672D01*
X7139Y7655D01*
X7150Y7640D01*
X7156Y7636D01*
Y6824D01*
X7150Y6820D01*
X7139Y6805D01*
X7132Y6788D01*
X7131Y6783D01*
X7269D01*
X7268Y6788D01*
X7261Y6805D01*
X7250Y6820D01*
X7244Y6824D01*
Y7636D01*
X7250Y7640D01*
X7261Y7655D01*
X7268Y7672D01*
X7269Y7677D01*
X7200D01*
Y7690D01*
X7187D01*
Y7761D01*
X7184Y7763D01*
X7168Y7767D01*
X6970D01*
Y7975D01*
X8542D01*
X8550Y7968D01*
D02*
G37*
%LPC*%
G36*
X5250Y4311D02*
X5225Y4308D01*
X5203Y4298D01*
X5183Y4283D01*
X5168Y4263D01*
X5158Y4241D01*
X5155Y4216D01*
X5158Y4191D01*
X5168Y4169D01*
X5183Y4149D01*
X5203Y4134D01*
X5225Y4124D01*
X5250Y4121D01*
X5275Y4124D01*
X5297Y4134D01*
X5317Y4149D01*
X5332Y4169D01*
X5342Y4191D01*
X5345Y4216D01*
X5342Y4241D01*
X5332Y4263D01*
X5317Y4283D01*
X5297Y4298D01*
X5275Y4308D01*
X5250Y4311D01*
D02*
G37*
G36*
X8300D02*
X8275Y4308D01*
X8253Y4298D01*
X8233Y4283D01*
X8218Y4263D01*
X8208Y4241D01*
X8205Y4216D01*
X8208Y4191D01*
X8218Y4169D01*
X8233Y4149D01*
X8253Y4134D01*
X8275Y4124D01*
X8300Y4121D01*
X8325Y4124D01*
X8347Y4134D01*
X8367Y4149D01*
X8382Y4169D01*
X8392Y4191D01*
X8395Y4216D01*
X8392Y4241D01*
X8382Y4263D01*
X8367Y4283D01*
X8347Y4298D01*
X8325Y4308D01*
X8300Y4311D01*
D02*
G37*
G36*
X7847Y4200D02*
X7836Y4198D01*
X7814Y4189D01*
X7796Y4174D01*
X7781Y4156D01*
X7772Y4134D01*
X7770Y4123D01*
X7847D01*
Y4200D01*
D02*
G37*
G36*
Y4097D02*
X7770D01*
X7772Y4086D01*
X7781Y4064D01*
X7796Y4046D01*
X7814Y4031D01*
X7836Y4022D01*
X7847Y4020D01*
Y4097D01*
D02*
G37*
G36*
Y3800D02*
X7836Y3798D01*
X7814Y3789D01*
X7796Y3774D01*
X7781Y3756D01*
X7772Y3734D01*
X7770Y3723D01*
X7847D01*
Y3800D01*
D02*
G37*
G36*
X5250Y4057D02*
X5225Y4054D01*
X5203Y4044D01*
X5183Y4029D01*
X5168Y4009D01*
X5158Y3987D01*
X5155Y3962D01*
X5158Y3937D01*
X5168Y3915D01*
X5183Y3895D01*
X5203Y3880D01*
X5225Y3870D01*
X5250Y3867D01*
X5275Y3870D01*
X5297Y3880D01*
X5317Y3895D01*
X5332Y3915D01*
X5342Y3937D01*
X5345Y3962D01*
X5342Y3987D01*
X5332Y4009D01*
X5317Y4029D01*
X5297Y4044D01*
X5275Y4054D01*
X5250Y4057D01*
D02*
G37*
G36*
X8300D02*
X8275Y4054D01*
X8253Y4044D01*
X8233Y4029D01*
X8218Y4009D01*
X8208Y3987D01*
X8205Y3962D01*
X8208Y3937D01*
X8218Y3915D01*
X8233Y3895D01*
X8253Y3880D01*
X8275Y3870D01*
X8300Y3867D01*
X8325Y3870D01*
X8347Y3880D01*
X8367Y3895D01*
X8382Y3915D01*
X8392Y3937D01*
X8395Y3962D01*
X8392Y3987D01*
X8382Y4009D01*
X8367Y4029D01*
X8347Y4044D01*
X8325Y4054D01*
X8300Y4057D01*
D02*
G37*
G36*
X7963Y5389D02*
Y5320D01*
X7950D01*
Y5307D01*
X7881D01*
X7882Y5302D01*
X7889Y5285D01*
X7900Y5270D01*
X7915Y5259D01*
X7932Y5252D01*
X7946Y5250D01*
Y4351D01*
X7934Y4349D01*
X7932Y4352D01*
X7919Y4369D01*
X7902Y4382D01*
X7882Y4391D01*
X7860Y4393D01*
X7838Y4391D01*
X7818Y4382D01*
X7801Y4369D01*
X7788Y4352D01*
X7779Y4332D01*
X7777Y4310D01*
X7779Y4288D01*
X7788Y4268D01*
X7801Y4251D01*
X7818Y4238D01*
X7838Y4229D01*
X7860Y4227D01*
X7882Y4229D01*
X7902Y4238D01*
X7919Y4251D01*
X7932Y4268D01*
X7934Y4271D01*
X7946Y4269D01*
Y4166D01*
X7934Y4162D01*
X7924Y4174D01*
X7906Y4189D01*
X7884Y4198D01*
X7873Y4200D01*
Y4110D01*
Y4020D01*
X7884Y4022D01*
X7906Y4031D01*
X7924Y4046D01*
X7939Y4064D01*
X7940Y4066D01*
X7956D01*
Y3912D01*
X7943Y3911D01*
X7943Y3911D01*
X7943D01*
Y3911D01*
D01*
X7941Y3932D01*
X7932Y3952D01*
X7919Y3969D01*
X7902Y3982D01*
X7882Y3991D01*
X7860Y3993D01*
X7838Y3991D01*
X7818Y3982D01*
X7801Y3969D01*
X7788Y3952D01*
X7779Y3932D01*
X7777Y3910D01*
X7779Y3888D01*
X7788Y3868D01*
X7801Y3851D01*
X7818Y3838D01*
X7838Y3829D01*
X7860Y3827D01*
X7882Y3829D01*
X7902Y3838D01*
X7919Y3851D01*
X7932Y3868D01*
X7941Y3888D01*
X7943Y3909D01*
X7956Y3908D01*
Y3754D01*
X7940D01*
X7939Y3756D01*
X7924Y3774D01*
X7906Y3789D01*
X7884Y3798D01*
X7873Y3800D01*
Y3710D01*
Y3620D01*
X7884Y3622D01*
X7906Y3631D01*
X7924Y3646D01*
X7939Y3664D01*
X7940Y3666D01*
X7956D01*
Y3512D01*
X7943Y3511D01*
X7943Y3511D01*
X7943D01*
Y3511D01*
D01*
X7941Y3532D01*
X7932Y3552D01*
X7919Y3569D01*
X7902Y3582D01*
X7882Y3591D01*
X7860Y3593D01*
X7838Y3591D01*
X7828Y3586D01*
X7699Y3715D01*
Y3903D01*
X7696Y3914D01*
X7689Y3924D01*
X7680Y3934D01*
X7683Y3950D01*
X7679Y3974D01*
X7665Y3995D01*
X7644Y4009D01*
X7620Y4013D01*
X7596Y4009D01*
X7575Y3995D01*
X7561Y3974D01*
X7557Y3950D01*
X7561Y3926D01*
X7575Y3905D01*
X7596Y3891D01*
X7620Y3887D01*
X7627Y3888D01*
X7636Y3880D01*
Y3703D01*
X7636Y3703D01*
X7636D01*
X7639Y3691D01*
X7646Y3681D01*
X7784Y3542D01*
X7779Y3532D01*
X7777Y3510D01*
X7779Y3488D01*
X7788Y3468D01*
X7801Y3451D01*
X7818Y3438D01*
X7838Y3429D01*
X7860Y3427D01*
X7882Y3429D01*
X7902Y3438D01*
X7919Y3451D01*
X7932Y3468D01*
X7941Y3488D01*
X7943Y3509D01*
X7956Y3508D01*
Y3468D01*
X7883Y3395D01*
X7873D01*
Y3323D01*
X7945D01*
Y3333D01*
X8031Y3419D01*
X8041Y3433D01*
X8044Y3450D01*
X8044Y3450D01*
Y3710D01*
Y4100D01*
X8041Y4117D01*
X8034Y4127D01*
Y5320D01*
X8031Y5337D01*
X8021Y5351D01*
X8007Y5361D01*
X8007Y5361D01*
X8000Y5370D01*
X7985Y5381D01*
X7968Y5388D01*
X7963Y5389D01*
D02*
G37*
G36*
X8300Y5073D02*
X8275Y5070D01*
X8253Y5060D01*
X8233Y5045D01*
X8218Y5025D01*
X8208Y5003D01*
X8205Y4978D01*
X8208Y4953D01*
X8218Y4931D01*
X8233Y4911D01*
X8253Y4896D01*
X8275Y4886D01*
X8300Y4883D01*
X8325Y4886D01*
X8347Y4896D01*
X8367Y4911D01*
X8382Y4931D01*
X8392Y4953D01*
X8395Y4978D01*
X8392Y5003D01*
X8382Y5025D01*
X8367Y5045D01*
X8347Y5060D01*
X8325Y5070D01*
X8300Y5073D01*
D02*
G37*
G36*
X5250D02*
X5225Y5070D01*
X5203Y5060D01*
X5183Y5045D01*
X5168Y5025D01*
X5158Y5003D01*
X5155Y4978D01*
X5158Y4953D01*
X5168Y4931D01*
X5183Y4911D01*
X5203Y4896D01*
X5225Y4886D01*
X5250Y4883D01*
X5275Y4886D01*
X5297Y4896D01*
X5317Y4911D01*
X5332Y4931D01*
X5342Y4953D01*
X5345Y4978D01*
X5342Y5003D01*
X5332Y5025D01*
X5317Y5045D01*
X5297Y5060D01*
X5275Y5070D01*
X5250Y5073D01*
D02*
G37*
G36*
Y5327D02*
X5225Y5324D01*
X5203Y5314D01*
X5183Y5299D01*
X5168Y5279D01*
X5158Y5257D01*
X5155Y5232D01*
X5158Y5207D01*
X5168Y5185D01*
X5183Y5165D01*
X5203Y5150D01*
X5225Y5140D01*
X5250Y5137D01*
X5275Y5140D01*
X5297Y5150D01*
X5317Y5165D01*
X5332Y5185D01*
X5342Y5207D01*
X5345Y5232D01*
X5342Y5257D01*
X5332Y5279D01*
X5317Y5299D01*
X5297Y5314D01*
X5275Y5324D01*
X5250Y5327D01*
D02*
G37*
G36*
X6777Y5177D02*
X6721D01*
X6722Y5172D01*
X6729Y5155D01*
X6740Y5140D01*
X6755Y5129D01*
X6772Y5122D01*
X6777Y5121D01*
Y5177D01*
D02*
G37*
G36*
X8300Y4565D02*
X8275Y4562D01*
X8253Y4552D01*
X8233Y4537D01*
X8218Y4517D01*
X8208Y4495D01*
X8205Y4470D01*
X8208Y4445D01*
X8218Y4423D01*
X8233Y4403D01*
X8253Y4388D01*
X8275Y4378D01*
X8300Y4375D01*
X8325Y4378D01*
X8347Y4388D01*
X8367Y4403D01*
X8382Y4423D01*
X8392Y4445D01*
X8395Y4470D01*
X8392Y4495D01*
X8382Y4517D01*
X8367Y4537D01*
X8347Y4552D01*
X8325Y4562D01*
X8300Y4565D01*
D02*
G37*
G36*
X5250D02*
X5225Y4562D01*
X5203Y4552D01*
X5183Y4537D01*
X5168Y4517D01*
X5158Y4495D01*
X5155Y4470D01*
X5158Y4445D01*
X5168Y4423D01*
X5183Y4403D01*
X5203Y4388D01*
X5225Y4378D01*
X5250Y4375D01*
X5275Y4378D01*
X5297Y4388D01*
X5317Y4403D01*
X5332Y4423D01*
X5342Y4445D01*
X5345Y4470D01*
X5342Y4495D01*
X5332Y4517D01*
X5317Y4537D01*
X5297Y4552D01*
X5275Y4562D01*
X5250Y4565D01*
D02*
G37*
G36*
X8300Y4819D02*
X8275Y4816D01*
X8253Y4806D01*
X8233Y4791D01*
X8218Y4771D01*
X8208Y4749D01*
X8205Y4724D01*
X8208Y4699D01*
X8218Y4677D01*
X8233Y4657D01*
X8253Y4642D01*
X8275Y4632D01*
X8300Y4629D01*
X8325Y4632D01*
X8347Y4642D01*
X8367Y4657D01*
X8382Y4677D01*
X8392Y4699D01*
X8395Y4724D01*
X8392Y4749D01*
X8382Y4771D01*
X8367Y4791D01*
X8347Y4806D01*
X8325Y4816D01*
X8300Y4819D01*
D02*
G37*
G36*
X5250D02*
X5225Y4816D01*
X5203Y4806D01*
X5183Y4791D01*
X5168Y4771D01*
X5158Y4749D01*
X5155Y4724D01*
X5158Y4699D01*
X5168Y4677D01*
X5183Y4657D01*
X5203Y4642D01*
X5225Y4632D01*
X5250Y4629D01*
X5275Y4632D01*
X5297Y4642D01*
X5317Y4657D01*
X5332Y4677D01*
X5342Y4699D01*
X5345Y4724D01*
X5342Y4749D01*
X5332Y4771D01*
X5317Y4791D01*
X5297Y4806D01*
X5275Y4816D01*
X5250Y4819D01*
D02*
G37*
G36*
X7945Y3297D02*
X7873D01*
Y3225D01*
X7945D01*
Y3297D01*
D02*
G37*
G36*
X7847D02*
X7775D01*
Y3225D01*
X7847D01*
Y3297D01*
D02*
G37*
G36*
X6528Y3307D02*
X6475D01*
Y3255D01*
X6528D01*
Y3307D01*
D02*
G37*
G36*
X6528Y3507D02*
X6397D01*
Y3455D01*
X6431D01*
Y3385D01*
X6397D01*
Y3364D01*
X6310D01*
X6293Y3361D01*
X6279Y3351D01*
X6172Y3244D01*
X5352D01*
Y3302D01*
X5263D01*
Y3200D01*
Y3098D01*
X5352D01*
Y3156D01*
X6190D01*
X6207Y3159D01*
X6221Y3169D01*
X6221Y3169D01*
X6221Y3169D01*
X6328Y3276D01*
X6397D01*
Y3255D01*
X6450D01*
Y3320D01*
X6463D01*
Y3333D01*
X6528D01*
Y3385D01*
X6494D01*
Y3455D01*
X6528D01*
Y3507D01*
D02*
G37*
G36*
X8394Y3294D02*
X8206D01*
Y3106D01*
X8394D01*
Y3294D01*
D02*
G37*
G36*
X5237Y3187D02*
X5148D01*
Y3098D01*
X5237D01*
Y3187D01*
D02*
G37*
G36*
Y3302D02*
X5148D01*
Y3213D01*
X5237D01*
Y3302D01*
D02*
G37*
G36*
X6695Y3578D02*
X6580D01*
Y3462D01*
X6606D01*
Y3378D01*
X6580D01*
Y3262D01*
X6695D01*
Y3289D01*
X6765D01*
Y3262D01*
X6787D01*
X6791Y3257D01*
X6791Y3257D01*
D01*
X6794Y3246D01*
X6801Y3236D01*
X6868Y3168D01*
X6878Y3161D01*
X6890Y3159D01*
X7090D01*
X7102Y3161D01*
X7112Y3168D01*
X7112Y3168D01*
X7112Y3168D01*
X7182Y3238D01*
X7189Y3248D01*
X7191Y3260D01*
X7191Y3260D01*
X7191Y3260D01*
Y3260D01*
Y3286D01*
X7205Y3295D01*
X7219Y3316D01*
X7223Y3340D01*
X7219Y3364D01*
X7205Y3385D01*
X7184Y3399D01*
X7160Y3403D01*
X7136Y3399D01*
X7115Y3385D01*
X7101Y3364D01*
X7097Y3340D01*
X7101Y3316D01*
X7115Y3295D01*
X7129Y3286D01*
Y3273D01*
X7077Y3221D01*
X6903D01*
X6873Y3250D01*
X6878Y3262D01*
X6880D01*
Y3378D01*
X6765D01*
Y3351D01*
X6695D01*
Y3378D01*
X6669D01*
Y3462D01*
X6695D01*
Y3578D01*
D02*
G37*
G36*
X8300Y3803D02*
X8275Y3800D01*
X8253Y3790D01*
X8233Y3775D01*
X8218Y3755D01*
X8208Y3733D01*
X8205Y3708D01*
X8208Y3683D01*
X8218Y3661D01*
X8233Y3641D01*
X8253Y3626D01*
X8275Y3616D01*
X8300Y3613D01*
X8325Y3616D01*
X8347Y3626D01*
X8367Y3641D01*
X8382Y3661D01*
X8392Y3683D01*
X8395Y3708D01*
X8392Y3733D01*
X8382Y3755D01*
X8367Y3775D01*
X8347Y3790D01*
X8325Y3800D01*
X8300Y3803D01*
D02*
G37*
G36*
X5250D02*
X5225Y3800D01*
X5203Y3790D01*
X5183Y3775D01*
X5168Y3755D01*
X5158Y3733D01*
X5155Y3708D01*
X5158Y3683D01*
X5168Y3661D01*
X5183Y3641D01*
X5203Y3626D01*
X5225Y3616D01*
X5250Y3613D01*
X5275Y3616D01*
X5297Y3626D01*
X5317Y3641D01*
X5332Y3661D01*
X5342Y3683D01*
X5345Y3708D01*
X5342Y3733D01*
X5332Y3755D01*
X5317Y3775D01*
X5297Y3790D01*
X5275Y3800D01*
X5250Y3803D01*
D02*
G37*
G36*
X7063Y3830D02*
X6937D01*
Y3670D01*
X6969D01*
Y3588D01*
X6940D01*
Y3472D01*
X6966D01*
Y3378D01*
X6940D01*
Y3262D01*
X7055D01*
Y3378D01*
X7029D01*
Y3472D01*
X7055D01*
Y3588D01*
X7031D01*
Y3670D01*
X7063D01*
Y3709D01*
X7106D01*
X7115Y3695D01*
X7136Y3681D01*
X7160Y3677D01*
X7184Y3681D01*
X7205Y3695D01*
X7219Y3716D01*
X7223Y3740D01*
X7219Y3764D01*
X7205Y3785D01*
X7184Y3799D01*
X7160Y3803D01*
X7136Y3799D01*
X7115Y3785D01*
X7106Y3771D01*
X7063D01*
Y3830D01*
D02*
G37*
G36*
X7847Y3697D02*
X7770D01*
X7772Y3686D01*
X7781Y3664D01*
X7796Y3646D01*
X7814Y3631D01*
X7836Y3622D01*
X7847Y3620D01*
Y3697D01*
D02*
G37*
G36*
X8300Y3549D02*
X8275Y3546D01*
X8253Y3536D01*
X8233Y3521D01*
X8218Y3501D01*
X8208Y3479D01*
X8205Y3454D01*
X8208Y3429D01*
X8218Y3407D01*
X8233Y3387D01*
X8253Y3372D01*
X8275Y3362D01*
X8300Y3359D01*
X8325Y3362D01*
X8347Y3372D01*
X8367Y3387D01*
X8382Y3407D01*
X8392Y3429D01*
X8395Y3454D01*
X8392Y3479D01*
X8382Y3501D01*
X8367Y3521D01*
X8347Y3536D01*
X8325Y3546D01*
X8300Y3549D01*
D02*
G37*
G36*
X7847Y3395D02*
X7775D01*
Y3323D01*
X7847D01*
Y3395D01*
D02*
G37*
G36*
X6888Y3517D02*
X6835D01*
Y3465D01*
X6888D01*
Y3517D01*
D02*
G37*
G36*
X6810D02*
X6757D01*
Y3465D01*
X6810D01*
Y3517D01*
D02*
G37*
G36*
X5250Y7359D02*
X5225Y7356D01*
X5203Y7346D01*
X5183Y7331D01*
X5168Y7311D01*
X5158Y7289D01*
X5155Y7264D01*
X5158Y7239D01*
X5168Y7217D01*
X5183Y7197D01*
X5203Y7182D01*
X5225Y7172D01*
X5250Y7169D01*
X5275Y7172D01*
X5297Y7182D01*
X5317Y7197D01*
X5332Y7217D01*
X5342Y7239D01*
X5345Y7264D01*
X5342Y7289D01*
X5332Y7311D01*
X5317Y7331D01*
X5297Y7346D01*
X5275Y7356D01*
X5250Y7359D01*
D02*
G37*
G36*
X8300Y7105D02*
X8275Y7102D01*
X8253Y7092D01*
X8233Y7077D01*
X8218Y7057D01*
X8208Y7035D01*
X8205Y7010D01*
X8208Y6985D01*
X8218Y6963D01*
X8233Y6943D01*
X8253Y6928D01*
X8275Y6918D01*
X8300Y6915D01*
X8325Y6918D01*
X8347Y6928D01*
X8367Y6943D01*
X8382Y6963D01*
X8392Y6985D01*
X8395Y7010D01*
X8392Y7035D01*
X8382Y7057D01*
X8367Y7077D01*
X8347Y7092D01*
X8325Y7102D01*
X8300Y7105D01*
D02*
G37*
G36*
X5670Y7803D02*
X5652Y7801D01*
X5635Y7794D01*
X5621Y7783D01*
X5610Y7769D01*
X5603Y7752D01*
X5601Y7734D01*
X5603Y7716D01*
X5610Y7699D01*
X5621Y7685D01*
X5632Y7677D01*
Y7664D01*
X5621Y7656D01*
X5610Y7642D01*
X5603Y7625D01*
X5601Y7607D01*
X5603Y7589D01*
X5610Y7572D01*
X5621Y7558D01*
X5632Y7550D01*
Y7537D01*
X5621Y7529D01*
X5610Y7515D01*
X5603Y7498D01*
X5601Y7480D01*
X5603Y7462D01*
X5610Y7445D01*
X5621Y7431D01*
X5635Y7420D01*
X5652Y7413D01*
X5670Y7411D01*
X5688Y7413D01*
X5705Y7420D01*
X5719Y7431D01*
X5730Y7445D01*
X5737Y7462D01*
X5739Y7480D01*
X5737Y7498D01*
X5730Y7515D01*
X5719Y7529D01*
X5708Y7537D01*
Y7550D01*
X5719Y7558D01*
X5730Y7572D01*
X5737Y7589D01*
X5739Y7607D01*
X5737Y7625D01*
X5730Y7642D01*
X5719Y7656D01*
X5708Y7664D01*
Y7677D01*
X5719Y7685D01*
X5730Y7699D01*
X5737Y7716D01*
X5739Y7734D01*
X5737Y7752D01*
X5730Y7769D01*
X5719Y7783D01*
X5705Y7794D01*
X5688Y7801D01*
X5670Y7803D01*
D02*
G37*
G36*
X8300Y7359D02*
X8275Y7356D01*
X8253Y7346D01*
X8233Y7331D01*
X8218Y7311D01*
X8208Y7289D01*
X8205Y7264D01*
X8208Y7239D01*
X8218Y7217D01*
X8233Y7197D01*
X8253Y7182D01*
X8275Y7172D01*
X8300Y7169D01*
X8325Y7172D01*
X8347Y7182D01*
X8367Y7197D01*
X8382Y7217D01*
X8392Y7239D01*
X8395Y7264D01*
X8392Y7289D01*
X8382Y7311D01*
X8367Y7331D01*
X8347Y7346D01*
X8325Y7356D01*
X8300Y7359D01*
D02*
G37*
G36*
X5987Y6857D02*
X5931D01*
X5932Y6852D01*
X5939Y6835D01*
X5950Y6820D01*
X5965Y6809D01*
X5982Y6802D01*
X5987Y6801D01*
Y6857D01*
D02*
G37*
G36*
X8300Y6851D02*
X8275Y6848D01*
X8253Y6838D01*
X8233Y6823D01*
X8218Y6803D01*
X8208Y6781D01*
X8205Y6756D01*
X8208Y6731D01*
X8218Y6709D01*
X8233Y6689D01*
X8253Y6674D01*
X8275Y6664D01*
X8300Y6661D01*
X8325Y6664D01*
X8347Y6674D01*
X8367Y6689D01*
X8382Y6709D01*
X8392Y6731D01*
X8395Y6756D01*
X8392Y6781D01*
X8382Y6803D01*
X8367Y6823D01*
X8347Y6838D01*
X8325Y6848D01*
X8300Y6851D01*
D02*
G37*
G36*
X5250Y7105D02*
X5225Y7102D01*
X5203Y7092D01*
X5183Y7077D01*
X5168Y7057D01*
X5158Y7035D01*
X5155Y7010D01*
X5158Y6985D01*
X5168Y6963D01*
X5183Y6943D01*
X5203Y6928D01*
X5225Y6918D01*
X5250Y6915D01*
X5275Y6918D01*
X5297Y6928D01*
X5317Y6943D01*
X5332Y6963D01*
X5342Y6985D01*
X5345Y7010D01*
X5342Y7035D01*
X5332Y7057D01*
X5317Y7077D01*
X5297Y7092D01*
X5275Y7102D01*
X5250Y7105D01*
D02*
G37*
G36*
X6069Y6857D02*
X6013D01*
Y6801D01*
X6018Y6802D01*
X6035Y6809D01*
X6050Y6820D01*
X6061Y6835D01*
X6068Y6852D01*
X6069Y6857D01*
D02*
G37*
G36*
X7213Y7759D02*
Y7703D01*
X7269D01*
X7268Y7708D01*
X7261Y7725D01*
X7250Y7740D01*
X7235Y7751D01*
X7218Y7758D01*
X7213Y7759D01*
D02*
G37*
G36*
X8300Y7867D02*
X8275Y7864D01*
X8253Y7854D01*
X8233Y7839D01*
X8218Y7819D01*
X8208Y7797D01*
X8208Y7792D01*
X7919Y7503D01*
X7909Y7489D01*
X7906Y7472D01*
Y5628D01*
X7619Y5341D01*
X7609Y5327D01*
X7606Y5310D01*
Y4648D01*
X7342Y4384D01*
X7090D01*
X7073Y4381D01*
X7059Y4371D01*
X6789Y4101D01*
X6779Y4087D01*
X6776Y4070D01*
Y3830D01*
X6757D01*
Y3671D01*
X6510D01*
X6498Y3669D01*
X6488Y3662D01*
X6441Y3614D01*
X6434Y3604D01*
X6431Y3593D01*
Y3585D01*
X6397D01*
Y3533D01*
X6528D01*
Y3585D01*
X6516D01*
X6511Y3597D01*
X6523Y3609D01*
X6768D01*
X6775Y3598D01*
X6774Y3595D01*
X6757D01*
Y3543D01*
X6888D01*
Y3595D01*
X6854D01*
Y3607D01*
X6851Y3619D01*
X6844Y3629D01*
X6816Y3658D01*
X6821Y3670D01*
X6883D01*
Y3830D01*
X6864D01*
Y4052D01*
X7108Y4296D01*
X7360D01*
X7377Y4299D01*
X7391Y4309D01*
X7391Y4309D01*
X7391Y4309D01*
X7681Y4599D01*
X7681Y4599D01*
X7681Y4599D01*
X7691Y4613D01*
X7694Y4630D01*
Y5292D01*
X7981Y5579D01*
X7981Y5579D01*
X7981Y5579D01*
X7991Y5593D01*
X7994Y5610D01*
Y7454D01*
X8240Y7700D01*
X8253Y7690D01*
X8275Y7680D01*
X8300Y7677D01*
X8325Y7680D01*
X8347Y7690D01*
X8367Y7705D01*
X8382Y7725D01*
X8392Y7747D01*
X8395Y7772D01*
X8392Y7797D01*
X8382Y7819D01*
X8367Y7839D01*
X8347Y7854D01*
X8325Y7864D01*
X8300Y7867D01*
D02*
G37*
G36*
X5847Y7959D02*
X5842Y7958D01*
X5825Y7951D01*
X5810Y7940D01*
X5799Y7925D01*
X5792Y7908D01*
X5791Y7903D01*
X5847D01*
Y7959D01*
D02*
G37*
G36*
Y7877D02*
X5791D01*
X5792Y7872D01*
X5799Y7855D01*
X5810Y7840D01*
X5825Y7829D01*
X5842Y7822D01*
X5847Y7821D01*
Y7877D01*
D02*
G37*
G36*
X8300Y7613D02*
X8275Y7610D01*
X8253Y7600D01*
X8233Y7585D01*
X8218Y7565D01*
X8208Y7543D01*
X8205Y7518D01*
X8208Y7493D01*
X8218Y7471D01*
X8233Y7451D01*
X8253Y7436D01*
X8275Y7426D01*
X8300Y7423D01*
X8325Y7426D01*
X8347Y7436D01*
X8367Y7451D01*
X8382Y7471D01*
X8392Y7493D01*
X8395Y7518D01*
X8392Y7543D01*
X8382Y7565D01*
X8367Y7585D01*
X8347Y7600D01*
X8325Y7610D01*
X8300Y7613D01*
D02*
G37*
G36*
X5250D02*
X5225Y7610D01*
X5203Y7600D01*
X5183Y7585D01*
X5168Y7565D01*
X5158Y7543D01*
X5155Y7518D01*
X5158Y7493D01*
X5168Y7471D01*
X5183Y7451D01*
X5203Y7436D01*
X5225Y7426D01*
X5250Y7423D01*
X5275Y7426D01*
X5297Y7436D01*
X5317Y7451D01*
X5332Y7471D01*
X5342Y7493D01*
X5345Y7518D01*
X5342Y7543D01*
X5332Y7565D01*
X5317Y7585D01*
X5297Y7600D01*
X5275Y7610D01*
X5250Y7613D01*
D02*
G37*
G36*
Y7867D02*
X5225Y7864D01*
X5203Y7854D01*
X5183Y7839D01*
X5168Y7819D01*
X5158Y7797D01*
X5155Y7772D01*
X5158Y7747D01*
X5168Y7725D01*
X5183Y7705D01*
X5203Y7690D01*
X5225Y7680D01*
X5250Y7677D01*
X5275Y7680D01*
X5297Y7690D01*
X5317Y7705D01*
X5332Y7725D01*
X5342Y7747D01*
X5345Y7772D01*
X5342Y7797D01*
X5332Y7819D01*
X5317Y7839D01*
X5297Y7854D01*
X5275Y7864D01*
X5250Y7867D01*
D02*
G37*
G36*
X6852Y7710D02*
X6760D01*
Y7574D01*
X6120D01*
Y7710D01*
X5910D01*
Y7452D01*
X5956D01*
Y6924D01*
X5950Y6920D01*
X5939Y6905D01*
X5932Y6888D01*
X5931Y6883D01*
X6069D01*
X6068Y6888D01*
X6061Y6905D01*
X6050Y6920D01*
X6044Y6924D01*
Y7452D01*
X6120D01*
Y7486D01*
X6760D01*
Y7452D01*
X6852D01*
Y7710D01*
D02*
G37*
G36*
X8300Y5581D02*
X8275Y5578D01*
X8253Y5568D01*
X8233Y5553D01*
X8218Y5533D01*
X8208Y5511D01*
X8205Y5486D01*
X8208Y5461D01*
X8218Y5439D01*
X8233Y5419D01*
X8253Y5404D01*
X8275Y5394D01*
X8300Y5391D01*
X8325Y5394D01*
X8347Y5404D01*
X8367Y5419D01*
X8382Y5439D01*
X8392Y5461D01*
X8395Y5486D01*
X8392Y5511D01*
X8382Y5533D01*
X8367Y5553D01*
X8347Y5568D01*
X8325Y5578D01*
X8300Y5581D01*
D02*
G37*
G36*
X5250D02*
X5225Y5578D01*
X5203Y5568D01*
X5183Y5553D01*
X5168Y5533D01*
X5158Y5511D01*
X5155Y5486D01*
X5158Y5461D01*
X5168Y5439D01*
X5183Y5419D01*
X5203Y5404D01*
X5225Y5394D01*
X5250Y5391D01*
X5275Y5394D01*
X5297Y5404D01*
X5317Y5419D01*
X5332Y5439D01*
X5342Y5461D01*
X5345Y5486D01*
X5342Y5511D01*
X5332Y5533D01*
X5317Y5553D01*
X5297Y5568D01*
X5275Y5578D01*
X5250Y5581D01*
D02*
G37*
G36*
X8300Y5835D02*
X8275Y5832D01*
X8253Y5822D01*
X8233Y5807D01*
X8218Y5787D01*
X8208Y5765D01*
X8205Y5740D01*
X8208Y5715D01*
X8218Y5693D01*
X8233Y5673D01*
X8253Y5658D01*
X8275Y5648D01*
X8300Y5645D01*
X8325Y5648D01*
X8347Y5658D01*
X8367Y5673D01*
X8382Y5693D01*
X8392Y5715D01*
X8395Y5740D01*
X8392Y5765D01*
X8382Y5787D01*
X8367Y5807D01*
X8347Y5822D01*
X8325Y5832D01*
X8300Y5835D01*
D02*
G37*
G36*
X5250D02*
X5225Y5832D01*
X5203Y5822D01*
X5183Y5807D01*
X5168Y5787D01*
X5158Y5765D01*
X5155Y5740D01*
X5158Y5715D01*
X5168Y5693D01*
X5183Y5673D01*
X5203Y5658D01*
X5225Y5648D01*
X5250Y5645D01*
X5275Y5648D01*
X5297Y5658D01*
X5317Y5673D01*
X5332Y5693D01*
X5342Y5715D01*
X5345Y5740D01*
X5342Y5765D01*
X5332Y5787D01*
X5317Y5807D01*
X5297Y5822D01*
X5275Y5832D01*
X5250Y5835D01*
D02*
G37*
G36*
X7269Y6757D02*
X7131D01*
X7132Y6752D01*
X7139Y6735D01*
X7150Y6720D01*
X7156Y6716D01*
Y5758D01*
X6759Y5361D01*
X6749Y5347D01*
X6746Y5330D01*
Y5244D01*
X6740Y5240D01*
X6729Y5225D01*
X6722Y5208D01*
X6721Y5203D01*
X6859D01*
X6858Y5208D01*
X6851Y5225D01*
X6840Y5240D01*
X6834Y5244D01*
Y5312D01*
X7231Y5709D01*
X7241Y5723D01*
X7244Y5740D01*
X7244Y5740D01*
X7244Y5740D01*
Y5740D01*
Y6716D01*
X7250Y6720D01*
X7261Y6735D01*
X7268Y6752D01*
X7269Y6757D01*
D02*
G37*
G36*
X8300Y5327D02*
X8275Y5324D01*
X8253Y5314D01*
X8233Y5299D01*
X8218Y5279D01*
X8208Y5257D01*
X8205Y5232D01*
X8208Y5207D01*
X8218Y5185D01*
X8233Y5165D01*
X8253Y5150D01*
X8275Y5140D01*
X8300Y5137D01*
X8325Y5140D01*
X8347Y5150D01*
X8367Y5165D01*
X8382Y5185D01*
X8392Y5207D01*
X8395Y5232D01*
X8392Y5257D01*
X8382Y5279D01*
X8367Y5299D01*
X8347Y5314D01*
X8325Y5324D01*
X8300Y5327D01*
D02*
G37*
G36*
X7937Y5389D02*
X7932Y5388D01*
X7915Y5381D01*
X7900Y5370D01*
X7889Y5355D01*
X7882Y5338D01*
X7881Y5333D01*
X7937D01*
Y5389D01*
D02*
G37*
G36*
X7440Y6883D02*
X7416Y6879D01*
X7395Y6865D01*
X7381Y6844D01*
X7377Y6820D01*
X7381Y6796D01*
X7395Y6775D01*
X7396Y6775D01*
Y5368D01*
X7182Y5154D01*
X6945D01*
X6945Y5155D01*
X6924Y5169D01*
X6900Y5173D01*
X6876Y5169D01*
X6868Y5163D01*
X6858Y5171D01*
X6858Y5172D01*
X6859Y5177D01*
X6803D01*
Y5121D01*
X6808Y5122D01*
X6825Y5129D01*
X6829Y5132D01*
X6840Y5125D01*
X6837Y5110D01*
X6841Y5086D01*
X6855Y5065D01*
X6856Y5065D01*
Y4948D01*
X5406Y3498D01*
X5333D01*
X5332Y3501D01*
X5317Y3521D01*
X5297Y3536D01*
X5275Y3546D01*
X5250Y3549D01*
X5225Y3546D01*
X5203Y3536D01*
X5183Y3521D01*
X5168Y3501D01*
X5158Y3479D01*
X5155Y3454D01*
X5158Y3429D01*
X5168Y3407D01*
X5183Y3387D01*
X5203Y3372D01*
X5225Y3362D01*
X5250Y3359D01*
X5275Y3362D01*
X5297Y3372D01*
X5317Y3387D01*
X5332Y3407D01*
X5333Y3410D01*
X5424D01*
X5441Y3413D01*
X5455Y3423D01*
X5455Y3423D01*
X5455Y3423D01*
X6931Y4899D01*
X6931Y4899D01*
X6931Y4899D01*
X6941Y4913D01*
X6944Y4930D01*
Y5065D01*
X6945Y5065D01*
X6945Y5066D01*
X7200D01*
X7200Y5066D01*
X7289Y4977D01*
Y4614D01*
X7275Y4605D01*
X7261Y4584D01*
X7257Y4560D01*
X7261Y4536D01*
X7275Y4515D01*
X7296Y4501D01*
X7320Y4497D01*
X7344Y4501D01*
X7365Y4515D01*
X7379Y4536D01*
X7383Y4560D01*
X7379Y4584D01*
X7365Y4605D01*
X7351Y4614D01*
Y4990D01*
X7349Y5002D01*
X7342Y5012D01*
X7259Y5094D01*
Y5107D01*
X7471Y5319D01*
X7471Y5319D01*
X7471Y5319D01*
X7481Y5333D01*
X7484Y5350D01*
Y6775D01*
X7485Y6775D01*
X7499Y6796D01*
X7503Y6820D01*
X7499Y6844D01*
X7485Y6865D01*
X7464Y6879D01*
X7440Y6883D01*
D02*
G37*
G36*
X5250Y6597D02*
X5225Y6594D01*
X5203Y6584D01*
X5183Y6569D01*
X5168Y6549D01*
X5158Y6527D01*
X5155Y6502D01*
X5158Y6477D01*
X5168Y6455D01*
X5183Y6435D01*
X5203Y6420D01*
X5225Y6410D01*
X5250Y6407D01*
X5275Y6410D01*
X5297Y6420D01*
X5317Y6435D01*
X5332Y6455D01*
X5342Y6477D01*
X5345Y6502D01*
X5342Y6527D01*
X5332Y6549D01*
X5317Y6569D01*
X5297Y6584D01*
X5275Y6594D01*
X5250Y6597D01*
D02*
G37*
G36*
X8300Y6343D02*
X8275Y6340D01*
X8253Y6330D01*
X8233Y6315D01*
X8218Y6295D01*
X8208Y6273D01*
X8205Y6248D01*
X8208Y6223D01*
X8218Y6201D01*
X8233Y6181D01*
X8253Y6166D01*
X8275Y6156D01*
X8300Y6153D01*
X8325Y6156D01*
X8347Y6166D01*
X8367Y6181D01*
X8382Y6201D01*
X8392Y6223D01*
X8395Y6248D01*
X8392Y6273D01*
X8382Y6295D01*
X8367Y6315D01*
X8347Y6330D01*
X8325Y6340D01*
X8300Y6343D01*
D02*
G37*
G36*
X5250Y6851D02*
X5225Y6848D01*
X5203Y6838D01*
X5183Y6823D01*
X5168Y6803D01*
X5158Y6781D01*
X5155Y6756D01*
X5158Y6731D01*
X5168Y6709D01*
X5183Y6689D01*
X5203Y6674D01*
X5225Y6664D01*
X5250Y6661D01*
X5275Y6664D01*
X5297Y6674D01*
X5317Y6689D01*
X5332Y6709D01*
X5342Y6731D01*
X5345Y6756D01*
X5342Y6781D01*
X5332Y6803D01*
X5317Y6823D01*
X5297Y6838D01*
X5275Y6848D01*
X5250Y6851D01*
D02*
G37*
G36*
X8300Y6597D02*
X8275Y6594D01*
X8253Y6584D01*
X8233Y6569D01*
X8218Y6549D01*
X8208Y6527D01*
X8205Y6502D01*
X8208Y6477D01*
X8218Y6455D01*
X8233Y6435D01*
X8253Y6420D01*
X8275Y6410D01*
X8300Y6407D01*
X8325Y6410D01*
X8347Y6420D01*
X8367Y6435D01*
X8382Y6455D01*
X8392Y6477D01*
X8395Y6502D01*
X8392Y6527D01*
X8382Y6549D01*
X8367Y6569D01*
X8347Y6584D01*
X8325Y6594D01*
X8300Y6597D01*
D02*
G37*
G36*
Y6089D02*
X8275Y6086D01*
X8253Y6076D01*
X8233Y6061D01*
X8218Y6041D01*
X8208Y6019D01*
X8205Y5994D01*
X8208Y5969D01*
X8218Y5947D01*
X8233Y5927D01*
X8253Y5912D01*
X8275Y5902D01*
X8300Y5899D01*
X8325Y5902D01*
X8347Y5912D01*
X8367Y5927D01*
X8382Y5947D01*
X8392Y5969D01*
X8395Y5994D01*
X8392Y6019D01*
X8382Y6041D01*
X8367Y6061D01*
X8347Y6076D01*
X8325Y6086D01*
X8300Y6089D01*
D02*
G37*
G36*
X5250D02*
X5225Y6086D01*
X5203Y6076D01*
X5183Y6061D01*
X5168Y6041D01*
X5158Y6019D01*
X5155Y5994D01*
X5158Y5969D01*
X5168Y5947D01*
X5183Y5927D01*
X5203Y5912D01*
X5225Y5902D01*
X5250Y5899D01*
X5275Y5902D01*
X5297Y5912D01*
X5317Y5927D01*
X5332Y5947D01*
X5342Y5969D01*
X5345Y5994D01*
X5342Y6019D01*
X5332Y6041D01*
X5317Y6061D01*
X5297Y6076D01*
X5275Y6086D01*
X5250Y6089D01*
D02*
G37*
G36*
Y6343D02*
X5225Y6340D01*
X5203Y6330D01*
X5183Y6315D01*
X5168Y6295D01*
X5158Y6273D01*
X5155Y6248D01*
X5158Y6223D01*
X5168Y6201D01*
X5183Y6181D01*
X5203Y6166D01*
X5225Y6156D01*
X5250Y6153D01*
X5275Y6156D01*
X5297Y6166D01*
X5317Y6181D01*
X5332Y6201D01*
X5342Y6223D01*
X5345Y6248D01*
X5342Y6273D01*
X5332Y6295D01*
X5317Y6315D01*
X5297Y6330D01*
X5275Y6340D01*
X5250Y6343D01*
D02*
G37*
G36*
X5787Y6059D02*
X5769Y6057D01*
X5752Y6050D01*
X5738Y6039D01*
X5729Y6028D01*
X5717D01*
X5708Y6039D01*
X5694Y6050D01*
X5677Y6057D01*
X5660Y6059D01*
X5642Y6057D01*
X5625Y6050D01*
X5611Y6039D01*
X5602Y6028D01*
X5590D01*
X5581Y6039D01*
X5567Y6050D01*
X5550Y6057D01*
X5533Y6059D01*
X5515Y6057D01*
X5498Y6050D01*
X5484Y6039D01*
X5473Y6025D01*
X5466Y6008D01*
X5463Y5990D01*
X5466Y5972D01*
X5473Y5955D01*
X5484Y5941D01*
X5498Y5930D01*
X5515Y5923D01*
X5533Y5921D01*
X5550Y5923D01*
X5567Y5930D01*
X5581Y5941D01*
X5590Y5952D01*
X5602D01*
X5611Y5941D01*
X5625Y5930D01*
X5642Y5923D01*
X5660Y5921D01*
X5677Y5923D01*
X5694Y5930D01*
X5708Y5941D01*
X5717Y5952D01*
X5729D01*
X5738Y5941D01*
X5752Y5930D01*
X5769Y5923D01*
X5787Y5921D01*
X5804Y5923D01*
X5821Y5930D01*
X5835Y5941D01*
X5846Y5955D01*
X5853Y5972D01*
X5856Y5990D01*
X5853Y6008D01*
X5846Y6025D01*
X5835Y6039D01*
X5821Y6050D01*
X5804Y6057D01*
X5787Y6059D01*
D02*
G37*
%LPD*%
D10*
X6015Y7722D02*
D03*
X6865D02*
D03*
D20*
X6638Y3520D02*
D03*
X6463D02*
D03*
X6998Y3530D02*
D03*
X6823D02*
D03*
X6823Y3320D02*
D03*
X6998D02*
D03*
X6463D02*
D03*
X6638D02*
D03*
D22*
X7000Y3750D02*
D03*
X6820D02*
D03*
D29*
X7990Y4110D02*
X8000Y4100D01*
X7200Y5110D02*
X7320Y4990D01*
Y4560D02*
Y4990D01*
X7667Y3703D02*
X7860Y3510D01*
X7667Y3703D02*
Y3903D01*
X7620Y3950D02*
X7667Y3903D01*
X8000Y3710D02*
X8000Y3710D01*
X6463Y3320D02*
Y3520D01*
X6638Y3320D02*
Y3520D01*
Y3320D02*
X6638Y3320D01*
X6998Y3330D02*
Y3530D01*
X6463Y3520D02*
Y3593D01*
X6510Y3640D01*
X6790D01*
X6823Y3607D01*
Y3530D02*
Y3607D01*
X7160Y3260D02*
Y3340D01*
X7090Y3190D02*
X7160Y3260D01*
X6890Y3190D02*
X7090D01*
X6823Y3257D02*
X6890Y3190D01*
X6823Y3257D02*
Y3320D01*
X6638D02*
X6823D01*
X7010Y3740D02*
X7160D01*
X7000Y3750D02*
X7010Y3740D01*
X7000Y3532D02*
Y3750D01*
X5000Y3000D02*
Y8000D01*
X8500D01*
Y3000D02*
Y8000D01*
X5000Y3000D02*
X8500D01*
D30*
X5860Y7890D02*
X5950D01*
X6000Y6870D02*
Y7707D01*
X6820Y3750D02*
X6820Y3750D01*
Y4070D01*
X7090Y4340D01*
X7360D01*
X7650Y4630D01*
Y5310D01*
X7950Y5610D01*
Y7472D01*
X8250Y7772D01*
X6790Y5190D02*
Y5330D01*
X7200Y5740D01*
Y6770D01*
X7168Y7722D02*
X7200Y7690D01*
X6865Y7722D02*
X7168D01*
X6040Y7530D02*
X6890D01*
X7200Y6770D02*
Y7690D01*
X7990Y4110D02*
Y5320D01*
X7950D02*
X7990D01*
X8000Y3710D02*
Y4100D01*
X7860Y4110D02*
X7990D01*
X7440Y5350D02*
Y6820D01*
X7200Y5110D02*
X7440Y5350D01*
X6900Y5110D02*
X7200D01*
X5250Y3454D02*
X5424D01*
X6900Y4930D01*
Y5110D01*
X7860Y3710D02*
X8000D01*
X8000Y3450D02*
Y3710D01*
X7860Y3310D02*
X8000Y3450D01*
X5270Y3200D02*
X6190D01*
X6310Y3320D01*
X6463D01*
D33*
X5250Y3200D02*
X5270D01*
D34*
X8300Y3454D02*
D03*
Y3708D02*
D03*
Y3962D02*
D03*
Y4216D02*
D03*
Y4470D02*
D03*
Y4724D02*
D03*
Y4978D02*
D03*
Y5232D02*
D03*
Y5486D02*
D03*
Y5740D02*
D03*
Y5994D02*
D03*
Y6248D02*
D03*
Y6502D02*
D03*
Y6756D02*
D03*
Y7010D02*
D03*
Y7264D02*
D03*
Y7518D02*
D03*
Y7772D02*
D03*
X5250Y3454D02*
D03*
Y3708D02*
D03*
Y3962D02*
D03*
Y4216D02*
D03*
Y4470D02*
D03*
Y4724D02*
D03*
Y4978D02*
D03*
Y5232D02*
D03*
Y5486D02*
D03*
Y5740D02*
D03*
Y5994D02*
D03*
Y6248D02*
D03*
Y6502D02*
D03*
Y6756D02*
D03*
Y7010D02*
D03*
Y7264D02*
D03*
Y7518D02*
D03*
Y7772D02*
D03*
D35*
X8300Y3200D02*
D03*
X5250D02*
D03*
D36*
X5787Y5990D02*
D03*
X5533D02*
D03*
X5660D02*
D03*
X5670Y7734D02*
D03*
Y7480D02*
D03*
Y7607D02*
D03*
D37*
X7860Y3510D02*
D03*
Y3710D02*
D03*
Y3910D02*
D03*
Y4110D02*
D03*
Y4310D02*
D03*
D38*
Y3310D02*
D03*
D39*
X5860Y7890D02*
D03*
X6790Y5190D02*
D03*
X7320Y4560D02*
D03*
X7620Y3950D02*
D03*
X6900Y5110D02*
D03*
X7440Y6820D02*
D03*
X7200Y6770D02*
D03*
Y7690D02*
D03*
X7160Y3740D02*
D03*
Y3340D02*
D03*
X7950Y5320D02*
D03*
X6000Y6870D02*
D03*
M02*
