%FSLAX42Y42*%
%MOMM*%
G71*
G01*
G75*
G04 Layer_Color=32896*
%ADD10R,1.60X4.90*%
%ADD11R,0.70X2.35*%
%ADD12O,1.45X0.45*%
%ADD13R,1.65X2.54*%
%ADD14R,1.75X1.75*%
%ADD15O,0.80X0.30*%
%ADD16O,0.30X0.80*%
%ADD17R,1.50X1.50*%
%ADD18R,1.30X1.30*%
%ADD19R,1.60X0.90*%
%ADD20R,0.80X0.80*%
%ADD21R,0.80X0.80*%
%ADD22R,0.90X1.25*%
%ADD23R,1.25X0.90*%
%ADD24R,1.30X1.30*%
%ADD25R,0.90X1.60*%
%ADD26R,1.45X0.55*%
%ADD27R,1.45X0.55*%
%ADD28R,0.40X1.55*%
%ADD29C,0.25*%
%ADD30C,0.51*%
%ADD31C,0.64*%
%ADD32C,0.38*%
%ADD33C,0.76*%
%ADD34C,1.52*%
%ADD35R,1.52X1.52*%
%ADD36C,1.02*%
%ADD37C,1.30*%
%ADD38R,1.20X1.20*%
%ADD39C,0.89*%
%ADD40C,0.25*%
%ADD41C,0.60*%
%ADD42C,0.30*%
%ADD43C,0.20*%
%ADD44C,0.25*%
%ADD45C,0.10*%
%ADD46C,0.12*%
%ADD47C,0.18*%
%ADD48C,0.15*%
%ADD49C,0.13*%
%ADD50R,1.80X5.10*%
%ADD51R,0.90X2.55*%
%ADD52O,1.65X0.65*%
%ADD53R,1.85X2.74*%
%ADD54R,1.95X1.95*%
%ADD55O,1.00X0.50*%
%ADD56O,0.50X1.00*%
%ADD57R,1.70X1.70*%
%ADD58R,1.50X1.50*%
%ADD59R,1.80X1.10*%
%ADD60R,1.00X1.00*%
%ADD61R,1.00X1.00*%
%ADD62R,1.10X1.45*%
%ADD63R,1.45X1.10*%
%ADD64R,1.50X1.50*%
%ADD65R,1.10X1.80*%
%ADD66R,1.65X0.75*%
%ADD67R,1.65X0.75*%
%ADD68R,0.60X1.75*%
%ADD69C,1.73*%
%ADD70R,1.73X1.73*%
%ADD71C,1.22*%
%ADD72C,1.50*%
%ADD73R,1.40X1.40*%
%ADD74C,1.09*%
%ADD75C,0.05*%
D29*
X8110Y3073D02*
X8490D01*
X8110D02*
Y7962D01*
X8490Y3327D02*
Y4343D01*
Y3073D02*
Y3327D01*
Y4343D02*
Y7962D01*
X8110D02*
X8490D01*
X5060Y3073D02*
X5440D01*
X5060D02*
Y7962D01*
X5440Y3327D02*
Y4343D01*
Y3073D02*
Y3327D01*
Y4343D02*
Y7962D01*
X5060D02*
X5440D01*
X7800Y5727D02*
Y5575D01*
X7724D01*
X7698Y5600D01*
Y5626D01*
Y5651D01*
X7724Y5677D01*
X7800D01*
X7648Y5575D02*
X7597D01*
X7622D01*
Y5677D01*
X7648D01*
X7495Y5702D02*
Y5677D01*
X7521D01*
X7470D01*
X7495D01*
Y5600D01*
X7470Y5575D01*
X7394D02*
Y5600D01*
X7368D01*
Y5575D01*
X7394D01*
X7267D02*
X7216D01*
X7241D01*
Y5727D01*
X7267D01*
X7140Y5677D02*
Y5600D01*
X7114Y5575D01*
X7038D01*
Y5550D01*
X7064Y5524D01*
X7089D01*
X7038Y5575D02*
Y5677D01*
X6987Y5575D02*
X6886Y5677D01*
X6759Y5575D02*
X6810D01*
X6835Y5600D01*
Y5651D01*
X6810Y5677D01*
X6759D01*
X6734Y5651D01*
Y5626D01*
X6835D01*
X6581Y5677D02*
X6657D01*
X6683Y5651D01*
Y5600D01*
X6657Y5575D01*
X6581D01*
X6530Y5727D02*
Y5575D01*
Y5651D01*
X6505Y5677D01*
X6454D01*
X6429Y5651D01*
Y5575D01*
X6353D02*
X6302D01*
X6276Y5600D01*
Y5651D01*
X6302Y5677D01*
X6353D01*
X6378Y5651D01*
Y5600D01*
X6353Y5575D01*
X6226D02*
Y5677D01*
X6200D01*
X6175Y5651D01*
Y5575D01*
Y5651D01*
X6150Y5677D01*
X6124Y5651D01*
Y5575D01*
X6048D02*
X5997D01*
X5972Y5600D01*
Y5651D01*
X5997Y5677D01*
X6048D01*
X6073Y5651D01*
Y5600D01*
X6048Y5575D01*
X5819Y5727D02*
Y5575D01*
X5896D01*
X5921Y5600D01*
Y5651D01*
X5896Y5677D01*
X5819D01*
X5769Y5575D02*
X5692D01*
X5667Y5600D01*
X5692Y5626D01*
X5743D01*
X5769Y5651D01*
X5743Y5677D01*
X5667D01*
X5000Y3000D02*
Y8000D01*
X8500D01*
Y3000D02*
Y8000D01*
X5000Y3000D02*
X8500D01*
D45*
X6700Y3450D02*
Y3590D01*
X6400D02*
X6700D01*
X6400Y3450D02*
X6700D01*
X6400Y3450D02*
Y3590D01*
X7060Y3460D02*
Y3600D01*
X6760D02*
X7060D01*
X6760Y3460D02*
X7060D01*
X6760Y3460D02*
Y3600D01*
Y3255D02*
X7060D01*
Y3385D01*
X6760D02*
X7060D01*
X6760Y3255D02*
Y3385D01*
X6400Y3255D02*
X6700D01*
Y3385D01*
X6400D02*
X6700D01*
X6400Y3255D02*
Y3385D01*
D46*
X6740Y3655D02*
Y3845D01*
X7080D01*
Y3655D02*
Y3845D01*
X6740Y3655D02*
X7080D01*
D48*
X6288Y3543D02*
X6305Y3560D01*
X6338D01*
X6355Y3543D01*
Y3477D01*
X6338Y3460D01*
X6305D01*
X6288Y3477D01*
X6188Y3460D02*
X6255D01*
X6188Y3527D01*
Y3543D01*
X6205Y3560D01*
X6238D01*
X6255Y3543D01*
X6105Y3460D02*
Y3560D01*
X6155Y3510D01*
X6088D01*
X7313Y3566D02*
X7330Y3582D01*
X7363D01*
X7380Y3566D01*
Y3499D01*
X7363Y3483D01*
X7330D01*
X7313Y3499D01*
X7213Y3483D02*
X7280D01*
X7213Y3549D01*
Y3566D01*
X7230Y3582D01*
X7263D01*
X7280Y3566D01*
X7113Y3582D02*
X7180D01*
Y3532D01*
X7147Y3549D01*
X7130D01*
X7113Y3532D01*
Y3499D01*
X7130Y3483D01*
X7163D01*
X7180Y3499D01*
X8050Y3200D02*
Y3100D01*
Y3133D01*
X7983Y3200D01*
X8033Y3150D01*
X7983Y3100D01*
X7950D02*
X7917D01*
X7933D01*
Y3200D01*
X7950Y3183D01*
X5750Y3200D02*
Y3100D01*
Y3133D01*
X5683Y3200D01*
X5733Y3150D01*
X5683Y3100D01*
X5583D02*
X5650D01*
X5583Y3167D01*
Y3183D01*
X5600Y3200D01*
X5633D01*
X5650Y3183D01*
X6675Y3810D02*
Y3710D01*
X6608D01*
X6508Y3810D02*
X6542Y3793D01*
X6575Y3760D01*
Y3727D01*
X6558Y3710D01*
X6525D01*
X6508Y3727D01*
Y3743D01*
X6525Y3760D01*
X6575D01*
X7038Y3108D02*
Y3207D01*
X6988D01*
X6971Y3191D01*
Y3157D01*
X6988Y3141D01*
X7038D01*
X7004D02*
X6971Y3108D01*
X6938D02*
X6904D01*
X6921D01*
Y3207D01*
X6938Y3191D01*
X6788Y3108D02*
X6854D01*
X6788Y3174D01*
Y3191D01*
X6804Y3207D01*
X6838D01*
X6854Y3191D01*
X6350Y3280D02*
Y3380D01*
X6300D01*
X6283Y3363D01*
Y3330D01*
X6300Y3313D01*
X6350D01*
X6317D02*
X6283Y3280D01*
X6250D02*
X6217D01*
X6233D01*
Y3380D01*
X6250Y3363D01*
X6167D02*
X6150Y3380D01*
X6117D01*
X6100Y3363D01*
Y3347D01*
X6117Y3330D01*
X6133D01*
X6117D01*
X6100Y3313D01*
Y3297D01*
X6117Y3280D01*
X6150D01*
X6167Y3297D01*
D75*
X6482Y5831D02*
X6513D01*
X6879D02*
X6985D01*
X6498Y6034D02*
X6508D01*
X6884D02*
X6904D01*
X7107D02*
X7117D01*
X6701Y6242D02*
X6706D01*
X6899D02*
X6904D01*
X6680Y6247D02*
X6701D01*
X6904D02*
X6909D01*
X6899Y6252D02*
X6904D01*
X6701Y6263D02*
X6711D01*
X6680Y6268D02*
X6701D01*
X6498Y6273D02*
X6523D01*
X6904D02*
X6909D01*
X6493Y6278D02*
X6518D01*
X6899D02*
X6904D01*
X6493Y6283D02*
X6513D01*
X6701D02*
X6716D01*
X6487Y6288D02*
X6518D01*
X6686D02*
X6701D01*
X6482Y6293D02*
X6508D01*
X6477Y6298D02*
X6503D01*
X6899D02*
X6909D01*
X6477Y6303D02*
X6508D01*
X6701D02*
X6716D01*
X6904D02*
X6945D01*
X6477Y6308D02*
X6513D01*
X6894D02*
X6950D01*
X6482Y6313D02*
X6518D01*
X6879D02*
X6960D01*
X6487Y6318D02*
X6523D01*
X6868D02*
X6980D01*
X6493Y6324D02*
X6533D01*
X6650D02*
X6716D01*
X6848D02*
X6914D01*
X6498Y6329D02*
X6533D01*
X6660D02*
X6731D01*
X6838D02*
X6904D01*
X6675Y6334D02*
X6731D01*
X6686Y6339D02*
X6726D01*
X6701Y6344D02*
X6731D01*
X6884Y6039D02*
X6909D01*
X6884Y6044D02*
X6904D01*
X6884Y6049D02*
X6909D01*
X6493Y6054D02*
X6528D01*
X6889D02*
X6909D01*
X6889Y6059D02*
X6914D01*
X6889Y6064D02*
X6909D01*
X6889Y6070D02*
X6909D01*
X6493Y6075D02*
X6528D01*
X6889D02*
X6909D01*
X6889Y6080D02*
X6909D01*
X6889Y6085D02*
X6914D01*
X6889Y6090D02*
X6909D01*
X6487Y6095D02*
X6528D01*
X6884D02*
X6904D01*
X6884Y6100D02*
X6904D01*
X6884Y6105D02*
X6904D01*
X6884Y6110D02*
X6909D01*
X6493Y6115D02*
X6528D01*
X6904D02*
X6909D01*
X6401Y6120D02*
X6503D01*
X6406Y6125D02*
X6513D01*
X6432Y6130D02*
X6518D01*
X6462Y6136D02*
X6528D01*
X6894D02*
X6904D01*
X6487Y6141D02*
X6523D01*
X6675D02*
X6701D01*
X6899D02*
X6904D01*
X6680Y6146D02*
X6706D01*
X6899D02*
X6914D01*
X6686Y6151D02*
X6711D01*
X6894D02*
X6904D01*
X6691Y6156D02*
X6716D01*
X6675Y6161D02*
X6726D01*
X6701Y6166D02*
X6731D01*
X6904D02*
X6914D01*
X6899Y6171D02*
X6909D01*
X6675Y6181D02*
X6706D01*
X6904Y6191D02*
X6909D01*
X6889Y6197D02*
X6904D01*
X6675Y6202D02*
X6706D01*
X6904Y6212D02*
X6914D01*
X6889Y6217D02*
X6909D01*
X6675Y6222D02*
X6706D01*
X6904D02*
X6909D01*
X6477Y5836D02*
X6508D01*
X6477Y5841D02*
X6503D01*
X6482Y5846D02*
X6523D01*
X6482Y5851D02*
X6508D01*
X6904D02*
X6914D01*
X6487Y5856D02*
X6513D01*
X6899D02*
X6904D01*
X6493Y5861D02*
X6518D01*
X6493Y5866D02*
X6523D01*
X6675D02*
X6701D01*
X6498Y5871D02*
X6523D01*
X6680D02*
X6701D01*
X6680Y5876D02*
X6701D01*
X6899D02*
X6909D01*
X6665Y5882D02*
X6706D01*
X6686Y5887D02*
X6706D01*
X6686Y5892D02*
X6711D01*
X6691Y5897D02*
X6711D01*
X6904D02*
X6914D01*
X6691Y5902D02*
X6711D01*
X6884D02*
X6909D01*
X6686Y5907D02*
X6716D01*
X6904D02*
X6909D01*
X6696Y5912D02*
X6716D01*
X6701Y5917D02*
X6721D01*
X6701Y5922D02*
X6721D01*
X6701Y5927D02*
X6726D01*
X6899D02*
X6904D01*
Y5932D02*
X6909D01*
X6899Y5937D02*
X6904D01*
X6701Y5948D02*
X6731D01*
X6904Y5958D02*
X6909D01*
X6894Y5963D02*
X6904D01*
X6701Y5968D02*
X6741D01*
X6696Y5973D02*
X6736D01*
X6696Y5978D02*
X6731D01*
X6691Y5983D02*
X6721D01*
X6899D02*
X6909D01*
X6665Y5988D02*
X6716D01*
X6680Y5993D02*
X6711D01*
X6675Y5998D02*
X6706D01*
X6487Y6003D02*
X6518D01*
X6675D02*
X6701D01*
X6899D02*
X6909D01*
X6462Y6009D02*
X6533D01*
X6904D02*
X6909D01*
X6432Y6014D02*
X6513D01*
X6904D02*
X6909D01*
X6406Y6019D02*
X6503D01*
X6493Y6029D02*
X6498D01*
X6879D02*
X6904D01*
X6889Y5805D02*
X6904D01*
X6889Y5810D02*
X6914D01*
X6498Y5816D02*
X6533D01*
X6889D02*
X6924D01*
X6493Y5821D02*
X6523D01*
X6884D02*
X6965D01*
X6487Y5826D02*
X6518D01*
X6884D02*
X6960D01*
X7097Y6049D02*
X7107D01*
Y6054D02*
X7117D01*
X7107Y6064D02*
X7117D01*
X7107Y6070D02*
X7112D01*
X7102Y6075D02*
X7107D01*
Y6095D02*
X7112D01*
X7097Y6100D02*
X7107D01*
X7092Y6105D02*
X7107D01*
X7102Y6110D02*
X7112D01*
X7087Y6115D02*
X7163D01*
X7061Y6120D02*
X7163D01*
X7051Y6125D02*
X7158D01*
X7046Y6130D02*
X7133D01*
X7051Y6014D02*
X7133D01*
X7061Y6019D02*
X7158D01*
X7087Y6024D02*
X7163D01*
X7102Y6029D02*
X7112D01*
X6401Y6034D02*
X6421D01*
X6447D02*
X6457D01*
X6477D02*
X6482D01*
X6523Y6237D02*
X6543D01*
X6553D02*
X6559D01*
X6640D02*
X6645D01*
X6665D02*
X6675D01*
X6533Y5831D02*
X6548D01*
X6579D02*
X6686D01*
X6513Y6034D02*
X6523D01*
X6533D02*
X6538D01*
X6564D02*
X6574D01*
X6630D02*
X6640D01*
X6660D02*
X6680D01*
X6706Y6237D02*
X6716D01*
X6736D02*
X6741D01*
X6823D02*
X6828D01*
X6848D02*
X6858D01*
X6889D02*
X6899D01*
X6726Y6440D02*
X6838D01*
X6919Y6237D02*
X6924D01*
X7006D02*
X7011D01*
X7021D02*
X7041D01*
X7016Y5831D02*
X7031D01*
X7051D02*
X7082D01*
X6929Y6034D02*
X6934D01*
X6990D02*
X7001D01*
X7026D02*
X7031D01*
X7041D02*
X7051D01*
X7056D02*
X7067D01*
X7082D02*
X7087D01*
X7143D02*
X7163D01*
X6401Y6039D02*
X6421D01*
X6432D02*
X6447D01*
X6472D02*
X6482D01*
X6401Y6044D02*
X6432D01*
X6467D02*
X6472D01*
X6477D02*
X6487D01*
X6401Y6049D02*
X6421D01*
X6457D02*
X6467D01*
X6482D02*
X6493D01*
X6401Y6054D02*
X6421D01*
X6447D02*
X6457D01*
X6467D02*
X6472D01*
X6401Y6059D02*
X6421D01*
X6432D02*
X6452D01*
X6467D02*
X6477D01*
X6401Y6064D02*
X6437D01*
X6452D02*
X6457D01*
X6472D02*
X6482D01*
X6401Y6070D02*
X6421D01*
X6432D02*
X6437D01*
X6452D02*
X6457D01*
X6482D02*
X6493D01*
X6401Y6075D02*
X6421D01*
X6437D02*
X6442D01*
X6457D02*
X6462D01*
X6401Y6080D02*
X6421D01*
X6432D02*
X6442D01*
X6462D02*
X6472D01*
X6401Y6085D02*
X6421D01*
X6426D02*
X6432D01*
X6442D02*
X6447D01*
X6467D02*
X6477D01*
X6401Y6090D02*
X6426D01*
X6447D02*
X6452D01*
X6477D02*
X6487D01*
X6401Y6095D02*
X6421D01*
X6442D02*
X6447D01*
X6452D02*
X6457D01*
X6401Y6100D02*
X6421D01*
X6437D02*
X6447D01*
X6457D02*
X6467D01*
X6401Y6105D02*
X6421D01*
X6426D02*
X6437D01*
X6457D02*
X6477D01*
X6401Y6110D02*
X6447D01*
X6452D02*
X6462D01*
X6477D02*
X6487D01*
X6401Y6115D02*
X6477D01*
X6401Y6024D02*
X6477D01*
X6487D02*
X6493D01*
X6401Y6029D02*
X6447D01*
X6452D02*
X6462D01*
X6482D02*
X6487D01*
X6518Y6242D02*
X6543D01*
X6559D02*
X6569D01*
X6635D02*
X6640D01*
X6660D02*
X6665D01*
X6675D02*
X6680D01*
X6513Y6247D02*
X6543D01*
X6569D02*
X6579D01*
X6620D02*
X6635D01*
X6655D02*
X6665D01*
X6513Y6252D02*
X6538D01*
X6543D02*
X6548D01*
X6579D02*
X6620D01*
X6650D02*
X6665D01*
X6508Y6257D02*
X6538D01*
X6548D02*
X6559D01*
X6645D02*
X6650D01*
X6665D02*
X6670D01*
X6503Y6263D02*
X6528D01*
X6548D02*
X6564D01*
X6635D02*
X6650D01*
X6670D02*
X6680D01*
X6503Y6268D02*
X6523D01*
X6543D02*
X6553D01*
X6564D02*
X6579D01*
X6625D02*
X6635D01*
X6650D02*
X6655D01*
X6538Y6273D02*
X6548D01*
X6564D02*
X6569D01*
X6579D02*
X6620D01*
X6630D02*
X6635D01*
X6655D02*
X6660D01*
X6533Y6278D02*
X6543D01*
X6564D02*
X6569D01*
X6584D02*
X6589D01*
X6614D02*
X6620D01*
X6635D02*
X6640D01*
X6660D02*
X6665D01*
X6518Y6283D02*
X6533D01*
X6559D02*
X6564D01*
X6579D02*
X6584D01*
X6614D02*
X6620D01*
X6640D02*
X6645D01*
X6665D02*
X6680D01*
X6553Y6288D02*
X6559D01*
X6579D02*
X6584D01*
X6614D02*
X6625D01*
X6645D02*
X6650D01*
X6543Y6293D02*
X6553D01*
X6574D02*
X6579D01*
X6584D02*
X6589D01*
X6609D02*
X6620D01*
X6625D02*
X6630D01*
X6650D02*
X6655D01*
X6533Y6298D02*
X6543D01*
X6569D02*
X6574D01*
X6589D02*
X6614D01*
X6625D02*
X6645D01*
X6655D02*
X6665D01*
X6518Y6303D02*
X6533D01*
X6564D02*
X6574D01*
X6620D02*
X6660D01*
X6665D02*
X6686D01*
X6553Y6308D02*
X6564D01*
X6574D02*
X6579D01*
X6614D02*
X6670D01*
X6691D02*
X6696D01*
X6548Y6313D02*
X6559D01*
X6579D02*
X6584D01*
X6604D02*
X6686D01*
X6538Y6318D02*
X6548D01*
X6559D02*
X6564D01*
X6584D02*
X6696D01*
X6538Y6324D02*
X6543D01*
X6559D02*
X6569D01*
X6589D02*
X6630D01*
X6543Y6329D02*
X6548D01*
X6564D02*
X6574D01*
X6584D02*
X6625D01*
X6503Y6334D02*
X6538D01*
X6543D02*
X6553D01*
X6574D02*
X6614D01*
X6508Y6339D02*
X6543D01*
X6548D02*
X6559D01*
X6569D02*
X6609D01*
X6513Y6344D02*
X6548D01*
X6553D02*
X6599D01*
X6518Y6349D02*
X6594D01*
X6523Y6354D02*
X6584D01*
X6528Y6359D02*
X6579D01*
X6533Y6364D02*
X6569D01*
X6538Y6369D02*
X6564D01*
X6543Y6374D02*
X6553D01*
X6538Y6039D02*
X6548D01*
X6574D02*
X6584D01*
X6614D02*
X6630D01*
X6655D02*
X6680D01*
X6533Y6044D02*
X6538D01*
X6543D02*
X6553D01*
X6589D02*
X6614D01*
X6650D02*
X6655D01*
X6660D02*
X6680D01*
X6528Y6049D02*
X6533D01*
X6553D02*
X6559D01*
X6640D02*
X6650D01*
X6655D02*
X6680D01*
X6548Y6054D02*
X6553D01*
X6559D02*
X6569D01*
X6630D02*
X6640D01*
X6645D02*
X6650D01*
X6655D02*
X6675D01*
X6543Y6059D02*
X6548D01*
X6569D02*
X6584D01*
X6614D02*
X6635D01*
X6650D02*
X6675D01*
X6538Y6064D02*
X6543D01*
X6564D02*
X6569D01*
X6584D02*
X6589D01*
X6594D02*
X6614D01*
X6630D02*
X6635D01*
X6655D02*
X6675D01*
X6528Y6070D02*
X6538D01*
X6559D02*
X6564D01*
X6584D02*
X6589D01*
X6614D02*
X6620D01*
X6635D02*
X6640D01*
X6655D02*
X6675D01*
X6553Y6075D02*
X6559D01*
X6579D02*
X6584D01*
X6614D02*
X6620D01*
X6640D02*
X6645D01*
X6655D02*
X6675D01*
X6548Y6080D02*
X6553D01*
X6574D02*
X6584D01*
X6614D02*
X6625D01*
X6645D02*
X6650D01*
X6655D02*
X6675D01*
X6543Y6085D02*
X6548D01*
X6569D02*
X6574D01*
X6584D02*
X6594D01*
X6609D02*
X6614D01*
X6625D02*
X6630D01*
X6650D02*
X6675D01*
X6528Y6090D02*
X6543D01*
X6564D02*
X6574D01*
X6594D02*
X6609D01*
X6630D02*
X6635D01*
X6655D02*
X6675D01*
X6559Y6095D02*
X6564D01*
X6569D02*
X6574D01*
X6625D02*
X6630D01*
X6635D02*
X6640D01*
X6660D02*
X6680D01*
X6553Y6100D02*
X6559D01*
X6574D02*
X6579D01*
X6620D02*
X6625D01*
X6640D02*
X6650D01*
X6660D02*
X6680D01*
X6543Y6105D02*
X6559D01*
X6579D02*
X6589D01*
X6609D02*
X6620D01*
X6640D02*
X6655D01*
X6660D02*
X6680D01*
X6528Y6110D02*
X6543D01*
X6559D02*
X6564D01*
X6594D02*
X6609D01*
X6635D02*
X6640D01*
X6655D02*
X6680D01*
X6538Y6115D02*
X6543D01*
X6564D02*
X6569D01*
X6630D02*
X6640D01*
X6655D02*
X6660D01*
X6665D02*
X6686D01*
X6523Y6120D02*
X6528D01*
X6543D02*
X6548D01*
X6569D02*
X6579D01*
X6625D02*
X6630D01*
X6650D02*
X6655D01*
X6665D02*
X6686D01*
X6523Y6125D02*
X6528D01*
X6548D02*
X6553D01*
X6579D02*
X6594D01*
X6609D02*
X6625D01*
X6645D02*
X6655D01*
X6670D02*
X6691D01*
X6523Y6130D02*
X6533D01*
X6553D02*
X6559D01*
X6594D02*
X6604D01*
X6640D02*
X6650D01*
X6665D02*
X6696D01*
X6533Y6136D02*
X6538D01*
X6559D02*
X6564D01*
X6635D02*
X6645D01*
X6665D02*
X6670D01*
X6675D02*
X6696D01*
X6538Y6141D02*
X6543D01*
X6564D02*
X6574D01*
X6625D02*
X6635D01*
X6660D02*
X6665D01*
X6503Y6146D02*
X6528D01*
X6538D02*
X6548D01*
X6574D02*
X6594D01*
X6604D02*
X6625D01*
X6655D02*
X6665D01*
X6508Y6151D02*
X6528D01*
X6533D02*
X6538D01*
X6548D02*
X6553D01*
X6645D02*
X6655D01*
X6665D02*
X6670D01*
X6508Y6156D02*
X6533D01*
X6553D02*
X6564D01*
X6640D02*
X6650D01*
X6670D02*
X6675D01*
X6508Y6161D02*
X6533D01*
X6548D02*
X6553D01*
X6564D02*
X6574D01*
X6625D02*
X6640D01*
X6650D02*
X6655D01*
X6513Y6166D02*
X6533D01*
X6543D02*
X6548D01*
X6569D02*
X6625D01*
X6630D02*
X6635D01*
X6650D02*
X6660D01*
X6513Y6171D02*
X6543D01*
X6564D02*
X6569D01*
X6584D02*
X6589D01*
X6609D02*
X6614D01*
X6635D02*
X6640D01*
X6655D02*
X6665D01*
X6518Y6176D02*
X6538D01*
X6559D02*
X6564D01*
X6579D02*
X6584D01*
X6614D02*
X6620D01*
X6635D02*
X6640D01*
X6665D02*
X6675D01*
X6518Y6181D02*
X6543D01*
X6553D02*
X6559D01*
X6579D02*
X6584D01*
X6620D02*
X6625D01*
X6640D02*
X6650D01*
X6523Y6186D02*
X6543D01*
X6548D02*
X6553D01*
X6574D02*
X6589D01*
X6614D02*
X6625D01*
X6645D02*
X6655D01*
X6523Y6191D02*
X6548D01*
X6569D02*
X6574D01*
X6584D02*
X6594D01*
X6604D02*
X6614D01*
X6625D02*
X6630D01*
X6655D02*
X6660D01*
X6523Y6197D02*
X6548D01*
X6564D02*
X6574D01*
X6630D02*
X6635D01*
X6660D02*
X6675D01*
X6528Y6202D02*
X6548D01*
X6559D02*
X6564D01*
X6569D02*
X6574D01*
X6625D02*
X6630D01*
X6635D02*
X6645D01*
X6528Y6207D02*
X6559D01*
X6574D02*
X6584D01*
X6620D02*
X6625D01*
X6640D02*
X6650D01*
X6533Y6212D02*
X6559D01*
X6584D02*
X6620D01*
X6640D02*
X6645D01*
X6650D02*
X6660D01*
X6533Y6217D02*
X6553D01*
X6559D02*
X6564D01*
X6635D02*
X6640D01*
X6660D02*
X6675D01*
X6533Y6222D02*
X6553D01*
X6564D02*
X6574D01*
X6630D02*
X6635D01*
X6655D02*
X6660D01*
X6528Y6227D02*
X6553D01*
X6569D02*
X6579D01*
X6620D02*
X6630D01*
X6650D02*
X6655D01*
X6675D02*
X6680D01*
X6523Y6232D02*
X6553D01*
X6579D02*
X6620D01*
X6645D02*
X6650D01*
X6670D02*
X6675D01*
X6528Y5836D02*
X6538D01*
X6548D02*
X6553D01*
X6620D02*
X6650D01*
X6665D02*
X6686D01*
X6523Y5841D02*
X6533D01*
X6553D02*
X6564D01*
X6635D02*
X6650D01*
X6665D02*
X6686D01*
X6548Y5846D02*
X6553D01*
X6564D02*
X6574D01*
X6625D02*
X6635D01*
X6650D02*
X6655D01*
X6670D02*
X6691D01*
X6543Y5851D02*
X6548D01*
X6564D02*
X6569D01*
X6579D02*
X6625D01*
X6630D02*
X6635D01*
X6655D02*
X6660D01*
X6670D02*
X6691D01*
X6533Y5856D02*
X6543D01*
X6564D02*
X6569D01*
X6584D02*
X6589D01*
X6635D02*
X6640D01*
X6660D02*
X6665D01*
X6675D02*
X6696D01*
X6523Y5861D02*
X6533D01*
X6559D02*
X6564D01*
X6579D02*
X6584D01*
X6614D02*
X6620D01*
X6635D02*
X6645D01*
X6665D02*
X6696D01*
X6553Y5866D02*
X6559D01*
X6579D02*
X6584D01*
X6614D02*
X6625D01*
X6640D02*
X6650D01*
X6543Y5871D02*
X6553D01*
X6574D02*
X6579D01*
X6584D02*
X6589D01*
X6614D02*
X6620D01*
X6625D02*
X6630D01*
X6650D02*
X6655D01*
X6503Y5876D02*
X6528D01*
X6538D02*
X6543D01*
X6569D02*
X6574D01*
X6589D02*
X6614D01*
X6625D02*
X6630D01*
X6655D02*
X6665D01*
X6503Y5882D02*
X6538D01*
X6564D02*
X6574D01*
X6630D02*
X6640D01*
X6508Y5887D02*
X6533D01*
X6559D02*
X6564D01*
X6569D02*
X6579D01*
X6625D02*
X6630D01*
X6635D02*
X6645D01*
X6513Y5892D02*
X6538D01*
X6548D02*
X6559D01*
X6574D02*
X6584D01*
X6614D02*
X6625D01*
X6640D02*
X6650D01*
X6513Y5897D02*
X6548D01*
X6553D02*
X6564D01*
X6584D02*
X6614D01*
X6640D02*
X6645D01*
X6650D02*
X6660D01*
X6518Y5902D02*
X6543D01*
X6559D02*
X6569D01*
X6635D02*
X6640D01*
X6660D02*
X6680D01*
X6523Y5907D02*
X6548D01*
X6564D02*
X6574D01*
X6630D02*
X6635D01*
X6655D02*
X6660D01*
X6675D02*
X6680D01*
X6523Y5912D02*
X6548D01*
X6574D02*
X6584D01*
X6620D02*
X6630D01*
X6650D02*
X6655D01*
X6670D02*
X6675D01*
X6528Y5917D02*
X6553D01*
X6584D02*
X6620D01*
X6645D02*
X6650D01*
X6670D02*
X6675D01*
X6533Y5922D02*
X6564D01*
X6640D02*
X6645D01*
X6665D02*
X6675D01*
X6528Y5927D02*
X6548D01*
X6559D02*
X6569D01*
X6630D02*
X6640D01*
X6660D02*
X6665D01*
X6675D02*
X6686D01*
X6528Y5932D02*
X6548D01*
X6569D02*
X6579D01*
X6620D02*
X6630D01*
X6655D02*
X6665D01*
X6686D02*
X6696D01*
X6528Y5937D02*
X6548D01*
X6584D02*
X6620D01*
X6650D02*
X6655D01*
X6660D02*
X6665D01*
X6523Y5943D02*
X6543D01*
X6548D02*
X6559D01*
X6645D02*
X6650D01*
X6665D02*
X6670D01*
X6523Y5948D02*
X6543D01*
X6548D02*
X6553D01*
X6559D02*
X6569D01*
X6635D02*
X6650D01*
X6670D02*
X6686D01*
X6518Y5953D02*
X6538D01*
X6543D02*
X6553D01*
X6569D02*
X6579D01*
X6620D02*
X6635D01*
X6650D02*
X6655D01*
X6686D02*
X6696D01*
X6518Y5958D02*
X6548D01*
X6564D02*
X6569D01*
X6584D02*
X6620D01*
X6630D02*
X6635D01*
X6655D02*
X6660D01*
X6518Y5963D02*
X6538D01*
X6559D02*
X6569D01*
X6584D02*
X6589D01*
X6614D02*
X6620D01*
X6635D02*
X6640D01*
X6660D02*
X6670D01*
X6513Y5968D02*
X6533D01*
X6553D02*
X6564D01*
X6579D02*
X6584D01*
X6614D02*
X6620D01*
X6640D02*
X6645D01*
X6670D02*
X6686D01*
X6513Y5973D02*
X6533D01*
X6548D02*
X6559D01*
X6574D02*
X6584D01*
X6614D02*
X6625D01*
X6645D02*
X6650D01*
X6508Y5978D02*
X6533D01*
X6543D02*
X6553D01*
X6574D02*
X6579D01*
X6584D02*
X6589D01*
X6609D02*
X6620D01*
X6625D02*
X6630D01*
X6650D02*
X6655D01*
X6508Y5983D02*
X6528D01*
X6533D02*
X6543D01*
X6569D02*
X6574D01*
X6589D02*
X6609D01*
X6630D02*
X6635D01*
X6655D02*
X6665D01*
X6508Y5988D02*
X6533D01*
X6564D02*
X6574D01*
X6625D02*
X6640D01*
X6503Y5993D02*
X6523D01*
X6553D02*
X6564D01*
X6574D02*
X6579D01*
X6620D02*
X6630D01*
X6640D02*
X6645D01*
X6503Y5998D02*
X6523D01*
X6548D02*
X6559D01*
X6579D02*
X6589D01*
X6614D02*
X6625D01*
X6640D02*
X6655D01*
X6533Y6003D02*
X6548D01*
X6559D02*
X6564D01*
X6589D02*
X6614D01*
X6640D02*
X6645D01*
X6655D02*
X6665D01*
X6538Y6009D02*
X6543D01*
X6564D02*
X6569D01*
X6635D02*
X6640D01*
X6655D02*
X6660D01*
X6665D02*
X6696D01*
X6543Y6014D02*
X6548D01*
X6569D02*
X6574D01*
X6625D02*
X6635D01*
X6655D02*
X6660D01*
X6670D02*
X6691D01*
X6523Y6019D02*
X6528D01*
X6543D02*
X6553D01*
X6574D02*
X6584D01*
X6614D02*
X6625D01*
X6650D02*
X6655D01*
X6665D02*
X6691D01*
X6528Y6024D02*
X6533D01*
X6548D02*
X6559D01*
X6589D02*
X6614D01*
X6645D02*
X6650D01*
X6665D02*
X6686D01*
X6523Y6029D02*
X6528D01*
X6533D02*
X6538D01*
X6559D02*
X6564D01*
X6635D02*
X6645D01*
X6660D02*
X6686D01*
X6543Y5770D02*
X6553D01*
X6538Y5775D02*
X6564D01*
X6533Y5780D02*
X6569D01*
X6528Y5785D02*
X6579D01*
X6523Y5790D02*
X6584D01*
X6518Y5795D02*
X6548D01*
X6559D02*
X6594D01*
X6513Y5800D02*
X6543D01*
X6564D02*
X6599D01*
X6508Y5805D02*
X6538D01*
X6543D02*
X6548D01*
X6569D02*
X6609D01*
X6660D02*
X6675D01*
X6503Y5810D02*
X6533D01*
X6548D02*
X6553D01*
X6579D02*
X6614D01*
X6650D02*
X6675D01*
X6553Y5816D02*
X6559D01*
X6589D02*
X6625D01*
X6640D02*
X6675D01*
X6533Y5821D02*
X6538D01*
X6559D02*
X6569D01*
X6599D02*
X6680D01*
X6538Y5826D02*
X6543D01*
X6569D02*
X6579D01*
X6604D02*
X6680D01*
X6726Y6445D02*
X6838D01*
X6731Y6451D02*
X6833D01*
X6716Y6242D02*
X6721D01*
X6741D02*
X6752D01*
X6813D02*
X6823D01*
X6843D02*
X6848D01*
X6858D02*
X6863D01*
X6884D02*
X6889D01*
X6721Y6247D02*
X6726D01*
X6752D02*
X6762D01*
X6802D02*
X6813D01*
X6838D02*
X6843D01*
X6863D02*
X6884D01*
X6716Y6252D02*
X6721D01*
X6726D02*
X6731D01*
X6762D02*
X6802D01*
X6833D02*
X6838D01*
X6843D02*
X6848D01*
X6711Y6257D02*
X6716D01*
X6731D02*
X6736D01*
X6828D02*
X6833D01*
X6848D02*
X6853D01*
X6894D02*
X6899D01*
X6731Y6263D02*
X6747D01*
X6818D02*
X6833D01*
X6853D02*
X6863D01*
X6884D02*
X6894D01*
X6726Y6268D02*
X6731D01*
X6747D02*
X6762D01*
X6802D02*
X6818D01*
X6833D02*
X6838D01*
X6863D02*
X6884D01*
X6721Y6273D02*
X6731D01*
X6747D02*
X6752D01*
X6762D02*
X6802D01*
X6813D02*
X6818D01*
X6838D02*
X6843D01*
X6716Y6278D02*
X6721D01*
X6741D02*
X6747D01*
X6767D02*
X6772D01*
X6792D02*
X6797D01*
X6818D02*
X6823D01*
X6843D02*
X6848D01*
X6736Y6283D02*
X6747D01*
X6762D02*
X6767D01*
X6797D02*
X6802D01*
X6818D02*
X6828D01*
X6848D02*
X6863D01*
X6884D02*
X6899D01*
X6731Y6288D02*
X6741D01*
X6757D02*
X6767D01*
X6797D02*
X6807D01*
X6823D02*
X6833D01*
X6863D02*
X6884D01*
X6726Y6293D02*
X6736D01*
X6757D02*
X6762D01*
X6767D02*
X6772D01*
X6792D02*
X6797D01*
X6802D02*
X6813D01*
X6833D02*
X6838D01*
X6716Y6298D02*
X6726D01*
X6752D02*
X6757D01*
X6772D02*
X6792D01*
X6807D02*
X6813D01*
X6838D02*
X6848D01*
X6747Y6303D02*
X6757D01*
X6807D02*
X6823D01*
X6848D02*
X6863D01*
X6884D02*
X6899D01*
X6736Y6308D02*
X6747D01*
X6752D02*
X6762D01*
X6802D02*
X6813D01*
X6818D02*
X6828D01*
X6868D02*
X6874D01*
X6731Y6313D02*
X6741D01*
X6757D02*
X6767D01*
X6797D02*
X6807D01*
X6823D02*
X6833D01*
X6721Y6318D02*
X6731D01*
X6736D02*
X6741D01*
X6767D02*
X6797D01*
X6823D02*
X6828D01*
X6833D02*
X6848D01*
X6721Y6324D02*
X6726D01*
X6741D02*
X6747D01*
X6818D02*
X6823D01*
X6838D02*
X6843D01*
X6747Y6329D02*
X6757D01*
X6807D02*
X6818D01*
X6757Y6334D02*
X6767D01*
X6797D02*
X6807D01*
X6833D02*
X6889D01*
X6731Y6339D02*
X6736D01*
X6767D02*
X6797D01*
X6828D02*
X6833D01*
X6838D02*
X6879D01*
X6736Y6344D02*
X6747D01*
X6818D02*
X6828D01*
X6833D02*
X6863D01*
X6711Y6349D02*
X6731D01*
X6741D02*
X6752D01*
X6813D02*
X6823D01*
X6833D02*
X6853D01*
X6711Y6354D02*
X6731D01*
X6752D02*
X6767D01*
X6797D02*
X6813D01*
X6833D02*
X6853D01*
X6711Y6359D02*
X6736D01*
X6767D02*
X6797D01*
X6833D02*
X6853D01*
X6711Y6364D02*
X6741D01*
X6823D02*
X6853D01*
X6716Y6369D02*
X6736D01*
X6741D02*
X6752D01*
X6813D02*
X6823D01*
X6828D02*
X6848D01*
X6716Y6374D02*
X6736D01*
X6747D02*
X6767D01*
X6797D02*
X6818D01*
X6828D02*
X6848D01*
X6716Y6379D02*
X6736D01*
X6747D02*
X6752D01*
X6767D02*
X6797D01*
X6813D02*
X6818D01*
X6828D02*
X6848D01*
X6716Y6384D02*
X6736D01*
X6741D02*
X6747D01*
X6762D02*
X6767D01*
X6797D02*
X6802D01*
X6818D02*
X6823D01*
X6828D02*
X6848D01*
X6716Y6390D02*
X6741D01*
X6762D02*
X6767D01*
X6797D02*
X6802D01*
X6823D02*
X6848D01*
X6721Y6395D02*
X6741D01*
X6757D02*
X6767D01*
X6797D02*
X6807D01*
X6823D02*
X6843D01*
X6721Y6400D02*
X6741D01*
X6752D02*
X6757D01*
X6767D02*
X6772D01*
X6792D02*
X6797D01*
X6807D02*
X6813D01*
X6823D02*
X6843D01*
X6721Y6405D02*
X6741D01*
X6747D02*
X6757D01*
X6772D02*
X6792D01*
X6813D02*
X6818D01*
X6823D02*
X6843D01*
X6721Y6410D02*
X6757D01*
X6807D02*
X6843D01*
X6721Y6415D02*
X6747D01*
X6757D02*
X6762D01*
X6802D02*
X6807D01*
X6818D02*
X6843D01*
X6721Y6420D02*
X6747D01*
X6762D02*
X6772D01*
X6792D02*
X6802D01*
X6818D02*
X6843D01*
X6726Y6425D02*
X6747D01*
X6772D02*
X6792D01*
X6818D02*
X6838D01*
X6726Y6430D02*
X6752D01*
X6813D02*
X6838D01*
X6726Y6435D02*
X6838D01*
X6879Y6115D02*
X6899D01*
X6879Y6120D02*
X6899D01*
X6874Y6125D02*
X6894D01*
X6868Y6130D02*
X6899D01*
X6868Y6136D02*
X6889D01*
X6863Y6141D02*
X6889D01*
X6858Y6146D02*
X6884D01*
X6853Y6151D02*
X6879D01*
X6848Y6156D02*
X6874D01*
X6889D02*
X6894D01*
X6838Y6161D02*
X6889D01*
X6833Y6166D02*
X6863D01*
X6706Y6171D02*
X6747D01*
X6818D02*
X6858D01*
X6706Y6176D02*
X6762D01*
X6802D02*
X6858D01*
X6889D02*
X6899D01*
X6721Y6181D02*
X6843D01*
X6858D02*
X6889D01*
X6726Y6186D02*
X6838D01*
X6721Y6191D02*
X6731D01*
X6747D02*
X6818D01*
X6838D02*
X6843D01*
X6706Y6197D02*
X6721D01*
X6747D02*
X6752D01*
X6813D02*
X6818D01*
X6843D02*
X6858D01*
X6741Y6202D02*
X6747D01*
X6752D02*
X6757D01*
X6807D02*
X6813D01*
X6818D02*
X6823D01*
X6858D02*
X6889D01*
X6731Y6207D02*
X6741D01*
X6757D02*
X6767D01*
X6797D02*
X6807D01*
X6823D02*
X6833D01*
X6721Y6212D02*
X6731D01*
X6736D02*
X6741D01*
X6767D02*
X6797D01*
X6823D02*
X6828D01*
X6833D02*
X6843D01*
X6706Y6217D02*
X6726D01*
X6741D02*
X6747D01*
X6818D02*
X6823D01*
X6838D02*
X6858D01*
X6721Y6222D02*
X6726D01*
X6747D02*
X6752D01*
X6813D02*
X6818D01*
X6838D02*
X6843D01*
X6858D02*
X6889D01*
X6706Y6227D02*
X6711D01*
X6726D02*
X6731D01*
X6752D02*
X6762D01*
X6802D02*
X6813D01*
X6833D02*
X6838D01*
X6853D02*
X6858D01*
X6889D02*
X6894D01*
X6706Y6232D02*
X6711D01*
X6731D02*
X6736D01*
X6762D02*
X6802D01*
X6828D02*
X6833D01*
X6853D02*
X6858D01*
X6889D02*
X6894D01*
X6879Y5836D02*
X6899D01*
X6879Y5841D02*
X6899D01*
X6874Y5846D02*
X6894D01*
X6874Y5851D02*
X6894D01*
X6868Y5856D02*
X6889D01*
X6868Y5861D02*
X6899D01*
X6863Y5866D02*
X6889D01*
X6863Y5871D02*
X6884D01*
X6863Y5876D02*
X6884D01*
X6858Y5882D02*
X6884D01*
X6889D02*
X6899D01*
X6858Y5887D02*
X6879D01*
X6853Y5892D02*
X6879D01*
X6853Y5897D02*
X6874D01*
X6853Y5902D02*
X6874D01*
X6848Y5907D02*
X6879D01*
X6884D02*
X6889D01*
X6848Y5912D02*
X6868D01*
X6889D02*
X6894D01*
X6843Y5917D02*
X6863D01*
X6889D02*
X6894D01*
X6843Y5922D02*
X6863D01*
X6889D02*
X6899D01*
X6838Y5927D02*
X6863D01*
X6879D02*
X6889D01*
X6706Y5932D02*
X6726D01*
X6838D02*
X6858D01*
X6868D02*
X6879D01*
X6706Y5937D02*
X6726D01*
X6838D02*
X6858D01*
X6711Y5943D02*
X6731D01*
X6833D02*
X6853D01*
X6894D02*
X6899D01*
X6833Y5948D02*
X6863D01*
X6884D02*
X6894D01*
X6711Y5953D02*
X6736D01*
X6828D02*
X6853D01*
X6868D02*
X6879D01*
X6716Y5958D02*
X6736D01*
X6828D02*
X6848D01*
X6711Y5963D02*
X6736D01*
X6828D02*
X6853D01*
X6823Y5968D02*
X6868D01*
X6879D02*
X6894D01*
X6828Y5973D02*
X6868D01*
X6833Y5978D02*
X6868D01*
X6843Y5983D02*
X6874D01*
X6848Y5988D02*
X6899D01*
X6853Y5993D02*
X6884D01*
X6858Y5998D02*
X6889D01*
X6863Y6003D02*
X6889D01*
X6868Y6009D02*
X6899D01*
X6874Y6014D02*
X6894D01*
X6874Y6019D02*
X6899D01*
X6879Y6024D02*
X6899D01*
X6924Y6242D02*
X6934D01*
X6995D02*
X7006D01*
X7021D02*
X7046D01*
X6934Y6247D02*
X6945D01*
X6985D02*
X6995D01*
X7021D02*
X7051D01*
X6909Y6252D02*
X6914D01*
X6945D02*
X6985D01*
X7016D02*
X7021D01*
X7026D02*
X7051D01*
X6914Y6257D02*
X6919D01*
X7011D02*
X7016D01*
X7031D02*
X7056D01*
X6914Y6263D02*
X6929D01*
X7001D02*
X7016D01*
X7036D02*
X7061D01*
X6909Y6268D02*
X6914D01*
X6929D02*
X6945D01*
X6985D02*
X7001D01*
X7011D02*
X7021D01*
X7041D02*
X7061D01*
X6929Y6273D02*
X6934D01*
X6945D02*
X6985D01*
X6995D02*
X7001D01*
X7016D02*
X7026D01*
X7041D02*
X7067D01*
X6924Y6278D02*
X6929D01*
X6975D02*
X6980D01*
X6995D02*
X7006D01*
X7026D02*
X7031D01*
X7046D02*
X7072D01*
X6919Y6283D02*
X6924D01*
X6945D02*
X6950D01*
X6980D02*
X6985D01*
X7001D02*
X7006D01*
X7031D02*
X7046D01*
X7051D02*
X7072D01*
X6914Y6288D02*
X6924D01*
X6940D02*
X6950D01*
X6980D02*
X6990D01*
X7006D02*
X7016D01*
X7046D02*
X7077D01*
X6909Y6293D02*
X6914D01*
X6934D02*
X6940D01*
X6945D02*
X6955D01*
X6975D02*
X6980D01*
X6985D02*
X6990D01*
X7011D02*
X7021D01*
X7056D02*
X7082D01*
X6919Y6298D02*
X6940D01*
X6955D02*
X6975D01*
X6990D02*
X6995D01*
X7021D02*
X7031D01*
X7061D02*
X7087D01*
X6990Y6303D02*
X7001D01*
X7031D02*
X7046D01*
X7056D02*
X7087D01*
X6985Y6308D02*
X6995D01*
X7001D02*
X7011D01*
X7051D02*
X7087D01*
X6980Y6313D02*
X6985D01*
X7006D02*
X7016D01*
X7046D02*
X7082D01*
X7001Y6318D02*
X7011D01*
X7016D02*
X7026D01*
X7041D02*
X7077D01*
X6934Y6324D02*
X6975D01*
X6995D02*
X7006D01*
X7021D02*
X7026D01*
X7031D02*
X7072D01*
X6940Y6329D02*
X6980D01*
X6990D02*
X7001D01*
X7016D02*
X7021D01*
X7031D02*
X7067D01*
X6950Y6334D02*
X6990D01*
X7016D02*
X7021D01*
X7026D02*
X7061D01*
X6955Y6339D02*
X6995D01*
X7011D02*
X7016D01*
X7021D02*
X7056D01*
X6965Y6344D02*
X7011D01*
X7016D02*
X7051D01*
X6970Y6349D02*
X7046D01*
X6980Y6354D02*
X7041D01*
X6985Y6359D02*
X7036D01*
X6995Y6364D02*
X7031D01*
X7001Y6369D02*
X7026D01*
X7011Y6374D02*
X7021D01*
X6934Y6039D02*
X6950D01*
X6980D02*
X6990D01*
X7021D02*
X7026D01*
X7082D02*
X7092D01*
X6909Y6044D02*
X6914D01*
X6950D02*
X6975D01*
X7011D02*
X7021D01*
X7026D02*
X7031D01*
X7077D02*
X7087D01*
X7092D02*
X7097D01*
X6914Y6049D02*
X6924D01*
X7006D02*
X7016D01*
X7031D02*
X7036D01*
X7072D02*
X7082D01*
X6914Y6054D02*
X6919D01*
X6924D02*
X6934D01*
X6995D02*
X7006D01*
X7011D02*
X7016D01*
X7036D02*
X7072D01*
X7097D02*
X7102D01*
X6929Y6059D02*
X6950D01*
X6980D02*
X6995D01*
X7016D02*
X7021D01*
X7092D02*
X7097D01*
X6929Y6064D02*
X6934D01*
X6950D02*
X6970D01*
X6975D02*
X6980D01*
X6995D02*
X7001D01*
X7021D02*
X7026D01*
X7082D02*
X7092D01*
X6924Y6070D02*
X6929D01*
X6945D02*
X6950D01*
X6980D02*
X6985D01*
X7001D02*
X7006D01*
X7026D02*
X7036D01*
X7077D02*
X7082D01*
X6919Y6075D02*
X6924D01*
X6945D02*
X6950D01*
X6980D02*
X6985D01*
X7006D02*
X7011D01*
X7036D02*
X7072D01*
X6914Y6080D02*
X6919D01*
X6940D02*
X6950D01*
X6980D02*
X6990D01*
X7011D02*
X7016D01*
X7097D02*
X7102D01*
X6934Y6085D02*
X6940D01*
X6950D02*
X6955D01*
X6970D02*
X6980D01*
X6990D02*
X6995D01*
X7016D02*
X7026D01*
X7087D02*
X7097D01*
X6929Y6090D02*
X6934D01*
X6955D02*
X6970D01*
X6990D02*
X7001D01*
X7026D02*
X7036D01*
X7077D02*
X7087D01*
X6924Y6095D02*
X6929D01*
X6934D02*
X6940D01*
X6990D02*
X6995D01*
X7001D02*
X7006D01*
X7036D02*
X7077D01*
X6914Y6100D02*
X6924D01*
X6940D02*
X6945D01*
X6985D02*
X6990D01*
X7006D02*
X7011D01*
X6909Y6105D02*
X6924D01*
X6945D02*
X6955D01*
X6975D02*
X6985D01*
X7006D02*
X7021D01*
X6924Y6110D02*
X6929D01*
X6955D02*
X6970D01*
X7001D02*
X7006D01*
X7021D02*
X7036D01*
X7077D02*
X7087D01*
X6929Y6115D02*
X6934D01*
X6995D02*
X7001D01*
X7021D02*
X7026D01*
X7036D02*
X7072D01*
X6909Y6120D02*
X6914D01*
X6934D02*
X6940D01*
X6985D02*
X6995D01*
X7016D02*
X7021D01*
X7036D02*
X7041D01*
X6909Y6125D02*
X6919D01*
X6940D02*
X6955D01*
X6975D02*
X6985D01*
X7011D02*
X7016D01*
X7036D02*
X7041D01*
X6914Y6130D02*
X6924D01*
X6960D02*
X6970D01*
X7006D02*
X7011D01*
X7031D02*
X7041D01*
X6924Y6136D02*
X6929D01*
X7001D02*
X7006D01*
X7026D02*
X7031D01*
X7036D02*
X7102D01*
X6929Y6141D02*
X6940D01*
X6990D02*
X7001D01*
X7021D02*
X7026D01*
X7041D02*
X7077D01*
X6940Y6146D02*
X6960D01*
X6970D02*
X6990D01*
X7016D02*
X7026D01*
X7036D02*
X7061D01*
X6909Y6151D02*
X6919D01*
X7011D02*
X7016D01*
X7026D02*
X7056D01*
X6914Y6156D02*
X6924D01*
X7001D02*
X7011D01*
X7031D02*
X7056D01*
X6909Y6161D02*
X6919D01*
X6924D02*
X6940D01*
X6990D02*
X7001D01*
X7011D02*
X7016D01*
X7031D02*
X7056D01*
X6929Y6166D02*
X6934D01*
X6940D02*
X7001D01*
X7016D02*
X7021D01*
X7031D02*
X7051D01*
X6924Y6171D02*
X6934D01*
X6950D02*
X6955D01*
X6975D02*
X6980D01*
X6995D02*
X7001D01*
X7021D02*
X7051D01*
X6924Y6176D02*
X6929D01*
X6945D02*
X6950D01*
X6980D02*
X6985D01*
X7001D02*
X7006D01*
X7026D02*
X7046D01*
X6919Y6181D02*
X6924D01*
X6940D02*
X6950D01*
X6980D02*
X6985D01*
X7006D02*
X7011D01*
X7021D02*
X7046D01*
X6909Y6186D02*
X6919D01*
X6940D02*
X6950D01*
X6975D02*
X6990D01*
X7011D02*
X7016D01*
X7021D02*
X7041D01*
X6934Y6191D02*
X6940D01*
X6950D02*
X6960D01*
X6970D02*
X6980D01*
X6990D02*
X6995D01*
X7016D02*
X7041D01*
X6929Y6197D02*
X6934D01*
X6990D02*
X7001D01*
X7016D02*
X7041D01*
X6919Y6202D02*
X6929D01*
X6934D02*
X6940D01*
X6990D02*
X6995D01*
X7001D02*
X7006D01*
X7016D02*
X7036D01*
X6914Y6207D02*
X6924D01*
X6940D02*
X6945D01*
X6980D02*
X6990D01*
X7006D02*
X7036D01*
X6919Y6212D02*
X6924D01*
X6945D02*
X6980D01*
X7006D02*
X7031D01*
X6924Y6217D02*
X6929D01*
X7001D02*
X7006D01*
X7011D02*
X7031D01*
X6929Y6222D02*
X6934D01*
X6995D02*
X7001D01*
X7011D02*
X7031D01*
X6909Y6227D02*
X6914D01*
X6934D02*
X6945D01*
X6985D02*
X6995D01*
X7011D02*
X7036D01*
X6914Y6232D02*
X6919D01*
X6945D02*
X6985D01*
X7011D02*
X7041D01*
X6914Y5836D02*
X6945D01*
X7011D02*
X7016D01*
X7026D02*
X7036D01*
X7056D02*
X7087D01*
X6914Y5841D02*
X6929D01*
X7001D02*
X7016D01*
X7036D02*
X7041D01*
X7061D02*
X7087D01*
X6909Y5846D02*
X6914D01*
X6929D02*
X6940D01*
X6990D02*
X7001D01*
X7011D02*
X7016D01*
X7041D02*
X7082D01*
X6929Y5851D02*
X6934D01*
X6940D02*
X6985D01*
X6995D02*
X7001D01*
X7016D02*
X7021D01*
X7056D02*
X7082D01*
X6924Y5856D02*
X6929D01*
X6950D02*
X6955D01*
X6975D02*
X6980D01*
X6995D02*
X7001D01*
X7021D02*
X7031D01*
X7051D02*
X7077D01*
X6919Y5861D02*
X6929D01*
X6945D02*
X6950D01*
X6980D02*
X6985D01*
X7001D02*
X7006D01*
X7031D02*
X7041D01*
X7046D02*
X7072D01*
X6914Y5866D02*
X6924D01*
X6940D02*
X6950D01*
X6980D02*
X6985D01*
X7006D02*
X7011D01*
X7041D02*
X7072D01*
X6909Y5871D02*
X6919D01*
X6934D02*
X6950D01*
X6975D02*
X6980D01*
X6985D02*
X6990D01*
X7011D02*
X7021D01*
X7041D02*
X7067D01*
X6934Y5876D02*
X6940D01*
X6950D02*
X6975D01*
X6990D02*
X6995D01*
X7021D02*
X7026D01*
X7036D02*
X7061D01*
X6929Y5882D02*
X6934D01*
X6990D02*
X7001D01*
X7031D02*
X7061D01*
X6919Y5887D02*
X6929D01*
X6934D02*
X6940D01*
X6985D02*
X6995D01*
X7001D02*
X7006D01*
X7031D02*
X7056D01*
X6914Y5892D02*
X6924D01*
X6940D02*
X6950D01*
X6980D02*
X6990D01*
X7006D02*
X7016D01*
X7026D02*
X7051D01*
X6919Y5897D02*
X6924D01*
X6950D02*
X6980D01*
X7006D02*
X7011D01*
X7016D02*
X7051D01*
X6924Y5902D02*
X6929D01*
X7001D02*
X7006D01*
X7021D02*
X7046D01*
X6929Y5907D02*
X6934D01*
X6990D02*
X7001D01*
X7016D02*
X7041D01*
X6909Y5912D02*
X6914D01*
X6934D02*
X6945D01*
X6980D02*
X6990D01*
X7016D02*
X7041D01*
X6914Y5917D02*
X6919D01*
X6945D02*
X6980D01*
X7011D02*
X7036D01*
X6919Y5922D02*
X6924D01*
X7006D02*
X7031D01*
X6924Y5927D02*
X6934D01*
X6995D02*
X7006D01*
X7016D02*
X7036D01*
X6934Y5932D02*
X6945D01*
X6985D02*
X6995D01*
X7016D02*
X7036D01*
X6909Y5937D02*
X6914D01*
X6945D02*
X6980D01*
X7016D02*
X7036D01*
X6914Y5943D02*
X6919D01*
X7006D02*
X7016D01*
X7021D02*
X7041D01*
X6914Y5948D02*
X6919D01*
X6924D02*
X6929D01*
X6995D02*
X7006D01*
X7011D02*
X7016D01*
X7021D02*
X7041D01*
X6909Y5953D02*
X6914D01*
X6929D02*
X6945D01*
X6985D02*
X7001D01*
X7016D02*
X7021D01*
X7026D02*
X7046D01*
X6929Y5958D02*
X6934D01*
X6945D02*
X6980D01*
X6995D02*
X7001D01*
X7021D02*
X7046D01*
X6924Y5963D02*
X6929D01*
X6945D02*
X6950D01*
X6975D02*
X6980D01*
X7001D02*
X7006D01*
X7026D02*
X7046D01*
X6919Y5968D02*
X6924D01*
X6945D02*
X6950D01*
X6980D02*
X6985D01*
X7001D02*
X7011D01*
X7031D02*
X7051D01*
X6914Y5973D02*
X6919D01*
X6940D02*
X6950D01*
X6980D02*
X6990D01*
X7006D02*
X7016D01*
X7031D02*
X7051D01*
X6909Y5978D02*
X6914D01*
X6934D02*
X6940D01*
X6950D02*
X6955D01*
X6975D02*
X6980D01*
X6985D02*
X6995D01*
X7016D02*
X7021D01*
X7036D02*
X7056D01*
X6929Y5983D02*
X6934D01*
X6955D02*
X6975D01*
X6990D02*
X6995D01*
X7021D02*
X7031D01*
X7036D02*
X7056D01*
X6924Y5988D02*
X6940D01*
X6990D02*
X7006D01*
X7031D02*
X7056D01*
X6919Y5993D02*
X6924D01*
X6934D02*
X6945D01*
X6985D02*
X6990D01*
X7001D02*
X7011D01*
X7041D02*
X7061D01*
X6909Y5998D02*
X6924D01*
X6945D02*
X6950D01*
X6975D02*
X6985D01*
X7006D02*
X7016D01*
X7041D02*
X7061D01*
X6919Y6003D02*
X6924D01*
X6950D02*
X6975D01*
X7001D02*
X7006D01*
X7021D02*
X7031D01*
X7046D02*
X7077D01*
X6924Y6009D02*
X6929D01*
X6995D02*
X7006D01*
X7021D02*
X7026D01*
X7031D02*
X7102D01*
X6929Y6014D02*
X6940D01*
X6990D02*
X6995D01*
X7016D02*
X7021D01*
X7041D02*
X7046D01*
X6909Y6019D02*
X6914D01*
X6940D02*
X6950D01*
X6980D02*
X6990D01*
X7011D02*
X7021D01*
X7036D02*
X7041D01*
X6914Y6024D02*
X6919D01*
X6950D02*
X6975D01*
X7006D02*
X7016D01*
X7031D02*
X7036D01*
X7072D02*
X7077D01*
X6919Y6029D02*
X6929D01*
X7001D02*
X7011D01*
X7026D02*
X7041D01*
X7067D02*
X7072D01*
X7077D02*
X7082D01*
X7011Y5770D02*
X7021D01*
X7001Y5775D02*
X7026D01*
X6995Y5780D02*
X7031D01*
X6985Y5785D02*
X7036D01*
X6980Y5790D02*
X7041D01*
X6970Y5795D02*
X7006D01*
X7016D02*
X7046D01*
X6965Y5800D02*
X7001D01*
X7021D02*
X7051D01*
X6955Y5805D02*
X6995D01*
X7016D02*
X7021D01*
X7026D02*
X7056D01*
X6950Y5810D02*
X6985D01*
X7011D02*
X7016D01*
X7031D02*
X7061D01*
X6940Y5816D02*
X6975D01*
X7006D02*
X7011D01*
X7031D02*
X7067D01*
X6995Y5821D02*
X7006D01*
X7026D02*
X7031D01*
X7041D02*
X7072D01*
X6985Y5826D02*
X6995D01*
X7021D02*
X7026D01*
X7046D02*
X7077D01*
X7117Y6039D02*
X7133D01*
X7143D02*
X7163D01*
X7133Y6044D02*
X7163D01*
X7143Y6049D02*
X7163D01*
X7143Y6054D02*
X7163D01*
X7112Y6059D02*
X7133D01*
X7143D02*
X7163D01*
X7133Y6064D02*
X7138D01*
X7143D02*
X7163D01*
X7128Y6070D02*
X7133D01*
X7143D02*
X7163D01*
X7122Y6075D02*
X7128D01*
X7143D02*
X7163D01*
X7122Y6080D02*
X7133D01*
X7143D02*
X7163D01*
X7117Y6085D02*
X7122D01*
X7133D02*
X7138D01*
X7143D02*
X7163D01*
X7112Y6090D02*
X7117D01*
X7138D02*
X7163D01*
X7117Y6095D02*
X7122D01*
X7143D02*
X7163D01*
X7122Y6100D02*
X7128D01*
X7143D02*
X7163D01*
X7128Y6105D02*
X7138D01*
X7143D02*
X7163D01*
X7117Y6110D02*
X7163D01*
X7117Y6029D02*
X7163D01*
M02*
