%FSLAX42Y42*%
%MOMM*%
G71*
G01*
G75*
G04 Layer_Color=8388736*
%ADD10R,1.60X4.90*%
%ADD11R,0.70X2.35*%
%ADD12O,1.45X0.45*%
%ADD13R,1.65X2.54*%
%ADD14R,1.75X1.75*%
%ADD15O,0.80X0.30*%
%ADD16O,0.30X0.80*%
%ADD17R,1.50X1.50*%
%ADD18R,1.30X1.30*%
%ADD19R,1.60X0.90*%
%ADD20R,0.80X0.80*%
%ADD21R,0.80X0.80*%
%ADD22R,0.90X1.25*%
%ADD23R,1.25X0.90*%
%ADD24R,1.30X1.30*%
%ADD25R,0.90X1.60*%
%ADD26R,1.45X0.55*%
%ADD27R,1.45X0.55*%
%ADD28R,0.40X1.55*%
%ADD29C,0.25*%
%ADD30C,0.51*%
%ADD31C,0.64*%
%ADD32C,0.38*%
%ADD33C,0.76*%
%ADD34C,1.52*%
%ADD35R,1.52X1.52*%
%ADD36C,1.02*%
%ADD37C,1.30*%
%ADD38R,1.20X1.20*%
%ADD39C,0.89*%
%ADD40C,0.25*%
%ADD41C,0.60*%
%ADD42C,0.30*%
%ADD43C,0.20*%
%ADD44C,0.25*%
%ADD45C,0.10*%
%ADD46C,0.12*%
%ADD47C,0.18*%
%ADD48C,0.15*%
%ADD49C,0.13*%
%ADD50R,1.80X5.10*%
%ADD51R,0.90X2.55*%
%ADD52O,1.65X0.65*%
%ADD53R,1.85X2.74*%
%ADD54R,1.95X1.95*%
%ADD55O,1.00X0.50*%
%ADD56O,0.50X1.00*%
%ADD57R,1.70X1.70*%
%ADD58R,1.50X1.50*%
%ADD59R,1.80X1.10*%
%ADD60R,1.00X1.00*%
%ADD61R,1.00X1.00*%
%ADD62R,1.10X1.45*%
%ADD63R,1.45X1.10*%
%ADD64R,1.50X1.50*%
%ADD65R,1.10X1.80*%
%ADD66R,1.65X0.75*%
%ADD67R,1.65X0.75*%
%ADD68R,0.60X1.75*%
%ADD69C,1.73*%
%ADD70R,1.73X1.73*%
%ADD71C,1.22*%
%ADD72C,1.50*%
%ADD73R,1.40X1.40*%
%ADD74C,1.09*%
D29*
X5000Y3000D02*
Y8000D01*
X8500D01*
Y3000D02*
Y8000D01*
X5000Y3000D02*
X8500D01*
D50*
X6015Y7722D02*
D03*
X6865D02*
D03*
D51*
X6440Y7880D02*
D03*
D52*
X6638Y6618D02*
D03*
Y6554D02*
D03*
Y6490D02*
D03*
Y6426D02*
D03*
Y6362D02*
D03*
Y6298D02*
D03*
Y6234D02*
D03*
Y6170D02*
D03*
Y6106D02*
D03*
Y6042D02*
D03*
X7182Y6618D02*
D03*
Y6554D02*
D03*
Y6490D02*
D03*
Y6426D02*
D03*
Y6362D02*
D03*
Y6298D02*
D03*
Y6234D02*
D03*
Y6170D02*
D03*
Y6106D02*
D03*
Y6042D02*
D03*
D53*
X6094Y4513D02*
D03*
X5840D02*
D03*
X5586D02*
D03*
Y3307D02*
D03*
X5840D02*
D03*
X6094D02*
D03*
D54*
X7060Y4870D02*
D03*
D55*
X7210Y4945D02*
D03*
Y4895D02*
D03*
Y4845D02*
D03*
Y4795D02*
D03*
X6910D02*
D03*
Y4845D02*
D03*
Y4895D02*
D03*
Y4945D02*
D03*
D56*
X7135Y4720D02*
D03*
X7085D02*
D03*
X7035D02*
D03*
X6985D02*
D03*
Y5020D02*
D03*
X7035D02*
D03*
X7085D02*
D03*
X7135D02*
D03*
D57*
X5590Y4820D02*
D03*
Y5020D02*
D03*
X5930Y4820D02*
D03*
Y5020D02*
D03*
D58*
X6899Y3340D02*
D03*
D59*
X6656Y3200D02*
D03*
Y3480D02*
D03*
D60*
X6003Y6730D02*
D03*
X6178D02*
D03*
X6337Y7230D02*
D03*
X6162D02*
D03*
X6338Y7020D02*
D03*
X6163D02*
D03*
X6552Y7230D02*
D03*
X6727D02*
D03*
X7122Y7200D02*
D03*
X7297D02*
D03*
X7122Y7390D02*
D03*
X7297D02*
D03*
X6178Y6350D02*
D03*
X6003D02*
D03*
X6002Y6170D02*
D03*
X6177D02*
D03*
X7758Y7200D02*
D03*
X7583D02*
D03*
X7758Y7390D02*
D03*
X7583D02*
D03*
X7532Y5840D02*
D03*
X7707D02*
D03*
X7532Y6060D02*
D03*
X7707D02*
D03*
X7532Y6260D02*
D03*
X7707D02*
D03*
X6178Y5980D02*
D03*
X6003D02*
D03*
X7542Y5030D02*
D03*
X7717D02*
D03*
X7542Y4660D02*
D03*
X7717D02*
D03*
X7718Y5220D02*
D03*
X7543D02*
D03*
X7718Y4840D02*
D03*
X7543D02*
D03*
X7707Y6690D02*
D03*
X7532D02*
D03*
X5773Y7020D02*
D03*
X5948D02*
D03*
X7707Y6500D02*
D03*
X7532D02*
D03*
X7707Y5640D02*
D03*
X7532D02*
D03*
X6003Y6530D02*
D03*
X6178D02*
D03*
D61*
X6200Y5048D02*
D03*
Y4873D02*
D03*
X6430Y4872D02*
D03*
Y5047D02*
D03*
X7070Y5262D02*
D03*
Y5437D02*
D03*
X6890Y5438D02*
D03*
Y5263D02*
D03*
X7250Y5262D02*
D03*
Y5437D02*
D03*
X5630Y5393D02*
D03*
Y5568D02*
D03*
X6380Y5393D02*
D03*
Y5568D02*
D03*
X7070Y4297D02*
D03*
Y4122D02*
D03*
X6870Y4297D02*
D03*
Y4122D02*
D03*
X6670Y4297D02*
D03*
Y4122D02*
D03*
X6400Y3937D02*
D03*
Y3762D02*
D03*
X6400Y4123D02*
D03*
Y4298D02*
D03*
D62*
X5740Y7230D02*
D03*
X5920D02*
D03*
X7320Y6980D02*
D03*
X7140D02*
D03*
X7740D02*
D03*
X7560D02*
D03*
D63*
X5880Y5560D02*
D03*
Y5380D02*
D03*
X6140Y5560D02*
D03*
Y5380D02*
D03*
D64*
X5630Y6421D02*
D03*
D65*
X5490Y6664D02*
D03*
X5770D02*
D03*
D66*
X6662Y3745D02*
D03*
Y3935D02*
D03*
X6878D02*
D03*
Y3840D02*
D03*
D67*
X6878Y3745D02*
D03*
D68*
X7262Y3512D02*
D03*
X7328D02*
D03*
X7393D02*
D03*
X7457D02*
D03*
X7262Y3928D02*
D03*
X7328D02*
D03*
X7393D02*
D03*
X7457D02*
D03*
D69*
X8300Y3454D02*
D03*
Y3708D02*
D03*
Y3962D02*
D03*
Y4216D02*
D03*
Y4470D02*
D03*
Y4724D02*
D03*
Y4978D02*
D03*
Y5232D02*
D03*
Y5486D02*
D03*
Y5740D02*
D03*
Y5994D02*
D03*
Y6248D02*
D03*
Y6502D02*
D03*
Y6756D02*
D03*
Y7010D02*
D03*
Y7264D02*
D03*
Y7518D02*
D03*
Y7772D02*
D03*
X5250Y3454D02*
D03*
Y3708D02*
D03*
Y3962D02*
D03*
Y4216D02*
D03*
Y4470D02*
D03*
Y4724D02*
D03*
Y4978D02*
D03*
Y5232D02*
D03*
Y5486D02*
D03*
Y5740D02*
D03*
Y5994D02*
D03*
Y6248D02*
D03*
Y6502D02*
D03*
Y6756D02*
D03*
Y7010D02*
D03*
Y7264D02*
D03*
Y7518D02*
D03*
Y7772D02*
D03*
D70*
X8300Y3200D02*
D03*
X5250D02*
D03*
D71*
X5787Y5990D02*
D03*
X5533D02*
D03*
X5660D02*
D03*
X5670Y7734D02*
D03*
Y7480D02*
D03*
Y7607D02*
D03*
D72*
X7860Y3510D02*
D03*
Y3710D02*
D03*
Y3910D02*
D03*
Y4110D02*
D03*
Y4310D02*
D03*
D73*
Y3310D02*
D03*
D74*
X5860Y7890D02*
D03*
X6790Y5190D02*
D03*
X7320Y4560D02*
D03*
X7620Y3950D02*
D03*
X6900Y5110D02*
D03*
X7440Y6820D02*
D03*
X7200Y6770D02*
D03*
Y7690D02*
D03*
X7160Y3740D02*
D03*
Y3340D02*
D03*
X7950Y5320D02*
D03*
X6000Y6870D02*
D03*
M02*
