%FSAX24Y24*%
%MOIN*%
G70*
G01*
G75*
G04 Layer_Physical_Order=1*
G04 Layer_Color=255*
G04:AMPARAMS|DCode=10|XSize=17.7mil|YSize=43.3mil|CornerRadius=4.4mil|HoleSize=0mil|Usage=FLASHONLY|Rotation=180.000|XOffset=0mil|YOffset=0mil|HoleType=Round|Shape=RoundedRectangle|*
%AMROUNDEDRECTD10*
21,1,0.0177,0.0344,0,0,180.0*
21,1,0.0089,0.0433,0,0,180.0*
1,1,0.0089,-0.0044,0.0172*
1,1,0.0089,0.0044,0.0172*
1,1,0.0089,0.0044,-0.0172*
1,1,0.0089,-0.0044,-0.0172*
%
%ADD10ROUNDEDRECTD10*%
G04:AMPARAMS|DCode=11|XSize=84.6mil|YSize=84.6mil|CornerRadius=4.2mil|HoleSize=0mil|Usage=FLASHONLY|Rotation=90.000|XOffset=0mil|YOffset=0mil|HoleType=Round|Shape=RoundedRectangle|*
%AMROUNDEDRECTD11*
21,1,0.0846,0.0762,0,0,90.0*
21,1,0.0762,0.0846,0,0,90.0*
1,1,0.0085,0.0381,0.0381*
1,1,0.0085,0.0381,-0.0381*
1,1,0.0085,-0.0381,-0.0381*
1,1,0.0085,-0.0381,0.0381*
%
%ADD11ROUNDEDRECTD11*%
G04:AMPARAMS|DCode=12|XSize=17.7mil|YSize=43.3mil|CornerRadius=4.4mil|HoleSize=0mil|Usage=FLASHONLY|Rotation=270.000|XOffset=0mil|YOffset=0mil|HoleType=Round|Shape=RoundedRectangle|*
%AMROUNDEDRECTD12*
21,1,0.0177,0.0344,0,0,270.0*
21,1,0.0089,0.0433,0,0,270.0*
1,1,0.0089,-0.0172,-0.0044*
1,1,0.0089,-0.0172,0.0044*
1,1,0.0089,0.0172,0.0044*
1,1,0.0089,0.0172,-0.0044*
%
%ADD12ROUNDEDRECTD12*%
G04:AMPARAMS|DCode=13|XSize=59.1mil|YSize=51.2mil|CornerRadius=12.8mil|HoleSize=0mil|Usage=FLASHONLY|Rotation=270.000|XOffset=0mil|YOffset=0mil|HoleType=Round|Shape=RoundedRectangle|*
%AMROUNDEDRECTD13*
21,1,0.0591,0.0256,0,0,270.0*
21,1,0.0335,0.0512,0,0,270.0*
1,1,0.0256,-0.0128,-0.0167*
1,1,0.0256,-0.0128,0.0167*
1,1,0.0256,0.0128,0.0167*
1,1,0.0256,0.0128,-0.0167*
%
%ADD13ROUNDEDRECTD13*%
G04:AMPARAMS|DCode=14|XSize=39.4mil|YSize=39.4mil|CornerRadius=9.8mil|HoleSize=0mil|Usage=FLASHONLY|Rotation=180.000|XOffset=0mil|YOffset=0mil|HoleType=Round|Shape=RoundedRectangle|*
%AMROUNDEDRECTD14*
21,1,0.0394,0.0197,0,0,180.0*
21,1,0.0197,0.0394,0,0,180.0*
1,1,0.0197,-0.0098,0.0098*
1,1,0.0197,0.0098,0.0098*
1,1,0.0197,0.0098,-0.0098*
1,1,0.0197,-0.0098,-0.0098*
%
%ADD14ROUNDEDRECTD14*%
G04:AMPARAMS|DCode=15|XSize=32mil|YSize=40mil|CornerRadius=4mil|HoleSize=0mil|Usage=FLASHONLY|Rotation=270.000|XOffset=0mil|YOffset=0mil|HoleType=Round|Shape=RoundedRectangle|*
%AMROUNDEDRECTD15*
21,1,0.0320,0.0320,0,0,270.0*
21,1,0.0240,0.0400,0,0,270.0*
1,1,0.0080,-0.0160,-0.0120*
1,1,0.0080,-0.0160,0.0120*
1,1,0.0080,0.0160,0.0120*
1,1,0.0080,0.0160,-0.0120*
%
%ADD15ROUNDEDRECTD15*%
%ADD16R,0.1063X0.0669*%
%ADD17R,0.0512X0.0354*%
%ADD18R,0.0748X0.0354*%
%ADD19R,0.0630X0.1929*%
%ADD20R,0.0276X0.0925*%
G04:AMPARAMS|DCode=21|XSize=39.4mil|YSize=39.4mil|CornerRadius=9.8mil|HoleSize=0mil|Usage=FLASHONLY|Rotation=90.000|XOffset=0mil|YOffset=0mil|HoleType=Round|Shape=RoundedRectangle|*
%AMROUNDEDRECTD21*
21,1,0.0394,0.0197,0,0,90.0*
21,1,0.0197,0.0394,0,0,90.0*
1,1,0.0197,0.0098,0.0098*
1,1,0.0197,0.0098,-0.0098*
1,1,0.0197,-0.0098,-0.0098*
1,1,0.0197,-0.0098,0.0098*
%
%ADD21ROUNDEDRECTD21*%
G04:AMPARAMS|DCode=22|XSize=59.1mil|YSize=51.2mil|CornerRadius=12.8mil|HoleSize=0mil|Usage=FLASHONLY|Rotation=0.000|XOffset=0mil|YOffset=0mil|HoleType=Round|Shape=RoundedRectangle|*
%AMROUNDEDRECTD22*
21,1,0.0591,0.0256,0,0,0.0*
21,1,0.0335,0.0512,0,0,0.0*
1,1,0.0256,0.0167,-0.0128*
1,1,0.0256,-0.0167,-0.0128*
1,1,0.0256,-0.0167,0.0128*
1,1,0.0256,0.0167,0.0128*
%
%ADD22ROUNDEDRECTD22*%
G04:AMPARAMS|DCode=23|XSize=70.9mil|YSize=65mil|CornerRadius=4.9mil|HoleSize=0mil|Usage=FLASHONLY|Rotation=0.000|XOffset=0mil|YOffset=0mil|HoleType=Round|Shape=RoundedRectangle|*
%AMROUNDEDRECTD23*
21,1,0.0709,0.0552,0,0,0.0*
21,1,0.0611,0.0650,0,0,0.0*
1,1,0.0097,0.0306,-0.0276*
1,1,0.0097,-0.0306,-0.0276*
1,1,0.0097,-0.0306,0.0276*
1,1,0.0097,0.0306,0.0276*
%
%ADD23ROUNDEDRECTD23*%
G04:AMPARAMS|DCode=24|XSize=32mil|YSize=40mil|CornerRadius=4mil|HoleSize=0mil|Usage=FLASHONLY|Rotation=0.000|XOffset=0mil|YOffset=0mil|HoleType=Round|Shape=RoundedRectangle|*
%AMROUNDEDRECTD24*
21,1,0.0320,0.0320,0,0,0.0*
21,1,0.0240,0.0400,0,0,0.0*
1,1,0.0080,0.0120,-0.0160*
1,1,0.0080,-0.0120,-0.0160*
1,1,0.0080,-0.0120,0.0160*
1,1,0.0080,0.0120,0.0160*
%
%ADD24ROUNDEDRECTD24*%
%ADD25O,0.0236X0.0827*%
%ADD26R,0.0354X0.0217*%
%ADD27C,0.0118*%
%ADD28C,0.0197*%
%ADD29C,0.0079*%
%ADD30C,0.0100*%
%ADD31C,0.0080*%
%ADD32R,0.0256X0.0591*%
%ADD33R,0.0394X0.0217*%
%ADD34R,0.0217X0.0394*%
%ADD35R,0.0591X0.0256*%
%ADD36C,0.0591*%
%ADD37C,0.0630*%
G04:AMPARAMS|DCode=38|XSize=63mil|YSize=63mil|CornerRadius=7.9mil|HoleSize=0mil|Usage=FLASHONLY|Rotation=270.000|XOffset=0mil|YOffset=0mil|HoleType=Round|Shape=RoundedRectangle|*
%AMROUNDEDRECTD38*
21,1,0.0630,0.0472,0,0,270.0*
21,1,0.0472,0.0630,0,0,270.0*
1,1,0.0157,-0.0236,-0.0236*
1,1,0.0157,-0.0236,0.0236*
1,1,0.0157,0.0236,0.0236*
1,1,0.0157,0.0236,-0.0236*
%
%ADD38ROUNDEDRECTD38*%
%ADD39C,0.0600*%
%ADD40R,0.0600X0.0600*%
%ADD41C,0.0256*%
G36*
X042175Y028593D02*
X042234Y028554D01*
X042303Y028540D01*
X043075D01*
X043086Y028528D01*
X043104Y028394D01*
X043155Y028269D01*
X043237Y028163D01*
X043344Y028080D01*
X043469Y028029D01*
X043602Y028011D01*
X043736Y028029D01*
X043860Y028080D01*
X043967Y028163D01*
X044049Y028269D01*
X044082Y028347D01*
X044249D01*
Y028317D01*
X044261Y028227D01*
X044296Y028143D01*
X044351Y028071D01*
X044423Y028016D01*
X044507Y027981D01*
X044596Y027969D01*
X044931D01*
X045021Y027981D01*
X045105Y028016D01*
X045177Y028071D01*
X045232Y028143D01*
X045267Y028227D01*
X045279Y028317D01*
Y028527D01*
X045400Y028648D01*
X045953D01*
X045953Y028648D01*
X045985Y028571D01*
X046035Y028506D01*
X046101Y028455D01*
X046112Y028451D01*
X046117Y028401D01*
X046073Y028335D01*
X046058Y028258D01*
Y028209D01*
X046659D01*
Y028258D01*
X046644Y028335D01*
X046600Y028401D01*
X046605Y028451D01*
X046616Y028455D01*
X046681Y028506D01*
X046732Y028571D01*
X046764Y028648D01*
X046764Y028648D01*
X047583D01*
X047756Y028475D01*
X047815Y028435D01*
X047884Y028422D01*
X051309D01*
X051378Y028435D01*
X051437Y028475D01*
X051944Y028981D01*
X051994Y028978D01*
X052102Y028895D01*
X052227Y028843D01*
X052362Y028825D01*
Y028746D01*
X051962D01*
Y028396D01*
X052362D01*
Y028296D01*
X051962D01*
Y027946D01*
X052362D01*
Y027756D01*
X040410D01*
X040354Y027812D01*
Y027946D01*
X040754D01*
Y028296D01*
X040354D01*
Y028396D01*
X040754D01*
Y028746D01*
X040410D01*
X040397Y028760D01*
X040422Y028834D01*
X040489Y028843D01*
X040615Y028895D01*
X040723Y028978D01*
X040806Y029086D01*
X040839Y029166D01*
X041602D01*
X042175Y028593D01*
D02*
G37*
G36*
X044564Y038711D02*
Y038494D01*
X044576Y038404D01*
X044611Y038320D01*
X044666Y038248D01*
X044738Y038193D01*
X044788Y038172D01*
X044796Y038094D01*
X044727Y038048D01*
X044677Y037973D01*
X044659Y037884D01*
Y037767D01*
X045020D01*
Y037667D01*
X044659D01*
Y037549D01*
X044677Y037460D01*
X044727Y037385D01*
X044788Y037344D01*
X044781Y037266D01*
X044718Y037240D01*
X044646Y037185D01*
X044591Y037113D01*
X044556Y037029D01*
X044544Y036939D01*
Y036604D01*
X044556Y036514D01*
X044591Y036431D01*
X044646Y036359D01*
X044718Y036303D01*
X044802Y036269D01*
X044892Y036257D01*
X044941Y036209D01*
D01*
X044941D01*
X044926Y036132D01*
Y036083D01*
X045226D01*
Y035983D01*
X044926D01*
Y035935D01*
X044941Y035858D01*
X044953Y035840D01*
X044892Y035790D01*
X044659Y036023D01*
X044660Y036024D01*
X044644Y036104D01*
X044598Y036173D01*
X044529Y036218D01*
X044449Y036234D01*
X044368Y036218D01*
X044300Y036173D01*
X044254Y036104D01*
X044238Y036024D01*
X044254Y035943D01*
X044300Y035875D01*
X044309Y035868D01*
X044324Y035791D01*
X044284Y035730D01*
X044268Y035650D01*
X044284Y035569D01*
X044329Y035501D01*
X044398Y035455D01*
X044478Y035439D01*
X044512Y035446D01*
X044935Y035023D01*
X044935Y035023D01*
X044974Y034997D01*
X044974Y034997D01*
X044974Y034997D01*
D01*
X044974Y034997D01*
X044974Y034997D01*
X045020Y034988D01*
X045020Y034988D01*
X045691D01*
X045691Y034988D01*
X046100D01*
X046100Y034988D01*
X046146Y034997D01*
X046185Y035023D01*
X046313Y035151D01*
X046325Y035147D01*
X046394Y035101D01*
X046398Y035079D01*
X046437Y035020D01*
X046447Y035010D01*
X046231Y034793D01*
X046191Y034734D01*
X046178Y034665D01*
X046178Y034665D01*
X046178D01*
X046178Y034665D01*
X046178D01*
Y034605D01*
X046103Y034580D01*
X046072Y034621D01*
X045985Y034687D01*
X045884Y034729D01*
X045826Y034737D01*
Y034325D01*
Y033913D01*
X045884Y033921D01*
X045985Y033962D01*
X046072Y034029D01*
X046103Y034070D01*
X046178Y034045D01*
Y033605D01*
X046103Y033580D01*
X046072Y033621D01*
X045985Y033687D01*
X045884Y033729D01*
X045826Y033737D01*
Y033325D01*
Y032913D01*
X045884Y032921D01*
X045985Y032962D01*
X046072Y033029D01*
X046103Y033070D01*
X046178Y033045D01*
Y032605D01*
X046103Y032580D01*
X046072Y032621D01*
X045985Y032687D01*
X045884Y032729D01*
X045826Y032737D01*
Y032325D01*
Y031913D01*
X045884Y031921D01*
X045985Y031962D01*
X046072Y032029D01*
X046103Y032070D01*
X046178Y032045D01*
Y031605D01*
X046103Y031580D01*
X046072Y031621D01*
X045985Y031687D01*
X045884Y031729D01*
X045826Y031737D01*
Y031325D01*
Y030913D01*
X045884Y030921D01*
X045985Y030962D01*
X046072Y031029D01*
X046103Y031070D01*
X046178Y031045D01*
Y029234D01*
X046178Y029234D01*
X046101Y029202D01*
X046035Y029152D01*
X045985Y029086D01*
X045953Y029009D01*
X045953Y029009D01*
X045325D01*
X045256Y028996D01*
X045219Y028971D01*
X045154Y029015D01*
X045164Y029065D01*
Y029143D01*
X044364D01*
Y029065D01*
X044382Y028976D01*
X044432Y028901D01*
X044432Y028901D01*
X044423Y028874D01*
X044351Y028819D01*
X044296Y028747D01*
X044280Y028708D01*
X044082D01*
X044049Y028786D01*
X043967Y028893D01*
X043860Y028975D01*
X043736Y029026D01*
X043602Y029044D01*
X043469Y029026D01*
X043344Y028975D01*
X043248Y028901D01*
X042378D01*
X041805Y029474D01*
X041746Y029513D01*
X041677Y029527D01*
X040839D01*
X040806Y029607D01*
X040723Y029715D01*
X040615Y029798D01*
X040592Y029807D01*
Y029886D01*
X040615Y029895D01*
X040723Y029978D01*
X040806Y030086D01*
X040858Y030212D01*
X040875Y030346D01*
X040858Y030481D01*
X040806Y030607D01*
X040723Y030715D01*
X040615Y030798D01*
X040592Y030807D01*
Y030886D01*
X040615Y030895D01*
X040723Y030978D01*
X040806Y031086D01*
X040858Y031212D01*
X040875Y031346D01*
X040858Y031481D01*
X040806Y031607D01*
X040723Y031715D01*
X040615Y031798D01*
X040592Y031807D01*
Y031886D01*
X040615Y031895D01*
X040723Y031978D01*
X040806Y032086D01*
X040858Y032212D01*
X040875Y032346D01*
X040858Y032481D01*
X040806Y032607D01*
X040723Y032715D01*
X040615Y032798D01*
X040592Y032807D01*
Y032886D01*
X040615Y032895D01*
X040723Y032978D01*
X040806Y033086D01*
X040858Y033212D01*
X040875Y033346D01*
X040858Y033481D01*
X040806Y033607D01*
X040723Y033715D01*
X040615Y033798D01*
X040592Y033807D01*
Y033886D01*
X040615Y033895D01*
X040723Y033978D01*
X040806Y034086D01*
X040858Y034212D01*
X040875Y034346D01*
X040858Y034481D01*
X040835Y034535D01*
X040885Y034596D01*
X040896Y034594D01*
X041575D01*
X041629Y034604D01*
X041674Y034635D01*
X041811Y034772D01*
X041821Y034770D01*
X041902Y034786D01*
X041970Y034831D01*
X042016Y034900D01*
X042032Y034980D01*
X042016Y035061D01*
X041984Y035108D01*
X042045Y035158D01*
X042113Y035089D01*
Y034173D01*
X042113Y034173D01*
X042113D01*
X042124Y034119D01*
X042155Y034074D01*
X042822Y033406D01*
Y033167D01*
X042822Y033167D01*
X042822D01*
X042833Y033114D01*
X042863Y033068D01*
X043152Y032779D01*
X043104Y032661D01*
X043086Y032528D01*
X043104Y032394D01*
X043155Y032269D01*
X043237Y032163D01*
X043344Y032080D01*
X043469Y032029D01*
X043602Y032011D01*
X043736Y032029D01*
X043833Y032069D01*
X044311Y031591D01*
X044258Y031464D01*
X044240Y031325D01*
X044258Y031186D01*
X044311Y031057D01*
X044397Y030946D01*
X044508Y030861D01*
X044562Y030838D01*
X044562Y030759D01*
X044501Y030734D01*
X044430Y030679D01*
X044374Y030607D01*
X044340Y030523D01*
X044328Y030433D01*
Y030098D01*
X044340Y030008D01*
X044374Y029925D01*
X044430Y029853D01*
X044501Y029798D01*
X044585Y029763D01*
X044675Y029751D01*
X044931D01*
X045021Y029763D01*
X045105Y029798D01*
X045177Y029853D01*
X045232Y029925D01*
X045259Y029934D01*
X045259Y029934D01*
D01*
X045334Y029884D01*
X045423Y029866D01*
X045501D01*
Y030266D01*
Y030665D01*
X045423D01*
X045334Y030648D01*
X045259Y030597D01*
D01*
X045232Y030607D01*
X045177Y030679D01*
X045105Y030734D01*
X045021Y030769D01*
X045021Y030769D01*
X045010Y030847D01*
X045044Y030861D01*
X045155Y030946D01*
X045240Y031057D01*
X045293Y031186D01*
X045295Y031201D01*
X045373Y031211D01*
X045413Y031116D01*
X045480Y031029D01*
X045566Y030962D01*
X045667Y030921D01*
X045726Y030913D01*
Y031325D01*
Y031737D01*
X045667Y031729D01*
X045566Y031687D01*
X045480Y031621D01*
X045413Y031534D01*
X045373Y031438D01*
X045295Y031449D01*
X045293Y031464D01*
X045240Y031593D01*
X045155Y031704D01*
X045048Y031785D01*
Y031864D01*
X045155Y031946D01*
X045240Y032057D01*
X045293Y032186D01*
X045295Y032201D01*
X045373Y032211D01*
X045413Y032116D01*
X045480Y032029D01*
X045566Y031962D01*
X045667Y031921D01*
X045726Y031913D01*
Y032325D01*
Y032737D01*
X045667Y032729D01*
X045566Y032687D01*
X045480Y032621D01*
X045413Y032534D01*
X045373Y032438D01*
X045295Y032449D01*
X045293Y032464D01*
X045240Y032593D01*
X045155Y032704D01*
X045048Y032785D01*
Y032864D01*
X045155Y032946D01*
X045240Y033057D01*
X045293Y033186D01*
X045295Y033201D01*
X045373Y033211D01*
X045413Y033116D01*
X045480Y033029D01*
X045566Y032962D01*
X045667Y032921D01*
X045726Y032913D01*
Y033325D01*
Y033737D01*
X045667Y033729D01*
X045566Y033687D01*
X045480Y033621D01*
X045413Y033534D01*
X045373Y033438D01*
X045295Y033449D01*
X045293Y033464D01*
X045240Y033593D01*
X045155Y033704D01*
X045112Y033737D01*
X045122Y033815D01*
X045161Y033831D01*
X045222Y033878D01*
X045270Y033940D01*
X045299Y034011D01*
X045310Y034089D01*
Y034164D01*
X045387Y034179D01*
X045413Y034116D01*
X045480Y034029D01*
X045566Y033962D01*
X045667Y033921D01*
X045726Y033913D01*
Y034325D01*
Y034737D01*
X045667Y034729D01*
X045566Y034687D01*
X045480Y034621D01*
X045413Y034534D01*
X045387Y034471D01*
X045310Y034486D01*
Y034561D01*
X045299Y034638D01*
X045270Y034710D01*
X045222Y034772D01*
X045161Y034819D01*
X045089Y034849D01*
X045012Y034859D01*
X044539D01*
X044462Y034849D01*
X044394Y034820D01*
X044004Y035210D01*
X044049Y035269D01*
X044101Y035394D01*
X044119Y035528D01*
X044101Y035661D01*
X044049Y035786D01*
X043967Y035893D01*
X043860Y035975D01*
X043736Y036026D01*
X043605Y036043D01*
Y036247D01*
X043632D01*
X043722Y036259D01*
X043806Y036294D01*
X043878Y036349D01*
X043933Y036421D01*
X043968Y036505D01*
X043979Y036594D01*
Y036850D01*
X043968Y036940D01*
X043933Y037024D01*
X043878Y037096D01*
X043933Y037169D01*
D01*
X043933Y037169D01*
X043933D01*
X043968Y037253D01*
X043979Y037343D01*
Y037598D01*
X043968Y037688D01*
X043933Y037772D01*
X043878Y037844D01*
X043806Y037899D01*
X043722Y037934D01*
X043632Y037946D01*
X043297D01*
X043207Y037934D01*
X043124Y037899D01*
X043052Y037844D01*
X043025Y037810D01*
X042947D01*
X042913Y037854D01*
X042841Y037909D01*
X042757Y037944D01*
X042667Y037956D01*
X042333D01*
X042243Y037944D01*
X042159Y037909D01*
X042087Y037854D01*
X042052Y037809D01*
X041973D01*
X041939Y037854D01*
X041867Y037909D01*
X041783Y037944D01*
X041693Y037956D01*
X041666D01*
Y038492D01*
X041999D01*
X042033Y038496D01*
X042233Y038296D01*
X042233D01*
X042233Y038296D01*
X042233D01*
X042233Y038296D01*
Y038296D01*
X042233Y038296D01*
Y038296D01*
X042279Y038266D01*
X042333Y038255D01*
X043366D01*
X043420Y038266D01*
X043465Y038296D01*
X043749Y038580D01*
X044272D01*
X044325Y038591D01*
X044371Y038621D01*
X044491Y038741D01*
X044564Y038711D01*
D02*
G37*
G36*
X052362Y046867D02*
X052227Y046850D01*
X052102Y046798D01*
X051994Y046715D01*
X051911Y046607D01*
X051859Y046481D01*
X051841Y046346D01*
X051859Y046212D01*
X051911Y046086D01*
X051994Y045978D01*
X052102Y045895D01*
X052124Y045886D01*
Y045807D01*
X052102Y045798D01*
X051994Y045715D01*
X051911Y045607D01*
X051861Y045487D01*
X048112D01*
X048058Y045476D01*
X048013Y045446D01*
X045414Y042847D01*
X044182D01*
X044177Y042852D01*
Y043159D01*
X045476D01*
Y044262D01*
X044291D01*
Y047047D01*
X044959D01*
Y046133D01*
X045789D01*
Y047047D01*
X052362D01*
Y046867D01*
D02*
G37*
G36*
X043110Y044373D02*
X042864D01*
X042810Y044362D01*
X042765Y044332D01*
X042223Y043790D01*
X042221Y043786D01*
X042125Y043767D01*
X042094Y043813D01*
X042048Y043844D01*
X041993Y043855D01*
X041883D01*
Y043593D01*
Y043330D01*
X041993D01*
X042048Y043341D01*
X042094Y043372D01*
X042107Y043391D01*
X042182Y043368D01*
Y043069D01*
X042107Y043046D01*
X042094Y043065D01*
X042048Y043096D01*
X041993Y043107D01*
X041883D01*
Y042844D01*
Y042582D01*
X041993D01*
X042048Y042593D01*
X042094Y042624D01*
X042107Y042643D01*
X042129Y042636D01*
X042123Y042638D01*
X042182Y042579D01*
X042182Y042579D01*
D01*
X042193Y042525D01*
X042223Y042479D01*
X042302Y042401D01*
X042297Y042390D01*
X042289Y042323D01*
Y042003D01*
X042297Y041936D01*
X042323Y041874D01*
X042364Y041820D01*
X042418Y041779D01*
X042480Y041753D01*
X042547Y041744D01*
X042787D01*
X042854Y041753D01*
X042917Y041779D01*
X042970Y041820D01*
X043011Y041874D01*
X043037Y041936D01*
X043046Y042003D01*
Y042323D01*
X043037Y042390D01*
X043011Y042452D01*
X042970Y042506D01*
X042917Y042547D01*
X042854Y042573D01*
X042787Y042582D01*
X042547D01*
X042522Y042578D01*
X042463Y042637D01*
Y042820D01*
X042529Y042864D01*
X042566Y042849D01*
X042633Y042840D01*
X042953D01*
X043020Y042849D01*
X043082Y042874D01*
X043136Y042916D01*
X043158Y042944D01*
X043232Y042919D01*
Y042726D01*
X043906D01*
X044025Y042607D01*
X044025D01*
X044025Y042607D01*
X044025Y042607D01*
Y042607D01*
X044070Y042577D01*
X044124Y042566D01*
X045472D01*
X045526Y042577D01*
X045572Y042607D01*
X048170Y045206D01*
X051861D01*
X051911Y045086D01*
X051994Y044978D01*
X052102Y044895D01*
X052124Y044886D01*
Y044807D01*
X052102Y044798D01*
X051994Y044715D01*
X051911Y044607D01*
X051859Y044481D01*
X051841Y044346D01*
X051859Y044212D01*
X051911Y044086D01*
X051994Y043978D01*
X052102Y043895D01*
X052124Y043886D01*
Y043807D01*
X052102Y043798D01*
X051994Y043715D01*
X051911Y043607D01*
X051859Y043481D01*
X051841Y043346D01*
X051859Y043212D01*
X051911Y043086D01*
X051994Y042978D01*
X052102Y042895D01*
X052124Y042886D01*
Y042807D01*
X052102Y042798D01*
X051994Y042715D01*
X051911Y042607D01*
X051859Y042481D01*
X051841Y042346D01*
X051859Y042212D01*
X051911Y042086D01*
X051994Y041978D01*
X052102Y041895D01*
X052124Y041886D01*
Y041807D01*
X052102Y041798D01*
X051994Y041715D01*
X051911Y041607D01*
X051859Y041481D01*
X051841Y041346D01*
X051859Y041212D01*
X051911Y041086D01*
X051994Y040978D01*
X052102Y040895D01*
X052124Y040886D01*
Y040807D01*
X052102Y040798D01*
X051994Y040715D01*
X051911Y040607D01*
X051859Y040481D01*
X051841Y040346D01*
X051859Y040212D01*
X051911Y040086D01*
X051994Y039978D01*
X052102Y039895D01*
X052124Y039886D01*
Y039807D01*
X052102Y039798D01*
X051994Y039715D01*
X051911Y039607D01*
X051859Y039481D01*
X051841Y039346D01*
X051859Y039212D01*
X051911Y039086D01*
X051994Y038978D01*
X052102Y038895D01*
X052124Y038886D01*
Y038807D01*
X052102Y038798D01*
X051994Y038715D01*
X051911Y038607D01*
X051859Y038481D01*
X051841Y038346D01*
X051859Y038212D01*
X051911Y038086D01*
X051994Y037978D01*
X052102Y037895D01*
X052124Y037886D01*
Y037807D01*
X052102Y037798D01*
X051994Y037715D01*
X051911Y037607D01*
X051859Y037481D01*
X051841Y037346D01*
X051859Y037212D01*
X051911Y037086D01*
X051994Y036978D01*
X052102Y036895D01*
X052124Y036886D01*
Y036807D01*
X052102Y036798D01*
X051994Y036715D01*
X051911Y036607D01*
X051859Y036481D01*
X051841Y036346D01*
X051859Y036212D01*
X051911Y036086D01*
X051994Y035978D01*
X052102Y035895D01*
X052124Y035886D01*
Y035807D01*
X052102Y035798D01*
X051994Y035715D01*
X051911Y035607D01*
X051859Y035481D01*
X051841Y035346D01*
X051859Y035212D01*
X051911Y035086D01*
X051994Y034978D01*
X052102Y034895D01*
X052124Y034886D01*
Y034807D01*
X052102Y034798D01*
X051994Y034715D01*
X051911Y034607D01*
X051859Y034481D01*
X051841Y034346D01*
X051859Y034212D01*
X051911Y034086D01*
X051994Y033978D01*
X052102Y033895D01*
X052124Y033886D01*
Y033807D01*
X052102Y033798D01*
X051994Y033715D01*
X051911Y033607D01*
X051859Y033481D01*
X051841Y033346D01*
X051859Y033212D01*
X051911Y033086D01*
X051994Y032978D01*
X052102Y032895D01*
X052124Y032886D01*
Y032807D01*
X052102Y032798D01*
X051994Y032715D01*
X051911Y032607D01*
X051859Y032481D01*
X051841Y032346D01*
X051859Y032212D01*
X051911Y032086D01*
X051994Y031978D01*
X052102Y031895D01*
X052124Y031886D01*
Y031807D01*
X052102Y031798D01*
X051994Y031715D01*
X051911Y031607D01*
X051859Y031481D01*
X051841Y031346D01*
X051859Y031212D01*
X051911Y031086D01*
X051994Y030978D01*
X052102Y030895D01*
X052124Y030886D01*
Y030807D01*
X052102Y030798D01*
X051994Y030715D01*
X051911Y030607D01*
X051859Y030481D01*
X051841Y030346D01*
X051859Y030212D01*
X051911Y030086D01*
X051994Y029978D01*
X052102Y029895D01*
X052124Y029886D01*
Y029807D01*
X052102Y029798D01*
X051994Y029715D01*
X051911Y029607D01*
X051859Y029481D01*
X051848Y029397D01*
X051234Y028783D01*
X047959D01*
X047785Y028956D01*
X047727Y028996D01*
X047657Y029009D01*
X046764D01*
X046764Y029009D01*
X046732Y029086D01*
X046681Y029152D01*
X046616Y029202D01*
X046539Y029234D01*
X046539Y029234D01*
Y034591D01*
X046690Y034742D01*
X046733Y034725D01*
X046733Y034725D01*
X046733Y034725D01*
X046733D01*
Y034725D01*
X046791Y034685D01*
X046860Y034672D01*
X049045D01*
X049114Y034685D01*
X049173Y034725D01*
X049512Y035064D01*
X049522Y035079D01*
X049778D01*
Y035653D01*
X050049D01*
Y035449D01*
Y035079D01*
X050837D01*
Y035449D01*
Y036098D01*
X050720D01*
Y036352D01*
X050493D01*
Y036144D01*
X050393D01*
Y036352D01*
X050166D01*
Y036098D01*
X050049D01*
Y035894D01*
X049778D01*
Y036468D01*
X048990D01*
Y036321D01*
X048918Y036291D01*
X048893Y036316D01*
X048847Y036346D01*
X048793Y036357D01*
X048001D01*
X047968Y036429D01*
X047987Y036450D01*
X048003D01*
Y036642D01*
X048053D01*
Y036692D01*
X048371D01*
X048361Y036742D01*
X048329Y036790D01*
Y036808D01*
X048361Y036856D01*
X048371Y036907D01*
X048053D01*
Y037007D01*
X048371D01*
X048361Y037057D01*
X048329Y037105D01*
Y037123D01*
X048361Y037171D01*
X048371Y037222D01*
X048053D01*
Y037272D01*
X048003D01*
Y037463D01*
X047987D01*
X047935Y037522D01*
X047935Y037525D01*
Y037869D01*
X047926Y037937D01*
X047900Y038001D01*
X047858Y038055D01*
X047804Y038097D01*
X047768Y038112D01*
Y038376D01*
X047758Y038430D01*
X047727Y038475D01*
X047057Y039146D01*
X047082Y039221D01*
X047088Y039221D01*
X047172Y039256D01*
X047244Y039311D01*
X047299Y039383D01*
X047334Y039467D01*
X047345Y039557D01*
Y039813D01*
X047334Y039903D01*
X047299Y039987D01*
X047244Y040059D01*
X047299Y040131D01*
D01*
X047299Y040131D01*
X047299D01*
X047334Y040215D01*
X047345Y040305D01*
Y040561D01*
X047334Y040651D01*
X047299Y040735D01*
X047244Y040807D01*
X047172Y040862D01*
X047088Y040897D01*
X046998Y040908D01*
X046663D01*
X046573Y040897D01*
X046490Y040862D01*
X046418Y040807D01*
X046362Y040735D01*
X046328Y040651D01*
X046327Y040642D01*
X044774D01*
X044720Y040632D01*
X044674Y040601D01*
X044496Y040423D01*
X044474Y040426D01*
X044387Y040415D01*
X044306Y040381D01*
X044236Y040327D01*
X044182Y040257D01*
X044179Y040251D01*
X044132Y040246D01*
X044060Y040294D01*
X044024Y040301D01*
Y039793D01*
Y039286D01*
X044060Y039293D01*
X044132Y039341D01*
X044179Y039336D01*
X044182Y039329D01*
X044236Y039259D01*
X044306Y039206D01*
X044387Y039172D01*
X044420Y039168D01*
X044446Y039093D01*
X044213Y038861D01*
X043691D01*
X043637Y038850D01*
X043592Y038820D01*
X043308Y038536D01*
X042391D01*
X042251Y038676D01*
X042257Y038690D01*
X042266Y038759D01*
Y039312D01*
X042257Y039381D01*
X042230Y039445D01*
X042188Y039501D01*
X042132Y039543D01*
X042068Y039570D01*
X041999Y039579D01*
X041387D01*
X041318Y039570D01*
X041254Y039543D01*
X041198Y039501D01*
X041156Y039445D01*
X041129Y039381D01*
X041120Y039312D01*
Y038759D01*
X041129Y038690D01*
X041156Y038626D01*
X041198Y038570D01*
X041254Y038528D01*
X041318Y038501D01*
X041385Y038492D01*
Y037956D01*
X041358D01*
X041268Y037944D01*
X041185Y037909D01*
X041113Y037854D01*
X041057Y037782D01*
X041023Y037698D01*
X041011Y037608D01*
Y037352D01*
X041020Y037282D01*
X040930Y037192D01*
X040860Y037227D01*
X040875Y037346D01*
X040858Y037481D01*
X040806Y037607D01*
X040723Y037715D01*
X040615Y037798D01*
X040592Y037807D01*
Y037886D01*
X040615Y037895D01*
X040723Y037978D01*
X040806Y038086D01*
X040858Y038212D01*
X040875Y038346D01*
X040858Y038481D01*
X040806Y038607D01*
X040723Y038715D01*
X040615Y038798D01*
X040592Y038807D01*
Y038886D01*
X040615Y038895D01*
X040723Y038978D01*
X040806Y039086D01*
X040858Y039212D01*
X040875Y039346D01*
X040858Y039481D01*
X040806Y039607D01*
X040723Y039715D01*
X040615Y039798D01*
X040592Y039807D01*
Y039886D01*
X040615Y039895D01*
X040723Y039978D01*
X040806Y040086D01*
X040858Y040212D01*
X040875Y040346D01*
X040858Y040481D01*
X040806Y040607D01*
X040723Y040715D01*
X040615Y040798D01*
X040592Y040807D01*
Y040886D01*
X040615Y040895D01*
X040723Y040978D01*
X040806Y041086D01*
X040858Y041212D01*
X040875Y041346D01*
X040858Y041481D01*
X040806Y041607D01*
X040723Y041715D01*
X040615Y041798D01*
X040592Y041807D01*
Y041886D01*
X040615Y041895D01*
X040723Y041978D01*
X040806Y042086D01*
X040858Y042212D01*
X040875Y042346D01*
X040858Y042481D01*
X040806Y042607D01*
X040723Y042715D01*
X040615Y042798D01*
X040592Y042807D01*
Y042886D01*
X040615Y042895D01*
X040723Y042978D01*
X040806Y043086D01*
X040858Y043212D01*
X040875Y043346D01*
X040858Y043481D01*
X040806Y043607D01*
X040723Y043715D01*
X040615Y043798D01*
X040592Y043807D01*
Y043886D01*
X040615Y043895D01*
X040723Y043978D01*
X040806Y044086D01*
X040858Y044212D01*
X040875Y044346D01*
X040858Y044481D01*
X040806Y044607D01*
X040723Y044715D01*
X040615Y044798D01*
X040592Y044807D01*
Y044886D01*
X040615Y044895D01*
X040723Y044978D01*
X040806Y045086D01*
X040858Y045212D01*
X040875Y045346D01*
X040858Y045481D01*
X040806Y045607D01*
X040723Y045715D01*
X040615Y045798D01*
X040592Y045807D01*
Y045886D01*
X040615Y045895D01*
X040723Y045978D01*
X040806Y046086D01*
X040858Y046212D01*
X040875Y046346D01*
X040858Y046481D01*
X040806Y046607D01*
X040723Y046715D01*
X040708Y046726D01*
X040703Y046805D01*
X040945Y047047D01*
X041613D01*
Y046133D01*
X042443D01*
Y047047D01*
X043110D01*
Y044373D01*
D02*
G37*
%LPC*%
G36*
X045912Y030216D02*
X045601D01*
Y029866D01*
X045679D01*
X045768Y029884D01*
X045843Y029934D01*
X045894Y030009D01*
X045912Y030098D01*
Y030216D01*
D02*
G37*
G36*
X043652Y029920D02*
Y029578D01*
X043994D01*
X043987Y029631D01*
X043948Y029727D01*
X043884Y029809D01*
X043802Y029873D01*
X043706Y029913D01*
X043652Y029920D01*
D02*
G37*
G36*
X045679Y030665D02*
X045601D01*
Y030316D01*
X045912D01*
Y030433D01*
X045894Y030522D01*
X045843Y030597D01*
X045768Y030648D01*
X045679Y030665D01*
D02*
G37*
G36*
X048225Y037463D02*
X048103D01*
Y037322D01*
X048371D01*
X048361Y037372D01*
X048329Y037420D01*
X048282Y037452D01*
X048225Y037463D01*
D02*
G37*
G36*
X048371Y036592D02*
X048103D01*
Y036450D01*
X048225D01*
X048282Y036462D01*
X048329Y036493D01*
X048361Y036541D01*
X048371Y036592D01*
D02*
G37*
G36*
X043552Y029920D02*
X043499Y029913D01*
X043403Y029873D01*
X043320Y029809D01*
X043257Y029727D01*
X043217Y029631D01*
X043210Y029578D01*
X043552D01*
Y029920D01*
D02*
G37*
G36*
Y029478D02*
X043210D01*
X043217Y029424D01*
X043257Y029328D01*
X043320Y029246D01*
X043403Y029182D01*
X043499Y029142D01*
X043552Y029135D01*
Y029478D01*
D02*
G37*
G36*
X046659Y028109D02*
X046408D01*
Y027859D01*
X046457D01*
X046534Y027874D01*
X046600Y027918D01*
X046644Y027984D01*
X046659Y028061D01*
Y028109D01*
D02*
G37*
G36*
X046308D02*
X046058D01*
Y028061D01*
X046073Y027984D01*
X046117Y027918D01*
X046182Y027874D01*
X046260Y027859D01*
X046308D01*
Y028109D01*
D02*
G37*
G36*
X044931Y029553D02*
X044814D01*
Y029243D01*
X045164D01*
Y029321D01*
X045146Y029410D01*
X045095Y029485D01*
X045020Y029536D01*
X044931Y029553D01*
D02*
G37*
G36*
X044714D02*
X044596D01*
X044508Y029536D01*
X044432Y029485D01*
X044382Y029410D01*
X044364Y029321D01*
Y029243D01*
X044714D01*
Y029553D01*
D02*
G37*
G36*
X043994Y029478D02*
X043652D01*
Y029135D01*
X043706Y029142D01*
X043802Y029182D01*
X043884Y029246D01*
X043948Y029328D01*
X043987Y029424D01*
X043994Y029478D01*
D02*
G37*
G36*
X043924Y039743D02*
X043752D01*
Y039498D01*
X043769Y039413D01*
X043817Y039341D01*
X043889Y039293D01*
X043924Y039286D01*
Y039743D01*
D02*
G37*
G36*
X041783Y043855D02*
X041673D01*
X041618Y043844D01*
X041572Y043813D01*
X041541Y043767D01*
X041530Y043713D01*
Y043643D01*
X041783D01*
Y043855D01*
D02*
G37*
G36*
Y043543D02*
X041530D01*
Y043473D01*
X041541Y043418D01*
X041572Y043372D01*
X041618Y043341D01*
X041673Y043330D01*
X041783D01*
Y043543D01*
D02*
G37*
G36*
Y043107D02*
X041673D01*
X041618Y043096D01*
X041572Y043065D01*
X041541Y043019D01*
X041530Y042964D01*
Y042894D01*
X041783D01*
Y043107D01*
D02*
G37*
G36*
X041978Y046033D02*
X041613D01*
Y045018D01*
X041978D01*
Y046033D01*
D02*
G37*
G36*
X045789D02*
X045424D01*
Y045018D01*
X045789D01*
Y046033D01*
D02*
G37*
G36*
X045324D02*
X044959D01*
Y045018D01*
X045324D01*
Y046033D01*
D02*
G37*
G36*
X042443D02*
X042078D01*
Y045018D01*
X042443D01*
Y046033D01*
D02*
G37*
G36*
X043924Y040301D02*
X043889Y040294D01*
X043817Y040246D01*
X043769Y040174D01*
X043752Y040089D01*
Y039843D01*
X043924D01*
Y040301D01*
D02*
G37*
G36*
X042150Y040088D02*
X041743D01*
Y039710D01*
X041999D01*
X042057Y039722D01*
X042106Y039754D01*
X042139Y039804D01*
X042150Y039862D01*
Y040088D01*
D02*
G37*
G36*
X041643D02*
X041236D01*
Y039862D01*
X041247Y039804D01*
X041280Y039754D01*
X041329Y039722D01*
X041387Y039710D01*
X041643D01*
Y040088D01*
D02*
G37*
G36*
Y040566D02*
X041387D01*
X041329Y040554D01*
X041280Y040521D01*
X041247Y040472D01*
X041236Y040414D01*
Y040188D01*
X041643D01*
Y040566D01*
D02*
G37*
G36*
X041783Y042794D02*
X041530D01*
Y042724D01*
X041541Y042670D01*
X041572Y042624D01*
X041618Y042593D01*
X041673Y042582D01*
X041783D01*
Y042794D01*
D02*
G37*
G36*
X045474Y042355D02*
X045387Y042344D01*
X045306Y042310D01*
X045236Y042256D01*
X045213D01*
X045143Y042310D01*
X045062Y042344D01*
X044974Y042355D01*
X044887Y042344D01*
X044806Y042310D01*
X044736Y042256D01*
X044713D01*
X044643Y042310D01*
X044562Y042344D01*
X044474Y042355D01*
X044387Y042344D01*
X044306Y042310D01*
X044236Y042256D01*
X044213D01*
X044143Y042310D01*
X044062Y042344D01*
X043974Y042355D01*
X043887Y042344D01*
X043806Y042310D01*
X043736Y042256D01*
X043682Y042186D01*
X043648Y042105D01*
X043637Y042018D01*
Y041528D01*
X043504D01*
X043450Y041518D01*
X043405Y041487D01*
X043386Y041491D01*
X043385Y041492D01*
X043344Y041546D01*
X043291Y041587D01*
X043228Y041613D01*
X043161Y041622D01*
X042921D01*
X042854Y041613D01*
X042792Y041587D01*
X042738Y041546D01*
X042707Y041505D01*
X042628D01*
X042596Y041546D01*
X042543Y041587D01*
X042480Y041613D01*
X042413Y041622D01*
X042173D01*
X042106Y041613D01*
X042044Y041587D01*
X041990Y041546D01*
X041949Y041492D01*
X041923Y041430D01*
X041915Y041363D01*
Y041043D01*
X041923Y040976D01*
X041949Y040914D01*
X041990Y040860D01*
X042044Y040819D01*
X042106Y040793D01*
X042173Y040784D01*
X042255D01*
X042322Y040718D01*
X042367Y040687D01*
X042421Y040676D01*
X043514D01*
X043568Y040687D01*
X043613Y040718D01*
X043613Y040718D01*
X043613Y040718D01*
X043710Y040814D01*
X045128D01*
X045182Y040825D01*
X045227Y040855D01*
X045463Y041091D01*
X045474Y041090D01*
X045562Y041101D01*
X045643Y041135D01*
X045713Y041188D01*
X045767Y041258D01*
X045800Y041340D01*
X045812Y041427D01*
Y042018D01*
X045800Y042105D01*
X045767Y042186D01*
X045713Y042256D01*
X045643Y042310D01*
X045562Y042344D01*
X045474Y042355D01*
D02*
G37*
G36*
X041999Y040566D02*
X041743D01*
Y040188D01*
X042150D01*
Y040414D01*
X042139Y040472D01*
X042106Y040521D01*
X042057Y040554D01*
X041999Y040566D01*
D02*
G37*
%LPD*%
D10*
X046998Y036217D02*
D03*
X047313D02*
D03*
X047628D02*
D03*
X046998Y037697D02*
D03*
X047313D02*
D03*
X047628D02*
D03*
D11*
X047313Y036957D02*
D03*
D12*
X048053Y037272D02*
D03*
Y036957D02*
D03*
Y036642D02*
D03*
X046573D02*
D03*
Y036957D02*
D03*
Y037272D02*
D03*
D13*
X045768Y036772D02*
D03*
X045020D02*
D03*
X045020Y037717D02*
D03*
X045768D02*
D03*
X045039Y038661D02*
D03*
X045787D02*
D03*
X045551Y030266D02*
D03*
X044803D02*
D03*
D14*
X046358Y028159D02*
D03*
Y028829D02*
D03*
D15*
X042793Y043218D02*
D03*
X041833Y042844D02*
D03*
Y043593D02*
D03*
D16*
X044728Y043711D02*
D03*
D17*
X043705Y043120D02*
D03*
Y044301D02*
D03*
D18*
X043823Y043711D02*
D03*
D19*
X045374Y046083D02*
D03*
X042028D02*
D03*
D20*
X043701Y046703D02*
D03*
D21*
X045226Y036033D02*
D03*
X045896D02*
D03*
X045226Y035463D02*
D03*
X045896D02*
D03*
X047047Y035305D02*
D03*
X047717D02*
D03*
D22*
X046831Y040433D02*
D03*
Y039685D02*
D03*
X043465Y037470D02*
D03*
Y036722D02*
D03*
X042500Y037480D02*
D03*
Y036732D02*
D03*
X041526Y037480D02*
D03*
Y036732D02*
D03*
X044764Y028445D02*
D03*
Y029193D02*
D03*
D23*
X041693Y039035D02*
D03*
Y040138D02*
D03*
D24*
X042293Y041203D02*
D03*
X043041D02*
D03*
X042667Y042163D02*
D03*
D25*
X045474Y041722D02*
D03*
X044974D02*
D03*
X044474D02*
D03*
X043974D02*
D03*
X045474Y039793D02*
D03*
X044974D02*
D03*
X044474D02*
D03*
X043974D02*
D03*
D26*
X050443Y036144D02*
D03*
X049384D02*
D03*
X050443Y035774D02*
D03*
Y035404D02*
D03*
X049384D02*
D03*
D27*
X044124Y042707D02*
X045472D01*
X048496Y036957D02*
X048504Y036949D01*
X048053Y036957D02*
X048496D01*
X041407Y037470D02*
X043465D01*
X045859Y037704D02*
X045862Y037707D01*
X045846Y037691D02*
X045859Y037704D01*
X051693Y028346D02*
X052362D01*
X043465Y035665D02*
Y036722D01*
Y035665D02*
X043602Y035528D01*
X042500Y036634D02*
Y036732D01*
Y036634D02*
X042953Y036181D01*
Y035177D02*
Y036181D01*
Y035177D02*
X043602Y034528D01*
Y033528D02*
Y033622D01*
Y034498D02*
Y034528D01*
Y034498D02*
X044776Y033325D01*
X043602Y033528D02*
X044776Y032354D01*
Y032325D02*
Y032354D01*
X043602Y032498D02*
Y032528D01*
Y032498D02*
X044776Y031325D01*
Y030293D02*
Y031325D01*
Y030293D02*
X044803Y030266D01*
X042323Y042579D02*
X042667Y042234D01*
X042323Y042579D02*
Y043691D01*
X042864Y044232D01*
X043628D01*
X045474Y041301D02*
Y041722D01*
X041526Y037480D02*
Y038868D01*
X041693Y039035D01*
X040965Y037028D02*
X041407Y037470D01*
X044974Y039423D02*
Y039793D01*
X044272Y038720D02*
X044974Y039423D01*
X043711Y043120D02*
X044124Y042707D01*
X041693Y039035D02*
X042333Y038396D01*
X047313Y035778D02*
Y036217D01*
X045768Y036772D02*
X045896Y036644D01*
X045020Y036772D02*
Y036864D01*
X045846Y037691D01*
Y037717D01*
X046291Y037272D02*
X046573D01*
X045953Y036957D02*
X046573D01*
X045768Y036772D02*
X045953Y036957D01*
X043602Y035413D02*
Y035528D01*
Y035413D02*
X044691Y034325D01*
X044776D01*
X040965Y036437D02*
Y037028D01*
X042618Y034606D02*
X043602Y033622D01*
X042618Y034606D02*
Y035640D01*
X041526Y036732D02*
X042618Y035640D01*
X040965Y036437D02*
X042254Y035148D01*
X045474Y039411D02*
Y039793D01*
X045266Y039203D02*
X045474Y039411D01*
X045266Y038848D02*
Y039203D01*
X045079Y038661D02*
X045266Y038848D01*
X044474Y039793D02*
Y040203D01*
X044774Y040502D01*
X048053Y036642D02*
X048472D01*
X048053Y037272D02*
X048472D01*
X048474Y037274D01*
X047313Y037697D02*
Y037923D01*
X045846Y037717D02*
X045859Y037704D01*
X046291Y037272D01*
X042333Y038396D02*
X043366D01*
X043691Y038720D01*
X044272D01*
X040354Y036250D02*
X041329Y035276D01*
Y035039D02*
Y035276D01*
X041575Y034734D02*
X041821Y034980D01*
X040896Y034734D02*
X041575D01*
X040778Y034852D02*
X040896Y034734D01*
X040000Y034852D02*
X040778D01*
X039783Y035069D02*
X040000Y034852D01*
X039783Y035069D02*
Y036776D01*
X040354Y037346D01*
X044508Y046083D02*
X045374D01*
X045177Y036033D02*
X045226D01*
X046638Y045900D02*
Y046555D01*
X046959Y046876D01*
X045374Y046083D02*
X046142D01*
X042963Y033167D02*
X043602Y032528D01*
X042963Y033167D02*
Y033465D01*
X042254Y034173D02*
X042963Y033465D01*
X042254Y034173D02*
Y035148D01*
X042293Y040945D02*
Y041203D01*
Y040945D02*
X042421Y040817D01*
X043514D01*
X043041Y041203D02*
X043319D01*
X043514Y040817D02*
X043652Y040955D01*
X044974D01*
X045128D01*
X044974D02*
Y041722D01*
X045128Y040955D02*
X045474Y041301D01*
X043319Y041203D02*
X043504Y041388D01*
X044140D01*
X044508D01*
X045472Y042707D02*
X048112Y045346D01*
X052362D01*
X047628Y037697D02*
Y038376D01*
X044774Y040502D02*
X046762D01*
X046831Y040433D01*
Y039173D02*
X047628Y038376D01*
X046831Y039173D02*
Y039685D01*
X047628Y036217D02*
X048793D01*
X048866Y036144D01*
X049384D01*
X050443D02*
Y037717D01*
X050217Y037943D02*
X050443Y037717D01*
X045679Y028159D02*
X046358D01*
X045600Y028081D02*
X045679Y028159D01*
X045116Y036095D02*
X045177Y036033D01*
X044409Y037717D02*
X045098D01*
X046998Y037697D02*
Y037923D01*
X045827Y038661D02*
X046260D01*
X046998Y037923D01*
X046973Y038263D02*
X047313Y037923D01*
X046973Y038263D02*
Y038390D01*
X047008Y038425D01*
X045862Y037707D02*
X046211D01*
X046496Y037992D01*
X045896Y036644D02*
X045898Y036642D01*
X046573D01*
X045896Y036033D02*
Y036398D01*
Y036644D01*
X047313Y036217D02*
Y036553D01*
D28*
X041843Y045947D02*
X042028Y046132D01*
X041833Y043593D02*
Y044233D01*
X045551Y030266D02*
Y031100D01*
X040354Y028346D02*
X041732D01*
X043628Y044232D02*
X043701Y044305D01*
X052053Y029346D02*
X052362D01*
X040354D02*
X041677D01*
X042303Y028720D01*
X043356D01*
X043549Y028528D01*
X043602Y029528D02*
X043858Y029272D01*
X044606D01*
X046358Y028829D02*
X047657D01*
X047884Y028602D01*
X044602Y028528D02*
X044606Y028524D01*
X043602Y028528D02*
X044602D01*
X043549D02*
X043602D01*
X043514Y043120D02*
X043705D01*
X043415Y043218D02*
X043514Y043120D01*
X042793Y043218D02*
X043415D01*
X041833Y042844D02*
Y043593D01*
Y044233D02*
X042116Y044516D01*
X041843Y045657D02*
Y045947D01*
Y045657D02*
X042126Y045374D01*
Y044516D02*
Y045374D01*
X041417Y042844D02*
X041833D01*
X043701Y046703D02*
Y046752D01*
X045551Y031100D02*
X045776Y031325D01*
Y032325D01*
Y033325D01*
Y034325D01*
X042667Y042163D02*
Y042234D01*
X043701Y044305D02*
Y044754D01*
Y046703D01*
X043974Y039319D02*
Y039793D01*
X041693Y040138D02*
X042805D01*
X042835Y040167D01*
X043465D01*
X043705Y043120D02*
X043711D01*
X043789Y039134D02*
X043974Y039319D01*
X040965Y040138D02*
X041693D01*
X047884Y028602D02*
X051309D01*
X052053Y029346D01*
X046860Y034852D02*
X049045D01*
X049384Y035191D01*
Y035404D01*
X046358Y028829D02*
Y034665D01*
X046703Y035010D01*
X046565Y035148D02*
X046703Y035010D01*
X046860Y034852D01*
X044606Y028524D02*
X045020D01*
X045325Y028829D01*
X046358D01*
D29*
X047028Y035276D02*
X047047D01*
X046791Y035512D02*
X047028Y035276D01*
X046998Y036132D02*
Y036217D01*
X046919Y036053D02*
X046998Y036132D01*
X046663Y036053D02*
X046919D01*
X046196Y035586D02*
X046663Y036053D01*
X046088Y035586D02*
X046196D01*
X046014Y035512D02*
X046088Y035586D01*
X046014Y035512D02*
Y035512D01*
X045691Y035108D02*
X046100D01*
X045691Y035108D02*
X045691Y035108D01*
X045020Y035108D02*
X045691D01*
X040354Y036250D02*
Y036346D01*
X045049Y035463D02*
X045226D01*
X047717Y035305D02*
X048185Y035774D01*
X050443D01*
X047628Y035364D02*
X047717Y035276D01*
X046230Y035287D02*
X046455Y035512D01*
X046791D01*
X046230Y035238D02*
Y035287D01*
X046100Y035108D02*
X046230Y035238D01*
X044478Y035650D02*
X045020Y035108D01*
X044459Y036053D02*
X045049Y035463D01*
D30*
X044843Y036063D02*
X045148D01*
X047313Y036957D02*
X048053D01*
D31*
X045915Y036378D02*
X046299D01*
X045896Y036398D02*
X045915Y036378D01*
D32*
X045640Y036772D02*
D03*
X045148D02*
D03*
Y037717D02*
D03*
X045640D02*
D03*
X045167Y038661D02*
D03*
X045659D02*
D03*
X045423Y030266D02*
D03*
X044931D02*
D03*
D33*
X046358Y028720D02*
D03*
Y028268D02*
D03*
D34*
X045787Y036033D02*
D03*
X045335D02*
D03*
X045787Y035463D02*
D03*
X045335D02*
D03*
X047608Y035305D02*
D03*
X047156D02*
D03*
D35*
X046831Y040305D02*
D03*
Y039813D02*
D03*
X043465Y037343D02*
D03*
Y036850D02*
D03*
X042500Y037352D02*
D03*
Y036860D02*
D03*
X041526Y037352D02*
D03*
Y036860D02*
D03*
X044764Y028573D02*
D03*
Y029065D02*
D03*
D36*
X043602Y028528D02*
D03*
Y029528D02*
D03*
Y032528D02*
D03*
Y033528D02*
D03*
Y034528D02*
D03*
Y035528D02*
D03*
D37*
X045776Y031325D02*
D03*
X044776D02*
D03*
X045776Y032325D02*
D03*
X044776D02*
D03*
X045776Y033325D02*
D03*
X044776D02*
D03*
X045776Y034325D02*
D03*
D38*
X044776D02*
D03*
D39*
X040354Y046346D02*
D03*
Y045346D02*
D03*
Y044346D02*
D03*
Y043346D02*
D03*
Y042346D02*
D03*
Y041346D02*
D03*
Y040346D02*
D03*
Y039346D02*
D03*
Y038346D02*
D03*
Y037346D02*
D03*
Y036346D02*
D03*
Y035346D02*
D03*
Y034346D02*
D03*
Y033346D02*
D03*
Y032346D02*
D03*
Y031346D02*
D03*
Y030346D02*
D03*
Y029346D02*
D03*
X052362Y046346D02*
D03*
Y045346D02*
D03*
Y044346D02*
D03*
Y043346D02*
D03*
Y042346D02*
D03*
Y041346D02*
D03*
Y040346D02*
D03*
Y039346D02*
D03*
Y038346D02*
D03*
Y037346D02*
D03*
Y036346D02*
D03*
Y035346D02*
D03*
Y034346D02*
D03*
Y033346D02*
D03*
Y032346D02*
D03*
Y031346D02*
D03*
Y030346D02*
D03*
Y029346D02*
D03*
D40*
X040354Y028346D02*
D03*
X052362D02*
D03*
D41*
X047579Y036693D02*
D03*
X047569Y037195D02*
D03*
X047057Y037185D02*
D03*
X047067Y036703D02*
D03*
X042461Y033268D02*
D03*
X048701Y029016D02*
D03*
X042451Y029154D02*
D03*
X041821Y044006D02*
D03*
X041417Y042844D02*
D03*
X043465Y040167D02*
D03*
X044026Y038396D02*
D03*
X047313Y035778D02*
D03*
X046565Y035246D02*
D03*
X048472Y036642D02*
D03*
X048474Y037274D02*
D03*
X043789Y039134D02*
D03*
X041821Y034980D02*
D03*
X041329Y035039D02*
D03*
X041585Y028445D02*
D03*
X049587Y028110D02*
D03*
X045600Y028081D02*
D03*
X047185Y028091D02*
D03*
X046102Y042756D02*
D03*
X043386Y042372D02*
D03*
X050591Y045748D02*
D03*
X042913Y045787D02*
D03*
X043898Y027913D02*
D03*
X046831Y029331D02*
D03*
X045935Y029321D02*
D03*
X043780Y030354D02*
D03*
X042933Y029862D02*
D03*
X041811Y034409D02*
D03*
X047323Y044016D02*
D03*
X042913Y046654D02*
D03*
X046732Y043425D02*
D03*
X044488Y044882D02*
D03*
Y045787D02*
D03*
Y046654D02*
D03*
X042913Y044882D02*
D03*
X049331Y044961D02*
D03*
X050591D02*
D03*
X049331Y045748D02*
D03*
X048071Y044764D02*
D03*
X040886Y039862D02*
D03*
X044232Y040640D02*
D03*
X044409Y037195D02*
D03*
X047480Y045276D02*
D03*
X046772Y044567D02*
D03*
X046102Y043898D02*
D03*
X048307Y045709D02*
D03*
X051811Y045748D02*
D03*
Y044961D02*
D03*
X044478Y035650D02*
D03*
X044449Y036024D02*
D03*
X044409Y037717D02*
D03*
X046496Y037992D02*
D03*
X046975Y038458D02*
D03*
X046299Y036378D02*
D03*
M02*
