<?xml version="1.0" encoding="UTF-8" standalone="no"?>
<!DOCTYPE svg PUBLIC "-//W3C//DTD SVG 1.1//EN"
 "http://www.w3.org/Graphics/SVG/1.1/DTD/svg11.dtd">
<!-- Generated by graphviz version 2.38.0 (20140413.2041)
 -->
<!-- Title: %3 Pages: 1 -->
<svg width="228pt" height="188pt"
 viewBox="0.00 0.00 227.74 188.00" xmlns="http://www.w3.org/2000/svg" xmlns:xlink="http://www.w3.org/1999/xlink">
<g id="graph0" class="graph" transform="scale(1 1) rotate(0) translate(4 184)">
<title>%3</title>
<polygon fill="white" stroke="none" points="-4,4 -4,-184 223.741,-184 223.741,4 -4,4"/>
<!-- ITF&#45;mEM_Alimentation -->
<g id="node1" class="node"><title>ITF&#45;mEM_Alimentation</title>
<ellipse fill="none" stroke="black" cx="105.146" cy="-162" rx="98.5829" ry="18"/>
<text text-anchor="middle" x="105.146" y="-158.3" font-family="Times,serif" font-size="14.00">ITF&#45;mEM_Alimentation</text>
</g>
<!-- BreadBoardAlim -->
<g id="node2" class="node"><title>BreadBoardAlim</title>
<ellipse fill="none" stroke="black" cx="105.146" cy="-90" rx="71.4873" ry="18"/>
<text text-anchor="middle" x="105.146" y="-86.3" font-family="Times,serif" font-size="14.00">BreadBoardAlim</text>
</g>
<!-- ITF&#45;mEM_Alimentation&#45;&gt;BreadBoardAlim -->
<g id="edge1" class="edge"><title>ITF&#45;mEM_Alimentation&#45;&gt;BreadBoardAlim</title>
<path fill="none" stroke="black" d="M105.146,-143.697C105.146,-135.983 105.146,-126.712 105.146,-118.112"/>
<polygon fill="black" stroke="black" points="108.646,-118.104 105.146,-108.104 101.646,-118.104 108.646,-118.104"/>
</g>
<!-- ITF&#45;B_5v -->
<g id="node3" class="node"><title>ITF&#45;B_5v</title>
<ellipse fill="none" stroke="black" cx="46.1459" cy="-18" rx="46.2923" ry="18"/>
<text text-anchor="middle" x="46.1459" y="-14.3" font-family="Times,serif" font-size="14.00">ITF&#45;B_5v</text>
</g>
<!-- BreadBoardAlim&#45;&gt;ITF&#45;B_5v -->
<g id="edge2" class="edge"><title>BreadBoardAlim&#45;&gt;ITF&#45;B_5v</title>
<path fill="none" stroke="black" d="M90.8637,-72.055C83.51,-63.3303 74.419,-52.5444 66.3583,-42.9808"/>
<polygon fill="black" stroke="black" points="69.0113,-40.6976 59.8904,-35.307 63.6589,-45.209 69.0113,-40.6976"/>
</g>
<!-- ITF&#45;B_3_3v -->
<g id="node4" class="node"><title>ITF&#45;B_3_3v</title>
<ellipse fill="none" stroke="black" cx="165.146" cy="-18" rx="54.6905" ry="18"/>
<text text-anchor="middle" x="165.146" y="-14.3" font-family="Times,serif" font-size="14.00">ITF&#45;B_3_3v</text>
</g>
<!-- BreadBoardAlim&#45;&gt;ITF&#45;B_3_3v -->
<g id="edge3" class="edge"><title>BreadBoardAlim&#45;&gt;ITF&#45;B_3_3v</title>
<path fill="none" stroke="black" d="M119.67,-72.055C127.04,-63.4567 136.126,-52.8566 144.234,-43.3974"/>
<polygon fill="black" stroke="black" points="146.905,-45.6594 150.755,-35.789 141.59,-41.1038 146.905,-45.6594"/>
</g>
</g>
</svg>
