M48
;Layer_Color=9474304
;FILE_FORMAT=4:2
METRIC,LZ
;TYPE=PLATED
T1F00S00C0.51
T2F00S00C0.71
T3F00S00C0.90
T4F00S00C0.97
%
T01
X00716Y00334
Y00374
X00762Y00395
X00795Y00532
X0069Y00511
X00679Y00519
X00732Y00456
X0072Y00677
X00744Y00682
X0072Y00769
X00586Y00789
X006Y00687
T02
X005533Y00599
X00566
X005787
X00567Y00748
Y007607
Y007734
T03
X00786Y00331
Y00351
Y00371
Y00391
Y00411
Y00431
T04
X00525Y0032
Y003454
Y003708
Y003962
X0083
Y003708
Y003454
Y0032
Y004216
Y00447
Y004724
Y004978
Y005232
Y005486
Y00574
Y005994
Y006248
Y006502
Y006756
Y00701
Y007264
Y007518
Y007772
X00525
Y007518
Y007264
Y00701
Y006756
Y006502
Y006248
Y005994
Y00574
Y005486
Y005232
Y004978
Y004724
Y00447
Y004216
M30
