<?xml version="1.0" encoding="UTF-8" standalone="no"?>
<!DOCTYPE svg PUBLIC "-//W3C//DTD SVG 1.1//EN"
 "http://www.w3.org/Graphics/SVG/1.1/DTD/svg11.dtd">
<!-- Generated by graphviz version 2.38.0 (20140413.2041)
 -->
<!-- Title: %3 Pages: 1 -->
<svg width="1106pt" height="620pt"
 viewBox="0.00 0.00 1105.92 620.00" xmlns="http://www.w3.org/2000/svg" xmlns:xlink="http://www.w3.org/1999/xlink">
<g id="graph0" class="graph" transform="scale(1 1) rotate(0) translate(4 616)">
<title>%3</title>
<polygon fill="white" stroke="none" points="-4,4 -4,-616 1101.92,-616 1101.92,4 -4,4"/>
<!-- mogaba -->
<g id="node1" class="node"><title>mogaba</title>
<polygon fill="blue" stroke="black" points="716.174,-540 629.174,-540 629.174,-504 716.174,-504 716.174,-540"/>
<text text-anchor="middle" x="672.674" y="-516.4" font-family="Times,serif" font-size="22.00">mogaba</text>
</g>
<!-- ITF&#45;F_12V -->
<g id="node8" class="node"><title>ITF&#45;F_12V</title>
<ellipse fill="yellow" stroke="black" cx="557.674" cy="-450" rx="51.1914" ry="18"/>
<text text-anchor="middle" x="557.674" y="-446.3" font-family="Times,serif" font-size="14.00">ITF&#45;F_12V</text>
</g>
<!-- mogaba&#45;&gt;ITF&#45;F_12V -->
<g id="edge5" class="edge"><title>mogaba&#45;&gt;ITF&#45;F_12V</title>
<path fill="none" stroke="black" d="M638.645,-503.876C622.09,-494.402 602.474,-482.54 586.639,-472.453"/>
<polygon fill="red" stroke="black" points="588.104,-469.233 577.804,-466.75 584.308,-475.114 588.104,-469.233"/>
</g>
<!-- ITF&#45;A_gnd -->
<g id="node9" class="node"><title>ITF&#45;A_gnd</title>
<ellipse fill="yellow" stroke="black" cx="787.674" cy="-450" rx="50.8918" ry="18"/>
<text text-anchor="middle" x="787.674" y="-446.3" font-family="Times,serif" font-size="14.00">ITF&#45;A_gnd</text>
</g>
<!-- mogaba&#45;&gt;ITF&#45;A_gnd -->
<g id="edge3" class="edge"><title>mogaba&#45;&gt;ITF&#45;A_gnd</title>
<path fill="none" stroke="black" d="M700.806,-503.876C717.114,-493.949 737.731,-481.401 754.786,-471.019"/>
<polygon fill="red" stroke="black" points="756.616,-474.002 763.339,-465.813 752.977,-468.023 756.616,-474.002"/>
</g>
<!-- ITF&#45;B_5v -->
<g id="node10" class="node"><title>ITF&#45;B_5v</title>
<ellipse fill="yellow" stroke="black" cx="672.674" cy="-450" rx="46.2923" ry="18"/>
<text text-anchor="middle" x="672.674" y="-446.3" font-family="Times,serif" font-size="14.00">ITF&#45;B_5v</text>
</g>
<!-- mogaba&#45;&gt;ITF&#45;B_5v -->
<g id="edge4" class="edge"><title>mogaba&#45;&gt;ITF&#45;B_5v</title>
<path fill="none" stroke="black" d="M672.674,-503.697C672.674,-495.983 672.674,-486.712 672.674,-478.112"/>
<polygon fill="red" stroke="black" points="676.174,-478.104 672.674,-468.104 669.174,-478.104 676.174,-478.104"/>
</g>
<!-- ITF&#45;S_3_3v -->
<g id="node11" class="node"><title>ITF&#45;S_3_3v</title>
<ellipse fill="yellow" stroke="black" cx="983.674" cy="-450" rx="53.8905" ry="18"/>
<text text-anchor="middle" x="983.674" y="-446.3" font-family="Times,serif" font-size="14.00">ITF&#45;S_3_3v</text>
</g>
<!-- mogaba&#45;&gt;ITF&#45;S_3_3v -->
<g id="edge6" class="edge"><title>mogaba&#45;&gt;ITF&#45;S_3_3v</title>
<path fill="none" stroke="black" d="M716.245,-511.193C772.266,-498.584 869.519,-476.694 930.03,-463.074"/>
<polygon fill="red" stroke="black" points="931.161,-466.407 940.148,-460.797 929.624,-459.578 931.161,-466.407"/>
</g>
<!-- croaker -->
<g id="node2" class="node"><title>croaker</title>
<polygon fill="blue" stroke="black" points="462.174,-396 379.174,-396 379.174,-360 462.174,-360 462.174,-396"/>
<text text-anchor="middle" x="420.674" y="-372.4" font-family="Times,serif" font-size="22.00">croaker</text>
</g>
<!-- ITF&#45;mED&#45;TFT&#45;Screen -->
<g id="node13" class="node"><title>ITF&#45;mED&#45;TFT&#45;Screen</title>
<ellipse fill="green" stroke="black" cx="121.674" cy="-306" rx="90.9839" ry="18"/>
<text text-anchor="middle" x="121.674" y="-302.3" font-family="Times,serif" font-size="14.00">ITF&#45;mED&#45;TFT&#45;Screen</text>
</g>
<!-- croaker&#45;&gt;ITF&#45;mED&#45;TFT&#45;Screen -->
<g id="edge10" class="edge"><title>croaker&#45;&gt;ITF&#45;mED&#45;TFT&#45;Screen</title>
<path fill="none" stroke="black" d="M379.1,-367.267C329.574,-355.672 246.212,-336.156 187.805,-322.482"/>
<polygon fill="red" stroke="black" points="188.465,-319.042 177.93,-320.17 186.869,-325.858 188.465,-319.042"/>
</g>
<!-- ITF&#45;mEC&#45;WiFi&#45;UDP&#45;Stream -->
<g id="node14" class="node"><title>ITF&#45;mEC&#45;WiFi&#45;UDP&#45;Stream</title>
<ellipse fill="green" stroke="black" cx="346.674" cy="-306" rx="115.88" ry="18"/>
<text text-anchor="middle" x="346.674" y="-302.3" font-family="Times,serif" font-size="14.00">ITF&#45;mEC&#45;WiFi&#45;UDP&#45;Stream</text>
</g>
<!-- croaker&#45;&gt;ITF&#45;mEC&#45;WiFi&#45;UDP&#45;Stream -->
<g id="edge11" class="edge"><title>croaker&#45;&gt;ITF&#45;mEC&#45;WiFi&#45;UDP&#45;Stream</title>
<path fill="none" stroke="black" d="M402.382,-359.697C393.174,-350.986 381.867,-340.29 371.852,-330.816"/>
<polygon fill="red" stroke="black" points="374.171,-328.192 364.501,-323.863 369.36,-333.277 374.171,-328.192"/>
</g>
<!-- ITF&#45;I_pulse_on -->
<g id="node15" class="node"><title>ITF&#45;I_pulse_on</title>
<ellipse fill="yellow" stroke="black" cx="584.674" cy="-306" rx="65.7887" ry="18"/>
<text text-anchor="middle" x="584.674" y="-302.3" font-family="Times,serif" font-size="14.00">ITF&#45;I_pulse_on</text>
</g>
<!-- croaker&#45;&gt;ITF&#45;I_pulse_on -->
<g id="edge12" class="edge"><title>croaker&#45;&gt;ITF&#45;I_pulse_on</title>
<path fill="none" stroke="black" d="M460.793,-359.876C485.262,-349.432 516.532,-336.085 541.533,-325.414"/>
<polygon fill="red" stroke="black" points="542.958,-328.611 550.781,-321.467 540.21,-322.173 542.958,-328.611"/>
</g>
<!-- ITF&#45;J_pulse_off -->
<g id="node16" class="node"><title>ITF&#45;J_pulse_off</title>
<ellipse fill="yellow" stroke="black" cx="735.674" cy="-306" rx="67.6881" ry="18"/>
<text text-anchor="middle" x="735.674" y="-302.3" font-family="Times,serif" font-size="14.00">ITF&#45;J_pulse_off</text>
</g>
<!-- croaker&#45;&gt;ITF&#45;J_pulse_off -->
<g id="edge13" class="edge"><title>croaker&#45;&gt;ITF&#45;J_pulse_off</title>
<path fill="none" stroke="black" d="M462.558,-367.736C510.279,-357.176 590.602,-339.384 659.674,-324 664.953,-322.824 670.438,-321.601 675.935,-320.374"/>
<polygon fill="red" stroke="black" points="676.806,-323.765 685.802,-318.169 675.28,-316.934 676.806,-323.765"/>
</g>
<!-- oneeye -->
<g id="node3" class="node"><title>oneeye</title>
<polygon fill="blue" stroke="black" points="827.674,-396 747.674,-396 747.674,-360 827.674,-360 827.674,-396"/>
<text text-anchor="middle" x="787.674" y="-372.4" font-family="Times,serif" font-size="22.00">oneeye</text>
</g>
<!-- oneeye&#45;&gt;ITF&#45;I_pulse_on -->
<g id="edge18" class="edge"><title>oneeye&#45;&gt;ITF&#45;I_pulse_on</title>
<path fill="none" stroke="black" d="M747.568,-363.17C714.827,-351.88 668.433,-335.882 633.526,-323.846"/>
<polygon fill="red" stroke="black" points="634.601,-320.514 624.007,-320.563 632.319,-327.132 634.601,-320.514"/>
</g>
<!-- oneeye&#45;&gt;ITF&#45;J_pulse_off -->
<g id="edge19" class="edge"><title>oneeye&#45;&gt;ITF&#45;J_pulse_off</title>
<path fill="none" stroke="black" d="M774.82,-359.697C768.649,-351.389 761.137,-341.277 754.35,-332.141"/>
<polygon fill="red" stroke="black" points="757.153,-330.045 748.38,-324.104 751.534,-334.219 757.153,-330.045"/>
</g>
<!-- ITF&#45;G_gain_control -->
<g id="node17" class="node"><title>ITF&#45;G_gain_control</title>
<ellipse fill="yellow" stroke="black" cx="630.674" cy="-234" rx="81.7856" ry="18"/>
<text text-anchor="middle" x="630.674" y="-230.3" font-family="Times,serif" font-size="14.00">ITF&#45;G_gain_control</text>
</g>
<!-- oneeye&#45;&gt;ITF&#45;G_gain_control -->
<g id="edge17" class="edge"><title>oneeye&#45;&gt;ITF&#45;G_gain_control</title>
<path fill="none" stroke="black" d="M800.471,-359.982C813.22,-340.781 828.76,-309.439 812.674,-288 805.306,-278.18 744.691,-261.801 695.407,-249.845"/>
<polygon fill="red" stroke="black" points="695.944,-246.375 685.403,-247.441 694.308,-253.181 695.944,-246.375"/>
</g>
<!-- ITF&#45;N_cc_motor_pwm -->
<g id="node18" class="node"><title>ITF&#45;N_cc_motor_pwm</title>
<ellipse fill="yellow" stroke="black" cx="823.674" cy="-234" rx="93.6835" ry="18"/>
<text text-anchor="middle" x="823.674" y="-230.3" font-family="Times,serif" font-size="14.00">ITF&#45;N_cc_motor_pwm</text>
</g>
<!-- oneeye&#45;&gt;ITF&#45;N_cc_motor_pwm -->
<g id="edge20" class="edge"><title>oneeye&#45;&gt;ITF&#45;N_cc_motor_pwm</title>
<path fill="none" stroke="black" d="M827.86,-365.668C848.407,-357.611 871.579,-344.494 883.674,-324 891.807,-310.221 890.252,-302.586 883.674,-288 878.31,-276.103 868.808,-265.803 858.926,-257.529"/>
<polygon fill="red" stroke="black" points="861.028,-254.73 850.992,-251.336 856.721,-260.248 861.028,-254.73"/>
</g>
<!-- tobo -->
<g id="node4" class="node"><title>tobo</title>
<polygon fill="blue" stroke="black" points="530.674,-252 474.674,-252 474.674,-216 530.674,-216 530.674,-252"/>
<text text-anchor="middle" x="502.674" y="-228.4" font-family="Times,serif" font-size="22.00">tobo</text>
</g>
<!-- ITF&#45;mET_Transducer -->
<g id="node19" class="node"><title>ITF&#45;mET_Transducer</title>
<ellipse fill="green" stroke="black" cx="768.674" cy="-162" rx="89.0842" ry="18"/>
<text text-anchor="middle" x="768.674" y="-158.3" font-family="Times,serif" font-size="14.00">ITF&#45;mET_Transducer</text>
</g>
<!-- tobo&#45;&gt;ITF&#45;mET_Transducer -->
<g id="edge29" class="edge"><title>tobo&#45;&gt;ITF&#45;mET_Transducer</title>
<path fill="none" stroke="black" d="M530.272,-216.138C530.407,-216.092 530.541,-216.046 530.674,-216 582.682,-198.24 643.344,-184.499 690.473,-175.463"/>
<polygon fill="red" stroke="black" points="691.139,-178.899 700.317,-173.606 689.841,-172.02 691.139,-178.899"/>
</g>
<!-- ITF&#45;R_reserved -->
<g id="node20" class="node"><title>ITF&#45;R_reserved</title>
<ellipse fill="yellow" stroke="black" cx="379.674" cy="-162" rx="66.8882" ry="18"/>
<text text-anchor="middle" x="379.674" y="-158.3" font-family="Times,serif" font-size="14.00">ITF&#45;R_reserved</text>
</g>
<!-- tobo&#45;&gt;ITF&#45;R_reserved -->
<g id="edge27" class="edge"><title>tobo&#45;&gt;ITF&#45;R_reserved</title>
<path fill="none" stroke="black" d="M474.456,-216.941C457.024,-207.02 434.486,-194.194 415.762,-183.538"/>
<polygon fill="red" stroke="black" points="417.338,-180.408 406.916,-178.503 413.876,-186.491 417.338,-180.408"/>
</g>
<!-- ITF&#45;mET_SMA -->
<g id="node21" class="node"><title>ITF&#45;mET_SMA</title>
<ellipse fill="green" stroke="black" cx="533.674" cy="-162" rx="68.7879" ry="18"/>
<text text-anchor="middle" x="533.674" y="-158.3" font-family="Times,serif" font-size="14.00">ITF&#45;mET_SMA</text>
</g>
<!-- tobo&#45;&gt;ITF&#45;mET_SMA -->
<g id="edge28" class="edge"><title>tobo&#45;&gt;ITF&#45;mET_SMA</title>
<path fill="none" stroke="black" d="M510.337,-215.697C513.866,-207.728 518.13,-198.1 522.043,-189.264"/>
<polygon fill="red" stroke="black" points="525.25,-190.665 526.1,-180.104 518.85,-187.831 525.25,-190.665"/>
</g>
<!-- cletus -->
<g id="node5" class="node"><title>cletus</title>
<polygon fill="blue" stroke="black" points="954.674,-108 886.674,-108 886.674,-72 954.674,-72 954.674,-108"/>
<text text-anchor="middle" x="920.674" y="-84.4" font-family="Times,serif" font-size="22.00">cletus</text>
</g>
<!-- cletus&#45;&gt;ITF&#45;mET_Transducer -->
<g id="edge37" class="edge"><title>cletus&#45;&gt;ITF&#45;mET_Transducer</title>
<path fill="none" stroke="black" d="M889.553,-108.044C868.619,-118.176 840.716,-131.061 816.95,-141.584"/>
<polygon fill="red" stroke="black" points="815.476,-138.409 807.731,-145.638 818.294,-144.817 815.476,-138.409"/>
</g>
<!-- ITF&#45;mET_Piezo -->
<g id="node22" class="node"><title>ITF&#45;mET_Piezo</title>
<ellipse fill="green" stroke="black" cx="920.674" cy="-18" rx="68.7879" ry="18"/>
<text text-anchor="middle" x="920.674" y="-14.3" font-family="Times,serif" font-size="14.00">ITF&#45;mET_Piezo</text>
</g>
<!-- cletus&#45;&gt;ITF&#45;mET_Piezo -->
<g id="edge36" class="edge"><title>cletus&#45;&gt;ITF&#45;mET_Piezo</title>
<path fill="none" stroke="black" d="M914.759,-71.6966C913.963,-63.9827 913.736,-54.7125 914.079,-46.1124"/>
<polygon fill="red" stroke="black" points="917.573,-46.3243 914.779,-36.1043 910.59,-45.8356 917.573,-46.3243"/>
</g>
<!-- goblin -->
<g id="node6" class="node"><title>goblin</title>
<polygon fill="blue" stroke="black" points="570.674,-108 496.674,-108 496.674,-72 570.674,-72 570.674,-108"/>
<text text-anchor="middle" x="533.674" y="-84.4" font-family="Times,serif" font-size="22.00">goblin</text>
</g>
<!-- ITF&#45;mEG_SPI -->
<g id="node12" class="node"><title>ITF&#45;mEG_SPI</title>
<ellipse fill="green" stroke="black" cx="81.6743" cy="-18" rx="63.0888" ry="18"/>
<text text-anchor="middle" x="81.6743" y="-14.3" font-family="Times,serif" font-size="14.00">ITF&#45;mEG_SPI</text>
</g>
<!-- goblin&#45;&gt;ITF&#45;mEG_SPI -->
<g id="edge48" class="edge"><title>goblin&#45;&gt;ITF&#45;mEG_SPI</title>
<path fill="none" stroke="black" d="M496.301,-83.2121C419.16,-71.2656 241.533,-43.7569 145.72,-28.9185"/>
<polygon fill="red" stroke="black" points="145.999,-25.4201 135.581,-27.3484 144.927,-32.3376 145.999,-25.4201"/>
</g>
<!-- ITF&#45;C_amplified_raw_signal -->
<g id="node23" class="node"><title>ITF&#45;C_amplified_raw_signal</title>
<ellipse fill="yellow" stroke="black" cx="640.674" cy="-18" rx="114.28" ry="18"/>
<text text-anchor="middle" x="640.674" y="-14.3" font-family="Times,serif" font-size="14.00">ITF&#45;C_amplified_raw_signal</text>
</g>
<!-- goblin&#45;&gt;ITF&#45;C_amplified_raw_signal -->
<g id="edge46" class="edge"><title>goblin&#45;&gt;ITF&#45;C_amplified_raw_signal</title>
<path fill="none" stroke="black" d="M553.952,-71.8761C567.277,-62.5187 585.006,-50.831 601.007,-40.8253"/>
<polygon fill="red" stroke="black" points="603.014,-43.6998 609.68,-35.4651 599.333,-37.7453 603.014,-43.6998"/>
</g>
<!-- ITF&#45;E_signal_envelope -->
<g id="node24" class="node"><title>ITF&#45;E_signal_envelope</title>
<ellipse fill="yellow" stroke="black" cx="414.674" cy="-18" rx="93.6835" ry="18"/>
<text text-anchor="middle" x="414.674" y="-14.3" font-family="Times,serif" font-size="14.00">ITF&#45;E_signal_envelope</text>
</g>
<!-- goblin&#45;&gt;ITF&#45;E_signal_envelope -->
<g id="edge47" class="edge"><title>goblin&#45;&gt;ITF&#45;E_signal_envelope</title>
<path fill="none" stroke="black" d="M498.667,-71.8761C481.903,-62.587 462.067,-51.0015 445.829,-41.0447"/>
<polygon fill="red" stroke="black" points="447.564,-38.0022 437.221,-35.7056 443.875,-43.9509 447.564,-38.0022"/>
</g>
<!-- ITF&#45;mEM_Alimentation -->
<g id="node7" class="node"><title>ITF&#45;mEM_Alimentation</title>
<ellipse fill="green" stroke="black" cx="672.674" cy="-594" rx="98.5829" ry="18"/>
<text text-anchor="middle" x="672.674" y="-590.3" font-family="Times,serif" font-size="14.00">ITF&#45;mEM_Alimentation</text>
</g>
<!-- ITF&#45;mEM_Alimentation&#45;&gt;mogaba -->
<g id="edge1" class="edge"><title>ITF&#45;mEM_Alimentation&#45;&gt;mogaba</title>
<path fill="none" stroke="black" d="M672.674,-575.697C672.674,-567.983 672.674,-558.712 672.674,-550.112"/>
<polygon fill="black" stroke="black" points="676.174,-550.104 672.674,-540.104 669.174,-550.104 676.174,-550.104"/>
</g>
<!-- ITF&#45;F_12V&#45;&gt;mogaba -->
<g id="edge2" class="edge"><title>ITF&#45;F_12V&#45;&gt;mogaba</title>
<path fill="none" stroke="black" d="M586.419,-465.123C603.328,-474.648 624.59,-487.424 641.833,-498.355"/>
<polygon fill="black" stroke="black" points="640.132,-501.422 650.439,-503.876 643.912,-495.53 640.132,-501.422"/>
</g>
<!-- ITF&#45;A_gnd&#45;&gt;croaker -->
<g id="edge7" class="edge"><title>ITF&#45;A_gnd&#45;&gt;croaker</title>
<path fill="none" stroke="black" d="M750.42,-437.612C742.933,-435.559 735.088,-433.574 727.674,-432 617.436,-408.587 586.69,-420.439 476.674,-396 475.218,-395.676 473.744,-395.334 472.259,-394.976"/>
<polygon fill="black" stroke="black" points="472.941,-391.537 462.383,-392.421 471.188,-398.314 472.941,-391.537"/>
</g>
<!-- ITF&#45;A_gnd&#45;&gt;oneeye -->
<g id="edge14" class="edge"><title>ITF&#45;A_gnd&#45;&gt;oneeye</title>
<path fill="none" stroke="black" d="M787.674,-431.697C787.674,-423.983 787.674,-414.712 787.674,-406.112"/>
<polygon fill="black" stroke="black" points="791.174,-406.104 787.674,-396.104 784.174,-406.104 791.174,-406.104"/>
</g>
<!-- ITF&#45;A_gnd&#45;&gt;tobo -->
<g id="edge21" class="edge"><title>ITF&#45;A_gnd&#45;&gt;tobo</title>
<path fill="none" stroke="black" d="M750.793,-437.602C682.15,-415.599 539.069,-365.758 509.674,-324 497.161,-306.224 496.258,-281.212 497.999,-262.228"/>
<polygon fill="black" stroke="black" points="501.496,-262.465 499.222,-252.117 494.547,-261.625 501.496,-262.465"/>
</g>
<!-- ITF&#45;A_gnd&#45;&gt;cletus -->
<g id="edge30" class="edge"><title>ITF&#45;A_gnd&#45;&gt;cletus</title>
<path fill="none" stroke="black" d="M835.815,-444.238C873.195,-438.345 924.429,-425.21 959.674,-396 987.534,-372.911 988.975,-359.122 997.674,-324 1016.91,-246.347 1034.9,-214.812 997.674,-144 990.179,-129.742 976.921,-118.573 963.495,-110.24"/>
<polygon fill="black" stroke="black" points="965.118,-107.136 954.707,-105.171 961.62,-113.199 965.118,-107.136"/>
</g>
<!-- ITF&#45;A_gnd&#45;&gt;goblin -->
<g id="edge38" class="edge"><title>ITF&#45;A_gnd&#45;&gt;goblin</title>
<path fill="none" stroke="black" d="M815.638,-434.926C832.938,-425.393 854.958,-411.701 871.674,-396 932.647,-338.73 955.151,-294.655 926.674,-216 912.494,-176.833 902.886,-164.587 866.674,-144 818.762,-116.761 661.177,-100.919 581.175,-94.4447"/>
<polygon fill="black" stroke="black" points="581.131,-90.9303 570.885,-93.6291 580.578,-97.9084 581.131,-90.9303"/>
</g>
<!-- ITF&#45;B_5v&#45;&gt;croaker -->
<g id="edge8" class="edge"><title>ITF&#45;B_5v&#45;&gt;croaker</title>
<path fill="none" stroke="black" d="M638.132,-438.036C631.366,-435.97 624.312,-433.872 617.674,-432 555.425,-414.445 538.967,-413.398 476.674,-396 475.206,-395.59 473.718,-395.17 472.217,-394.742"/>
<polygon fill="black" stroke="black" points="472.783,-391.261 462.204,-391.833 470.83,-397.984 472.783,-391.261"/>
</g>
<!-- ITF&#45;B_5v&#45;&gt;oneeye -->
<g id="edge15" class="edge"><title>ITF&#45;B_5v&#45;&gt;oneeye</title>
<path fill="none" stroke="black" d="M696.502,-434.496C712.077,-425.016 732.741,-412.438 750.457,-401.654"/>
<polygon fill="black" stroke="black" points="752.689,-404.393 759.411,-396.204 749.049,-398.414 752.689,-404.393"/>
</g>
<!-- ITF&#45;B_5v&#45;&gt;tobo -->
<g id="edge22" class="edge"><title>ITF&#45;B_5v&#45;&gt;tobo</title>
<path fill="none" stroke="black" d="M638.864,-437.645C631.909,-435.565 624.596,-433.562 617.674,-432 486.375,-402.368 106.665,-428.375 21.6743,-324 11.5715,-311.593 10.9981,-299.917 21.6743,-288 51.0719,-255.185 355.24,-240.562 464.15,-236.351"/>
<polygon fill="black" stroke="black" points="464.502,-239.84 474.363,-235.964 464.238,-232.845 464.502,-239.84"/>
</g>
<!-- ITF&#45;B_5v&#45;&gt;cletus -->
<g id="edge31" class="edge"><title>ITF&#45;B_5v&#45;&gt;cletus</title>
<path fill="none" stroke="black" d="M707.911,-438.13C754.422,-423.705 831.115,-399.629 836.674,-396 872.525,-372.595 878.787,-360.797 900.674,-324 918.067,-294.759 920.809,-285.513 926.674,-252 934.819,-205.463 929.604,-150.248 925.113,-118.065"/>
<polygon fill="black" stroke="black" points="928.562,-117.461 923.638,-108.08 921.637,-118.484 928.562,-117.461"/>
</g>
<!-- ITF&#45;B_5v&#45;&gt;goblin -->
<g id="edge39" class="edge"><title>ITF&#45;B_5v&#45;&gt;goblin</title>
<path fill="none" stroke="black" d="M639.539,-437.391C632.404,-435.278 624.849,-433.326 617.674,-432 497.884,-409.862 179.235,-451.266 70.6743,-396 33.5531,-377.102 24.8546,-363.167 10.6743,-324 -61.0458,-125.905 344.476,-96.1135 486.17,-91.7263"/>
<polygon fill="black" stroke="black" points="486.402,-95.2212 496.3,-91.4424 486.206,-88.224 486.402,-95.2212"/>
</g>
<!-- ITF&#45;S_3_3v&#45;&gt;oneeye -->
<g id="edge16" class="edge"><title>ITF&#45;S_3_3v&#45;&gt;oneeye</title>
<path fill="none" stroke="black" d="M948.18,-436.324C917.224,-425.268 871.986,-409.111 837.42,-396.766"/>
<polygon fill="black" stroke="black" points="838.569,-393.46 827.975,-393.393 836.215,-400.053 838.569,-393.46"/>
</g>
<!-- ITF&#45;S_3_3v&#45;&gt;tobo -->
<g id="edge25" class="edge"><title>ITF&#45;S_3_3v&#45;&gt;tobo</title>
<path fill="none" stroke="black" d="M971.795,-432.262C946.754,-398.44 884.872,-322.272 812.674,-288 705.03,-236.902 659.672,-283.341 540.851,-251.79"/>
<polygon fill="black" stroke="black" points="541.606,-248.367 531.033,-249.052 539.725,-255.11 541.606,-248.367"/>
</g>
<!-- ITF&#45;S_3_3v&#45;&gt;cletus -->
<g id="edge33" class="edge"><title>ITF&#45;S_3_3v&#45;&gt;cletus</title>
<path fill="none" stroke="black" d="M1018.57,-436.144C1037.46,-427.506 1059.72,-414.319 1073.67,-396 1098.5,-363.41 1097.67,-347.969 1097.67,-307 1097.67,-307 1097.67,-307 1097.67,-233 1097.67,-192.031 1101.61,-173.966 1073.67,-144 1045.53,-113.813 999.348,-100.819 965.072,-95.2256"/>
<polygon fill="black" stroke="black" points="965.254,-91.7146 954.85,-93.7166 964.232,-98.6395 965.254,-91.7146"/>
</g>
<!-- ITF&#45;S_3_3v&#45;&gt;goblin -->
<g id="edge40" class="edge"><title>ITF&#45;S_3_3v&#45;&gt;goblin</title>
<path fill="none" stroke="black" d="M985.768,-431.934C991.337,-377.665 1000.03,-208.838 902.674,-144 850.847,-109.483 668.445,-96.9114 581.05,-92.7961"/>
<polygon fill="black" stroke="black" points="581.027,-89.2916 570.879,-92.3353 580.71,-96.2844 581.027,-89.2916"/>
</g>
<!-- ITF&#45;mEG_SPI&#45;&gt;croaker -->
<g id="edge9" class="edge"><title>ITF&#45;mEG_SPI&#45;&gt;croaker</title>
<path fill="none" stroke="black" d="M64.9205,-35.6881C41.7307,-60.6467 2.67433,-110.22 2.67433,-161 2.67433,-235 2.67433,-235 2.67433,-235 2.67433,-275.447 -8.02298,-296.541 21.6743,-324 71.178,-369.773 272.76,-376.654 369.024,-377.268"/>
<polygon fill="black" stroke="black" points="369.099,-380.768 379.115,-377.312 369.13,-373.768 369.099,-380.768"/>
</g>
<!-- ITF&#45;I_pulse_on&#45;&gt;tobo -->
<g id="edge23" class="edge"><title>ITF&#45;I_pulse_on&#45;&gt;tobo</title>
<path fill="none" stroke="black" d="M565.656,-288.765C555.2,-279.839 542.036,-268.601 530.45,-258.711"/>
<polygon fill="black" stroke="black" points="532.612,-255.955 522.734,-252.124 528.067,-261.279 532.612,-255.955"/>
</g>
<!-- ITF&#45;J_pulse_off&#45;&gt;tobo -->
<g id="edge24" class="edge"><title>ITF&#45;J_pulse_off&#45;&gt;tobo</title>
<path fill="none" stroke="black" d="M685.424,-293.855C647.589,-284.914 594.432,-271.186 540.178,-251.892"/>
<polygon fill="black" stroke="black" points="541.348,-248.593 530.754,-248.487 538.97,-255.177 541.348,-248.593"/>
</g>
<!-- ITF&#45;G_gain_control&#45;&gt;goblin -->
<g id="edge41" class="edge"><title>ITF&#45;G_gain_control&#45;&gt;goblin</title>
<path fill="none" stroke="black" d="M630.708,-215.803C629.956,-196.723 626.313,-165.762 611.674,-144 603.359,-131.638 591.099,-121.368 578.75,-113.264"/>
<polygon fill="black" stroke="black" points="580.581,-110.281 570.234,-108.001 576.9,-116.235 580.581,-110.281"/>
</g>
<!-- ITF&#45;N_cc_motor_pwm&#45;&gt;cletus -->
<g id="edge32" class="edge"><title>ITF&#45;N_cc_motor_pwm&#45;&gt;cletus</title>
<path fill="none" stroke="black" d="M838.626,-215.801C847.193,-205.651 857.943,-192.401 866.674,-180 881.117,-159.488 895.773,-135.055 906.165,-116.983"/>
<polygon fill="black" stroke="black" points="909.279,-118.588 911.187,-108.166 903.197,-115.123 909.279,-118.588"/>
</g>
<!-- ITF&#45;mET_Transducer&#45;&gt;tobo -->
<g id="edge26" class="edge"><title>ITF&#45;mET_Transducer&#45;&gt;tobo</title>
<path fill="none" stroke="black" d="M707.166,-175.197C662.543,-184.228 601.195,-198.065 548.674,-216 545.977,-216.921 543.212,-217.973 540.433,-219.093"/>
<polygon fill="black" stroke="black" points="538.858,-215.958 531.001,-223.066 541.575,-222.41 538.858,-215.958"/>
</g>
<!-- ITF&#45;mET_Transducer&#45;&gt;cletus -->
<g id="edge34" class="edge"><title>ITF&#45;mET_Transducer&#45;&gt;cletus</title>
<path fill="none" stroke="black" d="M797.765,-144.941C820.301,-133.988 851.728,-119.495 877.216,-108.29"/>
<polygon fill="black" stroke="black" points="878.895,-111.376 886.662,-104.171 876.097,-104.96 878.895,-111.376"/>
</g>
<!-- ITF&#45;R_reserved&#45;&gt;goblin -->
<g id="edge44" class="edge"><title>ITF&#45;R_reserved&#45;&gt;goblin</title>
<path fill="none" stroke="black" d="M412.334,-146.155C434.08,-136.27 462.985,-123.132 487.128,-112.157"/>
<polygon fill="black" stroke="black" points="488.807,-115.239 496.463,-107.914 485.911,-108.866 488.807,-115.239"/>
</g>
<!-- ITF&#45;mET_SMA&#45;&gt;goblin -->
<g id="edge45" class="edge"><title>ITF&#45;mET_SMA&#45;&gt;goblin</title>
<path fill="none" stroke="black" d="M533.674,-143.697C533.674,-135.983 533.674,-126.712 533.674,-118.112"/>
<polygon fill="black" stroke="black" points="537.174,-118.104 533.674,-108.104 530.174,-118.104 537.174,-118.104"/>
</g>
<!-- ITF&#45;mET_Piezo&#45;&gt;cletus -->
<g id="edge35" class="edge"><title>ITF&#45;mET_Piezo&#45;&gt;cletus</title>
<path fill="none" stroke="black" d="M926.569,-36.1043C927.375,-43.7913 927.611,-53.0537 927.278,-61.6651"/>
<polygon fill="black" stroke="black" points="923.783,-61.4805 926.59,-71.6966 930.766,-61.9597 923.783,-61.4805"/>
</g>
<!-- ITF&#45;C_amplified_raw_signal&#45;&gt;goblin -->
<g id="edge42" class="edge"><title>ITF&#45;C_amplified_raw_signal&#45;&gt;goblin</title>
<path fill="none" stroke="black" d="M620.648,-35.9471C607.573,-45.1388 590.183,-56.6178 574.347,-66.545"/>
<polygon fill="black" stroke="black" points="572.402,-63.6327 565.747,-71.8761 576.09,-69.5825 572.402,-63.6327"/>
</g>
<!-- ITF&#45;E_signal_envelope&#45;&gt;goblin -->
<g id="edge43" class="edge"><title>ITF&#45;E_signal_envelope&#45;&gt;goblin</title>
<path fill="none" stroke="black" d="M447.626,-34.9874C464.488,-44.2812 484.849,-56.1427 501.582,-66.3814"/>
<polygon fill="black" stroke="black" points="500.116,-69.5896 510.461,-71.8761 503.799,-63.6373 500.116,-69.5896"/>
</g>
</g>
</svg>
