<?xml version="1.0" encoding="UTF-8" standalone="no"?>
<!DOCTYPE svg PUBLIC "-//W3C//DTD SVG 1.1//EN"
 "http://www.w3.org/Graphics/SVG/1.1/DTD/svg11.dtd">
<!-- Generated by graphviz version 2.38.0 (20140413.2041)
 -->
<!-- Title: %3 Pages: 1 -->
<svg width="1396pt" height="764pt"
 viewBox="0.00 0.00 1396.25 764.00" xmlns="http://www.w3.org/2000/svg" xmlns:xlink="http://www.w3.org/1999/xlink">
<g id="graph0" class="graph" transform="scale(1 1) rotate(0) translate(4 760)">
<title>%3</title>
<polygon fill="white" stroke="none" points="-4,4 -4,-760 1392.25,-760 1392.25,4 -4,4"/>
<!-- mogaba -->
<g id="node1" class="node"><title>mogaba</title>
<polygon fill="blue" stroke="black" points="323.947,-684 236.947,-684 236.947,-648 323.947,-648 323.947,-684"/>
<text text-anchor="middle" x="280.447" y="-660.4" font-family="Times,serif" font-size="22.00">mogaba</text>
</g>
<!-- ITF&#45;F_12V -->
<g id="node8" class="node"><title>ITF&#45;F_12V</title>
<ellipse fill="yellow" stroke="black" cx="160.447" cy="-594" rx="51.1914" ry="18"/>
<text text-anchor="middle" x="160.447" y="-590.3" font-family="Times,serif" font-size="14.00">ITF&#45;F_12V</text>
</g>
<!-- mogaba&#45;&gt;ITF&#45;F_12V -->
<g id="edge5" class="edge"><title>mogaba&#45;&gt;ITF&#45;F_12V</title>
<path fill="none" stroke="black" d="M245.195,-647.876C227.677,-638.245 206.821,-626.147 190.125,-615.953"/>
<polygon fill="red" stroke="black" points="191.672,-612.795 181.325,-610.514 187.991,-618.749 191.672,-612.795"/>
</g>
<!-- ITF&#45;A_gnd -->
<g id="node9" class="node"><title>ITF&#45;A_gnd</title>
<ellipse fill="yellow" stroke="black" cx="280.447" cy="-594" rx="50.8918" ry="18"/>
<text text-anchor="middle" x="280.447" y="-590.3" font-family="Times,serif" font-size="14.00">ITF&#45;A_gnd</text>
</g>
<!-- mogaba&#45;&gt;ITF&#45;A_gnd -->
<g id="edge3" class="edge"><title>mogaba&#45;&gt;ITF&#45;A_gnd</title>
<path fill="none" stroke="black" d="M280.447,-647.697C280.447,-639.983 280.447,-630.712 280.447,-622.112"/>
<polygon fill="red" stroke="black" points="283.947,-622.104 280.447,-612.104 276.947,-622.104 283.947,-622.104"/>
</g>
<!-- ITF&#45;B_5v -->
<g id="node10" class="node"><title>ITF&#45;B_5v</title>
<ellipse fill="yellow" stroke="black" cx="395.447" cy="-594" rx="46.2923" ry="18"/>
<text text-anchor="middle" x="395.447" y="-590.3" font-family="Times,serif" font-size="14.00">ITF&#45;B_5v</text>
</g>
<!-- mogaba&#45;&gt;ITF&#45;B_5v -->
<g id="edge4" class="edge"><title>mogaba&#45;&gt;ITF&#45;B_5v</title>
<path fill="none" stroke="black" d="M308.579,-647.876C325,-637.881 345.79,-625.226 362.913,-614.803"/>
<polygon fill="red" stroke="black" points="364.769,-617.771 371.491,-609.582 361.129,-611.792 364.769,-617.771"/>
</g>
<!-- ITF&#45;S_3_3v -->
<g id="node11" class="node"><title>ITF&#45;S_3_3v</title>
<ellipse fill="yellow" stroke="black" cx="811.447" cy="-594" rx="53.8905" ry="18"/>
<text text-anchor="middle" x="811.447" y="-590.3" font-family="Times,serif" font-size="14.00">ITF&#45;S_3_3v</text>
</g>
<!-- mogaba&#45;&gt;ITF&#45;S_3_3v -->
<g id="edge6" class="edge"><title>mogaba&#45;&gt;ITF&#45;S_3_3v</title>
<path fill="none" stroke="black" d="M324.353,-659.212C419.434,-646.678 644.469,-617.012 752.099,-602.824"/>
<polygon fill="red" stroke="black" points="752.684,-606.277 762.14,-601.5 751.769,-599.337 752.684,-606.277"/>
</g>
<!-- croaker -->
<g id="node2" class="node"><title>croaker</title>
<polygon fill="blue" stroke="black" points="116.947,-108 33.9469,-108 33.9469,-72 116.947,-72 116.947,-108"/>
<text text-anchor="middle" x="75.4469" y="-84.4" font-family="Times,serif" font-size="22.00">croaker</text>
</g>
<!-- Screen -->
<g id="node13" class="node"><title>Screen</title>
<ellipse fill="yellow" stroke="black" cx="34.4469" cy="-18" rx="34.394" ry="18"/>
<text text-anchor="middle" x="34.4469" y="-14.3" font-family="Times,serif" font-size="14.00">Screen</text>
</g>
<!-- croaker&#45;&gt;Screen -->
<g id="edge10" class="edge"><title>croaker&#45;&gt;Screen</title>
<path fill="none" stroke="black" d="M65.3121,-71.6966C60.4746,-63.4374 54.592,-53.394 49.2652,-44.2994"/>
<polygon fill="red" stroke="black" points="52.257,-42.4822 44.1829,-35.6223 46.2168,-46.0201 52.257,-42.4822"/>
</g>
<!-- WiFi -->
<g id="node14" class="node"><title>WiFi</title>
<ellipse fill="yellow" stroke="black" cx="116.447" cy="-18" rx="29.4969" ry="18"/>
<text text-anchor="middle" x="116.447" y="-14.3" font-family="Times,serif" font-size="14.00">WiFi</text>
</g>
<!-- croaker&#45;&gt;WiFi -->
<g id="edge11" class="edge"><title>croaker&#45;&gt;WiFi</title>
<path fill="none" stroke="black" d="M85.5818,-71.6966C90.4905,-63.316 96.4751,-53.0983 101.863,-43.8988"/>
<polygon fill="red" stroke="black" points="104.957,-45.5423 106.991,-35.1446 98.9167,-42.0045 104.957,-45.5423"/>
</g>
<!-- oneeye -->
<g id="node3" class="node"><title>oneeye</title>
<polygon fill="blue" stroke="black" points="530.447,-540 450.447,-540 450.447,-504 530.447,-504 530.447,-540"/>
<text text-anchor="middle" x="490.447" y="-516.4" font-family="Times,serif" font-size="22.00">oneeye</text>
</g>
<!-- ITF&#45;G_gain_control -->
<g id="node15" class="node"><title>ITF&#45;G_gain_control</title>
<ellipse fill="yellow" stroke="black" cx="735.447" cy="-378" rx="81.7856" ry="18"/>
<text text-anchor="middle" x="735.447" y="-374.3" font-family="Times,serif" font-size="14.00">ITF&#45;G_gain_control</text>
</g>
<!-- oneeye&#45;&gt;ITF&#45;G_gain_control -->
<g id="edge15" class="edge"><title>oneeye&#45;&gt;ITF&#45;G_gain_control</title>
<path fill="none" stroke="black" d="M530.7,-516.725C588.512,-509.756 690.917,-494.047 716.447,-468 732.217,-451.911 736.314,-426.132 736.849,-406.45"/>
<polygon fill="red" stroke="black" points="740.349,-406.237 736.831,-396.243 733.349,-406.25 740.349,-406.237"/>
</g>
<!-- ITF&#45;I_pulse_on -->
<g id="node16" class="node"><title>ITF&#45;I_pulse_on</title>
<ellipse fill="yellow" stroke="black" cx="641.447" cy="-450" rx="65.7887" ry="18"/>
<text text-anchor="middle" x="641.447" y="-446.3" font-family="Times,serif" font-size="14.00">ITF&#45;I_pulse_on</text>
</g>
<!-- oneeye&#45;&gt;ITF&#45;I_pulse_on -->
<g id="edge16" class="edge"><title>oneeye&#45;&gt;ITF&#45;I_pulse_on</title>
<path fill="none" stroke="black" d="M527.386,-503.876C549.486,-493.631 577.613,-480.592 600.406,-470.026"/>
<polygon fill="red" stroke="black" points="601.892,-473.194 609.493,-465.813 598.948,-466.844 601.892,-473.194"/>
</g>
<!-- ITF&#45;J_pulse_off -->
<g id="node17" class="node"><title>ITF&#45;J_pulse_off</title>
<ellipse fill="yellow" stroke="black" cx="490.447" cy="-450" rx="67.6881" ry="18"/>
<text text-anchor="middle" x="490.447" y="-446.3" font-family="Times,serif" font-size="14.00">ITF&#45;J_pulse_off</text>
</g>
<!-- oneeye&#45;&gt;ITF&#45;J_pulse_off -->
<g id="edge17" class="edge"><title>oneeye&#45;&gt;ITF&#45;J_pulse_off</title>
<path fill="none" stroke="black" d="M490.447,-503.697C490.447,-495.983 490.447,-486.712 490.447,-478.112"/>
<polygon fill="red" stroke="black" points="493.947,-478.104 490.447,-468.104 486.947,-478.104 493.947,-478.104"/>
</g>
<!-- ITF&#45;N_cc_motor_pwm -->
<g id="node18" class="node"><title>ITF&#45;N_cc_motor_pwm</title>
<ellipse fill="yellow" stroke="black" cx="280.447" cy="-378" rx="93.6835" ry="18"/>
<text text-anchor="middle" x="280.447" y="-374.3" font-family="Times,serif" font-size="14.00">ITF&#45;N_cc_motor_pwm</text>
</g>
<!-- oneeye&#45;&gt;ITF&#45;N_cc_motor_pwm -->
<g id="edge18" class="edge"><title>oneeye&#45;&gt;ITF&#45;N_cc_motor_pwm</title>
<path fill="none" stroke="black" d="M465.116,-503.871C427.128,-478.184 355.389,-429.675 313.382,-401.27"/>
<polygon fill="red" stroke="black" points="315.137,-398.232 304.892,-395.53 311.215,-404.03 315.137,-398.232"/>
</g>
<!-- tobo -->
<g id="node4" class="node"><title>tobo</title>
<polygon fill="blue" stroke="black" points="518.447,-396 462.447,-396 462.447,-360 518.447,-360 518.447,-396"/>
<text text-anchor="middle" x="490.447" y="-372.4" font-family="Times,serif" font-size="22.00">tobo</text>
</g>
<!-- ITF&#45;mET_Transducer -->
<g id="node19" class="node"><title>ITF&#45;mET_Transducer</title>
<ellipse fill="green" stroke="black" cx="306.447" cy="-306" rx="89.0842" ry="18"/>
<text text-anchor="middle" x="306.447" y="-302.3" font-family="Times,serif" font-size="14.00">ITF&#45;mET_Transducer</text>
</g>
<!-- tobo&#45;&gt;ITF&#45;mET_Transducer -->
<g id="edge27" class="edge"><title>tobo&#45;&gt;ITF&#45;mET_Transducer</title>
<path fill="none" stroke="black" d="M462.067,-367.992C432.436,-357.529 385.8,-339.966 351.24,-326.366"/>
<polygon fill="red" stroke="black" points="352.423,-323.07 341.837,-322.645 349.847,-329.579 352.423,-323.07"/>
</g>
<!-- ITF&#45;R_reserved -->
<g id="node20" class="node"><title>ITF&#45;R_reserved</title>
<ellipse fill="yellow" stroke="black" cx="518.447" cy="-306" rx="66.8882" ry="18"/>
<text text-anchor="middle" x="518.447" y="-302.3" font-family="Times,serif" font-size="14.00">ITF&#45;R_reserved</text>
</g>
<!-- tobo&#45;&gt;ITF&#45;R_reserved -->
<g id="edge25" class="edge"><title>tobo&#45;&gt;ITF&#45;R_reserved</title>
<path fill="none" stroke="black" d="M497.368,-359.697C500.522,-351.813 504.325,-342.304 507.828,-333.546"/>
<polygon fill="red" stroke="black" points="511.141,-334.689 511.605,-324.104 504.642,-332.089 511.141,-334.689"/>
</g>
<!-- ITF&#45;mET_SMA -->
<g id="node21" class="node"><title>ITF&#45;mET_SMA</title>
<ellipse fill="green" stroke="black" cx="710.447" cy="-306" rx="68.7879" ry="18"/>
<text text-anchor="middle" x="710.447" y="-302.3" font-family="Times,serif" font-size="14.00">ITF&#45;mET_SMA</text>
</g>
<!-- tobo&#45;&gt;ITF&#45;mET_SMA -->
<g id="edge26" class="edge"><title>tobo&#45;&gt;ITF&#45;mET_SMA</title>
<path fill="none" stroke="black" d="M518.758,-367.992C554.038,-356.766 615.004,-337.368 658.714,-323.461"/>
<polygon fill="red" stroke="black" points="659.848,-326.773 668.316,-320.405 657.726,-320.102 659.848,-326.773"/>
</g>
<!-- cletus -->
<g id="node5" class="node"><title>cletus</title>
<polygon fill="blue" stroke="black" points="282.447,-252 214.447,-252 214.447,-216 282.447,-216 282.447,-252"/>
<text text-anchor="middle" x="248.447" y="-228.4" font-family="Times,serif" font-size="22.00">cletus</text>
</g>
<!-- cletus&#45;&gt;ITF&#45;mET_Transducer -->
<g id="edge35" class="edge"><title>cletus&#45;&gt;ITF&#45;mET_Transducer</title>
<path fill="none" stroke="black" d="M268.674,-252.275C276.457,-260.627 285.087,-270.807 292.221,-279.987"/>
<polygon fill="red" stroke="black" points="289.479,-282.164 298.285,-288.055 295.075,-277.958 289.479,-282.164"/>
</g>
<!-- ITF&#45;mET_Piezo -->
<g id="node22" class="node"><title>ITF&#45;mET_Piezo</title>
<ellipse fill="green" stroke="black" cx="248.447" cy="-162" rx="68.7879" ry="18"/>
<text text-anchor="middle" x="248.447" y="-158.3" font-family="Times,serif" font-size="14.00">ITF&#45;mET_Piezo</text>
</g>
<!-- cletus&#45;&gt;ITF&#45;mET_Piezo -->
<g id="edge34" class="edge"><title>cletus&#45;&gt;ITF&#45;mET_Piezo</title>
<path fill="none" stroke="black" d="M242.531,-215.697C241.736,-207.983 241.509,-198.712 241.852,-190.112"/>
<polygon fill="red" stroke="black" points="245.345,-190.324 242.552,-180.104 238.362,-189.836 245.345,-190.324"/>
</g>
<!-- goblin -->
<g id="node6" class="node"><title>goblin</title>
<polygon fill="blue" stroke="black" points="844.447,-252 770.447,-252 770.447,-216 844.447,-216 844.447,-252"/>
<text text-anchor="middle" x="807.447" y="-228.4" font-family="Times,serif" font-size="22.00">goblin</text>
</g>
<!-- ITF&#45;mEG_SPI -->
<g id="node12" class="node"><title>ITF&#45;mEG_SPI</title>
<ellipse fill="green" stroke="black" cx="450.447" cy="-162" rx="63.0888" ry="18"/>
<text text-anchor="middle" x="450.447" y="-158.3" font-family="Times,serif" font-size="14.00">ITF&#45;mEG_SPI</text>
</g>
<!-- goblin&#45;&gt;ITF&#45;mEG_SPI -->
<g id="edge49" class="edge"><title>goblin&#45;&gt;ITF&#45;mEG_SPI</title>
<path fill="none" stroke="black" d="M770.252,-225.707C708.763,-213.65 585.352,-189.452 511.106,-174.894"/>
<polygon fill="red" stroke="black" points="511.454,-171.396 500.968,-172.906 510.108,-178.265 511.454,-171.396"/>
</g>
<!-- ITF&#45;C_amplified_raw_signal -->
<g id="node24" class="node"><title>ITF&#45;C_amplified_raw_signal</title>
<ellipse fill="yellow" stroke="black" cx="807.447" cy="-162" rx="114.28" ry="18"/>
<text text-anchor="middle" x="807.447" y="-158.3" font-family="Times,serif" font-size="14.00">ITF&#45;C_amplified_raw_signal</text>
</g>
<!-- goblin&#45;&gt;ITF&#45;C_amplified_raw_signal -->
<g id="edge46" class="edge"><title>goblin&#45;&gt;ITF&#45;C_amplified_raw_signal</title>
<path fill="none" stroke="black" d="M801.531,-215.697C800.736,-207.983 800.509,-198.712 800.852,-190.112"/>
<polygon fill="red" stroke="black" points="804.345,-190.324 801.552,-180.104 797.362,-189.836 804.345,-190.324"/>
</g>
<!-- ITF&#45;E_signal_envelope -->
<g id="node25" class="node"><title>ITF&#45;E_signal_envelope</title>
<ellipse fill="yellow" stroke="black" cx="1033.45" cy="-162" rx="93.6835" ry="18"/>
<text text-anchor="middle" x="1033.45" y="-158.3" font-family="Times,serif" font-size="14.00">ITF&#45;E_signal_envelope</text>
</g>
<!-- goblin&#45;&gt;ITF&#45;E_signal_envelope -->
<g id="edge48" class="edge"><title>goblin&#45;&gt;ITF&#45;E_signal_envelope</title>
<path fill="none" stroke="black" d="M844.544,-219.834C879.278,-208.577 931.655,-192.305 972.497,-180.054"/>
<polygon fill="red" stroke="black" points="973.503,-183.407 982.082,-177.19 971.498,-176.7 973.503,-183.407"/>
</g>
<!-- ADL5511 -->
<g id="node27" class="node"><title>ADL5511</title>
<ellipse fill="yellow" stroke="black" cx="628.447" cy="-162" rx="46.2923" ry="18"/>
<text text-anchor="middle" x="628.447" y="-158.3" font-family="Times,serif" font-size="14.00">ADL5511</text>
</g>
<!-- goblin&#45;&gt;ADL5511 -->
<g id="edge47" class="edge"><title>goblin&#45;&gt;ADL5511</title>
<path fill="none" stroke="black" d="M770.358,-218.496C740.882,-206.969 699.695,-190.862 669.281,-178.969"/>
<polygon fill="red" stroke="black" points="670.402,-175.649 659.814,-175.266 667.852,-182.168 670.402,-175.649"/>
</g>
<!-- ITF&#45;mEM_Alimentation -->
<g id="node7" class="node"><title>ITF&#45;mEM_Alimentation</title>
<ellipse fill="green" stroke="black" cx="280.447" cy="-738" rx="98.5829" ry="18"/>
<text text-anchor="middle" x="280.447" y="-734.3" font-family="Times,serif" font-size="14.00">ITF&#45;mEM_Alimentation</text>
</g>
<!-- ITF&#45;mEM_Alimentation&#45;&gt;mogaba -->
<g id="edge1" class="edge"><title>ITF&#45;mEM_Alimentation&#45;&gt;mogaba</title>
<path fill="none" stroke="black" d="M280.447,-719.697C280.447,-711.983 280.447,-702.712 280.447,-694.112"/>
<polygon fill="black" stroke="black" points="283.947,-694.104 280.447,-684.104 276.947,-694.104 283.947,-694.104"/>
</g>
<!-- ITF&#45;F_12V&#45;&gt;mogaba -->
<g id="edge2" class="edge"><title>ITF&#45;F_12V&#45;&gt;mogaba</title>
<path fill="none" stroke="black" d="M189.78,-608.895C207.577,-618.52 230.178,-631.542 248.423,-642.619"/>
<polygon fill="black" stroke="black" points="246.635,-645.628 256.989,-647.876 250.297,-639.662 246.635,-645.628"/>
</g>
<!-- ITF&#45;A_gnd&#45;&gt;croaker -->
<g id="edge7" class="edge"><title>ITF&#45;A_gnd&#45;&gt;croaker</title>
<path fill="none" stroke="black" d="M242.441,-581.901C235.159,-579.868 227.581,-577.817 220.447,-576 150.233,-558.118 113.713,-590.18 61.4469,-540 31.8938,-511.627 37.4469,-491.969 37.4469,-451 37.4469,-451 37.4469,-451 37.4469,-233 37.4469,-191.633 52.6817,-145.722 63.8586,-117.605"/>
<polygon fill="black" stroke="black" points="67.2033,-118.673 67.7571,-108.093 60.7262,-116.019 67.2033,-118.673"/>
</g>
<!-- ITF&#45;A_gnd&#45;&gt;oneeye -->
<g id="edge12" class="edge"><title>ITF&#45;A_gnd&#45;&gt;oneeye</title>
<path fill="none" stroke="black" d="M316.071,-581.125C350.23,-569.739 402.122,-552.442 440.421,-539.675"/>
<polygon fill="black" stroke="black" points="441.961,-542.851 450.341,-536.369 439.747,-536.211 441.961,-542.851"/>
</g>
<!-- ITF&#45;A_gnd&#45;&gt;tobo -->
<g id="edge19" class="edge"><title>ITF&#45;A_gnd&#45;&gt;tobo</title>
<path fill="none" stroke="black" d="M289.199,-576.088C306.181,-544.546 346.289,-475.967 395.447,-432 412.427,-416.813 434.496,-404.171 453.09,-395.048"/>
<polygon fill="black" stroke="black" points="454.645,-398.183 462.175,-390.729 451.64,-391.861 454.645,-398.183"/>
</g>
<!-- ITF&#45;A_gnd&#45;&gt;cletus -->
<g id="edge28" class="edge"><title>ITF&#45;A_gnd&#45;&gt;cletus</title>
<path fill="none" stroke="black" d="M244.029,-581.43C204.185,-568.473 144.942,-548.215 137.447,-540 109.834,-509.736 113.447,-491.969 113.447,-451 113.447,-451 113.447,-451 113.447,-377 113.447,-336.031 111.231,-319.483 137.447,-288 154.605,-267.395 181.635,-254.252 204.725,-246.209"/>
<polygon fill="black" stroke="black" points="205.921,-249.5 214.339,-243.067 203.747,-242.846 205.921,-249.5"/>
</g>
<!-- ITF&#45;A_gnd&#45;&gt;goblin -->
<g id="edge36" class="edge"><title>ITF&#45;A_gnd&#45;&gt;goblin</title>
<path fill="none" stroke="black" d="M284.165,-576.02C288.55,-557.669 296.751,-527.852 308.447,-504 334.176,-451.53 352.728,-445.714 383.447,-396 412.198,-349.471 397.538,-319.221 442.447,-288 492.969,-252.877 673.348,-240.619 760.134,-236.691"/>
<polygon fill="black" stroke="black" points="760.4,-240.182 770.238,-236.252 760.096,-233.189 760.4,-240.182"/>
</g>
<!-- ITF&#45;B_5v&#45;&gt;croaker -->
<g id="edge8" class="edge"><title>ITF&#45;B_5v&#45;&gt;croaker</title>
<path fill="none" stroke="black" d="M360.917,-581.992C354.15,-579.93 347.092,-577.844 340.447,-576 214.968,-541.17 75.4469,-581.223 75.4469,-451 75.4469,-451 75.4469,-451 75.4469,-233 75.4469,-192.996 75.4469,-146.653 75.4469,-118.08"/>
<polygon fill="black" stroke="black" points="78.947,-118.049 75.4469,-108.049 71.947,-118.049 78.947,-118.049"/>
</g>
<!-- ITF&#45;B_5v&#45;&gt;oneeye -->
<g id="edge13" class="edge"><title>ITF&#45;B_5v&#45;&gt;oneeye</title>
<path fill="none" stroke="black" d="M416.061,-577.811C428.533,-568.621 444.694,-556.713 458.765,-546.345"/>
<polygon fill="black" stroke="black" points="461.229,-548.876 467.204,-540.127 457.077,-543.241 461.229,-548.876"/>
</g>
<!-- ITF&#45;B_5v&#45;&gt;tobo -->
<g id="edge20" class="edge"><title>ITF&#45;B_5v&#45;&gt;tobo</title>
<path fill="none" stroke="black" d="M392.944,-575.556C389.373,-544.324 385.988,-477.844 413.447,-432 422.7,-416.55 438.4,-404.536 453.218,-395.882"/>
<polygon fill="black" stroke="black" points="455.176,-398.8 462.265,-390.927 451.813,-392.661 455.176,-398.8"/>
</g>
<!-- ITF&#45;B_5v&#45;&gt;cletus -->
<g id="edge29" class="edge"><title>ITF&#45;B_5v&#45;&gt;cletus</title>
<path fill="none" stroke="black" d="M362.286,-581.45C295.572,-557.195 151.447,-499.216 151.447,-451 151.447,-451 151.447,-451 151.447,-377 151.447,-328.697 190.19,-284.732 218.705,-258.914"/>
<polygon fill="black" stroke="black" points="221.232,-261.353 226.436,-252.125 216.613,-256.094 221.232,-261.353"/>
</g>
<!-- ITF&#45;B_5v&#45;&gt;goblin -->
<g id="edge37" class="edge"><title>ITF&#45;B_5v&#45;&gt;goblin</title>
<path fill="none" stroke="black" d="M440.751,-589.979C536.643,-580.732 757.014,-543.588 826.447,-396 846.969,-352.378 831.524,-295.057 819.055,-261.894"/>
<polygon fill="black" stroke="black" points="822.244,-260.442 815.323,-252.42 815.731,-263.007 822.244,-260.442"/>
</g>
<!-- ITF&#45;S_3_3v&#45;&gt;oneeye -->
<g id="edge14" class="edge"><title>ITF&#45;S_3_3v&#45;&gt;oneeye</title>
<path fill="none" stroke="black" d="M767.486,-583.414C708.281,-570.503 603.173,-547.582 540.84,-533.989"/>
<polygon fill="black" stroke="black" points="541.359,-530.52 530.843,-531.809 539.867,-537.359 541.359,-530.52"/>
</g>
<!-- ITF&#45;S_3_3v&#45;&gt;tobo -->
<g id="edge23" class="edge"><title>ITF&#45;S_3_3v&#45;&gt;tobo</title>
<path fill="none" stroke="black" d="M806.438,-576.064C795.72,-542.903 767.303,-469.395 716.447,-432 686.875,-410.255 584.957,-392.621 528.625,-384.257"/>
<polygon fill="black" stroke="black" points="529.065,-380.784 518.664,-382.804 528.055,-387.711 529.065,-380.784"/>
</g>
<!-- ITF&#45;S_3_3v&#45;&gt;cletus -->
<g id="edge31" class="edge"><title>ITF&#45;S_3_3v&#45;&gt;cletus</title>
<path fill="none" stroke="black" d="M811.542,-575.996C811.106,-557.626 808.816,-527.791 799.447,-504 785.078,-467.513 779.81,-455.54 748.447,-432 709.327,-402.638 680.725,-428.809 644.447,-396 605.216,-360.521 636.727,-319.783 594.447,-288 547.572,-252.763 374.726,-240.533 292.486,-236.648"/>
<polygon fill="black" stroke="black" points="292.596,-233.149 282.448,-236.194 292.28,-240.142 292.596,-233.149"/>
</g>
<!-- ITF&#45;S_3_3v&#45;&gt;goblin -->
<g id="edge38" class="edge"><title>ITF&#45;S_3_3v&#45;&gt;goblin</title>
<path fill="none" stroke="black" d="M864.932,-591.133C1007.43,-584.713 1385.45,-557.635 1385.45,-451 1385.45,-451 1385.45,-451 1385.45,-377 1385.45,-336.553 1396.65,-314.897 1366.45,-288 1328.56,-254.266 982.73,-240.351 854.767,-236.327"/>
<polygon fill="black" stroke="black" points="854.607,-232.821 844.504,-236.011 854.391,-239.817 854.607,-232.821"/>
</g>
<!-- ITF&#45;mEG_SPI&#45;&gt;croaker -->
<g id="edge9" class="edge"><title>ITF&#45;mEG_SPI&#45;&gt;croaker</title>
<path fill="none" stroke="black" d="M399.091,-151.414C327.586,-138.066 198.768,-114.02 127.103,-100.642"/>
<polygon fill="black" stroke="black" points="127.43,-97.1432 116.958,-98.7487 126.146,-104.024 127.43,-97.1432"/>
</g>
<!-- ITF&#45;G_gain_control&#45;&gt;goblin -->
<g id="edge39" class="edge"><title>ITF&#45;G_gain_control&#45;&gt;goblin</title>
<path fill="none" stroke="black" d="M757.043,-360.566C768.066,-351.055 780.741,-338.177 788.447,-324 798.854,-304.853 803.562,-280.502 805.691,-262.114"/>
<polygon fill="black" stroke="black" points="809.185,-262.352 806.671,-252.06 802.218,-261.674 809.185,-262.352"/>
</g>
<!-- ITF&#45;I_pulse_on&#45;&gt;tobo -->
<g id="edge21" class="edge"><title>ITF&#45;I_pulse_on&#45;&gt;tobo</title>
<path fill="none" stroke="black" d="M609.424,-434.155C585.55,-423.087 552.878,-407.942 527.811,-396.321"/>
<polygon fill="black" stroke="black" points="529.156,-393.087 518.611,-392.056 526.211,-399.437 529.156,-393.087"/>
</g>
<!-- ITF&#45;J_pulse_off&#45;&gt;tobo -->
<g id="edge22" class="edge"><title>ITF&#45;J_pulse_off&#45;&gt;tobo</title>
<path fill="none" stroke="black" d="M490.447,-431.697C490.447,-423.983 490.447,-414.712 490.447,-406.112"/>
<polygon fill="black" stroke="black" points="493.947,-406.104 490.447,-396.104 486.947,-406.104 493.947,-406.104"/>
</g>
<!-- ITF&#45;N_cc_motor_pwm&#45;&gt;cletus -->
<g id="edge30" class="edge"><title>ITF&#45;N_cc_motor_pwm&#45;&gt;cletus</title>
<path fill="none" stroke="black" d="M246.688,-361.201C232.116,-352.456 216.571,-340.068 208.447,-324 197.709,-302.762 210.802,-278.031 224.805,-260.037"/>
<polygon fill="black" stroke="black" points="227.544,-262.217 231.22,-252.281 222.149,-257.756 227.544,-262.217"/>
</g>
<!-- ITF&#45;mET_Transducer&#45;&gt;tobo -->
<g id="edge24" class="edge"><title>ITF&#45;mET_Transducer&#45;&gt;tobo</title>
<path fill="none" stroke="black" d="M350.693,-321.696C381.795,-332.984 422.869,-348.581 452.488,-360.334"/>
<polygon fill="black" stroke="black" points="451.478,-363.7 462.063,-364.161 454.076,-357.2 451.478,-363.7"/>
</g>
<!-- ITF&#45;mET_Transducer&#45;&gt;cletus -->
<g id="edge32" class="edge"><title>ITF&#45;mET_Transducer&#45;&gt;cletus</title>
<path fill="none" stroke="black" d="M286.862,-288.411C279.083,-280.115 270.381,-269.891 263.142,-260.615"/>
<polygon fill="black" stroke="black" points="265.792,-258.317 256.972,-252.447 260.206,-262.536 265.792,-258.317"/>
</g>
<!-- ITF&#45;R_reserved&#45;&gt;goblin -->
<g id="edge43" class="edge"><title>ITF&#45;R_reserved&#45;&gt;goblin</title>
<path fill="none" stroke="black" d="M566.494,-293.362C620.325,-280.324 707.022,-259.324 760.429,-246.388"/>
<polygon fill="black" stroke="black" points="761.428,-249.748 770.323,-243.992 759.78,-242.944 761.428,-249.748"/>
</g>
<!-- ITF&#45;mET_SMA&#45;&gt;goblin -->
<g id="edge45" class="edge"><title>ITF&#45;mET_SMA&#45;&gt;goblin</title>
<path fill="none" stroke="black" d="M732.945,-288.765C745.551,-279.667 761.485,-268.168 775.379,-258.142"/>
<polygon fill="black" stroke="black" points="777.657,-260.814 783.718,-252.124 773.561,-255.138 777.657,-260.814"/>
</g>
<!-- ITF&#45;mET_Piezo&#45;&gt;cletus -->
<g id="edge33" class="edge"><title>ITF&#45;mET_Piezo&#45;&gt;cletus</title>
<path fill="none" stroke="black" d="M254.342,-180.104C255.147,-187.791 255.384,-197.054 255.051,-205.665"/>
<polygon fill="black" stroke="black" points="251.555,-205.48 254.363,-215.697 258.539,-205.96 251.555,-205.48"/>
</g>
<!-- ITF&#45;InternalPot1_gain_control -->
<g id="node23" class="node"><title>ITF&#45;InternalPot1_gain_control</title>
<ellipse fill="yellow" stroke="black" cx="992.447" cy="-306" rx="118.879" ry="18"/>
<text text-anchor="middle" x="992.447" y="-302.3" font-family="Times,serif" font-size="14.00">ITF&#45;InternalPot1_gain_control</text>
</g>
<!-- ITF&#45;InternalPot1_gain_control&#45;&gt;goblin -->
<g id="edge40" class="edge"><title>ITF&#45;InternalPot1_gain_control&#45;&gt;goblin</title>
<path fill="none" stroke="black" d="M950.468,-289.116C921.829,-278.28 883.872,-263.917 854.257,-252.712"/>
<polygon fill="black" stroke="black" points="855.151,-249.308 844.559,-249.043 852.674,-255.855 855.151,-249.308"/>
</g>
<!-- ITF&#45;C_amplified_raw_signal&#45;&gt;goblin -->
<g id="edge41" class="edge"><title>ITF&#45;C_amplified_raw_signal&#45;&gt;goblin</title>
<path fill="none" stroke="black" d="M813.342,-180.104C814.147,-187.791 814.384,-197.054 814.051,-205.665"/>
<polygon fill="black" stroke="black" points="810.555,-205.48 813.363,-215.697 817.539,-205.96 810.555,-205.48"/>
</g>
<!-- ITF&#45;E_signal_envelope&#45;&gt;goblin -->
<g id="edge42" class="edge"><title>ITF&#45;E_signal_envelope&#45;&gt;goblin</title>
<path fill="none" stroke="black" d="M990.46,-178.069C951.509,-190.611 894.378,-208.275 854.28,-220.156"/>
<polygon fill="black" stroke="black" points="853.077,-216.861 844.474,-223.045 855.056,-223.576 853.077,-216.861"/>
</g>
<!-- ITF&#45;InternalPot2_ADC_Vref -->
<g id="node26" class="node"><title>ITF&#45;InternalPot2_ADC_Vref</title>
<ellipse fill="yellow" stroke="black" cx="1243.45" cy="-306" rx="113.98" ry="18"/>
<text text-anchor="middle" x="1243.45" y="-302.3" font-family="Times,serif" font-size="14.00">ITF&#45;InternalPot2_ADC_Vref</text>
</g>
<!-- ITF&#45;InternalPot2_ADC_Vref&#45;&gt;goblin -->
<g id="edge44" class="edge"><title>ITF&#45;InternalPot2_ADC_Vref&#45;&gt;goblin</title>
<path fill="none" stroke="black" d="M1166.75,-292.687C1076.56,-278.205 929.65,-254.62 854.691,-242.585"/>
<polygon fill="black" stroke="black" points="855.034,-239.095 844.605,-240.966 853.924,-246.007 855.034,-239.095"/>
</g>
</g>
</svg>
