<?xml version="1.0" encoding="UTF-8" standalone="no"?>
<!DOCTYPE svg PUBLIC "-//W3C//DTD SVG 1.1//EN"
 "http://www.w3.org/Graphics/SVG/1.1/DTD/svg11.dtd">
<!-- Generated by graphviz version 2.38.0 (20140413.2041)
 -->
<!-- Title: %3 Pages: 1 -->
<svg width="873pt" height="764pt"
 viewBox="0.00 0.00 873.08 764.00" xmlns="http://www.w3.org/2000/svg" xmlns:xlink="http://www.w3.org/1999/xlink">
<g id="graph0" class="graph" transform="scale(1 1) rotate(0) translate(4 760)">
<title>%3</title>
<polygon fill="white" stroke="none" points="-4,4 -4,-760 869.08,-760 869.08,4 -4,4"/>
<!-- mogaba -->
<g id="node1" class="node"><title>mogaba</title>
<polygon fill="blue" stroke="black" points="214.845,-684 127.845,-684 127.845,-648 214.845,-648 214.845,-684"/>
<text text-anchor="middle" x="171.345" y="-660.4" font-family="Times,serif" font-size="22.00">mogaba</text>
</g>
<!-- ITF&#45;F_12V -->
<g id="node8" class="node"><title>ITF&#45;F_12V</title>
<ellipse fill="yellow" stroke="black" cx="51.3454" cy="-594" rx="51.1914" ry="18"/>
<text text-anchor="middle" x="51.3454" y="-590.3" font-family="Times,serif" font-size="14.00">ITF&#45;F_12V</text>
</g>
<!-- mogaba&#45;&gt;ITF&#45;F_12V -->
<g id="edge5" class="edge"><title>mogaba&#45;&gt;ITF&#45;F_12V</title>
<path fill="none" stroke="black" d="M136.093,-647.876C118.576,-638.245 97.7199,-626.147 81.0238,-615.953"/>
<polygon fill="red" stroke="black" points="82.5703,-612.795 72.2237,-610.514 78.89,-618.749 82.5703,-612.795"/>
</g>
<!-- ITF&#45;A_gnd -->
<g id="node9" class="node"><title>ITF&#45;A_gnd</title>
<ellipse fill="yellow" stroke="black" cx="171.345" cy="-594" rx="50.8918" ry="18"/>
<text text-anchor="middle" x="171.345" y="-590.3" font-family="Times,serif" font-size="14.00">ITF&#45;A_gnd</text>
</g>
<!-- mogaba&#45;&gt;ITF&#45;A_gnd -->
<g id="edge3" class="edge"><title>mogaba&#45;&gt;ITF&#45;A_gnd</title>
<path fill="none" stroke="black" d="M171.345,-647.697C171.345,-639.983 171.345,-630.712 171.345,-622.112"/>
<polygon fill="red" stroke="black" points="174.846,-622.104 171.345,-612.104 167.846,-622.104 174.846,-622.104"/>
</g>
<!-- ITF&#45;B_5v -->
<g id="node10" class="node"><title>ITF&#45;B_5v</title>
<ellipse fill="yellow" stroke="black" cx="741.345" cy="-594" rx="46.2923" ry="18"/>
<text text-anchor="middle" x="741.345" y="-590.3" font-family="Times,serif" font-size="14.00">ITF&#45;B_5v</text>
</g>
<!-- mogaba&#45;&gt;ITF&#45;B_5v -->
<g id="edge4" class="edge"><title>mogaba&#45;&gt;ITF&#45;B_5v</title>
<path fill="none" stroke="black" d="M215.126,-659.623C318.141,-646.973 575.6,-615.355 687.738,-601.583"/>
<polygon fill="red" stroke="black" points="688.308,-605.04 697.807,-600.347 687.455,-598.092 688.308,-605.04"/>
</g>
<!-- ITF&#45;S_3_3v -->
<g id="node11" class="node"><title>ITF&#45;S_3_3v</title>
<ellipse fill="yellow" stroke="black" cx="294.345" cy="-594" rx="53.8905" ry="18"/>
<text text-anchor="middle" x="294.345" y="-590.3" font-family="Times,serif" font-size="14.00">ITF&#45;S_3_3v</text>
</g>
<!-- mogaba&#45;&gt;ITF&#45;S_3_3v -->
<g id="edge6" class="edge"><title>mogaba&#45;&gt;ITF&#45;S_3_3v</title>
<path fill="none" stroke="black" d="M201.435,-647.876C218.957,-637.904 241.13,-625.285 259.42,-614.876"/>
<polygon fill="red" stroke="black" points="261.357,-617.801 268.317,-609.813 257.894,-611.717 261.357,-617.801"/>
</g>
<!-- croaker -->
<g id="node2" class="node"><title>croaker</title>
<polygon fill="blue" stroke="black" points="814.845,-108 731.845,-108 731.845,-72 814.845,-72 814.845,-108"/>
<text text-anchor="middle" x="773.345" y="-84.4" font-family="Times,serif" font-size="22.00">croaker</text>
</g>
<!-- Screen -->
<g id="node13" class="node"><title>Screen</title>
<ellipse fill="yellow" stroke="black" cx="732.345" cy="-18" rx="34.394" ry="18"/>
<text text-anchor="middle" x="732.345" y="-14.3" font-family="Times,serif" font-size="14.00">Screen</text>
</g>
<!-- croaker&#45;&gt;Screen -->
<g id="edge10" class="edge"><title>croaker&#45;&gt;Screen</title>
<path fill="none" stroke="black" d="M763.211,-71.6966C758.373,-63.4374 752.491,-53.394 747.164,-44.2994"/>
<polygon fill="red" stroke="black" points="750.156,-42.4822 742.081,-35.6223 744.115,-46.0201 750.156,-42.4822"/>
</g>
<!-- WiFi -->
<g id="node14" class="node"><title>WiFi</title>
<ellipse fill="yellow" stroke="black" cx="814.345" cy="-18" rx="29.4969" ry="18"/>
<text text-anchor="middle" x="814.345" y="-14.3" font-family="Times,serif" font-size="14.00">WiFi</text>
</g>
<!-- croaker&#45;&gt;WiFi -->
<g id="edge11" class="edge"><title>croaker&#45;&gt;WiFi</title>
<path fill="none" stroke="black" d="M783.48,-71.6966C788.389,-63.316 794.374,-53.0983 799.762,-43.8988"/>
<polygon fill="red" stroke="black" points="802.855,-45.5423 804.889,-35.1446 796.815,-42.0045 802.855,-45.5423"/>
</g>
<!-- oneeye -->
<g id="node3" class="node"><title>oneeye</title>
<polygon fill="blue" stroke="black" points="428.345,-540 348.345,-540 348.345,-504 428.345,-504 428.345,-540"/>
<text text-anchor="middle" x="388.345" y="-516.4" font-family="Times,serif" font-size="22.00">oneeye</text>
</g>
<!-- ITF&#45;G_gain_control -->
<g id="node15" class="node"><title>ITF&#45;G_gain_control</title>
<ellipse fill="yellow" stroke="black" cx="612.345" cy="-378" rx="81.7856" ry="18"/>
<text text-anchor="middle" x="612.345" y="-374.3" font-family="Times,serif" font-size="14.00">ITF&#45;G_gain_control</text>
</g>
<!-- oneeye&#45;&gt;ITF&#45;G_gain_control -->
<g id="edge15" class="edge"><title>oneeye&#45;&gt;ITF&#45;G_gain_control</title>
<path fill="none" stroke="black" d="M428.719,-517.534C487.81,-511.53 593.346,-496.959 616.345,-468 630.044,-450.752 627.264,-425.153 622.101,-405.831"/>
<polygon fill="red" stroke="black" points="625.406,-404.67 619.167,-396.106 618.704,-406.691 625.406,-404.67"/>
</g>
<!-- ITF&#45;I_pulse_on -->
<g id="node16" class="node"><title>ITF&#45;I_pulse_on</title>
<ellipse fill="yellow" stroke="black" cx="388.345" cy="-450" rx="65.7887" ry="18"/>
<text text-anchor="middle" x="388.345" y="-446.3" font-family="Times,serif" font-size="14.00">ITF&#45;I_pulse_on</text>
</g>
<!-- oneeye&#45;&gt;ITF&#45;I_pulse_on -->
<g id="edge16" class="edge"><title>oneeye&#45;&gt;ITF&#45;I_pulse_on</title>
<path fill="none" stroke="black" d="M388.345,-503.697C388.345,-495.983 388.345,-486.712 388.345,-478.112"/>
<polygon fill="red" stroke="black" points="391.846,-478.104 388.345,-468.104 384.846,-478.104 391.846,-478.104"/>
</g>
<!-- ITF&#45;J_pulse_off -->
<g id="node17" class="node"><title>ITF&#45;J_pulse_off</title>
<ellipse fill="yellow" stroke="black" cx="539.345" cy="-450" rx="67.6881" ry="18"/>
<text text-anchor="middle" x="539.345" y="-446.3" font-family="Times,serif" font-size="14.00">ITF&#45;J_pulse_off</text>
</g>
<!-- oneeye&#45;&gt;ITF&#45;J_pulse_off -->
<g id="edge17" class="edge"><title>oneeye&#45;&gt;ITF&#45;J_pulse_off</title>
<path fill="none" stroke="black" d="M425.284,-503.876C447.308,-493.666 475.316,-480.682 498.066,-470.136"/>
<polygon fill="red" stroke="black" points="499.54,-473.31 507.141,-465.929 496.596,-466.96 499.54,-473.31"/>
</g>
<!-- ITF&#45;N_cc_motor_pwm -->
<g id="node18" class="node"><title>ITF&#45;N_cc_motor_pwm</title>
<ellipse fill="yellow" stroke="black" cx="256.345" cy="-378" rx="93.6835" ry="18"/>
<text text-anchor="middle" x="256.345" y="-374.3" font-family="Times,serif" font-size="14.00">ITF&#45;N_cc_motor_pwm</text>
</g>
<!-- oneeye&#45;&gt;ITF&#45;N_cc_motor_pwm -->
<g id="edge18" class="edge"><title>oneeye&#45;&gt;ITF&#45;N_cc_motor_pwm</title>
<path fill="none" stroke="black" d="M358.891,-503.965C344.157,-494.552 326.673,-481.949 313.345,-468 295.345,-449.16 279.775,-423.836 269.479,-405.018"/>
<polygon fill="red" stroke="black" points="272.518,-403.278 264.725,-396.1 266.34,-406.571 272.518,-403.278"/>
</g>
<!-- tobo -->
<g id="node4" class="node"><title>tobo</title>
<polygon fill="blue" stroke="black" points="424.345,-396 368.345,-396 368.345,-360 424.345,-360 424.345,-396"/>
<text text-anchor="middle" x="396.345" y="-372.4" font-family="Times,serif" font-size="22.00">tobo</text>
</g>
<!-- ITF&#45;mET_Transducer -->
<g id="node19" class="node"><title>ITF&#45;mET_Transducer</title>
<ellipse fill="green" stroke="black" cx="240.345" cy="-306" rx="89.0842" ry="18"/>
<text text-anchor="middle" x="240.345" y="-302.3" font-family="Times,serif" font-size="14.00">ITF&#45;mET_Transducer</text>
</g>
<!-- tobo&#45;&gt;ITF&#45;mET_Transducer -->
<g id="edge27" class="edge"><title>tobo&#45;&gt;ITF&#45;mET_Transducer</title>
<path fill="none" stroke="black" d="M368.144,-367.958C362.157,-365.374 356.013,-362.564 350.345,-360 326.401,-349.168 299.675,-337.249 278.468,-327.462"/>
<polygon fill="red" stroke="black" points="279.686,-324.169 269.143,-323.127 276.736,-330.516 279.686,-324.169"/>
</g>
<!-- ITF&#45;R_reserved -->
<g id="node20" class="node"><title>ITF&#45;R_reserved</title>
<ellipse fill="yellow" stroke="black" cx="608.345" cy="-306" rx="66.8882" ry="18"/>
<text text-anchor="middle" x="608.345" y="-302.3" font-family="Times,serif" font-size="14.00">ITF&#45;R_reserved</text>
</g>
<!-- tobo&#45;&gt;ITF&#45;R_reserved -->
<g id="edge25" class="edge"><title>tobo&#45;&gt;ITF&#45;R_reserved</title>
<path fill="none" stroke="black" d="M424.497,-367.705C458.491,-356.48 516.289,-337.396 558.017,-323.618"/>
<polygon fill="red" stroke="black" points="559.324,-326.872 567.723,-320.413 557.129,-320.225 559.324,-326.872"/>
</g>
<!-- ITF&#45;mET_SMA -->
<g id="node21" class="node"><title>ITF&#45;mET_SMA</title>
<ellipse fill="green" stroke="black" cx="454.345" cy="-306" rx="68.7879" ry="18"/>
<text text-anchor="middle" x="454.345" y="-302.3" font-family="Times,serif" font-size="14.00">ITF&#45;mET_SMA</text>
</g>
<!-- tobo&#45;&gt;ITF&#45;mET_SMA -->
<g id="edge26" class="edge"><title>tobo&#45;&gt;ITF&#45;mET_SMA</title>
<path fill="none" stroke="black" d="M410.683,-359.697C417.636,-351.305 426.116,-341.07 433.746,-331.861"/>
<polygon fill="red" stroke="black" points="436.488,-334.038 440.173,-324.104 431.098,-329.571 436.488,-334.038"/>
</g>
<!-- cletus -->
<g id="node5" class="node"><title>cletus</title>
<polygon fill="blue" stroke="black" points="181.345,-252 113.345,-252 113.345,-216 181.345,-216 181.345,-252"/>
<text text-anchor="middle" x="147.345" y="-228.4" font-family="Times,serif" font-size="22.00">cletus</text>
</g>
<!-- cletus&#45;&gt;ITF&#45;mET_Transducer -->
<g id="edge35" class="edge"><title>cletus&#45;&gt;ITF&#45;mET_Transducer</title>
<path fill="none" stroke="black" d="M175.861,-252.032C188.609,-260.922 203.413,-271.934 215.68,-281.611"/>
<polygon fill="red" stroke="black" points="213.721,-284.527 223.711,-288.055 218.102,-279.067 213.721,-284.527"/>
</g>
<!-- ITF&#45;mET_Piezo -->
<g id="node22" class="node"><title>ITF&#45;mET_Piezo</title>
<ellipse fill="green" stroke="black" cx="147.345" cy="-162" rx="68.7879" ry="18"/>
<text text-anchor="middle" x="147.345" y="-158.3" font-family="Times,serif" font-size="14.00">ITF&#45;mET_Piezo</text>
</g>
<!-- cletus&#45;&gt;ITF&#45;mET_Piezo -->
<g id="edge34" class="edge"><title>cletus&#45;&gt;ITF&#45;mET_Piezo</title>
<path fill="none" stroke="black" d="M141.43,-215.697C140.634,-207.983 140.408,-198.712 140.75,-190.112"/>
<polygon fill="red" stroke="black" points="144.244,-190.324 141.45,-180.104 137.261,-189.836 144.244,-190.324"/>
</g>
<!-- goblin -->
<g id="node6" class="node"><title>goblin</title>
<polygon fill="blue" stroke="black" points="635.345,-252 561.345,-252 561.345,-216 635.345,-216 635.345,-252"/>
<text text-anchor="middle" x="598.345" y="-228.4" font-family="Times,serif" font-size="22.00">goblin</text>
</g>
<!-- ITF&#45;mEG_SPI -->
<g id="node12" class="node"><title>ITF&#45;mEG_SPI</title>
<ellipse fill="green" stroke="black" cx="773.345" cy="-162" rx="63.0888" ry="18"/>
<text text-anchor="middle" x="773.345" y="-158.3" font-family="Times,serif" font-size="14.00">ITF&#45;mEG_SPI</text>
</g>
<!-- goblin&#45;&gt;ITF&#45;mEG_SPI -->
<g id="edge46" class="edge"><title>goblin&#45;&gt;ITF&#45;mEG_SPI</title>
<path fill="none" stroke="black" d="M635.458,-218.155C662.771,-207.23 700.02,-192.33 728.918,-180.771"/>
<polygon fill="red" stroke="black" points="730.387,-183.953 738.372,-176.989 727.787,-177.454 730.387,-183.953"/>
</g>
<!-- ITF&#45;C_amplified_raw_signal -->
<g id="node23" class="node"><title>ITF&#45;C_amplified_raw_signal</title>
<ellipse fill="yellow" stroke="black" cx="372.345" cy="-162" rx="114.28" ry="18"/>
<text text-anchor="middle" x="372.345" y="-158.3" font-family="Times,serif" font-size="14.00">ITF&#45;C_amplified_raw_signal</text>
</g>
<!-- goblin&#45;&gt;ITF&#45;C_amplified_raw_signal -->
<g id="edge44" class="edge"><title>goblin&#45;&gt;ITF&#45;C_amplified_raw_signal</title>
<path fill="none" stroke="black" d="M561.318,-223.045C524.681,-212.317 468.373,-194.997 426.696,-181.709"/>
<polygon fill="red" stroke="black" points="427.564,-178.312 416.973,-178.597 425.43,-184.979 427.564,-178.312"/>
</g>
<!-- ITF&#45;E_signal_envelope -->
<g id="node24" class="node"><title>ITF&#45;E_signal_envelope</title>
<ellipse fill="yellow" stroke="black" cx="598.345" cy="-162" rx="93.6835" ry="18"/>
<text text-anchor="middle" x="598.345" y="-158.3" font-family="Times,serif" font-size="14.00">ITF&#45;E_signal_envelope</text>
</g>
<!-- goblin&#45;&gt;ITF&#45;E_signal_envelope -->
<g id="edge45" class="edge"><title>goblin&#45;&gt;ITF&#45;E_signal_envelope</title>
<path fill="none" stroke="black" d="M592.43,-215.697C591.634,-207.983 591.408,-198.712 591.75,-190.112"/>
<polygon fill="red" stroke="black" points="595.244,-190.324 592.45,-180.104 588.261,-189.836 595.244,-190.324"/>
</g>
<!-- ITF&#45;mEM_Alimentation -->
<g id="node7" class="node"><title>ITF&#45;mEM_Alimentation</title>
<ellipse fill="green" stroke="black" cx="171.345" cy="-738" rx="98.5829" ry="18"/>
<text text-anchor="middle" x="171.345" y="-734.3" font-family="Times,serif" font-size="14.00">ITF&#45;mEM_Alimentation</text>
</g>
<!-- ITF&#45;mEM_Alimentation&#45;&gt;mogaba -->
<g id="edge1" class="edge"><title>ITF&#45;mEM_Alimentation&#45;&gt;mogaba</title>
<path fill="none" stroke="black" d="M171.345,-719.697C171.345,-711.983 171.345,-702.712 171.345,-694.112"/>
<polygon fill="black" stroke="black" points="174.846,-694.104 171.345,-684.104 167.846,-694.104 174.846,-694.104"/>
</g>
<!-- ITF&#45;F_12V&#45;&gt;mogaba -->
<g id="edge2" class="edge"><title>ITF&#45;F_12V&#45;&gt;mogaba</title>
<path fill="none" stroke="black" d="M80.6782,-608.895C98.4751,-618.52 121.077,-631.542 139.321,-642.619"/>
<polygon fill="black" stroke="black" points="137.534,-645.628 147.887,-647.876 141.195,-639.662 137.534,-645.628"/>
</g>
<!-- ITF&#45;A_gnd&#45;&gt;croaker -->
<g id="edge7" class="edge"><title>ITF&#45;A_gnd&#45;&gt;croaker</title>
<path fill="none" stroke="black" d="M131.933,-582.539C107.199,-574.326 76.0024,-560.749 54.3454,-540 22.3401,-509.336 9.34544,-495.324 9.34544,-451 9.34544,-451 9.34544,-451 9.34544,-233 9.34544,-185.295 28.0984,-167.967 69.3454,-144 125.352,-111.456 568.899,-96.5197 721.771,-92.3025"/>
<polygon fill="black" stroke="black" points="721.939,-95.7993 731.84,-92.0287 721.749,-88.8019 721.939,-95.7993"/>
</g>
<!-- ITF&#45;A_gnd&#45;&gt;oneeye -->
<g id="edge12" class="edge"><title>ITF&#45;A_gnd&#45;&gt;oneeye</title>
<path fill="none" stroke="black" d="M207.666,-581.284C243.557,-569.706 298.734,-551.907 338.67,-539.024"/>
<polygon fill="black" stroke="black" points="339.776,-542.345 348.218,-535.944 337.627,-535.683 339.776,-542.345"/>
</g>
<!-- ITF&#45;A_gnd&#45;&gt;tobo -->
<g id="edge19" class="edge"><title>ITF&#45;A_gnd&#45;&gt;tobo</title>
<path fill="none" stroke="black" d="M180.997,-576.015C199.666,-544.353 243.487,-475.58 295.345,-432 305.851,-423.171 334.587,-408.367 358.733,-396.645"/>
<polygon fill="black" stroke="black" points="360.559,-399.651 368.053,-392.161 357.524,-393.343 360.559,-399.651"/>
</g>
<!-- ITF&#45;A_gnd&#45;&gt;cletus -->
<g id="edge28" class="edge"><title>ITF&#45;A_gnd&#45;&gt;cletus</title>
<path fill="none" stroke="black" d="M138.888,-580.07C120.195,-571.207 97.4811,-557.818 82.3454,-540 54.8276,-507.606 47.3454,-493.504 47.3454,-451 47.3454,-451 47.3454,-451 47.3454,-377 47.3454,-336.031 47.7881,-321.518 71.3454,-288 79.9881,-275.703 92.4463,-265.322 104.783,-257.097"/>
<polygon fill="black" stroke="black" points="106.668,-260.046 113.257,-251.749 102.932,-254.126 106.668,-260.046"/>
</g>
<!-- ITF&#45;A_gnd&#45;&gt;goblin -->
<g id="edge36" class="edge"><title>ITF&#45;A_gnd&#45;&gt;goblin</title>
<path fill="none" stroke="black" d="M162.903,-575.971C143.391,-533.905 100.706,-423.87 153.345,-360 206.62,-295.36 263.865,-362.33 338.345,-324 359.031,-313.354 355.889,-299.079 376.345,-288 431.899,-257.912 504.368,-244.744 551.132,-239.091"/>
<polygon fill="black" stroke="black" points="551.744,-242.544 561.282,-237.933 550.95,-235.589 551.744,-242.544"/>
</g>
<!-- ITF&#45;B_5v&#45;&gt;croaker -->
<g id="edge8" class="edge"><title>ITF&#45;B_5v&#45;&gt;croaker</title>
<path fill="none" stroke="black" d="M766.831,-578.778C802.859,-556.575 864.345,-510.034 864.345,-451 864.345,-451 864.345,-451 864.345,-233 864.345,-192.553 867.284,-177.98 845.345,-144 837.623,-132.038 826.189,-121.843 814.696,-113.685"/>
<polygon fill="black" stroke="black" points="816.626,-110.765 806.369,-108.109 812.731,-116.581 816.626,-110.765"/>
</g>
<!-- ITF&#45;B_5v&#45;&gt;oneeye -->
<g id="edge13" class="edge"><title>ITF&#45;B_5v&#45;&gt;oneeye</title>
<path fill="none" stroke="black" d="M701.196,-585.038C636.435,-572.196 509.058,-546.937 438.449,-532.936"/>
<polygon fill="black" stroke="black" points="438.948,-529.466 428.458,-530.954 437.586,-536.333 438.948,-529.466"/>
</g>
<!-- ITF&#45;B_5v&#45;&gt;tobo -->
<g id="edge20" class="edge"><title>ITF&#45;B_5v&#45;&gt;tobo</title>
<path fill="none" stroke="black" d="M733.179,-576.055C716.279,-542.879 674.161,-469.345 616.345,-432 586.505,-412.725 489.037,-394.234 434.38,-385.038"/>
<polygon fill="black" stroke="black" points="434.813,-381.562 424.375,-383.378 433.668,-388.468 434.813,-381.562"/>
</g>
<!-- ITF&#45;B_5v&#45;&gt;cletus -->
<g id="edge29" class="edge"><title>ITF&#45;B_5v&#45;&gt;cletus</title>
<path fill="none" stroke="black" d="M744.515,-576.004C753.234,-523.381 771.484,-362.231 684.345,-288 647.143,-256.308 313.803,-241.068 191.813,-236.515"/>
<polygon fill="black" stroke="black" points="191.819,-233.013 181.698,-236.144 191.563,-240.009 191.819,-233.013"/>
</g>
<!-- ITF&#45;B_5v&#45;&gt;goblin -->
<g id="edge37" class="edge"><title>ITF&#45;B_5v&#45;&gt;goblin</title>
<path fill="none" stroke="black" d="M756.725,-577.021C778.933,-552.192 817.345,-501.89 817.345,-451 817.345,-451 817.345,-451 817.345,-377 817.345,-336.031 822.286,-316.998 793.345,-288 754.457,-249.034 689.976,-237.924 645.889,-235.161"/>
<polygon fill="black" stroke="black" points="645.866,-231.656 635.702,-234.648 645.513,-238.647 645.866,-231.656"/>
</g>
<!-- ITF&#45;S_3_3v&#45;&gt;oneeye -->
<g id="edge14" class="edge"><title>ITF&#45;S_3_3v&#45;&gt;oneeye</title>
<path fill="none" stroke="black" d="M315.675,-577.116C327.967,-567.963 343.636,-556.294 357.276,-546.137"/>
<polygon fill="black" stroke="black" points="359.528,-548.824 365.458,-540.044 355.347,-543.21 359.528,-548.824"/>
</g>
<!-- ITF&#45;S_3_3v&#45;&gt;tobo -->
<g id="edge23" class="edge"><title>ITF&#45;S_3_3v&#45;&gt;tobo</title>
<path fill="none" stroke="black" d="M291.875,-575.942C288.268,-544.751 284.791,-477.547 313.345,-432 319.147,-422.746 339.832,-409.528 359.099,-398.607"/>
<polygon fill="black" stroke="black" points="361.04,-401.533 368.081,-393.616 357.64,-395.414 361.04,-401.533"/>
</g>
<!-- ITF&#45;S_3_3v&#45;&gt;cletus -->
<g id="edge31" class="edge"><title>ITF&#45;S_3_3v&#45;&gt;cletus</title>
<path fill="none" stroke="black" d="M279.765,-576.513C251.729,-544.066 189.855,-468.736 153.345,-396 131.33,-352.139 122.76,-336.487 130.345,-288 131.705,-279.312 134.246,-270.104 136.956,-261.843"/>
<polygon fill="black" stroke="black" points="140.284,-262.93 140.279,-252.335 133.676,-260.62 140.284,-262.93"/>
</g>
<!-- ITF&#45;S_3_3v&#45;&gt;goblin -->
<g id="edge38" class="edge"><title>ITF&#45;S_3_3v&#45;&gt;goblin</title>
<path fill="none" stroke="black" d="M346.253,-588.761C443.22,-577.541 647.148,-537.35 703.345,-396 709.804,-379.755 711.156,-303.591 701.345,-288 688.713,-267.926 665.86,-255.099 644.884,-247.103"/>
<polygon fill="black" stroke="black" points="646.016,-243.791 635.422,-243.76 643.685,-250.391 646.016,-243.791"/>
</g>
<!-- ITF&#45;mEG_SPI&#45;&gt;croaker -->
<g id="edge9" class="edge"><title>ITF&#45;mEG_SPI&#45;&gt;croaker</title>
<path fill="none" stroke="black" d="M773.345,-143.697C773.345,-135.983 773.345,-126.712 773.345,-118.112"/>
<polygon fill="black" stroke="black" points="776.846,-118.104 773.345,-108.104 769.846,-118.104 776.846,-118.104"/>
</g>
<!-- ITF&#45;G_gain_control&#45;&gt;goblin -->
<g id="edge39" class="edge"><title>ITF&#45;G_gain_control&#45;&gt;goblin</title>
<path fill="none" stroke="black" d="M645.727,-361.426C660.408,-352.67 676.151,-340.206 684.345,-324 691.565,-309.721 692.146,-301.97 684.345,-288 675.554,-272.255 659.952,-260.608 644.427,-252.307"/>
<polygon fill="black" stroke="black" points="645.861,-249.112 635.348,-247.801 642.749,-255.382 645.861,-249.112"/>
</g>
<!-- ITF&#45;I_pulse_on&#45;&gt;tobo -->
<g id="edge21" class="edge"><title>ITF&#45;I_pulse_on&#45;&gt;tobo</title>
<path fill="none" stroke="black" d="M390.323,-431.697C391.205,-423.983 392.264,-414.712 393.247,-406.112"/>
<polygon fill="black" stroke="black" points="396.732,-406.437 394.391,-396.104 389.778,-405.642 396.732,-406.437"/>
</g>
<!-- ITF&#45;J_pulse_off&#45;&gt;tobo -->
<g id="edge22" class="edge"><title>ITF&#45;J_pulse_off&#45;&gt;tobo</title>
<path fill="none" stroke="black" d="M508.317,-433.811C486.369,-423.067 456.835,-408.61 433.61,-397.241"/>
<polygon fill="black" stroke="black" points="434.926,-393.989 424.406,-392.736 431.849,-400.276 434.926,-393.989"/>
</g>
<!-- ITF&#45;N_cc_motor_pwm&#45;&gt;cletus -->
<g id="edge30" class="edge"><title>ITF&#45;N_cc_motor_pwm&#45;&gt;cletus</title>
<path fill="none" stroke="black" d="M197.909,-363.936C176.676,-356.062 154.846,-343.597 142.345,-324 130.689,-305.726 133.284,-280.807 138.025,-261.984"/>
<polygon fill="black" stroke="black" points="141.429,-262.811 140.803,-252.235 134.697,-260.893 141.429,-262.811"/>
</g>
<!-- ITF&#45;mET_Transducer&#45;&gt;tobo -->
<g id="edge24" class="edge"><title>ITF&#45;mET_Transducer&#45;&gt;tobo</title>
<path fill="none" stroke="black" d="M281.806,-321.973C304.416,-331.417 332.904,-344.025 359.441,-355.98"/>
<polygon fill="black" stroke="black" points="358.178,-359.25 368.733,-360.175 361.059,-352.87 358.178,-359.25"/>
</g>
<!-- ITF&#45;mET_Transducer&#45;&gt;cletus -->
<g id="edge32" class="edge"><title>ITF&#45;mET_Transducer&#45;&gt;cletus</title>
<path fill="none" stroke="black" d="M212.975,-288.765C199.991,-279.753 184.685,-268.385 172.058,-258.426"/>
<polygon fill="black" stroke="black" points="174.19,-255.649 164.199,-252.124 169.811,-261.11 174.19,-255.649"/>
</g>
<!-- ITF&#45;R_reserved&#45;&gt;goblin -->
<g id="edge42" class="edge"><title>ITF&#45;R_reserved&#45;&gt;goblin</title>
<path fill="none" stroke="black" d="M605.874,-287.697C604.772,-279.983 603.447,-270.712 602.219,-262.112"/>
<polygon fill="black" stroke="black" points="605.668,-261.509 600.789,-252.104 598.738,-262.499 605.668,-261.509"/>
</g>
<!-- ITF&#45;mET_SMA&#45;&gt;goblin -->
<g id="edge43" class="edge"><title>ITF&#45;mET_SMA&#45;&gt;goblin</title>
<path fill="none" stroke="black" d="M485.591,-289.811C505.64,-280.065 531.975,-267.263 554.152,-256.483"/>
<polygon fill="black" stroke="black" points="555.907,-259.521 563.371,-252.002 552.847,-253.226 555.907,-259.521"/>
</g>
<!-- ITF&#45;mET_Piezo&#45;&gt;cletus -->
<g id="edge33" class="edge"><title>ITF&#45;mET_Piezo&#45;&gt;cletus</title>
<path fill="none" stroke="black" d="M153.24,-180.104C154.046,-187.791 154.282,-197.054 153.949,-205.665"/>
<polygon fill="black" stroke="black" points="150.454,-205.48 153.261,-215.697 157.438,-205.96 150.454,-205.48"/>
</g>
<!-- ITF&#45;C_amplified_raw_signal&#45;&gt;goblin -->
<g id="edge40" class="edge"><title>ITF&#45;C_amplified_raw_signal&#45;&gt;goblin</title>
<path fill="none" stroke="black" d="M426.186,-177.928C464.306,-189.297 514.85,-204.935 551.348,-216.642"/>
<polygon fill="black" stroke="black" points="550.656,-220.097 561.248,-219.834 552.804,-213.434 550.656,-220.097"/>
</g>
<!-- ITF&#45;E_signal_envelope&#45;&gt;goblin -->
<g id="edge41" class="edge"><title>ITF&#45;E_signal_envelope&#45;&gt;goblin</title>
<path fill="none" stroke="black" d="M604.24,-180.104C605.046,-187.791 605.282,-197.054 604.949,-205.665"/>
<polygon fill="black" stroke="black" points="601.454,-205.48 604.261,-215.697 608.438,-205.96 601.454,-205.48"/>
</g>
</g>
</svg>
