<?xml version="1.0" encoding="UTF-8" standalone="no"?>
<!DOCTYPE svg PUBLIC "-//W3C//DTD SVG 1.1//EN"
 "http://www.w3.org/Graphics/SVG/1.1/DTD/svg11.dtd">
<!-- Generated by graphviz version 2.38.0 (20140413.2041)
 -->
<!-- Title: %3 Pages: 1 -->
<svg width="2530pt" height="548pt"
 viewBox="0.00 0.00 2529.79 548.00" xmlns="http://www.w3.org/2000/svg" xmlns:xlink="http://www.w3.org/1999/xlink">
<g id="graph0" class="graph" transform="scale(1 1) rotate(0) translate(4 544)">
<title>%3</title>
<polygon fill="white" stroke="none" points="-4,4 -4,-544 2525.79,-544 2525.79,4 -4,4"/>
<!-- mogaba -->
<g id="node1" class="node"><title>mogaba</title>
<polygon fill="blue" stroke="black" points="310.291,-468 223.291,-468 223.291,-432 310.291,-432 310.291,-468"/>
<text text-anchor="middle" x="266.791" y="-444.4" font-family="Times,serif" font-size="22.00">mogaba</text>
</g>
<!-- ITF&#45;S_3_3v -->
<g id="node6" class="node"><title>ITF&#45;S_3_3v</title>
<ellipse fill="yellow" stroke="black" cx="312.791" cy="-378" rx="53.8905" ry="18"/>
<text text-anchor="middle" x="312.791" y="-374.3" font-family="Times,serif" font-size="14.00">ITF&#45;S_3_3v</text>
</g>
<!-- mogaba&#45;&gt;ITF&#45;S_3_3v -->
<g id="edge9" class="edge"><title>mogaba&#45;&gt;ITF&#45;S_3_3v</title>
<path fill="none" stroke="black" d="M272.246,-431.697C276.917,-423.265 283.49,-412.975 290.054,-403.732"/>
<polygon fill="red" stroke="black" points="292.914,-405.75 296.024,-395.622 287.277,-401.6 292.914,-405.75"/>
</g>
<!-- ITF&#45;mEM_Alimentation -->
<g id="node2" class="node"><title>ITF&#45;mEM_Alimentation</title>
<ellipse fill="green" stroke="black" cx="98.7912" cy="-522" rx="98.5829" ry="18"/>
<text text-anchor="middle" x="98.7912" y="-518.3" font-family="Times,serif" font-size="14.00">ITF&#45;mEM_Alimentation</text>
</g>
<!-- ITF&#45;mEM_Alimentation&#45;&gt;mogaba -->
<g id="edge1" class="edge"><title>ITF&#45;mEM_Alimentation&#45;&gt;mogaba</title>
<path fill="none" stroke="black" d="M131.553,-504.941C154.997,-494.686 186.944,-481.328 213.941,-470.47"/>
<polygon fill="black" stroke="black" points="215.277,-473.706 223.262,-466.743 212.678,-467.206 215.277,-473.706"/>
</g>
<!-- ITF&#45;mEM_Alimentation&#45;&gt;mogaba -->
<g id="edge3" class="edge"><title>ITF&#45;mEM_Alimentation&#45;&gt;mogaba</title>
<path fill="none" stroke="black" d="M141.359,-505.638C166.181,-495.789 197.366,-482.872 222.474,-472.07"/>
<polygon fill="black" stroke="black" points="223.987,-475.229 231.774,-468.044 221.206,-468.805 223.987,-475.229"/>
</g>
<!-- ITF&#45;F_12V -->
<g id="node3" class="node"><title>ITF&#45;F_12V</title>
<ellipse fill="yellow" stroke="black" cx="266.791" cy="-522" rx="51.1914" ry="18"/>
<text text-anchor="middle" x="266.791" y="-518.3" font-family="Times,serif" font-size="14.00">ITF&#45;F_12V</text>
</g>
<!-- ITF&#45;F_12V&#45;&gt;mogaba -->
<g id="edge2" class="edge"><title>ITF&#45;F_12V&#45;&gt;mogaba</title>
<path fill="none" stroke="black" d="M255.111,-504.411C253.43,-496.708 252.914,-487.341 253.562,-478.616"/>
<polygon fill="black" stroke="black" points="257.065,-478.824 254.93,-468.447 250.128,-477.891 257.065,-478.824"/>
</g>
<!-- ITF&#45;F_12V&#45;&gt;mogaba -->
<g id="edge4" class="edge"><title>ITF&#45;F_12V&#45;&gt;mogaba</title>
<path fill="none" stroke="black" d="M266.791,-503.697C266.791,-495.983 266.791,-486.712 266.791,-478.112"/>
<polygon fill="black" stroke="black" points="270.291,-478.104 266.791,-468.104 263.291,-478.104 270.291,-478.104"/>
</g>
<!-- ITF&#45;F_12V&#45;&gt;mogaba -->
<g id="edge7" class="edge"><title>ITF&#45;F_12V&#45;&gt;mogaba</title>
<path fill="none" stroke="black" d="M278.471,-504.411C280.152,-496.708 280.669,-487.341 280.021,-478.616"/>
<polygon fill="black" stroke="black" points="283.455,-477.891 278.652,-468.447 276.517,-478.824 283.455,-477.891"/>
</g>
<!-- ITF&#45;A_gnd -->
<g id="node4" class="node"><title>ITF&#45;A_gnd</title>
<ellipse fill="yellow" stroke="black" cx="669.791" cy="-522" rx="50.8918" ry="18"/>
<text text-anchor="middle" x="669.791" y="-518.3" font-family="Times,serif" font-size="14.00">ITF&#45;A_gnd</text>
</g>
<!-- ITF&#45;A_gnd&#45;&gt;mogaba -->
<g id="edge5" class="edge"><title>ITF&#45;A_gnd&#45;&gt;mogaba</title>
<path fill="none" stroke="black" d="M622.268,-515.724C555.395,-507.843 429.938,-491.378 324.791,-468 323.319,-467.673 321.829,-467.328 320.328,-466.97"/>
<polygon fill="black" stroke="black" points="320.888,-463.502 310.334,-464.436 319.167,-470.287 320.888,-463.502"/>
</g>
<!-- croaker -->
<g id="node7" class="node"><title>croaker</title>
<polygon fill="blue" stroke="black" points="1055.29,-324 972.291,-324 972.291,-288 1055.29,-288 1055.29,-324"/>
<text text-anchor="middle" x="1013.79" y="-300.4" font-family="Times,serif" font-size="22.00">croaker</text>
</g>
<!-- ITF&#45;A_gnd&#45;&gt;croaker -->
<g id="edge10" class="edge"><title>ITF&#45;A_gnd&#45;&gt;croaker</title>
<path fill="none" stroke="black" d="M687.312,-505.078C732.715,-469.517 852.034,-384.813 894.791,-360 916.352,-347.488 941.316,-335.287 962.88,-325.752"/>
<polygon fill="black" stroke="black" points="964.429,-328.895 972.207,-321.701 961.641,-322.474 964.429,-328.895"/>
</g>
<!-- ITF&#45;A_gnd&#45;&gt;croaker -->
<g id="edge15" class="edge"><title>ITF&#45;A_gnd&#45;&gt;croaker</title>
<path fill="none" stroke="black" d="M695.067,-506.128C748.327,-471.213 869.608,-385.06 912.791,-360 932.24,-348.713 954.458,-337.68 973.171,-328.628"/>
<polygon fill="black" stroke="black" points="974.835,-331.712 982.325,-324.218 971.797,-325.405 974.835,-331.712"/>
</g>
<!-- oneeye -->
<g id="node14" class="node"><title>oneeye</title>
<polygon fill="blue" stroke="black" points="653.791,-324 573.791,-324 573.791,-288 653.791,-288 653.791,-324"/>
<text text-anchor="middle" x="613.791" y="-300.4" font-family="Times,serif" font-size="22.00">oneeye</text>
</g>
<!-- ITF&#45;A_gnd&#45;&gt;oneeye -->
<g id="edge24" class="edge"><title>ITF&#45;A_gnd&#45;&gt;oneeye</title>
<path fill="none" stroke="black" d="M624.935,-513.501C566.254,-500.489 466.242,-467.9 422.791,-396 389.568,-341.025 496.368,-319.193 563.587,-311.194"/>
<polygon fill="black" stroke="black" points="564.055,-314.664 573.602,-310.069 563.273,-307.708 564.055,-314.664"/>
</g>
<!-- ITF&#45;A_gnd&#45;&gt;oneeye -->
<g id="edge27" class="edge"><title>ITF&#45;A_gnd&#45;&gt;oneeye</title>
<path fill="none" stroke="black" d="M628.47,-511.4C574.394,-497.131 482.069,-464.305 440.791,-396 409.557,-344.316 502.082,-321.926 563.697,-312.784"/>
<polygon fill="black" stroke="black" points="564.26,-316.239 573.674,-311.377 563.283,-309.308 564.26,-316.239"/>
</g>
<!-- tobo -->
<g id="node17" class="node"><title>tobo</title>
<polygon fill="blue" stroke="black" points="703.791,-36 647.791,-36 647.791,-0 703.791,-0 703.791,-36"/>
<text text-anchor="middle" x="675.791" y="-12.4" font-family="Times,serif" font-size="22.00">tobo</text>
</g>
<!-- ITF&#45;A_gnd&#45;&gt;tobo -->
<g id="edge35" class="edge"><title>ITF&#45;A_gnd&#45;&gt;tobo</title>
<path fill="none" stroke="black" d="M627.556,-511.939C524.682,-488.202 268.227,-424.103 240.791,-396 211.824,-366.328 212.791,-348.467 212.791,-307 212.791,-307 212.791,-307 212.791,-161 212.791,-108.109 245.19,-97.0143 291.791,-72 350.672,-40.3948 552.478,-25.5649 637.618,-20.7967"/>
<polygon fill="black" stroke="black" points="637.848,-24.2895 647.643,-20.2521 637.468,-17.2998 637.848,-24.2895"/>
</g>
<!-- ITF&#45;A_gnd&#45;&gt;tobo -->
<g id="edge41" class="edge"><title>ITF&#45;A_gnd&#45;&gt;tobo</title>
<path fill="none" stroke="black" d="M630.499,-510.515C532.833,-485.732 285.696,-423.559 258.791,-396 229.824,-366.328 230.791,-348.467 230.791,-307 230.791,-307 230.791,-307 230.791,-161 230.791,-108.109 263.19,-97.0143 309.791,-72 366.471,-41.5762 555.59,-26.6971 637.556,-21.374"/>
<polygon fill="black" stroke="black" points="637.939,-24.8568 647.697,-20.7286 637.495,-17.8709 637.939,-24.8568"/>
</g>
<!-- cletus -->
<g id="node21" class="node"><title>cletus</title>
<polygon fill="blue" stroke="black" points="709.791,-180 641.791,-180 641.791,-144 709.791,-144 709.791,-180"/>
<text text-anchor="middle" x="675.791" y="-156.4" font-family="Times,serif" font-size="22.00">cletus</text>
</g>
<!-- ITF&#45;A_gnd&#45;&gt;cletus -->
<g id="edge51" class="edge"><title>ITF&#45;A_gnd&#45;&gt;cletus</title>
<path fill="none" stroke="black" d="M664.792,-503.803C662.397,-473.52 667.523,-409.223 688.791,-360 712.589,-304.921 750.818,-308.921 769.791,-252 774.851,-236.821 778.124,-229.659 769.791,-216 758.412,-197.348 738.141,-184.982 719.261,-176.925"/>
<polygon fill="black" stroke="black" points="720.447,-173.631 709.861,-173.202 717.869,-180.139 720.447,-173.631"/>
</g>
<!-- ITF&#45;A_gnd&#45;&gt;cletus -->
<g id="edge57" class="edge"><title>ITF&#45;A_gnd&#45;&gt;cletus</title>
<path fill="none" stroke="black" d="M675.549,-503.803C680.397,-473.52 685.523,-409.223 706.791,-360 730.589,-304.921 768.818,-308.921 787.791,-252 792.851,-236.821 796.124,-229.659 787.791,-216 773.321,-192.281 744.47,-178.727 719.559,-171.274"/>
<polygon fill="black" stroke="black" points="720.461,-167.892 709.891,-168.619 718.607,-174.642 720.461,-167.892"/>
</g>
<!-- goblin -->
<g id="node23" class="node"><title>goblin</title>
<polygon fill="blue" stroke="black" points="1903.79,-324 1829.79,-324 1829.79,-288 1903.79,-288 1903.79,-324"/>
<text text-anchor="middle" x="1866.79" y="-300.4" font-family="Times,serif" font-size="22.00">goblin</text>
</g>
<!-- ITF&#45;A_gnd&#45;&gt;goblin -->
<g id="edge66" class="edge"><title>ITF&#45;A_gnd&#45;&gt;goblin</title>
<path fill="none" stroke="black" d="M719.794,-519.011C906.795,-511.218 1563.26,-479.003 1753.79,-396 1787.17,-381.461 1817.84,-352.453 1839.02,-331.499"/>
<polygon fill="black" stroke="black" points="1841.75,-333.716 1846.38,-324.186 1836.82,-328.751 1841.75,-333.716"/>
</g>
<!-- ITF&#45;A_gnd&#45;&gt;goblin -->
<g id="edge74" class="edge"><title>ITF&#45;A_gnd&#45;&gt;goblin</title>
<path fill="none" stroke="black" d="M720.093,-519.27C909.651,-511.951 1579.07,-479.957 1771.79,-396 1804.87,-381.588 1835.3,-352.961 1852.7,-332.053"/>
<polygon fill="black" stroke="black" points="1855.47,-334.201 1858.92,-324.186 1849.97,-329.86 1855.47,-334.201"/>
</g>
<!-- ITF&#45;B_5v -->
<g id="node5" class="node"><title>ITF&#45;B_5v</title>
<ellipse fill="yellow" stroke="black" cx="2092.79" cy="-522" rx="46.2923" ry="18"/>
<text text-anchor="middle" x="2092.79" y="-518.3" font-family="Times,serif" font-size="14.00">ITF&#45;B_5v</text>
</g>
<!-- ITF&#45;B_5v&#45;&gt;mogaba -->
<g id="edge6" class="edge"><title>ITF&#45;B_5v&#45;&gt;mogaba</title>
<path fill="none" stroke="black" d="M2046.74,-519.235C1795.52,-509.604 591.915,-463.464 321.019,-453.079"/>
<polygon fill="black" stroke="black" points="320.792,-449.568 310.665,-452.682 320.524,-456.563 320.792,-449.568"/>
</g>
<!-- ITF&#45;B_5v&#45;&gt;croaker -->
<g id="edge11" class="edge"><title>ITF&#45;B_5v&#45;&gt;croaker</title>
<path fill="none" stroke="black" d="M2047.01,-519.482C1929.63,-514.175 1610.76,-491.179 1366.79,-396 1339.23,-385.246 1338.36,-370.739 1310.79,-360 1228.51,-327.952 1126.27,-315.218 1065.64,-310.202"/>
<polygon fill="black" stroke="black" points="1065.79,-306.703 1055.55,-309.406 1065.24,-313.681 1065.79,-306.703"/>
</g>
<!-- ITF&#45;B_5v&#45;&gt;croaker -->
<g id="edge16" class="edge"><title>ITF&#45;B_5v&#45;&gt;croaker</title>
<path fill="none" stroke="black" d="M2046.86,-519.044C1931.53,-512.964 1622.58,-488.768 1384.79,-396 1357.23,-385.246 1356.36,-370.739 1328.79,-360 1240.75,-325.708 1129.85,-313.529 1065.76,-309.257"/>
<polygon fill="black" stroke="black" points="1065.7,-305.747 1055.5,-308.615 1065.27,-312.733 1065.7,-305.747"/>
</g>
<!-- ITF&#45;B_5v&#45;&gt;oneeye -->
<g id="edge25" class="edge"><title>ITF&#45;B_5v&#45;&gt;oneeye</title>
<path fill="none" stroke="black" d="M2046.47,-521.209C1831.91,-521.599 935.559,-516.151 688.791,-396 660.17,-382.064 636.278,-353.955 623.187,-333.036"/>
<polygon fill="black" stroke="black" points="626.156,-331.179 618.105,-324.291 620.104,-334.696 626.156,-331.179"/>
</g>
<!-- ITF&#45;B_5v&#45;&gt;oneeye -->
<g id="edge28" class="edge"><title>ITF&#45;B_5v&#45;&gt;oneeye</title>
<path fill="none" stroke="black" d="M2046.59,-521.218C1834.08,-521.494 951.373,-515.086 706.791,-396 677.785,-381.877 653.636,-353.196 636.909,-332.196"/>
<polygon fill="black" stroke="black" points="639.599,-329.956 630.646,-324.291 634.112,-334.303 639.599,-329.956"/>
</g>
<!-- ITF&#45;B_5v&#45;&gt;tobo -->
<g id="edge36" class="edge"><title>ITF&#45;B_5v&#45;&gt;tobo</title>
<path fill="none" stroke="black" d="M2138.32,-518.64C2196.47,-514.334 2298.88,-502.194 2379.79,-468 2442.28,-441.592 2503.79,-446.837 2503.79,-379 2503.79,-379 2503.79,-379 2503.79,-161 2503.79,26.7692 2277.1,-95.3591 2090.79,-72 1812.7,-37.1331 911.354,-22.4677 714.108,-19.5575"/>
<polygon fill="black" stroke="black" points="713.994,-16.0556 703.944,-19.4088 713.891,-23.0548 713.994,-16.0556"/>
</g>
<!-- ITF&#45;B_5v&#45;&gt;tobo -->
<g id="edge42" class="edge"><title>ITF&#45;B_5v&#45;&gt;tobo</title>
<path fill="none" stroke="black" d="M2138.55,-519.432C2200.06,-515.923 2311.23,-504.582 2397.79,-468 2460.28,-441.592 2521.79,-446.837 2521.79,-379 2521.79,-379 2521.79,-379 2521.79,-161 2521.79,26.7692 2295.1,-95.3591 2108.79,-72 1828.28,-36.8309 913.683,-22.215 714.331,-19.4845"/>
<polygon fill="black" stroke="black" points="714.108,-15.9813 704.062,-19.3458 714.014,-22.9806 714.108,-15.9813"/>
</g>
<!-- ITF&#45;B_5v&#45;&gt;cletus -->
<g id="edge52" class="edge"><title>ITF&#45;B_5v&#45;&gt;cletus</title>
<path fill="none" stroke="black" d="M2133.42,-513.19C2226.73,-495.104 2447.79,-446.663 2447.79,-379 2447.79,-379 2447.79,-379 2447.79,-305 2447.79,-71.4044 2162.07,-240.726 1929.79,-216 1457.86,-165.765 881.996,-162.581 719.973,-162.803"/>
<polygon fill="black" stroke="black" points="719.899,-159.303 709.905,-162.822 719.912,-166.303 719.899,-159.303"/>
</g>
<!-- ITF&#45;B_5v&#45;&gt;cletus -->
<g id="edge58" class="edge"><title>ITF&#45;B_5v&#45;&gt;cletus</title>
<path fill="none" stroke="black" d="M2135.11,-514.555C2232.94,-497.64 2465.79,-448.444 2465.79,-379 2465.79,-379 2465.79,-379 2465.79,-305 2465.79,-71.4044 2180.07,-240.726 1947.79,-216 1469.46,-165.083 884.343,-162.503 720.307,-162.814"/>
<polygon fill="black" stroke="black" points="720.109,-159.314 710.117,-162.838 720.126,-166.314 720.109,-159.314"/>
</g>
<!-- ITF&#45;B_5v&#45;&gt;goblin -->
<g id="edge67" class="edge"><title>ITF&#45;B_5v&#45;&gt;goblin</title>
<path fill="none" stroke="black" d="M2090.11,-503.889C2089.89,-471.397 2092.74,-400.409 2055.79,-360 2036.47,-338.871 1963.21,-323.364 1913.69,-314.759"/>
<polygon fill="black" stroke="black" points="1914.26,-311.306 1903.81,-313.079 1913.09,-318.207 1914.26,-311.306"/>
</g>
<!-- ITF&#45;B_5v&#45;&gt;goblin -->
<g id="edge75" class="edge"><title>ITF&#45;B_5v&#45;&gt;goblin</title>
<path fill="none" stroke="black" d="M2100.34,-504.141C2107.88,-471.765 2110.84,-400.514 2073.79,-360 2052.87,-337.117 1968.68,-320.829 1914.21,-312.76"/>
<polygon fill="black" stroke="black" points="1914.47,-309.262 1904.08,-311.303 1913.48,-316.19 1914.47,-309.262"/>
</g>
<!-- ITF&#45;S_3_3v&#45;&gt;mogaba -->
<g id="edge8" class="edge"><title>ITF&#45;S_3_3v&#45;&gt;mogaba</title>
<path fill="none" stroke="black" d="M307.446,-396.104C302.92,-404.298 296.571,-414.282 290.172,-423.359"/>
<polygon fill="black" stroke="black" points="287.153,-421.558 284.078,-431.697 292.804,-425.689 287.153,-421.558"/>
</g>
<!-- ITF&#45;S_3_3v&#45;&gt;oneeye -->
<g id="edge26" class="edge"><title>ITF&#45;S_3_3v&#45;&gt;oneeye</title>
<path fill="none" stroke="black" d="M350.686,-365.163C357.681,-363.408 364.926,-361.639 371.791,-360 437.716,-344.263 514.395,-327.026 563.59,-316.613"/>
<polygon fill="black" stroke="black" points="564.59,-319.98 573.657,-314.498 563.151,-313.129 564.59,-319.98"/>
</g>
<!-- ITF&#45;S_3_3v&#45;&gt;oneeye -->
<g id="edge29" class="edge"><title>ITF&#45;S_3_3v&#45;&gt;oneeye</title>
<path fill="none" stroke="black" d="M357.387,-367.858C368.085,-365.272 379.375,-362.486 389.791,-360 449.626,-345.717 518.319,-330.198 563.784,-319.667"/>
<polygon fill="black" stroke="black" points="564.738,-323.039 573.687,-317.366 563.154,-316.22 564.738,-323.039"/>
</g>
<!-- ITF&#45;S_3_3v&#45;&gt;tobo -->
<g id="edge39" class="edge"><title>ITF&#45;S_3_3v&#45;&gt;tobo</title>
<path fill="none" stroke="black" d="M300.164,-360.28C286.676,-334.062 268.791,-281.465 268.791,-235 268.791,-235 268.791,-235 268.791,-161 268.791,-100.836 316.546,-98.0235 370.791,-72 459.155,-29.6085 577.096,-20.8889 637.267,-19.253"/>
<polygon fill="black" stroke="black" points="637.541,-22.7479 647.461,-19.0292 637.387,-15.7496 637.541,-22.7479"/>
</g>
<!-- ITF&#45;S_3_3v&#45;&gt;tobo -->
<g id="edge45" class="edge"><title>ITF&#45;S_3_3v&#45;&gt;tobo</title>
<path fill="none" stroke="black" d="M311.474,-359.848C304.481,-333.487 286.791,-281.211 286.791,-235 286.791,-235 286.791,-235 286.791,-161 286.791,-100.836 334.546,-98.0235 388.791,-72 471.654,-32.2473 580.527,-22.1049 637.526,-19.6472"/>
<polygon fill="black" stroke="black" points="637.686,-23.1438 647.548,-19.2723 637.424,-16.1487 637.686,-23.1438"/>
</g>
<!-- ITF&#45;S_3_3v&#45;&gt;cletus -->
<g id="edge54" class="edge"><title>ITF&#45;S_3_3v&#45;&gt;cletus</title>
<path fill="none" stroke="black" d="M313.717,-359.914C322.403,-326.487 355.14,-252.528 408.791,-216 444.042,-192 564.887,-174.837 631.366,-167.289"/>
<polygon fill="black" stroke="black" points="631.993,-170.741 641.547,-166.161 631.222,-163.784 631.993,-170.741"/>
</g>
<!-- ITF&#45;S_3_3v&#45;&gt;cletus -->
<g id="edge60" class="edge"><title>ITF&#45;S_3_3v&#45;&gt;cletus</title>
<path fill="none" stroke="black" d="M323.695,-360.171C340.235,-326.867 373.002,-252.622 426.791,-216 460,-193.39 569.175,-176.848 631.473,-168.697"/>
<polygon fill="black" stroke="black" points="631.95,-172.165 641.42,-167.414 631.055,-165.222 631.95,-172.165"/>
</g>
<!-- ITF&#45;S_3_3v&#45;&gt;goblin -->
<g id="edge68" class="edge"><title>ITF&#45;S_3_3v&#45;&gt;goblin</title>
<path fill="none" stroke="black" d="M358.145,-368.098C377.936,-365.046 401.382,-361.919 422.791,-360 702.673,-334.91 1602.4,-312.909 1819.42,-308.013"/>
<polygon fill="black" stroke="black" points="1819.61,-311.51 1829.52,-307.787 1819.45,-304.512 1819.61,-311.51"/>
</g>
<!-- ITF&#45;S_3_3v&#45;&gt;goblin -->
<g id="edge76" class="edge"><title>ITF&#45;S_3_3v&#45;&gt;goblin</title>
<path fill="none" stroke="black" d="M361.351,-370.117C385.364,-366.503 414.601,-362.348 440.791,-360 718.23,-335.129 1604.74,-313.294 1819.61,-308.145"/>
<polygon fill="black" stroke="black" points="1819.7,-311.644 1829.62,-307.906 1819.54,-304.646 1819.7,-311.644"/>
</g>
<!-- ITF&#45;mEC&#45;WiFi&#45;UDP&#45;Stream -->
<g id="node13" class="node"><title>ITF&#45;mEC&#45;WiFi&#45;UDP&#45;Stream</title>
<ellipse fill="green" stroke="black" cx="1015.79" cy="-234" rx="115.88" ry="18"/>
<text text-anchor="middle" x="1015.79" y="-230.3" font-family="Times,serif" font-size="14.00">ITF&#45;mEC&#45;WiFi&#45;UDP&#45;Stream</text>
</g>
<!-- croaker&#45;&gt;ITF&#45;mEC&#45;WiFi&#45;UDP&#45;Stream -->
<g id="edge23" class="edge"><title>croaker&#45;&gt;ITF&#45;mEC&#45;WiFi&#45;UDP&#45;Stream</title>
<path fill="none" stroke="black" d="M1008.37,-287.697C1007.79,-279.983 1007.83,-270.712 1008.42,-262.112"/>
<polygon fill="red" stroke="black" points="1011.91,-262.399 1009.41,-252.104 1004.94,-261.713 1011.91,-262.399"/>
</g>
<!-- ITF&#45;E_signal_envelope -->
<g id="node8" class="node"><title>ITF&#45;E_signal_envelope</title>
<ellipse fill="yellow" stroke="black" cx="1659.79" cy="-378" rx="93.6835" ry="18"/>
<text text-anchor="middle" x="1659.79" y="-374.3" font-family="Times,serif" font-size="14.00">ITF&#45;E_signal_envelope</text>
</g>
<!-- ITF&#45;E_signal_envelope&#45;&gt;croaker -->
<g id="edge12" class="edge"><title>ITF&#45;E_signal_envelope&#45;&gt;croaker</title>
<path fill="none" stroke="black" d="M1589.62,-366.074C1576.04,-363.89 1561.96,-361.737 1548.79,-360 1371.79,-336.655 1161.13,-318.997 1065.46,-311.276"/>
<polygon fill="black" stroke="black" points="1065.71,-307.786 1055.46,-310.472 1065.15,-314.763 1065.71,-307.786"/>
</g>
<!-- ITF&#45;E_signal_envelope&#45;&gt;croaker -->
<g id="edge17" class="edge"><title>ITF&#45;E_signal_envelope&#45;&gt;croaker</title>
<path fill="none" stroke="black" d="M1597.45,-364.492C1587.25,-362.868 1576.76,-361.315 1566.79,-360 1383.44,-335.817 1163.96,-317.737 1065.66,-310.484"/>
<polygon fill="black" stroke="black" points="1065.64,-306.972 1055.41,-309.734 1065.12,-313.954 1065.64,-306.972"/>
</g>
<!-- ITF&#45;E_signal_envelope&#45;&gt;goblin -->
<g id="edge71" class="edge"><title>ITF&#45;E_signal_envelope&#45;&gt;goblin</title>
<path fill="none" stroke="black" d="M1694.77,-361.291C1729.33,-348.599 1781.72,-330.985 1819.84,-319.303"/>
<polygon fill="black" stroke="black" points="1821.14,-322.567 1829.7,-316.321 1819.11,-315.867 1821.14,-322.567"/>
</g>
<!-- ITF&#45;E_signal_envelope&#45;&gt;goblin -->
<g id="edge79" class="edge"><title>ITF&#45;E_signal_envelope&#45;&gt;goblin</title>
<path fill="none" stroke="black" d="M1703.94,-362.069C1737.99,-350.557 1784.97,-334.671 1819.72,-322.918"/>
<polygon fill="black" stroke="black" points="1821.28,-326.086 1829.63,-319.567 1819.04,-319.455 1821.28,-326.086"/>
</g>
<!-- ITF&#45;E_signal_envelope&#45;&gt;goblin -->
<g id="edge83" class="edge"><title>ITF&#45;E_signal_envelope&#45;&gt;goblin</title>
<path fill="none" stroke="black" d="M1712.24,-363.003C1745.47,-352.698 1787.76,-338.538 1819.88,-327.036"/>
<polygon fill="black" stroke="black" points="1821.29,-330.25 1829.5,-323.558 1818.91,-323.667 1821.29,-330.25"/>
</g>
<!-- ITF&#45;I_pulse_on -->
<g id="node9" class="node"><title>ITF&#45;I_pulse_on</title>
<ellipse fill="yellow" stroke="black" cx="772.791" cy="-378" rx="65.7887" ry="18"/>
<text text-anchor="middle" x="772.791" y="-374.3" font-family="Times,serif" font-size="14.00">ITF&#45;I_pulse_on</text>
</g>
<!-- ITF&#45;I_pulse_on&#45;&gt;croaker -->
<g id="edge13" class="edge"><title>ITF&#45;I_pulse_on&#45;&gt;croaker</title>
<path fill="none" stroke="black" d="M812.982,-363.751C853.974,-351.333 917.559,-332.862 962.225,-320.396"/>
<polygon fill="black" stroke="black" points="963.319,-323.725 972.017,-317.676 961.445,-316.981 963.319,-323.725"/>
</g>
<!-- ITF&#45;I_pulse_on&#45;&gt;croaker -->
<g id="edge18" class="edge"><title>ITF&#45;I_pulse_on&#45;&gt;croaker</title>
<path fill="none" stroke="black" d="M818.891,-365.125C859.943,-353.726 919.793,-336.404 962.371,-323.633"/>
<polygon fill="black" stroke="black" points="963.424,-326.971 971.99,-320.736 961.405,-320.269 963.424,-326.971"/>
</g>
<!-- ITF&#45;I_pulse_on&#45;&gt;oneeye -->
<g id="edge31" class="edge"><title>ITF&#45;I_pulse_on&#45;&gt;oneeye</title>
<path fill="none" stroke="black" d="M739.46,-362.326C717.012,-352.443 687.049,-339.252 662.011,-328.229"/>
<polygon fill="black" stroke="black" points="663.245,-324.948 652.682,-324.122 660.424,-331.355 663.245,-324.948"/>
</g>
<!-- ITF&#45;I_pulse_on&#45;&gt;tobo -->
<g id="edge37" class="edge"><title>ITF&#45;I_pulse_on&#45;&gt;tobo</title>
<path fill="none" stroke="black" d="M786.397,-360.368C809.79,-335.854 853.791,-287.245 853.791,-235 853.791,-235 853.791,-235 853.791,-161 853.791,-89.5771 766.198,-49.4043 713.796,-31.1614"/>
<polygon fill="black" stroke="black" points="714.729,-27.7826 704.135,-27.9049 712.493,-34.4159 714.729,-27.7826"/>
</g>
<!-- ITF&#45;I_pulse_on&#45;&gt;tobo -->
<g id="edge43" class="edge"><title>ITF&#45;I_pulse_on&#45;&gt;tobo</title>
<path fill="none" stroke="black" d="M797.258,-361.181C826.801,-336.939 871.791,-287.829 871.791,-235 871.791,-235 871.791,-235 871.791,-161 871.791,-84.2809 770.726,-43.6182 713.617,-27.461"/>
<polygon fill="black" stroke="black" points="714.405,-24.0482 703.837,-24.8132 712.575,-30.805 714.405,-24.0482"/>
</g>
<!-- ITF&#45;J_pulse_off -->
<g id="node10" class="node"><title>ITF&#45;J_pulse_off</title>
<ellipse fill="yellow" stroke="black" cx="508.791" cy="-378" rx="67.6881" ry="18"/>
<text text-anchor="middle" x="508.791" y="-374.3" font-family="Times,serif" font-size="14.00">ITF&#45;J_pulse_off</text>
</g>
<!-- ITF&#45;J_pulse_off&#45;&gt;croaker -->
<g id="edge14" class="edge"><title>ITF&#45;J_pulse_off&#45;&gt;croaker</title>
<path fill="none" stroke="black" d="M566.1,-368.417C665.259,-354.256 867.071,-326.304 962.156,-313.583"/>
<polygon fill="black" stroke="black" points="962.665,-317.046 972.115,-312.254 961.74,-310.107 962.665,-317.046"/>
</g>
<!-- ITF&#45;J_pulse_off&#45;&gt;croaker -->
<g id="edge19" class="edge"><title>ITF&#45;J_pulse_off&#45;&gt;croaker</title>
<path fill="none" stroke="black" d="M568.198,-369.376C668.027,-355.97 867.518,-328.32 961.999,-314.795"/>
<polygon fill="black" stroke="black" points="962.77,-318.22 972.171,-313.335 961.775,-311.291 962.77,-318.22"/>
</g>
<!-- ITF&#45;J_pulse_off&#45;&gt;oneeye -->
<g id="edge32" class="edge"><title>ITF&#45;J_pulse_off&#45;&gt;oneeye</title>
<path fill="none" stroke="black" d="M532.617,-361.116C546.476,-351.877 564.181,-340.074 579.516,-329.85"/>
<polygon fill="black" stroke="black" points="581.846,-332.503 588.225,-324.044 577.963,-326.679 581.846,-332.503"/>
</g>
<!-- ITF&#45;J_pulse_off&#45;&gt;tobo -->
<g id="edge38" class="edge"><title>ITF&#45;J_pulse_off&#45;&gt;tobo</title>
<path fill="none" stroke="black" d="M463.056,-364.563C408.449,-345.624 324.791,-304.253 324.791,-235 324.791,-235 324.791,-235 324.791,-161 324.791,-94.6855 546.888,-43.0355 637.835,-25.4799"/>
<polygon fill="black" stroke="black" points="638.571,-28.9028 647.745,-23.6032 637.269,-22.025 638.571,-28.9028"/>
</g>
<!-- ITF&#45;J_pulse_off&#45;&gt;tobo -->
<g id="edge44" class="edge"><title>ITF&#45;J_pulse_off&#45;&gt;tobo</title>
<path fill="none" stroke="black" d="M470.902,-362.904C421.789,-343.264 342.791,-302.296 342.791,-235 342.791,-235 342.791,-235 342.791,-161 342.791,-96.9172 550.191,-46.5284 637.72,-27.3674"/>
<polygon fill="black" stroke="black" points="638.502,-30.7793 647.533,-25.2394 637.018,-23.9383 638.502,-30.7793"/>
</g>
<!-- ITF&#45;mED&#45;TFT&#45;Screen -->
<g id="node11" class="node"><title>ITF&#45;mED&#45;TFT&#45;Screen</title>
<ellipse fill="green" stroke="black" cx="1219.79" cy="-378" rx="90.9839" ry="18"/>
<text text-anchor="middle" x="1219.79" y="-374.3" font-family="Times,serif" font-size="14.00">ITF&#45;mED&#45;TFT&#45;Screen</text>
</g>
<!-- ITF&#45;mED&#45;TFT&#45;Screen&#45;&gt;croaker -->
<g id="edge20" class="edge"><title>ITF&#45;mED&#45;TFT&#45;Screen&#45;&gt;croaker</title>
<path fill="none" stroke="black" d="M1176.1,-362.155C1143.64,-351.124 1099.25,-336.041 1065.1,-324.435"/>
<polygon fill="black" stroke="black" points="1065.9,-321.011 1055.31,-321.108 1063.65,-327.639 1065.9,-321.011"/>
</g>
<!-- ITF&#45;mED&#45;OLED&#45;Screen -->
<g id="node12" class="node"><title>ITF&#45;mED&#45;OLED&#45;Screen</title>
<ellipse fill="green" stroke="black" cx="1011.79" cy="-378" rx="98.5829" ry="18"/>
<text text-anchor="middle" x="1011.79" y="-374.3" font-family="Times,serif" font-size="14.00">ITF&#45;mED&#45;OLED&#45;Screen</text>
</g>
<!-- ITF&#45;mED&#45;OLED&#45;Screen&#45;&gt;croaker -->
<g id="edge21" class="edge"><title>ITF&#45;mED&#45;OLED&#45;Screen&#45;&gt;croaker</title>
<path fill="none" stroke="black" d="M1012.29,-359.697C1012.51,-351.983 1012.77,-342.712 1013.02,-334.112"/>
<polygon fill="black" stroke="black" points="1016.52,-334.2 1013.3,-324.104 1009.52,-334 1016.52,-334.2"/>
</g>
<!-- ITF&#45;mEC&#45;WiFi&#45;UDP&#45;Stream&#45;&gt;croaker -->
<g id="edge22" class="edge"><title>ITF&#45;mEC&#45;WiFi&#45;UDP&#45;Stream&#45;&gt;croaker</title>
<path fill="none" stroke="black" d="M1021.2,-252.104C1021.78,-259.791 1021.76,-269.054 1021.18,-277.665"/>
<polygon fill="black" stroke="black" points="1017.69,-277.405 1020.2,-287.697 1024.65,-278.082 1017.69,-277.405"/>
</g>
<!-- ITF&#45;N_cc_motor_pwm -->
<g id="node16" class="node"><title>ITF&#45;N_cc_motor_pwm</title>
<ellipse fill="yellow" stroke="black" cx="675.791" cy="-234" rx="93.6835" ry="18"/>
<text text-anchor="middle" x="675.791" y="-230.3" font-family="Times,serif" font-size="14.00">ITF&#45;N_cc_motor_pwm</text>
</g>
<!-- oneeye&#45;&gt;ITF&#45;N_cc_motor_pwm -->
<g id="edge34" class="edge"><title>oneeye&#45;&gt;ITF&#45;N_cc_motor_pwm</title>
<path fill="none" stroke="black" d="M623.201,-287.697C630.001,-279.007 639.273,-268.343 648.197,-258.887"/>
<polygon fill="red" stroke="black" points="650.787,-261.243 655.225,-251.622 645.756,-256.375 650.787,-261.243"/>
</g>
<!-- ITF&#45;G_gain_control -->
<g id="node15" class="node"><title>ITF&#45;G_gain_control</title>
<ellipse fill="yellow" stroke="black" cx="1466.79" cy="-378" rx="81.7856" ry="18"/>
<text text-anchor="middle" x="1466.79" y="-374.3" font-family="Times,serif" font-size="14.00">ITF&#45;G_gain_control</text>
</g>
<!-- ITF&#45;G_gain_control&#45;&gt;oneeye -->
<g id="edge30" class="edge"><title>ITF&#45;G_gain_control&#45;&gt;oneeye</title>
<path fill="none" stroke="black" d="M1397.31,-368.384C1372.83,-365.503 1345.11,-362.413 1319.79,-360 1074.22,-336.593 779.786,-317.313 664.025,-310.075"/>
<polygon fill="black" stroke="black" points="664.236,-306.581 654.038,-309.453 663.801,-313.568 664.236,-306.581"/>
</g>
<!-- ITF&#45;G_gain_control&#45;&gt;goblin -->
<g id="edge69" class="edge"><title>ITF&#45;G_gain_control&#45;&gt;goblin</title>
<path fill="none" stroke="black" d="M1522.25,-364.699C1530.78,-363.095 1539.5,-361.492 1547.79,-360 1644,-342.691 1757.26,-323.67 1819.74,-313.798"/>
<polygon fill="black" stroke="black" points="1820.36,-317.244 1829.7,-312.236 1819.27,-310.329 1820.36,-317.244"/>
</g>
<!-- ITF&#45;G_gain_control&#45;&gt;goblin -->
<g id="edge77" class="edge"><title>ITF&#45;G_gain_control&#45;&gt;goblin</title>
<path fill="none" stroke="black" d="M1530.29,-366.51C1542.14,-364.321 1554.37,-362.055 1565.79,-360 1655.52,-343.857 1760.08,-326.225 1819.45,-315.914"/>
<polygon fill="black" stroke="black" points="1820.4,-319.302 1829.65,-314.138 1819.19,-312.406 1820.4,-319.302"/>
</g>
<!-- ITF&#45;N_cc_motor_pwm&#45;&gt;oneeye -->
<g id="edge33" class="edge"><title>ITF&#45;N_cc_motor_pwm&#45;&gt;oneeye</title>
<path fill="none" stroke="black" d="M666.537,-252.104C659.874,-260.636 650.791,-271.108 641.985,-280.478"/>
<polygon fill="black" stroke="black" points="639.448,-278.066 635.033,-287.697 644.49,-282.921 639.448,-278.066"/>
</g>
<!-- ITF&#45;N_cc_motor_pwm&#45;&gt;cletus -->
<g id="edge53" class="edge"><title>ITF&#45;N_cc_motor_pwm&#45;&gt;cletus</title>
<path fill="none" stroke="black" d="M669.876,-215.697C669.08,-207.983 668.853,-198.712 669.196,-190.112"/>
<polygon fill="black" stroke="black" points="672.69,-190.324 669.896,-180.104 665.707,-189.836 672.69,-190.324"/>
</g>
<!-- ITF&#45;N_cc_motor_pwm&#45;&gt;cletus -->
<g id="edge59" class="edge"><title>ITF&#45;N_cc_motor_pwm&#45;&gt;cletus</title>
<path fill="none" stroke="black" d="M681.707,-215.697C682.503,-207.983 682.729,-198.712 682.387,-190.112"/>
<polygon fill="black" stroke="black" points="685.876,-189.836 681.686,-180.104 678.893,-190.324 685.876,-189.836"/>
</g>
<!-- ITF&#45;mET_Transducer -->
<g id="node18" class="node"><title>ITF&#45;mET_Transducer</title>
<ellipse fill="green" stroke="black" cx="675.791" cy="-90" rx="89.0842" ry="18"/>
<text text-anchor="middle" x="675.791" y="-86.3" font-family="Times,serif" font-size="14.00">ITF&#45;mET_Transducer</text>
</g>
<!-- tobo&#45;&gt;ITF&#45;mET_Transducer -->
<g id="edge50" class="edge"><title>tobo&#45;&gt;ITF&#45;mET_Transducer</title>
<path fill="none" stroke="black" d="M681.686,-36.1043C682.492,-43.7913 682.728,-53.0537 682.395,-61.6651"/>
<polygon fill="red" stroke="black" points="678.9,-61.4805 681.707,-71.6966 685.883,-61.9597 678.9,-61.4805"/>
</g>
<!-- ITF&#45;mET_Transducer&#45;&gt;tobo -->
<g id="edge40" class="edge"><title>ITF&#45;mET_Transducer&#45;&gt;tobo</title>
<path fill="none" stroke="black" d="M669.876,-71.6966C669.08,-63.9827 668.853,-54.7125 669.196,-46.1124"/>
<polygon fill="black" stroke="black" points="672.69,-46.3243 669.896,-36.1043 665.707,-45.8356 672.69,-46.3243"/>
</g>
<!-- ITF&#45;mET_Transducer&#45;&gt;tobo -->
<g id="edge46" class="edge"><title>ITF&#45;mET_Transducer&#45;&gt;tobo</title>
<path fill="none" stroke="black" d="M681.707,-71.6966C682.503,-63.9827 682.729,-54.7125 682.387,-46.1124"/>
<polygon fill="black" stroke="black" points="685.876,-45.8356 681.686,-36.1043 678.893,-46.3243 685.876,-45.8356"/>
</g>
<!-- ITF&#45;mET_Transducer&#45;&gt;tobo -->
<g id="edge49" class="edge"><title>ITF&#45;mET_Transducer&#45;&gt;tobo</title>
<path fill="none" stroke="black" d="M669.876,-71.6966C669.08,-63.9827 668.853,-54.7125 669.196,-46.1124"/>
<polygon fill="black" stroke="black" points="672.69,-46.3243 669.896,-36.1043 665.707,-45.8356 672.69,-46.3243"/>
</g>
<!-- ITF&#45;mET_Transducer&#45;&gt;cletus -->
<g id="edge55" class="edge"><title>ITF&#45;mET_Transducer&#45;&gt;cletus</title>
<path fill="none" stroke="black" d="M669.896,-108.104C669.091,-115.791 668.854,-125.054 669.187,-133.665"/>
<polygon fill="black" stroke="black" points="665.699,-133.96 669.876,-143.697 672.683,-133.48 665.699,-133.96"/>
</g>
<!-- ITF&#45;mET_Transducer&#45;&gt;cletus -->
<g id="edge61" class="edge"><title>ITF&#45;mET_Transducer&#45;&gt;cletus</title>
<path fill="none" stroke="black" d="M681.686,-108.104C682.492,-115.791 682.728,-125.054 682.395,-133.665"/>
<polygon fill="black" stroke="black" points="678.9,-133.48 681.707,-143.697 685.883,-133.96 678.9,-133.48"/>
</g>
<!-- ITF&#45;mET_Transducer&#45;&gt;cletus -->
<g id="edge64" class="edge"><title>ITF&#45;mET_Transducer&#45;&gt;cletus</title>
<path fill="none" stroke="black" d="M693.476,-108.104C695.893,-115.791 696.602,-125.054 695.603,-133.665"/>
<polygon fill="black" stroke="black" points="692.126,-133.196 693.538,-143.697 698.983,-134.608 692.126,-133.196"/>
</g>
<!-- ITF&#45;R_reserved -->
<g id="node19" class="node"><title>ITF&#45;R_reserved</title>
<ellipse fill="yellow" stroke="black" cx="2196.79" cy="-378" rx="66.8882" ry="18"/>
<text text-anchor="middle" x="2196.79" y="-374.3" font-family="Times,serif" font-size="14.00">ITF&#45;R_reserved</text>
</g>
<!-- ITF&#45;R_reserved&#45;&gt;tobo -->
<g id="edge47" class="edge"><title>ITF&#45;R_reserved&#45;&gt;tobo</title>
<path fill="none" stroke="black" d="M2170.38,-361.431C2135.32,-338.54 2077.79,-292.254 2077.79,-235 2077.79,-235 2077.79,-235 2077.79,-161 2077.79,-19.8861 939,-17.7904 714.102,-18.7525"/>
<polygon fill="black" stroke="black" points="713.78,-15.2539 703.797,-18.8016 713.813,-22.2538 713.78,-15.2539"/>
</g>
<!-- ITF&#45;R_reserved&#45;&gt;goblin -->
<g id="edge72" class="edge"><title>ITF&#45;R_reserved&#45;&gt;goblin</title>
<path fill="none" stroke="black" d="M2143.88,-366.821C2080.33,-353.846 1974.9,-331.492 1914,-318.093"/>
<polygon fill="black" stroke="black" points="1914.41,-314.6 1903.89,-315.861 1912.9,-321.435 1914.41,-314.6"/>
</g>
<!-- ITF&#45;R_reserved&#45;&gt;goblin -->
<g id="edge80" class="edge"><title>ITF&#45;R_reserved&#45;&gt;goblin</title>
<path fill="none" stroke="black" d="M2148.18,-365.597C2085.24,-351.762 1976.46,-328.719 1914.14,-316.044"/>
<polygon fill="black" stroke="black" points="1914.67,-312.582 1904.18,-314.027 1913.28,-319.442 1914.67,-312.582"/>
</g>
<!-- ITF&#45;mET_SMA -->
<g id="node20" class="node"><title>ITF&#45;mET_SMA</title>
<ellipse fill="green" stroke="black" cx="2350.79" cy="-378" rx="68.7879" ry="18"/>
<text text-anchor="middle" x="2350.79" y="-374.3" font-family="Times,serif" font-size="14.00">ITF&#45;mET_SMA</text>
</g>
<!-- ITF&#45;mET_SMA&#45;&gt;tobo -->
<g id="edge48" class="edge"><title>ITF&#45;mET_SMA&#45;&gt;tobo</title>
<path fill="none" stroke="black" d="M2324.83,-361.321C2290.36,-338.299 2233.79,-291.859 2233.79,-235 2233.79,-235 2233.79,-235 2233.79,-161 2233.79,-29.5729 2081.24,-94.7027 1951.79,-72 1705.03,-28.7237 899.578,-20.5515 714.117,-19.2301"/>
<polygon fill="black" stroke="black" points="714.049,-15.7297 704.025,-19.1607 714.001,-22.7295 714.049,-15.7297"/>
</g>
<!-- ITF&#45;mET_SMA&#45;&gt;goblin -->
<g id="edge73" class="edge"><title>ITF&#45;mET_SMA&#45;&gt;goblin</title>
<path fill="none" stroke="black" d="M2297.23,-366.548C2286.14,-364.213 2274.58,-361.876 2263.79,-360 2137.88,-338.101 1988.57,-320.82 1913.95,-312.472"/>
<polygon fill="black" stroke="black" points="1914.25,-308.984 1903.93,-311.354 1913.48,-315.941 1914.25,-308.984"/>
</g>
<!-- ITF&#45;mET_SMA&#45;&gt;goblin -->
<g id="edge81" class="edge"><title>ITF&#45;mET_SMA&#45;&gt;goblin</title>
<path fill="none" stroke="black" d="M2304.85,-364.433C2297.18,-362.836 2289.3,-361.306 2281.79,-360 2149.69,-337.025 1991.84,-319.132 1914.3,-311.306"/>
<polygon fill="black" stroke="black" points="1914.2,-307.779 1903.9,-310.269 1913.51,-314.745 1914.2,-307.779"/>
</g>
<!-- cletus&#45;&gt;ITF&#45;mET_Transducer -->
<g id="edge65" class="edge"><title>cletus&#45;&gt;ITF&#45;mET_Transducer</title>
<path fill="none" stroke="black" d="M658.044,-143.697C655.657,-135.983 654.977,-126.712 656.005,-118.112"/>
<polygon fill="red" stroke="black" points="659.477,-118.61 658.106,-108.104 652.626,-117.172 659.477,-118.61"/>
</g>
<!-- ITF&#45;mET_Piezo -->
<g id="node22" class="node"><title>ITF&#45;mET_Piezo</title>
<ellipse fill="green" stroke="black" cx="495.791" cy="-234" rx="68.7879" ry="18"/>
<text text-anchor="middle" x="495.791" y="-230.3" font-family="Times,serif" font-size="14.00">ITF&#45;mET_Piezo</text>
</g>
<!-- ITF&#45;mET_Piezo&#45;&gt;cletus -->
<g id="edge56" class="edge"><title>ITF&#45;mET_Piezo&#45;&gt;cletus</title>
<path fill="none" stroke="black" d="M524.299,-217.465C553.481,-204.964 598.351,-187.605 631.955,-175.872"/>
<polygon fill="black" stroke="black" points="633.233,-179.134 641.551,-172.572 630.956,-172.514 633.233,-179.134"/>
</g>
<!-- ITF&#45;mET_Piezo&#45;&gt;cletus -->
<g id="edge62" class="edge"><title>ITF&#45;mET_Piezo&#45;&gt;cletus</title>
<path fill="none" stroke="black" d="M532.651,-218.666C561.515,-207.441 601.74,-191.798 632.201,-179.952"/>
<polygon fill="black" stroke="black" points="633.669,-183.136 641.721,-176.25 631.132,-176.612 633.669,-183.136"/>
</g>
<!-- ITF&#45;mET_Piezo&#45;&gt;cletus -->
<g id="edge63" class="edge"><title>ITF&#45;mET_Piezo&#45;&gt;cletus</title>
<path fill="none" stroke="black" d="M540.002,-219.998C568.965,-209.874 606.183,-195.62 634.523,-183.9"/>
<polygon fill="black" stroke="black" points="635.895,-187.12 643.77,-180.032 633.194,-180.662 635.895,-187.12"/>
</g>
<!-- ITF&#45;mEG_SPI -->
<g id="node25" class="node"><title>ITF&#45;mEG_SPI</title>
<ellipse fill="green" stroke="black" cx="1866.79" cy="-234" rx="63.0888" ry="18"/>
<text text-anchor="middle" x="1866.79" y="-230.3" font-family="Times,serif" font-size="14.00">ITF&#45;mEG_SPI</text>
</g>
<!-- goblin&#45;&gt;ITF&#45;mEG_SPI -->
<g id="edge85" class="edge"><title>goblin&#45;&gt;ITF&#45;mEG_SPI</title>
<path fill="none" stroke="black" d="M1860.88,-287.697C1860.08,-279.983 1859.85,-270.712 1860.2,-262.112"/>
<polygon fill="red" stroke="black" points="1863.69,-262.324 1860.9,-252.104 1856.71,-261.836 1863.69,-262.324"/>
</g>
<!-- ITF&#45;C_amplified_raw_signal -->
<g id="node24" class="node"><title>ITF&#45;C_amplified_raw_signal</title>
<ellipse fill="yellow" stroke="black" cx="1941.79" cy="-378" rx="114.28" ry="18"/>
<text text-anchor="middle" x="1941.79" y="-374.3" font-family="Times,serif" font-size="14.00">ITF&#45;C_amplified_raw_signal</text>
</g>
<!-- ITF&#45;C_amplified_raw_signal&#45;&gt;goblin -->
<g id="edge70" class="edge"><title>ITF&#45;C_amplified_raw_signal&#45;&gt;goblin</title>
<path fill="none" stroke="black" d="M1912.34,-360.411C1901.42,-351.946 1889.76,-341.472 1880.63,-332.049"/>
<polygon fill="black" stroke="black" points="1882.97,-329.43 1873.62,-324.447 1877.82,-334.173 1882.97,-329.43"/>
</g>
<!-- ITF&#45;C_amplified_raw_signal&#45;&gt;goblin -->
<g id="edge78" class="edge"><title>ITF&#45;C_amplified_raw_signal&#45;&gt;goblin</title>
<path fill="none" stroke="black" d="M1923.64,-360.055C1914.31,-351.349 1902.78,-340.591 1892.55,-331.043"/>
<polygon fill="black" stroke="black" points="1894.74,-328.296 1885.04,-324.032 1889.96,-333.414 1894.74,-328.296"/>
</g>
<!-- ITF&#45;C_amplified_raw_signal&#45;&gt;goblin -->
<g id="edge82" class="edge"><title>ITF&#45;C_amplified_raw_signal&#45;&gt;goblin</title>
<path fill="none" stroke="black" d="M1935.08,-359.697C1927.46,-350.881 1916.16,-340.032 1904.77,-330.474"/>
<polygon fill="black" stroke="black" points="1906.88,-327.68 1896.91,-324.104 1902.47,-333.119 1906.88,-327.68"/>
</g>
<!-- ITF&#45;mEG_SPI&#45;&gt;goblin -->
<g id="edge84" class="edge"><title>ITF&#45;mEG_SPI&#45;&gt;goblin</title>
<path fill="none" stroke="black" d="M1872.69,-252.104C1873.49,-259.791 1873.73,-269.054 1873.4,-277.665"/>
<polygon fill="black" stroke="black" points="1869.9,-277.48 1872.71,-287.697 1876.88,-277.96 1869.9,-277.48"/>
</g>
</g>
</svg>
