<?xml version="1.0" encoding="UTF-8" standalone="no"?>
<!DOCTYPE svg PUBLIC "-//W3C//DTD SVG 1.1//EN"
 "http://www.w3.org/Graphics/SVG/1.1/DTD/svg11.dtd">
<!-- Generated by graphviz version 2.38.0 (20140413.2041)
 -->
<!-- Title: %3 Pages: 1 -->
<svg width="1570pt" height="332pt"
 viewBox="0.00 0.00 1570.35 332.00" xmlns="http://www.w3.org/2000/svg" xmlns:xlink="http://www.w3.org/1999/xlink">
<g id="graph0" class="graph" transform="scale(1 1) rotate(0) translate(4 328)">
<title>%3</title>
<polygon fill="white" stroke="none" points="-4,4 -4,-328 1566.35,-328 1566.35,4 -4,4"/>
<!-- silent -->
<g id="node1" class="node"><title>silent</title>
<polygon fill="blue" stroke="black" points="442.345,-252 378.345,-252 378.345,-216 442.345,-216 442.345,-252"/>
<text text-anchor="middle" x="410.345" y="-228.4" font-family="Times,serif" font-size="22.00">silent</text>
</g>
<!-- ITF&#45;R_reserved -->
<g id="node5" class="node"><title>ITF&#45;R_reserved</title>
<ellipse fill="yellow" stroke="black" cx="393.345" cy="-162" rx="66.8882" ry="18"/>
<text text-anchor="middle" x="393.345" y="-158.3" font-family="Times,serif" font-size="14.00">ITF&#45;R_reserved</text>
</g>
<!-- silent&#45;&gt;ITF&#45;R_reserved -->
<g id="edge8" class="edge"><title>silent&#45;&gt;ITF&#45;R_reserved</title>
<path fill="none" stroke="black" d="M400.227,-215.697C397.558,-207.983 395.081,-198.712 393.335,-190.112"/>
<polygon fill="red" stroke="black" points="396.757,-189.362 391.604,-180.104 389.859,-190.554 396.757,-189.362"/>
</g>
<!-- ITF&#45;A_gnd -->
<g id="node2" class="node"><title>ITF&#45;A_gnd</title>
<ellipse fill="yellow" stroke="black" cx="497.345" cy="-306" rx="50.8918" ry="18"/>
<text text-anchor="middle" x="497.345" y="-302.3" font-family="Times,serif" font-size="14.00">ITF&#45;A_gnd</text>
</g>
<!-- ITF&#45;A_gnd&#45;&gt;silent -->
<g id="edge1" class="edge"><title>ITF&#45;A_gnd&#45;&gt;silent</title>
<path fill="none" stroke="black" d="M473.259,-290.155C460.739,-281.003 445.636,-269.061 433.293,-258.631"/>
<polygon fill="black" stroke="black" points="435.498,-255.911 425.635,-252.04 430.931,-261.216 435.498,-255.911"/>
</g>
<!-- ITF&#45;A_gnd&#45;&gt;silent -->
<g id="edge4" class="edge"><title>ITF&#45;A_gnd&#45;&gt;silent</title>
<path fill="none" stroke="black" d="M482.568,-288.411C472.416,-279.456 458.683,-268.254 445.87,-258.425"/>
<polygon fill="black" stroke="black" points="447.718,-255.435 437.629,-252.201 443.499,-261.021 447.718,-255.435"/>
</g>
<!-- croaker -->
<g id="node6" class="node"><title>croaker</title>
<polygon fill="blue" stroke="black" points="825.845,-252 742.845,-252 742.845,-216 825.845,-216 825.845,-252"/>
<text text-anchor="middle" x="784.345" y="-228.4" font-family="Times,serif" font-size="22.00">croaker</text>
</g>
<!-- ITF&#45;A_gnd&#45;&gt;croaker -->
<g id="edge9" class="edge"><title>ITF&#45;A_gnd&#45;&gt;croaker</title>
<path fill="none" stroke="black" d="M530.887,-292.478C536.361,-290.925 541.981,-289.395 547.345,-288 610.684,-271.525 684.562,-254.804 732.894,-244.666"/>
<polygon fill="black" stroke="black" points="733.728,-248.068 742.807,-242.605 732.303,-241.214 733.728,-248.068"/>
</g>
<!-- ITF&#45;A_gnd&#45;&gt;croaker -->
<g id="edge14" class="edge"><title>ITF&#45;A_gnd&#45;&gt;croaker</title>
<path fill="none" stroke="black" d="M538.404,-295.342C547.348,-292.859 556.68,-290.254 565.345,-288 622.449,-273.147 688.118,-258.094 732.627,-247.845"/>
<polygon fill="black" stroke="black" points="733.671,-251.196 742.629,-245.54 732.099,-244.375 733.671,-251.196"/>
</g>
<!-- mogaba -->
<g id="node12" class="node"><title>mogaba</title>
<polygon fill="blue" stroke="black" points="241.845,-252 154.845,-252 154.845,-216 241.845,-216 241.845,-252"/>
<text text-anchor="middle" x="198.345" y="-228.4" font-family="Times,serif" font-size="22.00">mogaba</text>
</g>
<!-- ITF&#45;A_gnd&#45;&gt;mogaba -->
<g id="edge27" class="edge"><title>ITF&#45;A_gnd&#45;&gt;mogaba</title>
<path fill="none" stroke="black" d="M459.346,-293.875C452.063,-291.845 444.484,-289.801 437.345,-288 374.058,-272.031 300.69,-256.148 252.113,-245.994"/>
<polygon fill="black" stroke="black" points="252.64,-242.529 242.136,-243.917 251.213,-249.382 252.64,-242.529"/>
</g>
<!-- goblin -->
<g id="node18" class="node"><title>goblin</title>
<polygon fill="blue" stroke="black" points="653.345,-108 579.345,-108 579.345,-72 653.345,-72 653.345,-108"/>
<text text-anchor="middle" x="616.345" y="-84.4" font-family="Times,serif" font-size="22.00">goblin</text>
</g>
<!-- ITF&#45;A_gnd&#45;&gt;goblin -->
<g id="edge33" class="edge"><title>ITF&#45;A_gnd&#45;&gt;goblin</title>
<path fill="none" stroke="black" d="M490.597,-287.736C485.045,-256.211 485.4,-188.484 516.345,-144 528.997,-125.814 550.059,-112.97 569.69,-104.485"/>
<polygon fill="black" stroke="black" points="571.202,-107.649 579.169,-100.665 568.586,-101.156 571.202,-107.649"/>
</g>
<!-- ITF&#45;A_gnd&#45;&gt;goblin -->
<g id="edge41" class="edge"><title>ITF&#45;A_gnd&#45;&gt;goblin</title>
<path fill="none" stroke="black" d="M501.121,-287.736C503.045,-256.211 503.4,-188.484 534.345,-144 543.424,-130.95 556.834,-120.65 570.233,-112.738"/>
<polygon fill="black" stroke="black" points="571.944,-115.791 578.99,-107.879 568.548,-109.67 571.944,-115.791"/>
</g>
<!-- ITF&#45;B_5v -->
<g id="node3" class="node"><title>ITF&#45;B_5v</title>
<ellipse fill="yellow" stroke="black" cx="382.345" cy="-306" rx="46.2923" ry="18"/>
<text text-anchor="middle" x="382.345" y="-302.3" font-family="Times,serif" font-size="14.00">ITF&#45;B_5v</text>
</g>
<!-- ITF&#45;B_5v&#45;&gt;silent -->
<g id="edge2" class="edge"><title>ITF&#45;B_5v&#45;&gt;silent</title>
<path fill="none" stroke="black" d="M383.351,-287.697C385.716,-279.728 389.353,-270.1 393.28,-261.264"/>
<polygon fill="black" stroke="black" points="396.501,-262.641 397.609,-252.104 390.172,-259.65 396.501,-262.641"/>
</g>
<!-- ITF&#45;B_5v&#45;&gt;silent -->
<g id="edge5" class="edge"><title>ITF&#45;B_5v&#45;&gt;silent</title>
<path fill="none" stroke="black" d="M394.821,-288.411C398.829,-280.539 402.924,-270.929 406.121,-262.042"/>
<polygon fill="black" stroke="black" points="409.477,-263.04 409.297,-252.447 402.832,-260.84 409.477,-263.04"/>
</g>
<!-- ITF&#45;B_5v&#45;&gt;croaker -->
<g id="edge10" class="edge"><title>ITF&#45;B_5v&#45;&gt;croaker</title>
<path fill="none" stroke="black" d="M412.296,-292.206C417.597,-290.662 423.085,-289.208 428.345,-288 534.841,-263.551 662.375,-247.351 732.331,-239.838"/>
<polygon fill="black" stroke="black" points="733.062,-243.281 742.639,-238.75 732.327,-236.319 733.062,-243.281"/>
</g>
<!-- ITF&#45;B_5v&#45;&gt;croaker -->
<g id="edge15" class="edge"><title>ITF&#45;B_5v&#45;&gt;croaker</title>
<path fill="none" stroke="black" d="M419.579,-295.276C428.387,-292.651 437.676,-289.99 446.345,-288 546.702,-264.96 665.742,-249.246 732.5,-241.224"/>
<polygon fill="black" stroke="black" points="733.239,-244.661 742.754,-240.002 732.411,-237.71 733.239,-244.661"/>
</g>
<!-- ITF&#45;B_5v&#45;&gt;mogaba -->
<g id="edge28" class="edge"><title>ITF&#45;B_5v&#45;&gt;mogaba</title>
<path fill="none" stroke="black" d="M350.295,-292.807C323.142,-282.477 283.648,-267.452 251.73,-255.309"/>
<polygon fill="black" stroke="black" points="252.68,-251.926 242.089,-251.642 250.191,-258.469 252.68,-251.926"/>
</g>
<!-- ITF&#45;B_5v&#45;&gt;goblin -->
<g id="edge34" class="edge"><title>ITF&#45;B_5v&#45;&gt;goblin</title>
<path fill="none" stroke="black" d="M361.835,-289.841C328.359,-259.24 270.486,-189.16 308.345,-144 340.678,-105.432 491.097,-94.9126 569.211,-92.0566"/>
<polygon fill="black" stroke="black" points="569.402,-95.5522 579.278,-91.7164 569.165,-88.5562 569.402,-95.5522"/>
</g>
<!-- ITF&#45;B_5v&#45;&gt;goblin -->
<g id="edge42" class="edge"><title>ITF&#45;B_5v&#45;&gt;goblin</title>
<path fill="none" stroke="black" d="M370.421,-288.16C344.317,-256.738 289.164,-188.352 326.345,-144 357.156,-107.247 495.2,-95.9649 569.26,-92.5129"/>
<polygon fill="black" stroke="black" points="569.43,-96.0089 579.268,-92.0759 569.124,-89.0155 569.43,-96.0089"/>
</g>
<!-- ITF&#45;J_pulse_off -->
<g id="node4" class="node"><title>ITF&#45;J_pulse_off</title>
<ellipse fill="yellow" stroke="black" cx="633.345" cy="-306" rx="67.6881" ry="18"/>
<text text-anchor="middle" x="633.345" y="-302.3" font-family="Times,serif" font-size="14.00">ITF&#45;J_pulse_off</text>
</g>
<!-- ITF&#45;J_pulse_off&#45;&gt;silent -->
<g id="edge3" class="edge"><title>ITF&#45;J_pulse_off&#45;&gt;silent</title>
<path fill="none" stroke="black" d="M588.162,-292.485C548.418,-280.573 491.156,-262.633 452.38,-249.969"/>
<polygon fill="black" stroke="black" points="453.046,-246.503 442.453,-246.708 450.861,-253.154 453.046,-246.503"/>
</g>
<!-- ITF&#45;J_pulse_off&#45;&gt;silent -->
<g id="edge6" class="edge"><title>ITF&#45;J_pulse_off&#45;&gt;silent</title>
<path fill="none" stroke="black" d="M594.792,-291.17C554.934,-278.103 493.099,-258.73 452.105,-246.49"/>
<polygon fill="black" stroke="black" points="452.996,-243.104 442.414,-243.616 451.006,-249.815 452.996,-243.104"/>
</g>
<!-- ITF&#45;J_pulse_off&#45;&gt;croaker -->
<g id="edge13" class="edge"><title>ITF&#45;J_pulse_off&#45;&gt;croaker</title>
<path fill="none" stroke="black" d="M661.137,-289.465C681.362,-279.544 709.193,-266.564 733.328,-255.764"/>
<polygon fill="black" stroke="black" points="735.001,-258.85 742.717,-251.59 732.158,-252.454 735.001,-258.85"/>
</g>
<!-- ITF&#45;J_pulse_off&#45;&gt;croaker -->
<g id="edge18" class="edge"><title>ITF&#45;J_pulse_off&#45;&gt;croaker</title>
<path fill="none" stroke="black" d="M669.838,-290.666C692.353,-280.822 721.153,-267.581 744.286,-256.482"/>
<polygon fill="black" stroke="black" points="746.013,-259.535 753.493,-252.032 742.967,-253.233 746.013,-259.535"/>
</g>
<!-- ITF&#45;R_reserved&#45;&gt;silent -->
<g id="edge7" class="edge"><title>ITF&#45;R_reserved&#45;&gt;silent</title>
<path fill="none" stroke="black" d="M403.394,-180.104C406.067,-187.791 408.552,-197.054 410.311,-205.665"/>
<polygon fill="black" stroke="black" points="406.894,-206.446 412.059,-215.697 413.79,-205.244 406.894,-206.446"/>
</g>
<!-- ITF&#45;R_reserved&#45;&gt;goblin -->
<g id="edge39" class="edge"><title>ITF&#45;R_reserved&#45;&gt;goblin</title>
<path fill="none" stroke="black" d="M431.899,-147.17C470.073,-134.655 528.405,-116.356 569.281,-104.079"/>
<polygon fill="black" stroke="black" points="570.435,-107.387 579.015,-101.172 568.431,-100.68 570.435,-107.387"/>
</g>
<!-- ITF&#45;R_reserved&#45;&gt;goblin -->
<g id="edge47" class="edge"><title>ITF&#45;R_reserved&#45;&gt;goblin</title>
<path fill="none" stroke="black" d="M438.26,-148.566C476.292,-137.17 530.506,-120.209 569.161,-107.646"/>
<polygon fill="black" stroke="black" points="570.709,-110.823 579.128,-104.391 568.535,-104.169 570.709,-110.823"/>
</g>
<!-- ITF&#45;mEC&#45;WiFi&#45;UDP&#45;Stream -->
<g id="node11" class="node"><title>ITF&#45;mEC&#45;WiFi&#45;UDP&#45;Stream</title>
<ellipse fill="green" stroke="black" cx="1234.35" cy="-162" rx="115.88" ry="18"/>
<text text-anchor="middle" x="1234.35" y="-158.3" font-family="Times,serif" font-size="14.00">ITF&#45;mEC&#45;WiFi&#45;UDP&#45;Stream</text>
</g>
<!-- croaker&#45;&gt;ITF&#45;mEC&#45;WiFi&#45;UDP&#45;Stream -->
<g id="edge22" class="edge"><title>croaker&#45;&gt;ITF&#45;mEC&#45;WiFi&#45;UDP&#45;Stream</title>
<path fill="none" stroke="black" d="M826.097,-225.838C897.903,-214.227 1046.1,-191.115 1142.83,-176.389"/>
<polygon fill="red" stroke="black" points="1143.54,-179.821 1152.9,-174.858 1142.49,-172.9 1143.54,-179.821"/>
</g>
<!-- ITF&#45;E_signal_envelope -->
<g id="node7" class="node"><title>ITF&#45;E_signal_envelope</title>
<ellipse fill="yellow" stroke="black" cx="1396.35" cy="-306" rx="93.6835" ry="18"/>
<text text-anchor="middle" x="1396.35" y="-302.3" font-family="Times,serif" font-size="14.00">ITF&#45;E_signal_envelope</text>
</g>
<!-- ITF&#45;E_signal_envelope&#45;&gt;croaker -->
<g id="edge11" class="edge"><title>ITF&#45;E_signal_envelope&#45;&gt;croaker</title>
<path fill="none" stroke="black" d="M1321.14,-295.264C1303.13,-292.781 1284.03,-290.196 1266.35,-288 1109.61,-268.536 924.216,-249.642 835.908,-240.575"/>
<polygon fill="black" stroke="black" points="836.189,-237.085 825.883,-239.544 835.473,-244.048 836.189,-237.085"/>
</g>
<!-- ITF&#45;E_signal_envelope&#45;&gt;croaker -->
<g id="edge16" class="edge"><title>ITF&#45;E_signal_envelope&#45;&gt;croaker</title>
<path fill="none" stroke="black" d="M1327.77,-293.748C1313.46,-291.751 1298.45,-289.752 1284.35,-288 1121.31,-267.753 927.256,-248.123 836.184,-239.529"/>
<polygon fill="black" stroke="black" points="836.404,-236.034 826.121,-238.585 835.751,-243.004 836.404,-236.034"/>
</g>
<!-- ITF&#45;E_signal_envelope&#45;&gt;goblin -->
<g id="edge38" class="edge"><title>ITF&#45;E_signal_envelope&#45;&gt;goblin</title>
<path fill="none" stroke="black" d="M1388.2,-287.87C1383.06,-254.367 1383.72,-180.279 1341.35,-144 1289.43,-99.552 816.625,-92.3711 663.567,-91.2182"/>
<polygon fill="black" stroke="black" points="663.556,-87.7181 653.532,-91.1479 663.507,-94.7179 663.556,-87.7181"/>
</g>
<!-- ITF&#45;E_signal_envelope&#45;&gt;goblin -->
<g id="edge46" class="edge"><title>ITF&#45;E_signal_envelope&#45;&gt;goblin</title>
<path fill="none" stroke="black" d="M1398.3,-287.87C1401.06,-254.367 1401.72,-180.279 1359.35,-144 1306.59,-98.8326 819.21,-92.1484 663.754,-91.1668"/>
<polygon fill="black" stroke="black" points="663.594,-87.6659 653.574,-91.1078 663.553,-94.6658 663.594,-87.6659"/>
</g>
<!-- ITF&#45;E_signal_envelope&#45;&gt;goblin -->
<g id="edge50" class="edge"><title>ITF&#45;E_signal_envelope&#45;&gt;goblin</title>
<path fill="none" stroke="black" d="M1408.33,-288.128C1419.06,-254.748 1419.83,-180.372 1377.35,-144 1323.81,-98.1646 822.699,-91.9591 663.963,-91.1269"/>
<polygon fill="black" stroke="black" points="663.59,-87.6252 653.573,-91.0776 663.557,-94.6251 663.59,-87.6252"/>
</g>
<!-- ITF&#45;I_pulse_on -->
<g id="node8" class="node"><title>ITF&#45;I_pulse_on</title>
<ellipse fill="yellow" stroke="black" cx="784.345" cy="-306" rx="65.7887" ry="18"/>
<text text-anchor="middle" x="784.345" y="-302.3" font-family="Times,serif" font-size="14.00">ITF&#45;I_pulse_on</text>
</g>
<!-- ITF&#45;I_pulse_on&#45;&gt;croaker -->
<g id="edge12" class="edge"><title>ITF&#45;I_pulse_on&#45;&gt;croaker</title>
<path fill="none" stroke="black" d="M778.467,-288.055C777.649,-280.346 777.407,-271.027 777.74,-262.364"/>
<polygon fill="black" stroke="black" points="781.24,-262.491 778.433,-252.275 774.256,-262.012 781.24,-262.491"/>
</g>
<!-- ITF&#45;I_pulse_on&#45;&gt;croaker -->
<g id="edge17" class="edge"><title>ITF&#45;I_pulse_on&#45;&gt;croaker</title>
<path fill="none" stroke="black" d="M790.224,-288.055C791.042,-280.346 791.284,-271.027 790.951,-262.364"/>
<polygon fill="black" stroke="black" points="794.435,-262.012 790.258,-252.275 787.451,-262.491 794.435,-262.012"/>
</g>
<!-- ITF&#45;mED&#45;TFT&#45;Screen -->
<g id="node9" class="node"><title>ITF&#45;mED&#45;TFT&#45;Screen</title>
<ellipse fill="green" stroke="black" cx="959.345" cy="-306" rx="90.9839" ry="18"/>
<text text-anchor="middle" x="959.345" y="-302.3" font-family="Times,serif" font-size="14.00">ITF&#45;mED&#45;TFT&#45;Screen</text>
</g>
<!-- ITF&#45;mED&#45;TFT&#45;Screen&#45;&gt;croaker -->
<g id="edge19" class="edge"><title>ITF&#45;mED&#45;TFT&#45;Screen&#45;&gt;croaker</title>
<path fill="none" stroke="black" d="M920.941,-289.638C895.83,-279.594 862.744,-266.359 835.424,-255.431"/>
<polygon fill="black" stroke="black" points="836.608,-252.136 826.023,-251.671 834.008,-258.635 836.608,-252.136"/>
</g>
<!-- ITF&#45;mED&#45;OLED&#45;Screen -->
<g id="node10" class="node"><title>ITF&#45;mED&#45;OLED&#45;Screen</title>
<ellipse fill="green" stroke="black" cx="1167.35" cy="-306" rx="98.5829" ry="18"/>
<text text-anchor="middle" x="1167.35" y="-302.3" font-family="Times,serif" font-size="14.00">ITF&#45;mED&#45;OLED&#45;Screen</text>
</g>
<!-- ITF&#45;mED&#45;OLED&#45;Screen&#45;&gt;croaker -->
<g id="edge20" class="edge"><title>ITF&#45;mED&#45;OLED&#45;Screen&#45;&gt;croaker</title>
<path fill="none" stroke="black" d="M1100.19,-292.727C1024.9,-278.965 904.407,-256.943 836.07,-244.454"/>
<polygon fill="black" stroke="black" points="836.438,-240.963 825.972,-242.608 835.179,-247.849 836.438,-240.963"/>
</g>
<!-- ITF&#45;mEC&#45;WiFi&#45;UDP&#45;Stream&#45;&gt;croaker -->
<g id="edge21" class="edge"><title>ITF&#45;mEC&#45;WiFi&#45;UDP&#45;Stream&#45;&gt;croaker</title>
<path fill="none" stroke="black" d="M1158.23,-175.67C1066.58,-190.265 915.243,-213.754 836.096,-225.625"/>
<polygon fill="black" stroke="black" points="835.257,-222.212 825.884,-227.152 836.292,-229.135 835.257,-222.212"/>
</g>
<!-- ITF&#45;S_3_3v -->
<g id="node15" class="node"><title>ITF&#45;S_3_3v</title>
<ellipse fill="yellow" stroke="black" cx="198.345" cy="-162" rx="53.8905" ry="18"/>
<text text-anchor="middle" x="198.345" y="-158.3" font-family="Times,serif" font-size="14.00">ITF&#45;S_3_3v</text>
</g>
<!-- mogaba&#45;&gt;ITF&#45;S_3_3v -->
<g id="edge31" class="edge"><title>mogaba&#45;&gt;ITF&#45;S_3_3v</title>
<path fill="none" stroke="black" d="M192.43,-215.697C191.634,-207.983 191.408,-198.712 191.75,-190.112"/>
<polygon fill="red" stroke="black" points="195.244,-190.324 192.45,-180.104 188.261,-189.836 195.244,-190.324"/>
</g>
<!-- ITF&#45;mEM_Alimentation -->
<g id="node13" class="node"><title>ITF&#45;mEM_Alimentation</title>
<ellipse fill="green" stroke="black" cx="219.345" cy="-306" rx="98.5829" ry="18"/>
<text text-anchor="middle" x="219.345" y="-302.3" font-family="Times,serif" font-size="14.00">ITF&#45;mEM_Alimentation</text>
</g>
<!-- ITF&#45;mEM_Alimentation&#45;&gt;mogaba -->
<g id="edge23" class="edge"><title>ITF&#45;mEM_Alimentation&#45;&gt;mogaba</title>
<path fill="none" stroke="black" d="M208.384,-288.055C205.218,-280.261 202.148,-270.822 199.875,-262.079"/>
<polygon fill="black" stroke="black" points="203.272,-261.233 197.615,-252.275 196.451,-262.806 203.272,-261.233"/>
</g>
<!-- ITF&#45;mEM_Alimentation&#45;&gt;mogaba -->
<g id="edge25" class="edge"><title>ITF&#45;mEM_Alimentation&#45;&gt;mogaba</title>
<path fill="none" stroke="black" d="M220.07,-287.697C218.518,-279.813 215.884,-270.304 212.881,-261.546"/>
<polygon fill="black" stroke="black" points="216.137,-260.258 209.372,-252.104 209.575,-262.697 216.137,-260.258"/>
</g>
<!-- ITF&#45;F_12V -->
<g id="node14" class="node"><title>ITF&#45;F_12V</title>
<ellipse fill="yellow" stroke="black" cx="51.3454" cy="-306" rx="51.1914" ry="18"/>
<text text-anchor="middle" x="51.3454" y="-302.3" font-family="Times,serif" font-size="14.00">ITF&#45;F_12V</text>
</g>
<!-- ITF&#45;F_12V&#45;&gt;mogaba -->
<g id="edge24" class="edge"><title>ITF&#45;F_12V&#45;&gt;mogaba</title>
<path fill="none" stroke="black" d="M72.5294,-289.465C91.7583,-279.143 120.122,-265.509 145.228,-254.465"/>
<polygon fill="black" stroke="black" points="146.884,-257.562 154.665,-250.371 144.098,-251.14 146.884,-257.562"/>
</g>
<!-- ITF&#45;F_12V&#45;&gt;mogaba -->
<g id="edge26" class="edge"><title>ITF&#45;F_12V&#45;&gt;mogaba</title>
<path fill="none" stroke="black" d="M80.7398,-291.003C101.525,-281.105 129.777,-267.652 153.381,-256.412"/>
<polygon fill="black" stroke="black" points="154.983,-259.526 162.506,-252.066 151.973,-253.206 154.983,-259.526"/>
</g>
<!-- ITF&#45;F_12V&#45;&gt;mogaba -->
<g id="edge29" class="edge"><title>ITF&#45;F_12V&#45;&gt;mogaba</title>
<path fill="none" stroke="black" d="M87.0997,-292.967C111.082,-283.028 141.946,-268.666 165.321,-256.724"/>
<polygon fill="black" stroke="black" points="166.939,-259.828 174.201,-252.113 163.713,-253.616 166.939,-259.828"/>
</g>
<!-- ITF&#45;S_3_3v&#45;&gt;mogaba -->
<g id="edge30" class="edge"><title>ITF&#45;S_3_3v&#45;&gt;mogaba</title>
<path fill="none" stroke="black" d="M204.24,-180.104C205.046,-187.791 205.282,-197.054 204.949,-205.665"/>
<polygon fill="black" stroke="black" points="201.454,-205.48 204.261,-215.697 208.438,-205.96 201.454,-205.48"/>
</g>
<!-- ITF&#45;S_3_3v&#45;&gt;goblin -->
<g id="edge35" class="edge"><title>ITF&#45;S_3_3v&#45;&gt;goblin</title>
<path fill="none" stroke="black" d="M235.416,-148.885C242.648,-147.129 250.186,-145.434 257.345,-144 367.969,-121.848 499.916,-104.212 569.038,-96.0067"/>
<polygon fill="black" stroke="black" points="569.651,-99.4589 579.175,-94.8182 568.835,-92.5066 569.651,-99.4589"/>
</g>
<!-- ITF&#45;S_3_3v&#45;&gt;goblin -->
<g id="edge43" class="edge"><title>ITF&#45;S_3_3v&#45;&gt;goblin</title>
<path fill="none" stroke="black" d="M242.468,-151.45C253.272,-148.829 264.726,-146.127 275.345,-144 379.736,-123.096 503.114,-106.214 569.193,-97.4827"/>
<polygon fill="black" stroke="black" points="569.837,-100.928 579.295,-96.152 568.923,-93.9881 569.837,-100.928"/>
</g>
<!-- doj -->
<g id="node16" class="node"><title>doj</title>
<polygon fill="blue" stroke="black" points="1562.35,-324 1508.35,-324 1508.35,-288 1562.35,-288 1562.35,-324"/>
<text text-anchor="middle" x="1535.35" y="-300.4" font-family="Times,serif" font-size="22.00">doj</text>
</g>
<g id="node17" class="node"><title></title>
<ellipse fill="none" stroke="black" cx="1535.35" cy="-234" rx="27" ry="18"/>
</g>
<!-- doj&#45;&gt; -->
<g id="edge32" class="edge"><title>doj&#45;&gt;</title>
<path fill="none" stroke="black" d="M1535.35,-287.697C1535.35,-279.983 1535.35,-270.712 1535.35,-262.112"/>
<polygon fill="red" stroke="black" points="1538.85,-262.104 1535.35,-252.104 1531.85,-262.104 1538.85,-262.104"/>
</g>
<!-- ITF&#45;mEG_SPI -->
<g id="node22" class="node"><title>ITF&#45;mEG_SPI</title>
<ellipse fill="green" stroke="black" cx="616.345" cy="-18" rx="63.0888" ry="18"/>
<text text-anchor="middle" x="616.345" y="-14.3" font-family="Times,serif" font-size="14.00">ITF&#45;mEG_SPI</text>
</g>
<!-- goblin&#45;&gt;ITF&#45;mEG_SPI -->
<g id="edge52" class="edge"><title>goblin&#45;&gt;ITF&#45;mEG_SPI</title>
<path fill="none" stroke="black" d="M610.43,-71.6966C609.634,-63.9827 609.408,-54.7125 609.75,-46.1124"/>
<polygon fill="red" stroke="black" points="613.244,-46.3243 610.45,-36.1043 606.261,-45.8356 613.244,-46.3243"/>
</g>
<!-- ITF&#45;G_gain_control -->
<g id="node19" class="node"><title>ITF&#45;G_gain_control</title>
<ellipse fill="yellow" stroke="black" cx="616.345" cy="-162" rx="81.7856" ry="18"/>
<text text-anchor="middle" x="616.345" y="-158.3" font-family="Times,serif" font-size="14.00">ITF&#45;G_gain_control</text>
</g>
<!-- ITF&#45;G_gain_control&#45;&gt;goblin -->
<g id="edge36" class="edge"><title>ITF&#45;G_gain_control&#45;&gt;goblin</title>
<path fill="none" stroke="black" d="M610.43,-143.697C609.634,-135.983 609.408,-126.712 609.75,-118.112"/>
<polygon fill="black" stroke="black" points="613.244,-118.324 610.45,-108.104 606.261,-117.836 613.244,-118.324"/>
</g>
<!-- ITF&#45;G_gain_control&#45;&gt;goblin -->
<g id="edge44" class="edge"><title>ITF&#45;G_gain_control&#45;&gt;goblin</title>
<path fill="none" stroke="black" d="M622.261,-143.697C623.057,-135.983 623.283,-126.712 622.941,-118.112"/>
<polygon fill="black" stroke="black" points="626.43,-117.836 622.24,-108.104 619.447,-118.324 626.43,-117.836"/>
</g>
<!-- ITF&#45;C_amplified_raw_signal -->
<g id="node20" class="node"><title>ITF&#45;C_amplified_raw_signal</title>
<ellipse fill="yellow" stroke="black" cx="830.345" cy="-162" rx="114.28" ry="18"/>
<text text-anchor="middle" x="830.345" y="-158.3" font-family="Times,serif" font-size="14.00">ITF&#45;C_amplified_raw_signal</text>
</g>
<!-- ITF&#45;C_amplified_raw_signal&#45;&gt;goblin -->
<g id="edge37" class="edge"><title>ITF&#45;C_amplified_raw_signal&#45;&gt;goblin</title>
<path fill="none" stroke="black" d="M773.973,-146.24C739.45,-135.808 696.054,-121.719 663.371,-110.381"/>
<polygon fill="black" stroke="black" points="664.188,-106.959 653.593,-106.958 661.875,-113.566 664.188,-106.959"/>
</g>
<!-- ITF&#45;C_amplified_raw_signal&#45;&gt;goblin -->
<g id="edge45" class="edge"><title>ITF&#45;C_amplified_raw_signal&#45;&gt;goblin</title>
<path fill="none" stroke="black" d="M783.117,-145.552C747.452,-133.885 698.741,-117.952 663.174,-106.318"/>
<polygon fill="black" stroke="black" points="664.105,-102.94 653.512,-103.157 661.928,-109.593 664.105,-102.94"/>
</g>
<!-- ITF&#45;C_amplified_raw_signal&#45;&gt;goblin -->
<g id="edge49" class="edge"><title>ITF&#45;C_amplified_raw_signal&#45;&gt;goblin</title>
<path fill="none" stroke="black" d="M792.811,-144.941C756.64,-132.157 702.447,-114.55 663.43,-102.978"/>
<polygon fill="black" stroke="black" points="663.938,-99.4797 653.357,-100.028 661.97,-106.197 663.938,-99.4797"/>
</g>
<!-- ITF&#45;mET_SMA -->
<g id="node21" class="node"><title>ITF&#45;mET_SMA</title>
<ellipse fill="green" stroke="black" cx="1031.35" cy="-162" rx="68.7879" ry="18"/>
<text text-anchor="middle" x="1031.35" y="-158.3" font-family="Times,serif" font-size="14.00">ITF&#45;mET_SMA</text>
</g>
<!-- ITF&#45;mET_SMA&#45;&gt;goblin -->
<g id="edge40" class="edge"><title>ITF&#45;mET_SMA&#45;&gt;goblin</title>
<path fill="none" stroke="black" d="M977.322,-150.662C966.362,-148.348 954.971,-145.992 944.345,-144 844.675,-125.318 727.581,-107.917 663.647,-98.4415"/>
<polygon fill="black" stroke="black" points="663.881,-94.938 653.475,-96.9337 662.854,-101.862 663.881,-94.938"/>
</g>
<!-- ITF&#45;mET_SMA&#45;&gt;goblin -->
<g id="edge48" class="edge"><title>ITF&#45;mET_SMA&#45;&gt;goblin</title>
<path fill="none" stroke="black" d="M984.949,-148.526C977.425,-146.932 969.701,-145.379 962.345,-144 856.392,-124.14 730.747,-105.729 663.737,-96.7454"/>
<polygon fill="black" stroke="black" points="663.871,-93.2326 653.497,-95.3858 662.95,-100.172 663.871,-93.2326"/>
</g>
<!-- ITF&#45;mEG_SPI&#45;&gt;goblin -->
<g id="edge51" class="edge"><title>ITF&#45;mEG_SPI&#45;&gt;goblin</title>
<path fill="none" stroke="black" d="M622.24,-36.1043C623.046,-43.7913 623.282,-53.0537 622.949,-61.6651"/>
<polygon fill="black" stroke="black" points="619.454,-61.4805 622.261,-71.6966 626.438,-61.9597 619.454,-61.4805"/>
</g>
</g>
</svg>
