<?xml version="1.0" encoding="UTF-8" standalone="no"?>
<!DOCTYPE svg PUBLIC "-//W3C//DTD SVG 1.1//EN"
 "http://www.w3.org/Graphics/SVG/1.1/DTD/svg11.dtd">
<!-- Generated by graphviz version 2.38.0 (20140413.2041)
 -->
<!-- Title: %3 Pages: 1 -->
<svg width="987pt" height="476pt"
 viewBox="0.00 0.00 986.69 476.00" xmlns="http://www.w3.org/2000/svg" xmlns:xlink="http://www.w3.org/1999/xlink">
<g id="graph0" class="graph" transform="scale(1 1) rotate(0) translate(4 472)">
<title>%3</title>
<polygon fill="white" stroke="none" points="-4,4 -4,-472 982.686,-472 982.686,4 -4,4"/>
<!-- kina -->
<g id="node1" class="node"><title>kina</title>
<polygon fill="blue" stroke="black" points="426.873,-252 371.873,-252 371.873,-216 426.873,-216 426.873,-252"/>
<text text-anchor="middle" x="399.373" y="-228.4" font-family="Times,serif" font-size="22.00">kina</text>
</g>
<!-- ITF&#45;I_pulse_on -->
<g id="node8" class="node"><title>ITF&#45;I_pulse_on</title>
<ellipse fill="yellow" stroke="black" cx="88.3731" cy="-162" rx="65.7887" ry="18"/>
<text text-anchor="middle" x="88.3731" y="-158.3" font-family="Times,serif" font-size="14.00">ITF&#45;I_pulse_on</text>
</g>
<!-- kina&#45;&gt;ITF&#45;I_pulse_on -->
<g id="edge8" class="edge"><title>kina&#45;&gt;ITF&#45;I_pulse_on</title>
<path fill="none" stroke="black" d="M371.583,-228.001C325.671,-218.652 232.116,-197.849 153.373,-180 149.926,-179.219 146.39,-178.414 142.83,-177.601"/>
<polygon fill="red" stroke="black" points="143.324,-174.123 132.794,-175.294 141.756,-180.945 143.324,-174.123"/>
</g>
<!-- ITF&#45;mEC&#45;WiFi&#45;UDP&#45;Stream -->
<g id="node9" class="node"><title>ITF&#45;mEC&#45;WiFi&#45;UDP&#45;Stream</title>
<ellipse fill="green" stroke="black" cx="287.373" cy="-162" rx="115.88" ry="18"/>
<text text-anchor="middle" x="287.373" y="-158.3" font-family="Times,serif" font-size="14.00">ITF&#45;mEC&#45;WiFi&#45;UDP&#45;Stream</text>
</g>
<!-- kina&#45;&gt;ITF&#45;mEC&#45;WiFi&#45;UDP&#45;Stream -->
<g id="edge6" class="edge"><title>kina&#45;&gt;ITF&#45;mEC&#45;WiFi&#45;UDP&#45;Stream</title>
<path fill="none" stroke="black" d="M371.975,-215.876C357.112,-206.587 338.575,-195.001 322.645,-185.045"/>
<polygon fill="red" stroke="black" points="324.437,-182.038 314.102,-179.706 320.727,-187.974 324.437,-182.038"/>
</g>
<!-- ITF&#45;mED&#45;TFT&#45;Screen -->
<g id="node10" class="node"><title>ITF&#45;mED&#45;TFT&#45;Screen</title>
<ellipse fill="green" stroke="black" cx="512.373" cy="-162" rx="90.9839" ry="18"/>
<text text-anchor="middle" x="512.373" y="-158.3" font-family="Times,serif" font-size="14.00">ITF&#45;mED&#45;TFT&#45;Screen</text>
</g>
<!-- kina&#45;&gt;ITF&#45;mED&#45;TFT&#45;Screen -->
<g id="edge7" class="edge"><title>kina&#45;&gt;ITF&#45;mED&#45;TFT&#45;Screen</title>
<path fill="none" stroke="black" d="M427.016,-215.876C442.122,-206.519 460.989,-194.831 477.141,-184.825"/>
<polygon fill="red" stroke="black" points="479.136,-187.707 485.794,-179.465 475.449,-181.756 479.136,-187.707"/>
</g>
<!-- ITF&#45;J_pulse_off -->
<g id="node11" class="node"><title>ITF&#45;J_pulse_off</title>
<ellipse fill="yellow" stroke="black" cx="689.373" cy="-162" rx="67.6881" ry="18"/>
<text text-anchor="middle" x="689.373" y="-158.3" font-family="Times,serif" font-size="14.00">ITF&#45;J_pulse_off</text>
</g>
<!-- kina&#45;&gt;ITF&#45;J_pulse_off -->
<g id="edge9" class="edge"><title>kina&#45;&gt;ITF&#45;J_pulse_off</title>
<path fill="none" stroke="black" d="M426.917,-226.351C473.524,-215.101 568.913,-192.077 630.948,-177.103"/>
<polygon fill="red" stroke="black" points="632.085,-180.429 640.984,-174.68 630.442,-173.624 632.085,-180.429"/>
</g>
<!-- ITF&#45;N_cc_motor_pwm -->
<g id="node12" class="node"><title>ITF&#45;N_cc_motor_pwm</title>
<ellipse fill="yellow" stroke="black" cx="868.373" cy="-162" rx="93.6835" ry="18"/>
<text text-anchor="middle" x="868.373" y="-158.3" font-family="Times,serif" font-size="14.00">ITF&#45;N_cc_motor_pwm</text>
</g>
<!-- kina&#45;&gt;ITF&#45;N_cc_motor_pwm -->
<g id="edge10" class="edge"><title>kina&#45;&gt;ITF&#45;N_cc_motor_pwm</title>
<path fill="none" stroke="black" d="M427.027,-229.216C488.238,-220.793 639.786,-199.687 766.373,-180 774.255,-178.774 782.474,-177.462 790.675,-176.13"/>
<polygon fill="red" stroke="black" points="791.342,-179.567 800.646,-174.5 790.213,-172.659 791.342,-179.567"/>
</g>
<!-- silent -->
<g id="node2" class="node"><title>silent</title>
<polygon fill="blue" stroke="black" points="721.373,-108 657.373,-108 657.373,-72 721.373,-72 721.373,-108"/>
<text text-anchor="middle" x="689.373" y="-84.4" font-family="Times,serif" font-size="22.00">silent</text>
</g>
<!-- ITF&#45;R_reserved -->
<g id="node13" class="node"><title>ITF&#45;R_reserved</title>
<ellipse fill="yellow" stroke="black" cx="689.373" cy="-18" rx="66.8882" ry="18"/>
<text text-anchor="middle" x="689.373" y="-14.3" font-family="Times,serif" font-size="14.00">ITF&#45;R_reserved</text>
</g>
<!-- silent&#45;&gt;ITF&#45;R_reserved -->
<g id="edge14" class="edge"><title>silent&#45;&gt;ITF&#45;R_reserved</title>
<path fill="none" stroke="black" d="M689.373,-71.6966C689.373,-63.9827 689.373,-54.7125 689.373,-46.1124"/>
<polygon fill="red" stroke="black" points="692.873,-46.1043 689.373,-36.1043 685.873,-46.1044 692.873,-46.1043"/>
</g>
<!-- mogaba -->
<g id="node3" class="node"><title>mogaba</title>
<polygon fill="blue" stroke="black" points="683.873,-396 596.873,-396 596.873,-360 683.873,-360 683.873,-396"/>
<text text-anchor="middle" x="640.373" y="-372.4" font-family="Times,serif" font-size="22.00">mogaba</text>
</g>
<!-- ITF&#45;A_gnd -->
<g id="node4" class="node"><title>ITF&#45;A_gnd</title>
<ellipse fill="yellow" stroke="black" cx="193.373" cy="-306" rx="50.8918" ry="18"/>
<text text-anchor="middle" x="193.373" y="-302.3" font-family="Times,serif" font-size="14.00">ITF&#45;A_gnd</text>
</g>
<!-- mogaba&#45;&gt;ITF&#45;A_gnd -->
<g id="edge17" class="edge"><title>mogaba&#45;&gt;ITF&#45;A_gnd</title>
<path fill="none" stroke="black" d="M596.795,-373.041C524.789,-366.051 376.673,-349.778 253.373,-324 249.023,-323.091 244.526,-322.036 240.04,-320.905"/>
<polygon fill="red" stroke="black" points="240.861,-317.503 230.299,-318.338 239.077,-324.271 240.861,-317.503"/>
</g>
<!-- ITF&#45;B_5v -->
<g id="node5" class="node"><title>ITF&#45;B_5v</title>
<ellipse fill="yellow" stroke="black" cx="640.373" cy="-306" rx="46.2923" ry="18"/>
<text text-anchor="middle" x="640.373" y="-302.3" font-family="Times,serif" font-size="14.00">ITF&#45;B_5v</text>
</g>
<!-- mogaba&#45;&gt;ITF&#45;B_5v -->
<g id="edge18" class="edge"><title>mogaba&#45;&gt;ITF&#45;B_5v</title>
<path fill="none" stroke="black" d="M640.373,-359.697C640.373,-351.983 640.373,-342.712 640.373,-334.112"/>
<polygon fill="red" stroke="black" points="643.873,-334.104 640.373,-324.104 636.873,-334.104 643.873,-334.104"/>
</g>
<!-- ITF&#45;S_3_3v -->
<g id="node6" class="node"><title>ITF&#45;S_3_3v</title>
<ellipse fill="yellow" stroke="black" cx="316.373" cy="-306" rx="53.8905" ry="18"/>
<text text-anchor="middle" x="316.373" y="-302.3" font-family="Times,serif" font-size="14.00">ITF&#45;S_3_3v</text>
</g>
<!-- mogaba&#45;&gt;ITF&#45;S_3_3v -->
<g id="edge20" class="edge"><title>mogaba&#45;&gt;ITF&#45;S_3_3v</title>
<path fill="none" stroke="black" d="M596.779,-369.021C544.808,-359.307 455.421,-341.963 379.373,-324 375.039,-322.976 370.55,-321.866 366.056,-320.72"/>
<polygon fill="red" stroke="black" points="366.829,-317.304 356.269,-318.174 365.066,-324.079 366.829,-317.304"/>
</g>
<!-- ITF&#45;F_12V -->
<g id="node15" class="node"><title>ITF&#45;F_12V</title>
<ellipse fill="yellow" stroke="black" cx="755.373" cy="-306" rx="51.1914" ry="18"/>
<text text-anchor="middle" x="755.373" y="-302.3" font-family="Times,serif" font-size="14.00">ITF&#45;F_12V</text>
</g>
<!-- mogaba&#45;&gt;ITF&#45;F_12V -->
<g id="edge19" class="edge"><title>mogaba&#45;&gt;ITF&#45;F_12V</title>
<path fill="none" stroke="black" d="M662.608,-359.876C678.339,-349.65 699.648,-336.64 717.933,-326.085"/>
<polygon fill="red" stroke="black" points="719.678,-329.119 726.628,-321.123 716.208,-323.039 719.678,-329.119"/>
</g>
<!-- ITF&#45;A_gnd&#45;&gt;kina -->
<g id="edge1" class="edge"><title>ITF&#45;A_gnd&#45;&gt;kina</title>
<path fill="none" stroke="black" d="M228.786,-292.967C265.957,-280.336 324.154,-260.56 362.033,-247.688"/>
<polygon fill="black" stroke="black" points="363.329,-250.945 371.671,-244.413 361.077,-244.317 363.329,-250.945"/>
</g>
<!-- ITF&#45;A_gnd&#45;&gt;silent -->
<g id="edge11" class="edge"><title>ITF&#45;A_gnd&#45;&gt;silent</title>
<path fill="none" stroke="black" d="M159.151,-292.557C92.7341,-266.658 -42.4171,-204.336 13.3731,-144 56.4033,-97.4641 505.444,-91.7167 646.928,-91.0646"/>
<polygon fill="black" stroke="black" points="646.975,-94.5646 656.961,-91.0247 646.947,-87.5646 646.975,-94.5646"/>
</g>
<!-- ITF&#45;B_5v&#45;&gt;kina -->
<g id="edge2" class="edge"><title>ITF&#45;B_5v&#45;&gt;kina</title>
<path fill="none" stroke="black" d="M605.494,-294.092C598.823,-292.041 591.888,-289.935 585.373,-288 534.18,-272.797 474.804,-256.027 437.172,-245.506"/>
<polygon fill="black" stroke="black" points="437.733,-242.028 427.16,-242.71 435.85,-248.77 437.733,-242.028"/>
</g>
<!-- ITF&#45;B_5v&#45;&gt;silent -->
<g id="edge12" class="edge"><title>ITF&#45;B_5v&#45;&gt;silent</title>
<path fill="none" stroke="black" d="M675.383,-294.255C756.874,-268.905 953.69,-205.58 971.373,-180 980.471,-166.839 981.589,-156.314 971.373,-144 941.423,-107.896 802.918,-96.2294 731.789,-92.584"/>
<polygon fill="black" stroke="black" points="731.547,-89.0684 721.391,-92.0838 731.211,-96.0603 731.547,-89.0684"/>
</g>
<!-- ITF&#45;S_3_3v&#45;&gt;kina -->
<g id="edge3" class="edge"><title>ITF&#45;S_3_3v&#45;&gt;kina</title>
<path fill="none" stroke="black" d="M335.207,-289.116C345.855,-280.136 359.375,-268.734 371.256,-258.714"/>
<polygon fill="black" stroke="black" points="373.776,-261.167 379.164,-252.044 369.263,-255.816 373.776,-261.167"/>
</g>
<!-- ITF&#45;E_signal_envelope -->
<g id="node7" class="node"><title>ITF&#45;E_signal_envelope</title>
<ellipse fill="yellow" stroke="black" cx="482.373" cy="-306" rx="93.6835" ry="18"/>
<text text-anchor="middle" x="482.373" y="-302.3" font-family="Times,serif" font-size="14.00">ITF&#45;E_signal_envelope</text>
</g>
<!-- ITF&#45;E_signal_envelope&#45;&gt;kina -->
<g id="edge4" class="edge"><title>ITF&#45;E_signal_envelope&#45;&gt;kina</title>
<path fill="none" stroke="black" d="M462.281,-288.055C451.756,-279.179 438.702,-268.169 427.217,-258.483"/>
<polygon fill="black" stroke="black" points="429.469,-255.803 419.568,-252.032 424.956,-261.154 429.469,-255.803"/>
</g>
<!-- ITF&#45;I_pulse_on&#45;&gt;kina -->
<g id="edge5" class="edge"><title>ITF&#45;I_pulse_on&#45;&gt;kina</title>
<path fill="none" stroke="black" d="M140.552,-173.02C150.835,-175.324 161.474,-177.756 171.373,-180 238.513,-195.219 316.421,-212.585 361.713,-223.168"/>
<polygon fill="black" stroke="black" points="361.146,-226.63 371.682,-225.514 362.75,-219.816 361.146,-226.63"/>
</g>
<!-- ITF&#45;J_pulse_off&#45;&gt;silent -->
<g id="edge13" class="edge"><title>ITF&#45;J_pulse_off&#45;&gt;silent</title>
<path fill="none" stroke="black" d="M689.373,-143.697C689.373,-135.983 689.373,-126.712 689.373,-118.112"/>
<polygon fill="black" stroke="black" points="692.873,-118.104 689.373,-108.104 685.873,-118.104 692.873,-118.104"/>
</g>
<!-- ITF&#45;mEM_Alimentation -->
<g id="node14" class="node"><title>ITF&#45;mEM_Alimentation</title>
<ellipse fill="green" stroke="black" cx="640.373" cy="-450" rx="98.5829" ry="18"/>
<text text-anchor="middle" x="640.373" y="-446.3" font-family="Times,serif" font-size="14.00">ITF&#45;mEM_Alimentation</text>
</g>
<!-- ITF&#45;mEM_Alimentation&#45;&gt;mogaba -->
<g id="edge15" class="edge"><title>ITF&#45;mEM_Alimentation&#45;&gt;mogaba</title>
<path fill="none" stroke="black" d="M640.373,-431.697C640.373,-423.983 640.373,-414.712 640.373,-406.112"/>
<polygon fill="black" stroke="black" points="643.873,-406.104 640.373,-396.104 636.873,-406.104 643.873,-406.104"/>
</g>
<!-- ITF&#45;F_12V&#45;&gt;mogaba -->
<g id="edge16" class="edge"><title>ITF&#45;F_12V&#45;&gt;mogaba</title>
<path fill="none" stroke="black" d="M735.243,-322.75C720.892,-332.153 701.225,-344.245 683.473,-354.627"/>
<polygon fill="black" stroke="black" points="681.304,-351.838 674.402,-359.876 684.811,-357.896 681.304,-351.838"/>
</g>
</g>
</svg>
