<?xml version="1.0" encoding="UTF-8" standalone="no"?>
<!DOCTYPE svg PUBLIC "-//W3C//DTD SVG 1.1//EN"
 "http://www.w3.org/Graphics/SVG/1.1/DTD/svg11.dtd">
<!-- Generated by graphviz version 2.38.0 (20140413.2041)
 -->
<!-- Title: %3 Pages: 1 -->
<svg width="1022pt" height="476pt"
 viewBox="0.00 0.00 1021.55 476.00" xmlns="http://www.w3.org/2000/svg" xmlns:xlink="http://www.w3.org/1999/xlink">
<g id="graph0" class="graph" transform="scale(1 1) rotate(0) translate(4 472)">
<title>%3</title>
<polygon fill="white" stroke="none" points="-4,4 -4,-472 1017.55,-472 1017.55,4 -4,4"/>
<!-- kina -->
<g id="node1" class="node"><title>kina</title>
<polygon fill="blue" stroke="black" points="451.685,-252 396.685,-252 396.685,-216 451.685,-216 451.685,-252"/>
<text text-anchor="middle" x="424.185" y="-228.4" font-family="Times,serif" font-size="22.00">kina</text>
</g>
<!-- ITF&#45;I_pulse_on -->
<g id="node8" class="node"><title>ITF&#45;I_pulse_on</title>
<ellipse fill="yellow" stroke="black" cx="349.185" cy="-162" rx="65.7887" ry="18"/>
<text text-anchor="middle" x="349.185" y="-158.3" font-family="Times,serif" font-size="14.00">ITF&#45;I_pulse_on</text>
</g>
<!-- kina&#45;&gt;ITF&#45;I_pulse_on -->
<g id="edge8" class="edge"><title>kina&#45;&gt;ITF&#45;I_pulse_on</title>
<path fill="none" stroke="black" d="M399.73,-215.697C389.674,-207.135 378.265,-196.656 368.764,-187.304"/>
<polygon fill="red" stroke="black" points="371.146,-184.735 361.616,-180.104 366.178,-189.667 371.146,-184.735"/>
</g>
<!-- ITF&#45;mEC&#45;WiFi&#45;UDP&#45;Stream -->
<g id="node9" class="node"><title>ITF&#45;mEC&#45;WiFi&#45;UDP&#45;Stream</title>
<ellipse fill="green" stroke="black" cx="150.185" cy="-162" rx="115.88" ry="18"/>
<text text-anchor="middle" x="150.185" y="-158.3" font-family="Times,serif" font-size="14.00">ITF&#45;mEC&#45;WiFi&#45;UDP&#45;Stream</text>
</g>
<!-- kina&#45;&gt;ITF&#45;mEC&#45;WiFi&#45;UDP&#45;Stream -->
<g id="edge6" class="edge"><title>kina&#45;&gt;ITF&#45;mEC&#45;WiFi&#45;UDP&#45;Stream</title>
<path fill="none" stroke="black" d="M396.659,-225.968C355.094,-215.349 275.057,-194.902 217.451,-180.185"/>
<polygon fill="red" stroke="black" points="218.245,-176.775 207.69,-177.691 216.512,-183.557 218.245,-176.775"/>
</g>
<!-- ITF&#45;mED&#45;TFT&#45;Screen -->
<g id="node10" class="node"><title>ITF&#45;mED&#45;TFT&#45;Screen</title>
<ellipse fill="green" stroke="black" cx="677.185" cy="-162" rx="90.9839" ry="18"/>
<text text-anchor="middle" x="677.185" y="-158.3" font-family="Times,serif" font-size="14.00">ITF&#45;mED&#45;TFT&#45;Screen</text>
</g>
<!-- kina&#45;&gt;ITF&#45;mED&#45;TFT&#45;Screen -->
<g id="edge7" class="edge"><title>kina&#45;&gt;ITF&#45;mED&#45;TFT&#45;Screen</title>
<path fill="none" stroke="black" d="M451.742,-225.376C491.086,-214.49 564.377,-194.212 616.715,-179.731"/>
<polygon fill="red" stroke="black" points="617.854,-183.047 626.558,-177.007 615.987,-176.301 617.854,-183.047"/>
</g>
<!-- ITF&#45;J_pulse_off -->
<g id="node11" class="node"><title>ITF&#45;J_pulse_off</title>
<ellipse fill="yellow" stroke="black" cx="500.185" cy="-162" rx="67.6881" ry="18"/>
<text text-anchor="middle" x="500.185" y="-158.3" font-family="Times,serif" font-size="14.00">ITF&#45;J_pulse_off</text>
</g>
<!-- kina&#45;&gt;ITF&#45;J_pulse_off -->
<g id="edge9" class="edge"><title>kina&#45;&gt;ITF&#45;J_pulse_off</title>
<path fill="none" stroke="black" d="M442.972,-215.697C452.57,-206.857 464.386,-195.973 474.784,-186.396"/>
<polygon fill="red" stroke="black" points="477.414,-188.732 482.398,-179.383 472.672,-183.583 477.414,-188.732"/>
</g>
<!-- ITF&#45;N_cc_motor_pwm -->
<g id="node12" class="node"><title>ITF&#45;N_cc_motor_pwm</title>
<ellipse fill="yellow" stroke="black" cx="880.185" cy="-162" rx="93.6835" ry="18"/>
<text text-anchor="middle" x="880.185" y="-158.3" font-family="Times,serif" font-size="14.00">ITF&#45;N_cc_motor_pwm</text>
</g>
<!-- kina&#45;&gt;ITF&#45;N_cc_motor_pwm -->
<g id="edge10" class="edge"><title>kina&#45;&gt;ITF&#45;N_cc_motor_pwm</title>
<path fill="none" stroke="black" d="M452.121,-228.947C511.828,-220.253 656.283,-199.053 777.185,-180 785.292,-178.722 793.753,-177.365 802.19,-175.996"/>
<polygon fill="red" stroke="black" points="802.754,-179.45 812.061,-174.387 801.628,-172.541 802.754,-179.45"/>
</g>
<!-- silent -->
<g id="node2" class="node"><title>silent</title>
<polygon fill="blue" stroke="black" points="456.185,-108 392.185,-108 392.185,-72 456.185,-72 456.185,-108"/>
<text text-anchor="middle" x="424.185" y="-84.4" font-family="Times,serif" font-size="22.00">silent</text>
</g>
<!-- ITF&#45;E_signal_envelope -->
<g id="node7" class="node"><title>ITF&#45;E_signal_envelope</title>
<ellipse fill="yellow" stroke="black" cx="713.185" cy="-18" rx="93.6835" ry="18"/>
<text text-anchor="middle" x="713.185" y="-14.3" font-family="Times,serif" font-size="14.00">ITF&#45;E_signal_envelope</text>
</g>
<!-- silent&#45;&gt;ITF&#45;E_signal_envelope -->
<g id="edge16" class="edge"><title>silent&#45;&gt;ITF&#45;E_signal_envelope</title>
<path fill="none" stroke="black" d="M456.218,-81.2413C502.227,-70.0971 588.048,-49.31 647.792,-34.8393"/>
<polygon fill="red" stroke="black" points="648.62,-38.2399 657.515,-32.4841 646.972,-31.4366 648.62,-38.2399"/>
</g>
<!-- mogaba -->
<g id="node3" class="node"><title>mogaba</title>
<polygon fill="blue" stroke="black" points="524.685,-396 437.685,-396 437.685,-360 524.685,-360 524.685,-396"/>
<text text-anchor="middle" x="481.185" y="-372.4" font-family="Times,serif" font-size="22.00">mogaba</text>
</g>
<!-- ITF&#45;A_gnd -->
<g id="node4" class="node"><title>ITF&#45;A_gnd</title>
<ellipse fill="yellow" stroke="black" cx="481.185" cy="-306" rx="50.8918" ry="18"/>
<text text-anchor="middle" x="481.185" y="-302.3" font-family="Times,serif" font-size="14.00">ITF&#45;A_gnd</text>
</g>
<!-- mogaba&#45;&gt;ITF&#45;A_gnd -->
<g id="edge19" class="edge"><title>mogaba&#45;&gt;ITF&#45;A_gnd</title>
<path fill="none" stroke="black" d="M481.185,-359.697C481.185,-351.983 481.185,-342.712 481.185,-334.112"/>
<polygon fill="red" stroke="black" points="484.685,-334.104 481.185,-324.104 477.685,-334.104 484.685,-334.104"/>
</g>
<!-- ITF&#45;B_5v -->
<g id="node5" class="node"><title>ITF&#45;B_5v</title>
<ellipse fill="yellow" stroke="black" cx="366.185" cy="-306" rx="46.2923" ry="18"/>
<text text-anchor="middle" x="366.185" y="-302.3" font-family="Times,serif" font-size="14.00">ITF&#45;B_5v</text>
</g>
<!-- mogaba&#45;&gt;ITF&#45;B_5v -->
<g id="edge20" class="edge"><title>mogaba&#45;&gt;ITF&#45;B_5v</title>
<path fill="none" stroke="black" d="M453.053,-359.876C436.632,-349.881 415.843,-337.226 398.719,-326.803"/>
<polygon fill="red" stroke="black" points="400.503,-323.792 390.141,-321.582 396.863,-329.771 400.503,-323.792"/>
</g>
<!-- ITF&#45;S_3_3v -->
<g id="node6" class="node"><title>ITF&#45;S_3_3v</title>
<ellipse fill="yellow" stroke="black" cx="248.185" cy="-306" rx="53.8905" ry="18"/>
<text text-anchor="middle" x="248.185" y="-302.3" font-family="Times,serif" font-size="14.00">ITF&#45;S_3_3v</text>
</g>
<!-- mogaba&#45;&gt;ITF&#45;S_3_3v -->
<g id="edge22" class="edge"><title>mogaba&#45;&gt;ITF&#45;S_3_3v</title>
<path fill="none" stroke="black" d="M437.633,-363.916C397.515,-351.863 338.084,-334.008 296.517,-321.52"/>
<polygon fill="red" stroke="black" points="297.467,-318.151 286.883,-318.626 295.453,-324.855 297.467,-318.151"/>
</g>
<!-- ITF&#45;F_12V -->
<g id="node14" class="node"><title>ITF&#45;F_12V</title>
<ellipse fill="yellow" stroke="black" cx="601.185" cy="-306" rx="51.1914" ry="18"/>
<text text-anchor="middle" x="601.185" y="-302.3" font-family="Times,serif" font-size="14.00">ITF&#45;F_12V</text>
</g>
<!-- mogaba&#45;&gt;ITF&#45;F_12V -->
<g id="edge21" class="edge"><title>mogaba&#45;&gt;ITF&#45;F_12V</title>
<path fill="none" stroke="black" d="M504.644,-359.876C521.292,-349.533 543.85,-336.344 563.031,-325.725"/>
<polygon fill="red" stroke="black" points="564.762,-328.768 571.853,-320.895 561.4,-322.628 564.762,-328.768"/>
</g>
<!-- ITF&#45;A_gnd&#45;&gt;kina -->
<g id="edge1" class="edge"><title>ITF&#45;A_gnd&#45;&gt;kina</title>
<path fill="none" stroke="black" d="M467.677,-288.411C460.853,-280.031 452.426,-269.682 444.813,-260.332"/>
<polygon fill="black" stroke="black" points="447.42,-257.991 438.392,-252.447 441.992,-262.411 447.42,-257.991"/>
</g>
<!-- ITF&#45;A_gnd&#45;&gt;silent -->
<g id="edge11" class="edge"><title>ITF&#45;A_gnd&#45;&gt;silent</title>
<path fill="none" stroke="black" d="M519.217,-293.999C526.496,-291.957 534.067,-289.878 541.185,-288 740.961,-235.31 1122.21,-296.832 983.185,-144 948.567,-105.944 590.941,-94.6117 466.551,-91.8072"/>
<polygon fill="black" stroke="black" points="466.357,-88.3023 456.283,-91.5833 466.204,-95.3006 466.357,-88.3023"/>
</g>
<!-- ITF&#45;B_5v&#45;&gt;kina -->
<g id="edge2" class="edge"><title>ITF&#45;B_5v&#45;&gt;kina</title>
<path fill="none" stroke="black" d="M379.638,-288.765C386.749,-280.182 395.631,-269.462 403.589,-259.858"/>
<polygon fill="black" stroke="black" points="406.312,-262.057 409.997,-252.124 400.922,-257.591 406.312,-262.057"/>
</g>
<!-- ITF&#45;B_5v&#45;&gt;silent -->
<g id="edge12" class="edge"><title>ITF&#45;B_5v&#45;&gt;silent</title>
<path fill="none" stroke="black" d="M332.078,-293.671C247.538,-265.434 34.4377,-193.246 25.1854,-180 16.0232,-166.883 14.6428,-156.036 25.1854,-144 48.4532,-117.437 283.734,-99.7789 381.715,-93.5239"/>
<polygon fill="black" stroke="black" points="382.101,-97.0066 391.862,-92.8857 381.662,-90.0204 382.101,-97.0066"/>
</g>
<!-- ITF&#45;S_3_3v&#45;&gt;kina -->
<g id="edge3" class="edge"><title>ITF&#45;S_3_3v&#45;&gt;kina</title>
<path fill="none" stroke="black" d="M281.704,-291.669C311.763,-279.714 355.803,-262.198 386.95,-249.81"/>
<polygon fill="black" stroke="black" points="388.576,-252.929 396.575,-245.981 385.989,-246.425 388.576,-252.929"/>
</g>
<!-- ITF&#45;S_3_3v&#45;&gt;silent -->
<g id="edge13" class="edge"><title>ITF&#45;S_3_3v&#45;&gt;silent</title>
<path fill="none" stroke="black" d="M205.772,-294.745C122.314,-272.687 -49.7893,-216.777 14.1854,-144 38.2415,-116.634 282.104,-99.3351 381.928,-93.351"/>
<polygon fill="black" stroke="black" points="382.192,-96.8416 391.969,-92.7583 381.78,-89.8538 382.192,-96.8416"/>
</g>
<!-- ITF&#45;E_signal_envelope&#45;&gt;kina -->
<g id="edge4" class="edge"><title>ITF&#45;E_signal_envelope&#45;&gt;kina</title>
<path fill="none" stroke="black" d="M776.423,-31.3302C876.138,-53.3967 1051.86,-104.506 983.185,-180 948.124,-218.543 581.74,-229.674 461.893,-232.296"/>
<polygon fill="black" stroke="black" points="461.656,-228.8 451.732,-232.511 461.804,-235.799 461.656,-228.8"/>
</g>
<!-- ITF&#45;I_pulse_on&#45;&gt;kina -->
<g id="edge5" class="edge"><title>ITF&#45;I_pulse_on&#45;&gt;kina</title>
<path fill="none" stroke="black" d="M371.992,-178.907C382.361,-187.646 394.411,-198.672 404.393,-208.486"/>
<polygon fill="black" stroke="black" points="402.029,-211.072 411.562,-215.697 406.994,-206.137 402.029,-211.072"/>
</g>
<!-- ITF&#45;I_pulse_on&#45;&gt;silent -->
<g id="edge14" class="edge"><title>ITF&#45;I_pulse_on&#45;&gt;silent</title>
<path fill="none" stroke="black" d="M366.959,-144.411C376.279,-135.712 387.872,-124.893 398.181,-115.271"/>
<polygon fill="black" stroke="black" points="400.833,-117.583 405.756,-108.201 396.057,-112.465 400.833,-117.583"/>
</g>
<!-- ITF&#45;J_pulse_off&#45;&gt;silent -->
<g id="edge15" class="edge"><title>ITF&#45;J_pulse_off&#45;&gt;silent</title>
<path fill="none" stroke="black" d="M482.174,-144.411C472.638,-135.627 460.752,-124.68 450.229,-114.988"/>
<polygon fill="black" stroke="black" points="452.587,-112.401 442.861,-108.201 447.845,-117.55 452.587,-112.401"/>
</g>
<!-- ITF&#45;mEM_Alimentation -->
<g id="node13" class="node"><title>ITF&#45;mEM_Alimentation</title>
<ellipse fill="green" stroke="black" cx="481.185" cy="-450" rx="98.5829" ry="18"/>
<text text-anchor="middle" x="481.185" y="-446.3" font-family="Times,serif" font-size="14.00">ITF&#45;mEM_Alimentation</text>
</g>
<!-- ITF&#45;mEM_Alimentation&#45;&gt;mogaba -->
<g id="edge17" class="edge"><title>ITF&#45;mEM_Alimentation&#45;&gt;mogaba</title>
<path fill="none" stroke="black" d="M481.185,-431.697C481.185,-423.983 481.185,-414.712 481.185,-406.112"/>
<polygon fill="black" stroke="black" points="484.685,-406.104 481.185,-396.104 477.685,-406.104 484.685,-406.104"/>
</g>
<!-- ITF&#45;F_12V&#45;&gt;mogaba -->
<g id="edge18" class="edge"><title>ITF&#45;F_12V&#45;&gt;mogaba</title>
<path fill="none" stroke="black" d="M580.307,-322.514C565.064,-332.068 544.012,-344.464 525.184,-355.019"/>
<polygon fill="black" stroke="black" points="523.481,-351.961 516.438,-359.876 526.879,-358.081 523.481,-351.961"/>
</g>
</g>
</svg>
