<?xml version="1.0" encoding="UTF-8" standalone="no"?>
<!DOCTYPE svg PUBLIC "-//W3C//DTD SVG 1.1//EN"
 "http://www.w3.org/Graphics/SVG/1.1/DTD/svg11.dtd">
<!-- Generated by graphviz version 2.38.0 (20140413.2041)
 -->
<!-- Title: %3 Pages: 1 -->
<svg width="724pt" height="476pt"
 viewBox="0.00 0.00 724.21 476.00" xmlns="http://www.w3.org/2000/svg" xmlns:xlink="http://www.w3.org/1999/xlink">
<g id="graph0" class="graph" transform="scale(1 1) rotate(0) translate(4 472)">
<title>%3</title>
<polygon fill="white" stroke="none" points="-4,4 -4,-472 720.206,-472 720.206,4 -4,4"/>
<!-- kina -->
<g id="node1" class="node"><title>kina</title>
<polygon fill="blue" stroke="black" points="276.826,-252 221.826,-252 221.826,-216 276.826,-216 276.826,-252"/>
<text text-anchor="middle" x="249.326" y="-228.4" font-family="Times,serif" font-size="22.00">kina</text>
</g>
<!-- ITF&#45;I_pulse_on -->
<g id="node8" class="node"><title>ITF&#45;I_pulse_on</title>
<ellipse fill="yellow" stroke="black" cx="249.326" cy="-162" rx="65.7887" ry="18"/>
<text text-anchor="middle" x="249.326" y="-158.3" font-family="Times,serif" font-size="14.00">ITF&#45;I_pulse_on</text>
</g>
<!-- kina&#45;&gt;ITF&#45;I_pulse_on -->
<g id="edge7" class="edge"><title>kina&#45;&gt;ITF&#45;I_pulse_on</title>
<path fill="none" stroke="black" d="M243.41,-215.697C242.614,-207.983 242.388,-198.712 242.731,-190.112"/>
<polygon fill="red" stroke="black" points="246.224,-190.324 243.431,-180.104 239.241,-189.836 246.224,-190.324"/>
</g>
<!-- WiFi UDP Stream -->
<g id="node9" class="node"><title>WiFi UDP Stream</title>
<ellipse fill="yellow" stroke="black" cx="615.326" cy="-162" rx="77.1866" ry="18"/>
<text text-anchor="middle" x="615.326" y="-158.3" font-family="Times,serif" font-size="14.00">WiFi UDP Stream</text>
</g>
<!-- kina&#45;&gt;WiFi UDP Stream -->
<g id="edge6" class="edge"><title>kina&#45;&gt;WiFi UDP Stream</title>
<path fill="none" stroke="black" d="M277.159,-227.809C327.503,-218.402 437.036,-197.856 529.326,-180 535.504,-178.805 541.929,-177.552 548.361,-176.292"/>
<polygon fill="red" stroke="black" points="549.301,-179.674 558.439,-174.312 547.952,-172.806 549.301,-179.674"/>
</g>
<!-- ITF&#45;J_pulse_off -->
<g id="node10" class="node"><title>ITF&#45;J_pulse_off</title>
<ellipse fill="yellow" stroke="black" cx="98.3259" cy="-162" rx="67.6881" ry="18"/>
<text text-anchor="middle" x="98.3259" y="-158.3" font-family="Times,serif" font-size="14.00">ITF&#45;J_pulse_off</text>
</g>
<!-- kina&#45;&gt;ITF&#45;J_pulse_off -->
<g id="edge8" class="edge"><title>kina&#45;&gt;ITF&#45;J_pulse_off</title>
<path fill="none" stroke="black" d="M221.63,-220.161C198.73,-209.545 165.861,-194.308 139.818,-182.235"/>
<polygon fill="red" stroke="black" points="141.107,-178.975 130.563,-177.944 138.163,-185.326 141.107,-178.975"/>
</g>
<!-- ITF&#45;N_cc_motor_pwm -->
<g id="node11" class="node"><title>ITF&#45;N_cc_motor_pwm</title>
<ellipse fill="yellow" stroke="black" cx="426.326" cy="-162" rx="93.6835" ry="18"/>
<text text-anchor="middle" x="426.326" y="-158.3" font-family="Times,serif" font-size="14.00">ITF&#45;N_cc_motor_pwm</text>
</g>
<!-- kina&#45;&gt;ITF&#45;N_cc_motor_pwm -->
<g id="edge9" class="edge"><title>kina&#45;&gt;ITF&#45;N_cc_motor_pwm</title>
<path fill="none" stroke="black" d="M276.982,-222.062C303.973,-211.388 345.597,-194.927 378.053,-182.091"/>
<polygon fill="red" stroke="black" points="379.361,-185.338 387.373,-178.405 376.787,-178.828 379.361,-185.338"/>
</g>
<!-- silent -->
<g id="node2" class="node"><title>silent</title>
<polygon fill="blue" stroke="black" points="206.326,-108 142.326,-108 142.326,-72 206.326,-72 206.326,-108"/>
<text text-anchor="middle" x="174.326" y="-84.4" font-family="Times,serif" font-size="22.00">silent</text>
</g>
<!-- ITF&#45;E_signal_envelope -->
<g id="node7" class="node"><title>ITF&#45;E_signal_envelope</title>
<ellipse fill="yellow" stroke="black" cx="447.326" cy="-18" rx="93.6835" ry="18"/>
<text text-anchor="middle" x="447.326" y="-14.3" font-family="Times,serif" font-size="14.00">ITF&#45;E_signal_envelope</text>
</g>
<!-- silent&#45;&gt;ITF&#45;E_signal_envelope -->
<g id="edge15" class="edge"><title>silent&#45;&gt;ITF&#45;E_signal_envelope</title>
<path fill="none" stroke="black" d="M206.445,-80.7643C249.858,-69.6327 328.212,-49.542 383.756,-35.2998"/>
<polygon fill="red" stroke="black" points="384.685,-38.6751 393.502,-32.8009 382.946,-31.8944 384.685,-38.6751"/>
</g>
<!-- mogaba -->
<g id="node3" class="node"><title>mogaba</title>
<polygon fill="blue" stroke="black" points="353.826,-396 266.826,-396 266.826,-360 353.826,-360 353.826,-396"/>
<text text-anchor="middle" x="310.326" y="-372.4" font-family="Times,serif" font-size="22.00">mogaba</text>
</g>
<!-- ITF&#45;A_gnd -->
<g id="node4" class="node"><title>ITF&#45;A_gnd</title>
<ellipse fill="yellow" stroke="black" cx="187.326" cy="-306" rx="50.8918" ry="18"/>
<text text-anchor="middle" x="187.326" y="-302.3" font-family="Times,serif" font-size="14.00">ITF&#45;A_gnd</text>
</g>
<!-- mogaba&#45;&gt;ITF&#45;A_gnd -->
<g id="edge18" class="edge"><title>mogaba&#45;&gt;ITF&#45;A_gnd</title>
<path fill="none" stroke="black" d="M280.237,-359.876C262.593,-349.835 240.233,-337.11 221.871,-326.66"/>
<polygon fill="red" stroke="black" points="223.37,-323.486 212.948,-321.582 219.908,-329.57 223.37,-323.486"/>
</g>
<!-- ITF&#45;B_5v -->
<g id="node5" class="node"><title>ITF&#45;B_5v</title>
<ellipse fill="yellow" stroke="black" cx="72.3259" cy="-306" rx="46.2923" ry="18"/>
<text text-anchor="middle" x="72.3259" y="-302.3" font-family="Times,serif" font-size="14.00">ITF&#45;B_5v</text>
</g>
<!-- mogaba&#45;&gt;ITF&#45;B_5v -->
<g id="edge19" class="edge"><title>mogaba&#45;&gt;ITF&#45;B_5v</title>
<path fill="none" stroke="black" d="M266.631,-364.583C229.516,-353.978 174.857,-338.227 127.326,-324 123.969,-322.995 120.5,-321.947 117.012,-320.885"/>
<polygon fill="red" stroke="black" points="117.798,-317.466 107.212,-317.886 115.75,-324.159 117.798,-317.466"/>
</g>
<!-- ITF&#45;S_3_3v -->
<g id="node6" class="node"><title>ITF&#45;S_3_3v</title>
<ellipse fill="yellow" stroke="black" cx="310.326" cy="-306" rx="53.8905" ry="18"/>
<text text-anchor="middle" x="310.326" y="-302.3" font-family="Times,serif" font-size="14.00">ITF&#45;S_3_3v</text>
</g>
<!-- mogaba&#45;&gt;ITF&#45;S_3_3v -->
<g id="edge21" class="edge"><title>mogaba&#45;&gt;ITF&#45;S_3_3v</title>
<path fill="none" stroke="black" d="M310.326,-359.697C310.326,-351.983 310.326,-342.712 310.326,-334.112"/>
<polygon fill="red" stroke="black" points="313.826,-334.104 310.326,-324.104 306.826,-334.104 313.826,-334.104"/>
</g>
<!-- ITF&#45;F_12V -->
<g id="node13" class="node"><title>ITF&#45;F_12V</title>
<ellipse fill="yellow" stroke="black" cx="433.326" cy="-306" rx="51.1914" ry="18"/>
<text text-anchor="middle" x="433.326" y="-302.3" font-family="Times,serif" font-size="14.00">ITF&#45;F_12V</text>
</g>
<!-- mogaba&#45;&gt;ITF&#45;F_12V -->
<g id="edge20" class="edge"><title>mogaba&#45;&gt;ITF&#45;F_12V</title>
<path fill="none" stroke="black" d="M334.518,-359.876C351.609,-349.533 374.733,-336.344 394.369,-325.725"/>
<polygon fill="red" stroke="black" points="396.231,-328.698 403.398,-320.895 392.929,-322.526 396.231,-328.698"/>
</g>
<!-- ITF&#45;A_gnd&#45;&gt;kina -->
<g id="edge1" class="edge"><title>ITF&#45;A_gnd&#45;&gt;kina</title>
<path fill="none" stroke="black" d="M202.019,-288.411C209.517,-279.946 218.793,-269.472 227.14,-260.049"/>
<polygon fill="black" stroke="black" points="229.863,-262.253 233.873,-252.447 224.623,-257.612 229.863,-262.253"/>
</g>
<!-- ITF&#45;A_gnd&#45;&gt;silent -->
<g id="edge10" class="edge"><title>ITF&#45;A_gnd&#45;&gt;silent</title>
<path fill="none" stroke="black" d="M155.422,-291.873C115.581,-273.517 49.2642,-236.011 21.3259,-180 14.1842,-165.682 12.0467,-157.034 21.3259,-144 46.2541,-108.983 95.9871,-96.8888 132,-92.8265"/>
<polygon fill="black" stroke="black" points="132.608,-96.2844 142.227,-91.844 131.938,-89.3164 132.608,-96.2844"/>
</g>
<!-- ITF&#45;B_5v&#45;&gt;kina -->
<g id="edge2" class="edge"><title>ITF&#45;B_5v&#45;&gt;kina</title>
<path fill="none" stroke="black" d="M103.562,-292.647C133.872,-280.66 179.887,-262.462 212.085,-249.728"/>
<polygon fill="black" stroke="black" points="213.59,-252.897 221.602,-245.964 211.016,-246.387 213.59,-252.897"/>
</g>
<!-- ITF&#45;B_5v&#45;&gt;silent -->
<g id="edge11" class="edge"><title>ITF&#45;B_5v&#45;&gt;silent</title>
<path fill="none" stroke="black" d="M56.9015,-289.028C29.3098,-258.481 -22.5776,-190.674 11.3259,-144 38.6607,-106.368 93.3809,-94.9321 131.855,-91.7318"/>
<polygon fill="black" stroke="black" points="132.498,-95.1966 142.24,-91.0326 132.027,-88.2124 132.498,-95.1966"/>
</g>
<!-- ITF&#45;S_3_3v&#45;&gt;kina -->
<g id="edge3" class="edge"><title>ITF&#45;S_3_3v&#45;&gt;kina</title>
<path fill="none" stroke="black" d="M295.87,-288.411C288.493,-279.946 279.366,-269.472 271.154,-260.049"/>
<polygon fill="black" stroke="black" points="273.738,-257.686 264.529,-252.447 268.461,-262.285 273.738,-257.686"/>
</g>
<!-- ITF&#45;S_3_3v&#45;&gt;silent -->
<g id="edge12" class="edge"><title>ITF&#45;S_3_3v&#45;&gt;silent</title>
<path fill="none" stroke="black" d="M350.126,-293.645C447.496,-265.685 690.583,-194.713 701.326,-180 710.761,-167.078 712.059,-155.866 701.326,-144 668.993,-108.252 336.106,-95.5085 216.68,-92.0668"/>
<polygon fill="black" stroke="black" points="216.558,-88.5621 206.464,-91.7802 216.362,-95.5594 216.558,-88.5621"/>
</g>
<!-- ITF&#45;E_signal_envelope&#45;&gt;kina -->
<g id="edge4" class="edge"><title>ITF&#45;E_signal_envelope&#45;&gt;kina</title>
<path fill="none" stroke="black" d="M507.256,-31.9777C601.218,-54.9105 766.131,-107.152 701.326,-180 673.91,-210.819 390.451,-226.625 286.918,-231.404"/>
<polygon fill="black" stroke="black" points="286.737,-227.908 276.906,-231.857 287.054,-234.901 286.737,-227.908"/>
</g>
<!-- ITF&#45;I_pulse_on&#45;&gt;kina -->
<g id="edge5" class="edge"><title>ITF&#45;I_pulse_on&#45;&gt;kina</title>
<path fill="none" stroke="black" d="M255.221,-180.104C256.026,-187.791 256.263,-197.054 255.93,-205.665"/>
<polygon fill="black" stroke="black" points="252.434,-205.48 255.242,-215.697 259.418,-205.96 252.434,-205.48"/>
</g>
<!-- ITF&#45;I_pulse_on&#45;&gt;silent -->
<g id="edge13" class="edge"><title>ITF&#45;I_pulse_on&#45;&gt;silent</title>
<path fill="none" stroke="black" d="M231.552,-144.411C222.232,-135.712 210.639,-124.893 200.33,-115.271"/>
<polygon fill="black" stroke="black" points="202.454,-112.465 192.755,-108.201 197.678,-117.583 202.454,-112.465"/>
</g>
<!-- ITF&#45;J_pulse_off&#45;&gt;silent -->
<g id="edge14" class="edge"><title>ITF&#45;J_pulse_off&#45;&gt;silent</title>
<path fill="none" stroke="black" d="M116.337,-144.411C125.874,-135.627 137.759,-124.68 148.282,-114.988"/>
<polygon fill="black" stroke="black" points="150.666,-117.55 155.651,-108.201 145.924,-112.401 150.666,-117.55"/>
</g>
<!-- ITF&#45;mEM_Alimentation -->
<g id="node12" class="node"><title>ITF&#45;mEM_Alimentation</title>
<ellipse fill="green" stroke="black" cx="310.326" cy="-450" rx="98.5829" ry="18"/>
<text text-anchor="middle" x="310.326" y="-446.3" font-family="Times,serif" font-size="14.00">ITF&#45;mEM_Alimentation</text>
</g>
<!-- ITF&#45;mEM_Alimentation&#45;&gt;mogaba -->
<g id="edge16" class="edge"><title>ITF&#45;mEM_Alimentation&#45;&gt;mogaba</title>
<path fill="none" stroke="black" d="M310.326,-431.697C310.326,-423.983 310.326,-414.712 310.326,-406.112"/>
<polygon fill="black" stroke="black" points="313.826,-406.104 310.326,-396.104 306.826,-406.104 313.826,-406.104"/>
</g>
<!-- ITF&#45;F_12V&#45;&gt;mogaba -->
<g id="edge17" class="edge"><title>ITF&#45;F_12V&#45;&gt;mogaba</title>
<path fill="none" stroke="black" d="M411.783,-322.514C396.13,-332.068 374.547,-344.464 355.267,-355.019"/>
<polygon fill="black" stroke="black" points="353.433,-352.031 346.312,-359.876 356.771,-358.184 353.433,-352.031"/>
</g>
</g>
</svg>
