<?xml version="1.0" encoding="UTF-8" standalone="no"?>
<!DOCTYPE svg PUBLIC "-//W3C//DTD SVG 1.1//EN"
 "http://www.w3.org/Graphics/SVG/1.1/DTD/svg11.dtd">
<!-- Generated by graphviz version 2.38.0 (20140413.2041)
 -->
<!-- Title: %3 Pages: 1 -->
<svg width="1954pt" height="332pt"
 viewBox="0.00 0.00 1953.54 332.00" xmlns="http://www.w3.org/2000/svg" xmlns:xlink="http://www.w3.org/1999/xlink">
<g id="graph0" class="graph" transform="scale(1 1) rotate(0) translate(4 328)">
<title>%3</title>
<polygon fill="white" stroke="none" points="-4,4 -4,-328 1949.54,-328 1949.54,4 -4,4"/>
<!-- silent -->
<g id="node1" class="node"><title>silent</title>
<polygon fill="blue" stroke="black" points="160.745,-252 96.7445,-252 96.7445,-216 160.745,-216 160.745,-252"/>
<text text-anchor="middle" x="128.745" y="-228.4" font-family="Times,serif" font-size="22.00">silent</text>
</g>
<!-- ITF&#45;18_Raw -->
<g id="node5" class="node"><title>ITF&#45;18_Raw</title>
<ellipse fill="yellow" stroke="black" cx="116.745" cy="-162" rx="55.7903" ry="18"/>
<text text-anchor="middle" x="116.745" y="-158.3" font-family="Times,serif" font-size="14.00">ITF&#45;18_Raw</text>
</g>
<!-- silent&#45;&gt;ITF&#45;18_Raw -->
<g id="edge8" class="edge"><title>silent&#45;&gt;ITF&#45;18_Raw</title>
<path fill="none" stroke="black" d="M119.863,-215.697C117.744,-207.983 115.929,-198.712 114.797,-190.112"/>
<polygon fill="red" stroke="black" points="118.273,-189.7 113.782,-180.104 111.309,-190.407 118.273,-189.7"/>
</g>
<!-- ITF&#45;1_GND -->
<g id="node2" class="node"><title>ITF&#45;1_GND</title>
<ellipse fill="yellow" stroke="black" cx="195.745" cy="-306" rx="54.6905" ry="18"/>
<text text-anchor="middle" x="195.745" y="-302.3" font-family="Times,serif" font-size="14.00">ITF&#45;1_GND</text>
</g>
<!-- ITF&#45;1_GND&#45;&gt;silent -->
<g id="edge1" class="edge"><title>ITF&#45;1_GND&#45;&gt;silent</title>
<path fill="none" stroke="black" d="M174.78,-289.116C165.495,-280.458 154.812,-269.55 145.992,-259.799"/>
<polygon fill="black" stroke="black" points="148.617,-257.483 139.381,-252.292 143.364,-262.11 148.617,-257.483"/>
</g>
<!-- ITF&#45;1_GND&#45;&gt;silent -->
<g id="edge4" class="edge"><title>ITF&#45;1_GND&#45;&gt;silent</title>
<path fill="none" stroke="black" d="M185.404,-288.055C177.995,-279.349 167.888,-268.591 158.204,-259.043"/>
<polygon fill="black" stroke="black" points="160.561,-256.454 150.934,-252.032 155.702,-261.493 160.561,-256.454"/>
</g>
<!-- croaker -->
<g id="node6" class="node"><title>croaker</title>
<polygon fill="blue" stroke="black" points="1265.24,-108 1182.24,-108 1182.24,-72 1265.24,-72 1265.24,-108"/>
<text text-anchor="middle" x="1223.74" y="-84.4" font-family="Times,serif" font-size="22.00">croaker</text>
</g>
<!-- ITF&#45;1_GND&#45;&gt;croaker -->
<g id="edge12" class="edge"><title>ITF&#45;1_GND&#45;&gt;croaker</title>
<path fill="none" stroke="black" d="M231.403,-292.218C237.479,-290.673 243.749,-289.214 249.745,-288 596.64,-217.753 700.837,-285.309 1038.74,-180 1090.28,-163.94 1145.08,-133.911 1181.69,-113.207"/>
<polygon fill="black" stroke="black" points="1183.62,-116.136 1190.59,-108.158 1180.17,-110.047 1183.62,-116.136"/>
</g>
<!-- ITF&#45;1_GND&#45;&gt;croaker -->
<g id="edge17" class="edge"><title>ITF&#45;1_GND&#45;&gt;croaker</title>
<path fill="none" stroke="black" d="M238.898,-294.848C248.429,-292.368 258.418,-289.889 267.745,-288 614.64,-217.753 718.837,-285.309 1056.74,-180 1107.84,-164.076 1162.15,-134.419 1194.66,-113.735"/>
<polygon fill="black" stroke="black" points="1196.75,-116.546 1203.23,-108.158 1192.94,-110.68 1196.75,-116.546"/>
</g>
<!-- mogaba -->
<g id="node14" class="node"><title>mogaba</title>
<polygon fill="blue" stroke="black" points="1385.24,-252 1298.24,-252 1298.24,-216 1385.24,-216 1385.24,-252"/>
<text text-anchor="middle" x="1341.74" y="-228.4" font-family="Times,serif" font-size="22.00">mogaba</text>
</g>
<!-- ITF&#45;1_GND&#45;&gt;mogaba -->
<g id="edge26" class="edge"><title>ITF&#45;1_GND&#45;&gt;mogaba</title>
<path fill="none" stroke="black" d="M234.441,-293.121C242.41,-291.082 250.795,-289.227 258.745,-288 628.044,-230.977 725.661,-273.041 1098.74,-252 1163.79,-248.332 1238.54,-242.923 1287.76,-239.196"/>
<polygon fill="black" stroke="black" points="1288.16,-242.676 1297.87,-238.428 1287.63,-235.696 1288.16,-242.676"/>
</g>
<!-- goblin -->
<g id="node18" class="node"><title>goblin</title>
<polygon fill="blue" stroke="black" points="411.745,-108 337.745,-108 337.745,-72 411.745,-72 411.745,-108"/>
<text text-anchor="middle" x="374.745" y="-84.4" font-family="Times,serif" font-size="22.00">goblin</text>
</g>
<!-- ITF&#45;1_GND&#45;&gt;goblin -->
<g id="edge31" class="edge"><title>ITF&#45;1_GND&#45;&gt;goblin</title>
<path fill="none" stroke="black" d="M153.508,-294.541C128.986,-286.12 99.2009,-272.305 78.7445,-252 42.8347,-216.356 9.9918,-182.565 42.7445,-144 78.2858,-102.152 244.205,-93.2823 327.298,-91.4488"/>
<polygon fill="black" stroke="black" points="327.558,-94.9445 337.488,-91.2501 327.422,-87.9458 327.558,-94.9445"/>
</g>
<!-- ITF&#45;1_GND&#45;&gt;goblin -->
<g id="edge38" class="edge"><title>ITF&#45;1_GND&#45;&gt;goblin</title>
<path fill="none" stroke="black" d="M161.852,-291.811C141.039,-283.25 115.126,-270.245 96.7445,-252 60.8347,-216.356 27.9918,-182.565 60.7445,-144 94.7612,-103.947 248.21,-94.1039 327.377,-91.7256"/>
<polygon fill="black" stroke="black" points="327.672,-95.219 337.574,-91.4484 327.482,-88.2216 327.672,-95.219"/>
</g>
<!-- ITF&#45;2_VDD_5V -->
<g id="node3" class="node"><title>ITF&#45;2_VDD_5V</title>
<ellipse fill="yellow" stroke="black" cx="337.745" cy="-306" rx="69.5877" ry="18"/>
<text text-anchor="middle" x="337.745" y="-302.3" font-family="Times,serif" font-size="14.00">ITF&#45;2_VDD_5V</text>
</g>
<!-- ITF&#45;2_VDD_5V&#45;&gt;silent -->
<g id="edge2" class="edge"><title>ITF&#45;2_VDD_5V&#45;&gt;silent</title>
<path fill="none" stroke="black" d="M293.535,-291.998C257.219,-280.397 206.265,-263.373 170.605,-250.952"/>
<polygon fill="black" stroke="black" points="171.572,-247.583 160.977,-247.579 169.258,-254.189 171.572,-247.583"/>
</g>
<!-- ITF&#45;2_VDD_5V&#45;&gt;silent -->
<g id="edge5" class="edge"><title>ITF&#45;2_VDD_5V&#45;&gt;silent</title>
<path fill="none" stroke="black" d="M300.517,-290.666C264.03,-277.888 208.688,-259.385 170.674,-247.275"/>
<polygon fill="black" stroke="black" points="171.514,-243.87 160.924,-244.191 169.403,-250.544 171.514,-243.87"/>
</g>
<!-- ITF&#45;2_VDD_5V&#45;&gt;croaker -->
<g id="edge13" class="edge"><title>ITF&#45;2_VDD_5V&#45;&gt;croaker</title>
<path fill="none" stroke="black" d="M407.025,-303.804C582.197,-300.333 1032.56,-288.099 1089.74,-252 1136.36,-222.573 1115.37,-186.283 1150.74,-144 1159.91,-133.048 1171.55,-122.642 1182.91,-113.998"/>
<polygon fill="black" stroke="black" points="1185.07,-116.752 1191.09,-108.031 1180.95,-111.096 1185.07,-116.752"/>
</g>
<!-- ITF&#45;2_VDD_5V&#45;&gt;croaker -->
<g id="edge18" class="edge"><title>ITF&#45;2_VDD_5V&#45;&gt;croaker</title>
<path fill="none" stroke="black" d="M406.967,-303.969C585.206,-300.731 1049.61,-288.696 1107.74,-252 1154.36,-222.573 1133.37,-186.283 1168.74,-144 1177.73,-133.261 1189.1,-123.047 1199.27,-114.503"/>
<polygon fill="black" stroke="black" points="1201.62,-117.101 1207.09,-108.031 1197.15,-111.707 1201.62,-117.101"/>
</g>
<!-- ITF&#45;2_VDD_5V&#45;&gt;mogaba -->
<g id="edge27" class="edge"><title>ITF&#45;2_VDD_5V&#45;&gt;mogaba</title>
<path fill="none" stroke="black" d="M405.038,-301.226C544.793,-293.257 876.64,-273.658 1154.74,-252 1199.6,-248.507 1250.45,-243.838 1287.79,-240.278"/>
<polygon fill="black" stroke="black" points="1288.32,-243.743 1297.94,-239.305 1287.65,-236.774 1288.32,-243.743"/>
</g>
<!-- ITF&#45;2_VDD_5V&#45;&gt;goblin -->
<g id="edge32" class="edge"><title>ITF&#45;2_VDD_5V&#45;&gt;goblin</title>
<path fill="none" stroke="black" d="M309.883,-289.387C266.752,-260.282 193.122,-195.976 228.745,-144 250.303,-112.544 293.418,-99.7531 327.346,-94.5542"/>
<polygon fill="black" stroke="black" points="328.106,-97.9832 337.546,-93.1723 327.166,-91.0466 328.106,-97.9832"/>
</g>
<!-- ITF&#45;2_VDD_5V&#45;&gt;goblin -->
<g id="edge39" class="edge"><title>ITF&#45;2_VDD_5V&#45;&gt;goblin</title>
<path fill="none" stroke="black" d="M319.22,-288.464C283.226,-258.941 211.494,-195.433 246.745,-144 265.187,-117.091 299.405,-103.841 327.905,-97.3179"/>
<polygon fill="black" stroke="black" points="328.634,-100.741 337.713,-95.2798 327.21,-93.8877 328.634,-100.741"/>
</g>
<!-- ITF&#45;17_POff3 -->
<g id="node4" class="node"><title>ITF&#45;17_POff3</title>
<ellipse fill="yellow" stroke="black" cx="61.7445" cy="-306" rx="61.99" ry="18"/>
<text text-anchor="middle" x="61.7445" y="-302.3" font-family="Times,serif" font-size="14.00">ITF&#45;17_POff3</text>
</g>
<!-- ITF&#45;17_POff3&#45;&gt;silent -->
<g id="edge3" class="edge"><title>ITF&#45;17_POff3&#45;&gt;silent</title>
<path fill="none" stroke="black" d="M72.0851,-288.055C79.4939,-279.349 89.6013,-268.591 99.2847,-259.043"/>
<polygon fill="black" stroke="black" points="101.787,-261.493 106.555,-252.032 96.9277,-256.454 101.787,-261.493"/>
</g>
<!-- ITF&#45;17_POff3&#45;&gt;silent -->
<g id="edge6" class="edge"><title>ITF&#45;17_POff3&#45;&gt;silent</title>
<path fill="none" stroke="black" d="M83.0849,-288.765C92.2625,-280.182 102.753,-269.462 111.443,-259.858"/>
<polygon fill="black" stroke="black" points="114.271,-261.943 118.252,-252.124 109.017,-257.317 114.271,-261.943"/>
</g>
<!-- ITF&#45;18_Raw&#45;&gt;silent -->
<g id="edge7" class="edge"><title>ITF&#45;18_Raw&#45;&gt;silent</title>
<path fill="none" stroke="black" d="M125.572,-180.104C127.695,-187.791 129.519,-197.054 130.663,-205.665"/>
<polygon fill="black" stroke="black" points="127.189,-206.107 131.694,-215.697 134.153,-205.391 127.189,-206.107"/>
</g>
<!-- ITF&#45;18_Raw&#45;&gt;goblin -->
<g id="edge36" class="edge"><title>ITF&#45;18_Raw&#45;&gt;goblin</title>
<path fill="none" stroke="black" d="M155.574,-149.046C201.717,-135.968 278.437,-115.161 327.843,-102.333"/>
<polygon fill="black" stroke="black" points="328.84,-105.691 337.647,-99.801 327.089,-98.9135 328.84,-105.691"/>
</g>
<!-- ITF&#45;18_Raw&#45;&gt;goblin -->
<g id="edge43" class="edge"><title>ITF&#45;18_Raw&#45;&gt;goblin</title>
<path fill="none" stroke="black" d="M160.06,-150.596C206.512,-138.578 279.84,-118.736 327.677,-105.28"/>
<polygon fill="black" stroke="black" points="328.807,-108.598 337.479,-102.51 326.904,-101.861 328.807,-108.598"/>
</g>
<!-- ITF&#45;mEC&#45;WiFi&#45;UDP&#45;Stream -->
<g id="node13" class="node"><title>ITF&#45;mEC&#45;WiFi&#45;UDP&#45;Stream</title>
<ellipse fill="green" stroke="black" cx="1223.74" cy="-18" rx="115.88" ry="18"/>
<text text-anchor="middle" x="1223.74" y="-14.3" font-family="Times,serif" font-size="14.00">ITF&#45;mEC&#45;WiFi&#45;UDP&#45;Stream</text>
</g>
<!-- croaker&#45;&gt;ITF&#45;mEC&#45;WiFi&#45;UDP&#45;Stream -->
<g id="edge23" class="edge"><title>croaker&#45;&gt;ITF&#45;mEC&#45;WiFi&#45;UDP&#45;Stream</title>
<path fill="none" stroke="black" d="M1217.83,-71.6966C1217.03,-63.9827 1216.81,-54.7125 1217.15,-46.1124"/>
<polygon fill="red" stroke="black" points="1220.64,-46.3243 1217.85,-36.1043 1213.66,-45.8356 1220.64,-46.3243"/>
</g>
<!-- ITF&#45;3_ENV -->
<g id="node7" class="node"><title>ITF&#45;3_ENV</title>
<ellipse fill="yellow" stroke="black" cx="984.745" cy="-162" rx="53.8905" ry="18"/>
<text text-anchor="middle" x="984.745" y="-158.3" font-family="Times,serif" font-size="14.00">ITF&#45;3_ENV</text>
</g>
<!-- ITF&#45;3_ENV&#45;&gt;croaker -->
<g id="edge9" class="edge"><title>ITF&#45;3_ENV&#45;&gt;croaker</title>
<path fill="none" stroke="black" d="M1021.37,-148.727C1061.75,-136.343 1126.81,-117.272 1172.28,-104.476"/>
<polygon fill="black" stroke="black" points="1173.27,-107.833 1181.96,-101.765 1171.38,-101.092 1173.27,-107.833"/>
</g>
<!-- ITF&#45;3_ENV&#45;&gt;croaker -->
<g id="edge14" class="edge"><title>ITF&#45;3_ENV&#45;&gt;croaker</title>
<path fill="none" stroke="black" d="M1026.05,-150.369C1066.65,-139.061 1128.54,-121.018 1172.29,-107.787"/>
<polygon fill="black" stroke="black" points="1173.34,-111.127 1181.89,-104.873 1171.3,-104.429 1173.34,-111.127"/>
</g>
<!-- ITF&#45;3_ENV&#45;&gt;goblin -->
<g id="edge35" class="edge"><title>ITF&#45;3_ENV&#45;&gt;goblin</title>
<path fill="none" stroke="black" d="M942.319,-150.775C932.585,-148.236 922.33,-145.745 912.745,-144 732.924,-111.264 515.922,-97.8429 421.852,-93.1609"/>
<polygon fill="black" stroke="black" points="421.958,-89.662 411.799,-92.6706 421.617,-96.6537 421.958,-89.662"/>
</g>
<!-- ITF&#45;3_ENV&#45;&gt;goblin -->
<g id="edge42" class="edge"><title>ITF&#45;3_ENV&#45;&gt;goblin</title>
<path fill="none" stroke="black" d="M949.804,-148.165C943.512,-146.589 936.986,-145.136 930.745,-144 744.629,-110.118 518.682,-96.9269 422.067,-92.7008"/>
<polygon fill="black" stroke="black" points="422.169,-89.2021 412.03,-92.274 421.872,-96.1958 422.169,-89.2021"/>
</g>
<!-- ITF&#45;10_Poff -->
<g id="node8" class="node"><title>ITF&#45;10_Poff</title>
<ellipse fill="yellow" stroke="black" cx="1223.74" cy="-162" rx="55.4913" ry="18"/>
<text text-anchor="middle" x="1223.74" y="-158.3" font-family="Times,serif" font-size="14.00">ITF&#45;10_Poff</text>
</g>
<!-- ITF&#45;10_Poff&#45;&gt;croaker -->
<g id="edge10" class="edge"><title>ITF&#45;10_Poff&#45;&gt;croaker</title>
<path fill="none" stroke="black" d="M1217.87,-144.055C1217.05,-136.346 1216.81,-127.027 1217.14,-118.364"/>
<polygon fill="black" stroke="black" points="1220.64,-118.491 1217.83,-108.275 1213.66,-118.012 1220.64,-118.491"/>
</g>
<!-- ITF&#45;10_Poff&#45;&gt;croaker -->
<g id="edge15" class="edge"><title>ITF&#45;10_Poff&#45;&gt;croaker</title>
<path fill="none" stroke="black" d="M1229.62,-144.055C1230.44,-136.346 1230.68,-127.027 1230.35,-118.364"/>
<polygon fill="black" stroke="black" points="1233.83,-118.012 1229.66,-108.275 1226.85,-118.491 1233.83,-118.012"/>
</g>
<!-- ITF&#45;9_Pon -->
<g id="node9" class="node"><title>ITF&#45;9_Pon</title>
<ellipse fill="yellow" stroke="black" cx="1346.74" cy="-162" rx="49.2915" ry="18"/>
<text text-anchor="middle" x="1346.74" y="-158.3" font-family="Times,serif" font-size="14.00">ITF&#45;9_Pon</text>
</g>
<!-- ITF&#45;9_Pon&#45;&gt;croaker -->
<g id="edge11" class="edge"><title>ITF&#45;9_Pon&#45;&gt;croaker</title>
<path fill="none" stroke="black" d="M1317.26,-147.337C1298.91,-137.651 1275.41,-124.439 1256.5,-113.244"/>
<polygon fill="black" stroke="black" points="1258.27,-110.23 1247.9,-108.099 1254.68,-116.237 1258.27,-110.23"/>
</g>
<!-- ITF&#45;9_Pon&#45;&gt;croaker -->
<g id="edge16" class="edge"><title>ITF&#45;9_Pon&#45;&gt;croaker</title>
<path fill="none" stroke="black" d="M1325.45,-145.638C1309.75,-136.049 1288,-123.552 1268.59,-112.931"/>
<polygon fill="black" stroke="black" points="1270.04,-109.735 1259.58,-108.044 1266.7,-115.888 1270.04,-109.735"/>
</g>
<!-- ITF&#45;19_3.3V -->
<g id="node10" class="node"><title>ITF&#45;19_3.3V</title>
<ellipse fill="yellow" stroke="black" cx="1471.74" cy="-162" rx="57.6901" ry="18"/>
<text text-anchor="middle" x="1471.74" y="-158.3" font-family="Times,serif" font-size="14.00">ITF&#45;19_3.3V</text>
</g>
<!-- ITF&#45;19_3.3V&#45;&gt;croaker -->
<g id="edge19" class="edge"><title>ITF&#45;19_3.3V&#45;&gt;croaker</title>
<path fill="none" stroke="black" d="M1430.51,-149.362C1387.91,-137.338 1321.32,-118.542 1275.27,-105.545"/>
<polygon fill="black" stroke="black" points="1276.06,-102.131 1265.49,-102.782 1274.16,-108.867 1276.06,-102.131"/>
</g>
<!-- ITF&#45;19_3.3V&#45;&gt;mogaba -->
<g id="edge28" class="edge"><title>ITF&#45;19_3.3V&#45;&gt;mogaba</title>
<path fill="none" stroke="black" d="M1448.65,-178.514C1431.97,-188.111 1409.01,-200.576 1388.61,-211.162"/>
<polygon fill="black" stroke="black" points="1386.73,-208.189 1379.44,-215.876 1389.94,-214.414 1386.73,-208.189"/>
</g>
<!-- ITF&#45;mED&#45;TFT&#45;Screen -->
<g id="node11" class="node"><title>ITF&#45;mED&#45;TFT&#45;Screen</title>
<ellipse fill="green" stroke="black" cx="1638.74" cy="-162" rx="90.9839" ry="18"/>
<text text-anchor="middle" x="1638.74" y="-158.3" font-family="Times,serif" font-size="14.00">ITF&#45;mED&#45;TFT&#45;Screen</text>
</g>
<!-- ITF&#45;mED&#45;TFT&#45;Screen&#45;&gt;croaker -->
<g id="edge20" class="edge"><title>ITF&#45;mED&#45;TFT&#45;Screen&#45;&gt;croaker</title>
<path fill="none" stroke="black" d="M1572.32,-149.691C1561.11,-147.788 1549.6,-145.835 1538.74,-144 1445.9,-128.297 1337.64,-110.109 1275.26,-99.64"/>
<polygon fill="black" stroke="black" points="1275.72,-96.1683 1265.28,-97.9651 1274.56,-103.072 1275.72,-96.1683"/>
</g>
<!-- ITF&#45;mED&#45;OLED&#45;Screen -->
<g id="node12" class="node"><title>ITF&#45;mED&#45;OLED&#45;Screen</title>
<ellipse fill="green" stroke="black" cx="1846.74" cy="-162" rx="98.5829" ry="18"/>
<text text-anchor="middle" x="1846.74" y="-158.3" font-family="Times,serif" font-size="14.00">ITF&#45;mED&#45;OLED&#45;Screen</text>
</g>
<!-- ITF&#45;mED&#45;OLED&#45;Screen&#45;&gt;croaker -->
<g id="edge21" class="edge"><title>ITF&#45;mED&#45;OLED&#45;Screen&#45;&gt;croaker</title>
<path fill="none" stroke="black" d="M1776.24,-149.344C1763.76,-147.442 1750.88,-145.579 1738.74,-144 1569.72,-122.015 1368.5,-103.518 1275.54,-95.4057"/>
<polygon fill="black" stroke="black" points="1275.82,-91.9165 1265.55,-94.5376 1275.21,-98.8903 1275.82,-91.9165"/>
</g>
<!-- ITF&#45;mEC&#45;WiFi&#45;UDP&#45;Stream&#45;&gt;croaker -->
<g id="edge22" class="edge"><title>ITF&#45;mEC&#45;WiFi&#45;UDP&#45;Stream&#45;&gt;croaker</title>
<path fill="none" stroke="black" d="M1229.64,-36.1043C1230.45,-43.7913 1230.68,-53.0537 1230.35,-61.6651"/>
<polygon fill="black" stroke="black" points="1226.85,-61.4805 1229.66,-71.6966 1233.84,-61.9597 1226.85,-61.4805"/>
</g>
<!-- mogaba&#45;&gt;ITF&#45;19_3.3V -->
<g id="edge29" class="edge"><title>mogaba&#45;&gt;ITF&#45;19_3.3V</title>
<path fill="none" stroke="black" d="M1367.65,-215.876C1385.82,-205.51 1410.33,-192.285 1431.05,-181.654"/>
<polygon fill="red" stroke="black" points="1432.64,-184.772 1439.97,-177.123 1429.47,-178.531 1432.64,-184.772"/>
</g>
<!-- ITF&#45;mEM_Alimentation -->
<g id="node15" class="node"><title>ITF&#45;mEM_Alimentation</title>
<ellipse fill="green" stroke="black" cx="1341.74" cy="-306" rx="98.5829" ry="18"/>
<text text-anchor="middle" x="1341.74" y="-302.3" font-family="Times,serif" font-size="14.00">ITF&#45;mEM_Alimentation</text>
</g>
<!-- ITF&#45;mEM_Alimentation&#45;&gt;mogaba -->
<g id="edge24" class="edge"><title>ITF&#45;mEM_Alimentation&#45;&gt;mogaba</title>
<path fill="none" stroke="black" d="M1335.83,-287.697C1335.03,-279.983 1334.81,-270.712 1335.15,-262.112"/>
<polygon fill="black" stroke="black" points="1338.64,-262.324 1335.85,-252.104 1331.66,-261.836 1338.64,-262.324"/>
</g>
<!-- ITF&#45;mEM_Alimentation&#45;&gt;mogaba -->
<g id="edge25" class="edge"><title>ITF&#45;mEM_Alimentation&#45;&gt;mogaba</title>
<path fill="none" stroke="black" d="M1347.66,-287.697C1348.46,-279.983 1348.68,-270.712 1348.34,-262.112"/>
<polygon fill="black" stroke="black" points="1351.83,-261.836 1347.64,-252.104 1344.85,-262.324 1351.83,-261.836"/>
</g>
<!-- doj -->
<g id="node16" class="node"><title>doj</title>
<polygon fill="blue" stroke="black" points="1512.74,-324 1458.74,-324 1458.74,-288 1512.74,-288 1512.74,-324"/>
<text text-anchor="middle" x="1485.74" y="-300.4" font-family="Times,serif" font-size="22.00">doj</text>
</g>
<g id="node17" class="node"><title></title>
<ellipse fill="none" stroke="black" cx="1485.74" cy="-234" rx="27" ry="18"/>
</g>
<!-- doj&#45;&gt; -->
<g id="edge30" class="edge"><title>doj&#45;&gt;</title>
<path fill="none" stroke="black" d="M1485.74,-287.697C1485.74,-279.983 1485.74,-270.712 1485.74,-262.112"/>
<polygon fill="red" stroke="black" points="1489.24,-262.104 1485.74,-252.104 1482.24,-262.104 1489.24,-262.104"/>
</g>
<!-- ITF&#45;mEG_SPI -->
<g id="node23" class="node"><title>ITF&#45;mEG_SPI</title>
<ellipse fill="green" stroke="black" cx="374.745" cy="-18" rx="63.0888" ry="18"/>
<text text-anchor="middle" x="374.745" y="-14.3" font-family="Times,serif" font-size="14.00">ITF&#45;mEG_SPI</text>
</g>
<!-- goblin&#45;&gt;ITF&#45;mEG_SPI -->
<g id="edge48" class="edge"><title>goblin&#45;&gt;ITF&#45;mEG_SPI</title>
<path fill="none" stroke="black" d="M368.829,-71.6966C368.033,-63.9827 367.807,-54.7125 368.149,-46.1124"/>
<polygon fill="red" stroke="black" points="371.643,-46.3243 368.849,-36.1043 364.66,-45.8356 371.643,-46.3243"/>
</g>
<!-- ITF&#45;7_GAIN -->
<g id="node19" class="node"><title>ITF&#45;7_GAIN</title>
<ellipse fill="yellow" stroke="black" cx="304.745" cy="-162" rx="57.6901" ry="18"/>
<text text-anchor="middle" x="304.745" y="-158.3" font-family="Times,serif" font-size="14.00">ITF&#45;7_GAIN</text>
</g>
<!-- ITF&#45;7_GAIN&#45;&gt;goblin -->
<g id="edge33" class="edge"><title>ITF&#45;7_GAIN&#45;&gt;goblin</title>
<path fill="none" stroke="black" d="M315.811,-144.055C323.593,-135.349 334.162,-124.591 344.254,-115.043"/>
<polygon fill="black" stroke="black" points="346.867,-117.394 351.826,-108.032 342.11,-112.258 346.867,-117.394"/>
</g>
<!-- ITF&#45;7_GAIN&#45;&gt;goblin -->
<g id="edge40" class="edge"><title>ITF&#45;7_GAIN&#45;&gt;goblin</title>
<path fill="none" stroke="black" d="M326.389,-145.116C336.045,-136.458 347.196,-125.55 356.434,-115.799"/>
<polygon fill="black" stroke="black" points="359.153,-118.013 363.367,-108.292 354.011,-113.264 359.153,-118.013"/>
</g>
<!-- ITF&#45;4_RawSig -->
<g id="node20" class="node"><title>ITF&#45;4_RawSig</title>
<ellipse fill="yellow" stroke="black" cx="444.745" cy="-162" rx="63.8893" ry="18"/>
<text text-anchor="middle" x="444.745" y="-158.3" font-family="Times,serif" font-size="14.00">ITF&#45;4_RawSig</text>
</g>
<!-- ITF&#45;4_RawSig&#45;&gt;goblin -->
<g id="edge34" class="edge"><title>ITF&#45;4_RawSig&#45;&gt;goblin</title>
<path fill="none" stroke="black" d="M417.769,-145.465C407.181,-136.906 395.815,-126.069 387.035,-116.32"/>
<polygon fill="black" stroke="black" points="389.49,-113.805 380.342,-108.461 384.16,-118.344 389.49,-113.805"/>
</g>
<!-- ITF&#45;4_RawSig&#45;&gt;goblin -->
<g id="edge41" class="edge"><title>ITF&#45;4_RawSig&#45;&gt;goblin</title>
<path fill="none" stroke="black" d="M428.155,-144.411C419.606,-135.861 409.007,-125.263 399.511,-115.766"/>
<polygon fill="black" stroke="black" points="401.737,-113.043 392.191,-108.447 396.788,-117.993 401.737,-113.043"/>
</g>
<!-- ITF&#45;4_RawSig&#45;&gt;goblin -->
<g id="edge45" class="edge"><title>ITF&#45;4_RawSig&#45;&gt;goblin</title>
<path fill="none" stroke="black" d="M439.556,-144.055C432.631,-135.264 422.115,-124.38 411.369,-114.763"/>
<polygon fill="black" stroke="black" points="413.413,-111.904 403.551,-108.032 408.845,-117.209 413.413,-111.904"/>
</g>
<!-- ITF&#45;mET_SMA -->
<g id="node21" class="node"><title>ITF&#45;mET_SMA</title>
<ellipse fill="green" stroke="black" cx="595.745" cy="-162" rx="68.7879" ry="18"/>
<text text-anchor="middle" x="595.745" y="-158.3" font-family="Times,serif" font-size="14.00">ITF&#45;mET_SMA</text>
</g>
<!-- ITF&#45;mET_SMA&#45;&gt;goblin -->
<g id="edge37" class="edge"><title>ITF&#45;mET_SMA&#45;&gt;goblin</title>
<path fill="none" stroke="black" d="M550.383,-148.324C512.842,-136.967 459.826,-120.229 421.826,-107.769"/>
<polygon fill="black" stroke="black" points="422.614,-104.343 412.021,-104.538 420.423,-110.991 422.614,-104.343"/>
</g>
<!-- ITF&#45;mET_SMA&#45;&gt;goblin -->
<g id="edge44" class="edge"><title>ITF&#45;mET_SMA&#45;&gt;goblin</title>
<path fill="none" stroke="black" d="M557.079,-147.003C519.301,-134.508 461.92,-116.345 421.583,-104.124"/>
<polygon fill="black" stroke="black" points="422.558,-100.762 411.973,-101.228 420.538,-107.464 422.558,-100.762"/>
</g>
<!-- ITF&#45;3_ENV_signal_envelope -->
<g id="node22" class="node"><title>ITF&#45;3_ENV_signal_envelope</title>
<ellipse fill="yellow" stroke="black" cx="797.745" cy="-162" rx="115.08" ry="18"/>
<text text-anchor="middle" x="797.745" y="-158.3" font-family="Times,serif" font-size="14.00">ITF&#45;3_ENV_signal_envelope</text>
</g>
<!-- ITF&#45;3_ENV_signal_envelope&#45;&gt;goblin -->
<g id="edge46" class="edge"><title>ITF&#45;3_ENV_signal_envelope&#45;&gt;goblin</title>
<path fill="none" stroke="black" d="M721.632,-148.405C634.575,-133.998 494.722,-110.854 422.042,-98.8269"/>
<polygon fill="black" stroke="black" points="422.257,-95.3151 411.82,-97.1354 421.114,-102.221 422.257,-95.3151"/>
</g>
<!-- ITF&#45;mEG_SPI&#45;&gt;goblin -->
<g id="edge47" class="edge"><title>ITF&#45;mEG_SPI&#45;&gt;goblin</title>
<path fill="none" stroke="black" d="M380.64,-36.1043C381.445,-43.7913 381.681,-53.0537 381.349,-61.6651"/>
<polygon fill="black" stroke="black" points="377.853,-61.4805 380.66,-71.6966 384.837,-61.9597 377.853,-61.4805"/>
</g>
</g>
</svg>
