<?xml version="1.0" encoding="UTF-8" standalone="no"?>
<!DOCTYPE svg PUBLIC "-//W3C//DTD SVG 1.1//EN"
 "http://www.w3.org/Graphics/SVG/1.1/DTD/svg11.dtd">
<!-- Generated by graphviz version 2.38.0 (20140413.2041)
 -->
<!-- Title: %3 Pages: 1 -->
<svg width="579pt" height="476pt"
 viewBox="0.00 0.00 579.23 476.00" xmlns="http://www.w3.org/2000/svg" xmlns:xlink="http://www.w3.org/1999/xlink">
<g id="graph0" class="graph" transform="scale(1 1) rotate(0) translate(4 472)">
<title>%3</title>
<polygon fill="white" stroke="none" points="-4,4 -4,-472 575.232,-472 575.232,4 -4,4"/>
<!-- kina -->
<g id="node1" class="node"><title>kina</title>
<polygon fill="blue" stroke="black" points="248.092,-252 193.092,-252 193.092,-216 248.092,-216 248.092,-252"/>
<text text-anchor="middle" x="220.592" y="-228.4" font-family="Times,serif" font-size="22.00">kina</text>
</g>
<!-- ITF&#45;I_pulse_on -->
<g id="node8" class="node"><title>ITF&#45;I_pulse_on</title>
<ellipse fill="yellow" stroke="black" cx="140.592" cy="-162" rx="65.7887" ry="18"/>
<text text-anchor="middle" x="140.592" y="-158.3" font-family="Times,serif" font-size="14.00">ITF&#45;I_pulse_on</text>
</g>
<!-- kina&#45;&gt;ITF&#45;I_pulse_on -->
<g id="edge7" class="edge"><title>kina&#45;&gt;ITF&#45;I_pulse_on</title>
<path fill="none" stroke="black" d="M194.901,-215.697C184.047,-206.986 171.651,-196.29 161.376,-186.816"/>
<polygon fill="red" stroke="black" points="163.673,-184.171 153.994,-179.863 158.874,-189.267 163.673,-184.171"/>
</g>
<!-- WiFi UDP Stream -->
<g id="node9" class="node"><title>WiFi UDP Stream</title>
<ellipse fill="yellow" stroke="black" cx="301.592" cy="-162" rx="77.1866" ry="18"/>
<text text-anchor="middle" x="301.592" y="-158.3" font-family="Times,serif" font-size="14.00">WiFi UDP Stream</text>
</g>
<!-- kina&#45;&gt;WiFi UDP Stream -->
<g id="edge6" class="edge"><title>kina&#45;&gt;WiFi UDP Stream</title>
<path fill="none" stroke="black" d="M240.614,-215.697C250.868,-206.835 263.499,-195.92 274.6,-186.326"/>
<polygon fill="red" stroke="black" points="277.08,-188.809 282.357,-179.622 272.503,-183.513 277.08,-188.809"/>
</g>
<!-- ITF&#45;J_pulse_off -->
<g id="node10" class="node"><title>ITF&#45;J_pulse_off</title>
<ellipse fill="yellow" stroke="black" cx="464.592" cy="-162" rx="67.6881" ry="18"/>
<text text-anchor="middle" x="464.592" y="-158.3" font-family="Times,serif" font-size="14.00">ITF&#45;J_pulse_off</text>
</g>
<!-- kina&#45;&gt;ITF&#45;J_pulse_off -->
<g id="edge8" class="edge"><title>kina&#45;&gt;ITF&#45;J_pulse_off</title>
<path fill="none" stroke="black" d="M248.107,-225.106C287.367,-213.843 360.261,-192.931 410.543,-178.506"/>
<polygon fill="red" stroke="black" points="411.634,-181.834 420.281,-175.712 409.704,-175.105 411.634,-181.834"/>
</g>
<!-- silent -->
<g id="node2" class="node"><title>silent</title>
<polygon fill="blue" stroke="black" points="334.592,-108 270.592,-108 270.592,-72 334.592,-72 334.592,-108"/>
<text text-anchor="middle" x="302.592" y="-84.4" font-family="Times,serif" font-size="22.00">silent</text>
</g>
<!-- ITF&#45;E_signal_envelope -->
<g id="node7" class="node"><title>ITF&#45;E_signal_envelope</title>
<ellipse fill="yellow" stroke="black" cx="93.5917" cy="-18" rx="93.6835" ry="18"/>
<text text-anchor="middle" x="93.5917" y="-14.3" font-family="Times,serif" font-size="14.00">ITF&#45;E_signal_envelope</text>
</g>
<!-- silent&#45;&gt;ITF&#45;E_signal_envelope -->
<g id="edge14" class="edge"><title>silent&#45;&gt;ITF&#45;E_signal_envelope</title>
<path fill="none" stroke="black" d="M270.393,-78.2159C237.776,-67.2913 186.725,-50.193 147.849,-37.1723"/>
<polygon fill="red" stroke="black" points="148.84,-33.8132 138.246,-33.956 146.617,-40.4508 148.84,-33.8132"/>
</g>
<!-- mogaba -->
<g id="node3" class="node"><title>mogaba</title>
<polygon fill="blue" stroke="black" points="439.092,-396 352.092,-396 352.092,-360 439.092,-360 439.092,-396"/>
<text text-anchor="middle" x="395.592" y="-372.4" font-family="Times,serif" font-size="22.00">mogaba</text>
</g>
<!-- ITF&#45;A_gnd -->
<g id="node4" class="node"><title>ITF&#45;A_gnd</title>
<ellipse fill="yellow" stroke="black" cx="162.592" cy="-306" rx="50.8918" ry="18"/>
<text text-anchor="middle" x="162.592" y="-302.3" font-family="Times,serif" font-size="14.00">ITF&#45;A_gnd</text>
</g>
<!-- mogaba&#45;&gt;ITF&#45;A_gnd -->
<g id="edge17" class="edge"><title>mogaba&#45;&gt;ITF&#45;A_gnd</title>
<path fill="none" stroke="black" d="M352.04,-363.916C311.555,-351.753 251.405,-333.682 209.79,-321.18"/>
<polygon fill="red" stroke="black" points="210.743,-317.812 200.159,-318.286 208.729,-324.516 210.743,-317.812"/>
</g>
<!-- ITF&#45;B_5v -->
<g id="node5" class="node"><title>ITF&#45;B_5v</title>
<ellipse fill="yellow" stroke="black" cx="277.592" cy="-306" rx="46.2923" ry="18"/>
<text text-anchor="middle" x="277.592" y="-302.3" font-family="Times,serif" font-size="14.00">ITF&#45;B_5v</text>
</g>
<!-- mogaba&#45;&gt;ITF&#45;B_5v -->
<g id="edge18" class="edge"><title>mogaba&#45;&gt;ITF&#45;B_5v</title>
<path fill="none" stroke="black" d="M366.726,-359.876C349.76,-349.812 328.25,-337.051 310.611,-326.588"/>
<polygon fill="red" stroke="black" points="312.171,-323.444 301.784,-321.352 308.599,-329.464 312.171,-323.444"/>
</g>
<!-- ITF&#45;S_3_3v -->
<g id="node6" class="node"><title>ITF&#45;S_3_3v</title>
<ellipse fill="yellow" stroke="black" cx="395.592" cy="-306" rx="53.8905" ry="18"/>
<text text-anchor="middle" x="395.592" y="-302.3" font-family="Times,serif" font-size="14.00">ITF&#45;S_3_3v</text>
</g>
<!-- mogaba&#45;&gt;ITF&#45;S_3_3v -->
<g id="edge20" class="edge"><title>mogaba&#45;&gt;ITF&#45;S_3_3v</title>
<path fill="none" stroke="black" d="M395.592,-359.697C395.592,-351.983 395.592,-342.712 395.592,-334.112"/>
<polygon fill="red" stroke="black" points="399.092,-334.104 395.592,-324.104 392.092,-334.104 399.092,-334.104"/>
</g>
<!-- ITF&#45;F_12V -->
<g id="node12" class="node"><title>ITF&#45;F_12V</title>
<ellipse fill="yellow" stroke="black" cx="518.592" cy="-306" rx="51.1914" ry="18"/>
<text text-anchor="middle" x="518.592" y="-302.3" font-family="Times,serif" font-size="14.00">ITF&#45;F_12V</text>
</g>
<!-- mogaba&#45;&gt;ITF&#45;F_12V -->
<g id="edge19" class="edge"><title>mogaba&#45;&gt;ITF&#45;F_12V</title>
<path fill="none" stroke="black" d="M419.784,-359.876C436.875,-349.533 459.999,-336.344 479.635,-325.725"/>
<polygon fill="red" stroke="black" points="481.497,-328.698 488.663,-320.895 478.195,-322.526 481.497,-328.698"/>
</g>
<!-- ITF&#45;A_gnd&#45;&gt;kina -->
<g id="edge1" class="edge"><title>ITF&#45;A_gnd&#45;&gt;kina</title>
<path fill="none" stroke="black" d="M176.337,-288.411C183.281,-280.031 191.855,-269.682 199.603,-260.332"/>
<polygon fill="black" stroke="black" points="202.451,-262.38 206.136,-252.447 197.06,-257.914 202.451,-262.38"/>
</g>
<!-- ITF&#45;A_gnd&#45;&gt;silent -->
<g id="edge9" class="edge"><title>ITF&#45;A_gnd&#45;&gt;silent</title>
<path fill="none" stroke="black" d="M141.011,-289.709C101.734,-260.046 26.1139,-193.281 65.5917,-144 89.5134,-114.138 198.645,-99.9784 260.137,-94.2662"/>
<polygon fill="black" stroke="black" points="260.656,-97.7338 270.305,-93.3582 260.034,-90.7616 260.656,-97.7338"/>
</g>
<!-- ITF&#45;B_5v&#45;&gt;kina -->
<g id="edge2" class="edge"><title>ITF&#45;B_5v&#45;&gt;kina</title>
<path fill="none" stroke="black" d="M264.083,-288.411C257.26,-280.031 248.833,-269.682 241.219,-260.332"/>
<polygon fill="black" stroke="black" points="243.827,-257.991 234.798,-252.447 238.399,-262.411 243.827,-257.991"/>
</g>
<!-- ITF&#45;B_5v&#45;&gt;silent -->
<g id="edge10" class="edge"><title>ITF&#45;B_5v&#45;&gt;silent</title>
<path fill="none" stroke="black" d="M311.917,-293.87C377.239,-271.918 515.284,-221.564 541.592,-180 587.71,-107.137 425.333,-93.6275 345.002,-91.3336"/>
<polygon fill="black" stroke="black" points="344.784,-87.8275 334.704,-91.0881 344.618,-94.8255 344.784,-87.8275"/>
</g>
<!-- ITF&#45;S_3_3v&#45;&gt;kina -->
<g id="edge3" class="edge"><title>ITF&#45;S_3_3v&#45;&gt;kina</title>
<path fill="none" stroke="black" d="M362.264,-291.669C332.465,-279.749 288.848,-262.302 257.894,-249.921"/>
<polygon fill="black" stroke="black" points="258.908,-246.557 248.323,-246.093 256.308,-253.056 258.908,-246.557"/>
</g>
<!-- ITF&#45;S_3_3v&#45;&gt;silent -->
<g id="edge11" class="edge"><title>ITF&#45;S_3_3v&#45;&gt;silent</title>
<path fill="none" stroke="black" d="M428.865,-291.599C489.707,-265.208 608.36,-203.852 559.592,-144 532.959,-111.314 410.484,-98.187 344.685,-93.4228"/>
<polygon fill="black" stroke="black" points="344.852,-89.9261 334.634,-92.7283 344.369,-96.9094 344.852,-89.9261"/>
</g>
<!-- ITF&#45;E_signal_envelope&#45;&gt;kina -->
<g id="edge4" class="edge"><title>ITF&#45;E_signal_envelope&#45;&gt;kina</title>
<path fill="none" stroke="black" d="M83.1376,-36.0939C65.3378,-67.6372 33.9946,-135.803 65.5917,-180 92.0108,-216.955 145.806,-228.427 182.529,-231.83"/>
<polygon fill="black" stroke="black" points="182.624,-235.347 192.862,-232.618 183.157,-228.367 182.624,-235.347"/>
</g>
<!-- ITF&#45;I_pulse_on&#45;&gt;kina -->
<g id="edge5" class="edge"><title>ITF&#45;I_pulse_on&#45;&gt;kina</title>
<path fill="none" stroke="black" d="M164.535,-178.907C175.635,-187.731 188.617,-198.888 199.362,-208.774"/>
<polygon fill="black" stroke="black" points="197.047,-211.401 206.732,-215.697 201.84,-206.299 197.047,-211.401"/>
</g>
<!-- ITF&#45;I_pulse_on&#45;&gt;silent -->
<g id="edge12" class="edge"><title>ITF&#45;I_pulse_on&#45;&gt;silent</title>
<path fill="none" stroke="black" d="M174.158,-146.496C199.444,-135.57 234.25,-120.53 261.251,-108.863"/>
<polygon fill="black" stroke="black" points="262.657,-112.069 270.448,-104.889 259.88,-105.643 262.657,-112.069"/>
</g>
<!-- ITF&#45;J_pulse_off&#45;&gt;silent -->
<g id="edge13" class="edge"><title>ITF&#45;J_pulse_off&#45;&gt;silent</title>
<path fill="none" stroke="black" d="M430.631,-146.326C405.511,-135.471 371.153,-120.625 344.353,-109.045"/>
<polygon fill="black" stroke="black" points="345.42,-105.693 334.852,-104.94 342.643,-112.119 345.42,-105.693"/>
</g>
<!-- ITF&#45;mEM_Alimentation -->
<g id="node11" class="node"><title>ITF&#45;mEM_Alimentation</title>
<ellipse fill="green" stroke="black" cx="395.592" cy="-450" rx="98.5829" ry="18"/>
<text text-anchor="middle" x="395.592" y="-446.3" font-family="Times,serif" font-size="14.00">ITF&#45;mEM_Alimentation</text>
</g>
<!-- ITF&#45;mEM_Alimentation&#45;&gt;mogaba -->
<g id="edge15" class="edge"><title>ITF&#45;mEM_Alimentation&#45;&gt;mogaba</title>
<path fill="none" stroke="black" d="M395.592,-431.697C395.592,-423.983 395.592,-414.712 395.592,-406.112"/>
<polygon fill="black" stroke="black" points="399.092,-406.104 395.592,-396.104 392.092,-406.104 399.092,-406.104"/>
</g>
<!-- ITF&#45;F_12V&#45;&gt;mogaba -->
<g id="edge16" class="edge"><title>ITF&#45;F_12V&#45;&gt;mogaba</title>
<path fill="none" stroke="black" d="M497.049,-322.514C481.396,-332.068 459.813,-344.464 440.533,-355.019"/>
<polygon fill="black" stroke="black" points="438.699,-352.031 431.578,-359.876 442.037,-358.184 438.699,-352.031"/>
</g>
</g>
</svg>
