<?xml version="1.0" encoding="UTF-8" standalone="no"?>
<!DOCTYPE svg PUBLIC "-//W3C//DTD SVG 1.1//EN"
 "http://www.w3.org/Graphics/SVG/1.1/DTD/svg11.dtd">
<!-- Generated by graphviz version 2.38.0 (20140413.2041)
 -->
<!-- Title: %3 Pages: 1 -->
<svg width="1551pt" height="188pt"
 viewBox="0.00 0.00 1550.59 188.00" xmlns="http://www.w3.org/2000/svg" xmlns:xlink="http://www.w3.org/1999/xlink">
<g id="graph0" class="graph" transform="scale(1 1) rotate(0) translate(4 184)">
<title>%3</title>
<polygon fill="white" stroke="none" points="-4,4 -4,-184 1546.59,-184 1546.59,4 -4,4"/>
<!-- silent -->
<g id="node1" class="node"><title>silent</title>
<polygon fill="blue" stroke="black" points="235.594,-108 171.594,-108 171.594,-72 235.594,-72 235.594,-108"/>
<text text-anchor="middle" x="203.594" y="-84.4" font-family="Times,serif" font-size="22.00">silent</text>
</g>
<!-- ITF&#45;R_reserved -->
<g id="node5" class="node"><title>ITF&#45;R_reserved</title>
<ellipse fill="yellow" stroke="black" cx="203.594" cy="-18" rx="66.8882" ry="18"/>
<text text-anchor="middle" x="203.594" y="-14.3" font-family="Times,serif" font-size="14.00">ITF&#45;R_reserved</text>
</g>
<!-- silent&#45;&gt;ITF&#45;R_reserved -->
<g id="edge8" class="edge"><title>silent&#45;&gt;ITF&#45;R_reserved</title>
<path fill="none" stroke="black" d="M197.678,-71.6966C196.883,-63.9827 196.656,-54.7125 196.999,-46.1124"/>
<polygon fill="red" stroke="black" points="200.492,-46.3243 197.699,-36.1043 193.509,-45.8356 200.492,-46.3243"/>
</g>
<!-- ITF&#45;A_gnd -->
<g id="node2" class="node"><title>ITF&#45;A_gnd</title>
<ellipse fill="yellow" stroke="black" cx="203.594" cy="-162" rx="50.8918" ry="18"/>
<text text-anchor="middle" x="203.594" y="-158.3" font-family="Times,serif" font-size="14.00">ITF&#45;A_gnd</text>
</g>
<!-- ITF&#45;A_gnd&#45;&gt;silent -->
<g id="edge1" class="edge"><title>ITF&#45;A_gnd&#45;&gt;silent</title>
<path fill="none" stroke="black" d="M197.716,-144.055C196.898,-136.346 196.655,-127.027 196.989,-118.364"/>
<polygon fill="black" stroke="black" points="200.488,-118.491 197.681,-108.275 193.505,-118.012 200.488,-118.491"/>
</g>
<!-- ITF&#45;A_gnd&#45;&gt;silent -->
<g id="edge4" class="edge"><title>ITF&#45;A_gnd&#45;&gt;silent</title>
<path fill="none" stroke="black" d="M209.472,-144.055C210.29,-136.346 210.533,-127.027 210.199,-118.364"/>
<polygon fill="black" stroke="black" points="213.683,-118.012 209.507,-108.275 206.7,-118.491 213.683,-118.012"/>
</g>
<!-- croaker -->
<g id="node6" class="node"><title>croaker</title>
<polygon fill="blue" stroke="black" points="485.094,-108 402.094,-108 402.094,-72 485.094,-72 485.094,-108"/>
<text text-anchor="middle" x="443.594" y="-84.4" font-family="Times,serif" font-size="22.00">croaker</text>
</g>
<!-- ITF&#45;A_gnd&#45;&gt;croaker -->
<g id="edge9" class="edge"><title>ITF&#45;A_gnd&#45;&gt;croaker</title>
<path fill="none" stroke="black" d="M239.09,-149.125C279.612,-136.734 346.024,-117.341 392.183,-104.407"/>
<polygon fill="black" stroke="black" points="393.307,-107.727 401.999,-101.669 391.426,-100.984 393.307,-107.727"/>
</g>
<!-- ITF&#45;A_gnd&#45;&gt;croaker -->
<g id="edge14" class="edge"><title>ITF&#45;A_gnd&#45;&gt;croaker</title>
<path fill="none" stroke="black" d="M243.42,-150.821C284.161,-139.541 347.449,-121.172 391.985,-107.761"/>
<polygon fill="black" stroke="black" points="393.191,-111.053 401.75,-104.809 391.165,-104.353 393.191,-111.053"/>
</g>
<!-- mogaba -->
<g id="node12" class="node"><title>mogaba</title>
<polygon fill="blue" stroke="black" points="1247.09,-108 1160.09,-108 1160.09,-72 1247.09,-72 1247.09,-108"/>
<text text-anchor="middle" x="1203.59" y="-84.4" font-family="Times,serif" font-size="22.00">mogaba</text>
</g>
<!-- ITF&#45;A_gnd&#45;&gt;mogaba -->
<g id="edge27" class="edge"><title>ITF&#45;A_gnd&#45;&gt;mogaba</title>
<path fill="none" stroke="black" d="M239.791,-149.363C247.571,-147.252 255.799,-145.308 263.594,-144 436.082,-115.064 977.071,-97.469 1149.93,-92.4749"/>
<polygon fill="black" stroke="black" points="1150.16,-95.9698 1160.05,-92.1846 1149.96,-88.9726 1150.16,-95.9698"/>
</g>
<!-- ITF&#45;B_5v -->
<g id="node3" class="node"><title>ITF&#45;B_5v</title>
<ellipse fill="yellow" stroke="black" cx="318.594" cy="-162" rx="46.2923" ry="18"/>
<text text-anchor="middle" x="318.594" y="-158.3" font-family="Times,serif" font-size="14.00">ITF&#45;B_5v</text>
</g>
<!-- ITF&#45;B_5v&#45;&gt;silent -->
<g id="edge2" class="edge"><title>ITF&#45;B_5v&#45;&gt;silent</title>
<path fill="none" stroke="black" d="M290.963,-147.503C273.962,-137.963 252.266,-124.942 234.686,-113.804"/>
<polygon fill="black" stroke="black" points="236.223,-110.632 225.915,-108.18 232.444,-116.524 236.223,-110.632"/>
</g>
<!-- ITF&#45;B_5v&#45;&gt;silent -->
<g id="edge5" class="edge"><title>ITF&#45;B_5v&#45;&gt;silent</title>
<path fill="none" stroke="black" d="M299.056,-145.638C284.099,-135.816 263.136,-122.942 244.612,-112.159"/>
<polygon fill="black" stroke="black" points="246.163,-109.013 235.751,-107.055 242.67,-115.079 246.163,-109.013"/>
</g>
<!-- ITF&#45;B_5v&#45;&gt;croaker -->
<g id="edge10" class="edge"><title>ITF&#45;B_5v&#45;&gt;croaker</title>
<path fill="none" stroke="black" d="M339.752,-145.983C355.735,-136.368 378.088,-123.727 398.008,-112.991"/>
<polygon fill="black" stroke="black" points="399.786,-116.009 406.957,-108.209 396.488,-109.835 399.786,-116.009"/>
</g>
<!-- ITF&#45;B_5v&#45;&gt;croaker -->
<g id="edge15" class="edge"><title>ITF&#45;B_5v&#45;&gt;croaker</title>
<path fill="none" stroke="black" d="M347.517,-147.834C366.328,-138.08 390.777,-124.559 410.364,-113.153"/>
<polygon fill="black" stroke="black" points="412.139,-116.169 418.983,-108.082 408.589,-110.136 412.139,-116.169"/>
</g>
<!-- ITF&#45;B_5v&#45;&gt;mogaba -->
<g id="edge28" class="edge"><title>ITF&#45;B_5v&#45;&gt;mogaba</title>
<path fill="none" stroke="black" d="M351.727,-149.381C358.863,-147.268 366.418,-145.319 373.594,-144 523.498,-116.447 990.623,-98.2943 1149.82,-92.7755"/>
<polygon fill="black" stroke="black" points="1149.98,-96.2722 1159.85,-92.4303 1149.74,-89.2763 1149.98,-96.2722"/>
</g>
<!-- ITF&#45;J_pulse_off -->
<g id="node4" class="node"><title>ITF&#45;J_pulse_off</title>
<ellipse fill="yellow" stroke="black" cx="67.594" cy="-162" rx="67.6881" ry="18"/>
<text text-anchor="middle" x="67.594" y="-158.3" font-family="Times,serif" font-size="14.00">ITF&#45;J_pulse_off</text>
</g>
<!-- ITF&#45;J_pulse_off&#45;&gt;silent -->
<g id="edge3" class="edge"><title>ITF&#45;J_pulse_off&#45;&gt;silent</title>
<path fill="none" stroke="black" d="M92.6937,-145.116C112.261,-134.409 139.673,-120.259 162.404,-109.114"/>
<polygon fill="black" stroke="black" points="164.035,-112.213 171.5,-104.695 160.976,-105.917 164.035,-112.213"/>
</g>
<!-- ITF&#45;J_pulse_off&#45;&gt;silent -->
<g id="edge6" class="edge"><title>ITF&#45;J_pulse_off&#45;&gt;silent</title>
<path fill="none" stroke="black" d="M101.719,-146.326C121.722,-136.661 146.881,-123.831 167.243,-112.96"/>
<polygon fill="black" stroke="black" points="169.082,-115.946 176.226,-108.122 165.762,-109.783 169.082,-115.946"/>
</g>
<!-- ITF&#45;J_pulse_off&#45;&gt;croaker -->
<g id="edge13" class="edge"><title>ITF&#45;J_pulse_off&#45;&gt;croaker</title>
<path fill="none" stroke="black" d="M112.995,-148.536C120.193,-146.958 127.567,-145.406 134.594,-144 224.497,-126.013 330.203,-108.084 391.882,-98.3816"/>
<polygon fill="black" stroke="black" points="392.423,-101.84 401.763,-96.8391 391.343,-94.9234 392.423,-101.84"/>
</g>
<!-- ITF&#45;J_pulse_off&#45;&gt;croaker -->
<g id="edge18" class="edge"><title>ITF&#45;J_pulse_off&#45;&gt;croaker</title>
<path fill="none" stroke="black" d="M120.474,-150.774C131.158,-148.455 142.253,-146.069 152.594,-144 236.255,-127.262 333.602,-110.574 391.915,-100.519"/>
<polygon fill="black" stroke="black" points="392.726,-103.93 401.985,-98.7806 391.536,-97.0324 392.726,-103.93"/>
</g>
<!-- ITF&#45;R_reserved&#45;&gt;silent -->
<g id="edge7" class="edge"><title>ITF&#45;R_reserved&#45;&gt;silent</title>
<path fill="none" stroke="black" d="M209.489,-36.1043C210.295,-43.7913 210.531,-53.0537 210.198,-61.6651"/>
<polygon fill="black" stroke="black" points="206.703,-61.4805 209.51,-71.6966 213.686,-61.9597 206.703,-61.4805"/>
</g>
<!-- ITF&#45;mEC&#45;WiFi&#45;UDP&#45;Stream -->
<g id="node11" class="node"><title>ITF&#45;mEC&#45;WiFi&#45;UDP&#45;Stream</title>
<ellipse fill="green" stroke="black" cx="443.594" cy="-18" rx="115.88" ry="18"/>
<text text-anchor="middle" x="443.594" y="-14.3" font-family="Times,serif" font-size="14.00">ITF&#45;mEC&#45;WiFi&#45;UDP&#45;Stream</text>
</g>
<!-- croaker&#45;&gt;ITF&#45;mEC&#45;WiFi&#45;UDP&#45;Stream -->
<g id="edge22" class="edge"><title>croaker&#45;&gt;ITF&#45;mEC&#45;WiFi&#45;UDP&#45;Stream</title>
<path fill="none" stroke="black" d="M437.678,-71.6966C436.883,-63.9827 436.656,-54.7125 436.999,-46.1124"/>
<polygon fill="red" stroke="black" points="440.492,-46.3243 437.699,-36.1043 433.509,-45.8356 440.492,-46.3243"/>
</g>
<!-- ITF&#45;E_signal_envelope -->
<g id="node7" class="node"><title>ITF&#45;E_signal_envelope</title>
<ellipse fill="yellow" stroke="black" cx="691.594" cy="-162" rx="93.6835" ry="18"/>
<text text-anchor="middle" x="691.594" y="-158.3" font-family="Times,serif" font-size="14.00">ITF&#45;E_signal_envelope</text>
</g>
<!-- ITF&#45;E_signal_envelope&#45;&gt;croaker -->
<g id="edge11" class="edge"><title>ITF&#45;E_signal_envelope&#45;&gt;croaker</title>
<path fill="none" stroke="black" d="M637.401,-147.254C595.087,-135.753 536.784,-119.325 495.155,-107.19"/>
<polygon fill="black" stroke="black" points="496.063,-103.808 485.482,-104.358 494.096,-110.526 496.063,-103.808"/>
</g>
<!-- ITF&#45;E_signal_envelope&#45;&gt;croaker -->
<g id="edge16" class="edge"><title>ITF&#45;E_signal_envelope&#45;&gt;croaker</title>
<path fill="none" stroke="black" d="M645.22,-146.326C602.44,-133.802 539.171,-115.966 494.897,-103.962"/>
<polygon fill="black" stroke="black" points="495.762,-100.57 485.195,-101.343 493.938,-107.328 495.762,-100.57"/>
</g>
<!-- ITF&#45;I_pulse_on -->
<g id="node8" class="node"><title>ITF&#45;I_pulse_on</title>
<ellipse fill="yellow" stroke="black" cx="868.594" cy="-162" rx="65.7887" ry="18"/>
<text text-anchor="middle" x="868.594" y="-158.3" font-family="Times,serif" font-size="14.00">ITF&#45;I_pulse_on</text>
</g>
<!-- ITF&#45;I_pulse_on&#45;&gt;croaker -->
<g id="edge12" class="edge"><title>ITF&#45;I_pulse_on&#45;&gt;croaker</title>
<path fill="none" stroke="black" d="M817.322,-150.646C806.788,-148.308 795.825,-145.945 785.594,-144 682.943,-124.488 562.303,-107.574 495.142,-98.3752"/>
<polygon fill="black" stroke="black" points="495.613,-94.9071 485.231,-97.0202 494.665,-101.843 495.613,-94.9071"/>
</g>
<!-- ITF&#45;I_pulse_on&#45;&gt;croaker -->
<g id="edge17" class="edge"><title>ITF&#45;I_pulse_on&#45;&gt;croaker</title>
<path fill="none" stroke="black" d="M825.06,-148.433C817.922,-146.854 810.587,-145.329 803.594,-144 694.673,-123.296 565.499,-105.518 495.203,-96.7771"/>
<polygon fill="black" stroke="black" points="495.621,-93.3022 485.269,-95.5538 494.766,-100.25 495.621,-93.3022"/>
</g>
<!-- ITF&#45;mED&#45;TFT&#45;Screen -->
<g id="node9" class="node"><title>ITF&#45;mED&#45;TFT&#45;Screen</title>
<ellipse fill="green" stroke="black" cx="1043.59" cy="-162" rx="90.9839" ry="18"/>
<text text-anchor="middle" x="1043.59" y="-158.3" font-family="Times,serif" font-size="14.00">ITF&#45;mED&#45;TFT&#45;Screen</text>
</g>
<!-- ITF&#45;mED&#45;TFT&#45;Screen&#45;&gt;croaker -->
<g id="edge19" class="edge"><title>ITF&#45;mED&#45;TFT&#45;Screen&#45;&gt;croaker</title>
<path fill="none" stroke="black" d="M978.597,-149.342C966.961,-147.429 954.933,-145.563 943.594,-144 780.395,-121.501 586.079,-103.371 495.222,-95.3953"/>
<polygon fill="black" stroke="black" points="495.453,-91.9022 485.186,-94.5188 494.843,-98.8757 495.453,-91.9022"/>
</g>
<!-- ITF&#45;mED&#45;OLED&#45;Screen -->
<g id="node10" class="node"><title>ITF&#45;mED&#45;OLED&#45;Screen</title>
<ellipse fill="green" stroke="black" cx="481.594" cy="-162" rx="98.5829" ry="18"/>
<text text-anchor="middle" x="481.594" y="-158.3" font-family="Times,serif" font-size="14.00">ITF&#45;mED&#45;OLED&#45;Screen</text>
</g>
<!-- ITF&#45;mED&#45;OLED&#45;Screen&#45;&gt;croaker -->
<g id="edge20" class="edge"><title>ITF&#45;mED&#45;OLED&#45;Screen&#45;&gt;croaker</title>
<path fill="none" stroke="black" d="M472.395,-144.055C468.026,-136.007 462.705,-126.205 457.831,-117.226"/>
<polygon fill="black" stroke="black" points="460.819,-115.394 452.972,-108.275 454.667,-118.734 460.819,-115.394"/>
</g>
<!-- ITF&#45;mEC&#45;WiFi&#45;UDP&#45;Stream&#45;&gt;croaker -->
<g id="edge21" class="edge"><title>ITF&#45;mEC&#45;WiFi&#45;UDP&#45;Stream&#45;&gt;croaker</title>
<path fill="none" stroke="black" d="M449.489,-36.1043C450.295,-43.7913 450.531,-53.0537 450.198,-61.6651"/>
<polygon fill="black" stroke="black" points="446.703,-61.4805 449.51,-71.6966 453.686,-61.9597 446.703,-61.4805"/>
</g>
<!-- ITF&#45;S_3_3v -->
<g id="node15" class="node"><title>ITF&#45;S_3_3v</title>
<ellipse fill="yellow" stroke="black" cx="1203.59" cy="-18" rx="53.8905" ry="18"/>
<text text-anchor="middle" x="1203.59" y="-14.3" font-family="Times,serif" font-size="14.00">ITF&#45;S_3_3v</text>
</g>
<!-- mogaba&#45;&gt;ITF&#45;S_3_3v -->
<g id="edge31" class="edge"><title>mogaba&#45;&gt;ITF&#45;S_3_3v</title>
<path fill="none" stroke="black" d="M1197.68,-71.6966C1196.88,-63.9827 1196.66,-54.7125 1197,-46.1124"/>
<polygon fill="red" stroke="black" points="1200.49,-46.3243 1197.7,-36.1043 1193.51,-45.8356 1200.49,-46.3243"/>
</g>
<!-- ITF&#45;mEM_Alimentation -->
<g id="node13" class="node"><title>ITF&#45;mEM_Alimentation</title>
<ellipse fill="green" stroke="black" cx="1371.59" cy="-162" rx="98.5829" ry="18"/>
<text text-anchor="middle" x="1371.59" y="-158.3" font-family="Times,serif" font-size="14.00">ITF&#45;mEM_Alimentation</text>
</g>
<!-- ITF&#45;mEM_Alimentation&#45;&gt;mogaba -->
<g id="edge23" class="edge"><title>ITF&#45;mEM_Alimentation&#45;&gt;mogaba</title>
<path fill="none" stroke="black" d="M1329.03,-145.638C1304.2,-135.789 1273.02,-122.872 1247.91,-112.07"/>
<polygon fill="black" stroke="black" points="1249.18,-108.805 1238.61,-108.044 1246.4,-115.229 1249.18,-108.805"/>
</g>
<!-- ITF&#45;mEM_Alimentation&#45;&gt;mogaba -->
<g id="edge25" class="edge"><title>ITF&#45;mEM_Alimentation&#45;&gt;mogaba</title>
<path fill="none" stroke="black" d="M1338.83,-144.941C1315.39,-134.686 1283.44,-121.328 1256.44,-110.47"/>
<polygon fill="black" stroke="black" points="1257.71,-107.206 1247.12,-106.743 1255.11,-113.706 1257.71,-107.206"/>
</g>
<!-- ITF&#45;F_12V -->
<g id="node14" class="node"><title>ITF&#45;F_12V</title>
<ellipse fill="yellow" stroke="black" cx="1203.59" cy="-162" rx="51.1914" ry="18"/>
<text text-anchor="middle" x="1203.59" y="-158.3" font-family="Times,serif" font-size="14.00">ITF&#45;F_12V</text>
</g>
<!-- ITF&#45;F_12V&#45;&gt;mogaba -->
<g id="edge24" class="edge"><title>ITF&#45;F_12V&#45;&gt;mogaba</title>
<path fill="none" stroke="black" d="M1191.91,-144.411C1190.23,-136.708 1189.72,-127.341 1190.36,-118.616"/>
<polygon fill="black" stroke="black" points="1193.87,-118.824 1191.73,-108.447 1186.93,-117.891 1193.87,-118.824"/>
</g>
<!-- ITF&#45;F_12V&#45;&gt;mogaba -->
<g id="edge26" class="edge"><title>ITF&#45;F_12V&#45;&gt;mogaba</title>
<path fill="none" stroke="black" d="M1203.59,-143.697C1203.59,-135.983 1203.59,-126.712 1203.59,-118.112"/>
<polygon fill="black" stroke="black" points="1207.09,-118.104 1203.59,-108.104 1200.09,-118.104 1207.09,-118.104"/>
</g>
<!-- ITF&#45;F_12V&#45;&gt;mogaba -->
<g id="edge29" class="edge"><title>ITF&#45;F_12V&#45;&gt;mogaba</title>
<path fill="none" stroke="black" d="M1215.27,-144.411C1216.96,-136.708 1217.47,-127.341 1216.82,-118.616"/>
<polygon fill="black" stroke="black" points="1220.26,-117.891 1215.45,-108.447 1213.32,-118.824 1220.26,-117.891"/>
</g>
<!-- ITF&#45;S_3_3v&#45;&gt;mogaba -->
<g id="edge30" class="edge"><title>ITF&#45;S_3_3v&#45;&gt;mogaba</title>
<path fill="none" stroke="black" d="M1209.49,-36.1043C1210.29,-43.7913 1210.53,-53.0537 1210.2,-61.6651"/>
<polygon fill="black" stroke="black" points="1206.7,-61.4805 1209.51,-71.6966 1213.69,-61.9597 1206.7,-61.4805"/>
</g>
<!-- doj -->
<g id="node16" class="node"><title>doj</title>
<polygon fill="blue" stroke="black" points="1542.59,-180 1488.59,-180 1488.59,-144 1542.59,-144 1542.59,-180"/>
<text text-anchor="middle" x="1515.59" y="-156.4" font-family="Times,serif" font-size="22.00">doj</text>
</g>
<g id="node17" class="node"><title></title>
<ellipse fill="none" stroke="black" cx="1515.59" cy="-90" rx="27" ry="18"/>
</g>
<!-- doj&#45;&gt; -->
<g id="edge32" class="edge"><title>doj&#45;&gt;</title>
<path fill="none" stroke="black" d="M1515.59,-143.697C1515.59,-135.983 1515.59,-126.712 1515.59,-118.112"/>
<polygon fill="red" stroke="black" points="1519.09,-118.104 1515.59,-108.104 1512.09,-118.104 1519.09,-118.104"/>
</g>
</g>
</svg>
