<?xml version="1.0" encoding="UTF-8" standalone="no"?>
<!DOCTYPE svg PUBLIC "-//W3C//DTD SVG 1.1//EN"
 "http://www.w3.org/Graphics/SVG/1.1/DTD/svg11.dtd">
<!-- Generated by graphviz version 2.38.0 (20140413.2041)
 -->
<!-- Title: %3 Pages: 1 -->
<svg width="1046pt" height="764pt"
 viewBox="0.00 0.00 1045.74 764.00" xmlns="http://www.w3.org/2000/svg" xmlns:xlink="http://www.w3.org/1999/xlink">
<g id="graph0" class="graph" transform="scale(1 1) rotate(0) translate(4 760)">
<title>%3</title>
<polygon fill="white" stroke="none" points="-4,4 -4,-760 1041.74,-760 1041.74,4 -4,4"/>
<!-- retroATL3 -->
<g id="node1" class="node"><title>retroATL3</title>
<polygon fill="blue" stroke="black" points="298.647,-540 185.647,-540 185.647,-504 298.647,-504 298.647,-540"/>
<text text-anchor="middle" x="242.147" y="-516.4" font-family="Times,serif" font-size="22.00">retroATL3</text>
</g>
<!-- ITF&#45;mET_Transducer -->
<g id="node9" class="node"><title>ITF&#45;mET_Transducer</title>
<ellipse fill="green" stroke="black" cx="485.147" cy="-450" rx="89.0842" ry="18"/>
<text text-anchor="middle" x="485.147" y="-446.3" font-family="Times,serif" font-size="14.00">ITF&#45;mET_Transducer</text>
</g>
<!-- retroATL3&#45;&gt;ITF&#45;mET_Transducer -->
<g id="edge8" class="edge"><title>retroATL3&#45;&gt;ITF&#45;mET_Transducer</title>
<path fill="none" stroke="black" d="M295.393,-503.966C332.941,-492.811 383.287,-478.315 422.721,-467.309"/>
<polygon fill="red" stroke="black" points="423.801,-470.642 432.497,-464.591 421.925,-463.898 423.801,-470.642"/>
</g>
<!-- Motor -->
<g id="node10" class="node"><title>Motor</title>
<ellipse fill="yellow" stroke="black" cx="33.1471" cy="-450" rx="33.2948" ry="18"/>
<text text-anchor="middle" x="33.1471" y="-446.3" font-family="Times,serif" font-size="14.00">Motor</text>
</g>
<!-- retroATL3&#45;&gt;Motor -->
<g id="edge7" class="edge"><title>retroATL3&#45;&gt;Motor</title>
<path fill="none" stroke="black" d="M185.613,-506.561C150.751,-496.42 105.494,-482.183 66.1471,-468 65.5689,-467.792 64.9869,-467.58 64.4022,-467.366"/>
<polygon fill="red" stroke="black" points="65.4364,-464.014 54.8457,-463.717 62.9394,-470.554 65.4364,-464.014"/>
</g>
<!-- Tri&#45;Piezo Head -->
<g id="node11" class="node"><title>Tri&#45;Piezo Head</title>
<ellipse fill="yellow" stroke="black" cx="149.147" cy="-450" rx="64.9885" ry="18"/>
<text text-anchor="middle" x="149.147" y="-446.3" font-family="Times,serif" font-size="14.00">Tri&#45;Piezo Head</text>
</g>
<!-- retroATL3&#45;&gt;Tri&#45;Piezo Head -->
<g id="edge9" class="edge"><title>retroATL3&#45;&gt;Tri&#45;Piezo Head</title>
<path fill="none" stroke="black" d="M213.5,-503.876C200.585,-494.865 185.582,-483.694 173.249,-473.944"/>
<polygon fill="red" stroke="black" points="175.181,-471.006 165.196,-467.465 170.793,-476.461 175.181,-471.006"/>
</g>
<!-- toadkiller -->
<g id="node2" class="node"><title>toadkiller</title>
<polygon fill="blue" stroke="black" points="644.647,-108 543.647,-108 543.647,-72 644.647,-72 644.647,-108"/>
<text text-anchor="middle" x="594.147" y="-84.4" font-family="Times,serif" font-size="22.00">toadkiller</text>
</g>
<!-- ITF&#45;N_cc_motor_pwm -->
<g id="node8" class="node"><title>ITF&#45;N_cc_motor_pwm</title>
<ellipse fill="yellow" stroke="black" cx="242.147" cy="-18" rx="93.6835" ry="18"/>
<text text-anchor="middle" x="242.147" y="-14.3" font-family="Times,serif" font-size="14.00">ITF&#45;N_cc_motor_pwm</text>
</g>
<!-- toadkiller&#45;&gt;ITF&#45;N_cc_motor_pwm -->
<g id="edge18" class="edge"><title>toadkiller&#45;&gt;ITF&#45;N_cc_motor_pwm</title>
<path fill="none" stroke="black" d="M543.339,-78.8962C483.274,-66.9514 382.875,-46.9856 314.653,-33.4188"/>
<polygon fill="red" stroke="black" points="315.32,-29.983 304.83,-31.4653 313.955,-36.8486 315.32,-29.983"/>
</g>
<!-- WiFi UDP Stream -->
<g id="node15" class="node"><title>WiFi UDP Stream</title>
<ellipse fill="yellow" stroke="black" cx="780.147" cy="-18" rx="77.1866" ry="18"/>
<text text-anchor="middle" x="780.147" y="-14.3" font-family="Times,serif" font-size="14.00">WiFi UDP Stream</text>
</g>
<!-- toadkiller&#45;&gt;WiFi UDP Stream -->
<g id="edge14" class="edge"><title>toadkiller&#45;&gt;WiFi UDP Stream</title>
<path fill="none" stroke="black" d="M639.648,-71.8761C667.547,-61.3762 703.243,-47.9423 731.673,-37.2429"/>
<polygon fill="red" stroke="black" points="733.275,-40.3798 741.401,-33.5818 730.809,-33.8284 733.275,-40.3798"/>
</g>
<!-- ITF&#45;mED&#45;TFT&#45;Screen -->
<g id="node16" class="node"><title>ITF&#45;mED&#45;TFT&#45;Screen</title>
<ellipse fill="green" stroke="black" cx="594.147" cy="-18" rx="90.9839" ry="18"/>
<text text-anchor="middle" x="594.147" y="-14.3" font-family="Times,serif" font-size="14.00">ITF&#45;mED&#45;TFT&#45;Screen</text>
</g>
<!-- toadkiller&#45;&gt;ITF&#45;mED&#45;TFT&#45;Screen -->
<g id="edge15" class="edge"><title>toadkiller&#45;&gt;ITF&#45;mED&#45;TFT&#45;Screen</title>
<path fill="none" stroke="black" d="M594.147,-71.6966C594.147,-63.9827 594.147,-54.7125 594.147,-46.1124"/>
<polygon fill="red" stroke="black" points="597.647,-46.1043 594.147,-36.1043 590.647,-46.1044 597.647,-46.1043"/>
</g>
<!-- ITF&#45;I_pulse_on -->
<g id="node17" class="node"><title>ITF&#45;I_pulse_on</title>
<ellipse fill="yellow" stroke="black" cx="419.147" cy="-18" rx="65.7887" ry="18"/>
<text text-anchor="middle" x="419.147" y="-14.3" font-family="Times,serif" font-size="14.00">ITF&#45;I_pulse_on</text>
</g>
<!-- toadkiller&#45;&gt;ITF&#45;I_pulse_on -->
<g id="edge16" class="edge"><title>toadkiller&#45;&gt;ITF&#45;I_pulse_on</title>
<path fill="none" stroke="black" d="M551.337,-71.8761C524.932,-61.3139 491.104,-47.7828 464.279,-37.0528"/>
<polygon fill="red" stroke="black" points="465.324,-33.7014 454.74,-33.2371 462.725,-40.2007 465.324,-33.7014"/>
</g>
<!-- ITF&#45;J_pulse_off -->
<g id="node18" class="node"><title>ITF&#45;J_pulse_off</title>
<ellipse fill="yellow" stroke="black" cx="970.147" cy="-18" rx="67.6881" ry="18"/>
<text text-anchor="middle" x="970.147" y="-14.3" font-family="Times,serif" font-size="14.00">ITF&#45;J_pulse_off</text>
</g>
<!-- toadkiller&#45;&gt;ITF&#45;J_pulse_off -->
<g id="edge17" class="edge"><title>toadkiller&#45;&gt;ITF&#45;J_pulse_off</title>
<path fill="none" stroke="black" d="M644.856,-79.5595C712.533,-66.9601 832.401,-44.6442 906.201,-30.9048"/>
<polygon fill="red" stroke="black" points="907.108,-34.2961 916.299,-29.0249 905.827,-27.4144 907.108,-34.2961"/>
</g>
<!-- mogaba -->
<g id="node3" class="node"><title>mogaba</title>
<polygon fill="blue" stroke="black" points="468.647,-684 381.647,-684 381.647,-648 468.647,-648 468.647,-684"/>
<text text-anchor="middle" x="425.147" y="-660.4" font-family="Times,serif" font-size="22.00">mogaba</text>
</g>
<!-- ITF&#45;A_gnd -->
<g id="node6" class="node"><title>ITF&#45;A_gnd</title>
<ellipse fill="yellow" stroke="black" cx="602.147" cy="-594" rx="50.8918" ry="18"/>
<text text-anchor="middle" x="602.147" y="-590.3" font-family="Times,serif" font-size="14.00">ITF&#45;A_gnd</text>
</g>
<!-- mogaba&#45;&gt;ITF&#45;A_gnd -->
<g id="edge21" class="edge"><title>mogaba&#45;&gt;ITF&#45;A_gnd</title>
<path fill="none" stroke="black" d="M468.446,-647.876C496.369,-636.833 532.498,-622.545 560.159,-611.605"/>
<polygon fill="red" stroke="black" points="561.551,-614.819 569.563,-607.887 558.976,-608.31 561.551,-614.819"/>
</g>
<!-- ITF&#45;F_12V -->
<g id="node7" class="node"><title>ITF&#45;F_12V</title>
<ellipse fill="yellow" stroke="black" cx="346.147" cy="-594" rx="51.1914" ry="18"/>
<text text-anchor="middle" x="346.147" y="-590.3" font-family="Times,serif" font-size="14.00">ITF&#45;F_12V</text>
</g>
<!-- mogaba&#45;&gt;ITF&#45;F_12V -->
<g id="edge23" class="edge"><title>mogaba&#45;&gt;ITF&#45;F_12V</title>
<path fill="none" stroke="black" d="M399.703,-647.697C388.894,-638.921 376.549,-628.132 366.367,-618.606"/>
<polygon fill="red" stroke="black" points="368.709,-616.004 359.063,-611.622 363.872,-621.063 368.709,-616.004"/>
</g>
<!-- ITF&#45;B_5v -->
<g id="node12" class="node"><title>ITF&#45;B_5v</title>
<ellipse fill="yellow" stroke="black" cx="959.147" cy="-450" rx="46.2923" ry="18"/>
<text text-anchor="middle" x="959.147" y="-446.3" font-family="Times,serif" font-size="14.00">ITF&#45;B_5v</text>
</g>
<!-- mogaba&#45;&gt;ITF&#45;B_5v -->
<g id="edge22" class="edge"><title>mogaba&#45;&gt;ITF&#45;B_5v</title>
<path fill="none" stroke="black" d="M468.797,-663.849C557.967,-659.438 763.927,-638.486 898.147,-540 920.211,-523.81 936.958,-497.114 947.271,-477.175"/>
<polygon fill="red" stroke="black" points="950.511,-478.52 951.812,-468.005 944.238,-475.414 950.511,-478.52"/>
</g>
<!-- ITF&#45;S_3_3v -->
<g id="node13" class="node"><title>ITF&#45;S_3_3v</title>
<ellipse fill="yellow" stroke="black" cx="324.147" cy="-450" rx="53.8905" ry="18"/>
<text text-anchor="middle" x="324.147" y="-446.3" font-family="Times,serif" font-size="14.00">ITF&#45;S_3_3v</text>
</g>
<!-- mogaba&#45;&gt;ITF&#45;S_3_3v -->
<g id="edge24" class="edge"><title>mogaba&#45;&gt;ITF&#45;S_3_3v</title>
<path fill="none" stroke="black" d="M423.374,-647.706C421.058,-629.349 416.068,-599.766 406.147,-576 390.406,-538.292 363.013,-499.688 344.253,-475.551"/>
<polygon fill="red" stroke="black" points="346.953,-473.323 338.01,-467.642 341.459,-477.66 346.953,-473.323"/>
</g>
<!-- goblin -->
<g id="node4" class="node"><title>goblin</title>
<polygon fill="blue" stroke="black" points="711.147,-252 637.147,-252 637.147,-216 711.147,-216 711.147,-252"/>
<text text-anchor="middle" x="674.147" y="-228.4" font-family="Times,serif" font-size="22.00">goblin</text>
</g>
<!-- ITF&#45;E_signal_envelope -->
<g id="node14" class="node"><title>ITF&#45;E_signal_envelope</title>
<ellipse fill="yellow" stroke="black" cx="448.147" cy="-162" rx="93.6835" ry="18"/>
<text text-anchor="middle" x="448.147" y="-158.3" font-family="Times,serif" font-size="14.00">ITF&#45;E_signal_envelope</text>
</g>
<!-- goblin&#45;&gt;ITF&#45;E_signal_envelope -->
<g id="edge34" class="edge"><title>goblin&#45;&gt;ITF&#45;E_signal_envelope</title>
<path fill="none" stroke="black" d="M637.12,-223.045C600.005,-212.177 542.704,-194.545 500.877,-181.192"/>
<polygon fill="red" stroke="black" points="501.725,-177.788 491.134,-178.069 499.588,-184.454 501.725,-177.788"/>
</g>
<!-- ITF&#45;C_amplified_raw_signal -->
<g id="node21" class="node"><title>ITF&#45;C_amplified_raw_signal</title>
<ellipse fill="yellow" stroke="black" cx="674.147" cy="-162" rx="114.28" ry="18"/>
<text text-anchor="middle" x="674.147" y="-158.3" font-family="Times,serif" font-size="14.00">ITF&#45;C_amplified_raw_signal</text>
</g>
<!-- goblin&#45;&gt;ITF&#45;C_amplified_raw_signal -->
<g id="edge33" class="edge"><title>goblin&#45;&gt;ITF&#45;C_amplified_raw_signal</title>
<path fill="none" stroke="black" d="M668.231,-215.697C667.436,-207.983 667.209,-198.712 667.552,-190.112"/>
<polygon fill="red" stroke="black" points="671.045,-190.324 668.252,-180.104 664.062,-189.836 671.045,-190.324"/>
</g>
<!-- ITF&#45;mEG_SPI -->
<g id="node24" class="node"><title>ITF&#45;mEG_SPI</title>
<ellipse fill="green" stroke="black" cx="869.147" cy="-162" rx="63.0888" ry="18"/>
<text text-anchor="middle" x="869.147" y="-158.3" font-family="Times,serif" font-size="14.00">ITF&#45;mEG_SPI</text>
</g>
<!-- goblin&#45;&gt;ITF&#45;mEG_SPI -->
<g id="edge35" class="edge"><title>goblin&#45;&gt;ITF&#45;mEG_SPI</title>
<path fill="none" stroke="black" d="M711.284,-219.669C742.663,-208.404 787.795,-192.203 821.772,-180.006"/>
<polygon fill="red" stroke="black" points="823.255,-183.193 831.484,-176.52 820.89,-176.605 823.255,-183.193"/>
</g>
<!-- tobo -->
<g id="node5" class="node"><title>tobo</title>
<polygon fill="blue" stroke="black" points="513.147,-396 457.147,-396 457.147,-360 513.147,-360 513.147,-396"/>
<text text-anchor="middle" x="485.147" y="-372.4" font-family="Times,serif" font-size="22.00">tobo</text>
</g>
<!-- tobo&#45;&gt;ITF&#45;mET_Transducer -->
<g id="edge44" class="edge"><title>tobo&#45;&gt;ITF&#45;mET_Transducer</title>
<path fill="none" stroke="black" d="M491.042,-396.104C491.848,-403.791 492.084,-413.054 491.751,-421.665"/>
<polygon fill="red" stroke="black" points="488.256,-421.48 491.063,-431.697 495.239,-421.96 488.256,-421.48"/>
</g>
<!-- ITF&#45;R_reserved -->
<g id="node22" class="node"><title>ITF&#45;R_reserved</title>
<ellipse fill="yellow" stroke="black" cx="789.147" cy="-306" rx="66.8882" ry="18"/>
<text text-anchor="middle" x="789.147" y="-302.3" font-family="Times,serif" font-size="14.00">ITF&#45;R_reserved</text>
</g>
<!-- tobo&#45;&gt;ITF&#45;R_reserved -->
<g id="edge42" class="edge"><title>tobo&#45;&gt;ITF&#45;R_reserved</title>
<path fill="none" stroke="black" d="M513.202,-370.54C562.345,-359.224 664.973,-335.593 730.28,-320.555"/>
<polygon fill="red" stroke="black" points="731.07,-323.965 740.03,-318.31 729.499,-317.143 731.07,-323.965"/>
</g>
<!-- ITF&#45;mET_SMA -->
<g id="node23" class="node"><title>ITF&#45;mET_SMA</title>
<ellipse fill="green" stroke="black" cx="453.147" cy="-306" rx="68.7879" ry="18"/>
<text text-anchor="middle" x="453.147" y="-302.3" font-family="Times,serif" font-size="14.00">ITF&#45;mET_SMA</text>
</g>
<!-- tobo&#45;&gt;ITF&#45;mET_SMA -->
<g id="edge43" class="edge"><title>tobo&#45;&gt;ITF&#45;mET_SMA</title>
<path fill="none" stroke="black" d="M477.237,-359.697C473.594,-351.728 469.193,-342.1 465.154,-333.264"/>
<polygon fill="red" stroke="black" points="468.307,-331.744 460.966,-324.104 461.941,-334.654 468.307,-331.744"/>
</g>
<!-- ITF&#45;A_gnd&#45;&gt;retroATL3 -->
<g id="edge1" class="edge"><title>ITF&#45;A_gnd&#45;&gt;retroATL3</title>
<path fill="none" stroke="black" d="M558.723,-584.556C496.567,-572.47 381.703,-550.136 308.755,-535.952"/>
<polygon fill="black" stroke="black" points="309.234,-532.479 298.75,-534.006 307.898,-539.351 309.234,-532.479"/>
</g>
<!-- ITF&#45;A_gnd&#45;&gt;toadkiller -->
<g id="edge10" class="edge"><title>ITF&#45;A_gnd&#45;&gt;toadkiller</title>
<path fill="none" stroke="black" d="M649.834,-587.659C762.576,-573.712 1036.15,-531.566 1036.15,-451 1036.15,-451 1036.15,-451 1036.15,-233 1036.15,-182.121 1008.39,-169.123 964.147,-144 912.597,-114.728 746.161,-100.242 655.087,-94.3471"/>
<polygon fill="black" stroke="black" points="655.105,-90.8413 644.904,-93.7035 654.663,-97.8274 655.105,-90.8413"/>
</g>
<!-- ITF&#45;A_gnd&#45;&gt;goblin -->
<g id="edge25" class="edge"><title>ITF&#45;A_gnd&#45;&gt;goblin</title>
<path fill="none" stroke="black" d="M651.914,-590.016C732.87,-582.177 884.147,-553.778 884.147,-451 884.147,-451 884.147,-451 884.147,-377 884.147,-336.553 892.871,-317.45 865.147,-288 828.242,-248.797 765.105,-237.716 721.584,-235.026"/>
<polygon fill="black" stroke="black" points="721.679,-231.527 711.519,-234.531 721.335,-238.519 721.679,-231.527"/>
</g>
<!-- ITF&#45;A_gnd&#45;&gt;tobo -->
<g id="edge36" class="edge"><title>ITF&#45;A_gnd&#45;&gt;tobo</title>
<path fill="none" stroke="black" d="M604.933,-575.736C609.053,-544.21 613.334,-476.482 583.147,-432 569.018,-411.181 543.946,-397.835 522.699,-389.743"/>
<polygon fill="black" stroke="black" points="523.853,-386.439 513.259,-386.387 521.508,-393.035 523.853,-386.439"/>
</g>
<!-- ITF&#45;F_12V&#45;&gt;retroATL3 -->
<g id="edge2" class="edge"><title>ITF&#45;F_12V&#45;&gt;retroATL3</title>
<path fill="none" stroke="black" d="M323.581,-577.811C309.668,-568.447 291.565,-556.262 275.962,-545.76"/>
<polygon fill="black" stroke="black" points="277.843,-542.807 267.592,-540.127 273.934,-548.614 277.843,-542.807"/>
</g>
<!-- ITF&#45;F_12V&#45;&gt;mogaba -->
<g id="edge20" class="edge"><title>ITF&#45;F_12V&#45;&gt;mogaba</title>
<path fill="none" stroke="black" d="M368.984,-610.202C380.091,-619.086 393.241,-630.506 404.097,-640.619"/>
<polygon fill="black" stroke="black" points="401.878,-643.338 411.535,-647.697 406.703,-638.267 401.878,-643.338"/>
</g>
<!-- ITF&#45;N_cc_motor_pwm&#45;&gt;retroATL3 -->
<g id="edge3" class="edge"><title>ITF&#45;N_cc_motor_pwm&#45;&gt;retroATL3</title>
<path fill="none" stroke="black" d="M242.147,-36.0493C242.147,-62.7084 242.147,-115.885 242.147,-161 242.147,-379 242.147,-379 242.147,-379 242.147,-419.004 242.147,-465.347 242.147,-493.92"/>
<polygon fill="black" stroke="black" points="238.647,-493.951 242.147,-503.951 245.647,-493.951 238.647,-493.951"/>
</g>
<!-- ITF&#45;mET_Transducer&#45;&gt;retroATL3 -->
<g id="edge4" class="edge"><title>ITF&#45;mET_Transducer&#45;&gt;retroATL3</title>
<path fill="none" stroke="black" d="M439.885,-465.655C402.911,-476.71 350.237,-491.914 308.512,-503.59"/>
<polygon fill="black" stroke="black" points="307.394,-500.268 298.702,-506.326 309.275,-507.011 307.394,-500.268"/>
</g>
<!-- ITF&#45;mET_Transducer&#45;&gt;tobo -->
<g id="edge41" class="edge"><title>ITF&#45;mET_Transducer&#45;&gt;tobo</title>
<path fill="none" stroke="black" d="M479.231,-431.697C478.436,-423.983 478.209,-414.712 478.552,-406.112"/>
<polygon fill="black" stroke="black" points="482.045,-406.324 479.252,-396.104 475.062,-405.836 482.045,-406.324"/>
</g>
<!-- Motor&#45;&gt;retroATL3 -->
<g id="edge5" class="edge"><title>Motor&#45;&gt;retroATL3</title>
<path fill="none" stroke="black" d="M61.6022,-459.446C69.0402,-462.282 76.8948,-465.386 84.1471,-468 116.541,-479.677 152.941,-491.39 182.692,-500.825"/>
<polygon fill="black" stroke="black" points="181.921,-504.252 192.511,-503.933 184.034,-497.578 181.921,-504.252"/>
</g>
<!-- Tri&#45;Piezo Head&#45;&gt;retroATL3 -->
<g id="edge6" class="edge"><title>Tri&#45;Piezo Head&#45;&gt;retroATL3</title>
<path fill="none" stroke="black" d="M175.703,-466.671C188.74,-475.688 204.263,-487.198 217.088,-497.301"/>
<polygon fill="black" stroke="black" points="215.081,-500.177 225.074,-503.697 219.457,-494.714 215.081,-500.177"/>
</g>
<!-- ITF&#45;B_5v&#45;&gt;toadkiller -->
<g id="edge11" class="edge"><title>ITF&#45;B_5v&#45;&gt;toadkiller</title>
<path fill="none" stroke="black" d="M959.345,-431.951C959.636,-405.292 960.147,-352.116 960.147,-307 960.147,-307 960.147,-307 960.147,-233 960.147,-192.553 970.575,-171.748 941.147,-144 900.895,-106.047 743.198,-95.2692 654.892,-92.2106"/>
<polygon fill="black" stroke="black" points="654.849,-88.7074 644.741,-91.8823 654.623,-95.7038 654.849,-88.7074"/>
</g>
<!-- ITF&#45;B_5v&#45;&gt;goblin -->
<g id="edge26" class="edge"><title>ITF&#45;B_5v&#45;&gt;goblin</title>
<path fill="none" stroke="black" d="M954.819,-431.809C945.083,-394.459 920.553,-307.671 898.147,-288 872.154,-265.18 778.891,-248.988 721.219,-240.894"/>
<polygon fill="black" stroke="black" points="721.622,-237.417 711.238,-239.524 720.67,-244.352 721.622,-237.417"/>
</g>
<!-- ITF&#45;B_5v&#45;&gt;tobo -->
<g id="edge37" class="edge"><title>ITF&#45;B_5v&#45;&gt;tobo</title>
<path fill="none" stroke="black" d="M916.666,-442.726C825.174,-429.215 610.722,-397.545 523.28,-384.631"/>
<polygon fill="black" stroke="black" points="523.667,-381.151 513.263,-383.152 522.644,-388.076 523.667,-381.151"/>
</g>
<!-- ITF&#45;S_3_3v&#45;&gt;toadkiller -->
<g id="edge12" class="edge"><title>ITF&#45;S_3_3v&#45;&gt;toadkiller</title>
<path fill="none" stroke="black" d="M315.243,-432.039C302.386,-405.927 280.147,-353.973 280.147,-307 280.147,-307 280.147,-307 280.147,-233 280.147,-123.111 441.781,-97.8097 533.115,-92.2847"/>
<polygon fill="black" stroke="black" points="533.553,-95.7662 543.349,-91.7303 533.174,-88.7764 533.553,-95.7662"/>
</g>
<!-- ITF&#45;S_3_3v&#45;&gt;goblin -->
<g id="edge27" class="edge"><title>ITF&#45;S_3_3v&#45;&gt;goblin</title>
<path fill="none" stroke="black" d="M324.146,-431.842C325.14,-398.621 332.373,-325.495 375.147,-288 411.921,-255.764 552.428,-242.416 627.003,-237.509"/>
<polygon fill="black" stroke="black" points="627.312,-240.997 637.07,-236.872 626.869,-234.011 627.312,-240.997"/>
</g>
<!-- ITF&#45;S_3_3v&#45;&gt;tobo -->
<g id="edge40" class="edge"><title>ITF&#45;S_3_3v&#45;&gt;tobo</title>
<path fill="none" stroke="black" d="M355.572,-435.337C381.931,-423.877 419.641,-407.481 447.589,-395.33"/>
<polygon fill="black" stroke="black" points="449.257,-398.421 457.033,-391.224 446.466,-392.001 449.257,-398.421"/>
</g>
<!-- ITF&#45;E_signal_envelope&#45;&gt;toadkiller -->
<g id="edge13" class="edge"><title>ITF&#45;E_signal_envelope&#45;&gt;toadkiller</title>
<path fill="none" stroke="black" d="M481.277,-145.116C501.448,-135.445 527.477,-122.965 549.455,-112.428"/>
<polygon fill="black" stroke="black" points="551.094,-115.524 558.598,-108.044 548.067,-109.212 551.094,-115.524"/>
</g>
<!-- ITF&#45;E_signal_envelope&#45;&gt;goblin -->
<g id="edge30" class="edge"><title>ITF&#45;E_signal_envelope&#45;&gt;goblin</title>
<path fill="none" stroke="black" d="M499.512,-177.19C537.99,-188.641 590.108,-204.757 627.421,-216.73"/>
<polygon fill="black" stroke="black" points="626.458,-220.096 637.05,-219.834 628.606,-213.434 626.458,-220.096"/>
</g>
<!-- ITF&#45;I_pulse_on&#45;&gt;tobo -->
<g id="edge38" class="edge"><title>ITF&#45;I_pulse_on&#45;&gt;tobo</title>
<path fill="none" stroke="black" d="M405.111,-35.8389C387.103,-58.6508 356.802,-101.433 345.147,-144 340.922,-159.432 343.507,-164.084 345.147,-180 351.849,-245.03 334.88,-272.499 375.147,-324 392.935,-346.75 422.941,-360.296 447.125,-367.991"/>
<polygon fill="black" stroke="black" points="446.159,-371.355 456.742,-370.848 448.152,-364.645 446.159,-371.355"/>
</g>
<!-- ITF&#45;J_pulse_off&#45;&gt;tobo -->
<g id="edge39" class="edge"><title>ITF&#45;J_pulse_off&#45;&gt;tobo</title>
<path fill="none" stroke="black" d="M975.813,-36.2721C983.995,-62.7898 998.147,-115.268 998.147,-161 998.147,-235 998.147,-235 998.147,-235 998.147,-333.45 642.778,-366.387 523.589,-374.665"/>
<polygon fill="black" stroke="black" points="523.201,-371.183 513.459,-375.348 523.672,-378.167 523.201,-371.183"/>
</g>
<!-- ITF&#45;mEM_Alimentation -->
<g id="node19" class="node"><title>ITF&#45;mEM_Alimentation</title>
<ellipse fill="green" stroke="black" cx="425.147" cy="-738" rx="98.5829" ry="18"/>
<text text-anchor="middle" x="425.147" y="-734.3" font-family="Times,serif" font-size="14.00">ITF&#45;mEM_Alimentation</text>
</g>
<!-- ITF&#45;mEM_Alimentation&#45;&gt;mogaba -->
<g id="edge19" class="edge"><title>ITF&#45;mEM_Alimentation&#45;&gt;mogaba</title>
<path fill="none" stroke="black" d="M425.147,-719.697C425.147,-711.983 425.147,-702.712 425.147,-694.112"/>
<polygon fill="black" stroke="black" points="428.647,-694.104 425.147,-684.104 421.647,-694.104 428.647,-694.104"/>
</g>
<!-- ITF&#45;G_gain_control -->
<g id="node20" class="node"><title>ITF&#45;G_gain_control</title>
<ellipse fill="yellow" stroke="black" cx="622.147" cy="-306" rx="81.7856" ry="18"/>
<text text-anchor="middle" x="622.147" y="-302.3" font-family="Times,serif" font-size="14.00">ITF&#45;G_gain_control</text>
</g>
<!-- ITF&#45;G_gain_control&#45;&gt;goblin -->
<g id="edge28" class="edge"><title>ITF&#45;G_gain_control&#45;&gt;goblin</title>
<path fill="none" stroke="black" d="M634.735,-288.055C640.902,-279.753 648.456,-269.584 655.295,-260.378"/>
<polygon fill="black" stroke="black" points="658.16,-262.39 661.314,-252.275 652.541,-258.216 658.16,-262.39"/>
</g>
<!-- ITF&#45;C_amplified_raw_signal&#45;&gt;goblin -->
<g id="edge29" class="edge"><title>ITF&#45;C_amplified_raw_signal&#45;&gt;goblin</title>
<path fill="none" stroke="black" d="M680.042,-180.104C680.848,-187.791 681.084,-197.054 680.751,-205.665"/>
<polygon fill="black" stroke="black" points="677.256,-205.48 680.063,-215.697 684.239,-205.96 677.256,-205.48"/>
</g>
<!-- ITF&#45;R_reserved&#45;&gt;goblin -->
<g id="edge31" class="edge"><title>ITF&#45;R_reserved&#45;&gt;goblin</title>
<path fill="none" stroke="black" d="M763.339,-289.291C747.887,-279.885 727.996,-267.777 710.92,-257.383"/>
<polygon fill="black" stroke="black" points="712.647,-254.337 702.285,-252.127 709.007,-260.317 712.647,-254.337"/>
</g>
<!-- ITF&#45;mET_SMA&#45;&gt;goblin -->
<g id="edge32" class="edge"><title>ITF&#45;mET_SMA&#45;&gt;goblin</title>
<path fill="none" stroke="black" d="M495.236,-291.669C532.989,-279.711 588.306,-262.189 627.418,-249.801"/>
<polygon fill="black" stroke="black" points="628.516,-253.125 636.992,-246.769 626.402,-246.452 628.516,-253.125"/>
</g>
</g>
</svg>
