<?xml version="1.0" encoding="UTF-8" standalone="no"?>
<!DOCTYPE svg PUBLIC "-//W3C//DTD SVG 1.1//EN"
 "http://www.w3.org/Graphics/SVG/1.1/DTD/svg11.dtd">
<!-- Generated by graphviz version 2.38.0 (20140413.2041)
 -->
<!-- Title: %3 Pages: 1 -->
<svg width="2171pt" height="476pt"
 viewBox="0.00 0.00 2171.34 476.00" xmlns="http://www.w3.org/2000/svg" xmlns:xlink="http://www.w3.org/1999/xlink">
<g id="graph0" class="graph" transform="scale(1 1) rotate(0) translate(4 472)">
<title>%3</title>
<polygon fill="white" stroke="none" points="-4,4 -4,-472 2167.34,-472 2167.34,4 -4,4"/>
<!-- retroATL3 -->
<g id="node1" class="node"><title>retroATL3</title>
<polygon fill="blue" stroke="black" points="1093.84,-108 980.843,-108 980.843,-72 1093.84,-72 1093.84,-108"/>
<text text-anchor="middle" x="1037.34" y="-84.4" font-family="Times,serif" font-size="22.00">retroATL3</text>
</g>
<!-- Tri&#45;Piezo Head -->
<g id="node7" class="node"><title>Tri&#45;Piezo Head</title>
<ellipse fill="yellow" stroke="black" cx="1037.34" cy="-18" rx="64.9885" ry="18"/>
<text text-anchor="middle" x="1037.34" y="-14.3" font-family="Times,serif" font-size="14.00">Tri&#45;Piezo Head</text>
</g>
<!-- retroATL3&#45;&gt;Tri&#45;Piezo Head -->
<g id="edge16" class="edge"><title>retroATL3&#45;&gt;Tri&#45;Piezo Head</title>
<path fill="none" stroke="black" d="M1019.6,-71.6966C1017.15,-63.7815 1016.5,-54.2279 1017.64,-45.441"/>
<polygon fill="red" stroke="black" points="1021.07,-46.1422 1019.81,-35.6223 1014.24,-44.6306 1021.07,-46.1422"/>
</g>
<!-- ITF&#45;A_gnd -->
<g id="node2" class="node"><title>ITF&#45;A_gnd</title>
<ellipse fill="yellow" stroke="black" cx="1257.34" cy="-450" rx="50.8918" ry="18"/>
<text text-anchor="middle" x="1257.34" y="-446.3" font-family="Times,serif" font-size="14.00">ITF&#45;A_gnd</text>
</g>
<!-- ITF&#45;A_gnd&#45;&gt;retroATL3 -->
<g id="edge1" class="edge"><title>ITF&#45;A_gnd&#45;&gt;retroATL3</title>
<path fill="none" stroke="black" d="M1307.47,-446.904C1441.98,-441.199 1808.14,-423.928 1926.34,-396 2028.59,-371.842 2145.34,-412.064 2145.34,-307 2145.34,-307 2145.34,-307 2145.34,-233 2145.34,-127.059 1344.4,-98.716 1104.44,-92.5179"/>
<polygon fill="black" stroke="black" points="1104.2,-89.0108 1094.11,-92.256 1104.02,-96.0085 1104.2,-89.0108"/>
</g>
<!-- ITF&#45;A_gnd&#45;&gt;retroATL3 -->
<g id="edge7" class="edge"><title>ITF&#45;A_gnd&#45;&gt;retroATL3</title>
<path fill="none" stroke="black" d="M1307.49,-447.242C1444.75,-441.908 1823.69,-424.505 1944.34,-396 2046.59,-371.842 2163.34,-412.064 2163.34,-307 2163.34,-307 2163.34,-307 2163.34,-233 2163.34,-125.982 1346.04,-98.1481 1104.03,-92.3358"/>
<polygon fill="black" stroke="black" points="1104.04,-88.8352 1093.96,-92.0988 1103.88,-95.8333 1104.04,-88.8352"/>
</g>
<!-- toadkiller -->
<g id="node8" class="node"><title>toadkiller</title>
<polygon fill="blue" stroke="black" points="636.843,-252 535.843,-252 535.843,-216 636.843,-216 636.843,-252"/>
<text text-anchor="middle" x="586.343" y="-228.4" font-family="Times,serif" font-size="22.00">toadkiller</text>
</g>
<!-- ITF&#45;A_gnd&#45;&gt;toadkiller -->
<g id="edge17" class="edge"><title>ITF&#45;A_gnd&#45;&gt;toadkiller</title>
<path fill="none" stroke="black" d="M1216.84,-439.047C1163.22,-424.57 1075.08,-399.082 1068.34,-396 1041.43,-383.697 1040.44,-369.268 1012.34,-360 954.604,-340.956 507.896,-368.383 466.343,-324 455.408,-312.32 457.808,-301.533 466.343,-288 479.401,-267.296 503.019,-254.507 525.93,-246.695"/>
<polygon fill="black" stroke="black" points="527.177,-249.973 535.674,-243.644 525.085,-243.293 527.177,-249.973"/>
</g>
<!-- ITF&#45;A_gnd&#45;&gt;toadkiller -->
<g id="edge21" class="edge"><title>ITF&#45;A_gnd&#45;&gt;toadkiller</title>
<path fill="none" stroke="black" d="M1221.93,-437.077C1173.63,-422.372 1092.79,-398.946 1086.34,-396 1059.43,-383.697 1058.44,-369.268 1030.34,-360 972.604,-340.956 525.896,-368.383 484.343,-324 473.408,-312.32 475.808,-301.533 484.343,-288 494.151,-272.448 509.918,-261.362 526.184,-253.497"/>
<polygon fill="black" stroke="black" points="528.063,-256.491 535.777,-249.229 525.218,-250.096 528.063,-256.491"/>
</g>
<!-- mogaba -->
<g id="node16" class="node"><title>mogaba</title>
<polygon fill="blue" stroke="black" points="1012.84,-396 925.843,-396 925.843,-360 1012.84,-360 1012.84,-396"/>
<text text-anchor="middle" x="969.343" y="-372.4" font-family="Times,serif" font-size="22.00">mogaba</text>
</g>
<!-- ITF&#45;A_gnd&#45;&gt;mogaba -->
<g id="edge35" class="edge"><title>ITF&#45;A_gnd&#45;&gt;mogaba</title>
<path fill="none" stroke="black" d="M1219.68,-437.91C1212.3,-435.855 1204.6,-433.793 1197.34,-432 1122.37,-413.463 1102.23,-414.875 1027.34,-396 1025.88,-395.631 1024.4,-395.251 1022.91,-394.86"/>
<polygon fill="black" stroke="black" points="1023.52,-391.399 1012.95,-392.169 1021.69,-398.157 1023.52,-391.399"/>
</g>
<!-- goblin -->
<g id="node18" class="node"><title>goblin</title>
<polygon fill="blue" stroke="black" points="1542.34,-252 1468.34,-252 1468.34,-216 1542.34,-216 1542.34,-252"/>
<text text-anchor="middle" x="1505.34" y="-228.4" font-family="Times,serif" font-size="22.00">goblin</text>
</g>
<!-- ITF&#45;A_gnd&#45;&gt;goblin -->
<g id="edge40" class="edge"><title>ITF&#45;A_gnd&#45;&gt;goblin</title>
<path fill="none" stroke="black" d="M1307.99,-448.689C1461.28,-446.516 1914.64,-430.905 2005.34,-324 2015.69,-311.799 2016.05,-299.885 2005.34,-288 1975.1,-254.447 1671.7,-240.756 1552.73,-236.545"/>
<polygon fill="black" stroke="black" points="1552.59,-233.038 1542.47,-236.189 1552.34,-240.034 1552.59,-233.038"/>
</g>
<!-- ITF&#45;A_gnd&#45;&gt;goblin -->
<g id="edge48" class="edge"><title>ITF&#45;A_gnd&#45;&gt;goblin</title>
<path fill="none" stroke="black" d="M1308.08,-448.786C1464.1,-447.01 1931.14,-432.682 2023.34,-324 2033.69,-311.799 2034.05,-299.885 2023.34,-288 1992.39,-253.652 1675.17,-240.119 1552.9,-236.261"/>
<polygon fill="black" stroke="black" points="1552.83,-232.757 1542.72,-235.949 1552.61,-239.754 1552.83,-232.757"/>
</g>
<!-- tobo -->
<g id="node24" class="node"><title>tobo</title>
<polygon fill="blue" stroke="black" points="925.343,-252 869.343,-252 869.343,-216 925.343,-216 925.343,-252"/>
<text text-anchor="middle" x="897.343" y="-228.4" font-family="Times,serif" font-size="22.00">tobo</text>
</g>
<!-- ITF&#45;A_gnd&#45;&gt;tobo -->
<g id="edge60" class="edge"><title>ITF&#45;A_gnd&#45;&gt;tobo</title>
<path fill="none" stroke="black" d="M1223.85,-436.353C1174.67,-415.225 1081.41,-370.466 1007.34,-324 975.369,-303.94 941.073,-277.739 919.233,-258.969"/>
<polygon fill="black" stroke="black" points="921.323,-256.145 911.504,-252.167 916.699,-261.4 921.323,-256.145"/>
</g>
<!-- ITF&#45;A_gnd&#45;&gt;tobo -->
<g id="edge66" class="edge"><title>ITF&#45;A_gnd&#45;&gt;tobo</title>
<path fill="none" stroke="black" d="M1231.11,-434.412C1187.16,-412.569 1097.21,-369.089 1025.34,-324 992.947,-303.675 958.166,-277.045 932.879,-258.228"/>
<polygon fill="black" stroke="black" points="934.805,-255.3 924.684,-252.167 930.642,-260.928 934.805,-255.3"/>
</g>
<!-- ITF&#45;F_12V -->
<g id="node3" class="node"><title>ITF&#45;F_12V</title>
<ellipse fill="yellow" stroke="black" cx="1137.34" cy="-450" rx="51.1914" ry="18"/>
<text text-anchor="middle" x="1137.34" y="-446.3" font-family="Times,serif" font-size="14.00">ITF&#45;F_12V</text>
</g>
<!-- ITF&#45;F_12V&#45;&gt;retroATL3 -->
<g id="edge2" class="edge"><title>ITF&#45;F_12V&#45;&gt;retroATL3</title>
<path fill="none" stroke="black" d="M1170.53,-436.245C1176.42,-434.677 1182.51,-433.205 1188.34,-432 1368.88,-394.695 2113.39,-437.37 2005.34,-288 1898.5,-140.295 1305.64,-102.276 1104.24,-93.4469"/>
<polygon fill="black" stroke="black" points="1104.24,-89.9435 1094.1,-93.0124 1103.94,-96.9371 1104.24,-89.9435"/>
</g>
<!-- ITF&#45;F_12V&#45;&gt;retroATL3 -->
<g id="edge8" class="edge"><title>ITF&#45;F_12V&#45;&gt;retroATL3</title>
<path fill="none" stroke="black" d="M1178.17,-438.959C1187.46,-436.421 1197.22,-433.884 1206.34,-432 1386.88,-394.695 2131.39,-437.37 2023.34,-288 1915.13,-138.4 1308.35,-101.319 1104.26,-93.1213"/>
<polygon fill="black" stroke="black" points="1104.11,-89.613 1093.98,-92.7195 1103.84,-96.6077 1104.11,-89.613"/>
</g>
<!-- ITF&#45;F_12V&#45;&gt;mogaba -->
<g id="edge32" class="edge"><title>ITF&#45;F_12V&#45;&gt;mogaba</title>
<path fill="none" stroke="black" d="M1099.7,-437.597C1072.17,-427.513 1035.47,-412.536 1007.81,-400.248"/>
<polygon fill="black" stroke="black" points="1008.99,-396.94 998.433,-396.026 1006.11,-403.323 1008.99,-396.94"/>
</g>
<!-- ITF&#45;F_12V&#45;&gt;mogaba -->
<g id="edge34" class="edge"><title>ITF&#45;F_12V&#45;&gt;mogaba</title>
<path fill="none" stroke="black" d="M1105.35,-435.669C1081.16,-425.591 1047.49,-411.563 1019.71,-399.985"/>
<polygon fill="black" stroke="black" points="1020.73,-396.618 1010.15,-396.002 1018.03,-403.079 1020.73,-396.618"/>
</g>
<!-- ITF&#45;F_12V&#45;&gt;mogaba -->
<g id="edge37" class="edge"><title>ITF&#45;F_12V&#45;&gt;mogaba</title>
<path fill="none" stroke="black" d="M1112.62,-433.983C1088.73,-422.891 1052.61,-407.772 1022.42,-396.195"/>
<polygon fill="black" stroke="black" points="1023.44,-392.838 1012.85,-392.57 1020.96,-399.385 1023.44,-392.838"/>
</g>
<!-- ITF&#45;N_cc_motor_pwm -->
<g id="node4" class="node"><title>ITF&#45;N_cc_motor_pwm</title>
<ellipse fill="yellow" stroke="black" cx="623.343" cy="-162" rx="93.6835" ry="18"/>
<text text-anchor="middle" x="623.343" y="-158.3" font-family="Times,serif" font-size="14.00">ITF&#45;N_cc_motor_pwm</text>
</g>
<!-- ITF&#45;N_cc_motor_pwm&#45;&gt;retroATL3 -->
<g id="edge3" class="edge"><title>ITF&#45;N_cc_motor_pwm&#45;&gt;retroATL3</title>
<path fill="none" stroke="black" d="M688.812,-149.046C765.83,-135.667 892.87,-114.201 970.485,-101.463"/>
<polygon fill="black" stroke="black" points="971.329,-104.871 980.632,-99.801 970.197,-97.9632 971.329,-104.871"/>
</g>
<!-- ITF&#45;N_cc_motor_pwm&#45;&gt;retroATL3 -->
<g id="edge9" class="edge"><title>ITF&#45;N_cc_motor_pwm&#45;&gt;retroATL3</title>
<path fill="none" stroke="black" d="M693.562,-149.985C771.024,-137.255 894.627,-116.366 970.651,-103.166"/>
<polygon fill="black" stroke="black" points="971.343,-106.599 980.595,-101.436 970.143,-99.7021 971.343,-106.599"/>
</g>
<!-- ITF&#45;N_cc_motor_pwm&#45;&gt;toadkiller -->
<g id="edge29" class="edge"><title>ITF&#45;N_cc_motor_pwm&#45;&gt;toadkiller</title>
<path fill="none" stroke="black" d="M620.197,-180.104C616.761,-188.214 611.764,-198.076 606.589,-207.078"/>
<polygon fill="black" stroke="black" points="603.56,-205.323 601.405,-215.697 609.558,-208.931 603.56,-205.323"/>
</g>
<!-- ITF&#45;mET_Transducer -->
<g id="node5" class="node"><title>ITF&#45;mET_Transducer</title>
<ellipse fill="green" stroke="black" cx="897.343" cy="-162" rx="89.0842" ry="18"/>
<text text-anchor="middle" x="897.343" y="-158.3" font-family="Times,serif" font-size="14.00">ITF&#45;mET_Transducer</text>
</g>
<!-- ITF&#45;mET_Transducer&#45;&gt;retroATL3 -->
<g id="edge4" class="edge"><title>ITF&#45;mET_Transducer&#45;&gt;retroATL3</title>
<path fill="none" stroke="black" d="M918.841,-144.411C935.923,-134.824 959.961,-122.661 982.07,-112.364"/>
<polygon fill="black" stroke="black" points="983.775,-115.433 991.402,-108.078 980.853,-109.071 983.775,-115.433"/>
</g>
<!-- ITF&#45;mET_Transducer&#45;&gt;retroATL3 -->
<g id="edge10" class="edge"><title>ITF&#45;mET_Transducer&#45;&gt;retroATL3</title>
<path fill="none" stroke="black" d="M929.111,-145.116C948.367,-135.488 973.19,-123.076 994.206,-112.569"/>
<polygon fill="black" stroke="black" points="995.876,-115.647 1003.25,-108.044 992.745,-109.386 995.876,-115.647"/>
</g>
<!-- ITF&#45;mET_Transducer&#45;&gt;retroATL3 -->
<g id="edge14" class="edge"><title>ITF&#45;mET_Transducer&#45;&gt;retroATL3</title>
<path fill="none" stroke="black" d="M938.691,-145.983C960.198,-136.412 985.785,-123.841 1005.73,-113.136"/>
<polygon fill="black" stroke="black" points="1007.64,-116.078 1014.74,-108.209 1004.28,-109.936 1007.64,-116.078"/>
</g>
<!-- ITF&#45;mET_Transducer&#45;&gt;tobo -->
<g id="edge65" class="edge"><title>ITF&#45;mET_Transducer&#45;&gt;tobo</title>
<path fill="none" stroke="black" d="M891.448,-180.104C890.643,-187.791 890.406,-197.054 890.739,-205.665"/>
<polygon fill="black" stroke="black" points="887.251,-205.96 891.427,-215.697 894.235,-205.48 887.251,-205.96"/>
</g>
<!-- ITF&#45;mET_Transducer&#45;&gt;tobo -->
<g id="edge71" class="edge"><title>ITF&#45;mET_Transducer&#45;&gt;tobo</title>
<path fill="none" stroke="black" d="M903.238,-180.104C904.044,-187.791 904.28,-197.054 903.947,-205.665"/>
<polygon fill="black" stroke="black" points="900.452,-205.48 903.259,-215.697 907.435,-205.96 900.452,-205.48"/>
</g>
<!-- ITF&#45;mET_Transducer&#45;&gt;tobo -->
<g id="edge74" class="edge"><title>ITF&#45;mET_Transducer&#45;&gt;tobo</title>
<path fill="none" stroke="black" d="M915.028,-180.104C917.445,-187.791 918.154,-197.054 917.155,-205.665"/>
<polygon fill="black" stroke="black" points="913.678,-205.196 915.09,-215.697 920.535,-206.608 913.678,-205.196"/>
</g>
<!-- Motor -->
<g id="node6" class="node"><title>Motor</title>
<ellipse fill="yellow" stroke="black" cx="1037.34" cy="-162" rx="33.2948" ry="18"/>
<text text-anchor="middle" x="1037.34" y="-158.3" font-family="Times,serif" font-size="14.00">Motor</text>
</g>
<!-- Motor&#45;&gt;retroATL3 -->
<g id="edge5" class="edge"><title>Motor&#45;&gt;retroATL3</title>
<path fill="none" stroke="black" d="M1025.82,-145.116C1024,-137.23 1023.44,-127.476 1024.13,-118.431"/>
<polygon fill="black" stroke="black" points="1027.63,-118.674 1025.51,-108.292 1020.69,-117.726 1027.63,-118.674"/>
</g>
<!-- Motor&#45;&gt;retroATL3 -->
<g id="edge11" class="edge"><title>Motor&#45;&gt;retroATL3</title>
<path fill="none" stroke="black" d="M1037.34,-143.697C1037.34,-135.983 1037.34,-126.712 1037.34,-118.112"/>
<polygon fill="black" stroke="black" points="1040.84,-118.104 1037.34,-108.104 1033.84,-118.104 1040.84,-118.104"/>
</g>
<!-- Motor&#45;&gt;retroATL3 -->
<g id="edge13" class="edge"><title>Motor&#45;&gt;retroATL3</title>
<path fill="none" stroke="black" d="M1048.86,-145.116C1050.68,-137.23 1051.25,-127.476 1050.56,-118.431"/>
<polygon fill="black" stroke="black" points="1053.99,-117.726 1049.17,-108.292 1047.06,-118.674 1053.99,-117.726"/>
</g>
<!-- Tri&#45;Piezo Head&#45;&gt;retroATL3 -->
<g id="edge6" class="edge"><title>Tri&#45;Piezo Head&#45;&gt;retroATL3</title>
<path fill="none" stroke="black" d="M1031.45,-36.1043C1030.64,-43.7913 1030.41,-53.0537 1030.74,-61.6651"/>
<polygon fill="black" stroke="black" points="1027.25,-61.9597 1031.43,-71.6966 1034.23,-61.4805 1027.25,-61.9597"/>
</g>
<!-- Tri&#45;Piezo Head&#45;&gt;retroATL3 -->
<g id="edge12" class="edge"><title>Tri&#45;Piezo Head&#45;&gt;retroATL3</title>
<path fill="none" stroke="black" d="M1043.24,-36.1043C1044.04,-43.7913 1044.28,-53.0537 1043.95,-61.6651"/>
<polygon fill="black" stroke="black" points="1040.45,-61.4805 1043.26,-71.6966 1047.44,-61.9597 1040.45,-61.4805"/>
</g>
<!-- Tri&#45;Piezo Head&#45;&gt;retroATL3 -->
<g id="edge15" class="edge"><title>Tri&#45;Piezo Head&#45;&gt;retroATL3</title>
<path fill="none" stroke="black" d="M1054.87,-35.6223C1057.43,-43.4408 1058.18,-52.9673 1057.14,-61.7964"/>
<polygon fill="black" stroke="black" points="1053.69,-61.1947 1055.09,-71.6966 1060.54,-62.6138 1053.69,-61.1947"/>
</g>
<!-- toadkiller&#45;&gt;ITF&#45;N_cc_motor_pwm -->
<g id="edge30" class="edge"><title>toadkiller&#45;&gt;ITF&#45;N_cc_motor_pwm</title>
<path fill="none" stroke="black" d="M589.573,-215.697C593.035,-207.559 598.046,-197.689 603.225,-188.701"/>
<polygon fill="red" stroke="black" points="606.242,-190.476 608.407,-180.104 600.247,-186.861 606.242,-190.476"/>
</g>
<!-- ITF&#45;B_5v -->
<g id="node9" class="node"><title>ITF&#45;B_5v</title>
<ellipse fill="yellow" stroke="black" cx="806.343" cy="-450" rx="46.2923" ry="18"/>
<text text-anchor="middle" x="806.343" y="-446.3" font-family="Times,serif" font-size="14.00">ITF&#45;B_5v</text>
</g>
<!-- ITF&#45;B_5v&#45;&gt;toadkiller -->
<g id="edge18" class="edge"><title>ITF&#45;B_5v&#45;&gt;toadkiller</title>
<path fill="none" stroke="black" d="M760.193,-449.856C675.046,-449.028 495.209,-434.167 415.343,-324 383.496,-280.07 464.392,-255.344 525.585,-243.619"/>
<polygon fill="black" stroke="black" points="526.395,-247.029 535.599,-241.781 525.131,-240.144 526.395,-247.029"/>
</g>
<!-- ITF&#45;B_5v&#45;&gt;toadkiller -->
<g id="edge22" class="edge"><title>ITF&#45;B_5v&#45;&gt;toadkiller</title>
<path fill="none" stroke="black" d="M759.905,-449.669C678.008,-447.6 509.83,-429.506 433.343,-324 403.821,-283.276 471.182,-259.056 525.789,-246.397"/>
<polygon fill="black" stroke="black" points="526.81,-249.755 535.811,-244.166 525.289,-242.923 526.81,-249.755"/>
</g>
<!-- ITF&#45;B_5v&#45;&gt;mogaba -->
<g id="edge36" class="edge"><title>ITF&#45;B_5v&#45;&gt;mogaba</title>
<path fill="none" stroke="black" d="M836.24,-436.161C859.671,-426.099 892.769,-411.885 920.098,-400.148"/>
<polygon fill="black" stroke="black" points="921.691,-403.273 929.498,-396.111 918.929,-396.841 921.691,-403.273"/>
</g>
<!-- ITF&#45;B_5v&#45;&gt;goblin -->
<g id="edge41" class="edge"><title>ITF&#45;B_5v&#45;&gt;goblin</title>
<path fill="none" stroke="black" d="M814.528,-432.206C830.991,-411.003 867.483,-375.433 907.343,-360 971.072,-335.325 1474.46,-373.717 1521.34,-324 1537.34,-307.042 1527.14,-280.681 1516.96,-261.043"/>
<polygon fill="black" stroke="black" points="1519.91,-259.147 1512.08,-252.013 1513.75,-262.475 1519.91,-259.147"/>
</g>
<!-- ITF&#45;B_5v&#45;&gt;goblin -->
<g id="edge49" class="edge"><title>ITF&#45;B_5v&#45;&gt;goblin</title>
<path fill="none" stroke="black" d="M825.745,-433.29C847.733,-412.235 884.796,-375.699 925.343,-360 989.072,-335.325 1492.46,-373.717 1539.34,-324 1555.55,-306.811 1544.85,-279.96 1531.12,-260.243"/>
<polygon fill="black" stroke="black" points="1533.72,-257.882 1524.9,-252.013 1528.14,-262.102 1533.72,-257.882"/>
</g>
<!-- ITF&#45;B_5v&#45;&gt;tobo -->
<g id="edge61" class="edge"><title>ITF&#45;B_5v&#45;&gt;tobo</title>
<path fill="none" stroke="black" d="M800.289,-431.732C796.066,-400.782 798.475,-334.732 825.343,-288 833.583,-273.668 847.238,-261.468 860.562,-252.398"/>
<polygon fill="black" stroke="black" points="862.65,-255.219 869.21,-246.9 858.894,-249.312 862.65,-255.219"/>
</g>
<!-- ITF&#45;B_5v&#45;&gt;tobo -->
<g id="edge67" class="edge"><title>ITF&#45;B_5v&#45;&gt;tobo</title>
<path fill="none" stroke="black" d="M810.93,-431.732C814.066,-400.782 816.475,-334.732 843.343,-288 849.855,-276.674 859.749,-266.679 869.369,-258.508"/>
<polygon fill="black" stroke="black" points="871.734,-261.097 877.306,-252.085 867.33,-255.656 871.734,-261.097"/>
</g>
<!-- ITF&#45;S_3_3v -->
<g id="node10" class="node"><title>ITF&#45;S_3_3v</title>
<ellipse fill="yellow" stroke="black" cx="897.343" cy="-306" rx="53.8905" ry="18"/>
<text text-anchor="middle" x="897.343" y="-302.3" font-family="Times,serif" font-size="14.00">ITF&#45;S_3_3v</text>
</g>
<!-- ITF&#45;S_3_3v&#45;&gt;toadkiller -->
<g id="edge19" class="edge"><title>ITF&#45;S_3_3v&#45;&gt;toadkiller</title>
<path fill="none" stroke="black" d="M852.287,-295.92C798.087,-284.252 707.082,-263.837 646.824,-249.883"/>
<polygon fill="black" stroke="black" points="647.591,-246.468 637.058,-247.615 646.007,-253.286 647.591,-246.468"/>
</g>
<!-- ITF&#45;S_3_3v&#45;&gt;toadkiller -->
<g id="edge23" class="edge"><title>ITF&#45;S_3_3v&#45;&gt;toadkiller</title>
<path fill="none" stroke="black" d="M855.766,-294.52C802.071,-281.929 708.439,-260.831 646.87,-247.43"/>
<polygon fill="black" stroke="black" points="647.412,-243.966 636.898,-245.266 645.928,-250.807 647.412,-243.966"/>
</g>
<!-- ITF&#45;S_3_3v&#45;&gt;mogaba -->
<g id="edge38" class="edge"><title>ITF&#45;S_3_3v&#45;&gt;mogaba</title>
<path fill="none" stroke="black" d="M919.198,-322.671C929.235,-331.43 940.911,-342.543 950.549,-352.432"/>
<polygon fill="black" stroke="black" points="948.032,-354.864 957.461,-359.697 953.104,-350.039 948.032,-354.864"/>
</g>
<!-- ITF&#45;S_3_3v&#45;&gt;goblin -->
<g id="edge42" class="edge"><title>ITF&#45;S_3_3v&#45;&gt;goblin</title>
<path fill="none" stroke="black" d="M943.942,-296.739C963.495,-293.827 986.429,-290.626 1007.34,-288 1172.38,-267.274 1369.38,-247.404 1458.11,-239.087"/>
<polygon fill="black" stroke="black" points="1458.5,-242.565 1468.13,-238.154 1457.85,-235.596 1458.5,-242.565"/>
</g>
<!-- ITF&#45;S_3_3v&#45;&gt;goblin -->
<g id="edge50" class="edge"><title>ITF&#45;S_3_3v&#45;&gt;goblin</title>
<path fill="none" stroke="black" d="M946.841,-298.714C970.713,-295.347 999.563,-291.238 1025.34,-288 1183.9,-268.087 1371.96,-248.965 1458.14,-240.119"/>
<polygon fill="black" stroke="black" points="1458.55,-243.595 1468.14,-239.091 1457.83,-236.632 1458.55,-243.595"/>
</g>
<!-- ITF&#45;S_3_3v&#45;&gt;tobo -->
<g id="edge64" class="edge"><title>ITF&#45;S_3_3v&#45;&gt;tobo</title>
<path fill="none" stroke="black" d="M891.465,-288.055C890.647,-280.346 890.405,-271.027 890.738,-262.364"/>
<polygon fill="black" stroke="black" points="894.237,-262.491 891.43,-252.275 887.254,-262.012 894.237,-262.491"/>
</g>
<!-- ITF&#45;S_3_3v&#45;&gt;tobo -->
<g id="edge70" class="edge"><title>ITF&#45;S_3_3v&#45;&gt;tobo</title>
<path fill="none" stroke="black" d="M903.221,-288.055C904.039,-280.346 904.282,-271.027 903.948,-262.364"/>
<polygon fill="black" stroke="black" points="907.432,-262.012 903.256,-252.275 900.449,-262.491 907.432,-262.012"/>
</g>
<!-- ITF&#45;E_signal_envelope -->
<g id="node11" class="node"><title>ITF&#45;E_signal_envelope</title>
<ellipse fill="yellow" stroke="black" cx="1119.34" cy="-306" rx="93.6835" ry="18"/>
<text text-anchor="middle" x="1119.34" y="-302.3" font-family="Times,serif" font-size="14.00">ITF&#45;E_signal_envelope</text>
</g>
<!-- ITF&#45;E_signal_envelope&#45;&gt;toadkiller -->
<g id="edge20" class="edge"><title>ITF&#45;E_signal_envelope&#45;&gt;toadkiller</title>
<path fill="none" stroke="black" d="M1042.96,-295.596C936.215,-281.929 744.745,-256.776 647.101,-243.586"/>
<polygon fill="black" stroke="black" points="647.474,-240.104 637.095,-242.231 646.535,-247.041 647.474,-240.104"/>
</g>
<!-- ITF&#45;E_signal_envelope&#45;&gt;toadkiller -->
<g id="edge24" class="edge"><title>ITF&#45;E_signal_envelope&#45;&gt;toadkiller</title>
<path fill="none" stroke="black" d="M1046.21,-294.746C940.169,-280.479 745.811,-254.979 647.15,-242.414"/>
<polygon fill="black" stroke="black" points="647.405,-238.919 637.043,-241.13 646.522,-245.863 647.405,-238.919"/>
</g>
<!-- ITF&#45;E_signal_envelope&#45;&gt;goblin -->
<g id="edge45" class="edge"><title>ITF&#45;E_signal_envelope&#45;&gt;goblin</title>
<path fill="none" stroke="black" d="M1179.41,-292.161C1256.51,-277.395 1387.96,-253.69 1458.29,-241.993"/>
<polygon fill="black" stroke="black" points="1458.91,-245.437 1468.2,-240.356 1457.77,-238.531 1458.91,-245.437"/>
</g>
<!-- ITF&#45;E_signal_envelope&#45;&gt;goblin -->
<g id="edge53" class="edge"><title>ITF&#45;E_signal_envelope&#45;&gt;goblin</title>
<path fill="none" stroke="black" d="M1184.82,-293.125C1262.36,-279.064 1389.61,-255.988 1458.12,-243.563"/>
<polygon fill="black" stroke="black" points="1458.98,-246.964 1468.2,-241.736 1457.73,-240.077 1458.98,-246.964"/>
</g>
<!-- ITF&#45;E_signal_envelope&#45;&gt;goblin -->
<g id="edge57" class="edge"><title>ITF&#45;E_signal_envelope&#45;&gt;goblin</title>
<path fill="none" stroke="black" d="M1189.78,-294.062C1267.86,-280.731 1391.09,-258.372 1458.32,-245.325"/>
<polygon fill="black" stroke="black" points="1459.07,-248.744 1468.22,-243.391 1457.73,-241.873 1459.07,-248.744"/>
</g>
<!-- WiFi UDP Stream -->
<g id="node12" class="node"><title>WiFi UDP Stream</title>
<ellipse fill="yellow" stroke="black" cx="77.3431" cy="-306" rx="77.1866" ry="18"/>
<text text-anchor="middle" x="77.3431" y="-302.3" font-family="Times,serif" font-size="14.00">WiFi UDP Stream</text>
</g>
<!-- WiFi UDP Stream&#45;&gt;toadkiller -->
<g id="edge25" class="edge"><title>WiFi UDP Stream&#45;&gt;toadkiller</title>
<path fill="none" stroke="black" d="M133.216,-293.362C143.225,-291.446 153.577,-289.575 163.343,-288 291.748,-267.291 443.192,-250.039 525.537,-241.256"/>
<polygon fill="black" stroke="black" points="526.141,-244.712 535.716,-240.176 525.403,-237.751 526.141,-244.712"/>
</g>
<!-- ITF&#45;mED&#45;TFT&#45;Screen -->
<g id="node13" class="node"><title>ITF&#45;mED&#45;TFT&#45;Screen</title>
<ellipse fill="green" stroke="black" cx="263.343" cy="-306" rx="90.9839" ry="18"/>
<text text-anchor="middle" x="263.343" y="-302.3" font-family="Times,serif" font-size="14.00">ITF&#45;mED&#45;TFT&#45;Screen</text>
</g>
<!-- ITF&#45;mED&#45;TFT&#45;Screen&#45;&gt;toadkiller -->
<g id="edge26" class="edge"><title>ITF&#45;mED&#45;TFT&#45;Screen&#45;&gt;toadkiller</title>
<path fill="none" stroke="black" d="M322.211,-292.242C380.006,-279.717 467.744,-260.703 526.032,-248.07"/>
<polygon fill="black" stroke="black" points="526.809,-251.483 535.841,-245.945 525.327,-244.642 526.809,-251.483"/>
</g>
<!-- ITF&#45;I_pulse_on -->
<g id="node14" class="node"><title>ITF&#45;I_pulse_on</title>
<ellipse fill="yellow" stroke="black" cx="550.343" cy="-306" rx="65.7887" ry="18"/>
<text text-anchor="middle" x="550.343" y="-302.3" font-family="Times,serif" font-size="14.00">ITF&#45;I_pulse_on</text>
</g>
<!-- ITF&#45;I_pulse_on&#45;&gt;toadkiller -->
<g id="edge27" class="edge"><title>ITF&#45;I_pulse_on&#45;&gt;toadkiller</title>
<path fill="none" stroke="black" d="M559.058,-288.055C563.197,-280.007 568.238,-270.205 572.856,-261.226"/>
<polygon fill="black" stroke="black" points="575.998,-262.769 577.459,-252.275 569.773,-259.567 575.998,-262.769"/>
</g>
<!-- ITF&#45;I_pulse_on&#45;&gt;tobo -->
<g id="edge62" class="edge"><title>ITF&#45;I_pulse_on&#45;&gt;tobo</title>
<path fill="none" stroke="black" d="M594.328,-292.616C601.332,-291.025 608.508,-289.448 615.343,-288 702.091,-269.621 804.884,-250.334 859.372,-240.901"/>
<polygon fill="black" stroke="black" points="860.022,-244.341 869.288,-239.203 858.841,-237.441 860.022,-244.341"/>
</g>
<!-- ITF&#45;I_pulse_on&#45;&gt;tobo -->
<g id="edge68" class="edge"><title>ITF&#45;I_pulse_on&#45;&gt;tobo</title>
<path fill="none" stroke="black" d="M602.077,-294.864C612.486,-292.542 623.285,-290.131 633.343,-288 713.544,-271.008 807.459,-253.24 858.985,-243.201"/>
<polygon fill="black" stroke="black" points="859.87,-246.594 869.012,-241.239 858.526,-239.724 859.87,-246.594"/>
</g>
<!-- ITF&#45;J_pulse_off -->
<g id="node15" class="node"><title>ITF&#45;J_pulse_off</title>
<ellipse fill="yellow" stroke="black" cx="701.343" cy="-306" rx="67.6881" ry="18"/>
<text text-anchor="middle" x="701.343" y="-302.3" font-family="Times,serif" font-size="14.00">ITF&#45;J_pulse_off</text>
</g>
<!-- ITF&#45;J_pulse_off&#45;&gt;toadkiller -->
<g id="edge28" class="edge"><title>ITF&#45;J_pulse_off&#45;&gt;toadkiller</title>
<path fill="none" stroke="black" d="M675.535,-289.291C660.083,-279.885 640.192,-267.777 623.116,-257.383"/>
<polygon fill="black" stroke="black" points="624.843,-254.337 614.481,-252.127 621.203,-260.317 624.843,-254.337"/>
</g>
<!-- ITF&#45;J_pulse_off&#45;&gt;tobo -->
<g id="edge63" class="edge"><title>ITF&#45;J_pulse_off&#45;&gt;tobo</title>
<path fill="none" stroke="black" d="M736.362,-290.496C771.077,-277.501 823.894,-258.687 859.544,-246.649"/>
<polygon fill="black" stroke="black" points="860.744,-249.939 869.115,-243.444 858.521,-243.301 860.744,-249.939"/>
</g>
<!-- ITF&#45;J_pulse_off&#45;&gt;tobo -->
<g id="edge69" class="edge"><title>ITF&#45;J_pulse_off&#45;&gt;tobo</title>
<path fill="none" stroke="black" d="M743.621,-291.834C778.202,-280.083 826.512,-262.865 859.76,-250.462"/>
<polygon fill="black" stroke="black" points="861.007,-253.733 869.138,-246.94 858.546,-247.18 861.007,-253.733"/>
</g>
<!-- mogaba&#45;&gt;ITF&#45;S_3_3v -->
<g id="edge39" class="edge"><title>mogaba&#45;&gt;ITF&#45;S_3_3v</title>
<path fill="none" stroke="black" d="M945.63,-359.697C935.796,-351.007 924.653,-340.343 915.474,-330.887"/>
<polygon fill="red" stroke="black" points="918.014,-328.478 908.597,-323.622 912.93,-333.29 918.014,-328.478"/>
</g>
<!-- ITF&#45;mEM_Alimentation -->
<g id="node17" class="node"><title>ITF&#45;mEM_Alimentation</title>
<ellipse fill="green" stroke="black" cx="969.343" cy="-450" rx="98.5829" ry="18"/>
<text text-anchor="middle" x="969.343" y="-446.3" font-family="Times,serif" font-size="14.00">ITF&#45;mEM_Alimentation</text>
</g>
<!-- ITF&#45;mEM_Alimentation&#45;&gt;mogaba -->
<g id="edge31" class="edge"><title>ITF&#45;mEM_Alimentation&#45;&gt;mogaba</title>
<path fill="none" stroke="black" d="M963.427,-431.697C962.632,-423.983 962.405,-414.712 962.748,-406.112"/>
<polygon fill="black" stroke="black" points="966.241,-406.324 963.448,-396.104 959.259,-405.836 966.241,-406.324"/>
</g>
<!-- ITF&#45;mEM_Alimentation&#45;&gt;mogaba -->
<g id="edge33" class="edge"><title>ITF&#45;mEM_Alimentation&#45;&gt;mogaba</title>
<path fill="none" stroke="black" d="M975.259,-431.697C976.055,-423.983 976.281,-414.712 975.938,-406.112"/>
<polygon fill="black" stroke="black" points="979.428,-405.836 975.238,-396.104 972.445,-406.324 979.428,-405.836"/>
</g>
<!-- ITF&#45;mEG_SPI -->
<g id="node23" class="node"><title>ITF&#45;mEG_SPI</title>
<ellipse fill="green" stroke="black" cx="1505.34" cy="-162" rx="63.0888" ry="18"/>
<text text-anchor="middle" x="1505.34" y="-158.3" font-family="Times,serif" font-size="14.00">ITF&#45;mEG_SPI</text>
</g>
<!-- goblin&#45;&gt;ITF&#45;mEG_SPI -->
<g id="edge59" class="edge"><title>goblin&#45;&gt;ITF&#45;mEG_SPI</title>
<path fill="none" stroke="black" d="M1499.43,-215.697C1498.63,-207.983 1498.41,-198.712 1498.75,-190.112"/>
<polygon fill="red" stroke="black" points="1502.24,-190.324 1499.45,-180.104 1495.26,-189.836 1502.24,-190.324"/>
</g>
<!-- ITF&#45;G_gain_control -->
<g id="node19" class="node"><title>ITF&#45;G_gain_control</title>
<ellipse fill="yellow" stroke="black" cx="1677.34" cy="-306" rx="81.7856" ry="18"/>
<text text-anchor="middle" x="1677.34" y="-302.3" font-family="Times,serif" font-size="14.00">ITF&#45;G_gain_control</text>
</g>
<!-- ITF&#45;G_gain_control&#45;&gt;goblin -->
<g id="edge43" class="edge"><title>ITF&#45;G_gain_control&#45;&gt;goblin</title>
<path fill="none" stroke="black" d="M1635.67,-290.326C1610.02,-280.4 1577.22,-267.136 1550.9,-256.083"/>
<polygon fill="black" stroke="black" points="1552.09,-252.788 1541.52,-252.122 1549.37,-259.237 1552.09,-252.788"/>
</g>
<!-- ITF&#45;G_gain_control&#45;&gt;goblin -->
<g id="edge51" class="edge"><title>ITF&#45;G_gain_control&#45;&gt;goblin</title>
<path fill="none" stroke="black" d="M1644.89,-289.465C1618.66,-278.247 1581.52,-263.117 1552.1,-251.65"/>
<polygon fill="black" stroke="black" points="1553.04,-248.259 1542.45,-247.913 1550.51,-254.787 1553.04,-248.259"/>
</g>
<!-- ITF&#45;C_amplified_raw_signal -->
<g id="node20" class="node"><title>ITF&#45;C_amplified_raw_signal</title>
<ellipse fill="yellow" stroke="black" cx="1891.34" cy="-306" rx="114.28" ry="18"/>
<text text-anchor="middle" x="1891.34" y="-302.3" font-family="Times,serif" font-size="14.00">ITF&#45;C_amplified_raw_signal</text>
</g>
<!-- ITF&#45;C_amplified_raw_signal&#45;&gt;goblin -->
<g id="edge44" class="edge"><title>ITF&#45;C_amplified_raw_signal&#45;&gt;goblin</title>
<path fill="none" stroke="black" d="M1813.11,-292.727C1734.89,-279.291 1617.6,-257.982 1552.53,-245.357"/>
<polygon fill="black" stroke="black" points="1553.04,-241.89 1542.55,-243.408 1551.7,-248.76 1553.04,-241.89"/>
</g>
<!-- ITF&#45;C_amplified_raw_signal&#45;&gt;goblin -->
<g id="edge52" class="edge"><title>ITF&#45;C_amplified_raw_signal&#45;&gt;goblin</title>
<path fill="none" stroke="black" d="M1819.19,-291.916C1741.21,-277.774 1619.18,-255.644 1552.59,-243.568"/>
<polygon fill="black" stroke="black" points="1552.86,-240.059 1542.39,-241.719 1551.61,-246.947 1552.86,-240.059"/>
</g>
<!-- ITF&#45;C_amplified_raw_signal&#45;&gt;goblin -->
<g id="edge56" class="edge"><title>ITF&#45;C_amplified_raw_signal&#45;&gt;goblin</title>
<path fill="none" stroke="black" d="M1826.09,-291.17C1748.49,-276.371 1621.45,-253.483 1552.63,-242.03"/>
<polygon fill="black" stroke="black" points="1552.94,-238.535 1542.5,-240.36 1551.8,-245.441 1552.94,-238.535"/>
</g>
<!-- ITF&#45;R_reserved -->
<g id="node21" class="node"><title>ITF&#45;R_reserved</title>
<ellipse fill="yellow" stroke="black" cx="1298.34" cy="-306" rx="66.8882" ry="18"/>
<text text-anchor="middle" x="1298.34" y="-302.3" font-family="Times,serif" font-size="14.00">ITF&#45;R_reserved</text>
</g>
<!-- ITF&#45;R_reserved&#45;&gt;goblin -->
<g id="edge46" class="edge"><title>ITF&#45;R_reserved&#45;&gt;goblin</title>
<path fill="none" stroke="black" d="M1334.68,-290.834C1369.18,-278.623 1421.04,-261.09 1458.59,-248.943"/>
<polygon fill="black" stroke="black" points="1459.84,-252.217 1468.29,-245.824 1457.7,-245.553 1459.84,-252.217"/>
</g>
<!-- ITF&#45;R_reserved&#45;&gt;goblin -->
<g id="edge54" class="edge"><title>ITF&#45;R_reserved&#45;&gt;goblin</title>
<path fill="none" stroke="black" d="M1341.67,-292.161C1375.94,-281.121 1423.56,-265.084 1458.66,-252.805"/>
<polygon fill="black" stroke="black" points="1459.93,-256.068 1468.2,-249.448 1457.61,-249.464 1459.93,-256.068"/>
</g>
<!-- ITF&#45;R_reserved&#45;&gt;tobo -->
<g id="edge72" class="edge"><title>ITF&#45;R_reserved&#45;&gt;tobo</title>
<path fill="none" stroke="black" d="M1249.37,-293.605C1240.4,-291.643 1231.1,-289.693 1222.34,-288 1119.14,-268.06 996.535,-249.423 935.633,-240.503"/>
<polygon fill="black" stroke="black" points="936.099,-237.034 925.699,-239.055 935.089,-243.961 936.099,-237.034"/>
</g>
<!-- ITF&#45;mET_SMA -->
<g id="node22" class="node"><title>ITF&#45;mET_SMA</title>
<ellipse fill="green" stroke="black" cx="1452.34" cy="-306" rx="68.7879" ry="18"/>
<text text-anchor="middle" x="1452.34" y="-302.3" font-family="Times,serif" font-size="14.00">ITF&#45;mET_SMA</text>
</g>
<!-- ITF&#45;mET_SMA&#45;&gt;goblin -->
<g id="edge47" class="edge"><title>ITF&#45;mET_SMA&#45;&gt;goblin</title>
<path fill="none" stroke="black" d="M1459.29,-288.055C1464.75,-279.668 1472.34,-269.376 1479.84,-260.096"/>
<polygon fill="black" stroke="black" points="1482.64,-262.2 1486.35,-252.275 1477.26,-257.72 1482.64,-262.2"/>
</g>
<!-- ITF&#45;mET_SMA&#45;&gt;goblin -->
<g id="edge55" class="edge"><title>ITF&#45;mET_SMA&#45;&gt;goblin</title>
<path fill="none" stroke="black" d="M1470.74,-288.411C1477.86,-280.2 1485.74,-270.099 1492.28,-260.9"/>
<polygon fill="black" stroke="black" points="1495.3,-262.675 1498.06,-252.447 1489.53,-258.721 1495.3,-262.675"/>
</g>
<!-- ITF&#45;mET_SMA&#45;&gt;tobo -->
<g id="edge73" class="edge"><title>ITF&#45;mET_SMA&#45;&gt;tobo</title>
<path fill="none" stroke="black" d="M1402.98,-293.43C1393.51,-291.441 1383.64,-289.526 1374.34,-288 1212.24,-261.403 1016.92,-244.339 935.679,-237.898"/>
<polygon fill="black" stroke="black" points="935.683,-234.388 925.44,-237.095 935.135,-241.367 935.683,-234.388"/>
</g>
<!-- ITF&#45;mEG_SPI&#45;&gt;goblin -->
<g id="edge58" class="edge"><title>ITF&#45;mEG_SPI&#45;&gt;goblin</title>
<path fill="none" stroke="black" d="M1511.24,-180.104C1512.04,-187.791 1512.28,-197.054 1511.95,-205.665"/>
<polygon fill="black" stroke="black" points="1508.45,-205.48 1511.26,-215.697 1515.44,-205.96 1508.45,-205.48"/>
</g>
<!-- tobo&#45;&gt;ITF&#45;mET_Transducer -->
<g id="edge75" class="edge"><title>tobo&#45;&gt;ITF&#45;mET_Transducer</title>
<path fill="none" stroke="black" d="M879.596,-215.697C877.209,-207.983 876.529,-198.712 877.557,-190.112"/>
<polygon fill="red" stroke="black" points="881.029,-190.61 879.658,-180.104 874.178,-189.172 881.029,-190.61"/>
</g>
</g>
</svg>
