<?xml version="1.0" encoding="UTF-8" standalone="no"?>
<!DOCTYPE svg PUBLIC "-//W3C//DTD SVG 1.1//EN"
 "http://www.w3.org/Graphics/SVG/1.1/DTD/svg11.dtd">
<!-- Generated by graphviz version 2.38.0 (20140413.2041)
 -->
<!-- Title: %3 Pages: 1 -->
<svg width="2354pt" height="476pt"
 viewBox="0.00 0.00 2354.00 476.00" xmlns="http://www.w3.org/2000/svg" xmlns:xlink="http://www.w3.org/1999/xlink">
<g id="graph0" class="graph" transform="scale(1 1) rotate(0) translate(4 472)">
<title>%3</title>
<polygon fill="white" stroke="none" points="-4,4 -4,-472 2350,-472 2350,4 -4,4"/>
<!-- retroATL3 -->
<g id="node1" class="node"><title>retroATL3</title>
<polygon fill="blue" stroke="black" points="2143.5,-108 2030.5,-108 2030.5,-72 2143.5,-72 2143.5,-108"/>
<text text-anchor="middle" x="2087" y="-84.4" font-family="Times,serif" font-size="22.00">retroATL3</text>
</g>
<!-- Tri&#45;Piezo Head -->
<g id="node7" class="node"><title>Tri&#45;Piezo Head</title>
<ellipse fill="yellow" stroke="black" cx="2087" cy="-18" rx="64.9885" ry="18"/>
<text text-anchor="middle" x="2087" y="-14.3" font-family="Times,serif" font-size="14.00">Tri&#45;Piezo Head</text>
</g>
<!-- retroATL3&#45;&gt;Tri&#45;Piezo Head -->
<g id="edge16" class="edge"><title>retroATL3&#45;&gt;Tri&#45;Piezo Head</title>
<path fill="none" stroke="black" d="M2069.25,-71.6966C2066.8,-63.7815 2066.15,-54.2279 2067.3,-45.441"/>
<polygon fill="red" stroke="black" points="2070.73,-46.1422 2069.47,-35.6223 2063.89,-44.6306 2070.73,-46.1422"/>
</g>
<!-- ITF&#45;A_gnd -->
<g id="node2" class="node"><title>ITF&#45;A_gnd</title>
<ellipse fill="yellow" stroke="black" cx="2143" cy="-450" rx="50.8918" ry="18"/>
<text text-anchor="middle" x="2143" y="-446.3" font-family="Times,serif" font-size="14.00">ITF&#45;A_gnd</text>
</g>
<!-- ITF&#45;A_gnd&#45;&gt;retroATL3 -->
<g id="edge1" class="edge"><title>ITF&#45;A_gnd&#45;&gt;retroATL3</title>
<path fill="none" stroke="black" d="M2170.62,-434.609C2186.03,-426.013 2203.75,-413.342 2213,-396 2235.59,-353.647 2227.2,-333.851 2213,-288 2191.31,-217.969 2135.17,-150.694 2105.49,-115.779"/>
<polygon fill="black" stroke="black" points="2108.04,-113.372 2098.9,-108.021 2102.71,-117.907 2108.04,-113.372"/>
</g>
<!-- ITF&#45;A_gnd&#45;&gt;retroATL3 -->
<g id="edge7" class="edge"><title>ITF&#45;A_gnd&#45;&gt;retroATL3</title>
<path fill="none" stroke="black" d="M2180.34,-437.667C2199.43,-429.134 2220.59,-415.528 2231,-396 2253.59,-353.647 2245.2,-333.851 2231,-288 2209.22,-217.674 2152.7,-150.126 2117.11,-115.339"/>
<polygon fill="black" stroke="black" points="2119.08,-112.379 2109.42,-108.021 2114.25,-117.45 2119.08,-112.379"/>
</g>
<!-- toadkiller -->
<g id="node8" class="node"><title>toadkiller</title>
<polygon fill="blue" stroke="black" points="1668.5,-252 1567.5,-252 1567.5,-216 1668.5,-216 1668.5,-252"/>
<text text-anchor="middle" x="1618" y="-228.4" font-family="Times,serif" font-size="22.00">toadkiller</text>
</g>
<!-- ITF&#45;A_gnd&#45;&gt;toadkiller -->
<g id="edge17" class="edge"><title>ITF&#45;A_gnd&#45;&gt;toadkiller</title>
<path fill="none" stroke="black" d="M2134.65,-432.146C2122.95,-398.458 2100.7,-323.044 2050,-288 1990.76,-247.054 1783.2,-237.644 1678.79,-235.548"/>
<polygon fill="black" stroke="black" points="1678.78,-232.048 1668.71,-235.363 1678.65,-239.046 1678.78,-232.048"/>
</g>
<!-- ITF&#45;A_gnd&#45;&gt;toadkiller -->
<g id="edge21" class="edge"><title>ITF&#45;A_gnd&#45;&gt;toadkiller</title>
<path fill="none" stroke="black" d="M2144.6,-431.886C2140.84,-398.072 2118.57,-322.954 2068,-288 2006.78,-245.686 1787.16,-237.05 1678.96,-235.362"/>
<polygon fill="black" stroke="black" points="1678.89,-231.861 1668.85,-235.219 1678.8,-238.86 1678.89,-231.861"/>
</g>
<!-- mogaba -->
<g id="node16" class="node"><title>mogaba</title>
<polygon fill="blue" stroke="black" points="1660.5,-396 1573.5,-396 1573.5,-360 1660.5,-360 1660.5,-396"/>
<text text-anchor="middle" x="1617" y="-372.4" font-family="Times,serif" font-size="22.00">mogaba</text>
</g>
<!-- ITF&#45;A_gnd&#45;&gt;mogaba -->
<g id="edge35" class="edge"><title>ITF&#45;A_gnd&#45;&gt;mogaba</title>
<path fill="none" stroke="black" d="M2095.69,-443.228C2019.04,-433.805 1862.97,-414.326 1731,-396 1711.26,-393.259 1689.62,-390.077 1670.55,-387.213"/>
<polygon fill="black" stroke="black" points="1670.96,-383.734 1660.55,-385.704 1669.91,-390.656 1670.96,-383.734"/>
</g>
<!-- goblin -->
<g id="node18" class="node"><title>goblin</title>
<polygon fill="blue" stroke="black" points="638,-252 564,-252 564,-216 638,-216 638,-252"/>
<text text-anchor="middle" x="601" y="-228.4" font-family="Times,serif" font-size="22.00">goblin</text>
</g>
<!-- ITF&#45;A_gnd&#45;&gt;goblin -->
<g id="edge40" class="edge"><title>ITF&#45;A_gnd&#45;&gt;goblin</title>
<path fill="none" stroke="black" d="M2094.05,-445.248C2021.74,-438.709 1882.95,-423.252 1768,-396 1718.77,-384.328 1709.8,-368.926 1660,-360 1600.25,-349.291 610.208,-367.622 568,-324 551.618,-307.069 562.014,-280.179 575.519,-260.383"/>
<polygon fill="black" stroke="black" points="578.502,-262.235 581.642,-252.116 572.877,-258.069 578.502,-262.235"/>
</g>
<!-- ITF&#45;A_gnd&#45;&gt;goblin -->
<g id="edge48" class="edge"><title>ITF&#45;A_gnd&#45;&gt;goblin</title>
<path fill="none" stroke="black" d="M2094.93,-444.194C2025.84,-437.125 1895.17,-421.882 1786,-396 1736.77,-384.328 1727.8,-368.926 1678,-360 1618.25,-349.291 628.208,-367.622 586,-324 569.838,-307.297 579.739,-280.901 589.689,-261.186"/>
<polygon fill="black" stroke="black" points="592.902,-262.595 594.463,-252.116 586.708,-259.334 592.902,-262.595"/>
</g>
<!-- tobo -->
<g id="node24" class="node"><title>tobo</title>
<polygon fill="blue" stroke="black" points="1328,-252 1272,-252 1272,-216 1328,-216 1328,-252"/>
<text text-anchor="middle" x="1300" y="-228.4" font-family="Times,serif" font-size="22.00">tobo</text>
</g>
<!-- ITF&#45;A_gnd&#45;&gt;tobo -->
<g id="edge60" class="edge"><title>ITF&#45;A_gnd&#45;&gt;tobo</title>
<path fill="none" stroke="black" d="M2103.32,-438.68C2035.11,-419.81 1891.64,-379.861 1768,-360 1669.17,-344.124 1397.27,-386.395 1319,-324 1300.64,-309.365 1294.1,-282.77 1293.5,-262.451"/>
<polygon fill="black" stroke="black" points="1297.01,-262.284 1293.73,-252.209 1290.01,-262.13 1297.01,-262.284"/>
</g>
<!-- ITF&#45;A_gnd&#45;&gt;tobo -->
<g id="edge66" class="edge"><title>ITF&#45;A_gnd&#45;&gt;tobo</title>
<path fill="none" stroke="black" d="M2108.1,-436.924C2044.51,-417.429 1905.93,-379.265 1786,-360 1687.17,-344.124 1415.27,-386.395 1337,-324 1318.56,-309.297 1312.03,-282.525 1308.18,-262.17"/>
<polygon fill="black" stroke="black" points="1311.6,-261.418 1306.36,-252.209 1304.72,-262.676 1311.6,-261.418"/>
</g>
<!-- oneeye -->
<g id="node27" class="node"><title>oneeye</title>
<polygon fill="blue" stroke="black" points="1457,-108 1377,-108 1377,-72 1457,-72 1457,-108"/>
<text text-anchor="middle" x="1417" y="-84.4" font-family="Times,serif" font-size="22.00">oneeye</text>
</g>
<!-- ITF&#45;A_gnd&#45;&gt;oneeye -->
<g id="edge77" class="edge"><title>ITF&#45;A_gnd&#45;&gt;oneeye</title>
<path fill="none" stroke="black" d="M2140.02,-431.874C2140.92,-413.656 2144.07,-384.189 2137,-360 2126.35,-323.551 2120.46,-311.957 2091,-288 1898.87,-131.778 1588.33,-99.4243 1467.36,-92.7366"/>
<polygon fill="black" stroke="black" points="1467.45,-89.2362 1457.28,-92.2148 1467.08,-96.2269 1467.45,-89.2362"/>
</g>
<!-- ITF&#45;A_gnd&#45;&gt;oneeye -->
<g id="edge80" class="edge"><title>ITF&#45;A_gnd&#45;&gt;oneeye</title>
<path fill="none" stroke="black" d="M2153.27,-432.208C2158.88,-414.018 2162.11,-384.337 2155,-360 2144.35,-323.551 2138.46,-311.957 2109,-288 1912.22,-127.996 1591.22,-97.9302 1467.6,-92.2945"/>
<polygon fill="black" stroke="black" points="1467.44,-88.7848 1457.31,-91.8614 1467.15,-95.7786 1467.44,-88.7848"/>
</g>
<!-- ITF&#45;F_12V -->
<g id="node3" class="node"><title>ITF&#45;F_12V</title>
<ellipse fill="yellow" stroke="black" cx="1698" cy="-450" rx="51.1914" ry="18"/>
<text text-anchor="middle" x="1698" y="-446.3" font-family="Times,serif" font-size="14.00">ITF&#45;F_12V</text>
</g>
<!-- ITF&#45;F_12V&#45;&gt;retroATL3 -->
<g id="edge2" class="edge"><title>ITF&#45;F_12V&#45;&gt;retroATL3</title>
<path fill="none" stroke="black" d="M1748.88,-447.064C1827.04,-440.981 1975.07,-416.94 2050,-324 2098.28,-264.119 2090.58,-165.837 2086.82,-118.362"/>
<polygon fill="black" stroke="black" points="2090.29,-117.937 2086.04,-108.235 2083.31,-118.474 2090.29,-117.937"/>
</g>
<!-- ITF&#45;F_12V&#45;&gt;retroATL3 -->
<g id="edge8" class="edge"><title>ITF&#45;F_12V&#45;&gt;retroATL3</title>
<path fill="none" stroke="black" d="M1749.1,-447.812C1830.89,-443.098 1989.53,-421.329 2068,-324 2116.38,-263.992 2108.54,-165.423 2097.53,-118.063"/>
<polygon fill="black" stroke="black" points="2100.88,-117.046 2095,-108.235 2094.1,-118.792 2100.88,-117.046"/>
</g>
<!-- ITF&#45;F_12V&#45;&gt;mogaba -->
<g id="edge32" class="edge"><title>ITF&#45;F_12V&#45;&gt;mogaba</title>
<path fill="none" stroke="black" d="M1670.03,-434.496C1657.36,-425.538 1643.21,-413.813 1632.35,-403.45"/>
<polygon fill="black" stroke="black" points="1634.65,-400.793 1625.1,-396.204 1629.7,-405.747 1634.65,-400.793"/>
</g>
<!-- ITF&#45;F_12V&#45;&gt;mogaba -->
<g id="edge34" class="edge"><title>ITF&#45;F_12V&#45;&gt;mogaba</title>
<path fill="none" stroke="black" d="M1679.62,-433.116C1669.23,-424.136 1656.03,-412.734 1644.44,-402.714"/>
<polygon fill="black" stroke="black" points="1646.58,-399.935 1636.72,-396.044 1642,-405.231 1646.58,-399.935"/>
</g>
<!-- ITF&#45;F_12V&#45;&gt;mogaba -->
<g id="edge37" class="edge"><title>ITF&#45;F_12V&#45;&gt;mogaba</title>
<path fill="none" stroke="black" d="M1690.15,-432.055C1681.68,-423.093 1669.14,-411.957 1656.64,-402.204"/>
<polygon fill="black" stroke="black" points="1658.57,-399.272 1648.48,-396.032 1654.35,-404.855 1658.57,-399.272"/>
</g>
<!-- ITF&#45;N_cc_motor_pwm -->
<g id="node4" class="node"><title>ITF&#45;N_cc_motor_pwm</title>
<ellipse fill="yellow" stroke="black" cx="1618" cy="-162" rx="93.6835" ry="18"/>
<text text-anchor="middle" x="1618" y="-158.3" font-family="Times,serif" font-size="14.00">ITF&#45;N_cc_motor_pwm</text>
</g>
<!-- ITF&#45;N_cc_motor_pwm&#45;&gt;retroATL3 -->
<g id="edge3" class="edge"><title>ITF&#45;N_cc_motor_pwm&#45;&gt;retroATL3</title>
<path fill="none" stroke="black" d="M1687.48,-149.87C1777.24,-136.126 1932.27,-113.005 2020.54,-100.211"/>
<polygon fill="black" stroke="black" points="2021.05,-103.675 2030.44,-98.7793 2020.04,-96.747 2021.05,-103.675"/>
</g>
<!-- ITF&#45;N_cc_motor_pwm&#45;&gt;retroATL3 -->
<g id="edge9" class="edge"><title>ITF&#45;N_cc_motor_pwm&#45;&gt;retroATL3</title>
<path fill="none" stroke="black" d="M1691.38,-150.784C1781.57,-137.68 1933.18,-115.056 2020.23,-101.715"/>
<polygon fill="black" stroke="black" points="2020.91,-105.153 2030.26,-100.176 2019.84,-98.2339 2020.91,-105.153"/>
</g>
<!-- ITF&#45;N_cc_motor_pwm&#45;&gt;toadkiller -->
<g id="edge29" class="edge"><title>ITF&#45;N_cc_motor_pwm&#45;&gt;toadkiller</title>
<path fill="none" stroke="black" d="M1623.9,-180.104C1624.7,-187.791 1624.94,-197.054 1624.6,-205.665"/>
<polygon fill="black" stroke="black" points="1621.11,-205.48 1623.92,-215.697 1628.09,-205.96 1621.11,-205.48"/>
</g>
<!-- ITF&#45;N_cc_motor_pwm&#45;&gt;oneeye -->
<g id="edge86" class="edge"><title>ITF&#45;N_cc_motor_pwm&#45;&gt;oneeye</title>
<path fill="none" stroke="black" d="M1570.5,-146.411C1539.25,-135.989 1498.5,-121.857 1466.79,-110.473"/>
<polygon fill="black" stroke="black" points="1467.86,-107.137 1457.27,-107.035 1465.48,-113.721 1467.86,-107.137"/>
</g>
<!-- ITF&#45;mET_Transducer -->
<g id="node5" class="node"><title>ITF&#45;mET_Transducer</title>
<ellipse fill="green" stroke="black" cx="1300" cy="-162" rx="89.0842" ry="18"/>
<text text-anchor="middle" x="1300" y="-158.3" font-family="Times,serif" font-size="14.00">ITF&#45;mET_Transducer</text>
</g>
<!-- ITF&#45;mET_Transducer&#45;&gt;retroATL3 -->
<g id="edge4" class="edge"><title>ITF&#45;mET_Transducer&#45;&gt;retroATL3</title>
<path fill="none" stroke="black" d="M1378,-153.275C1532.72,-138.926 1875.15,-108.507 2020.25,-96.2658"/>
<polygon fill="black" stroke="black" points="2020.68,-99.7422 2030.35,-95.4164 2020.09,-92.7668 2020.68,-99.7422"/>
</g>
<!-- ITF&#45;mET_Transducer&#45;&gt;retroATL3 -->
<g id="edge10" class="edge"><title>ITF&#45;mET_Transducer&#45;&gt;retroATL3</title>
<path fill="none" stroke="black" d="M1379.79,-153.903C1535.21,-140.079 1875.89,-109.778 2020.24,-96.9378"/>
<polygon fill="black" stroke="black" points="2020.64,-100.416 2030.29,-96.044 2020.02,-93.4438 2020.64,-100.416"/>
</g>
<!-- ITF&#45;mET_Transducer&#45;&gt;retroATL3 -->
<g id="edge14" class="edge"><title>ITF&#45;mET_Transducer&#45;&gt;retroATL3</title>
<path fill="none" stroke="black" d="M1381.22,-154.509C1537.42,-141.236 1876.11,-111.115 2020.22,-97.6821"/>
<polygon fill="black" stroke="black" points="2020.62,-101.16 2030.25,-96.7442 2019.97,-94.1901 2020.62,-101.16"/>
</g>
<!-- ITF&#45;mET_Transducer&#45;&gt;tobo -->
<g id="edge65" class="edge"><title>ITF&#45;mET_Transducer&#45;&gt;tobo</title>
<path fill="none" stroke="black" d="M1294.1,-180.104C1293.3,-187.791 1293.06,-197.054 1293.4,-205.665"/>
<polygon fill="black" stroke="black" points="1289.91,-205.96 1294.08,-215.697 1296.89,-205.48 1289.91,-205.96"/>
</g>
<!-- ITF&#45;mET_Transducer&#45;&gt;tobo -->
<g id="edge71" class="edge"><title>ITF&#45;mET_Transducer&#45;&gt;tobo</title>
<path fill="none" stroke="black" d="M1305.9,-180.104C1306.7,-187.791 1306.94,-197.054 1306.6,-205.665"/>
<polygon fill="black" stroke="black" points="1303.11,-205.48 1305.92,-215.697 1310.09,-205.96 1303.11,-205.48"/>
</g>
<!-- ITF&#45;mET_Transducer&#45;&gt;tobo -->
<g id="edge74" class="edge"><title>ITF&#45;mET_Transducer&#45;&gt;tobo</title>
<path fill="none" stroke="black" d="M1317.69,-180.104C1320.1,-187.791 1320.81,-197.054 1319.81,-205.665"/>
<polygon fill="black" stroke="black" points="1316.34,-205.196 1317.75,-215.697 1323.19,-206.608 1316.34,-205.196"/>
</g>
<!-- Motor -->
<g id="node6" class="node"><title>Motor</title>
<ellipse fill="yellow" stroke="black" cx="2241" cy="-162" rx="33.2948" ry="18"/>
<text text-anchor="middle" x="2241" y="-158.3" font-family="Times,serif" font-size="14.00">Motor</text>
</g>
<!-- Motor&#45;&gt;retroATL3 -->
<g id="edge5" class="edge"><title>Motor&#45;&gt;retroATL3</title>
<path fill="none" stroke="black" d="M2212.89,-152.417C2187.1,-142.587 2149.73,-126.11 2122.14,-112.697"/>
<polygon fill="black" stroke="black" points="2123.34,-109.385 2112.82,-108.096 2120.24,-115.662 2123.34,-109.385"/>
</g>
<!-- Motor&#45;&gt;retroATL3 -->
<g id="edge11" class="edge"><title>Motor&#45;&gt;retroATL3</title>
<path fill="none" stroke="black" d="M2216.26,-149.753C2194.12,-139.693 2161.09,-124.675 2133.95,-112.342"/>
<polygon fill="black" stroke="black" points="2135.18,-109.055 2124.63,-108.104 2132.28,-115.428 2135.18,-109.055"/>
</g>
<!-- Motor&#45;&gt;retroATL3 -->
<g id="edge13" class="edge"><title>Motor&#45;&gt;retroATL3</title>
<path fill="none" stroke="black" d="M2221.58,-147.17C2202.19,-137.119 2172.36,-123.337 2145.55,-111.941"/>
<polygon fill="black" stroke="black" points="2146.79,-108.665 2136.21,-108.019 2144.08,-115.119 2146.79,-108.665"/>
</g>
<!-- Tri&#45;Piezo Head&#45;&gt;retroATL3 -->
<g id="edge6" class="edge"><title>Tri&#45;Piezo Head&#45;&gt;retroATL3</title>
<path fill="none" stroke="black" d="M2081.1,-36.1043C2080.3,-43.7913 2080.06,-53.0537 2080.4,-61.6651"/>
<polygon fill="black" stroke="black" points="2076.91,-61.9597 2081.08,-71.6966 2083.89,-61.4805 2076.91,-61.9597"/>
</g>
<!-- Tri&#45;Piezo Head&#45;&gt;retroATL3 -->
<g id="edge12" class="edge"><title>Tri&#45;Piezo Head&#45;&gt;retroATL3</title>
<path fill="none" stroke="black" d="M2092.9,-36.1043C2093.7,-43.7913 2093.94,-53.0537 2093.6,-61.6651"/>
<polygon fill="black" stroke="black" points="2090.11,-61.4805 2092.92,-71.6966 2097.09,-61.9597 2090.11,-61.4805"/>
</g>
<!-- Tri&#45;Piezo Head&#45;&gt;retroATL3 -->
<g id="edge15" class="edge"><title>Tri&#45;Piezo Head&#45;&gt;retroATL3</title>
<path fill="none" stroke="black" d="M2104.53,-35.6223C2107.08,-43.4408 2107.84,-52.9673 2106.8,-61.7964"/>
<polygon fill="black" stroke="black" points="2103.35,-61.1947 2104.75,-71.6966 2110.2,-62.6138 2103.35,-61.1947"/>
</g>
<!-- toadkiller&#45;&gt;ITF&#45;N_cc_motor_pwm -->
<g id="edge30" class="edge"><title>toadkiller&#45;&gt;ITF&#45;N_cc_motor_pwm</title>
<path fill="none" stroke="black" d="M1612.08,-215.697C1611.29,-207.983 1611.06,-198.712 1611.4,-190.112"/>
<polygon fill="red" stroke="black" points="1614.9,-190.324 1612.1,-180.104 1607.92,-189.836 1614.9,-190.324"/>
</g>
<!-- ITF&#45;B_5v -->
<g id="node9" class="node"><title>ITF&#45;B_5v</title>
<ellipse fill="yellow" stroke="black" cx="1244" cy="-450" rx="46.2923" ry="18"/>
<text text-anchor="middle" x="1244" y="-446.3" font-family="Times,serif" font-size="14.00">ITF&#45;B_5v</text>
</g>
<!-- ITF&#45;B_5v&#45;&gt;toadkiller -->
<g id="edge18" class="edge"><title>ITF&#45;B_5v&#45;&gt;toadkiller</title>
<path fill="none" stroke="black" d="M1280.34,-438.69C1371.06,-414.292 1600.97,-352.899 1622,-324 1635.01,-306.128 1629.66,-280.808 1623.79,-261.741"/>
<polygon fill="black" stroke="black" points="1627.1,-260.582 1620.68,-252.147 1620.44,-262.738 1627.1,-260.582"/>
</g>
<!-- ITF&#45;B_5v&#45;&gt;toadkiller -->
<g id="edge22" class="edge"><title>ITF&#45;B_5v&#45;&gt;toadkiller</title>
<path fill="none" stroke="black" d="M1282.99,-440.261C1378.74,-417.037 1618.5,-353.541 1640,-324 1653.13,-305.963 1647.56,-280.34 1638.5,-261.216"/>
<polygon fill="black" stroke="black" points="1641.47,-259.338 1633.69,-252.147 1635.28,-262.62 1641.47,-259.338"/>
</g>
<!-- ITF&#45;B_5v&#45;&gt;mogaba -->
<g id="edge36" class="edge"><title>ITF&#45;B_5v&#45;&gt;mogaba</title>
<path fill="none" stroke="black" d="M1287.12,-443.395C1348.09,-435.097 1462.8,-418.11 1559,-396 1560.47,-395.662 1561.96,-395.309 1563.46,-394.942"/>
<polygon fill="black" stroke="black" points="1564.63,-398.254 1573.44,-392.368 1562.88,-391.475 1564.63,-398.254"/>
</g>
<!-- ITF&#45;B_5v&#45;&gt;goblin -->
<g id="edge41" class="edge"><title>ITF&#45;B_5v&#45;&gt;goblin</title>
<path fill="none" stroke="black" d="M1197.97,-448.424C1051.99,-445.532 604.594,-428.161 517,-324 506.702,-311.754 509.643,-302.208 517,-288 525.029,-272.496 539.912,-260.558 555.021,-251.972"/>
<polygon fill="black" stroke="black" points="556.674,-255.057 563.894,-247.302 553.414,-248.863 556.674,-255.057"/>
</g>
<!-- ITF&#45;B_5v&#45;&gt;goblin -->
<g id="edge49" class="edge"><title>ITF&#45;B_5v&#45;&gt;goblin</title>
<path fill="none" stroke="black" d="M1197.93,-448.259C1054.5,-444.9 621.067,-426.345 535,-324 524.702,-311.754 527.643,-302.208 535,-288 541.368,-275.702 552.049,-265.648 563.031,-257.731"/>
<polygon fill="black" stroke="black" points="565.075,-260.575 571.422,-252.091 561.17,-254.765 565.075,-260.575"/>
</g>
<!-- ITF&#45;B_5v&#45;&gt;tobo -->
<g id="edge61" class="edge"><title>ITF&#45;B_5v&#45;&gt;tobo</title>
<path fill="none" stroke="black" d="M1240.89,-431.783C1241.62,-402.003 1251.85,-339.152 1268,-288 1270.81,-279.104 1274.61,-269.678 1278.75,-261.279"/>
<polygon fill="black" stroke="black" points="1281.91,-262.789 1283.52,-252.318 1275.73,-259.496 1281.91,-262.789"/>
</g>
<!-- ITF&#45;B_5v&#45;&gt;tobo -->
<g id="edge67" class="edge"><title>ITF&#45;B_5v&#45;&gt;tobo</title>
<path fill="none" stroke="black" d="M1251.77,-431.783C1259.62,-402.003 1269.85,-339.152 1286,-288 1288.75,-279.296 1292.45,-270.083 1295.67,-261.822"/>
<polygon fill="black" stroke="black" points="1299,-262.909 1299.27,-252.318 1292.46,-260.429 1299,-262.909"/>
</g>
<!-- ITF&#45;B_5v&#45;&gt;oneeye -->
<g id="edge78" class="edge"><title>ITF&#45;B_5v&#45;&gt;oneeye</title>
<path fill="none" stroke="black" d="M1197.69,-448.665C972.113,-446.418 0,-429.547 0,-307 0,-307 0,-307 0,-233 0,-93.1263 1114.19,-89.7379 1366.61,-90.6953"/>
<polygon fill="black" stroke="black" points="1366.94,-94.1966 1376.95,-90.7389 1366.97,-87.1967 1366.94,-94.1966"/>
</g>
<!-- ITF&#45;B_5v&#45;&gt;oneeye -->
<g id="edge81" class="edge"><title>ITF&#45;B_5v&#45;&gt;oneeye</title>
<path fill="none" stroke="black" d="M1197.69,-448.606C974.129,-446.132 18,-428.535 18,-307 18,-307 18,-307 18,-233 18,-94.186 1115.37,-89.797 1366.34,-90.6743"/>
<polygon fill="black" stroke="black" points="1366.62,-94.1754 1376.63,-90.715 1366.64,-87.1754 1366.62,-94.1754"/>
</g>
<!-- ITF&#45;S_3_3v -->
<g id="node10" class="node"><title>ITF&#45;S_3_3v</title>
<ellipse fill="yellow" stroke="black" cx="1153" cy="-306" rx="53.8905" ry="18"/>
<text text-anchor="middle" x="1153" y="-302.3" font-family="Times,serif" font-size="14.00">ITF&#45;S_3_3v</text>
</g>
<!-- ITF&#45;S_3_3v&#45;&gt;toadkiller -->
<g id="edge19" class="edge"><title>ITF&#45;S_3_3v&#45;&gt;toadkiller</title>
<path fill="none" stroke="black" d="M1200.54,-297.174C1285.66,-283.904 1463.66,-257.102 1557.4,-243.433"/>
<polygon fill="black" stroke="black" points="1557.91,-246.895 1567.3,-241.992 1556.9,-239.968 1557.91,-246.895"/>
</g>
<!-- ITF&#45;S_3_3v&#45;&gt;toadkiller -->
<g id="edge23" class="edge"><title>ITF&#45;S_3_3v&#45;&gt;toadkiller</title>
<path fill="none" stroke="black" d="M1201.76,-298.288C1287.33,-285.886 1463.96,-259.332 1557.28,-244.874"/>
<polygon fill="black" stroke="black" points="1558.07,-248.293 1567.41,-243.3 1557,-241.376 1558.07,-248.293"/>
</g>
<!-- ITF&#45;S_3_3v&#45;&gt;mogaba -->
<g id="edge38" class="edge"><title>ITF&#45;S_3_3v&#45;&gt;mogaba</title>
<path fill="none" stroke="black" d="M1201.75,-313.724C1289.32,-326.443 1472.27,-354.019 1563.29,-368.195"/>
<polygon fill="black" stroke="black" points="1562.98,-371.688 1573.4,-369.772 1564.06,-364.772 1562.98,-371.688"/>
</g>
<!-- ITF&#45;S_3_3v&#45;&gt;goblin -->
<g id="edge42" class="edge"><title>ITF&#45;S_3_3v&#45;&gt;goblin</title>
<path fill="none" stroke="black" d="M1110.56,-294.847C1100.83,-292.308 1090.58,-289.799 1081,-288 923.741,-258.446 734.706,-243.761 648.197,-238.012"/>
<polygon fill="black" stroke="black" points="648.371,-234.516 638.164,-237.355 647.914,-241.501 648.371,-234.516"/>
</g>
<!-- ITF&#45;S_3_3v&#45;&gt;goblin -->
<g id="edge50" class="edge"><title>ITF&#45;S_3_3v&#45;&gt;goblin</title>
<path fill="none" stroke="black" d="M1118.05,-292.23C1111.76,-290.644 1105.23,-289.172 1099,-288 935.325,-257.241 737.227,-242.588 648.17,-237.353"/>
<polygon fill="black" stroke="black" points="648.298,-233.854 638.114,-236.775 647.896,-240.843 648.298,-233.854"/>
</g>
<!-- ITF&#45;S_3_3v&#45;&gt;tobo -->
<g id="edge64" class="edge"><title>ITF&#45;S_3_3v&#45;&gt;tobo</title>
<path fill="none" stroke="black" d="M1178.88,-289.983C1202.07,-278.248 1236.18,-262.005 1262.36,-250.218"/>
<polygon fill="black" stroke="black" points="1263.9,-253.362 1271.61,-246.094 1261.05,-246.968 1263.9,-253.362"/>
</g>
<!-- ITF&#45;S_3_3v&#45;&gt;tobo -->
<g id="edge70" class="edge"><title>ITF&#45;S_3_3v&#45;&gt;tobo</title>
<path fill="none" stroke="black" d="M1186.43,-291.669C1209.27,-281.478 1239.41,-267.247 1262.96,-255.596"/>
<polygon fill="black" stroke="black" points="1264.57,-258.703 1271.96,-251.108 1261.45,-252.44 1264.57,-258.703"/>
</g>
<!-- ITF&#45;S_3_3v&#45;&gt;oneeye -->
<g id="edge79" class="edge"><title>ITF&#45;S_3_3v&#45;&gt;oneeye</title>
<path fill="none" stroke="black" d="M1147.88,-287.85C1144.97,-254.971 1151.96,-182.888 1193,-144 1217.35,-120.925 1308.42,-104.68 1366.78,-96.6766"/>
<polygon fill="black" stroke="black" points="1367.46,-100.116 1376.91,-95.3245 1366.54,-93.1776 1367.46,-100.116"/>
</g>
<!-- ITF&#45;S_3_3v&#45;&gt;oneeye -->
<g id="edge82" class="edge"><title>ITF&#45;S_3_3v&#45;&gt;oneeye</title>
<path fill="none" stroke="black" d="M1158.11,-287.85C1162.97,-254.971 1169.96,-182.888 1211,-144 1233.54,-122.635 1313.29,-107.126 1366.78,-98.5915"/>
<polygon fill="black" stroke="black" points="1367.43,-102.032 1376.77,-97.0287 1366.35,-95.116 1367.43,-102.032"/>
</g>
<!-- ITF&#45;E_signal_envelope -->
<g id="node11" class="node"><title>ITF&#45;E_signal_envelope</title>
<ellipse fill="yellow" stroke="black" cx="987" cy="-306" rx="93.6835" ry="18"/>
<text text-anchor="middle" x="987" y="-302.3" font-family="Times,serif" font-size="14.00">ITF&#45;E_signal_envelope</text>
</g>
<!-- ITF&#45;E_signal_envelope&#45;&gt;toadkiller -->
<g id="edge20" class="edge"><title>ITF&#45;E_signal_envelope&#45;&gt;toadkiller</title>
<path fill="none" stroke="black" d="M1049.77,-292.571C1060.16,-290.926 1070.85,-289.346 1081,-288 1252.78,-265.226 1457.17,-247.306 1557.09,-239.402"/>
<polygon fill="black" stroke="black" points="1557.6,-242.872 1567.3,-238.601 1557.05,-235.894 1557.6,-242.872"/>
</g>
<!-- ITF&#45;E_signal_envelope&#45;&gt;toadkiller -->
<g id="edge24" class="edge"><title>ITF&#45;E_signal_envelope&#45;&gt;toadkiller</title>
<path fill="none" stroke="black" d="M1057.5,-294.157C1071.3,-291.956 1085.61,-289.775 1099,-288 1264.44,-266.066 1460.12,-248.636 1557.22,-240.318"/>
<polygon fill="black" stroke="black" points="1557.77,-243.784 1567.44,-239.445 1557.18,-236.809 1557.77,-243.784"/>
</g>
<!-- ITF&#45;E_signal_envelope&#45;&gt;goblin -->
<g id="edge45" class="edge"><title>ITF&#45;E_signal_envelope&#45;&gt;goblin</title>
<path fill="none" stroke="black" d="M916.562,-294.062C838.478,-280.731 715.257,-258.372 648.024,-245.325"/>
<polygon fill="black" stroke="black" points="648.612,-241.873 638.126,-243.391 647.27,-248.744 648.612,-241.873"/>
</g>
<!-- ITF&#45;E_signal_envelope&#45;&gt;goblin -->
<g id="edge53" class="edge"><title>ITF&#45;E_signal_envelope&#45;&gt;goblin</title>
<path fill="none" stroke="black" d="M921.52,-293.125C843.981,-279.064 716.735,-255.988 648.218,-243.563"/>
<polygon fill="black" stroke="black" points="648.609,-240.077 638.145,-241.736 647.36,-246.964 648.609,-240.077"/>
</g>
<!-- ITF&#45;E_signal_envelope&#45;&gt;goblin -->
<g id="edge57" class="edge"><title>ITF&#45;E_signal_envelope&#45;&gt;goblin</title>
<path fill="none" stroke="black" d="M926.93,-292.161C849.838,-277.395 718.38,-253.69 648.058,-241.993"/>
<polygon fill="black" stroke="black" points="648.577,-238.531 638.14,-240.356 647.437,-245.437 648.577,-238.531"/>
</g>
<!-- WiFi UDP Stream -->
<g id="node12" class="node"><title>WiFi UDP Stream</title>
<ellipse fill="yellow" stroke="black" cx="1773" cy="-306" rx="77.1866" ry="18"/>
<text text-anchor="middle" x="1773" y="-302.3" font-family="Times,serif" font-size="14.00">WiFi UDP Stream</text>
</g>
<!-- WiFi UDP Stream&#45;&gt;toadkiller -->
<g id="edge25" class="edge"><title>WiFi UDP Stream&#45;&gt;toadkiller</title>
<path fill="none" stroke="black" d="M1738.98,-289.638C1717.27,-279.832 1688.82,-266.985 1664.97,-256.213"/>
<polygon fill="black" stroke="black" points="1666.3,-252.97 1655.74,-252.044 1663.41,-259.35 1666.3,-252.97"/>
</g>
<!-- ITF&#45;mED&#45;TFT&#45;Screen -->
<g id="node13" class="node"><title>ITF&#45;mED&#45;TFT&#45;Screen</title>
<ellipse fill="green" stroke="black" cx="1959" cy="-306" rx="90.9839" ry="18"/>
<text text-anchor="middle" x="1959" y="-302.3" font-family="Times,serif" font-size="14.00">ITF&#45;mED&#45;TFT&#45;Screen</text>
</g>
<!-- ITF&#45;mED&#45;TFT&#45;Screen&#45;&gt;toadkiller -->
<g id="edge26" class="edge"><title>ITF&#45;mED&#45;TFT&#45;Screen&#45;&gt;toadkiller</title>
<path fill="none" stroke="black" d="M1898.43,-292.566C1836.43,-279.838 1740.61,-260.17 1678.6,-247.44"/>
<polygon fill="black" stroke="black" points="1679.07,-243.963 1668.57,-245.381 1677.66,-250.82 1679.07,-243.963"/>
</g>
<!-- ITF&#45;I_pulse_on -->
<g id="node14" class="node"><title>ITF&#45;I_pulse_on</title>
<ellipse fill="yellow" stroke="black" cx="1403" cy="-306" rx="65.7887" ry="18"/>
<text text-anchor="middle" x="1403" y="-302.3" font-family="Times,serif" font-size="14.00">ITF&#45;I_pulse_on</text>
</g>
<!-- ITF&#45;I_pulse_on&#45;&gt;toadkiller -->
<g id="edge27" class="edge"><title>ITF&#45;I_pulse_on&#45;&gt;toadkiller</title>
<path fill="none" stroke="black" d="M1443.69,-291.751C1475.88,-281.272 1521.3,-266.484 1557.71,-254.63"/>
<polygon fill="black" stroke="black" points="1558.81,-257.952 1567.24,-251.528 1556.64,-251.296 1558.81,-257.952"/>
</g>
<!-- ITF&#45;I_pulse_on&#45;&gt;tobo -->
<g id="edge62" class="edge"><title>ITF&#45;I_pulse_on&#45;&gt;tobo</title>
<path fill="none" stroke="black" d="M1374.7,-289.638C1359.92,-280.353 1342.02,-268.341 1327.38,-257.945"/>
<polygon fill="black" stroke="black" points="1329.35,-255.05 1319.19,-252.044 1325.26,-260.729 1329.35,-255.05"/>
</g>
<!-- ITF&#45;I_pulse_on&#45;&gt;tobo -->
<g id="edge68" class="edge"><title>ITF&#45;I_pulse_on&#45;&gt;tobo</title>
<path fill="none" stroke="black" d="M1384.43,-288.411C1371.14,-278.655 1352.99,-266.231 1336.87,-255.82"/>
<polygon fill="black" stroke="black" points="1338.48,-252.696 1328.16,-250.274 1334.72,-258.6 1338.48,-252.696"/>
</g>
<!-- ITF&#45;I_pulse_on&#45;&gt;oneeye -->
<g id="edge84" class="edge"><title>ITF&#45;I_pulse_on&#45;&gt;oneeye</title>
<path fill="none" stroke="black" d="M1404.12,-287.849C1406.54,-250.832 1412.28,-163.181 1415.21,-118.386"/>
<polygon fill="black" stroke="black" points="1418.71,-118.44 1415.87,-108.232 1411.73,-117.983 1418.71,-118.44"/>
</g>
<!-- ITF&#45;J_pulse_off -->
<g id="node15" class="node"><title>ITF&#45;J_pulse_off</title>
<ellipse fill="yellow" stroke="black" cx="1554" cy="-306" rx="67.6881" ry="18"/>
<text text-anchor="middle" x="1554" y="-302.3" font-family="Times,serif" font-size="14.00">ITF&#45;J_pulse_off</text>
</g>
<!-- ITF&#45;J_pulse_off&#45;&gt;toadkiller -->
<g id="edge28" class="edge"><title>ITF&#45;J_pulse_off&#45;&gt;toadkiller</title>
<path fill="none" stroke="black" d="M1569.17,-288.411C1576.91,-279.946 1586.48,-269.472 1595.1,-260.049"/>
<polygon fill="black" stroke="black" points="1597.88,-262.189 1602.05,-252.447 1592.72,-257.465 1597.88,-262.189"/>
</g>
<!-- ITF&#45;J_pulse_off&#45;&gt;tobo -->
<g id="edge63" class="edge"><title>ITF&#45;J_pulse_off&#45;&gt;tobo</title>
<path fill="none" stroke="black" d="M1506,-293.205C1457.14,-280.309 1382.59,-259.764 1337.78,-246.847"/>
<polygon fill="black" stroke="black" points="1338.72,-243.477 1328.14,-244.054 1336.77,-250.201 1338.72,-243.477"/>
</g>
<!-- ITF&#45;J_pulse_off&#45;&gt;tobo -->
<g id="edge69" class="edge"><title>ITF&#45;J_pulse_off&#45;&gt;tobo</title>
<path fill="none" stroke="black" d="M1511.64,-291.834C1463.15,-277.923 1384.65,-256.353 1338.04,-244.178"/>
<polygon fill="black" stroke="black" points="1338.87,-240.779 1328.32,-241.656 1337.12,-247.555 1338.87,-240.779"/>
</g>
<!-- ITF&#45;J_pulse_off&#45;&gt;oneeye -->
<g id="edge85" class="edge"><title>ITF&#45;J_pulse_off&#45;&gt;oneeye</title>
<path fill="none" stroke="black" d="M1543.25,-288.208C1519.35,-250.874 1461.68,-160.796 1433.32,-116.485"/>
<polygon fill="black" stroke="black" points="1436.23,-114.545 1427.89,-108.01 1430.33,-118.319 1436.23,-114.545"/>
</g>
<!-- mogaba&#45;&gt;ITF&#45;S_3_3v -->
<g id="edge39" class="edge"><title>mogaba&#45;&gt;ITF&#45;S_3_3v</title>
<path fill="none" stroke="black" d="M1573.46,-371.032C1489.17,-358.83 1304.1,-330.95 1210.1,-316.333"/>
<polygon fill="red" stroke="black" points="1210.61,-312.872 1200.2,-314.79 1209.54,-319.788 1210.61,-312.872"/>
</g>
<!-- ITF&#45;mEM_Alimentation -->
<g id="node17" class="node"><title>ITF&#45;mEM_Alimentation</title>
<ellipse fill="green" stroke="black" cx="1530" cy="-450" rx="98.5829" ry="18"/>
<text text-anchor="middle" x="1530" y="-446.3" font-family="Times,serif" font-size="14.00">ITF&#45;mEM_Alimentation</text>
</g>
<!-- ITF&#45;mEM_Alimentation&#45;&gt;mogaba -->
<g id="edge31" class="edge"><title>ITF&#45;mEM_Alimentation&#45;&gt;mogaba</title>
<path fill="none" stroke="black" d="M1545.18,-432.055C1555.37,-423.093 1569.04,-411.957 1581.76,-402.204"/>
<polygon fill="black" stroke="black" points="1584.07,-404.848 1589.94,-396.032 1579.85,-399.26 1584.07,-404.848"/>
</g>
<!-- ITF&#45;mEM_Alimentation&#45;&gt;mogaba -->
<g id="edge33" class="edge"><title>ITF&#45;mEM_Alimentation&#45;&gt;mogaba</title>
<path fill="none" stroke="black" d="M1556.46,-432.411C1568.33,-423.627 1582.14,-412.68 1593.63,-402.988"/>
<polygon fill="black" stroke="black" points="1596.22,-405.373 1601.53,-396.201 1591.66,-400.065 1596.22,-405.373"/>
</g>
<!-- ITF&#45;mEG_SPI -->
<g id="node23" class="node"><title>ITF&#45;mEG_SPI</title>
<ellipse fill="green" stroke="black" cx="601" cy="-162" rx="63.0888" ry="18"/>
<text text-anchor="middle" x="601" y="-158.3" font-family="Times,serif" font-size="14.00">ITF&#45;mEG_SPI</text>
</g>
<!-- goblin&#45;&gt;ITF&#45;mEG_SPI -->
<g id="edge59" class="edge"><title>goblin&#45;&gt;ITF&#45;mEG_SPI</title>
<path fill="none" stroke="black" d="M595.084,-215.697C594.289,-207.983 594.062,-198.712 594.405,-190.112"/>
<polygon fill="red" stroke="black" points="597.898,-190.324 595.105,-180.104 590.915,-189.836 597.898,-190.324"/>
</g>
<!-- ITF&#45;G_gain_control -->
<g id="node19" class="node"><title>ITF&#45;G_gain_control</title>
<ellipse fill="yellow" stroke="black" cx="128" cy="-306" rx="81.7856" ry="18"/>
<text text-anchor="middle" x="128" y="-302.3" font-family="Times,serif" font-size="14.00">ITF&#45;G_gain_control</text>
</g>
<!-- ITF&#45;G_gain_control&#45;&gt;goblin -->
<g id="edge43" class="edge"><title>ITF&#45;G_gain_control&#45;&gt;goblin</title>
<path fill="none" stroke="black" d="M183.157,-292.642C192.099,-291.014 201.275,-289.419 210,-288 333.142,-267.966 479.404,-249.017 553.359,-240.188"/>
<polygon fill="black" stroke="black" points="554.216,-243.611 563.735,-238.959 553.393,-236.659 554.216,-243.611"/>
</g>
<!-- ITF&#45;G_gain_control&#45;&gt;goblin -->
<g id="edge51" class="edge"><title>ITF&#45;G_gain_control&#45;&gt;goblin</title>
<path fill="none" stroke="black" d="M191.076,-294.425C203.366,-292.196 216.102,-289.936 228,-288 345,-268.966 482.873,-250.91 553.813,-241.583"/>
<polygon fill="black" stroke="black" points="554.326,-245.046 563.783,-240.271 553.412,-238.106 554.326,-245.046"/>
</g>
<!-- ITF&#45;G_gain_control&#45;&gt;oneeye -->
<g id="edge83" class="edge"><title>ITF&#45;G_gain_control&#45;&gt;oneeye</title>
<path fill="none" stroke="black" d="M157.612,-289.216C222.634,-255.443 383.698,-176.6 529,-144 690.373,-107.794 1203.26,-95.0731 1366.55,-91.8827"/>
<polygon fill="black" stroke="black" points="1366.86,-95.3774 1376.8,-91.6861 1366.73,-88.3787 1366.86,-95.3774"/>
</g>
<!-- ITF&#45;C_amplified_raw_signal -->
<g id="node20" class="node"><title>ITF&#45;C_amplified_raw_signal</title>
<ellipse fill="yellow" stroke="black" cx="342" cy="-306" rx="114.28" ry="18"/>
<text text-anchor="middle" x="342" y="-302.3" font-family="Times,serif" font-size="14.00">ITF&#45;C_amplified_raw_signal</text>
</g>
<!-- ITF&#45;C_amplified_raw_signal&#45;&gt;goblin -->
<g id="edge44" class="edge"><title>ITF&#45;C_amplified_raw_signal&#45;&gt;goblin</title>
<path fill="none" stroke="black" d="M388.04,-289.465C434.951,-275.918 506.722,-256.668 553.999,-245.052"/>
<polygon fill="black" stroke="black" points="555.1,-248.386 563.991,-242.623 553.447,-241.584 555.1,-248.386"/>
</g>
<!-- ITF&#45;C_amplified_raw_signal&#45;&gt;goblin -->
<g id="edge52" class="edge"><title>ITF&#45;C_amplified_raw_signal&#45;&gt;goblin</title>
<path fill="none" stroke="black" d="M396.927,-290.155C443.49,-277.57 509.565,-259.712 553.786,-247.761"/>
<polygon fill="black" stroke="black" points="554.962,-251.068 563.702,-245.081 553.135,-244.311 554.962,-251.068"/>
</g>
<!-- ITF&#45;C_amplified_raw_signal&#45;&gt;goblin -->
<g id="edge56" class="edge"><title>ITF&#45;C_amplified_raw_signal&#45;&gt;goblin</title>
<path fill="none" stroke="black" d="M405.176,-290.919C451.201,-279.313 512.219,-262.86 554.024,-250.805"/>
<polygon fill="black" stroke="black" points="555.064,-254.148 563.69,-247.996 553.11,-247.426 555.064,-254.148"/>
</g>
<!-- ITF&#45;R_reserved -->
<g id="node21" class="node"><title>ITF&#45;R_reserved</title>
<ellipse fill="yellow" stroke="black" cx="653" cy="-306" rx="66.8882" ry="18"/>
<text text-anchor="middle" x="653" y="-302.3" font-family="Times,serif" font-size="14.00">ITF&#45;R_reserved</text>
</g>
<!-- ITF&#45;R_reserved&#45;&gt;goblin -->
<g id="edge46" class="edge"><title>ITF&#45;R_reserved&#45;&gt;goblin</title>
<path fill="none" stroke="black" d="M634.837,-288.411C627.841,-280.2 620.103,-270.099 613.697,-260.9"/>
<polygon fill="black" stroke="black" points="616.506,-258.804 608.03,-252.447 610.691,-262.702 616.506,-258.804"/>
</g>
<!-- ITF&#45;R_reserved&#45;&gt;goblin -->
<g id="edge54" class="edge"><title>ITF&#45;R_reserved&#45;&gt;goblin</title>
<path fill="none" stroke="black" d="M646.29,-288.055C640.95,-279.668 633.513,-269.376 626.147,-260.096"/>
<polygon fill="black" stroke="black" points="628.788,-257.797 619.746,-252.275 623.371,-262.231 628.788,-257.797"/>
</g>
<!-- ITF&#45;R_reserved&#45;&gt;tobo -->
<g id="edge72" class="edge"><title>ITF&#45;R_reserved&#45;&gt;tobo</title>
<path fill="none" stroke="black" d="M701.068,-293.277C710.299,-291.302 719.918,-289.431 729,-288 928.13,-256.618 1169.47,-241.722 1261.68,-236.866"/>
<polygon fill="black" stroke="black" points="1262.11,-240.348 1271.92,-236.336 1261.75,-233.358 1262.11,-240.348"/>
</g>
<!-- ITF&#45;mET_SMA -->
<g id="node22" class="node"><title>ITF&#45;mET_SMA</title>
<ellipse fill="green" stroke="black" cx="807" cy="-306" rx="68.7879" ry="18"/>
<text text-anchor="middle" x="807" y="-302.3" font-family="Times,serif" font-size="14.00">ITF&#45;mET_SMA</text>
</g>
<!-- ITF&#45;mET_SMA&#45;&gt;goblin -->
<g id="edge47" class="edge"><title>ITF&#45;mET_SMA&#45;&gt;goblin</title>
<path fill="none" stroke="black" d="M763.348,-291.998C729.314,-280.975 682.276,-265.057 647.538,-252.843"/>
<polygon fill="black" stroke="black" points="648.683,-249.535 638.088,-249.503 646.35,-256.135 648.683,-249.535"/>
</g>
<!-- ITF&#45;mET_SMA&#45;&gt;goblin -->
<g id="edge55" class="edge"><title>ITF&#45;mET_SMA&#45;&gt;goblin</title>
<path fill="none" stroke="black" d="M770.387,-290.666C736.1,-278.475 684.875,-261.074 647.68,-248.985"/>
<polygon fill="black" stroke="black" points="648.659,-245.623 638.067,-245.879 646.506,-252.284 648.659,-245.623"/>
</g>
<!-- ITF&#45;mET_SMA&#45;&gt;tobo -->
<g id="edge73" class="edge"><title>ITF&#45;mET_SMA&#45;&gt;tobo</title>
<path fill="none" stroke="black" d="M856.574,-293.363C865.668,-291.426 875.098,-289.547 884,-288 1022.11,-264.008 1187.78,-246.126 1261.44,-238.734"/>
<polygon fill="black" stroke="black" points="1262.02,-242.193 1271.62,-237.72 1261.32,-235.228 1262.02,-242.193"/>
</g>
<!-- ITF&#45;mEG_SPI&#45;&gt;goblin -->
<g id="edge58" class="edge"><title>ITF&#45;mEG_SPI&#45;&gt;goblin</title>
<path fill="none" stroke="black" d="M606.895,-180.104C607.701,-187.791 607.937,-197.054 607.604,-205.665"/>
<polygon fill="black" stroke="black" points="604.109,-205.48 606.916,-215.697 611.092,-205.96 604.109,-205.48"/>
</g>
<!-- tobo&#45;&gt;ITF&#45;mET_Transducer -->
<g id="edge75" class="edge"><title>tobo&#45;&gt;ITF&#45;mET_Transducer</title>
<path fill="none" stroke="black" d="M1282.25,-215.697C1279.87,-207.983 1279.19,-198.712 1280.21,-190.112"/>
<polygon fill="red" stroke="black" points="1283.69,-190.61 1282.31,-180.104 1276.84,-189.172 1283.69,-190.61"/>
</g>
<!-- doj -->
<g id="node25" class="node"><title>doj</title>
<polygon fill="blue" stroke="black" points="2346,-468 2292,-468 2292,-432 2346,-432 2346,-468"/>
<text text-anchor="middle" x="2319" y="-444.4" font-family="Times,serif" font-size="22.00">doj</text>
</g>
<g id="node26" class="node"><title></title>
<ellipse fill="none" stroke="black" cx="2319" cy="-378" rx="27" ry="18"/>
</g>
<!-- doj&#45;&gt; -->
<g id="edge76" class="edge"><title>doj&#45;&gt;</title>
<path fill="none" stroke="black" d="M2319,-431.697C2319,-423.983 2319,-414.712 2319,-406.112"/>
<polygon fill="red" stroke="black" points="2322.5,-406.104 2319,-396.104 2315.5,-406.104 2322.5,-406.104"/>
</g>
<!-- oneeye&#45;&gt;ITF&#45;N_cc_motor_pwm -->
<g id="edge87" class="edge"><title>oneeye&#45;&gt;ITF&#45;N_cc_motor_pwm</title>
<path fill="none" stroke="black" d="M1457.08,-103.127C1489.4,-113.806 1534.86,-129.541 1569.27,-141.909"/>
<polygon fill="red" stroke="black" points="1568.52,-145.359 1579.11,-145.465 1570.9,-138.775 1568.52,-145.359"/>
</g>
</g>
</svg>
