<?xml version="1.0" encoding="UTF-8" standalone="no"?>
<!DOCTYPE svg PUBLIC "-//W3C//DTD SVG 1.1//EN"
 "http://www.w3.org/Graphics/SVG/1.1/DTD/svg11.dtd">
<!-- Generated by graphviz version 2.38.0 (20140413.2041)
 -->
<!-- Title: %3 Pages: 1 -->
<svg width="2927pt" height="404pt"
 viewBox="0.00 0.00 2926.70 404.00" xmlns="http://www.w3.org/2000/svg" xmlns:xlink="http://www.w3.org/1999/xlink">
<g id="graph0" class="graph" transform="scale(1 1) rotate(0) translate(4 400)">
<title>%3</title>
<polygon fill="white" stroke="none" points="-4,4 -4,-400 2922.7,-400 2922.7,4 -4,4"/>
<!-- retroATL3 -->
<g id="node1" class="node"><title>retroATL3</title>
<polygon fill="blue" stroke="black" points="463.196,-180 350.196,-180 350.196,-144 463.196,-144 463.196,-180"/>
<text text-anchor="middle" x="406.696" y="-156.4" font-family="Times,serif" font-size="22.00">retroATL3</text>
</g>
<!-- Tri&#45;Piezo Head -->
<g id="node7" class="node"><title>Tri&#45;Piezo Head</title>
<ellipse fill="yellow" stroke="black" cx="406.696" cy="-90" rx="64.9885" ry="18"/>
<text text-anchor="middle" x="406.696" y="-86.3" font-family="Times,serif" font-size="14.00">Tri&#45;Piezo Head</text>
</g>
<!-- retroATL3&#45;&gt;Tri&#45;Piezo Head -->
<g id="edge16" class="edge"><title>retroATL3&#45;&gt;Tri&#45;Piezo Head</title>
<path fill="none" stroke="black" d="M388.948,-143.697C386.499,-135.782 385.847,-126.228 386.994,-117.441"/>
<polygon fill="red" stroke="black" points="390.423,-118.142 389.165,-107.622 383.588,-116.631 390.423,-118.142"/>
</g>
<!-- ITF&#45;A_gnd -->
<g id="node2" class="node"><title>ITF&#45;A_gnd</title>
<ellipse fill="yellow" stroke="black" cx="50.6955" cy="-234" rx="50.8918" ry="18"/>
<text text-anchor="middle" x="50.6955" y="-230.3" font-family="Times,serif" font-size="14.00">ITF&#45;A_gnd</text>
</g>
<!-- ITF&#45;A_gnd&#45;&gt;retroATL3 -->
<g id="edge1" class="edge"><title>ITF&#45;A_gnd&#45;&gt;retroATL3</title>
<path fill="none" stroke="black" d="M84.2562,-220.404C90.0354,-218.83 95.9986,-217.314 101.696,-216 182.773,-197.304 277.625,-181.345 339.847,-171.961"/>
<polygon fill="black" stroke="black" points="340.554,-175.394 349.927,-170.456 339.52,-168.471 340.554,-175.394"/>
</g>
<!-- ITF&#45;A_gnd&#45;&gt;retroATL3 -->
<g id="edge7" class="edge"><title>ITF&#45;A_gnd&#45;&gt;retroATL3</title>
<path fill="none" stroke="black" d="M91.5872,-223.234C100.874,-220.697 110.623,-218.092 119.696,-216 194.679,-198.709 281.446,-183.759 339.849,-174.186"/>
<polygon fill="black" stroke="black" points="340.748,-177.586 350.054,-172.521 339.621,-170.677 340.748,-177.586"/>
</g>
<!-- ITF&#45;F_12V -->
<g id="node3" class="node"><title>ITF&#45;F_12V</title>
<ellipse fill="yellow" stroke="black" cx="170.696" cy="-234" rx="51.1914" ry="18"/>
<text text-anchor="middle" x="170.696" y="-230.3" font-family="Times,serif" font-size="14.00">ITF&#45;F_12V</text>
</g>
<!-- ITF&#45;F_12V&#45;&gt;retroATL3 -->
<g id="edge2" class="edge"><title>ITF&#45;F_12V&#45;&gt;retroATL3</title>
<path fill="none" stroke="black" d="M206.28,-220.887C241.729,-209.864 296.834,-193.448 340.338,-180.909"/>
<polygon fill="black" stroke="black" points="341.351,-184.26 349.996,-178.135 339.419,-177.532 341.351,-184.26"/>
</g>
<!-- ITF&#45;F_12V&#45;&gt;retroATL3 -->
<g id="edge8" class="edge"><title>ITF&#45;F_12V&#45;&gt;retroATL3</title>
<path fill="none" stroke="black" d="M210.741,-222.596C247.628,-212.208 302.757,-195.975 345.195,-183.072"/>
<polygon fill="black" stroke="black" points="346.323,-186.388 354.866,-180.122 344.28,-179.692 346.323,-186.388"/>
</g>
<!-- ITF&#45;N_cc_motor_pwm -->
<g id="node4" class="node"><title>ITF&#45;N_cc_motor_pwm</title>
<ellipse fill="yellow" stroke="black" cx="333.696" cy="-234" rx="93.6835" ry="18"/>
<text text-anchor="middle" x="333.696" y="-230.3" font-family="Times,serif" font-size="14.00">ITF&#45;N_cc_motor_pwm</text>
</g>
<!-- ITF&#45;N_cc_motor_pwm&#45;&gt;retroATL3 -->
<g id="edge3" class="edge"><title>ITF&#45;N_cc_motor_pwm&#45;&gt;retroATL3</title>
<path fill="none" stroke="black" d="M345.489,-216.055C353.723,-207.264 364.89,-196.38 375.484,-186.763"/>
<polygon fill="black" stroke="black" points="377.904,-189.294 383.047,-180.032 373.25,-184.065 377.904,-189.294"/>
</g>
<!-- ITF&#45;N_cc_motor_pwm&#45;&gt;retroATL3 -->
<g id="edge9" class="edge"><title>ITF&#45;N_cc_motor_pwm&#45;&gt;retroATL3</title>
<path fill="none" stroke="black" d="M356.835,-216.411C366.684,-207.861 377.953,-197.263 387.354,-187.766"/>
<polygon fill="black" stroke="black" points="389.997,-190.069 394.431,-180.447 384.964,-185.203 389.997,-190.069"/>
</g>
<!-- ITF&#45;mET_Transducer -->
<g id="node5" class="node"><title>ITF&#45;mET_Transducer</title>
<ellipse fill="green" stroke="black" cx="618.696" cy="-234" rx="89.0842" ry="18"/>
<text text-anchor="middle" x="618.696" y="-230.3" font-family="Times,serif" font-size="14.00">ITF&#45;mET_Transducer</text>
</g>
<!-- ITF&#45;mET_Transducer&#45;&gt;retroATL3 -->
<g id="edge4" class="edge"><title>ITF&#45;mET_Transducer&#45;&gt;retroATL3</title>
<path fill="none" stroke="black" d="M566.355,-219.337C532.622,-209.125 489.345,-194.994 456.195,-183.44"/>
<polygon fill="black" stroke="black" points="457.288,-180.114 446.693,-180.099 454.967,-186.718 457.288,-180.114"/>
</g>
<!-- ITF&#45;mET_Transducer&#45;&gt;retroATL3 -->
<g id="edge10" class="edge"><title>ITF&#45;mET_Transducer&#45;&gt;retroATL3</title>
<path fill="none" stroke="black" d="M574.253,-218.326C543.532,-208.182 502.254,-194.552 468.356,-183.36"/>
<polygon fill="black" stroke="black" points="469.143,-179.934 458.55,-180.122 466.949,-186.581 469.143,-179.934"/>
</g>
<!-- ITF&#45;mET_Transducer&#45;&gt;retroATL3 -->
<g id="edge14" class="edge"><title>ITF&#45;mET_Transducer&#45;&gt;retroATL3</title>
<path fill="none" stroke="black" d="M583.086,-217.465C552.947,-206.668 509.45,-192.248 473.047,-180.958"/>
<polygon fill="black" stroke="black" points="474.059,-177.608 463.472,-178.011 472,-184.298 474.059,-177.608"/>
</g>
<!-- tobo -->
<g id="node27" class="node"><title>tobo</title>
<polygon fill="blue" stroke="black" points="871.696,-180 815.696,-180 815.696,-144 871.696,-144 871.696,-180"/>
<text text-anchor="middle" x="843.696" y="-156.4" font-family="Times,serif" font-size="22.00">tobo</text>
</g>
<!-- ITF&#45;mET_Transducer&#45;&gt;tobo -->
<g id="edge60" class="edge"><title>ITF&#45;mET_Transducer&#45;&gt;tobo</title>
<path fill="none" stroke="black" d="M651.968,-217.291C693.517,-202.781 762.157,-181.839 805.765,-170.68"/>
<polygon fill="black" stroke="black" points="806.619,-174.075 815.475,-168.259 804.925,-167.283 806.619,-174.075"/>
</g>
<!-- ITF&#45;mET_Transducer&#45;&gt;tobo -->
<g id="edge66" class="edge"><title>ITF&#45;mET_Transducer&#45;&gt;tobo</title>
<path fill="none" stroke="black" d="M661.041,-218.069C702.789,-204.558 765.824,-185.021 805.929,-173.214"/>
<polygon fill="black" stroke="black" points="806.987,-176.552 815.605,-170.387 805.024,-169.832 806.987,-176.552"/>
</g>
<!-- ITF&#45;mET_Transducer&#45;&gt;tobo -->
<g id="edge69" class="edge"><title>ITF&#45;mET_Transducer&#45;&gt;tobo</title>
<path fill="none" stroke="black" d="M668.932,-219.087C710.484,-206.679 768.46,-188.635 806.102,-176.389"/>
<polygon fill="black" stroke="black" points="807.265,-179.691 815.68,-173.253 805.087,-173.039 807.265,-179.691"/>
</g>
<!-- Motor -->
<g id="node6" class="node"><title>Motor</title>
<ellipse fill="yellow" stroke="black" cx="478.696" cy="-234" rx="33.2948" ry="18"/>
<text text-anchor="middle" x="478.696" y="-230.3" font-family="Times,serif" font-size="14.00">Motor</text>
</g>
<!-- Motor&#45;&gt;retroATL3 -->
<g id="edge5" class="edge"><title>Motor&#45;&gt;retroATL3</title>
<path fill="none" stroke="black" d="M455.62,-220.807C443.478,-211.729 429.596,-199.026 419.263,-187.839"/>
<polygon fill="black" stroke="black" points="421.658,-185.26 412.441,-180.034 416.387,-189.867 421.658,-185.26"/>
</g>
<!-- Motor&#45;&gt;retroATL3 -->
<g id="edge11" class="edge"><title>Motor&#45;&gt;retroATL3</title>
<path fill="none" stroke="black" d="M463.073,-217.811C453.887,-208.881 442.062,-197.384 431.617,-187.229"/>
<polygon fill="black" stroke="black" points="433.921,-184.588 424.312,-180.127 429.042,-189.607 433.921,-184.588"/>
</g>
<!-- Motor&#45;&gt;retroATL3 -->
<g id="edge13" class="edge"><title>Motor&#45;&gt;retroATL3</title>
<path fill="none" stroke="black" d="M473.023,-216.055C465.777,-207.179 454.809,-196.169 443.678,-186.483"/>
<polygon fill="black" stroke="black" points="445.899,-183.778 435.989,-180.032 441.4,-189.14 445.899,-183.778"/>
</g>
<!-- Tri&#45;Piezo Head&#45;&gt;retroATL3 -->
<g id="edge6" class="edge"><title>Tri&#45;Piezo Head&#45;&gt;retroATL3</title>
<path fill="none" stroke="black" d="M400.8,-108.104C399.995,-115.791 399.759,-125.054 400.091,-133.665"/>
<polygon fill="black" stroke="black" points="396.603,-133.96 400.78,-143.697 403.587,-133.48 396.603,-133.96"/>
</g>
<!-- Tri&#45;Piezo Head&#45;&gt;retroATL3 -->
<g id="edge12" class="edge"><title>Tri&#45;Piezo Head&#45;&gt;retroATL3</title>
<path fill="none" stroke="black" d="M412.591,-108.104C413.396,-115.791 413.632,-125.054 413.3,-133.665"/>
<polygon fill="black" stroke="black" points="409.804,-133.48 412.611,-143.697 416.788,-133.96 409.804,-133.48"/>
</g>
<!-- Tri&#45;Piezo Head&#45;&gt;retroATL3 -->
<g id="edge15" class="edge"><title>Tri&#45;Piezo Head&#45;&gt;retroATL3</title>
<path fill="none" stroke="black" d="M424.226,-107.622C426.779,-115.441 427.535,-124.967 426.492,-133.796"/>
<polygon fill="black" stroke="black" points="423.043,-133.195 424.443,-143.697 429.897,-134.614 423.043,-133.195"/>
</g>
<!-- toadkiller -->
<g id="node8" class="node"><title>toadkiller</title>
<polygon fill="blue" stroke="black" points="1493.2,-180 1392.2,-180 1392.2,-144 1493.2,-144 1493.2,-180"/>
<text text-anchor="middle" x="1442.7" y="-156.4" font-family="Times,serif" font-size="22.00">toadkiller</text>
</g>
<!-- ITF&#45;14_PWM -->
<g id="node17" class="node"><title>ITF&#45;14_PWM</title>
<ellipse fill="yellow" stroke="black" cx="1509.7" cy="-90" rx="61.99" ry="18"/>
<text text-anchor="middle" x="1509.7" y="-86.3" font-family="Times,serif" font-size="14.00">ITF&#45;14_PWM</text>
</g>
<!-- toadkiller&#45;&gt;ITF&#45;14_PWM -->
<g id="edge30" class="edge"><title>toadkiller&#45;&gt;ITF&#45;14_PWM</title>
<path fill="none" stroke="black" d="M1453.34,-143.697C1460.95,-134.792 1471.29,-123.814 1481.11,-114.187"/>
<polygon fill="red" stroke="black" points="1483.66,-116.591 1488.45,-107.145 1478.81,-111.538 1483.66,-116.591"/>
</g>
<!-- ITF&#45;1_GND -->
<g id="node9" class="node"><title>ITF&#45;1_GND</title>
<ellipse fill="yellow" stroke="black" cx="1311.7" cy="-378" rx="54.6905" ry="18"/>
<text text-anchor="middle" x="1311.7" y="-374.3" font-family="Times,serif" font-size="14.00">ITF&#45;1_GND</text>
</g>
<!-- ITF&#45;1_GND&#45;&gt;toadkiller -->
<g id="edge17" class="edge"><title>ITF&#45;1_GND&#45;&gt;toadkiller</title>
<path fill="none" stroke="black" d="M1293.14,-360.742C1265.4,-329.707 1221.01,-261.103 1254.7,-216 1269.8,-195.775 1332.8,-180.54 1381.84,-171.711"/>
<polygon fill="black" stroke="black" points="1382.51,-175.147 1391.75,-169.978 1381.3,-168.252 1382.51,-175.147"/>
</g>
<!-- ITF&#45;1_GND&#45;&gt;toadkiller -->
<g id="edge21" class="edge"><title>ITF&#45;1_GND&#45;&gt;toadkiller</title>
<path fill="none" stroke="black" d="M1302.8,-359.765C1282.49,-328.288 1239.36,-260.635 1272.7,-216 1286.32,-197.751 1338.94,-183.565 1382.14,-174.481"/>
<polygon fill="black" stroke="black" points="1382.95,-177.888 1392.04,-172.451 1381.55,-171.031 1382.95,-177.888"/>
</g>
<!-- mogaba -->
<g id="node18" class="node"><title>mogaba</title>
<polygon fill="blue" stroke="black" points="1184.2,-324 1097.2,-324 1097.2,-288 1184.2,-288 1184.2,-324"/>
<text text-anchor="middle" x="1140.7" y="-300.4" font-family="Times,serif" font-size="22.00">mogaba</text>
</g>
<!-- ITF&#45;1_GND&#45;&gt;mogaba -->
<g id="edge33" class="edge"><title>ITF&#45;1_GND&#45;&gt;mogaba</title>
<path fill="none" stroke="black" d="M1278.72,-363.503C1254.05,-353.402 1219.84,-339.399 1191.65,-327.861"/>
<polygon fill="black" stroke="black" points="1192.93,-324.601 1182.35,-324.051 1190.28,-331.079 1192.93,-324.601"/>
</g>
<!-- goblin -->
<g id="node20" class="node"><title>goblin</title>
<polygon fill="blue" stroke="black" points="2274.7,-180 2200.7,-180 2200.7,-144 2274.7,-144 2274.7,-180"/>
<text text-anchor="middle" x="2237.7" y="-156.4" font-family="Times,serif" font-size="22.00">goblin</text>
</g>
<!-- ITF&#45;1_GND&#45;&gt;goblin -->
<g id="edge37" class="edge"><title>ITF&#45;1_GND&#45;&gt;goblin</title>
<path fill="none" stroke="black" d="M1364.93,-373.695C1527.3,-363.233 2012.99,-327.009 2150.7,-252 2177.81,-237.23 2199.97,-209.127 2215.47,-188.437"/>
<polygon fill="black" stroke="black" points="2218.32,-190.47 2221.5,-180.362 2212.71,-186.285 2218.32,-190.47"/>
</g>
<!-- ITF&#45;1_GND&#45;&gt;goblin -->
<g id="edge44" class="edge"><title>ITF&#45;1_GND&#45;&gt;goblin</title>
<path fill="none" stroke="black" d="M1365.13,-374.161C1530.24,-364.341 2028.86,-328.166 2168.7,-252 2195.45,-237.427 2217.38,-209.874 2229.35,-189.268"/>
<polygon fill="black" stroke="black" points="2232.49,-190.828 2234.13,-180.362 2226.32,-187.518 2232.49,-190.828"/>
</g>
<!-- ITF&#45;1_GND&#45;&gt;tobo -->
<g id="edge55" class="edge"><title>ITF&#45;1_GND&#45;&gt;tobo</title>
<path fill="none" stroke="black" d="M1267.74,-367.198C1258.42,-364.768 1248.71,-362.224 1239.7,-360 1031.18,-308.58 902.28,-420.166 768.696,-252 758.744,-239.472 761.778,-230.427 768.696,-216 776.378,-199.979 791.525,-187.269 806.321,-178.316"/>
<polygon fill="black" stroke="black" points="808.397,-181.165 815.418,-173.231 804.982,-175.055 808.397,-181.165"/>
</g>
<!-- ITF&#45;1_GND&#45;&gt;tobo -->
<g id="edge61" class="edge"><title>ITF&#45;1_GND&#45;&gt;tobo</title>
<path fill="none" stroke="black" d="M1275.26,-364.506C1269.41,-362.949 1263.42,-361.41 1257.7,-360 1049.18,-308.58 920.28,-420.166 786.696,-252 776.744,-239.472 779.778,-230.427 786.696,-216 792.305,-204.302 801.894,-194.369 811.682,-186.375"/>
<polygon fill="black" stroke="black" points="814.047,-188.973 819.868,-180.12 809.797,-183.411 814.047,-188.973"/>
</g>
<!-- oneeye -->
<g id="node30" class="node"><title>oneeye</title>
<polygon fill="blue" stroke="black" points="1703.7,-36 1623.7,-36 1623.7,-0 1703.7,-0 1703.7,-36"/>
<text text-anchor="middle" x="1663.7" y="-12.4" font-family="Times,serif" font-size="22.00">oneeye</text>
</g>
<!-- ITF&#45;1_GND&#45;&gt;oneeye -->
<g id="edge73" class="edge"><title>ITF&#45;1_GND&#45;&gt;oneeye</title>
<path fill="none" stroke="black" d="M1363.51,-372.309C1435.02,-362.954 1562.1,-335.043 1626.7,-252 1673.92,-191.286 1666.72,-93.4003 1663.29,-46.1899"/>
<polygon fill="black" stroke="black" points="1666.78,-45.8529 1662.59,-36.1216 1659.8,-46.3415 1666.78,-45.8529"/>
</g>
<!-- ITF&#45;1_GND&#45;&gt;oneeye -->
<g id="edge76" class="edge"><title>ITF&#45;1_GND&#45;&gt;oneeye</title>
<path fill="none" stroke="black" d="M1364.89,-373.548C1440.5,-365.543 1576.95,-339.088 1644.7,-252 1692.02,-191.158 1684.69,-92.9879 1674.01,-45.8924"/>
<polygon fill="black" stroke="black" points="1677.38,-44.9649 1671.55,-36.1216 1670.59,-46.6734 1677.38,-44.9649"/>
</g>
<!-- ITF&#45;2_VDD_5V -->
<g id="node10" class="node"><title>ITF&#45;2_VDD_5V</title>
<ellipse fill="yellow" stroke="black" cx="1719.7" cy="-378" rx="69.5877" ry="18"/>
<text text-anchor="middle" x="1719.7" y="-374.3" font-family="Times,serif" font-size="14.00">ITF&#45;2_VDD_5V</text>
</g>
<!-- ITF&#45;2_VDD_5V&#45;&gt;toadkiller -->
<g id="edge18" class="edge"><title>ITF&#45;2_VDD_5V&#45;&gt;toadkiller</title>
<path fill="none" stroke="black" d="M1710.59,-360.002C1697.99,-327.063 1674.29,-254.409 1626.7,-216 1591.57,-187.657 1542.4,-174.431 1503.66,-168.279"/>
<polygon fill="black" stroke="black" points="1503.94,-164.783 1493.54,-166.793 1502.93,-171.709 1503.94,-164.783"/>
</g>
<!-- ITF&#45;2_VDD_5V&#45;&gt;toadkiller -->
<g id="edge22" class="edge"><title>ITF&#45;2_VDD_5V&#45;&gt;toadkiller</title>
<path fill="none" stroke="black" d="M1720.72,-359.747C1715.87,-326.689 1692.17,-254.31 1644.7,-216 1605.02,-183.981 1547.41,-171.255 1503.78,-166.225"/>
<polygon fill="black" stroke="black" points="1503.88,-162.716 1493.57,-165.157 1503.15,-169.678 1503.88,-162.716"/>
</g>
<!-- ITF&#45;2_VDD_5V&#45;&gt;mogaba -->
<g id="edge34" class="edge"><title>ITF&#45;2_VDD_5V&#45;&gt;mogaba</title>
<path fill="none" stroke="black" d="M1658.01,-369.542C1543.97,-355.755 1302,-326.501 1194.32,-313.483"/>
<polygon fill="black" stroke="black" points="1194.67,-310 1184.32,-312.275 1193.83,-316.95 1194.67,-310"/>
</g>
<!-- ITF&#45;2_VDD_5V&#45;&gt;goblin -->
<g id="edge38" class="edge"><title>ITF&#45;2_VDD_5V&#45;&gt;goblin</title>
<path fill="none" stroke="black" d="M1785.99,-372.356C1981.82,-358.384 2546.92,-313.857 2600.7,-252 2611.19,-239.925 2611.18,-228.085 2600.7,-216 2580.04,-192.194 2378.58,-174.127 2284.93,-166.7"/>
<polygon fill="black" stroke="black" points="2285.11,-163.204 2274.87,-165.91 2284.56,-170.183 2285.11,-163.204"/>
</g>
<!-- ITF&#45;2_VDD_5V&#45;&gt;goblin -->
<g id="edge45" class="edge"><title>ITF&#45;2_VDD_5V&#45;&gt;goblin</title>
<path fill="none" stroke="black" d="M1786.49,-372.865C1985.62,-359.494 2564.25,-314.63 2618.7,-252 2629.19,-239.925 2629.18,-228.085 2618.7,-216 2597.32,-191.367 2382.37,-172.879 2285,-165.966"/>
<polygon fill="black" stroke="black" points="2285.06,-162.462 2274.84,-165.256 2284.57,-169.445 2285.06,-162.462"/>
</g>
<!-- ITF&#45;2_VDD_5V&#45;&gt;tobo -->
<g id="edge56" class="edge"><title>ITF&#45;2_VDD_5V&#45;&gt;tobo</title>
<path fill="none" stroke="black" d="M1663.74,-367.244C1566.26,-349.472 1359.36,-311.491 1183.7,-288 1143.41,-282.613 846.983,-282.119 819.696,-252 804.347,-235.058 811.364,-208.521 821.906,-188.827"/>
<polygon fill="black" stroke="black" points="825.019,-190.438 827.105,-180.051 818.997,-186.871 825.019,-190.438"/>
</g>
<!-- ITF&#45;2_VDD_5V&#45;&gt;tobo -->
<g id="edge62" class="edge"><title>ITF&#45;2_VDD_5V&#45;&gt;tobo</title>
<path fill="none" stroke="black" d="M1667.71,-365.955C1574.52,-347.69 1373.22,-310.938 1201.7,-288 1161.41,-282.613 864.983,-282.119 837.696,-252 822.555,-235.288 829.178,-209.239 836.281,-189.633"/>
<polygon fill="black" stroke="black" points="839.642,-190.642 839.926,-180.051 833.099,-188.153 839.642,-190.642"/>
</g>
<!-- ITF&#45;2_VDD_5V&#45;&gt;oneeye -->
<g id="edge74" class="edge"><title>ITF&#45;2_VDD_5V&#45;&gt;oneeye</title>
<path fill="none" stroke="black" d="M1788.8,-375.353C2029.89,-368.818 2818.7,-339.725 2818.7,-235 2818.7,-235 2818.7,-235 2818.7,-161 2818.7,-47.5232 1935.76,-23.9972 1713.8,-19.8148"/>
<polygon fill="black" stroke="black" points="1713.8,-16.3143 1703.74,-19.6299 1713.67,-23.3131 1713.8,-16.3143"/>
</g>
<!-- ITF&#45;2_VDD_5V&#45;&gt;oneeye -->
<g id="edge77" class="edge"><title>ITF&#45;2_VDD_5V&#45;&gt;oneeye</title>
<path fill="none" stroke="black" d="M1788.71,-375.54C2032.3,-369.383 2836.7,-340.755 2836.7,-235 2836.7,-235 2836.7,-235 2836.7,-161 2836.7,-46.5212 1938.1,-23.5887 1713.87,-19.7085"/>
<polygon fill="black" stroke="black" points="1713.76,-16.2063 1703.71,-19.5378 1713.65,-23.2053 1713.76,-16.2063"/>
</g>
<!-- ITF&#45;19_3.3V -->
<g id="node11" class="node"><title>ITF&#45;19_3.3V</title>
<ellipse fill="yellow" stroke="black" cx="1140.7" cy="-234" rx="57.6901" ry="18"/>
<text text-anchor="middle" x="1140.7" y="-230.3" font-family="Times,serif" font-size="14.00">ITF&#45;19_3.3V</text>
</g>
<!-- ITF&#45;19_3.3V&#45;&gt;toadkiller -->
<g id="edge19" class="edge"><title>ITF&#45;19_3.3V&#45;&gt;toadkiller</title>
<path fill="none" stroke="black" d="M1181.75,-221.168C1189.04,-219.428 1196.57,-217.663 1203.7,-216 1264.05,-201.921 1333.37,-185.979 1381.85,-175.289"/>
<polygon fill="black" stroke="black" points="1382.85,-178.653 1391.87,-173.09 1381.35,-171.815 1382.85,-178.653"/>
</g>
<!-- ITF&#45;19_3.3V&#45;&gt;toadkiller -->
<g id="edge23" class="edge"><title>ITF&#45;19_3.3V&#45;&gt;toadkiller</title>
<path fill="none" stroke="black" d="M1188.59,-223.698C1199.55,-221.187 1211.06,-218.48 1221.7,-216 1276.05,-203.321 1337.67,-189.132 1382.08,-178.628"/>
<polygon fill="black" stroke="black" points="1382.93,-182.023 1391.85,-176.31 1381.32,-175.212 1382.93,-182.023"/>
</g>
<!-- ITF&#45;19_3.3V&#45;&gt;mogaba -->
<g id="edge35" class="edge"><title>ITF&#45;19_3.3V&#45;&gt;mogaba</title>
<path fill="none" stroke="black" d="M1146.59,-252.104C1147.4,-259.791 1147.63,-269.054 1147.3,-277.665"/>
<polygon fill="black" stroke="black" points="1143.8,-277.48 1146.61,-287.697 1150.79,-277.96 1143.8,-277.48"/>
</g>
<!-- ITF&#45;19_3.3V&#45;&gt;tobo -->
<g id="edge59" class="edge"><title>ITF&#45;19_3.3V&#45;&gt;tobo</title>
<path fill="none" stroke="black" d="M1094.1,-223.235C1084.32,-220.828 1074.14,-218.287 1064.7,-216 1000.4,-200.438 925.741,-183.428 881.606,-172.984"/>
<polygon fill="black" stroke="black" points="882.407,-169.577 871.868,-170.667 880.786,-176.387 882.407,-169.577"/>
</g>
<!-- ITF&#45;19_3.3V&#45;&gt;tobo -->
<g id="edge65" class="edge"><title>ITF&#45;19_3.3V&#45;&gt;tobo</title>
<path fill="none" stroke="black" d="M1101.34,-220.616C1095.13,-219.041 1088.76,-217.468 1082.7,-216 1012.2,-198.936 929.227,-180.13 881.763,-170.15"/>
<polygon fill="black" stroke="black" points="882.41,-166.71 871.907,-168.1 880.984,-173.563 882.41,-166.71"/>
</g>
<!-- ITF&#45;3_ENV -->
<g id="node12" class="node"><title>ITF&#45;3_ENV</title>
<ellipse fill="yellow" stroke="black" cx="1810.7" cy="-234" rx="53.8905" ry="18"/>
<text text-anchor="middle" x="1810.7" y="-230.3" font-family="Times,serif" font-size="14.00">ITF&#45;3_ENV</text>
</g>
<!-- ITF&#45;3_ENV&#45;&gt;toadkiller -->
<g id="edge20" class="edge"><title>ITF&#45;3_ENV&#45;&gt;toadkiller</title>
<path fill="none" stroke="black" d="M1766.54,-223.617C1755.73,-220.999 1744.29,-218.257 1733.7,-216 1654.36,-199.096 1562.4,-183.423 1503.36,-173.573"/>
<polygon fill="black" stroke="black" points="1503.89,-170.114 1493.45,-171.923 1502.74,-177.018 1503.89,-170.114"/>
</g>
<!-- ITF&#45;3_ENV&#45;&gt;toadkiller -->
<g id="edge24" class="edge"><title>ITF&#45;3_ENV&#45;&gt;toadkiller</title>
<path fill="none" stroke="black" d="M1773.23,-220.951C1766.11,-219.206 1758.72,-217.496 1751.7,-216 1666.19,-197.782 1566.03,-180.994 1503.36,-171.384"/>
<polygon fill="black" stroke="black" points="1503.67,-167.89 1493.26,-169.847 1502.62,-174.811 1503.67,-167.89"/>
</g>
<!-- ITF&#45;3_ENV&#45;&gt;goblin -->
<g id="edge41" class="edge"><title>ITF&#45;3_ENV&#45;&gt;goblin</title>
<path fill="none" stroke="black" d="M1846.03,-220.352C1852.21,-218.768 1858.59,-217.263 1864.7,-216 1980.48,-192.038 2119.18,-175.014 2190.49,-167.426"/>
<polygon fill="black" stroke="black" points="2190.93,-170.899 2200.51,-166.375 2190.2,-163.937 2190.93,-170.899"/>
</g>
<!-- ITF&#45;3_ENV&#45;&gt;goblin -->
<g id="edge48" class="edge"><title>ITF&#45;3_ENV&#45;&gt;goblin</title>
<path fill="none" stroke="black" d="M1853.52,-222.99C1863.15,-220.481 1873.27,-217.952 1882.7,-216 1992.14,-193.349 2122.07,-176.898 2190.44,-168.756"/>
<polygon fill="black" stroke="black" points="2190.96,-172.22 2200.48,-167.568 2190.13,-165.268 2190.96,-172.22"/>
</g>
<!-- ITF&#45;3_ENV&#45;&gt;oneeye -->
<g id="edge72" class="edge"><title>ITF&#45;3_ENV&#45;&gt;oneeye</title>
<path fill="none" stroke="black" d="M1795.6,-216.563C1766.53,-179.557 1704.39,-89.4643 1676.88,-44.8743"/>
<polygon fill="black" stroke="black" points="1679.73,-42.828 1671.56,-36.0854 1673.74,-46.4527 1679.73,-42.828"/>
</g>
<!-- ITF&#45;3_ENV&#45;&gt;oneeye -->
<g id="edge75" class="edge"><title>ITF&#45;3_ENV&#45;&gt;oneeye</title>
<path fill="none" stroke="black" d="M1802.79,-215.849C1780.58,-178.284 1719.18,-88.5755 1685.72,-44.426"/>
<polygon fill="black" stroke="black" points="1688.29,-42.0265 1679.42,-36.2325 1682.74,-46.2934 1688.29,-42.0265"/>
</g>
<!-- WiFi UDP Stream -->
<g id="node13" class="node"><title>WiFi UDP Stream</title>
<ellipse fill="yellow" stroke="black" cx="1349.7" cy="-234" rx="77.1866" ry="18"/>
<text text-anchor="middle" x="1349.7" y="-230.3" font-family="Times,serif" font-size="14.00">WiFi UDP Stream</text>
</g>
<!-- WiFi UDP Stream&#45;&gt;toadkiller -->
<g id="edge25" class="edge"><title>WiFi UDP Stream&#45;&gt;toadkiller</title>
<path fill="none" stroke="black" d="M1371.74,-216.411C1383.63,-207.456 1398.51,-196.254 1411.57,-186.425"/>
<polygon fill="black" stroke="black" points="1413.96,-189.011 1419.84,-180.201 1409.75,-183.418 1413.96,-189.011"/>
</g>
<!-- ITF&#45;mED&#45;TFT&#45;Screen -->
<g id="node14" class="node"><title>ITF&#45;mED&#45;TFT&#45;Screen</title>
<ellipse fill="green" stroke="black" cx="1535.7" cy="-234" rx="90.9839" ry="18"/>
<text text-anchor="middle" x="1535.7" y="-230.3" font-family="Times,serif" font-size="14.00">ITF&#45;mED&#45;TFT&#45;Screen</text>
</g>
<!-- ITF&#45;mED&#45;TFT&#45;Screen&#45;&gt;toadkiller -->
<g id="edge26" class="edge"><title>ITF&#45;mED&#45;TFT&#45;Screen&#45;&gt;toadkiller</title>
<path fill="none" stroke="black" d="M1513.66,-216.411C1501.76,-207.456 1486.88,-196.254 1473.82,-186.425"/>
<polygon fill="black" stroke="black" points="1475.64,-183.418 1465.55,-180.201 1471.43,-189.011 1475.64,-183.418"/>
</g>
<!-- ITF&#45;9_Pon -->
<g id="node15" class="node"><title>ITF&#45;9_Pon</title>
<ellipse fill="yellow" stroke="black" cx="886.696" cy="-234" rx="49.2915" ry="18"/>
<text text-anchor="middle" x="886.696" y="-230.3" font-family="Times,serif" font-size="14.00">ITF&#45;9_Pon</text>
</g>
<!-- ITF&#45;9_Pon&#45;&gt;toadkiller -->
<g id="edge27" class="edge"><title>ITF&#45;9_Pon&#45;&gt;toadkiller</title>
<path fill="none" stroke="black" d="M922.647,-221.564C930.201,-219.465 938.164,-217.475 945.696,-216 1101.24,-185.54 1287.83,-171.565 1381.98,-166.058"/>
<polygon fill="black" stroke="black" points="1382.39,-169.54 1392.18,-165.474 1381.99,-162.552 1382.39,-169.54"/>
</g>
<!-- ITF&#45;9_Pon&#45;&gt;tobo -->
<g id="edge57" class="edge"><title>ITF&#45;9_Pon&#45;&gt;tobo</title>
<path fill="none" stroke="black" d="M870.922,-216.765C864.936,-208.525 858.416,-198.317 853.128,-189.016"/>
<polygon fill="black" stroke="black" points="856.154,-187.254 848.317,-180.124 849.998,-190.585 856.154,-187.254"/>
</g>
<!-- ITF&#45;9_Pon&#45;&gt;tobo -->
<g id="edge63" class="edge"><title>ITF&#45;9_Pon&#45;&gt;tobo</title>
<path fill="none" stroke="black" d="M882.165,-216.055C877.989,-207.837 872.035,-197.791 865.99,-188.66"/>
<polygon fill="black" stroke="black" points="868.772,-186.529 860.22,-180.275 863.006,-190.497 868.772,-186.529"/>
</g>
<!-- ITF&#45;9_Pon&#45;&gt;oneeye -->
<g id="edge79" class="edge"><title>ITF&#45;9_Pon&#45;&gt;oneeye</title>
<path fill="none" stroke="black" d="M917.157,-219.739C988.451,-189.209 1172.28,-113.405 1332.7,-72 1430.58,-46.7346 1548.03,-31.3542 1613.42,-24.0768"/>
<polygon fill="black" stroke="black" points="1613.9,-27.5455 1623.46,-22.9781 1613.13,-20.587 1613.9,-27.5455"/>
</g>
<!-- ITF&#45;10_Poff -->
<g id="node16" class="node"><title>ITF&#45;10_Poff</title>
<ellipse fill="yellow" stroke="black" cx="1009.7" cy="-234" rx="55.4913" ry="18"/>
<text text-anchor="middle" x="1009.7" y="-230.3" font-family="Times,serif" font-size="14.00">ITF&#45;10_Poff</text>
</g>
<!-- ITF&#45;10_Poff&#45;&gt;toadkiller -->
<g id="edge28" class="edge"><title>ITF&#45;10_Poff&#45;&gt;toadkiller</title>
<path fill="none" stroke="black" d="M1049.81,-221.576C1057.69,-219.55 1065.92,-217.585 1073.7,-216 1181.35,-194.049 1308.5,-177.904 1381.94,-169.518"/>
<polygon fill="black" stroke="black" points="1382.4,-172.989 1391.94,-168.386 1381.61,-166.033 1382.4,-172.989"/>
</g>
<!-- ITF&#45;10_Poff&#45;&gt;tobo -->
<g id="edge58" class="edge"><title>ITF&#45;10_Poff&#45;&gt;tobo</title>
<path fill="none" stroke="black" d="M973.884,-220.161C946.502,-209.286 908.997,-193.563 881.212,-181.359"/>
<polygon fill="black" stroke="black" points="882.383,-178.05 871.822,-177.202 879.55,-184.451 882.383,-178.05"/>
</g>
<!-- ITF&#45;10_Poff&#45;&gt;tobo -->
<g id="edge64" class="edge"><title>ITF&#45;10_Poff&#45;&gt;tobo</title>
<path fill="none" stroke="black" d="M980.893,-218.496C953.174,-206.138 911.339,-188.516 881.081,-176.465"/>
<polygon fill="black" stroke="black" points="882.282,-173.177 871.696,-172.762 879.713,-179.688 882.282,-173.177"/>
</g>
<!-- ITF&#45;10_Poff&#45;&gt;oneeye -->
<g id="edge80" class="edge"><title>ITF&#45;10_Poff&#45;&gt;oneeye</title>
<path fill="none" stroke="black" d="M1042.04,-219.234C1112.9,-189.434 1287.62,-117.938 1438.7,-72 1497.95,-53.9824 1567.53,-38.4271 1613.46,-28.9133"/>
<polygon fill="black" stroke="black" points="1614.36,-32.3001 1623.45,-26.8599 1612.95,-25.4432 1614.36,-32.3001"/>
</g>
<!-- ITF&#45;14_PWM&#45;&gt;toadkiller -->
<g id="edge29" class="edge"><title>ITF&#45;14_PWM&#45;&gt;toadkiller</title>
<path fill="none" stroke="black" d="M1499.22,-108.104C1491.95,-116.636 1482.12,-127.108 1472.64,-136.478"/>
<polygon fill="black" stroke="black" points="1469.93,-134.23 1465.17,-143.697 1474.8,-139.263 1469.93,-134.23"/>
</g>
<!-- ITF&#45;14_PWM&#45;&gt;oneeye -->
<g id="edge81" class="edge"><title>ITF&#45;14_PWM&#45;&gt;oneeye</title>
<path fill="none" stroke="black" d="M1537.43,-73.811C1558.77,-63.5424 1588.67,-49.8814 1614.06,-38.7667"/>
<polygon fill="black" stroke="black" points="1615.77,-41.8407 1623.55,-34.644 1612.98,-35.4211 1615.77,-41.8407"/>
</g>
<!-- mogaba&#45;&gt;ITF&#45;19_3.3V -->
<g id="edge36" class="edge"><title>mogaba&#45;&gt;ITF&#45;19_3.3V</title>
<path fill="none" stroke="black" d="M1134.78,-287.697C1133.98,-279.983 1133.76,-270.712 1134.1,-262.112"/>
<polygon fill="red" stroke="black" points="1137.59,-262.324 1134.8,-252.104 1130.61,-261.836 1137.59,-262.324"/>
</g>
<!-- ITF&#45;mEM_Alimentation -->
<g id="node19" class="node"><title>ITF&#45;mEM_Alimentation</title>
<ellipse fill="green" stroke="black" cx="1140.7" cy="-378" rx="98.5829" ry="18"/>
<text text-anchor="middle" x="1140.7" y="-374.3" font-family="Times,serif" font-size="14.00">ITF&#45;mEM_Alimentation</text>
</g>
<!-- ITF&#45;mEM_Alimentation&#45;&gt;mogaba -->
<g id="edge31" class="edge"><title>ITF&#45;mEM_Alimentation&#45;&gt;mogaba</title>
<path fill="none" stroke="black" d="M1134.78,-359.697C1133.98,-351.983 1133.76,-342.712 1134.1,-334.112"/>
<polygon fill="black" stroke="black" points="1137.59,-334.324 1134.8,-324.104 1130.61,-333.836 1137.59,-334.324"/>
</g>
<!-- ITF&#45;mEM_Alimentation&#45;&gt;mogaba -->
<g id="edge32" class="edge"><title>ITF&#45;mEM_Alimentation&#45;&gt;mogaba</title>
<path fill="none" stroke="black" d="M1146.61,-359.697C1147.41,-351.983 1147.63,-342.712 1147.29,-334.112"/>
<polygon fill="black" stroke="black" points="1150.78,-333.836 1146.59,-324.104 1143.8,-334.324 1150.78,-333.836"/>
</g>
<!-- ITF&#45;mEG_SPI -->
<g id="node26" class="node"><title>ITF&#45;mEG_SPI</title>
<ellipse fill="green" stroke="black" cx="2237.7" cy="-90" rx="63.0888" ry="18"/>
<text text-anchor="middle" x="2237.7" y="-86.3" font-family="Times,serif" font-size="14.00">ITF&#45;mEG_SPI</text>
</g>
<!-- goblin&#45;&gt;ITF&#45;mEG_SPI -->
<g id="edge54" class="edge"><title>goblin&#45;&gt;ITF&#45;mEG_SPI</title>
<path fill="none" stroke="black" d="M2231.78,-143.697C2230.98,-135.983 2230.76,-126.712 2231.1,-118.112"/>
<polygon fill="red" stroke="black" points="2234.59,-118.324 2231.8,-108.104 2227.61,-117.836 2234.59,-118.324"/>
</g>
<!-- ITF&#45;7_GAIN -->
<g id="node21" class="node"><title>ITF&#45;7_GAIN</title>
<ellipse fill="yellow" stroke="black" cx="2732.7" cy="-234" rx="57.6901" ry="18"/>
<text text-anchor="middle" x="2732.7" y="-230.3" font-family="Times,serif" font-size="14.00">ITF&#45;7_GAIN</text>
</g>
<!-- ITF&#45;7_GAIN&#45;&gt;goblin -->
<g id="edge39" class="edge"><title>ITF&#45;7_GAIN&#45;&gt;goblin</title>
<path fill="none" stroke="black" d="M2686.11,-223.235C2674.8,-220.639 2662.82,-218.004 2651.7,-216 2519.69,-192.217 2362.6,-175.546 2285.29,-167.837"/>
<polygon fill="black" stroke="black" points="2285.21,-164.312 2274.92,-166.808 2284.52,-171.278 2285.21,-164.312"/>
</g>
<!-- ITF&#45;7_GAIN&#45;&gt;goblin -->
<g id="edge46" class="edge"><title>ITF&#45;7_GAIN&#45;&gt;goblin</title>
<path fill="none" stroke="black" d="M2692.93,-220.767C2685.26,-219.026 2677.28,-217.366 2669.7,-216 2531.15,-191.038 2364.96,-173.911 2285,-166.756"/>
<polygon fill="black" stroke="black" points="2285.04,-163.245 2274.77,-165.853 2284.42,-170.218 2285.04,-163.245"/>
</g>
<!-- ITF&#45;7_GAIN&#45;&gt;oneeye -->
<g id="edge78" class="edge"><title>ITF&#45;7_GAIN&#45;&gt;oneeye</title>
<path fill="none" stroke="black" d="M2703.34,-218.488C2635.79,-185.851 2463.35,-106.807 2309.7,-72 2092.01,-22.6866 1823.84,-17.9727 1714.1,-18.3504"/>
<polygon fill="black" stroke="black" points="1713.96,-14.8509 1703.98,-18.4015 1714,-21.8508 1713.96,-14.8509"/>
</g>
<!-- ITF&#45;4_RawSig -->
<g id="node22" class="node"><title>ITF&#45;4_RawSig</title>
<ellipse fill="yellow" stroke="black" cx="2288.7" cy="-234" rx="63.8893" ry="18"/>
<text text-anchor="middle" x="2288.7" y="-230.3" font-family="Times,serif" font-size="14.00">ITF&#45;4_RawSig</text>
</g>
<!-- ITF&#45;4_RawSig&#45;&gt;goblin -->
<g id="edge40" class="edge"><title>ITF&#45;4_RawSig&#45;&gt;goblin</title>
<path fill="none" stroke="black" d="M2265.6,-217.116C2257.63,-208.801 2249.53,-198.41 2243.52,-188.963"/>
<polygon fill="black" stroke="black" points="2246.52,-187.169 2238.46,-180.292 2240.48,-190.694 2246.52,-187.169"/>
</g>
<!-- ITF&#45;4_RawSig&#45;&gt;goblin -->
<g id="edge47" class="edge"><title>ITF&#45;4_RawSig&#45;&gt;goblin</title>
<path fill="none" stroke="black" d="M2276.35,-216.055C2270.3,-207.753 2262.89,-197.584 2256.19,-188.378"/>
<polygon fill="black" stroke="black" points="2259,-186.297 2250.28,-180.275 2253.34,-190.419 2259,-186.297"/>
</g>
<!-- ITF&#45;4_RawSig&#45;&gt;goblin -->
<g id="edge51" class="edge"><title>ITF&#45;4_RawSig&#45;&gt;goblin</title>
<path fill="none" stroke="black" d="M2287.92,-215.697C2283.54,-207.305 2276.47,-197.07 2268.79,-187.861"/>
<polygon fill="black" stroke="black" points="2271.19,-185.287 2261.95,-180.104 2265.94,-189.918 2271.19,-185.287"/>
</g>
<!-- ITF&#45;18_Raw -->
<g id="node23" class="node"><title>ITF&#45;18_Raw</title>
<ellipse fill="yellow" stroke="black" cx="1938.7" cy="-234" rx="55.7903" ry="18"/>
<text text-anchor="middle" x="1938.7" y="-230.3" font-family="Times,serif" font-size="14.00">ITF&#45;18_Raw</text>
</g>
<!-- ITF&#45;18_Raw&#45;&gt;goblin -->
<g id="edge42" class="edge"><title>ITF&#45;18_Raw&#45;&gt;goblin</title>
<path fill="none" stroke="black" d="M1976.24,-220.648C1982.38,-219.052 1988.69,-217.465 1994.7,-216 2062.32,-199.503 2141.37,-181.959 2190.62,-171.765"/>
<polygon fill="black" stroke="black" points="2191.57,-175.143 2200.66,-169.704 2190.16,-168.286 2191.57,-175.143"/>
</g>
<!-- ITF&#45;18_Raw&#45;&gt;goblin -->
<g id="edge49" class="edge"><title>ITF&#45;18_Raw&#45;&gt;goblin</title>
<path fill="none" stroke="black" d="M1983.79,-223.257C1993.39,-220.826 2003.4,-218.267 2012.7,-216 2074.21,-200.994 2145.17,-185.123 2190.79,-174.704"/>
<polygon fill="black" stroke="black" points="2191.73,-178.081 2200.69,-172.436 2190.16,-171.257 2191.73,-178.081"/>
</g>
<!-- ITF&#45;18_Raw&#45;&gt;tobo -->
<g id="edge67" class="edge"><title>ITF&#45;18_Raw&#45;&gt;tobo</title>
<path fill="none" stroke="black" d="M1899.09,-221.269C1890.77,-219.192 1881.99,-217.285 1873.7,-216 1676.96,-185.539 1044.86,-168.007 882.17,-163.927"/>
<polygon fill="black" stroke="black" points="882.226,-160.427 872.142,-163.677 882.052,-167.425 882.226,-160.427"/>
</g>
<!-- ITF&#45;mET_SMA -->
<g id="node24" class="node"><title>ITF&#45;mET_SMA</title>
<ellipse fill="green" stroke="black" cx="2081.7" cy="-234" rx="68.7879" ry="18"/>
<text text-anchor="middle" x="2081.7" y="-230.3" font-family="Times,serif" font-size="14.00">ITF&#45;mET_SMA</text>
</g>
<!-- ITF&#45;mET_SMA&#45;&gt;goblin -->
<g id="edge43" class="edge"><title>ITF&#45;mET_SMA&#45;&gt;goblin</title>
<path fill="none" stroke="black" d="M2110.6,-217.465C2133.23,-206.739 2165.01,-192.437 2191.18,-181.18"/>
<polygon fill="black" stroke="black" points="2192.72,-184.329 2200.54,-177.183 2189.97,-177.891 2192.72,-184.329"/>
</g>
<!-- ITF&#45;mET_SMA&#45;&gt;goblin -->
<g id="edge50" class="edge"><title>ITF&#45;mET_SMA&#45;&gt;goblin</title>
<path fill="none" stroke="black" d="M2118.81,-218.834C2142.12,-208.959 2172.13,-195.605 2196.21,-184.433"/>
<polygon fill="black" stroke="black" points="2197.88,-187.517 2205.45,-180.113 2194.91,-181.175 2197.88,-187.517"/>
</g>
<!-- ITF&#45;mET_SMA&#45;&gt;tobo -->
<g id="edge68" class="edge"><title>ITF&#45;mET_SMA&#45;&gt;tobo</title>
<path fill="none" stroke="black" d="M2033.24,-221.112C2023.51,-219.1 2013.32,-217.259 2003.7,-216 1890.58,-201.197 1070.59,-171.136 882.206,-164.372"/>
<polygon fill="black" stroke="black" points="882.078,-160.865 871.959,-164.005 881.827,-167.861 882.078,-160.865"/>
</g>
<!-- ITF&#45;3_ENV_signal_envelope -->
<g id="node25" class="node"><title>ITF&#45;3_ENV_signal_envelope</title>
<ellipse fill="yellow" stroke="black" cx="2485.7" cy="-234" rx="115.08" ry="18"/>
<text text-anchor="middle" x="2485.7" y="-230.3" font-family="Times,serif" font-size="14.00">ITF&#45;3_ENV_signal_envelope</text>
</g>
<!-- ITF&#45;3_ENV_signal_envelope&#45;&gt;goblin -->
<g id="edge52" class="edge"><title>ITF&#45;3_ENV_signal_envelope&#45;&gt;goblin</title>
<path fill="none" stroke="black" d="M2432.49,-217.983C2388.48,-205.561 2326.58,-188.089 2284.45,-176.198"/>
<polygon fill="black" stroke="black" points="2285.3,-172.799 2274.72,-173.451 2283.39,-179.536 2285.3,-172.799"/>
</g>
<!-- ITF&#45;mEG_SPI&#45;&gt;goblin -->
<g id="edge53" class="edge"><title>ITF&#45;mEG_SPI&#45;&gt;goblin</title>
<path fill="none" stroke="black" d="M2243.59,-108.104C2244.4,-115.791 2244.63,-125.054 2244.3,-133.665"/>
<polygon fill="black" stroke="black" points="2240.8,-133.48 2243.61,-143.697 2247.79,-133.96 2240.8,-133.48"/>
</g>
<!-- tobo&#45;&gt;ITF&#45;mET_Transducer -->
<g id="edge70" class="edge"><title>tobo&#45;&gt;ITF&#45;mET_Transducer</title>
<path fill="none" stroke="black" d="M815.394,-176.958C782.541,-188.641 729.201,-205.3 685.962,-217.417"/>
<polygon fill="red" stroke="black" points="684.759,-214.118 676.056,-220.161 686.628,-220.864 684.759,-214.118"/>
</g>
<!-- doj -->
<g id="node28" class="node"><title>doj</title>
<polygon fill="blue" stroke="black" points="2918.7,-396 2864.7,-396 2864.7,-360 2918.7,-360 2918.7,-396"/>
<text text-anchor="middle" x="2891.7" y="-372.4" font-family="Times,serif" font-size="22.00">doj</text>
</g>
<g id="node29" class="node"><title></title>
<ellipse fill="none" stroke="black" cx="2891.7" cy="-306" rx="27" ry="18"/>
</g>
<!-- doj&#45;&gt; -->
<g id="edge71" class="edge"><title>doj&#45;&gt;</title>
<path fill="none" stroke="black" d="M2891.7,-359.697C2891.7,-351.983 2891.7,-342.712 2891.7,-334.112"/>
<polygon fill="red" stroke="black" points="2895.2,-334.104 2891.7,-324.104 2888.2,-334.104 2895.2,-334.104"/>
</g>
<!-- oneeye&#45;&gt;ITF&#45;14_PWM -->
<g id="edge82" class="edge"><title>oneeye&#45;&gt;ITF&#45;14_PWM</title>
<path fill="none" stroke="black" d="M1632.14,-36.019C1609.82,-46.6743 1579.69,-60.382 1554.86,-71.1847"/>
<polygon fill="red" stroke="black" points="1553.42,-67.9933 1545.62,-75.1703 1556.19,-74.42 1553.42,-67.9933"/>
</g>
</g>
</svg>
