<?xml version="1.0" encoding="UTF-8" standalone="no"?>
<!DOCTYPE svg PUBLIC "-//W3C//DTD SVG 1.1//EN"
 "http://www.w3.org/Graphics/SVG/1.1/DTD/svg11.dtd">
<!-- Generated by graphviz version 2.38.0 (20140413.2041)
 -->
<!-- Title: %3 Pages: 1 -->
<svg width="2735pt" height="332pt"
 viewBox="0.00 0.00 2734.74 332.00" xmlns="http://www.w3.org/2000/svg" xmlns:xlink="http://www.w3.org/1999/xlink">
<g id="graph0" class="graph" transform="scale(1 1) rotate(0) translate(4 328)">
<title>%3</title>
<polygon fill="white" stroke="none" points="-4,4 -4,-328 2730.74,-328 2730.74,4 -4,4"/>
<!-- cletus -->
<g id="node1" class="node"><title>cletus</title>
<polygon fill="blue" stroke="black" points="357.696,-252 289.696,-252 289.696,-216 357.696,-216 357.696,-252"/>
<text text-anchor="middle" x="323.696" y="-228.4" font-family="Times,serif" font-size="22.00">cletus</text>
</g>
<!-- ITF&#45;mET_Transducer -->
<g id="node6" class="node"><title>ITF&#45;mET_Transducer</title>
<ellipse fill="green" stroke="black" cx="323.696" cy="-162" rx="89.0842" ry="18"/>
<text text-anchor="middle" x="323.696" y="-158.3" font-family="Times,serif" font-size="14.00">ITF&#45;mET_Transducer</text>
</g>
<!-- cletus&#45;&gt;ITF&#45;mET_Transducer -->
<g id="edge15" class="edge"><title>cletus&#45;&gt;ITF&#45;mET_Transducer</title>
<path fill="none" stroke="black" d="M305.948,-215.697C303.561,-207.983 302.882,-198.712 303.91,-190.112"/>
<polygon fill="red" stroke="black" points="307.381,-190.61 306.01,-180.104 300.531,-189.172 307.381,-190.61"/>
</g>
<!-- ITF&#45;A_gnd -->
<g id="node2" class="node"><title>ITF&#45;A_gnd</title>
<ellipse fill="yellow" stroke="black" cx="50.6955" cy="-306" rx="50.8918" ry="18"/>
<text text-anchor="middle" x="50.6955" y="-302.3" font-family="Times,serif" font-size="14.00">ITF&#45;A_gnd</text>
</g>
<!-- ITF&#45;A_gnd&#45;&gt;cletus -->
<g id="edge1" class="edge"><title>ITF&#45;A_gnd&#45;&gt;cletus</title>
<path fill="none" stroke="black" d="M84.9852,-292.576C90.5488,-291.008 96.2548,-289.447 101.696,-288 162.979,-271.698 234.595,-254.194 279.686,-243.94"/>
<polygon fill="black" stroke="black" points="280.459,-247.353 289.445,-241.741 278.92,-240.524 280.459,-247.353"/>
</g>
<!-- ITF&#45;A_gnd&#45;&gt;cletus -->
<g id="edge7" class="edge"><title>ITF&#45;A_gnd&#45;&gt;cletus</title>
<path fill="none" stroke="black" d="M92.0103,-295.545C101.2,-293.035 110.802,-290.366 119.696,-288 174.81,-273.339 238.28,-257.706 279.702,-247.249"/>
<polygon fill="black" stroke="black" points="280.647,-250.62 289.481,-244.771 278.928,-243.834 280.647,-250.62"/>
</g>
<!-- ITF&#45;B_5v -->
<g id="node3" class="node"><title>ITF&#45;B_5v</title>
<ellipse fill="yellow" stroke="black" cx="165.696" cy="-306" rx="46.2923" ry="18"/>
<text text-anchor="middle" x="165.696" y="-302.3" font-family="Times,serif" font-size="14.00">ITF&#45;B_5v</text>
</g>
<!-- ITF&#45;B_5v&#45;&gt;cletus -->
<g id="edge2" class="edge"><title>ITF&#45;B_5v&#45;&gt;cletus</title>
<path fill="none" stroke="black" d="M191.763,-291.003C215.816,-279.675 251.787,-263.691 280.157,-251.697"/>
<polygon fill="black" stroke="black" points="281.591,-254.891 289.459,-247.795 278.883,-248.436 281.591,-254.891"/>
</g>
<!-- ITF&#45;B_5v&#45;&gt;cletus -->
<g id="edge8" class="edge"><title>ITF&#45;B_5v&#45;&gt;cletus</title>
<path fill="none" stroke="black" d="M198.099,-292.967C222.299,-282.94 255.437,-268.411 281.651,-256.408"/>
<polygon fill="black" stroke="black" points="283.35,-259.478 290.966,-252.113 280.419,-253.122 283.35,-259.478"/>
</g>
<!-- ITF&#45;N_cc_motor_pwm -->
<g id="node4" class="node"><title>ITF&#45;N_cc_motor_pwm</title>
<ellipse fill="yellow" stroke="black" cx="323.696" cy="-306" rx="93.6835" ry="18"/>
<text text-anchor="middle" x="323.696" y="-302.3" font-family="Times,serif" font-size="14.00">ITF&#45;N_cc_motor_pwm</text>
</g>
<!-- ITF&#45;N_cc_motor_pwm&#45;&gt;cletus -->
<g id="edge3" class="edge"><title>ITF&#45;N_cc_motor_pwm&#45;&gt;cletus</title>
<path fill="none" stroke="black" d="M317.78,-287.697C316.984,-279.983 316.758,-270.712 317.1,-262.112"/>
<polygon fill="black" stroke="black" points="320.594,-262.324 317.8,-252.104 313.611,-261.836 320.594,-262.324"/>
</g>
<!-- ITF&#45;N_cc_motor_pwm&#45;&gt;cletus -->
<g id="edge9" class="edge"><title>ITF&#45;N_cc_motor_pwm&#45;&gt;cletus</title>
<path fill="none" stroke="black" d="M329.611,-287.697C330.407,-279.983 330.633,-270.712 330.291,-262.112"/>
<polygon fill="black" stroke="black" points="333.78,-261.836 329.591,-252.104 326.797,-262.324 333.78,-261.836"/>
</g>
<!-- ITF&#45;S_3_3v -->
<g id="node5" class="node"><title>ITF&#45;S_3_3v</title>
<ellipse fill="yellow" stroke="black" cx="489.696" cy="-306" rx="53.8905" ry="18"/>
<text text-anchor="middle" x="489.696" y="-302.3" font-family="Times,serif" font-size="14.00">ITF&#45;S_3_3v</text>
</g>
<!-- ITF&#45;S_3_3v&#45;&gt;cletus -->
<g id="edge4" class="edge"><title>ITF&#45;S_3_3v&#45;&gt;cletus</title>
<path fill="none" stroke="black" d="M454.294,-292.324C428.805,-282.209 394.393,-267.825 367.242,-255.996"/>
<polygon fill="black" stroke="black" points="368.531,-252.74 357.967,-251.93 365.72,-259.151 368.531,-252.74"/>
</g>
<!-- ITF&#45;S_3_3v&#45;&gt;cletus -->
<g id="edge10" class="edge"><title>ITF&#45;S_3_3v&#45;&gt;cletus</title>
<path fill="none" stroke="black" d="M461.273,-290.666C435.388,-279.116 396.972,-262.889 367.247,-250.933"/>
<polygon fill="black" stroke="black" points="368.513,-247.67 357.928,-247.213 365.917,-254.171 368.513,-247.67"/>
</g>
<!-- ITF&#45;mET_Transducer&#45;&gt;cletus -->
<g id="edge5" class="edge"><title>ITF&#45;mET_Transducer&#45;&gt;cletus</title>
<path fill="none" stroke="black" d="M317.8,-180.104C316.995,-187.791 316.759,-197.054 317.091,-205.665"/>
<polygon fill="black" stroke="black" points="313.603,-205.96 317.78,-215.697 320.587,-205.48 313.603,-205.96"/>
</g>
<!-- ITF&#45;mET_Transducer&#45;&gt;cletus -->
<g id="edge11" class="edge"><title>ITF&#45;mET_Transducer&#45;&gt;cletus</title>
<path fill="none" stroke="black" d="M329.591,-180.104C330.396,-187.791 330.632,-197.054 330.3,-205.665"/>
<polygon fill="black" stroke="black" points="326.804,-205.48 329.611,-215.697 333.788,-205.96 326.804,-205.48"/>
</g>
<!-- ITF&#45;mET_Transducer&#45;&gt;cletus -->
<g id="edge14" class="edge"><title>ITF&#45;mET_Transducer&#45;&gt;cletus</title>
<path fill="none" stroke="black" d="M341.381,-180.104C343.797,-187.791 344.506,-197.054 343.508,-205.665"/>
<polygon fill="black" stroke="black" points="340.031,-205.196 341.443,-215.697 346.887,-206.608 340.031,-205.196"/>
</g>
<!-- tobo -->
<g id="node28" class="node"><title>tobo</title>
<polygon fill="blue" stroke="black" points="695.696,-108 639.696,-108 639.696,-72 695.696,-72 695.696,-108"/>
<text text-anchor="middle" x="667.696" y="-84.4" font-family="Times,serif" font-size="22.00">tobo</text>
</g>
<!-- ITF&#45;mET_Transducer&#45;&gt;tobo -->
<g id="edge63" class="edge"><title>ITF&#45;mET_Transducer&#45;&gt;tobo</title>
<path fill="none" stroke="black" d="M374.771,-147.254C444.776,-131.715 567.026,-107.18 629.758,-96.3921"/>
<polygon fill="black" stroke="black" points="630.384,-99.8362 639.662,-94.7222 629.22,-92.9336 630.384,-99.8362"/>
</g>
<!-- ITF&#45;mET_Transducer&#45;&gt;tobo -->
<g id="edge69" class="edge"><title>ITF&#45;mET_Transducer&#45;&gt;tobo</title>
<path fill="none" stroke="black" d="M381.426,-148.161C452.047,-133.348 569.43,-109.54 629.656,-97.8815"/>
<polygon fill="black" stroke="black" points="630.356,-101.311 639.514,-95.9842 629.033,-94.4372 630.356,-101.311"/>
</g>
<!-- ITF&#45;mET_Transducer&#45;&gt;tobo -->
<g id="edge72" class="edge"><title>ITF&#45;mET_Transducer&#45;&gt;tobo</title>
<path fill="none" stroke="black" d="M386.866,-149.205C457.922,-135.2 570.886,-112.175 629.602,-99.6953"/>
<polygon fill="black" stroke="black" points="630.523,-103.078 639.571,-97.5656 629.061,-96.2321 630.523,-103.078"/>
</g>
<!-- ITF&#45;mET_Piezo -->
<g id="node7" class="node"><title>ITF&#45;mET_Piezo</title>
<ellipse fill="green" stroke="black" cx="630.696" cy="-306" rx="68.7879" ry="18"/>
<text text-anchor="middle" x="630.696" y="-302.3" font-family="Times,serif" font-size="14.00">ITF&#45;mET_Piezo</text>
</g>
<!-- ITF&#45;mET_Piezo&#45;&gt;cletus -->
<g id="edge6" class="edge"><title>ITF&#45;mET_Piezo&#45;&gt;cletus</title>
<path fill="none" stroke="black" d="M576.199,-294.821C516.662,-282.292 423.106,-261.018 367.915,-247.506"/>
<polygon fill="black" stroke="black" points="368.62,-244.075 358.073,-245.077 366.943,-250.871 368.62,-244.075"/>
</g>
<!-- ITF&#45;mET_Piezo&#45;&gt;cletus -->
<g id="edge12" class="edge"><title>ITF&#45;mET_Piezo&#45;&gt;cletus</title>
<path fill="none" stroke="black" d="M580.687,-293.597C521.665,-280.14 424.433,-257.969 368.009,-245.104"/>
<polygon fill="black" stroke="black" points="368.494,-241.625 357.967,-242.814 366.938,-248.45 368.494,-241.625"/>
</g>
<!-- ITF&#45;mET_Piezo&#45;&gt;cletus -->
<g id="edge13" class="edge"><title>ITF&#45;mET_Piezo&#45;&gt;cletus</title>
<path fill="none" stroke="black" d="M585.78,-292.324C527.123,-277.977 425.968,-255.042 367.716,-242.992"/>
<polygon fill="black" stroke="black" points="368.205,-239.519 357.706,-240.943 366.801,-246.377 368.205,-239.519"/>
</g>
<!-- tomtom -->
<g id="node8" class="node"><title>tomtom</title>
<polygon fill="blue" stroke="black" points="1480.7,-108 1394.7,-108 1394.7,-72 1480.7,-72 1480.7,-108"/>
<text text-anchor="middle" x="1437.7" y="-84.4" font-family="Times,serif" font-size="22.00">tomtom</text>
</g>
<!-- Wifi -->
<g id="node16" class="node"><title>Wifi</title>
<ellipse fill="yellow" stroke="black" cx="1437.7" cy="-18" rx="27.0966" ry="18"/>
<text text-anchor="middle" x="1437.7" y="-14.3" font-family="Times,serif" font-size="14.00">Wifi</text>
</g>
<!-- tomtom&#45;&gt;Wifi -->
<g id="edge29" class="edge"><title>tomtom&#45;&gt;Wifi</title>
<path fill="none" stroke="black" d="M1431.78,-71.6966C1430.97,-63.8676 1430.75,-54.4354 1431.12,-45.7278"/>
<polygon fill="red" stroke="black" points="1434.62,-45.8502 1431.85,-35.6223 1427.63,-45.3416 1434.62,-45.8502"/>
</g>
<!-- ITF&#45;1_GND -->
<g id="node9" class="node"><title>ITF&#45;1_GND</title>
<ellipse fill="yellow" stroke="black" cx="1154.7" cy="-162" rx="54.6905" ry="18"/>
<text text-anchor="middle" x="1154.7" y="-158.3" font-family="Times,serif" font-size="14.00">ITF&#45;1_GND</text>
</g>
<!-- ITF&#45;1_GND&#45;&gt;tomtom -->
<g id="edge16" class="edge"><title>ITF&#45;1_GND&#45;&gt;tomtom</title>
<path fill="none" stroke="black" d="M1191.16,-148.596C1197,-147.024 1202.99,-145.457 1208.7,-144 1268.63,-128.697 1338.06,-112.17 1384.73,-101.713"/>
<polygon fill="black" stroke="black" points="1385.62,-105.1 1394.62,-99.5119 1384.1,-98.2673 1385.62,-105.1"/>
</g>
<!-- ITF&#45;1_GND&#45;&gt;tomtom -->
<g id="edge20" class="edge"><title>ITF&#45;1_GND&#45;&gt;tomtom</title>
<path fill="none" stroke="black" d="M1198.67,-151.3C1208,-148.868 1217.69,-146.298 1226.7,-144 1280.44,-130.278 1341.81,-115.572 1384.55,-105.14"/>
<polygon fill="black" stroke="black" points="1385.57,-108.493 1394.46,-102.716 1383.91,-101.694 1385.57,-108.493"/>
</g>
<!-- elmo -->
<g id="node17" class="node"><title>elmo</title>
<polygon fill="blue" stroke="black" points="970.196,-108 909.196,-108 909.196,-72 970.196,-72 970.196,-108"/>
<text text-anchor="middle" x="939.696" y="-84.4" font-family="Times,serif" font-size="22.00">elmo</text>
</g>
<!-- ITF&#45;1_GND&#45;&gt;elmo -->
<g id="edge30" class="edge"><title>ITF&#45;1_GND&#45;&gt;elmo</title>
<path fill="none" stroke="black" d="M1114.79,-149.675C1076.38,-137.812 1018.78,-119.116 980.184,-106.025"/>
<polygon fill="black" stroke="black" points="980.915,-102.576 970.321,-102.658 978.654,-109.201 980.915,-102.576"/>
</g>
<!-- ITF&#45;1_GND&#45;&gt;elmo -->
<g id="edge34" class="edge"><title>ITF&#45;1_GND&#45;&gt;elmo</title>
<path fill="none" stroke="black" d="M1120.15,-147.998C1081.96,-134.949 1020.73,-115.04 980.292,-102.537"/>
<polygon fill="black" stroke="black" points="981.071,-99.1147 970.484,-99.526 979.017,-105.806 981.071,-99.1147"/>
</g>
<!-- goblin -->
<g id="node21" class="node"><title>goblin</title>
<polygon fill="blue" stroke="black" points="2117.7,-108 2043.7,-108 2043.7,-72 2117.7,-72 2117.7,-108"/>
<text text-anchor="middle" x="2080.7" y="-84.4" font-family="Times,serif" font-size="22.00">goblin</text>
</g>
<!-- ITF&#45;1_GND&#45;&gt;goblin -->
<g id="edge40" class="edge"><title>ITF&#45;1_GND&#45;&gt;goblin</title>
<path fill="none" stroke="black" d="M1189.26,-148.046C1195.67,-146.466 1202.32,-145.044 1208.7,-144 1519.86,-93.0012 1901.44,-90.0115 2033.33,-90.5808"/>
<polygon fill="black" stroke="black" points="2033.47,-94.0815 2043.49,-90.634 2033.51,-87.0816 2033.47,-94.0815"/>
</g>
<!-- ITF&#45;1_GND&#45;&gt;goblin -->
<g id="edge47" class="edge"><title>ITF&#45;1_GND&#45;&gt;goblin</title>
<path fill="none" stroke="black" d="M1197.08,-150.551C1206.82,-148.011 1217.08,-145.576 1226.7,-144 1531.37,-94.0649 1903.55,-90.1571 2033.42,-90.5502"/>
<polygon fill="black" stroke="black" points="2033.42,-94.0501 2043.43,-90.5908 2033.45,-87.0502 2033.42,-94.0501"/>
</g>
<!-- ITF&#45;1_GND&#45;&gt;tobo -->
<g id="edge58" class="edge"><title>ITF&#45;1_GND&#45;&gt;tobo</title>
<path fill="none" stroke="black" d="M1111.56,-150.774C1102.03,-148.295 1092.03,-145.834 1082.7,-144 945.148,-116.982 779.652,-100.974 706.022,-94.4419"/>
<polygon fill="black" stroke="black" points="706.108,-90.936 695.84,-93.5468 705.495,-97.9092 706.108,-90.936"/>
</g>
<!-- ITF&#45;1_GND&#45;&gt;tobo -->
<g id="edge64" class="edge"><title>ITF&#45;1_GND&#45;&gt;tobo</title>
<path fill="none" stroke="black" d="M1119.39,-148.238C1113.2,-146.671 1106.81,-145.201 1100.7,-144 956.609,-115.697 781.853,-99.4764 705.836,-93.5745"/>
<polygon fill="black" stroke="black" points="706.015,-90.0781 695.779,-92.81 705.485,-97.058 706.015,-90.0781"/>
</g>
<!-- ITF&#45;2_VDD_5V -->
<g id="node10" class="node"><title>ITF&#45;2_VDD_5V</title>
<ellipse fill="yellow" stroke="black" cx="1012.7" cy="-162" rx="69.5877" ry="18"/>
<text text-anchor="middle" x="1012.7" y="-158.3" font-family="Times,serif" font-size="14.00">ITF&#45;2_VDD_5V</text>
</g>
<!-- ITF&#45;2_VDD_5V&#45;&gt;tomtom -->
<g id="edge17" class="edge"><title>ITF&#45;2_VDD_5V&#45;&gt;tomtom</title>
<path fill="none" stroke="black" d="M1059.09,-148.495C1066.61,-146.907 1074.34,-145.363 1081.7,-144 1188.28,-124.265 1314.27,-106.368 1384.26,-97.2823"/>
<polygon fill="black" stroke="black" points="1385.12,-100.701 1394.59,-95.9536 1384.22,-93.7585 1385.12,-100.701"/>
</g>
<!-- ITF&#45;2_VDD_5V&#45;&gt;tomtom -->
<g id="edge21" class="edge"><title>ITF&#45;2_VDD_5V&#45;&gt;tomtom</title>
<path fill="none" stroke="black" d="M1066.71,-150.627C1077.67,-148.315 1089.07,-145.968 1099.7,-144 1199.95,-125.438 1317.36,-108.502 1384.18,-98.9939"/>
<polygon fill="black" stroke="black" points="1385.05,-102.405 1394.46,-97.5326 1384.07,-95.475 1385.05,-102.405"/>
</g>
<!-- ITF&#45;2_VDD_5V&#45;&gt;elmo -->
<g id="edge31" class="edge"><title>ITF&#45;2_VDD_5V&#45;&gt;elmo</title>
<path fill="none" stroke="black" d="M989.964,-144.765C979.951,-136.096 968.413,-125.248 958.842,-115.57"/>
<polygon fill="black" stroke="black" points="961.119,-112.889 951.656,-108.124 956.082,-117.75 961.119,-112.889"/>
</g>
<!-- ITF&#45;2_VDD_5V&#45;&gt;elmo -->
<g id="edge35" class="edge"><title>ITF&#45;2_VDD_5V&#45;&gt;elmo</title>
<path fill="none" stroke="black" d="M1000.9,-144.055C992.668,-135.264 981.501,-124.38 970.907,-114.763"/>
<polygon fill="black" stroke="black" points="973.141,-112.065 963.344,-108.032 968.487,-117.294 973.141,-112.065"/>
</g>
<!-- ITF&#45;2_VDD_5V&#45;&gt;goblin -->
<g id="edge41" class="edge"><title>ITF&#45;2_VDD_5V&#45;&gt;goblin</title>
<path fill="none" stroke="black" d="M1057.31,-148.15C1065.37,-146.534 1073.73,-145.074 1081.7,-144 1268.71,-118.782 1861.66,-97.881 2033.61,-92.4026"/>
<polygon fill="black" stroke="black" points="2033.73,-95.9007 2043.61,-92.0863 2033.51,-88.9042 2033.73,-95.9007"/>
</g>
<!-- ITF&#45;2_VDD_5V&#45;&gt;goblin -->
<g id="edge48" class="edge"><title>ITF&#45;2_VDD_5V&#45;&gt;goblin</title>
<path fill="none" stroke="black" d="M1065.33,-150.132C1076.68,-147.753 1088.57,-145.5 1099.7,-144 1284.11,-119.132 1863.25,-98.4628 2033.35,-92.6399"/>
<polygon fill="black" stroke="black" points="2033.62,-96.1331 2043.49,-92.2938 2033.38,-89.1371 2033.62,-96.1331"/>
</g>
<!-- ITF&#45;2_VDD_5V&#45;&gt;tobo -->
<g id="edge59" class="edge"><title>ITF&#45;2_VDD_5V&#45;&gt;tobo</title>
<path fill="none" stroke="black" d="M957.767,-150.79C947.071,-148.518 936.008,-146.147 925.696,-144 847.567,-127.733 756.335,-109.865 705.864,-99.5868"/>
<polygon fill="black" stroke="black" points="706.53,-96.1506 696.031,-97.5735 705.126,-103.008 706.53,-96.1506"/>
</g>
<!-- ITF&#45;2_VDD_5V&#45;&gt;tobo -->
<g id="edge65" class="edge"><title>ITF&#45;2_VDD_5V&#45;&gt;tobo</title>
<path fill="none" stroke="black" d="M965.409,-148.618C958.159,-147.043 950.751,-145.469 943.696,-144 859.332,-126.435 759.689,-107.003 706.082,-97.2755"/>
<polygon fill="black" stroke="black" points="706.453,-93.7863 695.992,-95.4627 705.216,-100.676 706.453,-93.7863"/>
</g>
<!-- ITF&#45;3_ENV -->
<g id="node11" class="node"><title>ITF&#45;3_ENV</title>
<ellipse fill="yellow" stroke="black" cx="2144.7" cy="-162" rx="53.8905" ry="18"/>
<text text-anchor="middle" x="2144.7" y="-158.3" font-family="Times,serif" font-size="14.00">ITF&#45;3_ENV</text>
</g>
<!-- ITF&#45;3_ENV&#45;&gt;tomtom -->
<g id="edge18" class="edge"><title>ITF&#45;3_ENV&#45;&gt;tomtom</title>
<path fill="none" stroke="black" d="M2102.29,-150.683C2092.55,-148.144 2082.29,-145.676 2072.7,-144 1859.11,-106.713 1600.97,-95.5183 1491.16,-92.2709"/>
<polygon fill="black" stroke="black" points="1491.09,-88.7677 1481,-91.9808 1490.89,-95.7649 1491.09,-88.7677"/>
</g>
<!-- ITF&#45;3_ENV&#45;&gt;tomtom -->
<g id="edge22" class="edge"><title>ITF&#45;3_ENV&#45;&gt;tomtom</title>
<path fill="none" stroke="black" d="M2110.11,-148.166C2103.71,-146.569 2097.06,-145.111 2090.7,-144 1870.47,-105.553 1602.87,-94.8469 1490.85,-91.9903"/>
<polygon fill="black" stroke="black" points="1490.9,-88.4906 1480.82,-91.7451 1490.73,-95.4885 1490.9,-88.4906"/>
</g>
<!-- ITF&#45;3_ENV&#45;&gt;goblin -->
<g id="edge44" class="edge"><title>ITF&#45;3_ENV&#45;&gt;goblin</title>
<path fill="none" stroke="black" d="M2124.41,-145.116C2115.59,-136.544 2105.48,-125.766 2097.13,-116.089"/>
<polygon fill="black" stroke="black" points="2099.7,-113.705 2090.59,-108.292 2094.34,-118.203 2099.7,-113.705"/>
</g>
<!-- ITF&#45;3_ENV&#45;&gt;goblin -->
<g id="edge51" class="edge"><title>ITF&#45;3_ENV&#45;&gt;goblin</title>
<path fill="none" stroke="black" d="M2135.08,-144.055C2128.17,-135.498 2118.73,-124.959 2109.6,-115.535"/>
<polygon fill="black" stroke="black" points="2111.93,-112.912 2102.4,-108.275 2106.96,-117.841 2111.93,-112.912"/>
</g>
<!-- ITF&#45;15_GPIO21 -->
<g id="node12" class="node"><title>ITF&#45;15_GPIO21</title>
<ellipse fill="yellow" stroke="black" cx="1437.7" cy="-162" rx="69.5877" ry="18"/>
<text text-anchor="middle" x="1437.7" y="-158.3" font-family="Times,serif" font-size="14.00">ITF&#45;15_GPIO21</text>
</g>
<!-- ITF&#45;15_GPIO21&#45;&gt;tomtom -->
<g id="edge19" class="edge"><title>ITF&#45;15_GPIO21&#45;&gt;tomtom</title>
<path fill="none" stroke="black" d="M1431.82,-144.055C1431,-136.346 1430.76,-127.027 1431.09,-118.364"/>
<polygon fill="black" stroke="black" points="1434.59,-118.491 1431.78,-108.275 1427.61,-118.012 1434.59,-118.491"/>
</g>
<!-- ITF&#45;15_GPIO21&#45;&gt;tomtom -->
<g id="edge23" class="edge"><title>ITF&#45;15_GPIO21&#45;&gt;tomtom</title>
<path fill="none" stroke="black" d="M1443.57,-144.055C1444.39,-136.346 1444.63,-127.027 1444.3,-118.364"/>
<polygon fill="black" stroke="black" points="1447.78,-118.012 1443.61,-108.275 1440.8,-118.491 1447.78,-118.012"/>
</g>
<!-- ITF&#45;16_POn3 -->
<g id="node13" class="node"><title>ITF&#45;16_POn3</title>
<ellipse fill="yellow" stroke="black" cx="1584.7" cy="-162" rx="59.5901" ry="18"/>
<text text-anchor="middle" x="1584.7" y="-158.3" font-family="Times,serif" font-size="14.00">ITF&#45;16_POn3</text>
</g>
<!-- ITF&#45;16_POn3&#45;&gt;tomtom -->
<g id="edge24" class="edge"><title>ITF&#45;16_POn3&#45;&gt;tomtom</title>
<path fill="none" stroke="black" d="M1550.15,-147.17C1528.07,-137.295 1499.51,-123.818 1476.64,-112.54"/>
<polygon fill="black" stroke="black" points="1478.06,-109.336 1467.55,-108.019 1474.95,-115.605 1478.06,-109.336"/>
</g>
<!-- ITF&#45;16_POn3&#45;&gt;tomtom -->
<g id="edge25" class="edge"><title>ITF&#45;16_POn3&#45;&gt;tomtom</title>
<path fill="none" stroke="black" d="M1558.48,-145.811C1539.03,-135.978 1512.04,-123.035 1488.46,-112.195"/>
<polygon fill="black" stroke="black" points="1489.83,-108.972 1479.28,-108.002 1486.93,-115.34 1489.83,-108.972"/>
</g>
<!-- ITF&#45;17_POff3 -->
<g id="node14" class="node"><title>ITF&#45;17_POff3</title>
<ellipse fill="yellow" stroke="black" cx="1724.7" cy="-162" rx="61.99" ry="18"/>
<text text-anchor="middle" x="1724.7" y="-158.3" font-family="Times,serif" font-size="14.00">ITF&#45;17_POff3</text>
</g>
<!-- ITF&#45;17_POff3&#45;&gt;tomtom -->
<g id="edge26" class="edge"><title>ITF&#45;17_POff3&#45;&gt;tomtom</title>
<path fill="none" stroke="black" d="M1678.9,-149.831C1627.65,-137.331 1544.74,-117.107 1490.71,-103.931"/>
<polygon fill="black" stroke="black" points="1491.52,-100.526 1480.98,-101.557 1489.86,-107.327 1491.52,-100.526"/>
</g>
<!-- ITF&#45;14_PWM -->
<g id="node15" class="node"><title>ITF&#45;14_PWM</title>
<ellipse fill="yellow" stroke="black" cx="1288.7" cy="-162" rx="61.99" ry="18"/>
<text text-anchor="middle" x="1288.7" y="-158.3" font-family="Times,serif" font-size="14.00">ITF&#45;14_PWM</text>
</g>
<!-- ITF&#45;14_PWM&#45;&gt;tomtom -->
<g id="edge27" class="edge"><title>ITF&#45;14_PWM&#45;&gt;tomtom</title>
<path fill="none" stroke="black" d="M1319.93,-146.326C1340.87,-136.487 1368.8,-123.368 1392.2,-112.375"/>
<polygon fill="black" stroke="black" points="1393.69,-115.542 1401.25,-108.122 1390.71,-109.206 1393.69,-115.542"/>
</g>
<!-- Wifi&#45;&gt;tomtom -->
<g id="edge28" class="edge"><title>Wifi&#45;&gt;tomtom</title>
<path fill="none" stroke="black" d="M1443.54,-35.6223C1444.38,-43.3558 1444.64,-52.7604 1444.31,-61.5083"/>
<polygon fill="black" stroke="black" points="1440.8,-61.4818 1443.61,-71.6966 1447.78,-61.9578 1440.8,-61.4818"/>
</g>
<!-- Signal Digitalized -->
<g id="node20" class="node"><title>Signal Digitalized</title>
<ellipse fill="yellow" stroke="black" cx="939.696" cy="-18" rx="74.9875" ry="18"/>
<text text-anchor="middle" x="939.696" y="-14.3" font-family="Times,serif" font-size="14.00">Signal Digitalized</text>
</g>
<!-- elmo&#45;&gt;Signal Digitalized -->
<g id="edge39" class="edge"><title>elmo&#45;&gt;Signal Digitalized</title>
<path fill="none" stroke="black" d="M933.78,-71.6966C932.984,-63.9827 932.758,-54.7125 933.1,-46.1124"/>
<polygon fill="red" stroke="black" points="936.594,-46.3243 933.8,-36.1043 929.611,-45.8356 936.594,-46.3243"/>
</g>
<!-- ITF&#45;19_3.3V -->
<g id="node18" class="node"><title>ITF&#45;19_3.3V</title>
<ellipse fill="yellow" stroke="black" cx="733.696" cy="-162" rx="57.6901" ry="18"/>
<text text-anchor="middle" x="733.696" y="-158.3" font-family="Times,serif" font-size="14.00">ITF&#45;19_3.3V</text>
</g>
<!-- ITF&#45;19_3.3V&#45;&gt;elmo -->
<g id="edge32" class="edge"><title>ITF&#45;19_3.3V&#45;&gt;elmo</title>
<path fill="none" stroke="black" d="M768.422,-147.337C804.594,-134.444 861.001,-115.305 899.175,-102.99"/>
<polygon fill="black" stroke="black" points="900.489,-106.244 908.945,-99.8614 898.354,-99.5779 900.489,-106.244"/>
</g>
<!-- ITF&#45;19_3.3V&#45;&gt;elmo -->
<g id="edge36" class="edge"><title>ITF&#45;19_3.3V&#45;&gt;elmo</title>
<path fill="none" stroke="black" d="M774.35,-148.967C810.563,-137.283 863.104,-119.485 899.249,-106.694"/>
<polygon fill="black" stroke="black" points="900.735,-109.88 908.981,-103.228 898.387,-103.286 900.735,-109.88"/>
</g>
<!-- ITF&#45;19_3.3V&#45;&gt;tobo -->
<g id="edge62" class="edge"><title>ITF&#45;19_3.3V&#45;&gt;tobo</title>
<path fill="none" stroke="black" d="M712.958,-145.116C703.888,-136.544 693.478,-125.766 684.847,-116.089"/>
<polygon fill="black" stroke="black" points="687.281,-113.553 678.085,-108.292 681.993,-118.14 687.281,-113.553"/>
</g>
<!-- ITF&#45;19_3.3V&#45;&gt;tobo -->
<g id="edge68" class="edge"><title>ITF&#45;19_3.3V&#45;&gt;tobo</title>
<path fill="none" stroke="black" d="M723.597,-144.055C716.313,-135.349 706.359,-124.591 696.812,-115.043"/>
<polygon fill="black" stroke="black" points="699.238,-112.521 689.641,-108.032 694.344,-117.525 699.238,-112.521"/>
</g>
<!-- ITF&#45;12_RPIn -->
<g id="node19" class="node"><title>ITF&#45;12_RPIn</title>
<ellipse fill="yellow" stroke="black" cx="867.696" cy="-162" rx="57.6901" ry="18"/>
<text text-anchor="middle" x="867.696" y="-158.3" font-family="Times,serif" font-size="14.00">ITF&#45;12_RPIn</text>
</g>
<!-- ITF&#45;12_RPIn&#45;&gt;elmo -->
<g id="edge33" class="edge"><title>ITF&#45;12_RPIn&#45;&gt;elmo</title>
<path fill="none" stroke="black" d="M879.246,-144.055C887.356,-135.264 898.366,-124.38 908.823,-114.763"/>
<polygon fill="black" stroke="black" points="911.206,-117.327 916.29,-108.032 906.519,-112.128 911.206,-117.327"/>
</g>
<!-- ITF&#45;12_RPIn&#45;&gt;elmo -->
<g id="edge37" class="edge"><title>ITF&#45;12_RPIn&#45;&gt;elmo</title>
<path fill="none" stroke="black" d="M889.794,-145.116C899.698,-136.458 911.16,-125.55 920.676,-115.799"/>
<polygon fill="black" stroke="black" points="923.463,-117.948 927.824,-108.292 918.393,-113.121 923.463,-117.948"/>
</g>
<!-- Signal Digitalized&#45;&gt;elmo -->
<g id="edge38" class="edge"><title>Signal Digitalized&#45;&gt;elmo</title>
<path fill="none" stroke="black" d="M945.591,-36.1043C946.396,-43.7913 946.632,-53.0537 946.3,-61.6651"/>
<polygon fill="black" stroke="black" points="942.804,-61.4805 945.611,-71.6966 949.788,-61.9597 942.804,-61.4805"/>
</g>
<!-- ITF&#45;mEG_SPI -->
<g id="node27" class="node"><title>ITF&#45;mEG_SPI</title>
<ellipse fill="green" stroke="black" cx="2080.7" cy="-18" rx="63.0888" ry="18"/>
<text text-anchor="middle" x="2080.7" y="-14.3" font-family="Times,serif" font-size="14.00">ITF&#45;mEG_SPI</text>
</g>
<!-- goblin&#45;&gt;ITF&#45;mEG_SPI -->
<g id="edge57" class="edge"><title>goblin&#45;&gt;ITF&#45;mEG_SPI</title>
<path fill="none" stroke="black" d="M2074.78,-71.6966C2073.98,-63.9827 2073.76,-54.7125 2074.1,-46.1124"/>
<polygon fill="red" stroke="black" points="2077.59,-46.3243 2074.8,-36.1043 2070.61,-45.8356 2077.59,-46.3243"/>
</g>
<!-- ITF&#45;7_GAIN -->
<g id="node22" class="node"><title>ITF&#45;7_GAIN</title>
<ellipse fill="yellow" stroke="black" cx="2274.7" cy="-162" rx="57.6901" ry="18"/>
<text text-anchor="middle" x="2274.7" y="-158.3" font-family="Times,serif" font-size="14.00">ITF&#45;7_GAIN</text>
</g>
<!-- ITF&#45;7_GAIN&#45;&gt;goblin -->
<g id="edge42" class="edge"><title>ITF&#45;7_GAIN&#45;&gt;goblin</title>
<path fill="none" stroke="black" d="M2235.17,-148.647C2203.83,-137.93 2160.11,-122.248 2127.13,-109.946"/>
<polygon fill="black" stroke="black" points="2128.29,-106.643 2117.7,-106.409 2125.83,-113.197 2128.29,-106.643"/>
</g>
<!-- ITF&#45;7_GAIN&#45;&gt;goblin -->
<g id="edge49" class="edge"><title>ITF&#45;7_GAIN&#45;&gt;goblin</title>
<path fill="none" stroke="black" d="M2241.87,-147.17C2210.48,-135.261 2163,-118.113 2127.64,-105.902"/>
<polygon fill="black" stroke="black" points="2128.61,-102.533 2118.01,-102.598 2126.33,-109.154 2128.61,-102.533"/>
</g>
<!-- ITF&#45;4_RawSig -->
<g id="node23" class="node"><title>ITF&#45;4_RawSig</title>
<ellipse fill="yellow" stroke="black" cx="2414.7" cy="-162" rx="63.8893" ry="18"/>
<text text-anchor="middle" x="2414.7" y="-158.3" font-family="Times,serif" font-size="14.00">ITF&#45;4_RawSig</text>
</g>
<!-- ITF&#45;4_RawSig&#45;&gt;goblin -->
<g id="edge43" class="edge"><title>ITF&#45;4_RawSig&#45;&gt;goblin</title>
<path fill="none" stroke="black" d="M2360.84,-152.235C2348.39,-149.525 2335.52,-146.577 2323.7,-144 2255.58,-129.156 2177.16,-113.412 2127.89,-102.978"/>
<polygon fill="black" stroke="black" points="2128.34,-99.4957 2117.83,-100.834 2126.88,-106.342 2128.34,-99.4957"/>
</g>
<!-- ITF&#45;4_RawSig&#45;&gt;goblin -->
<g id="edge50" class="edge"><title>ITF&#45;4_RawSig&#45;&gt;goblin</title>
<path fill="none" stroke="black" d="M2367.62,-149.829C2359,-147.844 2350.09,-145.829 2341.7,-144 2267.15,-127.755 2180.28,-110.434 2127.93,-100.172"/>
<polygon fill="black" stroke="black" points="2128.42,-96.7017 2117.94,-98.2161 2127.08,-103.571 2128.42,-96.7017"/>
</g>
<!-- ITF&#45;4_RawSig&#45;&gt;goblin -->
<g id="edge54" class="edge"><title>ITF&#45;4_RawSig&#45;&gt;goblin</title>
<path fill="none" stroke="black" d="M2376.06,-147.662C2370.59,-146.403 2365.04,-145.164 2359.7,-144 2279.1,-126.437 2184.09,-107.614 2127.8,-97.8163"/>
<polygon fill="black" stroke="black" points="2128.2,-94.3339 2117.75,-96.0943 2127.01,-101.233 2128.2,-94.3339"/>
</g>
<!-- ITF&#45;18_Raw -->
<g id="node24" class="node"><title>ITF&#45;18_Raw</title>
<ellipse fill="yellow" stroke="black" cx="2016.7" cy="-162" rx="55.7903" ry="18"/>
<text text-anchor="middle" x="2016.7" y="-158.3" font-family="Times,serif" font-size="14.00">ITF&#45;18_Raw</text>
</g>
<!-- ITF&#45;18_Raw&#45;&gt;goblin -->
<g id="edge45" class="edge"><title>ITF&#45;18_Raw&#45;&gt;goblin</title>
<path fill="none" stroke="black" d="M2026.31,-144.055C2033.22,-135.498 2042.66,-124.959 2051.79,-115.535"/>
<polygon fill="black" stroke="black" points="2054.43,-117.841 2058.99,-108.275 2049.46,-112.912 2054.43,-117.841"/>
</g>
<!-- ITF&#45;18_Raw&#45;&gt;goblin -->
<g id="edge52" class="edge"><title>ITF&#45;18_Raw&#45;&gt;goblin</title>
<path fill="none" stroke="black" d="M2036.98,-145.116C2045.8,-136.544 2055.91,-125.766 2064.26,-116.089"/>
<polygon fill="black" stroke="black" points="2067.06,-118.203 2070.8,-108.292 2061.69,-113.705 2067.06,-118.203"/>
</g>
<!-- ITF&#45;18_Raw&#45;&gt;tobo -->
<g id="edge70" class="edge"><title>ITF&#45;18_Raw&#45;&gt;tobo</title>
<path fill="none" stroke="black" d="M1977.11,-149.159C1968.78,-147.089 1960.01,-145.214 1951.7,-144 1489.22,-76.4552 1367.41,-133.01 900.696,-108 832.123,-104.325 752.337,-98.0753 706.165,-94.2638"/>
<polygon fill="black" stroke="black" points="706.263,-90.76 696.008,-93.4198 705.684,-97.736 706.263,-90.76"/>
</g>
<!-- ITF&#45;mET_SMA -->
<g id="node25" class="node"><title>ITF&#45;mET_SMA</title>
<ellipse fill="green" stroke="black" cx="1873.7" cy="-162" rx="68.7879" ry="18"/>
<text text-anchor="middle" x="1873.7" y="-158.3" font-family="Times,serif" font-size="14.00">ITF&#45;mET_SMA</text>
</g>
<!-- ITF&#45;mET_SMA&#45;&gt;goblin -->
<g id="edge46" class="edge"><title>ITF&#45;mET_SMA&#45;&gt;goblin</title>
<path fill="none" stroke="black" d="M1910.51,-146.666C1944.97,-134.475 1996.45,-117.074 2033.82,-104.985"/>
<polygon fill="black" stroke="black" points="2035.03,-108.272 2043.47,-101.879 2032.88,-101.609 2035.03,-108.272"/>
</g>
<!-- ITF&#45;mET_SMA&#45;&gt;goblin -->
<g id="edge53" class="edge"><title>ITF&#45;mET_SMA&#45;&gt;goblin</title>
<path fill="none" stroke="black" d="M1917.53,-147.998C1951.72,-136.975 1998.99,-121.057 2033.9,-108.843"/>
<polygon fill="black" stroke="black" points="2035.13,-112.122 2043.4,-105.503 2032.81,-105.518 2035.13,-112.122"/>
</g>
<!-- ITF&#45;mET_SMA&#45;&gt;tobo -->
<g id="edge71" class="edge"><title>ITF&#45;mET_SMA&#45;&gt;tobo</title>
<path fill="none" stroke="black" d="M1825.24,-149.07C1815.51,-147.062 1805.32,-145.233 1795.7,-144 1400.82,-93.4203 1298.16,-130.487 900.696,-108 832.134,-104.121 752.345,-97.9369 706.169,-94.1935"/>
<polygon fill="black" stroke="black" points="706.262,-90.6896 696.011,-93.3654 705.693,-97.6664 706.262,-90.6896"/>
</g>
<!-- ITF&#45;3_ENV_signal_envelope -->
<g id="node26" class="node"><title>ITF&#45;3_ENV_signal_envelope</title>
<ellipse fill="yellow" stroke="black" cx="2611.7" cy="-162" rx="115.08" ry="18"/>
<text text-anchor="middle" x="2611.7" y="-158.3" font-family="Times,serif" font-size="14.00">ITF&#45;3_ENV_signal_envelope</text>
</g>
<!-- ITF&#45;3_ENV_signal_envelope&#45;&gt;goblin -->
<g id="edge55" class="edge"><title>ITF&#45;3_ENV_signal_envelope&#45;&gt;goblin</title>
<path fill="none" stroke="black" d="M2528.66,-149.538C2514.98,-147.671 2500.94,-145.77 2487.7,-144 2357.51,-126.599 2203.79,-106.779 2127.92,-97.0447"/>
<polygon fill="black" stroke="black" points="2128.11,-93.54 2117.74,-95.7394 2127.22,-100.483 2128.11,-93.54"/>
</g>
<!-- ITF&#45;mEG_SPI&#45;&gt;goblin -->
<g id="edge56" class="edge"><title>ITF&#45;mEG_SPI&#45;&gt;goblin</title>
<path fill="none" stroke="black" d="M2086.59,-36.1043C2087.4,-43.7913 2087.63,-53.0537 2087.3,-61.6651"/>
<polygon fill="black" stroke="black" points="2083.8,-61.4805 2086.61,-71.6966 2090.79,-61.9597 2083.8,-61.4805"/>
</g>
<!-- tobo&#45;&gt;ITF&#45;mET_Transducer -->
<g id="edge73" class="edge"><title>tobo&#45;&gt;ITF&#45;mET_Transducer</title>
<path fill="none" stroke="black" d="M639.245,-99.6095C586.854,-111.847 476.979,-134.349 401.355,-148.446"/>
<polygon fill="red" stroke="black" points="400.58,-145.03 391.384,-150.292 401.854,-151.913 400.58,-145.03"/>
</g>
<!-- ITF&#45;9_Pon -->
<g id="node29" class="node"><title>ITF&#45;9_Pon</title>
<ellipse fill="yellow" stroke="black" cx="479.696" cy="-162" rx="49.2915" ry="18"/>
<text text-anchor="middle" x="479.696" y="-158.3" font-family="Times,serif" font-size="14.00">ITF&#45;9_Pon</text>
</g>
<!-- ITF&#45;9_Pon&#45;&gt;tobo -->
<g id="edge60" class="edge"><title>ITF&#45;9_Pon&#45;&gt;tobo</title>
<path fill="none" stroke="black" d="M510.065,-147.669C542.82,-134.797 594.767,-115.479 630.073,-103.055"/>
<polygon fill="black" stroke="black" points="631.271,-106.344 639.56,-99.7452 628.965,-99.7349 631.271,-106.344"/>
</g>
<!-- ITF&#45;9_Pon&#45;&gt;tobo -->
<g id="edge66" class="edge"><title>ITF&#45;9_Pon&#45;&gt;tobo</title>
<path fill="none" stroke="black" d="M515.906,-149.441C548.826,-137.884 597.021,-120.016 630.296,-107.079"/>
<polygon fill="black" stroke="black" points="631.649,-110.308 639.685,-103.402 629.097,-103.789 631.649,-110.308"/>
</g>
<!-- ITF&#45;10_Poff -->
<g id="node30" class="node"><title>ITF&#45;10_Poff</title>
<ellipse fill="yellow" stroke="black" cx="602.696" cy="-162" rx="55.4913" ry="18"/>
<text text-anchor="middle" x="602.696" y="-158.3" font-family="Times,serif" font-size="14.00">ITF&#45;10_Poff</text>
</g>
<!-- ITF&#45;10_Poff&#45;&gt;tobo -->
<g id="edge61" class="edge"><title>ITF&#45;10_Poff&#45;&gt;tobo</title>
<path fill="none" stroke="black" d="M612.552,-144.055C619.642,-135.435 629.32,-124.802 638.646,-115.324"/>
<polygon fill="black" stroke="black" points="641.361,-117.56 645.993,-108.032 636.43,-112.592 641.361,-117.56"/>
</g>
<!-- ITF&#45;10_Poff&#45;&gt;tobo -->
<g id="edge67" class="edge"><title>ITF&#45;10_Poff&#45;&gt;tobo</title>
<path fill="none" stroke="black" d="M623.206,-145.116C632.154,-136.544 642.41,-125.766 650.902,-116.089"/>
<polygon fill="black" stroke="black" points="653.726,-118.172 657.553,-108.292 648.4,-113.629 653.726,-118.172"/>
</g>
</g>
</svg>
