<?xml version="1.0" encoding="UTF-8" standalone="no"?>
<!DOCTYPE svg PUBLIC "-//W3C//DTD SVG 1.1//EN"
 "http://www.w3.org/Graphics/SVG/1.1/DTD/svg11.dtd">
<!-- Generated by graphviz version 2.38.0 (20140413.2041)
 -->
<!-- Title: %3 Pages: 1 -->
<svg width="2130pt" height="476pt"
 viewBox="0.00 0.00 2129.64 476.00" xmlns="http://www.w3.org/2000/svg" xmlns:xlink="http://www.w3.org/1999/xlink">
<g id="graph0" class="graph" transform="scale(1 1) rotate(0) translate(4 472)">
<title>%3</title>
<polygon fill="white" stroke="none" points="-4,4 -4,-472 2125.64,-472 2125.64,4 -4,4"/>
<!-- cletus -->
<g id="node1" class="node"><title>cletus</title>
<polygon fill="blue" stroke="black" points="330.696,-252 262.696,-252 262.696,-216 330.696,-216 330.696,-252"/>
<text text-anchor="middle" x="296.696" y="-228.4" font-family="Times,serif" font-size="22.00">cletus</text>
</g>
<!-- ITF&#45;mET_Transducer -->
<g id="node6" class="node"><title>ITF&#45;mET_Transducer</title>
<ellipse fill="green" stroke="black" cx="296.696" cy="-162" rx="89.0842" ry="18"/>
<text text-anchor="middle" x="296.696" y="-158.3" font-family="Times,serif" font-size="14.00">ITF&#45;mET_Transducer</text>
</g>
<!-- cletus&#45;&gt;ITF&#45;mET_Transducer -->
<g id="edge15" class="edge"><title>cletus&#45;&gt;ITF&#45;mET_Transducer</title>
<path fill="none" stroke="black" d="M278.948,-215.697C276.561,-207.983 275.882,-198.712 276.91,-190.112"/>
<polygon fill="red" stroke="black" points="280.381,-190.61 279.01,-180.104 273.531,-189.172 280.381,-190.61"/>
</g>
<!-- ITF&#45;A_gnd -->
<g id="node2" class="node"><title>ITF&#45;A_gnd</title>
<ellipse fill="yellow" stroke="black" cx="50.6955" cy="-450" rx="50.8918" ry="18"/>
<text text-anchor="middle" x="50.6955" y="-446.3" font-family="Times,serif" font-size="14.00">ITF&#45;A_gnd</text>
</g>
<!-- ITF&#45;A_gnd&#45;&gt;cletus -->
<g id="edge1" class="edge"><title>ITF&#45;A_gnd&#45;&gt;cletus</title>
<path fill="none" stroke="black" d="M54.6054,-431.616C68.5385,-399.288 110.632,-329.45 163.696,-288 189.823,-267.591 224.987,-253.544 252.72,-245.065"/>
<polygon fill="black" stroke="black" points="253.95,-248.352 262.57,-242.192 251.99,-241.632 253.95,-248.352"/>
</g>
<!-- ITF&#45;A_gnd&#45;&gt;cletus -->
<g id="edge7" class="edge"><title>ITF&#45;A_gnd&#45;&gt;cletus</title>
<path fill="none" stroke="black" d="M64.3456,-432.614C85.6628,-400.746 128.079,-329.882 181.696,-288 203.005,-271.354 230.327,-258.94 253.072,-250.328"/>
<polygon fill="black" stroke="black" points="254.325,-253.596 262.509,-246.868 251.915,-247.024 254.325,-253.596"/>
</g>
<!-- tomtom -->
<g id="node8" class="node"><title>tomtom</title>
<polygon fill="blue" stroke="black" points="440.696,-396 354.696,-396 354.696,-360 440.696,-360 440.696,-396"/>
<text text-anchor="middle" x="397.696" y="-372.4" font-family="Times,serif" font-size="22.00">tomtom</text>
</g>
<!-- ITF&#45;A_gnd&#45;&gt;tomtom -->
<g id="edge16" class="edge"><title>ITF&#45;A_gnd&#45;&gt;tomtom</title>
<path fill="none" stroke="black" d="M84.2629,-436.433C90.041,-434.854 96.0022,-433.329 101.696,-432 185.654,-412.399 284.796,-395.44 344.489,-386.27"/>
<polygon fill="black" stroke="black" points="345.081,-389.72 354.442,-384.757 344.03,-382.799 345.081,-389.72"/>
</g>
<!-- ITF&#45;A_gnd&#45;&gt;tomtom -->
<g id="edge20" class="edge"><title>ITF&#45;A_gnd&#45;&gt;tomtom</title>
<path fill="none" stroke="black" d="M91.5947,-439.267C100.882,-436.73 110.628,-434.117 119.696,-432 197.501,-413.835 288.346,-397.94 344.543,-388.409"/>
<polygon fill="black" stroke="black" points="345.346,-391.823 354.623,-386.705 344.179,-384.921 345.346,-391.823"/>
</g>
<!-- ITF&#45;B_5v -->
<g id="node3" class="node"><title>ITF&#45;B_5v</title>
<ellipse fill="yellow" stroke="black" cx="165.696" cy="-450" rx="46.2923" ry="18"/>
<text text-anchor="middle" x="165.696" y="-446.3" font-family="Times,serif" font-size="14.00">ITF&#45;B_5v</text>
</g>
<!-- ITF&#45;B_5v&#45;&gt;cletus -->
<g id="edge2" class="edge"><title>ITF&#45;B_5v&#45;&gt;cletus</title>
<path fill="none" stroke="black" d="M158.818,-432.073C152.814,-400.508 152.433,-331.89 184.696,-288 200.869,-265.997 228.865,-252.424 252.934,-244.529"/>
<polygon fill="black" stroke="black" points="254.069,-247.842 262.617,-241.582 252.031,-241.145 254.069,-247.842"/>
</g>
<!-- ITF&#45;B_5v&#45;&gt;cletus -->
<g id="edge8" class="edge"><title>ITF&#45;B_5v&#45;&gt;cletus</title>
<path fill="none" stroke="black" d="M169.237,-431.826C170.812,-400.15 170.517,-331.776 202.696,-288 215.273,-270.89 234.998,-258.878 253.204,-250.669"/>
<polygon fill="black" stroke="black" points="254.696,-253.838 262.54,-246.716 251.966,-247.392 254.696,-253.838"/>
</g>
<!-- ITF&#45;B_5v&#45;&gt;tomtom -->
<g id="edge17" class="edge"><title>ITF&#45;B_5v&#45;&gt;tomtom</title>
<path fill="none" stroke="black" d="M196.707,-436.609C201.703,-435.051 206.819,-433.484 211.696,-432 256.346,-418.415 307.418,-403.152 344.84,-392.506"/>
<polygon fill="black" stroke="black" points="345.86,-395.855 354.531,-389.768 343.956,-389.119 345.86,-395.855"/>
</g>
<!-- ITF&#45;B_5v&#45;&gt;tomtom -->
<g id="edge21" class="edge"><title>ITF&#45;B_5v&#45;&gt;tomtom</title>
<path fill="none" stroke="black" d="M204.025,-439.776C212.567,-437.241 221.473,-434.502 229.696,-432 268.214,-420.28 311.511,-407.312 344.58,-397.137"/>
<polygon fill="black" stroke="black" points="345.976,-400.369 354.498,-394.074 343.91,-393.681 345.976,-400.369"/>
</g>
<!-- ITF&#45;N_cc_motor_pwm -->
<g id="node4" class="node"><title>ITF&#45;N_cc_motor_pwm</title>
<ellipse fill="yellow" stroke="black" cx="296.696" cy="-306" rx="93.6835" ry="18"/>
<text text-anchor="middle" x="296.696" y="-302.3" font-family="Times,serif" font-size="14.00">ITF&#45;N_cc_motor_pwm</text>
</g>
<!-- ITF&#45;N_cc_motor_pwm&#45;&gt;cletus -->
<g id="edge3" class="edge"><title>ITF&#45;N_cc_motor_pwm&#45;&gt;cletus</title>
<path fill="none" stroke="black" d="M290.78,-287.697C289.984,-279.983 289.758,-270.712 290.1,-262.112"/>
<polygon fill="black" stroke="black" points="293.594,-262.324 290.8,-252.104 286.611,-261.836 293.594,-262.324"/>
</g>
<!-- ITF&#45;N_cc_motor_pwm&#45;&gt;cletus -->
<g id="edge9" class="edge"><title>ITF&#45;N_cc_motor_pwm&#45;&gt;cletus</title>
<path fill="none" stroke="black" d="M302.611,-287.697C303.407,-279.983 303.633,-270.712 303.291,-262.112"/>
<polygon fill="black" stroke="black" points="306.78,-261.836 302.591,-252.104 299.797,-262.324 306.78,-261.836"/>
</g>
<!-- ITF&#45;N_cc_motor_pwm&#45;&gt;tomtom -->
<g id="edge28" class="edge"><title>ITF&#45;N_cc_motor_pwm&#45;&gt;tomtom</title>
<path fill="none" stroke="black" d="M325.78,-323.145C339.873,-332.202 356.612,-343.662 370.452,-353.68"/>
<polygon fill="black" stroke="black" points="368.513,-356.598 378.645,-359.697 372.657,-350.956 368.513,-356.598"/>
</g>
<!-- ITF&#45;S_3_3v -->
<g id="node5" class="node"><title>ITF&#45;S_3_3v</title>
<ellipse fill="yellow" stroke="black" cx="462.696" cy="-306" rx="53.8905" ry="18"/>
<text text-anchor="middle" x="462.696" y="-302.3" font-family="Times,serif" font-size="14.00">ITF&#45;S_3_3v</text>
</g>
<!-- ITF&#45;S_3_3v&#45;&gt;cletus -->
<g id="edge4" class="edge"><title>ITF&#45;S_3_3v&#45;&gt;cletus</title>
<path fill="none" stroke="black" d="M427.294,-292.324C401.805,-282.209 367.393,-267.825 340.242,-255.996"/>
<polygon fill="black" stroke="black" points="341.531,-252.74 330.967,-251.93 338.72,-259.151 341.531,-252.74"/>
</g>
<!-- ITF&#45;S_3_3v&#45;&gt;cletus -->
<g id="edge10" class="edge"><title>ITF&#45;S_3_3v&#45;&gt;cletus</title>
<path fill="none" stroke="black" d="M434.273,-290.666C408.388,-279.116 369.972,-262.889 340.247,-250.933"/>
<polygon fill="black" stroke="black" points="341.513,-247.67 330.928,-247.213 338.917,-254.171 341.513,-247.67"/>
</g>
<!-- ITF&#45;mET_Transducer&#45;&gt;cletus -->
<g id="edge5" class="edge"><title>ITF&#45;mET_Transducer&#45;&gt;cletus</title>
<path fill="none" stroke="black" d="M290.8,-180.104C289.995,-187.791 289.759,-197.054 290.091,-205.665"/>
<polygon fill="black" stroke="black" points="286.603,-205.96 290.78,-215.697 293.587,-205.48 286.603,-205.96"/>
</g>
<!-- ITF&#45;mET_Transducer&#45;&gt;cletus -->
<g id="edge11" class="edge"><title>ITF&#45;mET_Transducer&#45;&gt;cletus</title>
<path fill="none" stroke="black" d="M302.591,-180.104C303.396,-187.791 303.632,-197.054 303.3,-205.665"/>
<polygon fill="black" stroke="black" points="299.804,-205.48 302.611,-215.697 306.788,-205.96 299.804,-205.48"/>
</g>
<!-- ITF&#45;mET_Transducer&#45;&gt;cletus -->
<g id="edge14" class="edge"><title>ITF&#45;mET_Transducer&#45;&gt;cletus</title>
<path fill="none" stroke="black" d="M314.381,-180.104C316.797,-187.791 317.506,-197.054 316.508,-205.665"/>
<polygon fill="black" stroke="black" points="313.031,-205.196 314.443,-215.697 319.887,-206.608 313.031,-205.196"/>
</g>
<!-- tobo -->
<g id="node27" class="node"><title>tobo</title>
<polygon fill="blue" stroke="black" points="668.696,-108 612.696,-108 612.696,-72 668.696,-72 668.696,-108"/>
<text text-anchor="middle" x="640.696" y="-84.4" font-family="Times,serif" font-size="22.00">tobo</text>
</g>
<!-- ITF&#45;mET_Transducer&#45;&gt;tobo -->
<g id="edge63" class="edge"><title>ITF&#45;mET_Transducer&#45;&gt;tobo</title>
<path fill="none" stroke="black" d="M347.771,-147.254C417.776,-131.715 540.026,-107.18 602.758,-96.3921"/>
<polygon fill="black" stroke="black" points="603.384,-99.8362 612.662,-94.7222 602.22,-92.9336 603.384,-99.8362"/>
</g>
<!-- ITF&#45;mET_Transducer&#45;&gt;tobo -->
<g id="edge69" class="edge"><title>ITF&#45;mET_Transducer&#45;&gt;tobo</title>
<path fill="none" stroke="black" d="M354.426,-148.161C425.047,-133.348 542.43,-109.54 602.656,-97.8815"/>
<polygon fill="black" stroke="black" points="603.356,-101.311 612.514,-95.9842 602.033,-94.4372 603.356,-101.311"/>
</g>
<!-- ITF&#45;mET_Transducer&#45;&gt;tobo -->
<g id="edge72" class="edge"><title>ITF&#45;mET_Transducer&#45;&gt;tobo</title>
<path fill="none" stroke="black" d="M359.866,-149.205C430.922,-135.2 543.886,-112.175 602.602,-99.6953"/>
<polygon fill="black" stroke="black" points="603.523,-103.078 612.571,-97.5656 602.061,-96.2321 603.523,-103.078"/>
</g>
<!-- ITF&#45;mET_Piezo -->
<g id="node7" class="node"><title>ITF&#45;mET_Piezo</title>
<ellipse fill="green" stroke="black" cx="603.696" cy="-306" rx="68.7879" ry="18"/>
<text text-anchor="middle" x="603.696" y="-302.3" font-family="Times,serif" font-size="14.00">ITF&#45;mET_Piezo</text>
</g>
<!-- ITF&#45;mET_Piezo&#45;&gt;cletus -->
<g id="edge6" class="edge"><title>ITF&#45;mET_Piezo&#45;&gt;cletus</title>
<path fill="none" stroke="black" d="M549.199,-294.821C489.662,-282.292 396.106,-261.018 340.915,-247.506"/>
<polygon fill="black" stroke="black" points="341.62,-244.075 331.073,-245.077 339.943,-250.871 341.62,-244.075"/>
</g>
<!-- ITF&#45;mET_Piezo&#45;&gt;cletus -->
<g id="edge12" class="edge"><title>ITF&#45;mET_Piezo&#45;&gt;cletus</title>
<path fill="none" stroke="black" d="M553.687,-293.597C494.665,-280.14 397.433,-257.969 341.009,-245.104"/>
<polygon fill="black" stroke="black" points="341.494,-241.625 330.967,-242.814 339.938,-248.45 341.494,-241.625"/>
</g>
<!-- ITF&#45;mET_Piezo&#45;&gt;cletus -->
<g id="edge13" class="edge"><title>ITF&#45;mET_Piezo&#45;&gt;cletus</title>
<path fill="none" stroke="black" d="M558.78,-292.324C500.123,-277.977 398.968,-255.042 340.716,-242.992"/>
<polygon fill="black" stroke="black" points="341.205,-239.519 330.706,-240.943 339.801,-246.377 341.205,-239.519"/>
</g>
<!-- tomtom&#45;&gt;ITF&#45;N_cc_motor_pwm -->
<g id="edge29" class="edge"><title>tomtom&#45;&gt;ITF&#45;N_cc_motor_pwm</title>
<path fill="none" stroke="black" d="M367.091,-359.876C353.116,-350.845 336.793,-339.643 323.329,-329.878"/>
<polygon fill="red" stroke="black" points="325.074,-326.817 314.947,-323.706 320.924,-332.454 325.074,-326.817"/>
</g>
<!-- ITF&#45;E_signal_envelope -->
<g id="node9" class="node"><title>ITF&#45;E_signal_envelope</title>
<ellipse fill="yellow" stroke="black" cx="723.696" cy="-450" rx="93.6835" ry="18"/>
<text text-anchor="middle" x="723.696" y="-446.3" font-family="Times,serif" font-size="14.00">ITF&#45;E_signal_envelope</text>
</g>
<!-- ITF&#45;E_signal_envelope&#45;&gt;tomtom -->
<g id="edge18" class="edge"><title>ITF&#45;E_signal_envelope&#45;&gt;tomtom</title>
<path fill="none" stroke="black" d="M657.96,-437.125C596.825,-424.835 507.337,-405.659 450.642,-392.726"/>
<polygon fill="black" stroke="black" points="451.327,-389.293 440.797,-390.467 449.761,-396.115 451.327,-389.293"/>
</g>
<!-- ITF&#45;E_signal_envelope&#45;&gt;tomtom -->
<g id="edge22" class="edge"><title>ITF&#45;E_signal_envelope&#45;&gt;tomtom</title>
<path fill="none" stroke="black" d="M663.522,-436.079C602.604,-422.999 509.299,-402.964 450.977,-390.441"/>
<polygon fill="black" stroke="black" points="451.376,-386.947 440.864,-388.269 449.907,-393.791 451.376,-386.947"/>
</g>
<!-- ITF&#45;E_signal_envelope&#45;&gt;tomtom -->
<g id="edge27" class="edge"><title>ITF&#45;E_signal_envelope&#45;&gt;tomtom</title>
<path fill="none" stroke="black" d="M670.296,-435.17C609.666,-421.347 511.948,-400.467 451.238,-388.44"/>
<polygon fill="black" stroke="black" points="451.575,-384.94 441.087,-386.445 450.225,-391.808 451.575,-384.94"/>
</g>
<!-- ITF&#45;I_pulse_on -->
<g id="node10" class="node"><title>ITF&#45;I_pulse_on</title>
<ellipse fill="yellow" stroke="black" cx="900.696" cy="-450" rx="65.7887" ry="18"/>
<text text-anchor="middle" x="900.696" y="-446.3" font-family="Times,serif" font-size="14.00">ITF&#45;I_pulse_on</text>
</g>
<!-- ITF&#45;I_pulse_on&#45;&gt;tomtom -->
<g id="edge19" class="edge"><title>ITF&#45;I_pulse_on&#45;&gt;tomtom</title>
<path fill="none" stroke="black" d="M846.445,-439.687C833.836,-436.952 820.769,-434.127 808.696,-432 680.848,-409.479 529.899,-393.194 450.997,-385.001"/>
<polygon fill="black" stroke="black" points="451.121,-381.495 440.814,-383.946 450.4,-388.458 451.121,-381.495"/>
</g>
<!-- ITF&#45;I_pulse_on&#45;&gt;tomtom -->
<g id="edge23" class="edge"><title>ITF&#45;I_pulse_on&#45;&gt;tomtom</title>
<path fill="none" stroke="black" d="M853.471,-437.389C844.607,-435.427 835.393,-433.532 826.696,-432 692.208,-408.309 532.158,-391.52 450.836,-383.79"/>
<polygon fill="black" stroke="black" points="451.126,-380.302 440.841,-382.848 450.469,-387.271 451.126,-380.302"/>
</g>
<!-- ITF&#45;I_pulse_on&#45;&gt;tomtom -->
<g id="edge24" class="edge"><title>ITF&#45;I_pulse_on&#45;&gt;tomtom</title>
<path fill="none" stroke="black" d="M862.163,-435.404C856.342,-434.169 850.408,-433.006 844.696,-432 704.218,-407.254 535.85,-390.038 451.08,-382.811"/>
<polygon fill="black" stroke="black" points="451.174,-379.307 440.917,-381.959 450.59,-386.282 451.174,-379.307"/>
</g>
<!-- ITF&#45;J_pulse_off -->
<g id="node11" class="node"><title>ITF&#45;J_pulse_off</title>
<ellipse fill="yellow" stroke="black" cx="297.696" cy="-450" rx="67.6881" ry="18"/>
<text text-anchor="middle" x="297.696" y="-446.3" font-family="Times,serif" font-size="14.00">ITF&#45;J_pulse_off</text>
</g>
<!-- ITF&#45;J_pulse_off&#45;&gt;tomtom -->
<g id="edge25" class="edge"><title>ITF&#45;J_pulse_off&#45;&gt;tomtom</title>
<path fill="none" stroke="black" d="M320.889,-432.765C334.008,-423.581 350.622,-411.951 365.04,-401.859"/>
<polygon fill="black" stroke="black" points="367.048,-404.726 373.233,-396.124 363.033,-398.991 367.048,-404.726"/>
</g>
<!-- ITF&#45;C_amplified_raw_signal -->
<g id="node12" class="node"><title>ITF&#45;C_amplified_raw_signal</title>
<ellipse fill="yellow" stroke="black" cx="497.696" cy="-450" rx="114.28" ry="18"/>
<text text-anchor="middle" x="497.696" y="-446.3" font-family="Times,serif" font-size="14.00">ITF&#45;C_amplified_raw_signal</text>
</g>
<!-- ITF&#45;C_amplified_raw_signal&#45;&gt;tomtom -->
<g id="edge26" class="edge"><title>ITF&#45;C_amplified_raw_signal&#45;&gt;tomtom</title>
<path fill="none" stroke="black" d="M473.743,-432.233C460.823,-423.19 444.685,-411.892 430.603,-402.035"/>
<polygon fill="black" stroke="black" points="432.347,-398.984 422.147,-396.116 428.332,-404.718 432.347,-398.984"/>
</g>
<!-- elmo -->
<g id="node13" class="node"><title>elmo</title>
<polygon fill="blue" stroke="black" points="938.196,-108 877.196,-108 877.196,-72 938.196,-72 938.196,-108"/>
<text text-anchor="middle" x="907.696" y="-84.4" font-family="Times,serif" font-size="22.00">elmo</text>
</g>
<!-- Signal Digitalized -->
<g id="node18" class="node"><title>Signal Digitalized</title>
<ellipse fill="yellow" stroke="black" cx="907.696" cy="-18" rx="74.9875" ry="18"/>
<text text-anchor="middle" x="907.696" y="-14.3" font-family="Times,serif" font-size="14.00">Signal Digitalized</text>
</g>
<!-- elmo&#45;&gt;Signal Digitalized -->
<g id="edge39" class="edge"><title>elmo&#45;&gt;Signal Digitalized</title>
<path fill="none" stroke="black" d="M901.78,-71.6966C900.984,-63.9827 900.758,-54.7125 901.1,-46.1124"/>
<polygon fill="red" stroke="black" points="904.594,-46.3243 901.8,-36.1043 897.611,-45.8356 904.594,-46.3243"/>
</g>
<!-- ITF&#45;1_GND -->
<g id="node14" class="node"><title>ITF&#45;1_GND</title>
<ellipse fill="yellow" stroke="black" cx="836.696" cy="-162" rx="54.6905" ry="18"/>
<text text-anchor="middle" x="836.696" y="-158.3" font-family="Times,serif" font-size="14.00">ITF&#45;1_GND</text>
</g>
<!-- ITF&#45;1_GND&#45;&gt;elmo -->
<g id="edge30" class="edge"><title>ITF&#45;1_GND&#45;&gt;elmo</title>
<path fill="none" stroke="black" d="M848.004,-144.055C855.911,-135.349 866.633,-124.591 876.862,-115.043"/>
<polygon fill="black" stroke="black" points="879.513,-117.362 884.533,-108.032 874.791,-112.195 879.513,-117.362"/>
</g>
<!-- ITF&#45;1_GND&#45;&gt;elmo -->
<g id="edge34" class="edge"><title>ITF&#45;1_GND&#45;&gt;elmo</title>
<path fill="none" stroke="black" d="M858.567,-145.116C868.347,-136.458 879.654,-125.55 889.031,-115.799"/>
<polygon fill="black" stroke="black" points="891.783,-117.981 896.071,-108.292 886.677,-113.192 891.783,-117.981"/>
</g>
<!-- goblin -->
<g id="node19" class="node"><title>goblin</title>
<polygon fill="blue" stroke="black" points="1536.7,-108 1462.7,-108 1462.7,-72 1536.7,-72 1536.7,-108"/>
<text text-anchor="middle" x="1499.7" y="-84.4" font-family="Times,serif" font-size="22.00">goblin</text>
</g>
<!-- ITF&#45;1_GND&#45;&gt;goblin -->
<g id="edge40" class="edge"><title>ITF&#45;1_GND&#45;&gt;goblin</title>
<path fill="none" stroke="black" d="M871.627,-148.117C877.921,-146.547 884.449,-145.11 890.696,-144 1097.49,-107.259 1349.13,-95.5453 1452.3,-92.2038"/>
<polygon fill="black" stroke="black" points="1452.51,-95.6991 1462.39,-91.8885 1452.29,-88.7025 1452.51,-95.6991"/>
</g>
<!-- ITF&#45;1_GND&#45;&gt;goblin -->
<g id="edge47" class="edge"><title>ITF&#45;1_GND&#45;&gt;goblin</title>
<path fill="none" stroke="black" d="M879.451,-150.633C889.084,-148.125 899.215,-145.684 908.696,-144 1109.07,-108.4 1351.54,-96.2972 1452.35,-92.54"/>
<polygon fill="black" stroke="black" points="1452.65,-96.0316 1462.51,-92.1718 1452.39,-89.0362 1452.65,-96.0316"/>
</g>
<!-- ITF&#45;1_GND&#45;&gt;tobo -->
<g id="edge58" class="edge"><title>ITF&#45;1_GND&#45;&gt;tobo</title>
<path fill="none" stroke="black" d="M798.23,-149.125C763.568,-137.41 713.075,-119.437 678.594,-106.58"/>
<polygon fill="black" stroke="black" points="679.473,-103.172 668.881,-102.933 677.013,-109.725 679.473,-103.172"/>
</g>
<!-- ITF&#45;1_GND&#45;&gt;tobo -->
<g id="edge64" class="edge"><title>ITF&#45;1_GND&#45;&gt;tobo</title>
<path fill="none" stroke="black" d="M803.92,-147.337C769.349,-134.354 715.163,-115.035 678.737,-102.731"/>
<polygon fill="black" stroke="black" points="679.56,-99.3156 668.966,-99.4581 677.336,-105.953 679.56,-99.3156"/>
</g>
<!-- ITF&#45;2_VDD_5V -->
<g id="node15" class="node"><title>ITF&#45;2_VDD_5V</title>
<ellipse fill="yellow" stroke="black" cx="978.696" cy="-162" rx="69.5877" ry="18"/>
<text text-anchor="middle" x="978.696" y="-158.3" font-family="Times,serif" font-size="14.00">ITF&#45;2_VDD_5V</text>
</g>
<!-- ITF&#45;2_VDD_5V&#45;&gt;elmo -->
<g id="edge31" class="edge"><title>ITF&#45;2_VDD_5V&#45;&gt;elmo</title>
<path fill="none" stroke="black" d="M956.427,-144.765C946.663,-136.096 935.434,-125.248 926.14,-115.57"/>
<polygon fill="black" stroke="black" points="928.557,-113.03 919.167,-108.124 923.448,-117.815 928.557,-113.03"/>
</g>
<!-- ITF&#45;2_VDD_5V&#45;&gt;elmo -->
<g id="edge35" class="edge"><title>ITF&#45;2_VDD_5V&#45;&gt;elmo</title>
<path fill="none" stroke="black" d="M967.387,-144.055C959.48,-135.349 948.758,-124.591 938.529,-115.043"/>
<polygon fill="black" stroke="black" points="940.6,-112.195 930.858,-108.032 935.878,-117.362 940.6,-112.195"/>
</g>
<!-- ITF&#45;2_VDD_5V&#45;&gt;goblin -->
<g id="edge41" class="edge"><title>ITF&#45;2_VDD_5V&#45;&gt;goblin</title>
<path fill="none" stroke="black" d="M1024.63,-148.358C1032.29,-146.772 1040.18,-145.266 1047.7,-144 1194.2,-119.33 1369.84,-101.876 1452.51,-94.6735"/>
<polygon fill="black" stroke="black" points="1452.93,-98.15 1462.6,-93.8058 1452.33,-91.1758 1452.93,-98.15"/>
</g>
<!-- ITF&#45;2_VDD_5V&#45;&gt;goblin -->
<g id="edge48" class="edge"><title>ITF&#45;2_VDD_5V&#45;&gt;goblin</title>
<path fill="none" stroke="black" d="M1032.25,-150.465C1043.34,-148.133 1054.9,-145.818 1065.7,-144 1205.68,-120.426 1372.28,-103.442 1452.34,-95.6945"/>
<polygon fill="black" stroke="black" points="1452.97,-99.15 1462.59,-94.707 1452.3,-92.1822 1452.97,-99.15"/>
</g>
<!-- ITF&#45;2_VDD_5V&#45;&gt;tobo -->
<g id="edge59" class="edge"><title>ITF&#45;2_VDD_5V&#45;&gt;tobo</title>
<path fill="none" stroke="black" d="M923.759,-150.829C913.064,-148.555 902.002,-146.174 891.696,-144 816.158,-128.07 728.102,-110.285 678.81,-99.8992"/>
<polygon fill="black" stroke="black" points="679.407,-96.4481 668.899,-97.7987 677.956,-103.296 679.407,-96.4481"/>
</g>
<!-- ITF&#45;2_VDD_5V&#45;&gt;tobo -->
<g id="edge65" class="edge"><title>ITF&#45;2_VDD_5V&#45;&gt;tobo</title>
<path fill="none" stroke="black" d="M931.401,-148.652C924.153,-147.072 916.747,-145.487 909.696,-144 827.714,-126.711 730.988,-107.237 678.62,-97.4088"/>
<polygon fill="black" stroke="black" points="679.226,-93.9617 668.755,-95.5753 677.947,-100.844 679.226,-93.9617"/>
</g>
<!-- ITF&#45;19_3.3V -->
<g id="node16" class="node"><title>ITF&#45;19_3.3V</title>
<ellipse fill="yellow" stroke="black" cx="706.696" cy="-162" rx="57.6901" ry="18"/>
<text text-anchor="middle" x="706.696" y="-158.3" font-family="Times,serif" font-size="14.00">ITF&#45;19_3.3V</text>
</g>
<!-- ITF&#45;19_3.3V&#45;&gt;elmo -->
<g id="edge32" class="edge"><title>ITF&#45;19_3.3V&#45;&gt;elmo</title>
<path fill="none" stroke="black" d="M740.447,-147.337C775.498,-134.517 830.114,-115.521 867.396,-103.2"/>
<polygon fill="black" stroke="black" points="868.539,-106.509 876.95,-100.066 866.357,-99.8575 868.539,-106.509"/>
</g>
<!-- ITF&#45;19_3.3V&#45;&gt;elmo -->
<g id="edge36" class="edge"><title>ITF&#45;19_3.3V&#45;&gt;elmo</title>
<path fill="none" stroke="black" d="M746.974,-148.807C782.076,-137.206 832.556,-119.685 867.6,-106.973"/>
<polygon fill="black" stroke="black" points="868.855,-110.241 877.049,-103.525 866.455,-103.665 868.855,-110.241"/>
</g>
<!-- ITF&#45;19_3.3V&#45;&gt;tobo -->
<g id="edge62" class="edge"><title>ITF&#45;19_3.3V&#45;&gt;tobo</title>
<path fill="none" stroke="black" d="M685.958,-145.116C676.888,-136.544 666.478,-125.766 657.847,-116.089"/>
<polygon fill="black" stroke="black" points="660.281,-113.553 651.085,-108.292 654.993,-118.14 660.281,-113.553"/>
</g>
<!-- ITF&#45;19_3.3V&#45;&gt;tobo -->
<g id="edge68" class="edge"><title>ITF&#45;19_3.3V&#45;&gt;tobo</title>
<path fill="none" stroke="black" d="M696.597,-144.055C689.313,-135.349 679.359,-124.591 669.812,-115.043"/>
<polygon fill="black" stroke="black" points="672.238,-112.521 662.641,-108.032 667.344,-117.525 672.238,-112.521"/>
</g>
<!-- ITF&#45;12_RPIn -->
<g id="node17" class="node"><title>ITF&#45;12_RPIn</title>
<ellipse fill="yellow" stroke="black" cx="1123.7" cy="-162" rx="57.6901" ry="18"/>
<text text-anchor="middle" x="1123.7" y="-158.3" font-family="Times,serif" font-size="14.00">ITF&#45;12_RPIn</text>
</g>
<!-- ITF&#45;12_RPIn&#45;&gt;elmo -->
<g id="edge33" class="edge"><title>ITF&#45;12_RPIn&#45;&gt;elmo</title>
<path fill="none" stroke="black" d="M1082.35,-149.284C1043.73,-137.386 986.592,-118.92 948.234,-105.969"/>
<polygon fill="black" stroke="black" points="949.022,-102.54 938.428,-102.638 946.771,-109.168 949.022,-102.54"/>
</g>
<!-- ITF&#45;12_RPIn&#45;&gt;elmo -->
<g id="edge37" class="edge"><title>ITF&#45;12_RPIn&#45;&gt;elmo</title>
<path fill="none" stroke="black" d="M1087.99,-147.669C1049.44,-134.577 988.372,-114.817 948.095,-102.425"/>
<polygon fill="black" stroke="black" points="948.916,-99.0163 938.329,-99.442 946.87,-105.711 948.916,-99.0163"/>
</g>
<!-- Signal Digitalized&#45;&gt;elmo -->
<g id="edge38" class="edge"><title>Signal Digitalized&#45;&gt;elmo</title>
<path fill="none" stroke="black" d="M913.591,-36.1043C914.396,-43.7913 914.632,-53.0537 914.3,-61.6651"/>
<polygon fill="black" stroke="black" points="910.804,-61.4805 913.611,-71.6966 917.788,-61.9597 910.804,-61.4805"/>
</g>
<!-- ITF&#45;mEG_SPI -->
<g id="node26" class="node"><title>ITF&#45;mEG_SPI</title>
<ellipse fill="green" stroke="black" cx="1499.7" cy="-18" rx="63.0888" ry="18"/>
<text text-anchor="middle" x="1499.7" y="-14.3" font-family="Times,serif" font-size="14.00">ITF&#45;mEG_SPI</text>
</g>
<!-- goblin&#45;&gt;ITF&#45;mEG_SPI -->
<g id="edge57" class="edge"><title>goblin&#45;&gt;ITF&#45;mEG_SPI</title>
<path fill="none" stroke="black" d="M1493.78,-71.6966C1492.98,-63.9827 1492.76,-54.7125 1493.1,-46.1124"/>
<polygon fill="red" stroke="black" points="1496.59,-46.3243 1493.8,-36.1043 1489.61,-45.8356 1496.59,-46.3243"/>
</g>
<!-- ITF&#45;7_GAIN -->
<g id="node20" class="node"><title>ITF&#45;7_GAIN</title>
<ellipse fill="yellow" stroke="black" cx="1791.7" cy="-162" rx="57.6901" ry="18"/>
<text text-anchor="middle" x="1791.7" y="-158.3" font-family="Times,serif" font-size="14.00">ITF&#45;7_GAIN</text>
</g>
<!-- ITF&#45;7_GAIN&#45;&gt;goblin -->
<g id="edge42" class="edge"><title>ITF&#45;7_GAIN&#45;&gt;goblin</title>
<path fill="none" stroke="black" d="M1745.1,-151.267C1735.31,-148.86 1725.14,-146.31 1715.7,-144 1657.47,-129.757 1590.59,-114.092 1546.77,-103.513"/>
<polygon fill="black" stroke="black" points="1547.51,-100.09 1536.96,-101.136 1545.86,-106.893 1547.51,-100.09"/>
</g>
<!-- ITF&#45;7_GAIN&#45;&gt;goblin -->
<g id="edge49" class="edge"><title>ITF&#45;7_GAIN&#45;&gt;goblin</title>
<path fill="none" stroke="black" d="M1752.34,-148.644C1746.12,-147.065 1739.76,-145.483 1733.7,-144 1669.41,-128.275 1594.59,-110.818 1547.07,-100.384"/>
<polygon fill="black" stroke="black" points="1547.58,-96.9136 1537.06,-98.2044 1546.09,-103.753 1547.58,-96.9136"/>
</g>
<!-- ITF&#45;4_RawSig -->
<g id="node21" class="node"><title>ITF&#45;4_RawSig</title>
<ellipse fill="yellow" stroke="black" cx="1931.7" cy="-162" rx="63.8893" ry="18"/>
<text text-anchor="middle" x="1931.7" y="-158.3" font-family="Times,serif" font-size="14.00">ITF&#45;4_RawSig</text>
</g>
<!-- ITF&#45;4_RawSig&#45;&gt;goblin -->
<g id="edge43" class="edge"><title>ITF&#45;4_RawSig&#45;&gt;goblin</title>
<path fill="none" stroke="black" d="M1878.32,-151.935C1865.75,-149.181 1852.71,-146.282 1840.7,-144 1736.12,-124.138 1613.2,-107.407 1546.88,-98.326"/>
<polygon fill="black" stroke="black" points="1547.12,-94.8257 1536.74,-96.9349 1546.17,-101.761 1547.12,-94.8257"/>
</g>
<!-- ITF&#45;4_RawSig&#45;&gt;goblin -->
<g id="edge50" class="edge"><title>ITF&#45;4_RawSig&#45;&gt;goblin</title>
<path fill="none" stroke="black" d="M1885.08,-149.544C1876.34,-147.566 1867.26,-145.627 1858.7,-144 1747.57,-122.895 1615.75,-105.325 1546.91,-96.7122"/>
<polygon fill="black" stroke="black" points="1547.17,-93.2181 1536.82,-95.4573 1546.31,-100.165 1547.17,-93.2181"/>
</g>
<!-- ITF&#45;4_RawSig&#45;&gt;goblin -->
<g id="edge54" class="edge"><title>ITF&#45;4_RawSig&#45;&gt;goblin</title>
<path fill="none" stroke="black" d="M1893.51,-147.446C1887.9,-146.217 1882.19,-145.044 1876.7,-144 1759.59,-121.76 1619.5,-103.445 1547.09,-95.4003"/>
<polygon fill="black" stroke="black" points="1547.23,-91.8948 1536.91,-94.2887 1546.47,-98.8535 1547.23,-91.8948"/>
</g>
<!-- ITF&#45;3_ENV -->
<g id="node22" class="node"><title>ITF&#45;3_ENV</title>
<ellipse fill="yellow" stroke="black" cx="2067.7" cy="-162" rx="53.8905" ry="18"/>
<text text-anchor="middle" x="2067.7" y="-158.3" font-family="Times,serif" font-size="14.00">ITF&#45;3_ENV</text>
</g>
<!-- ITF&#45;3_ENV&#45;&gt;goblin -->
<g id="edge44" class="edge"><title>ITF&#45;3_ENV&#45;&gt;goblin</title>
<path fill="none" stroke="black" d="M2025.26,-150.826C2015.53,-148.287 2005.27,-145.783 1995.7,-144 1832.3,-113.58 1635.67,-99.2204 1546.98,-93.7645"/>
<polygon fill="black" stroke="black" points="1547.15,-90.2688 1536.96,-93.1579 1546.73,-97.256 1547.15,-90.2688"/>
</g>
<!-- ITF&#45;3_ENV&#45;&gt;goblin -->
<g id="edge51" class="edge"><title>ITF&#45;3_ENV&#45;&gt;goblin</title>
<path fill="none" stroke="black" d="M2032.75,-148.211C2026.46,-146.628 2019.93,-145.161 2013.7,-144 1843.88,-112.384 1638.16,-98.116 1546.95,-93.1618"/>
<polygon fill="black" stroke="black" points="1547.1,-89.6647 1536.93,-92.6301 1546.73,-96.6549 1547.1,-89.6647"/>
</g>
<!-- ITF&#45;18_Raw -->
<g id="node23" class="node"><title>ITF&#45;18_Raw</title>
<ellipse fill="yellow" stroke="black" cx="1255.7" cy="-162" rx="55.7903" ry="18"/>
<text text-anchor="middle" x="1255.7" y="-158.3" font-family="Times,serif" font-size="14.00">ITF&#45;18_Raw</text>
</g>
<!-- ITF&#45;18_Raw&#45;&gt;goblin -->
<g id="edge45" class="edge"><title>ITF&#45;18_Raw&#45;&gt;goblin</title>
<path fill="none" stroke="black" d="M1293.46,-148.647C1336.37,-135.775 1406.21,-115.743 1452.62,-103.003"/>
<polygon fill="black" stroke="black" points="1453.71,-106.333 1462.43,-100.323 1451.87,-99.5808 1453.71,-106.333"/>
</g>
<!-- ITF&#45;18_Raw&#45;&gt;goblin -->
<g id="edge52" class="edge"><title>ITF&#45;18_Raw&#45;&gt;goblin</title>
<path fill="none" stroke="black" d="M1298.32,-150.216C1341.51,-138.414 1407.97,-119.408 1452.66,-106.121"/>
<polygon fill="black" stroke="black" points="1453.83,-109.425 1462.41,-103.21 1451.82,-102.718 1453.83,-109.425"/>
</g>
<!-- ITF&#45;18_Raw&#45;&gt;tobo -->
<g id="edge70" class="edge"><title>ITF&#45;18_Raw&#45;&gt;tobo</title>
<path fill="none" stroke="black" d="M1215.35,-149.381C1207.24,-147.348 1198.73,-145.429 1190.7,-144 1091.87,-126.43 787.051,-102.167 679.088,-93.8957"/>
<polygon fill="black" stroke="black" points="679.21,-90.3949 668.972,-93.1235 678.677,-97.3746 679.21,-90.3949"/>
</g>
<!-- ITF&#45;mET_SMA -->
<g id="node24" class="node"><title>ITF&#45;mET_SMA</title>
<ellipse fill="green" stroke="black" cx="1398.7" cy="-162" rx="68.7879" ry="18"/>
<text text-anchor="middle" x="1398.7" y="-158.3" font-family="Times,serif" font-size="14.00">ITF&#45;mET_SMA</text>
</g>
<!-- ITF&#45;mET_SMA&#45;&gt;goblin -->
<g id="edge46" class="edge"><title>ITF&#45;mET_SMA&#45;&gt;goblin</title>
<path fill="none" stroke="black" d="M1416.79,-144.411C1428.96,-135.286 1445.32,-123.827 1460.33,-113.865"/>
<polygon fill="black" stroke="black" points="1462.53,-116.61 1468.97,-108.201 1458.69,-110.755 1462.53,-116.61"/>
</g>
<!-- ITF&#45;mET_SMA&#45;&gt;goblin -->
<g id="edge53" class="edge"><title>ITF&#45;mET_SMA&#45;&gt;goblin</title>
<path fill="none" stroke="black" d="M1426.83,-145.465C1441.1,-136.325 1458.26,-124.589 1472.41,-114.354"/>
<polygon fill="black" stroke="black" points="1474.78,-116.951 1480.77,-108.211 1470.64,-111.31 1474.78,-116.951"/>
</g>
<!-- ITF&#45;mET_SMA&#45;&gt;tobo -->
<g id="edge71" class="edge"><title>ITF&#45;mET_SMA&#45;&gt;tobo</title>
<path fill="none" stroke="black" d="M1349.79,-149.269C1340.18,-147.27 1330.16,-145.393 1320.7,-144 1288.76,-139.298 817.813,-104.149 678.954,-93.8362"/>
<polygon fill="black" stroke="black" points="679.023,-90.3318 668.792,-93.0817 678.505,-97.3126 679.023,-90.3318"/>
</g>
<!-- ITF&#45;3_ENV_signal_envelope -->
<g id="node25" class="node"><title>ITF&#45;3_ENV_signal_envelope</title>
<ellipse fill="yellow" stroke="black" cx="1600.7" cy="-162" rx="115.08" ry="18"/>
<text text-anchor="middle" x="1600.7" y="-158.3" font-family="Times,serif" font-size="14.00">ITF&#45;3_ENV_signal_envelope</text>
</g>
<!-- ITF&#45;3_ENV_signal_envelope&#45;&gt;goblin -->
<g id="edge55" class="edge"><title>ITF&#45;3_ENV_signal_envelope&#45;&gt;goblin</title>
<path fill="none" stroke="black" d="M1576.5,-144.233C1563.45,-135.19 1547.15,-123.892 1532.93,-114.035"/>
<polygon fill="black" stroke="black" points="1534.6,-110.936 1524.39,-108.116 1530.62,-116.689 1534.6,-110.936"/>
</g>
<!-- ITF&#45;mEG_SPI&#45;&gt;goblin -->
<g id="edge56" class="edge"><title>ITF&#45;mEG_SPI&#45;&gt;goblin</title>
<path fill="none" stroke="black" d="M1505.59,-36.1043C1506.4,-43.7913 1506.63,-53.0537 1506.3,-61.6651"/>
<polygon fill="black" stroke="black" points="1502.8,-61.4805 1505.61,-71.6966 1509.79,-61.9597 1502.8,-61.4805"/>
</g>
<!-- tobo&#45;&gt;ITF&#45;mET_Transducer -->
<g id="edge73" class="edge"><title>tobo&#45;&gt;ITF&#45;mET_Transducer</title>
<path fill="none" stroke="black" d="M612.245,-99.6095C559.854,-111.847 449.979,-134.349 374.355,-148.446"/>
<polygon fill="red" stroke="black" points="373.58,-145.03 364.384,-150.292 374.854,-151.913 373.58,-145.03"/>
</g>
<!-- ITF&#45;9_Pon -->
<g id="node28" class="node"><title>ITF&#45;9_Pon</title>
<ellipse fill="yellow" stroke="black" cx="452.696" cy="-162" rx="49.2915" ry="18"/>
<text text-anchor="middle" x="452.696" y="-158.3" font-family="Times,serif" font-size="14.00">ITF&#45;9_Pon</text>
</g>
<!-- ITF&#45;9_Pon&#45;&gt;tobo -->
<g id="edge60" class="edge"><title>ITF&#45;9_Pon&#45;&gt;tobo</title>
<path fill="none" stroke="black" d="M483.065,-147.669C515.82,-134.797 567.767,-115.479 603.073,-103.055"/>
<polygon fill="black" stroke="black" points="604.271,-106.344 612.56,-99.7452 601.965,-99.7349 604.271,-106.344"/>
</g>
<!-- ITF&#45;9_Pon&#45;&gt;tobo -->
<g id="edge66" class="edge"><title>ITF&#45;9_Pon&#45;&gt;tobo</title>
<path fill="none" stroke="black" d="M488.906,-149.441C521.826,-137.884 570.021,-120.016 603.296,-107.079"/>
<polygon fill="black" stroke="black" points="604.649,-110.308 612.685,-103.402 602.097,-103.789 604.649,-110.308"/>
</g>
<!-- ITF&#45;10_Poff -->
<g id="node29" class="node"><title>ITF&#45;10_Poff</title>
<ellipse fill="yellow" stroke="black" cx="575.696" cy="-162" rx="55.4913" ry="18"/>
<text text-anchor="middle" x="575.696" y="-158.3" font-family="Times,serif" font-size="14.00">ITF&#45;10_Poff</text>
</g>
<!-- ITF&#45;10_Poff&#45;&gt;tobo -->
<g id="edge61" class="edge"><title>ITF&#45;10_Poff&#45;&gt;tobo</title>
<path fill="none" stroke="black" d="M585.552,-144.055C592.642,-135.435 602.32,-124.802 611.646,-115.324"/>
<polygon fill="black" stroke="black" points="614.361,-117.56 618.993,-108.032 609.43,-112.592 614.361,-117.56"/>
</g>
<!-- ITF&#45;10_Poff&#45;&gt;tobo -->
<g id="edge67" class="edge"><title>ITF&#45;10_Poff&#45;&gt;tobo</title>
<path fill="none" stroke="black" d="M596.206,-145.116C605.154,-136.544 615.41,-125.766 623.902,-116.089"/>
<polygon fill="black" stroke="black" points="626.726,-118.172 630.553,-108.292 621.4,-113.629 626.726,-118.172"/>
</g>
</g>
</svg>
