<?xml version="1.0" encoding="UTF-8" standalone="no"?>
<!DOCTYPE svg PUBLIC "-//W3C//DTD SVG 1.1//EN"
 "http://www.w3.org/Graphics/SVG/1.1/DTD/svg11.dtd">
<!-- Generated by graphviz version 2.38.0 (20140413.2041)
 -->
<!-- Title: %3 Pages: 1 -->
<svg width="2887pt" height="332pt"
 viewBox="0.00 0.00 2886.74 332.00" xmlns="http://www.w3.org/2000/svg" xmlns:xlink="http://www.w3.org/1999/xlink">
<g id="graph0" class="graph" transform="scale(1 1) rotate(0) translate(4 328)">
<title>%3</title>
<polygon fill="white" stroke="none" points="-4,4 -4,-328 2882.74,-328 2882.74,4 -4,4"/>
<!-- cletus -->
<g id="node1" class="node"><title>cletus</title>
<polygon fill="blue" stroke="black" points="357.696,-252 289.696,-252 289.696,-216 357.696,-216 357.696,-252"/>
<text text-anchor="middle" x="323.696" y="-228.4" font-family="Times,serif" font-size="22.00">cletus</text>
</g>
<!-- ITF&#45;mET_Transducer -->
<g id="node6" class="node"><title>ITF&#45;mET_Transducer</title>
<ellipse fill="green" stroke="black" cx="323.696" cy="-162" rx="89.0842" ry="18"/>
<text text-anchor="middle" x="323.696" y="-158.3" font-family="Times,serif" font-size="14.00">ITF&#45;mET_Transducer</text>
</g>
<!-- cletus&#45;&gt;ITF&#45;mET_Transducer -->
<g id="edge15" class="edge"><title>cletus&#45;&gt;ITF&#45;mET_Transducer</title>
<path fill="none" stroke="black" d="M305.948,-215.697C303.561,-207.983 302.882,-198.712 303.91,-190.112"/>
<polygon fill="red" stroke="black" points="307.381,-190.61 306.01,-180.104 300.531,-189.172 307.381,-190.61"/>
</g>
<!-- ITF&#45;A_gnd -->
<g id="node2" class="node"><title>ITF&#45;A_gnd</title>
<ellipse fill="yellow" stroke="black" cx="50.6955" cy="-306" rx="50.8918" ry="18"/>
<text text-anchor="middle" x="50.6955" y="-302.3" font-family="Times,serif" font-size="14.00">ITF&#45;A_gnd</text>
</g>
<!-- ITF&#45;A_gnd&#45;&gt;cletus -->
<g id="edge1" class="edge"><title>ITF&#45;A_gnd&#45;&gt;cletus</title>
<path fill="none" stroke="black" d="M84.9852,-292.576C90.5488,-291.008 96.2548,-289.447 101.696,-288 162.979,-271.698 234.595,-254.194 279.686,-243.94"/>
<polygon fill="black" stroke="black" points="280.459,-247.353 289.445,-241.741 278.92,-240.524 280.459,-247.353"/>
</g>
<!-- ITF&#45;A_gnd&#45;&gt;cletus -->
<g id="edge7" class="edge"><title>ITF&#45;A_gnd&#45;&gt;cletus</title>
<path fill="none" stroke="black" d="M92.0103,-295.545C101.2,-293.035 110.802,-290.366 119.696,-288 174.81,-273.339 238.28,-257.706 279.702,-247.249"/>
<polygon fill="black" stroke="black" points="280.647,-250.62 289.481,-244.771 278.928,-243.834 280.647,-250.62"/>
</g>
<!-- ITF&#45;B_5v -->
<g id="node3" class="node"><title>ITF&#45;B_5v</title>
<ellipse fill="yellow" stroke="black" cx="165.696" cy="-306" rx="46.2923" ry="18"/>
<text text-anchor="middle" x="165.696" y="-302.3" font-family="Times,serif" font-size="14.00">ITF&#45;B_5v</text>
</g>
<!-- ITF&#45;B_5v&#45;&gt;cletus -->
<g id="edge2" class="edge"><title>ITF&#45;B_5v&#45;&gt;cletus</title>
<path fill="none" stroke="black" d="M191.763,-291.003C215.816,-279.675 251.787,-263.691 280.157,-251.697"/>
<polygon fill="black" stroke="black" points="281.591,-254.891 289.459,-247.795 278.883,-248.436 281.591,-254.891"/>
</g>
<!-- ITF&#45;B_5v&#45;&gt;cletus -->
<g id="edge8" class="edge"><title>ITF&#45;B_5v&#45;&gt;cletus</title>
<path fill="none" stroke="black" d="M198.099,-292.967C222.299,-282.94 255.437,-268.411 281.651,-256.408"/>
<polygon fill="black" stroke="black" points="283.35,-259.478 290.966,-252.113 280.419,-253.122 283.35,-259.478"/>
</g>
<!-- ITF&#45;N_cc_motor_pwm -->
<g id="node4" class="node"><title>ITF&#45;N_cc_motor_pwm</title>
<ellipse fill="yellow" stroke="black" cx="323.696" cy="-306" rx="93.6835" ry="18"/>
<text text-anchor="middle" x="323.696" y="-302.3" font-family="Times,serif" font-size="14.00">ITF&#45;N_cc_motor_pwm</text>
</g>
<!-- ITF&#45;N_cc_motor_pwm&#45;&gt;cletus -->
<g id="edge3" class="edge"><title>ITF&#45;N_cc_motor_pwm&#45;&gt;cletus</title>
<path fill="none" stroke="black" d="M317.78,-287.697C316.984,-279.983 316.758,-270.712 317.1,-262.112"/>
<polygon fill="black" stroke="black" points="320.594,-262.324 317.8,-252.104 313.611,-261.836 320.594,-262.324"/>
</g>
<!-- ITF&#45;N_cc_motor_pwm&#45;&gt;cletus -->
<g id="edge9" class="edge"><title>ITF&#45;N_cc_motor_pwm&#45;&gt;cletus</title>
<path fill="none" stroke="black" d="M329.611,-287.697C330.407,-279.983 330.633,-270.712 330.291,-262.112"/>
<polygon fill="black" stroke="black" points="333.78,-261.836 329.591,-252.104 326.797,-262.324 333.78,-261.836"/>
</g>
<!-- ITF&#45;S_3_3v -->
<g id="node5" class="node"><title>ITF&#45;S_3_3v</title>
<ellipse fill="yellow" stroke="black" cx="489.696" cy="-306" rx="53.8905" ry="18"/>
<text text-anchor="middle" x="489.696" y="-302.3" font-family="Times,serif" font-size="14.00">ITF&#45;S_3_3v</text>
</g>
<!-- ITF&#45;S_3_3v&#45;&gt;cletus -->
<g id="edge4" class="edge"><title>ITF&#45;S_3_3v&#45;&gt;cletus</title>
<path fill="none" stroke="black" d="M454.294,-292.324C428.805,-282.209 394.393,-267.825 367.242,-255.996"/>
<polygon fill="black" stroke="black" points="368.531,-252.74 357.967,-251.93 365.72,-259.151 368.531,-252.74"/>
</g>
<!-- ITF&#45;S_3_3v&#45;&gt;cletus -->
<g id="edge10" class="edge"><title>ITF&#45;S_3_3v&#45;&gt;cletus</title>
<path fill="none" stroke="black" d="M461.273,-290.666C435.388,-279.116 396.972,-262.889 367.247,-250.933"/>
<polygon fill="black" stroke="black" points="368.513,-247.67 357.928,-247.213 365.917,-254.171 368.513,-247.67"/>
</g>
<!-- ITF&#45;mET_Transducer&#45;&gt;cletus -->
<g id="edge5" class="edge"><title>ITF&#45;mET_Transducer&#45;&gt;cletus</title>
<path fill="none" stroke="black" d="M317.8,-180.104C316.995,-187.791 316.759,-197.054 317.091,-205.665"/>
<polygon fill="black" stroke="black" points="313.603,-205.96 317.78,-215.697 320.587,-205.48 313.603,-205.96"/>
</g>
<!-- ITF&#45;mET_Transducer&#45;&gt;cletus -->
<g id="edge11" class="edge"><title>ITF&#45;mET_Transducer&#45;&gt;cletus</title>
<path fill="none" stroke="black" d="M329.591,-180.104C330.396,-187.791 330.632,-197.054 330.3,-205.665"/>
<polygon fill="black" stroke="black" points="326.804,-205.48 329.611,-215.697 333.788,-205.96 326.804,-205.48"/>
</g>
<!-- ITF&#45;mET_Transducer&#45;&gt;cletus -->
<g id="edge14" class="edge"><title>ITF&#45;mET_Transducer&#45;&gt;cletus</title>
<path fill="none" stroke="black" d="M341.381,-180.104C343.797,-187.791 344.506,-197.054 343.508,-205.665"/>
<polygon fill="black" stroke="black" points="340.031,-205.196 341.443,-215.697 346.887,-206.608 340.031,-205.196"/>
</g>
<!-- tobo -->
<g id="node29" class="node"><title>tobo</title>
<polygon fill="blue" stroke="black" points="695.696,-108 639.696,-108 639.696,-72 695.696,-72 695.696,-108"/>
<text text-anchor="middle" x="667.696" y="-84.4" font-family="Times,serif" font-size="22.00">tobo</text>
</g>
<!-- ITF&#45;mET_Transducer&#45;&gt;tobo -->
<g id="edge64" class="edge"><title>ITF&#45;mET_Transducer&#45;&gt;tobo</title>
<path fill="none" stroke="black" d="M374.771,-147.254C444.776,-131.715 567.026,-107.18 629.758,-96.3921"/>
<polygon fill="black" stroke="black" points="630.384,-99.8362 639.662,-94.7222 629.22,-92.9336 630.384,-99.8362"/>
</g>
<!-- ITF&#45;mET_Transducer&#45;&gt;tobo -->
<g id="edge70" class="edge"><title>ITF&#45;mET_Transducer&#45;&gt;tobo</title>
<path fill="none" stroke="black" d="M381.426,-148.161C452.047,-133.348 569.43,-109.54 629.656,-97.8815"/>
<polygon fill="black" stroke="black" points="630.356,-101.311 639.514,-95.9842 629.033,-94.4372 630.356,-101.311"/>
</g>
<!-- ITF&#45;mET_Transducer&#45;&gt;tobo -->
<g id="edge73" class="edge"><title>ITF&#45;mET_Transducer&#45;&gt;tobo</title>
<path fill="none" stroke="black" d="M386.866,-149.205C457.922,-135.2 570.886,-112.175 629.602,-99.6953"/>
<polygon fill="black" stroke="black" points="630.523,-103.078 639.571,-97.5656 629.061,-96.2321 630.523,-103.078"/>
</g>
<!-- ITF&#45;mET_Piezo -->
<g id="node7" class="node"><title>ITF&#45;mET_Piezo</title>
<ellipse fill="green" stroke="black" cx="630.696" cy="-306" rx="68.7879" ry="18"/>
<text text-anchor="middle" x="630.696" y="-302.3" font-family="Times,serif" font-size="14.00">ITF&#45;mET_Piezo</text>
</g>
<!-- ITF&#45;mET_Piezo&#45;&gt;cletus -->
<g id="edge6" class="edge"><title>ITF&#45;mET_Piezo&#45;&gt;cletus</title>
<path fill="none" stroke="black" d="M576.199,-294.821C516.662,-282.292 423.106,-261.018 367.915,-247.506"/>
<polygon fill="black" stroke="black" points="368.62,-244.075 358.073,-245.077 366.943,-250.871 368.62,-244.075"/>
</g>
<!-- ITF&#45;mET_Piezo&#45;&gt;cletus -->
<g id="edge12" class="edge"><title>ITF&#45;mET_Piezo&#45;&gt;cletus</title>
<path fill="none" stroke="black" d="M580.687,-293.597C521.665,-280.14 424.433,-257.969 368.009,-245.104"/>
<polygon fill="black" stroke="black" points="368.494,-241.625 357.967,-242.814 366.938,-248.45 368.494,-241.625"/>
</g>
<!-- ITF&#45;mET_Piezo&#45;&gt;cletus -->
<g id="edge13" class="edge"><title>ITF&#45;mET_Piezo&#45;&gt;cletus</title>
<path fill="none" stroke="black" d="M585.78,-292.324C527.123,-277.977 425.968,-255.042 367.716,-242.992"/>
<polygon fill="black" stroke="black" points="368.205,-239.519 357.706,-240.943 366.801,-246.377 368.205,-239.519"/>
</g>
<!-- tomtom -->
<g id="node8" class="node"><title>tomtom</title>
<polygon fill="blue" stroke="black" points="1476.7,-108 1390.7,-108 1390.7,-72 1476.7,-72 1476.7,-108"/>
<text text-anchor="middle" x="1433.7" y="-84.4" font-family="Times,serif" font-size="22.00">tomtom</text>
</g>
<!-- Wifi -->
<g id="node17" class="node"><title>Wifi</title>
<ellipse fill="yellow" stroke="black" cx="1433.7" cy="-18" rx="27.0966" ry="18"/>
<text text-anchor="middle" x="1433.7" y="-14.3" font-family="Times,serif" font-size="14.00">Wifi</text>
</g>
<!-- tomtom&#45;&gt;Wifi -->
<g id="edge30" class="edge"><title>tomtom&#45;&gt;Wifi</title>
<path fill="none" stroke="black" d="M1427.78,-71.6966C1426.97,-63.8676 1426.75,-54.4354 1427.12,-45.7278"/>
<polygon fill="red" stroke="black" points="1430.62,-45.8502 1427.85,-35.6223 1423.63,-45.3416 1430.62,-45.8502"/>
</g>
<!-- ITF&#45;1_GND -->
<g id="node9" class="node"><title>ITF&#45;1_GND</title>
<ellipse fill="yellow" stroke="black" cx="997.696" cy="-162" rx="54.6905" ry="18"/>
<text text-anchor="middle" x="997.696" y="-158.3" font-family="Times,serif" font-size="14.00">ITF&#45;1_GND</text>
</g>
<!-- ITF&#45;1_GND&#45;&gt;tomtom -->
<g id="edge16" class="edge"><title>ITF&#45;1_GND&#45;&gt;tomtom</title>
<path fill="none" stroke="black" d="M1033.36,-148.247C1039.44,-146.697 1045.7,-145.229 1051.7,-144 1167.66,-120.209 1306.09,-103.567 1380.44,-95.8567"/>
<polygon fill="black" stroke="black" points="1380.9,-99.3276 1390.49,-94.8283 1380.19,-92.3639 1380.9,-99.3276"/>
</g>
<!-- ITF&#45;1_GND&#45;&gt;tomtom -->
<g id="edge21" class="edge"><title>ITF&#45;1_GND&#45;&gt;tomtom</title>
<path fill="none" stroke="black" d="M1040.86,-150.88C1050.39,-148.4 1060.37,-145.913 1069.7,-144 1179.47,-121.479 1309.37,-105.364 1380.6,-97.1678"/>
<polygon fill="black" stroke="black" points="1381.13,-100.629 1390.67,-96.0161 1380.34,-93.6747 1381.13,-100.629"/>
</g>
<!-- elmo -->
<g id="node18" class="node"><title>elmo</title>
<polygon fill="blue" stroke="black" points="963.196,-108 902.196,-108 902.196,-72 963.196,-72 963.196,-108"/>
<text text-anchor="middle" x="932.696" y="-84.4" font-family="Times,serif" font-size="22.00">elmo</text>
</g>
<!-- ITF&#45;1_GND&#45;&gt;elmo -->
<g id="edge31" class="edge"><title>ITF&#45;1_GND&#45;&gt;elmo</title>
<path fill="none" stroke="black" d="M977.185,-145.116C968.237,-136.544 957.981,-125.766 949.489,-116.089"/>
<polygon fill="black" stroke="black" points="951.991,-113.629 942.838,-108.292 946.665,-118.172 951.991,-113.629"/>
</g>
<!-- ITF&#45;1_GND&#45;&gt;elmo -->
<g id="edge35" class="edge"><title>ITF&#45;1_GND&#45;&gt;elmo</title>
<path fill="none" stroke="black" d="M987.839,-144.055C980.749,-135.435 971.071,-124.802 961.745,-115.324"/>
<polygon fill="black" stroke="black" points="963.961,-112.592 954.398,-108.032 959.03,-117.56 963.961,-112.592"/>
</g>
<!-- goblin -->
<g id="node22" class="node"><title>goblin</title>
<polygon fill="blue" stroke="black" points="2269.7,-108 2195.7,-108 2195.7,-72 2269.7,-72 2269.7,-108"/>
<text text-anchor="middle" x="2232.7" y="-84.4" font-family="Times,serif" font-size="22.00">goblin</text>
</g>
<!-- ITF&#45;1_GND&#45;&gt;goblin -->
<g id="edge41" class="edge"><title>ITF&#45;1_GND&#45;&gt;goblin</title>
<path fill="none" stroke="black" d="M1032.25,-147.953C1038.65,-146.386 1045.31,-144.993 1051.7,-144 1275.38,-109.191 1994.24,-94.8723 2185.6,-91.7044"/>
<polygon fill="black" stroke="black" points="2185.68,-95.2037 2195.62,-91.5408 2185.56,-88.2046 2185.68,-95.2037"/>
</g>
<!-- ITF&#45;1_GND&#45;&gt;goblin -->
<g id="edge48" class="edge"><title>ITF&#45;1_GND&#45;&gt;goblin</title>
<path fill="none" stroke="black" d="M1040.07,-150.448C1049.8,-147.908 1060.07,-145.498 1069.7,-144 1290.8,-109.593 1995.72,-95.2054 2185.39,-91.8185"/>
<polygon fill="black" stroke="black" points="2185.65,-95.3145 2195.58,-91.6382 2185.52,-88.3156 2185.65,-95.3145"/>
</g>
<!-- ITF&#45;1_GND&#45;&gt;tobo -->
<g id="edge59" class="edge"><title>ITF&#45;1_GND&#45;&gt;tobo</title>
<path fill="none" stroke="black" d="M954.119,-151.136C944.692,-148.681 934.851,-146.141 925.696,-144 847.774,-125.775 756.116,-108.471 705.591,-98.8438"/>
<polygon fill="black" stroke="black" points="706.231,-95.4028 695.752,-96.9655 704.919,-102.279 706.231,-95.4028"/>
</g>
<!-- ITF&#45;1_GND&#45;&gt;tobo -->
<g id="edge65" class="edge"><title>ITF&#45;1_GND&#45;&gt;tobo</title>
<path fill="none" stroke="black" d="M961.627,-148.464C955.668,-146.897 949.542,-145.367 943.696,-144 859.787,-124.375 759.951,-105.818 706.195,-96.7638"/>
<polygon fill="black" stroke="black" points="706.515,-93.2691 696.076,-95.0822 705.367,-100.174 706.515,-93.2691"/>
</g>
<!-- ITF&#45;2_VDD_5V -->
<g id="node10" class="node"><title>ITF&#45;2_VDD_5V</title>
<ellipse fill="yellow" stroke="black" cx="1139.7" cy="-162" rx="69.5877" ry="18"/>
<text text-anchor="middle" x="1139.7" y="-158.3" font-family="Times,serif" font-size="14.00">ITF&#45;2_VDD_5V</text>
</g>
<!-- ITF&#45;2_VDD_5V&#45;&gt;tomtom -->
<g id="edge17" class="edge"><title>ITF&#45;2_VDD_5V&#45;&gt;tomtom</title>
<path fill="none" stroke="black" d="M1186.61,-148.566C1239.47,-135.51 1325.03,-115.151 1380.37,-102.47"/>
<polygon fill="black" stroke="black" points="1381.37,-105.832 1390.34,-100.194 1379.81,-99.0076 1381.37,-105.832"/>
</g>
<!-- ITF&#45;2_VDD_5V&#45;&gt;tomtom -->
<g id="edge22" class="edge"><title>ITF&#45;2_VDD_5V&#45;&gt;tomtom</title>
<path fill="none" stroke="black" d="M1191.37,-149.908C1244.54,-137.739 1326.81,-118.185 1380.52,-104.976"/>
<polygon fill="black" stroke="black" points="1381.66,-108.299 1390.53,-102.505 1379.98,-101.503 1381.66,-108.299"/>
</g>
<!-- ITF&#45;2_VDD_5V&#45;&gt;elmo -->
<g id="edge32" class="edge"><title>ITF&#45;2_VDD_5V&#45;&gt;elmo</title>
<path fill="none" stroke="black" d="M1095.86,-147.998C1059.42,-136.252 1008.15,-118.948 972.787,-106.49"/>
<polygon fill="black" stroke="black" points="973.857,-103.156 963.262,-103.113 971.518,-109.754 973.857,-103.156"/>
</g>
<!-- ITF&#45;2_VDD_5V&#45;&gt;elmo -->
<g id="edge36" class="edge"><title>ITF&#45;2_VDD_5V&#45;&gt;elmo</title>
<path fill="none" stroke="black" d="M1102.88,-146.666C1066.34,-133.741 1010.68,-114.959 972.983,-102.86"/>
<polygon fill="black" stroke="black" points="973.924,-99.4868 963.333,-99.7858 971.799,-106.156 973.924,-99.4868"/>
</g>
<!-- ITF&#45;2_VDD_5V&#45;&gt;goblin -->
<g id="edge42" class="edge"><title>ITF&#45;2_VDD_5V&#45;&gt;goblin</title>
<path fill="none" stroke="black" d="M1184.31,-148.141C1192.37,-146.526 1200.73,-145.069 1208.7,-144 1581.92,-93.9212 2038.25,-90.505 2184.97,-90.7544"/>
<polygon fill="black" stroke="black" points="2185.39,-94.2554 2195.39,-90.7794 2185.4,-87.2554 2185.39,-94.2554"/>
</g>
<!-- ITF&#45;2_VDD_5V&#45;&gt;goblin -->
<g id="edge49" class="edge"><title>ITF&#45;2_VDD_5V&#45;&gt;goblin</title>
<path fill="none" stroke="black" d="M1192.33,-150.122C1203.67,-147.743 1215.57,-145.493 1226.7,-144 1593.52,-94.7796 2040.63,-90.6358 2185.25,-90.7451"/>
<polygon fill="black" stroke="black" points="2185.53,-94.2454 2195.53,-90.7606 2185.54,-87.2454 2185.53,-94.2454"/>
</g>
<!-- ITF&#45;2_VDD_5V&#45;&gt;tobo -->
<g id="edge60" class="edge"><title>ITF&#45;2_VDD_5V&#45;&gt;tobo</title>
<path fill="none" stroke="black" d="M1085.7,-150.49C1074.74,-148.183 1063.34,-145.873 1052.7,-144 926.293,-121.761 775.637,-103.866 706.105,-95.7376"/>
<polygon fill="black" stroke="black" points="706.391,-92.2473 696.052,-94.5638 705.579,-99.2 706.391,-92.2473"/>
</g>
<!-- ITF&#45;2_VDD_5V&#45;&gt;tobo -->
<g id="edge66" class="edge"><title>ITF&#45;2_VDD_5V&#45;&gt;tobo</title>
<path fill="none" stroke="black" d="M1093.74,-148.46C1086.08,-146.859 1078.2,-145.321 1070.7,-144 937.879,-120.633 778.284,-102.061 706.157,-94.5763"/>
<polygon fill="black" stroke="black" points="706.468,-91.09 696.163,-93.5533 705.755,-98.0536 706.468,-91.09"/>
</g>
<!-- ITF&#45;3_ENV -->
<g id="node11" class="node"><title>ITF&#45;3_ENV</title>
<ellipse fill="yellow" stroke="black" cx="2296.7" cy="-162" rx="53.8905" ry="18"/>
<text text-anchor="middle" x="2296.7" y="-158.3" font-family="Times,serif" font-size="14.00">ITF&#45;3_ENV</text>
</g>
<!-- ITF&#45;3_ENV&#45;&gt;tomtom -->
<g id="edge18" class="edge"><title>ITF&#45;3_ENV&#45;&gt;tomtom</title>
<path fill="none" stroke="black" d="M2254.64,-150.67C2244.81,-148.099 2234.42,-145.617 2224.7,-144 1949.91,-98.2848 1615.86,-91.6551 1487.42,-90.9389"/>
<polygon fill="black" stroke="black" points="1487.1,-87.4375 1477.08,-90.8918 1487.07,-94.4375 1487.1,-87.4375"/>
</g>
<!-- ITF&#45;3_ENV&#45;&gt;tomtom -->
<g id="edge23" class="edge"><title>ITF&#45;3_ENV&#45;&gt;tomtom</title>
<path fill="none" stroke="black" d="M2262.12,-148.074C2255.72,-146.49 2249.07,-145.06 2242.7,-144 1960.95,-97.1269 1616.9,-91.3444 1486.79,-90.8954"/>
<polygon fill="black" stroke="black" points="1486.71,-87.3952 1476.7,-90.8699 1486.69,-94.3952 1486.71,-87.3952"/>
</g>
<!-- ITF&#45;3_ENV&#45;&gt;goblin -->
<g id="edge45" class="edge"><title>ITF&#45;3_ENV&#45;&gt;goblin</title>
<path fill="none" stroke="black" d="M2276.41,-145.116C2267.59,-136.544 2257.48,-125.766 2249.13,-116.089"/>
<polygon fill="black" stroke="black" points="2251.7,-113.705 2242.59,-108.292 2246.34,-118.203 2251.7,-113.705"/>
</g>
<!-- ITF&#45;3_ENV&#45;&gt;goblin -->
<g id="edge52" class="edge"><title>ITF&#45;3_ENV&#45;&gt;goblin</title>
<path fill="none" stroke="black" d="M2287.08,-144.055C2280.17,-135.498 2270.73,-124.959 2261.6,-115.535"/>
<polygon fill="black" stroke="black" points="2263.93,-112.912 2254.4,-108.275 2258.96,-117.841 2263.93,-112.912"/>
</g>
<!-- ITF&#45;I_pulse_on -->
<g id="node12" class="node"><title>ITF&#45;I_pulse_on</title>
<ellipse fill="yellow" stroke="black" cx="1433.7" cy="-162" rx="65.7887" ry="18"/>
<text text-anchor="middle" x="1433.7" y="-158.3" font-family="Times,serif" font-size="14.00">ITF&#45;I_pulse_on</text>
</g>
<!-- ITF&#45;I_pulse_on&#45;&gt;tomtom -->
<g id="edge19" class="edge"><title>ITF&#45;I_pulse_on&#45;&gt;tomtom</title>
<path fill="none" stroke="black" d="M1427.82,-144.055C1427,-136.346 1426.76,-127.027 1427.09,-118.364"/>
<polygon fill="black" stroke="black" points="1430.59,-118.491 1427.78,-108.275 1423.61,-118.012 1430.59,-118.491"/>
</g>
<!-- ITF&#45;I_pulse_on&#45;&gt;tomtom -->
<g id="edge24" class="edge"><title>ITF&#45;I_pulse_on&#45;&gt;tomtom</title>
<path fill="none" stroke="black" d="M1439.57,-144.055C1440.39,-136.346 1440.63,-127.027 1440.3,-118.364"/>
<polygon fill="black" stroke="black" points="1443.78,-118.012 1439.61,-108.275 1436.8,-118.491 1443.78,-118.012"/>
</g>
<!-- ITF&#45;15_GPIO21 -->
<g id="node13" class="node"><title>ITF&#45;15_GPIO21</title>
<ellipse fill="yellow" stroke="black" cx="1586.7" cy="-162" rx="69.5877" ry="18"/>
<text text-anchor="middle" x="1586.7" y="-158.3" font-family="Times,serif" font-size="14.00">ITF&#45;15_GPIO21</text>
</g>
<!-- ITF&#45;15_GPIO21&#45;&gt;tomtom -->
<g id="edge20" class="edge"><title>ITF&#45;15_GPIO21&#45;&gt;tomtom</title>
<path fill="none" stroke="black" d="M1549.79,-146.666C1527,-136.822 1497.82,-123.581 1474.37,-112.482"/>
<polygon fill="black" stroke="black" points="1475.57,-109.176 1465.03,-108.032 1472.55,-115.495 1475.57,-109.176"/>
</g>
<!-- ITF&#45;15_GPIO21&#45;&gt;tomtom -->
<g id="edge25" class="edge"><title>ITF&#45;15_GPIO21&#45;&gt;tomtom</title>
<path fill="none" stroke="black" d="M1558.46,-145.465C1538.25,-135.686 1510.56,-122.935 1486.36,-112.23"/>
<polygon fill="black" stroke="black" points="1487.5,-108.906 1476.93,-108.086 1484.68,-115.315 1487.5,-108.906"/>
</g>
<!-- ITF&#45;16_POn3 -->
<g id="node14" class="node"><title>ITF&#45;16_POn3</title>
<ellipse fill="yellow" stroke="black" cx="1733.7" cy="-162" rx="59.5901" ry="18"/>
<text text-anchor="middle" x="1733.7" y="-158.3" font-family="Times,serif" font-size="14.00">ITF&#45;16_POn3</text>
</g>
<!-- ITF&#45;16_POn3&#45;&gt;tomtom -->
<g id="edge26" class="edge"><title>ITF&#45;16_POn3&#45;&gt;tomtom</title>
<path fill="none" stroke="black" d="M1689.47,-149.804C1681.56,-147.842 1673.39,-145.84 1665.7,-144 1604.49,-129.36 1533.98,-113.377 1486.91,-102.834"/>
<polygon fill="black" stroke="black" points="1487.47,-99.371 1476.94,-100.603 1485.94,-106.202 1487.47,-99.371"/>
</g>
<!-- ITF&#45;11_OffSig -->
<g id="node15" class="node"><title>ITF&#45;11_OffSig</title>
<ellipse fill="yellow" stroke="black" cx="1874.7" cy="-162" rx="63.8893" ry="18"/>
<text text-anchor="middle" x="1874.7" y="-158.3" font-family="Times,serif" font-size="14.00">ITF&#45;11_OffSig</text>
</g>
<!-- ITF&#45;11_OffSig&#45;&gt;tomtom -->
<g id="edge27" class="edge"><title>ITF&#45;11_OffSig&#45;&gt;tomtom</title>
<path fill="none" stroke="black" d="M1828.73,-149.503C1820.11,-147.53 1811.15,-145.602 1802.7,-144 1691.03,-122.841 1558.92,-105.771 1486.97,-97.1368"/>
<polygon fill="black" stroke="black" points="1487.14,-93.6328 1476.8,-95.9246 1486.31,-100.584 1487.14,-93.6328"/>
</g>
<!-- ITF&#45;14_PWM -->
<g id="node16" class="node"><title>ITF&#45;14_PWM</title>
<ellipse fill="yellow" stroke="black" cx="1288.7" cy="-162" rx="61.99" ry="18"/>
<text text-anchor="middle" x="1288.7" y="-158.3" font-family="Times,serif" font-size="14.00">ITF&#45;14_PWM</text>
</g>
<!-- ITF&#45;14_PWM&#45;&gt;tomtom -->
<g id="edge28" class="edge"><title>ITF&#45;14_PWM&#45;&gt;tomtom</title>
<path fill="none" stroke="black" d="M1319.09,-146.326C1339.38,-136.53 1366.41,-123.484 1389.12,-112.521"/>
<polygon fill="black" stroke="black" points="1390.74,-115.621 1398.23,-108.122 1387.7,-109.317 1390.74,-115.621"/>
</g>
<!-- Wifi&#45;&gt;tomtom -->
<g id="edge29" class="edge"><title>Wifi&#45;&gt;tomtom</title>
<path fill="none" stroke="black" d="M1439.54,-35.6223C1440.38,-43.3558 1440.64,-52.7604 1440.31,-61.5083"/>
<polygon fill="black" stroke="black" points="1436.8,-61.4818 1439.61,-71.6966 1443.78,-61.9578 1436.8,-61.4818"/>
</g>
<!-- Signal Digitalized -->
<g id="node21" class="node"><title>Signal Digitalized</title>
<ellipse fill="yellow" stroke="black" cx="932.696" cy="-18" rx="74.9875" ry="18"/>
<text text-anchor="middle" x="932.696" y="-14.3" font-family="Times,serif" font-size="14.00">Signal Digitalized</text>
</g>
<!-- elmo&#45;&gt;Signal Digitalized -->
<g id="edge40" class="edge"><title>elmo&#45;&gt;Signal Digitalized</title>
<path fill="none" stroke="black" d="M926.78,-71.6966C925.984,-63.9827 925.758,-54.7125 926.1,-46.1124"/>
<polygon fill="red" stroke="black" points="929.594,-46.3243 926.8,-36.1043 922.611,-45.8356 929.594,-46.3243"/>
</g>
<!-- ITF&#45;19_3.3V -->
<g id="node19" class="node"><title>ITF&#45;19_3.3V</title>
<ellipse fill="yellow" stroke="black" cx="733.696" cy="-162" rx="57.6901" ry="18"/>
<text text-anchor="middle" x="733.696" y="-158.3" font-family="Times,serif" font-size="14.00">ITF&#45;19_3.3V</text>
</g>
<!-- ITF&#45;19_3.3V&#45;&gt;elmo -->
<g id="edge33" class="edge"><title>ITF&#45;19_3.3V&#45;&gt;elmo</title>
<path fill="none" stroke="black" d="M767.508,-147.17C802.018,-134.423 855.384,-115.675 892.138,-103.403"/>
<polygon fill="black" stroke="black" points="893.642,-106.591 902.034,-100.123 891.441,-99.9465 893.642,-106.591"/>
</g>
<!-- ITF&#45;19_3.3V&#45;&gt;elmo -->
<g id="edge37" class="edge"><title>ITF&#45;19_3.3V&#45;&gt;elmo</title>
<path fill="none" stroke="black" d="M773.626,-148.807C808.141,-137.291 857.642,-119.942 892.289,-107.254"/>
<polygon fill="black" stroke="black" points="893.914,-110.386 902.087,-103.644 891.494,-103.818 893.914,-110.386"/>
</g>
<!-- ITF&#45;19_3.3V&#45;&gt;tobo -->
<g id="edge63" class="edge"><title>ITF&#45;19_3.3V&#45;&gt;tobo</title>
<path fill="none" stroke="black" d="M712.958,-145.116C703.888,-136.544 693.478,-125.766 684.847,-116.089"/>
<polygon fill="black" stroke="black" points="687.281,-113.553 678.085,-108.292 681.993,-118.14 687.281,-113.553"/>
</g>
<!-- ITF&#45;19_3.3V&#45;&gt;tobo -->
<g id="edge69" class="edge"><title>ITF&#45;19_3.3V&#45;&gt;tobo</title>
<path fill="none" stroke="black" d="M723.597,-144.055C716.313,-135.349 706.359,-124.591 696.812,-115.043"/>
<polygon fill="black" stroke="black" points="699.238,-112.521 689.641,-108.032 694.344,-117.525 699.238,-112.521"/>
</g>
<!-- ITF&#45;12_RPIn -->
<g id="node20" class="node"><title>ITF&#45;12_RPIn</title>
<ellipse fill="yellow" stroke="black" cx="867.696" cy="-162" rx="57.6901" ry="18"/>
<text text-anchor="middle" x="867.696" y="-158.3" font-family="Times,serif" font-size="14.00">ITF&#45;12_RPIn</text>
</g>
<!-- ITF&#45;12_RPIn&#45;&gt;elmo -->
<g id="edge34" class="edge"><title>ITF&#45;12_RPIn&#45;&gt;elmo</title>
<path fill="none" stroke="black" d="M877.552,-144.055C884.642,-135.435 894.32,-124.802 903.646,-115.324"/>
<polygon fill="black" stroke="black" points="906.361,-117.56 910.993,-108.032 901.43,-112.592 906.361,-117.56"/>
</g>
<!-- ITF&#45;12_RPIn&#45;&gt;elmo -->
<g id="edge38" class="edge"><title>ITF&#45;12_RPIn&#45;&gt;elmo</title>
<path fill="none" stroke="black" d="M888.206,-145.116C897.154,-136.544 907.41,-125.766 915.902,-116.089"/>
<polygon fill="black" stroke="black" points="918.726,-118.172 922.553,-108.292 913.4,-113.629 918.726,-118.172"/>
</g>
<!-- Signal Digitalized&#45;&gt;elmo -->
<g id="edge39" class="edge"><title>Signal Digitalized&#45;&gt;elmo</title>
<path fill="none" stroke="black" d="M938.591,-36.1043C939.396,-43.7913 939.632,-53.0537 939.3,-61.6651"/>
<polygon fill="black" stroke="black" points="935.804,-61.4805 938.611,-71.6966 942.788,-61.9597 935.804,-61.4805"/>
</g>
<!-- ITF&#45;mEG_SPI -->
<g id="node28" class="node"><title>ITF&#45;mEG_SPI</title>
<ellipse fill="green" stroke="black" cx="2232.7" cy="-18" rx="63.0888" ry="18"/>
<text text-anchor="middle" x="2232.7" y="-14.3" font-family="Times,serif" font-size="14.00">ITF&#45;mEG_SPI</text>
</g>
<!-- goblin&#45;&gt;ITF&#45;mEG_SPI -->
<g id="edge58" class="edge"><title>goblin&#45;&gt;ITF&#45;mEG_SPI</title>
<path fill="none" stroke="black" d="M2226.78,-71.6966C2225.98,-63.9827 2225.76,-54.7125 2226.1,-46.1124"/>
<polygon fill="red" stroke="black" points="2229.59,-46.3243 2226.8,-36.1043 2222.61,-45.8356 2229.59,-46.3243"/>
</g>
<!-- ITF&#45;7_GAIN -->
<g id="node23" class="node"><title>ITF&#45;7_GAIN</title>
<ellipse fill="yellow" stroke="black" cx="2426.7" cy="-162" rx="57.6901" ry="18"/>
<text text-anchor="middle" x="2426.7" y="-158.3" font-family="Times,serif" font-size="14.00">ITF&#45;7_GAIN</text>
</g>
<!-- ITF&#45;7_GAIN&#45;&gt;goblin -->
<g id="edge43" class="edge"><title>ITF&#45;7_GAIN&#45;&gt;goblin</title>
<path fill="none" stroke="black" d="M2387.17,-148.647C2355.83,-137.93 2312.11,-122.248 2279.13,-109.946"/>
<polygon fill="black" stroke="black" points="2280.29,-106.643 2269.7,-106.409 2277.83,-113.197 2280.29,-106.643"/>
</g>
<!-- ITF&#45;7_GAIN&#45;&gt;goblin -->
<g id="edge50" class="edge"><title>ITF&#45;7_GAIN&#45;&gt;goblin</title>
<path fill="none" stroke="black" d="M2393.87,-147.17C2362.48,-135.261 2315,-118.113 2279.64,-105.902"/>
<polygon fill="black" stroke="black" points="2280.61,-102.533 2270.01,-102.598 2278.33,-109.154 2280.61,-102.533"/>
</g>
<!-- ITF&#45;4_RawSig -->
<g id="node24" class="node"><title>ITF&#45;4_RawSig</title>
<ellipse fill="yellow" stroke="black" cx="2566.7" cy="-162" rx="63.8893" ry="18"/>
<text text-anchor="middle" x="2566.7" y="-158.3" font-family="Times,serif" font-size="14.00">ITF&#45;4_RawSig</text>
</g>
<!-- ITF&#45;4_RawSig&#45;&gt;goblin -->
<g id="edge44" class="edge"><title>ITF&#45;4_RawSig&#45;&gt;goblin</title>
<path fill="none" stroke="black" d="M2512.84,-152.235C2500.39,-149.525 2487.52,-146.577 2475.7,-144 2407.58,-129.156 2329.16,-113.412 2279.89,-102.978"/>
<polygon fill="black" stroke="black" points="2280.34,-99.4957 2269.83,-100.834 2278.88,-106.342 2280.34,-99.4957"/>
</g>
<!-- ITF&#45;4_RawSig&#45;&gt;goblin -->
<g id="edge51" class="edge"><title>ITF&#45;4_RawSig&#45;&gt;goblin</title>
<path fill="none" stroke="black" d="M2519.62,-149.829C2511,-147.844 2502.09,-145.829 2493.7,-144 2419.15,-127.755 2332.28,-110.434 2279.93,-100.172"/>
<polygon fill="black" stroke="black" points="2280.42,-96.7017 2269.94,-98.2161 2279.08,-103.571 2280.42,-96.7017"/>
</g>
<!-- ITF&#45;4_RawSig&#45;&gt;goblin -->
<g id="edge55" class="edge"><title>ITF&#45;4_RawSig&#45;&gt;goblin</title>
<path fill="none" stroke="black" d="M2528.06,-147.662C2522.59,-146.403 2517.04,-145.164 2511.7,-144 2431.1,-126.437 2336.09,-107.614 2279.8,-97.8163"/>
<polygon fill="black" stroke="black" points="2280.2,-94.3339 2269.75,-96.0943 2279.01,-101.233 2280.2,-94.3339"/>
</g>
<!-- ITF&#45;18_Raw -->
<g id="node25" class="node"><title>ITF&#45;18_Raw</title>
<ellipse fill="yellow" stroke="black" cx="2168.7" cy="-162" rx="55.7903" ry="18"/>
<text text-anchor="middle" x="2168.7" y="-158.3" font-family="Times,serif" font-size="14.00">ITF&#45;18_Raw</text>
</g>
<!-- ITF&#45;18_Raw&#45;&gt;goblin -->
<g id="edge46" class="edge"><title>ITF&#45;18_Raw&#45;&gt;goblin</title>
<path fill="none" stroke="black" d="M2178.31,-144.055C2185.22,-135.498 2194.66,-124.959 2203.79,-115.535"/>
<polygon fill="black" stroke="black" points="2206.43,-117.841 2210.99,-108.275 2201.46,-112.912 2206.43,-117.841"/>
</g>
<!-- ITF&#45;18_Raw&#45;&gt;goblin -->
<g id="edge53" class="edge"><title>ITF&#45;18_Raw&#45;&gt;goblin</title>
<path fill="none" stroke="black" d="M2188.98,-145.116C2197.8,-136.544 2207.91,-125.766 2216.26,-116.089"/>
<polygon fill="black" stroke="black" points="2219.06,-118.203 2222.8,-108.292 2213.69,-113.705 2219.06,-118.203"/>
</g>
<!-- ITF&#45;18_Raw&#45;&gt;tobo -->
<g id="edge71" class="edge"><title>ITF&#45;18_Raw&#45;&gt;tobo</title>
<path fill="none" stroke="black" d="M2129.11,-149.13C2120.79,-147.063 2112.01,-145.195 2103.7,-144 1837.42,-105.723 1162.33,-122.093 893.696,-108 827.672,-104.536 750.955,-98.2957 706.027,-94.4157"/>
<polygon fill="black" stroke="black" points="706.122,-90.9108 695.856,-93.5307 705.515,-97.8845 706.122,-90.9108"/>
</g>
<!-- ITF&#45;mET_SMA -->
<g id="node26" class="node"><title>ITF&#45;mET_SMA</title>
<ellipse fill="green" stroke="black" cx="2025.7" cy="-162" rx="68.7879" ry="18"/>
<text text-anchor="middle" x="2025.7" y="-158.3" font-family="Times,serif" font-size="14.00">ITF&#45;mET_SMA</text>
</g>
<!-- ITF&#45;mET_SMA&#45;&gt;goblin -->
<g id="edge47" class="edge"><title>ITF&#45;mET_SMA&#45;&gt;goblin</title>
<path fill="none" stroke="black" d="M2062.51,-146.666C2096.97,-134.475 2148.45,-117.074 2185.82,-104.985"/>
<polygon fill="black" stroke="black" points="2187.03,-108.272 2195.47,-101.879 2184.88,-101.609 2187.03,-108.272"/>
</g>
<!-- ITF&#45;mET_SMA&#45;&gt;goblin -->
<g id="edge54" class="edge"><title>ITF&#45;mET_SMA&#45;&gt;goblin</title>
<path fill="none" stroke="black" d="M2069.53,-147.998C2103.72,-136.975 2150.99,-121.057 2185.9,-108.843"/>
<polygon fill="black" stroke="black" points="2187.13,-112.122 2195.4,-105.503 2184.81,-105.518 2187.13,-112.122"/>
</g>
<!-- ITF&#45;mET_SMA&#45;&gt;tobo -->
<g id="edge72" class="edge"><title>ITF&#45;mET_SMA&#45;&gt;tobo</title>
<path fill="none" stroke="black" d="M1977.25,-149.024C1967.52,-147.02 1957.32,-145.203 1947.7,-144 1482.6,-85.8569 1361.71,-133.584 893.696,-108 827.68,-104.391 750.961,-98.1959 706.029,-94.3643"/>
<polygon fill="black" stroke="black" points="706.121,-90.8593 695.858,-93.4908 705.522,-97.8336 706.121,-90.8593"/>
</g>
<!-- ITF&#45;3_ENV_signal_envelope -->
<g id="node27" class="node"><title>ITF&#45;3_ENV_signal_envelope</title>
<ellipse fill="yellow" stroke="black" cx="2763.7" cy="-162" rx="115.08" ry="18"/>
<text text-anchor="middle" x="2763.7" y="-158.3" font-family="Times,serif" font-size="14.00">ITF&#45;3_ENV_signal_envelope</text>
</g>
<!-- ITF&#45;3_ENV_signal_envelope&#45;&gt;goblin -->
<g id="edge56" class="edge"><title>ITF&#45;3_ENV_signal_envelope&#45;&gt;goblin</title>
<path fill="none" stroke="black" d="M2680.66,-149.538C2666.98,-147.671 2652.94,-145.77 2639.7,-144 2509.51,-126.599 2355.79,-106.779 2279.92,-97.0447"/>
<polygon fill="black" stroke="black" points="2280.11,-93.54 2269.74,-95.7394 2279.22,-100.483 2280.11,-93.54"/>
</g>
<!-- ITF&#45;mEG_SPI&#45;&gt;goblin -->
<g id="edge57" class="edge"><title>ITF&#45;mEG_SPI&#45;&gt;goblin</title>
<path fill="none" stroke="black" d="M2238.59,-36.1043C2239.4,-43.7913 2239.63,-53.0537 2239.3,-61.6651"/>
<polygon fill="black" stroke="black" points="2235.8,-61.4805 2238.61,-71.6966 2242.79,-61.9597 2235.8,-61.4805"/>
</g>
<!-- tobo&#45;&gt;ITF&#45;mET_Transducer -->
<g id="edge74" class="edge"><title>tobo&#45;&gt;ITF&#45;mET_Transducer</title>
<path fill="none" stroke="black" d="M639.245,-99.6095C586.854,-111.847 476.979,-134.349 401.355,-148.446"/>
<polygon fill="red" stroke="black" points="400.58,-145.03 391.384,-150.292 401.854,-151.913 400.58,-145.03"/>
</g>
<!-- ITF&#45;9_Pon -->
<g id="node30" class="node"><title>ITF&#45;9_Pon</title>
<ellipse fill="yellow" stroke="black" cx="479.696" cy="-162" rx="49.2915" ry="18"/>
<text text-anchor="middle" x="479.696" y="-158.3" font-family="Times,serif" font-size="14.00">ITF&#45;9_Pon</text>
</g>
<!-- ITF&#45;9_Pon&#45;&gt;tobo -->
<g id="edge61" class="edge"><title>ITF&#45;9_Pon&#45;&gt;tobo</title>
<path fill="none" stroke="black" d="M510.065,-147.669C542.82,-134.797 594.767,-115.479 630.073,-103.055"/>
<polygon fill="black" stroke="black" points="631.271,-106.344 639.56,-99.7452 628.965,-99.7349 631.271,-106.344"/>
</g>
<!-- ITF&#45;9_Pon&#45;&gt;tobo -->
<g id="edge67" class="edge"><title>ITF&#45;9_Pon&#45;&gt;tobo</title>
<path fill="none" stroke="black" d="M515.906,-149.441C548.826,-137.884 597.021,-120.016 630.296,-107.079"/>
<polygon fill="black" stroke="black" points="631.649,-110.308 639.685,-103.402 629.097,-103.789 631.649,-110.308"/>
</g>
<!-- ITF&#45;10_Poff -->
<g id="node31" class="node"><title>ITF&#45;10_Poff</title>
<ellipse fill="yellow" stroke="black" cx="602.696" cy="-162" rx="55.4913" ry="18"/>
<text text-anchor="middle" x="602.696" y="-158.3" font-family="Times,serif" font-size="14.00">ITF&#45;10_Poff</text>
</g>
<!-- ITF&#45;10_Poff&#45;&gt;tobo -->
<g id="edge62" class="edge"><title>ITF&#45;10_Poff&#45;&gt;tobo</title>
<path fill="none" stroke="black" d="M612.552,-144.055C619.642,-135.435 629.32,-124.802 638.646,-115.324"/>
<polygon fill="black" stroke="black" points="641.361,-117.56 645.993,-108.032 636.43,-112.592 641.361,-117.56"/>
</g>
<!-- ITF&#45;10_Poff&#45;&gt;tobo -->
<g id="edge68" class="edge"><title>ITF&#45;10_Poff&#45;&gt;tobo</title>
<path fill="none" stroke="black" d="M623.206,-145.116C632.154,-136.544 642.41,-125.766 650.902,-116.089"/>
<polygon fill="black" stroke="black" points="653.726,-118.172 657.553,-108.292 648.4,-113.629 653.726,-118.172"/>
</g>
</g>
</svg>
