G04 Layer_Color=65535*
%FSAX24Y24*%
%MOIN*%
G70*
G01*
G75*
%ADD19C,0.0079*%
%ADD35C,0.0098*%
%ADD36C,0.0059*%
D19*
X050187Y031093D02*
G03*
X050187Y031093I-000118J000000D01*
G01*
X050395Y031859D02*
G03*
X050395Y031859I-000049J000000D01*
G01*
X062067Y031329D02*
G03*
X062067Y031329I-000118J000000D01*
G01*
X062275Y032095D02*
G03*
X062275Y032095I-000049J000000D01*
G01*
X050669Y032933D02*
X051299D01*
X050591Y032854D02*
X050669Y032933D01*
X051299D02*
X051378Y032854D01*
X050591Y031516D02*
X050669Y031437D01*
X051299D02*
X051378Y031516D01*
X050669Y031437D02*
X051299D01*
X051516Y031240D02*
Y031870D01*
Y031240D02*
X051594Y031161D01*
X051516Y031870D02*
X051594Y031949D01*
X052933Y031161D02*
X053012Y031240D01*
X052933Y031949D02*
X053012Y031870D01*
Y031240D02*
Y031870D01*
X053435Y036122D02*
Y036752D01*
X053356Y036831D02*
X053435Y036752D01*
X053356Y036043D02*
X053435Y036122D01*
X051939Y036752D02*
X052018Y036831D01*
X051939Y036122D02*
X052018Y036043D01*
X051939Y036122D02*
Y036752D01*
X053012Y032087D02*
Y032717D01*
X052933Y032795D02*
X053012Y032717D01*
X052933Y032008D02*
X053012Y032087D01*
X051516Y032717D02*
X051594Y032795D01*
X051516Y032087D02*
X051594Y032008D01*
X051516Y032087D02*
Y032717D01*
X051821Y036112D02*
Y036742D01*
X051742Y036821D02*
X051821Y036742D01*
X051742Y036033D02*
X051821Y036112D01*
X050325Y036742D02*
X050404Y036821D01*
X050325Y036112D02*
X050404Y036033D01*
X050325Y036112D02*
Y036742D01*
X049567Y034173D02*
X053032D01*
X049567Y034882D02*
X053032D01*
X049567Y034173D02*
Y034882D01*
X053032Y034173D02*
Y034882D01*
X053965Y035079D02*
X054215D01*
X053965Y033898D02*
X054215D01*
X053965D02*
Y035079D01*
X054215Y033898D02*
Y035079D01*
X046329Y029911D02*
Y031486D01*
X050463Y029911D02*
Y031486D01*
X046329Y029911D02*
X050463D01*
X046329Y031486D02*
X050463D01*
X058209Y030148D02*
Y031722D01*
X062343Y030148D02*
Y031722D01*
X058209Y030148D02*
X062343D01*
X058209Y031722D02*
X062343D01*
X042165Y037242D02*
Y038992D01*
Y037242D02*
X042415Y036992D01*
X062165D01*
Y038992D01*
X042165D02*
X062165D01*
X039698Y036177D02*
X039798Y036277D01*
X039698Y035477D02*
Y036177D01*
Y035477D02*
X039798Y035377D01*
X041698Y036277D02*
X041798Y036177D01*
Y035477D02*
Y036177D01*
X041698Y035377D02*
X041798Y035477D01*
X043465Y035512D02*
Y036142D01*
X043386Y036220D02*
X043465Y036142D01*
X043386Y035433D02*
X043465Y035512D01*
X041968Y036142D02*
X042047Y036220D01*
X041968Y035512D02*
X042047Y035433D01*
X041968Y035512D02*
Y036142D01*
X039707Y030546D02*
X039807Y030446D01*
X040507D01*
X040607Y030546D01*
X039707Y032446D02*
X039807Y032546D01*
X040507D01*
X040607Y032446D01*
X044740Y035597D02*
X044840Y035497D01*
X044040Y035597D02*
X044740D01*
X043940Y035497D02*
X044040Y035597D01*
X044740Y033497D02*
X044840Y033597D01*
X044040Y033497D02*
X044740D01*
X043940Y033597D02*
X044040Y033497D01*
X048701Y034488D02*
X049331D01*
X049409Y034567D01*
X048622D02*
X048701Y034488D01*
X049331Y035984D02*
X049409Y035906D01*
X048622D02*
X048701Y035984D01*
X049331D01*
X053386Y035344D02*
Y035974D01*
Y035344D02*
X053465Y035266D01*
X053386Y035974D02*
X053465Y036053D01*
X054803Y035266D02*
X054882Y035344D01*
X054803Y036053D02*
X054882Y035974D01*
Y035344D02*
Y035974D01*
X063352Y033408D02*
X063452Y033508D01*
Y034208D01*
X063352Y034308D02*
X063452Y034208D01*
X061352Y033508D02*
X061452Y033408D01*
X061352Y033508D02*
Y034208D01*
X061452Y034308D01*
X050866Y027894D02*
X051496D01*
X051575Y027972D01*
X050787D02*
X050866Y027894D01*
X051496Y029390D02*
X051575Y029311D01*
X050787D02*
X050866Y029390D01*
X051496D01*
X062579Y031752D02*
X063209D01*
X062500Y031673D02*
X062579Y031752D01*
X063209D02*
X063287Y031673D01*
X062500Y030335D02*
X062579Y030256D01*
X063209D02*
X063287Y030335D01*
X062579Y030256D02*
X063209D01*
X056526Y028120D02*
X057156D01*
X057234Y028199D01*
X056447D02*
X056526Y028120D01*
X057156Y029616D02*
X057234Y029537D01*
X056447D02*
X056526Y029616D01*
X057156D01*
X049134Y027835D02*
Y028465D01*
Y027835D02*
X049213Y027756D01*
X049134Y028465D02*
X049213Y028543D01*
X050551Y027756D02*
X050630Y027835D01*
X050551Y028543D02*
X050630Y028465D01*
Y027835D02*
Y028465D01*
X047461Y027835D02*
Y028465D01*
Y027835D02*
X047539Y027756D01*
X047461Y028465D02*
X047539Y028543D01*
X048878Y027756D02*
X048957Y027835D01*
X048878Y028543D02*
X048957Y028465D01*
Y027835D02*
Y028465D01*
X051772Y027894D02*
X052402D01*
X052480Y027972D01*
X051693D02*
X051772Y027894D01*
X052402Y029390D02*
X052480Y029311D01*
X051693D02*
X051772Y029390D01*
X052402D01*
X060965Y027835D02*
Y028465D01*
Y027835D02*
X061043Y027756D01*
X060965Y028465D02*
X061043Y028543D01*
X062382Y027756D02*
X062461Y027835D01*
X062382Y028543D02*
X062461Y028465D01*
Y027835D02*
Y028465D01*
X059390Y027835D02*
Y028465D01*
Y027835D02*
X059468Y027756D01*
X059390Y028465D02*
X059468Y028543D01*
X060807Y027756D02*
X060886Y027835D01*
X060807Y028543D02*
X060886Y028465D01*
Y027835D02*
Y028465D01*
X054130Y031600D02*
X054250D01*
X053310D02*
X053430D01*
X054250Y030630D02*
Y033570D01*
X053310Y030630D02*
Y033570D01*
Y030630D02*
X054250D01*
X053310Y033570D02*
X054250D01*
X057431Y029587D02*
X058061D01*
X057352Y029508D02*
X057431Y029587D01*
X058061D02*
X058140Y029508D01*
X057352Y028169D02*
X057431Y028091D01*
X058061D02*
X058140Y028169D01*
X057431Y028091D02*
X058061D01*
X042470Y032451D02*
Y035089D01*
X041368Y032451D02*
Y035089D01*
Y032451D02*
X042470D01*
X041368Y035089D02*
X042470D01*
X054539Y033591D02*
X057539D01*
Y031591D02*
Y033591D01*
X054539Y031741D02*
X054689Y031591D01*
X057539D01*
X054539Y031741D02*
Y033591D01*
X055495Y029894D02*
Y030834D01*
X057245D02*
X057435Y030644D01*
X057245Y029894D02*
X057435Y030084D01*
Y030644D01*
X056495D02*
X056685Y030834D01*
X056495Y030084D02*
X056685Y029894D01*
X055495Y030644D02*
X055685Y030834D01*
X055495Y030084D02*
X055685Y029894D01*
X056245D02*
X056435Y030084D01*
X056245Y030834D02*
X056435Y030644D01*
X055685Y030834D02*
X056245D01*
X055685Y029894D02*
X056245D01*
X056685D02*
X057245D01*
X056685Y030834D02*
X057245D01*
X055495D02*
X055685D01*
X055495Y029894D02*
X055685D01*
X056465Y030114D02*
Y030614D01*
X061496Y036270D02*
X063711D01*
Y034892D02*
Y036270D01*
X061496Y034892D02*
X063711D01*
X062963D02*
Y036270D01*
X062224Y034911D02*
Y036260D01*
X061496Y034892D02*
Y036260D01*
X058730Y034144D02*
Y036575D01*
X059459Y034144D02*
Y036575D01*
X058730Y034144D02*
X059459D01*
X058730Y036585D02*
X059459D01*
X056782Y031132D02*
X057126D01*
X055955Y030974D02*
Y031309D01*
X055782Y031132D02*
X056127D01*
X055482Y028898D02*
Y029528D01*
X055404Y029606D02*
X055482Y029528D01*
X055404Y028819D02*
X055482Y028898D01*
X053986Y029528D02*
X054065Y029606D01*
X053986Y028898D02*
X054065Y028819D01*
X053986Y028898D02*
Y029528D01*
X050928Y031007D02*
X050994Y031073D01*
Y031204D01*
X050928Y031270D01*
X050666D01*
X050600Y031204D01*
Y031073D01*
X050666Y031007D01*
X050600Y030614D02*
Y030876D01*
X050863Y030614D01*
X050928D01*
X050994Y030679D01*
Y030811D01*
X050928Y030876D01*
Y030483D02*
X050994Y030417D01*
Y030286D01*
X050928Y030220D01*
X050863D01*
X050797Y030286D01*
Y030351D01*
Y030286D01*
X050732Y030220D01*
X050666D01*
X050600Y030286D01*
Y030417D01*
X050666Y030483D01*
X052772Y030426D02*
X052707Y030492D01*
X052575D01*
X052510Y030426D01*
Y030164D01*
X052575Y030098D01*
X052707D01*
X052772Y030164D01*
X052903Y030098D02*
X053035D01*
X052969D01*
Y030492D01*
X052903Y030426D01*
X053953Y036745D02*
X053888Y036811D01*
X053757D01*
X053691Y036745D01*
Y036483D01*
X053757Y036417D01*
X053888D01*
X053953Y036483D01*
X054347Y036417D02*
X054085D01*
X054347Y036680D01*
Y036745D01*
X054281Y036811D01*
X054150D01*
X054085Y036745D01*
X052520Y030640D02*
Y031033D01*
X052716D01*
X052782Y030968D01*
Y030837D01*
X052716Y030771D01*
X052520D01*
X052651D02*
X052782Y030640D01*
X052913D02*
X053044D01*
X052979D01*
Y031033D01*
X052913Y030968D01*
X049429Y036407D02*
Y036801D01*
X049626D01*
X049692Y036735D01*
Y036604D01*
X049626Y036539D01*
X049429D01*
X049560D02*
X049692Y036407D01*
X050085D02*
X049823D01*
X050085Y036670D01*
Y036735D01*
X050019Y036801D01*
X049888D01*
X049823Y036735D01*
X048406Y034055D02*
Y033727D01*
X048471Y033661D01*
X048602D01*
X048668Y033727D01*
Y034055D01*
X048799Y033661D02*
X048930D01*
X048865D01*
Y034055D01*
X048799Y033989D01*
X054990Y034980D02*
Y034652D01*
X055056Y034587D01*
X055187D01*
X055253Y034652D01*
Y034980D01*
X055646Y034587D02*
X055384D01*
X055646Y034849D01*
Y034915D01*
X055581Y034980D01*
X055449D01*
X055384Y034915D01*
X046122Y031663D02*
X045794D01*
X045728Y031598D01*
Y031467D01*
X045794Y031401D01*
X046122D01*
X045728Y031073D02*
X046122D01*
X045925Y031270D01*
Y031007D01*
X058081Y030965D02*
X057753D01*
X057687Y030899D01*
Y030768D01*
X057753Y030702D01*
X058081D01*
Y030309D02*
X058015Y030440D01*
X057884Y030571D01*
X057753D01*
X057687Y030505D01*
Y030374D01*
X057753Y030309D01*
X057818D01*
X057884Y030374D01*
Y030571D01*
X040676Y036716D02*
X040610Y036781D01*
X040479D01*
X040413Y036716D01*
Y036453D01*
X040479Y036388D01*
X040610D01*
X040676Y036453D01*
X040807Y036716D02*
X040873Y036781D01*
X041004D01*
X041069Y036716D01*
Y036650D01*
X041004Y036585D01*
X040938D01*
X041004D01*
X041069Y036519D01*
Y036453D01*
X041004Y036388D01*
X040873D01*
X040807Y036453D01*
X042644Y036686D02*
X042579Y036752D01*
X042447D01*
X042382Y036686D01*
Y036424D01*
X042447Y036358D01*
X042579D01*
X042644Y036424D01*
X042972Y036358D02*
Y036752D01*
X042775Y036555D01*
X043038D01*
X041056Y031608D02*
X041122Y031673D01*
Y031804D01*
X041056Y031870D01*
X040794D01*
X040728Y031804D01*
Y031673D01*
X040794Y031608D01*
X041122Y031214D02*
Y031477D01*
X040925D01*
X040991Y031345D01*
Y031280D01*
X040925Y031214D01*
X040794D01*
X040728Y031280D01*
Y031411D01*
X040794Y031477D01*
X045358Y035220D02*
X045423Y035285D01*
Y035417D01*
X045358Y035482D01*
X045095D01*
X045030Y035417D01*
Y035285D01*
X045095Y035220D01*
X045423Y034826D02*
X045358Y034958D01*
X045226Y035089D01*
X045095D01*
X045030Y035023D01*
Y034892D01*
X045095Y034826D01*
X045161D01*
X045226Y034892D01*
Y035089D01*
X048428Y035574D02*
X048494Y035640D01*
Y035771D01*
X048428Y035837D01*
X048166D01*
X048100Y035771D01*
Y035640D01*
X048166Y035574D01*
Y035443D02*
X048100Y035377D01*
Y035246D01*
X048166Y035181D01*
X048428D01*
X048494Y035246D01*
Y035377D01*
X048428Y035443D01*
X048363D01*
X048297Y035377D01*
Y035181D01*
X055331Y035820D02*
X055266Y035886D01*
X055134D01*
X055069Y035820D01*
Y035558D01*
X055134Y035492D01*
X055266D01*
X055331Y035558D01*
X055462Y035492D02*
X055594D01*
X055528D01*
Y035886D01*
X055462Y035820D01*
X055790D02*
X055856Y035886D01*
X055987D01*
X056053Y035820D01*
Y035558D01*
X055987Y035492D01*
X055856D01*
X055790Y035558D01*
Y035820D01*
X062605Y033251D02*
X062539Y033317D01*
X062408D01*
X062343Y033251D01*
Y032989D01*
X062408Y032923D01*
X062539D01*
X062605Y032989D01*
X062736Y032923D02*
X062867D01*
X062802D01*
Y033317D01*
X062736Y033251D01*
X063064Y032923D02*
X063195D01*
X063130D01*
Y033317D01*
X063064Y033251D01*
X051480Y030269D02*
X051545Y030335D01*
Y030466D01*
X051480Y030531D01*
X051217D01*
X051152Y030466D01*
Y030335D01*
X051217Y030269D01*
X051152Y030138D02*
Y030007D01*
Y030072D01*
X051545D01*
X051480Y030138D01*
X051152Y029548D02*
Y029810D01*
X051414Y029548D01*
X051480D01*
X051545Y029613D01*
Y029744D01*
X051480Y029810D01*
X063842Y031253D02*
X063907Y031319D01*
Y031450D01*
X063842Y031516D01*
X063579D01*
X063514Y031450D01*
Y031319D01*
X063579Y031253D01*
X063514Y031122D02*
Y030991D01*
Y031057D01*
X063907D01*
X063842Y031122D01*
Y030794D02*
X063907Y030729D01*
Y030597D01*
X063842Y030532D01*
X063776D01*
X063711Y030597D01*
Y030663D01*
Y030597D01*
X063645Y030532D01*
X063579D01*
X063514Y030597D01*
Y030729D01*
X063579Y030794D01*
X056145Y028694D02*
X056210Y028760D01*
Y028891D01*
X056145Y028957D01*
X055883D01*
X055817Y028891D01*
Y028760D01*
X055883Y028694D01*
X055817Y028563D02*
Y028432D01*
Y028498D01*
X056210D01*
X056145Y028563D01*
X055817Y028038D02*
X056210D01*
X056014Y028235D01*
Y027973D01*
X052940Y028202D02*
X052874Y028268D01*
X052743D01*
X052677Y028202D01*
Y027940D01*
X052743Y027874D01*
X052874D01*
X052940Y027940D01*
X053071Y027874D02*
X053202D01*
X053136D01*
Y028268D01*
X053071Y028202D01*
X053661Y028268D02*
X053530Y028202D01*
X053399Y028071D01*
Y027940D01*
X053464Y027874D01*
X053595D01*
X053661Y027940D01*
Y028005D01*
X053595Y028071D01*
X053399D01*
X046522Y028232D02*
X046457Y028297D01*
X046325D01*
X046260Y028232D01*
Y027969D01*
X046325Y027904D01*
X046457D01*
X046522Y027969D01*
X046653Y027904D02*
X046785D01*
X046719D01*
Y028297D01*
X046653Y028232D01*
X046981Y028297D02*
X047244D01*
Y028232D01*
X046981Y027969D01*
Y027904D01*
X052198Y030279D02*
X052264Y030345D01*
Y030476D01*
X052198Y030541D01*
X051936D01*
X051870Y030476D01*
Y030345D01*
X051936Y030279D01*
X051870Y030148D02*
Y030017D01*
Y030082D01*
X052264D01*
X052198Y030148D01*
X051936Y029820D02*
X051870Y029754D01*
Y029623D01*
X051936Y029557D01*
X052198D01*
X052264Y029623D01*
Y029754D01*
X052198Y029820D01*
X052132D01*
X052067Y029754D01*
Y029557D01*
X061247Y028950D02*
X061181Y029016D01*
X061050D01*
X060984Y028950D01*
Y028688D01*
X061050Y028622D01*
X061181D01*
X061247Y028688D01*
X061640Y028622D02*
X061378D01*
X061640Y028884D01*
Y028950D01*
X061575Y029016D01*
X061443D01*
X061378Y028950D01*
X061771Y028622D02*
X061903D01*
X061837D01*
Y029016D01*
X061771Y028950D01*
X059859Y028940D02*
X059793Y029006D01*
X059662D01*
X059596Y028940D01*
Y028678D01*
X059662Y028612D01*
X059793D01*
X059859Y028678D01*
X060252Y028612D02*
X059990D01*
X060252Y028875D01*
Y028940D01*
X060187Y029006D01*
X060056D01*
X059990Y028940D01*
X060646Y028612D02*
X060384D01*
X060646Y028875D01*
Y028940D01*
X060580Y029006D01*
X060449D01*
X060384Y028940D01*
X053494Y030098D02*
Y030492D01*
X053691D01*
X053756Y030426D01*
Y030295D01*
X053691Y030230D01*
X053494D01*
X054150Y030098D02*
X053888D01*
X054150Y030361D01*
Y030426D01*
X054084Y030492D01*
X053953D01*
X053888Y030426D01*
X054941Y030837D02*
X055335D01*
Y030640D01*
X055269Y030574D01*
X055138D01*
X055072Y030640D01*
Y030837D01*
X055269Y030443D02*
X055335Y030377D01*
Y030246D01*
X055269Y030181D01*
X055203D01*
X055138Y030246D01*
Y030312D01*
Y030246D01*
X055072Y030181D01*
X055007D01*
X054941Y030246D01*
Y030377D01*
X055007Y030443D01*
X058307Y028612D02*
X058701D01*
Y028415D01*
X058635Y028350D01*
X058504D01*
X058438Y028415D01*
Y028612D01*
Y028481D02*
X058307Y028350D01*
X058701Y027956D02*
X058635Y028087D01*
X058504Y028219D01*
X058373D01*
X058307Y028153D01*
Y028022D01*
X058373Y027956D01*
X058438D01*
X058504Y028022D01*
Y028219D01*
X042362Y032254D02*
X042034D01*
X041968Y032188D01*
Y032057D01*
X042034Y031992D01*
X042362D01*
Y031860D02*
Y031598D01*
X042296D01*
X042034Y031860D01*
X041968D01*
X055994Y033750D02*
Y034144D01*
X056191D01*
X056256Y034078D01*
Y033947D01*
X056191Y033881D01*
X055994D01*
X056584Y033750D02*
Y034144D01*
X056388Y033947D01*
X056650D01*
X054380Y028317D02*
Y028710D01*
X054577D01*
X054642Y028645D01*
Y028514D01*
X054577Y028448D01*
X054380D01*
X054511D02*
X054642Y028317D01*
X055036Y028710D02*
X054774D01*
Y028514D01*
X054905Y028579D01*
X054970D01*
X055036Y028514D01*
Y028383D01*
X054970Y028317D01*
X054839D01*
X054774Y028383D01*
X063150Y036043D02*
X063543D01*
Y035847D01*
X063478Y035781D01*
X063346D01*
X063281Y035847D01*
Y036043D01*
Y035912D02*
X063150Y035781D01*
Y035650D02*
X063543D01*
Y035453D01*
X063478Y035387D01*
X063346D01*
X063281Y035453D01*
Y035650D01*
X063150Y035256D02*
Y035125D01*
Y035191D01*
X063412D01*
Y035256D01*
X062730Y035840D02*
X062795Y035906D01*
Y036037D01*
X062730Y036102D01*
X062467D01*
X062402Y036037D01*
Y035906D01*
X062467Y035840D01*
X062598D01*
Y035971D01*
X062402Y035709D02*
X062795D01*
X062402Y035446D01*
X062795D01*
Y035315D02*
X062402D01*
Y035118D01*
X062467Y035053D01*
X062730D01*
X062795Y035118D01*
Y035315D01*
X062057Y035840D02*
Y036102D01*
X061663D01*
Y035840D01*
X061860Y036102D02*
Y035971D01*
X062057Y035709D02*
X061663Y035446D01*
X062057D02*
X061663Y035709D01*
X062057Y035315D02*
Y035053D01*
Y035184D01*
X061663D01*
X060935Y035925D02*
X061329D01*
Y035728D01*
X061263Y035663D01*
X061132D01*
X061066Y035728D01*
Y035925D01*
X060935Y035335D02*
X061329D01*
X061132Y035532D01*
Y035269D01*
X058159Y035719D02*
X058553D01*
Y035522D01*
X058487Y035456D01*
X058356D01*
X058291Y035522D01*
Y035719D01*
X058159Y035063D02*
Y035325D01*
X058422Y035063D01*
X058487D01*
X058553Y035128D01*
Y035259D01*
X058487Y035325D01*
X059291Y036230D02*
Y036362D01*
X059226Y036427D01*
X058963D01*
X058898Y036362D01*
Y036230D01*
X058963Y036165D01*
X059226D01*
X059291Y036230D01*
Y035771D02*
Y036034D01*
X059094D01*
Y035902D01*
Y036034D01*
X058898D01*
X059291Y035378D02*
Y035640D01*
X059094D01*
Y035509D01*
Y035640D01*
X058898D01*
X059291Y034774D02*
Y034905D01*
X059226Y034970D01*
X058963D01*
X058898Y034905D01*
Y034774D01*
X058963Y034708D01*
X059226D01*
X059291Y034774D01*
X058898Y034577D02*
X059291D01*
X058898Y034315D01*
X059291D01*
X060029Y036457D02*
X059767D01*
X059636Y036326D01*
X059767Y036194D01*
X060029D01*
X059898Y036063D02*
X059636D01*
X059767D01*
X059833Y035998D01*
X059898Y035932D01*
Y035866D01*
X059636Y035473D02*
Y035604D01*
X059701Y035670D01*
X059833D01*
X059898Y035604D01*
Y035473D01*
X059833Y035407D01*
X059767D01*
Y035670D01*
X059636Y035210D02*
X059964D01*
X059833D01*
Y035276D01*
Y035145D01*
Y035210D01*
X059964D01*
X060029Y035145D01*
X059636Y034948D02*
X059898Y034686D01*
X059636Y034292D02*
Y034554D01*
X059898Y034292D01*
X059964D01*
X060029Y034358D01*
Y034489D01*
X059964Y034554D01*
X064196Y036283D02*
X064262Y036348D01*
Y036480D01*
X064196Y036545D01*
X064130D01*
X064065Y036480D01*
Y036348D01*
X063999Y036283D01*
X063934D01*
X063868Y036348D01*
Y036480D01*
X063934Y036545D01*
X063868Y036086D02*
Y035955D01*
X063934Y035889D01*
X064065D01*
X064130Y035955D01*
Y036086D01*
X064065Y036152D01*
X063934D01*
X063868Y036086D01*
X064130Y035758D02*
X063934D01*
X063868Y035693D01*
Y035496D01*
X064130D01*
Y035365D02*
X063868D01*
X063999D01*
X064065Y035299D01*
X064130Y035233D01*
Y035168D01*
Y034709D02*
Y034905D01*
X064065Y034971D01*
X063934D01*
X063868Y034905D01*
Y034709D01*
Y034381D02*
Y034512D01*
X063934Y034577D01*
X064065D01*
X064130Y034512D01*
Y034381D01*
X064065Y034315D01*
X063999D01*
Y034577D01*
D35*
X049514Y033583D02*
G03*
X049514Y033583I-000049J000000D01*
G01*
X042795Y032470D02*
G03*
X042795Y032470I-000049J000000D01*
G01*
D36*
X053695Y035168D02*
G03*
X053695Y035168I-000030J000000D01*
G01*
M02*
