G04 Layer_Physical_Order=1*
G04 Layer_Color=255*
%FSAX24Y24*%
%MOIN*%
G70*
G01*
G75*
G04:AMPARAMS|DCode=10|XSize=59.1mil|YSize=51.2mil|CornerRadius=12.8mil|HoleSize=0mil|Usage=FLASHONLY|Rotation=180.000|XOffset=0mil|YOffset=0mil|HoleType=Round|Shape=RoundedRectangle|*
%AMROUNDEDRECTD10*
21,1,0.0591,0.0256,0,0,180.0*
21,1,0.0335,0.0512,0,0,180.0*
1,1,0.0256,-0.0167,0.0128*
1,1,0.0256,0.0167,0.0128*
1,1,0.0256,0.0167,-0.0128*
1,1,0.0256,-0.0167,-0.0128*
%
%ADD10ROUNDEDRECTD10*%
G04:AMPARAMS|DCode=11|XSize=59.1mil|YSize=51.2mil|CornerRadius=12.8mil|HoleSize=0mil|Usage=FLASHONLY|Rotation=90.000|XOffset=0mil|YOffset=0mil|HoleType=Round|Shape=RoundedRectangle|*
%AMROUNDEDRECTD11*
21,1,0.0591,0.0256,0,0,90.0*
21,1,0.0335,0.0512,0,0,90.0*
1,1,0.0256,0.0128,0.0167*
1,1,0.0256,0.0128,-0.0167*
1,1,0.0256,-0.0128,-0.0167*
1,1,0.0256,-0.0128,0.0167*
%
%ADD11ROUNDEDRECTD11*%
%ADD12O,0.0236X0.0866*%
G04:AMPARAMS|DCode=13|XSize=26.4mil|YSize=42mil|CornerRadius=3.3mil|HoleSize=0mil|Usage=FLASHONLY|Rotation=90.000|XOffset=0mil|YOffset=0mil|HoleType=Round|Shape=RoundedRectangle|*
%AMROUNDEDRECTD13*
21,1,0.0264,0.0354,0,0,90.0*
21,1,0.0198,0.0420,0,0,90.0*
1,1,0.0066,0.0177,0.0099*
1,1,0.0066,0.0177,-0.0099*
1,1,0.0066,-0.0177,-0.0099*
1,1,0.0066,-0.0177,0.0099*
%
%ADD13ROUNDEDRECTD13*%
%ADD14O,0.0177X0.0827*%
G04:AMPARAMS|DCode=15|XSize=70.9mil|YSize=65mil|CornerRadius=4.9mil|HoleSize=0mil|Usage=FLASHONLY|Rotation=90.000|XOffset=0mil|YOffset=0mil|HoleType=Round|Shape=RoundedRectangle|*
%AMROUNDEDRECTD15*
21,1,0.0709,0.0552,0,0,90.0*
21,1,0.0611,0.0650,0,0,90.0*
1,1,0.0097,0.0276,0.0306*
1,1,0.0097,0.0276,-0.0306*
1,1,0.0097,-0.0276,-0.0306*
1,1,0.0097,-0.0276,0.0306*
%
%ADD15ROUNDEDRECTD15*%
G04:AMPARAMS|DCode=16|XSize=70.9mil|YSize=65mil|CornerRadius=4.9mil|HoleSize=0mil|Usage=FLASHONLY|Rotation=180.000|XOffset=0mil|YOffset=0mil|HoleType=Round|Shape=RoundedRectangle|*
%AMROUNDEDRECTD16*
21,1,0.0709,0.0552,0,0,180.0*
21,1,0.0611,0.0650,0,0,180.0*
1,1,0.0097,-0.0306,0.0276*
1,1,0.0097,0.0306,0.0276*
1,1,0.0097,0.0306,-0.0276*
1,1,0.0097,-0.0306,-0.0276*
%
%ADD16ROUNDEDRECTD16*%
%ADD17R,0.0945X0.0394*%
%ADD18R,0.0945X0.1299*%
%ADD19C,0.0079*%
%ADD20C,0.0118*%
%ADD21C,0.0157*%
%ADD22C,0.0087*%
%ADD23R,0.0591X0.0256*%
%ADD24R,0.0256X0.0591*%
%ADD25C,0.0591*%
G04:AMPARAMS|DCode=26|XSize=59.1mil|YSize=59.1mil|CornerRadius=8.9mil|HoleSize=0mil|Usage=FLASHONLY|Rotation=0.000|XOffset=0mil|YOffset=0mil|HoleType=Round|Shape=RoundedRectangle|*
%AMROUNDEDRECTD26*
21,1,0.0591,0.0413,0,0,0.0*
21,1,0.0413,0.0591,0,0,0.0*
1,1,0.0177,0.0207,-0.0207*
1,1,0.0177,-0.0207,-0.0207*
1,1,0.0177,-0.0207,0.0207*
1,1,0.0177,0.0207,0.0207*
%
%ADD26ROUNDEDRECTD26*%
%ADD27C,0.0630*%
G04:AMPARAMS|DCode=28|XSize=63mil|YSize=63mil|CornerRadius=15.7mil|HoleSize=0mil|Usage=FLASHONLY|Rotation=90.000|XOffset=0mil|YOffset=0mil|HoleType=Round|Shape=RoundedRectangle|*
%AMROUNDEDRECTD28*
21,1,0.0630,0.0315,0,0,90.0*
21,1,0.0315,0.0630,0,0,90.0*
1,1,0.0315,0.0157,0.0157*
1,1,0.0315,0.0157,-0.0157*
1,1,0.0315,-0.0157,-0.0157*
1,1,0.0315,-0.0157,0.0157*
%
%ADD28ROUNDEDRECTD28*%
G04:AMPARAMS|DCode=29|XSize=63mil|YSize=63mil|CornerRadius=7.9mil|HoleSize=0mil|Usage=FLASHONLY|Rotation=0.000|XOffset=0mil|YOffset=0mil|HoleType=Round|Shape=RoundedRectangle|*
%AMROUNDEDRECTD29*
21,1,0.0630,0.0472,0,0,0.0*
21,1,0.0472,0.0630,0,0,0.0*
1,1,0.0157,0.0236,-0.0236*
1,1,0.0157,-0.0236,-0.0236*
1,1,0.0157,-0.0236,0.0236*
1,1,0.0157,0.0236,0.0236*
%
%ADD29ROUNDEDRECTD29*%
G04:AMPARAMS|DCode=30|XSize=59.1mil|YSize=59.1mil|CornerRadius=14.8mil|HoleSize=0mil|Usage=FLASHONLY|Rotation=0.000|XOffset=0mil|YOffset=0mil|HoleType=Round|Shape=RoundedRectangle|*
%AMROUNDEDRECTD30*
21,1,0.0591,0.0295,0,0,0.0*
21,1,0.0295,0.0591,0,0,0.0*
1,1,0.0295,0.0148,-0.0148*
1,1,0.0295,-0.0148,-0.0148*
1,1,0.0295,-0.0148,0.0148*
1,1,0.0295,0.0148,0.0148*
%
%ADD30ROUNDEDRECTD30*%
%ADD31C,0.0256*%
G36*
X050654Y031520D02*
X050702Y031484D01*
X050757Y031461D01*
X050817Y031453D01*
X051152D01*
X051211Y031461D01*
X051236Y031471D01*
X051315Y031433D01*
X051336Y031411D01*
Y031004D01*
X051347Y030950D01*
X051377Y030905D01*
X051420Y030862D01*
X051422Y030837D01*
X051393Y030748D01*
X051372Y030739D01*
X051325Y030703D01*
X051288Y030656D01*
X051266Y030600D01*
X051258Y030541D01*
X051261Y030515D01*
X050808Y030062D01*
X050390D01*
X050361Y030098D01*
X050334Y030162D01*
X050349Y030197D01*
X050356Y030256D01*
X050349Y030315D01*
X050326Y030370D01*
X050289Y030417D01*
X050242Y030454D01*
X050187Y030476D01*
X050128Y030484D01*
X050069Y030476D01*
X050014Y030454D01*
X049967Y030417D01*
X049930Y030370D01*
X049909Y030318D01*
X048963D01*
X048956Y030325D01*
X048956Y030325D01*
X048917Y030384D01*
X048858Y030423D01*
X048854Y030424D01*
X048821Y030532D01*
X048995Y030706D01*
X049538D01*
X049592Y030717D01*
X049638Y030747D01*
X050449Y031558D01*
X050475Y031555D01*
X050534Y031562D01*
X050607Y031567D01*
X050654Y031520D01*
D02*
G37*
G36*
X049688Y031533D02*
X049743Y031510D01*
X049803Y031502D01*
X049861Y031509D01*
X049865Y031507D01*
X049917Y031424D01*
X049480Y030987D01*
X048937D01*
X048904Y030980D01*
X048852Y031048D01*
X048845Y031063D01*
X049059Y031277D01*
X049163D01*
X049217Y031288D01*
X049263Y031318D01*
X049391Y031446D01*
X049421Y031492D01*
X049488Y031510D01*
X049547Y031502D01*
X049607Y031510D01*
X049663Y031533D01*
X049675Y031542D01*
X049688Y031533D01*
D02*
G37*
G36*
X045254Y037776D02*
X045281Y037702D01*
X045241Y037606D01*
X045226Y037492D01*
X045241Y037378D01*
X045285Y037273D01*
X045355Y037182D01*
X045446Y037112D01*
X045552Y037068D01*
X045665Y037053D01*
X045779Y037068D01*
X045858Y037101D01*
X047893Y035065D01*
Y034594D01*
X047904Y034540D01*
X047935Y034495D01*
X048747Y033682D01*
X048793Y033652D01*
X048846Y033641D01*
X048988D01*
X049008Y033628D01*
X049067Y033541D01*
X049065Y033525D01*
X049073Y033466D01*
X049096Y033411D01*
X049132Y033364D01*
X049153Y033348D01*
Y033315D01*
X049164Y033261D01*
X049194Y033215D01*
X049650Y032759D01*
X049641Y032672D01*
X049556Y032611D01*
X049547Y032612D01*
X049488Y032605D01*
X049432Y032582D01*
X049419Y032572D01*
X049407Y032582D01*
X049351Y032605D01*
X049291Y032612D01*
X049232Y032605D01*
X049176Y032582D01*
X049163Y032572D01*
X049151Y032582D01*
X049095Y032605D01*
X049035Y032612D01*
X048976Y032605D01*
X048920Y032582D01*
X048907Y032572D01*
X048895Y032582D01*
X048839Y032605D01*
X048780Y032612D01*
X048720Y032605D01*
X048664Y032582D01*
X048652Y032572D01*
X048639Y032582D01*
X048583Y032605D01*
X048524Y032612D01*
X048464Y032605D01*
X048408Y032582D01*
X048396Y032572D01*
X048383Y032582D01*
X048327Y032605D01*
X048268Y032612D01*
X048208Y032605D01*
X048152Y032582D01*
X048140Y032572D01*
X048127Y032582D01*
X048071Y032605D01*
X048012Y032612D01*
X047952Y032605D01*
X047897Y032582D01*
X047884Y032572D01*
X047871Y032582D01*
X047816Y032605D01*
X047756Y032612D01*
X047696Y032605D01*
X047641Y032582D01*
X047628Y032572D01*
X047615Y032582D01*
X047560Y032605D01*
X047500Y032612D01*
X047440Y032605D01*
X047385Y032582D01*
X047372Y032572D01*
X047359Y032582D01*
X047304Y032605D01*
X047244Y032612D01*
X047184Y032605D01*
X047129Y032582D01*
X047116Y032572D01*
X047103Y032582D01*
X047048Y032605D01*
X046988Y032612D01*
X046929Y032605D01*
X046873Y032582D01*
X046826Y032546D01*
X046806Y032560D01*
X046732Y032574D01*
X046659Y032560D01*
X046596Y032518D01*
X046555Y032455D01*
X046540Y032382D01*
Y031732D01*
X046555Y031659D01*
X046510Y031630D01*
X046468Y031601D01*
X043929D01*
X043876Y031590D01*
X043830Y031560D01*
X043690Y031420D01*
X042166D01*
X042150Y031441D01*
X042102Y031477D01*
X042047Y031500D01*
X041988Y031508D01*
X041929Y031500D01*
X041874Y031477D01*
X041827Y031441D01*
X041790Y031394D01*
X041768Y031339D01*
X041760Y031280D01*
X041768Y031220D01*
X041790Y031165D01*
X041827Y031118D01*
X041874Y031082D01*
X041929Y031059D01*
X041988Y031051D01*
X042047Y031059D01*
X042060Y031064D01*
X042103Y031047D01*
X042152Y031011D01*
X042159Y031001D01*
X042163Y030966D01*
X042186Y030911D01*
X042222Y030864D01*
X042270Y030827D01*
X042325Y030805D01*
X042384Y030797D01*
X042443Y030805D01*
X042498Y030827D01*
X042545Y030864D01*
X042569Y030894D01*
X042639Y030882D01*
X042669Y030867D01*
X042675Y030818D01*
X042698Y030763D01*
X042734Y030716D01*
X042782Y030680D01*
X042837Y030657D01*
X042896Y030649D01*
X042955Y030657D01*
X043010Y030680D01*
X043057Y030716D01*
X043084Y030751D01*
X043114Y030756D01*
X043141Y030746D01*
X043212Y030698D01*
X043217Y030661D01*
X043239Y030606D01*
X043276Y030559D01*
X043323Y030522D01*
X043378Y030499D01*
X043437Y030492D01*
X043496Y030499D01*
X043551Y030522D01*
X043599Y030559D01*
X043635Y030606D01*
X043636Y030609D01*
X043640Y030612D01*
X043680Y030616D01*
X043770Y030572D01*
X043778Y030513D01*
X043800Y030458D01*
X043837Y030411D01*
X043884Y030375D01*
X043939Y030352D01*
X043998Y030344D01*
X044057Y030352D01*
X044112Y030375D01*
X044139Y030395D01*
X044226Y030438D01*
X044275Y030406D01*
X044278Y030404D01*
X044333Y030381D01*
X044392Y030374D01*
X044451Y030381D01*
X044506Y030404D01*
X044553Y030440D01*
X044590Y030488D01*
X044621Y030490D01*
X044715Y030454D01*
X044723Y030395D01*
X044745Y030340D01*
X044782Y030293D01*
X044829Y030257D01*
X044884Y030234D01*
X044943Y030226D01*
X045002Y030234D01*
X045026Y030243D01*
X045074Y030245D01*
X045146Y030199D01*
X045149Y030192D01*
X045185Y030145D01*
X045233Y030109D01*
X045288Y030086D01*
X045347Y030078D01*
X045406Y030086D01*
X045461Y030109D01*
X045508Y030145D01*
X045544Y030192D01*
X045563Y030237D01*
X045613Y030244D01*
X045659Y030241D01*
X045720Y030161D01*
X045719Y030149D01*
X045727Y030090D01*
X045749Y030035D01*
X045786Y029988D01*
X045833Y029951D01*
X045888Y029929D01*
X045947Y029921D01*
X046006Y029929D01*
X046061Y029951D01*
X046109Y029988D01*
X046145Y030035D01*
X046168Y030090D01*
X046168Y030096D01*
X046685D01*
X046726Y029996D01*
X046633Y029902D01*
X046602Y029857D01*
X046602Y029853D01*
X046569Y029828D01*
X046533Y029781D01*
X046510Y029725D01*
X046502Y029665D01*
Y029016D01*
X046510Y028956D01*
X046533Y028900D01*
X046569Y028853D01*
X046617Y028816D01*
X046673Y028793D01*
X046732Y028785D01*
X046792Y028793D01*
X046848Y028816D01*
X046894Y028852D01*
X046915Y028838D01*
X046988Y028823D01*
X047062Y028838D01*
X047116Y028874D01*
X047171Y028838D01*
X047229Y028827D01*
X047257Y028778D01*
X047271Y028727D01*
X047022Y028478D01*
X043589D01*
X040968Y031098D01*
Y031427D01*
X040954Y031496D01*
X040915Y031555D01*
X040656Y031815D01*
Y032323D01*
X040641Y032397D01*
X040599Y032459D01*
X040537Y032501D01*
X040463Y032516D01*
X040338D01*
Y032888D01*
X040430Y032980D01*
X041390D01*
Y033579D01*
X042449D01*
Y033433D01*
X043673D01*
Y033579D01*
X043955D01*
X044011Y033542D01*
X044084Y033528D01*
X044695D01*
X044769Y033542D01*
X044831Y033584D01*
X044873Y033646D01*
X044888Y033720D01*
Y034272D01*
X044873Y034346D01*
X044831Y034408D01*
X044769Y034450D01*
X044695Y034465D01*
X044084D01*
X044011Y034450D01*
X043948Y034408D01*
X043906Y034346D01*
X043892Y034272D01*
Y033940D01*
X043673D01*
Y034107D01*
X042449D01*
Y033940D01*
X041390D01*
Y034559D01*
X040165D01*
Y033226D01*
X040030Y033090D01*
X039991Y033032D01*
X039977Y032963D01*
Y032516D01*
X039852D01*
X039778Y032501D01*
X039716Y032459D01*
X039674Y032397D01*
X039659Y032323D01*
Y031771D01*
X039674Y031698D01*
X039716Y031635D01*
X039778Y031593D01*
X039852Y031579D01*
X040380D01*
X040490Y031469D01*
X040475Y031416D01*
X040445Y031373D01*
X039852D01*
X039794Y031361D01*
X039745Y031328D01*
X039712Y031279D01*
X039700Y031221D01*
Y030669D01*
X039712Y030611D01*
X039745Y030562D01*
X039794Y030529D01*
X039852Y030517D01*
X040463D01*
X040521Y030529D01*
X040570Y030562D01*
X040603Y030611D01*
X040615Y030669D01*
Y030799D01*
X040715Y030841D01*
X041248Y030307D01*
X041194Y030220D01*
X041100Y030252D01*
X040926Y030287D01*
X040748Y030298D01*
X040570Y030287D01*
X040396Y030252D01*
X040227Y030195D01*
X040067Y030116D01*
X039919Y030017D01*
X039786Y029900D01*
X039668Y029766D01*
X039651Y029740D01*
X039551Y029770D01*
Y037159D01*
X039651Y037190D01*
X039668Y037163D01*
X039786Y037030D01*
X039919Y036912D01*
X040067Y036813D01*
X040227Y036735D01*
X040396Y036677D01*
X040570Y036643D01*
X040748Y036631D01*
X040926Y036643D01*
X041100Y036677D01*
X041269Y036735D01*
X041429Y036813D01*
X041577Y036912D01*
X041711Y037030D01*
X041828Y037163D01*
X041856Y037206D01*
X041956Y037176D01*
Y036997D01*
X041970Y036928D01*
X042009Y036869D01*
X042105Y036773D01*
Y036239D01*
X042079Y036228D01*
X042023Y036185D01*
X041981Y036129D01*
X041954Y036064D01*
X041946Y036007D01*
X041768D01*
Y036132D01*
X041753Y036206D01*
X041711Y036268D01*
X041649Y036310D01*
X041575Y036325D01*
X041023D01*
X040949Y036310D01*
X040887Y036268D01*
X040845Y036206D01*
X040831Y036132D01*
Y035521D01*
X040845Y035448D01*
X040887Y035385D01*
X040949Y035343D01*
X041023Y035329D01*
X041575D01*
X041649Y035343D01*
X041711Y035385D01*
X041753Y035448D01*
X041768Y035521D01*
Y035646D01*
X041946D01*
X041954Y035589D01*
X041981Y035524D01*
X042023Y035468D01*
X042079Y035425D01*
X042145Y035398D01*
X042162Y035396D01*
Y035118D01*
X042176Y035049D01*
X042215Y034990D01*
X042449Y034757D01*
Y034338D01*
X043673D01*
Y035012D01*
X042704D01*
X042523Y035193D01*
Y035396D01*
X042540Y035398D01*
X042606Y035425D01*
X042618Y035435D01*
X042637Y035439D01*
X042669Y035461D01*
X042684Y035483D01*
X042769Y035506D01*
X042800Y035497D01*
X042848Y035460D01*
X042903Y035437D01*
X042963Y035430D01*
X043218D01*
X043278Y035437D01*
X043333Y035460D01*
X043381Y035497D01*
X043418Y035544D01*
X043441Y035600D01*
X043448Y035659D01*
Y035994D01*
X043441Y036054D01*
X043418Y036109D01*
X043381Y036157D01*
X043333Y036193D01*
X043278Y036216D01*
X043218Y036224D01*
X042963D01*
X042903Y036216D01*
X042848Y036193D01*
X042800Y036157D01*
X042769Y036148D01*
X042684Y036170D01*
X042669Y036193D01*
X042637Y036215D01*
X042618Y036218D01*
X042606Y036228D01*
X042540Y036255D01*
X042470Y036264D01*
X042467D01*
Y036848D01*
X042453Y036917D01*
X042425Y036958D01*
X042445Y037016D01*
X042476Y037055D01*
X042872D01*
X042932Y037063D01*
X042987Y037086D01*
X043035Y037122D01*
X043072Y037170D01*
X043095Y037226D01*
X043103Y037285D01*
Y037672D01*
X043177Y037736D01*
X043186Y037734D01*
X043245Y037614D01*
X043241Y037606D01*
X043226Y037492D01*
X043241Y037378D01*
X043285Y037273D01*
X043355Y037182D01*
X043446Y037112D01*
X043552Y037068D01*
X043665Y037053D01*
X043779Y037068D01*
X043885Y037112D01*
X043976Y037182D01*
X044046Y037273D01*
X044089Y037378D01*
X044104Y037492D01*
X044089Y037606D01*
X044050Y037702D01*
X044077Y037776D01*
X044090Y037802D01*
X044241D01*
X044254Y037776D01*
X044281Y037702D01*
X044241Y037606D01*
X044226Y037492D01*
X044241Y037378D01*
X044285Y037273D01*
X044355Y037182D01*
X044446Y037112D01*
X044552Y037068D01*
X044665Y037053D01*
X044779Y037068D01*
X044885Y037112D01*
X044976Y037182D01*
X045046Y037273D01*
X045089Y037378D01*
X045104Y037492D01*
X045089Y037606D01*
X045050Y037702D01*
X045077Y037776D01*
X045090Y037802D01*
X045241D01*
X045254Y037776D01*
D02*
G37*
G36*
X050139Y034917D02*
X050139Y034917D01*
X050151Y034856D01*
X050186Y034804D01*
X050349Y034640D01*
X050401Y034606D01*
X050463Y034593D01*
X051872D01*
X052091Y034375D01*
X052091Y034375D01*
X052139Y034327D01*
Y034100D01*
X052115Y034082D01*
X052109Y034074D01*
X052107Y034073D01*
X051991D01*
X051989Y034074D01*
X051983Y034082D01*
X051929Y034123D01*
X051867Y034149D01*
X051799Y034158D01*
X051732Y034149D01*
X051669Y034123D01*
X051615Y034082D01*
X051609Y034074D01*
X051607Y034073D01*
X051491D01*
X051489Y034074D01*
X051483Y034082D01*
X051429Y034123D01*
X051367Y034149D01*
X051299Y034158D01*
X051232Y034149D01*
X051169Y034123D01*
X051115Y034082D01*
X051109Y034074D01*
X051107Y034073D01*
X050991D01*
X050989Y034074D01*
X050983Y034082D01*
X050929Y034123D01*
X050867Y034149D01*
X050799Y034158D01*
X050732Y034149D01*
X050669Y034123D01*
X050615Y034082D01*
X050609Y034074D01*
X050607Y034073D01*
X050491D01*
X050489Y034074D01*
X050483Y034082D01*
X050429Y034123D01*
X050367Y034149D01*
X050299Y034158D01*
X050232Y034149D01*
X050169Y034123D01*
X050115Y034082D01*
X050109Y034074D01*
X050107Y034073D01*
X049991D01*
X049989Y034074D01*
X049983Y034082D01*
X049929Y034123D01*
X049867Y034149D01*
X049799Y034158D01*
X049732Y034149D01*
X049719Y034144D01*
X049634Y034217D01*
X049637Y034230D01*
Y034837D01*
X049731Y034905D01*
X049737Y034905D01*
X049799Y034897D01*
X049867Y034906D01*
X049929Y034932D01*
X049983Y034973D01*
X049989Y034981D01*
X049991Y034982D01*
X050050D01*
X050139Y034917D01*
D02*
G37*
G36*
X062780Y039089D02*
X062754Y039072D01*
X062620Y038955D01*
X062503Y038821D01*
X062404Y038673D01*
X062325Y038513D01*
X062268Y038344D01*
X062233Y038170D01*
X062221Y037992D01*
X062233Y037814D01*
X062268Y037640D01*
X062325Y037471D01*
X062404Y037312D01*
X062503Y037163D01*
X062620Y037030D01*
X062754Y036912D01*
X062902Y036813D01*
X063062Y036735D01*
X063230Y036677D01*
X063405Y036643D01*
X063583Y036631D01*
X063760Y036643D01*
X063935Y036677D01*
X064104Y036735D01*
X064263Y036813D01*
X064411Y036912D01*
X064545Y037030D01*
X064663Y037163D01*
X064680Y037190D01*
X064780Y037159D01*
Y029770D01*
X064680Y029740D01*
X064663Y029766D01*
X064545Y029900D01*
X064411Y030017D01*
X064263Y030116D01*
X064104Y030195D01*
X063935Y030252D01*
X063760Y030287D01*
X063583Y030298D01*
X063405Y030287D01*
X063351Y030276D01*
X063295Y030367D01*
X063295Y030367D01*
X063322Y030432D01*
X063331Y030502D01*
Y030758D01*
X063322Y030828D01*
X063295Y030893D01*
X063285Y030906D01*
X063282Y030924D01*
X063260Y030957D01*
X063237Y030972D01*
X063215Y031056D01*
X063224Y031087D01*
X063260Y031135D01*
X063283Y031190D01*
X063291Y031250D01*
Y031506D01*
X063283Y031565D01*
X063260Y031621D01*
X063224Y031668D01*
X063176Y031705D01*
X063121Y031728D01*
X063061Y031736D01*
X062726D01*
X062667Y031728D01*
X062611Y031705D01*
X062564Y031668D01*
X062527Y031621D01*
X062504Y031565D01*
X062496Y031506D01*
Y031250D01*
X062504Y031190D01*
X062527Y031135D01*
X062564Y031087D01*
X062573Y031056D01*
X062550Y030972D01*
X062527Y030957D01*
X062506Y030924D01*
X062502Y030906D01*
X062492Y030893D01*
X062465Y030828D01*
X062456Y030758D01*
Y030502D01*
X062462Y030460D01*
X062394Y030387D01*
X062116D01*
X062100Y030408D01*
X062053Y030444D01*
X061998Y030467D01*
X061939Y030474D01*
X061880Y030467D01*
X061825Y030444D01*
X061796Y030422D01*
X061782Y030424D01*
X061595Y030611D01*
X061550Y030642D01*
X061496Y030652D01*
X061250D01*
X061196Y030642D01*
X061151Y030611D01*
X061103Y030564D01*
X059272D01*
X059218Y030553D01*
X059172Y030523D01*
X059066Y030416D01*
X057518D01*
X057464Y030405D01*
X057459Y030402D01*
X057358Y030441D01*
X057352Y030448D01*
X057350Y030467D01*
X057310Y030564D01*
X057246Y030646D01*
X057164Y030709D01*
X057068Y030749D01*
X056965Y030763D01*
X056861Y030749D01*
X056765Y030709D01*
X056683Y030646D01*
X056619Y030564D01*
X056579Y030467D01*
X056566Y030364D01*
X056579Y030261D01*
X056619Y030165D01*
X056683Y030082D01*
X056765Y030019D01*
X056861Y029979D01*
X056879Y029977D01*
X056918Y029875D01*
X056888Y029829D01*
X056877Y029776D01*
Y029640D01*
X056673D01*
X056603Y029631D01*
X056538Y029604D01*
X056482Y029561D01*
X056439Y029505D01*
X056412Y029440D01*
X056403Y029370D01*
Y029114D01*
X056406Y029094D01*
X056211Y028900D01*
X055574D01*
X055541Y028933D01*
X055501Y029000D01*
X055506Y029045D01*
Y029380D01*
X055497Y029450D01*
X055470Y029515D01*
X055427Y029571D01*
X055406Y029587D01*
Y029872D01*
X055427Y029888D01*
X055463Y029935D01*
X055486Y029990D01*
X055489Y030008D01*
X055593Y030036D01*
X055612Y030011D01*
X055672Y029965D01*
X055742Y029936D01*
X055817Y029926D01*
X056112D01*
X056187Y029936D01*
X056257Y029965D01*
X056317Y030011D01*
X056363Y030071D01*
X056392Y030141D01*
X056402Y030217D01*
Y030512D01*
X056392Y030587D01*
X056363Y030657D01*
X056317Y030717D01*
X056257Y030763D01*
X056187Y030792D01*
X056112Y030802D01*
X055817D01*
X055742Y030792D01*
X055672Y030763D01*
X055612Y030717D01*
X055566Y030657D01*
X055537Y030587D01*
X055527Y030512D01*
Y030245D01*
X055443Y030209D01*
X055429Y030208D01*
X055427Y030211D01*
X055380Y030247D01*
X055325Y030270D01*
X055266Y030278D01*
X055207Y030270D01*
X055152Y030247D01*
X055104Y030211D01*
X055068Y030163D01*
X055045Y030108D01*
X055037Y030049D01*
X055045Y029990D01*
X055068Y029935D01*
X055104Y029888D01*
X055125Y029872D01*
Y029650D01*
X054980D01*
X054910Y029641D01*
X054845Y029614D01*
X054833Y029604D01*
X054814Y029601D01*
X054793Y029587D01*
X054777Y029579D01*
X054692D01*
X054675Y029587D01*
X054655Y029601D01*
X054636Y029604D01*
X054623Y029614D01*
X054558Y029641D01*
X054488Y029650D01*
X054232D01*
X054186Y029644D01*
X053180Y030651D01*
X053134Y030681D01*
X053081Y030692D01*
X052548D01*
X052530Y030734D01*
X052494Y030782D01*
X052447Y030818D01*
X052392Y030841D01*
X052333Y030848D01*
X052274Y030841D01*
X052219Y030818D01*
X052171Y030782D01*
X052135Y030734D01*
X052121Y030700D01*
X052055Y030674D01*
X052010Y030669D01*
X051667Y031012D01*
X051670Y031084D01*
X051762Y031158D01*
X052018D01*
X052077Y031166D01*
X052133Y031189D01*
X052180Y031225D01*
X052212Y031234D01*
X052296Y031212D01*
X052311Y031189D01*
X052343Y031167D01*
X052362Y031163D01*
X052375Y031154D01*
X052440Y031127D01*
X052510Y031118D01*
X052766D01*
X052836Y031127D01*
X052901Y031154D01*
X052957Y031197D01*
X053000Y031253D01*
X053027Y031318D01*
X053036Y031388D01*
Y031722D01*
X053027Y031792D01*
X053000Y031858D01*
X052957Y031914D01*
X052951Y031918D01*
Y032039D01*
X052957Y032043D01*
X053000Y032099D01*
X053027Y032164D01*
X053036Y032234D01*
Y032569D01*
X053027Y032639D01*
X053000Y032704D01*
X052957Y032760D01*
X052901Y032803D01*
X052836Y032830D01*
X052766Y032839D01*
X052510D01*
X052440Y032830D01*
X052417Y032821D01*
X052328Y032910D01*
X052364Y033016D01*
X052367Y033016D01*
X052429Y033042D01*
X052483Y033084D01*
X052514Y033124D01*
X052541Y033134D01*
X052558Y033135D01*
X052630Y033130D01*
X052644Y033112D01*
X052689Y033077D01*
X052742Y033055D01*
X052799Y033048D01*
X052856Y033055D01*
X052909Y033077D01*
X052955Y033112D01*
X052990Y033158D01*
X053012Y033211D01*
X053019Y033268D01*
Y033898D01*
X053012Y033955D01*
X052990Y034008D01*
X052955Y034053D01*
X052909Y034088D01*
X052856Y034110D01*
X052799Y034118D01*
X052742Y034110D01*
X052689Y034088D01*
X052644Y034053D01*
X052630Y034035D01*
X052558Y034030D01*
X052541Y034032D01*
X052514Y034041D01*
X052483Y034082D01*
X052460Y034100D01*
Y034327D01*
X052460Y034328D01*
X053237D01*
X053247Y034319D01*
X053305Y034242D01*
X053300Y034213D01*
Y034015D01*
X053310Y033963D01*
X053339Y033919D01*
X053383Y033890D01*
X053435Y033880D01*
X053789D01*
X053841Y033890D01*
X053885Y033919D01*
X053914Y033963D01*
X053925Y034015D01*
Y034213D01*
X053914Y034265D01*
X053914Y034265D01*
X053952Y034322D01*
X053966Y034389D01*
Y034587D01*
X053952Y034655D01*
X053938Y034675D01*
X053952Y034696D01*
X053966Y034763D01*
Y034961D01*
X053952Y035029D01*
X053914Y035086D01*
X053857Y035124D01*
X053789Y035138D01*
X053435D01*
X053368Y035124D01*
X053310Y035086D01*
X053272Y035029D01*
X053271Y035023D01*
X053118D01*
X053051Y035095D01*
X053060Y035157D01*
Y035787D01*
X053051Y035855D01*
X053025Y035918D01*
X053008Y035940D01*
X053049Y036038D01*
X053051Y036040D01*
X053189D01*
X053248Y036048D01*
X053304Y036071D01*
X053352Y036107D01*
X053388Y036155D01*
X053411Y036210D01*
X053419Y036270D01*
Y036604D01*
X053411Y036664D01*
X053388Y036719D01*
X053352Y036767D01*
X053304Y036803D01*
X053248Y036826D01*
X053189Y036834D01*
X052933D01*
X052874Y036826D01*
X052818Y036803D01*
X052770Y036767D01*
X052739Y036758D01*
X052655Y036781D01*
X052640Y036803D01*
X052607Y036825D01*
X052589Y036829D01*
X052576Y036838D01*
X052511Y036865D01*
X052441Y036875D01*
X052185D01*
X052115Y036865D01*
X052050Y036838D01*
X051994Y036795D01*
X051951Y036739D01*
X051929Y036687D01*
X051911Y036683D01*
X051885Y036680D01*
X051826Y036689D01*
X051809Y036730D01*
X051766Y036786D01*
X051710Y036829D01*
X051645Y036856D01*
X051575Y036865D01*
X051319D01*
X051249Y036856D01*
X051184Y036829D01*
X051171Y036819D01*
X051153Y036815D01*
X051132Y036801D01*
X051115Y036793D01*
X051030D01*
X051014Y036801D01*
X050993Y036815D01*
X050975Y036819D01*
X050962Y036829D01*
X050897Y036856D01*
X050827Y036865D01*
X050571D01*
X050501Y036856D01*
X050436Y036829D01*
X050380Y036786D01*
X050337Y036730D01*
X050310Y036664D01*
X050301Y036594D01*
Y036260D01*
X050310Y036190D01*
X050329Y036145D01*
X050316Y036103D01*
X050308Y036089D01*
X050273Y036044D01*
X050232Y036039D01*
X050169Y036013D01*
X050115Y035971D01*
X050109Y035964D01*
X050107Y035963D01*
X049991D01*
X049989Y035964D01*
X049983Y035971D01*
X049929Y036013D01*
X049867Y036039D01*
X049799Y036048D01*
X049732Y036039D01*
X049669Y036013D01*
X049615Y035971D01*
X049574Y035918D01*
X049548Y035855D01*
X049543Y035821D01*
X049444Y035808D01*
X049417Y035873D01*
X049374Y035929D01*
X049318Y035972D01*
X049253Y035999D01*
X049183Y036008D01*
X048848D01*
X048778Y035999D01*
X048713Y035972D01*
X048657Y035929D01*
X048614Y035873D01*
X048587Y035808D01*
X048578Y035738D01*
Y035482D01*
X048587Y035412D01*
X048614Y035347D01*
X048624Y035334D01*
X048628Y035316D01*
X048650Y035283D01*
X048672Y035268D01*
X048695Y035184D01*
X048695Y035184D01*
X048686Y035153D01*
X048649Y035105D01*
X048626Y035050D01*
X048619Y034990D01*
Y034734D01*
X048626Y034675D01*
X048649Y034619D01*
X048686Y034572D01*
X048733Y034535D01*
X048789Y034512D01*
X048848Y034504D01*
X049183D01*
X049216Y034509D01*
X049286Y034466D01*
X049316Y034434D01*
Y034351D01*
X049282Y034264D01*
X049222Y034256D01*
X049167Y034233D01*
X049120Y034197D01*
X049084Y034150D01*
X049061Y034095D01*
X049053Y034035D01*
X049055Y034022D01*
X048998Y033939D01*
X048894Y033933D01*
X048174Y034652D01*
Y035124D01*
X048164Y035177D01*
X048133Y035223D01*
X046057Y037299D01*
X046089Y037378D01*
X046104Y037492D01*
X046089Y037606D01*
X046050Y037702D01*
X046077Y037776D01*
X046090Y037802D01*
X046279D01*
X046328Y037702D01*
X046320Y037691D01*
X046280Y037595D01*
X046267Y037492D01*
X046280Y037389D01*
X046320Y037293D01*
X046383Y037210D01*
X046466Y037147D01*
X046562Y037107D01*
X046665Y037093D01*
X046769Y037107D01*
X046865Y037147D01*
X046947Y037210D01*
X047011Y037293D01*
X047050Y037389D01*
X047064Y037492D01*
X047050Y037595D01*
X047011Y037691D01*
X047003Y037702D01*
X047052Y037802D01*
X047241D01*
X047254Y037776D01*
X047281Y037702D01*
X047241Y037606D01*
X047226Y037492D01*
X047241Y037378D01*
X047285Y037273D01*
X047355Y037182D01*
X047446Y037112D01*
X047552Y037068D01*
X047665Y037053D01*
X047779Y037068D01*
X047885Y037112D01*
X047976Y037182D01*
X048046Y037273D01*
X048089Y037378D01*
X048104Y037492D01*
X048089Y037606D01*
X048050Y037702D01*
X048077Y037776D01*
X048090Y037802D01*
X048241D01*
X048254Y037776D01*
X048281Y037702D01*
X048241Y037606D01*
X048226Y037492D01*
X048241Y037378D01*
X048285Y037273D01*
X048355Y037182D01*
X048446Y037112D01*
X048552Y037068D01*
X048665Y037053D01*
X048779Y037068D01*
X048885Y037112D01*
X048976Y037182D01*
X049046Y037273D01*
X049089Y037378D01*
X049104Y037492D01*
X049089Y037606D01*
X049050Y037702D01*
X049077Y037776D01*
X049090Y037802D01*
X049241D01*
X049254Y037776D01*
X049281Y037702D01*
X049241Y037606D01*
X049226Y037492D01*
X049241Y037378D01*
X049285Y037273D01*
X049355Y037182D01*
X049446Y037112D01*
X049552Y037068D01*
X049665Y037053D01*
X049779Y037068D01*
X049885Y037112D01*
X049976Y037182D01*
X050046Y037273D01*
X050089Y037378D01*
X050104Y037492D01*
X050089Y037606D01*
X050086Y037614D01*
X050145Y037734D01*
X050163Y037739D01*
X050257Y037645D01*
X050241Y037606D01*
X050226Y037492D01*
X050241Y037378D01*
X050285Y037273D01*
X050355Y037182D01*
X050446Y037112D01*
X050552Y037068D01*
X050665Y037053D01*
X050779Y037068D01*
X050885Y037112D01*
X050976Y037182D01*
X051046Y037273D01*
X051089Y037378D01*
X051104Y037492D01*
X051089Y037606D01*
X051046Y037712D01*
X050976Y037803D01*
X050885Y037872D01*
X050779Y037916D01*
X050665Y037931D01*
X050552Y037916D01*
X050513Y037900D01*
X050365Y038048D01*
X050431Y038123D01*
X050446Y038112D01*
X050552Y038068D01*
X050665Y038053D01*
X050779Y038068D01*
X050885Y038112D01*
X050976Y038182D01*
X051046Y038273D01*
X051089Y038379D01*
X051104Y038492D01*
X051089Y038606D01*
X051046Y038712D01*
X050976Y038803D01*
X050885Y038872D01*
X050779Y038916D01*
X050665Y038931D01*
X050552Y038916D01*
X050446Y038872D01*
X050355Y038803D01*
X050285Y038712D01*
X050241Y038606D01*
X050226Y038492D01*
X050241Y038379D01*
X050285Y038273D01*
X050333Y038210D01*
X050264Y038136D01*
X050244Y038149D01*
X050175Y038163D01*
X050087D01*
X050038Y038263D01*
X050046Y038273D01*
X050089Y038379D01*
X050104Y038492D01*
X050089Y038606D01*
X050046Y038712D01*
X049976Y038803D01*
X049885Y038872D01*
X049779Y038916D01*
X049665Y038931D01*
X049552Y038916D01*
X049446Y038872D01*
X049355Y038803D01*
X049285Y038712D01*
X049241Y038606D01*
X049226Y038492D01*
X049241Y038379D01*
X049285Y038273D01*
X049293Y038263D01*
X049243Y038163D01*
X049037D01*
X048988Y038263D01*
X049011Y038293D01*
X049050Y038389D01*
X049064Y038492D01*
X049050Y038595D01*
X049011Y038691D01*
X048947Y038774D01*
X048865Y038837D01*
X048769Y038877D01*
X048665Y038891D01*
X048562Y038877D01*
X048466Y038837D01*
X048383Y038774D01*
X048320Y038691D01*
X048280Y038595D01*
X048267Y038492D01*
X048280Y038389D01*
X048320Y038293D01*
X048343Y038263D01*
X048294Y038163D01*
X048087D01*
X048038Y038263D01*
X048046Y038273D01*
X048089Y038379D01*
X048104Y038492D01*
X048089Y038606D01*
X048046Y038712D01*
X047976Y038803D01*
X047885Y038872D01*
X047779Y038916D01*
X047665Y038931D01*
X047552Y038916D01*
X047446Y038872D01*
X047355Y038803D01*
X047285Y038712D01*
X047241Y038606D01*
X047226Y038492D01*
X047241Y038379D01*
X047285Y038273D01*
X047293Y038263D01*
X047243Y038163D01*
X047087D01*
X047038Y038263D01*
X047046Y038273D01*
X047089Y038379D01*
X047104Y038492D01*
X047089Y038606D01*
X047046Y038712D01*
X046976Y038803D01*
X046885Y038872D01*
X046779Y038916D01*
X046665Y038931D01*
X046552Y038916D01*
X046446Y038872D01*
X046355Y038803D01*
X046285Y038712D01*
X046241Y038606D01*
X046226Y038492D01*
X046241Y038379D01*
X046285Y038273D01*
X046293Y038263D01*
X046243Y038163D01*
X046087D01*
X046038Y038263D01*
X046046Y038273D01*
X046089Y038379D01*
X046104Y038492D01*
X046089Y038606D01*
X046046Y038712D01*
X045976Y038803D01*
X045885Y038872D01*
X045779Y038916D01*
X045665Y038931D01*
X045552Y038916D01*
X045446Y038872D01*
X045355Y038803D01*
X045285Y038712D01*
X045241Y038606D01*
X045226Y038492D01*
X045241Y038379D01*
X045285Y038273D01*
X045293Y038263D01*
X045243Y038163D01*
X045037D01*
X044988Y038263D01*
X045011Y038293D01*
X045050Y038389D01*
X045064Y038492D01*
X045050Y038595D01*
X045011Y038691D01*
X044947Y038774D01*
X044865Y038837D01*
X044769Y038877D01*
X044665Y038891D01*
X044562Y038877D01*
X044466Y038837D01*
X044383Y038774D01*
X044320Y038691D01*
X044280Y038595D01*
X044267Y038492D01*
X044280Y038389D01*
X044320Y038293D01*
X044343Y038263D01*
X044294Y038163D01*
X044087D01*
X044038Y038263D01*
X044046Y038273D01*
X044089Y038379D01*
X044104Y038492D01*
X044089Y038606D01*
X044046Y038712D01*
X043976Y038803D01*
X043885Y038872D01*
X043779Y038916D01*
X043665Y038931D01*
X043552Y038916D01*
X043446Y038872D01*
X043355Y038803D01*
X043285Y038712D01*
X043269Y038673D01*
X043062D01*
X043046Y038712D01*
X042976Y038803D01*
X042885Y038872D01*
X042779Y038916D01*
X042665Y038931D01*
X042552Y038916D01*
X042446Y038872D01*
X042355Y038803D01*
X042285Y038712D01*
X042241Y038606D01*
X042226Y038492D01*
X042241Y038379D01*
X042285Y038273D01*
X042352Y038186D01*
X042206Y038040D01*
X042104Y038079D01*
X042098Y038170D01*
X042063Y038344D01*
X042006Y038513D01*
X041927Y038673D01*
X041828Y038821D01*
X041711Y038955D01*
X041577Y039072D01*
X041551Y039089D01*
X041581Y039189D01*
X062750D01*
X062780Y039089D01*
D02*
G37*
G36*
X050744Y029144D02*
Y028888D01*
X050753Y028818D01*
X050780Y028753D01*
X050789Y028740D01*
X050793Y028721D01*
X050815Y028689D01*
X050837Y028674D01*
X050860Y028590D01*
X050851Y028558D01*
X050815Y028511D01*
X050792Y028455D01*
X050784Y028396D01*
Y028140D01*
X050792Y028080D01*
X050815Y028025D01*
X050851Y027977D01*
X050899Y027941D01*
X050954Y027918D01*
X051014Y027910D01*
X051348D01*
X051408Y027918D01*
X051463Y027941D01*
X051511Y027977D01*
X051548Y028025D01*
X051571Y028080D01*
X051578Y028140D01*
Y028396D01*
X051571Y028455D01*
X051548Y028511D01*
X051511Y028558D01*
X051502Y028589D01*
X051525Y028674D01*
X051547Y028689D01*
X051569Y028721D01*
X051573Y028740D01*
X051579Y028748D01*
X051610Y028753D01*
X051657D01*
X051689Y028748D01*
X051695Y028740D01*
X051699Y028721D01*
X051720Y028689D01*
X051743Y028674D01*
X051766Y028589D01*
X051757Y028558D01*
X051720Y028511D01*
X051697Y028455D01*
X051689Y028396D01*
Y028140D01*
X051697Y028080D01*
X051720Y028025D01*
X051757Y027977D01*
X051804Y027941D01*
X051860Y027918D01*
X051919Y027910D01*
X052254D01*
X052313Y027918D01*
X052369Y027941D01*
X052417Y027977D01*
X052448Y028019D01*
X052457Y028025D01*
X052568Y028041D01*
X052776Y027832D01*
X052738Y027740D01*
X050606D01*
X050583Y027771D01*
X050562Y027840D01*
X050583Y027867D01*
X050606Y027923D01*
X050614Y027982D01*
Y028317D01*
X050606Y028376D01*
X050583Y028432D01*
X050546Y028480D01*
X050499Y028516D01*
X050443Y028539D01*
X050384Y028547D01*
X050128D01*
X050068Y028539D01*
X050013Y028516D01*
X049965Y028480D01*
X049934Y028471D01*
X049850Y028493D01*
X049835Y028516D01*
X049802Y028538D01*
X049784Y028541D01*
X049771Y028551D01*
X049706Y028578D01*
X049636Y028587D01*
X049380D01*
X049359Y028584D01*
X049254Y028690D01*
X049254Y028691D01*
X049249Y028730D01*
X049269Y028774D01*
X049321Y028829D01*
X049365Y028838D01*
X049385Y028852D01*
X049432Y028816D01*
X049488Y028793D01*
X049547Y028785D01*
X049607Y028793D01*
X049663Y028816D01*
X049675Y028826D01*
X049688Y028816D01*
X049743Y028793D01*
X049803Y028785D01*
X049863Y028793D01*
X049918Y028816D01*
X049931Y028826D01*
X049944Y028816D01*
X049999Y028793D01*
X050059Y028785D01*
X050119Y028793D01*
X050174Y028816D01*
X050222Y028853D01*
X050259Y028900D01*
X050282Y028956D01*
X050290Y029016D01*
Y029160D01*
X050729D01*
X050744Y029144D01*
D02*
G37*
G36*
X043386Y028170D02*
X043445Y028130D01*
X043514Y028117D01*
X047096D01*
X047166Y028130D01*
X047224Y028170D01*
X047379Y028324D01*
X047384Y028324D01*
X047477Y028281D01*
Y027982D01*
X047485Y027923D01*
X047508Y027867D01*
X047529Y027840D01*
X047508Y027771D01*
X047484Y027740D01*
X041581D01*
X041551Y027840D01*
X041577Y027857D01*
X041711Y027975D01*
X041828Y028108D01*
X041927Y028256D01*
X042006Y028416D01*
X042063Y028585D01*
X042098Y028759D01*
X042109Y028937D01*
X042098Y029115D01*
X042063Y029289D01*
X042031Y029383D01*
X042118Y029437D01*
X043386Y028170D01*
D02*
G37*
G36*
X058382Y029252D02*
X058390Y029192D01*
X058413Y029137D01*
X058449Y029089D01*
X058497Y029052D01*
X058553Y029029D01*
X058612Y029021D01*
X058672Y029029D01*
X058727Y029052D01*
X058774Y029088D01*
X058795Y029074D01*
X058868Y029060D01*
X058942Y029074D01*
X058996Y029111D01*
X059050Y029074D01*
X059124Y029060D01*
X059199Y028973D01*
Y028923D01*
X058419Y028143D01*
X058178D01*
X058150Y028177D01*
X058121Y028243D01*
X058135Y028277D01*
X058143Y028337D01*
Y028593D01*
X058135Y028652D01*
X058113Y028707D01*
X058076Y028755D01*
X058067Y028786D01*
X058090Y028871D01*
X058112Y028886D01*
X058134Y028918D01*
X058138Y028937D01*
X058147Y028950D01*
X058174Y029015D01*
X058184Y029085D01*
Y029341D01*
X058174Y029411D01*
X058147Y029476D01*
X058104Y029532D01*
X058049Y029575D01*
X058007Y029592D01*
X058027Y029692D01*
X058382D01*
Y029252D01*
D02*
G37*
G36*
X051807Y030475D02*
X052036Y030245D01*
X052082Y030215D01*
X052136Y030204D01*
X052924D01*
X053787Y029341D01*
Y028917D01*
X053797Y028864D01*
X053828Y028818D01*
X054015Y028631D01*
X054060Y028601D01*
X054114Y028590D01*
X054440D01*
X054566Y028464D01*
X054612Y028433D01*
X054665Y028423D01*
X056102D01*
X056111Y028400D01*
X056148Y028352D01*
X056195Y028316D01*
X056250Y028293D01*
X056309Y028285D01*
X056368Y028293D01*
X056389Y028285D01*
X056405Y028243D01*
X056337Y028143D01*
X055766D01*
X055749Y028185D01*
X055713Y028232D01*
X055665Y028269D01*
X055610Y028291D01*
X055551Y028299D01*
X055492Y028291D01*
X055437Y028269D01*
X055390Y028232D01*
X055353Y028185D01*
X055336Y028143D01*
X053392D01*
X053041Y028494D01*
Y029167D01*
X053027Y029236D01*
X052988Y029295D01*
X052647Y029636D01*
X052589Y029675D01*
X052520Y029689D01*
X050955D01*
X050897Y029677D01*
X050896Y029677D01*
X050837Y029669D01*
X050781Y029647D01*
X050734Y029610D01*
X050698Y029563D01*
X050681Y029521D01*
X050290D01*
Y029665D01*
X050288Y029681D01*
X050348Y029768D01*
X050367Y029781D01*
X050866D01*
X050920Y029791D01*
X050965Y029822D01*
X051460Y030316D01*
X051486Y030313D01*
X051545Y030321D01*
X051600Y030344D01*
X051648Y030380D01*
X051684Y030427D01*
X051692Y030448D01*
X051782Y030477D01*
X051807Y030475D01*
D02*
G37*
G36*
X062233Y029115D02*
X062221Y028937D01*
X062233Y028759D01*
X062256Y028642D01*
X062243Y028611D01*
X062186Y028551D01*
X062175Y028547D01*
X061959D01*
X061899Y028539D01*
X061844Y028516D01*
X061796Y028480D01*
X061765Y028471D01*
X061681Y028493D01*
X061665Y028516D01*
X061633Y028538D01*
X061614Y028541D01*
X061602Y028551D01*
X061536Y028578D01*
X061467Y028587D01*
X061460D01*
X061370Y028661D01*
X061362Y028721D01*
X061339Y028776D01*
X061303Y028823D01*
X061256Y028859D01*
X061201Y028882D01*
X061142Y028890D01*
X061119Y028981D01*
X061171Y029060D01*
X061245Y029074D01*
X061265Y029088D01*
X061312Y029052D01*
X061367Y029029D01*
X061427Y029021D01*
X061487Y029029D01*
X061542Y029052D01*
X061555Y029062D01*
X061568Y029052D01*
X061623Y029029D01*
X061683Y029021D01*
X061743Y029029D01*
X061798Y029052D01*
X061811Y029062D01*
X061824Y029052D01*
X061879Y029029D01*
X061939Y029021D01*
X061999Y029029D01*
X062054Y029052D01*
X062102Y029089D01*
X062139Y029137D01*
X062233Y029115D01*
D02*
G37*
%LPC*%
G36*
X046742Y034923D02*
X046683Y034915D01*
X046628Y034893D01*
X046581Y034856D01*
X046565Y034835D01*
X046329D01*
X046313Y034856D01*
X046266Y034893D01*
X046211Y034915D01*
X046152Y034923D01*
X046092Y034915D01*
X046037Y034893D01*
X045990Y034856D01*
X045954Y034809D01*
X045931Y034754D01*
X045923Y034695D01*
X045931Y034636D01*
X045954Y034581D01*
X045990Y034533D01*
X046037Y034497D01*
X046092Y034474D01*
X046152Y034467D01*
X046211Y034474D01*
X046266Y034497D01*
X046313Y034533D01*
X046329Y034554D01*
X046565D01*
X046581Y034533D01*
X046628Y034497D01*
X046683Y034474D01*
X046742Y034467D01*
X046801Y034474D01*
X046856Y034497D01*
X046904Y034533D01*
X046940Y034581D01*
X046963Y034636D01*
X046970Y034695D01*
X046963Y034754D01*
X046940Y034809D01*
X046904Y034856D01*
X046856Y034893D01*
X046801Y034915D01*
X046742Y034923D01*
D02*
G37*
G36*
X040473Y036284D02*
X039921D01*
X039863Y036272D01*
X039814Y036240D01*
X039781Y036190D01*
X039769Y036132D01*
Y035521D01*
X039781Y035463D01*
X039814Y035414D01*
X039863Y035381D01*
X039921Y035370D01*
X040473D01*
X040531Y035381D01*
X040580Y035414D01*
X040613Y035463D01*
X040625Y035521D01*
Y036132D01*
X040613Y036190D01*
X040580Y036240D01*
X040531Y036272D01*
X040473Y036284D01*
D02*
G37*
G36*
X044695Y035526D02*
X044084D01*
X044026Y035515D01*
X043977Y035482D01*
X043944Y035433D01*
X043933Y035375D01*
Y034822D01*
X043944Y034764D01*
X043977Y034715D01*
X044026Y034682D01*
X044084Y034671D01*
X044695D01*
X044753Y034682D01*
X044803Y034715D01*
X044835Y034764D01*
X044847Y034822D01*
Y035375D01*
X044835Y035433D01*
X044803Y035482D01*
X044753Y035515D01*
X044695Y035526D01*
D02*
G37*
G36*
X043633Y033161D02*
X042489D01*
Y032567D01*
X043633D01*
Y033161D01*
D02*
G37*
G36*
X051665Y037931D02*
X051552Y037916D01*
X051446Y037872D01*
X051355Y037803D01*
X051285Y037712D01*
X051241Y037606D01*
X051226Y037492D01*
X051241Y037378D01*
X051285Y037273D01*
X051355Y037182D01*
X051446Y037112D01*
X051552Y037068D01*
X051665Y037053D01*
X051779Y037068D01*
X051885Y037112D01*
X051976Y037182D01*
X052046Y037273D01*
X052089Y037378D01*
X052104Y037492D01*
X052089Y037606D01*
X052046Y037712D01*
X051976Y037803D01*
X051885Y037872D01*
X051779Y037916D01*
X051665Y037931D01*
D02*
G37*
G36*
X054636Y036097D02*
X054380D01*
X054310Y036088D01*
X054245Y036061D01*
X054232Y036051D01*
X054214Y036047D01*
X054181Y036026D01*
X054166Y036003D01*
X054082Y035980D01*
X054050Y035989D01*
X054003Y036026D01*
X053947Y036049D01*
X053888Y036057D01*
X053632D01*
X053572Y036049D01*
X053517Y036026D01*
X053469Y035989D01*
X053433Y035942D01*
X053410Y035886D01*
X053402Y035827D01*
Y035492D01*
X053410Y035433D01*
X053433Y035377D01*
X053469Y035330D01*
X053517Y035293D01*
X053572Y035270D01*
X053632Y035262D01*
X053888D01*
X053947Y035270D01*
X054003Y035293D01*
X054050Y035330D01*
X054082Y035339D01*
X054166Y035316D01*
X054181Y035293D01*
X054214Y035271D01*
X054232Y035268D01*
X054245Y035258D01*
X054310Y035231D01*
X054327Y035229D01*
X054330Y035128D01*
X054313Y035124D01*
X054255Y035086D01*
X054217Y035029D01*
X054204Y034961D01*
Y034763D01*
X054217Y034696D01*
X054255Y034638D01*
X054313Y034600D01*
X054380Y034587D01*
X054734D01*
X054771Y034557D01*
Y034438D01*
X054722Y034390D01*
X054380D01*
X054313Y034376D01*
X054255Y034338D01*
X054217Y034281D01*
X054204Y034213D01*
Y034015D01*
X054217Y033948D01*
X054255Y033890D01*
X054313Y033852D01*
X054380Y033839D01*
X054734D01*
X054802Y033852D01*
X054859Y033890D01*
X054897Y033948D01*
X054910Y034015D01*
Y034180D01*
X055011Y034281D01*
X055041Y034326D01*
X055052Y034380D01*
Y035127D01*
X055140Y035165D01*
X055156Y035168D01*
X055981Y034343D01*
Y034178D01*
X055980Y034177D01*
X055944Y034130D01*
X055921Y034075D01*
X055913Y034016D01*
X055921Y033957D01*
X055944Y033902D01*
X055980Y033854D01*
X056028Y033818D01*
X056083Y033795D01*
X056142Y033787D01*
X056201Y033795D01*
X056256Y033818D01*
X056303Y033854D01*
X056339Y033902D01*
X056362Y033957D01*
X056370Y034016D01*
X056362Y034075D01*
X056339Y034130D01*
X056303Y034177D01*
X056302Y034178D01*
Y034409D01*
X056302Y034409D01*
X056290Y034471D01*
X056255Y034523D01*
X055005Y035773D01*
X054953Y035808D01*
X054906Y035817D01*
Y035827D01*
X054897Y035897D01*
X054870Y035962D01*
X054827Y036018D01*
X054771Y036061D01*
X054706Y036088D01*
X054636Y036097D01*
D02*
G37*
G36*
X056665Y037931D02*
X056552Y037916D01*
X056446Y037872D01*
X056355Y037803D01*
X056285Y037712D01*
X056241Y037606D01*
X056226Y037492D01*
X056241Y037378D01*
X056285Y037273D01*
X056355Y037182D01*
X056446Y037112D01*
X056505Y037088D01*
Y035628D01*
X056505Y035628D01*
X056517Y035567D01*
X056552Y035514D01*
X056650Y035416D01*
Y033331D01*
X056642Y033320D01*
X056596Y033209D01*
X056580Y033091D01*
X056596Y032972D01*
X056642Y032861D01*
X056715Y032766D01*
X056810Y032693D01*
X056921Y032647D01*
X056969Y032641D01*
Y032540D01*
X056921Y032534D01*
X056810Y032488D01*
X056715Y032415D01*
X056642Y032320D01*
X056613Y032251D01*
X056465D01*
X056437Y032320D01*
X056364Y032415D01*
X056269Y032488D01*
X056158Y032534D01*
X056039Y032549D01*
X055921Y032534D01*
X055810Y032488D01*
X055715Y032415D01*
X055642Y032320D01*
X055613Y032251D01*
X055496D01*
Y032327D01*
X055489Y032384D01*
X055467Y032437D01*
X055432Y032483D01*
X055386Y032518D01*
X055333Y032540D01*
X055276Y032547D01*
X055165D01*
X055158Y032647D01*
X055269Y032693D01*
X055364Y032766D01*
X055437Y032861D01*
X055483Y032972D01*
X055498Y033091D01*
X055483Y033209D01*
X055437Y033320D01*
X055364Y033415D01*
X055269Y033488D01*
X055158Y033534D01*
X055039Y033549D01*
X054921Y033534D01*
X054810Y033488D01*
X054715Y033415D01*
X054642Y033320D01*
X054596Y033209D01*
X054580Y033091D01*
X054596Y032972D01*
X054642Y032861D01*
X054715Y032766D01*
X054810Y032693D01*
X054921Y032647D01*
X054913Y032547D01*
X054803D01*
X054746Y032540D01*
X054693Y032518D01*
X054647Y032483D01*
X054612Y032437D01*
X054590Y032384D01*
X054583Y032327D01*
Y031854D01*
X054590Y031797D01*
X054612Y031744D01*
X054647Y031698D01*
X054693Y031663D01*
X054746Y031641D01*
X054803Y031634D01*
X055276D01*
X055333Y031641D01*
X055386Y031663D01*
X055432Y031698D01*
X055467Y031744D01*
X055489Y031797D01*
X055496Y031854D01*
Y031930D01*
X055613D01*
X055642Y031861D01*
X055715Y031766D01*
X055810Y031693D01*
X055921Y031647D01*
X056039Y031632D01*
X056158Y031647D01*
X056269Y031693D01*
X056364Y031766D01*
X056437Y031861D01*
X056465Y031930D01*
X056613D01*
X056642Y031861D01*
X056715Y031766D01*
X056810Y031693D01*
X056921Y031647D01*
X057039Y031632D01*
X057158Y031647D01*
X057269Y031693D01*
X057364Y031766D01*
X057437Y031861D01*
X057483Y031972D01*
X057498Y032091D01*
X057483Y032209D01*
X057437Y032320D01*
X057364Y032415D01*
X057269Y032488D01*
X057158Y032534D01*
X057110Y032540D01*
Y032641D01*
X057158Y032647D01*
X057269Y032693D01*
X057364Y032766D01*
X057437Y032861D01*
X057483Y032972D01*
X057498Y033091D01*
X057483Y033209D01*
X057437Y033320D01*
X057364Y033415D01*
X057269Y033488D01*
X057158Y033534D01*
X057039Y033549D01*
X056972Y033609D01*
Y035482D01*
X056959Y035544D01*
X056925Y035596D01*
X056925Y035596D01*
X056826Y035694D01*
Y037088D01*
X056885Y037112D01*
X056976Y037182D01*
X057046Y037273D01*
X057089Y037378D01*
X057104Y037492D01*
X057089Y037606D01*
X057046Y037712D01*
X056976Y037803D01*
X056885Y037872D01*
X056779Y037916D01*
X056665Y037931D01*
D02*
G37*
G36*
X053780Y033559D02*
X053661Y033544D01*
X053550Y033498D01*
X053455Y033425D01*
X053382Y033330D01*
X053336Y033219D01*
X053321Y033100D01*
X053336Y032982D01*
X053382Y032871D01*
X053455Y032776D01*
X053550Y032703D01*
X053661Y032657D01*
X053709Y032651D01*
Y032550D01*
X053661Y032544D01*
X053550Y032498D01*
X053455Y032425D01*
X053382Y032330D01*
X053336Y032219D01*
X053321Y032100D01*
X053336Y031982D01*
X053382Y031871D01*
X053455Y031776D01*
X053550Y031703D01*
X053661Y031657D01*
X053648Y031558D01*
X053622D01*
X053544Y031548D01*
X053472Y031518D01*
X053410Y031470D01*
X053362Y031408D01*
X053332Y031336D01*
X053322Y031258D01*
Y030943D01*
X053332Y030865D01*
X053362Y030793D01*
X053410Y030731D01*
X053472Y030683D01*
X053544Y030653D01*
X053622Y030643D01*
X053937D01*
X054015Y030653D01*
X054087Y030683D01*
X054149Y030731D01*
X054197Y030793D01*
X054227Y030865D01*
X054237Y030943D01*
Y031258D01*
X054227Y031336D01*
X054197Y031408D01*
X054149Y031470D01*
X054087Y031518D01*
X054015Y031548D01*
X053937Y031558D01*
X053911D01*
X053898Y031657D01*
X054009Y031703D01*
X054104Y031776D01*
X054177Y031871D01*
X054223Y031982D01*
X054238Y032100D01*
X054223Y032219D01*
X054177Y032330D01*
X054104Y032425D01*
X054009Y032498D01*
X053898Y032544D01*
X053850Y032550D01*
Y032651D01*
X053898Y032657D01*
X054009Y032703D01*
X054104Y032776D01*
X054177Y032871D01*
X054223Y032982D01*
X054238Y033100D01*
X054223Y033219D01*
X054177Y033330D01*
X054104Y033425D01*
X054009Y033498D01*
X053898Y033544D01*
X053780Y033559D01*
D02*
G37*
G36*
X063229Y034316D02*
X062677D01*
X062619Y034304D01*
X062569Y034271D01*
X062537Y034222D01*
X062525Y034164D01*
Y033553D01*
X062537Y033495D01*
X062569Y033445D01*
X062619Y033413D01*
X062677Y033401D01*
X063229D01*
X063287Y033413D01*
X063336Y033445D01*
X063369Y033495D01*
X063380Y033553D01*
Y034164D01*
X063369Y034222D01*
X063336Y034271D01*
X063287Y034304D01*
X063229Y034316D01*
D02*
G37*
G36*
X062126Y034356D02*
X061574D01*
X061501Y034342D01*
X061438Y034300D01*
X061397Y034238D01*
X061382Y034164D01*
Y034125D01*
X061339Y034087D01*
X061279Y034079D01*
X061224Y034056D01*
X061177Y034020D01*
X061141Y033972D01*
X061118Y033917D01*
X061110Y033858D01*
X061118Y033799D01*
X061141Y033744D01*
X061177Y033697D01*
X061224Y033661D01*
X061279Y033638D01*
X061339Y033630D01*
X061382Y033592D01*
Y033553D01*
X061397Y033479D01*
X061438Y033417D01*
X061439Y033416D01*
X061402Y033320D01*
X061401Y033321D01*
X061342Y033313D01*
X061286Y033290D01*
X061239Y033254D01*
X061206Y033211D01*
X061201Y033205D01*
X061185Y033199D01*
X061088Y033188D01*
X061065Y033206D01*
X061010Y033228D01*
X060951Y033236D01*
X060926Y033233D01*
X060877Y033246D01*
X060822Y033308D01*
X060821Y033317D01*
X060798Y033372D01*
X060762Y033419D01*
X060715Y033456D01*
X060659Y033478D01*
X060600Y033486D01*
X060541Y033478D01*
X060486Y033456D01*
X060439Y033419D01*
X060403Y033372D01*
X060380Y033317D01*
X060372Y033258D01*
X060380Y033199D01*
X060398Y033154D01*
X060395Y033143D01*
X060347Y033120D01*
X060344Y033119D01*
X060296Y033107D01*
X060252Y033141D01*
X060197Y033163D01*
X060138Y033171D01*
X060079Y033163D01*
X060024Y033141D01*
X059976Y033104D01*
X059949Y033068D01*
X059899Y033064D01*
X059839Y033074D01*
X059834Y033087D01*
X059797Y033134D01*
X059750Y033170D01*
X059695Y033193D01*
X059636Y033201D01*
X059577Y033193D01*
X059522Y033170D01*
X059474Y033134D01*
X059372Y033164D01*
X059349Y033182D01*
X059294Y033204D01*
X059235Y033212D01*
X059176Y033204D01*
X059121Y033182D01*
X059039Y033144D01*
X058992Y033180D01*
X058937Y033203D01*
X058878Y033211D01*
X058819Y033203D01*
X058764Y033180D01*
X058717Y033144D01*
X058680Y033096D01*
X058657Y033041D01*
X058650Y032982D01*
X058657Y032923D01*
X058666Y032902D01*
X058620Y032824D01*
X058618Y032821D01*
X058601Y032808D01*
X058539Y032796D01*
X058476Y032754D01*
X058435Y032692D01*
X058420Y032618D01*
Y031969D01*
X058435Y031895D01*
X058476Y031833D01*
X058539Y031791D01*
X058612Y031776D01*
X058686Y031791D01*
X058706Y031805D01*
X058753Y031769D01*
X058808Y031746D01*
X058868Y031738D01*
X058928Y031746D01*
X058983Y031769D01*
X058996Y031779D01*
X059009Y031769D01*
X059064Y031746D01*
X059124Y031738D01*
X059184Y031746D01*
X059239Y031769D01*
X059252Y031779D01*
X059265Y031769D01*
X059320Y031746D01*
X059380Y031738D01*
X059440Y031746D01*
X059495Y031769D01*
X059508Y031779D01*
X059521Y031769D01*
X059576Y031746D01*
X059636Y031738D01*
X059731Y031660D01*
Y031594D01*
X059731Y031594D01*
X059743Y031533D01*
X059778Y031481D01*
X059890Y031369D01*
X059890Y031368D01*
X059898Y031309D01*
X059920Y031254D01*
X059957Y031207D01*
X060004Y031170D01*
X060059Y031148D01*
X060118Y031140D01*
X060177Y031148D01*
X060232Y031170D01*
X060280Y031207D01*
X060316Y031254D01*
X060339Y031309D01*
X060346Y031368D01*
X060339Y031427D01*
X060316Y031482D01*
X060280Y031530D01*
X060232Y031566D01*
X060177Y031589D01*
X060130Y031595D01*
X060129Y031595D01*
X060120Y031611D01*
X060133Y031726D01*
X060148Y031738D01*
X060207Y031746D01*
X060263Y031769D01*
X060276Y031779D01*
X060288Y031769D01*
X060344Y031746D01*
X060404Y031738D01*
X060463Y031746D01*
X060519Y031769D01*
X060532Y031779D01*
X060544Y031769D01*
X060600Y031746D01*
X060659Y031738D01*
X060675Y031740D01*
X060762Y031680D01*
X060775Y031661D01*
Y031604D01*
X060786Y031551D01*
X060816Y031505D01*
X060986Y031335D01*
X060982Y031309D01*
X060990Y031250D01*
X061013Y031195D01*
X061049Y031148D01*
X061096Y031111D01*
X061152Y031089D01*
X061211Y031081D01*
X061270Y031089D01*
X061325Y031111D01*
X061372Y031148D01*
X061408Y031195D01*
X061431Y031250D01*
X061439Y031309D01*
X061431Y031368D01*
X061408Y031423D01*
X061372Y031471D01*
X061325Y031507D01*
X061270Y031530D01*
X061211Y031537D01*
X061195Y031535D01*
X061123Y031605D01*
X061127Y031650D01*
X061171Y031738D01*
X061231Y031746D01*
X061287Y031769D01*
X061299Y031779D01*
X061312Y031769D01*
X061367Y031746D01*
X061427Y031738D01*
X061487Y031746D01*
X061542Y031769D01*
X061555Y031779D01*
X061568Y031769D01*
X061623Y031746D01*
X061683Y031738D01*
X061743Y031746D01*
X061798Y031769D01*
X061845Y031805D01*
X061865Y031791D01*
X061939Y031776D01*
X062013Y031791D01*
X062075Y031833D01*
X062117Y031895D01*
X062131Y031969D01*
Y032618D01*
X062117Y032692D01*
X062075Y032754D01*
X062013Y032796D01*
X061939Y032810D01*
X061844Y032892D01*
Y033360D01*
X062126D01*
X062200Y033375D01*
X062263Y033417D01*
X062304Y033479D01*
X062319Y033553D01*
Y034164D01*
X062304Y034238D01*
X062263Y034300D01*
X062200Y034342D01*
X062126Y034356D01*
D02*
G37*
G36*
X056039Y033509D02*
X055931Y033495D01*
X055830Y033453D01*
X055743Y033386D01*
X055677Y033300D01*
X055635Y033199D01*
X055621Y033091D01*
X055635Y032982D01*
X055677Y032881D01*
X055743Y032795D01*
X055830Y032728D01*
X055931Y032686D01*
X056039Y032672D01*
X056148Y032686D01*
X056249Y032728D01*
X056335Y032795D01*
X056402Y032881D01*
X056444Y032982D01*
X056458Y033091D01*
X056444Y033199D01*
X056402Y033300D01*
X056335Y033386D01*
X056249Y033453D01*
X056148Y033495D01*
X056039Y033509D01*
D02*
G37*
G36*
X057665Y038931D02*
X057552Y038916D01*
X057446Y038872D01*
X057355Y038803D01*
X057285Y038712D01*
X057241Y038606D01*
X057226Y038492D01*
X057241Y038379D01*
X057285Y038273D01*
X057355Y038182D01*
X057446Y038112D01*
X057552Y038068D01*
X057665Y038053D01*
X057779Y038068D01*
X057885Y038112D01*
X057976Y038182D01*
X058046Y038273D01*
X058089Y038379D01*
X058104Y038492D01*
X058089Y038606D01*
X058046Y038712D01*
X057976Y038803D01*
X057885Y038872D01*
X057779Y038916D01*
X057665Y038931D01*
D02*
G37*
G36*
X059665D02*
X059552Y038916D01*
X059446Y038872D01*
X059355Y038803D01*
X059285Y038712D01*
X059241Y038606D01*
X059226Y038492D01*
X059241Y038379D01*
X059285Y038273D01*
X059355Y038182D01*
X059446Y038112D01*
X059552Y038068D01*
X059665Y038053D01*
X059779Y038068D01*
X059885Y038112D01*
X059976Y038182D01*
X060046Y038273D01*
X060089Y038379D01*
X060104Y038492D01*
X060089Y038606D01*
X060046Y038712D01*
X059976Y038803D01*
X059885Y038872D01*
X059779Y038916D01*
X059665Y038931D01*
D02*
G37*
G36*
X055665D02*
X055552Y038916D01*
X055446Y038872D01*
X055355Y038803D01*
X055285Y038712D01*
X055241Y038606D01*
X055226Y038492D01*
X055241Y038379D01*
X055285Y038273D01*
X055355Y038182D01*
X055446Y038112D01*
X055552Y038068D01*
X055665Y038053D01*
X055779Y038068D01*
X055885Y038112D01*
X055976Y038182D01*
X056046Y038273D01*
X056089Y038379D01*
X056104Y038492D01*
X056089Y038606D01*
X056046Y038712D01*
X055976Y038803D01*
X055885Y038872D01*
X055779Y038916D01*
X055665Y038931D01*
D02*
G37*
G36*
X053665D02*
X053552Y038916D01*
X053446Y038872D01*
X053355Y038803D01*
X053285Y038712D01*
X053241Y038606D01*
X053226Y038492D01*
X053241Y038379D01*
X053285Y038273D01*
X053355Y038182D01*
X053446Y038112D01*
X053552Y038068D01*
X053665Y038053D01*
X053779Y038068D01*
X053885Y038112D01*
X053976Y038182D01*
X054046Y038273D01*
X054089Y038379D01*
X054104Y038492D01*
X054089Y038606D01*
X054046Y038712D01*
X053976Y038803D01*
X053885Y038872D01*
X053779Y038916D01*
X053665Y038931D01*
D02*
G37*
G36*
X054665D02*
X054552Y038916D01*
X054446Y038872D01*
X054355Y038803D01*
X054285Y038712D01*
X054241Y038606D01*
X054226Y038492D01*
X054241Y038379D01*
X054285Y038273D01*
X054355Y038182D01*
X054446Y038112D01*
X054552Y038068D01*
X054665Y038053D01*
X054779Y038068D01*
X054885Y038112D01*
X054976Y038182D01*
X055046Y038273D01*
X055089Y038379D01*
X055104Y038492D01*
X055089Y038606D01*
X055046Y038712D01*
X054976Y038803D01*
X054885Y038872D01*
X054779Y038916D01*
X054665Y038931D01*
D02*
G37*
G36*
X056665Y038891D02*
X056562Y038877D01*
X056466Y038837D01*
X056383Y038774D01*
X056320Y038691D01*
X056280Y038595D01*
X056267Y038492D01*
X056280Y038389D01*
X056320Y038293D01*
X056383Y038210D01*
X056466Y038147D01*
X056562Y038107D01*
X056665Y038093D01*
X056769Y038107D01*
X056865Y038147D01*
X056947Y038210D01*
X057011Y038293D01*
X057050Y038389D01*
X057064Y038492D01*
X057050Y038595D01*
X057011Y038691D01*
X056947Y038774D01*
X056865Y038837D01*
X056769Y038877D01*
X056665Y038891D01*
D02*
G37*
G36*
X058665D02*
X058562Y038877D01*
X058466Y038837D01*
X058383Y038774D01*
X058320Y038691D01*
X058280Y038595D01*
X058267Y038492D01*
X058280Y038389D01*
X058320Y038293D01*
X058383Y038210D01*
X058466Y038147D01*
X058562Y038107D01*
X058665Y038093D01*
X058769Y038107D01*
X058865Y038147D01*
X058947Y038210D01*
X059011Y038293D01*
X059050Y038389D01*
X059064Y038492D01*
X059050Y038595D01*
X059011Y038691D01*
X058947Y038774D01*
X058865Y038837D01*
X058769Y038877D01*
X058665Y038891D01*
D02*
G37*
G36*
X051665D02*
X051562Y038877D01*
X051466Y038837D01*
X051383Y038774D01*
X051320Y038691D01*
X051280Y038595D01*
X051267Y038492D01*
X051280Y038389D01*
X051320Y038293D01*
X051383Y038210D01*
X051466Y038147D01*
X051562Y038107D01*
X051665Y038093D01*
X051769Y038107D01*
X051865Y038147D01*
X051947Y038210D01*
X052011Y038293D01*
X052050Y038389D01*
X052064Y038492D01*
X052050Y038595D01*
X052011Y038691D01*
X051947Y038774D01*
X051865Y038837D01*
X051769Y038877D01*
X051665Y038891D01*
D02*
G37*
G36*
X060665Y038931D02*
X060552Y038916D01*
X060446Y038872D01*
X060355Y038803D01*
X060285Y038712D01*
X060241Y038606D01*
X060226Y038492D01*
X060241Y038379D01*
X060285Y038273D01*
X060355Y038182D01*
X060446Y038112D01*
X060552Y038068D01*
X060665Y038053D01*
X060779Y038068D01*
X060885Y038112D01*
X060976Y038182D01*
X061046Y038273D01*
X061089Y038379D01*
X061104Y038492D01*
X061089Y038606D01*
X061046Y038712D01*
X060976Y038803D01*
X060885Y038872D01*
X060779Y038916D01*
X060665Y038931D01*
D02*
G37*
G36*
X061665D02*
X061552Y038916D01*
X061446Y038872D01*
X061355Y038803D01*
X061285Y038712D01*
X061241Y038606D01*
X061226Y038492D01*
X061241Y038379D01*
X061285Y038273D01*
X061355Y038182D01*
X061446Y038112D01*
X061552Y038068D01*
X061665Y038053D01*
X061779Y038068D01*
X061885Y038112D01*
X061976Y038182D01*
X062046Y038273D01*
X062089Y038379D01*
X062104Y038492D01*
X062089Y038606D01*
X062046Y038712D01*
X061976Y038803D01*
X061885Y038872D01*
X061779Y038916D01*
X061665Y038931D01*
D02*
G37*
G36*
X057665Y037931D02*
X057552Y037916D01*
X057446Y037872D01*
X057355Y037803D01*
X057285Y037712D01*
X057241Y037606D01*
X057226Y037492D01*
X057241Y037378D01*
X057285Y037273D01*
X057355Y037182D01*
X057446Y037112D01*
X057552Y037068D01*
X057665Y037053D01*
X057779Y037068D01*
X057885Y037112D01*
X057976Y037182D01*
X058046Y037273D01*
X058089Y037378D01*
X058104Y037492D01*
X058089Y037606D01*
X058046Y037712D01*
X057976Y037803D01*
X057885Y037872D01*
X057779Y037916D01*
X057665Y037931D01*
D02*
G37*
G36*
X058665D02*
X058552Y037916D01*
X058446Y037872D01*
X058355Y037803D01*
X058285Y037712D01*
X058241Y037606D01*
X058226Y037492D01*
X058241Y037378D01*
X058285Y037273D01*
X058355Y037182D01*
X058446Y037112D01*
X058552Y037068D01*
X058665Y037053D01*
X058779Y037068D01*
X058885Y037112D01*
X058976Y037182D01*
X059046Y037273D01*
X059089Y037378D01*
X059104Y037492D01*
X059089Y037606D01*
X059046Y037712D01*
X058976Y037803D01*
X058885Y037872D01*
X058779Y037916D01*
X058665Y037931D01*
D02*
G37*
G36*
X055665D02*
X055552Y037916D01*
X055446Y037872D01*
X055355Y037803D01*
X055285Y037712D01*
X055241Y037606D01*
X055226Y037492D01*
X055241Y037378D01*
X055285Y037273D01*
X055355Y037182D01*
X055446Y037112D01*
X055552Y037068D01*
X055665Y037053D01*
X055779Y037068D01*
X055885Y037112D01*
X055976Y037182D01*
X056046Y037273D01*
X056089Y037378D01*
X056104Y037492D01*
X056089Y037606D01*
X056046Y037712D01*
X055976Y037803D01*
X055885Y037872D01*
X055779Y037916D01*
X055665Y037931D01*
D02*
G37*
G36*
X052665D02*
X052552Y037916D01*
X052446Y037872D01*
X052355Y037803D01*
X052285Y037712D01*
X052241Y037606D01*
X052226Y037492D01*
X052241Y037378D01*
X052285Y037273D01*
X052355Y037182D01*
X052446Y037112D01*
X052552Y037068D01*
X052665Y037053D01*
X052779Y037068D01*
X052885Y037112D01*
X052976Y037182D01*
X053046Y037273D01*
X053089Y037378D01*
X053104Y037492D01*
X053089Y037606D01*
X053046Y037712D01*
X052976Y037803D01*
X052885Y037872D01*
X052779Y037916D01*
X052665Y037931D01*
D02*
G37*
G36*
X053665D02*
X053552Y037916D01*
X053446Y037872D01*
X053355Y037803D01*
X053285Y037712D01*
X053241Y037606D01*
X053226Y037492D01*
X053241Y037378D01*
X053285Y037273D01*
X053355Y037182D01*
X053446Y037112D01*
X053552Y037068D01*
X053665Y037053D01*
X053779Y037068D01*
X053885Y037112D01*
X053976Y037182D01*
X054046Y037273D01*
X054089Y037378D01*
X054104Y037492D01*
X054089Y037606D01*
X054046Y037712D01*
X053976Y037803D01*
X053885Y037872D01*
X053779Y037916D01*
X053665Y037931D01*
D02*
G37*
G36*
X061665Y037891D02*
X061562Y037877D01*
X061466Y037837D01*
X061383Y037774D01*
X061320Y037691D01*
X061280Y037595D01*
X061267Y037492D01*
X061280Y037389D01*
X061320Y037293D01*
X061383Y037210D01*
X061466Y037147D01*
X061562Y037107D01*
X061665Y037093D01*
X061769Y037107D01*
X061865Y037147D01*
X061947Y037210D01*
X062011Y037293D01*
X062050Y037389D01*
X062064Y037492D01*
X062050Y037595D01*
X062011Y037691D01*
X061947Y037774D01*
X061865Y037837D01*
X061769Y037877D01*
X061665Y037891D01*
D02*
G37*
G36*
X052665Y038931D02*
X052552Y038916D01*
X052446Y038872D01*
X052355Y038803D01*
X052285Y038712D01*
X052241Y038606D01*
X052226Y038492D01*
X052241Y038379D01*
X052285Y038273D01*
X052355Y038182D01*
X052446Y038112D01*
X052552Y038068D01*
X052665Y038053D01*
X052779Y038068D01*
X052885Y038112D01*
X052976Y038182D01*
X053046Y038273D01*
X053089Y038379D01*
X053104Y038492D01*
X053089Y038606D01*
X053046Y038712D01*
X052976Y038803D01*
X052885Y038872D01*
X052779Y038916D01*
X052665Y038931D01*
D02*
G37*
G36*
X054665Y037891D02*
X054562Y037877D01*
X054466Y037837D01*
X054383Y037774D01*
X054320Y037691D01*
X054280Y037595D01*
X054267Y037492D01*
X054280Y037389D01*
X054320Y037293D01*
X054383Y037210D01*
X054466Y037147D01*
X054562Y037107D01*
X054665Y037093D01*
X054769Y037107D01*
X054865Y037147D01*
X054947Y037210D01*
X055011Y037293D01*
X055050Y037389D01*
X055064Y037492D01*
X055050Y037595D01*
X055011Y037691D01*
X054947Y037774D01*
X054865Y037837D01*
X054769Y037877D01*
X054665Y037891D01*
D02*
G37*
G36*
X059665Y037931D02*
X059552Y037916D01*
X059446Y037872D01*
X059355Y037803D01*
X059285Y037712D01*
X059241Y037606D01*
X059226Y037492D01*
X059241Y037378D01*
X059285Y037273D01*
X059355Y037182D01*
X059446Y037112D01*
X059552Y037068D01*
X059665Y037053D01*
X059779Y037068D01*
X059885Y037112D01*
X059976Y037182D01*
X060046Y037273D01*
X060089Y037378D01*
X060104Y037492D01*
X060089Y037606D01*
X060046Y037712D01*
X059976Y037803D01*
X059885Y037872D01*
X059779Y037916D01*
X059665Y037931D01*
D02*
G37*
G36*
X060665D02*
X060552Y037916D01*
X060446Y037872D01*
X060355Y037803D01*
X060285Y037712D01*
X060241Y037606D01*
X060226Y037492D01*
X060241Y037378D01*
X060285Y037273D01*
X060355Y037182D01*
X060446Y037112D01*
X060552Y037068D01*
X060665Y037053D01*
X060779Y037068D01*
X060885Y037112D01*
X060976Y037182D01*
X061046Y037273D01*
X061089Y037378D01*
X061104Y037492D01*
X061089Y037606D01*
X061046Y037712D01*
X060976Y037803D01*
X060885Y037872D01*
X060779Y037916D01*
X060665Y037931D01*
D02*
G37*
%LPD*%
D10*
X050984Y032559D02*
D03*
Y031811D02*
D03*
X049016Y034862D02*
D03*
Y035610D02*
D03*
X051181Y028268D02*
D03*
Y029016D02*
D03*
X062894Y031378D02*
D03*
Y030630D02*
D03*
X056841Y028494D02*
D03*
Y029242D02*
D03*
X052087Y028268D02*
D03*
Y029016D02*
D03*
X057746Y029213D02*
D03*
Y028465D02*
D03*
D11*
X051890Y031555D02*
D03*
X052638D02*
D03*
X053061Y036437D02*
D03*
X052313D02*
D03*
X052638Y032402D02*
D03*
X051890D02*
D03*
X051447Y036427D02*
D03*
X050699D02*
D03*
X043091Y035827D02*
D03*
X042343D02*
D03*
X053760Y035659D02*
D03*
X054508D02*
D03*
X049508Y028150D02*
D03*
X050256D02*
D03*
X047835D02*
D03*
X048583D02*
D03*
X061339Y028150D02*
D03*
X062087D02*
D03*
X059764D02*
D03*
X060512D02*
D03*
X055108Y029213D02*
D03*
X054360D02*
D03*
D12*
X049799Y033583D02*
D03*
X050299D02*
D03*
X050799D02*
D03*
X051299D02*
D03*
X051799D02*
D03*
X052299D02*
D03*
X052799D02*
D03*
X049799Y035472D02*
D03*
X050299D02*
D03*
X050799D02*
D03*
X051299D02*
D03*
X051799D02*
D03*
X052299D02*
D03*
X052799D02*
D03*
D13*
X053612Y034862D02*
D03*
Y034488D02*
D03*
Y034114D02*
D03*
X054557D02*
D03*
Y034862D02*
D03*
D14*
X046732Y029341D02*
D03*
X046988D02*
D03*
X047244D02*
D03*
X047500D02*
D03*
X047756D02*
D03*
X048012D02*
D03*
X048268D02*
D03*
X048524D02*
D03*
X048780D02*
D03*
X049035D02*
D03*
X049291D02*
D03*
X049547D02*
D03*
X049803D02*
D03*
X050059D02*
D03*
X046732Y032057D02*
D03*
X046988D02*
D03*
X047244D02*
D03*
X047500D02*
D03*
X047756D02*
D03*
X048012D02*
D03*
X048268D02*
D03*
X048524D02*
D03*
X048780D02*
D03*
X049035D02*
D03*
X049291D02*
D03*
X049547D02*
D03*
X049803D02*
D03*
X050059D02*
D03*
X058612Y029577D02*
D03*
X058868D02*
D03*
X059124D02*
D03*
X059380D02*
D03*
X059636D02*
D03*
X059892D02*
D03*
X060148D02*
D03*
X060404D02*
D03*
X060659D02*
D03*
X060915D02*
D03*
X061171D02*
D03*
X061427D02*
D03*
X061683D02*
D03*
X061939D02*
D03*
X058612Y032293D02*
D03*
X058868D02*
D03*
X059124D02*
D03*
X059380D02*
D03*
X059636D02*
D03*
X059892D02*
D03*
X060148D02*
D03*
X060404D02*
D03*
X060659D02*
D03*
X060915D02*
D03*
X061171D02*
D03*
X061427D02*
D03*
X061683D02*
D03*
X061939D02*
D03*
D15*
X040197Y035827D02*
D03*
X041299D02*
D03*
X062953Y033858D02*
D03*
X061850D02*
D03*
D16*
X040157Y030945D02*
D03*
Y032047D02*
D03*
X044390Y035098D02*
D03*
Y033996D02*
D03*
D17*
X043061Y032864D02*
D03*
Y033770D02*
D03*
Y034675D02*
D03*
D18*
X040778Y033770D02*
D03*
D19*
X061122Y028366D02*
Y028701D01*
X048846Y033781D02*
X049799D01*
X045925Y030171D02*
X045990Y030236D01*
X050295Y033297D02*
X050299D01*
X050472Y032677D02*
Y032795D01*
X050866Y029921D02*
X051486Y030541D01*
X049951Y029921D02*
X050866D01*
X047520Y030453D02*
X047811Y030744D01*
X047582Y030303D02*
X047873Y030594D01*
X048001D01*
X047811Y030744D02*
X047939D01*
X048238Y031043D01*
X048001Y030594D02*
X048300Y030894D01*
X048043Y030445D02*
X048535D01*
X047707Y030108D02*
X048043Y030445D01*
X047264Y030108D02*
X047707D01*
X047146Y029990D02*
X047264Y030108D01*
X046919Y029990D02*
X047146D01*
X047000Y030236D02*
X047067Y030303D01*
X045990Y030236D02*
X047000D01*
X046949Y030404D02*
X046998Y030453D01*
X045354Y030404D02*
X046949D01*
X049538Y030846D02*
X050475Y031783D01*
X048937Y030846D02*
X049538D01*
X048535Y030445D02*
X048937Y030846D01*
X052313Y030620D02*
X052333D01*
X051476Y031004D02*
Y031988D01*
X049291Y031545D02*
Y032057D01*
X049163Y031417D02*
X049291Y031545D01*
X049001Y031417D02*
X049163D01*
X048477Y030894D02*
X049001Y031417D01*
X048300Y030894D02*
X048477D01*
X047067Y030303D02*
X047582D01*
X047081Y031500D02*
X047244Y031663D01*
X046564Y031500D02*
X047081D01*
X046525Y031461D02*
X046564Y031500D01*
X043929Y031461D02*
X046525D01*
X047143Y031350D02*
X047500Y031707D01*
X046626Y031350D02*
X047143D01*
X046587Y031311D02*
X046626Y031350D01*
X043991Y031311D02*
X046587D01*
X047210Y031201D02*
X047503Y031494D01*
X046688Y031201D02*
X047210D01*
X046649Y031161D02*
X046688Y031201D01*
X044053Y031161D02*
X046649D01*
X047272Y031051D02*
X047565Y031344D01*
X046750Y031051D02*
X047272D01*
X046711Y031012D02*
X046750Y031051D01*
X044115Y031012D02*
X046711D01*
X047334Y030902D02*
X047627Y031195D01*
X046812Y030902D02*
X047334D01*
X046773Y030862D02*
X046812Y030902D01*
X044177Y030862D02*
X046773D01*
X047396Y030752D02*
X047689Y031045D01*
X046874Y030752D02*
X047396D01*
X046835Y030713D02*
X046874Y030752D01*
X044482Y030713D02*
X046835D01*
X047458Y030602D02*
X047751Y030896D01*
X046936Y030602D02*
X047458D01*
X046897Y030563D02*
X046936Y030602D01*
X045052Y030563D02*
X046897D01*
X046998Y030453D02*
X047520D01*
X047503Y031494D02*
X047616D01*
X047565Y031344D02*
X047688D01*
X047627Y031195D02*
X047750D01*
X047689Y031045D02*
X047812D01*
X047751Y030896D02*
X047874D01*
X046732Y029803D02*
X046919Y029990D01*
X048238Y031043D02*
X048415D01*
X049035Y031663D01*
X047874Y030896D02*
X048189Y031211D01*
X047812Y031045D02*
X048127Y031360D01*
X047750Y031195D02*
X048065Y031510D01*
X047688Y031344D02*
X048012Y031668D01*
X047616Y031494D02*
X047756Y031634D01*
Y032057D01*
X045347Y030307D02*
X045354Y030314D01*
Y030404D01*
X049035Y031663D02*
Y032057D01*
X048173Y031510D02*
X048268Y031604D01*
X048065Y031510D02*
X048173D01*
X048250Y031360D02*
X048524Y031634D01*
X048127Y031360D02*
X048250D01*
X048361Y031211D02*
X048780Y031629D01*
X048189Y031211D02*
X048361D01*
X048524Y031634D02*
Y032057D01*
X048268Y031604D02*
Y032057D01*
X048012Y031668D02*
Y032057D01*
X048780Y031629D02*
Y032057D01*
X044943Y030454D02*
X045052Y030563D01*
X044392Y030602D02*
Y030622D01*
X044482Y030713D01*
X043748Y031280D02*
X043929Y031461D01*
X041988Y031280D02*
X043748D01*
X043810Y031130D02*
X043991Y031311D01*
X042459Y031130D02*
X043810D01*
X043872Y030980D02*
X044053Y031161D01*
X042969Y030980D02*
X043872D01*
X043934Y030831D02*
X044115Y031012D01*
X043548Y030831D02*
X043934D01*
X043996Y030575D02*
Y030681D01*
X044177Y030862D01*
X043996Y030575D02*
X043998Y030572D01*
X043437Y030720D02*
X043548Y030831D01*
X042896Y030877D02*
Y030908D01*
X042969Y030980D01*
X042384Y031025D02*
Y031055D01*
X042459Y031130D01*
X047500Y031707D02*
Y032057D01*
X047244Y031663D02*
Y032057D01*
X046732Y029341D02*
Y029803D01*
X054911Y034380D02*
Y035127D01*
X054646Y034114D02*
X054911Y034380D01*
X054557Y034114D02*
X054646D01*
X054832Y035207D02*
X054911Y035127D01*
X060915Y031604D02*
Y032293D01*
Y031604D02*
X061211Y031309D01*
X061388Y033079D02*
X061401Y033092D01*
X061388Y032933D02*
Y033079D01*
X061171Y032717D02*
X061388Y032933D01*
X061171Y032293D02*
Y032717D01*
X060892Y033008D02*
X060951D01*
X060659Y032776D02*
X060892Y033008D01*
X060659Y032293D02*
Y032776D01*
X060404Y032810D02*
X060600Y033007D01*
X060404Y032293D02*
Y032810D01*
X060600Y033007D02*
Y033258D01*
X059636Y032293D02*
Y032972D01*
X059235Y032984D02*
X059380Y032839D01*
X059222Y032997D02*
X059235Y032984D01*
X059380Y032293D02*
Y032839D01*
X059124Y032293D02*
Y032736D01*
X058878Y032982D02*
X059124Y032736D01*
X052559Y029016D02*
X052569Y029026D01*
X052087Y029016D02*
X052559D01*
Y028248D02*
Y029016D01*
X059272Y030423D02*
X061161D01*
X059124Y030276D02*
X059272Y030423D01*
X061161D02*
X061250Y030512D01*
X061496D01*
X061683Y030325D01*
Y029577D02*
Y030325D01*
X059852Y028593D02*
X060148Y028888D01*
X059409Y028593D02*
X059852D01*
X058591Y027774D02*
X059409Y028593D01*
X060148Y028888D02*
Y029577D01*
X060915Y028907D02*
X061122Y028701D01*
X060915Y028907D02*
Y029577D01*
X061122Y028366D02*
X061339Y028150D01*
X060404Y028258D02*
Y028809D01*
X060404Y028809D01*
Y029577D01*
X052087Y029016D02*
X052303Y028799D01*
X053033Y027774D02*
X058591D01*
X057717Y029242D02*
X057746Y029213D01*
X056841Y029242D02*
X057717D01*
X049803Y029774D02*
X049951Y029921D01*
X049803Y029341D02*
Y029774D01*
X051799Y033240D02*
Y033583D01*
Y033240D02*
X052638Y032402D01*
Y031555D02*
Y032402D01*
X051476Y031988D02*
X051890Y032402D01*
X050299Y033301D02*
Y033583D01*
Y033297D02*
Y033301D01*
X050475Y032680D02*
Y032708D01*
X050472Y032677D02*
X050475Y032680D01*
X050689Y032451D02*
X050797Y032559D01*
X050344Y032451D02*
X050689D01*
X050128Y032667D02*
X050344Y032451D01*
X049803Y032667D02*
X050128D01*
X050295Y033297D02*
X050299Y033301D01*
X052283Y035488D02*
Y035787D01*
Y035488D02*
X052299Y035472D01*
X051299Y036280D02*
X051447Y036427D01*
X050699D02*
X050799Y036327D01*
X049803Y032667D02*
Y032805D01*
Y032057D02*
Y032667D01*
X050797Y032559D02*
X050984D01*
X049294Y033315D02*
X049803Y032805D01*
X049294Y033315D02*
Y033525D01*
X045665Y037492D02*
X048034Y035124D01*
X046152Y034695D02*
X046742D01*
X056841Y029242D02*
X057018Y029419D01*
X056782Y029183D02*
X056841Y029242D01*
X051476Y031004D02*
X052136Y030344D01*
X054665Y028563D02*
X056250D01*
X052333Y030620D02*
X052402Y030551D01*
X056965Y030364D02*
X057520Y030919D01*
X056949Y030433D02*
X056955D01*
X056407Y029813D02*
X056959Y030364D01*
X052136Y030344D02*
X052982D01*
X053927Y029400D01*
Y028917D02*
Y029400D01*
X052402Y030551D02*
X053081D01*
X054193Y029439D01*
Y029341D02*
Y029439D01*
X057018Y029776D02*
X057518Y030276D01*
X057018Y029419D02*
Y029776D01*
X057518Y030276D02*
X059124D01*
X054774Y028760D02*
X056270D01*
X056693Y029183D01*
X056782D01*
X055108Y029213D02*
X055266Y029370D01*
Y030049D01*
X049799Y033583D02*
Y033781D01*
X048034Y034594D02*
Y035124D01*
Y034594D02*
X048846Y033781D01*
X051299Y033091D02*
Y033583D01*
Y033091D02*
X051890Y032500D01*
Y032402D02*
Y032500D01*
X053927Y028917D02*
X054114Y028730D01*
X054498D01*
X054665Y028563D01*
X056039Y033091D02*
Y033628D01*
X052559Y028248D02*
X053033Y027774D01*
X054193Y029341D02*
X054774Y028760D01*
D20*
X050299Y033297D02*
X050787D01*
X052913Y033907D02*
X053307D01*
X061171Y029183D02*
X062087Y028268D01*
X059291Y028150D02*
X059764D01*
X048366Y034961D02*
Y036742D01*
X045217Y033760D02*
Y034626D01*
X048012Y028681D02*
Y029341D01*
X049774Y028671D02*
X050256Y028189D01*
X048012Y028327D02*
Y028681D01*
X044665Y038492D02*
Y039016D01*
X052126Y037972D02*
Y038031D01*
X051665Y038492D02*
X052126Y038031D01*
X056142D02*
X056602Y038492D01*
X056665D01*
X058169Y037972D02*
X058665Y038468D01*
Y038492D01*
X061665Y036843D02*
Y037492D01*
X044272Y033307D02*
X044764D01*
X043061Y032864D02*
X043829D01*
X042175D02*
X043061D01*
X051063Y028150D02*
X051181Y028268D01*
X050256Y028150D02*
X051063D01*
X049528Y028671D02*
X049774D01*
X049291Y028907D02*
X049528Y028671D01*
X049291Y028907D02*
Y029341D01*
X047215Y027963D02*
X047402Y028150D01*
X047835D01*
X054144Y034321D02*
Y034449D01*
X053937Y034114D02*
X054144Y034321D01*
X053612Y034114D02*
X053937D01*
X063770Y031378D02*
X063780Y031388D01*
X062894Y031378D02*
X063770D01*
X062953Y033248D02*
Y033858D01*
X046732Y032057D02*
Y032756D01*
X040256Y030945D02*
X040659Y030541D01*
X040157Y030945D02*
X040256D01*
X045925Y030171D02*
X045947Y030149D01*
X062756Y031516D02*
X062894Y031378D01*
X062254Y031516D02*
X062756D01*
X061939Y031831D02*
X062254Y031516D01*
X061939Y031831D02*
Y032293D01*
X060138Y032943D02*
X060148Y032933D01*
Y032293D02*
Y032933D01*
X059892Y031594D02*
X060118Y031368D01*
X059892Y031594D02*
Y032293D01*
X058297Y032736D02*
X058494D01*
X058612Y032618D01*
Y032293D02*
Y032618D01*
X061171Y029183D02*
Y029577D01*
X058376Y028465D02*
X058760Y028848D01*
X057746Y028465D02*
X058376D01*
X057717Y028494D02*
X057746Y028465D01*
X056841Y028494D02*
X057717D01*
X052087Y028268D02*
X052146D01*
X051181D02*
X052087D01*
X047864Y028681D02*
X048012D01*
X047756Y028789D02*
X047864Y028681D01*
X047756Y028789D02*
Y029341D01*
X056811Y033319D02*
Y035482D01*
X056665Y035628D02*
X056811Y035482D01*
X056665Y035628D02*
Y037492D01*
X059291Y028071D02*
Y028150D01*
X059695Y028878D02*
X059892Y029075D01*
Y029577D01*
X059636Y028937D02*
X059695Y028878D01*
X059636Y028937D02*
Y029577D01*
X062087Y028150D02*
Y028268D01*
X057274Y029675D02*
X057451Y029852D01*
X058583D01*
X058612Y029823D01*
Y029577D02*
Y029823D01*
X059124Y029114D02*
Y029577D01*
X058760Y028848D02*
X058858D01*
X058868Y029134D02*
Y029577D01*
X059006Y028996D02*
X059124Y029114D01*
X058917Y028907D02*
Y029085D01*
X058868Y029134D02*
X058917Y029085D01*
X059006Y028996D01*
X058858Y028848D02*
X058917Y028907D01*
X059006Y028996D01*
X047037Y028671D02*
X047126Y028760D01*
X046978Y028612D02*
X047037Y028671D01*
Y028848D02*
X047126Y028760D01*
X046988Y028898D02*
X047037Y028848D01*
Y028671D02*
Y028848D01*
X047126Y028760D02*
X047244Y028878D01*
X046988Y028898D02*
Y029341D01*
X046880Y028612D02*
X046978D01*
X047244Y028878D02*
Y029341D01*
X048533Y028199D02*
Y028701D01*
X049508Y028150D02*
Y028209D01*
X049026Y028691D02*
X049508Y028209D01*
X049026Y028691D02*
X049035Y028701D01*
Y029341D01*
X048524Y028711D02*
X048533Y028701D01*
X048524Y028711D02*
Y029341D01*
X048258Y029951D02*
X048268Y029941D01*
Y029341D02*
Y029941D01*
X048366Y036742D02*
X048602Y036978D01*
X053061D01*
Y036437D02*
Y036978D01*
X053760Y036220D02*
X054665Y037126D01*
Y037492D01*
X039606Y034783D02*
X040069Y035246D01*
X039606Y031368D02*
Y034783D01*
Y031368D02*
X040030Y030945D01*
X040157D01*
X044764Y033307D02*
X045217Y033760D01*
X041559Y034646D02*
Y034731D01*
X041427Y034862D02*
X041559Y034731D01*
X040453Y034862D02*
X041427D01*
X040069Y035246D02*
X040453Y034862D01*
X044596Y034892D02*
X044951D01*
X045217Y034626D01*
X041559Y034646D02*
X041567Y034638D01*
X040069Y035246D02*
Y035522D01*
X040197Y035650D01*
Y035827D01*
X040256Y035886D01*
Y036526D01*
X061939Y032805D02*
X062106Y032972D01*
X061939Y032293D02*
Y032805D01*
X061683Y033691D02*
X061850Y033858D01*
X061683Y032293D02*
Y033691D01*
X063150Y033661D02*
X063583D01*
X062953Y033858D02*
X063150Y033661D01*
X053514Y034114D02*
X053612D01*
X053307Y033907D02*
X053514Y034114D01*
X052799Y033793D02*
X052913Y033907D01*
X050984Y031388D02*
X050994Y031378D01*
X050984Y031388D02*
Y031811D01*
X051890Y031073D02*
X051909Y031053D01*
X051890Y031073D02*
Y031555D01*
X051447Y036427D02*
X051457Y036437D01*
X052313D01*
X053061D02*
X053533D01*
X053760Y035659D02*
Y036220D01*
X054508Y035659D02*
X054557Y035610D01*
Y034862D02*
Y035610D01*
X052799Y035114D02*
Y035472D01*
Y035114D02*
X053051Y034862D01*
X053612D01*
X052799Y033583D02*
Y033793D01*
X051939Y034754D02*
X052205Y034488D01*
X050463Y034754D02*
X051939D01*
X050299Y034917D02*
X050463Y034754D01*
X052205Y034488D02*
X052299Y034394D01*
X052205Y034488D02*
X052394D01*
X052299Y034394D02*
X052394Y034488D01*
X053612D01*
X052299Y033583D02*
Y034394D01*
X050299Y034917D02*
Y035472D01*
Y032968D02*
Y033297D01*
Y032968D02*
X050472Y032795D01*
X051811Y035787D02*
X052283D01*
X051299Y035472D02*
Y036280D01*
X050799Y035472D02*
Y036327D01*
X047500Y034321D02*
X048081Y033740D01*
X047500Y034321D02*
Y034970D01*
X048366Y034961D02*
X048465Y034862D01*
X049016D01*
X050738Y032057D02*
X050984Y031811D01*
X050059Y032057D02*
X050738D01*
X049476Y035472D02*
X049799D01*
X049154D02*
X049476D01*
X049282Y034035D02*
X049476Y034230D01*
Y035472D01*
X048898Y035610D02*
X049016D01*
X049154Y035472D01*
X043829Y032864D02*
X043907Y032943D01*
X044272Y033307D01*
X056811Y033319D02*
X057039Y033091D01*
X055039Y032091D02*
X056039D01*
X057039D01*
X055935Y028297D02*
X055976Y028256D01*
X056602D01*
X056841Y028494D01*
X054508Y035659D02*
X054892D01*
X056142Y034409D01*
Y034016D02*
Y034409D01*
X052146Y028268D02*
X052490Y027923D01*
Y027894D02*
Y027923D01*
D21*
X061939Y030207D02*
X062470D01*
X060659D02*
X061378D01*
X053317Y027963D02*
X058494D01*
X052904Y028376D02*
X053317Y027963D01*
X040787Y033760D02*
X044154D01*
X050010Y030138D02*
X050128Y030256D01*
X048888Y030138D02*
X050010D01*
X048780Y030246D02*
X048888Y030138D01*
X047656Y029919D02*
X047805D01*
X047500Y029764D02*
X047656Y029919D01*
X048141Y030256D02*
X048789D01*
X047805Y029919D02*
X048141Y030256D01*
X061339Y033858D02*
Y033858D01*
X061850D01*
X042286Y035883D02*
Y036848D01*
X042137Y036997D02*
X042286Y036848D01*
X042137Y036997D02*
Y037716D01*
X048780Y029341D02*
Y030246D01*
X052860Y028333D02*
X052894Y028366D01*
X050896Y029449D02*
X050955Y029508D01*
X052854Y028327D02*
X052860Y028333D01*
X059557Y030207D02*
X060659D01*
X059380Y030030D02*
X059557Y030207D01*
X059380Y029577D02*
Y030030D01*
X061378Y030207D02*
Y030256D01*
X060659Y029577D02*
Y030207D01*
X061939D02*
X061939Y030207D01*
Y029577D02*
Y030207D01*
X062470Y030207D02*
X062894Y030630D01*
X058494Y027963D02*
X059380Y028848D01*
Y029577D01*
X047096Y028297D02*
X047500Y028701D01*
X043514Y028297D02*
X047096D01*
X040787Y031024D02*
X043514Y028297D01*
X050856Y029341D02*
X051181Y029016D01*
X050059Y029341D02*
X050856D01*
X040787Y031024D02*
Y031427D01*
X040167Y032047D02*
X040787Y031427D01*
X040157Y032047D02*
X040167D01*
X040778Y033583D02*
Y033770D01*
X040157Y032963D02*
X040778Y033583D01*
X040157Y032047D02*
Y032963D01*
X044154Y033760D02*
X044390Y033996D01*
X040778Y033770D02*
X040787Y033760D01*
X043091Y035827D02*
X043189Y035728D01*
X043602D01*
X044232Y035098D01*
X044390D01*
X041299Y035827D02*
X042343D01*
Y035118D02*
Y035827D01*
Y035118D02*
X042785Y034675D01*
X043061D01*
X042137Y037716D02*
X042665Y038244D01*
Y038492D01*
X043665D01*
X050175Y037982D02*
X050665Y037492D01*
X043156Y037982D02*
X050175D01*
X042665Y037492D02*
X043156Y037982D01*
X047500Y028701D02*
Y029341D01*
Y029764D01*
X050955Y029508D02*
X052520D01*
X052860Y029167D01*
Y028333D02*
Y029167D01*
D22*
X053287Y032598D02*
X057480D01*
D23*
X050984Y032431D02*
D03*
Y031939D02*
D03*
X049016Y034990D02*
D03*
Y035482D02*
D03*
X051181Y028396D02*
D03*
Y028888D02*
D03*
X062894Y031250D02*
D03*
Y030758D02*
D03*
X056841Y028622D02*
D03*
Y029114D02*
D03*
X052087Y028396D02*
D03*
Y028888D02*
D03*
X057746Y029085D02*
D03*
Y028593D02*
D03*
D24*
X052018Y031555D02*
D03*
X052510D02*
D03*
X052933Y036437D02*
D03*
X052441D02*
D03*
X052510Y032402D02*
D03*
X052018D02*
D03*
X051319Y036427D02*
D03*
X050827D02*
D03*
X042963Y035827D02*
D03*
X042470D02*
D03*
X053888Y035659D02*
D03*
X054380D02*
D03*
X049636Y028150D02*
D03*
X050128D02*
D03*
X047963D02*
D03*
X048455D02*
D03*
X061467D02*
D03*
X061959D02*
D03*
X059892D02*
D03*
X060384D02*
D03*
X054980Y029213D02*
D03*
X054488D02*
D03*
D25*
X055665Y038492D02*
D03*
X056665D02*
D03*
X057665D02*
D03*
X058665D02*
D03*
X061665D02*
D03*
X060665D02*
D03*
X059665D02*
D03*
Y037492D02*
D03*
X060665D02*
D03*
X061665D02*
D03*
X058665D02*
D03*
X057665D02*
D03*
X056665D02*
D03*
X055665D02*
D03*
X047665D02*
D03*
X043665D02*
D03*
X048665D02*
D03*
X044665D02*
D03*
X049665D02*
D03*
X045665D02*
D03*
X050665D02*
D03*
X046665D02*
D03*
X051665D02*
D03*
X054665D02*
D03*
X053665D02*
D03*
X052665D02*
D03*
Y038492D02*
D03*
X053665D02*
D03*
X054665D02*
D03*
X051665D02*
D03*
X046665D02*
D03*
X050665D02*
D03*
X045665D02*
D03*
X049665D02*
D03*
X044665D02*
D03*
X048665D02*
D03*
X043665D02*
D03*
X047665D02*
D03*
X042665D02*
D03*
X056965Y030364D02*
D03*
D26*
X042665Y037492D02*
D03*
D27*
X053780Y033100D02*
D03*
Y032100D02*
D03*
X055039Y033091D02*
D03*
X056039Y032091D02*
D03*
Y033091D02*
D03*
X057039Y032091D02*
D03*
Y033091D02*
D03*
D28*
X053780Y031100D02*
D03*
D29*
X055039Y032091D02*
D03*
D30*
X055965Y030364D02*
D03*
D31*
X039823Y032736D02*
D03*
X040502Y032707D02*
D03*
X052579Y032982D02*
D03*
X051772Y034449D02*
D03*
X048494Y035925D02*
D03*
X050098Y036211D02*
D03*
X057156Y037146D02*
D03*
X056161D02*
D03*
X056378Y035778D02*
D03*
X062077Y028917D02*
D03*
X042244Y034616D02*
D03*
X043907Y032943D02*
D03*
X042156Y032844D02*
D03*
X041378Y036575D02*
D03*
X045886Y033927D02*
D03*
X045659Y028671D02*
D03*
X051053Y030906D02*
D03*
X052618Y030915D02*
D03*
X063799Y032441D02*
D03*
X064557Y032028D02*
D03*
X058465Y033652D02*
D03*
X044596Y030177D02*
D03*
X045807Y032815D02*
D03*
X047884Y035807D02*
D03*
X046929Y035719D02*
D03*
X046968Y035138D02*
D03*
X056211Y038986D02*
D03*
X058159Y038967D02*
D03*
X060177Y038996D02*
D03*
X062264Y038947D02*
D03*
X064488Y034813D02*
D03*
X063809Y034646D02*
D03*
X064596Y036772D02*
D03*
X063091Y036388D02*
D03*
X062175Y037037D02*
D03*
X060217Y034616D02*
D03*
X055276Y033691D02*
D03*
X057362Y035453D02*
D03*
X057067Y036093D02*
D03*
X055659Y036024D02*
D03*
X054301Y036280D02*
D03*
X053159Y037018D02*
D03*
X053189Y038002D02*
D03*
X051191Y037992D02*
D03*
X051171Y038976D02*
D03*
X048218Y038986D02*
D03*
X046191Y039006D02*
D03*
X043150Y038967D02*
D03*
X042018Y038976D02*
D03*
X039715Y036791D02*
D03*
X039764Y030187D02*
D03*
X039980Y033455D02*
D03*
X039970Y034518D02*
D03*
X041722Y033327D02*
D03*
X045138Y033947D02*
D03*
X046614Y033720D02*
D03*
X048130Y032835D02*
D03*
X048740Y033543D02*
D03*
X049144Y032854D02*
D03*
X049636Y031368D02*
D03*
X049232Y031132D02*
D03*
X049065Y030472D02*
D03*
X050089Y030945D02*
D03*
X046299Y029646D02*
D03*
X043809Y028701D02*
D03*
X043366Y029646D02*
D03*
X041339Y030984D02*
D03*
X042461Y028642D02*
D03*
X042707Y028002D02*
D03*
X044567Y027982D02*
D03*
X045797Y027894D02*
D03*
X050728Y027864D02*
D03*
X050472Y028898D02*
D03*
X058356Y028839D02*
D03*
X055935Y028297D02*
D03*
X056122Y029134D02*
D03*
X058947Y030551D02*
D03*
X060679Y031181D02*
D03*
X062205Y030768D02*
D03*
X064567Y030217D02*
D03*
X063780Y030807D02*
D03*
X057854Y030846D02*
D03*
X057618Y033514D02*
D03*
X059970D02*
D03*
X063120Y032736D02*
D03*
X062953Y033150D02*
D03*
X049882Y028652D02*
D03*
X047215Y027963D02*
D03*
X047864Y028681D02*
D03*
X062697Y034724D02*
D03*
X058110Y034646D02*
D03*
X052333Y030620D02*
D03*
X051486Y030541D02*
D03*
X054144Y034449D02*
D03*
X048533D02*
D03*
X049872D02*
D03*
X063780Y031388D02*
D03*
X064360Y035974D02*
D03*
X046732Y032756D02*
D03*
X040659Y030541D02*
D03*
X041191Y032707D02*
D03*
X045947Y030149D02*
D03*
X045347Y030307D02*
D03*
X044943Y030454D02*
D03*
X044392Y030602D02*
D03*
X043998Y030572D02*
D03*
X043437Y030720D02*
D03*
X042896Y030877D02*
D03*
X042384Y031025D02*
D03*
X041988Y031280D02*
D03*
X054832Y035207D02*
D03*
X061339Y033858D02*
D03*
X061211Y031309D02*
D03*
X061401Y033092D02*
D03*
X060951Y033008D02*
D03*
X060600Y033258D02*
D03*
X060138Y032943D02*
D03*
X060118Y031368D02*
D03*
X059636Y032972D02*
D03*
X059235Y032984D02*
D03*
X058878Y032982D02*
D03*
X058297Y032736D02*
D03*
X061693Y028740D02*
D03*
X052569Y029026D02*
D03*
X052854Y028327D02*
D03*
X061939Y030246D02*
D03*
X061378Y030256D02*
D03*
X059291Y028071D02*
D03*
X059695Y028878D02*
D03*
X061142Y028661D02*
D03*
X060404Y028809D02*
D03*
X057274Y029675D02*
D03*
X058760Y028848D02*
D03*
X046880Y028612D02*
D03*
X050896Y029449D02*
D03*
X050128Y030256D02*
D03*
X049026Y028691D02*
D03*
X048533Y028701D02*
D03*
X048258Y029951D02*
D03*
X045217Y034626D02*
D03*
X041567Y034638D02*
D03*
X040069Y035246D02*
D03*
X040256Y036526D02*
D03*
X062106Y032972D02*
D03*
X063583Y033661D02*
D03*
X064370Y032874D02*
D03*
X056142Y034016D02*
D03*
X053179Y033829D02*
D03*
X050994Y031378D02*
D03*
X051909Y031053D02*
D03*
X053533Y036437D02*
D03*
X053760Y036220D02*
D03*
X050475Y031783D02*
D03*
Y032708D02*
D03*
X048081Y033740D02*
D03*
X047500Y034970D02*
D03*
X048366Y034961D02*
D03*
X049294Y033525D02*
D03*
X049282Y034035D02*
D03*
X046152Y034695D02*
D03*
X046742D02*
D03*
X056309Y028514D02*
D03*
X055266Y030049D02*
D03*
X055551Y028071D02*
D03*
X052953Y029508D02*
D03*
X050699Y030246D02*
D03*
X051250Y029852D02*
D03*
X054646Y029843D02*
D03*
X055718Y029626D02*
D03*
X055837Y031260D02*
D03*
X054419Y033455D02*
D03*
X053159Y031988D02*
D03*
X055384Y034439D02*
D03*
X052490Y027894D02*
D03*
M02*
