%FSAX24Y24*%
%MOIN*%
G70*
G01*
G75*
G04 Layer_Color=65535*
G04:AMPARAMS|DCode=10|XSize=17.7mil|YSize=43.3mil|CornerRadius=4.4mil|HoleSize=0mil|Usage=FLASHONLY|Rotation=180.000|XOffset=0mil|YOffset=0mil|HoleType=Round|Shape=RoundedRectangle|*
%AMROUNDEDRECTD10*
21,1,0.0177,0.0344,0,0,180.0*
21,1,0.0089,0.0433,0,0,180.0*
1,1,0.0089,-0.0044,0.0172*
1,1,0.0089,0.0044,0.0172*
1,1,0.0089,0.0044,-0.0172*
1,1,0.0089,-0.0044,-0.0172*
%
%ADD10ROUNDEDRECTD10*%
G04:AMPARAMS|DCode=11|XSize=84.6mil|YSize=84.6mil|CornerRadius=4.2mil|HoleSize=0mil|Usage=FLASHONLY|Rotation=90.000|XOffset=0mil|YOffset=0mil|HoleType=Round|Shape=RoundedRectangle|*
%AMROUNDEDRECTD11*
21,1,0.0846,0.0762,0,0,90.0*
21,1,0.0762,0.0846,0,0,90.0*
1,1,0.0085,0.0381,0.0381*
1,1,0.0085,0.0381,-0.0381*
1,1,0.0085,-0.0381,-0.0381*
1,1,0.0085,-0.0381,0.0381*
%
%ADD11ROUNDEDRECTD11*%
G04:AMPARAMS|DCode=12|XSize=17.7mil|YSize=43.3mil|CornerRadius=4.4mil|HoleSize=0mil|Usage=FLASHONLY|Rotation=270.000|XOffset=0mil|YOffset=0mil|HoleType=Round|Shape=RoundedRectangle|*
%AMROUNDEDRECTD12*
21,1,0.0177,0.0344,0,0,270.0*
21,1,0.0089,0.0433,0,0,270.0*
1,1,0.0089,-0.0172,-0.0044*
1,1,0.0089,-0.0172,0.0044*
1,1,0.0089,0.0172,0.0044*
1,1,0.0089,0.0172,-0.0044*
%
%ADD12ROUNDEDRECTD12*%
G04:AMPARAMS|DCode=13|XSize=59.1mil|YSize=51.2mil|CornerRadius=12.8mil|HoleSize=0mil|Usage=FLASHONLY|Rotation=270.000|XOffset=0mil|YOffset=0mil|HoleType=Round|Shape=RoundedRectangle|*
%AMROUNDEDRECTD13*
21,1,0.0591,0.0256,0,0,270.0*
21,1,0.0335,0.0512,0,0,270.0*
1,1,0.0256,-0.0128,-0.0167*
1,1,0.0256,-0.0128,0.0167*
1,1,0.0256,0.0128,0.0167*
1,1,0.0256,0.0128,-0.0167*
%
%ADD13ROUNDEDRECTD13*%
G04:AMPARAMS|DCode=14|XSize=39.4mil|YSize=39.4mil|CornerRadius=9.8mil|HoleSize=0mil|Usage=FLASHONLY|Rotation=180.000|XOffset=0mil|YOffset=0mil|HoleType=Round|Shape=RoundedRectangle|*
%AMROUNDEDRECTD14*
21,1,0.0394,0.0197,0,0,180.0*
21,1,0.0197,0.0394,0,0,180.0*
1,1,0.0197,-0.0098,0.0098*
1,1,0.0197,0.0098,0.0098*
1,1,0.0197,0.0098,-0.0098*
1,1,0.0197,-0.0098,-0.0098*
%
%ADD14ROUNDEDRECTD14*%
G04:AMPARAMS|DCode=15|XSize=32mil|YSize=40mil|CornerRadius=4mil|HoleSize=0mil|Usage=FLASHONLY|Rotation=270.000|XOffset=0mil|YOffset=0mil|HoleType=Round|Shape=RoundedRectangle|*
%AMROUNDEDRECTD15*
21,1,0.0320,0.0320,0,0,270.0*
21,1,0.0240,0.0400,0,0,270.0*
1,1,0.0080,-0.0160,-0.0120*
1,1,0.0080,-0.0160,0.0120*
1,1,0.0080,0.0160,0.0120*
1,1,0.0080,0.0160,-0.0120*
%
%ADD15ROUNDEDRECTD15*%
%ADD16R,0.1063X0.0669*%
%ADD17R,0.0512X0.0354*%
%ADD18R,0.0748X0.0354*%
%ADD19R,0.0630X0.1929*%
%ADD20R,0.0276X0.0925*%
G04:AMPARAMS|DCode=21|XSize=39.4mil|YSize=39.4mil|CornerRadius=9.8mil|HoleSize=0mil|Usage=FLASHONLY|Rotation=90.000|XOffset=0mil|YOffset=0mil|HoleType=Round|Shape=RoundedRectangle|*
%AMROUNDEDRECTD21*
21,1,0.0394,0.0197,0,0,90.0*
21,1,0.0197,0.0394,0,0,90.0*
1,1,0.0197,0.0098,0.0098*
1,1,0.0197,0.0098,-0.0098*
1,1,0.0197,-0.0098,-0.0098*
1,1,0.0197,-0.0098,0.0098*
%
%ADD21ROUNDEDRECTD21*%
G04:AMPARAMS|DCode=22|XSize=59.1mil|YSize=51.2mil|CornerRadius=12.8mil|HoleSize=0mil|Usage=FLASHONLY|Rotation=0.000|XOffset=0mil|YOffset=0mil|HoleType=Round|Shape=RoundedRectangle|*
%AMROUNDEDRECTD22*
21,1,0.0591,0.0256,0,0,0.0*
21,1,0.0335,0.0512,0,0,0.0*
1,1,0.0256,0.0167,-0.0128*
1,1,0.0256,-0.0167,-0.0128*
1,1,0.0256,-0.0167,0.0128*
1,1,0.0256,0.0167,0.0128*
%
%ADD22ROUNDEDRECTD22*%
G04:AMPARAMS|DCode=23|XSize=70.9mil|YSize=65mil|CornerRadius=4.9mil|HoleSize=0mil|Usage=FLASHONLY|Rotation=0.000|XOffset=0mil|YOffset=0mil|HoleType=Round|Shape=RoundedRectangle|*
%AMROUNDEDRECTD23*
21,1,0.0709,0.0552,0,0,0.0*
21,1,0.0611,0.0650,0,0,0.0*
1,1,0.0097,0.0306,-0.0276*
1,1,0.0097,-0.0306,-0.0276*
1,1,0.0097,-0.0306,0.0276*
1,1,0.0097,0.0306,0.0276*
%
%ADD23ROUNDEDRECTD23*%
G04:AMPARAMS|DCode=24|XSize=32mil|YSize=40mil|CornerRadius=4mil|HoleSize=0mil|Usage=FLASHONLY|Rotation=0.000|XOffset=0mil|YOffset=0mil|HoleType=Round|Shape=RoundedRectangle|*
%AMROUNDEDRECTD24*
21,1,0.0320,0.0320,0,0,0.0*
21,1,0.0240,0.0400,0,0,0.0*
1,1,0.0080,0.0120,-0.0160*
1,1,0.0080,-0.0120,-0.0160*
1,1,0.0080,-0.0120,0.0160*
1,1,0.0080,0.0120,0.0160*
%
%ADD24ROUNDEDRECTD24*%
%ADD25O,0.0236X0.0827*%
%ADD26R,0.0354X0.0217*%
%ADD27C,0.0118*%
%ADD28C,0.0197*%
%ADD29C,0.0079*%
%ADD30C,0.0100*%
%ADD31C,0.0080*%
%ADD32R,0.0256X0.0591*%
%ADD33R,0.0394X0.0217*%
%ADD34R,0.0217X0.0394*%
%ADD35R,0.0591X0.0256*%
%ADD36C,0.0591*%
%ADD37C,0.0630*%
G04:AMPARAMS|DCode=38|XSize=63mil|YSize=63mil|CornerRadius=7.9mil|HoleSize=0mil|Usage=FLASHONLY|Rotation=270.000|XOffset=0mil|YOffset=0mil|HoleType=Round|Shape=RoundedRectangle|*
%AMROUNDEDRECTD38*
21,1,0.0630,0.0472,0,0,270.0*
21,1,0.0472,0.0630,0,0,270.0*
1,1,0.0157,-0.0236,-0.0236*
1,1,0.0157,-0.0236,0.0236*
1,1,0.0157,0.0236,0.0236*
1,1,0.0157,0.0236,-0.0236*
%
%ADD38ROUNDEDRECTD38*%
%ADD39C,0.0600*%
%ADD40R,0.0600X0.0600*%
%ADD41C,0.0256*%
%ADD42C,0.0098*%
%ADD43C,0.0059*%
%ADD44C,0.0039*%
%ADD45C,0.0071*%
G36*
X046693Y036227D02*
Y036150D01*
X046506D01*
Y036337D01*
X046583D01*
X046693Y036227D01*
D02*
G37*
D29*
Y036150D02*
G03*
X046506Y036337I-000187J000000D01*
G01*
Y036150D02*
X046693D01*
X046506D02*
Y036337D01*
Y037577D02*
Y037764D01*
X046693D01*
X047933D02*
X048120D01*
Y037577D02*
Y037764D01*
Y036150D02*
Y036337D01*
X047933Y036150D02*
X048120D01*
X042165Y042707D02*
X042805D01*
X042165Y043730D02*
X042805D01*
Y043553D02*
Y043730D01*
Y042707D02*
Y042884D01*
X044967Y042825D02*
Y043258D01*
Y044163D02*
Y044596D01*
X043990Y042825D02*
X044967D01*
X043990Y044596D02*
X044967D01*
X041827Y047205D02*
X043253D01*
X041827D02*
Y047854D01*
X045575Y047205D02*
Y047854D01*
X042652Y050675D02*
X044919Y050592D01*
X042652Y050675D02*
X044919Y050538D01*
X042652Y050675D02*
X044770Y050455D01*
X042483Y050592D02*
X044919Y050372D01*
X042483Y050538D02*
X044919Y050317D01*
X042632Y050455D02*
X044770Y050234D01*
X042483Y050372D02*
X044919Y050151D01*
X042483Y050317D02*
X044919Y050097D01*
X042632Y050234D02*
X044770Y050014D01*
X042483Y050151D02*
X044919Y049931D01*
X042483Y050097D02*
X044919Y049876D01*
X042632Y050014D02*
X044770Y049793D01*
X042483Y049931D02*
X044919Y049710D01*
X042483Y049876D02*
X044919Y049656D01*
X042632Y049793D02*
X044770Y049573D01*
X042483Y049710D02*
X044919Y049490D01*
X042483Y049656D02*
X044919Y049435D01*
X042483Y049269D02*
X044769Y049132D01*
X042483Y049215D02*
X044750Y049132D01*
X042632Y049352D02*
X044769Y049132D01*
X042632Y049573D02*
X044770Y049352D01*
X042483Y049490D02*
X044919Y049269D01*
X042483Y049435D02*
X044919Y049215D01*
X042735Y047854D02*
Y048984D01*
X042652Y050675D02*
Y050957D01*
X044750D01*
Y050675D02*
Y050957D01*
X044664Y047854D02*
Y048984D01*
X042735D02*
X044664D01*
X042652Y049132D02*
X042735Y048984D01*
X042632Y049132D02*
X044769D01*
X042483Y049215D02*
X042632Y049132D01*
X042483Y049215D02*
Y049269D01*
X042632Y049352D01*
X042483Y049435D02*
X042632Y049352D01*
X042483Y049435D02*
Y049490D01*
X042632Y049573D01*
X042483Y049656D02*
X042632Y049573D01*
X042483Y049656D02*
Y049710D01*
X042632Y049793D01*
X042483Y049876D02*
X042632Y049793D01*
X042483Y049876D02*
Y049931D01*
X042632Y050014D01*
X042483Y050097D02*
X042632Y050014D01*
X042483Y050097D02*
Y050151D01*
X042632Y050234D01*
X042483Y050317D02*
X042632Y050234D01*
X042483Y050317D02*
Y050372D01*
X042632Y050455D01*
X042483Y050538D02*
X042632Y050455D01*
X042483Y050538D02*
Y050592D01*
X042652Y050675D01*
X044770D01*
X044919Y050592D01*
Y050538D02*
Y050592D01*
X044770Y050455D02*
X044919Y050538D01*
X044770Y050455D02*
X044919Y050372D01*
Y050317D02*
Y050372D01*
X044770Y050234D02*
X044919Y050317D01*
X044770Y050234D02*
X044919Y050151D01*
Y050097D02*
Y050151D01*
X044770Y050014D02*
X044919Y050097D01*
X044770Y050014D02*
X044919Y049931D01*
Y049876D02*
Y049931D01*
X044770Y049793D02*
X044919Y049876D01*
X044770Y049793D02*
X044919Y049710D01*
Y049656D02*
Y049710D01*
X044770Y049573D02*
X044919Y049656D01*
X044770Y049573D02*
X044919Y049490D01*
Y049435D02*
Y049490D01*
X044770Y049352D02*
X044919Y049435D01*
X044770Y049352D02*
X044919Y049269D01*
Y049215D02*
Y049269D01*
X044769Y049132D02*
X044919Y049215D01*
X044664Y048984D02*
X044750Y049132D01*
X044149Y047205D02*
X045575D01*
X041827Y047854D02*
X045575D01*
X041243Y038637D02*
X041343Y038537D01*
X042043D01*
X042143Y038637D01*
X041243Y040537D02*
X041343Y040637D01*
X042043D01*
X042143Y040537D01*
X043002Y042175D02*
X043179D01*
X042156D02*
X042333D01*
X042156Y041535D02*
Y042175D01*
X043179Y041535D02*
Y042175D01*
X044276Y034825D02*
X046276D01*
X044276Y030825D02*
Y034825D01*
X046276Y030825D02*
Y034825D01*
X044276Y030825D02*
X046276D01*
D30*
X046870Y034809D02*
X048870D01*
Y031809D02*
Y034809D01*
X046870Y031809D02*
X048870D01*
X046870D02*
Y034809D01*
Y033809D02*
X048870D01*
X046870Y032809D02*
X048870D01*
X046870Y030809D02*
Y031809D01*
Y030809D02*
X048870D01*
Y031809D01*
X045418Y035982D02*
X045918D01*
X046018Y036082D01*
Y036282D01*
X045918Y036382D01*
X045418D01*
X046018Y036581D02*
Y036781D01*
Y036681D01*
X045418D01*
X045518Y036581D01*
D42*
X046604Y035972D02*
G03*
X046604Y035972I-000039J000000D01*
G01*
X043695Y044636D02*
G03*
X043695Y044636I-000049J000000D01*
G01*
X043689Y039813D02*
G03*
X043689Y039813I-000049J000000D01*
G01*
D43*
X046142Y036457D02*
Y037087D01*
X046063Y037165D02*
X046142Y037087D01*
X046063Y036378D02*
X046142Y036457D01*
X044646Y037087D02*
X044724Y037165D01*
X044646Y036457D02*
X044724Y036378D01*
X044646Y036457D02*
Y037087D01*
X046201Y029124D02*
X046516D01*
X046161D02*
X046201D01*
X046122Y029085D02*
X046161Y029124D01*
X046516D02*
X046555D01*
X046594Y029085D01*
X046122Y027904D02*
X046161Y027864D01*
X046201D01*
X046555D02*
X046594Y027904D01*
X046516Y027864D02*
X046555D01*
X046201D02*
X046516D01*
X046191Y035876D02*
Y036191D01*
Y036230D01*
X046152Y036270D02*
X046191Y036230D01*
Y035837D02*
Y035876D01*
X046152Y035797D02*
X046191Y035837D01*
X044931Y036230D02*
X044970Y036270D01*
X044931Y036191D02*
Y036230D01*
Y035837D02*
X044970Y035797D01*
X044931Y035837D02*
Y035876D01*
Y036191D01*
X044646Y037402D02*
Y038031D01*
Y037402D02*
X044724Y037323D01*
X044646Y038031D02*
X044724Y038110D01*
X046063Y037323D02*
X046142Y037402D01*
X046063Y038110D02*
X046142Y038031D01*
Y037402D02*
Y038031D01*
X046516Y040807D02*
X047146D01*
X046437Y040728D02*
X046516Y040807D01*
X047146D02*
X047224Y040728D01*
X046437Y039390D02*
X046516Y039311D01*
X047146D02*
X047224Y039390D01*
X046516Y039311D02*
X047146D01*
X044665Y038346D02*
Y038976D01*
Y038346D02*
X044744Y038268D01*
X044665Y038976D02*
X044744Y039055D01*
X046083Y038268D02*
X046161Y038346D01*
X046083Y039055D02*
X046161Y038976D01*
Y038346D02*
Y038976D01*
X043150Y037844D02*
X043780D01*
X043071Y037766D02*
X043150Y037844D01*
X043780D02*
X043858Y037766D01*
X043071Y036427D02*
X043150Y036348D01*
X043780D02*
X043858Y036427D01*
X043150Y036348D02*
X043780D01*
X042185Y037854D02*
X042815D01*
X042106Y037776D02*
X042185Y037854D01*
X042815D02*
X042894Y037776D01*
X042106Y036437D02*
X042185Y036358D01*
X042815D02*
X042894Y036437D01*
X042185Y036358D02*
X042815D01*
X041211Y037854D02*
X041841D01*
X041132Y037776D02*
X041211Y037854D01*
X041841D02*
X041919Y037776D01*
X041132Y036437D02*
X041211Y036358D01*
X041841D02*
X041919Y036437D01*
X041211Y036358D02*
X041841D01*
X045925Y029951D02*
Y030581D01*
X045846Y030659D02*
X045925Y030581D01*
X045846Y029872D02*
X045925Y029951D01*
X044429Y030581D02*
X044508Y030659D01*
X044429Y029951D02*
X044508Y029872D01*
X044429Y029951D02*
Y030581D01*
X046191Y035305D02*
Y035620D01*
Y035659D01*
X046152Y035699D02*
X046191Y035659D01*
Y035266D02*
Y035305D01*
X046152Y035226D02*
X046191Y035266D01*
X044931Y035659D02*
X044970Y035699D01*
X044931Y035620D02*
Y035659D01*
Y035266D02*
X044970Y035226D01*
X044931Y035266D02*
Y035305D01*
Y035620D01*
X048012Y035148D02*
Y035463D01*
Y035502D01*
X047972Y035541D02*
X048012Y035502D01*
Y035108D02*
Y035148D01*
X047972Y035069D02*
X048012Y035108D01*
X046752Y035502D02*
X046791Y035541D01*
X046752Y035463D02*
Y035502D01*
Y035108D02*
X046791Y035069D01*
X046752Y035108D02*
Y035148D01*
Y035463D01*
X045709Y040308D02*
Y041208D01*
X043740Y040308D02*
Y041208D01*
X045709D01*
X043740Y040308D02*
X045709D01*
X044449Y028071D02*
X045079D01*
X045157Y028150D01*
X044370D02*
X044449Y028071D01*
X045079Y029567D02*
X045157Y029488D01*
X044370D02*
X044449Y029567D01*
X045079D01*
D44*
X041102Y027678D02*
Y036228D01*
X044102D01*
Y027678D02*
Y036228D01*
X041102Y027678D02*
X044102D01*
D45*
X049016Y035074D02*
X050802D01*
X050817Y035089D01*
Y036484D01*
X049016D02*
X050817D01*
X049016Y035074D02*
Y036484D01*
X047120Y032256D02*
X047382D01*
X047251Y032387D02*
Y032125D01*
X047776Y032059D02*
X047514D01*
X047776Y032321D01*
Y032387D01*
X047710Y032453D01*
X047579D01*
X047514Y032387D01*
X048104Y032059D02*
Y032453D01*
X047907Y032256D01*
X048170D01*
X048301Y032453D02*
Y032190D01*
X048432Y032059D01*
X048563Y032190D01*
Y032453D01*
X047120Y032256D02*
X047382D01*
X047251Y032387D02*
Y032125D01*
X047776Y032059D02*
X047514D01*
X047776Y032321D01*
Y032387D01*
X047710Y032453D01*
X047579D01*
X047514Y032387D01*
X048104Y032059D02*
Y032453D01*
X047907Y032256D01*
X048170D01*
X048301Y032453D02*
Y032190D01*
X048432Y032059D01*
X048563Y032190D01*
Y032453D01*
X047120Y033256D02*
X047382D01*
X047251Y033387D02*
Y033125D01*
X047710Y033059D02*
Y033453D01*
X047514Y033256D01*
X047776D01*
X047907Y033387D02*
X047973Y033453D01*
X048104D01*
X048170Y033387D01*
Y033321D01*
X048104Y033256D01*
X048170Y033190D01*
Y033125D01*
X048104Y033059D01*
X047973D01*
X047907Y033125D01*
Y033190D01*
X047973Y033256D01*
X047907Y033321D01*
Y033387D01*
X047973Y033256D02*
X048104D01*
X048301Y033453D02*
Y033190D01*
X048432Y033059D01*
X048563Y033190D01*
Y033453D01*
X047120Y034256D02*
X047382D01*
X047251Y034387D02*
Y034125D01*
X047514Y034453D02*
X047776D01*
Y034387D01*
X047514Y034125D01*
Y034059D01*
X048170D02*
X047907D01*
X048170Y034321D01*
Y034387D01*
X048104Y034453D01*
X047973D01*
X047907Y034387D01*
X048301Y034453D02*
Y034190D01*
X048432Y034059D01*
X048563Y034190D01*
Y034453D01*
X047870Y031387D02*
X047936Y031453D01*
X048067D01*
X048132Y031387D01*
Y031125D01*
X048067Y031059D01*
X047936D01*
X047870Y031125D01*
Y031387D01*
X048264Y031453D02*
Y031190D01*
X048395Y031059D01*
X048526Y031190D01*
Y031453D01*
M02*
