G04 Layer_Color=16711935*
%FSLAX42Y42*%
%MOMM*%
G71*
G01*
G75*
%ADD17C,0.25*%
%ADD43R,1.80X5.10*%
%ADD47C,1.73*%
%ADD48R,1.73X1.73*%
%ADD49C,1.22*%
%ADD50C,1.80*%
%ADD51R,1.80X1.80*%
%ADD52C,1.47*%
%ADD53C,0.45*%
%ADD54R,1.75X2.40*%
%ADD55R,1.15X1.20*%
%ADD56R,1.20X1.15*%
%ADD57R,1.65X1.35*%
%ADD58R,2.00X1.35*%
%ADD59R,1.70X5.60*%
%ADD60R,2.45X2.00*%
%ADD61R,2.00X1.35*%
%ADD62R,1.10X0.65*%
%ADD63R,1.90X2.90*%
%ADD64R,1.10X1.50*%
%ADD65R,1.10X2.10*%
D17*
X8550Y8612D02*
Y9138D01*
Y4862D02*
Y5388D01*
X5000Y4500D02*
Y9500D01*
X8550D01*
X5000Y4500D02*
X8550D01*
Y6425D02*
Y7575D01*
Y5800D02*
Y6425D01*
Y7575D02*
Y8200D01*
Y8612D01*
Y9138D02*
Y9500D01*
Y4500D02*
Y4862D01*
Y5388D02*
Y5800D01*
D43*
X6525Y9218D02*
D03*
X5675D02*
D03*
X7775D02*
D03*
X6925D02*
D03*
D47*
X5250Y9272D02*
D03*
Y9018D02*
D03*
Y8764D02*
D03*
Y8510D02*
D03*
Y8256D02*
D03*
Y8002D02*
D03*
Y7748D02*
D03*
Y7494D02*
D03*
Y7240D02*
D03*
Y6986D02*
D03*
Y6732D02*
D03*
Y6478D02*
D03*
Y6224D02*
D03*
Y5970D02*
D03*
Y5716D02*
D03*
Y5462D02*
D03*
Y5208D02*
D03*
Y4954D02*
D03*
X8300Y9272D02*
D03*
Y9018D02*
D03*
Y8764D02*
D03*
Y8510D02*
D03*
Y8256D02*
D03*
Y8002D02*
D03*
Y7748D02*
D03*
Y7494D02*
D03*
Y7240D02*
D03*
Y6986D02*
D03*
Y6732D02*
D03*
Y6478D02*
D03*
Y6224D02*
D03*
Y5970D02*
D03*
Y5716D02*
D03*
Y5462D02*
D03*
Y5208D02*
D03*
Y4954D02*
D03*
D48*
X5250Y4700D02*
D03*
X8300D02*
D03*
D49*
X7571Y8400D02*
D03*
X7825D02*
D03*
X7698D02*
D03*
D50*
X7562Y7520D02*
D03*
X6038D02*
D03*
X7562Y7012D02*
D03*
Y6758D02*
D03*
Y6504D02*
D03*
X6038Y5234D02*
D03*
Y4980D02*
D03*
Y7012D02*
D03*
Y6758D02*
D03*
X7562Y5234D02*
D03*
X6038Y6504D02*
D03*
D51*
X7562Y4980D02*
D03*
D52*
X6137Y6284D02*
D03*
X6017Y5789D02*
D03*
X6725Y9143D02*
D03*
X6873Y5550D02*
D03*
X7600D02*
D03*
X6775Y8550D02*
D03*
X7350Y9000D02*
D03*
D53*
X6368Y5763D02*
D03*
X6418D02*
D03*
X6468D02*
D03*
X6518D02*
D03*
X6618D02*
D03*
X6668D02*
D03*
X6718D02*
D03*
X6768D02*
D03*
X6418Y5813D02*
D03*
X6718D02*
D03*
X6518Y6013D02*
D03*
X6668D02*
D03*
X6518Y6063D02*
D03*
X6368Y6413D02*
D03*
X6418D02*
D03*
X6468D02*
D03*
X6518D02*
D03*
X6568D02*
D03*
X6618D02*
D03*
X6668D02*
D03*
X6718D02*
D03*
X6768D02*
D03*
D54*
X6775Y7255D02*
D03*
Y6845D02*
D03*
X7175Y6845D02*
D03*
Y7255D02*
D03*
D55*
X7355Y5550D02*
D03*
X7195D02*
D03*
X6359Y6627D02*
D03*
X6519D02*
D03*
X5795Y6100D02*
D03*
X5955D02*
D03*
D56*
X5800Y5745D02*
D03*
Y5905D02*
D03*
D57*
X6450Y7515D02*
D03*
Y7335D02*
D03*
D58*
X6600Y4950D02*
D03*
Y5250D02*
D03*
D59*
X7190Y6000D02*
D03*
X7710D02*
D03*
D60*
X6950Y5245D02*
D03*
Y4955D02*
D03*
D61*
X7900Y6945D02*
D03*
Y6655D02*
D03*
D62*
X7755Y8700D02*
D03*
X7545Y8765D02*
D03*
Y8635D02*
D03*
D63*
X7150Y8286D02*
D03*
D64*
X7300Y8546D02*
D03*
X7000D02*
D03*
D65*
X7150Y8517D02*
D03*
M02*
