<?xml version="1.0" encoding="UTF-8" standalone="no"?>
<!DOCTYPE svg PUBLIC "-//W3C//DTD SVG 1.1//EN"
 "http://www.w3.org/Graphics/SVG/1.1/DTD/svg11.dtd">
<!-- Generated by graphviz version 2.38.0 (20140413.2041)
 -->
<!-- Title: %3 Pages: 1 -->
<svg width="461pt" height="116pt"
 viewBox="0.00 0.00 461.04 116.00" xmlns="http://www.w3.org/2000/svg" xmlns:xlink="http://www.w3.org/1999/xlink">
<g id="graph0" class="graph" transform="scale(1 1) rotate(0) translate(4 112)">
<title>%3</title>
<polygon fill="white" stroke="none" points="-4,4 -4,-112 457.04,-112 457.04,4 -4,4"/>
<!-- ITF&#45;mET_Piezo -->
<g id="node1" class="node"><title>ITF&#45;mET_Piezo</title>
<ellipse fill="none" stroke="black" cx="68.8939" cy="-90" rx="68.7879" ry="18"/>
<text text-anchor="middle" x="68.8939" y="-86.3" font-family="Times,serif" font-size="14.00">ITF&#45;mET_Piezo</text>
</g>
<!-- Piezo -->
<g id="node2" class="node"><title>Piezo</title>
<ellipse fill="none" stroke="black" cx="68.8939" cy="-18" rx="30.5947" ry="18"/>
<text text-anchor="middle" x="68.8939" y="-14.3" font-family="Times,serif" font-size="14.00">Piezo</text>
</g>
<!-- ITF&#45;mET_Piezo&#45;&gt;Piezo -->
<g id="edge1" class="edge"><title>ITF&#45;mET_Piezo&#45;&gt;Piezo</title>
<path fill="none" stroke="black" d="M63.0157,-72.055C62.1854,-64.2306 61.9482,-54.7484 62.3041,-45.9768"/>
<polygon fill="black" stroke="black" points="65.8103,-46.0131 63.0323,-35.789 58.8281,-45.514 65.8103,-46.0131"/>
</g>
<!-- Piezo&#45;&gt;ITF&#45;mET_Piezo -->
<g id="edge2" class="edge"><title>Piezo&#45;&gt;ITF&#45;mET_Piezo</title>
<path fill="none" stroke="black" d="M74.7555,-35.789C75.5936,-43.5912 75.8387,-53.067 75.4907,-61.8479"/>
<polygon fill="black" stroke="black" points="71.9832,-61.8338 74.7721,-72.055 78.9659,-62.3255 71.9832,-61.8338"/>
</g>
<!-- ITF&#45;N_cc_motor_pwm -->
<g id="node3" class="node"><title>ITF&#45;N_cc_motor_pwm</title>
<ellipse fill="none" stroke="black" cx="248.894" cy="-90" rx="93.6835" ry="18"/>
<text text-anchor="middle" x="248.894" y="-86.3" font-family="Times,serif" font-size="14.00">ITF&#45;N_cc_motor_pwm</text>
</g>
<!-- Servo -->
<g id="node4" class="node"><title>Servo</title>
<ellipse fill="none" stroke="black" cx="327.894" cy="-18" rx="31.3957" ry="18"/>
<text text-anchor="middle" x="327.894" y="-14.3" font-family="Times,serif" font-size="14.00">Servo</text>
</g>
<!-- ITF&#45;N_cc_motor_pwm&#45;&gt;Servo -->
<g id="edge3" class="edge"><title>ITF&#45;N_cc_motor_pwm&#45;&gt;Servo</title>
<path fill="none" stroke="black" d="M268.018,-72.055C278.852,-62.4553 292.502,-50.3602 304.032,-40.1436"/>
<polygon fill="black" stroke="black" points="306.451,-42.676 311.615,-33.4245 301.809,-37.4368 306.451,-42.676"/>
</g>
<!-- ITF&#45;B_5v -->
<g id="node5" class="node"><title>ITF&#45;B_5v</title>
<ellipse fill="none" stroke="black" cx="406.894" cy="-90" rx="46.2923" ry="18"/>
<text text-anchor="middle" x="406.894" y="-86.3" font-family="Times,serif" font-size="14.00">ITF&#45;B_5v</text>
</g>
<!-- ITF&#45;B_5v&#45;&gt;Servo -->
<g id="edge4" class="edge"><title>ITF&#45;B_5v&#45;&gt;Servo</title>
<path fill="none" stroke="black" d="M388.968,-73.1159C377.914,-63.3214 363.608,-50.6458 351.622,-40.0247"/>
<polygon fill="black" stroke="black" points="353.943,-37.405 344.137,-33.3927 349.3,-42.6442 353.943,-37.405"/>
</g>
</g>
</svg>
