G04*
G04 #@! TF.GenerationSoftware,Altium Limited,Altium Designer,20.2.5 (213)*
G04*
G04 Layer_Color=16711935*
%FSLAX42Y42*%
%MOMM*%
G71*
G04*
G04 #@! TF.SameCoordinates,FD00795A-EEFA-4773-A186-A79775DAC492*
G04*
G04*
G04 #@! TF.FilePolarity,Negative*
G04*
G01*
G75*
%ADD12C,0.25*%
%ADD22R,1.80X5.10*%
%ADD29R,1.70X1.70*%
%ADD30C,1.70*%
%ADD31R,1.70X1.70*%
%ADD32C,1.73*%
%ADD33R,1.73X1.73*%
%ADD34C,3.30*%
%ADD35C,0.90*%
D12*
X7640Y5300D02*
X10100D01*
X7640D02*
Y7100D01*
X4000D02*
X7640D01*
X4000D02*
Y9500D01*
X10100D01*
Y5300D02*
Y9500D01*
D22*
X4895Y7378D02*
D03*
X5745D02*
D03*
X6515Y7382D02*
D03*
X7365D02*
D03*
D29*
X9222Y5696D02*
D03*
D30*
Y5950D02*
D03*
X8968Y5696D02*
D03*
X8714D02*
D03*
X8460D02*
D03*
X8206D02*
D03*
X7952D02*
D03*
X8968Y5950D02*
D03*
X8714D02*
D03*
X8460D02*
D03*
X8206D02*
D03*
X7952D02*
D03*
X9652Y6731D02*
D03*
Y6985D02*
D03*
D31*
X9398Y6731D02*
D03*
Y6985D02*
D03*
D32*
X7138Y8750D02*
D03*
Y9004D02*
D03*
X7392Y8750D02*
D03*
Y9004D02*
D03*
X7646Y8750D02*
D03*
Y9004D02*
D03*
X7900Y8750D02*
D03*
Y9004D02*
D03*
X8154Y8750D02*
D03*
Y9004D02*
D03*
X8662Y8750D02*
D03*
X8916D02*
D03*
X8408D02*
D03*
X8662Y9004D02*
D03*
X8408D02*
D03*
D33*
X8916D02*
D03*
D34*
X4300Y7400D02*
D03*
X9800Y5600D02*
D03*
Y9200D02*
D03*
X4300D02*
D03*
D35*
X6510Y7762D02*
D03*
X5765Y7770D02*
D03*
X8850Y6178D02*
D03*
X5320Y7780D02*
D03*
X6940Y7790D02*
D03*
X8050Y8500D02*
D03*
X8740Y8490D02*
D03*
X8390D02*
D03*
X8870Y7460D02*
D03*
X8870Y7800D02*
D03*
X8955Y7940D02*
D03*
X8950Y7630D02*
D03*
X8865Y8180D02*
D03*
X8570Y8360D02*
D03*
X8255Y8350D02*
D03*
X7900Y8340D02*
D03*
X7750Y7470D02*
D03*
X7745Y8080D02*
D03*
X7845Y7910D02*
D03*
X7840Y7620D02*
D03*
X7745Y7770D02*
D03*
X8655Y6910D02*
D03*
X8645Y7110D02*
D03*
X7965Y7140D02*
D03*
X7965Y7300D02*
D03*
X8010Y6920D02*
D03*
X8310Y7393D02*
D03*
M02*
