G04*
G04 #@! TF.GenerationSoftware,Altium Limited,Altium Designer,20.2.5 (213)*
G04*
G04 Layer_Physical_Order=2*
G04 Layer_Color=16711680*
%FSLAX42Y42*%
%MOMM*%
G71*
G04*
G04 #@! TF.SameCoordinates,FD00795A-EEFA-4773-A186-A79775DAC492*
G04*
G04*
G04 #@! TF.FilePolarity,Positive*
G04*
G01*
G75*
%ADD12C,0.25*%
%ADD15R,1.60X4.90*%
%ADD37R,1.50X1.50*%
%ADD38C,1.50*%
%ADD39R,1.50X1.50*%
%ADD40C,1.52*%
%ADD41R,1.52X1.52*%
%ADD42C,3.10*%
%ADD43C,0.70*%
G36*
X10100Y5300D02*
X7650D01*
Y7110D01*
X7487D01*
X7470Y7112D01*
X7470Y7128D01*
Y7370D01*
X7365D01*
X7260D01*
Y7128D01*
X7260Y7112D01*
X7243Y7110D01*
X6637D01*
X6620Y7112D01*
X6620Y7128D01*
Y7370D01*
X6515D01*
X6410D01*
Y7128D01*
X6410Y7112D01*
X6393Y7110D01*
X5850D01*
Y7365D01*
X5745D01*
X5640D01*
Y7110D01*
X5000D01*
Y7365D01*
X4895D01*
X4790D01*
Y7110D01*
X4020D01*
X4010Y7120D01*
Y9490D01*
X10100D01*
Y5300D01*
D02*
G37*
%LPC*%
G36*
X9800Y9374D02*
X9766Y9370D01*
X9734Y9360D01*
X9704Y9344D01*
X9677Y9323D01*
X9656Y9296D01*
X9640Y9266D01*
X9630Y9234D01*
X9626Y9200D01*
X9630Y9166D01*
X9640Y9134D01*
X9656Y9104D01*
X9677Y9077D01*
X9704Y9056D01*
X9734Y9040D01*
X9766Y9030D01*
X9800Y9026D01*
X9834Y9030D01*
X9866Y9040D01*
X9896Y9056D01*
X9923Y9077D01*
X9944Y9104D01*
X9960Y9134D01*
X9970Y9166D01*
X9974Y9200D01*
X9970Y9234D01*
X9960Y9266D01*
X9944Y9296D01*
X9923Y9323D01*
X9896Y9344D01*
X9866Y9360D01*
X9834Y9370D01*
X9800Y9374D01*
D02*
G37*
G36*
X4300D02*
X4266Y9370D01*
X4234Y9360D01*
X4204Y9344D01*
X4177Y9323D01*
X4156Y9296D01*
X4140Y9266D01*
X4130Y9234D01*
X4126Y9200D01*
X4130Y9166D01*
X4140Y9134D01*
X4156Y9104D01*
X4177Y9077D01*
X4204Y9056D01*
X4234Y9040D01*
X4266Y9030D01*
X4300Y9026D01*
X4334Y9030D01*
X4366Y9040D01*
X4396Y9056D01*
X4423Y9077D01*
X4444Y9104D01*
X4460Y9134D01*
X4470Y9166D01*
X4474Y9200D01*
X4470Y9234D01*
X4460Y9266D01*
X4444Y9296D01*
X4423Y9323D01*
X4396Y9344D01*
X4366Y9360D01*
X4334Y9370D01*
X4300Y9374D01*
D02*
G37*
G36*
X9010Y9098D02*
X8822D01*
Y8910D01*
X9010D01*
Y9098D01*
D02*
G37*
G36*
X8662Y9099D02*
X8637Y9096D01*
X8615Y9086D01*
X8595Y9071D01*
X8580Y9051D01*
X8570Y9029D01*
X8567Y9004D01*
X8570Y8979D01*
X8580Y8957D01*
X8595Y8937D01*
X8615Y8922D01*
X8637Y8912D01*
X8662Y8909D01*
X8687Y8912D01*
X8709Y8922D01*
X8729Y8937D01*
X8744Y8957D01*
X8754Y8979D01*
X8757Y9004D01*
X8754Y9029D01*
X8744Y9051D01*
X8729Y9071D01*
X8709Y9086D01*
X8687Y9096D01*
X8662Y9099D01*
D02*
G37*
G36*
X8408D02*
X8383Y9096D01*
X8361Y9086D01*
X8341Y9071D01*
X8326Y9051D01*
X8316Y9029D01*
X8313Y9004D01*
X8316Y8979D01*
X8326Y8957D01*
X8341Y8937D01*
X8361Y8922D01*
X8383Y8912D01*
X8408Y8909D01*
X8433Y8912D01*
X8455Y8922D01*
X8475Y8937D01*
X8490Y8957D01*
X8500Y8979D01*
X8503Y9004D01*
X8500Y9029D01*
X8490Y9051D01*
X8475Y9071D01*
X8455Y9086D01*
X8433Y9096D01*
X8408Y9099D01*
D02*
G37*
G36*
X8154D02*
X8129Y9096D01*
X8107Y9086D01*
X8087Y9071D01*
X8072Y9051D01*
X8062Y9029D01*
X8059Y9004D01*
X8062Y8979D01*
X8072Y8957D01*
X8087Y8937D01*
X8107Y8922D01*
X8129Y8912D01*
X8154Y8909D01*
X8179Y8912D01*
X8201Y8922D01*
X8221Y8937D01*
X8236Y8957D01*
X8246Y8979D01*
X8249Y9004D01*
X8246Y9029D01*
X8236Y9051D01*
X8221Y9071D01*
X8201Y9086D01*
X8179Y9096D01*
X8154Y9099D01*
D02*
G37*
G36*
X7900D02*
X7875Y9096D01*
X7853Y9086D01*
X7833Y9071D01*
X7818Y9051D01*
X7808Y9029D01*
X7805Y9004D01*
X7808Y8979D01*
X7818Y8957D01*
X7833Y8937D01*
X7853Y8922D01*
X7875Y8912D01*
X7900Y8909D01*
X7925Y8912D01*
X7947Y8922D01*
X7967Y8937D01*
X7982Y8957D01*
X7992Y8979D01*
X7995Y9004D01*
X7992Y9029D01*
X7982Y9051D01*
X7967Y9071D01*
X7947Y9086D01*
X7925Y9096D01*
X7900Y9099D01*
D02*
G37*
G36*
X7646D02*
X7621Y9096D01*
X7599Y9086D01*
X7579Y9071D01*
X7564Y9051D01*
X7554Y9029D01*
X7551Y9004D01*
X7554Y8979D01*
X7564Y8957D01*
X7579Y8937D01*
X7599Y8922D01*
X7621Y8912D01*
X7646Y8909D01*
X7671Y8912D01*
X7693Y8922D01*
X7713Y8937D01*
X7728Y8957D01*
X7738Y8979D01*
X7741Y9004D01*
X7738Y9029D01*
X7728Y9051D01*
X7713Y9071D01*
X7693Y9086D01*
X7671Y9096D01*
X7646Y9099D01*
D02*
G37*
G36*
X7392D02*
X7367Y9096D01*
X7345Y9086D01*
X7325Y9071D01*
X7310Y9051D01*
X7300Y9029D01*
X7297Y9004D01*
X7300Y8979D01*
X7310Y8957D01*
X7325Y8937D01*
X7345Y8922D01*
X7367Y8912D01*
X7392Y8909D01*
X7417Y8912D01*
X7439Y8922D01*
X7459Y8937D01*
X7474Y8957D01*
X7484Y8979D01*
X7487Y9004D01*
X7484Y9029D01*
X7474Y9051D01*
X7459Y9071D01*
X7439Y9086D01*
X7417Y9096D01*
X7392Y9099D01*
D02*
G37*
G36*
X7138D02*
X7113Y9096D01*
X7091Y9086D01*
X7071Y9071D01*
X7056Y9051D01*
X7046Y9029D01*
X7043Y9004D01*
X7046Y8979D01*
X7056Y8957D01*
X7071Y8937D01*
X7091Y8922D01*
X7113Y8912D01*
X7138Y8909D01*
X7163Y8912D01*
X7185Y8922D01*
X7205Y8937D01*
X7220Y8957D01*
X7230Y8979D01*
X7233Y9004D01*
X7230Y9029D01*
X7220Y9051D01*
X7205Y9071D01*
X7185Y9086D01*
X7163Y9096D01*
X7138Y9099D01*
D02*
G37*
G36*
X8167Y8851D02*
Y8763D01*
X8255D01*
X8253Y8777D01*
X8243Y8801D01*
X8226Y8822D01*
X8205Y8839D01*
X8181Y8849D01*
X8167Y8851D01*
D02*
G37*
G36*
X7913D02*
Y8763D01*
X8001D01*
X7999Y8777D01*
X7989Y8801D01*
X7972Y8822D01*
X7951Y8839D01*
X7927Y8849D01*
X7913Y8851D01*
D02*
G37*
G36*
X7659D02*
Y8763D01*
X7747D01*
X7745Y8777D01*
X7735Y8801D01*
X7718Y8822D01*
X7697Y8839D01*
X7673Y8849D01*
X7659Y8851D01*
D02*
G37*
G36*
X7405D02*
Y8763D01*
X7493D01*
X7491Y8777D01*
X7481Y8801D01*
X7464Y8822D01*
X7443Y8839D01*
X7419Y8849D01*
X7405Y8851D01*
D02*
G37*
G36*
X7151D02*
Y8763D01*
X7239D01*
X7237Y8777D01*
X7227Y8801D01*
X7210Y8822D01*
X7189Y8839D01*
X7165Y8849D01*
X7151Y8851D01*
D02*
G37*
G36*
X8421D02*
Y8763D01*
X8509D01*
X8507Y8777D01*
X8497Y8801D01*
X8480Y8822D01*
X8459Y8839D01*
X8435Y8849D01*
X8421Y8851D01*
D02*
G37*
G36*
X8141Y8851D02*
X8127Y8849D01*
X8103Y8839D01*
X8082Y8822D01*
X8065Y8801D01*
X8055Y8777D01*
X8053Y8763D01*
X8141D01*
Y8851D01*
D02*
G37*
G36*
X7887D02*
X7873Y8849D01*
X7849Y8839D01*
X7828Y8822D01*
X7811Y8801D01*
X7801Y8777D01*
X7799Y8763D01*
X7887D01*
Y8851D01*
D02*
G37*
G36*
X7633D02*
X7619Y8849D01*
X7595Y8839D01*
X7574Y8822D01*
X7557Y8801D01*
X7547Y8777D01*
X7545Y8763D01*
X7633D01*
Y8851D01*
D02*
G37*
G36*
X7379D02*
X7365Y8849D01*
X7341Y8839D01*
X7320Y8822D01*
X7303Y8801D01*
X7293Y8777D01*
X7291Y8763D01*
X7379D01*
Y8851D01*
D02*
G37*
G36*
X7125D02*
X7111Y8849D01*
X7087Y8839D01*
X7066Y8822D01*
X7049Y8801D01*
X7039Y8777D01*
X7037Y8763D01*
X7125D01*
Y8851D01*
D02*
G37*
G36*
X8395D02*
X8381Y8849D01*
X8357Y8839D01*
X8336Y8822D01*
X8319Y8801D01*
X8309Y8777D01*
X8307Y8763D01*
X8395D01*
Y8851D01*
D02*
G37*
G36*
X8929Y8851D02*
Y8763D01*
X9017D01*
X9015Y8777D01*
X9005Y8801D01*
X8988Y8822D01*
X8967Y8839D01*
X8943Y8849D01*
X8929Y8851D01*
D02*
G37*
G36*
X8675D02*
Y8763D01*
X8763D01*
X8761Y8777D01*
X8751Y8801D01*
X8734Y8822D01*
X8713Y8839D01*
X8689Y8849D01*
X8675Y8851D01*
D02*
G37*
G36*
X8903Y8851D02*
X8889Y8849D01*
X8865Y8839D01*
X8844Y8822D01*
X8827Y8801D01*
X8817Y8777D01*
X8815Y8763D01*
X8903D01*
Y8851D01*
D02*
G37*
G36*
X8649D02*
X8635Y8849D01*
X8611Y8839D01*
X8590Y8822D01*
X8573Y8801D01*
X8563Y8777D01*
X8561Y8763D01*
X8649D01*
Y8851D01*
D02*
G37*
G36*
X8903Y8737D02*
X8815D01*
X8817Y8723D01*
X8827Y8699D01*
X8844Y8678D01*
X8865Y8661D01*
X8889Y8651D01*
X8903Y8649D01*
Y8737D01*
D02*
G37*
G36*
X8649D02*
X8561D01*
X8563Y8723D01*
X8573Y8699D01*
X8590Y8678D01*
X8611Y8661D01*
X8635Y8651D01*
X8649Y8649D01*
Y8737D01*
D02*
G37*
G36*
X8395Y8737D02*
X8307D01*
X8309Y8723D01*
X8319Y8699D01*
X8336Y8678D01*
X8357Y8661D01*
X8381Y8651D01*
X8395Y8649D01*
Y8737D01*
D02*
G37*
G36*
X8141D02*
X8053D01*
X8055Y8723D01*
X8065Y8699D01*
X8082Y8678D01*
X8103Y8661D01*
X8127Y8651D01*
X8141Y8649D01*
Y8737D01*
D02*
G37*
G36*
X7887D02*
X7799D01*
X7801Y8723D01*
X7811Y8699D01*
X7828Y8678D01*
X7849Y8661D01*
X7873Y8651D01*
X7887Y8649D01*
Y8737D01*
D02*
G37*
G36*
X7633D02*
X7545D01*
X7547Y8723D01*
X7557Y8699D01*
X7574Y8678D01*
X7595Y8661D01*
X7619Y8651D01*
X7633Y8649D01*
Y8737D01*
D02*
G37*
G36*
X7379D02*
X7291D01*
X7293Y8723D01*
X7303Y8699D01*
X7320Y8678D01*
X7341Y8661D01*
X7365Y8651D01*
X7379Y8649D01*
Y8737D01*
D02*
G37*
G36*
X7125D02*
X7037D01*
X7039Y8723D01*
X7049Y8699D01*
X7066Y8678D01*
X7087Y8661D01*
X7111Y8651D01*
X7125Y8649D01*
Y8737D01*
D02*
G37*
G36*
X8509D02*
X8421D01*
Y8649D01*
X8435Y8651D01*
X8459Y8661D01*
X8480Y8678D01*
X8497Y8699D01*
X8507Y8723D01*
X8509Y8737D01*
D02*
G37*
G36*
X8255D02*
X8167D01*
Y8649D01*
X8181Y8651D01*
X8205Y8661D01*
X8226Y8678D01*
X8243Y8699D01*
X8253Y8723D01*
X8255Y8737D01*
D02*
G37*
G36*
X8001D02*
X7913D01*
Y8649D01*
X7927Y8651D01*
X7951Y8661D01*
X7972Y8678D01*
X7989Y8699D01*
X7999Y8723D01*
X8001Y8737D01*
D02*
G37*
G36*
X7747D02*
X7659D01*
Y8649D01*
X7673Y8651D01*
X7697Y8661D01*
X7718Y8678D01*
X7735Y8699D01*
X7745Y8723D01*
X7747Y8737D01*
D02*
G37*
G36*
X7493D02*
X7405D01*
Y8649D01*
X7419Y8651D01*
X7443Y8661D01*
X7464Y8678D01*
X7481Y8699D01*
X7491Y8723D01*
X7493Y8737D01*
D02*
G37*
G36*
X7239D02*
X7151D01*
Y8649D01*
X7165Y8651D01*
X7189Y8661D01*
X7210Y8678D01*
X7227Y8699D01*
X7237Y8723D01*
X7239Y8737D01*
D02*
G37*
G36*
X9017Y8737D02*
X8929D01*
Y8649D01*
X8943Y8651D01*
X8967Y8661D01*
X8988Y8678D01*
X9005Y8699D01*
X9015Y8723D01*
X9017Y8737D01*
D02*
G37*
G36*
X8763D02*
X8675D01*
Y8649D01*
X8689Y8651D01*
X8713Y8661D01*
X8734Y8678D01*
X8751Y8699D01*
X8761Y8723D01*
X8763Y8737D01*
D02*
G37*
G36*
X5778Y7829D02*
Y7783D01*
X5824D01*
X5822Y7794D01*
X5809Y7814D01*
X5789Y7827D01*
X5778Y7829D01*
D02*
G37*
G36*
X5752D02*
X5741Y7827D01*
X5721Y7814D01*
X5708Y7794D01*
X5706Y7783D01*
X5752D01*
Y7829D01*
D02*
G37*
G36*
X6523Y7822D02*
Y7775D01*
X6569D01*
X6567Y7786D01*
X6554Y7806D01*
X6534Y7819D01*
X6523Y7822D01*
D02*
G37*
G36*
X6497D02*
X6486Y7819D01*
X6466Y7806D01*
X6453Y7786D01*
X6451Y7775D01*
X6497D01*
Y7822D01*
D02*
G37*
G36*
X5824Y7757D02*
X5778D01*
Y7711D01*
X5789Y7713D01*
X5809Y7726D01*
X5822Y7746D01*
X5824Y7757D01*
D02*
G37*
G36*
X5752D02*
X5706D01*
X5708Y7746D01*
X5721Y7726D01*
X5741Y7713D01*
X5752Y7711D01*
Y7757D01*
D02*
G37*
G36*
X6569Y7750D02*
X6523D01*
Y7703D01*
X6534Y7706D01*
X6554Y7719D01*
X6567Y7739D01*
X6569Y7750D01*
D02*
G37*
G36*
X6497D02*
X6451D01*
X6453Y7739D01*
X6466Y7719D01*
X6486Y7706D01*
X6497Y7703D01*
Y7750D01*
D02*
G37*
G36*
X8050Y8554D02*
X8029Y8550D01*
X8012Y8538D01*
X8007Y8531D01*
X7930D01*
X7918Y8529D01*
X7908Y8522D01*
X7723Y8337D01*
X7716Y8327D01*
X7714Y8315D01*
Y8123D01*
X7707Y8118D01*
X7695Y8101D01*
X7691Y8080D01*
X7695Y8059D01*
X7707Y8042D01*
X7714Y8037D01*
Y7991D01*
X5500D01*
X5488Y7989D01*
X5478Y7982D01*
X5328Y7832D01*
X5320Y7834D01*
X5299Y7830D01*
X5282Y7818D01*
X5270Y7801D01*
X5266Y7780D01*
X5270Y7759D01*
X5282Y7742D01*
X5299Y7730D01*
X5320Y7726D01*
X5341Y7730D01*
X5358Y7742D01*
X5370Y7759D01*
X5374Y7780D01*
X5372Y7788D01*
X5513Y7929D01*
X7714D01*
Y7813D01*
X7707Y7808D01*
X7695Y7791D01*
X7691Y7770D01*
X7695Y7749D01*
X7707Y7732D01*
X7716Y7726D01*
Y7511D01*
X7712Y7508D01*
X7700Y7491D01*
X7699Y7483D01*
X7681Y7485D01*
Y7620D01*
X7679Y7632D01*
X7672Y7642D01*
X7502Y7812D01*
X7492Y7819D01*
X7480Y7821D01*
X6983D01*
X6978Y7828D01*
X6961Y7840D01*
X6940Y7844D01*
X6919Y7840D01*
X6902Y7828D01*
X6890Y7811D01*
X6886Y7790D01*
X6890Y7769D01*
X6902Y7752D01*
X6919Y7740D01*
X6940Y7736D01*
X6961Y7740D01*
X6978Y7752D01*
X6983Y7759D01*
X7467D01*
X7619Y7607D01*
Y7360D01*
X7621Y7348D01*
X7628Y7338D01*
X7668Y7298D01*
X7678Y7291D01*
X7690Y7289D01*
X7800D01*
X7812Y7291D01*
X7822Y7298D01*
X7862Y7338D01*
X7869Y7348D01*
X7871Y7360D01*
Y7577D01*
X7878Y7582D01*
X7890Y7599D01*
X7894Y7620D01*
X7890Y7641D01*
X7878Y7658D01*
X7874Y7661D01*
Y7866D01*
X7883Y7872D01*
X7895Y7889D01*
X7899Y7910D01*
X7895Y7931D01*
X7883Y7948D01*
X7876Y7953D01*
Y8272D01*
X7892Y8288D01*
X7900Y8286D01*
X7921Y8290D01*
X7938Y8302D01*
X7946Y8314D01*
X8216D01*
X8217Y8312D01*
X8234Y8300D01*
X8255Y8296D01*
X8276Y8300D01*
X8293Y8312D01*
X8301Y8324D01*
X8531D01*
X8532Y8322D01*
X8549Y8310D01*
X8570Y8306D01*
X8591Y8310D01*
X8608Y8322D01*
X8613Y8329D01*
X8672D01*
X8813Y8188D01*
X8811Y8180D01*
X8815Y8159D01*
X8827Y8142D01*
X8839Y8134D01*
Y7843D01*
X8832Y7838D01*
X8820Y7821D01*
X8816Y7800D01*
X8820Y7779D01*
X8832Y7762D01*
X8839Y7757D01*
Y7574D01*
X8839Y7574D01*
Y7503D01*
X8832Y7498D01*
X8820Y7481D01*
X8816Y7460D01*
X8820Y7439D01*
X8832Y7422D01*
X8849Y7410D01*
X8870Y7406D01*
X8891Y7410D01*
X8908Y7422D01*
X8920Y7439D01*
X8924Y7460D01*
X8920Y7481D01*
X8908Y7498D01*
X8901Y7503D01*
Y7574D01*
X8901Y7574D01*
Y7579D01*
X8919Y7587D01*
X8929Y7580D01*
X8950Y7576D01*
X8971Y7580D01*
X8988Y7592D01*
X9000Y7609D01*
X9004Y7630D01*
X9000Y7651D01*
X8988Y7668D01*
X8984Y7671D01*
Y7896D01*
X8993Y7902D01*
X9005Y7919D01*
X9009Y7940D01*
X9005Y7961D01*
X8993Y7978D01*
X8986Y7983D01*
Y8275D01*
X8984Y8287D01*
X8977Y8297D01*
X8792Y8482D01*
X8794Y8490D01*
X8790Y8511D01*
X8778Y8528D01*
X8761Y8540D01*
X8740Y8544D01*
X8719Y8540D01*
X8702Y8528D01*
X8697Y8521D01*
X8433D01*
X8428Y8528D01*
X8411Y8540D01*
X8390Y8544D01*
X8369Y8540D01*
X8356Y8531D01*
X8093D01*
X8088Y8538D01*
X8071Y8550D01*
X8050Y8554D01*
D02*
G37*
G36*
X8323Y7452D02*
Y7405D01*
X8369D01*
X8367Y7416D01*
X8354Y7436D01*
X8334Y7449D01*
X8323Y7452D01*
D02*
G37*
G36*
X8297D02*
X8286Y7449D01*
X8266Y7436D01*
X8253Y7416D01*
X8251Y7405D01*
X8297D01*
Y7452D01*
D02*
G37*
G36*
X6620Y7653D02*
X6528D01*
Y7395D01*
X6620D01*
Y7653D01*
D02*
G37*
G36*
X6502D02*
X6410D01*
Y7395D01*
X6502D01*
Y7653D01*
D02*
G37*
G36*
X7470D02*
X7378D01*
Y7395D01*
X7470D01*
Y7653D01*
D02*
G37*
G36*
X7352D02*
X7260D01*
Y7395D01*
X7352D01*
Y7653D01*
D02*
G37*
G36*
X5850Y7648D02*
X5758D01*
Y7390D01*
X5850D01*
Y7648D01*
D02*
G37*
G36*
X5000D02*
X4908D01*
Y7390D01*
X5000D01*
Y7648D01*
D02*
G37*
G36*
X5732D02*
X5640D01*
Y7390D01*
X5732D01*
Y7648D01*
D02*
G37*
G36*
X4882D02*
X4790D01*
Y7390D01*
X4882D01*
Y7648D01*
D02*
G37*
G36*
X8369Y7380D02*
X8323D01*
Y7333D01*
X8334Y7336D01*
X8354Y7349D01*
X8367Y7369D01*
X8369Y7380D01*
D02*
G37*
G36*
X8297D02*
X8251D01*
X8253Y7369D01*
X8266Y7349D01*
X8286Y7336D01*
X8297Y7333D01*
Y7380D01*
D02*
G37*
G36*
X4300Y7574D02*
X4266Y7570D01*
X4234Y7560D01*
X4204Y7544D01*
X4177Y7523D01*
X4156Y7496D01*
X4140Y7466D01*
X4130Y7434D01*
X4126Y7400D01*
X4130Y7366D01*
X4140Y7334D01*
X4156Y7304D01*
X4177Y7277D01*
X4204Y7256D01*
X4234Y7240D01*
X4266Y7230D01*
X4300Y7226D01*
X4334Y7230D01*
X4366Y7240D01*
X4396Y7256D01*
X4423Y7277D01*
X4444Y7304D01*
X4460Y7334D01*
X4470Y7366D01*
X4474Y7400D01*
X4470Y7434D01*
X4460Y7466D01*
X4444Y7496D01*
X4423Y7523D01*
X4396Y7544D01*
X4366Y7560D01*
X4334Y7570D01*
X4300Y7574D01*
D02*
G37*
G36*
X8023Y6979D02*
Y6933D01*
X8069D01*
X8067Y6944D01*
X8054Y6964D01*
X8034Y6977D01*
X8023Y6979D01*
D02*
G37*
G36*
X7997D02*
X7986Y6977D01*
X7966Y6964D01*
X7953Y6944D01*
X7951Y6933D01*
X7997D01*
Y6979D01*
D02*
G37*
G36*
X9491Y7078D02*
X9305D01*
Y6892D01*
X9491D01*
Y7078D01*
D02*
G37*
G36*
X9652Y7079D02*
X9628Y7075D01*
X9605Y7066D01*
X9586Y7051D01*
X9571Y7032D01*
X9562Y7009D01*
X9558Y6985D01*
X9562Y6961D01*
X9571Y6938D01*
X9586Y6919D01*
X9605Y6904D01*
X9628Y6895D01*
X9652Y6891D01*
X9676Y6895D01*
X9699Y6904D01*
X9718Y6919D01*
X9733Y6938D01*
X9742Y6961D01*
X9746Y6985D01*
X9742Y7009D01*
X9733Y7032D01*
X9718Y7051D01*
X9699Y7066D01*
X9676Y7075D01*
X9652Y7079D01*
D02*
G37*
G36*
X8069Y6907D02*
X8023D01*
Y6861D01*
X8034Y6863D01*
X8054Y6876D01*
X8067Y6896D01*
X8069Y6907D01*
D02*
G37*
G36*
X7997D02*
X7951D01*
X7953Y6896D01*
X7966Y6876D01*
X7986Y6863D01*
X7997Y6861D01*
Y6907D01*
D02*
G37*
G36*
X9491Y6824D02*
X9305D01*
Y6638D01*
X9491D01*
Y6824D01*
D02*
G37*
G36*
X9652Y6825D02*
X9628Y6821D01*
X9605Y6812D01*
X9586Y6797D01*
X9571Y6778D01*
X9562Y6755D01*
X9558Y6731D01*
X9562Y6707D01*
X9571Y6684D01*
X9586Y6665D01*
X9605Y6650D01*
X9628Y6641D01*
X9652Y6637D01*
X9676Y6641D01*
X9699Y6650D01*
X9718Y6665D01*
X9733Y6684D01*
X9742Y6707D01*
X9746Y6731D01*
X9742Y6755D01*
X9733Y6778D01*
X9718Y6797D01*
X9699Y6812D01*
X9676Y6821D01*
X9652Y6825D01*
D02*
G37*
G36*
X8863Y6237D02*
Y6190D01*
X8909D01*
X8907Y6201D01*
X8894Y6221D01*
X8874Y6234D01*
X8863Y6237D01*
D02*
G37*
G36*
X8837D02*
X8826Y6234D01*
X8806Y6221D01*
X8793Y6201D01*
X8791Y6190D01*
X8837D01*
Y6237D01*
D02*
G37*
G36*
X8909Y6165D02*
X8863D01*
Y6118D01*
X8874Y6121D01*
X8894Y6134D01*
X8907Y6154D01*
X8909Y6165D01*
D02*
G37*
G36*
X8837D02*
X8791D01*
X8793Y6154D01*
X8806Y6134D01*
X8826Y6121D01*
X8837Y6118D01*
Y6165D01*
D02*
G37*
G36*
X7965Y7354D02*
X7944Y7350D01*
X7927Y7338D01*
X7915Y7321D01*
X7911Y7300D01*
X7915Y7279D01*
X7927Y7262D01*
X7944Y7250D01*
X7965Y7246D01*
X7973Y7248D01*
X8683Y6538D01*
Y6038D01*
X8667Y6031D01*
X8648Y6016D01*
X8633Y5997D01*
X8629Y5987D01*
X8611Y5990D01*
Y6075D01*
X8609Y6087D01*
X8602Y6097D01*
X8491Y6208D01*
Y6645D01*
X8489Y6657D01*
X8482Y6667D01*
X8017Y7132D01*
X8019Y7140D01*
X8015Y7161D01*
X8003Y7178D01*
X7986Y7190D01*
X7965Y7194D01*
X7944Y7190D01*
X7927Y7178D01*
X7915Y7161D01*
X7911Y7140D01*
X7915Y7119D01*
X7927Y7102D01*
X7944Y7090D01*
X7965Y7086D01*
X7973Y7088D01*
X8429Y6632D01*
Y6195D01*
X8431Y6183D01*
X8438Y6173D01*
X8549Y6062D01*
Y6016D01*
X8531Y6010D01*
X8526Y6016D01*
X8507Y6031D01*
X8484Y6040D01*
X8460Y6044D01*
X8436Y6040D01*
X8413Y6031D01*
X8394Y6016D01*
X8379Y5997D01*
X8370Y5974D01*
X8366Y5950D01*
X8370Y5926D01*
X8379Y5903D01*
X8394Y5884D01*
X8413Y5869D01*
X8436Y5860D01*
X8460Y5856D01*
X8484Y5860D01*
X8507Y5869D01*
X8526Y5884D01*
X8531Y5890D01*
X8549Y5884D01*
Y5870D01*
X8551Y5858D01*
X8558Y5848D01*
X8608Y5798D01*
X8618Y5791D01*
X8630Y5789D01*
X8653D01*
X8660Y5771D01*
X8648Y5762D01*
X8633Y5743D01*
X8624Y5720D01*
X8620Y5696D01*
X8624Y5672D01*
X8633Y5649D01*
X8648Y5630D01*
X8667Y5615D01*
X8690Y5606D01*
X8714Y5602D01*
X8738Y5606D01*
X8761Y5615D01*
X8780Y5630D01*
X8795Y5649D01*
X8804Y5672D01*
X8808Y5696D01*
X8804Y5720D01*
X8795Y5743D01*
X8780Y5762D01*
X8768Y5771D01*
X8775Y5789D01*
X8907D01*
X8914Y5771D01*
X8902Y5762D01*
X8887Y5743D01*
X8878Y5720D01*
X8874Y5696D01*
X8878Y5672D01*
X8887Y5649D01*
X8902Y5630D01*
X8921Y5615D01*
X8944Y5606D01*
X8968Y5602D01*
X8992Y5606D01*
X9015Y5615D01*
X9034Y5630D01*
X9049Y5649D01*
X9058Y5672D01*
X9062Y5696D01*
X9058Y5720D01*
X9049Y5743D01*
X9034Y5762D01*
X9022Y5771D01*
X9029Y5789D01*
X9085D01*
X9129Y5745D01*
Y5603D01*
X9315D01*
Y5789D01*
X9173D01*
X9120Y5842D01*
X9110Y5849D01*
X9098Y5851D01*
X9018D01*
X9015Y5869D01*
X9015Y5869D01*
X9034Y5884D01*
X9049Y5903D01*
X9058Y5926D01*
X9062Y5950D01*
X9058Y5974D01*
X9049Y5997D01*
X9034Y6016D01*
X9015Y6031D01*
X8999Y6038D01*
Y6597D01*
X8997Y6609D01*
X8990Y6619D01*
X8707Y6902D01*
X8709Y6910D01*
X8705Y6931D01*
X8693Y6948D01*
X8676Y6960D01*
X8655Y6964D01*
X8634Y6960D01*
X8617Y6948D01*
X8605Y6931D01*
X8601Y6910D01*
X8605Y6889D01*
X8617Y6872D01*
X8634Y6860D01*
X8655Y6856D01*
X8663Y6858D01*
X8937Y6584D01*
Y6038D01*
X8921Y6031D01*
X8902Y6016D01*
X8887Y5997D01*
X8878Y5974D01*
X8874Y5950D01*
X8878Y5926D01*
X8887Y5903D01*
X8902Y5884D01*
X8921Y5869D01*
X8921Y5869D01*
X8918Y5851D01*
X8764D01*
X8761Y5869D01*
X8761Y5869D01*
X8780Y5884D01*
X8795Y5903D01*
X8804Y5926D01*
X8808Y5950D01*
X8804Y5974D01*
X8795Y5997D01*
X8780Y6016D01*
X8761Y6031D01*
X8745Y6038D01*
Y6551D01*
X8743Y6563D01*
X8736Y6573D01*
X8017Y7292D01*
X8019Y7300D01*
X8015Y7321D01*
X8003Y7338D01*
X7986Y7350D01*
X7965Y7354D01*
D02*
G37*
G36*
X8219Y6050D02*
Y5963D01*
X8306D01*
X8304Y5976D01*
X8294Y6001D01*
X8278Y6022D01*
X8257Y6038D01*
X8232Y6048D01*
X8219Y6050D01*
D02*
G37*
G36*
X8193D02*
X8180Y6048D01*
X8155Y6038D01*
X8134Y6022D01*
X8118Y6001D01*
X8108Y5976D01*
X8106Y5963D01*
X8193D01*
Y6050D01*
D02*
G37*
G36*
X8645Y7164D02*
X8624Y7160D01*
X8607Y7148D01*
X8595Y7131D01*
X8591Y7110D01*
X8595Y7089D01*
X8607Y7072D01*
X8624Y7060D01*
X8645Y7056D01*
X8653Y7058D01*
X9191Y6520D01*
Y6038D01*
X9175Y6031D01*
X9156Y6016D01*
X9141Y5997D01*
X9132Y5974D01*
X9128Y5950D01*
X9132Y5926D01*
X9141Y5903D01*
X9156Y5884D01*
X9175Y5869D01*
X9198Y5860D01*
X9222Y5856D01*
X9246Y5860D01*
X9269Y5869D01*
X9288Y5884D01*
X9303Y5903D01*
X9312Y5926D01*
X9316Y5950D01*
X9312Y5974D01*
X9303Y5997D01*
X9288Y6016D01*
X9269Y6031D01*
X9253Y6038D01*
Y6533D01*
X9251Y6545D01*
X9244Y6555D01*
X8697Y7102D01*
X8699Y7110D01*
X8695Y7131D01*
X8683Y7148D01*
X8666Y7160D01*
X8645Y7164D01*
D02*
G37*
G36*
X7952Y6044D02*
X7928Y6040D01*
X7905Y6031D01*
X7886Y6016D01*
X7871Y5997D01*
X7862Y5974D01*
X7858Y5950D01*
X7862Y5926D01*
X7871Y5903D01*
X7886Y5884D01*
X7905Y5869D01*
X7928Y5860D01*
X7952Y5856D01*
X7976Y5860D01*
X7999Y5869D01*
X8018Y5884D01*
X8033Y5903D01*
X8042Y5926D01*
X8046Y5950D01*
X8042Y5974D01*
X8033Y5997D01*
X8018Y6016D01*
X7999Y6031D01*
X7976Y6040D01*
X7952Y6044D01*
D02*
G37*
G36*
X8306Y5937D02*
X8219D01*
Y5850D01*
X8232Y5852D01*
X8257Y5862D01*
X8278Y5878D01*
X8294Y5899D01*
X8304Y5924D01*
X8306Y5937D01*
D02*
G37*
G36*
X8193D02*
X8106D01*
X8108Y5924D01*
X8118Y5899D01*
X8134Y5878D01*
X8155Y5862D01*
X8180Y5852D01*
X8193Y5850D01*
Y5937D01*
D02*
G37*
G36*
X8219Y5796D02*
Y5709D01*
X8306D01*
X8304Y5722D01*
X8294Y5747D01*
X8278Y5768D01*
X8257Y5784D01*
X8232Y5794D01*
X8219Y5796D01*
D02*
G37*
G36*
X8193D02*
X8180Y5794D01*
X8155Y5784D01*
X8134Y5768D01*
X8118Y5747D01*
X8108Y5722D01*
X8106Y5709D01*
X8193D01*
Y5796D01*
D02*
G37*
G36*
X8460Y5790D02*
X8436Y5786D01*
X8413Y5777D01*
X8394Y5762D01*
X8379Y5743D01*
X8370Y5720D01*
X8366Y5696D01*
X8370Y5672D01*
X8379Y5649D01*
X8394Y5630D01*
X8413Y5615D01*
X8436Y5606D01*
X8460Y5602D01*
X8484Y5606D01*
X8507Y5615D01*
X8526Y5630D01*
X8541Y5649D01*
X8550Y5672D01*
X8554Y5696D01*
X8550Y5720D01*
X8541Y5743D01*
X8526Y5762D01*
X8507Y5777D01*
X8484Y5786D01*
X8460Y5790D01*
D02*
G37*
G36*
X7952D02*
X7928Y5786D01*
X7905Y5777D01*
X7886Y5762D01*
X7871Y5743D01*
X7862Y5720D01*
X7858Y5696D01*
X7862Y5672D01*
X7871Y5649D01*
X7886Y5630D01*
X7905Y5615D01*
X7928Y5606D01*
X7952Y5602D01*
X7976Y5606D01*
X7999Y5615D01*
X8018Y5630D01*
X8033Y5649D01*
X8042Y5672D01*
X8046Y5696D01*
X8042Y5720D01*
X8033Y5743D01*
X8018Y5762D01*
X7999Y5777D01*
X7976Y5786D01*
X7952Y5790D01*
D02*
G37*
G36*
X8306Y5683D02*
X8219D01*
Y5596D01*
X8232Y5598D01*
X8257Y5608D01*
X8278Y5624D01*
X8294Y5645D01*
X8304Y5670D01*
X8306Y5683D01*
D02*
G37*
G36*
X8193D02*
X8106D01*
X8108Y5670D01*
X8118Y5645D01*
X8134Y5624D01*
X8155Y5608D01*
X8180Y5598D01*
X8193Y5596D01*
Y5683D01*
D02*
G37*
G36*
X9800Y5774D02*
X9766Y5770D01*
X9734Y5760D01*
X9704Y5744D01*
X9677Y5723D01*
X9656Y5696D01*
X9640Y5666D01*
X9630Y5634D01*
X9626Y5600D01*
X9630Y5566D01*
X9640Y5534D01*
X9656Y5504D01*
X9677Y5477D01*
X9704Y5456D01*
X9734Y5440D01*
X9766Y5430D01*
X9800Y5426D01*
X9834Y5430D01*
X9866Y5440D01*
X9896Y5456D01*
X9923Y5477D01*
X9944Y5504D01*
X9960Y5534D01*
X9970Y5566D01*
X9974Y5600D01*
X9970Y5634D01*
X9960Y5666D01*
X9944Y5696D01*
X9923Y5723D01*
X9896Y5744D01*
X9866Y5760D01*
X9834Y5770D01*
X9800Y5774D01*
D02*
G37*
%LPD*%
G36*
X8352Y8452D02*
X8369Y8440D01*
X8390Y8436D01*
X8411Y8440D01*
X8428Y8452D01*
X8433Y8459D01*
X8697D01*
X8702Y8452D01*
X8719Y8440D01*
X8740Y8436D01*
X8748Y8438D01*
X8924Y8262D01*
Y8219D01*
X8906Y8213D01*
X8903Y8218D01*
X8886Y8230D01*
X8865Y8234D01*
X8857Y8232D01*
X8707Y8382D01*
X8697Y8389D01*
X8685Y8391D01*
X8613D01*
X8608Y8398D01*
X8591Y8410D01*
X8570Y8414D01*
X8549Y8410D01*
X8532Y8398D01*
X8524Y8386D01*
X8294D01*
X8293Y8388D01*
X8276Y8400D01*
X8255Y8404D01*
X8234Y8400D01*
X8217Y8388D01*
X8209Y8376D01*
X7939D01*
X7938Y8378D01*
X7921Y8390D01*
X7900Y8394D01*
X7891Y8392D01*
X7882Y8408D01*
X7943Y8469D01*
X8007D01*
X8012Y8462D01*
X8029Y8450D01*
X8050Y8446D01*
X8071Y8450D01*
X8088Y8462D01*
X8093Y8469D01*
X8341D01*
X8352Y8452D01*
D02*
G37*
D12*
X8580Y5870D02*
Y6075D01*
Y5870D02*
X8630Y5820D01*
X9098D02*
X9222Y5696D01*
X8630Y5820D02*
X9098D01*
X8460Y6195D02*
Y6645D01*
Y6195D02*
X8580Y6075D01*
X7745Y7960D02*
Y8080D01*
Y7770D02*
Y7960D01*
X5320Y7780D02*
X5500Y7960D01*
X7745D01*
X8390Y8490D02*
X8740D01*
X8378D02*
X8390D01*
X8050Y8500D02*
X8368D01*
X7930D02*
X8050D01*
X7800Y7320D02*
X7840Y7360D01*
X7650D02*
X7690Y7320D01*
X7800D01*
X7840Y7360D02*
Y7620D01*
X7650Y7360D02*
Y7620D01*
X6940Y7790D02*
X7480D01*
X7650Y7620D01*
X7745Y8315D02*
X7930Y8500D01*
X8368D02*
X8378Y8490D01*
X8955Y7940D02*
Y8275D01*
X8740Y8490D02*
X8955Y8275D01*
X8870Y7800D02*
Y8175D01*
Y7574D02*
Y7800D01*
Y7574D02*
X8870Y7574D01*
Y7460D02*
Y7574D01*
X8865Y8180D02*
X8870Y8175D01*
X8950Y7630D02*
X8953Y7632D01*
Y7938D01*
X8955Y7940D01*
X8570Y8360D02*
X8685D01*
X8865Y8180D01*
X8255Y8350D02*
X8260Y8355D01*
X8565D01*
X8570Y8360D01*
X7900Y8340D02*
X7905Y8345D01*
X8250D01*
X8255Y8350D01*
X7745Y8080D02*
Y8315D01*
X7845Y7910D02*
Y8285D01*
X7900Y8340D01*
X7840Y7620D02*
X7843Y7622D01*
Y7907D01*
X7845Y7910D01*
X7747Y7472D02*
X7750Y7470D01*
X7747Y7472D02*
Y7768D01*
X7745Y7770D02*
X7747Y7768D01*
X8714Y5950D02*
Y6551D01*
X7965Y7300D02*
X8714Y6551D01*
X7965Y7140D02*
X8460Y6645D01*
X9222Y5950D02*
Y6533D01*
X8645Y7110D02*
X9222Y6533D01*
X8968Y5950D02*
Y6597D01*
X8655Y6910D02*
X8968Y6597D01*
X7640Y5300D02*
X10100D01*
X7640D02*
Y7100D01*
X4000D02*
X7640D01*
X4000D02*
Y9500D01*
X10100D01*
Y5300D02*
Y9500D01*
D15*
X4895Y7378D02*
D03*
X5745D02*
D03*
X6515Y7382D02*
D03*
X7365D02*
D03*
D37*
X9222Y5696D02*
D03*
D38*
Y5950D02*
D03*
X8968Y5696D02*
D03*
X8714D02*
D03*
X8460D02*
D03*
X8206D02*
D03*
X7952D02*
D03*
X8968Y5950D02*
D03*
X8714D02*
D03*
X8460D02*
D03*
X8206D02*
D03*
X7952D02*
D03*
X9652Y6731D02*
D03*
Y6985D02*
D03*
D39*
X9398Y6731D02*
D03*
Y6985D02*
D03*
D40*
X7138Y8750D02*
D03*
Y9004D02*
D03*
X7392Y8750D02*
D03*
Y9004D02*
D03*
X7646Y8750D02*
D03*
Y9004D02*
D03*
X7900Y8750D02*
D03*
Y9004D02*
D03*
X8154Y8750D02*
D03*
Y9004D02*
D03*
X8662Y8750D02*
D03*
X8916D02*
D03*
X8408D02*
D03*
X8662Y9004D02*
D03*
X8408D02*
D03*
D41*
X8916D02*
D03*
D42*
X4300Y7400D02*
D03*
X9800Y5600D02*
D03*
Y9200D02*
D03*
X4300D02*
D03*
D43*
X6510Y7762D02*
D03*
X5765Y7770D02*
D03*
X8850Y6178D02*
D03*
X5320Y7780D02*
D03*
X6940Y7790D02*
D03*
X8050Y8500D02*
D03*
X8740Y8490D02*
D03*
X8390D02*
D03*
X8870Y7460D02*
D03*
X8870Y7800D02*
D03*
X8955Y7940D02*
D03*
X8950Y7630D02*
D03*
X8865Y8180D02*
D03*
X8570Y8360D02*
D03*
X8255Y8350D02*
D03*
X7900Y8340D02*
D03*
X7750Y7470D02*
D03*
X7745Y8080D02*
D03*
X7845Y7910D02*
D03*
X7840Y7620D02*
D03*
X7745Y7770D02*
D03*
X8655Y6910D02*
D03*
X8645Y7110D02*
D03*
X7965Y7140D02*
D03*
X7965Y7300D02*
D03*
X8010Y6920D02*
D03*
X8310Y7393D02*
D03*
M02*
