<?xml version="1.0" encoding="UTF-8" standalone="no"?>
<!DOCTYPE svg PUBLIC "-//W3C//DTD SVG 1.1//EN"
 "http://www.w3.org/Graphics/SVG/1.1/DTD/svg11.dtd">
<!-- Generated by graphviz version 2.38.0 (20140413.2041)
 -->
<!-- Title: %3 Pages: 1 -->
<svg width="957pt" height="780pt"
 viewBox="0.00 0.00 956.74 780.00" xmlns="http://www.w3.org/2000/svg" xmlns:xlink="http://www.w3.org/1999/xlink">
<g id="graph0" class="graph" transform="scale(1 1) rotate(0) translate(4 776)">
<title>%3</title>
<polygon fill="white" stroke="none" points="-4,4 -4,-776 952.738,-776 952.738,4 -4,4"/>
<text text-anchor="middle" x="474.369" y="-12.2" font-family="Times,serif" font-size="26.00">Mapping FDA 501(k)</text>
<!-- K052331 -->
<g id="node1" class="node"><title>K052331</title>
<ellipse fill="none" stroke="black" cx="166.638" cy="-592" rx="43.5923" ry="18"/>
<text text-anchor="middle" x="166.638" y="-588.3" font-family="Times,serif" font-size="14.00">K052331</text>
</g>
<!-- K063761 -->
<g id="node2" class="node"><title>K063761</title>
<ellipse fill="none" stroke="black" cx="289.731" cy="-646" rx="43.5923" ry="18"/>
<text text-anchor="middle" x="289.731" y="-642.3" font-family="Times,serif" font-size="14.00">K063761</text>
</g>
<!-- K052331&#45;&gt;K063761 -->
<g id="edge1" class="edge"><title>K052331&#45;&gt;K063761</title>
<path fill="none" stroke="black" d="M210.385,-592C245.768,-592 289.738,-592 289.738,-592 289.738,-592 289.738,-617.718 289.738,-617.718"/>
<polygon fill="black" stroke="black" points="286.238,-617.718 289.738,-627.718 293.238,-617.718 286.238,-617.718"/>
</g>
<!-- K090505 -->
<g id="node7" class="node"><title>K090505</title>
<ellipse fill="none" stroke="black" cx="412.823" cy="-505" rx="43.5923" ry="18"/>
<text text-anchor="middle" x="412.823" y="-501.3" font-family="Times,serif" font-size="14.00">K090505</text>
</g>
<!-- K063761&#45;&gt;K090505 -->
<g id="edge6" class="edge"><title>K063761&#45;&gt;K090505</title>
<path fill="none" stroke="black" d="M333.451,-646C369.154,-646 413.738,-646 413.738,-646 413.738,-646 413.738,-533.145 413.738,-533.145"/>
<polygon fill="black" stroke="black" points="417.238,-533.145 413.738,-523.145 410.238,-533.145 417.238,-533.145"/>
</g>
<!-- K052410 -->
<g id="node3" class="node"><title>K052410</title>
<ellipse fill="none" stroke="black" cx="166.638" cy="-754" rx="43.5923" ry="18"/>
<text text-anchor="middle" x="166.638" y="-750.3" font-family="Times,serif" font-size="14.00">K052410</text>
</g>
<!-- K052410&#45;&gt;K063761 -->
<g id="edge2" class="edge"><title>K052410&#45;&gt;K063761</title>
<path fill="none" stroke="black" d="M210.334,-754C250.793,-754 304.738,-754 304.738,-754 304.738,-754 304.738,-673.352 304.738,-673.352"/>
<polygon fill="black" stroke="black" points="308.238,-673.352 304.738,-663.352 301.238,-673.352 308.238,-673.352"/>
</g>
<!-- K020353 -->
<g id="node4" class="node"><title>K020353</title>
<ellipse fill="none" stroke="black" cx="166.638" cy="-700" rx="43.5923" ry="18"/>
<text text-anchor="middle" x="166.638" y="-696.3" font-family="Times,serif" font-size="14.00">K020353</text>
</g>
<!-- K020353&#45;&gt;K063761 -->
<g id="edge3" class="edge"><title>K020353&#45;&gt;K063761</title>
<path fill="none" stroke="black" d="M210.385,-700C240.737,-700 275.738,-700 275.738,-700 275.738,-700 275.738,-673.086 275.738,-673.086"/>
<polygon fill="black" stroke="black" points="279.238,-673.086 275.738,-663.086 272.238,-673.086 279.238,-673.086"/>
</g>
<!-- K994096 -->
<g id="node5" class="node"><title>K994096</title>
<ellipse fill="none" stroke="black" cx="166.638" cy="-646" rx="43.5923" ry="18"/>
<text text-anchor="middle" x="166.638" y="-642.3" font-family="Times,serif" font-size="14.00">K994096</text>
</g>
<!-- K994096&#45;&gt;K063761 -->
<g id="edge4" class="edge"><title>K994096&#45;&gt;K063761</title>
<path fill="none" stroke="black" d="M210.383,-646C210.383,-646 236.127,-646 236.127,-646"/>
<polygon fill="black" stroke="black" points="236.127,-649.5 246.127,-646 236.127,-642.5 236.127,-649.5"/>
</g>
<!-- K020112 -->
<g id="node6" class="node"><title>K020112</title>
<ellipse fill="none" stroke="black" cx="289.731" cy="-525" rx="43.5923" ry="18"/>
<text text-anchor="middle" x="289.731" y="-521.3" font-family="Times,serif" font-size="14.00">K020112</text>
</g>
<!-- K020112&#45;&gt;K090505 -->
<g id="edge5" class="edge"><title>K020112&#45;&gt;K090505</title>
<path fill="none" stroke="black" d="M325.997,-515C325.997,-515 366.391,-515 366.391,-515"/>
<polygon fill="black" stroke="black" points="366.391,-518.5 376.391,-515 366.391,-511.5 366.391,-518.5"/>
</g>
<!-- K102153 -->
<g id="node16" class="node"><title>K102153</title>
<ellipse fill="none" stroke="black" cx="535.915" cy="-457" rx="43.5923" ry="18"/>
<text text-anchor="middle" x="535.915" y="-453.3" font-family="Times,serif" font-size="14.00">K102153</text>
</g>
<!-- K090505&#45;&gt;K102153 -->
<g id="edge15" class="edge"><title>K090505&#45;&gt;K102153</title>
<path fill="none" stroke="black" d="M391.738,-488.796C391.738,-477.336 391.738,-464 391.738,-464 391.738,-464 485.754,-464 485.754,-464"/>
<polygon fill="black" stroke="black" points="485.754,-467.5 495.754,-464 485.754,-460.5 485.754,-467.5"/>
</g>
<!-- K021628 -->
<g id="node8" class="node"><title>K021628</title>
<ellipse fill="none" stroke="black" cx="289.731" cy="-471" rx="43.5923" ry="18"/>
<text text-anchor="middle" x="289.731" y="-467.3" font-family="Times,serif" font-size="14.00">K021628</text>
</g>
<!-- K021628&#45;&gt;K090505 -->
<g id="edge7" class="edge"><title>K021628&#45;&gt;K090505</title>
<path fill="none" stroke="black" d="M325.948,-481C368.898,-481 434.738,-481 434.738,-481 434.738,-481 434.738,-481.839 434.738,-481.839"/>
<polygon fill="black" stroke="black" points="431.238,-479.394 434.738,-489.394 438.238,-479.394 431.238,-479.394"/>
</g>
<!-- K152758 -->
<g id="node9" class="node"><title>K152758</title>
<ellipse fill="none" stroke="black" cx="412.823" cy="-55" rx="43.5923" ry="18"/>
<text text-anchor="middle" x="412.823" y="-51.3" font-family="Times,serif" font-size="14.00">K152758</text>
</g>
<!-- K161588 -->
<g id="node10" class="node"><title>K161588</title>
<ellipse fill="none" stroke="black" cx="535.915" cy="-68" rx="43.5923" ry="18"/>
<text text-anchor="middle" x="535.915" y="-64.3" font-family="Times,serif" font-size="14.00">K161588</text>
</g>
<!-- K152758&#45;&gt;K161588 -->
<g id="edge8" class="edge"><title>K152758&#45;&gt;K161588</title>
<path fill="none" stroke="black" d="M453.469,-61.5C453.469,-61.5 484.891,-61.5 484.891,-61.5"/>
<polygon fill="black" stroke="black" points="484.891,-65.0001 494.891,-61.5 484.891,-58.0001 484.891,-65.0001"/>
</g>
<!-- K112122 -->
<g id="node11" class="node"><title>K112122</title>
<ellipse fill="none" stroke="black" cx="412.823" cy="-109" rx="43.5923" ry="18"/>
<text text-anchor="middle" x="412.823" y="-105.3" font-family="Times,serif" font-size="14.00">K112122</text>
</g>
<!-- K112122&#45;&gt;K161588 -->
<g id="edge9" class="edge"><title>K112122&#45;&gt;K161588</title>
<path fill="none" stroke="black" d="M413.738,-90.8211C413.738,-84.7504 413.738,-79.5 413.738,-79.5 413.738,-79.5 492.206,-79.5 492.206,-79.5"/>
<polygon fill="black" stroke="black" points="492.206,-83.0001 502.206,-79.5 492.206,-76.0001 492.206,-83.0001"/>
</g>
<!-- K140693 -->
<g id="node13" class="node"><title>K140693</title>
<ellipse fill="none" stroke="black" cx="535.915" cy="-149" rx="43.5923" ry="18"/>
<text text-anchor="middle" x="535.915" y="-145.3" font-family="Times,serif" font-size="14.00">K140693</text>
</g>
<!-- K112122&#45;&gt;K140693 -->
<g id="edge12" class="edge"><title>K112122&#45;&gt;K140693</title>
<path fill="none" stroke="black" d="M413.738,-127.201C413.738,-133.028 413.738,-138 413.738,-138 413.738,-138 491.231,-138 491.231,-138"/>
<polygon fill="black" stroke="black" points="491.231,-141.5 501.231,-138 491.231,-134.5 491.231,-141.5"/>
</g>
<!-- K092756 -->
<g id="node12" class="node"><title>K092756</title>
<ellipse fill="none" stroke="black" cx="412.823" cy="-257" rx="43.5923" ry="18"/>
<text text-anchor="middle" x="412.823" y="-253.3" font-family="Times,serif" font-size="14.00">K092756</text>
</g>
<!-- K092756&#45;&gt;K140693 -->
<g id="edge10" class="edge"><title>K092756&#45;&gt;K140693</title>
<path fill="none" stroke="black" d="M453.896,-251C468.199,-251 480.738,-251 480.738,-251 480.738,-251 480.738,-159.667 480.738,-159.667 480.738,-159.667 490.658,-159.667 490.658,-159.667"/>
<polygon fill="black" stroke="black" points="490.658,-163.167 500.658,-159.667 490.658,-156.167 490.658,-163.167"/>
</g>
<!-- K092756&#45;&gt;K102153 -->
<g id="edge14" class="edge"><title>K092756&#45;&gt;K102153</title>
<path fill="none" stroke="black" d="M454.047,-263C462.428,-263 468.738,-263 468.738,-263 468.738,-263 468.738,-442 468.738,-442 468.738,-442 501.663,-442 501.663,-442"/>
<polygon fill="black" stroke="black" points="501.663,-445.5 511.663,-442 501.663,-438.5 501.663,-445.5"/>
</g>
<!-- K113690 -->
<g id="node14" class="node"><title>K113690</title>
<ellipse fill="none" stroke="black" cx="412.823" cy="-163" rx="43.5923" ry="18"/>
<text text-anchor="middle" x="412.823" y="-159.3" font-family="Times,serif" font-size="14.00">K113690</text>
</g>
<!-- K113690&#45;&gt;K140693 -->
<g id="edge11" class="edge"><title>K113690&#45;&gt;K140693</title>
<path fill="none" stroke="black" d="M448.096,-152.333C448.096,-152.333 482.764,-152.333 482.764,-152.333"/>
<polygon fill="black" stroke="black" points="482.764,-155.833 492.764,-152.333 482.764,-148.833 482.764,-155.833"/>
</g>
<!-- K070907 -->
<g id="node15" class="node"><title>K070907</title>
<ellipse fill="none" stroke="black" cx="412.823" cy="-411" rx="43.5923" ry="18"/>
<text text-anchor="middle" x="412.823" y="-407.3" font-family="Times,serif" font-size="14.00">K070907</text>
</g>
<!-- K070907&#45;&gt;K102153 -->
<g id="edge13" class="edge"><title>K070907&#45;&gt;K102153</title>
<path fill="none" stroke="black" d="M413.738,-429.194C413.738,-437.278 413.738,-445 413.738,-445 413.738,-445 493.174,-445 493.174,-445"/>
<polygon fill="black" stroke="black" points="493.174,-448.5 503.174,-445 493.174,-441.5 493.174,-448.5"/>
</g>
<!-- K133833 -->
<g id="node25" class="node"><title>K133833</title>
<ellipse fill="none" stroke="black" cx="659.007" cy="-381" rx="43.5923" ry="18"/>
<text text-anchor="middle" x="659.007" y="-377.3" font-family="Times,serif" font-size="14.00">K133833</text>
</g>
<!-- K070907&#45;&gt;K133833 -->
<g id="edge27" class="edge"><title>K070907&#45;&gt;K133833</title>
<path fill="none" stroke="black" d="M413.738,-392.814C413.738,-389.117 413.738,-386.333 413.738,-386.333 413.738,-386.333 607.401,-386.333 607.401,-386.333"/>
<polygon fill="black" stroke="black" points="607.401,-389.833 617.401,-386.333 607.401,-382.833 607.401,-389.833"/>
</g>
<!-- K151339 -->
<g id="node21" class="node"><title>K151339</title>
<ellipse fill="none" stroke="black" cx="659.007" cy="-457" rx="43.5923" ry="18"/>
<text text-anchor="middle" x="659.007" y="-453.3" font-family="Times,serif" font-size="14.00">K151339</text>
</g>
<!-- K102153&#45;&gt;K151339 -->
<g id="edge39" class="edge"><title>K102153&#45;&gt;K151339</title>
<path fill="none" stroke="black" d="M579.66,-457C579.66,-457 605.404,-457 605.404,-457"/>
<polygon fill="black" stroke="black" points="605.404,-460.5 615.404,-457 605.404,-453.5 605.404,-460.5"/>
</g>
<!-- K102153&#45;&gt;K133833 -->
<g id="edge28" class="edge"><title>K102153&#45;&gt;K133833</title>
<path fill="none" stroke="black" d="M536.738,-438.956C536.738,-419.011 536.738,-389.667 536.738,-389.667 536.738,-389.667 610.656,-389.667 610.656,-389.667"/>
<polygon fill="black" stroke="black" points="610.656,-393.167 620.656,-389.667 610.656,-386.167 610.656,-393.167"/>
</g>
<!-- K030191 -->
<g id="node17" class="node"><title>K030191</title>
<ellipse fill="none" stroke="black" cx="289.731" cy="-390" rx="43.5923" ry="18"/>
<text text-anchor="middle" x="289.731" y="-386.3" font-family="Times,serif" font-size="14.00">K030191</text>
</g>
<!-- K030191&#45;&gt;K070907 -->
<g id="edge16" class="edge"><title>K030191&#45;&gt;K070907</title>
<path fill="none" stroke="black" d="M325.334,-400.5C325.334,-400.5 367.3,-400.5 367.3,-400.5"/>
<polygon fill="black" stroke="black" points="367.3,-404 377.3,-400.5 367.3,-397 367.3,-404"/>
</g>
<!-- K012191 -->
<g id="node18" class="node"><title>K012191</title>
<ellipse fill="none" stroke="black" cx="166.638" cy="-430" rx="43.5923" ry="18"/>
<text text-anchor="middle" x="166.638" y="-426.3" font-family="Times,serif" font-size="14.00">K012191</text>
</g>
<!-- K012191&#45;&gt;K030191 -->
<g id="edge17" class="edge"><title>K012191&#45;&gt;K030191</title>
<path fill="none" stroke="black" d="M166.738,-411.799C166.738,-405.972 166.738,-401 166.738,-401 166.738,-401 245.143,-401 245.143,-401"/>
<polygon fill="black" stroke="black" points="245.143,-404.5 255.143,-401 245.143,-397.5 245.143,-404.5"/>
</g>
<!-- K994373 -->
<g id="node19" class="node"><title>K994373</title>
<ellipse fill="none" stroke="black" cx="166.638" cy="-376" rx="43.5923" ry="18"/>
<text text-anchor="middle" x="166.638" y="-372.3" font-family="Times,serif" font-size="14.00">K994373</text>
</g>
<!-- K994373&#45;&gt;K030191 -->
<g id="edge18" class="edge"><title>K994373&#45;&gt;K030191</title>
<path fill="none" stroke="black" d="M206.943,-383C206.943,-383 239.335,-383 239.335,-383"/>
<polygon fill="black" stroke="black" points="239.335,-386.5 249.335,-383 239.335,-379.5 239.335,-386.5"/>
</g>
<!-- K993624 -->
<g id="node20" class="node"><title>K993624</title>
<ellipse fill="none" stroke="black" cx="166.638" cy="-322" rx="43.5923" ry="18"/>
<text text-anchor="middle" x="166.638" y="-318.3" font-family="Times,serif" font-size="14.00">K993624</text>
</g>
<!-- K993624&#45;&gt;K030191 -->
<g id="edge19" class="edge"><title>K993624&#45;&gt;K030191</title>
<path fill="none" stroke="black" d="M198.02,-334.5C234.492,-334.5 289.738,-334.5 289.738,-334.5 289.738,-334.5 289.738,-361.827 289.738,-361.827"/>
<polygon fill="black" stroke="black" points="286.238,-361.827 289.738,-371.827 293.238,-361.827 286.238,-361.827"/>
</g>
<!-- K163138 -->
<g id="node22" class="node"><title>K163138</title>
<ellipse fill="none" stroke="black" cx="905.192" cy="-362" rx="43.5923" ry="18"/>
<text text-anchor="middle" x="905.192" y="-358.3" font-family="Times,serif" font-size="14.00">K163138</text>
</g>
<!-- K151339&#45;&gt;K163138 -->
<g id="edge20" class="edge"><title>K151339&#45;&gt;K163138</title>
<path fill="none" stroke="black" d="M702.834,-457C773.734,-457 905.738,-457 905.738,-457 905.738,-457 905.738,-390.317 905.738,-390.317"/>
<polygon fill="black" stroke="black" points="909.238,-390.317 905.738,-380.317 902.238,-390.317 909.238,-390.317"/>
</g>
<!-- K152899 -->
<g id="node23" class="node"><title>K152899</title>
<ellipse fill="none" stroke="black" cx="782.1" cy="-362" rx="43.5923" ry="18"/>
<text text-anchor="middle" x="782.1" y="-358.3" font-family="Times,serif" font-size="14.00">K152899</text>
</g>
<!-- K152899&#45;&gt;K163138 -->
<g id="edge21" class="edge"><title>K152899&#45;&gt;K163138</title>
<path fill="none" stroke="black" d="M825.844,-362C825.844,-362 851.589,-362 851.589,-362"/>
<polygon fill="black" stroke="black" points="851.589,-365.5 861.589,-362 851.589,-358.5 851.589,-365.5"/>
</g>
<!-- K153626 -->
<g id="node24" class="node"><title>K153626</title>
<ellipse fill="none" stroke="black" cx="782.1" cy="-289" rx="43.5923" ry="18"/>
<text text-anchor="middle" x="782.1" y="-285.3" font-family="Times,serif" font-size="14.00">K153626</text>
</g>
<!-- K153626&#45;&gt;K163138 -->
<g id="edge22" class="edge"><title>K153626&#45;&gt;K163138</title>
<path fill="none" stroke="black" d="M825.69,-289C861.286,-289 905.738,-289 905.738,-289 905.738,-289 905.738,-333.955 905.738,-333.955"/>
<polygon fill="black" stroke="black" points="902.238,-333.955 905.738,-343.955 909.238,-333.955 902.238,-333.955"/>
</g>
<!-- K133833&#45;&gt;K152899 -->
<g id="edge23" class="edge"><title>K133833&#45;&gt;K152899</title>
<path fill="none" stroke="black" d="M696.273,-371.5C696.273,-371.5 734.961,-371.5 734.961,-371.5"/>
<polygon fill="black" stroke="black" points="734.961,-375 744.961,-371.5 734.961,-368 734.961,-375"/>
</g>
<!-- K120321 -->
<g id="node26" class="node"><title>K120321</title>
<ellipse fill="none" stroke="black" cx="535.915" cy="-311" rx="43.5923" ry="18"/>
<text text-anchor="middle" x="535.915" y="-307.3" font-family="Times,serif" font-size="14.00">K120321</text>
</g>
<!-- K120321&#45;&gt;K152899 -->
<g id="edge24" class="edge"><title>K120321&#45;&gt;K152899</title>
<path fill="none" stroke="black" d="M578.909,-314.333C649.625,-314.333 782.738,-314.333 782.738,-314.333 782.738,-314.333 782.738,-333.979 782.738,-333.979"/>
<polygon fill="black" stroke="black" points="779.238,-333.979 782.738,-343.979 786.238,-333.979 779.238,-333.979"/>
</g>
<!-- K120321&#45;&gt;K133833 -->
<g id="edge25" class="edge"><title>K120321&#45;&gt;K133833</title>
<path fill="none" stroke="black" d="M571.067,-321.667C607.674,-321.667 659.738,-321.667 659.738,-321.667 659.738,-321.667 659.738,-352.876 659.738,-352.876"/>
<polygon fill="black" stroke="black" points="656.238,-352.876 659.738,-362.876 663.238,-352.876 656.238,-352.876"/>
</g>
<!-- K132304 -->
<g id="node27" class="node"><title>K132304</title>
<ellipse fill="none" stroke="black" cx="535.915" cy="-365" rx="43.5923" ry="18"/>
<text text-anchor="middle" x="535.915" y="-361.3" font-family="Times,serif" font-size="14.00">K132304</text>
</g>
<!-- K132304&#45;&gt;K133833 -->
<g id="edge26" class="edge"><title>K132304&#45;&gt;K133833</title>
<path fill="none" stroke="black" d="M575.201,-373C575.201,-373 609.673,-373 609.673,-373"/>
<polygon fill="black" stroke="black" points="609.673,-376.5 619.673,-373 609.673,-369.5 609.673,-376.5"/>
</g>
<!-- K043535 -->
<g id="node28" class="node"><title>K043535</title>
<ellipse fill="none" stroke="black" cx="412.823" cy="-311" rx="43.5923" ry="18"/>
<text text-anchor="middle" x="412.823" y="-307.3" font-family="Times,serif" font-size="14.00">K043535</text>
</g>
<!-- K043535&#45;&gt;K120321 -->
<g id="edge29" class="edge"><title>K043535&#45;&gt;K120321</title>
<path fill="none" stroke="black" d="M456.567,-311C456.567,-311 482.312,-311 482.312,-311"/>
<polygon fill="black" stroke="black" points="482.312,-314.5 492.312,-311 482.312,-307.5 482.312,-314.5"/>
</g>
<!-- K102256 -->
<g id="node29" class="node"><title>K102256</title>
<ellipse fill="none" stroke="black" cx="289.731" cy="-190" rx="43.5923" ry="18"/>
<text text-anchor="middle" x="289.731" y="-186.3" font-family="Times,serif" font-size="14.00">K102256</text>
</g>
<!-- K102256&#45;&gt;K113690 -->
<g id="edge30" class="edge"><title>K102256&#45;&gt;K113690</title>
<path fill="none" stroke="black" d="M318.59,-176.5C318.59,-176.5 373.718,-176.5 373.718,-176.5"/>
<polygon fill="black" stroke="black" points="373.718,-180 383.718,-176.5 373.718,-173 373.718,-180"/>
</g>
<!-- K110943 -->
<g id="node30" class="node"><title>K110943</title>
<ellipse fill="none" stroke="black" cx="289.731" cy="-136" rx="43.5923" ry="18"/>
<text text-anchor="middle" x="289.731" y="-132.3" font-family="Times,serif" font-size="14.00">K110943</text>
</g>
<!-- K110943&#45;&gt;K113690 -->
<g id="edge31" class="edge"><title>K110943&#45;&gt;K113690</title>
<path fill="none" stroke="black" d="M318.59,-149.5C318.59,-149.5 373.718,-149.5 373.718,-149.5"/>
<polygon fill="black" stroke="black" points="373.718,-153 383.718,-149.5 373.718,-146 373.718,-153"/>
</g>
<!-- K002357 -->
<g id="node31" class="node"><title>K002357</title>
<ellipse fill="none" stroke="black" cx="166.638" cy="-484" rx="43.5923" ry="18"/>
<text text-anchor="middle" x="166.638" y="-480.3" font-family="Times,serif" font-size="14.00">K002357</text>
</g>
<!-- K002357&#45;&gt;K020112 -->
<g id="edge32" class="edge"><title>K002357&#45;&gt;K020112</title>
<path fill="none" stroke="black" d="M200.276,-495.5C236.724,-495.5 289.738,-495.5 289.738,-495.5 289.738,-495.5 289.738,-496.821 289.738,-496.821"/>
<polygon fill="black" stroke="black" points="286.238,-496.821 289.738,-506.821 293.238,-496.821 286.238,-496.821"/>
</g>
<!-- K981293 -->
<g id="node32" class="node"><title>K981293</title>
<ellipse fill="none" stroke="black" cx="166.638" cy="-538" rx="43.5923" ry="18"/>
<text text-anchor="middle" x="166.638" y="-534.3" font-family="Times,serif" font-size="14.00">K981293</text>
</g>
<!-- K981293&#45;&gt;K020112 -->
<g id="edge33" class="edge"><title>K981293&#45;&gt;K020112</title>
<path fill="none" stroke="black" d="M207.285,-531.5C207.285,-531.5 238.707,-531.5 238.707,-531.5"/>
<polygon fill="black" stroke="black" points="238.707,-535 248.707,-531.5 238.707,-528 238.707,-535"/>
</g>
<!-- K944287 -->
<g id="node33" class="node"><title>K944287</title>
<ellipse fill="none" stroke="black" cx="43.5461" cy="-538" rx="43.5923" ry="18"/>
<text text-anchor="middle" x="43.5461" y="-534.3" font-family="Times,serif" font-size="14.00">K944287</text>
</g>
<!-- K944287&#45;&gt;K981293 -->
<g id="edge34" class="edge"><title>K944287&#45;&gt;K981293</title>
<path fill="none" stroke="black" d="M87.2905,-538C87.2905,-538 113.035,-538 113.035,-538"/>
<polygon fill="black" stroke="black" points="113.035,-541.5 123.035,-538 113.035,-534.5 113.035,-541.5"/>
</g>
<!-- K133454 -->
<g id="node34" class="node"><title>K133454</title>
<ellipse fill="none" stroke="black" cx="659.007" cy="-235" rx="43.5923" ry="18"/>
<text text-anchor="middle" x="659.007" y="-231.3" font-family="Times,serif" font-size="14.00">K133454</text>
</g>
<!-- K133454&#45;&gt;K153626 -->
<g id="edge35" class="edge"><title>K133454&#45;&gt;K153626</title>
<path fill="none" stroke="black" d="M702.63,-235C738.253,-235 782.738,-235 782.738,-235 782.738,-235 782.738,-260.718 782.738,-260.718"/>
<polygon fill="black" stroke="black" points="779.238,-260.718 782.738,-270.718 786.238,-260.718 779.238,-260.718"/>
</g>
<!-- K152209 -->
<g id="node35" class="node"><title>K152209</title>
<ellipse fill="none" stroke="black" cx="659.007" cy="-289" rx="43.5923" ry="18"/>
<text text-anchor="middle" x="659.007" y="-285.3" font-family="Times,serif" font-size="14.00">K152209</text>
</g>
<!-- K152209&#45;&gt;K153626 -->
<g id="edge36" class="edge"><title>K152209&#45;&gt;K153626</title>
<path fill="none" stroke="black" d="M702.752,-289C702.752,-289 728.496,-289 728.496,-289"/>
<polygon fill="black" stroke="black" points="728.496,-292.5 738.496,-289 728.496,-285.5 728.496,-292.5"/>
</g>
<!-- K113156 -->
<g id="node36" class="node"><title>K113156</title>
<ellipse fill="none" stroke="black" cx="535.915" cy="-203" rx="43.5923" ry="18"/>
<text text-anchor="middle" x="535.915" y="-199.3" font-family="Times,serif" font-size="14.00">K113156</text>
</g>
<!-- K113156&#45;&gt;K133454 -->
<g id="edge37" class="edge"><title>K113156&#45;&gt;K133454</title>
<path fill="none" stroke="black" d="M536.738,-221.159C536.738,-226.043 536.738,-230 536.738,-230 536.738,-230 606.929,-230 606.929,-230"/>
<polygon fill="black" stroke="black" points="606.929,-233.5 616.929,-230 606.929,-226.5 606.929,-233.5"/>
</g>
<!-- K130173 -->
<g id="node37" class="node"><title>K130173</title>
<ellipse fill="none" stroke="black" cx="535.915" cy="-257" rx="43.5923" ry="18"/>
<text text-anchor="middle" x="535.915" y="-253.3" font-family="Times,serif" font-size="14.00">K130173</text>
</g>
<!-- K130173&#45;&gt;K133454 -->
<g id="edge38" class="edge"><title>K130173&#45;&gt;K133454</title>
<path fill="none" stroke="black" d="M570.531,-246C570.531,-246 614.225,-246 614.225,-246"/>
<polygon fill="black" stroke="black" points="614.225,-249.5 624.225,-246 614.225,-242.5 614.225,-249.5"/>
</g>
<!-- K100598 -->
<g id="node38" class="node"><title>K100598</title>
<ellipse fill="none" stroke="black" cx="535.915" cy="-511" rx="43.5923" ry="18"/>
<text text-anchor="middle" x="535.915" y="-507.3" font-family="Times,serif" font-size="14.00">K100598</text>
</g>
<!-- K100598&#45;&gt;K151339 -->
<g id="edge40" class="edge"><title>K100598&#45;&gt;K151339</title>
<path fill="none" stroke="black" d="M579.571,-511C615.22,-511 659.738,-511 659.738,-511 659.738,-511 659.738,-485.282 659.738,-485.282"/>
<polygon fill="black" stroke="black" points="663.238,-485.282 659.738,-475.282 656.238,-485.282 663.238,-485.282"/>
</g>
</g>
</svg>
