<?xml version="1.0" encoding="UTF-8" standalone="no"?>
<!DOCTYPE svg PUBLIC "-//W3C//DTD SVG 1.1//EN"
 "http://www.w3.org/Graphics/SVG/1.1/DTD/svg11.dtd">
<!-- Generated by graphviz version 2.38.0 (20140413.2041)
 -->
<!-- Title: %3 Pages: 1 -->
<svg width="1014pt" height="783pt"
 viewBox="0.00 0.00 1014.18 783.00" xmlns="http://www.w3.org/2000/svg" xmlns:xlink="http://www.w3.org/1999/xlink">
<g id="graph0" class="graph" transform="scale(1 1) rotate(0) translate(4 779)">
<title>%3</title>
<polygon fill="white" stroke="none" points="-4,4 -4,-779 1010.18,-779 1010.18,4 -4,4"/>
<text text-anchor="middle" x="503.092" y="-12.2" font-family="Times,serif" font-size="26.00">Mapping FDA 510(k)</text>
<!-- K052331&#45;&gt;K063761 -->
<g id="edge1" class="edge"><title>K052331&#45;&gt;K063761</title>
<path fill="none" stroke="black" d="M210.359,-595C222.382,-595 232.185,-595 232.185,-595 232.185,-595 232.185,-541 232.185,-541 232.185,-541 236.055,-541 236.055,-541"/>
<polygon fill="black" stroke="black" points="236.055,-544.5 246.055,-541 236.055,-537.5 236.055,-544.5"/>
</g>
<!-- K063761&#45;&gt;K090505 -->
<g id="edge6" class="edge"><title>K063761&#45;&gt;K090505</title>
<path fill="none" stroke="black" d="M343.4,-554.5C343.4,-554.5 369.093,-554.5 369.093,-554.5"/>
<polygon fill="black" stroke="black" points="369.093,-558 379.093,-554.5 369.093,-551 369.093,-558"/>
</g>
<!-- K063761&#45;&gt;K092756 -->
<g id="edge45" class="edge"><title>K063761&#45;&gt;K092756</title>
<path fill="none" stroke="black" d="M343.232,-534.5C350.265,-534.5 355.185,-534.5 355.185,-534.5 355.185,-534.5 355.185,-374.333 355.185,-374.333 355.185,-374.333 383.377,-374.333 383.377,-374.333"/>
<polygon fill="black" stroke="black" points="383.377,-377.833 393.377,-374.333 383.377,-370.833 383.377,-377.833"/>
</g>
<!-- K052410&#45;&gt;K063761 -->
<g id="edge2" class="edge"><title>K052410&#45;&gt;K063761</title>
<path fill="none" stroke="black" d="M204.364,-532C204.364,-532 235.819,-532 235.819,-532"/>
<polygon fill="black" stroke="black" points="235.819,-535.5 245.819,-532 235.819,-528.5 235.819,-535.5"/>
</g>
<!-- K020353&#45;&gt;K063761 -->
<g id="edge3" class="edge"><title>K020353&#45;&gt;K063761</title>
<path fill="none" stroke="black" d="M209.8,-484.5C247.144,-484.5 295.185,-484.5 295.185,-484.5 295.185,-484.5 295.185,-512.812 295.185,-512.812"/>
<polygon fill="black" stroke="black" points="291.685,-512.812 295.185,-522.812 298.685,-512.812 291.685,-512.812"/>
</g>
<!-- K994096&#45;&gt;K063761 -->
<g id="edge4" class="edge"><title>K994096&#45;&gt;K063761</title>
<path fill="none" stroke="black" d="M210.512,-649C225.79,-649 239.185,-649 239.185,-649 239.185,-649 239.185,-550 239.185,-550 239.185,-550 239.865,-550 239.865,-550"/>
<polygon fill="black" stroke="black" points="235.99,-553.5 245.99,-550 235.99,-546.5 235.99,-553.5"/>
</g>
<!-- K020112&#45;&gt;K090505 -->
<g id="edge5" class="edge"><title>K020112&#45;&gt;K090505</title>
<path fill="none" stroke="black" d="M338.249,-703C378.197,-703 431.185,-703 431.185,-703 431.185,-703 431.185,-596.207 431.185,-596.207"/>
<polygon fill="black" stroke="black" points="434.685,-596.207 431.185,-586.207 427.685,-596.207 434.685,-596.207"/>
</g>
<!-- K090505&#45;&gt;K102153 -->
<g id="edge15" class="edge"><title>K090505&#45;&gt;K102153</title>
<path fill="none" stroke="black" d="M482.335,-557C524.513,-557 577.185,-557 577.185,-557 577.185,-557 577.185,-555.92 577.185,-555.92"/>
<polygon fill="black" stroke="black" points="580.685,-556.201 577.185,-546.201 573.685,-556.202 580.685,-556.201"/>
</g>
<!-- K021628&#45;&gt;K090505 -->
<g id="edge7" class="edge"><title>K021628&#45;&gt;K090505</title>
<path fill="none" stroke="black" d="M323.527,-581.5C323.527,-581.5 369.093,-581.5 369.093,-581.5"/>
<polygon fill="black" stroke="black" points="369.093,-585 379.093,-581.5 369.093,-578 369.093,-585"/>
</g>
<!-- K152758&#45;&gt;K161588 -->
<g id="edge8" class="edge"><title>K152758&#45;&gt;K161588</title>
<path fill="none" stroke="black" d="M459.628,-68.5C459.628,-68.5 538.301,-68.5 538.301,-68.5"/>
<polygon fill="black" stroke="black" points="538.301,-72.0001 548.301,-68.5 538.301,-65.0001 538.301,-72.0001"/>
</g>
<!-- K112122&#45;&gt;K161588 -->
<g id="edge9" class="edge"><title>K112122&#45;&gt;K161588</title>
<path fill="none" stroke="black" d="M459.628,-95.5C459.628,-95.5 538.301,-95.5 538.301,-95.5"/>
<polygon fill="black" stroke="black" points="538.301,-99.0001 548.301,-95.5 538.301,-92.0001 538.301,-99.0001"/>
</g>
<!-- K112122&#45;&gt;K140693 -->
<g id="edge12" class="edge"><title>K112122&#45;&gt;K140693</title>
<path fill="none" stroke="black" d="M472.85,-113.5C498.433,-113.5 526.185,-113.5 526.185,-113.5 526.185,-113.5 526.185,-134.849 526.185,-134.849"/>
<polygon fill="black" stroke="black" points="522.685,-134.849 526.185,-144.849 529.685,-134.849 522.685,-134.849"/>
</g>
<!-- K092756&#45;&gt;K140693 -->
<g id="edge10" class="edge"><title>K092756&#45;&gt;K140693</title>
<path fill="none" stroke="black" d="M467.907,-355C493.981,-355 524.185,-355 524.185,-355 524.185,-355 524.185,-191.063 524.185,-191.063"/>
<polygon fill="black" stroke="black" points="527.685,-191.063 524.185,-181.063 520.685,-191.063 527.685,-191.063"/>
</g>
<!-- K092756&#45;&gt;K102153 -->
<g id="edge14" class="edge"><title>K092756&#45;&gt;K102153</title>
<path fill="none" stroke="black" d="M467.876,-372.5C484.4,-372.5 500.185,-372.5 500.185,-372.5 500.185,-372.5 500.185,-514.333 500.185,-514.333 500.185,-514.333 530.038,-514.333 530.038,-514.333"/>
<polygon fill="black" stroke="black" points="530.038,-517.833 540.038,-514.333 530.038,-510.833 530.038,-517.833"/>
</g>
<!-- K113690&#45;&gt;K140693 -->
<g id="edge11" class="edge"><title>K113690&#45;&gt;K140693</title>
<path fill="none" stroke="black" d="M474.243,-163C474.243,-163 508.063,-163 508.063,-163"/>
<polygon fill="black" stroke="black" points="508.063,-166.5 518.063,-163 508.063,-159.5 508.063,-166.5"/>
</g>
<!-- K070907&#45;&gt;K102153 -->
<g id="edge13" class="edge"><title>K070907&#45;&gt;K102153</title>
<path fill="none" stroke="black" d="M431.185,-500.333C431.185,-509.5 431.185,-518.667 431.185,-518.667 431.185,-518.667 529.965,-518.667 529.965,-518.667"/>
<polygon fill="black" stroke="black" points="529.965,-522.167 539.965,-518.667 529.965,-515.167 529.965,-522.167"/>
</g>
<!-- K070907&#45;&gt;K133833 -->
<g id="edge27" class="edge"><title>K070907&#45;&gt;K133833</title>
<path fill="none" stroke="black" d="M476.237,-482C557.765,-482 720.185,-482 720.185,-482 720.185,-482 720.185,-464.18 720.185,-464.18"/>
<polygon fill="black" stroke="black" points="723.685,-464.18 720.185,-454.18 716.685,-464.18 723.685,-464.18"/>
</g>
<!-- K102153&#45;&gt;K151339 -->
<g id="edge39" class="edge"><title>K102153&#45;&gt;K151339</title>
<path fill="none" stroke="black" d="M614.383,-534C614.383,-534 662.115,-534 662.115,-534"/>
<polygon fill="black" stroke="black" points="662.115,-537.5 672.115,-534 662.115,-530.5 662.115,-537.5"/>
</g>
<!-- K102153&#45;&gt;K133833 -->
<g id="edge28" class="edge"><title>K102153&#45;&gt;K133833</title>
<path fill="none" stroke="black" d="M614.395,-522C623.748,-522 631.185,-522 631.185,-522 631.185,-522 631.185,-442 631.185,-442 631.185,-442 682.998,-442 682.998,-442"/>
<polygon fill="black" stroke="black" points="682.998,-445.5 692.998,-442 682.998,-438.5 682.998,-445.5"/>
</g>
<!-- K030191&#45;&gt;K070907 -->
<g id="edge16" class="edge"><title>K030191&#45;&gt;K070907</title>
<path fill="none" stroke="black" d="M340.517,-443C380.171,-443 431.185,-443 431.185,-443 431.185,-443 431.185,-453.87 431.185,-453.87"/>
<polygon fill="black" stroke="black" points="427.685,-453.87 431.185,-463.87 434.685,-453.87 427.685,-453.87"/>
</g>
<!-- K012191&#45;&gt;K030191 -->
<g id="edge17" class="edge"><title>K012191&#45;&gt;K030191</title>
<path fill="none" stroke="black" d="M204.364,-442C204.364,-442 239.078,-442 239.078,-442"/>
<polygon fill="black" stroke="black" points="239.078,-445.5 249.078,-442 239.078,-438.5 239.078,-445.5"/>
</g>
<!-- K994373&#45;&gt;K030191 -->
<g id="edge18" class="edge"><title>K994373&#45;&gt;K030191</title>
<path fill="none" stroke="black" d="M210.579,-379C215.161,-379 218.185,-379 218.185,-379 218.185,-379 218.185,-433 218.185,-433 218.185,-433 238.859,-433 238.859,-433"/>
<polygon fill="black" stroke="black" points="238.859,-436.5 248.859,-433 238.859,-429.5 238.859,-436.5"/>
</g>
<!-- K993624&#45;&gt;K030191 -->
<g id="edge19" class="edge"><title>K993624&#45;&gt;K030191</title>
<path fill="none" stroke="black" d="M210.411,-325C218.881,-325 225.185,-325 225.185,-325 225.185,-325 225.185,-424 225.185,-424 225.185,-424 239.103,-424 239.103,-424"/>
<polygon fill="black" stroke="black" points="239.103,-427.5 249.103,-424 239.102,-420.5 239.103,-427.5"/>
</g>
<!-- K151339&#45;&gt;K163138 -->
<g id="edge20" class="edge"><title>K151339&#45;&gt;K163138</title>
<path fill="none" stroke="black" d="M768.293,-528C843.194,-528 979.185,-528 979.185,-528 979.185,-528 979.185,-413.111 979.185,-413.111"/>
<polygon fill="black" stroke="black" points="982.685,-413.111 979.185,-403.111 975.685,-413.111 982.685,-413.111"/>
</g>
<!-- K152899&#45;&gt;K163138 -->
<g id="edge21" class="edge"><title>K152899&#45;&gt;K163138</title>
<path fill="none" stroke="black" d="M888.295,-391C888.295,-391 939.785,-391 939.785,-391"/>
<polygon fill="black" stroke="black" points="939.785,-394.5 949.785,-391 939.785,-387.5 939.785,-394.5"/>
</g>
<!-- K153626&#45;&gt;K163138 -->
<g id="edge22" class="edge"><title>K153626&#45;&gt;K163138</title>
<path fill="none" stroke="black" d="M901.185,-345.187C901.185,-360.182 901.185,-379 901.185,-379 901.185,-379 939.95,-379 939.95,-379"/>
<polygon fill="black" stroke="black" points="939.95,-382.5 949.95,-379 939.95,-375.5 939.95,-382.5"/>
</g>
<!-- K133833&#45;&gt;K152899 -->
<g id="edge23" class="edge"><title>K133833&#45;&gt;K152899</title>
<path fill="none" stroke="black" d="M729.185,-417.746C729.185,-405.557 729.185,-391.75 729.185,-391.75 729.185,-391.75 820.01,-391.75 820.01,-391.75"/>
<polygon fill="black" stroke="black" points="820.01,-395.25 830.01,-391.75 820.01,-388.25 820.01,-395.25"/>
</g>
<!-- K120321&#45;&gt;K152899 -->
<g id="edge24" class="edge"><title>K120321&#45;&gt;K152899</title>
<path fill="none" stroke="black" d="M625.342,-375.25C625.342,-375.25 819.811,-375.25 819.811,-375.25"/>
<polygon fill="black" stroke="black" points="819.811,-378.75 829.811,-375.25 819.811,-371.75 819.811,-378.75"/>
</g>
<!-- K120321&#45;&gt;K133833 -->
<g id="edge25" class="edge"><title>K120321&#45;&gt;K133833</title>
<path fill="none" stroke="black" d="M625.562,-383.5C663.944,-383.5 711.185,-383.5 711.185,-383.5 711.185,-383.5 711.185,-407.932 711.185,-407.932"/>
<polygon fill="black" stroke="black" points="707.685,-407.932 711.185,-417.932 714.685,-407.933 707.685,-407.932"/>
</g>
<!-- K132304&#45;&gt;K133833 -->
<g id="edge26" class="edge"><title>K132304&#45;&gt;K133833</title>
<path fill="none" stroke="black" d="M618.546,-430C618.546,-430 682.922,-430 682.922,-430"/>
<polygon fill="black" stroke="black" points="682.922,-433.5 692.922,-430 682.922,-426.5 682.922,-433.5"/>
</g>
<!-- K043535&#45;&gt;K120321 -->
<g id="edge29" class="edge"><title>K043535&#45;&gt;K120321</title>
<path fill="none" stroke="black" d="M431.185,-398.793C431.185,-393.445 431.185,-389 431.185,-389 431.185,-389 518.974,-389 518.974,-389"/>
<polygon fill="black" stroke="black" points="518.974,-392.5 528.974,-389 518.974,-385.5 518.974,-392.5"/>
</g>
<!-- K102256&#45;&gt;K113690 -->
<g id="edge30" class="edge"><title>K102256&#45;&gt;K113690</title>
<path fill="none" stroke="black" d="M335.858,-169C335.858,-169 379.182,-169 379.182,-169"/>
<polygon fill="black" stroke="black" points="379.182,-172.5 389.182,-169 379.182,-165.5 379.182,-172.5"/>
</g>
<!-- K110943&#45;&gt;K113690 -->
<g id="edge31" class="edge"><title>K110943&#45;&gt;K113690</title>
<path fill="none" stroke="black" d="M338.531,-109C353.799,-109 367.185,-109 367.185,-109 367.185,-109 367.185,-157 367.185,-157 367.185,-157 379.394,-157 379.394,-157"/>
<polygon fill="black" stroke="black" points="379.394,-160.5 389.394,-157 379.394,-153.5 379.394,-160.5"/>
</g>
<!-- K002357&#45;&gt;K020112 -->
<g id="edge32" class="edge"><title>K002357&#45;&gt;K020112</title>
<path fill="none" stroke="black" d="M210.346,-703C210.346,-703 240.739,-703 240.739,-703"/>
<polygon fill="black" stroke="black" points="240.739,-706.5 250.739,-703 240.739,-699.5 240.739,-706.5"/>
</g>
<!-- K981293&#45;&gt;K020112 -->
<g id="edge33" class="edge"><title>K981293&#45;&gt;K020112</title>
<path fill="none" stroke="black" d="M210.517,-757C247.756,-757 295.185,-757 295.185,-757 295.185,-757 295.185,-731.282 295.185,-731.282"/>
<polygon fill="black" stroke="black" points="298.685,-731.282 295.185,-721.282 291.685,-731.282 298.685,-731.282"/>
</g>
<!-- K944287&#45;&gt;K981293 -->
<g id="edge34" class="edge"><title>K944287&#45;&gt;K981293</title>
<path fill="none" stroke="black" d="M87.2905,-757C87.2905,-757 113.035,-757 113.035,-757"/>
<polygon fill="black" stroke="black" points="113.035,-760.5 123.035,-757 113.035,-753.5 113.035,-760.5"/>
</g>
<!-- K133454&#45;&gt;K153626 -->
<g id="edge35" class="edge"><title>K133454&#45;&gt;K153626</title>
<path fill="none" stroke="black" d="M625.983,-268C706.695,-268 859.185,-268 859.185,-268 859.185,-268 859.185,-298.977 859.185,-298.977"/>
<polygon fill="black" stroke="black" points="855.685,-298.977 859.185,-308.977 862.685,-298.978 855.685,-298.977"/>
</g>
<!-- K133454&#45;&gt;K152209 -->
<g id="edge42" class="edge"><title>K133454&#45;&gt;K152209</title>
<path fill="none" stroke="black" d="M625.997,-280C667.423,-280 720.185,-280 720.185,-280 720.185,-280 720.185,-298.963 720.185,-298.963"/>
<polygon fill="black" stroke="black" points="716.685,-298.963 720.185,-308.963 723.685,-298.963 716.685,-298.963"/>
</g>
<!-- K152209&#45;&gt;K153626 -->
<g id="edge36" class="edge"><title>K152209&#45;&gt;K153626</title>
<path fill="none" stroke="black" d="M758.904,-327C758.904,-327 794.052,-327 794.052,-327"/>
<polygon fill="black" stroke="black" points="794.052,-330.5 804.052,-327 794.052,-323.5 794.052,-330.5"/>
</g>
<!-- K113156&#45;&gt;K133454 -->
<g id="edge37" class="edge"><title>K113156&#45;&gt;K133454</title>
<path fill="none" stroke="black" d="M431.185,-250.143C431.185,-256.461 431.185,-262 431.185,-262 431.185,-262 518.569,-262 518.569,-262"/>
<polygon fill="black" stroke="black" points="518.569,-265.5 528.569,-262 518.569,-258.5 518.569,-265.5"/>
</g>
<!-- K130173&#45;&gt;K133454 -->
<g id="edge38" class="edge"><title>K130173&#45;&gt;K133454</title>
<path fill="none" stroke="black" d="M471.883,-280C471.883,-280 518.517,-280 518.517,-280"/>
<polygon fill="black" stroke="black" points="518.517,-283.5 528.517,-280 518.517,-276.5 518.517,-283.5"/>
</g>
<!-- K100598&#45;&gt;K151339 -->
<g id="edge40" class="edge"><title>K100598&#45;&gt;K151339</title>
<path fill="none" stroke="black" d="M620.866,-582C662.92,-582 720.185,-582 720.185,-582 720.185,-582 720.185,-556.282 720.185,-556.282"/>
<polygon fill="black" stroke="black" points="723.685,-556.282 720.185,-546.282 716.685,-556.282 723.685,-556.282"/>
</g>
<!-- K142017&#45;&gt;K152209 -->
<g id="edge41" class="edge"><title>K142017&#45;&gt;K152209</title>
<path fill="none" stroke="black" d="M620.866,-327.5C620.866,-327.5 671.616,-327.5 671.616,-327.5"/>
<polygon fill="black" stroke="black" points="671.616,-331 681.616,-327.5 671.616,-324 671.616,-331"/>
</g>
<!-- K072797&#45;&gt;K092756 -->
<g id="edge43" class="edge"><title>K072797&#45;&gt;K092756</title>
<path fill="none" stroke="black" d="M295.185,-343.207C295.185,-348.555 295.185,-353 295.185,-353 295.185,-353 383.659,-353 383.659,-353"/>
<polygon fill="black" stroke="black" points="383.659,-356.5 393.659,-353 383.659,-349.5 383.659,-356.5"/>
</g>
<!-- K091164&#45;&gt;K092756 -->
<g id="edge44" class="edge"><title>K091164&#45;&gt;K092756</title>
<path fill="none" stroke="black" d="M328.652,-367.667C328.652,-367.667 383.327,-367.667 383.327,-367.667"/>
<polygon fill="black" stroke="black" points="383.327,-371.167 393.327,-367.667 383.327,-364.167 383.327,-371.167"/>
</g>
<!-- K071134&#45;&gt;K113156 -->
<g id="edge46" class="edge"><title>K071134&#45;&gt;K113156</title>
<path fill="none" stroke="black" d="M295.185,-252.789C295.185,-247.204 295.185,-242.5 295.185,-242.5 295.185,-242.5 372.149,-242.5 372.149,-242.5"/>
<polygon fill="black" stroke="black" points="372.149,-246 382.149,-242.5 372.149,-239 372.149,-246"/>
</g>
<!-- K082098&#45;&gt;K113156 -->
<g id="edge47" class="edge"><title>K082098&#45;&gt;K113156</title>
<path fill="none" stroke="black" d="M334.387,-224.5C334.387,-224.5 372.004,-224.5 372.004,-224.5"/>
<polygon fill="black" stroke="black" points="372.004,-228 382.004,-224.5 372.004,-221 372.004,-228"/>
</g>
<!-- K052331 -->
<g id="node1" class="node"><title>K052331</title>
<ellipse fill="none" stroke="black" cx="166.638" cy="-595" rx="43.5923" ry="18"/>
<text text-anchor="middle" x="166.638" y="-591.3" font-family="Times,serif" font-size="14.00">K052331</text>
</g>
<!-- K063761 -->
<g id="node2" class="node"><title>K063761</title>
<path fill="none" stroke="black" d="M331.185,-559C331.185,-559 258.185,-559 258.185,-559 252.185,-559 246.185,-553 246.185,-547 246.185,-547 246.185,-535 246.185,-535 246.185,-529 252.185,-523 258.185,-523 258.185,-523 331.185,-523 331.185,-523 337.185,-523 343.185,-529 343.185,-535 343.185,-535 343.185,-547 343.185,-547 343.185,-553 337.185,-559 331.185,-559"/>
<text text-anchor="middle" x="294.685" y="-537.3" font-family="Times,serif" font-size="14.00">ACUSON P10</text>
</g>
<!-- K052410 -->
<g id="node3" class="node"><title>K052410</title>
<ellipse fill="none" stroke="black" cx="166.638" cy="-541" rx="43.5923" ry="18"/>
<text text-anchor="middle" x="166.638" y="-537.3" font-family="Times,serif" font-size="14.00">K052410</text>
</g>
<!-- K020353 -->
<g id="node4" class="node"><title>K020353</title>
<ellipse fill="none" stroke="black" cx="166.638" cy="-487" rx="43.5923" ry="18"/>
<text text-anchor="middle" x="166.638" y="-483.3" font-family="Times,serif" font-size="14.00">K020353</text>
</g>
<!-- K994096 -->
<g id="node5" class="node"><title>K994096</title>
<ellipse fill="none" stroke="black" cx="166.638" cy="-649" rx="43.5923" ry="18"/>
<text text-anchor="middle" x="166.638" y="-645.3" font-family="Times,serif" font-size="14.00">K994096</text>
</g>
<!-- K020112 -->
<g id="node6" class="node"><title>K020112</title>
<ellipse fill="none" stroke="black" cx="294.685" cy="-703" rx="43.5923" ry="18"/>
<text text-anchor="middle" x="294.685" y="-699.3" font-family="Times,serif" font-size="14.00">K020112</text>
</g>
<!-- K090505 -->
<g id="node7" class="node"><title>K090505</title>
<polygon fill="yellow" stroke="black" points="482.185,-586 379.185,-586 379.185,-550 482.185,-550 482.185,-586"/>
<text text-anchor="middle" x="430.685" y="-564.3" font-family="Times,serif" font-size="14.00">Signostics Speq</text>
</g>
<!-- K021628 -->
<g id="node8" class="node"><title>K021628</title>
<ellipse fill="none" stroke="black" cx="294.685" cy="-595" rx="43.5923" ry="18"/>
<text text-anchor="middle" x="294.685" y="-591.3" font-family="Times,serif" font-size="14.00">K021628</text>
</g>
<!-- K152758 -->
<g id="node9" class="node"><title>K152758</title>
<ellipse fill="none" stroke="black" cx="430.685" cy="-55" rx="43.5923" ry="18"/>
<text text-anchor="middle" x="430.685" y="-51.3" font-family="Times,serif" font-size="14.00">K152758</text>
</g>
<!-- K161588 -->
<g id="node10" class="node"><title>K161588</title>
<ellipse fill="none" stroke="black" cx="577.185" cy="-82" rx="43.5923" ry="18"/>
<text text-anchor="middle" x="577.185" y="-78.3" font-family="Times,serif" font-size="14.00">K161588</text>
</g>
<!-- K112122 -->
<g id="node11" class="node"><title>K112122</title>
<ellipse fill="none" stroke="black" cx="430.685" cy="-109" rx="43.5923" ry="18"/>
<text text-anchor="middle" x="430.685" y="-105.3" font-family="Times,serif" font-size="14.00">K112122</text>
</g>
<!-- K092756 -->
<g id="node12" class="node"><title>K092756</title>
<polygon fill="yellow" stroke="black" points="467.685,-381 393.685,-381 393.685,-345 467.685,-345 467.685,-381"/>
<text text-anchor="middle" x="430.685" y="-359.3" font-family="Times,serif" font-size="14.00">GE VScan</text>
</g>
<!-- K140693 -->
<g id="node13" class="node"><title>K140693</title>
<polygon fill="yellow" stroke="black" points="636.185,-181 518.185,-181 518.185,-145 636.185,-145 636.185,-181"/>
<text text-anchor="middle" x="577.185" y="-159.3" font-family="Times,serif" font-size="14.00">VScan Dual Probe</text>
</g>
<!-- K113690 -->
<g id="node14" class="node"><title>K113690</title>
<ellipse fill="none" stroke="black" cx="430.685" cy="-163" rx="43.5923" ry="18"/>
<text text-anchor="middle" x="430.685" y="-159.3" font-family="Times,serif" font-size="14.00">K113690</text>
</g>
<!-- K070907 -->
<g id="node15" class="node"><title>K070907</title>
<polygon fill="yellow" stroke="black" points="476.185,-500 385.185,-500 385.185,-464 476.185,-464 476.185,-500"/>
<text text-anchor="middle" x="430.685" y="-478.3" font-family="Times,serif" font-size="14.00">Interson USB</text>
</g>
<!-- K102153 -->
<g id="node16" class="node"><title>K102153</title>
<polygon fill="yellow" stroke="black" points="614.185,-546 540.185,-546 540.185,-510 614.185,-510 614.185,-546"/>
<text text-anchor="middle" x="577.185" y="-524.3" font-family="Times,serif" font-size="14.00">Mobisante</text>
</g>
<!-- K030191 -->
<g id="node17" class="node"><title>K030191</title>
<polygon fill="yellow" stroke="black" points="340.185,-451 249.185,-451 249.185,-415 340.185,-415 340.185,-451"/>
<text text-anchor="middle" x="294.685" y="-429.3" font-family="Times,serif" font-size="14.00">Terason 2000</text>
</g>
<!-- K012191 -->
<g id="node18" class="node"><title>K012191</title>
<ellipse fill="none" stroke="black" cx="166.638" cy="-433" rx="43.5923" ry="18"/>
<text text-anchor="middle" x="166.638" y="-429.3" font-family="Times,serif" font-size="14.00">K012191</text>
</g>
<!-- K994373 -->
<g id="node19" class="node"><title>K994373</title>
<ellipse fill="none" stroke="black" cx="166.638" cy="-379" rx="43.5923" ry="18"/>
<text text-anchor="middle" x="166.638" y="-375.3" font-family="Times,serif" font-size="14.00">K994373</text>
</g>
<!-- K993624 -->
<g id="node20" class="node"><title>K993624</title>
<ellipse fill="none" stroke="black" cx="166.638" cy="-325" rx="43.5923" ry="18"/>
<text text-anchor="middle" x="166.638" y="-321.3" font-family="Times,serif" font-size="14.00">K993624</text>
</g>
<!-- K151339 -->
<g id="node21" class="node"><title>K151339</title>
<polygon fill="yellow" stroke="black" points="768.185,-546 672.185,-546 672.185,-510 768.185,-510 768.185,-546"/>
<text text-anchor="middle" x="720.185" y="-524.3" font-family="Times,serif" font-size="14.00">SONON 300C</text>
</g>
<!-- K163138 -->
<g id="node22" class="node"><title>K163138</title>
<polygon fill="yellow" stroke="black" points="1006.18,-403 950.185,-403 950.185,-367 1006.18,-367 1006.18,-403"/>
<text text-anchor="middle" x="978.185" y="-381.3" font-family="Times,serif" font-size="14.00">Clarius</text>
</g>
<!-- K152899 -->
<g id="node23" class="node"><title>K152899</title>
<polygon fill="yellow" stroke="black" points="888.185,-403 830.185,-403 830.185,-367 888.185,-367 888.185,-403"/>
<text text-anchor="middle" x="859.185" y="-381.3" font-family="Times,serif" font-size="14.00">Lumify</text>
</g>
<!-- K153626 -->
<g id="node24" class="node"><title>K153626</title>
<polygon fill="yellow" stroke="black" points="914.185,-345 804.185,-345 804.185,-309 914.185,-309 914.185,-345"/>
<text text-anchor="middle" x="859.185" y="-323.3" font-family="Times,serif" font-size="14.00">SonoSite Edge II</text>
</g>
<!-- K133833 -->
<g id="node25" class="node"><title>K133833</title>
<polygon fill="yellow" stroke="black" points="747.185,-454 693.185,-454 693.185,-418 747.185,-418 747.185,-454"/>
<text text-anchor="middle" x="720.185" y="-432.3" font-family="Times,serif" font-size="14.00">Nuvis</text>
</g>
<!-- K120321 -->
<g id="node26" class="node"><title>K120321</title>
<polygon fill="yellow" stroke="black" points="625.185,-400 529.185,-400 529.185,-364 625.185,-364 625.185,-400"/>
<text text-anchor="middle" x="577.185" y="-378.3" font-family="Times,serif" font-size="14.00">Clearview 350</text>
</g>
<!-- K132304 -->
<g id="node27" class="node"><title>K132304</title>
<ellipse fill="none" stroke="black" cx="577.185" cy="-436" rx="43.5923" ry="18"/>
<text text-anchor="middle" x="577.185" y="-432.3" font-family="Times,serif" font-size="14.00">K132304</text>
</g>
<!-- K043535 -->
<g id="node28" class="node"><title>K043535</title>
<polygon fill="yellow" stroke="black" points="466.685,-435 394.685,-435 394.685,-399 466.685,-399 466.685,-435"/>
<text text-anchor="middle" x="430.685" y="-413.3" font-family="Times,serif" font-size="14.00">Clearview</text>
</g>
<!-- K102256 -->
<g id="node29" class="node"><title>K102256</title>
<ellipse fill="none" stroke="black" cx="294.685" cy="-163" rx="43.5923" ry="18"/>
<text text-anchor="middle" x="294.685" y="-159.3" font-family="Times,serif" font-size="14.00">K102256</text>
</g>
<!-- K110943 -->
<g id="node30" class="node"><title>K110943</title>
<ellipse fill="none" stroke="black" cx="294.685" cy="-109" rx="43.5923" ry="18"/>
<text text-anchor="middle" x="294.685" y="-105.3" font-family="Times,serif" font-size="14.00">K110943</text>
</g>
<!-- K002357 -->
<g id="node31" class="node"><title>K002357</title>
<ellipse fill="none" stroke="black" cx="166.638" cy="-703" rx="43.5923" ry="18"/>
<text text-anchor="middle" x="166.638" y="-699.3" font-family="Times,serif" font-size="14.00">K002357</text>
</g>
<!-- K981293 -->
<g id="node32" class="node"><title>K981293</title>
<ellipse fill="none" stroke="black" cx="166.638" cy="-757" rx="43.5923" ry="18"/>
<text text-anchor="middle" x="166.638" y="-753.3" font-family="Times,serif" font-size="14.00">K981293</text>
</g>
<!-- K944287 -->
<g id="node33" class="node"><title>K944287</title>
<ellipse fill="none" stroke="black" cx="43.5461" cy="-757" rx="43.5923" ry="18"/>
<text text-anchor="middle" x="43.5461" y="-753.3" font-family="Times,serif" font-size="14.00">K944287</text>
</g>
<!-- K133454 -->
<g id="node34" class="node"><title>K133454</title>
<polygon fill="yellow" stroke="black" points="625.685,-292 528.685,-292 528.685,-256 625.685,-256 625.685,-292"/>
<text text-anchor="middle" x="577.185" y="-270.3" font-family="Times,serif" font-size="14.00">SonoSite Edge</text>
</g>
<!-- K152209 -->
<g id="node35" class="node"><title>K152209</title>
<polygon fill="yellow" stroke="black" points="758.685,-345 681.685,-345 681.685,-309 758.685,-309 758.685,-345"/>
<text text-anchor="middle" x="720.185" y="-323.3" font-family="Times,serif" font-size="14.00">Sonosite X</text>
</g>
<!-- K113156 -->
<g id="node36" class="node"><title>K113156</title>
<polygon fill="yellow" stroke="black" points="479.185,-250 382.185,-250 382.185,-214 479.185,-214 479.185,-250"/>
<text text-anchor="middle" x="430.685" y="-228.3" font-family="Times,serif" font-size="14.00">SonoSite Edge</text>
</g>
<!-- K130173 -->
<g id="node37" class="node"><title>K130173</title>
<ellipse fill="none" stroke="black" cx="430.685" cy="-286" rx="43.5923" ry="18"/>
<text text-anchor="middle" x="430.685" y="-282.3" font-family="Times,serif" font-size="14.00">K130173</text>
</g>
<!-- K100598 -->
<g id="node38" class="node"><title>K100598</title>
<ellipse fill="none" stroke="black" cx="577.185" cy="-582" rx="43.5923" ry="18"/>
<text text-anchor="middle" x="577.185" y="-578.3" font-family="Times,serif" font-size="14.00">K100598</text>
</g>
<!-- K142017 -->
<g id="node39" class="node"><title>K142017</title>
<ellipse fill="none" stroke="black" cx="577.185" cy="-328" rx="43.5923" ry="18"/>
<text text-anchor="middle" x="577.185" y="-324.3" font-family="Times,serif" font-size="14.00">K142017</text>
</g>
<!-- K072797 -->
<g id="node40" class="node"><title>K072797</title>
<ellipse fill="none" stroke="black" cx="294.685" cy="-325" rx="43.5923" ry="18"/>
<text text-anchor="middle" x="294.685" y="-321.3" font-family="Times,serif" font-size="14.00">K072797</text>
</g>
<!-- K091164 -->
<g id="node41" class="node"><title>K091164</title>
<ellipse fill="none" stroke="black" cx="294.685" cy="-379" rx="43.5923" ry="18"/>
<text text-anchor="middle" x="294.685" y="-375.3" font-family="Times,serif" font-size="14.00">K091164</text>
</g>
<!-- K071134 -->
<g id="node42" class="node"><title>K071134</title>
<ellipse fill="none" stroke="black" cx="294.685" cy="-271" rx="43.5923" ry="18"/>
<text text-anchor="middle" x="294.685" y="-267.3" font-family="Times,serif" font-size="14.00">K071134</text>
</g>
<!-- K082098 -->
<g id="node43" class="node"><title>K082098</title>
<ellipse fill="none" stroke="black" cx="294.685" cy="-217" rx="43.5923" ry="18"/>
<text text-anchor="middle" x="294.685" y="-213.3" font-family="Times,serif" font-size="14.00">K082098</text>
</g>
</g>
</svg>
