<?xml version="1.0" encoding="UTF-8" standalone="no"?>
<!DOCTYPE svg PUBLIC "-//W3C//DTD SVG 1.1//EN"
 "http://www.w3.org/Graphics/SVG/1.1/DTD/svg11.dtd">
<!-- Generated by graphviz version 2.38.0 (20140413.2041)
 -->
<!-- Title: %3 Pages: 1 -->
<svg width="1014pt" height="780pt"
 viewBox="0.00 0.00 1014.18 780.00" xmlns="http://www.w3.org/2000/svg" xmlns:xlink="http://www.w3.org/1999/xlink">
<g id="graph0" class="graph" transform="scale(1 1) rotate(0) translate(4 776)">
<title>%3</title>
<polygon fill="white" stroke="none" points="-4,4 -4,-776 1010.18,-776 1010.18,4 -4,4"/>
<text text-anchor="middle" x="503.092" y="-12.2" font-family="Times,serif" font-size="26.00">Mapping FDA 510(k)</text>
<!-- K052331 -->
<g id="node1" class="node"><title>K052331</title>
<ellipse fill="none" stroke="black" cx="166.638" cy="-592" rx="43.5923" ry="18"/>
<text text-anchor="middle" x="166.638" y="-588.3" font-family="Times,serif" font-size="14.00">K052331</text>
</g>
<!-- K063761 -->
<g id="node2" class="node"><title>K063761</title>
<polygon fill="yellow" stroke="black" points="343.185,-664 246.185,-664 246.185,-628 343.185,-628 343.185,-664"/>
<text text-anchor="middle" x="294.685" y="-642.3" font-family="Times,serif" font-size="14.00">ACUSON P10</text>
</g>
<!-- K052331&#45;&gt;K063761 -->
<g id="edge1" class="edge"><title>K052331&#45;&gt;K063761</title>
<path fill="none" stroke="black" d="M210.517,-592C247.756,-592 295.185,-592 295.185,-592 295.185,-592 295.185,-617.718 295.185,-617.718"/>
<polygon fill="black" stroke="black" points="291.685,-617.718 295.185,-627.718 298.685,-617.718 291.685,-617.718"/>
</g>
<!-- K090505 -->
<g id="node7" class="node"><title>K090505</title>
<polygon fill="yellow" stroke="black" points="482.185,-523 379.185,-523 379.185,-487 482.185,-487 482.185,-523"/>
<text text-anchor="middle" x="430.685" y="-501.3" font-family="Times,serif" font-size="14.00">Signostics Speq</text>
</g>
<!-- K063761&#45;&gt;K090505 -->
<g id="edge6" class="edge"><title>K063761&#45;&gt;K090505</title>
<path fill="none" stroke="black" d="M343.194,-646C382.428,-646 431.185,-646 431.185,-646 431.185,-646 431.185,-533.145 431.185,-533.145"/>
<polygon fill="black" stroke="black" points="434.685,-533.145 431.185,-523.145 427.685,-533.145 434.685,-533.145"/>
</g>
<!-- K052410 -->
<g id="node3" class="node"><title>K052410</title>
<ellipse fill="none" stroke="black" cx="166.638" cy="-754" rx="43.5923" ry="18"/>
<text text-anchor="middle" x="166.638" y="-750.3" font-family="Times,serif" font-size="14.00">K052410</text>
</g>
<!-- K052410&#45;&gt;K063761 -->
<g id="edge2" class="edge"><title>K052410&#45;&gt;K063761</title>
<path fill="none" stroke="black" d="M210.399,-754C252.943,-754 311.185,-754 311.185,-754 311.185,-754 311.185,-674.321 311.185,-674.321"/>
<polygon fill="black" stroke="black" points="314.685,-674.321 311.185,-664.321 307.685,-674.321 314.685,-674.321"/>
</g>
<!-- K020353 -->
<g id="node4" class="node"><title>K020353</title>
<ellipse fill="none" stroke="black" cx="166.638" cy="-700" rx="43.5923" ry="18"/>
<text text-anchor="middle" x="166.638" y="-696.3" font-family="Times,serif" font-size="14.00">K020353</text>
</g>
<!-- K020353&#45;&gt;K063761 -->
<g id="edge3" class="edge"><title>K020353&#45;&gt;K063761</title>
<path fill="none" stroke="black" d="M210.474,-700C242.075,-700 279.185,-700 279.185,-700 279.185,-700 279.185,-674.282 279.185,-674.282"/>
<polygon fill="black" stroke="black" points="282.685,-674.282 279.185,-664.282 275.685,-674.282 282.685,-674.282"/>
</g>
<!-- K994096 -->
<g id="node5" class="node"><title>K994096</title>
<ellipse fill="none" stroke="black" cx="166.638" cy="-646" rx="43.5923" ry="18"/>
<text text-anchor="middle" x="166.638" y="-642.3" font-family="Times,serif" font-size="14.00">K994096</text>
</g>
<!-- K994096&#45;&gt;K063761 -->
<g id="edge4" class="edge"><title>K994096&#45;&gt;K063761</title>
<path fill="none" stroke="black" d="M210.346,-646C210.346,-646 235.901,-646 235.901,-646"/>
<polygon fill="black" stroke="black" points="235.901,-649.5 245.901,-646 235.9,-642.5 235.901,-649.5"/>
</g>
<!-- K020112 -->
<g id="node6" class="node"><title>K020112</title>
<ellipse fill="none" stroke="black" cx="294.685" cy="-525" rx="43.5923" ry="18"/>
<text text-anchor="middle" x="294.685" y="-521.3" font-family="Times,serif" font-size="14.00">K020112</text>
</g>
<!-- K020112&#45;&gt;K090505 -->
<g id="edge5" class="edge"><title>K020112&#45;&gt;K090505</title>
<path fill="none" stroke="black" d="M331.13,-515C331.13,-515 369.055,-515 369.055,-515"/>
<polygon fill="black" stroke="black" points="369.055,-518.5 379.055,-515 369.055,-511.5 369.055,-518.5"/>
</g>
<!-- K102153 -->
<g id="node16" class="node"><title>K102153</title>
<polygon fill="yellow" stroke="black" points="614.185,-475 540.185,-475 540.185,-439 614.185,-439 614.185,-475"/>
<text text-anchor="middle" x="577.185" y="-453.3" font-family="Times,serif" font-size="14.00">Mobisante</text>
</g>
<!-- K090505&#45;&gt;K102153 -->
<g id="edge15" class="edge"><title>K090505&#45;&gt;K102153</title>
<path fill="none" stroke="black" d="M416.185,-486.897C416.185,-475.914 416.185,-464 416.185,-464 416.185,-464 529.843,-464 529.843,-464"/>
<polygon fill="black" stroke="black" points="529.843,-467.5 539.843,-464 529.843,-460.5 529.843,-467.5"/>
</g>
<!-- K021628 -->
<g id="node8" class="node"><title>K021628</title>
<ellipse fill="none" stroke="black" cx="294.685" cy="-471" rx="43.5923" ry="18"/>
<text text-anchor="middle" x="294.685" y="-467.3" font-family="Times,serif" font-size="14.00">K021628</text>
</g>
<!-- K021628&#45;&gt;K090505 -->
<g id="edge7" class="edge"><title>K021628&#45;&gt;K090505</title>
<path fill="none" stroke="black" d="M310.185,-488.153C310.185,-491.152 310.185,-493.333 310.185,-493.333 310.185,-493.333 368.882,-493.333 368.882,-493.333"/>
<polygon fill="black" stroke="black" points="368.882,-496.833 378.882,-493.333 368.882,-489.833 368.882,-496.833"/>
</g>
<!-- K152758 -->
<g id="node9" class="node"><title>K152758</title>
<ellipse fill="none" stroke="black" cx="430.685" cy="-55" rx="43.5923" ry="18"/>
<text text-anchor="middle" x="430.685" y="-51.3" font-family="Times,serif" font-size="14.00">K152758</text>
</g>
<!-- K161588 -->
<g id="node10" class="node"><title>K161588</title>
<ellipse fill="none" stroke="black" cx="577.185" cy="-68" rx="43.5923" ry="18"/>
<text text-anchor="middle" x="577.185" y="-64.3" font-family="Times,serif" font-size="14.00">K161588</text>
</g>
<!-- K152758&#45;&gt;K161588 -->
<g id="edge8" class="edge"><title>K152758&#45;&gt;K161588</title>
<path fill="none" stroke="black" d="M471.493,-61.5C471.493,-61.5 526.341,-61.5 526.341,-61.5"/>
<polygon fill="black" stroke="black" points="526.341,-65.0001 536.341,-61.5 526.341,-58.0001 526.341,-65.0001"/>
</g>
<!-- K112122 -->
<g id="node11" class="node"><title>K112122</title>
<ellipse fill="none" stroke="black" cx="430.685" cy="-109" rx="43.5923" ry="18"/>
<text text-anchor="middle" x="430.685" y="-105.3" font-family="Times,serif" font-size="14.00">K112122</text>
</g>
<!-- K112122&#45;&gt;K161588 -->
<g id="edge9" class="edge"><title>K112122&#45;&gt;K161588</title>
<path fill="none" stroke="black" d="M431.185,-90.8211C431.185,-84.7504 431.185,-79.5 431.185,-79.5 431.185,-79.5 533.322,-79.5 533.322,-79.5"/>
<polygon fill="black" stroke="black" points="533.322,-83.0001 543.322,-79.5 533.322,-76.0001 533.322,-83.0001"/>
</g>
<!-- K140693 -->
<g id="node13" class="node"><title>K140693</title>
<polygon fill="yellow" stroke="black" points="636.185,-167 518.185,-167 518.185,-131 636.185,-131 636.185,-167"/>
<text text-anchor="middle" x="577.185" y="-145.3" font-family="Times,serif" font-size="14.00">VScan Dual Probe</text>
</g>
<!-- K112122&#45;&gt;K140693 -->
<g id="edge12" class="edge"><title>K112122&#45;&gt;K140693</title>
<path fill="none" stroke="black" d="M474.243,-109C499.43,-109 526.185,-109 526.185,-109 526.185,-109 526.185,-120.873 526.185,-120.873"/>
<polygon fill="black" stroke="black" points="522.685,-120.873 526.185,-130.873 529.685,-120.873 522.685,-120.873"/>
</g>
<!-- K092756 -->
<g id="node12" class="node"><title>K092756</title>
<ellipse fill="none" stroke="black" cx="430.685" cy="-257" rx="43.5923" ry="18"/>
<text text-anchor="middle" x="430.685" y="-253.3" font-family="Times,serif" font-size="14.00">K092756</text>
</g>
<!-- K092756&#45;&gt;K140693 -->
<g id="edge10" class="edge"><title>K092756&#45;&gt;K140693</title>
<path fill="none" stroke="black" d="M472.017,-251C497.827,-251 526.185,-251 526.185,-251 526.185,-251 526.185,-177.236 526.185,-177.236"/>
<polygon fill="black" stroke="black" points="529.685,-177.236 526.185,-167.236 522.685,-177.236 529.685,-177.236"/>
</g>
<!-- K092756&#45;&gt;K102153 -->
<g id="edge14" class="edge"><title>K092756&#45;&gt;K102153</title>
<path fill="none" stroke="black" d="M471.916,-263C486.882,-263 500.185,-263 500.185,-263 500.185,-263 500.185,-442 500.185,-442 500.185,-442 530.038,-442 530.038,-442"/>
<polygon fill="black" stroke="black" points="530.038,-445.5 540.038,-442 530.038,-438.5 530.038,-445.5"/>
</g>
<!-- K113690 -->
<g id="node14" class="node"><title>K113690</title>
<ellipse fill="none" stroke="black" cx="430.685" cy="-163" rx="43.5923" ry="18"/>
<text text-anchor="middle" x="430.685" y="-159.3" font-family="Times,serif" font-size="14.00">K113690</text>
</g>
<!-- K113690&#45;&gt;K140693 -->
<g id="edge11" class="edge"><title>K113690&#45;&gt;K140693</title>
<path fill="none" stroke="black" d="M471.104,-156C471.104,-156 507.971,-156 507.971,-156"/>
<polygon fill="black" stroke="black" points="507.971,-159.5 517.971,-156 507.971,-152.5 507.971,-159.5"/>
</g>
<!-- K070907 -->
<g id="node15" class="node"><title>K070907</title>
<polygon fill="yellow" stroke="black" points="476.185,-429 385.185,-429 385.185,-393 476.185,-393 476.185,-429"/>
<text text-anchor="middle" x="430.685" y="-407.3" font-family="Times,serif" font-size="14.00">Interson USB</text>
</g>
<!-- K070907&#45;&gt;K102153 -->
<g id="edge13" class="edge"><title>K070907&#45;&gt;K102153</title>
<path fill="none" stroke="black" d="M446.185,-429.194C446.185,-437.278 446.185,-445 446.185,-445 446.185,-445 529.996,-445 529.996,-445"/>
<polygon fill="black" stroke="black" points="529.996,-448.5 539.996,-445 529.996,-441.5 529.996,-448.5"/>
</g>
<!-- K133833 -->
<g id="node25" class="node"><title>K133833</title>
<polygon fill="yellow" stroke="black" points="747.185,-399 693.185,-399 693.185,-363 747.185,-363 747.185,-399"/>
<text text-anchor="middle" x="720.185" y="-377.3" font-family="Times,serif" font-size="14.00">Nuvis</text>
</g>
<!-- K070907&#45;&gt;K133833 -->
<g id="edge27" class="edge"><title>K070907&#45;&gt;K133833</title>
<path fill="none" stroke="black" d="M471.185,-392.814C471.185,-389.117 471.185,-386.333 471.185,-386.333 471.185,-386.333 683.063,-386.333 683.063,-386.333"/>
<polygon fill="black" stroke="black" points="683.063,-389.833 693.063,-386.333 683.063,-382.833 683.063,-389.833"/>
</g>
<!-- K151339 -->
<g id="node21" class="node"><title>K151339</title>
<polygon fill="yellow" stroke="black" points="768.185,-475 672.185,-475 672.185,-439 768.185,-439 768.185,-475"/>
<text text-anchor="middle" x="720.185" y="-453.3" font-family="Times,serif" font-size="14.00">SONON 300C</text>
</g>
<!-- K102153&#45;&gt;K151339 -->
<g id="edge39" class="edge"><title>K102153&#45;&gt;K151339</title>
<path fill="none" stroke="black" d="M614.383,-457C614.383,-457 662.115,-457 662.115,-457"/>
<polygon fill="black" stroke="black" points="662.115,-460.5 672.115,-457 662.115,-453.5 662.115,-460.5"/>
</g>
<!-- K102153&#45;&gt;K133833 -->
<g id="edge28" class="edge"><title>K102153&#45;&gt;K133833</title>
<path fill="none" stroke="black" d="M577.185,-438.956C577.185,-419.011 577.185,-389.667 577.185,-389.667 577.185,-389.667 682.951,-389.667 682.951,-389.667"/>
<polygon fill="black" stroke="black" points="682.951,-393.167 692.951,-389.667 682.951,-386.167 682.951,-393.167"/>
</g>
<!-- K030191 -->
<g id="node17" class="node"><title>K030191</title>
<polygon fill="yellow" stroke="black" points="340.185,-408 249.185,-408 249.185,-372 340.185,-372 340.185,-408"/>
<text text-anchor="middle" x="294.685" y="-386.3" font-family="Times,serif" font-size="14.00">Terason 2000</text>
</g>
<!-- K030191&#45;&gt;K070907 -->
<g id="edge16" class="edge"><title>K030191&#45;&gt;K070907</title>
<path fill="none" stroke="black" d="M340.349,-400.5C340.349,-400.5 374.909,-400.5 374.909,-400.5"/>
<polygon fill="black" stroke="black" points="374.909,-404 384.909,-400.5 374.909,-397 374.909,-404"/>
</g>
<!-- K012191 -->
<g id="node18" class="node"><title>K012191</title>
<ellipse fill="none" stroke="black" cx="166.638" cy="-430" rx="43.5923" ry="18"/>
<text text-anchor="middle" x="166.638" y="-426.3" font-family="Times,serif" font-size="14.00">K012191</text>
</g>
<!-- K012191&#45;&gt;K030191 -->
<g id="edge17" class="edge"><title>K012191&#45;&gt;K030191</title>
<path fill="none" stroke="black" d="M167.185,-411.799C167.185,-405.972 167.185,-401 167.185,-401 167.185,-401 239.014,-401 239.014,-401"/>
<polygon fill="black" stroke="black" points="239.014,-404.5 249.014,-401 239.014,-397.5 239.014,-404.5"/>
</g>
<!-- K994373 -->
<g id="node19" class="node"><title>K994373</title>
<ellipse fill="none" stroke="black" cx="166.638" cy="-376" rx="43.5923" ry="18"/>
<text text-anchor="middle" x="166.638" y="-372.3" font-family="Times,serif" font-size="14.00">K994373</text>
</g>
<!-- K994373&#45;&gt;K030191 -->
<g id="edge18" class="edge"><title>K994373&#45;&gt;K030191</title>
<path fill="none" stroke="black" d="M206.802,-383C206.802,-383 238.857,-383 238.857,-383"/>
<polygon fill="black" stroke="black" points="238.857,-386.5 248.857,-383 238.857,-379.5 238.857,-386.5"/>
</g>
<!-- K993624 -->
<g id="node20" class="node"><title>K993624</title>
<ellipse fill="none" stroke="black" cx="166.638" cy="-322" rx="43.5923" ry="18"/>
<text text-anchor="middle" x="166.638" y="-318.3" font-family="Times,serif" font-size="14.00">K993624</text>
</g>
<!-- K993624&#45;&gt;K030191 -->
<g id="edge19" class="edge"><title>K993624&#45;&gt;K030191</title>
<path fill="none" stroke="black" d="M198.084,-334.5C236.14,-334.5 295.185,-334.5 295.185,-334.5 295.185,-334.5 295.185,-361.827 295.185,-361.827"/>
<polygon fill="black" stroke="black" points="291.685,-361.827 295.185,-371.827 298.685,-361.827 291.685,-361.827"/>
</g>
<!-- K163138 -->
<g id="node22" class="node"><title>K163138</title>
<polygon fill="yellow" stroke="black" points="1006.18,-380 950.185,-380 950.185,-344 1006.18,-344 1006.18,-380"/>
<text text-anchor="middle" x="978.185" y="-358.3" font-family="Times,serif" font-size="14.00">Clarius</text>
</g>
<!-- K151339&#45;&gt;K163138 -->
<g id="edge20" class="edge"><title>K151339&#45;&gt;K163138</title>
<path fill="none" stroke="black" d="M768.293,-457C843.194,-457 979.185,-457 979.185,-457 979.185,-457 979.185,-390.317 979.185,-390.317"/>
<polygon fill="black" stroke="black" points="982.685,-390.317 979.185,-380.317 975.685,-390.317 982.685,-390.317"/>
</g>
<!-- K152899 -->
<g id="node23" class="node"><title>K152899</title>
<polygon fill="yellow" stroke="black" points="888.185,-380 830.185,-380 830.185,-344 888.185,-344 888.185,-380"/>
<text text-anchor="middle" x="859.185" y="-358.3" font-family="Times,serif" font-size="14.00">Lumify</text>
</g>
<!-- K152899&#45;&gt;K163138 -->
<g id="edge21" class="edge"><title>K152899&#45;&gt;K163138</title>
<path fill="none" stroke="black" d="M888.295,-368C888.295,-368 939.785,-368 939.785,-368"/>
<polygon fill="black" stroke="black" points="939.785,-371.5 949.785,-368 939.785,-364.5 939.785,-371.5"/>
</g>
<!-- K153626 -->
<g id="node24" class="node"><title>K153626</title>
<polygon fill="yellow" stroke="black" points="914.185,-307 804.185,-307 804.185,-271 914.185,-271 914.185,-307"/>
<text text-anchor="middle" x="859.185" y="-285.3" font-family="Times,serif" font-size="14.00">SonoSite Edge II</text>
</g>
<!-- K153626&#45;&gt;K163138 -->
<g id="edge22" class="edge"><title>K153626&#45;&gt;K163138</title>
<path fill="none" stroke="black" d="M901.185,-307.308C901.185,-327.146 901.185,-356 901.185,-356 901.185,-356 939.95,-356 939.95,-356"/>
<polygon fill="black" stroke="black" points="939.95,-359.5 949.95,-356 939.95,-352.5 939.95,-359.5"/>
</g>
<!-- K133833&#45;&gt;K152899 -->
<g id="edge23" class="edge"><title>K133833&#45;&gt;K152899</title>
<path fill="none" stroke="black" d="M747.315,-371.5C747.315,-371.5 819.72,-371.5 819.72,-371.5"/>
<polygon fill="black" stroke="black" points="819.72,-375 829.72,-371.5 819.719,-368 819.72,-375"/>
</g>
<!-- K120321 -->
<g id="node26" class="node"><title>K120321</title>
<ellipse fill="none" stroke="black" cx="577.185" cy="-311" rx="43.5923" ry="18"/>
<text text-anchor="middle" x="577.185" y="-307.3" font-family="Times,serif" font-size="14.00">K120321</text>
</g>
<!-- K120321&#45;&gt;K152899 -->
<g id="edge24" class="edge"><title>K120321&#45;&gt;K152899</title>
<path fill="none" stroke="black" d="M620.014,-314.333C698.903,-314.333 859.185,-314.333 859.185,-314.333 859.185,-314.333 859.185,-333.979 859.185,-333.979"/>
<polygon fill="black" stroke="black" points="855.685,-333.979 859.185,-343.979 862.685,-333.979 855.685,-333.979"/>
</g>
<!-- K120321&#45;&gt;K133833 -->
<g id="edge25" class="edge"><title>K120321&#45;&gt;K133833</title>
<path fill="none" stroke="black" d="M612.533,-321.667C654.879,-321.667 720.185,-321.667 720.185,-321.667 720.185,-321.667 720.185,-352.876 720.185,-352.876"/>
<polygon fill="black" stroke="black" points="716.685,-352.876 720.185,-362.876 723.685,-352.876 716.685,-352.876"/>
</g>
<!-- K132304 -->
<g id="node27" class="node"><title>K132304</title>
<ellipse fill="none" stroke="black" cx="577.185" cy="-365" rx="43.5923" ry="18"/>
<text text-anchor="middle" x="577.185" y="-361.3" font-family="Times,serif" font-size="14.00">K132304</text>
</g>
<!-- K132304&#45;&gt;K133833 -->
<g id="edge26" class="edge"><title>K132304&#45;&gt;K133833</title>
<path fill="none" stroke="black" d="M616.26,-373C616.26,-373 682.93,-373 682.93,-373"/>
<polygon fill="black" stroke="black" points="682.93,-376.5 692.93,-373 682.93,-369.5 682.93,-376.5"/>
</g>
<!-- K043535 -->
<g id="node28" class="node"><title>K043535</title>
<polygon fill="yellow" stroke="black" points="466.685,-329 394.685,-329 394.685,-293 466.685,-293 466.685,-329"/>
<text text-anchor="middle" x="430.685" y="-307.3" font-family="Times,serif" font-size="14.00">Clearview</text>
</g>
<!-- K043535&#45;&gt;K120321 -->
<g id="edge29" class="edge"><title>K043535&#45;&gt;K120321</title>
<path fill="none" stroke="black" d="M466.898,-311C466.898,-311 523.561,-311 523.561,-311"/>
<polygon fill="black" stroke="black" points="523.561,-314.5 533.561,-311 523.561,-307.5 523.561,-314.5"/>
</g>
<!-- K102256 -->
<g id="node29" class="node"><title>K102256</title>
<ellipse fill="none" stroke="black" cx="294.685" cy="-190" rx="43.5923" ry="18"/>
<text text-anchor="middle" x="294.685" y="-186.3" font-family="Times,serif" font-size="14.00">K102256</text>
</g>
<!-- K102256&#45;&gt;K113690 -->
<g id="edge30" class="edge"><title>K102256&#45;&gt;K113690</title>
<path fill="none" stroke="black" d="M323.527,-176.5C323.527,-176.5 391.415,-176.5 391.415,-176.5"/>
<polygon fill="black" stroke="black" points="391.415,-180 401.415,-176.5 391.415,-173 391.415,-180"/>
</g>
<!-- K110943 -->
<g id="node30" class="node"><title>K110943</title>
<ellipse fill="none" stroke="black" cx="294.685" cy="-136" rx="43.5923" ry="18"/>
<text text-anchor="middle" x="294.685" y="-132.3" font-family="Times,serif" font-size="14.00">K110943</text>
</g>
<!-- K110943&#45;&gt;K113690 -->
<g id="edge31" class="edge"><title>K110943&#45;&gt;K113690</title>
<path fill="none" stroke="black" d="M323.527,-149.5C323.527,-149.5 391.415,-149.5 391.415,-149.5"/>
<polygon fill="black" stroke="black" points="391.415,-153 401.415,-149.5 391.415,-146 391.415,-153"/>
</g>
<!-- K002357 -->
<g id="node31" class="node"><title>K002357</title>
<ellipse fill="none" stroke="black" cx="166.638" cy="-484" rx="43.5923" ry="18"/>
<text text-anchor="middle" x="166.638" y="-480.3" font-family="Times,serif" font-size="14.00">K002357</text>
</g>
<!-- K002357&#45;&gt;K020112 -->
<g id="edge32" class="edge"><title>K002357&#45;&gt;K020112</title>
<path fill="none" stroke="black" d="M194.998,-497.667C228.63,-497.667 280.185,-497.667 280.185,-497.667 280.185,-497.667 280.185,-498.684 280.185,-498.684"/>
<polygon fill="black" stroke="black" points="276.685,-497.845 280.185,-507.845 283.685,-497.845 276.685,-497.845"/>
</g>
<!-- K981293 -->
<g id="node32" class="node"><title>K981293</title>
<ellipse fill="none" stroke="black" cx="166.638" cy="-538" rx="43.5923" ry="18"/>
<text text-anchor="middle" x="166.638" y="-534.3" font-family="Times,serif" font-size="14.00">K981293</text>
</g>
<!-- K981293&#45;&gt;K020112 -->
<g id="edge33" class="edge"><title>K981293&#45;&gt;K020112</title>
<path fill="none" stroke="black" d="M207.505,-531.5C207.505,-531.5 243.767,-531.5 243.767,-531.5"/>
<polygon fill="black" stroke="black" points="243.767,-535 253.767,-531.5 243.767,-528 243.767,-535"/>
</g>
<!-- K944287 -->
<g id="node33" class="node"><title>K944287</title>
<ellipse fill="none" stroke="black" cx="43.5461" cy="-538" rx="43.5923" ry="18"/>
<text text-anchor="middle" x="43.5461" y="-534.3" font-family="Times,serif" font-size="14.00">K944287</text>
</g>
<!-- K944287&#45;&gt;K981293 -->
<g id="edge34" class="edge"><title>K944287&#45;&gt;K981293</title>
<path fill="none" stroke="black" d="M87.2905,-538C87.2905,-538 113.035,-538 113.035,-538"/>
<polygon fill="black" stroke="black" points="113.035,-541.5 123.035,-538 113.035,-534.5 113.035,-541.5"/>
</g>
<!-- K133454 -->
<g id="node34" class="node"><title>K133454</title>
<ellipse fill="none" stroke="black" cx="720.185" cy="-235" rx="43.5923" ry="18"/>
<text text-anchor="middle" x="720.185" y="-231.3" font-family="Times,serif" font-size="14.00">K133454</text>
</g>
<!-- K133454&#45;&gt;K153626 -->
<g id="edge35" class="edge"><title>K133454&#45;&gt;K153626</title>
<path fill="none" stroke="black" d="M763.784,-235C804.548,-235 859.185,-235 859.185,-235 859.185,-235 859.185,-260.718 859.185,-260.718"/>
<polygon fill="black" stroke="black" points="855.685,-260.718 859.185,-270.718 862.685,-260.718 855.685,-260.718"/>
</g>
<!-- K152209 -->
<g id="node35" class="node"><title>K152209</title>
<ellipse fill="none" stroke="black" cx="720.185" cy="-289" rx="43.5923" ry="18"/>
<text text-anchor="middle" x="720.185" y="-285.3" font-family="Times,serif" font-size="14.00">K152209</text>
</g>
<!-- K152209&#45;&gt;K153626 -->
<g id="edge36" class="edge"><title>K152209&#45;&gt;K153626</title>
<path fill="none" stroke="black" d="M763.784,-289C763.784,-289 793.974,-289 793.974,-289"/>
<polygon fill="black" stroke="black" points="793.974,-292.5 803.974,-289 793.973,-285.5 793.974,-292.5"/>
</g>
<!-- K113156 -->
<g id="node36" class="node"><title>K113156</title>
<ellipse fill="none" stroke="black" cx="577.185" cy="-203" rx="43.5923" ry="18"/>
<text text-anchor="middle" x="577.185" y="-199.3" font-family="Times,serif" font-size="14.00">K113156</text>
</g>
<!-- K113156&#45;&gt;K133454 -->
<g id="edge37" class="edge"><title>K113156&#45;&gt;K133454</title>
<path fill="none" stroke="black" d="M577.185,-221.159C577.185,-226.043 577.185,-230 577.185,-230 577.185,-230 668.053,-230 668.053,-230"/>
<polygon fill="black" stroke="black" points="668.053,-233.5 678.053,-230 668.053,-226.5 668.053,-233.5"/>
</g>
<!-- K130173 -->
<g id="node37" class="node"><title>K130173</title>
<ellipse fill="none" stroke="black" cx="577.185" cy="-257" rx="43.5923" ry="18"/>
<text text-anchor="middle" x="577.185" y="-253.3" font-family="Times,serif" font-size="14.00">K130173</text>
</g>
<!-- K130173&#45;&gt;K133454 -->
<g id="edge38" class="edge"><title>K130173&#45;&gt;K133454</title>
<path fill="none" stroke="black" d="M611.801,-246C611.801,-246 675.391,-246 675.391,-246"/>
<polygon fill="black" stroke="black" points="675.391,-249.5 685.391,-246 675.391,-242.5 675.391,-249.5"/>
</g>
<!-- K100598 -->
<g id="node38" class="node"><title>K100598</title>
<ellipse fill="none" stroke="black" cx="577.185" cy="-511" rx="43.5923" ry="18"/>
<text text-anchor="middle" x="577.185" y="-507.3" font-family="Times,serif" font-size="14.00">K100598</text>
</g>
<!-- K100598&#45;&gt;K151339 -->
<g id="edge40" class="edge"><title>K100598&#45;&gt;K151339</title>
<path fill="none" stroke="black" d="M620.866,-511C662.92,-511 720.185,-511 720.185,-511 720.185,-511 720.185,-485.282 720.185,-485.282"/>
<polygon fill="black" stroke="black" points="723.685,-485.282 720.185,-475.282 716.685,-485.282 723.685,-485.282"/>
</g>
</g>
</svg>
