<?xml version="1.0" encoding="UTF-8" standalone="no"?>
<!DOCTYPE svg PUBLIC "-//W3C//DTD SVG 1.1//EN"
 "http://www.w3.org/Graphics/SVG/1.1/DTD/svg11.dtd">
<!-- Generated by graphviz version 2.38.0 (20140413.2041)
 -->
<!-- Title: %3 Pages: 1 -->
<svg width="828pt" height="116pt"
 viewBox="0.00 0.00 827.98 116.00" xmlns="http://www.w3.org/2000/svg" xmlns:xlink="http://www.w3.org/1999/xlink">
<g id="graph0" class="graph" transform="scale(1 1) rotate(0) translate(4 112)">
<title>%3</title>
<polygon fill="white" stroke="none" points="-4,4 -4,-112 823.982,-112 823.982,4 -4,4"/>
<!-- ITF&#45;C_amplified_raw_signal -->
<g id="node1" class="node"><title>ITF&#45;C_amplified_raw_signal</title>
<ellipse fill="none" stroke="black" cx="114.39" cy="-90" rx="114.28" ry="18"/>
<text text-anchor="middle" x="114.39" y="-86.3" font-family="Times,serif" font-size="14.00">ITF&#45;C_amplified_raw_signal</text>
</g>
<!-- Bomanz -->
<g id="node2" class="node"><title>Bomanz</title>
<ellipse fill="none" stroke="black" cx="193.39" cy="-18" rx="40.0939" ry="18"/>
<text text-anchor="middle" x="193.39" y="-14.3" font-family="Times,serif" font-size="14.00">Bomanz</text>
</g>
<!-- ITF&#45;C_amplified_raw_signal&#45;&gt;Bomanz -->
<g id="edge1" class="edge"><title>ITF&#45;C_amplified_raw_signal&#45;&gt;Bomanz</title>
<path fill="none" stroke="black" d="M133.514,-72.055C143.949,-62.8081 156.998,-51.2458 168.248,-41.2774"/>
<polygon fill="black" stroke="black" points="170.896,-43.6079 176.059,-34.3564 166.253,-38.3687 170.896,-43.6079"/>
</g>
<!-- ITF&#45;E_signal_envelope -->
<g id="node3" class="node"><title>ITF&#45;E_signal_envelope</title>
<ellipse fill="none" stroke="black" cx="340.39" cy="-90" rx="93.6835" ry="18"/>
<text text-anchor="middle" x="340.39" y="-86.3" font-family="Times,serif" font-size="14.00">ITF&#45;E_signal_envelope</text>
</g>
<!-- ITF&#45;E_signal_envelope&#45;&gt;Bomanz -->
<g id="edge2" class="edge"><title>ITF&#45;E_signal_envelope&#45;&gt;Bomanz</title>
<path fill="none" stroke="black" d="M307.033,-73.1159C283.851,-62.0766 252.982,-47.3774 229.268,-36.0848"/>
<polygon fill="black" stroke="black" points="230.77,-32.9237 220.237,-31.7844 227.761,-39.2438 230.77,-32.9237"/>
</g>
<!-- RPi -->
<g id="node4" class="node"><title>RPi</title>
<ellipse fill="none" stroke="black" cx="547.39" cy="-90" rx="27" ry="18"/>
<text text-anchor="middle" x="547.39" y="-86.3" font-family="Times,serif" font-size="14.00">RPi</text>
</g>
<!-- ITF&#45;I_pulse_on -->
<g id="node5" class="node"><title>ITF&#45;I_pulse_on</title>
<ellipse fill="none" stroke="black" cx="396.39" cy="-18" rx="65.7887" ry="18"/>
<text text-anchor="middle" x="396.39" y="-14.3" font-family="Times,serif" font-size="14.00">ITF&#45;I_pulse_on</text>
</g>
<!-- RPi&#45;&gt;ITF&#45;I_pulse_on -->
<g id="edge3" class="edge"><title>RPi&#45;&gt;ITF&#45;I_pulse_on</title>
<path fill="none" stroke="black" d="M525.755,-78.9707C502.823,-68.3398 466.056,-51.2957 437.57,-38.0901"/>
<polygon fill="black" stroke="black" points="438.803,-34.8042 428.259,-33.7737 435.859,-41.155 438.803,-34.8042"/>
</g>
<!-- ITF&#45;J_pulse_off -->
<g id="node6" class="node"><title>ITF&#45;J_pulse_off</title>
<ellipse fill="none" stroke="black" cx="547.39" cy="-18" rx="67.6881" ry="18"/>
<text text-anchor="middle" x="547.39" y="-14.3" font-family="Times,serif" font-size="14.00">ITF&#45;J_pulse_off</text>
</g>
<!-- RPi&#45;&gt;ITF&#45;J_pulse_off -->
<g id="edge4" class="edge"><title>RPi&#45;&gt;ITF&#45;J_pulse_off</title>
<path fill="none" stroke="black" d="M547.39,-71.6966C547.39,-63.9827 547.39,-54.7125 547.39,-46.1124"/>
<polygon fill="black" stroke="black" points="550.89,-46.1043 547.39,-36.1043 543.89,-46.1044 550.89,-46.1043"/>
</g>
<!-- ITF&#45;N_cc_motor_pwm -->
<g id="node7" class="node"><title>ITF&#45;N_cc_motor_pwm</title>
<ellipse fill="none" stroke="black" cx="726.39" cy="-18" rx="93.6835" ry="18"/>
<text text-anchor="middle" x="726.39" y="-14.3" font-family="Times,serif" font-size="14.00">ITF&#45;N_cc_motor_pwm</text>
</g>
<!-- RPi&#45;&gt;ITF&#45;N_cc_motor_pwm -->
<g id="edge5" class="edge"><title>RPi&#45;&gt;ITF&#45;N_cc_motor_pwm</title>
<path fill="none" stroke="black" d="M570.06,-80.1345C596.889,-69.6427 642.333,-51.8715 677.33,-38.1854"/>
<polygon fill="black" stroke="black" points="678.861,-41.3447 686.9,-34.443 676.312,-34.8255 678.861,-41.3447"/>
</g>
</g>
</svg>
