<?xml version="1.0" encoding="UTF-8" standalone="no"?>
<!DOCTYPE svg PUBLIC "-//W3C//DTD SVG 1.1//EN"
 "http://www.w3.org/Graphics/SVG/1.1/DTD/svg11.dtd">
<!-- Generated by graphviz version 2.38.0 (20140413.2041)
 -->
<!-- Title: %3 Pages: 1 -->
<svg width="636pt" height="404pt"
 viewBox="0.00 0.00 636.09 404.00" xmlns="http://www.w3.org/2000/svg" xmlns:xlink="http://www.w3.org/1999/xlink">
<g id="graph0" class="graph" transform="scale(1 1) rotate(0) translate(4 400)">
<title>%3</title>
<polygon fill="white" stroke="none" points="-4,4 -4,-400 632.089,-400 632.089,4 -4,4"/>
<!-- ITF&#45;C_amplified_raw_signal -->
<g id="node1" class="node"><title>ITF&#45;C_amplified_raw_signal</title>
<ellipse fill="none" stroke="black" cx="221.644" cy="-306" rx="114.28" ry="18"/>
<text text-anchor="middle" x="221.644" y="-302.3" font-family="Times,serif" font-size="14.00">ITF&#45;C_amplified_raw_signal</text>
</g>
<!-- Bomanz -->
<g id="node2" class="node"><title>Bomanz</title>
<ellipse fill="none" stroke="black" cx="305.644" cy="-234" rx="40.0939" ry="18"/>
<text text-anchor="middle" x="305.644" y="-230.3" font-family="Times,serif" font-size="14.00">Bomanz</text>
</g>
<!-- ITF&#45;C_amplified_raw_signal&#45;&gt;Bomanz -->
<g id="edge1" class="edge"><title>ITF&#45;C_amplified_raw_signal&#45;&gt;Bomanz</title>
<path fill="none" stroke="black" d="M241.978,-288.055C253.261,-278.653 267.417,-266.856 279.513,-256.776"/>
<polygon fill="black" stroke="black" points="282.057,-259.212 287.498,-250.122 277.575,-253.835 282.057,-259.212"/>
</g>
<!-- RPi -->
<g id="node5" class="node"><title>RPi</title>
<ellipse fill="none" stroke="black" cx="305.644" cy="-162" rx="27" ry="18"/>
<text text-anchor="middle" x="305.644" y="-158.3" font-family="Times,serif" font-size="14.00">RPi</text>
</g>
<!-- Bomanz&#45;&gt;RPi -->
<g id="edge4" class="edge"><title>Bomanz&#45;&gt;RPi</title>
<path fill="none" stroke="black" d="M305.644,-215.697C305.644,-207.983 305.644,-198.712 305.644,-190.112"/>
<polygon fill="black" stroke="black" points="309.144,-190.104 305.644,-180.104 302.144,-190.104 309.144,-190.104"/>
</g>
<!-- ITF&#45;E_signal_envelope -->
<g id="node3" class="node"><title>ITF&#45;E_signal_envelope</title>
<ellipse fill="none" stroke="black" cx="390.644" cy="-378" rx="93.6835" ry="18"/>
<text text-anchor="middle" x="390.644" y="-374.3" font-family="Times,serif" font-size="14.00">ITF&#45;E_signal_envelope</text>
</g>
<!-- Jumper -->
<g id="node4" class="node"><title>Jumper</title>
<ellipse fill="none" stroke="black" cx="390.644" cy="-306" rx="37.0935" ry="18"/>
<text text-anchor="middle" x="390.644" y="-302.3" font-family="Times,serif" font-size="14.00">Jumper</text>
</g>
<!-- ITF&#45;E_signal_envelope&#45;&gt;Jumper -->
<g id="edge2" class="edge"><title>ITF&#45;E_signal_envelope&#45;&gt;Jumper</title>
<path fill="none" stroke="black" d="M390.644,-359.697C390.644,-351.983 390.644,-342.712 390.644,-334.112"/>
<polygon fill="black" stroke="black" points="394.144,-334.104 390.644,-324.104 387.144,-334.104 394.144,-334.104"/>
</g>
<!-- Jumper&#45;&gt;Bomanz -->
<g id="edge3" class="edge"><title>Jumper&#45;&gt;Bomanz</title>
<path fill="none" stroke="black" d="M372.618,-290.155C360.753,-280.384 345.028,-267.434 331.797,-256.537"/>
<polygon fill="black" stroke="black" points="333.882,-253.72 323.938,-250.065 329.432,-259.124 333.882,-253.72"/>
</g>
<!-- ITF&#45;I_pulse_on -->
<g id="node6" class="node"><title>ITF&#45;I_pulse_on</title>
<ellipse fill="none" stroke="black" cx="65.6442" cy="-90" rx="65.7887" ry="18"/>
<text text-anchor="middle" x="65.6442" y="-86.3" font-family="Times,serif" font-size="14.00">ITF&#45;I_pulse_on</text>
</g>
<!-- RPi&#45;&gt;ITF&#45;I_pulse_on -->
<g id="edge5" class="edge"><title>RPi&#45;&gt;ITF&#45;I_pulse_on</title>
<path fill="none" stroke="black" d="M281.311,-153.903C243.437,-142.856 169.485,-121.287 118.837,-106.515"/>
<polygon fill="black" stroke="black" points="119.616,-103.096 109.036,-103.656 117.656,-109.816 119.616,-103.096"/>
</g>
<!-- ITF&#45;J_pulse_off -->
<g id="node7" class="node"><title>ITF&#45;J_pulse_off</title>
<ellipse fill="none" stroke="black" cx="216.644" cy="-90" rx="67.6881" ry="18"/>
<text text-anchor="middle" x="216.644" y="-86.3" font-family="Times,serif" font-size="14.00">ITF&#45;J_pulse_off</text>
</g>
<!-- RPi&#45;&gt;ITF&#45;J_pulse_off -->
<g id="edge6" class="edge"><title>RPi&#45;&gt;ITF&#45;J_pulse_off</title>
<path fill="none" stroke="black" d="M288.904,-147.834C276.697,-138.233 259.85,-124.982 245.494,-113.691"/>
<polygon fill="black" stroke="black" points="247.407,-110.742 237.383,-107.311 243.079,-116.244 247.407,-110.742"/>
</g>
<!-- ITF&#45;N_cc_motor_pwm -->
<g id="node8" class="node"><title>ITF&#45;N_cc_motor_pwm</title>
<ellipse fill="none" stroke="black" cx="395.644" cy="-90" rx="93.6835" ry="18"/>
<text text-anchor="middle" x="395.644" y="-86.3" font-family="Times,serif" font-size="14.00">ITF&#45;N_cc_motor_pwm</text>
</g>
<!-- RPi&#45;&gt;ITF&#45;N_cc_motor_pwm -->
<g id="edge7" class="edge"><title>RPi&#45;&gt;ITF&#45;N_cc_motor_pwm</title>
<path fill="none" stroke="black" d="M322.572,-147.834C334.831,-138.299 351.718,-125.165 366.17,-113.925"/>
<polygon fill="black" stroke="black" points="368.599,-116.469 374.344,-107.567 364.302,-110.944 368.599,-116.469"/>
</g>
<!-- /dev/charnode -->
<g id="node9" class="node"><title>/dev/charnode</title>
<ellipse fill="none" stroke="black" cx="567.644" cy="-90" rx="60.3893" ry="18"/>
<text text-anchor="middle" x="567.644" y="-86.3" font-family="Times,serif" font-size="14.00">/dev/charnode</text>
</g>
<!-- RPi&#45;&gt;/dev/charnode -->
<g id="edge8" class="edge"><title>RPi&#45;&gt;/dev/charnode</title>
<path fill="none" stroke="black" d="M330.292,-154.415C372.232,-143.209 458.377,-120.193 514.535,-105.189"/>
<polygon fill="black" stroke="black" points="515.553,-108.54 524.31,-102.578 513.746,-101.778 515.553,-108.54"/>
</g>
<!-- Wifi -->
<g id="node10" class="node"><title>Wifi</title>
<ellipse fill="none" stroke="black" cx="567.644" cy="-18" rx="27.0966" ry="18"/>
<text text-anchor="middle" x="567.644" y="-14.3" font-family="Times,serif" font-size="14.00">Wifi</text>
</g>
<!-- /dev/charnode&#45;&gt;Wifi -->
<g id="edge9" class="edge"><title>/dev/charnode&#45;&gt;Wifi</title>
<path fill="none" stroke="black" d="M567.644,-71.6966C567.644,-63.9827 567.644,-54.7125 567.644,-46.1124"/>
<polygon fill="black" stroke="black" points="571.144,-46.1043 567.644,-36.1043 564.144,-46.1044 571.144,-46.1043"/>
</g>
</g>
</svg>
