<?xml version="1.0" encoding="UTF-8" standalone="no"?>
<!DOCTYPE svg PUBLIC "-//W3C//DTD SVG 1.1//EN"
 "http://www.w3.org/Graphics/SVG/1.1/DTD/svg11.dtd">
<!-- Generated by graphviz version 2.38.0 (20140413.2041)
 -->
<!-- Title: %3 Pages: 1 -->
<svg width="508pt" height="260pt"
 viewBox="0.00 0.00 507.98 260.00" xmlns="http://www.w3.org/2000/svg" xmlns:xlink="http://www.w3.org/1999/xlink">
<g id="graph0" class="graph" transform="scale(1 1) rotate(0) translate(4 256)">
<title>%3</title>
<polygon fill="white" stroke="none" points="-4,4 -4,-256 503.982,-256 503.982,4 -4,4"/>
<!-- ITF&#45;C_amplified_raw_signal -->
<g id="node1" class="node"><title>ITF&#45;C_amplified_raw_signal</title>
<ellipse fill="none" stroke="black" cx="114.39" cy="-234" rx="114.28" ry="18"/>
<text text-anchor="middle" x="114.39" y="-230.3" font-family="Times,serif" font-size="14.00">ITF&#45;C_amplified_raw_signal</text>
</g>
<!-- Bomanz -->
<g id="node2" class="node"><title>Bomanz</title>
<ellipse fill="none" stroke="black" cx="227.39" cy="-162" rx="40.0939" ry="18"/>
<text text-anchor="middle" x="227.39" y="-158.3" font-family="Times,serif" font-size="14.00">Bomanz</text>
</g>
<!-- ITF&#45;C_amplified_raw_signal&#45;&gt;Bomanz -->
<g id="edge1" class="edge"><title>ITF&#45;C_amplified_raw_signal&#45;&gt;Bomanz</title>
<path fill="none" stroke="black" d="M141.169,-216.411C157.62,-206.22 178.77,-193.118 196.006,-182.442"/>
<polygon fill="black" stroke="black" points="197.958,-185.349 204.616,-177.108 194.272,-179.398 197.958,-185.349"/>
</g>
<!-- RPi -->
<g id="node4" class="node"><title>RPi</title>
<ellipse fill="none" stroke="black" cx="227.39" cy="-90" rx="27" ry="18"/>
<text text-anchor="middle" x="227.39" y="-86.3" font-family="Times,serif" font-size="14.00">RPi</text>
</g>
<!-- Bomanz&#45;&gt;RPi -->
<g id="edge3" class="edge"><title>Bomanz&#45;&gt;RPi</title>
<path fill="none" stroke="black" d="M227.39,-143.697C227.39,-135.983 227.39,-126.712 227.39,-118.112"/>
<polygon fill="black" stroke="black" points="230.89,-118.104 227.39,-108.104 223.89,-118.104 230.89,-118.104"/>
</g>
<!-- ITF&#45;E_signal_envelope -->
<g id="node3" class="node"><title>ITF&#45;E_signal_envelope</title>
<ellipse fill="none" stroke="black" cx="340.39" cy="-234" rx="93.6835" ry="18"/>
<text text-anchor="middle" x="340.39" y="-230.3" font-family="Times,serif" font-size="14.00">ITF&#45;E_signal_envelope</text>
</g>
<!-- ITF&#45;E_signal_envelope&#45;&gt;Bomanz -->
<g id="edge2" class="edge"><title>ITF&#45;E_signal_envelope&#45;&gt;Bomanz</title>
<path fill="none" stroke="black" d="M313.896,-216.588C297.342,-206.333 275.947,-193.08 258.576,-182.319"/>
<polygon fill="black" stroke="black" points="260.25,-179.239 249.906,-176.948 256.564,-185.19 260.25,-179.239"/>
</g>
<!-- ITF&#45;I_pulse_on -->
<g id="node5" class="node"><title>ITF&#45;I_pulse_on</title>
<ellipse fill="none" stroke="black" cx="76.3899" cy="-18" rx="65.7887" ry="18"/>
<text text-anchor="middle" x="76.3899" y="-14.3" font-family="Times,serif" font-size="14.00">ITF&#45;I_pulse_on</text>
</g>
<!-- RPi&#45;&gt;ITF&#45;I_pulse_on -->
<g id="edge4" class="edge"><title>RPi&#45;&gt;ITF&#45;I_pulse_on</title>
<path fill="none" stroke="black" d="M205.755,-78.9707C182.823,-68.3398 146.056,-51.2957 117.57,-38.0901"/>
<polygon fill="black" stroke="black" points="118.803,-34.8042 108.259,-33.7737 115.859,-41.155 118.803,-34.8042"/>
</g>
<!-- ITF&#45;J_pulse_off -->
<g id="node6" class="node"><title>ITF&#45;J_pulse_off</title>
<ellipse fill="none" stroke="black" cx="227.39" cy="-18" rx="67.6881" ry="18"/>
<text text-anchor="middle" x="227.39" y="-14.3" font-family="Times,serif" font-size="14.00">ITF&#45;J_pulse_off</text>
</g>
<!-- RPi&#45;&gt;ITF&#45;J_pulse_off -->
<g id="edge5" class="edge"><title>RPi&#45;&gt;ITF&#45;J_pulse_off</title>
<path fill="none" stroke="black" d="M227.39,-71.6966C227.39,-63.9827 227.39,-54.7125 227.39,-46.1124"/>
<polygon fill="black" stroke="black" points="230.89,-46.1043 227.39,-36.1043 223.89,-46.1044 230.89,-46.1043"/>
</g>
<!-- ITF&#45;N_cc_motor_pwm -->
<g id="node7" class="node"><title>ITF&#45;N_cc_motor_pwm</title>
<ellipse fill="none" stroke="black" cx="406.39" cy="-18" rx="93.6835" ry="18"/>
<text text-anchor="middle" x="406.39" y="-14.3" font-family="Times,serif" font-size="14.00">ITF&#45;N_cc_motor_pwm</text>
</g>
<!-- RPi&#45;&gt;ITF&#45;N_cc_motor_pwm -->
<g id="edge6" class="edge"><title>RPi&#45;&gt;ITF&#45;N_cc_motor_pwm</title>
<path fill="none" stroke="black" d="M250.06,-80.1345C276.889,-69.6427 322.333,-51.8715 357.33,-38.1854"/>
<polygon fill="black" stroke="black" points="358.861,-41.3447 366.9,-34.443 356.312,-34.8255 358.861,-41.3447"/>
</g>
</g>
</svg>
