<?xml version="1.0" encoding="UTF-8" standalone="no"?>
<!DOCTYPE svg PUBLIC "-//W3C//DTD SVG 1.1//EN"
 "http://www.w3.org/Graphics/SVG/1.1/DTD/svg11.dtd">
<!-- Generated by graphviz version 2.38.0 (20140413.2041)
 -->
<!-- Title: %3 Pages: 1 -->
<svg width="616pt" height="404pt"
 viewBox="0.00 0.00 616.24 404.00" xmlns="http://www.w3.org/2000/svg" xmlns:xlink="http://www.w3.org/1999/xlink">
<g id="graph0" class="graph" transform="scale(1 1) rotate(0) translate(4 400)">
<title>%3</title>
<polygon fill="white" stroke="none" points="-4,4 -4,-400 612.239,-400 612.239,4 -4,4"/>
<!-- ITF&#45;15_GPIO21 -->
<g id="node1" class="node"><title>ITF&#45;15_GPIO21</title>
<ellipse fill="none" stroke="black" cx="119.795" cy="-234" rx="69.5877" ry="18"/>
<text text-anchor="middle" x="119.795" y="-230.3" font-family="Times,serif" font-size="14.00">ITF&#45;15_GPIO21</text>
</g>
<!-- RPi -->
<g id="node2" class="node"><title>RPi</title>
<ellipse fill="none" stroke="black" cx="287.795" cy="-162" rx="27" ry="18"/>
<text text-anchor="middle" x="287.795" y="-158.3" font-family="Times,serif" font-size="14.00">RPi</text>
</g>
<!-- ITF&#45;15_GPIO21&#45;&gt;RPi -->
<g id="edge1" class="edge"><title>ITF&#45;15_GPIO21&#45;&gt;RPi</title>
<path fill="none" stroke="black" d="M155.013,-218.326C184.793,-205.917 227.091,-188.293 255.89,-176.294"/>
<polygon fill="black" stroke="black" points="257.586,-179.379 265.471,-172.302 254.894,-172.917 257.586,-179.379"/>
</g>
<!-- ITF&#45;16_POn3 -->
<g id="node8" class="node"><title>ITF&#45;16_POn3</title>
<ellipse fill="none" stroke="black" cx="59.7947" cy="-90" rx="59.5901" ry="18"/>
<text text-anchor="middle" x="59.7947" y="-86.3" font-family="Times,serif" font-size="14.00">ITF&#45;16_POn3</text>
</g>
<!-- RPi&#45;&gt;ITF&#45;16_POn3 -->
<g id="edge7" class="edge"><title>RPi&#45;&gt;ITF&#45;16_POn3</title>
<path fill="none" stroke="black" d="M263.826,-153.641C227.534,-142.499 157.821,-121.096 110.076,-106.437"/>
<polygon fill="black" stroke="black" points="110.827,-103.007 100.241,-103.418 108.773,-109.698 110.827,-103.007"/>
</g>
<!-- ITF&#45;11_OffSig -->
<g id="node9" class="node"><title>ITF&#45;11_OffSig</title>
<ellipse fill="none" stroke="black" cx="200.795" cy="-90" rx="63.8893" ry="18"/>
<text text-anchor="middle" x="200.795" y="-86.3" font-family="Times,serif" font-size="14.00">ITF&#45;11_OffSig</text>
</g>
<!-- RPi&#45;&gt;ITF&#45;11_OffSig -->
<g id="edge8" class="edge"><title>RPi&#45;&gt;ITF&#45;11_OffSig</title>
<path fill="none" stroke="black" d="M271.02,-147.503C259.05,-137.872 242.672,-124.694 228.743,-113.487"/>
<polygon fill="black" stroke="black" points="230.862,-110.7 220.877,-107.158 226.474,-116.154 230.862,-110.7"/>
</g>
<!-- ITF&#45;N_cc_motor_pwm -->
<g id="node10" class="node"><title>ITF&#45;N_cc_motor_pwm</title>
<ellipse fill="none" stroke="black" cx="375.795" cy="-90" rx="93.6835" ry="18"/>
<text text-anchor="middle" x="375.795" y="-86.3" font-family="Times,serif" font-size="14.00">ITF&#45;N_cc_motor_pwm</text>
</g>
<!-- RPi&#45;&gt;ITF&#45;N_cc_motor_pwm -->
<g id="edge9" class="edge"><title>RPi&#45;&gt;ITF&#45;N_cc_motor_pwm</title>
<path fill="none" stroke="black" d="M304.762,-147.503C316.703,-138.005 332.98,-125.057 346.941,-113.952"/>
<polygon fill="black" stroke="black" points="349.195,-116.631 354.842,-107.667 344.837,-111.153 349.195,-116.631"/>
</g>
<!-- /dev/charnode -->
<g id="node11" class="node"><title>/dev/charnode</title>
<ellipse fill="none" stroke="black" cx="547.795" cy="-90" rx="60.3893" ry="18"/>
<text text-anchor="middle" x="547.795" y="-86.3" font-family="Times,serif" font-size="14.00">/dev/charnode</text>
</g>
<!-- RPi&#45;&gt;/dev/charnode -->
<g id="edge10" class="edge"><title>RPi&#45;&gt;/dev/charnode</title>
<path fill="none" stroke="black" d="M312.725,-154.288C354.451,-143.054 439.311,-120.207 494.837,-105.258"/>
<polygon fill="black" stroke="black" points="495.759,-108.634 504.505,-102.655 493.939,-101.875 495.759,-108.634"/>
</g>
<!-- ITF&#45;4_RawSig -->
<g id="node3" class="node"><title>ITF&#45;4_RawSig</title>
<ellipse fill="none" stroke="black" cx="301.795" cy="-378" rx="63.8893" ry="18"/>
<text text-anchor="middle" x="301.795" y="-374.3" font-family="Times,serif" font-size="14.00">ITF&#45;4_RawSig</text>
</g>
<!-- Jumper -->
<g id="node4" class="node"><title>Jumper</title>
<ellipse fill="none" stroke="black" cx="369.795" cy="-306" rx="37.0935" ry="18"/>
<text text-anchor="middle" x="369.795" y="-302.3" font-family="Times,serif" font-size="14.00">Jumper</text>
</g>
<!-- ITF&#45;4_RawSig&#45;&gt;Jumper -->
<g id="edge2" class="edge"><title>ITF&#45;4_RawSig&#45;&gt;Jumper</title>
<path fill="none" stroke="black" d="M317.91,-360.411C326.798,-351.261 337.966,-339.765 347.662,-329.784"/>
<polygon fill="black" stroke="black" points="350.27,-332.122 354.727,-322.511 345.249,-327.245 350.27,-332.122"/>
</g>
<!-- ADC Cape (elmo) -->
<g id="node5" class="node"><title>ADC Cape (elmo)</title>
<ellipse fill="none" stroke="black" cx="283.795" cy="-234" rx="76.0865" ry="18"/>
<text text-anchor="middle" x="283.795" y="-230.3" font-family="Times,serif" font-size="14.00">ADC Cape (elmo)</text>
</g>
<!-- Jumper&#45;&gt;ADC Cape (elmo) -->
<g id="edge3" class="edge"><title>Jumper&#45;&gt;ADC Cape (elmo)</title>
<path fill="none" stroke="black" d="M351.556,-290.155C340.042,-280.783 324.934,-268.486 311.906,-257.882"/>
<polygon fill="black" stroke="black" points="314.079,-255.137 304.114,-251.539 309.66,-260.566 314.079,-255.137"/>
</g>
<!-- ADC Cape &#160;(elmo) -->
<g id="node7" class="node"><title>ADC Cape &#160;(elmo)</title>
<ellipse fill="none" stroke="black" cx="456.795" cy="-234" rx="78.7863" ry="18"/>
<text text-anchor="middle" x="456.795" y="-230.3" font-family="Times,serif" font-size="14.00">ADC Cape &#160;(elmo)</text>
</g>
<!-- Jumper&#45;&gt;ADC Cape &#160;(elmo) -->
<g id="edge5" class="edge"><title>Jumper&#45;&gt;ADC Cape &#160;(elmo)</title>
<path fill="none" stroke="black" d="M388.245,-290.155C399.893,-280.783 415.177,-268.486 428.356,-257.882"/>
<polygon fill="black" stroke="black" points="430.642,-260.535 436.239,-251.539 426.254,-255.081 430.642,-260.535"/>
</g>
<!-- ITF&#45;3_ENV -->
<g id="node6" class="node"><title>ITF&#45;3_ENV</title>
<ellipse fill="none" stroke="black" cx="437.795" cy="-378" rx="53.8905" ry="18"/>
<text text-anchor="middle" x="437.795" y="-374.3" font-family="Times,serif" font-size="14.00">ITF&#45;3_ENV</text>
</g>
<!-- ITF&#45;3_ENV&#45;&gt;Jumper -->
<g id="edge4" class="edge"><title>ITF&#45;3_ENV&#45;&gt;Jumper</title>
<path fill="none" stroke="black" d="M422.023,-360.765C413.144,-351.624 401.91,-340.06 392.138,-330"/>
<polygon fill="black" stroke="black" points="394.491,-327.4 385.013,-322.666 389.47,-332.277 394.491,-327.4"/>
</g>
<!-- ADC Cape &#160;(elmo)&#45;&gt;RPi -->
<g id="edge6" class="edge"><title>ADC Cape &#160;(elmo)&#45;&gt;RPi</title>
<path fill="none" stroke="black" d="M420.54,-217.983C390.695,-205.621 348.775,-188.258 320.074,-176.37"/>
<polygon fill="black" stroke="black" points="321.094,-173.004 310.515,-172.411 318.415,-179.471 321.094,-173.004"/>
</g>
<!-- Wifi -->
<g id="node12" class="node"><title>Wifi</title>
<ellipse fill="none" stroke="black" cx="547.795" cy="-18" rx="27.0966" ry="18"/>
<text text-anchor="middle" x="547.795" y="-14.3" font-family="Times,serif" font-size="14.00">Wifi</text>
</g>
<!-- /dev/charnode&#45;&gt;Wifi -->
<g id="edge11" class="edge"><title>/dev/charnode&#45;&gt;Wifi</title>
<path fill="none" stroke="black" d="M547.795,-71.6966C547.795,-63.9827 547.795,-54.7125 547.795,-46.1124"/>
<polygon fill="black" stroke="black" points="551.295,-46.1043 547.795,-36.1043 544.295,-46.1044 551.295,-46.1043"/>
</g>
</g>
</svg>
