<?xml version="1.0" encoding="UTF-8" standalone="no"?>
<!DOCTYPE svg PUBLIC "-//W3C//DTD SVG 1.1//EN"
 "http://www.w3.org/Graphics/SVG/1.1/DTD/svg11.dtd">
<!-- Generated by graphviz version 2.38.0 (20140413.2041)
 -->
<!-- Title: %3 Pages: 1 -->
<svg width="613pt" height="404pt"
 viewBox="0.00 0.00 613.24 404.00" xmlns="http://www.w3.org/2000/svg" xmlns:xlink="http://www.w3.org/1999/xlink">
<g id="graph0" class="graph" transform="scale(1 1) rotate(0) translate(4 400)">
<title>%3</title>
<polygon fill="white" stroke="none" points="-4,4 -4,-400 609.239,-400 609.239,4 -4,4"/>
<!-- ITF&#45;15_GPIO21 -->
<g id="node1" class="node"><title>ITF&#45;15_GPIO21</title>
<ellipse fill="none" stroke="black" cx="203.795" cy="-234" rx="69.5877" ry="18"/>
<text text-anchor="middle" x="203.795" y="-230.3" font-family="Times,serif" font-size="14.00">ITF&#45;15_GPIO21</text>
</g>
<!-- RPi -->
<g id="node2" class="node"><title>RPi</title>
<ellipse fill="none" stroke="black" cx="285.795" cy="-162" rx="27" ry="18"/>
<text text-anchor="middle" x="285.795" y="-158.3" font-family="Times,serif" font-size="14.00">RPi</text>
</g>
<!-- ITF&#45;15_GPIO21&#45;&gt;RPi -->
<g id="edge1" class="edge"><title>ITF&#45;15_GPIO21&#45;&gt;RPi</title>
<path fill="none" stroke="black" d="M223.228,-216.411C234.883,-206.462 249.788,-193.737 262.127,-183.204"/>
<polygon fill="black" stroke="black" points="264.472,-185.805 269.805,-176.65 259.927,-180.481 264.472,-185.805"/>
</g>
<!-- ITF&#45;16_POn3 -->
<g id="node7" class="node"><title>ITF&#45;16_POn3</title>
<ellipse fill="none" stroke="black" cx="59.7947" cy="-90" rx="59.5901" ry="18"/>
<text text-anchor="middle" x="59.7947" y="-86.3" font-family="Times,serif" font-size="14.00">ITF&#45;16_POn3</text>
</g>
<!-- RPi&#45;&gt;ITF&#45;16_POn3 -->
<g id="edge7" class="edge"><title>RPi&#45;&gt;ITF&#45;16_POn3</title>
<path fill="none" stroke="black" d="M261.609,-153.509C225.57,-142.346 156.972,-121.099 109.838,-106.5"/>
<polygon fill="black" stroke="black" points="110.714,-103.107 100.126,-103.492 108.642,-109.794 110.714,-103.107"/>
</g>
<!-- ITF&#45;17_POff3 -->
<g id="node8" class="node"><title>ITF&#45;17_POff3</title>
<ellipse fill="none" stroke="black" cx="199.795" cy="-90" rx="61.99" ry="18"/>
<text text-anchor="middle" x="199.795" y="-86.3" font-family="Times,serif" font-size="14.00">ITF&#45;17_POff3</text>
</g>
<!-- RPi&#45;&gt;ITF&#45;17_POff3 -->
<g id="edge8" class="edge"><title>RPi&#45;&gt;ITF&#45;17_POff3</title>
<path fill="none" stroke="black" d="M269.213,-147.503C257.38,-137.872 241.19,-124.694 227.422,-113.487"/>
<polygon fill="black" stroke="black" points="229.611,-110.757 219.646,-107.158 225.193,-116.186 229.611,-110.757"/>
</g>
<!-- ITF&#45;N_cc_motor_pwm -->
<g id="node10" class="node"><title>ITF&#45;N_cc_motor_pwm</title>
<ellipse fill="none" stroke="black" cx="372.795" cy="-90" rx="93.6835" ry="18"/>
<text text-anchor="middle" x="372.795" y="-86.3" font-family="Times,serif" font-size="14.00">ITF&#45;N_cc_motor_pwm</text>
</g>
<!-- RPi&#45;&gt;ITF&#45;N_cc_motor_pwm -->
<g id="edge11" class="edge"><title>RPi&#45;&gt;ITF&#45;N_cc_motor_pwm</title>
<path fill="none" stroke="black" d="M302.569,-147.503C314.374,-138.005 330.467,-125.057 344.268,-113.952"/>
<polygon fill="black" stroke="black" points="346.483,-116.662 352.08,-107.667 342.095,-111.209 346.483,-116.662"/>
</g>
<!-- /dev/charnode -->
<g id="node11" class="node"><title>/dev/charnode</title>
<ellipse fill="none" stroke="black" cx="544.795" cy="-90" rx="60.3893" ry="18"/>
<text text-anchor="middle" x="544.795" y="-86.3" font-family="Times,serif" font-size="14.00">/dev/charnode</text>
</g>
<!-- RPi&#45;&gt;/dev/charnode -->
<g id="edge12" class="edge"><title>RPi&#45;&gt;/dev/charnode</title>
<path fill="none" stroke="black" d="M310.629,-154.288C352.108,-143.077 436.378,-120.302 491.696,-105.351"/>
<polygon fill="black" stroke="black" points="492.931,-108.643 501.672,-102.655 491.105,-101.885 492.931,-108.643"/>
</g>
<!-- ITF&#45;4_RawSig -->
<g id="node3" class="node"><title>ITF&#45;4_RawSig</title>
<ellipse fill="none" stroke="black" cx="231.795" cy="-378" rx="63.8893" ry="18"/>
<text text-anchor="middle" x="231.795" y="-374.3" font-family="Times,serif" font-size="14.00">ITF&#45;4_RawSig</text>
</g>
<!-- Jumper -->
<g id="node4" class="node"><title>Jumper</title>
<ellipse fill="none" stroke="black" cx="367.795" cy="-306" rx="37.0935" ry="18"/>
<text text-anchor="middle" x="367.795" y="-302.3" font-family="Times,serif" font-size="14.00">Jumper</text>
</g>
<!-- ITF&#45;4_RawSig&#45;&gt;Jumper -->
<g id="edge2" class="edge"><title>ITF&#45;4_RawSig&#45;&gt;Jumper</title>
<path fill="none" stroke="black" d="M260.97,-361.983C282.414,-350.946 311.605,-335.921 334.053,-324.367"/>
<polygon fill="black" stroke="black" points="335.929,-327.338 343.219,-319.649 332.726,-321.114 335.929,-327.338"/>
</g>
<!-- ADC Cape (elmo) -->
<g id="node5" class="node"><title>ADC Cape (elmo)</title>
<ellipse fill="none" stroke="black" cx="367.795" cy="-234" rx="76.0865" ry="18"/>
<text text-anchor="middle" x="367.795" y="-230.3" font-family="Times,serif" font-size="14.00">ADC Cape (elmo)</text>
</g>
<!-- Jumper&#45;&gt;ADC Cape (elmo) -->
<g id="edge3" class="edge"><title>Jumper&#45;&gt;ADC Cape (elmo)</title>
<path fill="none" stroke="black" d="M356.193,-288.765C354.421,-280.869 353.89,-271.164 354.599,-262.183"/>
<polygon fill="black" stroke="black" points="358.087,-262.511 356.001,-252.124 351.154,-261.545 358.087,-262.511"/>
</g>
<!-- Jumper&#45;&gt;ADC Cape (elmo) -->
<g id="edge5" class="edge"><title>Jumper&#45;&gt;ADC Cape (elmo)</title>
<path fill="none" stroke="black" d="M367.795,-287.697C367.795,-279.983 367.795,-270.712 367.795,-262.112"/>
<polygon fill="black" stroke="black" points="371.295,-262.104 367.795,-252.104 364.295,-262.104 371.295,-262.104"/>
</g>
<!-- Jumper&#45;&gt;ADC Cape (elmo) -->
<g id="edge10" class="edge"><title>Jumper&#45;&gt;ADC Cape (elmo)</title>
<path fill="none" stroke="black" d="M379.396,-288.765C381.168,-280.869 381.7,-271.164 380.991,-262.183"/>
<polygon fill="black" stroke="black" points="384.436,-261.545 379.589,-252.124 377.503,-262.511 384.436,-261.545"/>
</g>
<!-- ADC Cape (elmo)&#45;&gt;RPi -->
<g id="edge6" class="edge"><title>ADC Cape (elmo)&#45;&gt;RPi</title>
<path fill="none" stroke="black" d="M348.362,-216.411C336.707,-206.462 321.801,-193.737 309.462,-183.204"/>
<polygon fill="black" stroke="black" points="311.663,-180.481 301.785,-176.65 307.118,-185.805 311.663,-180.481"/>
</g>
<!-- ITF&#45;3_ENV -->
<g id="node6" class="node"><title>ITF&#45;3_ENV</title>
<ellipse fill="none" stroke="black" cx="367.795" cy="-378" rx="53.8905" ry="18"/>
<text text-anchor="middle" x="367.795" y="-374.3" font-family="Times,serif" font-size="14.00">ITF&#45;3_ENV</text>
</g>
<!-- ITF&#45;3_ENV&#45;&gt;Jumper -->
<g id="edge4" class="edge"><title>ITF&#45;3_ENV&#45;&gt;Jumper</title>
<path fill="none" stroke="black" d="M367.795,-359.697C367.795,-351.983 367.795,-342.712 367.795,-334.112"/>
<polygon fill="black" stroke="black" points="371.295,-334.104 367.795,-324.104 364.295,-334.104 371.295,-334.104"/>
</g>
<!-- ITF&#45;11_OffSig -->
<g id="node9" class="node"><title>ITF&#45;11_OffSig</title>
<ellipse fill="none" stroke="black" cx="503.795" cy="-378" rx="63.8893" ry="18"/>
<text text-anchor="middle" x="503.795" y="-374.3" font-family="Times,serif" font-size="14.00">ITF&#45;11_OffSig</text>
</g>
<!-- ITF&#45;11_OffSig&#45;&gt;Jumper -->
<g id="edge9" class="edge"><title>ITF&#45;11_OffSig&#45;&gt;Jumper</title>
<path fill="none" stroke="black" d="M474.619,-361.983C453.175,-350.946 423.984,-335.921 401.536,-324.367"/>
<polygon fill="black" stroke="black" points="402.863,-321.114 392.37,-319.649 399.66,-327.338 402.863,-321.114"/>
</g>
<!-- Wifi -->
<g id="node12" class="node"><title>Wifi</title>
<ellipse fill="none" stroke="black" cx="544.795" cy="-18" rx="27.0966" ry="18"/>
<text text-anchor="middle" x="544.795" y="-14.3" font-family="Times,serif" font-size="14.00">Wifi</text>
</g>
<!-- /dev/charnode&#45;&gt;Wifi -->
<g id="edge13" class="edge"><title>/dev/charnode&#45;&gt;Wifi</title>
<path fill="none" stroke="black" d="M544.795,-71.6966C544.795,-63.9827 544.795,-54.7125 544.795,-46.1124"/>
<polygon fill="black" stroke="black" points="548.295,-46.1043 544.795,-36.1043 541.295,-46.1044 548.295,-46.1043"/>
</g>
</g>
</svg>
