G04 Layer_Physical_Order=2*
G04 Layer_Color=16711680*
%FSAX24Y24*%
%MOIN*%
G70*
G01*
G75*
G04:AMPARAMS|DCode=10|XSize=59.1mil|YSize=51.2mil|CornerRadius=12.8mil|HoleSize=0mil|Usage=FLASHONLY|Rotation=180.000|XOffset=0mil|YOffset=0mil|HoleType=Round|Shape=RoundedRectangle|*
%AMROUNDEDRECTD10*
21,1,0.0591,0.0256,0,0,180.0*
21,1,0.0335,0.0512,0,0,180.0*
1,1,0.0256,-0.0167,0.0128*
1,1,0.0256,0.0167,0.0128*
1,1,0.0256,0.0167,-0.0128*
1,1,0.0256,-0.0167,-0.0128*
%
%ADD10ROUNDEDRECTD10*%
G04:AMPARAMS|DCode=11|XSize=59.1mil|YSize=51.2mil|CornerRadius=12.8mil|HoleSize=0mil|Usage=FLASHONLY|Rotation=90.000|XOffset=0mil|YOffset=0mil|HoleType=Round|Shape=RoundedRectangle|*
%AMROUNDEDRECTD11*
21,1,0.0591,0.0256,0,0,90.0*
21,1,0.0335,0.0512,0,0,90.0*
1,1,0.0256,0.0128,0.0167*
1,1,0.0256,0.0128,-0.0167*
1,1,0.0256,-0.0128,-0.0167*
1,1,0.0256,-0.0128,0.0167*
%
%ADD11ROUNDEDRECTD11*%
G04:AMPARAMS|DCode=15|XSize=70.9mil|YSize=65mil|CornerRadius=4.9mil|HoleSize=0mil|Usage=FLASHONLY|Rotation=90.000|XOffset=0mil|YOffset=0mil|HoleType=Round|Shape=RoundedRectangle|*
%AMROUNDEDRECTD15*
21,1,0.0709,0.0552,0,0,90.0*
21,1,0.0611,0.0650,0,0,90.0*
1,1,0.0097,0.0276,0.0306*
1,1,0.0097,0.0276,-0.0306*
1,1,0.0097,-0.0276,-0.0306*
1,1,0.0097,-0.0276,0.0306*
%
%ADD15ROUNDEDRECTD15*%
%ADD19C,0.0079*%
%ADD20C,0.0118*%
%ADD21C,0.0157*%
%ADD23R,0.0591X0.0256*%
%ADD24R,0.0256X0.0591*%
%ADD25C,0.0591*%
G04:AMPARAMS|DCode=26|XSize=59.1mil|YSize=59.1mil|CornerRadius=8.9mil|HoleSize=0mil|Usage=FLASHONLY|Rotation=0.000|XOffset=0mil|YOffset=0mil|HoleType=Round|Shape=RoundedRectangle|*
%AMROUNDEDRECTD26*
21,1,0.0591,0.0413,0,0,0.0*
21,1,0.0413,0.0591,0,0,0.0*
1,1,0.0177,0.0207,-0.0207*
1,1,0.0177,-0.0207,-0.0207*
1,1,0.0177,-0.0207,0.0207*
1,1,0.0177,0.0207,0.0207*
%
%ADD26ROUNDEDRECTD26*%
%ADD27C,0.0630*%
G04:AMPARAMS|DCode=28|XSize=63mil|YSize=63mil|CornerRadius=15.7mil|HoleSize=0mil|Usage=FLASHONLY|Rotation=90.000|XOffset=0mil|YOffset=0mil|HoleType=Round|Shape=RoundedRectangle|*
%AMROUNDEDRECTD28*
21,1,0.0630,0.0315,0,0,90.0*
21,1,0.0315,0.0630,0,0,90.0*
1,1,0.0315,0.0157,0.0157*
1,1,0.0315,0.0157,-0.0157*
1,1,0.0315,-0.0157,-0.0157*
1,1,0.0315,-0.0157,0.0157*
%
%ADD28ROUNDEDRECTD28*%
G04:AMPARAMS|DCode=29|XSize=63mil|YSize=63mil|CornerRadius=7.9mil|HoleSize=0mil|Usage=FLASHONLY|Rotation=0.000|XOffset=0mil|YOffset=0mil|HoleType=Round|Shape=RoundedRectangle|*
%AMROUNDEDRECTD29*
21,1,0.0630,0.0472,0,0,0.0*
21,1,0.0472,0.0630,0,0,0.0*
1,1,0.0157,0.0236,-0.0236*
1,1,0.0157,-0.0236,-0.0236*
1,1,0.0157,-0.0236,0.0236*
1,1,0.0157,0.0236,0.0236*
%
%ADD29ROUNDEDRECTD29*%
G04:AMPARAMS|DCode=30|XSize=59.1mil|YSize=59.1mil|CornerRadius=14.8mil|HoleSize=0mil|Usage=FLASHONLY|Rotation=0.000|XOffset=0mil|YOffset=0mil|HoleType=Round|Shape=RoundedRectangle|*
%AMROUNDEDRECTD30*
21,1,0.0591,0.0295,0,0,0.0*
21,1,0.0295,0.0591,0,0,0.0*
1,1,0.0295,0.0148,-0.0148*
1,1,0.0295,-0.0148,-0.0148*
1,1,0.0295,-0.0148,0.0148*
1,1,0.0295,0.0148,0.0148*
%
%ADD30ROUNDEDRECTD30*%
%ADD31C,0.0256*%
%ADD32O,0.0236X0.0906*%
%ADD33C,0.0197*%
%ADD34C,0.0071*%
G36*
X040883Y034965D02*
X040951Y034956D01*
X040974Y034959D01*
X041136Y034797D01*
X041181Y034767D01*
X041235Y034756D01*
X045840D01*
X045923Y034695D01*
X045931Y034636D01*
X045949Y034592D01*
X045933Y034549D01*
X045896Y034492D01*
X041126D01*
X040727Y034892D01*
X040725Y034938D01*
X040770Y034974D01*
X040770Y034974D01*
X040838Y034984D01*
X040883Y034965D01*
D02*
G37*
G36*
X062690Y035040D02*
X062696Y035032D01*
X062750Y034991D01*
X062813Y034965D01*
X062880Y034956D01*
X062947Y034965D01*
X063010Y034991D01*
X063064Y035032D01*
X063159Y035014D01*
X063219Y034954D01*
Y034335D01*
X057332D01*
X057331Y034338D01*
X057321Y034351D01*
X057317Y034369D01*
X057303Y034390D01*
X057295Y034406D01*
Y034467D01*
X057369Y034554D01*
X057402D01*
X057455Y034565D01*
X057501Y034596D01*
X057864Y034958D01*
X057880Y034956D01*
X057947Y034965D01*
X058010Y034991D01*
X058064Y035032D01*
X058070Y035040D01*
X058072Y035041D01*
X058188D01*
X058190Y035040D01*
X058196Y035032D01*
X058250Y034991D01*
X058313Y034965D01*
X058380Y034956D01*
X058447Y034965D01*
X058510Y034991D01*
X058564Y035032D01*
X058570Y035040D01*
X058572Y035041D01*
X058688D01*
X058690Y035040D01*
X058696Y035032D01*
X058750Y034991D01*
X058813Y034965D01*
X058880Y034956D01*
X058947Y034965D01*
X059010Y034991D01*
X059064Y035032D01*
X059070Y035040D01*
X059072Y035041D01*
X059188D01*
X059190Y035040D01*
X059196Y035032D01*
X059250Y034991D01*
X059313Y034965D01*
X059380Y034956D01*
X059447Y034965D01*
X059510Y034991D01*
X059564Y035032D01*
X059570Y035040D01*
X059572Y035041D01*
X059688D01*
X059690Y035040D01*
X059696Y035032D01*
X059750Y034991D01*
X059813Y034965D01*
X059880Y034956D01*
X059947Y034965D01*
X060010Y034991D01*
X060064Y035032D01*
X060070Y035040D01*
X060072Y035041D01*
X060188D01*
X060190Y035040D01*
X060196Y035032D01*
X060250Y034991D01*
X060313Y034965D01*
X060380Y034956D01*
X060447Y034965D01*
X060510Y034991D01*
X060564Y035032D01*
X060570Y035040D01*
X060572Y035041D01*
X060688D01*
X060690Y035040D01*
X060696Y035032D01*
X060750Y034991D01*
X060813Y034965D01*
X060880Y034956D01*
X060947Y034965D01*
X061010Y034991D01*
X061064Y035032D01*
X061070Y035040D01*
X061072Y035041D01*
X061188D01*
X061190Y035040D01*
X061196Y035032D01*
X061250Y034991D01*
X061313Y034965D01*
X061380Y034956D01*
X061447Y034965D01*
X061510Y034991D01*
X061564Y035032D01*
X061570Y035040D01*
X061572Y035041D01*
X061688D01*
X061690Y035040D01*
X061696Y035032D01*
X061750Y034991D01*
X061813Y034965D01*
X061880Y034956D01*
X061947Y034965D01*
X062010Y034991D01*
X062064Y035032D01*
X062070Y035040D01*
X062072Y035041D01*
X062188D01*
X062190Y035040D01*
X062196Y035032D01*
X062250Y034991D01*
X062313Y034965D01*
X062380Y034956D01*
X062447Y034965D01*
X062510Y034991D01*
X062564Y035032D01*
X062570Y035040D01*
X062572Y035041D01*
X062688D01*
X062690Y035040D01*
D02*
G37*
G36*
X056537Y034547D02*
X056541Y034529D01*
X056555Y034508D01*
X056563Y034491D01*
Y034419D01*
X056495Y034335D01*
X047869D01*
Y034390D01*
X047860Y034454D01*
X047860Y034461D01*
X047929Y034554D01*
X056532D01*
X056537Y034547D01*
D02*
G37*
G36*
X062780Y039089D02*
X062754Y039072D01*
X062620Y038955D01*
X062503Y038821D01*
X062404Y038673D01*
X062325Y038513D01*
X062268Y038344D01*
X062233Y038170D01*
X062221Y037992D01*
X062233Y037814D01*
X062268Y037640D01*
X062325Y037471D01*
X062404Y037312D01*
X062503Y037163D01*
X062620Y037030D01*
X062754Y036912D01*
X062902Y036813D01*
X063062Y036735D01*
X063230Y036677D01*
X063405Y036643D01*
X063583Y036631D01*
X063760Y036643D01*
X063935Y036677D01*
X064104Y036735D01*
X064263Y036813D01*
X064411Y036912D01*
X064545Y037030D01*
X064663Y037163D01*
X064680Y037190D01*
X064780Y037159D01*
Y034539D01*
X064680Y034490D01*
X064673Y034496D01*
X064607Y034523D01*
X064537Y034532D01*
X064203D01*
X064133Y034523D01*
X064068Y034496D01*
X064012Y034453D01*
X063969Y034397D01*
X063943Y034335D01*
X063540D01*
Y035014D01*
X063564Y035032D01*
X063605Y035086D01*
X063631Y035149D01*
X063640Y035217D01*
Y035886D01*
X063631Y035953D01*
X063605Y036016D01*
X063564Y036070D01*
X063510Y036111D01*
X063447Y036137D01*
X063380Y036146D01*
X063313Y036137D01*
X063250Y036111D01*
X063196Y036070D01*
X063190Y036062D01*
X063188Y036061D01*
X063072D01*
X063070Y036062D01*
X063064Y036070D01*
X063010Y036111D01*
X062947Y036137D01*
X062943Y036138D01*
X062754Y036327D01*
X062710Y036356D01*
X062657Y036367D01*
X062389D01*
X061752Y037004D01*
X061761Y037060D01*
X061784Y037113D01*
X061865Y037147D01*
X061947Y037210D01*
X062011Y037293D01*
X062050Y037389D01*
X062064Y037492D01*
X062050Y037595D01*
X062011Y037691D01*
X061947Y037774D01*
X061865Y037837D01*
X061769Y037877D01*
X061665Y037891D01*
X061562Y037877D01*
X061466Y037837D01*
X061383Y037774D01*
X061378Y037767D01*
X061325Y037773D01*
X061275Y037796D01*
X061268Y037830D01*
X061238Y037874D01*
X060973Y038140D01*
X060976Y038182D01*
X061046Y038273D01*
X061089Y038379D01*
X061104Y038492D01*
X061089Y038606D01*
X061046Y038712D01*
X060976Y038803D01*
X060885Y038872D01*
X060779Y038916D01*
X060665Y038931D01*
X060552Y038916D01*
X060446Y038872D01*
X060355Y038803D01*
X060285Y038712D01*
X060241Y038606D01*
X060226Y038492D01*
X060241Y038379D01*
X060285Y038273D01*
X060355Y038182D01*
X060446Y038112D01*
X060552Y038068D01*
X060605Y038061D01*
X060629Y038027D01*
X060582Y037920D01*
X060552Y037916D01*
X060446Y037872D01*
X060404Y037840D01*
X060304Y037889D01*
Y037990D01*
X060293Y038042D01*
X060264Y038087D01*
X060055Y038295D01*
X060089Y038379D01*
X060104Y038492D01*
X060089Y038606D01*
X060046Y038712D01*
X059976Y038803D01*
X059885Y038872D01*
X059779Y038916D01*
X059665Y038931D01*
X059552Y038916D01*
X059446Y038872D01*
X059355Y038803D01*
X059285Y038712D01*
X059241Y038606D01*
X059226Y038492D01*
X059241Y038379D01*
X059285Y038273D01*
X059355Y038182D01*
X059446Y038112D01*
X059552Y038068D01*
X059665Y038053D01*
X059779Y038068D01*
X059862Y038102D01*
X059988Y037976D01*
X059981Y037924D01*
X059900Y037881D01*
X059874Y037877D01*
X059779Y037916D01*
X059665Y037931D01*
X059552Y037916D01*
X059446Y037872D01*
X059355Y037803D01*
X059285Y037712D01*
X059241Y037606D01*
X059226Y037492D01*
X059241Y037378D01*
X059285Y037273D01*
X059348Y037191D01*
X059342Y037150D01*
X059317Y037085D01*
X059273Y037078D01*
X059055Y037295D01*
X059089Y037378D01*
X059104Y037492D01*
X059089Y037606D01*
X059046Y037712D01*
X058976Y037803D01*
X058885Y037872D01*
X058779Y037916D01*
X058665Y037931D01*
X058552Y037916D01*
X058446Y037872D01*
X058416Y037849D01*
X058316Y037898D01*
Y038031D01*
X058305Y038084D01*
X058276Y038128D01*
X058071Y038333D01*
X058089Y038379D01*
X058104Y038492D01*
X058089Y038606D01*
X058046Y038712D01*
X057976Y038803D01*
X057885Y038872D01*
X057779Y038916D01*
X057665Y038931D01*
X057552Y038916D01*
X057446Y038872D01*
X057355Y038803D01*
X057285Y038712D01*
X057241Y038606D01*
X057226Y038492D01*
X057241Y038379D01*
X057285Y038273D01*
X057355Y038182D01*
X057446Y038112D01*
X057552Y038068D01*
X057665Y038053D01*
X057779Y038068D01*
X057885Y038112D01*
X057897Y038121D01*
X058043Y037975D01*
Y037872D01*
X057943Y037828D01*
X057885Y037872D01*
X057779Y037916D01*
X057665Y037931D01*
X057552Y037916D01*
X057446Y037872D01*
X057355Y037803D01*
X057285Y037712D01*
X057241Y037606D01*
X057226Y037492D01*
X057241Y037378D01*
X057285Y037273D01*
X057355Y037182D01*
X057446Y037112D01*
X057483Y037097D01*
X057463Y036997D01*
X056868D01*
X056848Y037097D01*
X056885Y037112D01*
X056976Y037182D01*
X057046Y037273D01*
X057089Y037378D01*
X057104Y037492D01*
X057089Y037606D01*
X057046Y037712D01*
X056976Y037803D01*
X056885Y037872D01*
X056779Y037916D01*
X056665Y037931D01*
X056552Y037916D01*
X056446Y037872D01*
X056355Y037803D01*
X056285Y037712D01*
X056241Y037606D01*
X056226Y037492D01*
X056241Y037378D01*
X056285Y037273D01*
X056355Y037182D01*
X056446Y037112D01*
X056483Y037097D01*
X056463Y036997D01*
X055868D01*
X055848Y037097D01*
X055885Y037112D01*
X055976Y037182D01*
X056046Y037273D01*
X056089Y037378D01*
X056104Y037492D01*
X056089Y037606D01*
X056046Y037712D01*
X055976Y037803D01*
X055885Y037872D01*
X055779Y037916D01*
X055665Y037931D01*
X055552Y037916D01*
X055446Y037872D01*
X055394Y037833D01*
X055294Y037882D01*
Y038000D01*
X055284Y038052D01*
X055254Y038097D01*
X055055Y038295D01*
X055089Y038379D01*
X055104Y038492D01*
X055089Y038606D01*
X055046Y038712D01*
X054976Y038803D01*
X054885Y038872D01*
X054779Y038916D01*
X054665Y038931D01*
X054552Y038916D01*
X054446Y038872D01*
X054355Y038803D01*
X054285Y038712D01*
X054241Y038606D01*
X054226Y038492D01*
X054241Y038379D01*
X054285Y038273D01*
X054355Y038182D01*
X054446Y038112D01*
X054552Y038068D01*
X054665Y038053D01*
X054779Y038068D01*
X054862Y038102D01*
X055021Y037943D01*
Y037838D01*
X055007Y037826D01*
X054921Y037794D01*
X054865Y037837D01*
X054769Y037877D01*
X054665Y037891D01*
X054562Y037877D01*
X054466Y037837D01*
X054383Y037774D01*
X054370Y037757D01*
X054321Y037761D01*
X054266Y037786D01*
X054260Y037818D01*
X054230Y037862D01*
X054083Y038009D01*
Y038211D01*
X054073Y038263D01*
X054054Y038292D01*
X054089Y038379D01*
X054104Y038492D01*
X054089Y038606D01*
X054046Y038712D01*
X053976Y038803D01*
X053885Y038872D01*
X053779Y038916D01*
X053665Y038931D01*
X053552Y038916D01*
X053446Y038872D01*
X053355Y038803D01*
X053285Y038712D01*
X053241Y038606D01*
X053226Y038492D01*
X053241Y038379D01*
X053285Y038273D01*
X053355Y038182D01*
X053446Y038112D01*
X053552Y038068D01*
X053665Y038053D01*
X053716Y037994D01*
X053665Y037931D01*
X053552Y037916D01*
X053446Y037872D01*
X053355Y037803D01*
X053285Y037712D01*
X053241Y037606D01*
X053226Y037492D01*
X053241Y037378D01*
X053285Y037273D01*
X053355Y037182D01*
X053446Y037112D01*
X053552Y037068D01*
X053665Y037053D01*
X053779Y037068D01*
X053862Y037102D01*
X054585Y036380D01*
X054629Y036350D01*
X054681Y036340D01*
X058319D01*
X058417Y036242D01*
X058388Y036167D01*
X058373Y036145D01*
X058313Y036137D01*
X058250Y036111D01*
X058196Y036070D01*
X058190Y036062D01*
X058188Y036061D01*
X058072D01*
X058070Y036062D01*
X058064Y036070D01*
X058010Y036111D01*
X057947Y036137D01*
X057880Y036146D01*
X057813Y036137D01*
X057750Y036111D01*
X057696Y036070D01*
X057654Y036016D01*
X057628Y035953D01*
X057620Y035886D01*
Y035217D01*
X057628Y035149D01*
X057637Y035129D01*
X057464Y034956D01*
X057361Y034994D01*
X057358Y035021D01*
X057331Y035086D01*
X057288Y035142D01*
X057232Y035185D01*
X057166Y035212D01*
X057096Y035221D01*
X056762D01*
X056692Y035212D01*
X056627Y035185D01*
X056571Y035142D01*
X056528Y035086D01*
X056501Y035021D01*
X056492Y034951D01*
Y034835D01*
X056390D01*
X056342Y034935D01*
X056356Y034953D01*
X056383Y035019D01*
X056392Y035089D01*
Y035423D01*
X056383Y035493D01*
X056356Y035558D01*
X056313Y035614D01*
X056257Y035657D01*
X056192Y035684D01*
X056122Y035693D01*
X055866D01*
X055796Y035684D01*
X055731Y035657D01*
X055718Y035648D01*
X055700Y035644D01*
X055679Y035630D01*
X055663Y035622D01*
X055578D01*
X055561Y035630D01*
X055540Y035644D01*
X055522Y035648D01*
X055509Y035657D01*
X055444Y035684D01*
X055374Y035693D01*
X055118D01*
X055048Y035684D01*
X054983Y035657D01*
X054927Y035614D01*
X054884Y035558D01*
X054857Y035493D01*
X054849Y035433D01*
X054832Y035435D01*
X054773Y035427D01*
X054718Y035405D01*
X054671Y035368D01*
X054634Y035321D01*
X054612Y035266D01*
X054604Y035207D01*
X054612Y035148D01*
X054634Y035093D01*
X054671Y035045D01*
X054718Y035009D01*
X054773Y034986D01*
X054811Y034981D01*
X054847Y034935D01*
X054841Y034908D01*
X054789Y034835D01*
X046920D01*
X046904Y034856D01*
X046856Y034893D01*
X046801Y034915D01*
X046742Y034923D01*
X046711Y034919D01*
X046678Y034940D01*
X046666Y034966D01*
X046652Y035055D01*
X046676Y035086D01*
X046702Y035149D01*
X046711Y035217D01*
Y035886D01*
X046702Y035953D01*
X046700Y035958D01*
X046765Y036058D01*
X048517D01*
X048569Y036068D01*
X048613Y036098D01*
X048797Y036281D01*
X049537D01*
X049590Y036291D01*
X049634Y036321D01*
X049801Y036488D01*
X051797D01*
X051849Y036498D01*
X051894Y036528D01*
X052469Y037102D01*
X052552Y037068D01*
X052665Y037053D01*
X052779Y037068D01*
X052885Y037112D01*
X052976Y037182D01*
X053046Y037273D01*
X053089Y037378D01*
X053104Y037492D01*
X053089Y037606D01*
X053046Y037712D01*
X052976Y037803D01*
X052885Y037872D01*
X052779Y037916D01*
X052665Y037931D01*
X052552Y037916D01*
X052471Y037883D01*
X052395Y037914D01*
X052366Y037937D01*
X052359Y037993D01*
X052469Y038102D01*
X052552Y038068D01*
X052665Y038053D01*
X052779Y038068D01*
X052885Y038112D01*
X052976Y038182D01*
X053046Y038273D01*
X053089Y038379D01*
X053104Y038492D01*
X053089Y038606D01*
X053046Y038712D01*
X052976Y038803D01*
X052885Y038872D01*
X052779Y038916D01*
X052665Y038931D01*
X052552Y038916D01*
X052446Y038872D01*
X052355Y038803D01*
X052285Y038712D01*
X052241Y038606D01*
X052226Y038492D01*
X052241Y038379D01*
X052276Y038295D01*
X052089Y038108D01*
X052059Y038064D01*
X052049Y038012D01*
Y037867D01*
X052037Y037857D01*
X051949Y037823D01*
X051885Y037872D01*
X051779Y037916D01*
X051665Y037931D01*
X051552Y037916D01*
X051446Y037872D01*
X051355Y037803D01*
X051285Y037712D01*
X051241Y037606D01*
X051226Y037492D01*
X051241Y037378D01*
X051276Y037295D01*
X051136Y037156D01*
X051088Y037163D01*
X051044Y037271D01*
X051046Y037273D01*
X051089Y037378D01*
X051104Y037492D01*
X051089Y037606D01*
X051046Y037712D01*
X050976Y037803D01*
X050885Y037872D01*
X050779Y037916D01*
X050665Y037931D01*
X050552Y037916D01*
X050446Y037872D01*
X050355Y037803D01*
X050285Y037712D01*
X050241Y037606D01*
X050226Y037492D01*
X050241Y037378D01*
X050285Y037273D01*
X050329Y037215D01*
X050286Y037115D01*
X050045D01*
X050001Y037215D01*
X050046Y037273D01*
X050089Y037378D01*
X050104Y037492D01*
X050089Y037606D01*
X050046Y037712D01*
X049976Y037803D01*
X049885Y037872D01*
X049779Y037916D01*
X049665Y037931D01*
X049552Y037916D01*
X049446Y037872D01*
X049355Y037803D01*
X049285Y037712D01*
X049241Y037606D01*
X049226Y037492D01*
X049241Y037378D01*
X049276Y037295D01*
X049058Y037078D01*
X049013Y037085D01*
X048988Y037150D01*
X048983Y037191D01*
X049046Y037273D01*
X049089Y037378D01*
X049104Y037492D01*
X049089Y037606D01*
X049046Y037712D01*
X048976Y037803D01*
X048885Y037872D01*
X048779Y037916D01*
X048665Y037931D01*
X048552Y037916D01*
X048446Y037872D01*
X048355Y037803D01*
X048285Y037712D01*
X048241Y037606D01*
X048226Y037492D01*
X048241Y037378D01*
X048276Y037295D01*
X047896Y036916D01*
X047413D01*
X047375Y037008D01*
X047469Y037102D01*
X047552Y037068D01*
X047665Y037053D01*
X047779Y037068D01*
X047885Y037112D01*
X047976Y037182D01*
X048046Y037273D01*
X048089Y037378D01*
X048104Y037492D01*
X048089Y037606D01*
X048046Y037712D01*
X047976Y037803D01*
X047885Y037872D01*
X047779Y037916D01*
X047665Y037931D01*
X047552Y037916D01*
X047458Y037877D01*
X047417Y037888D01*
X047351Y037925D01*
X047344Y037978D01*
X047469Y038102D01*
X047552Y038068D01*
X047665Y038053D01*
X047779Y038068D01*
X047885Y038112D01*
X047976Y038182D01*
X048046Y038273D01*
X048089Y038379D01*
X048104Y038492D01*
X048089Y038606D01*
X048046Y038712D01*
X047976Y038803D01*
X047885Y038872D01*
X047779Y038916D01*
X047665Y038931D01*
X047552Y038916D01*
X047446Y038872D01*
X047355Y038803D01*
X047285Y038712D01*
X047241Y038606D01*
X047226Y038492D01*
X047241Y038379D01*
X047276Y038295D01*
X047069Y038089D01*
X047039Y038044D01*
X047029Y037992D01*
Y037832D01*
X046994Y037807D01*
X046929Y037788D01*
X046865Y037837D01*
X046769Y037877D01*
X046665Y037891D01*
X046562Y037877D01*
X046466Y037837D01*
X046418Y037800D01*
X046318Y037845D01*
Y037951D01*
X046469Y038102D01*
X046552Y038068D01*
X046665Y038053D01*
X046779Y038068D01*
X046885Y038112D01*
X046976Y038182D01*
X047046Y038273D01*
X047089Y038379D01*
X047104Y038492D01*
X047089Y038606D01*
X047046Y038712D01*
X046976Y038803D01*
X046885Y038872D01*
X046779Y038916D01*
X046665Y038931D01*
X046552Y038916D01*
X046446Y038872D01*
X046355Y038803D01*
X046285Y038712D01*
X046241Y038606D01*
X046226Y038492D01*
X046241Y038379D01*
X046276Y038295D01*
X046085Y038104D01*
X046055Y038060D01*
X046045Y038008D01*
Y037868D01*
X045945Y037826D01*
X045885Y037872D01*
X045779Y037916D01*
X045665Y037931D01*
X045552Y037916D01*
X045467Y037881D01*
X045398Y037906D01*
X045360Y037933D01*
X045353Y037987D01*
X045469Y038102D01*
X045552Y038068D01*
X045665Y038053D01*
X045779Y038068D01*
X045885Y038112D01*
X045976Y038182D01*
X046046Y038273D01*
X046089Y038379D01*
X046104Y038492D01*
X046089Y038606D01*
X046046Y038712D01*
X045976Y038803D01*
X045885Y038872D01*
X045779Y038916D01*
X045665Y038931D01*
X045552Y038916D01*
X045446Y038872D01*
X045355Y038803D01*
X045285Y038712D01*
X045241Y038606D01*
X045226Y038492D01*
X045241Y038379D01*
X045276Y038295D01*
X045081Y038100D01*
X045051Y038056D01*
X045041Y038004D01*
Y037875D01*
X044941Y037830D01*
X044885Y037872D01*
X044779Y037916D01*
X044665Y037931D01*
X044552Y037916D01*
X044446Y037872D01*
X044355Y037803D01*
X044285Y037712D01*
X044241Y037606D01*
X044226Y037492D01*
X044241Y037378D01*
X044265Y037321D01*
X044216Y037238D01*
X044115D01*
X044066Y037321D01*
X044089Y037378D01*
X044104Y037492D01*
X044089Y037606D01*
X044046Y037712D01*
X043976Y037803D01*
X043885Y037872D01*
X043779Y037916D01*
X043665Y037931D01*
X043552Y037916D01*
X043446Y037872D01*
X043355Y037803D01*
X043285Y037712D01*
X043241Y037606D01*
X043226Y037492D01*
X043241Y037378D01*
X043186Y037304D01*
X043103Y037371D01*
Y037699D01*
X043095Y037758D01*
X043072Y037814D01*
X043035Y037862D01*
X042987Y037898D01*
X042932Y037922D01*
X042872Y037929D01*
X042459D01*
X042399Y037922D01*
X042343Y037898D01*
X042296Y037862D01*
X042259Y037814D01*
X042236Y037758D01*
X042228Y037699D01*
Y037285D01*
X042236Y037226D01*
X042242Y037211D01*
X041452Y036421D01*
X040679D01*
X040602Y036406D01*
X040537Y036362D01*
X040340Y036166D01*
X040297Y036100D01*
X040282Y036024D01*
Y034852D01*
X040297Y034776D01*
X040340Y034710D01*
X040901Y034149D01*
X040967Y034106D01*
X041043Y034091D01*
X046999D01*
X047003Y034064D01*
X047030Y033999D01*
X047039Y033986D01*
X047043Y033968D01*
X047065Y033935D01*
X047087Y033920D01*
X047110Y033836D01*
X047110Y033836D01*
X047101Y033804D01*
X047065Y033757D01*
X047042Y033701D01*
X047034Y033642D01*
Y033386D01*
X047042Y033326D01*
X047065Y033271D01*
X047101Y033223D01*
X047149Y033187D01*
X047204Y033164D01*
X047264Y033156D01*
X047598D01*
X047658Y033164D01*
X047713Y033187D01*
X047761Y033223D01*
X047798Y033271D01*
X047821Y033326D01*
X047828Y033386D01*
Y033642D01*
X047821Y033701D01*
X047798Y033757D01*
X047761Y033804D01*
X047752Y033836D01*
X047775Y033920D01*
X047795Y033933D01*
X049079D01*
X049081Y033928D01*
Y033603D01*
X049073Y033584D01*
X049065Y033525D01*
X049073Y033466D01*
X049096Y033411D01*
X049132Y033364D01*
X049180Y033328D01*
X049235Y033305D01*
X049294Y033297D01*
X049353Y033305D01*
X049408Y033328D01*
X049455Y033364D01*
X049491Y033411D01*
X049514Y033466D01*
X049522Y033525D01*
X049514Y033584D01*
X049491Y033639D01*
X049482Y033652D01*
Y033928D01*
X049484Y033933D01*
X055931D01*
X055944Y033902D01*
X055980Y033854D01*
X056028Y033818D01*
X056083Y033795D01*
X056142Y033787D01*
X056201Y033795D01*
X056256Y033818D01*
X056303Y033854D01*
X056339Y033902D01*
X056353Y033933D01*
X056493D01*
X056501Y033877D01*
X056528Y033812D01*
X056571Y033756D01*
X056627Y033713D01*
X056692Y033686D01*
X056762Y033677D01*
X057096D01*
X057166Y033686D01*
X057232Y033713D01*
X057288Y033756D01*
X057331Y033812D01*
X057358Y033877D01*
X057365Y033933D01*
X061020D01*
X061110Y033858D01*
X061118Y033799D01*
X061141Y033744D01*
X061177Y033697D01*
X061224Y033661D01*
X061279Y033638D01*
X061339Y033630D01*
X061398Y033638D01*
X061453Y033661D01*
X061500Y033697D01*
X061536Y033744D01*
X061559Y033799D01*
X061567Y033858D01*
X061657Y033933D01*
X063943D01*
X063969Y033871D01*
X063978Y033858D01*
X063982Y033840D01*
X064004Y033807D01*
X064026Y033792D01*
X064049Y033708D01*
X064040Y033676D01*
X064004Y033629D01*
X063981Y033573D01*
X063973Y033514D01*
Y033258D01*
X063981Y033198D01*
X064004Y033143D01*
X064040Y033095D01*
X064088Y033059D01*
X064143Y033036D01*
X064203Y033028D01*
X064537D01*
X064597Y033036D01*
X064652Y033059D01*
X064680Y033080D01*
X064749Y033059D01*
X064780Y033035D01*
Y029770D01*
X064680Y029740D01*
X064663Y029766D01*
X064545Y029900D01*
X064411Y030017D01*
X064263Y030116D01*
X064104Y030195D01*
X063935Y030252D01*
X063760Y030287D01*
X063583Y030298D01*
X063405Y030287D01*
X063230Y030252D01*
X063062Y030195D01*
X062902Y030116D01*
X062754Y030017D01*
X062620Y029900D01*
X062503Y029766D01*
X062404Y029618D01*
X062325Y029458D01*
X062268Y029289D01*
X062233Y029115D01*
X062221Y028937D01*
X062233Y028759D01*
X062268Y028585D01*
X062325Y028416D01*
X062404Y028256D01*
X062503Y028108D01*
X062620Y027975D01*
X062754Y027857D01*
X062780Y027840D01*
X062750Y027740D01*
X041581D01*
X041551Y027840D01*
X041577Y027857D01*
X041711Y027975D01*
X041828Y028108D01*
X041927Y028256D01*
X042006Y028416D01*
X042063Y028585D01*
X042098Y028759D01*
X042109Y028937D01*
X042098Y029115D01*
X042063Y029289D01*
X042006Y029458D01*
X041927Y029618D01*
X041828Y029766D01*
X041711Y029900D01*
X041577Y030017D01*
X041429Y030116D01*
X041269Y030195D01*
X041100Y030252D01*
X040926Y030287D01*
X040748Y030298D01*
X040570Y030287D01*
X040396Y030252D01*
X040227Y030195D01*
X040067Y030116D01*
X039919Y030017D01*
X039786Y029900D01*
X039668Y029766D01*
X039651Y029740D01*
X039551Y029770D01*
Y037159D01*
X039651Y037190D01*
X039668Y037163D01*
X039786Y037030D01*
X039919Y036912D01*
X040067Y036813D01*
X040227Y036735D01*
X040396Y036677D01*
X040570Y036643D01*
X040748Y036631D01*
X040926Y036643D01*
X041100Y036677D01*
X041269Y036735D01*
X041429Y036813D01*
X041577Y036912D01*
X041711Y037030D01*
X041828Y037163D01*
X041927Y037312D01*
X042006Y037471D01*
X042063Y037640D01*
X042098Y037814D01*
X042109Y037992D01*
X042098Y038170D01*
X042063Y038344D01*
X042006Y038513D01*
X041927Y038673D01*
X041828Y038821D01*
X041711Y038955D01*
X041577Y039072D01*
X041551Y039089D01*
X041581Y039189D01*
X062750D01*
X062780Y039089D01*
D02*
G37*
%LPC*%
G36*
X045951Y032563D02*
X045883Y032555D01*
X045821Y032529D01*
X045767Y032487D01*
X045761Y032479D01*
X045759Y032478D01*
X045643D01*
X045641Y032479D01*
X045635Y032487D01*
X045581Y032529D01*
X045518Y032555D01*
X045451Y032563D01*
X045383Y032555D01*
X045321Y032529D01*
X045267Y032487D01*
X045261Y032479D01*
X045259Y032478D01*
X045143D01*
X045141Y032479D01*
X045135Y032487D01*
X045081Y032529D01*
X045018Y032555D01*
X044951Y032563D01*
X044883Y032555D01*
X044821Y032529D01*
X044767Y032487D01*
X044761Y032479D01*
X044759Y032478D01*
X044643D01*
X044641Y032479D01*
X044635Y032487D01*
X044581Y032529D01*
X044518Y032555D01*
X044451Y032563D01*
X044383Y032555D01*
X044321Y032529D01*
X044267Y032487D01*
X044261Y032479D01*
X044259Y032478D01*
X044143D01*
X044141Y032479D01*
X044135Y032487D01*
X044081Y032529D01*
X044018Y032555D01*
X043951Y032563D01*
X043883Y032555D01*
X043821Y032529D01*
X043767Y032487D01*
X043761Y032479D01*
X043759Y032478D01*
X043643D01*
X043641Y032479D01*
X043635Y032487D01*
X043581Y032529D01*
X043518Y032555D01*
X043451Y032563D01*
X043383Y032555D01*
X043321Y032529D01*
X043267Y032487D01*
X043261Y032479D01*
X043259Y032478D01*
X043143D01*
X043141Y032479D01*
X043135Y032487D01*
X043081Y032529D01*
X043018Y032555D01*
X042951Y032563D01*
X042883Y032555D01*
X042821Y032529D01*
X042767Y032487D01*
X042761Y032479D01*
X042759Y032478D01*
X042643D01*
X042641Y032479D01*
X042635Y032487D01*
X042581Y032529D01*
X042518Y032555D01*
X042451Y032563D01*
X042383Y032555D01*
X042321Y032529D01*
X042267Y032487D01*
X042261Y032479D01*
X042259Y032478D01*
X042143D01*
X042141Y032479D01*
X042135Y032487D01*
X042081Y032529D01*
X042018Y032555D01*
X041951Y032563D01*
X041883Y032555D01*
X041821Y032529D01*
X041767Y032487D01*
X041736Y032447D01*
X041709Y032437D01*
X041692Y032436D01*
X041620Y032441D01*
X041606Y032459D01*
X041561Y032494D01*
X041508Y032516D01*
X041451Y032523D01*
X041394Y032516D01*
X041341Y032494D01*
X041295Y032459D01*
X041260Y032413D01*
X041255Y032400D01*
X041147D01*
X041141Y032413D01*
X041106Y032459D01*
X041061Y032494D01*
X041008Y032516D01*
X040951Y032523D01*
X040894Y032516D01*
X040841Y032494D01*
X040795Y032459D01*
X040760Y032413D01*
X040738Y032360D01*
X040731Y032303D01*
Y031634D01*
X040738Y031577D01*
X040760Y031524D01*
X040795Y031478D01*
X040841Y031443D01*
X040894Y031421D01*
X040951Y031414D01*
X041008Y031421D01*
X041061Y031443D01*
X041106Y031478D01*
X041141Y031524D01*
X041147Y031537D01*
X041255D01*
X041260Y031524D01*
X041295Y031478D01*
X041341Y031443D01*
X041394Y031421D01*
X041451Y031414D01*
X041508Y031421D01*
X041561Y031443D01*
X041606Y031478D01*
X041620Y031496D01*
X041692Y031501D01*
X041709Y031500D01*
X041736Y031490D01*
X041767Y031450D01*
X041785Y031436D01*
X041790Y031394D01*
X041768Y031339D01*
X041760Y031280D01*
X041768Y031220D01*
X041790Y031165D01*
X041827Y031118D01*
X041874Y031082D01*
X041929Y031059D01*
X041988Y031051D01*
X042047Y031059D01*
X042060Y031064D01*
X042103Y031047D01*
X042152Y031011D01*
X042159Y031001D01*
X042163Y030966D01*
X042186Y030911D01*
X042222Y030864D01*
X042270Y030827D01*
X042325Y030805D01*
X042384Y030797D01*
X042443Y030805D01*
X042498Y030827D01*
X042545Y030864D01*
X042569Y030894D01*
X042639Y030882D01*
X042669Y030867D01*
X042675Y030818D01*
X042698Y030763D01*
X042734Y030716D01*
X042782Y030680D01*
X042837Y030657D01*
X042896Y030649D01*
X042955Y030657D01*
X043010Y030680D01*
X043057Y030716D01*
X043094Y030763D01*
X043116Y030818D01*
X043124Y030877D01*
X043116Y030937D01*
X043100Y030976D01*
X043111Y030992D01*
X043123Y031053D01*
Y031407D01*
X043213Y031434D01*
X043229Y031431D01*
X043290Y031372D01*
Y030893D01*
X043276Y030881D01*
X043239Y030834D01*
X043217Y030779D01*
X043209Y030720D01*
X043217Y030661D01*
X043239Y030606D01*
X043276Y030559D01*
X043323Y030522D01*
X043378Y030499D01*
X043437Y030492D01*
X043496Y030499D01*
X043551Y030522D01*
X043599Y030559D01*
X043635Y030606D01*
X043658Y030661D01*
X043665Y030720D01*
X043658Y030779D01*
X043635Y030834D01*
X043611Y030865D01*
Y031432D01*
X043635Y031450D01*
X043641Y031458D01*
X043643Y031459D01*
X043759D01*
X043761Y031458D01*
X043767Y031450D01*
X043821Y031408D01*
X043838Y031401D01*
Y030734D01*
X043837Y030734D01*
X043800Y030687D01*
X043778Y030631D01*
X043770Y030572D01*
X043778Y030513D01*
X043800Y030458D01*
X043837Y030411D01*
X043884Y030375D01*
X043939Y030352D01*
X043998Y030344D01*
X044057Y030352D01*
X044112Y030375D01*
X044139Y030395D01*
X044226Y030438D01*
X044275Y030406D01*
X044278Y030404D01*
X044333Y030381D01*
X044392Y030374D01*
X044451Y030381D01*
X044506Y030404D01*
X044553Y030440D01*
X044590Y030488D01*
X044612Y030543D01*
X044620Y030602D01*
X044612Y030661D01*
X044595Y030702D01*
X044599Y030708D01*
X044611Y030770D01*
Y031432D01*
X044635Y031450D01*
X044729Y031431D01*
X044790Y031372D01*
Y030622D01*
X044782Y030616D01*
X044745Y030568D01*
X044723Y030513D01*
X044715Y030454D01*
X044723Y030395D01*
X044745Y030340D01*
X044782Y030293D01*
X044829Y030257D01*
X044884Y030234D01*
X044943Y030226D01*
X045002Y030234D01*
X045026Y030243D01*
X045074Y030245D01*
X045146Y030199D01*
X045149Y030192D01*
X045185Y030145D01*
X045233Y030109D01*
X045288Y030086D01*
X045347Y030078D01*
X045406Y030086D01*
X045461Y030109D01*
X045508Y030145D01*
X045544Y030192D01*
X045567Y030247D01*
X045575Y030307D01*
X045567Y030366D01*
X045544Y030421D01*
X045508Y030468D01*
X045461Y030504D01*
X045452Y030508D01*
X045446Y030514D01*
Y031223D01*
X045564Y031341D01*
X045599Y031393D01*
X045606Y031428D01*
X045635Y031450D01*
X045729Y031431D01*
X045790Y031372D01*
Y030314D01*
X045786Y030311D01*
X045749Y030263D01*
X045727Y030208D01*
X045719Y030149D01*
X045727Y030090D01*
X045749Y030035D01*
X045786Y029988D01*
X045833Y029951D01*
X045888Y029929D01*
X045947Y029921D01*
X046006Y029929D01*
X046061Y029951D01*
X046109Y029988D01*
X046145Y030035D01*
X046168Y030090D01*
X046175Y030149D01*
X046168Y030208D01*
X046145Y030263D01*
X046111Y030307D01*
Y031432D01*
X046135Y031450D01*
X046166Y031490D01*
X046192Y031500D01*
X046210Y031501D01*
X046281Y031496D01*
X046295Y031478D01*
X046341Y031443D01*
X046394Y031421D01*
X046451Y031414D01*
X046508Y031421D01*
X046561Y031443D01*
X046606Y031478D01*
X046641Y031524D01*
X046663Y031577D01*
X046671Y031634D01*
Y032303D01*
X046663Y032360D01*
X046641Y032413D01*
X046606Y032459D01*
X046561Y032494D01*
X046508Y032516D01*
X046451Y032523D01*
X046394Y032516D01*
X046341Y032494D01*
X046295Y032459D01*
X046281Y032441D01*
X046210Y032436D01*
X046192Y032437D01*
X046166Y032447D01*
X046135Y032487D01*
X046081Y032529D01*
X046018Y032555D01*
X045951Y032563D01*
D02*
G37*
G36*
X053780Y033559D02*
X053661Y033544D01*
X053550Y033498D01*
X053455Y033425D01*
X053382Y033330D01*
X053336Y033219D01*
X053321Y033100D01*
X053336Y032982D01*
X053382Y032871D01*
X053455Y032776D01*
X053550Y032703D01*
X053661Y032657D01*
X053709Y032651D01*
Y032550D01*
X053661Y032544D01*
X053550Y032498D01*
X053455Y032425D01*
X053382Y032330D01*
X053336Y032219D01*
X053321Y032100D01*
X053336Y031982D01*
X053382Y031871D01*
X053455Y031776D01*
X053550Y031703D01*
X053661Y031657D01*
X053648Y031558D01*
X053622D01*
X053544Y031548D01*
X053472Y031518D01*
X053410Y031470D01*
X053362Y031408D01*
X053332Y031336D01*
X053322Y031258D01*
Y030943D01*
X053332Y030865D01*
X053362Y030793D01*
X053410Y030731D01*
X053427Y030717D01*
X053503Y030659D01*
Y030659D01*
X053503D01*
X053494Y030574D01*
X053475Y030574D01*
X052825D01*
X052771Y030563D01*
X052725Y030532D01*
X052674Y030481D01*
X052628Y030491D01*
X052553Y030561D01*
X052561Y030620D01*
X052553Y030679D01*
X052530Y030734D01*
X052494Y030782D01*
X052447Y030818D01*
X052392Y030841D01*
X052333Y030848D01*
X052274Y030841D01*
X052219Y030818D01*
X052171Y030782D01*
X052135Y030734D01*
X052113Y030682D01*
X051664D01*
X051648Y030703D01*
X051600Y030739D01*
X051545Y030762D01*
X051486Y030770D01*
X051427Y030762D01*
X051372Y030739D01*
X051325Y030703D01*
X051301Y030672D01*
X051236Y030654D01*
X051179Y030652D01*
X051157Y030675D01*
X051105Y030709D01*
X051043Y030722D01*
X051043Y030722D01*
X050000D01*
X050000Y030722D01*
X049939Y030709D01*
X049886Y030675D01*
X049886Y030675D01*
X049402Y030190D01*
X048337D01*
X048337Y030190D01*
X048275Y030178D01*
X048274Y030177D01*
X048258Y030179D01*
X048199Y030171D01*
X048144Y030149D01*
X048096Y030112D01*
X048060Y030065D01*
X048037Y030010D01*
X048030Y029951D01*
X048037Y029892D01*
X048060Y029837D01*
X048077Y029814D01*
X048072Y029782D01*
X048030Y029720D01*
X048016Y029646D01*
Y029035D01*
X048030Y028961D01*
X048072Y028899D01*
X048135Y028857D01*
X048208Y028843D01*
X048239D01*
X048292Y028784D01*
X048311Y028743D01*
X048305Y028701D01*
X048313Y028642D01*
X048336Y028587D01*
X048372Y028539D01*
X048419Y028503D01*
X048474Y028480D01*
X048533Y028472D01*
X048593Y028480D01*
X048648Y028503D01*
X048695Y028539D01*
X048721Y028573D01*
X048782Y028578D01*
X048833Y028570D01*
X048864Y028529D01*
X048911Y028493D01*
X048966Y028470D01*
X049026Y028463D01*
X049085Y028470D01*
X049140Y028493D01*
X049187Y028529D01*
X049223Y028577D01*
X049246Y028632D01*
X049254Y028691D01*
X049246Y028750D01*
X049239Y028766D01*
X049316Y028843D01*
X049863D01*
X049936Y028857D01*
X049999Y028899D01*
X050040Y028961D01*
X050055Y029035D01*
Y029646D01*
X050040Y029720D01*
X049999Y029782D01*
X049936Y029824D01*
X049863Y029839D01*
X049641D01*
X049633Y029849D01*
X049605Y029939D01*
X049818Y030152D01*
X049915Y030143D01*
X049938Y030131D01*
X049967Y030094D01*
X050014Y030058D01*
X050043Y030046D01*
X050671Y029418D01*
X050675Y029390D01*
X050698Y029335D01*
X050734Y029287D01*
X050781Y029251D01*
X050837Y029228D01*
X050896Y029220D01*
X050955Y029228D01*
X051010Y029251D01*
X051057Y029287D01*
X051093Y029335D01*
X051116Y029390D01*
X051124Y029449D01*
X051116Y029508D01*
X051093Y029563D01*
X051057Y029610D01*
X051010Y029647D01*
X050955Y029669D01*
X050927Y029673D01*
X050355Y030245D01*
X050356Y030256D01*
X050350Y030300D01*
X050361Y030330D01*
X050421Y030400D01*
X050977D01*
X051570Y029808D01*
X051622Y029773D01*
X051683Y029761D01*
X051683Y029761D01*
X052112D01*
X052138Y029698D01*
X052181Y029642D01*
X052237Y029599D01*
X052302Y029572D01*
X052372Y029562D01*
X052428D01*
Y029203D01*
X052407Y029187D01*
X052371Y029140D01*
X052348Y029085D01*
X052341Y029026D01*
X052348Y028966D01*
X052371Y028911D01*
X052407Y028864D01*
X052455Y028828D01*
X052510Y028805D01*
X052569Y028797D01*
X052628Y028805D01*
X052683Y028828D01*
X052730Y028864D01*
X052767Y028911D01*
X052789Y028966D01*
X052797Y029026D01*
X052789Y029085D01*
X052767Y029140D01*
X052730Y029187D01*
X052709Y029203D01*
Y029576D01*
X052763Y029599D01*
X052776Y029608D01*
X052794Y029612D01*
X052827Y029634D01*
X052842Y029656D01*
X052926Y029679D01*
X052958Y029670D01*
X053005Y029634D01*
X053061Y029611D01*
X053120Y029603D01*
X053354D01*
X053406Y029556D01*
X053433Y029513D01*
X053427Y029492D01*
X053421Y029483D01*
X053209D01*
X053139Y029474D01*
X053074Y029447D01*
X053018Y029404D01*
X052975Y029348D01*
X052948Y029283D01*
X052938Y029213D01*
Y028957D01*
X052948Y028887D01*
X052975Y028822D01*
X052984Y028809D01*
X052988Y028790D01*
X053002Y028769D01*
X053010Y028753D01*
Y028668D01*
X053002Y028652D01*
X052988Y028631D01*
X052987Y028625D01*
X052938Y028569D01*
X052913Y028547D01*
X052854Y028555D01*
X052795Y028547D01*
X052740Y028525D01*
X052693Y028488D01*
X052657Y028441D01*
X052634Y028386D01*
X052626Y028327D01*
X052634Y028268D01*
X052657Y028213D01*
X052693Y028165D01*
X052740Y028129D01*
X052795Y028106D01*
X052854Y028098D01*
X052913Y028106D01*
X052971Y028082D01*
X052975Y028074D01*
X053018Y028018D01*
X053074Y027975D01*
X053139Y027948D01*
X053209Y027938D01*
X053543D01*
X053613Y027948D01*
X053678Y027975D01*
X053734Y028018D01*
X053739Y028023D01*
X053860Y028023D01*
X053864Y028018D01*
X053920Y027975D01*
X053985Y027948D01*
X054055Y027938D01*
X054390D01*
X054460Y027948D01*
X054525Y027975D01*
X054581Y028018D01*
X054590Y028030D01*
X054596Y028033D01*
X054705Y028033D01*
X054711Y028030D01*
X054720Y028018D01*
X054776Y027975D01*
X054841Y027948D01*
X054911Y027938D01*
X055246D01*
X055316Y027948D01*
X055351Y027962D01*
X055353Y027957D01*
X055390Y027909D01*
X055437Y027873D01*
X055492Y027850D01*
X055551Y027843D01*
X055610Y027850D01*
X055665Y027873D01*
X055713Y027909D01*
X055749Y027957D01*
X055772Y028012D01*
X055780Y028071D01*
X055772Y028130D01*
X055749Y028185D01*
X055713Y028232D01*
X055665Y028269D01*
X055610Y028291D01*
X055565Y028297D01*
X055522Y028326D01*
X055516Y028327D01*
Y028465D01*
X055507Y028535D01*
X055480Y028600D01*
X055470Y028612D01*
X055467Y028631D01*
X055453Y028652D01*
X055445Y028668D01*
Y028753D01*
X055453Y028769D01*
X055467Y028790D01*
X055470Y028809D01*
X055480Y028822D01*
X055507Y028887D01*
X055516Y028957D01*
Y029213D01*
X055507Y029283D01*
X055480Y029348D01*
X055437Y029404D01*
X055381Y029447D01*
X055316Y029474D01*
X055246Y029483D01*
X054911D01*
X054841Y029474D01*
X054776Y029447D01*
X054720Y029404D01*
X054711Y029391D01*
X054705Y029388D01*
X054596Y029388D01*
X054590Y029391D01*
X054581Y029404D01*
X054525Y029447D01*
X054460Y029474D01*
X054390Y029483D01*
X054215D01*
Y030592D01*
X054307Y030630D01*
X054379Y030566D01*
X054375Y030541D01*
Y030285D01*
X054385Y030215D01*
X054412Y030150D01*
X054455Y030094D01*
X054511Y030051D01*
X054576Y030024D01*
X054646Y030015D01*
X054980D01*
X055041Y030023D01*
X055045Y029990D01*
X055068Y029935D01*
X055104Y029888D01*
X055152Y029851D01*
X055207Y029829D01*
X055266Y029821D01*
X055325Y029829D01*
X055380Y029851D01*
X055427Y029888D01*
X055463Y029935D01*
X055486Y029990D01*
X055489Y030008D01*
X055593Y030036D01*
X055612Y030011D01*
X055672Y029965D01*
X055742Y029936D01*
X055817Y029926D01*
X056112D01*
X056187Y029936D01*
X056257Y029965D01*
X056317Y030011D01*
X056363Y030071D01*
X056392Y030141D01*
X056402Y030217D01*
Y030512D01*
X056392Y030587D01*
X056363Y030657D01*
X056317Y030717D01*
X056257Y030763D01*
X056187Y030792D01*
X056112Y030802D01*
X055817D01*
X055788Y030798D01*
X055692Y030895D01*
Y031658D01*
X055792Y031707D01*
X055810Y031693D01*
X055921Y031647D01*
X056039Y031632D01*
X056158Y031647D01*
X056269Y031693D01*
X056364Y031766D01*
X056437Y031861D01*
X056483Y031972D01*
X056489Y032020D01*
X056590D01*
X056596Y031972D01*
X056642Y031861D01*
X056715Y031766D01*
X056810Y031693D01*
X056921Y031647D01*
X057039Y031632D01*
X057158Y031647D01*
X057269Y031693D01*
X057364Y031766D01*
X057437Y031861D01*
X057483Y031972D01*
X057498Y032091D01*
X057483Y032209D01*
X057437Y032320D01*
X057364Y032415D01*
X057269Y032488D01*
X057158Y032534D01*
X057110Y032540D01*
Y032641D01*
X057158Y032647D01*
X057269Y032693D01*
X057364Y032766D01*
X057437Y032861D01*
X057483Y032972D01*
X057498Y033091D01*
X057483Y033209D01*
X057437Y033320D01*
X057364Y033415D01*
X057269Y033488D01*
X057158Y033534D01*
X057039Y033549D01*
X056921Y033534D01*
X056810Y033488D01*
X056715Y033415D01*
X056642Y033320D01*
X056596Y033209D01*
X056580Y033091D01*
X056596Y032972D01*
X056642Y032861D01*
X056715Y032766D01*
X056810Y032693D01*
X056921Y032647D01*
X056969Y032641D01*
Y032540D01*
X056921Y032534D01*
X056810Y032488D01*
X056715Y032415D01*
X056642Y032320D01*
X056596Y032209D01*
X056590Y032161D01*
X056489D01*
X056483Y032209D01*
X056437Y032320D01*
X056364Y032415D01*
X056269Y032488D01*
X056158Y032534D01*
X056039Y032549D01*
X055921Y032534D01*
X055810Y032488D01*
X055792Y032474D01*
X055692Y032523D01*
Y032648D01*
X055681Y032701D01*
X055651Y032747D01*
X055466Y032932D01*
X055483Y032972D01*
X055498Y033091D01*
X055483Y033209D01*
X055437Y033320D01*
X055364Y033415D01*
X055269Y033488D01*
X055158Y033534D01*
X055039Y033549D01*
X054921Y033534D01*
X054810Y033488D01*
X054715Y033415D01*
X054642Y033320D01*
X054596Y033209D01*
X054580Y033091D01*
X054596Y032972D01*
X054642Y032861D01*
X054715Y032766D01*
X054810Y032693D01*
X054921Y032647D01*
X054913Y032547D01*
X054803D01*
X054782Y032545D01*
X054743Y032571D01*
X054689Y032581D01*
X054497D01*
X054186Y032893D01*
X054223Y032982D01*
X054238Y033100D01*
X054223Y033219D01*
X054177Y033330D01*
X054104Y033425D01*
X054009Y033498D01*
X053898Y033544D01*
X053780Y033559D01*
D02*
G37*
G36*
X056039Y033509D02*
X055931Y033495D01*
X055830Y033453D01*
X055743Y033386D01*
X055677Y033300D01*
X055635Y033199D01*
X055621Y033091D01*
X055635Y032982D01*
X055677Y032881D01*
X055743Y032795D01*
X055830Y032728D01*
X055931Y032686D01*
X056039Y032672D01*
X056148Y032686D01*
X056249Y032728D01*
X056335Y032795D01*
X056402Y032881D01*
X056444Y032982D01*
X056458Y033091D01*
X056444Y033199D01*
X056402Y033300D01*
X056335Y033386D01*
X056249Y033453D01*
X056148Y033495D01*
X056039Y033509D01*
D02*
G37*
G36*
X058665Y038891D02*
X058562Y038877D01*
X058466Y038837D01*
X058383Y038774D01*
X058320Y038691D01*
X058280Y038595D01*
X058267Y038492D01*
X058280Y038389D01*
X058320Y038293D01*
X058383Y038210D01*
X058466Y038147D01*
X058562Y038107D01*
X058665Y038093D01*
X058769Y038107D01*
X058865Y038147D01*
X058947Y038210D01*
X059011Y038293D01*
X059050Y038389D01*
X059064Y038492D01*
X059050Y038595D01*
X059011Y038691D01*
X058947Y038774D01*
X058865Y038837D01*
X058769Y038877D01*
X058665Y038891D01*
D02*
G37*
G36*
X060600Y033486D02*
X060541Y033478D01*
X060486Y033456D01*
X060439Y033419D01*
X060403Y033372D01*
X060380Y033317D01*
X060372Y033258D01*
X060380Y033199D01*
X060393Y033168D01*
X060384Y033158D01*
X060299Y033104D01*
X060252Y033141D01*
X060197Y033163D01*
X060138Y033171D01*
X060079Y033163D01*
X060024Y033141D01*
X059976Y033104D01*
X059949Y033068D01*
X059899Y033064D01*
X059839Y033074D01*
X059834Y033087D01*
X059797Y033134D01*
X059750Y033170D01*
X059695Y033193D01*
X059636Y033201D01*
X059577Y033193D01*
X059522Y033170D01*
X059474Y033134D01*
X059372Y033164D01*
X059349Y033182D01*
X059294Y033204D01*
X059235Y033212D01*
X059176Y033204D01*
X059121Y033182D01*
X059039Y033144D01*
X058992Y033180D01*
X058937Y033203D01*
X058878Y033211D01*
X058819Y033203D01*
X058764Y033180D01*
X058717Y033144D01*
X058680Y033096D01*
X058657Y033041D01*
X058650Y032982D01*
X058657Y032923D01*
X058680Y032868D01*
X058699Y032843D01*
Y032490D01*
X058696Y032487D01*
X058665Y032447D01*
X058638Y032437D01*
X058621Y032436D01*
X058549Y032441D01*
X058535Y032459D01*
X058490Y032494D01*
X058437Y032516D01*
X058380Y032523D01*
X058323Y032516D01*
X058270Y032494D01*
X058224Y032459D01*
X058189Y032413D01*
X058184Y032400D01*
X058076D01*
X058070Y032413D01*
X058035Y032459D01*
X057990Y032494D01*
X057937Y032516D01*
X057880Y032523D01*
X057823Y032516D01*
X057770Y032494D01*
X057724Y032459D01*
X057689Y032413D01*
X057667Y032360D01*
X057660Y032303D01*
Y031634D01*
X057667Y031577D01*
X057689Y031524D01*
X057724Y031478D01*
X057770Y031443D01*
X057823Y031421D01*
X057880Y031414D01*
X057937Y031421D01*
X057990Y031443D01*
X058035Y031478D01*
X058070Y031524D01*
X058076Y031537D01*
X058184D01*
X058189Y031524D01*
X058224Y031478D01*
X058270Y031443D01*
X058323Y031421D01*
X058380Y031414D01*
X058437Y031421D01*
X058490Y031443D01*
X058535Y031478D01*
X058549Y031496D01*
X058621Y031501D01*
X058638Y031500D01*
X058665Y031490D01*
X058696Y031450D01*
X058750Y031408D01*
X058813Y031382D01*
X058880Y031374D01*
X058947Y031382D01*
X059010Y031408D01*
X059064Y031450D01*
X059070Y031458D01*
X059072Y031459D01*
X059188D01*
X059190Y031458D01*
X059196Y031450D01*
X059250Y031408D01*
X059313Y031382D01*
X059380Y031374D01*
X059447Y031382D01*
X059510Y031408D01*
X059564Y031450D01*
X059570Y031458D01*
X059572Y031459D01*
X059688D01*
X059690Y031458D01*
X059696Y031450D01*
X059750Y031408D01*
X059813Y031382D01*
X059880Y031374D01*
X059898Y031309D01*
X059920Y031254D01*
X059957Y031207D01*
X060004Y031170D01*
X060059Y031148D01*
X060118Y031140D01*
X060177Y031148D01*
X060232Y031170D01*
X060280Y031207D01*
X060316Y031254D01*
X060339Y031309D01*
X060380Y031374D01*
X060447Y031382D01*
X060510Y031408D01*
X060564Y031450D01*
X060570Y031458D01*
X060572Y031459D01*
X060688D01*
X060690Y031458D01*
X060696Y031450D01*
X060750Y031408D01*
X060813Y031382D01*
X060880Y031374D01*
X060890Y031375D01*
X060963Y031323D01*
X060980Y031302D01*
X060985Y031290D01*
X060990Y031250D01*
X061013Y031195D01*
X061049Y031148D01*
X061096Y031111D01*
X061152Y031089D01*
X061211Y031081D01*
X061270Y031089D01*
X061325Y031111D01*
X061372Y031148D01*
X061373Y031148D01*
X062234D01*
X062234Y031148D01*
X062296Y031161D01*
X062348Y031196D01*
X062493Y031341D01*
X062493Y031341D01*
X062528Y031393D01*
X062535Y031428D01*
X062564Y031450D01*
X062570Y031458D01*
X062572Y031459D01*
X062688D01*
X062690Y031458D01*
X062696Y031450D01*
X062750Y031408D01*
X062813Y031382D01*
X062880Y031374D01*
X062947Y031382D01*
X063010Y031408D01*
X063064Y031450D01*
X063095Y031490D01*
X063121Y031500D01*
X063139Y031501D01*
X063211Y031496D01*
X063224Y031478D01*
X063270Y031443D01*
X063323Y031421D01*
X063380Y031414D01*
X063437Y031421D01*
X063490Y031443D01*
X063535Y031478D01*
X063570Y031524D01*
X063592Y031577D01*
X063600Y031634D01*
Y032303D01*
X063592Y032360D01*
X063570Y032413D01*
X063535Y032459D01*
X063490Y032494D01*
X063437Y032516D01*
X063380Y032523D01*
X063323Y032516D01*
X063270Y032494D01*
X063224Y032459D01*
X063211Y032441D01*
X063139Y032436D01*
X063121Y032437D01*
X063095Y032447D01*
X063064Y032487D01*
X063010Y032529D01*
X062947Y032555D01*
X062880Y032563D01*
X062837Y032558D01*
X062614Y032781D01*
X062561Y032816D01*
X062500Y032828D01*
X062500Y032828D01*
X061996D01*
X061618Y033206D01*
X061579Y033232D01*
X061562Y033254D01*
X061515Y033290D01*
X061460Y033313D01*
X061401Y033321D01*
X061342Y033313D01*
X061286Y033290D01*
X061239Y033254D01*
X061203Y033206D01*
X061199Y033202D01*
X061195Y033200D01*
X061088Y033188D01*
X061065Y033206D01*
X061010Y033228D01*
X060951Y033236D01*
X060926Y033233D01*
X060877Y033246D01*
X060822Y033308D01*
X060821Y033317D01*
X060798Y033372D01*
X060762Y033419D01*
X060715Y033456D01*
X060659Y033478D01*
X060600Y033486D01*
D02*
G37*
G36*
X060552Y030124D02*
X060000D01*
X059926Y030109D01*
X059863Y030068D01*
X059822Y030005D01*
X059807Y029932D01*
Y029320D01*
X059822Y029247D01*
X059863Y029184D01*
X059926Y029143D01*
X060000Y029128D01*
X060263D01*
Y028987D01*
X060242Y028971D01*
X060206Y028923D01*
X060183Y028868D01*
X060175Y028809D01*
X060183Y028750D01*
X060206Y028695D01*
X060242Y028648D01*
X060289Y028611D01*
X060344Y028589D01*
X060404Y028581D01*
X060463Y028589D01*
X060518Y028611D01*
X060565Y028648D01*
X060601Y028695D01*
X060624Y028750D01*
X060632Y028809D01*
X060624Y028868D01*
X060601Y028923D01*
X060565Y028971D01*
X060544Y028987D01*
Y029128D01*
X060552D01*
X060625Y029143D01*
X060688Y029184D01*
X060729Y029247D01*
X060744Y029320D01*
Y029932D01*
X060729Y030005D01*
X060688Y030068D01*
X060625Y030109D01*
X060552Y030124D01*
D02*
G37*
G36*
X057274Y029904D02*
X057215Y029896D01*
X057159Y029873D01*
X057112Y029837D01*
X057076Y029789D01*
X057053Y029734D01*
X057045Y029675D01*
X057053Y029616D01*
X057060Y029600D01*
X056215Y028755D01*
X056180Y028703D01*
X056180Y028700D01*
X056148Y028675D01*
X056111Y028628D01*
X056089Y028573D01*
X056081Y028514D01*
X056089Y028455D01*
X056111Y028400D01*
X056148Y028352D01*
X056195Y028316D01*
X056250Y028293D01*
X056309Y028285D01*
X056368Y028293D01*
X056423Y028316D01*
X056471Y028352D01*
X056507Y028400D01*
X056530Y028455D01*
X056537Y028514D01*
X056530Y028573D01*
X056517Y028603D01*
X057387Y029473D01*
X057393Y029481D01*
X057435Y029514D01*
X057471Y029561D01*
X057494Y029616D01*
X057502Y029675D01*
X057494Y029734D01*
X057471Y029789D01*
X057435Y029837D01*
X057388Y029873D01*
X057333Y029896D01*
X057274Y029904D01*
D02*
G37*
G36*
X056965Y030763D02*
X056861Y030749D01*
X056765Y030709D01*
X056683Y030646D01*
X056619Y030564D01*
X056579Y030467D01*
X056566Y030364D01*
X056579Y030261D01*
X056619Y030165D01*
X056683Y030082D01*
X056765Y030019D01*
X056861Y029979D01*
X056965Y029965D01*
X057068Y029979D01*
X057164Y030019D01*
X057246Y030082D01*
X057310Y030165D01*
X057350Y030261D01*
X057363Y030364D01*
X057350Y030467D01*
X057310Y030564D01*
X057246Y030646D01*
X057164Y030709D01*
X057068Y030749D01*
X056965Y030763D01*
D02*
G37*
G36*
X050475Y032937D02*
X050416Y032929D01*
X050361Y032906D01*
X050313Y032870D01*
X050277Y032822D01*
X050254Y032767D01*
X050247Y032708D01*
X050254Y032649D01*
X050277Y032594D01*
X050313Y032547D01*
X050314Y032546D01*
Y031945D01*
X050313Y031944D01*
X050277Y031897D01*
X050254Y031842D01*
X050247Y031783D01*
X050254Y031724D01*
X050277Y031669D01*
X050313Y031622D01*
X050361Y031585D01*
X050416Y031562D01*
X050475Y031555D01*
X050534Y031562D01*
X050589Y031585D01*
X050636Y031622D01*
X050673Y031669D01*
X050695Y031724D01*
X050703Y031783D01*
X050695Y031842D01*
X050673Y031897D01*
X050636Y031944D01*
X050635Y031945D01*
Y032546D01*
X050636Y032547D01*
X050673Y032594D01*
X050695Y032649D01*
X050703Y032708D01*
X050695Y032767D01*
X050673Y032822D01*
X050636Y032870D01*
X050589Y032906D01*
X050534Y032929D01*
X050475Y032937D01*
D02*
G37*
G36*
X061378Y030484D02*
X061319Y030476D01*
X061264Y030454D01*
X061217Y030417D01*
X061180Y030370D01*
X061157Y030315D01*
X061150Y030256D01*
X061154Y030224D01*
X061120Y030159D01*
X061081Y030120D01*
X061028Y030109D01*
X060966Y030068D01*
X060924Y030005D01*
X060909Y029932D01*
Y029320D01*
X060924Y029247D01*
X060966Y029184D01*
X060982Y029174D01*
Y028824D01*
X060980Y028823D01*
X060944Y028776D01*
X060921Y028721D01*
X060913Y028661D01*
X060921Y028602D01*
X060944Y028547D01*
X060980Y028500D01*
X061028Y028464D01*
X061083Y028441D01*
X061142Y028433D01*
X061201Y028441D01*
X061256Y028464D01*
X061303Y028500D01*
X061339Y028547D01*
X061362Y028602D01*
X061370Y028661D01*
X061362Y028721D01*
X061339Y028776D01*
X061303Y028823D01*
X061263Y028854D01*
Y029128D01*
X061654D01*
X061728Y029143D01*
X061790Y029184D01*
X061832Y029247D01*
X061846Y029320D01*
Y029932D01*
X061846Y029933D01*
X061850Y029944D01*
X061931Y030019D01*
X061939Y030018D01*
X061998Y030026D01*
X062053Y030048D01*
X062100Y030085D01*
X062137Y030132D01*
X062160Y030187D01*
X062167Y030246D01*
X062160Y030305D01*
X062137Y030360D01*
X062100Y030408D01*
X062053Y030444D01*
X061998Y030467D01*
X061939Y030474D01*
X061880Y030467D01*
X061825Y030444D01*
X061815Y030437D01*
X061514D01*
X061492Y030454D01*
X061437Y030476D01*
X061378Y030484D01*
D02*
G37*
G36*
X050665Y038931D02*
X050552Y038916D01*
X050446Y038872D01*
X050355Y038803D01*
X050285Y038712D01*
X050241Y038606D01*
X050226Y038492D01*
X050241Y038379D01*
X050285Y038273D01*
X050355Y038182D01*
X050446Y038112D01*
X050552Y038068D01*
X050665Y038053D01*
X050779Y038068D01*
X050885Y038112D01*
X050976Y038182D01*
X051046Y038273D01*
X051089Y038379D01*
X051104Y038492D01*
X051089Y038606D01*
X051046Y038712D01*
X050976Y038803D01*
X050885Y038872D01*
X050779Y038916D01*
X050665Y038931D01*
D02*
G37*
G36*
X049665D02*
X049552Y038916D01*
X049446Y038872D01*
X049355Y038803D01*
X049285Y038712D01*
X049241Y038606D01*
X049226Y038492D01*
X049241Y038379D01*
X049285Y038273D01*
X049355Y038182D01*
X049446Y038112D01*
X049552Y038068D01*
X049665Y038053D01*
X049779Y038068D01*
X049885Y038112D01*
X049976Y038182D01*
X050046Y038273D01*
X050089Y038379D01*
X050104Y038492D01*
X050089Y038606D01*
X050046Y038712D01*
X049976Y038803D01*
X049885Y038872D01*
X049779Y038916D01*
X049665Y038931D01*
D02*
G37*
G36*
X055665D02*
X055552Y038916D01*
X055446Y038872D01*
X055355Y038803D01*
X055285Y038712D01*
X055241Y038606D01*
X055226Y038492D01*
X055241Y038379D01*
X055285Y038273D01*
X055355Y038182D01*
X055446Y038112D01*
X055552Y038068D01*
X055665Y038053D01*
X055779Y038068D01*
X055885Y038112D01*
X055976Y038182D01*
X056046Y038273D01*
X056089Y038379D01*
X056104Y038492D01*
X056089Y038606D01*
X056046Y038712D01*
X055976Y038803D01*
X055885Y038872D01*
X055779Y038916D01*
X055665Y038931D01*
D02*
G37*
G36*
X044665Y038891D02*
X044562Y038877D01*
X044466Y038837D01*
X044383Y038774D01*
X044320Y038691D01*
X044280Y038595D01*
X044267Y038492D01*
X044280Y038389D01*
X044320Y038293D01*
X044383Y038210D01*
X044466Y038147D01*
X044562Y038107D01*
X044665Y038093D01*
X044769Y038107D01*
X044865Y038147D01*
X044947Y038210D01*
X045011Y038293D01*
X045050Y038389D01*
X045064Y038492D01*
X045050Y038595D01*
X045011Y038691D01*
X044947Y038774D01*
X044865Y038837D01*
X044769Y038877D01*
X044665Y038891D01*
D02*
G37*
G36*
X061665Y038931D02*
X061552Y038916D01*
X061446Y038872D01*
X061355Y038803D01*
X061285Y038712D01*
X061241Y038606D01*
X061226Y038492D01*
X061241Y038379D01*
X061285Y038273D01*
X061355Y038182D01*
X061446Y038112D01*
X061552Y038068D01*
X061665Y038053D01*
X061779Y038068D01*
X061885Y038112D01*
X061976Y038182D01*
X062046Y038273D01*
X062089Y038379D01*
X062104Y038492D01*
X062089Y038606D01*
X062046Y038712D01*
X061976Y038803D01*
X061885Y038872D01*
X061779Y038916D01*
X061665Y038931D01*
D02*
G37*
G36*
X051665Y038891D02*
X051562Y038877D01*
X051466Y038837D01*
X051383Y038774D01*
X051320Y038691D01*
X051280Y038595D01*
X051267Y038492D01*
X051280Y038389D01*
X051320Y038293D01*
X051383Y038210D01*
X051466Y038147D01*
X051562Y038107D01*
X051665Y038093D01*
X051769Y038107D01*
X051865Y038147D01*
X051947Y038210D01*
X052011Y038293D01*
X052050Y038389D01*
X052064Y038492D01*
X052050Y038595D01*
X052011Y038691D01*
X051947Y038774D01*
X051865Y038837D01*
X051769Y038877D01*
X051665Y038891D01*
D02*
G37*
G36*
X056665D02*
X056562Y038877D01*
X056466Y038837D01*
X056383Y038774D01*
X056320Y038691D01*
X056280Y038595D01*
X056267Y038492D01*
X056280Y038389D01*
X056320Y038293D01*
X056383Y038210D01*
X056466Y038147D01*
X056562Y038107D01*
X056665Y038093D01*
X056769Y038107D01*
X056865Y038147D01*
X056947Y038210D01*
X057011Y038293D01*
X057050Y038389D01*
X057064Y038492D01*
X057050Y038595D01*
X057011Y038691D01*
X056947Y038774D01*
X056865Y038837D01*
X056769Y038877D01*
X056665Y038891D01*
D02*
G37*
G36*
X048665D02*
X048562Y038877D01*
X048466Y038837D01*
X048383Y038774D01*
X048320Y038691D01*
X048280Y038595D01*
X048267Y038492D01*
X048280Y038389D01*
X048320Y038293D01*
X048383Y038210D01*
X048466Y038147D01*
X048562Y038107D01*
X048665Y038093D01*
X048769Y038107D01*
X048865Y038147D01*
X048947Y038210D01*
X049011Y038293D01*
X049050Y038389D01*
X049064Y038492D01*
X049050Y038595D01*
X049011Y038691D01*
X048947Y038774D01*
X048865Y038837D01*
X048769Y038877D01*
X048665Y038891D01*
D02*
G37*
G36*
X043665Y038931D02*
X043552Y038916D01*
X043446Y038872D01*
X043355Y038803D01*
X043285Y038712D01*
X043241Y038606D01*
X043226Y038492D01*
X043241Y038379D01*
X043285Y038273D01*
X043355Y038182D01*
X043446Y038112D01*
X043552Y038068D01*
X043665Y038053D01*
X043779Y038068D01*
X043885Y038112D01*
X043976Y038182D01*
X044046Y038273D01*
X044089Y038379D01*
X044104Y038492D01*
X044089Y038606D01*
X044046Y038712D01*
X043976Y038803D01*
X043885Y038872D01*
X043779Y038916D01*
X043665Y038931D01*
D02*
G37*
G36*
X042665D02*
X042552Y038916D01*
X042446Y038872D01*
X042355Y038803D01*
X042285Y038712D01*
X042241Y038606D01*
X042226Y038492D01*
X042241Y038379D01*
X042285Y038273D01*
X042355Y038182D01*
X042446Y038112D01*
X042552Y038068D01*
X042665Y038053D01*
X042779Y038068D01*
X042885Y038112D01*
X042976Y038182D01*
X043046Y038273D01*
X043089Y038379D01*
X043104Y038492D01*
X043089Y038606D01*
X043046Y038712D01*
X042976Y038803D01*
X042885Y038872D01*
X042779Y038916D01*
X042665Y038931D01*
D02*
G37*
%LPD*%
D10*
X047431Y033514D02*
D03*
Y034262D02*
D03*
X064370Y033386D02*
D03*
Y034134D02*
D03*
X056929Y034075D02*
D03*
Y034823D02*
D03*
X053376Y028337D02*
D03*
Y029085D02*
D03*
X054222Y029085D02*
D03*
Y028337D02*
D03*
X055079Y028337D02*
D03*
Y029085D02*
D03*
X054813Y030413D02*
D03*
Y031161D02*
D03*
D11*
X055994Y035256D02*
D03*
X055246D02*
D03*
X052500Y030000D02*
D03*
X053248D02*
D03*
D15*
X048484Y029341D02*
D03*
X049587D02*
D03*
X060276Y029626D02*
D03*
X061378D02*
D03*
D19*
X056955Y029797D02*
Y030433D01*
X055965Y034705D02*
Y035256D01*
X055974Y034695D02*
X057402D01*
X052283Y030620D02*
X052333D01*
X044392Y030593D02*
Y030602D01*
X043998Y030572D02*
Y030628D01*
X052569Y029026D02*
Y029931D01*
X061122Y028681D02*
Y029370D01*
Y028681D02*
X061142Y028661D01*
X061122Y029370D02*
X061378Y029626D01*
X060276D02*
X060404Y029498D01*
Y028809D02*
Y029498D01*
X040951Y035181D02*
X041235Y034897D01*
X045950D01*
X046152Y034695D01*
X040951Y035181D02*
Y035551D01*
X055965Y034705D02*
X055974Y034695D01*
X046742D02*
X055974D01*
X057402D02*
X057880Y035173D01*
Y035551D01*
X052500Y030000D02*
Y030108D01*
X052825Y030433D01*
X053494D01*
X053652Y030276D01*
Y029360D02*
Y030276D01*
X053376Y029085D02*
X053652Y029360D01*
X054902Y030413D02*
X055266Y030049D01*
X054813Y030413D02*
X054902D01*
X054734D02*
X054813D01*
X054321Y030827D02*
X054734Y030413D01*
X054321Y030827D02*
Y031559D01*
X053780Y032100D02*
X054321Y031559D01*
X053780Y031100D02*
X054075Y030805D01*
Y029232D02*
Y030805D01*
Y029232D02*
X054222Y029085D01*
X054813Y031161D02*
Y031864D01*
X055039Y032091D01*
X053780Y033100D02*
X054439Y032441D01*
X054689D01*
X055039Y032091D01*
Y033091D02*
X055108D01*
X055551Y032648D01*
Y030837D02*
Y032648D01*
Y030837D02*
X055955Y030433D01*
X051486Y030541D02*
X052205D01*
X052283Y030620D01*
X056965Y030364D02*
Y031039D01*
X056014Y033091D02*
X056039D01*
X055482Y033622D02*
X056014Y033091D01*
X056039D02*
X056457Y033508D01*
Y033514D01*
X056039Y033091D02*
X056496Y032634D01*
Y032549D02*
Y032634D01*
D20*
X062687Y036496D02*
X063839D01*
X061691Y037492D02*
X062687Y036496D01*
X054193Y039154D02*
X060817D01*
X052854Y029508D02*
X053248Y029902D01*
X052854Y028917D02*
Y029508D01*
X048661Y039154D02*
X051663D01*
X045327D02*
X048661D01*
X042402D02*
X045327D01*
X041378Y036526D02*
X042156Y037303D01*
X040256Y036526D02*
X041378D01*
X041567Y034638D02*
X045205D01*
X041093Y032687D02*
X041270D01*
X045285Y030447D02*
X045347Y030386D01*
X045285Y030447D02*
Y031289D01*
X045451Y031455D01*
Y031969D01*
X063888Y032874D02*
X064370D01*
X063380Y032366D02*
X063888Y032874D01*
X063380Y031969D02*
Y032366D01*
X046732Y032756D02*
Y033346D01*
X046900Y033514D01*
X047431D01*
X046451Y031969D02*
Y032652D01*
X046555Y032756D01*
X046732D01*
X040951Y031969D02*
Y032545D01*
X041093Y032687D01*
X041270D02*
X041451Y032506D01*
Y031969D02*
Y032506D01*
X045951Y030153D02*
Y031969D01*
X045947Y030149D02*
X045951Y030153D01*
X045347Y030307D02*
Y030386D01*
X044943Y030454D02*
X044951Y030462D01*
Y031969D01*
X044392Y030602D02*
Y030711D01*
X044451Y030770D02*
Y031969D01*
X044392Y030711D02*
X044451Y030770D01*
X043951Y031969D02*
X043998Y031921D01*
Y030628D02*
Y031921D01*
X043437Y030720D02*
X043451Y030734D01*
Y031969D01*
X042951D02*
X042963Y031957D01*
Y031053D02*
Y031957D01*
X042896Y030986D02*
X042963Y031053D01*
X042896Y030877D02*
Y030986D01*
X042451Y031191D02*
Y031969D01*
X042384Y031124D02*
X042451Y031191D01*
X042384Y031025D02*
Y031124D01*
X041951Y031969D02*
X041988Y031931D01*
Y031280D02*
Y031931D01*
X061211Y031309D02*
X062234D01*
X062380Y031455D01*
Y031969D01*
X062880D02*
Y032287D01*
X062500Y032667D02*
X062880Y032287D01*
X061929Y032667D02*
X062500D01*
X061504Y033092D02*
X061929Y032667D01*
X061401Y033092D02*
X061504D01*
X061880Y031969D02*
Y032392D01*
X061585Y032687D02*
X061880Y032392D01*
X061417Y032687D02*
X061585D01*
X061096Y033008D02*
X061417Y032687D01*
X060951Y033008D02*
X061096D01*
X061380Y031969D02*
Y032439D01*
X061083Y032736D02*
X061380Y032439D01*
X060807Y032736D02*
X061083D01*
X060679Y032864D02*
X060807Y032736D01*
X060679Y032864D02*
Y033179D01*
X060600Y033258D02*
X060679Y033179D01*
X060880Y031969D02*
Y032329D01*
X060266Y032943D02*
X060880Y032329D01*
X060138Y032943D02*
X060266D01*
X060380Y031630D02*
Y031969D01*
X060118Y031368D02*
X060380Y031630D01*
X059880Y031969D02*
Y032522D01*
X059636Y032766D02*
X059880Y032522D01*
X059636Y032766D02*
Y032972D01*
X059232D02*
Y032981D01*
X059235Y032984D01*
X059232Y032972D02*
X059380Y032825D01*
Y031969D02*
Y032825D01*
X058179Y032736D02*
X058297D01*
X057880Y032437D02*
X058179Y032736D01*
X057880Y031969D02*
Y032437D01*
X058380Y031969D02*
Y032654D01*
X058297Y032736D02*
X058380Y032654D01*
X052539Y027923D02*
Y028602D01*
X052854Y028917D01*
X053248Y029902D02*
Y030000D01*
X049468Y030030D02*
X050000Y030561D01*
X048337Y030030D02*
X049468D01*
X048258Y029951D02*
X048337Y030030D01*
X049026Y028780D02*
X049587Y029341D01*
X049026Y028691D02*
Y028780D01*
X048484Y029341D02*
X048533Y029291D01*
Y028701D02*
Y029291D01*
X045205Y034638D02*
X045217Y034626D01*
X042156Y037303D02*
Y038907D01*
X042402Y039154D01*
X064370Y032874D02*
Y033386D01*
X056142Y034114D02*
X056161Y034134D01*
X056142Y034016D02*
Y034114D01*
X050475Y031783D02*
Y032708D01*
X047697Y033740D02*
X048081D01*
X047470Y033514D02*
X047697Y033740D01*
X047431Y033514D02*
X047470D01*
X048032Y033691D02*
X048081Y033740D01*
X047500Y034970D02*
X047510Y034961D01*
X048366D01*
X046665Y037492D02*
Y037758D01*
X047156Y038248D01*
Y039124D01*
X061191Y037963D02*
X061661Y037492D01*
X061665D01*
X058665Y038492D02*
Y039138D01*
X056665Y038492D02*
Y039126D01*
X054665Y037492D02*
Y037520D01*
X054193Y037992D02*
X054665Y037520D01*
X054193Y037992D02*
Y039154D01*
X044665Y038492D02*
X045327Y039154D01*
X060817D02*
X061191Y038780D01*
Y037963D02*
Y038780D01*
X061665Y037492D02*
X061691D01*
X063839Y036496D02*
X064360Y035974D01*
X063380Y034179D02*
Y035551D01*
Y034179D02*
X063425Y034134D01*
X051665Y038492D02*
Y039152D01*
X051663Y039154D02*
X051665Y039152D01*
X051663Y039154D02*
X054193D01*
X048665Y038492D02*
Y039150D01*
X048661Y039154D02*
X048665Y039150D01*
X054321Y028337D02*
X055069Y029085D01*
X054203Y028337D02*
X054222D01*
X054301D01*
X057244Y029646D02*
X057274Y029675D01*
X056309Y028514D02*
X056329Y028533D01*
Y028642D01*
X057274Y029587D01*
Y029675D01*
X050000Y030561D02*
X051043D01*
X051683Y029921D01*
X052490D01*
X046451Y034272D02*
Y034291D01*
Y035551D01*
D21*
X054832Y035207D02*
X054842Y035197D01*
X055157D01*
X055217Y035256D01*
X061339Y034134D02*
X061339Y034134D01*
X061339Y033858D02*
Y034134D01*
X058878Y032982D02*
X058880Y032980D01*
Y031969D02*
Y032980D01*
X050896Y029449D02*
X050925D01*
X052854Y028327D02*
X053356D01*
X061929Y030256D02*
X061939Y030246D01*
X061378Y030256D02*
X061929D01*
X055541Y028071D02*
X055551D01*
X055453Y028159D02*
X055541Y028071D01*
X055256Y028159D02*
X055453D01*
X055079Y028337D02*
X055256Y028159D01*
X050128Y030217D02*
Y030256D01*
Y030217D02*
X050896Y029449D01*
D23*
X047431Y033642D02*
D03*
Y034134D02*
D03*
X064370Y033514D02*
D03*
Y034006D02*
D03*
X056929Y034203D02*
D03*
Y034695D02*
D03*
X053376Y028465D02*
D03*
Y028957D02*
D03*
X054222Y028957D02*
D03*
Y028465D02*
D03*
X055079Y028465D02*
D03*
Y028957D02*
D03*
X054813Y030541D02*
D03*
Y031033D02*
D03*
D24*
X055866Y035256D02*
D03*
X055374D02*
D03*
X052628Y030000D02*
D03*
X053120D02*
D03*
D25*
X055665Y038492D02*
D03*
X056665D02*
D03*
X057665D02*
D03*
X058665D02*
D03*
X061665D02*
D03*
X060665D02*
D03*
X059665D02*
D03*
Y037492D02*
D03*
X060665D02*
D03*
X061665D02*
D03*
X058665D02*
D03*
X057665D02*
D03*
X056665D02*
D03*
X055665D02*
D03*
X047665D02*
D03*
X043665D02*
D03*
X048665D02*
D03*
X044665D02*
D03*
X049665D02*
D03*
X045665D02*
D03*
X050665D02*
D03*
X046665D02*
D03*
X051665D02*
D03*
X054665D02*
D03*
X053665D02*
D03*
X052665D02*
D03*
Y038492D02*
D03*
X053665D02*
D03*
X054665D02*
D03*
X051665D02*
D03*
X046665D02*
D03*
X050665D02*
D03*
X045665D02*
D03*
X049665D02*
D03*
X044665D02*
D03*
X048665D02*
D03*
X043665D02*
D03*
X047665D02*
D03*
X042665D02*
D03*
X056965Y030364D02*
D03*
D26*
X042665Y037492D02*
D03*
D27*
X053780Y033100D02*
D03*
Y032100D02*
D03*
X055039Y033091D02*
D03*
X056039Y032091D02*
D03*
Y033091D02*
D03*
X057039Y032091D02*
D03*
Y033091D02*
D03*
D28*
X053780Y031100D02*
D03*
D29*
X055039Y032091D02*
D03*
D30*
X055965Y030364D02*
D03*
D31*
X039823Y032736D02*
D03*
X040502Y032707D02*
D03*
X052579Y032982D02*
D03*
X051772Y034449D02*
D03*
X048494Y035925D02*
D03*
X050098Y036211D02*
D03*
X057156Y037146D02*
D03*
X056161D02*
D03*
X056378Y035778D02*
D03*
X062077Y028917D02*
D03*
X042244Y034616D02*
D03*
X043907Y032943D02*
D03*
X042156Y032844D02*
D03*
X041378Y036575D02*
D03*
X045886Y033927D02*
D03*
X045659Y028671D02*
D03*
X051053Y030906D02*
D03*
X052618Y030915D02*
D03*
X063799Y032441D02*
D03*
X064557Y032028D02*
D03*
X058465Y033652D02*
D03*
X044596Y030177D02*
D03*
X045807Y032815D02*
D03*
X047884Y035807D02*
D03*
X046929Y035719D02*
D03*
X046968Y035138D02*
D03*
X056211Y038986D02*
D03*
X058159Y038967D02*
D03*
X060177Y038996D02*
D03*
X062264Y038947D02*
D03*
X064488Y034813D02*
D03*
X063809Y034646D02*
D03*
X064596Y036772D02*
D03*
X063091Y036388D02*
D03*
X062175Y037037D02*
D03*
X060217Y034616D02*
D03*
X055276Y033691D02*
D03*
X057362Y035453D02*
D03*
X057067Y036093D02*
D03*
X055659Y036024D02*
D03*
X054301Y036280D02*
D03*
X053159Y037018D02*
D03*
X053189Y038002D02*
D03*
X051191Y037992D02*
D03*
X051171Y038976D02*
D03*
X048218Y038986D02*
D03*
X046191Y039006D02*
D03*
X043150Y038967D02*
D03*
X042018Y038976D02*
D03*
X039715Y036791D02*
D03*
X039764Y030187D02*
D03*
X039980Y033455D02*
D03*
X039970Y034518D02*
D03*
X041722Y033327D02*
D03*
X045138Y033947D02*
D03*
X046614Y033720D02*
D03*
X048130Y032835D02*
D03*
X048740Y033543D02*
D03*
X049144Y032854D02*
D03*
X049636Y031368D02*
D03*
X049232Y031132D02*
D03*
X049065Y030472D02*
D03*
X050089Y030945D02*
D03*
X046299Y029646D02*
D03*
X043809Y028701D02*
D03*
X043366Y029646D02*
D03*
X041339Y030984D02*
D03*
X042461Y028642D02*
D03*
X042707Y028002D02*
D03*
X044567Y027982D02*
D03*
X045797Y027894D02*
D03*
X050728Y027864D02*
D03*
X050472Y028898D02*
D03*
X058356Y028839D02*
D03*
X055935Y028297D02*
D03*
X056122Y029134D02*
D03*
X058947Y030551D02*
D03*
X060679Y031181D02*
D03*
X062205Y030768D02*
D03*
X064567Y030217D02*
D03*
X063780Y030807D02*
D03*
X057854Y030846D02*
D03*
X057618Y033514D02*
D03*
X059970D02*
D03*
X063120Y032736D02*
D03*
X062953Y033150D02*
D03*
X049882Y028652D02*
D03*
X047215Y027963D02*
D03*
X047864Y028681D02*
D03*
X062697Y034724D02*
D03*
X058110Y034646D02*
D03*
X052333Y030620D02*
D03*
X051486Y030541D02*
D03*
X054144Y034449D02*
D03*
X048533D02*
D03*
X049872D02*
D03*
X063780Y031388D02*
D03*
X064360Y035974D02*
D03*
X046732Y032756D02*
D03*
X040659Y030541D02*
D03*
X041191Y032707D02*
D03*
X045947Y030149D02*
D03*
X045347Y030307D02*
D03*
X044943Y030454D02*
D03*
X044392Y030602D02*
D03*
X043998Y030572D02*
D03*
X043437Y030720D02*
D03*
X042896Y030877D02*
D03*
X042384Y031025D02*
D03*
X041988Y031280D02*
D03*
X054832Y035207D02*
D03*
X061339Y033858D02*
D03*
X061211Y031309D02*
D03*
X061401Y033092D02*
D03*
X060951Y033008D02*
D03*
X060600Y033258D02*
D03*
X060138Y032943D02*
D03*
X060118Y031368D02*
D03*
X059636Y032972D02*
D03*
X059235Y032984D02*
D03*
X058878Y032982D02*
D03*
X058297Y032736D02*
D03*
X061693Y028740D02*
D03*
X052569Y029026D02*
D03*
X052854Y028327D02*
D03*
X061939Y030246D02*
D03*
X061378Y030256D02*
D03*
X059291Y028071D02*
D03*
X059695Y028878D02*
D03*
X061142Y028661D02*
D03*
X060404Y028809D02*
D03*
X057274Y029675D02*
D03*
X058760Y028848D02*
D03*
X046880Y028612D02*
D03*
X050896Y029449D02*
D03*
X050128Y030256D02*
D03*
X049026Y028691D02*
D03*
X048533Y028701D02*
D03*
X048258Y029951D02*
D03*
X045217Y034626D02*
D03*
X041567Y034638D02*
D03*
X040069Y035246D02*
D03*
X040256Y036526D02*
D03*
X062106Y032972D02*
D03*
X063583Y033661D02*
D03*
X064370Y032874D02*
D03*
X056142Y034016D02*
D03*
X053179Y033829D02*
D03*
X050994Y031378D02*
D03*
X051909Y031053D02*
D03*
X053533Y036437D02*
D03*
X053760Y036220D02*
D03*
X050475Y031783D02*
D03*
Y032708D02*
D03*
X048081Y033740D02*
D03*
X047500Y034970D02*
D03*
X048366Y034961D02*
D03*
X049294Y033525D02*
D03*
X049282Y034035D02*
D03*
X046152Y034695D02*
D03*
X046742D02*
D03*
X056309Y028514D02*
D03*
X055266Y030049D02*
D03*
X055551Y028071D02*
D03*
X052953Y029508D02*
D03*
X050699Y030246D02*
D03*
X051250Y029852D02*
D03*
X054646Y029843D02*
D03*
X055718Y029626D02*
D03*
X055837Y031260D02*
D03*
X054419Y033455D02*
D03*
X053159Y031988D02*
D03*
X055384Y034439D02*
D03*
X052490Y027894D02*
D03*
D32*
X040951Y035551D02*
D03*
X041451D02*
D03*
X041951D02*
D03*
X042451D02*
D03*
X042951D02*
D03*
X043451D02*
D03*
X043951D02*
D03*
X044451D02*
D03*
X044951D02*
D03*
X045451D02*
D03*
X045951D02*
D03*
X046451D02*
D03*
X040951Y031969D02*
D03*
X041451D02*
D03*
X041951D02*
D03*
X042451D02*
D03*
X042951D02*
D03*
X043451D02*
D03*
X043951D02*
D03*
X044451D02*
D03*
X044951D02*
D03*
X045451D02*
D03*
X045951D02*
D03*
X046451D02*
D03*
X057880Y035551D02*
D03*
X058380D02*
D03*
X058880D02*
D03*
X059380D02*
D03*
X059880D02*
D03*
X060380D02*
D03*
X060880D02*
D03*
X061380D02*
D03*
X061880D02*
D03*
X062380D02*
D03*
X062880D02*
D03*
X063380D02*
D03*
X057880Y031969D02*
D03*
X058380D02*
D03*
X058880D02*
D03*
X059380D02*
D03*
X059880D02*
D03*
X060380D02*
D03*
X060880D02*
D03*
X061380D02*
D03*
X061880D02*
D03*
X062380D02*
D03*
X062880D02*
D03*
X063380D02*
D03*
D33*
X056161Y034134D02*
X061339D01*
X047441D02*
X056161D01*
X047293Y034281D02*
X047441Y034134D01*
X061339D02*
X063425D01*
X042665Y037350D02*
Y037492D01*
X041535Y036220D02*
X042665Y037350D01*
X040679Y036220D02*
X041535D01*
X040482Y036024D02*
X040679Y036220D01*
X049282Y033538D02*
X049294Y033525D01*
X049282Y033538D02*
Y034035D01*
X040482Y034852D02*
Y036024D01*
Y034852D02*
X041043Y034291D01*
X063425Y034134D02*
X064370D01*
X041043Y034291D02*
X046451D01*
X047372D01*
D34*
X045177Y038004D02*
X045665Y038492D01*
X046181Y038008D02*
X046665Y038492D01*
X047165Y037992D02*
X047665Y038492D01*
X045177Y037382D02*
Y038004D01*
X044880Y037085D02*
X045177Y037382D01*
X044451Y035748D02*
Y035957D01*
X044864Y036370D01*
X045206D01*
X043951Y035846D02*
Y035929D01*
X044533Y036512D01*
X045148D01*
X043451Y035846D02*
Y035941D01*
X044163Y036654D01*
X045059D01*
X042951Y035846D02*
Y036012D01*
X043740Y036801D01*
X045006D01*
X042451Y035846D02*
Y035974D01*
X043419Y036943D01*
X044948D01*
X041951Y035846D02*
Y035967D01*
X043069Y037085D01*
X044880D01*
X052185Y038012D02*
X052665Y038492D01*
X047165Y037283D02*
Y037992D01*
X046181Y037392D02*
Y038008D01*
X046071Y037063D02*
X046945D01*
X047165Y037283D01*
X046129Y036921D02*
X047094D01*
X047665Y037492D01*
X046188Y036780D02*
X047953D01*
X048665Y037492D01*
X045951Y035551D02*
Y035911D01*
Y035961D01*
X051152Y036978D02*
X051665Y037492D01*
X049547Y036978D02*
X051152D01*
X045951Y035911D02*
X046138Y036098D01*
X046309D01*
X046250Y036240D02*
X046358Y036348D01*
X046191Y036382D02*
X046305Y036496D01*
X046133Y036524D02*
X046247Y036638D01*
X046074Y036665D02*
X046188Y036780D01*
X046015Y036807D02*
X046129Y036921D01*
X045956Y036949D02*
X046071Y037063D01*
X045095Y037091D02*
X045880D01*
X046181Y037392D01*
X045154Y036949D02*
X045956D01*
X045213Y036807D02*
X046015D01*
X045301Y036665D02*
X046074D01*
X045360Y036524D02*
X046133D01*
X045419Y036382D02*
X046191D01*
X044948Y036943D02*
X045095Y037091D01*
X045006Y036801D02*
X045154Y036949D01*
X045059Y036654D02*
X045213Y036807D01*
X045148Y036512D02*
X045301Y036665D01*
X045206Y036370D02*
X045360Y036524D01*
X044951Y035914D02*
X045419Y036382D01*
X046309Y036098D02*
X046404Y036194D01*
X044951Y035551D02*
Y035914D01*
X045451Y035551D02*
Y035904D01*
X045787Y036240D01*
X046250D01*
X049083Y036909D02*
X049665Y037492D01*
X048583Y036909D02*
X049083D01*
X048311Y036638D02*
X048583Y036909D01*
X046247Y036638D02*
X048311D01*
X049537Y036417D02*
X049744Y036624D01*
X048740Y036417D02*
X049537D01*
X048517Y036194D02*
X048740Y036417D01*
X046404Y036194D02*
X048517D01*
X046358Y036348D02*
X048471D01*
X048681Y036559D01*
X049404D01*
X049646Y036801D01*
X046305Y036496D02*
X048418D01*
X048623Y036701D01*
X049270D01*
X049547Y036978D01*
X049744Y036624D02*
X051797D01*
X052665Y037492D01*
X049646Y036801D02*
X051673D01*
X052185Y037313D01*
Y038012D01*
X058880Y035551D02*
Y035972D01*
X059380Y035551D02*
Y035886D01*
X053665Y038492D02*
X053947Y038211D01*
Y037953D02*
Y038211D01*
Y037953D02*
X054134Y037766D01*
Y037274D02*
Y037766D01*
X059880Y035551D02*
Y035967D01*
X054665Y038492D02*
X055157Y038000D01*
X057665Y038492D02*
X057719D01*
X058179Y038031D01*
X059557Y036752D02*
X060380Y035929D01*
Y035551D02*
Y035929D01*
X058179Y037185D02*
Y038031D01*
X058665Y037492D02*
X059248Y036909D01*
X059951D01*
X060880Y035980D01*
Y035551D02*
Y035980D01*
X059665Y037492D02*
X060760Y036398D01*
X060906D01*
X061380Y035923D01*
Y035551D02*
Y035923D01*
X059282Y036565D02*
X059880Y035967D01*
X055157Y037215D02*
Y038000D01*
Y037215D02*
X055512Y036860D01*
X054134Y037274D02*
X054744Y036663D01*
X053665Y037492D02*
X054681Y036476D01*
X058376D02*
X058880Y035972D01*
X061230Y036545D02*
X061880Y035896D01*
Y035551D02*
Y035896D01*
X062380Y035551D02*
Y035878D01*
X060665Y037396D02*
Y037492D01*
Y038254D02*
Y038492D01*
Y038254D02*
X061142Y037778D01*
X062880Y035551D02*
Y036008D01*
X062657Y036230D02*
X062880Y036008D01*
X062333Y036230D02*
X062657D01*
X061575Y036988D02*
X062333Y036230D01*
X061142Y037313D02*
Y037778D01*
Y037313D02*
X061467Y036988D01*
X061575D01*
X060665Y037396D02*
X061339Y036722D01*
X061535D01*
X062380Y035878D01*
X060906Y036545D02*
X061230D01*
X060167Y037283D02*
X060906Y036545D01*
X060167Y037283D02*
Y037990D01*
X059665Y038492D02*
X060167Y037990D01*
X059124Y036752D02*
X059557D01*
X058179Y037185D02*
X058362Y037002D01*
X058874D01*
X059124Y036752D01*
X054744Y036663D02*
X058602D01*
X059380Y035886D01*
X054681Y036476D02*
X058376D01*
X055512Y036860D02*
X058711D01*
X059006Y036565D01*
X059282D01*
M02*
