G04 Layer_Color=32896*
%FSAX24Y24*%
%MOIN*%
G70*
G01*
G75*
%ADD19C,0.0079*%
%ADD36C,0.0059*%
D19*
X046555Y032972D02*
G03*
X046555Y032972I-000118J000000D01*
G01*
X046835Y031969D02*
G03*
X046835Y031969I-000049J000000D01*
G01*
X063484Y032972D02*
G03*
X063484Y032972I-000118J000000D01*
G01*
X063764Y031969D02*
G03*
X063764Y031969I-000049J000000D01*
G01*
X040571Y032579D02*
Y034941D01*
X046831Y032579D02*
Y034941D01*
X040571D02*
X046831D01*
X040571Y032579D02*
X046831D01*
X057500D02*
Y034941D01*
X063760Y032579D02*
Y034941D01*
X057500D02*
X063760D01*
X057500Y032579D02*
X063760D01*
X047985Y028991D02*
X048085Y028891D01*
X047985Y028991D02*
Y029691D01*
X048085Y029791D01*
X049985Y028891D02*
X050085Y028991D01*
Y029691D01*
X049985Y029791D02*
X050085Y029691D01*
X059777Y029276D02*
X059877Y029176D01*
X059777Y029276D02*
Y029976D01*
X059877Y030076D01*
X061777Y029176D02*
X061877Y029276D01*
Y029976D01*
X061777Y030076D02*
X061877Y029976D01*
X047451Y031693D02*
X047123D01*
X047057Y031759D01*
Y031890D01*
X047123Y031955D01*
X047451D01*
X047385Y032086D02*
X047451Y032152D01*
Y032283D01*
X047385Y032349D01*
X047319D01*
X047254Y032283D01*
Y032218D01*
Y032283D01*
X047188Y032349D01*
X047123D01*
X047057Y032283D01*
Y032152D01*
X047123Y032086D01*
X064311Y031693D02*
X063983D01*
X063917Y031759D01*
Y031890D01*
X063983Y031955D01*
X064311D01*
Y032349D02*
Y032086D01*
X064114D01*
X064180Y032218D01*
Y032283D01*
X064114Y032349D01*
X063983D01*
X063917Y032283D01*
Y032152D01*
X063983Y032086D01*
X047631Y035075D02*
X047697Y035010D01*
Y034879D01*
X047631Y034813D01*
X047369D01*
X047303Y034879D01*
Y035010D01*
X047369Y035075D01*
X047697Y035207D02*
Y035469D01*
X047631D01*
X047369Y035207D01*
X047303D01*
X064609Y034938D02*
X064675Y034872D01*
Y034741D01*
X064609Y034675D01*
X064347D01*
X064282Y034741D01*
Y034872D01*
X064347Y034938D01*
X064609Y035069D02*
X064675Y035134D01*
Y035266D01*
X064609Y035331D01*
X064544D01*
X064478Y035266D01*
X064413Y035331D01*
X064347D01*
X064282Y035266D01*
Y035134D01*
X064347Y035069D01*
X064413D01*
X064478Y035134D01*
X064544Y035069D01*
X064609D01*
X064478Y035134D02*
Y035266D01*
X047494Y029472D02*
X047559Y029537D01*
X047690D01*
X047756Y029472D01*
Y029209D01*
X047690Y029144D01*
X047559D01*
X047494Y029209D01*
X047362Y029144D02*
X047231D01*
X047297D01*
Y029537D01*
X047362Y029472D01*
X046772Y029537D02*
X047034D01*
Y029340D01*
X046903Y029406D01*
X046838D01*
X046772Y029340D01*
Y029209D01*
X046838Y029144D01*
X046969D01*
X047034Y029209D01*
X059275Y029777D02*
X059341Y029842D01*
X059472D01*
X059537Y029777D01*
Y029514D01*
X059472Y029449D01*
X059341D01*
X059275Y029514D01*
X058881Y029449D02*
X059144D01*
X058881Y029711D01*
Y029777D01*
X058947Y029842D01*
X059078D01*
X059144Y029777D01*
X058750D02*
X058685Y029842D01*
X058553D01*
X058488Y029777D01*
Y029514D01*
X058553Y029449D01*
X058685D01*
X058750Y029514D01*
Y029777D01*
X056654Y035364D02*
X057047D01*
Y035561D01*
X056982Y035627D01*
X056850D01*
X056785Y035561D01*
Y035364D01*
Y035495D02*
X056654Y035627D01*
X056982Y035758D02*
X057047Y035823D01*
Y035955D01*
X056982Y036020D01*
X056916D01*
X056850Y035955D01*
Y035889D01*
Y035955D01*
X056785Y036020D01*
X056719D01*
X056654Y035955D01*
Y035823D01*
X056719Y035758D01*
X054646Y035069D02*
Y035462D01*
X054449D01*
X054383Y035397D01*
Y035266D01*
X054449Y035200D01*
X054646D01*
X054514D02*
X054383Y035069D01*
X054055D02*
Y035462D01*
X054252Y035266D01*
X053990D01*
X052352Y028248D02*
X052746D01*
Y028445D01*
X052680Y028510D01*
X052549D01*
X052484Y028445D01*
Y028248D01*
Y028379D02*
X052352Y028510D01*
X052418Y028642D02*
X052352Y028707D01*
Y028838D01*
X052418Y028904D01*
X052680D01*
X052746Y028838D01*
Y028707D01*
X052680Y028642D01*
X052615D01*
X052549Y028707D01*
Y028904D01*
X053839Y029626D02*
X054232D01*
Y029823D01*
X054167Y029888D01*
X054035D01*
X053970Y029823D01*
Y029626D01*
Y029757D02*
X053839Y029888D01*
X054167Y030020D02*
X054232Y030085D01*
Y030216D01*
X054167Y030282D01*
X054101D01*
X054035Y030216D01*
X053970Y030282D01*
X053904D01*
X053839Y030216D01*
Y030085D01*
X053904Y030020D01*
X053970D01*
X054035Y030085D01*
X054101Y030020D01*
X054167D01*
X054035Y030085D02*
Y030216D01*
X051968Y029990D02*
Y030384D01*
X051772D01*
X051706Y030318D01*
Y030187D01*
X051772Y030121D01*
X051968D01*
X051837D02*
X051706Y029990D01*
X051575D02*
X051444D01*
X051509D01*
Y030384D01*
X051575Y030318D01*
X051247D02*
X051181Y030384D01*
X051050D01*
X050985Y030318D01*
Y030056D01*
X051050Y029990D01*
X051181D01*
X051247Y030056D01*
Y030318D01*
X056155Y031371D02*
X056221Y031437D01*
X056352D01*
X056417Y031371D01*
Y031109D01*
X056352Y031043D01*
X056221D01*
X056155Y031109D01*
X056024Y031043D02*
X055893D01*
X055958D01*
Y031437D01*
X056024Y031371D01*
X055696D02*
X055630Y031437D01*
X055499D01*
X055433Y031371D01*
Y031306D01*
X055499Y031240D01*
X055433Y031174D01*
Y031109D01*
X055499Y031043D01*
X055630D01*
X055696Y031109D01*
Y031174D01*
X055630Y031240D01*
X055696Y031306D01*
Y031371D01*
X055630Y031240D02*
X055499D01*
X055600Y028435D02*
X055994D01*
Y028632D01*
X055928Y028697D01*
X055797D01*
X055732Y028632D01*
Y028435D01*
Y028566D02*
X055600Y028697D01*
X055994Y028829D02*
Y029091D01*
X055928D01*
X055666Y028829D01*
X055600D01*
D36*
X047116Y033140D02*
X047746D01*
X047037Y033219D02*
X047116Y033140D01*
X047746D02*
X047825Y033219D01*
X047037Y034557D02*
X047116Y034636D01*
X047746D02*
X047825Y034557D01*
X047116Y034636D02*
X047746D01*
X064055Y033012D02*
X064685D01*
X063976Y033091D02*
X064055Y033012D01*
X064685D02*
X064764Y033091D01*
X063976Y034429D02*
X064055Y034508D01*
X064685D02*
X064764Y034429D01*
X064055Y034508D02*
X064685D01*
X056614Y033701D02*
X057244D01*
X056535Y033780D02*
X056614Y033701D01*
X057244D02*
X057323Y033780D01*
X056535Y035118D02*
X056614Y035197D01*
X057244D02*
X057323Y035118D01*
X056614Y035197D02*
X057244D01*
X056368Y034941D02*
Y035571D01*
X056289Y034862D02*
X056368Y034941D01*
X056289Y035650D02*
X056368Y035571D01*
X054872Y034941D02*
X054951Y034862D01*
X054872Y035571D02*
X054951Y035650D01*
X054872Y034941D02*
Y035571D01*
X053061Y027963D02*
X053691D01*
X052982Y028041D02*
X053061Y027963D01*
X053691D02*
X053770Y028041D01*
X052982Y029380D02*
X053061Y029459D01*
X053691D02*
X053770Y029380D01*
X053061Y029459D02*
X053691D01*
X053907D02*
X054537D01*
X054616Y029380D01*
X053829D02*
X053907Y029459D01*
X054537Y027963D02*
X054616Y028041D01*
X053829D02*
X053907Y027963D01*
X054537D01*
X052126Y029685D02*
Y030315D01*
X052205Y030394D01*
X052126Y029685D02*
X052205Y029606D01*
X053543Y030394D02*
X053622Y030315D01*
X053543Y029606D02*
X053622Y029685D01*
Y030315D01*
X054764Y027963D02*
X055394D01*
X054685Y028041D02*
X054764Y027963D01*
X055394D02*
X055472Y028041D01*
X054685Y029380D02*
X054764Y029459D01*
X055394D02*
X055472Y029380D01*
X054764Y029459D02*
X055394D01*
X054498Y030039D02*
X055128D01*
X054419Y030118D02*
X054498Y030039D01*
X055128D02*
X055207Y030118D01*
X054419Y031457D02*
X054498Y031535D01*
X055128D02*
X055207Y031457D01*
X054498Y031535D02*
X055128D01*
M02*
