G04 Layer_Color=8388736*
%FSAX24Y24*%
%MOIN*%
G70*
G01*
G75*
G04:AMPARAMS|DCode=37|XSize=67.1mil|YSize=59.2mil|CornerRadius=16.8mil|HoleSize=0mil|Usage=FLASHONLY|Rotation=180.000|XOffset=0mil|YOffset=0mil|HoleType=Round|Shape=RoundedRectangle|*
%AMROUNDEDRECTD37*
21,1,0.0671,0.0256,0,0,180.0*
21,1,0.0335,0.0592,0,0,180.0*
1,1,0.0336,-0.0167,0.0128*
1,1,0.0336,0.0167,0.0128*
1,1,0.0336,0.0167,-0.0128*
1,1,0.0336,-0.0167,-0.0128*
%
%ADD37ROUNDEDRECTD37*%
G04:AMPARAMS|DCode=38|XSize=67.1mil|YSize=59.2mil|CornerRadius=16.8mil|HoleSize=0mil|Usage=FLASHONLY|Rotation=90.000|XOffset=0mil|YOffset=0mil|HoleType=Round|Shape=RoundedRectangle|*
%AMROUNDEDRECTD38*
21,1,0.0671,0.0256,0,0,90.0*
21,1,0.0335,0.0592,0,0,90.0*
1,1,0.0336,0.0128,0.0167*
1,1,0.0336,0.0128,-0.0167*
1,1,0.0336,-0.0128,-0.0167*
1,1,0.0336,-0.0128,0.0167*
%
%ADD38ROUNDEDRECTD38*%
%ADD39O,0.0316X0.0946*%
G04:AMPARAMS|DCode=40|XSize=34.4mil|YSize=50mil|CornerRadius=7.3mil|HoleSize=0mil|Usage=FLASHONLY|Rotation=90.000|XOffset=0mil|YOffset=0mil|HoleType=Round|Shape=RoundedRectangle|*
%AMROUNDEDRECTD40*
21,1,0.0344,0.0354,0,0,90.0*
21,1,0.0198,0.0500,0,0,90.0*
1,1,0.0146,0.0177,0.0099*
1,1,0.0146,0.0177,-0.0099*
1,1,0.0146,-0.0177,-0.0099*
1,1,0.0146,-0.0177,0.0099*
%
%ADD40ROUNDEDRECTD40*%
%ADD41O,0.0257X0.0907*%
G04:AMPARAMS|DCode=42|XSize=78.9mil|YSize=73mil|CornerRadius=8.9mil|HoleSize=0mil|Usage=FLASHONLY|Rotation=90.000|XOffset=0mil|YOffset=0mil|HoleType=Round|Shape=RoundedRectangle|*
%AMROUNDEDRECTD42*
21,1,0.0789,0.0552,0,0,90.0*
21,1,0.0611,0.0730,0,0,90.0*
1,1,0.0177,0.0276,0.0306*
1,1,0.0177,0.0276,-0.0306*
1,1,0.0177,-0.0276,-0.0306*
1,1,0.0177,-0.0276,0.0306*
%
%ADD42ROUNDEDRECTD42*%
G04:AMPARAMS|DCode=43|XSize=78.9mil|YSize=73mil|CornerRadius=8.9mil|HoleSize=0mil|Usage=FLASHONLY|Rotation=180.000|XOffset=0mil|YOffset=0mil|HoleType=Round|Shape=RoundedRectangle|*
%AMROUNDEDRECTD43*
21,1,0.0789,0.0552,0,0,180.0*
21,1,0.0611,0.0730,0,0,180.0*
1,1,0.0177,-0.0306,0.0276*
1,1,0.0177,0.0306,0.0276*
1,1,0.0177,0.0306,-0.0276*
1,1,0.0177,-0.0306,-0.0276*
%
%ADD43ROUNDEDRECTD43*%
%ADD44R,0.1025X0.0474*%
%ADD45R,0.1025X0.1379*%
%ADD46R,0.0671X0.0336*%
%ADD47R,0.0336X0.0671*%
%ADD48C,0.0671*%
G04:AMPARAMS|DCode=49|XSize=67.1mil|YSize=67.1mil|CornerRadius=12.9mil|HoleSize=0mil|Usage=FLASHONLY|Rotation=0.000|XOffset=0mil|YOffset=0mil|HoleType=Round|Shape=RoundedRectangle|*
%AMROUNDEDRECTD49*
21,1,0.0671,0.0413,0,0,0.0*
21,1,0.0413,0.0671,0,0,0.0*
1,1,0.0257,0.0207,-0.0207*
1,1,0.0257,-0.0207,-0.0207*
1,1,0.0257,-0.0207,0.0207*
1,1,0.0257,0.0207,0.0207*
%
%ADD49ROUNDEDRECTD49*%
%ADD50C,0.0710*%
G04:AMPARAMS|DCode=51|XSize=71mil|YSize=71mil|CornerRadius=19.7mil|HoleSize=0mil|Usage=FLASHONLY|Rotation=90.000|XOffset=0mil|YOffset=0mil|HoleType=Round|Shape=RoundedRectangle|*
%AMROUNDEDRECTD51*
21,1,0.0710,0.0315,0,0,90.0*
21,1,0.0315,0.0710,0,0,90.0*
1,1,0.0395,0.0157,0.0157*
1,1,0.0395,0.0157,-0.0157*
1,1,0.0395,-0.0157,-0.0157*
1,1,0.0395,-0.0157,0.0157*
%
%ADD51ROUNDEDRECTD51*%
G04:AMPARAMS|DCode=52|XSize=71mil|YSize=71mil|CornerRadius=11.9mil|HoleSize=0mil|Usage=FLASHONLY|Rotation=0.000|XOffset=0mil|YOffset=0mil|HoleType=Round|Shape=RoundedRectangle|*
%AMROUNDEDRECTD52*
21,1,0.0710,0.0472,0,0,0.0*
21,1,0.0472,0.0710,0,0,0.0*
1,1,0.0237,0.0236,-0.0236*
1,1,0.0237,-0.0236,-0.0236*
1,1,0.0237,-0.0236,0.0236*
1,1,0.0237,0.0236,0.0236*
%
%ADD52ROUNDEDRECTD52*%
G04:AMPARAMS|DCode=53|XSize=67.1mil|YSize=67.1mil|CornerRadius=18.8mil|HoleSize=0mil|Usage=FLASHONLY|Rotation=0.000|XOffset=0mil|YOffset=0mil|HoleType=Round|Shape=RoundedRectangle|*
%AMROUNDEDRECTD53*
21,1,0.0671,0.0295,0,0,0.0*
21,1,0.0295,0.0671,0,0,0.0*
1,1,0.0375,0.0148,-0.0148*
1,1,0.0375,-0.0148,-0.0148*
1,1,0.0375,-0.0148,0.0148*
1,1,0.0375,0.0148,0.0148*
%
%ADD53ROUNDEDRECTD53*%
%ADD54C,0.1417*%
D37*
X050984Y032559D02*
D03*
Y031811D02*
D03*
X049016Y034862D02*
D03*
Y035610D02*
D03*
X051181Y028268D02*
D03*
Y029016D02*
D03*
X062894Y031378D02*
D03*
Y030630D02*
D03*
X056841Y028494D02*
D03*
Y029242D02*
D03*
X052087Y028268D02*
D03*
Y029016D02*
D03*
X057746Y029213D02*
D03*
Y028465D02*
D03*
D38*
X051890Y031555D02*
D03*
X052638D02*
D03*
X053061Y036437D02*
D03*
X052313D02*
D03*
X052638Y032402D02*
D03*
X051890D02*
D03*
X051447Y036427D02*
D03*
X050699D02*
D03*
X043091Y035827D02*
D03*
X042343D02*
D03*
X053760Y035659D02*
D03*
X054508D02*
D03*
X049508Y028150D02*
D03*
X050256D02*
D03*
X047835D02*
D03*
X048583D02*
D03*
X061339Y028150D02*
D03*
X062087D02*
D03*
X059764D02*
D03*
X060512D02*
D03*
X055108Y029213D02*
D03*
X054360D02*
D03*
D39*
X049799Y033583D02*
D03*
X050299D02*
D03*
X050799D02*
D03*
X051299D02*
D03*
X051799D02*
D03*
X052299D02*
D03*
X052799D02*
D03*
X049799Y035472D02*
D03*
X050299D02*
D03*
X050799D02*
D03*
X051299D02*
D03*
X051799D02*
D03*
X052299D02*
D03*
X052799D02*
D03*
D40*
X053612Y034862D02*
D03*
Y034488D02*
D03*
Y034114D02*
D03*
X054557D02*
D03*
Y034862D02*
D03*
D41*
X046732Y029341D02*
D03*
X046988D02*
D03*
X047244D02*
D03*
X047500D02*
D03*
X047756D02*
D03*
X048012D02*
D03*
X048268D02*
D03*
X048524D02*
D03*
X048780D02*
D03*
X049035D02*
D03*
X049291D02*
D03*
X049547D02*
D03*
X049803D02*
D03*
X050059D02*
D03*
X046732Y032057D02*
D03*
X046988D02*
D03*
X047244D02*
D03*
X047500D02*
D03*
X047756D02*
D03*
X048012D02*
D03*
X048268D02*
D03*
X048524D02*
D03*
X048780D02*
D03*
X049035D02*
D03*
X049291D02*
D03*
X049547D02*
D03*
X049803D02*
D03*
X050059D02*
D03*
X058612Y029577D02*
D03*
X058868D02*
D03*
X059124D02*
D03*
X059380D02*
D03*
X059636D02*
D03*
X059892D02*
D03*
X060148D02*
D03*
X060404D02*
D03*
X060659D02*
D03*
X060915D02*
D03*
X061171D02*
D03*
X061427D02*
D03*
X061683D02*
D03*
X061939D02*
D03*
X058612Y032293D02*
D03*
X058868D02*
D03*
X059124D02*
D03*
X059380D02*
D03*
X059636D02*
D03*
X059892D02*
D03*
X060148D02*
D03*
X060404D02*
D03*
X060659D02*
D03*
X060915D02*
D03*
X061171D02*
D03*
X061427D02*
D03*
X061683D02*
D03*
X061939D02*
D03*
D42*
X040197Y035827D02*
D03*
X041299D02*
D03*
X062953Y033858D02*
D03*
X061850D02*
D03*
D43*
X040157Y030945D02*
D03*
Y032047D02*
D03*
X044390Y035098D02*
D03*
Y033996D02*
D03*
D44*
X043061Y032864D02*
D03*
Y033770D02*
D03*
Y034675D02*
D03*
D45*
X040778Y033770D02*
D03*
D46*
X050984Y032431D02*
D03*
Y031939D02*
D03*
X049016Y034990D02*
D03*
Y035482D02*
D03*
X051181Y028396D02*
D03*
Y028888D02*
D03*
X062894Y031250D02*
D03*
Y030758D02*
D03*
X056841Y028622D02*
D03*
Y029114D02*
D03*
X052087Y028396D02*
D03*
Y028888D02*
D03*
X057746Y029085D02*
D03*
Y028593D02*
D03*
D47*
X052018Y031555D02*
D03*
X052510D02*
D03*
X052933Y036437D02*
D03*
X052441D02*
D03*
X052510Y032402D02*
D03*
X052018D02*
D03*
X051319Y036427D02*
D03*
X050827D02*
D03*
X042963Y035827D02*
D03*
X042470D02*
D03*
X053888Y035659D02*
D03*
X054380D02*
D03*
X049636Y028150D02*
D03*
X050128D02*
D03*
X047963D02*
D03*
X048455D02*
D03*
X061467D02*
D03*
X061959D02*
D03*
X059892D02*
D03*
X060384D02*
D03*
X054980Y029213D02*
D03*
X054488D02*
D03*
D48*
X055665Y038492D02*
D03*
X056665D02*
D03*
X057665D02*
D03*
X058665D02*
D03*
X061665D02*
D03*
X060665D02*
D03*
X059665D02*
D03*
Y037492D02*
D03*
X060665D02*
D03*
X061665D02*
D03*
X058665D02*
D03*
X057665D02*
D03*
X056665D02*
D03*
X055665D02*
D03*
X047665D02*
D03*
X043665D02*
D03*
X048665D02*
D03*
X044665D02*
D03*
X049665D02*
D03*
X045665D02*
D03*
X050665D02*
D03*
X046665D02*
D03*
X051665D02*
D03*
X054665D02*
D03*
X053665D02*
D03*
X052665D02*
D03*
Y038492D02*
D03*
X053665D02*
D03*
X054665D02*
D03*
X051665D02*
D03*
X046665D02*
D03*
X050665D02*
D03*
X045665D02*
D03*
X049665D02*
D03*
X044665D02*
D03*
X048665D02*
D03*
X043665D02*
D03*
X047665D02*
D03*
X042665D02*
D03*
X056965Y030364D02*
D03*
D49*
X042665Y037492D02*
D03*
D50*
X053780Y033100D02*
D03*
Y032100D02*
D03*
X055039Y033091D02*
D03*
X056039Y032091D02*
D03*
Y033091D02*
D03*
X057039Y032091D02*
D03*
Y033091D02*
D03*
D51*
X053780Y031100D02*
D03*
D52*
X055039Y032091D02*
D03*
D53*
X055965Y030364D02*
D03*
D54*
X063583Y037992D02*
D03*
Y028937D02*
D03*
X040748D02*
D03*
Y037992D02*
D03*
M02*
