M48
;Layer_Color=9474304
;FILE_FORMAT=4:4
METRIC,LZ
;TYPE=PLATED
T1F00S00C0.3000
T2F00S00C0.9000
T3F00S00C1.0000
;TYPE=NON_PLATED
T4F00S00C2.8000
%
T01
X0162Y007825
X0164Y007675
X0157325Y0076825
X01559Y007685
X0158Y007815
X0154125Y00792
X0149725Y00776
X014695Y007835
X01459Y00777
X0145475Y0075375
X014335
X01422Y00757
X014165Y007665
X0142275Y0077625
X01416Y0079125
X01387Y00775
X0137725Y007805
X0137025Y00759
X0138275Y0075725
X0139375Y007665
X0142625Y007325
X0142475Y0072075
X0148225Y007325
X014925Y0073275
X0151625Y007335
X0153425Y0073175
X01553Y00728
X01567Y0073
X0157675Y007345
X01506Y00713
X013425Y007195
X0133525Y0070725
Y0073725
X0132925Y0077775
X013365Y0078525
X013185Y0078875
X0130775Y0077575
X012985Y0078225
X0127225Y00786
X0127325Y007685
X0124625Y00774
X012505Y0079075
X0122575Y0076075
X0123275Y00729
X0124525Y0072875
X01267Y0072775
X01282Y00734
X0129275Y00748
X012885Y0070775
X0119925Y0071025
X0119075Y0072675
X0121575Y007285
X0115975Y0072825
X0116325Y007085
X01132Y0071075
X0111275Y00729
X011015Y00753
X01103304Y00780288
X01089553Y00784288
X01076553Y00788038
X0105Y00787
X0103275Y0077575
X0101Y0076675
X010785Y007275
X0108475Y0071125
X01117554Y00776538
X01127555Y00777288
X0113275Y007665
X01141556Y00773538
X01151806Y00769788
X01167057Y00765787
X01176Y00753
X01187Y00832
X011635Y008335
X011655Y0086175
X011465Y0086225
X011485Y008795
X0117225Y0088125
X0118725
X01184Y008565
X0111525Y0083675
X0107075Y0083425
X0105975Y008465
X0104625Y0083075
X0102875
X010115Y008315
X010155Y0084975
X0101525Y0087675
X0101775Y0089525
X010225Y0092775
X0100875Y009345
X01051Y00929
X01055801Y00879793
X01073Y0087925
X010665Y007945
X0106725Y0099
X01096Y0098975
X0117325Y0099075
X0122475Y0099025
X0129975Y0099
X0130025Y00965
X01351Y0096525
X0135025Y0094025
X0135975Y009255
X013655Y0092
X0137925Y009215
X01392736Y00894253
X0137525Y00875
X013695Y0085325
X0135075Y0085925
X0135275Y00835
X013355Y0083775
X0135475Y0080675
X0137Y0080075
X01388Y008035
X014335Y00803
X01439Y008345
X0145025Y008265
X0148075Y008315
X014955Y0083775
X01504573Y00837791
X0151475Y008375
X015275Y0083675
X0152325Y0085125
X0153925Y0084475
X0154815Y008384
X01559576Y00840541
X015775Y008375
X01558Y0086
X015295Y0087925
X01476Y0088
X01485Y0085475
X014635Y0085125
X01422Y0085225
X01426Y00864
X01404Y0085575
X0141375Y00915
X01432Y0090875
X014495Y0091675
X01457Y009005
X0145175Y009435
X014265
X0142775Y0099025
X0147725Y0098975
X015285Y009905
X015815Y0098925
X0157925Y0094075
X0155475Y0079525
X01527Y0079675
X0129525Y00797
X01282063Y00807289
Y0083079
X0124825Y008345
X01252061Y00851542
X0125175Y008645
X0126675Y00875
X0123025
X012285Y00888
X012065Y0088825
X01193Y008925
X01192Y0090725
X0121625Y009095
X0123175Y009125
X012725Y0091975
X01315Y00875
X01238Y00852
X0122125Y00857
X012225Y00834
X0126075Y0079675
X0162Y0079725
X016205Y00824
X0160325Y008315
X01599Y00842
X01615Y00855
X0162075Y0088
X01638Y0088425
X0163475Y0091375
X0164075Y00934
X016025Y0092425
X015925Y00882
X01635Y00835
X0163975Y008135
T02
X010837Y009523
X011091
X011345
X011599
X011853
Y009777
X011599
X011345
X011091
X010837
X012107
Y009523
X012361
X012615
X012869
X013123
X013377
X013631
X013885
X014139
Y009777
X014393
X014647
X014901
X015155
X015409
X015663
Y009523
X015409
X015155
X014901
X014647
X014393
X013885Y009777
X013631
X013377
X013123
X012869
X012615
X012361
T03
X014045Y0072835
Y0075375
Y0077915
X013955Y0082775
X014209
X013701
T04
X01615Y00735
X01035
Y00965
X01615
M30
