%FSAX24Y24*%
%MOIN*%
G70*
G01*
G75*
G04 Layer_Physical_Order=2*
G04 Layer_Color=16711680*
G04:AMPARAMS|DCode=10|XSize=59.1mil|YSize=51.2mil|CornerRadius=12.8mil|HoleSize=0mil|Usage=FLASHONLY|Rotation=180.000|XOffset=0mil|YOffset=0mil|HoleType=Round|Shape=RoundedRectangle|*
%AMROUNDEDRECTD10*
21,1,0.0591,0.0256,0,0,180.0*
21,1,0.0335,0.0512,0,0,180.0*
1,1,0.0256,-0.0167,0.0128*
1,1,0.0256,0.0167,0.0128*
1,1,0.0256,0.0167,-0.0128*
1,1,0.0256,-0.0167,-0.0128*
%
%ADD10ROUNDEDRECTD10*%
%ADD11O,0.0236X0.0827*%
G04:AMPARAMS|DCode=12|XSize=17.7mil|YSize=43.3mil|CornerRadius=4.4mil|HoleSize=0mil|Usage=FLASHONLY|Rotation=180.000|XOffset=0mil|YOffset=0mil|HoleType=Round|Shape=RoundedRectangle|*
%AMROUNDEDRECTD12*
21,1,0.0177,0.0344,0,0,180.0*
21,1,0.0089,0.0433,0,0,180.0*
1,1,0.0089,-0.0044,0.0172*
1,1,0.0089,0.0044,0.0172*
1,1,0.0089,0.0044,-0.0172*
1,1,0.0089,-0.0044,-0.0172*
%
%ADD12ROUNDEDRECTD12*%
G04:AMPARAMS|DCode=13|XSize=84.6mil|YSize=84.6mil|CornerRadius=4.2mil|HoleSize=0mil|Usage=FLASHONLY|Rotation=90.000|XOffset=0mil|YOffset=0mil|HoleType=Round|Shape=RoundedRectangle|*
%AMROUNDEDRECTD13*
21,1,0.0846,0.0762,0,0,90.0*
21,1,0.0762,0.0846,0,0,90.0*
1,1,0.0085,0.0381,0.0381*
1,1,0.0085,0.0381,-0.0381*
1,1,0.0085,-0.0381,-0.0381*
1,1,0.0085,-0.0381,0.0381*
%
%ADD13ROUNDEDRECTD13*%
G04:AMPARAMS|DCode=14|XSize=17.7mil|YSize=43.3mil|CornerRadius=4.4mil|HoleSize=0mil|Usage=FLASHONLY|Rotation=270.000|XOffset=0mil|YOffset=0mil|HoleType=Round|Shape=RoundedRectangle|*
%AMROUNDEDRECTD14*
21,1,0.0177,0.0344,0,0,270.0*
21,1,0.0089,0.0433,0,0,270.0*
1,1,0.0089,-0.0172,-0.0044*
1,1,0.0089,-0.0172,0.0044*
1,1,0.0089,0.0172,0.0044*
1,1,0.0089,0.0172,-0.0044*
%
%ADD14ROUNDEDRECTD14*%
G04:AMPARAMS|DCode=15|XSize=39.4mil|YSize=39.4mil|CornerRadius=9.8mil|HoleSize=0mil|Usage=FLASHONLY|Rotation=0.000|XOffset=0mil|YOffset=0mil|HoleType=Round|Shape=RoundedRectangle|*
%AMROUNDEDRECTD15*
21,1,0.0394,0.0197,0,0,0.0*
21,1,0.0197,0.0394,0,0,0.0*
1,1,0.0197,0.0098,-0.0098*
1,1,0.0197,-0.0098,-0.0098*
1,1,0.0197,-0.0098,0.0098*
1,1,0.0197,0.0098,0.0098*
%
%ADD15ROUNDEDRECTD15*%
G04:AMPARAMS|DCode=16|XSize=39.4mil|YSize=39.4mil|CornerRadius=9.8mil|HoleSize=0mil|Usage=FLASHONLY|Rotation=90.000|XOffset=0mil|YOffset=0mil|HoleType=Round|Shape=RoundedRectangle|*
%AMROUNDEDRECTD16*
21,1,0.0394,0.0197,0,0,90.0*
21,1,0.0197,0.0394,0,0,90.0*
1,1,0.0197,0.0098,0.0098*
1,1,0.0197,0.0098,-0.0098*
1,1,0.0197,-0.0098,-0.0098*
1,1,0.0197,-0.0098,0.0098*
%
%ADD16ROUNDEDRECTD16*%
G04:AMPARAMS|DCode=17|XSize=59.1mil|YSize=51.2mil|CornerRadius=12.8mil|HoleSize=0mil|Usage=FLASHONLY|Rotation=270.000|XOffset=0mil|YOffset=0mil|HoleType=Round|Shape=RoundedRectangle|*
%AMROUNDEDRECTD17*
21,1,0.0591,0.0256,0,0,270.0*
21,1,0.0335,0.0512,0,0,270.0*
1,1,0.0256,-0.0128,-0.0167*
1,1,0.0256,-0.0128,0.0167*
1,1,0.0256,0.0128,0.0167*
1,1,0.0256,0.0128,-0.0167*
%
%ADD17ROUNDEDRECTD17*%
G04:AMPARAMS|DCode=18|XSize=32mil|YSize=40mil|CornerRadius=4mil|HoleSize=0mil|Usage=FLASHONLY|Rotation=90.000|XOffset=0mil|YOffset=0mil|HoleType=Round|Shape=RoundedRectangle|*
%AMROUNDEDRECTD18*
21,1,0.0320,0.0320,0,0,90.0*
21,1,0.0240,0.0400,0,0,90.0*
1,1,0.0080,0.0160,0.0120*
1,1,0.0080,0.0160,-0.0120*
1,1,0.0080,-0.0160,-0.0120*
1,1,0.0080,-0.0160,0.0120*
%
%ADD18ROUNDEDRECTD18*%
G04:AMPARAMS|DCode=19|XSize=32mil|YSize=40mil|CornerRadius=4mil|HoleSize=0mil|Usage=FLASHONLY|Rotation=0.000|XOffset=0mil|YOffset=0mil|HoleType=Round|Shape=RoundedRectangle|*
%AMROUNDEDRECTD19*
21,1,0.0320,0.0320,0,0,0.0*
21,1,0.0240,0.0400,0,0,0.0*
1,1,0.0080,0.0120,-0.0160*
1,1,0.0080,-0.0120,-0.0160*
1,1,0.0080,-0.0120,0.0160*
1,1,0.0080,0.0120,0.0160*
%
%ADD19ROUNDEDRECTD19*%
G04:AMPARAMS|DCode=20|XSize=70.9mil|YSize=65mil|CornerRadius=4.9mil|HoleSize=0mil|Usage=FLASHONLY|Rotation=0.000|XOffset=0mil|YOffset=0mil|HoleType=Round|Shape=RoundedRectangle|*
%AMROUNDEDRECTD20*
21,1,0.0709,0.0552,0,0,0.0*
21,1,0.0611,0.0650,0,0,0.0*
1,1,0.0097,0.0306,-0.0276*
1,1,0.0097,-0.0306,-0.0276*
1,1,0.0097,-0.0306,0.0276*
1,1,0.0097,0.0306,0.0276*
%
%ADD20ROUNDEDRECTD20*%
%ADD21R,0.0630X0.1929*%
%ADD22R,0.0276X0.0925*%
%ADD23R,0.0512X0.0354*%
%ADD24R,0.0748X0.0354*%
%ADD25R,0.1063X0.0669*%
%ADD26C,0.0118*%
%ADD27C,0.0100*%
%ADD28C,0.0079*%
%ADD29C,0.0197*%
%ADD30R,0.0591X0.0256*%
%ADD31R,0.0394X0.0217*%
%ADD32R,0.0217X0.0394*%
%ADD33R,0.0256X0.0591*%
%ADD34C,0.0600*%
%ADD35R,0.0600X0.0600*%
%ADD36C,0.0591*%
G04:AMPARAMS|DCode=37|XSize=63mil|YSize=63mil|CornerRadius=7.9mil|HoleSize=0mil|Usage=FLASHONLY|Rotation=270.000|XOffset=0mil|YOffset=0mil|HoleType=Round|Shape=RoundedRectangle|*
%AMROUNDEDRECTD37*
21,1,0.0630,0.0472,0,0,270.0*
21,1,0.0472,0.0630,0,0,270.0*
1,1,0.0157,-0.0236,-0.0236*
1,1,0.0157,-0.0236,0.0236*
1,1,0.0157,0.0236,0.0236*
1,1,0.0157,0.0236,-0.0236*
%
%ADD37ROUNDEDRECTD37*%
%ADD38C,0.0630*%
G04:AMPARAMS|DCode=39|XSize=59.1mil|YSize=59.1mil|CornerRadius=14.8mil|HoleSize=0mil|Usage=FLASHONLY|Rotation=180.000|XOffset=0mil|YOffset=0mil|HoleType=Round|Shape=RoundedRectangle|*
%AMROUNDEDRECTD39*
21,1,0.0591,0.0295,0,0,180.0*
21,1,0.0295,0.0591,0,0,180.0*
1,1,0.0295,-0.0148,0.0148*
1,1,0.0295,0.0148,0.0148*
1,1,0.0295,0.0148,-0.0148*
1,1,0.0295,-0.0148,-0.0148*
%
%ADD39ROUNDEDRECTD39*%
G04:AMPARAMS|DCode=40|XSize=70.9mil|YSize=70.9mil|CornerRadius=17.7mil|HoleSize=0mil|Usage=FLASHONLY|Rotation=180.000|XOffset=0mil|YOffset=0mil|HoleType=Round|Shape=RoundedRectangle|*
%AMROUNDEDRECTD40*
21,1,0.0709,0.0354,0,0,180.0*
21,1,0.0354,0.0709,0,0,180.0*
1,1,0.0354,-0.0177,0.0177*
1,1,0.0354,0.0177,0.0177*
1,1,0.0354,0.0177,-0.0177*
1,1,0.0354,-0.0177,-0.0177*
%
%ADD40ROUNDEDRECTD40*%
%ADD41C,0.0709*%
%ADD42C,0.0256*%
G36*
X044010Y047040D02*
X044094Y047023D01*
X044959D01*
Y045018D01*
X045789D01*
Y047023D01*
X046564D01*
X046569Y046945D01*
X046535Y046940D01*
X046438Y046900D01*
X046356Y046837D01*
X046293Y046754D01*
X046253Y046658D01*
X046239Y046555D01*
X046253Y046452D01*
X046293Y046356D01*
X046356Y046273D01*
X046438Y046210D01*
X046535Y046170D01*
X046638Y046156D01*
X046741Y046170D01*
X046837Y046210D01*
X046920Y046273D01*
X046983Y046356D01*
X047023Y046452D01*
X047036Y046555D01*
X047023Y046658D01*
X046983Y046754D01*
X046920Y046837D01*
X046837Y046900D01*
X046741Y046940D01*
X046707Y046945D01*
X046712Y047023D01*
X047184D01*
X047196Y047007D01*
X047223Y046953D01*
X047172Y046886D01*
X047135Y046798D01*
X047123Y046703D01*
Y046407D01*
X047135Y046312D01*
X047172Y046224D01*
X047230Y046148D01*
X047306Y046089D01*
X047395Y046053D01*
X047490Y046040D01*
X047785D01*
X047881Y046053D01*
X047969Y046089D01*
X048045Y046148D01*
X048104Y046224D01*
X048140Y046312D01*
X048153Y046407D01*
Y046703D01*
X048140Y046798D01*
X048104Y046886D01*
X048053Y046953D01*
X048080Y047007D01*
X048092Y047023D01*
X048475D01*
X048510Y046953D01*
X048501Y046941D01*
X048444Y046803D01*
X048424Y046654D01*
X048444Y046505D01*
X048501Y046366D01*
X048593Y046246D01*
X048712Y046155D01*
X048851Y046097D01*
X049000Y046078D01*
X049149Y046097D01*
X049288Y046155D01*
X049407Y046246D01*
X049461Y046316D01*
X049539D01*
X049593Y046246D01*
X049712Y046155D01*
X049851Y046097D01*
X050000Y046078D01*
X050149Y046097D01*
X050288Y046155D01*
X050407Y046246D01*
X050416Y046258D01*
X050494D01*
X050542Y046196D01*
X050624Y046132D01*
X050720Y046093D01*
X050823Y046079D01*
X051177D01*
X051280Y046093D01*
X051376Y046132D01*
X051458Y046196D01*
X051521Y046278D01*
X051561Y046374D01*
X051574Y046476D01*
Y046831D01*
X051561Y046933D01*
X051551Y046958D01*
X051594Y047023D01*
X052362D01*
Y046867D01*
X052227Y046850D01*
X052102Y046798D01*
X051994Y046715D01*
X051911Y046607D01*
X051859Y046481D01*
X051841Y046346D01*
X051859Y046212D01*
X051911Y046086D01*
X051994Y045978D01*
X052102Y045895D01*
X052124Y045886D01*
Y045807D01*
X052102Y045798D01*
X051994Y045715D01*
X051911Y045607D01*
X051859Y045481D01*
X051841Y045346D01*
X051859Y045212D01*
X051911Y045086D01*
X051994Y044978D01*
X052102Y044895D01*
X052124Y044886D01*
Y044807D01*
X052102Y044798D01*
X051994Y044715D01*
X051911Y044607D01*
X051859Y044481D01*
X051841Y044346D01*
X051859Y044212D01*
X051911Y044086D01*
X051994Y043978D01*
X052102Y043895D01*
X052124Y043886D01*
Y043807D01*
X052102Y043798D01*
X051994Y043715D01*
X051911Y043607D01*
X051859Y043481D01*
X051841Y043346D01*
X051859Y043212D01*
X051911Y043086D01*
X051994Y042978D01*
X052102Y042895D01*
X052124Y042886D01*
Y042807D01*
X052102Y042798D01*
X051994Y042715D01*
X051911Y042607D01*
X051859Y042481D01*
X051841Y042346D01*
X051859Y042212D01*
X051911Y042086D01*
X051994Y041978D01*
X052102Y041895D01*
X052124Y041886D01*
Y041807D01*
X052102Y041798D01*
X051994Y041715D01*
X051911Y041607D01*
X051859Y041481D01*
X051841Y041346D01*
X051859Y041212D01*
X051911Y041086D01*
X051994Y040978D01*
X052102Y040895D01*
X052124Y040886D01*
Y040807D01*
X052102Y040798D01*
X051994Y040715D01*
X051911Y040607D01*
X051859Y040481D01*
X051841Y040346D01*
X051859Y040212D01*
X051911Y040086D01*
X051994Y039978D01*
X052102Y039895D01*
X052124Y039886D01*
Y039807D01*
X052102Y039798D01*
X051994Y039715D01*
X051911Y039607D01*
X051859Y039481D01*
X051841Y039346D01*
X051859Y039212D01*
X051911Y039086D01*
X051994Y038978D01*
X052102Y038895D01*
X052124Y038886D01*
Y038807D01*
X052102Y038798D01*
X051994Y038715D01*
X051911Y038607D01*
X051859Y038481D01*
X051841Y038346D01*
X051859Y038212D01*
X051911Y038086D01*
X051994Y037978D01*
X052102Y037895D01*
X052124Y037886D01*
Y037807D01*
X052102Y037798D01*
X051994Y037715D01*
X051911Y037607D01*
X051859Y037481D01*
X051841Y037346D01*
X051859Y037212D01*
X051911Y037086D01*
X051994Y036978D01*
X052102Y036895D01*
X052124Y036886D01*
Y036807D01*
X052102Y036798D01*
X051994Y036715D01*
X051911Y036607D01*
X051859Y036481D01*
X051841Y036346D01*
X051859Y036212D01*
X051911Y036086D01*
X051994Y035978D01*
X052102Y035895D01*
X052124Y035886D01*
Y035807D01*
X052102Y035798D01*
X051994Y035715D01*
X051911Y035607D01*
X051859Y035481D01*
X051841Y035346D01*
X051859Y035212D01*
X051911Y035086D01*
X051994Y034978D01*
X052102Y034895D01*
X052124Y034886D01*
Y034807D01*
X052102Y034798D01*
X051994Y034715D01*
X051911Y034607D01*
X051859Y034481D01*
X051841Y034346D01*
X051859Y034212D01*
X051911Y034086D01*
X051994Y033978D01*
X052102Y033895D01*
X052124Y033886D01*
Y033807D01*
X052102Y033798D01*
X051994Y033715D01*
X051911Y033607D01*
X051859Y033481D01*
X051841Y033346D01*
X051859Y033212D01*
X051911Y033086D01*
X051994Y032978D01*
X052102Y032895D01*
X052124Y032886D01*
Y032807D01*
X052102Y032798D01*
X051994Y032715D01*
X051911Y032607D01*
X051859Y032481D01*
X051841Y032346D01*
X051859Y032212D01*
X051911Y032086D01*
X051994Y031978D01*
X052102Y031895D01*
X052124Y031886D01*
Y031807D01*
X052102Y031798D01*
X051994Y031715D01*
X051911Y031607D01*
X051859Y031481D01*
X051841Y031346D01*
X051859Y031212D01*
X051911Y031086D01*
X051994Y030978D01*
X052102Y030895D01*
X052124Y030886D01*
Y030807D01*
X052102Y030798D01*
X051994Y030715D01*
X051911Y030607D01*
X051859Y030481D01*
X051841Y030346D01*
X051859Y030212D01*
X051911Y030086D01*
X051994Y029978D01*
X052102Y029895D01*
X052124Y029886D01*
Y029807D01*
X052102Y029798D01*
X051994Y029715D01*
X051911Y029607D01*
X051859Y029481D01*
X051841Y029346D01*
X051859Y029212D01*
X051911Y029086D01*
X051994Y028978D01*
X052102Y028895D01*
X052227Y028843D01*
X052362Y028825D01*
Y028746D01*
X051962D01*
Y027946D01*
X052362D01*
Y027780D01*
X040354D01*
Y027946D01*
X040754D01*
Y028746D01*
X040354D01*
Y028825D01*
X040489Y028843D01*
X040615Y028895D01*
X040723Y028978D01*
X040806Y029086D01*
X040858Y029212D01*
X040875Y029346D01*
X040858Y029481D01*
X040806Y029607D01*
X040723Y029715D01*
X040615Y029798D01*
X040592Y029807D01*
Y029886D01*
X040615Y029895D01*
X040723Y029978D01*
X040806Y030086D01*
X040858Y030212D01*
X040875Y030346D01*
X040858Y030481D01*
X040806Y030607D01*
X040723Y030715D01*
X040615Y030798D01*
X040592Y030807D01*
Y030886D01*
X040615Y030895D01*
X040723Y030978D01*
X040806Y031086D01*
X040858Y031212D01*
X040875Y031346D01*
X040858Y031481D01*
X040806Y031607D01*
X040723Y031715D01*
X040615Y031798D01*
X040592Y031807D01*
Y031886D01*
X040615Y031895D01*
X040723Y031978D01*
X040806Y032086D01*
X040858Y032212D01*
X040875Y032346D01*
X040858Y032481D01*
X040806Y032607D01*
X040723Y032715D01*
X040615Y032798D01*
X040592Y032807D01*
Y032886D01*
X040615Y032895D01*
X040723Y032978D01*
X040806Y033086D01*
X040858Y033212D01*
X040875Y033346D01*
X040858Y033481D01*
X040806Y033607D01*
X040723Y033715D01*
X040615Y033798D01*
X040592Y033807D01*
Y033886D01*
X040615Y033895D01*
X040723Y033978D01*
X040806Y034086D01*
X040858Y034212D01*
X040875Y034346D01*
X040858Y034481D01*
X040806Y034607D01*
X040723Y034715D01*
X040615Y034798D01*
X040592Y034807D01*
Y034886D01*
X040615Y034895D01*
X040723Y034978D01*
X040806Y035086D01*
X040858Y035212D01*
X040875Y035346D01*
X040858Y035481D01*
X040806Y035607D01*
X040723Y035715D01*
X040615Y035798D01*
X040592Y035807D01*
Y035886D01*
X040615Y035895D01*
X040723Y035978D01*
X040806Y036086D01*
X040858Y036212D01*
X040875Y036346D01*
X040858Y036481D01*
X040806Y036607D01*
X040723Y036715D01*
X040615Y036798D01*
X040592Y036807D01*
Y036886D01*
X040615Y036895D01*
X040723Y036978D01*
X040806Y037086D01*
X040858Y037212D01*
X040875Y037346D01*
X040858Y037481D01*
X040806Y037607D01*
X040723Y037715D01*
X040615Y037798D01*
X040592Y037807D01*
Y037886D01*
X040615Y037895D01*
X040723Y037978D01*
X040806Y038086D01*
X040858Y038212D01*
X040875Y038346D01*
X040858Y038481D01*
X040806Y038607D01*
X040723Y038715D01*
X040615Y038798D01*
X040592Y038807D01*
Y038886D01*
X040615Y038895D01*
X040723Y038978D01*
X040806Y039086D01*
X040858Y039212D01*
X040875Y039346D01*
X040858Y039481D01*
X040806Y039607D01*
X040723Y039715D01*
X040615Y039798D01*
X040592Y039807D01*
Y039886D01*
X040615Y039895D01*
X040723Y039978D01*
X040806Y040086D01*
X040858Y040212D01*
X040875Y040346D01*
X040858Y040481D01*
X040806Y040607D01*
X040723Y040715D01*
X040615Y040798D01*
X040592Y040807D01*
Y040886D01*
X040615Y040895D01*
X040723Y040978D01*
X040806Y041086D01*
X040858Y041212D01*
X040875Y041346D01*
X040858Y041481D01*
X040806Y041607D01*
X040723Y041715D01*
X040615Y041798D01*
X040592Y041807D01*
Y041886D01*
X040615Y041895D01*
X040723Y041978D01*
X040806Y042086D01*
X040858Y042212D01*
X040875Y042346D01*
X040858Y042481D01*
X040806Y042607D01*
X040723Y042715D01*
X040615Y042798D01*
X040592Y042807D01*
Y042886D01*
X040615Y042895D01*
X040723Y042978D01*
X040806Y043086D01*
X040858Y043212D01*
X040875Y043346D01*
X040858Y043481D01*
X040806Y043607D01*
X040723Y043715D01*
X040615Y043798D01*
X040592Y043807D01*
Y043886D01*
X040615Y043895D01*
X040723Y043978D01*
X040806Y044086D01*
X040858Y044212D01*
X040875Y044346D01*
X040858Y044481D01*
X040806Y044607D01*
X040723Y044715D01*
X040615Y044798D01*
X040592Y044807D01*
Y044886D01*
X040615Y044895D01*
X040723Y044978D01*
X040806Y045086D01*
X040858Y045212D01*
X040875Y045346D01*
X040858Y045481D01*
X040806Y045607D01*
X040723Y045715D01*
X040615Y045798D01*
X040592Y045807D01*
Y045886D01*
X040615Y045895D01*
X040723Y045978D01*
X040806Y046086D01*
X040858Y046212D01*
X040875Y046346D01*
X040858Y046481D01*
X040806Y046607D01*
X040723Y046715D01*
X040615Y046798D01*
X040489Y046850D01*
X040354Y046867D01*
Y047023D01*
X041613D01*
Y045018D01*
X042443D01*
Y047023D01*
X043307D01*
X043392Y047040D01*
X043402Y047047D01*
X043999D01*
X044010Y047040D01*
D02*
G37*
%LPC*%
G36*
X051083Y032942D02*
X050979Y032928D01*
X050883Y032889D01*
X050801Y032825D01*
X050737Y032743D01*
X050698Y032646D01*
X050684Y032543D01*
X050698Y032440D01*
X050737Y032344D01*
X050801Y032261D01*
X050883Y032198D01*
X050979Y032158D01*
X051083Y032145D01*
X051186Y032158D01*
X051282Y032198D01*
X051365Y032261D01*
X051428Y032344D01*
X051468Y032440D01*
X051481Y032543D01*
X051468Y032646D01*
X051428Y032743D01*
X051365Y032825D01*
X051282Y032889D01*
X051186Y032928D01*
X051083Y032942D01*
D02*
G37*
G36*
Y036060D02*
X050949Y036042D01*
X050825Y035990D01*
X050718Y035908D01*
X050636Y035801D01*
X050584Y035677D01*
X050566Y035543D01*
X050584Y035410D01*
X050636Y035285D01*
X050718Y035178D01*
X050825Y035096D01*
X050857Y035083D01*
Y035004D01*
X050825Y034990D01*
X050718Y034908D01*
X050636Y034801D01*
X050584Y034677D01*
X050566Y034543D01*
X050584Y034410D01*
X050636Y034285D01*
X050718Y034178D01*
X050825Y034096D01*
X050857Y034083D01*
Y034004D01*
X050825Y033990D01*
X050718Y033908D01*
X050636Y033801D01*
X050584Y033677D01*
X050566Y033543D01*
X050584Y033410D01*
X050636Y033285D01*
X050718Y033178D01*
X050825Y033096D01*
X050949Y033045D01*
X051083Y033027D01*
X051216Y033045D01*
X051341Y033096D01*
X051448Y033178D01*
X051530Y033285D01*
X051581Y033410D01*
X051599Y033543D01*
X051581Y033677D01*
X051530Y033801D01*
X051448Y033908D01*
X051341Y033990D01*
X051308Y034004D01*
Y034083D01*
X051341Y034096D01*
X051448Y034178D01*
X051530Y034285D01*
X051581Y034410D01*
X051599Y034543D01*
X051581Y034677D01*
X051530Y034801D01*
X051448Y034908D01*
X051341Y034990D01*
X051308Y035004D01*
Y035083D01*
X051341Y035096D01*
X051448Y035178D01*
X051530Y035285D01*
X051581Y035410D01*
X051599Y035543D01*
X051581Y035677D01*
X051530Y035801D01*
X051448Y035908D01*
X051341Y035990D01*
X051216Y036042D01*
X051083Y036060D01*
D02*
G37*
G36*
X046260Y036587D02*
X046185Y036577D01*
X046116Y036549D01*
X046056Y036503D01*
X046011Y036443D01*
X045982Y036374D01*
X045972Y036299D01*
X045982Y036225D01*
X046011Y036155D01*
X046056Y036096D01*
X046116Y036050D01*
X046164Y036030D01*
X046307Y035887D01*
Y035369D01*
X046287Y035321D01*
X046277Y035246D01*
X046287Y035172D01*
X046235Y035113D01*
X045072D01*
X044949Y035235D01*
X044878Y035283D01*
X044793Y035300D01*
X044744Y035290D01*
X044719D01*
X044681Y035318D01*
X044612Y035347D01*
X044537Y035357D01*
X044463Y035347D01*
X044393Y035318D01*
X044334Y035272D01*
X044288Y035213D01*
X044259Y035143D01*
X044250Y035069D01*
X044259Y034994D01*
X044288Y034925D01*
X044334Y034865D01*
X044341Y034860D01*
Y034781D01*
X044329Y034772D01*
X044281Y034710D01*
X044252Y034638D01*
X044242Y034561D01*
Y034089D01*
X044252Y034011D01*
X044281Y033940D01*
X044329Y033878D01*
X044390Y033831D01*
X044429Y033815D01*
X044439Y033737D01*
X044397Y033704D01*
X044311Y033593D01*
X044258Y033464D01*
X044240Y033325D01*
X044258Y033186D01*
X044311Y033057D01*
X044397Y032946D01*
X044503Y032864D01*
Y032785D01*
X044397Y032704D01*
X044311Y032593D01*
X044258Y032464D01*
X044240Y032325D01*
X044258Y032186D01*
X044311Y032057D01*
X044397Y031946D01*
X044503Y031864D01*
Y031785D01*
X044397Y031704D01*
X044311Y031593D01*
X044258Y031464D01*
X044240Y031325D01*
X044258Y031186D01*
X044311Y031057D01*
X044397Y030946D01*
X044508Y030861D01*
X044637Y030807D01*
X044776Y030789D01*
X044914Y030807D01*
X045044Y030861D01*
X045155Y030946D01*
X045240Y031057D01*
X045293Y031186D01*
X045295Y031201D01*
X045373Y031211D01*
X045413Y031116D01*
X045480Y031029D01*
X045566Y030962D01*
X045667Y030921D01*
X045776Y030906D01*
X045884Y030921D01*
X045985Y030962D01*
X046072Y031029D01*
X046138Y031116D01*
X046180Y031216D01*
X046194Y031325D01*
X046180Y031433D01*
X046138Y031534D01*
X046072Y031621D01*
X045985Y031687D01*
X045884Y031729D01*
X045776Y031743D01*
X045667Y031729D01*
X045566Y031687D01*
X045480Y031621D01*
X045413Y031534D01*
X045373Y031438D01*
X045295Y031449D01*
X045293Y031464D01*
X045240Y031593D01*
X045155Y031704D01*
X045048Y031785D01*
Y031864D01*
X045155Y031946D01*
X045240Y032057D01*
X045293Y032186D01*
X045295Y032201D01*
X045373Y032211D01*
X045413Y032116D01*
X045480Y032029D01*
X045566Y031962D01*
X045667Y031921D01*
X045776Y031906D01*
X045884Y031921D01*
X045985Y031962D01*
X046072Y032029D01*
X046138Y032116D01*
X046180Y032216D01*
X046194Y032325D01*
X046180Y032433D01*
X046138Y032534D01*
X046072Y032621D01*
X045985Y032687D01*
X045884Y032729D01*
X045776Y032743D01*
X045667Y032729D01*
X045566Y032687D01*
X045480Y032621D01*
X045413Y032534D01*
X045373Y032438D01*
X045295Y032449D01*
X045293Y032464D01*
X045240Y032593D01*
X045155Y032704D01*
X045048Y032785D01*
Y032864D01*
X045155Y032946D01*
X045240Y033057D01*
X045293Y033186D01*
X045295Y033201D01*
X045373Y033211D01*
X045413Y033116D01*
X045480Y033029D01*
X045566Y032962D01*
X045667Y032921D01*
X045776Y032906D01*
X045884Y032921D01*
X045985Y032962D01*
X046072Y033029D01*
X046138Y033116D01*
X046180Y033216D01*
X046194Y033325D01*
X046180Y033433D01*
X046138Y033534D01*
X046072Y033621D01*
X045985Y033687D01*
X045884Y033729D01*
X045776Y033743D01*
X045667Y033729D01*
X045566Y033687D01*
X045480Y033621D01*
X045413Y033534D01*
X045373Y033438D01*
X045295Y033449D01*
X045293Y033464D01*
X045240Y033593D01*
X045155Y033704D01*
X045112Y033737D01*
X045122Y033815D01*
X045161Y033831D01*
X045222Y033878D01*
X045270Y033940D01*
X045299Y034011D01*
X045310Y034089D01*
Y034164D01*
X045387Y034179D01*
X045413Y034116D01*
X045480Y034029D01*
X045566Y033962D01*
X045667Y033921D01*
X045776Y033906D01*
X045884Y033921D01*
X045985Y033962D01*
X046072Y034029D01*
X046138Y034116D01*
X046180Y034216D01*
X046194Y034325D01*
X046180Y034433D01*
X046138Y034534D01*
X046087Y034600D01*
X046122Y034671D01*
X046362D01*
X046414Y034612D01*
X046407Y034561D01*
Y034089D01*
X046417Y034011D01*
X046447Y033940D01*
X046494Y033878D01*
X046556Y033831D01*
X046594Y033815D01*
X046605Y033737D01*
X046562Y033704D01*
X046477Y033593D01*
X046423Y033464D01*
X046405Y033325D01*
X046423Y033186D01*
X046477Y033057D01*
X046562Y032946D01*
X046668Y032864D01*
Y032785D01*
X046562Y032704D01*
X046477Y032593D01*
X046423Y032464D01*
X046405Y032325D01*
X046423Y032186D01*
X046477Y032057D01*
X046562Y031946D01*
X046673Y031861D01*
X046802Y031807D01*
X046817Y031805D01*
X046827Y031727D01*
X046732Y031687D01*
X046645Y031621D01*
X046578Y031534D01*
X046537Y031433D01*
X046522Y031325D01*
X046537Y031216D01*
X046578Y031116D01*
X046645Y031029D01*
X046732Y030962D01*
X046833Y030921D01*
X046941Y030906D01*
X047049Y030921D01*
X047150Y030962D01*
X047237Y031029D01*
X047303Y031116D01*
X047343Y031211D01*
X047421Y031201D01*
X047423Y031186D01*
X047477Y031057D01*
X047562Y030946D01*
X047673Y030861D01*
X047802Y030807D01*
X047941Y030789D01*
X048080Y030807D01*
X048209Y030861D01*
X048320Y030946D01*
X048405Y031057D01*
X048459Y031186D01*
X048477Y031325D01*
X048459Y031464D01*
X048405Y031593D01*
X048320Y031704D01*
X048214Y031785D01*
Y031864D01*
X048320Y031946D01*
X048405Y032057D01*
X048459Y032186D01*
X048477Y032325D01*
X048459Y032464D01*
X048405Y032593D01*
X048320Y032704D01*
X048214Y032785D01*
Y032864D01*
X048320Y032946D01*
X048405Y033057D01*
X048459Y033186D01*
X048477Y033325D01*
X048459Y033464D01*
X048405Y033593D01*
X048320Y033704D01*
X048214Y033785D01*
Y033864D01*
X048320Y033946D01*
X048405Y034057D01*
X048459Y034186D01*
X048477Y034325D01*
X048459Y034464D01*
X048405Y034593D01*
X048320Y034704D01*
X048209Y034789D01*
X048080Y034843D01*
X047941Y034861D01*
X047802Y034843D01*
X047755Y034823D01*
X047530Y035048D01*
X047459Y035096D01*
X047374Y035113D01*
X046895D01*
X046843Y035172D01*
X046853Y035246D01*
X046843Y035321D01*
X046823Y035369D01*
Y035994D01*
X046814Y036061D01*
X046807Y036079D01*
X046788Y036123D01*
X046747Y036177D01*
X046529Y036395D01*
X046509Y036443D01*
X046463Y036503D01*
X046404Y036549D01*
X046334Y036577D01*
X046260Y036587D01*
D02*
G37*
G36*
X051083Y029942D02*
X050979Y029928D01*
X050883Y029889D01*
X050801Y029825D01*
X050737Y029743D01*
X050698Y029646D01*
X050684Y029543D01*
X050698Y029440D01*
X050737Y029344D01*
X050801Y029261D01*
X050883Y029198D01*
X050979Y029158D01*
X051083Y029145D01*
X051186Y029158D01*
X051282Y029198D01*
X051365Y029261D01*
X051428Y029344D01*
X051468Y029440D01*
X051481Y029543D01*
X051468Y029646D01*
X051428Y029743D01*
X051365Y029825D01*
X051282Y029889D01*
X051186Y029928D01*
X051083Y029942D01*
D02*
G37*
G36*
X043602Y029044D02*
X043469Y029026D01*
X043344Y028975D01*
X043237Y028893D01*
X043155Y028786D01*
X043104Y028661D01*
X043086Y028528D01*
X043104Y028394D01*
X043155Y028269D01*
X043237Y028163D01*
X043344Y028080D01*
X043469Y028029D01*
X043602Y028011D01*
X043736Y028029D01*
X043860Y028080D01*
X043967Y028163D01*
X044049Y028269D01*
X044101Y028394D01*
X044119Y028528D01*
X044101Y028661D01*
X044049Y028786D01*
X043967Y028893D01*
X043860Y028975D01*
X043736Y029026D01*
X043602Y029044D01*
D02*
G37*
G36*
X051083Y029060D02*
X050949Y029042D01*
X050825Y028990D01*
X050718Y028908D01*
X050636Y028801D01*
X050584Y028677D01*
X050566Y028543D01*
X050584Y028410D01*
X050636Y028285D01*
X050718Y028178D01*
X050825Y028096D01*
X050949Y028045D01*
X051083Y028027D01*
X051216Y028045D01*
X051341Y028096D01*
X051448Y028178D01*
X051530Y028285D01*
X051581Y028410D01*
X051599Y028543D01*
X051581Y028677D01*
X051530Y028801D01*
X051448Y028908D01*
X051341Y028990D01*
X051216Y029042D01*
X051083Y029060D01*
D02*
G37*
G36*
X043602Y029926D02*
X043499Y029913D01*
X043403Y029873D01*
X043320Y029809D01*
X043257Y029727D01*
X043217Y029631D01*
X043204Y029528D01*
X043217Y029424D01*
X043257Y029328D01*
X043320Y029246D01*
X043403Y029182D01*
X043499Y029142D01*
X043602Y029129D01*
X043706Y029142D01*
X043802Y029182D01*
X043884Y029246D01*
X043948Y029328D01*
X043987Y029424D01*
X044001Y029528D01*
X043987Y029631D01*
X043948Y029727D01*
X043884Y029809D01*
X043802Y029873D01*
X043706Y029913D01*
X043602Y029926D01*
D02*
G37*
G36*
X049705Y038831D02*
X049630Y038821D01*
X049561Y038793D01*
X049501Y038747D01*
X049455Y038687D01*
X049427Y038618D01*
X049421Y038571D01*
X049328Y038479D01*
X049272Y038487D01*
X049197Y038477D01*
X049128Y038448D01*
X049068Y038402D01*
X049022Y038343D01*
X048994Y038273D01*
X048984Y038199D01*
X048994Y038124D01*
X049022Y038055D01*
X049068Y037995D01*
X049128Y037949D01*
X049197Y037921D01*
X049272Y037911D01*
X049346Y037921D01*
X049416Y037949D01*
X049475Y037995D01*
X049507Y038036D01*
X049516Y038043D01*
X049516Y038043D01*
X049516Y038043D01*
X049733Y038259D01*
X049779Y038265D01*
X049849Y038294D01*
X049908Y038340D01*
X049954Y038399D01*
X049983Y038469D01*
X049993Y038543D01*
X049983Y038618D01*
X049954Y038687D01*
X049908Y038747D01*
X049849Y038793D01*
X049779Y038821D01*
X049705Y038831D01*
D02*
G37*
G36*
X050561Y040296D02*
X050487Y040286D01*
X050417Y040257D01*
X050357Y040211D01*
X050325Y040169D01*
X050246D01*
X050213Y040211D01*
X050154Y040257D01*
X050084Y040286D01*
X050010Y040296D01*
X049935Y040286D01*
X049866Y040257D01*
X049806Y040211D01*
X049761Y040152D01*
X049732Y040082D01*
X049722Y040008D01*
X049732Y039933D01*
X049761Y039864D01*
X049806Y039804D01*
X049849Y039772D01*
Y039693D01*
X049806Y039660D01*
X049761Y039601D01*
X049732Y039531D01*
X049722Y039457D01*
X049732Y039382D01*
X049761Y039313D01*
X049806Y039253D01*
X049866Y039207D01*
X049935Y039179D01*
X050010Y039169D01*
X050084Y039179D01*
X050154Y039207D01*
X050213Y039253D01*
X050246Y039296D01*
X050325D01*
X050357Y039253D01*
X050417Y039207D01*
X050487Y039179D01*
X050561Y039169D01*
X050636Y039179D01*
X050705Y039207D01*
X050765Y039253D01*
X050810Y039313D01*
X050839Y039382D01*
X050849Y039457D01*
X050839Y039531D01*
X050810Y039601D01*
X050765Y039660D01*
X050722Y039693D01*
Y039772D01*
X050765Y039804D01*
X050810Y039864D01*
X050839Y039933D01*
X050849Y040008D01*
X050839Y040082D01*
X050810Y040152D01*
X050765Y040211D01*
X050705Y040257D01*
X050636Y040286D01*
X050561Y040296D01*
D02*
G37*
G36*
X050472Y042050D02*
X050398Y042040D01*
X050328Y042011D01*
X050269Y041965D01*
X050223Y041906D01*
X050194Y041836D01*
X050185Y041762D01*
X050193Y041696D01*
X049745Y041249D01*
X049726Y041219D01*
X049698Y041198D01*
X049652Y041138D01*
X049623Y041069D01*
X049614Y040994D01*
X049623Y040920D01*
X049652Y040850D01*
X049698Y040791D01*
X049758Y040745D01*
X049827Y040716D01*
X049902Y040706D01*
X049976Y040716D01*
X050046Y040745D01*
X050105Y040791D01*
X050151Y040850D01*
X050180Y040920D01*
X050189Y040994D01*
X050181Y041060D01*
X050629Y041507D01*
X050648Y041537D01*
X050676Y041558D01*
X050722Y041618D01*
X050751Y041687D01*
X050760Y041762D01*
X050751Y041836D01*
X050722Y041906D01*
X050676Y041965D01*
X050616Y042011D01*
X050547Y042040D01*
X050472Y042050D01*
D02*
G37*
G36*
X043789Y039422D02*
X043715Y039412D01*
X043645Y039383D01*
X043586Y039337D01*
X043540Y039278D01*
X043511Y039208D01*
X043501Y039134D01*
X043511Y039059D01*
X043540Y038991D01*
X043540Y038988D01*
X043553Y038957D01*
X043566Y038926D01*
X043607Y038873D01*
X043767Y038712D01*
Y038518D01*
X043748Y038470D01*
X043738Y038396D01*
X043748Y038321D01*
X043776Y038252D01*
X043822Y038192D01*
X043882Y038146D01*
X043951Y038118D01*
X044026Y038108D01*
X044100Y038118D01*
X044170Y038146D01*
X044229Y038192D01*
X044275Y038252D01*
X044304Y038321D01*
X044313Y038396D01*
X044304Y038470D01*
X044284Y038518D01*
Y038819D01*
X044275Y038886D01*
X044267Y038904D01*
X044249Y038948D01*
X044208Y039001D01*
X044077Y039132D01*
X044077Y039134D01*
X044067Y039208D01*
X044039Y039278D01*
X043993Y039337D01*
X043933Y039383D01*
X043864Y039412D01*
X043789Y039422D01*
D02*
G37*
G36*
X044459Y036646D02*
X044384Y036636D01*
X044315Y036608D01*
X044278Y036579D01*
X042628D01*
X042543Y036562D01*
X042472Y036514D01*
X041278Y035321D01*
X041254Y035317D01*
X041185Y035289D01*
X041125Y035243D01*
X041079Y035183D01*
X041051Y035114D01*
X041041Y035039D01*
X041051Y034965D01*
X041079Y034895D01*
X041125Y034836D01*
X041185Y034790D01*
X041254Y034761D01*
X041329Y034751D01*
X041403Y034761D01*
X041473Y034790D01*
X041532Y034836D01*
X041572Y034836D01*
D01*
D01*
X041617Y034777D01*
X041677Y034731D01*
X041746Y034702D01*
X041821Y034692D01*
X041895Y034702D01*
X041965Y034731D01*
X042024Y034777D01*
X042070Y034836D01*
X042099Y034906D01*
X042109Y034980D01*
X042099Y035055D01*
X042085Y035089D01*
X042906Y035911D01*
X043163D01*
X043197Y035840D01*
X043155Y035786D01*
X043104Y035661D01*
X043086Y035528D01*
X043104Y035394D01*
X043155Y035269D01*
X043237Y035163D01*
X043344Y035080D01*
X043377Y035067D01*
Y034988D01*
X043344Y034975D01*
X043237Y034893D01*
X043155Y034786D01*
X043104Y034661D01*
X043086Y034528D01*
X043104Y034394D01*
X043155Y034269D01*
X043237Y034163D01*
X043344Y034080D01*
X043377Y034067D01*
Y033988D01*
X043344Y033975D01*
X043237Y033893D01*
X043155Y033786D01*
X043104Y033661D01*
X043086Y033528D01*
X043104Y033394D01*
X043155Y033269D01*
X043237Y033163D01*
X043344Y033080D01*
X043377Y033067D01*
Y032988D01*
X043344Y032975D01*
X043237Y032893D01*
X043155Y032786D01*
X043104Y032661D01*
X043086Y032528D01*
X043104Y032394D01*
X043155Y032269D01*
X043237Y032163D01*
X043344Y032080D01*
X043469Y032029D01*
X043602Y032011D01*
X043736Y032029D01*
X043860Y032080D01*
X043967Y032163D01*
X044049Y032269D01*
X044101Y032394D01*
X044119Y032528D01*
X044101Y032661D01*
X044049Y032786D01*
X043967Y032893D01*
X043860Y032975D01*
X043828Y032988D01*
Y033067D01*
X043860Y033080D01*
X043967Y033163D01*
X044049Y033269D01*
X044101Y033394D01*
X044119Y033528D01*
X044101Y033661D01*
X044049Y033786D01*
X043967Y033893D01*
X043860Y033975D01*
X043828Y033988D01*
Y034067D01*
X043860Y034080D01*
X043967Y034163D01*
X044049Y034269D01*
X044101Y034394D01*
X044119Y034528D01*
X044101Y034661D01*
X044049Y034786D01*
X043967Y034893D01*
X043860Y034975D01*
X043828Y034988D01*
Y035067D01*
X043860Y035080D01*
X043967Y035163D01*
X044049Y035269D01*
X044101Y035394D01*
X044119Y035528D01*
X044101Y035661D01*
X044049Y035786D01*
X044007Y035840D01*
X044042Y035911D01*
X044170D01*
X044194Y035887D01*
X044200Y035841D01*
X044229Y035771D01*
X044275Y035712D01*
X044334Y035666D01*
X044404Y035637D01*
X044478Y035627D01*
X044553Y035637D01*
X044622Y035666D01*
X044682Y035712D01*
X044728Y035771D01*
X044756Y035841D01*
X044766Y035915D01*
X044756Y035990D01*
X044728Y036059D01*
X044682Y036119D01*
X044682Y036119D01*
X044682D01*
X044662Y036155D01*
Y036155D01*
X044708Y036214D01*
X044737Y036284D01*
X044747Y036358D01*
X044737Y036433D01*
X044708Y036502D01*
X044662Y036562D01*
X044603Y036608D01*
X044533Y036636D01*
X044459Y036646D01*
D02*
G37*
G36*
X047589Y037520D02*
X047514Y037510D01*
X047445Y037482D01*
X047385Y037436D01*
X047352Y037393D01*
X047274D01*
X047241Y037436D01*
X047181Y037482D01*
X047112Y037510D01*
X047037Y037520D01*
X046963Y037510D01*
X046893Y037482D01*
X046834Y037436D01*
X046788Y037376D01*
X046759Y037307D01*
X046750Y037232D01*
X046759Y037158D01*
X046788Y037088D01*
X046834Y037029D01*
X046876Y036996D01*
Y036917D01*
X046834Y036885D01*
X046788Y036825D01*
X046759Y036756D01*
X046750Y036681D01*
X046759Y036607D01*
X046788Y036537D01*
X046834Y036478D01*
X046893Y036432D01*
X046963Y036403D01*
X047037Y036393D01*
X047112Y036403D01*
X047181Y036432D01*
X047241Y036478D01*
X047274Y036520D01*
X047352D01*
X047385Y036478D01*
X047445Y036432D01*
X047514Y036403D01*
X047589Y036393D01*
X047663Y036403D01*
X047733Y036432D01*
X047792Y036478D01*
X047838Y036537D01*
X047867Y036607D01*
X047876Y036681D01*
X047867Y036756D01*
X047838Y036825D01*
X047792Y036885D01*
X047750Y036917D01*
Y036996D01*
X047792Y037029D01*
X047838Y037088D01*
X047867Y037158D01*
X047876Y037232D01*
X047867Y037307D01*
X047838Y037376D01*
X047792Y037436D01*
X047733Y037482D01*
X047663Y037510D01*
X047589Y037520D01*
D02*
G37*
G36*
X046831Y038506D02*
X046756Y038497D01*
X046687Y038468D01*
X046627Y038422D01*
X046581Y038362D01*
X046553Y038293D01*
X046547Y038247D01*
X046289Y037989D01*
X046254Y037985D01*
X046185Y037956D01*
X046125Y037910D01*
X046079Y037851D01*
X046051Y037781D01*
X046041Y037707D01*
X046051Y037632D01*
X046079Y037563D01*
X046125Y037503D01*
X046185Y037457D01*
X046254Y037429D01*
X046329Y037419D01*
X046403Y037429D01*
X046473Y037457D01*
X046532Y037503D01*
X046578Y037563D01*
X046607Y037632D01*
X046614Y037690D01*
X046859Y037934D01*
X046905Y037940D01*
X046975Y037969D01*
X047034Y038015D01*
X047080Y038075D01*
X047109Y038144D01*
X047119Y038219D01*
X047109Y038293D01*
X047080Y038362D01*
X047034Y038422D01*
X046975Y038468D01*
X046905Y038497D01*
X046831Y038506D01*
D02*
G37*
%LPD*%
D21*
X042028Y046083D02*
D03*
X045374D02*
D03*
D26*
X042815Y036132D02*
X044262D01*
X041821Y035138D02*
X042815Y036132D01*
X041821Y034980D02*
Y035138D01*
X041329Y035059D02*
X042628Y036358D01*
X044459D01*
X044262Y036132D02*
X044478Y035915D01*
X042028Y046083D02*
X042717D01*
X041319D02*
X042028D01*
Y044626D02*
Y046083D01*
X045374Y044508D02*
Y046083D01*
X044547D02*
X045374D01*
X046132D01*
X046024Y046555D02*
X046638D01*
Y045909D02*
Y046555D01*
X047374Y034892D02*
X047941Y034325D01*
X044980Y034892D02*
X047374D01*
X044793Y035079D02*
X044980Y034892D01*
X049272Y038199D02*
X049360D01*
X049705Y038543D01*
X050472Y041663D02*
Y041762D01*
X049902Y041093D02*
X050472Y041663D01*
X049902Y040994D02*
Y041093D01*
X046329Y037707D02*
Y037717D01*
X046831Y038219D01*
X044537Y035069D02*
X044783D01*
X044793Y035079D01*
X043002Y029528D02*
X043602D01*
X044262D01*
X050417Y029543D02*
X051083D01*
Y030325D01*
X051742Y028346D02*
X052362D01*
Y027844D02*
Y028346D01*
D28*
X041329Y035039D02*
Y035059D01*
D29*
X045776Y033325D02*
Y034325D01*
Y032325D02*
Y033325D01*
Y031325D02*
Y032325D01*
Y030608D02*
Y031325D01*
X043789Y039055D02*
Y039134D01*
Y039055D02*
X044026Y038819D01*
X046260Y036299D02*
X046565Y035994D01*
Y035246D02*
Y035994D01*
X044026Y038396D02*
Y038819D01*
X045776Y031325D02*
X046941D01*
X051083Y031575D02*
Y032543D01*
X047941Y033325D02*
Y034325D01*
Y032325D02*
Y033325D01*
Y031325D02*
Y032325D01*
X040354Y028346D02*
X041437D01*
D34*
X052362Y029346D02*
D03*
Y030346D02*
D03*
Y031346D02*
D03*
Y032346D02*
D03*
Y033346D02*
D03*
Y034346D02*
D03*
Y035346D02*
D03*
Y036346D02*
D03*
Y037346D02*
D03*
Y038346D02*
D03*
Y039346D02*
D03*
Y040346D02*
D03*
Y041346D02*
D03*
Y042346D02*
D03*
Y043346D02*
D03*
Y044346D02*
D03*
Y045346D02*
D03*
Y046346D02*
D03*
X040354Y029346D02*
D03*
Y030346D02*
D03*
Y031346D02*
D03*
Y032346D02*
D03*
Y033346D02*
D03*
Y034346D02*
D03*
Y035346D02*
D03*
Y036346D02*
D03*
Y037346D02*
D03*
Y038346D02*
D03*
Y039346D02*
D03*
Y040346D02*
D03*
Y041346D02*
D03*
Y042346D02*
D03*
Y043346D02*
D03*
Y044346D02*
D03*
Y045346D02*
D03*
Y046346D02*
D03*
D35*
X052362Y028346D02*
D03*
X040354D02*
D03*
D36*
X051083Y035543D02*
D03*
Y034543D02*
D03*
Y033543D02*
D03*
Y032543D02*
D03*
Y029543D02*
D03*
Y028543D02*
D03*
X046638Y046555D02*
D03*
X043602Y035528D02*
D03*
Y034528D02*
D03*
Y033528D02*
D03*
Y032528D02*
D03*
Y029528D02*
D03*
Y028528D02*
D03*
D37*
X044776Y034325D02*
D03*
X046941D02*
D03*
D38*
X045776D02*
D03*
X044776Y033325D02*
D03*
X045776D02*
D03*
X044776Y032325D02*
D03*
X045776D02*
D03*
X044776Y031325D02*
D03*
X045776D02*
D03*
X047941Y034325D02*
D03*
X046941Y033325D02*
D03*
X047941D02*
D03*
X046941Y032325D02*
D03*
X047941D02*
D03*
X046941Y031325D02*
D03*
X047941D02*
D03*
D39*
X047638Y046555D02*
D03*
D40*
X051000Y046654D02*
D03*
D41*
X050000D02*
D03*
X049000D02*
D03*
D42*
X044478Y037185D02*
D03*
Y038425D02*
D03*
X048268Y041713D02*
D03*
X044232Y040640D02*
D03*
X040886Y039862D02*
D03*
X050246Y044596D02*
D03*
X051811Y046870D02*
D03*
Y044823D02*
D03*
X050837Y043839D02*
D03*
X046033Y046772D02*
D03*
X044577Y046654D02*
D03*
X044606Y045374D02*
D03*
X046211Y045748D02*
D03*
X048337Y045856D02*
D03*
X050049Y045679D02*
D03*
X046772Y043150D02*
D03*
X045758Y043120D02*
D03*
X048986Y035089D02*
D03*
X049203Y036043D02*
D03*
X048740Y034213D02*
D03*
X050207Y035266D02*
D03*
X044925Y036220D02*
D03*
X042717Y046654D02*
D03*
X050128Y029370D02*
D03*
X048937Y031230D02*
D03*
X051722Y032982D02*
D03*
X041014Y029882D02*
D03*
X040935Y032805D02*
D03*
X041811Y034409D02*
D03*
X042933Y029862D02*
D03*
X044055Y030217D02*
D03*
X045935Y029321D02*
D03*
X046831Y029331D02*
D03*
X051722Y029872D02*
D03*
X051585Y027923D02*
D03*
X048632Y027933D02*
D03*
X044154Y027953D02*
D03*
X041024Y038041D02*
D03*
X048278Y035571D02*
D03*
X051860Y036860D02*
D03*
X051929Y038858D02*
D03*
X048238Y038789D02*
D03*
X046437Y040679D02*
D03*
X051644Y042835D02*
D03*
X051171Y045758D02*
D03*
X041043Y045866D02*
D03*
X041083Y041850D02*
D03*
X043386Y042372D02*
D03*
X046171Y042146D02*
D03*
X047185Y028091D02*
D03*
X045600Y028081D02*
D03*
X045472Y030846D02*
D03*
X047362Y030904D02*
D03*
X049587Y028110D02*
D03*
X041585Y028445D02*
D03*
X041329Y035039D02*
D03*
X044459Y036358D02*
D03*
X041821Y034980D02*
D03*
X044478Y035915D02*
D03*
X050217Y037943D02*
D03*
X051191Y038041D02*
D03*
X047657Y039449D02*
D03*
X047441Y041132D02*
D03*
X043789Y039134D02*
D03*
X050285Y038553D02*
D03*
X044567Y037717D02*
D03*
X048167Y043089D02*
D03*
X049167Y043085D02*
D03*
X049272Y038199D02*
D03*
X049705Y038543D02*
D03*
X051457Y039419D02*
D03*
X051427Y039734D02*
D03*
X051437Y040049D02*
D03*
X049902Y040994D02*
D03*
X046329Y037707D02*
D03*
X046831Y038219D02*
D03*
X050472Y041762D02*
D03*
X048474Y037274D02*
D03*
X048472Y036642D02*
D03*
X044537Y035069D02*
D03*
X046260Y036299D02*
D03*
X046565Y035246D02*
D03*
X047313Y035778D02*
D03*
X044026Y038396D02*
D03*
X043465Y040167D02*
D03*
X041417Y042844D02*
D03*
X041821Y044006D02*
D03*
X042451Y029154D02*
D03*
X048730Y028986D02*
D03*
X046762Y030738D02*
D03*
X042461Y033268D02*
D03*
X047667Y044331D02*
D03*
X050010Y040008D02*
D03*
Y039457D02*
D03*
X050561D02*
D03*
Y040008D02*
D03*
X047037Y037232D02*
D03*
Y036681D02*
D03*
X047589D02*
D03*
Y037232D02*
D03*
M02*
