%FSAX24Y24*%
%MOIN*%
G70*
G01*
G75*
G04 Layer_Color=65535*
G04:AMPARAMS|DCode=10|XSize=59.1mil|YSize=51.2mil|CornerRadius=12.8mil|HoleSize=0mil|Usage=FLASHONLY|Rotation=180.000|XOffset=0mil|YOffset=0mil|HoleType=Round|Shape=RoundedRectangle|*
%AMROUNDEDRECTD10*
21,1,0.0591,0.0256,0,0,180.0*
21,1,0.0335,0.0512,0,0,180.0*
1,1,0.0256,-0.0167,0.0128*
1,1,0.0256,0.0167,0.0128*
1,1,0.0256,0.0167,-0.0128*
1,1,0.0256,-0.0167,-0.0128*
%
%ADD10ROUNDEDRECTD10*%
%ADD11O,0.0236X0.0827*%
G04:AMPARAMS|DCode=12|XSize=17.7mil|YSize=43.3mil|CornerRadius=4.4mil|HoleSize=0mil|Usage=FLASHONLY|Rotation=180.000|XOffset=0mil|YOffset=0mil|HoleType=Round|Shape=RoundedRectangle|*
%AMROUNDEDRECTD12*
21,1,0.0177,0.0344,0,0,180.0*
21,1,0.0089,0.0433,0,0,180.0*
1,1,0.0089,-0.0044,0.0172*
1,1,0.0089,0.0044,0.0172*
1,1,0.0089,0.0044,-0.0172*
1,1,0.0089,-0.0044,-0.0172*
%
%ADD12ROUNDEDRECTD12*%
G04:AMPARAMS|DCode=13|XSize=84.6mil|YSize=84.6mil|CornerRadius=4.2mil|HoleSize=0mil|Usage=FLASHONLY|Rotation=90.000|XOffset=0mil|YOffset=0mil|HoleType=Round|Shape=RoundedRectangle|*
%AMROUNDEDRECTD13*
21,1,0.0846,0.0762,0,0,90.0*
21,1,0.0762,0.0846,0,0,90.0*
1,1,0.0085,0.0381,0.0381*
1,1,0.0085,0.0381,-0.0381*
1,1,0.0085,-0.0381,-0.0381*
1,1,0.0085,-0.0381,0.0381*
%
%ADD13ROUNDEDRECTD13*%
G04:AMPARAMS|DCode=14|XSize=17.7mil|YSize=43.3mil|CornerRadius=4.4mil|HoleSize=0mil|Usage=FLASHONLY|Rotation=270.000|XOffset=0mil|YOffset=0mil|HoleType=Round|Shape=RoundedRectangle|*
%AMROUNDEDRECTD14*
21,1,0.0177,0.0344,0,0,270.0*
21,1,0.0089,0.0433,0,0,270.0*
1,1,0.0089,-0.0172,-0.0044*
1,1,0.0089,-0.0172,0.0044*
1,1,0.0089,0.0172,0.0044*
1,1,0.0089,0.0172,-0.0044*
%
%ADD14ROUNDEDRECTD14*%
G04:AMPARAMS|DCode=15|XSize=39.4mil|YSize=39.4mil|CornerRadius=9.8mil|HoleSize=0mil|Usage=FLASHONLY|Rotation=0.000|XOffset=0mil|YOffset=0mil|HoleType=Round|Shape=RoundedRectangle|*
%AMROUNDEDRECTD15*
21,1,0.0394,0.0197,0,0,0.0*
21,1,0.0197,0.0394,0,0,0.0*
1,1,0.0197,0.0098,-0.0098*
1,1,0.0197,-0.0098,-0.0098*
1,1,0.0197,-0.0098,0.0098*
1,1,0.0197,0.0098,0.0098*
%
%ADD15ROUNDEDRECTD15*%
G04:AMPARAMS|DCode=16|XSize=39.4mil|YSize=39.4mil|CornerRadius=9.8mil|HoleSize=0mil|Usage=FLASHONLY|Rotation=90.000|XOffset=0mil|YOffset=0mil|HoleType=Round|Shape=RoundedRectangle|*
%AMROUNDEDRECTD16*
21,1,0.0394,0.0197,0,0,90.0*
21,1,0.0197,0.0394,0,0,90.0*
1,1,0.0197,0.0098,0.0098*
1,1,0.0197,0.0098,-0.0098*
1,1,0.0197,-0.0098,-0.0098*
1,1,0.0197,-0.0098,0.0098*
%
%ADD16ROUNDEDRECTD16*%
G04:AMPARAMS|DCode=17|XSize=59.1mil|YSize=51.2mil|CornerRadius=12.8mil|HoleSize=0mil|Usage=FLASHONLY|Rotation=270.000|XOffset=0mil|YOffset=0mil|HoleType=Round|Shape=RoundedRectangle|*
%AMROUNDEDRECTD17*
21,1,0.0591,0.0256,0,0,270.0*
21,1,0.0335,0.0512,0,0,270.0*
1,1,0.0256,-0.0128,-0.0167*
1,1,0.0256,-0.0128,0.0167*
1,1,0.0256,0.0128,0.0167*
1,1,0.0256,0.0128,-0.0167*
%
%ADD17ROUNDEDRECTD17*%
G04:AMPARAMS|DCode=18|XSize=32mil|YSize=40mil|CornerRadius=4mil|HoleSize=0mil|Usage=FLASHONLY|Rotation=90.000|XOffset=0mil|YOffset=0mil|HoleType=Round|Shape=RoundedRectangle|*
%AMROUNDEDRECTD18*
21,1,0.0320,0.0320,0,0,90.0*
21,1,0.0240,0.0400,0,0,90.0*
1,1,0.0080,0.0160,0.0120*
1,1,0.0080,0.0160,-0.0120*
1,1,0.0080,-0.0160,-0.0120*
1,1,0.0080,-0.0160,0.0120*
%
%ADD18ROUNDEDRECTD18*%
G04:AMPARAMS|DCode=19|XSize=32mil|YSize=40mil|CornerRadius=4mil|HoleSize=0mil|Usage=FLASHONLY|Rotation=0.000|XOffset=0mil|YOffset=0mil|HoleType=Round|Shape=RoundedRectangle|*
%AMROUNDEDRECTD19*
21,1,0.0320,0.0320,0,0,0.0*
21,1,0.0240,0.0400,0,0,0.0*
1,1,0.0080,0.0120,-0.0160*
1,1,0.0080,-0.0120,-0.0160*
1,1,0.0080,-0.0120,0.0160*
1,1,0.0080,0.0120,0.0160*
%
%ADD19ROUNDEDRECTD19*%
G04:AMPARAMS|DCode=20|XSize=70.9mil|YSize=65mil|CornerRadius=4.9mil|HoleSize=0mil|Usage=FLASHONLY|Rotation=0.000|XOffset=0mil|YOffset=0mil|HoleType=Round|Shape=RoundedRectangle|*
%AMROUNDEDRECTD20*
21,1,0.0709,0.0552,0,0,0.0*
21,1,0.0611,0.0650,0,0,0.0*
1,1,0.0097,0.0306,-0.0276*
1,1,0.0097,-0.0306,-0.0276*
1,1,0.0097,-0.0306,0.0276*
1,1,0.0097,0.0306,0.0276*
%
%ADD20ROUNDEDRECTD20*%
%ADD21R,0.0630X0.1929*%
%ADD22R,0.0276X0.0925*%
%ADD23R,0.0512X0.0354*%
%ADD24R,0.0748X0.0354*%
%ADD25R,0.1063X0.0669*%
%ADD26C,0.0118*%
%ADD27C,0.0100*%
%ADD28C,0.0079*%
%ADD29C,0.0197*%
%ADD30R,0.0591X0.0256*%
%ADD31R,0.0394X0.0217*%
%ADD32R,0.0217X0.0394*%
%ADD33R,0.0256X0.0591*%
%ADD34C,0.0600*%
%ADD35R,0.0600X0.0600*%
%ADD36C,0.0591*%
G04:AMPARAMS|DCode=37|XSize=63mil|YSize=63mil|CornerRadius=7.9mil|HoleSize=0mil|Usage=FLASHONLY|Rotation=270.000|XOffset=0mil|YOffset=0mil|HoleType=Round|Shape=RoundedRectangle|*
%AMROUNDEDRECTD37*
21,1,0.0630,0.0472,0,0,270.0*
21,1,0.0472,0.0630,0,0,270.0*
1,1,0.0157,-0.0236,-0.0236*
1,1,0.0157,-0.0236,0.0236*
1,1,0.0157,0.0236,0.0236*
1,1,0.0157,0.0236,-0.0236*
%
%ADD37ROUNDEDRECTD37*%
%ADD38C,0.0630*%
G04:AMPARAMS|DCode=39|XSize=59.1mil|YSize=59.1mil|CornerRadius=14.8mil|HoleSize=0mil|Usage=FLASHONLY|Rotation=180.000|XOffset=0mil|YOffset=0mil|HoleType=Round|Shape=RoundedRectangle|*
%AMROUNDEDRECTD39*
21,1,0.0591,0.0295,0,0,180.0*
21,1,0.0295,0.0591,0,0,180.0*
1,1,0.0295,-0.0148,0.0148*
1,1,0.0295,0.0148,0.0148*
1,1,0.0295,0.0148,-0.0148*
1,1,0.0295,-0.0148,-0.0148*
%
%ADD39ROUNDEDRECTD39*%
G04:AMPARAMS|DCode=40|XSize=70.9mil|YSize=70.9mil|CornerRadius=17.7mil|HoleSize=0mil|Usage=FLASHONLY|Rotation=180.000|XOffset=0mil|YOffset=0mil|HoleType=Round|Shape=RoundedRectangle|*
%AMROUNDEDRECTD40*
21,1,0.0709,0.0354,0,0,180.0*
21,1,0.0354,0.0709,0,0,180.0*
1,1,0.0354,-0.0177,0.0177*
1,1,0.0354,0.0177,0.0177*
1,1,0.0354,0.0177,-0.0177*
1,1,0.0354,-0.0177,-0.0177*
%
%ADD40ROUNDEDRECTD40*%
%ADD41C,0.0709*%
%ADD42C,0.0256*%
%ADD43C,0.0098*%
%ADD44C,0.0059*%
%ADD45C,0.0039*%
G36*
X046693Y036227D02*
Y036150D01*
X046506D01*
Y036337D01*
X046583D01*
X046693Y036227D01*
D02*
G37*
G36*
X049665Y039002D02*
Y038925D01*
X049478D01*
Y039112D01*
X049556D01*
X049665Y039002D01*
D02*
G37*
D28*
Y038925D02*
G03*
X049478Y039112I-000187J000000D01*
G01*
X046693Y036150D02*
G03*
X046506Y036337I-000187J000000D01*
G01*
X049478Y038925D02*
X049665D01*
X049478D02*
Y039112D01*
Y040352D02*
Y040539D01*
X049665D01*
X050906D02*
X051093D01*
Y040352D02*
Y040539D01*
Y038925D02*
Y039112D01*
X050906Y038925D02*
X051093D01*
X046506Y036150D02*
X046693D01*
X046506D02*
Y036337D01*
Y037577D02*
Y037764D01*
X046693D01*
X047933D02*
X048120D01*
Y037577D02*
Y037764D01*
Y036150D02*
Y036337D01*
X047933Y036150D02*
X048120D01*
X044276Y030825D02*
X046276D01*
Y034825D01*
X044276Y030825D02*
Y034825D01*
X046276D01*
X046441Y030825D02*
X048441D01*
Y034825D01*
X046441Y030825D02*
Y034825D01*
X048441D01*
X046161Y044852D02*
X046801D01*
X046161Y043829D02*
X046801D01*
X046161D02*
Y044006D01*
Y044675D02*
Y044852D01*
X043179Y041535D02*
Y042175D01*
X042156Y041535D02*
Y042175D01*
X042333D01*
X043002D02*
X043179D01*
X042043Y040637D02*
X042143Y040537D01*
X041343Y040637D02*
X042043D01*
X041243Y040537D02*
X041343Y040637D01*
X042043Y038537D02*
X042143Y038637D01*
X041343Y038537D02*
X042043D01*
X041243Y038637D02*
X041343Y038537D01*
X043185Y040666D02*
X043285Y040566D01*
X042485Y040666D02*
X043185D01*
X042385Y040566D02*
X042485Y040666D01*
X043185Y038566D02*
X043285Y038666D01*
X042485Y038566D02*
X043185D01*
X042385Y038666D02*
X042485Y038566D01*
X041827Y047854D02*
X045575D01*
X044149Y047205D02*
X045575D01*
X044664Y048984D02*
X044750Y049132D01*
X044769D02*
X044919Y049215D01*
Y049269D01*
X044770Y049352D02*
X044919Y049269D01*
X044770Y049352D02*
X044919Y049435D01*
Y049490D01*
X044770Y049573D02*
X044919Y049490D01*
X044770Y049573D02*
X044919Y049656D01*
Y049710D01*
X044770Y049793D02*
X044919Y049710D01*
X044770Y049793D02*
X044919Y049876D01*
Y049931D01*
X044770Y050014D02*
X044919Y049931D01*
X044770Y050014D02*
X044919Y050097D01*
Y050151D01*
X044770Y050234D02*
X044919Y050151D01*
X044770Y050234D02*
X044919Y050317D01*
Y050372D01*
X044770Y050455D02*
X044919Y050372D01*
X044770Y050455D02*
X044919Y050538D01*
Y050592D01*
X044770Y050675D02*
X044919Y050592D01*
X042652Y050675D02*
X044770D01*
X042483Y050592D02*
X042652Y050675D01*
X042483Y050538D02*
Y050592D01*
Y050538D02*
X042632Y050455D01*
X042483Y050372D02*
X042632Y050455D01*
X042483Y050317D02*
Y050372D01*
Y050317D02*
X042632Y050234D01*
X042483Y050151D02*
X042632Y050234D01*
X042483Y050097D02*
Y050151D01*
Y050097D02*
X042632Y050014D01*
X042483Y049931D02*
X042632Y050014D01*
X042483Y049876D02*
Y049931D01*
Y049876D02*
X042632Y049793D01*
X042483Y049710D02*
X042632Y049793D01*
X042483Y049656D02*
Y049710D01*
Y049656D02*
X042632Y049573D01*
X042483Y049490D02*
X042632Y049573D01*
X042483Y049435D02*
Y049490D01*
Y049435D02*
X042632Y049352D01*
X042483Y049269D02*
X042632Y049352D01*
X042483Y049215D02*
Y049269D01*
Y049215D02*
X042632Y049132D01*
X044769D01*
X042652D02*
X042735Y048984D01*
X042735D02*
X044664D01*
Y047854D02*
Y048984D01*
X044750Y050675D02*
Y050957D01*
X042652D02*
X044750D01*
X042652Y050675D02*
Y050957D01*
X042735Y047854D02*
Y048984D01*
X042483Y049435D02*
X044919Y049215D01*
X042483Y049490D02*
X044919Y049269D01*
X042632Y049573D02*
X044770Y049352D01*
X042632D02*
X044769Y049132D01*
X042483Y049215D02*
X044750Y049132D01*
X042483Y049269D02*
X044769Y049132D01*
X042483Y049656D02*
X044919Y049435D01*
X042483Y049710D02*
X044919Y049490D01*
X042632Y049793D02*
X044770Y049573D01*
X042483Y049876D02*
X044919Y049656D01*
X042483Y049931D02*
X044919Y049710D01*
X042632Y050014D02*
X044770Y049793D01*
X042483Y050097D02*
X044919Y049876D01*
X042483Y050151D02*
X044919Y049931D01*
X042632Y050234D02*
X044770Y050014D01*
X042483Y050317D02*
X044919Y050097D01*
X042483Y050372D02*
X044919Y050151D01*
X042632Y050455D02*
X044770Y050234D01*
X042483Y050538D02*
X044919Y050317D01*
X042483Y050592D02*
X044919Y050372D01*
X042652Y050675D02*
X044770Y050455D01*
X042652Y050675D02*
X044919Y050538D01*
X042652Y050675D02*
X044919Y050592D01*
X045575Y047205D02*
Y047854D01*
X041827Y047205D02*
Y047854D01*
Y047205D02*
X043253D01*
X043990Y044596D02*
X044967D01*
X043990Y042825D02*
X044967D01*
Y044163D02*
Y044596D01*
Y042825D02*
Y043258D01*
X042805Y042707D02*
Y042884D01*
Y043553D02*
Y043730D01*
X042165D02*
X042805D01*
X042165Y042707D02*
X042805D01*
D43*
X047882Y042480D02*
G03*
X047882Y042480I-000049J000000D01*
G01*
X049577Y038748D02*
G03*
X049577Y038748I-000039J000000D01*
G01*
X043689Y039813D02*
G03*
X043689Y039813I-000049J000000D01*
G01*
X046604Y035972D02*
G03*
X046604Y035972I-000039J000000D01*
G01*
X043695Y044636D02*
G03*
X043695Y044636I-000049J000000D01*
G01*
D44*
X047776Y029724D02*
X048406D01*
X047697Y029646D02*
X047776Y029724D01*
X048406D02*
X048484Y029646D01*
X047697Y028307D02*
X047776Y028228D01*
X048406D02*
X048484Y028307D01*
X047776Y028228D02*
X048406D01*
X044291Y029646D02*
X044921D01*
X044213Y029567D02*
X044291Y029646D01*
X044921D02*
X045000Y029567D01*
X044213Y028228D02*
X044291Y028150D01*
X044921D02*
X045000Y028228D01*
X044291Y028150D02*
X044921D01*
X047933Y042975D02*
X049902D01*
X047933Y043875D02*
X049902D01*
X047933Y042975D02*
Y043875D01*
X049902Y042975D02*
Y043875D01*
X043740Y040308D02*
X045709D01*
X043740Y041208D02*
X045709D01*
X043740Y040308D02*
Y041208D01*
X045709Y040308D02*
Y041208D01*
X051319Y041860D02*
X051634D01*
X051280D02*
X051319D01*
X051240Y041821D02*
X051280Y041860D01*
X051634D02*
X051673D01*
X051713Y041821D01*
X051240Y040640D02*
X051280Y040600D01*
X051319D01*
X051673D02*
X051713Y040640D01*
X051634Y040600D02*
X051673D01*
X051319D02*
X051634D01*
X046752Y035148D02*
Y035463D01*
Y035108D02*
Y035148D01*
Y035108D02*
X046791Y035069D01*
X046752Y035463D02*
Y035502D01*
X046791Y035541D01*
X047972Y035069D02*
X048012Y035108D01*
Y035148D01*
X047972Y035541D02*
X048012Y035502D01*
Y035463D02*
Y035502D01*
Y035148D02*
Y035463D01*
X044931Y035305D02*
Y035620D01*
Y035266D02*
Y035305D01*
Y035266D02*
X044970Y035226D01*
X044931Y035620D02*
Y035659D01*
X044970Y035699D01*
X046152Y035226D02*
X046191Y035266D01*
Y035305D01*
X046152Y035699D02*
X046191Y035659D01*
Y035620D02*
Y035659D01*
Y035305D02*
Y035620D01*
X044429Y029951D02*
Y030581D01*
Y029951D02*
X044508Y029872D01*
X044429Y030581D02*
X044508Y030659D01*
X045846Y029872D02*
X045925Y029951D01*
X045846Y030659D02*
X045925Y030581D01*
Y029951D02*
Y030581D01*
X048484Y029951D02*
Y030581D01*
X048406Y030659D02*
X048484Y030581D01*
X048406Y029872D02*
X048484Y029951D01*
X046988Y030581D02*
X047067Y030659D01*
X046988Y029951D02*
X047067Y029872D01*
X046988Y029951D02*
Y030581D01*
X041211Y036358D02*
X041841D01*
X041919Y036437D01*
X041132D02*
X041211Y036358D01*
X041841Y037854D02*
X041919Y037776D01*
X041132D02*
X041211Y037854D01*
X041841D01*
X050866Y036358D02*
X051496D01*
X051575Y036437D01*
X050787D02*
X050866Y036358D01*
X051496Y037854D02*
X051575Y037776D01*
X050787D02*
X050866Y037854D01*
X051496D01*
X042185Y036358D02*
X042815D01*
X042894Y036437D01*
X042106D02*
X042185Y036358D01*
X042815Y037854D02*
X042894Y037776D01*
X042106D02*
X042185Y037854D01*
X042815D01*
X049902Y036358D02*
X050532D01*
X050610Y036437D01*
X049823D02*
X049902Y036358D01*
X050532Y037854D02*
X050610Y037776D01*
X049823D02*
X049902Y037854D01*
X050532D01*
X043150Y036348D02*
X043780D01*
X043858Y036427D01*
X043071D02*
X043150Y036348D01*
X043780Y037844D02*
X043858Y037766D01*
X043071D02*
X043150Y037844D01*
X043780D01*
X048917Y036358D02*
X049547D01*
X049626Y036437D01*
X048839D02*
X048917Y036358D01*
X049547Y037854D02*
X049626Y037776D01*
X048839D02*
X048917Y037854D01*
X049547D01*
X050354Y042087D02*
X050984D01*
X051063Y042165D01*
X050276D02*
X050354Y042087D01*
X050984Y043583D02*
X051063Y043504D01*
X050276D02*
X050354Y043583D01*
X050984D01*
X049134Y040817D02*
Y041447D01*
X049055Y041526D02*
X049134Y041447D01*
X049055Y040738D02*
X049134Y040817D01*
X047638Y041447D02*
X047717Y041526D01*
X047638Y040817D02*
X047717Y040738D01*
X047638Y040817D02*
Y041447D01*
X047795Y039281D02*
Y039596D01*
Y039242D02*
Y039281D01*
Y039242D02*
X047835Y039203D01*
X047795Y039596D02*
Y039636D01*
X047835Y039675D01*
X049016Y039203D02*
X049055Y039242D01*
Y039281D01*
X049016Y039675D02*
X049055Y039636D01*
Y039596D02*
Y039636D01*
Y039281D02*
Y039596D01*
X046201Y038346D02*
Y038976D01*
X046122Y039055D02*
X046201Y038976D01*
X046122Y038268D02*
X046201Y038346D01*
X044705Y038976D02*
X044783Y039055D01*
X044705Y038346D02*
X044783Y038268D01*
X044705Y038346D02*
Y038976D01*
X046585Y038356D02*
X047215D01*
X047293Y038435D01*
X046506D02*
X046585Y038356D01*
X047215Y039852D02*
X047293Y039774D01*
X046506D02*
X046585Y039852D01*
X047215D01*
X046220Y037402D02*
Y038031D01*
X046142Y038110D02*
X046220Y038031D01*
X046142Y037323D02*
X046220Y037402D01*
X044724Y038031D02*
X044803Y038110D01*
X044724Y037402D02*
X044803Y037323D01*
X044724Y037402D02*
Y038031D01*
X044931Y035876D02*
Y036191D01*
Y035837D02*
Y035876D01*
Y035837D02*
X044970Y035797D01*
X044931Y036191D02*
Y036230D01*
X044970Y036270D01*
X046152Y035797D02*
X046191Y035837D01*
Y035876D01*
X046152Y036270D02*
X046191Y036230D01*
Y036191D02*
Y036230D01*
Y035876D02*
Y036191D01*
X047138Y046305D02*
Y046805D01*
X047918Y047025D02*
X048108D01*
X047918Y046085D02*
X048108D01*
X046358D02*
X046918D01*
X046358Y047025D02*
X046918D01*
X047358D02*
X047918D01*
X047358Y046085D02*
X047918D01*
X047168Y046275D02*
X047358Y046085D01*
X047168Y046835D02*
X047358Y047025D01*
X047918D02*
X048108Y046835D01*
X047918Y046085D02*
X048108Y046275D01*
X046918Y047025D02*
X047108Y046835D01*
X046918Y046085D02*
X047108Y046275D01*
X046168D02*
Y046835D01*
X046358Y047025D01*
X046168Y046275D02*
X046358Y046085D01*
X048108D02*
Y047025D01*
X048530Y046184D02*
Y047124D01*
X051470Y046184D02*
Y047124D01*
X048530Y046184D02*
X051470D01*
X048530Y047124D02*
X051470D01*
X050500Y046184D02*
Y046304D01*
Y047004D02*
Y047124D01*
X046201Y027864D02*
X046516D01*
X046555D01*
X046594Y027904D01*
X046161Y027864D02*
X046201D01*
X046122Y027904D02*
X046161Y027864D01*
X046555Y029124D02*
X046594Y029085D01*
X046516Y029124D02*
X046555D01*
X046122Y029085D02*
X046161Y029124D01*
X046201D01*
X046516D01*
X044646Y036457D02*
Y037087D01*
Y036457D02*
X044724Y036378D01*
X044646Y037087D02*
X044724Y037165D01*
X046063Y036378D02*
X046142Y036457D01*
X046063Y037165D02*
X046142Y037087D01*
Y036457D02*
Y037087D01*
X047628Y039892D02*
Y040522D01*
Y039892D02*
X047707Y039813D01*
X047628Y040522D02*
X047707Y040600D01*
X049045Y039813D02*
X049124Y039892D01*
X049045Y040600D02*
X049124Y040522D01*
Y039892D02*
Y040522D01*
D45*
X048583Y027693D02*
X051583D01*
Y036243D01*
X048583D02*
X051583D01*
X048583Y027693D02*
Y036243D01*
X041102Y027678D02*
X044102D01*
Y036228D01*
X041102D02*
X044102D01*
X041102Y027678D02*
Y036228D01*
M02*
