<?xml version="1.0" encoding="UTF-8" standalone="no"?>
<!DOCTYPE svg PUBLIC "-//W3C//DTD SVG 1.1//EN"
 "http://www.w3.org/Graphics/SVG/1.1/DTD/svg11.dtd">
<!-- Generated by graphviz version 2.38.0 (20140413.2041)
 -->
<!-- Title: %3 Pages: 1 -->
<svg width="834pt" height="486pt"
 viewBox="0.00 0.00 833.65 486.00" xmlns="http://www.w3.org/2000/svg" xmlns:xlink="http://www.w3.org/1999/xlink">
<g id="graph0" class="graph" transform="scale(1 1) rotate(0) translate(4 482)">
<title>%3</title>
<polygon fill="white" stroke="none" points="-4,4 -4,-482 829.646,-482 829.646,4 -4,4"/>
<text text-anchor="middle" x="412.823" y="-12.2" font-family="Times,serif" font-size="26.00">Mapping FDA 501(k)</text>
<!-- K052331 -->
<g id="node1" class="node"><title>K052331</title>
<ellipse fill="none" stroke="black" cx="43.5461" cy="-136" rx="43.5923" ry="18"/>
<text text-anchor="middle" x="43.5461" y="-132.3" font-family="Times,serif" font-size="14.00">K052331</text>
</g>
<!-- K063761 -->
<g id="node2" class="node"><title>K063761</title>
<ellipse fill="none" stroke="black" cx="166.638" cy="-244" rx="43.5923" ry="18"/>
<text text-anchor="middle" x="166.638" y="-240.3" font-family="Times,serif" font-size="14.00">K063761</text>
</g>
<!-- K052331&#45;&gt;K063761 -->
<g id="edge1" class="edge"><title>K052331&#45;&gt;K063761</title>
<path fill="none" stroke="black" d="M72.4144,-149.5C88.6314,-149.5 105.646,-149.5 105.646,-149.5 105.646,-149.5 105.646,-233.2 105.646,-233.2 105.646,-233.2 121.512,-233.2 121.512,-233.2"/>
<polygon fill="black" stroke="black" points="121.512,-236.7 131.512,-233.2 121.512,-229.7 121.512,-236.7"/>
</g>
<!-- K090505 -->
<g id="node7" class="node"><title>K090505</title>
<ellipse fill="none" stroke="black" cx="289.731" cy="-271" rx="43.5923" ry="18"/>
<text text-anchor="middle" x="289.731" y="-267.3" font-family="Times,serif" font-size="14.00">K090505</text>
</g>
<!-- K063761&#45;&gt;K090505 -->
<g id="edge6" class="edge"><title>K063761&#45;&gt;K090505</title>
<path fill="none" stroke="black" d="M190.957,-259C190.957,-259 247.07,-259 247.07,-259"/>
<polygon fill="black" stroke="black" points="247.07,-262.5 257.07,-259 247.07,-255.5 247.07,-262.5"/>
</g>
<!-- K052410 -->
<g id="node3" class="node"><title>K052410</title>
<ellipse fill="none" stroke="black" cx="43.5461" cy="-298" rx="43.5923" ry="18"/>
<text text-anchor="middle" x="43.5461" y="-294.3" font-family="Times,serif" font-size="14.00">K052410</text>
</g>
<!-- K052410&#45;&gt;K063761 -->
<g id="edge2" class="edge"><title>K052410&#45;&gt;K063761</title>
<path fill="none" stroke="black" d="M87.3602,-298C101.992,-298 114.646,-298 114.646,-298 114.646,-298 114.646,-254.8 114.646,-254.8 114.646,-254.8 121.67,-254.8 121.67,-254.8"/>
<polygon fill="black" stroke="black" points="121.67,-258.3 131.67,-254.8 121.67,-251.3 121.67,-258.3"/>
</g>
<!-- K020353 -->
<g id="node4" class="node"><title>K020353</title>
<ellipse fill="none" stroke="black" cx="43.5461" cy="-244" rx="43.5923" ry="18"/>
<text text-anchor="middle" x="43.5461" y="-240.3" font-family="Times,serif" font-size="14.00">K020353</text>
</g>
<!-- K020353&#45;&gt;K063761 -->
<g id="edge3" class="edge"><title>K020353&#45;&gt;K063761</title>
<path fill="none" stroke="black" d="M86.2524,-247.6C86.2524,-247.6 113.591,-247.6 113.591,-247.6"/>
<polygon fill="black" stroke="black" points="113.591,-251.1 123.591,-247.6 113.591,-244.1 113.591,-251.1"/>
</g>
<!-- K994096 -->
<g id="node5" class="node"><title>K994096</title>
<ellipse fill="none" stroke="black" cx="43.5461" cy="-190" rx="43.5923" ry="18"/>
<text text-anchor="middle" x="43.5461" y="-186.3" font-family="Times,serif" font-size="14.00">K994096</text>
</g>
<!-- K994096&#45;&gt;K063761 -->
<g id="edge4" class="edge"><title>K994096&#45;&gt;K063761</title>
<path fill="none" stroke="black" d="M87.3966,-190C92.8994,-190 96.6459,-190 96.6459,-190 96.6459,-190 96.6459,-240.4 96.6459,-240.4 96.6459,-240.4 113.907,-240.4 113.907,-240.4"/>
<polygon fill="black" stroke="black" points="113.907,-243.9 123.907,-240.4 113.907,-236.9 113.907,-243.9"/>
</g>
<!-- K020112 -->
<g id="node6" class="node"><title>K020112</title>
<ellipse fill="none" stroke="black" cx="166.638" cy="-190" rx="43.5923" ry="18"/>
<text text-anchor="middle" x="166.638" y="-186.3" font-family="Times,serif" font-size="14.00">K020112</text>
</g>
<!-- K020112&#45;&gt;K090505 -->
<g id="edge5" class="edge"><title>K020112&#45;&gt;K090505</title>
<path fill="none" stroke="black" d="M195.464,-203.5C211.657,-203.5 228.646,-203.5 228.646,-203.5 228.646,-203.5 228.646,-256 228.646,-256 228.646,-256 255.588,-256 255.588,-256"/>
<polygon fill="black" stroke="black" points="255.588,-259.5 265.588,-256 255.588,-252.5 255.588,-259.5"/>
</g>
<!-- K102153 -->
<g id="node16" class="node"><title>K102153</title>
<ellipse fill="none" stroke="black" cx="412.823" cy="-279" rx="43.5923" ry="18"/>
<text text-anchor="middle" x="412.823" y="-275.3" font-family="Times,serif" font-size="14.00">K102153</text>
</g>
<!-- K090505&#45;&gt;K102153 -->
<g id="edge15" class="edge"><title>K090505&#45;&gt;K102153</title>
<path fill="none" stroke="black" d="M328.003,-279.667C328.003,-279.667 358.981,-279.667 358.981,-279.667"/>
<polygon fill="black" stroke="black" points="358.981,-283.167 368.981,-279.667 358.981,-276.167 358.981,-283.167"/>
</g>
<!-- K021628 -->
<g id="node8" class="node"><title>K021628</title>
<ellipse fill="none" stroke="black" cx="166.638" cy="-298" rx="43.5923" ry="18"/>
<text text-anchor="middle" x="166.638" y="-294.3" font-family="Times,serif" font-size="14.00">K021628</text>
</g>
<!-- K021628&#45;&gt;K090505 -->
<g id="edge7" class="edge"><title>K021628&#45;&gt;K090505</title>
<path fill="none" stroke="black" d="M195.498,-284.5C195.498,-284.5 250.625,-284.5 250.625,-284.5"/>
<polygon fill="black" stroke="black" points="250.625,-288 260.625,-284.5 250.625,-281 250.625,-288"/>
</g>
<!-- K152758 -->
<g id="node9" class="node"><title>K152758</title>
<ellipse fill="none" stroke="black" cx="289.731" cy="-55" rx="43.5923" ry="18"/>
<text text-anchor="middle" x="289.731" y="-51.3" font-family="Times,serif" font-size="14.00">K152758</text>
</g>
<!-- K161588 -->
<g id="node10" class="node"><title>K161588</title>
<ellipse fill="none" stroke="black" cx="412.823" cy="-82" rx="43.5923" ry="18"/>
<text text-anchor="middle" x="412.823" y="-78.3" font-family="Times,serif" font-size="14.00">K161588</text>
</g>
<!-- K152758&#45;&gt;K161588 -->
<g id="edge8" class="edge"><title>K152758&#45;&gt;K161588</title>
<path fill="none" stroke="black" d="M318.59,-68.5C318.59,-68.5 373.718,-68.5 373.718,-68.5"/>
<polygon fill="black" stroke="black" points="373.718,-72.0001 383.718,-68.5 373.718,-65.0001 373.718,-72.0001"/>
</g>
<!-- K112122 -->
<g id="node11" class="node"><title>K112122</title>
<ellipse fill="none" stroke="black" cx="289.731" cy="-109" rx="43.5923" ry="18"/>
<text text-anchor="middle" x="289.731" y="-105.3" font-family="Times,serif" font-size="14.00">K112122</text>
</g>
<!-- K112122&#45;&gt;K161588 -->
<g id="edge9" class="edge"><title>K112122&#45;&gt;K161588</title>
<path fill="none" stroke="black" d="M318.59,-95.5C318.59,-95.5 373.718,-95.5 373.718,-95.5"/>
<polygon fill="black" stroke="black" points="373.718,-99.0001 383.718,-95.5 373.718,-92.0001 373.718,-99.0001"/>
</g>
<!-- K140693 -->
<g id="node13" class="node"><title>K140693</title>
<ellipse fill="none" stroke="black" cx="412.823" cy="-163" rx="43.5923" ry="18"/>
<text text-anchor="middle" x="412.823" y="-159.3" font-family="Times,serif" font-size="14.00">K140693</text>
</g>
<!-- K112122&#45;&gt;K140693 -->
<g id="edge12" class="edge"><title>K112122&#45;&gt;K140693</title>
<path fill="none" stroke="black" d="M332.029,-113.5C367.926,-113.5 413.646,-113.5 413.646,-113.5 413.646,-113.5 413.646,-134.849 413.646,-134.849"/>
<polygon fill="black" stroke="black" points="410.146,-134.849 413.646,-144.849 417.146,-134.849 410.146,-134.849"/>
</g>
<!-- K092756 -->
<g id="node12" class="node"><title>K092756</title>
<ellipse fill="none" stroke="black" cx="289.731" cy="-217" rx="43.5923" ry="18"/>
<text text-anchor="middle" x="289.731" y="-213.3" font-family="Times,serif" font-size="14.00">K092756</text>
</g>
<!-- K092756&#45;&gt;K140693 -->
<g id="edge10" class="edge"><title>K092756&#45;&gt;K140693</title>
<path fill="none" stroke="black" d="M317.231,-203C353.738,-203 413.646,-203 413.646,-203 413.646,-203 413.646,-191.127 413.646,-191.127"/>
<polygon fill="black" stroke="black" points="417.146,-191.127 413.646,-181.127 410.146,-191.127 417.146,-191.127"/>
</g>
<!-- K092756&#45;&gt;K102153 -->
<g id="edge14" class="edge"><title>K092756&#45;&gt;K102153</title>
<path fill="none" stroke="black" d="M332.395,-221C343.12,-221 351.646,-221 351.646,-221 351.646,-221 351.646,-270.333 351.646,-270.333 351.646,-270.333 364.426,-270.333 364.426,-270.333"/>
<polygon fill="black" stroke="black" points="364.426,-273.833 374.426,-270.333 364.426,-266.833 364.426,-273.833"/>
</g>
<!-- K113690 -->
<g id="node14" class="node"><title>K113690</title>
<ellipse fill="none" stroke="black" cx="289.731" cy="-163" rx="43.5923" ry="18"/>
<text text-anchor="middle" x="289.731" y="-159.3" font-family="Times,serif" font-size="14.00">K113690</text>
</g>
<!-- K113690&#45;&gt;K140693 -->
<g id="edge11" class="edge"><title>K113690&#45;&gt;K140693</title>
<path fill="none" stroke="black" d="M333.475,-163C333.475,-163 359.22,-163 359.22,-163"/>
<polygon fill="black" stroke="black" points="359.22,-166.5 369.22,-163 359.219,-159.5 359.22,-166.5"/>
</g>
<!-- K070907 -->
<g id="node15" class="node"><title>K070907</title>
<ellipse fill="none" stroke="black" cx="289.731" cy="-325" rx="43.5923" ry="18"/>
<text text-anchor="middle" x="289.731" y="-321.3" font-family="Times,serif" font-size="14.00">K070907</text>
</g>
<!-- K070907&#45;&gt;K102153 -->
<g id="edge13" class="edge"><title>K070907&#45;&gt;K102153</title>
<path fill="none" stroke="black" d="M290.646,-306.757C290.646,-299.57 290.646,-293 290.646,-293 290.646,-293 375.404,-293 375.404,-293"/>
<polygon fill="black" stroke="black" points="375.404,-296.5 385.404,-293 375.404,-289.5 375.404,-296.5"/>
</g>
<!-- K133833 -->
<g id="node25" class="node"><title>K133833</title>
<ellipse fill="none" stroke="black" cx="535.915" cy="-325" rx="43.5923" ry="18"/>
<text text-anchor="middle" x="535.915" y="-321.3" font-family="Times,serif" font-size="14.00">K133833</text>
</g>
<!-- K070907&#45;&gt;K133833 -->
<g id="edge27" class="edge"><title>K070907&#45;&gt;K133833</title>
<path fill="none" stroke="black" d="M333.46,-325C333.46,-325 482.179,-325 482.179,-325"/>
<polygon fill="black" stroke="black" points="482.179,-328.5 492.179,-325 482.179,-321.5 482.179,-328.5"/>
</g>
<!-- K102153&#45;&gt;K133833 -->
<g id="edge28" class="edge"><title>K102153&#45;&gt;K133833</title>
<path fill="none" stroke="black" d="M452.418,-286.5C483.534,-286.5 521.646,-286.5 521.646,-286.5 521.646,-286.5 521.646,-297.552 521.646,-297.552"/>
<polygon fill="black" stroke="black" points="518.146,-297.552 521.646,-307.552 525.146,-297.552 518.146,-297.552"/>
</g>
<!-- K030191 -->
<g id="node17" class="node"><title>K030191</title>
<ellipse fill="none" stroke="black" cx="166.638" cy="-352" rx="43.5923" ry="18"/>
<text text-anchor="middle" x="166.638" y="-348.3" font-family="Times,serif" font-size="14.00">K030191</text>
</g>
<!-- K030191&#45;&gt;K070907 -->
<g id="edge16" class="edge"><title>K030191&#45;&gt;K070907</title>
<path fill="none" stroke="black" d="M195.498,-338.5C195.498,-338.5 250.625,-338.5 250.625,-338.5"/>
<polygon fill="black" stroke="black" points="250.625,-342 260.625,-338.5 250.625,-335 250.625,-342"/>
</g>
<!-- K012191 -->
<g id="node18" class="node"><title>K012191</title>
<ellipse fill="none" stroke="black" cx="43.5461" cy="-406" rx="43.5923" ry="18"/>
<text text-anchor="middle" x="43.5461" y="-402.3" font-family="Times,serif" font-size="14.00">K012191</text>
</g>
<!-- K012191&#45;&gt;K030191 -->
<g id="edge17" class="edge"><title>K012191&#45;&gt;K030191</title>
<path fill="none" stroke="black" d="M72.4964,-392.5C104.818,-392.5 152.646,-392.5 152.646,-392.5 152.646,-392.5 152.646,-379.411 152.646,-379.411"/>
<polygon fill="black" stroke="black" points="156.146,-379.411 152.646,-369.411 149.146,-379.411 156.146,-379.411"/>
</g>
<!-- K994373 -->
<g id="node19" class="node"><title>K994373</title>
<ellipse fill="none" stroke="black" cx="43.5461" cy="-352" rx="43.5923" ry="18"/>
<text text-anchor="middle" x="43.5461" y="-348.3" font-family="Times,serif" font-size="14.00">K994373</text>
</g>
<!-- K994373&#45;&gt;K030191 -->
<g id="edge18" class="edge"><title>K994373&#45;&gt;K030191</title>
<path fill="none" stroke="black" d="M87.2905,-352C87.2905,-352 113.035,-352 113.035,-352"/>
<polygon fill="black" stroke="black" points="113.035,-355.5 123.035,-352 113.035,-348.5 113.035,-355.5"/>
</g>
<!-- K993624 -->
<g id="node20" class="node"><title>K993624</title>
<ellipse fill="none" stroke="black" cx="43.5461" cy="-460" rx="43.5923" ry="18"/>
<text text-anchor="middle" x="43.5461" y="-456.3" font-family="Times,serif" font-size="14.00">K993624</text>
</g>
<!-- K993624&#45;&gt;K030191 -->
<g id="edge19" class="edge"><title>K993624&#45;&gt;K030191</title>
<path fill="none" stroke="black" d="M87.2418,-460C127.701,-460 181.646,-460 181.646,-460 181.646,-460 181.646,-379.352 181.646,-379.352"/>
<polygon fill="black" stroke="black" points="185.146,-379.352 181.646,-369.352 178.146,-379.352 185.146,-379.352"/>
</g>
<!-- K151339 -->
<g id="node21" class="node"><title>K151339</title>
<ellipse fill="none" stroke="black" cx="659.007" cy="-294" rx="43.5923" ry="18"/>
<text text-anchor="middle" x="659.007" y="-290.3" font-family="Times,serif" font-size="14.00">K151339</text>
</g>
<!-- K163138 -->
<g id="node22" class="node"><title>K163138</title>
<ellipse fill="none" stroke="black" cx="782.1" cy="-294" rx="43.5923" ry="18"/>
<text text-anchor="middle" x="782.1" y="-290.3" font-family="Times,serif" font-size="14.00">K163138</text>
</g>
<!-- K151339&#45;&gt;K163138 -->
<g id="edge20" class="edge"><title>K151339&#45;&gt;K163138</title>
<path fill="none" stroke="black" d="M702.752,-294C702.752,-294 728.496,-294 728.496,-294"/>
<polygon fill="black" stroke="black" points="728.496,-297.5 738.496,-294 728.496,-290.5 728.496,-297.5"/>
</g>
<!-- K152899 -->
<g id="node23" class="node"><title>K152899</title>
<ellipse fill="none" stroke="black" cx="659.007" cy="-348" rx="43.5923" ry="18"/>
<text text-anchor="middle" x="659.007" y="-344.3" font-family="Times,serif" font-size="14.00">K152899</text>
</g>
<!-- K152899&#45;&gt;K163138 -->
<g id="edge21" class="edge"><title>K152899&#45;&gt;K163138</title>
<path fill="none" stroke="black" d="M702.598,-348C738.194,-348 782.646,-348 782.646,-348 782.646,-348 782.646,-322.282 782.646,-322.282"/>
<polygon fill="black" stroke="black" points="786.146,-322.282 782.646,-312.282 779.146,-322.282 786.146,-322.282"/>
</g>
<!-- K153626 -->
<g id="node24" class="node"><title>K153626</title>
<ellipse fill="none" stroke="black" cx="659.007" cy="-240" rx="43.5923" ry="18"/>
<text text-anchor="middle" x="659.007" y="-236.3" font-family="Times,serif" font-size="14.00">K153626</text>
</g>
<!-- K153626&#45;&gt;K163138 -->
<g id="edge22" class="edge"><title>K153626&#45;&gt;K163138</title>
<path fill="none" stroke="black" d="M702.598,-240C738.194,-240 782.646,-240 782.646,-240 782.646,-240 782.646,-265.718 782.646,-265.718"/>
<polygon fill="black" stroke="black" points="779.146,-265.718 782.646,-275.718 786.146,-265.718 779.146,-265.718"/>
</g>
<!-- K133833&#45;&gt;K152899 -->
<g id="edge23" class="edge"><title>K133833&#45;&gt;K152899</title>
<path fill="none" stroke="black" d="M569.551,-336.5C569.551,-336.5 615.413,-336.5 615.413,-336.5"/>
<polygon fill="black" stroke="black" points="615.413,-340 625.413,-336.5 615.413,-333 615.413,-340"/>
</g>
<!-- K120321 -->
<g id="node26" class="node"><title>K120321</title>
<ellipse fill="none" stroke="black" cx="412.823" cy="-371" rx="43.5923" ry="18"/>
<text text-anchor="middle" x="412.823" y="-367.3" font-family="Times,serif" font-size="14.00">K120321</text>
</g>
<!-- K120321&#45;&gt;K152899 -->
<g id="edge24" class="edge"><title>K120321&#45;&gt;K152899</title>
<path fill="none" stroke="black" d="M450.213,-361.667C450.213,-361.667 620.496,-361.667 620.496,-361.667"/>
<polygon fill="black" stroke="black" points="620.496,-365.167 630.496,-361.667 620.496,-358.167 620.496,-365.167"/>
</g>
<!-- K120321&#45;&gt;K133833 -->
<g id="edge25" class="edge"><title>K120321&#45;&gt;K133833</title>
<path fill="none" stroke="black" d="M441.23,-357.333C477.787,-357.333 536.646,-357.333 536.646,-357.333 536.646,-357.333 536.646,-353.057 536.646,-353.057"/>
<polygon fill="black" stroke="black" points="540.146,-353.057 536.646,-343.057 533.146,-353.057 540.146,-353.057"/>
</g>
<!-- K132304 -->
<g id="node27" class="node"><title>K132304</title>
<ellipse fill="none" stroke="black" cx="412.823" cy="-225" rx="43.5923" ry="18"/>
<text text-anchor="middle" x="412.823" y="-221.3" font-family="Times,serif" font-size="14.00">K132304</text>
</g>
<!-- K132304&#45;&gt;K133833 -->
<g id="edge26" class="edge"><title>K132304&#45;&gt;K133833</title>
<path fill="none" stroke="black" d="M452.687,-232.5C493.391,-232.5 550.646,-232.5 550.646,-232.5 550.646,-232.5 550.646,-298.034 550.646,-298.034"/>
<polygon fill="black" stroke="black" points="547.146,-298.034 550.646,-308.034 554.146,-298.034 547.146,-298.034"/>
</g>
<!-- K043535 -->
<g id="node28" class="node"><title>K043535</title>
<ellipse fill="none" stroke="black" cx="289.731" cy="-379" rx="43.5923" ry="18"/>
<text text-anchor="middle" x="289.731" y="-375.3" font-family="Times,serif" font-size="14.00">K043535</text>
</g>
<!-- K043535&#45;&gt;K120321 -->
<g id="edge29" class="edge"><title>K043535&#45;&gt;K120321</title>
<path fill="none" stroke="black" d="M332.437,-375C332.437,-375 360.192,-375 360.192,-375"/>
<polygon fill="black" stroke="black" points="360.192,-378.5 370.192,-375 360.192,-371.5 360.192,-378.5"/>
</g>
</g>
</svg>
