M48
;Layer_Color=9474304
;FILE_FORMAT=2:4
INCH
;TYPE=PLATED
T1F00S00C0.0118
T2F00S00C0.0276
T3F00S00C0.0315
T4F00S00C0.0354
T5F00S00C0.0394
%
T01
X047185Y028091
X048632Y027933
X049587Y028110
X048730Y028986
X050128Y029370
X051722Y029872
X051585Y027923
X048937Y031230
X047362Y030904
X046762Y030738
X045472Y030846
X045935Y029321
X046831Y029331
X045600Y028081
X044154Y027953
X044055Y030217
X042933Y029862
X042451Y029154
X041585Y028445
X041014Y029882
X040935Y032805
X042461Y033268
X041811Y034409
X041821Y034980
X041329Y035039
X044537Y035069
X044478Y035915
X044459Y036358
X044925Y036220
X044478Y037185
X044567Y037717
X044478Y038425
X044026Y038396
X043789Y039134
X043465Y040167
X044232Y040640
X046437Y040679
X046171Y042146
X045758Y043120
X046772Y043150
X046211Y045748
X046033Y046772
X044577Y046654
X044606Y045374
X042717Y046654
X041043Y045866
X041821Y044006
X041417Y042844
X041083Y041850
X040886Y039862
X041024Y038041
X046329Y037707
X046831Y038219
X046260Y036299
X046565Y035246
X043386Y042372
X047441Y041132
X048268Y041713
X048167Y043089
X049167Y043085
X050837Y043839
X050246Y044596
X050049Y045679
X051171Y045758
X051811Y044823
Y046870
X051644Y042835
X050472Y041762
X049902Y040994
X050010Y040008
X050561
Y039457
X050010
X050285Y038553
X049705Y038543
X049272Y038199
X050217Y037943
X051191Y038041
X051929Y038858
X051457Y039419
X051427Y039734
X051437Y040049
X051860Y036860
X050207Y035266
X048986Y035089
X048740Y034213
X048278Y035571
X047313Y035778
X047589Y036681
Y037232
X047037
Y036681
X048472Y036642
X048474Y037274
X048238Y038789
X047657Y039449
X047667Y044331
X048337Y045856
X049203Y036043
X051722Y032982
T02
X046638Y046555
X047638
T03
X051083Y028543
Y029543
X043602Y029528
Y028528
Y032528
Y033528
Y034528
Y035528
X051083Y035543
Y034543
Y033543
Y032543
T04
X052362Y028346
Y029346
Y030346
X040354
Y029346
Y028346
Y031346
Y032346
Y033346
Y034346
Y035346
Y036346
Y037346
Y038346
Y039346
Y040346
Y041346
Y042346
Y043346
Y044346
Y045346
Y046346
X049000Y046654
X050000
X051000
X052362Y046346
Y045346
Y044346
Y043346
Y042346
Y041346
Y040346
Y039346
Y038346
Y037346
Y036346
Y035346
Y034346
Y033346
Y032346
Y031346
T05
X044776Y031325
X045776
Y032325
X044776
Y033325
X045776
Y034325
X044776
X046941
Y033325
Y032325
Y031325
X047941
Y032325
Y033325
Y034325
M30
