<?xml version="1.0" encoding="UTF-8" standalone="no"?>
<!DOCTYPE svg PUBLIC "-//W3C//DTD SVG 1.1//EN"
 "http://www.w3.org/Graphics/SVG/1.1/DTD/svg11.dtd">
<!-- Generated by graphviz version 2.38.0 (20140413.2041)
 -->
<!-- Title: %3 Pages: 1 -->
<svg width="1171pt" height="1205pt"
 viewBox="0.00 0.00 1170.78 1204.70" xmlns="http://www.w3.org/2000/svg" xmlns:xlink="http://www.w3.org/1999/xlink">
<g id="graph0" class="graph" transform="scale(1 1) rotate(0) translate(460.214 797.746)">
<title>%3</title>
<polygon fill="white" stroke="none" points="-460.214,406.954 -460.214,-797.746 710.563,-797.746 710.563,406.954 -460.214,406.954"/>
<text text-anchor="middle" x="125.174" y="395.154" font-family="Times,serif" font-size="14.00">my mind</text>
<!-- HAD -->
<g id="node1" class="node"><title>HAD</title>
<ellipse fill="none" stroke="black" cx="500.027" cy="-540.531" rx="29.795" ry="18"/>
<text text-anchor="middle" x="500.027" y="-536.831" font-family="Times,serif" font-size="14.00">HAD</text>
</g>
<!-- Murgen -->
<g id="node2" class="node"><title>Murgen</title>
<ellipse fill="none" stroke="black" cx="537.534" cy="-459.976" rx="38.9931" ry="18"/>
<text text-anchor="middle" x="537.534" y="-456.276" font-family="Times,serif" font-size="14.00">Murgen</text>
</g>
<!-- HAD&#45;&gt;Murgen -->
<g id="edge1" class="edge"><title>HAD&#45;&gt;Murgen</title>
<path fill="none" stroke="black" d="M508.165,-523.052C513.095,-512.463 519.485,-498.74 525.045,-486.8"/>
<polygon fill="black" stroke="black" points="528.234,-488.242 529.282,-477.699 521.888,-485.288 528.234,-488.242"/>
</g>
<!-- AutoFinancement -->
<g id="node3" class="node"><title>AutoFinancement</title>
<ellipse fill="none" stroke="black" cx="412.753" cy="-550.676" rx="74.187" ry="18"/>
<text text-anchor="middle" x="412.753" y="-546.976" font-family="Times,serif" font-size="14.00">AutoFinancement</text>
</g>
<!-- HAD&#45;&gt;AutoFinancement -->
<g id="edge2" class="edge"><title>HAD&#45;&gt;AutoFinancement</title>
<path fill="none" stroke="black" d="M470.48,-543.966C470.43,-543.972 470.381,-543.977 470.331,-543.983"/>
<polygon fill="black" stroke="black" points="479.71,-539.363 470.183,-544 480.522,-546.316 479.71,-539.363"/>
</g>
<!-- Phantoms -->
<g id="node39" class="node"><title>Phantoms</title>
<ellipse fill="none" stroke="black" cx="548.22" cy="-616.689" rx="46.2923" ry="18"/>
<text text-anchor="middle" x="548.22" y="-612.989" font-family="Times,serif" font-size="14.00">Phantoms</text>
</g>
<!-- HAD&#45;&gt;Phantoms -->
<g id="edge39" class="edge"><title>HAD&#45;&gt;Phantoms</title>
<path fill="none" stroke="black" d="M510.722,-557.433C516.832,-567.088 524.626,-579.405 531.525,-590.306"/>
<polygon fill="black" stroke="black" points="528.747,-592.462 537.052,-599.04 534.662,-588.719 528.747,-592.462"/>
</g>
<!-- Output Image -->
<g id="node6" class="node"><title>Output Image</title>
<ellipse fill="none" stroke="black" cx="544.984" cy="-371.925" rx="59.5901" ry="18"/>
<text text-anchor="middle" x="544.984" y="-368.225" font-family="Times,serif" font-size="14.00">Output Image</text>
</g>
<!-- Murgen&#45;&gt;Output Image -->
<g id="edge5" class="edge"><title>Murgen&#45;&gt;Output Image</title>
<path fill="none" stroke="black" d="M539.077,-441.732C540.086,-429.808 541.425,-413.988 542.573,-400.423"/>
<polygon fill="black" stroke="black" points="546.087,-400.406 543.442,-390.146 539.112,-399.815 546.087,-400.406"/>
</g>
<!-- OpenSourceHardwareContest -->
<g id="node4" class="node"><title>OpenSourceHardwareContest</title>
<ellipse fill="none" stroke="black" cx="368.363" cy="-617.294" rx="115.88" ry="18"/>
<text text-anchor="middle" x="368.363" y="-613.594" font-family="Times,serif" font-size="14.00">OpenSourceHardwareContest</text>
</g>
<!-- AutoFinancement&#45;&gt;OpenSourceHardwareContest -->
<g id="edge3" class="edge"><title>AutoFinancement&#45;&gt;OpenSourceHardwareContest</title>
<path fill="none" stroke="black" d="M400.857,-568.528C396.353,-575.288 391.122,-583.138 386.191,-590.539"/>
<polygon fill="black" stroke="black" points="383.233,-588.665 380.601,-598.928 389.059,-592.547 383.233,-588.665"/>
</g>
<!-- Sofian -->
<g id="node5" class="node"><title>Sofian</title>
<ellipse fill="none" stroke="black" cx="617.835" cy="-473.061" rx="33.5952" ry="18"/>
<text text-anchor="middle" x="617.835" y="-469.361" font-family="Times,serif" font-size="14.00">Sofian</text>
</g>
<!-- Sofian&#45;&gt;Murgen -->
<g id="edge4" class="edge"><title>Sofian&#45;&gt;Murgen</title>
<path fill="none" stroke="black" d="M585.174,-467.739C584.951,-467.703 584.728,-467.666 584.505,-467.63"/>
<polygon fill="black" stroke="black" points="584.798,-464.132 574.365,-465.978 583.672,-471.041 584.798,-464.132"/>
</g>
<!-- Benchmark -->
<g id="node8" class="node"><title>Benchmark</title>
<ellipse fill="none" stroke="black" cx="624.71" cy="-359.691" rx="51.9908" ry="18"/>
<text text-anchor="middle" x="624.71" y="-355.991" font-family="Times,serif" font-size="14.00">Benchmark</text>
</g>
<!-- Output Image&#45;&gt;Benchmark -->
<g id="edge7" class="edge"><title>Output Image&#45;&gt;Benchmark</title>
<path fill="none" stroke="black" d="M598.605,-363.697C598.661,-363.688 598.717,-363.68 598.774,-363.671"/>
<polygon fill="black" stroke="black" points="589.59,-368.626 598.942,-363.645 588.525,-361.707 589.59,-368.626"/>
</g>
<!-- Print -->
<g id="node11" class="node"><title>Print</title>
<ellipse fill="none" stroke="black" cx="508.417" cy="-298.468" rx="27.8951" ry="18"/>
<text text-anchor="middle" x="508.417" y="-294.768" font-family="Times,serif" font-size="14.00">Print</text>
</g>
<!-- Output Image&#45;&gt;Print -->
<g id="edge11" class="edge"><title>Output Image&#45;&gt;Print</title>
<path fill="none" stroke="black" d="M535.945,-353.767C531.63,-345.1 526.384,-334.561 521.633,-325.017"/>
<polygon fill="black" stroke="black" points="524.69,-323.303 517.1,-315.911 518.423,-326.423 524.69,-323.303"/>
</g>
<!-- Serveur Michel -->
<g id="node7" class="node"><title>Serveur Michel</title>
<ellipse fill="none" stroke="black" cx="468.157" cy="-343.534" rx="65.7887" ry="18"/>
<text text-anchor="middle" x="468.157" y="-339.834" font-family="Times,serif" font-size="14.00">Serveur Michel</text>
</g>
<!-- Serveur Michel&#45;&gt;Output Image -->
<g id="edge6" class="edge"><title>Serveur Michel&#45;&gt;Output Image</title>
<path fill="none" stroke="black" d="M507.471,-358.062C507.545,-358.089 507.618,-358.117 507.692,-358.144"/>
<polygon fill="black" stroke="black" points="497.319,-358.04 507.914,-358.226 499.748,-351.474 497.319,-358.04"/>
</g>
<!-- Image processing -->
<g id="node9" class="node"><title>Image processing</title>
<ellipse fill="none" stroke="black" cx="598.606" cy="-307.359" rx="73.387" ry="18"/>
<text text-anchor="middle" x="598.606" y="-303.659" font-family="Times,serif" font-size="14.00">Image processing</text>
</g>
<!-- Benchmark&#45;&gt;Image processing -->
<g id="edge8" class="edge"><title>Benchmark&#45;&gt;Image processing</title>
<path fill="none" stroke="black" d="M615.727,-341.681C614.591,-339.405 613.41,-337.037 612.222,-334.656"/>
<polygon fill="black" stroke="black" points="615.291,-332.966 607.695,-325.579 609.027,-336.09 615.291,-332.966"/>
</g>
<!-- Image processing&#45;&gt;Output Image -->
<g id="edge10" class="edge"><title>Image processing&#45;&gt;Output Image</title>
<path fill="none" stroke="black" d="M583.954,-325.002C578.516,-331.55 572.231,-339.118 566.317,-346.238"/>
<polygon fill="black" stroke="black" points="563.315,-344.374 559.619,-354.303 568.7,-348.847 563.315,-344.374"/>
</g>
<!-- Jean&#45;Francois -->
<g id="node10" class="node"><title>Jean&#45;Francois</title>
<ellipse fill="none" stroke="black" cx="646.769" cy="-246.401" rx="59.5901" ry="18"/>
<text text-anchor="middle" x="646.769" y="-242.701" font-family="Times,serif" font-size="14.00">Jean&#45;Francois</text>
</g>
<!-- Image processing&#45;&gt;Jean&#45;Francois -->
<g id="edge9" class="edge"><title>Image processing&#45;&gt;Jean&#45;Francois</title>
<path fill="none" stroke="black" d="M612.796,-289.399C617.047,-284.019 621.795,-278.01 626.362,-272.229"/>
<polygon fill="black" stroke="black" points="629.393,-274.039 632.846,-264.022 623.9,-269.699 629.393,-274.039"/>
</g>
<!-- Modules -->
<g id="node12" class="node"><title>Modules</title>
<ellipse fill="none" stroke="black" cx="-139.6" cy="106.816" rx="42.4939" ry="18"/>
<text text-anchor="middle" x="-139.6" y="110.516" font-family="Times,serif" font-size="14.00">Modules</text>
</g>
<!-- Tester -->
<g id="node13" class="node"><title>Tester</title>
<ellipse fill="none" stroke="black" cx="-136.55" cy="183.024" rx="32.4942" ry="18"/>
<text text-anchor="middle" x="-136.55" y="186.724" font-family="Times,serif" font-size="14.00">Tester</text>
</g>
<!-- Modules&#45;&gt;Tester -->
<g id="edge12" class="edge"><title>Modules&#45;&gt;Tester</title>
<path fill="none" stroke="black" d="M-138.877,124.876C-138.523,133.733 -138.087,144.609 -137.689,154.55"/>
<polygon fill="black" stroke="black" points="-134.181,154.697 -137.278,164.829 -141.175,154.977 -134.181,154.697"/>
</g>
<!-- Transducer -->
<g id="node14" class="node"><title>Transducer</title>
<ellipse fill="none" stroke="black" cx="-177.251" cy="201.462" rx="50.0912" ry="18"/>
<text text-anchor="middle" x="-177.251" y="205.162" font-family="Times,serif" font-size="14.00">Transducer</text>
</g>
<!-- Modules&#45;&gt;Transducer -->
<g id="edge13" class="edge"><title>Modules&#45;&gt;Transducer</title>
<path fill="none" stroke="black" d="M-146.682,124.618C-152.221,138.542 -160.019,158.144 -166.352,174.065"/>
<polygon fill="black" stroke="black" points="-163.124,175.42 -170.073,183.418 -169.629,172.833 -163.124,175.42"/>
</g>
<!-- Mech -->
<g id="node15" class="node"><title>Mech</title>
<ellipse fill="none" stroke="black" cx="-50.3778" cy="82.165" rx="31.3957" ry="18"/>
<text text-anchor="middle" x="-50.3778" y="85.865" font-family="Times,serif" font-size="14.00">Mech</text>
</g>
<!-- Modules&#45;&gt;Mech -->
<g id="edge14" class="edge"><title>Modules&#45;&gt;Mech</title>
<path fill="none" stroke="black" d="M-104.081,97.0022C-98.9279,95.5786 -93.6062,94.1083 -88.4065,92.6717"/>
<polygon fill="black" stroke="black" points="-89.205,89.2613 -78.634,89.9718 -87.3408,96.0085 -89.205,89.2613"/>
</g>
<!-- echOmods -->
<g id="node17" class="node"><title>echOmods</title>
<ellipse fill="none" stroke="black" cx="-231.234" cy="146.191" rx="48.9926" ry="18"/>
<text text-anchor="middle" x="-231.234" y="149.891" font-family="Times,serif" font-size="14.00">echOmods</text>
</g>
<!-- Modules&#45;&gt;echOmods -->
<g id="edge31" class="edge"><title>Modules&#45;&gt;echOmods</title>
<path fill="none" stroke="black" d="M-169.351,119.6C-175.962,122.44 -183.083,125.5 -190.06,128.498"/>
<polygon fill="black" stroke="black" points="-188.852,131.789 -199.422,132.521 -191.616,125.357 -188.852,131.789"/>
</g>
<!-- Alim -->
<g id="node31" class="node"><title>Alim</title>
<ellipse fill="none" stroke="black" cx="-227.165" cy="82.4843" rx="29.4969" ry="18"/>
<text text-anchor="middle" x="-227.165" y="86.1843" font-family="Times,serif" font-size="14.00">Alim</text>
</g>
<!-- Modules&#45;&gt;Alim -->
<g id="edge29" class="edge"><title>Modules&#45;&gt;Alim</title>
<path fill="none" stroke="black" d="M-175.216,96.9192C-180.352,95.4921 -185.643,94.0218 -190.794,92.5907"/>
<polygon fill="black" stroke="black" points="-191.749,95.958 -200.446,89.9085 -189.874,89.2135 -191.749,95.958"/>
</g>
<!-- HV -->
<g id="node33" class="node"><title>HV</title>
<ellipse fill="none" stroke="black" cx="-194.376" cy="128.782" rx="27" ry="18"/>
<text text-anchor="middle" x="-194.376" y="132.482" font-family="Times,serif" font-size="14.00">HV</text>
</g>
<!-- Modules&#45;&gt;HV -->
<g id="edge32" class="edge"><title>Modules&#45;&gt;HV</title>
<path fill="none" stroke="black" d="M-170.51,119.211C-170.607,119.25 -170.704,119.289 -170.801,119.328"/>
<polygon fill="black" stroke="black" points="-160.506,118.969 -171.091,119.444 -163.113,112.472 -160.506,118.969"/>
</g>
<!-- TGC -->
<g id="node34" class="node"><title>TGC</title>
<ellipse fill="none" stroke="black" cx="-157.251" cy="54.0511" rx="28.6953" ry="18"/>
<text text-anchor="middle" x="-157.251" y="57.7511" font-family="Times,serif" font-size="14.00">TGC</text>
</g>
<!-- Modules&#45;&gt;TGC -->
<g id="edge33" class="edge"><title>Modules&#45;&gt;TGC</title>
<path fill="none" stroke="black" d="M-145.576,88.952C-146.381,86.5453 -147.221,84.0326 -148.066,81.5068"/>
<polygon fill="black" stroke="black" points="-151.428,82.4902 -151.281,71.8964 -144.79,80.2694 -151.428,82.4902"/>
</g>
<!-- Controler -->
<g id="node35" class="node"><title>Controler</title>
<ellipse fill="none" stroke="black" cx="-149.573" cy="27.2503" rx="44.393" ry="18"/>
<text text-anchor="middle" x="-149.573" y="30.9503" font-family="Times,serif" font-size="14.00">Controler</text>
</g>
<!-- Modules&#45;&gt;Controler -->
<g id="edge34" class="edge"><title>Modules&#45;&gt;Controler</title>
<path fill="none" stroke="black" d="M-141.863,88.761C-143.1,78.8933 -144.659,66.4528 -146.051,55.346"/>
<polygon fill="black" stroke="black" points="-149.548,55.5911 -147.319,45.2334 -142.602,54.7205 -149.548,55.5911"/>
</g>
<!-- Doc -->
<g id="node44" class="node"><title>Doc</title>
<ellipse fill="none" stroke="black" cx="-190.801" cy="77.8865" rx="27" ry="18"/>
<text text-anchor="middle" x="-190.801" y="81.5865" font-family="Times,serif" font-size="14.00">Doc</text>
</g>
<!-- Modules&#45;&gt;Doc -->
<g id="edge44" class="edge"><title>Modules&#45;&gt;Doc</title>
<path fill="none" stroke="black" d="M-165.2,92.3511C-165.3,92.2946 -165.4,92.2381 -165.5,92.1816"/>
<polygon fill="black" stroke="black" points="-162.991,97.6196 -169.976,89.6531 -159.547,91.5251 -162.991,97.6196"/>
</g>
<!-- Motherboard -->
<g id="node45" class="node"><title>Motherboard</title>
<ellipse fill="none" stroke="black" cx="-172.842" cy="162.064" rx="57.3905" ry="18"/>
<text text-anchor="middle" x="-172.842" y="165.764" font-family="Times,serif" font-size="14.00">Motherboard</text>
</g>
<!-- Modules&#45;&gt;Motherboard -->
<g id="edge45" class="edge"><title>Modules&#45;&gt;Motherboard</title>
<path fill="none" stroke="black" d="M-150.118,124.297C-152.258,127.853 -154.555,131.67 -156.836,135.461"/>
<polygon fill="black" stroke="black" points="-153.895,137.362 -162.05,144.126 -159.893,133.753 -153.895,137.362"/>
</g>
<!-- DDS -->
<g id="node53" class="node"><title>DDS</title>
<ellipse fill="none" stroke="black" cx="-203.103" cy="24.6881" rx="28.6953" ry="18"/>
<text text-anchor="middle" x="-203.103" y="28.3881" font-family="Times,serif" font-size="14.00">DDS</text>
</g>
<!-- Modules&#45;&gt;DDS -->
<g id="edge53" class="edge"><title>Modules&#45;&gt;DDS</title>
<path fill="none" stroke="black" d="M-153.067,89.3985C-162.146,77.6566 -174.251,62.0016 -184.28,49.0309"/>
<polygon fill="black" stroke="black" points="-187.171,51.0149 -190.519,40.963 -181.633,46.733 -187.171,51.0149"/>
</g>
<!-- Fab -->
<g id="node56" class="node"><title>Fab</title>
<ellipse fill="none" stroke="black" cx="-70.4113" cy="57.3956" rx="27" ry="18"/>
<text text-anchor="middle" x="-70.4113" y="61.0956" font-family="Times,serif" font-size="14.00">Fab</text>
</g>
<!-- Modules&#45;&gt;Fab -->
<g id="edge56" class="edge"><title>Modules&#45;&gt;Fab</title>
<path fill="none" stroke="black" d="M-117.708,91.1788C-111.25,86.5659 -104.106,81.4631 -97.3688,76.6508"/>
<polygon fill="black" stroke="black" points="-99.3064,73.7337 -89.1347,70.7694 -95.2378,79.4298 -99.3064,73.7337"/>
</g>
<!-- Pedagogie -->
<g id="node67" class="node"><title>Pedagogie</title>
<ellipse fill="none" stroke="black" cx="-67.696" cy="141.399" rx="47.3916" ry="18"/>
<text text-anchor="middle" x="-67.696" y="145.099" font-family="Times,serif" font-size="14.00">Pedagogie</text>
</g>
<!-- Modules&#45;&gt;Pedagogie -->
<g id="edge68" class="edge"><title>Modules&#45;&gt;Pedagogie</title>
<path fill="none" stroke="black" d="M-111.182,120.484C-109.616,121.237 -108.031,121.999 -106.438,122.765"/>
<polygon fill="black" stroke="black" points="-104.819,119.66 -97.3247,127.149 -107.854,125.968 -104.819,119.66"/>
</g>
<!-- Jan -->
<g id="node21" class="node"><title>Jan</title>
<ellipse fill="none" stroke="black" cx="-215.444" cy="278.336" rx="27" ry="18"/>
<text text-anchor="middle" x="-215.444" y="282.036" font-family="Times,serif" font-size="14.00">Jan</text>
</g>
<!-- Transducer&#45;&gt;Jan -->
<g id="edge19" class="edge"><title>Transducer&#45;&gt;Jan</title>
<path fill="none" stroke="black" d="M-186.109,219.292C-190.95,229.035 -197.036,241.285 -202.409,252.099"/>
<polygon fill="black" stroke="black" points="-199.313,253.734 -206.897,261.132 -205.582,250.619 -199.313,253.734"/>
</g>
<!-- BiVi -->
<g id="node16" class="node"><title>BiVi</title>
<ellipse fill="none" stroke="black" cx="49.4588" cy="59.2317" rx="27.8951" ry="18"/>
<text text-anchor="middle" x="49.4588" y="62.9317" font-family="Times,serif" font-size="14.00">BiVi</text>
</g>
<!-- Mech&#45;&gt;BiVi -->
<g id="edge15" class="edge"><title>Mech&#45;&gt;BiVi</title>
<path fill="none" stroke="black" d="M-21.2325,75.4701C-10.5687,73.0205 1.63457,70.2173 12.8666,67.6372"/>
<polygon fill="black" stroke="black" points="12.3068,64.1747 22.8366,65.347 13.874,70.997 12.3068,64.1747"/>
</g>
<!-- WoodBox -->
<g id="node18" class="node"><title>WoodBox</title>
<ellipse fill="none" stroke="black" cx="-314.133" cy="170.316" rx="47.3916" ry="18"/>
<text text-anchor="middle" x="-314.133" y="174.016" font-family="Times,serif" font-size="14.00">WoodBox</text>
</g>
<!-- echOmods&#45;&gt;WoodBox -->
<g id="edge16" class="edge"><title>echOmods&#45;&gt;WoodBox</title>
<path fill="none" stroke="black" d="M-269.771,157.406C-269.909,157.446 -270.046,157.486 -270.184,157.526"/>
<polygon fill="black" stroke="black" points="-265.796,159.894 -276.375,159.328 -267.752,153.173 -265.796,159.894"/>
</g>
<!-- Arthur -->
<g id="node19" class="node"><title>Arthur</title>
<ellipse fill="none" stroke="black" cx="-365.332" cy="234.021" rx="34.394" ry="18"/>
<text text-anchor="middle" x="-365.332" y="237.721" font-family="Times,serif" font-size="14.00">Arthur</text>
</g>
<!-- WoodBox&#45;&gt;Arthur -->
<g id="edge17" class="edge"><title>WoodBox&#45;&gt;Arthur</title>
<path fill="none" stroke="black" d="M-328.124,187.724C-333.401,194.291 -339.514,201.896 -345.241,209.022"/>
<polygon fill="black" stroke="black" points="-342.72,211.473 -351.713,217.075 -348.176,207.088 -342.72,211.473"/>
</g>
<!-- LogoLaserCut -->
<g id="node20" class="node"><title>LogoLaserCut</title>
<ellipse fill="none" stroke="black" cx="-394.47" cy="144.421" rx="61.99" ry="18"/>
<text text-anchor="middle" x="-394.47" y="148.121" font-family="Times,serif" font-size="14.00">LogoLaserCut</text>
</g>
<!-- WoodBox&#45;&gt;LogoLaserCut -->
<g id="edge18" class="edge"><title>WoodBox&#45;&gt;LogoLaserCut</title>
<path fill="none" stroke="black" d="M-350.541,158.581C-350.645,158.547 -350.748,158.514 -350.852,158.48"/>
<polygon fill="black" stroke="black" points="-344.593,164.176 -353.037,157.776 -342.445,157.513 -344.593,164.176"/>
</g>
<!-- 2 types to test -->
<g id="node22" class="node"><title>2 types to test</title>
<ellipse fill="none" stroke="black" cx="-251.072" cy="350.836" rx="59.5901" ry="18"/>
<text text-anchor="middle" x="-251.072" y="354.536" font-family="Times,serif" font-size="14.00">2 types to test</text>
</g>
<!-- Jan&#45;&gt;2 types to test -->
<g id="edge20" class="edge"><title>Jan&#45;&gt;2 types to test</title>
<path fill="none" stroke="black" d="M-223.888,295.518C-228.055,303.997 -233.178,314.422 -237.849,323.928"/>
<polygon fill="black" stroke="black" points="-234.766,325.589 -242.317,333.02 -241.048,322.502 -234.766,325.589"/>
</g>
<!-- Croaker -->
<g id="node23" class="node"><title>Croaker</title>
<ellipse fill="none" stroke="black" cx="142.441" cy="-195.074" rx="38.9931" ry="18"/>
<text text-anchor="middle" x="142.441" y="-191.374" font-family="Times,serif" font-size="14.00">Croaker</text>
</g>
<!-- STM32F205RG -->
<g id="node24" class="node"><title>STM32F205RG</title>
<ellipse fill="none" stroke="black" cx="164.491" cy="-277.532" rx="68.4888" ry="18"/>
<text text-anchor="middle" x="164.491" y="-273.832" font-family="Times,serif" font-size="14.00">STM32F205RG</text>
</g>
<!-- Croaker&#45;&gt;STM32F205RG -->
<g id="edge21" class="edge"><title>Croaker&#45;&gt;STM32F205RG</title>
<path fill="none" stroke="black" d="M147.225,-212.966C150.095,-223.697 153.806,-237.574 157.052,-249.711"/>
<polygon fill="black" stroke="black" points="153.675,-250.634 159.64,-259.39 160.438,-248.825 153.675,-250.634"/>
</g>
<!-- TFT Screen -->
<g id="node28" class="node"><title>TFT Screen</title>
<ellipse fill="none" stroke="black" cx="221.141" cy="-212.261" rx="52.7911" ry="18"/>
<text text-anchor="middle" x="221.141" y="-208.561" font-family="Times,serif" font-size="14.00">TFT Screen</text>
</g>
<!-- Croaker&#45;&gt;TFT Screen -->
<g id="edge26" class="edge"><title>Croaker&#45;&gt;TFT Screen</title>
<path fill="none" stroke="black" d="M178.107,-202.863C178.188,-202.881 178.269,-202.898 178.351,-202.916"/>
<polygon fill="black" stroke="black" points="168.077,-204.252 178.595,-202.969 169.573,-197.413 168.077,-204.252"/>
</g>
<!-- SD Card -->
<g id="node29" class="node"><title>SD Card</title>
<ellipse fill="none" stroke="black" cx="88.3599" cy="-263.34" rx="41.6928" ry="18"/>
<text text-anchor="middle" x="88.3599" y="-259.64" font-family="Times,serif" font-size="14.00">SD Card</text>
</g>
<!-- Croaker&#45;&gt;SD Card -->
<g id="edge27" class="edge"><title>Croaker&#45;&gt;SD Card</title>
<path fill="none" stroke="black" d="M128.794,-212.3C122.629,-220.082 115.221,-229.434 108.439,-237.994"/>
<polygon fill="black" stroke="black" points="105.657,-235.869 102.191,-245.881 111.144,-240.216 105.657,-235.869"/>
</g>
<!-- STM32F205RG&#45;&gt;STM32F205RG -->
<g id="edge22" class="edge"><title>STM32F205RG&#45;&gt;STM32F205RG</title>
<path fill="none" stroke="black" d="M228.43,-284.025C241.428,-283.317 250.735,-281.153 250.735,-277.532 250.735,-274.93 245.927,-273.08 238.396,-271.982"/>
<polygon fill="black" stroke="black" points="238.715,-268.497 228.43,-271.04 238.056,-275.466 238.715,-268.497"/>
</g>
<!-- M3 -->
<g id="node25" class="node"><title>M3</title>
<ellipse fill="none" stroke="black" cx="231.201" cy="-324.782" rx="27" ry="18"/>
<text text-anchor="middle" x="231.201" y="-321.082" font-family="Times,serif" font-size="14.00">M3</text>
</g>
<!-- STM32F205RG&#45;&gt;M3 -->
<g id="edge23" class="edge"><title>STM32F205RG&#45;&gt;M3</title>
<path fill="none" stroke="black" d="M188.575,-294.59C193.644,-298.18 199.023,-301.99 204.19,-305.65"/>
<polygon fill="black" stroke="black" points="202.413,-308.68 212.597,-311.604 206.459,-302.968 202.413,-308.68"/>
</g>
<!-- 6Msps -->
<g id="node26" class="node"><title>6Msps</title>
<ellipse fill="none" stroke="black" cx="138.317" cy="-357.427" rx="34.394" ry="18"/>
<text text-anchor="middle" x="138.317" y="-353.727" font-family="Times,serif" font-size="14.00">6Msps</text>
</g>
<!-- STM32F205RG&#45;&gt;6Msps -->
<g id="edge24" class="edge"><title>STM32F205RG&#45;&gt;6Msps</title>
<path fill="none" stroke="black" d="M158.552,-295.661C155.249,-305.743 151.071,-318.498 147.369,-329.796"/>
<polygon fill="black" stroke="black" points="143.93,-329.052 144.143,-339.644 150.582,-331.231 143.93,-329.052"/>
</g>
<!-- uC -->
<g id="node27" class="node"><title>uC</title>
<ellipse fill="none" stroke="black" cx="115.328" cy="-107.207" rx="27" ry="18"/>
<text text-anchor="middle" x="115.328" y="-103.507" font-family="Times,serif" font-size="14.00">uC</text>
</g>
<!-- uC&#45;&gt;Croaker -->
<g id="edge25" class="edge"><title>uC&#45;&gt;Croaker</title>
<path fill="none" stroke="black" d="M120.815,-124.988C124.575,-137.174 129.638,-153.582 133.919,-167.457"/>
<polygon fill="black" stroke="black" points="130.576,-168.494 136.869,-177.017 137.265,-166.43 130.576,-168.494"/>
</g>
<!-- Vlad -->
<g id="node30" class="node"><title>Vlad</title>
<ellipse fill="none" stroke="black" cx="25.2253" cy="-96.4676" rx="27.8951" ry="18"/>
<text text-anchor="middle" x="25.2253" y="-92.7676" font-family="Times,serif" font-size="14.00">Vlad</text>
</g>
<!-- uC&#45;&gt;Vlad -->
<g id="edge28" class="edge"><title>uC&#45;&gt;Vlad</title>
<path fill="none" stroke="black" d="M88.2944,-103.985C80.3342,-103.036 71.4756,-101.98 62.9734,-100.967"/>
<polygon fill="black" stroke="black" points="63.2078,-97.4701 52.8638,-99.7619 62.3793,-104.421 63.2078,-97.4701"/>
</g>
<!-- Feather Wiced -->
<g id="node36" class="node"><title>Feather Wiced</title>
<ellipse fill="none" stroke="black" cx="83.942" cy="-170.147" rx="63.0888" ry="18"/>
<text text-anchor="middle" x="83.942" y="-166.447" font-family="Times,serif" font-size="14.00">Feather Wiced</text>
</g>
<!-- uC&#45;&gt;Feather Wiced -->
<g id="edge35" class="edge"><title>uC&#45;&gt;Feather Wiced</title>
<path fill="none" stroke="black" d="M106.752,-124.406C103.874,-130.177 100.591,-136.761 97.4296,-143.1"/>
<polygon fill="black" stroke="black" points="94.277,-141.579 92.9465,-152.09 100.541,-144.703 94.277,-141.579"/>
</g>
<!-- Wifi -->
<g id="node37" class="node"><title>Wifi</title>
<ellipse fill="none" stroke="black" cx="191.458" cy="-66.3079" rx="27.0966" ry="18"/>
<text text-anchor="middle" x="191.458" y="-62.6079" font-family="Times,serif" font-size="14.00">Wifi</text>
</g>
<!-- uC&#45;&gt;Wifi -->
<g id="edge36" class="edge"><title>uC&#45;&gt;Wifi</title>
<path fill="none" stroke="black" d="M136.535,-95.8143C144.143,-91.7271 152.876,-87.035 161.108,-82.6128"/>
<polygon fill="black" stroke="black" points="162.948,-85.5972 170.101,-77.7814 159.636,-79.4307 162.948,-85.5972"/>
</g>
<!-- EspruinoPico -->
<g id="node38" class="node"><title>EspruinoPico</title>
<ellipse fill="none" stroke="black" cx="83.3556" cy="-31.7862" rx="57.6901" ry="18"/>
<text text-anchor="middle" x="83.3556" y="-28.0862" font-family="Times,serif" font-size="14.00">EspruinoPico</text>
</g>
<!-- uC&#45;&gt;EspruinoPico -->
<g id="edge37" class="edge"><title>uC&#45;&gt;EspruinoPico</title>
<path fill="none" stroke="black" d="M107.913,-89.7144C104.054,-80.6128 99.2502,-69.2803 94.917,-59.0586"/>
<polygon fill="black" stroke="black" points="98.0784,-57.5485 90.9529,-49.7077 91.6336,-60.2806 98.0784,-57.5485"/>
</g>
<!-- MacroFab -->
<g id="node57" class="node"><title>MacroFab</title>
<ellipse fill="none" stroke="black" cx="-39.1089" cy="-38.7092" rx="47.3916" ry="18"/>
<text text-anchor="middle" x="-39.1089" y="-35.0092" font-family="Times,serif" font-size="14.00">MacroFab</text>
</g>
<!-- Vlad&#45;&gt;MacroFab -->
<g id="edge58" class="edge"><title>Vlad&#45;&gt;MacroFab</title>
<path fill="none" stroke="black" d="M8.65766,-81.5934C2.09586,-75.7023 -5.60863,-68.7853 -12.8915,-62.2468"/>
<polygon fill="black" stroke="black" points="-10.7754,-59.4431 -20.5548,-55.3669 -15.4518,-64.6519 -10.7754,-59.4431"/>
</g>
<!-- Mogaba -->
<g id="node32" class="node"><title>Mogaba</title>
<ellipse fill="none" stroke="black" cx="-308.222" cy="52.4657" rx="40.0939" ry="18"/>
<text text-anchor="middle" x="-308.222" y="56.1657" font-family="Times,serif" font-size="14.00">Mogaba</text>
</g>
<!-- Alim&#45;&gt;Mogaba -->
<g id="edge30" class="edge"><title>Alim&#45;&gt;Mogaba</title>
<path fill="none" stroke="black" d="M-252.367,73.1508C-257.125,71.3888 -262.213,69.5045 -267.31,67.6171"/>
<polygon fill="black" stroke="black" points="-268.873,70.7705 -277.035,64.0154 -266.442,64.2061 -268.873,70.7705"/>
</g>
<!-- TCP -->
<g id="node51" class="node"><title>TCP</title>
<ellipse fill="none" stroke="black" cx="277.023" cy="-80.711" rx="27" ry="18"/>
<text text-anchor="middle" x="277.023" y="-77.011" font-family="Times,serif" font-size="14.00">TCP</text>
</g>
<!-- Wifi&#45;&gt;TCP -->
<g id="edge51" class="edge"><title>Wifi&#45;&gt;TCP</title>
<path fill="none" stroke="black" d="M218.062,-70.7862C225.213,-71.9898 233.07,-73.3124 240.652,-74.5887"/>
<polygon fill="black" stroke="black" points="240.287,-78.0764 250.729,-76.285 241.449,-71.1735 240.287,-78.0764"/>
</g>
<!-- EspruinoPico&#45;&gt;BiVi -->
<g id="edge38" class="edge"><title>EspruinoPico&#45;&gt;BiVi</title>
<path fill="none" stroke="black" d="M76.6587,-13.804C71.799,-0.755013 65.1381,17.1305 59.6242,31.9359"/>
<polygon fill="black" stroke="black" points="62.7965,33.4468 56.0264,41.5965 56.2366,31.0038 62.7965,33.4468"/>
</g>
<!-- Virginie -->
<g id="node40" class="node"><title>Virginie</title>
<ellipse fill="none" stroke="black" cx="632.561" cy="-616.098" rx="40.0939" ry="18"/>
<text text-anchor="middle" x="632.561" y="-612.398" font-family="Times,serif" font-size="14.00">Virginie</text>
</g>
<!-- Phantoms&#45;&gt;Virginie -->
<g id="edge40" class="edge"><title>Phantoms&#45;&gt;Virginie</title>
<path fill="none" stroke="black" d="M594.831,-616.362C594.907,-616.362 594.983,-616.361 595.059,-616.361"/>
<polygon fill="black" stroke="black" points="585.314,-619.933 595.288,-616.359 585.262,-612.934 585.314,-619.933"/>
</g>
<!-- Static -->
<g id="node41" class="node"><title>Static</title>
<ellipse fill="none" stroke="black" cx="605.033" cy="-672.303" rx="30.5947" ry="18"/>
<text text-anchor="middle" x="605.033" y="-668.603" font-family="Times,serif" font-size="14.00">Static</text>
</g>
<!-- Phantoms&#45;&gt;Static -->
<g id="edge41" class="edge"><title>Phantoms&#45;&gt;Static</title>
<path fill="none" stroke="black" d="M565.574,-633.677C570.689,-638.684 576.371,-644.246 581.793,-649.553"/>
<polygon fill="black" stroke="black" points="579.353,-652.062 588.947,-656.556 584.249,-647.06 579.353,-652.062"/>
</g>
<!-- Materials -->
<g id="node42" class="node"><title>Materials</title>
<ellipse fill="none" stroke="black" cx="521.704" cy="-696.864" rx="44.393" ry="18"/>
<text text-anchor="middle" x="521.704" y="-693.164" font-family="Times,serif" font-size="14.00">Materials</text>
</g>
<!-- Phantoms&#45;&gt;Materials -->
<g id="edge42" class="edge"><title>Phantoms&#45;&gt;Materials</title>
<path fill="none" stroke="black" d="M542.203,-634.882C538.823,-645.102 534.538,-658.06 530.76,-669.483"/>
<polygon fill="black" stroke="black" points="527.423,-668.426 527.606,-679.019 534.069,-670.624 527.423,-668.426"/>
</g>
<!-- RP&#45;6400 -->
<g id="node43" class="node"><title>RP&#45;6400</title>
<ellipse fill="none" stroke="black" cx="528.349" cy="-775.746" rx="42.4939" ry="18"/>
<text text-anchor="middle" x="528.349" y="-772.046" font-family="Times,serif" font-size="14.00">RP&#45;6400</text>
</g>
<!-- RP&#45;6400&#45;&gt;Materials -->
<g id="edge43" class="edge"><title>RP&#45;6400&#45;&gt;Materials</title>
<path fill="none" stroke="black" d="M526.808,-757.451C526.003,-747.893 525,-735.983 524.096,-725.259"/>
<polygon fill="black" stroke="black" points="527.564,-724.731 523.237,-715.06 520.589,-725.319 527.564,-724.731"/>
</g>
<!-- Documentation -->
<g id="node46" class="node"><title>Documentation</title>
<ellipse fill="none" stroke="black" cx="195.79" cy="216.5" rx="65.7887" ry="18"/>
<text text-anchor="middle" x="195.79" y="220.2" font-family="Times,serif" font-size="14.00">Documentation</text>
</g>
<!-- DocBuilder -->
<g id="node47" class="node"><title>DocBuilder</title>
<ellipse fill="none" stroke="black" cx="126.246" cy="143.58" rx="51.9908" ry="18"/>
<text text-anchor="middle" x="126.246" y="147.28" font-family="Times,serif" font-size="14.00">DocBuilder</text>
</g>
<!-- Documentation&#45;&gt;DocBuilder -->
<g id="edge46" class="edge"><title>Documentation&#45;&gt;DocBuilder</title>
<path fill="none" stroke="black" d="M178.955,198.848C170.242,189.712 159.46,178.406 149.922,168.405"/>
<polygon fill="black" stroke="black" points="147.294,170.721 142.926,161.069 152.36,165.89 147.294,170.721"/>
</g>
<!-- GitAliases -->
<g id="node48" class="node"><title>GitAliases</title>
<ellipse fill="none" stroke="black" cx="279.807" cy="219.444" rx="48.1917" ry="18"/>
<text text-anchor="middle" x="279.807" y="223.144" font-family="Times,serif" font-size="14.00">GitAliases</text>
</g>
<!-- Documentation&#45;&gt;GitAliases -->
<g id="edge48" class="edge"><title>Documentation&#45;&gt;GitAliases</title>
<path fill="none" stroke="black" d="M261.161,218.791C261.203,218.792 261.246,218.794 261.288,218.795"/>
<polygon fill="black" stroke="black" points="251.546,214.944 261.414,218.8 251.295,221.94 251.546,214.944"/>
</g>
<!-- CreateSchemaBlock -->
<g id="node49" class="node"><title>CreateSchemaBlock</title>
<ellipse fill="none" stroke="black" cx="231.697" cy="298.714" rx="83.3857" ry="18"/>
<text text-anchor="middle" x="231.697" y="302.414" font-family="Times,serif" font-size="14.00">CreateSchemaBlock</text>
</g>
<!-- Documentation&#45;&gt;CreateSchemaBlock -->
<g id="edge49" class="edge"><title>Documentation&#45;&gt;CreateSchemaBlock</title>
<path fill="none" stroke="black" d="M203.758,234.746C208.454,245.496 214.485,259.305 219.741,271.34"/>
<polygon fill="black" stroke="black" points="222.955,269.954 223.75,280.519 216.54,272.755 222.955,269.954"/>
</g>
<!-- DocBuilder&#45;&gt;BiVi -->
<g id="edge47" class="edge"><title>DocBuilder&#45;&gt;BiVi</title>
<path fill="none" stroke="black" d="M110.336,126.103C98.8786,113.518 83.2972,96.402 70.7662,82.6372"/>
<polygon fill="black" stroke="black" points="67.9387,84.7304 63.795,74.9795 73.115,80.0181 67.9387,84.7304"/>
</g>
<!-- GraphViz -->
<g id="node50" class="node"><title>GraphViz</title>
<ellipse fill="none" stroke="black" cx="283.656" cy="361.954" rx="45.4919" ry="18"/>
<text text-anchor="middle" x="283.656" y="365.654" font-family="Times,serif" font-size="14.00">GraphViz</text>
</g>
<!-- CreateSchemaBlock&#45;&gt;GraphViz -->
<g id="edge50" class="edge"><title>CreateSchemaBlock&#45;&gt;GraphViz</title>
<path fill="none" stroke="black" d="M246.447,316.667C251.51,322.829 257.278,329.849 262.736,336.491"/>
<polygon fill="black" stroke="black" points="265.763,334.662 269.407,344.611 260.354,339.106 265.763,334.662"/>
</g>
<!-- format -->
<g id="node52" class="node"><title>format</title>
<ellipse fill="none" stroke="black" cx="358.134" cy="-90.9393" rx="34.394" ry="18"/>
<text text-anchor="middle" x="358.134" y="-87.2393" font-family="Times,serif" font-size="14.00">format</text>
</g>
<!-- TCP&#45;&gt;format -->
<g id="edge52" class="edge"><title>TCP&#45;&gt;format</title>
<path fill="none" stroke="black" d="M303.582,-84.0601C307.012,-84.4927 310.595,-84.9445 314.214,-85.4009"/>
<polygon fill="black" stroke="black" points="314.052,-88.908 324.411,-86.6868 314.927,-81.963 314.052,-88.908"/>
</g>
<!-- R&#45;2R -->
<g id="node58" class="node"><title>R&#45;2R</title>
<ellipse fill="none" stroke="black" cx="-281.602" cy="-11.398" rx="29.795" ry="18"/>
<text text-anchor="middle" x="-281.602" y="-7.69797" font-family="Times,serif" font-size="14.00">R&#45;2R</text>
</g>
<!-- DDS&#45;&gt;R&#45;2R -->
<g id="edge59" class="edge"><title>DDS&#45;&gt;R&#45;2R</title>
<path fill="none" stroke="black" d="M-226.231,14.0563C-233.226,10.8403 -241.049,7.24417 -248.561,3.79109"/>
<polygon fill="black" stroke="black" points="-250.199,6.89006 -257.823,-0.466893 -247.275,0.529894 -250.199,6.89006"/>
</g>
<!-- Arduino -->
<g id="node59" class="node"><title>Arduino</title>
<ellipse fill="none" stroke="black" cx="-238.213" cy="-53.452" rx="40.0939" ry="18"/>
<text text-anchor="middle" x="-238.213" y="-49.752" font-family="Times,serif" font-size="14.00">Arduino</text>
</g>
<!-- DDS&#45;&gt;Arduino -->
<g id="edge60" class="edge"><title>DDS&#45;&gt;Arduino</title>
<path fill="none" stroke="black" d="M-210.895,7.3463C-215.332,-2.52996 -220.99,-15.1223 -226.005,-26.2825"/>
<polygon fill="black" stroke="black" points="-229.293,-25.0609 -230.199,-35.6169 -222.908,-27.9299 -229.293,-25.0609"/>
</g>
<!-- AG -->
<g id="node54" class="node"><title>AG</title>
<ellipse fill="none" stroke="black" cx="254.965" cy="-525.628" rx="27" ry="18"/>
<text text-anchor="middle" x="254.965" y="-521.928" font-family="Times,serif" font-size="14.00">AG</text>
</g>
<!-- Strat -->
<g id="node55" class="node"><title>Strat</title>
<ellipse fill="none" stroke="black" cx="333.014" cy="-527.756" rx="27.0966" ry="18"/>
<text text-anchor="middle" x="333.014" y="-524.056" font-family="Times,serif" font-size="14.00">Strat</text>
</g>
<!-- AG&#45;&gt;Strat -->
<g id="edge54" class="edge"><title>AG&#45;&gt;Strat</title>
<path fill="none" stroke="black" d="M282.263,-526.372C286.516,-526.488 290.974,-526.61 295.407,-526.731"/>
<polygon fill="black" stroke="black" points="295.508,-530.235 305.6,-527.009 295.699,-523.237 295.508,-530.235"/>
</g>
<!-- Strat&#45;&gt;AutoFinancement -->
<g id="edge55" class="edge"><title>Strat&#45;&gt;AutoFinancement</title>
<path fill="none" stroke="black" d="M358.244,-535.008C358.375,-535.046 358.506,-535.084 358.638,-535.122"/>
<polygon fill="black" stroke="black" points="354.123,-537.465 364.7,-536.864 356.056,-530.738 354.123,-537.465"/>
</g>
<!-- Fab&#45;&gt;MacroFab -->
<g id="edge57" class="edge"><title>Fab&#45;&gt;MacroFab</title>
<path fill="none" stroke="black" d="M-64.67,39.7685C-60.0512,25.588 -53.4765,5.40214 -48.1518,-10.9458"/>
<polygon fill="black" stroke="black" points="-51.4515,-12.1164 -45.0266,-20.5408 -44.7957,-9.94852 -51.4515,-12.1164"/>
</g>
<!-- Acquisition -->
<g id="node60" class="node"><title>Acquisition</title>
<ellipse fill="none" stroke="black" cx="175.815" cy="16.9679" rx="51.9908" ry="18"/>
<text text-anchor="middle" x="175.815" y="20.6679" font-family="Times,serif" font-size="14.00">Acquisition</text>
</g>
<!-- Acquisition&#45;&gt;Wifi -->
<g id="edge66" class="edge"><title>Acquisition&#45;&gt;Wifi</title>
<path fill="none" stroke="black" d="M179.209,-1.10175C181.239,-11.9052 183.861,-25.865 186.158,-38.0946"/>
<polygon fill="black" stroke="black" points="182.784,-39.0917 188.07,-48.2736 189.664,-37.7993 182.784,-39.0917"/>
</g>
<!-- PRU -->
<g id="node61" class="node"><title>PRU</title>
<ellipse fill="none" stroke="black" cx="110.103" cy="82.435" rx="27.8951" ry="18"/>
<text text-anchor="middle" x="110.103" y="86.135" font-family="Times,serif" font-size="14.00">PRU</text>
</g>
<!-- Acquisition&#45;&gt;PRU -->
<g id="edge61" class="edge"><title>Acquisition&#45;&gt;PRU</title>
<path fill="none" stroke="black" d="M158.55,34.1686C150.668,42.0213 141.227,51.4266 132.782,59.8404"/>
<polygon fill="black" stroke="black" points="135.235,62.3367 125.681,66.915 130.295,57.3777 135.235,62.3367"/>
</g>
<!-- RedPitaya -->
<g id="node66" class="node"><title>RedPitaya</title>
<ellipse fill="none" stroke="black" cx="257.869" cy="41.4995" rx="46.5926" ry="18"/>
<text text-anchor="middle" x="257.869" y="45.1995" font-family="Times,serif" font-size="14.00">RedPitaya</text>
</g>
<!-- Acquisition&#45;&gt;RedPitaya -->
<g id="edge67" class="edge"><title>Acquisition&#45;&gt;RedPitaya</title>
<path fill="none" stroke="black" d="M215.4,28.8025C215.512,28.8362 215.625,28.8699 215.738,28.9036"/>
<polygon fill="black" stroke="black" points="212.228,24.2011 220.807,30.419 210.223,30.9078 212.228,24.2011"/>
</g>
<!-- Vanderbilt -->
<g id="node62" class="node"><title>Vanderbilt</title>
<ellipse fill="none" stroke="black" cx="22.2393" cy="110.579" rx="48.1917" ry="18"/>
<text text-anchor="middle" x="22.2393" y="114.279" font-family="Times,serif" font-size="14.00">Vanderbilt</text>
</g>
<!-- PRU&#45;&gt;Vanderbilt -->
<g id="edge62" class="edge"><title>PRU&#45;&gt;Vanderbilt</title>
<path fill="none" stroke="black" d="M84.6889,90.5753C79.684,92.1785 74.2866,93.9073 68.8343,95.6537"/>
<polygon fill="black" stroke="black" points="69.6249,99.0756 59.0339,98.7929 67.4896,92.4092 69.6249,99.0756"/>
</g>
<!-- Up to 10Msps+ -->
<g id="node65" class="node"><title>Up to 10Msps+</title>
<ellipse fill="none" stroke="black" cx="176.368" cy="139.382" rx="66.8882" ry="18"/>
<text text-anchor="middle" x="176.368" y="143.082" font-family="Times,serif" font-size="14.00">Up to 10Msps+</text>
</g>
<!-- PRU&#45;&gt;Up to 10Msps+ -->
<g id="edge65" class="edge"><title>PRU&#45;&gt;Up to 10Msps+</title>
<path fill="none" stroke="black" d="M127.168,97.1002C133.701,102.715 141.334,109.275 148.612,115.529"/>
<polygon fill="black" stroke="black" points="150.998,112.964 156.301,122.136 146.435,118.273 150.998,112.964"/>
</g>
<!-- EdgeFlex -->
<g id="node63" class="node"><title>EdgeFlex</title>
<ellipse fill="none" stroke="black" cx="-0.301806" cy="143.3" rx="44.393" ry="18"/>
<text text-anchor="middle" x="-0.301806" y="147" font-family="Times,serif" font-size="14.00">EdgeFlex</text>
</g>
<!-- Vanderbilt&#45;&gt;EdgeFlex -->
<g id="edge63" class="edge"><title>Vanderbilt&#45;&gt;EdgeFlex</title>
<path fill="none" stroke="black" d="M10.1769,128.089C10.135,128.15 10.0931,128.211 10.0513,128.271"/>
<polygon fill="black" stroke="black" points="18.4833,122.204 9.92583,128.453 12.7182,118.231 18.4833,122.204"/>
</g>
<!-- EdgeFlex&#45;&gt;Fab -->
<g id="edge78" class="edge"><title>EdgeFlex&#45;&gt;Fab</title>
<path fill="none" stroke="black" d="M-14.4895,125.916C-24.9921,113.048 -39.4237,95.3645 -50.9955,81.1857"/>
<polygon fill="black" stroke="black" points="-53.8157,83.2656 -57.427,73.3052 -48.3925,78.8396 -53.8157,83.2656"/>
</g>
<!-- FlyLabs -->
<g id="node64" class="node"><title>FlyLabs</title>
<ellipse fill="none" stroke="black" cx="47.5643" cy="227.801" rx="39.7935" ry="18"/>
<text text-anchor="middle" x="47.5643" y="231.501" font-family="Times,serif" font-size="14.00">FlyLabs</text>
</g>
<!-- FlyLabs&#45;&gt;EdgeFlex -->
<g id="edge64" class="edge"><title>FlyLabs&#45;&gt;EdgeFlex</title>
<path fill="none" stroke="black" d="M37.6464,210.292C31.08,198.7 22.3402,183.272 14.9033,170.143"/>
<polygon fill="black" stroke="black" points="11.6515,171.503 9.76805,161.077 17.7422,168.053 11.6515,171.503"/>
</g>
<!-- Pedagogie&#45;&gt;Vanderbilt -->
<g id="edge77" class="edge"><title>Pedagogie&#45;&gt;Vanderbilt</title>
<path fill="none" stroke="black" d="M-32.4093,129.307C-29.2598,128.227 -26.0438,127.125 -22.8271,126.023"/>
<polygon fill="black" stroke="black" points="-23.8356,122.669 -13.241,122.738 -21.5662,129.291 -23.8356,122.669"/>
</g>
<!-- Aforp -->
<g id="node68" class="node"><title>Aforp</title>
<ellipse fill="none" stroke="black" cx="-70.4822" cy="252.451" rx="31.6951" ry="18"/>
<text text-anchor="middle" x="-70.4822" y="256.151" font-family="Times,serif" font-size="14.00">Aforp</text>
</g>
<!-- Pedagogie&#45;&gt;Aforp -->
<g id="edge69" class="edge"><title>Pedagogie&#45;&gt;Aforp</title>
<path fill="none" stroke="black" d="M-68.156,159.737C-68.5936,177.179 -69.2585,203.68 -69.7656,223.889"/>
<polygon fill="black" stroke="black" points="-66.2716,224.177 -70.0214,234.086 -73.2694,224.001 -66.2716,224.177"/>
</g>
<!-- ESIA -->
<g id="node70" class="node"><title>ESIA</title>
<ellipse fill="none" stroke="black" cx="-37.8182" cy="213.048" rx="30.5947" ry="18"/>
<text text-anchor="middle" x="-37.8182" y="216.748" font-family="Times,serif" font-size="14.00">ESIA</text>
</g>
<!-- Pedagogie&#45;&gt;ESIA -->
<g id="edge71" class="edge"><title>Pedagogie&#45;&gt;ESIA</title>
<path fill="none" stroke="black" d="M-60.1565,159.479C-56.8407,167.431 -52.8741,176.943 -49.2097,185.731"/>
<polygon fill="black" stroke="black" points="-45.8702,184.646 -45.2517,195.222 -52.331,187.34 -45.8702,184.646"/>
</g>
<!-- Isep -->
<g id="node71" class="node"><title>Isep</title>
<ellipse fill="none" stroke="black" cx="-84.5544" cy="30.4106" rx="27" ry="18"/>
<text text-anchor="middle" x="-84.5544" y="34.1106" font-family="Times,serif" font-size="14.00">Isep</text>
</g>
<!-- Pedagogie&#45;&gt;Isep -->
<g id="edge72" class="edge"><title>Pedagogie&#45;&gt;Isep</title>
<path fill="none" stroke="black" d="M-70.4798,123.072C-73.1556,105.455 -77.2362,78.5901 -80.3159,58.3151"/>
<polygon fill="black" stroke="black" points="-83.7809,58.8094 -81.8223,48.3971 -76.8602,57.7581 -83.7809,58.8094"/>
</g>
<!-- MichelB -->
<g id="node73" class="node"><title>MichelB</title>
<ellipse fill="none" stroke="black" cx="-107.342" cy="153.639" rx="42.4939" ry="18"/>
<text text-anchor="middle" x="-107.342" y="157.339" font-family="Times,serif" font-size="14.00">MichelB</text>
</g>
<!-- Pedagogie&#45;&gt;MichelB -->
<g id="edge74" class="edge"><title>Pedagogie&#45;&gt;MichelB</title>
<path fill="none" stroke="black" d="M-104.741,152.836C-104.792,152.852 -104.842,152.868 -104.892,152.883"/>
<polygon fill="black" stroke="black" points="-94.4497,153.318 -105.039,152.928 -96.5179,146.629 -94.4497,153.318"/>
</g>
<!-- Tao -->
<g id="node69" class="node"><title>Tao</title>
<ellipse fill="none" stroke="black" cx="-97.6343" cy="336.451" rx="27" ry="18"/>
<text text-anchor="middle" x="-97.6343" y="340.151" font-family="Times,serif" font-size="14.00">Tao</text>
</g>
<!-- Aforp&#45;&gt;Tao -->
<g id="edge70" class="edge"><title>Aforp&#45;&gt;Tao</title>
<path fill="none" stroke="black" d="M-76.2405,270.265C-79.8763,281.513 -84.647,296.272 -88.7605,308.998"/>
<polygon fill="black" stroke="black" points="-85.4783,310.224 -91.8844,318.662 -92.1389,308.071 -85.4783,310.224"/>
</g>
<!-- Apprenti -->
<g id="node74" class="node"><title>Apprenti</title>
<ellipse fill="none" stroke="black" cx="-35.0859" cy="331.737" rx="42.4939" ry="18"/>
<text text-anchor="middle" x="-35.0859" y="335.437" font-family="Times,serif" font-size="14.00">Apprenti</text>
</g>
<!-- Aforp&#45;&gt;Apprenti -->
<g id="edge76" class="edge"><title>Aforp&#45;&gt;Apprenti</title>
<path fill="none" stroke="black" d="M-62.6266,270.047C-58.0758,280.241 -52.2519,293.286 -47.1328,304.752"/>
<polygon fill="black" stroke="black" points="-43.9226,303.358 -43.0419,313.916 -50.3145,306.211 -43.9226,303.358"/>
</g>
<!-- Frederic -->
<g id="node72" class="node"><title>Frederic</title>
<ellipse fill="none" stroke="black" cx="-131.983" cy="-67.6391" rx="40.0939" ry="18"/>
<text text-anchor="middle" x="-131.983" y="-63.9391" font-family="Times,serif" font-size="14.00">Frederic</text>
</g>
<!-- Isep&#45;&gt;Frederic -->
<g id="edge73" class="edge"><title>Isep&#45;&gt;Frederic</title>
<path fill="none" stroke="black" d="M-93.0337,12.8813C-100.206,-1.94555 -110.602,-23.4376 -118.85,-40.4887"/>
<polygon fill="black" stroke="black" points="-122.214,-39.4048 -123.418,-49.931 -115.912,-42.453 -122.214,-39.4048"/>
</g>
<!-- MichelB&#45;&gt;Modules -->
<g id="edge75" class="edge"><title>MichelB&#45;&gt;Modules</title>
<path fill="none" stroke="black" d="M-119.354,136.204C-120.205,134.969 -121.072,133.71 -121.945,132.442"/>
<polygon fill="black" stroke="black" points="-124.895,134.33 -127.686,124.11 -119.13,130.359 -124.895,134.33"/>
</g>
</g>
</svg>
