<?xml version="1.0" encoding="UTF-8" standalone="no"?>
<!DOCTYPE svg PUBLIC "-//W3C//DTD SVG 1.1//EN"
 "http://www.w3.org/Graphics/SVG/1.1/DTD/svg11.dtd">
<!-- Generated by graphviz version 2.38.0 (20140413.2041)
 -->
<!-- Title: %3 Pages: 1 -->
<svg width="1045pt" height="764pt"
 viewBox="0.00 0.00 1045.34 764.00" xmlns="http://www.w3.org/2000/svg" xmlns:xlink="http://www.w3.org/1999/xlink">
<g id="graph0" class="graph" transform="scale(1 1) rotate(0) translate(4 760)">
<title>%3</title>
<polygon fill="white" stroke="none" points="-4,4 -4,-760 1041.34,-760 1041.34,4 -4,4"/>
<!-- sleepy -->
<g id="node1" class="node"><title>sleepy</title>
<polygon fill="blue" stroke="black" points="73,-756 0,-756 0,-720 73,-720 73,-756"/>
<text text-anchor="middle" x="36.5" y="-732.4" font-family="Times,serif" font-size="22.00">sleepy</text>
</g>
<!-- tobo -->
<g id="node2" class="node"><title>tobo</title>
<polygon fill="blue" stroke="black" points="517.5,-396 461.5,-396 461.5,-360 517.5,-360 517.5,-396"/>
<text text-anchor="middle" x="489.5" y="-372.4" font-family="Times,serif" font-size="22.00">tobo</text>
</g>
<!-- ITF&#45;mET_Transducer -->
<g id="node13" class="node"><title>ITF&#45;mET_Transducer</title>
<ellipse fill="green" stroke="black" cx="344.5" cy="-306" rx="89.0842" ry="18"/>
<text text-anchor="middle" x="344.5" y="-302.3" font-family="Times,serif" font-size="14.00">ITF&#45;mET_Transducer</text>
</g>
<!-- tobo&#45;&gt;ITF&#45;mET_Transducer -->
<g id="edge9" class="edge"><title>tobo&#45;&gt;ITF&#45;mET_Transducer</title>
<path fill="none" stroke="black" d="M461.436,-365.908C438.534,-355.687 406.189,-340.256 381.257,-327.751"/>
<polygon fill="red" stroke="black" points="382.603,-324.509 372.1,-323.118 379.443,-330.755 382.603,-324.509"/>
</g>
<!-- ITF&#45;R_reserved -->
<g id="node14" class="node"><title>ITF&#45;R_reserved</title>
<ellipse fill="yellow" stroke="black" cx="674.5" cy="-306" rx="66.8882" ry="18"/>
<text text-anchor="middle" x="674.5" y="-302.3" font-family="Times,serif" font-size="14.00">ITF&#45;R_reserved</text>
</g>
<!-- tobo&#45;&gt;ITF&#45;R_reserved -->
<g id="edge7" class="edge"><title>tobo&#45;&gt;ITF&#45;R_reserved</title>
<path fill="none" stroke="black" d="M517.598,-366.369C546.794,-355.321 592.984,-337.844 627.702,-324.707"/>
<polygon fill="red" stroke="black" points="629.053,-327.939 637.167,-321.126 626.575,-321.392 629.053,-327.939"/>
</g>
<!-- ITF&#45;mET_SMA -->
<g id="node15" class="node"><title>ITF&#45;mET_SMA</title>
<ellipse fill="green" stroke="black" cx="520.5" cy="-306" rx="68.7879" ry="18"/>
<text text-anchor="middle" x="520.5" y="-302.3" font-family="Times,serif" font-size="14.00">ITF&#45;mET_SMA</text>
</g>
<!-- tobo&#45;&gt;ITF&#45;mET_SMA -->
<g id="edge8" class="edge"><title>tobo&#45;&gt;ITF&#45;mET_SMA</title>
<path fill="none" stroke="black" d="M497.163,-359.697C500.692,-351.728 504.956,-342.1 508.869,-333.264"/>
<polygon fill="red" stroke="black" points="512.076,-334.665 512.925,-324.104 505.676,-331.831 512.076,-334.665"/>
</g>
<!-- oneeye -->
<g id="node3" class="node"><title>oneeye</title>
<polygon fill="blue" stroke="black" points="483.5,-540 403.5,-540 403.5,-504 483.5,-504 483.5,-540"/>
<text text-anchor="middle" x="443.5" y="-516.4" font-family="Times,serif" font-size="22.00">oneeye</text>
</g>
<!-- ITF&#45;I_pulse_on -->
<g id="node10" class="node"><title>ITF&#45;I_pulse_on</title>
<ellipse fill="yellow" stroke="black" cx="443.5" cy="-450" rx="65.7887" ry="18"/>
<text text-anchor="middle" x="443.5" y="-446.3" font-family="Times,serif" font-size="14.00">ITF&#45;I_pulse_on</text>
</g>
<!-- oneeye&#45;&gt;ITF&#45;I_pulse_on -->
<g id="edge14" class="edge"><title>oneeye&#45;&gt;ITF&#45;I_pulse_on</title>
<path fill="none" stroke="black" d="M443.5,-503.697C443.5,-495.983 443.5,-486.712 443.5,-478.112"/>
<polygon fill="red" stroke="black" points="447,-478.104 443.5,-468.104 440,-478.104 447,-478.104"/>
</g>
<!-- ITF&#45;J_pulse_off -->
<g id="node11" class="node"><title>ITF&#45;J_pulse_off</title>
<ellipse fill="yellow" stroke="black" cx="594.5" cy="-450" rx="67.6881" ry="18"/>
<text text-anchor="middle" x="594.5" y="-446.3" font-family="Times,serif" font-size="14.00">ITF&#45;J_pulse_off</text>
</g>
<!-- oneeye&#45;&gt;ITF&#45;J_pulse_off -->
<g id="edge15" class="edge"><title>oneeye&#45;&gt;ITF&#45;J_pulse_off</title>
<path fill="none" stroke="black" d="M480.439,-503.876C502.463,-493.666 530.471,-480.682 553.221,-470.136"/>
<polygon fill="red" stroke="black" points="554.695,-473.31 562.296,-465.929 551.751,-466.96 554.695,-473.31"/>
</g>
<!-- ITF&#45;G_gain_control -->
<g id="node16" class="node"><title>ITF&#45;G_gain_control</title>
<ellipse fill="yellow" stroke="black" cx="693.5" cy="-378" rx="81.7856" ry="18"/>
<text text-anchor="middle" x="693.5" y="-374.3" font-family="Times,serif" font-size="14.00">ITF&#45;G_gain_control</text>
</g>
<!-- oneeye&#45;&gt;ITF&#45;G_gain_control -->
<g id="edge13" class="edge"><title>oneeye&#45;&gt;ITF&#45;G_gain_control</title>
<path fill="none" stroke="black" d="M483.518,-516.726C541.61,-509.713 645.241,-493.896 671.5,-468 687.66,-452.064 692.643,-426.268 693.887,-406.54"/>
<polygon fill="red" stroke="black" points="697.393,-406.421 694.24,-396.306 690.397,-406.179 697.393,-406.421"/>
</g>
<!-- ITF&#45;N_cc_motor_pwm -->
<g id="node17" class="node"><title>ITF&#45;N_cc_motor_pwm</title>
<ellipse fill="yellow" stroke="black" cx="349.5" cy="-378" rx="93.6835" ry="18"/>
<text text-anchor="middle" x="349.5" y="-374.3" font-family="Times,serif" font-size="14.00">ITF&#45;N_cc_motor_pwm</text>
</g>
<!-- oneeye&#45;&gt;ITF&#45;N_cc_motor_pwm -->
<g id="edge16" class="edge"><title>oneeye&#45;&gt;ITF&#45;N_cc_motor_pwm</title>
<path fill="none" stroke="black" d="M408.723,-503.943C394.193,-495.13 378.418,-483.041 368.5,-468 356.431,-449.697 351.863,-425.086 350.211,-406.384"/>
<polygon fill="red" stroke="black" points="353.687,-405.897 349.54,-396.147 346.702,-406.355 353.687,-405.897"/>
</g>
<!-- croaker -->
<g id="node4" class="node"><title>croaker</title>
<polygon fill="blue" stroke="black" points="422,-108 339,-108 339,-72 422,-72 422,-108"/>
<text text-anchor="middle" x="380.5" y="-84.4" font-family="Times,serif" font-size="22.00">croaker</text>
</g>
<!-- Screen -->
<g id="node19" class="node"><title>Screen</title>
<ellipse fill="yellow" stroke="black" cx="339.5" cy="-18" rx="34.394" ry="18"/>
<text text-anchor="middle" x="339.5" y="-14.3" font-family="Times,serif" font-size="14.00">Screen</text>
</g>
<!-- croaker&#45;&gt;Screen -->
<g id="edge20" class="edge"><title>croaker&#45;&gt;Screen</title>
<path fill="none" stroke="black" d="M370.365,-71.6966C365.528,-63.4374 359.645,-53.394 354.318,-44.2994"/>
<polygon fill="red" stroke="black" points="357.31,-42.4822 349.236,-35.6223 351.27,-46.0201 357.31,-42.4822"/>
</g>
<!-- WiFi -->
<g id="node20" class="node"><title>WiFi</title>
<ellipse fill="yellow" stroke="black" cx="421.5" cy="-18" rx="29.4969" ry="18"/>
<text text-anchor="middle" x="421.5" y="-14.3" font-family="Times,serif" font-size="14.00">WiFi</text>
</g>
<!-- croaker&#45;&gt;WiFi -->
<g id="edge21" class="edge"><title>croaker&#45;&gt;WiFi</title>
<path fill="none" stroke="black" d="M390.635,-71.6966C395.544,-63.316 401.528,-53.0983 406.916,-43.8988"/>
<polygon fill="red" stroke="black" points="410.01,-45.5423 412.044,-35.1446 403.97,-42.0045 410.01,-45.5423"/>
</g>
<!-- goblin -->
<g id="node5" class="node"><title>goblin</title>
<polygon fill="blue" stroke="black" points="717.5,-252 643.5,-252 643.5,-216 717.5,-216 717.5,-252"/>
<text text-anchor="middle" x="680.5" y="-228.4" font-family="Times,serif" font-size="22.00">goblin</text>
</g>
<!-- ITF&#45;mEG_SPI -->
<g id="node18" class="node"><title>ITF&#45;mEG_SPI</title>
<ellipse fill="green" stroke="black" cx="380.5" cy="-162" rx="63.0888" ry="18"/>
<text text-anchor="middle" x="380.5" y="-158.3" font-family="Times,serif" font-size="14.00">ITF&#45;mEG_SPI</text>
</g>
<!-- goblin&#45;&gt;ITF&#45;mEG_SPI -->
<g id="edge33" class="edge"><title>goblin&#45;&gt;ITF&#45;mEG_SPI</title>
<path fill="none" stroke="black" d="M643.369,-224.41C598.237,-213.96 519.764,-195.759 452.5,-180 447.547,-178.84 442.403,-177.631 437.245,-176.418"/>
<polygon fill="red" stroke="black" points="437.894,-172.975 427.358,-174.088 436.289,-179.788 437.894,-172.975"/>
</g>
<!-- ITF&#45;C_amplified_raw_signal -->
<g id="node21" class="node"><title>ITF&#45;C_amplified_raw_signal</title>
<ellipse fill="yellow" stroke="black" cx="686.5" cy="-162" rx="114.28" ry="18"/>
<text text-anchor="middle" x="686.5" y="-158.3" font-family="Times,serif" font-size="14.00">ITF&#45;C_amplified_raw_signal</text>
</g>
<!-- goblin&#45;&gt;ITF&#45;C_amplified_raw_signal -->
<g id="edge30" class="edge"><title>goblin&#45;&gt;ITF&#45;C_amplified_raw_signal</title>
<path fill="none" stroke="black" d="M676.067,-215.697C675.933,-207.983 676.501,-198.712 677.581,-190.112"/>
<polygon fill="red" stroke="black" points="681.059,-190.524 679.139,-180.104 674.142,-189.447 681.059,-190.524"/>
</g>
<!-- ITF&#45;E_signal_envelope -->
<g id="node22" class="node"><title>ITF&#45;E_signal_envelope</title>
<ellipse fill="yellow" stroke="black" cx="912.5" cy="-162" rx="93.6835" ry="18"/>
<text text-anchor="middle" x="912.5" y="-158.3" font-family="Times,serif" font-size="14.00">ITF&#45;E_signal_envelope</text>
</g>
<!-- goblin&#45;&gt;ITF&#45;E_signal_envelope -->
<g id="edge32" class="edge"><title>goblin&#45;&gt;ITF&#45;E_signal_envelope</title>
<path fill="none" stroke="black" d="M717.688,-220.161C753.53,-208.846 808.257,-192.282 850.634,-179.894"/>
<polygon fill="red" stroke="black" points="851.675,-183.237 860.297,-177.08 849.718,-176.516 851.675,-183.237"/>
</g>
<!-- ADL5511 -->
<g id="node23" class="node"><title>ADL5511</title>
<ellipse fill="yellow" stroke="black" cx="507.5" cy="-162" rx="46.2923" ry="18"/>
<text text-anchor="middle" x="507.5" y="-158.3" font-family="Times,serif" font-size="14.00">ADL5511</text>
</g>
<!-- goblin&#45;&gt;ADL5511 -->
<g id="edge31" class="edge"><title>goblin&#45;&gt;ADL5511</title>
<path fill="none" stroke="black" d="M643.387,-217.983C615.289,-206.614 576.736,-191.014 547.87,-179.335"/>
<polygon fill="red" stroke="black" points="549.064,-176.042 538.481,-175.536 546.438,-182.531 549.064,-176.042"/>
</g>
<!-- retro10PV -->
<g id="node6" class="node"><title>retro10PV</title>
<polygon fill="blue" stroke="black" points="206,-252 97,-252 97,-216 206,-216 206,-252"/>
<text text-anchor="middle" x="151.5" y="-228.4" font-family="Times,serif" font-size="22.00">retro10PV</text>
</g>
<!-- retro10PV&#45;&gt;ITF&#45;mET_Transducer -->
<g id="edge41" class="edge"><title>retro10PV&#45;&gt;ITF&#45;mET_Transducer</title>
<path fill="none" stroke="black" d="M204.502,-252.086C233.719,-262.294 269.605,-275.286 297.77,-285.841"/>
<polygon fill="red" stroke="black" points="296.795,-289.214 307.387,-289.465 299.263,-282.664 296.795,-289.214"/>
</g>
<!-- Motor -->
<g id="node25" class="node"><title>Motor</title>
<ellipse fill="yellow" stroke="black" cx="118.5" cy="-162" rx="33.2948" ry="18"/>
<text text-anchor="middle" x="118.5" y="-158.3" font-family="Times,serif" font-size="14.00">Motor</text>
</g>
<!-- retro10PV&#45;&gt;Motor -->
<g id="edge40" class="edge"><title>retro10PV&#45;&gt;Motor</title>
<path fill="none" stroke="black" d="M137.427,-215.697C132.897,-207.813 128.196,-198.304 124.443,-189.546"/>
<polygon fill="red" stroke="black" points="127.63,-188.091 120.668,-180.104 121.13,-190.689 127.63,-188.091"/>
</g>
<!-- Tri&#45;Piezo Head -->
<g id="node26" class="node"><title>Tri&#45;Piezo Head</title>
<ellipse fill="yellow" stroke="black" cx="234.5" cy="-162" rx="64.9885" ry="18"/>
<text text-anchor="middle" x="234.5" y="-158.3" font-family="Times,serif" font-size="14.00">Tri&#45;Piezo Head</text>
</g>
<!-- retro10PV&#45;&gt;Tri&#45;Piezo Head -->
<g id="edge42" class="edge"><title>retro10PV&#45;&gt;Tri&#45;Piezo Head</title>
<path fill="none" stroke="black" d="M166.101,-215.697C176.096,-206.464 189.55,-195.001 201.937,-185.127"/>
<polygon fill="red" stroke="black" points="204.162,-187.83 209.875,-178.907 199.845,-182.32 204.162,-187.83"/>
</g>
<!-- mogaba -->
<g id="node7" class="node"><title>mogaba</title>
<polygon fill="blue" stroke="black" points="233,-684 146,-684 146,-648 233,-648 233,-684"/>
<text text-anchor="middle" x="189.5" y="-660.4" font-family="Times,serif" font-size="22.00">mogaba</text>
</g>
<!-- ITF&#45;A_gnd -->
<g id="node8" class="node"><title>ITF&#45;A_gnd</title>
<ellipse fill="yellow" stroke="black" cx="189.5" cy="-594" rx="50.8918" ry="18"/>
<text text-anchor="middle" x="189.5" y="-590.3" font-family="Times,serif" font-size="14.00">ITF&#45;A_gnd</text>
</g>
<!-- mogaba&#45;&gt;ITF&#45;A_gnd -->
<g id="edge45" class="edge"><title>mogaba&#45;&gt;ITF&#45;A_gnd</title>
<path fill="none" stroke="black" d="M189.5,-647.697C189.5,-639.983 189.5,-630.712 189.5,-622.112"/>
<polygon fill="red" stroke="black" points="193,-622.104 189.5,-612.104 186,-622.104 193,-622.104"/>
</g>
<!-- ITF&#45;B_5v -->
<g id="node9" class="node"><title>ITF&#45;B_5v</title>
<ellipse fill="yellow" stroke="black" cx="728.5" cy="-594" rx="46.2923" ry="18"/>
<text text-anchor="middle" x="728.5" y="-590.3" font-family="Times,serif" font-size="14.00">ITF&#45;B_5v</text>
</g>
<!-- mogaba&#45;&gt;ITF&#45;B_5v -->
<g id="edge46" class="edge"><title>mogaba&#45;&gt;ITF&#45;B_5v</title>
<path fill="none" stroke="black" d="M233.152,-659.331C331.14,-646.605 568.329,-615.801 674.982,-601.95"/>
<polygon fill="red" stroke="black" points="675.727,-605.383 685.193,-600.624 674.825,-598.441 675.727,-605.383"/>
</g>
<!-- ITF&#45;S_3_3v -->
<g id="node12" class="node"><title>ITF&#45;S_3_3v</title>
<ellipse fill="yellow" stroke="black" cx="312.5" cy="-594" rx="53.8905" ry="18"/>
<text text-anchor="middle" x="312.5" y="-590.3" font-family="Times,serif" font-size="14.00">ITF&#45;S_3_3v</text>
</g>
<!-- mogaba&#45;&gt;ITF&#45;S_3_3v -->
<g id="edge48" class="edge"><title>mogaba&#45;&gt;ITF&#45;S_3_3v</title>
<path fill="none" stroke="black" d="M219.589,-647.876C237.112,-637.904 259.284,-625.285 277.575,-614.876"/>
<polygon fill="red" stroke="black" points="279.511,-617.801 286.471,-609.813 276.049,-611.717 279.511,-617.801"/>
</g>
<!-- ITF&#45;F_12V -->
<g id="node24" class="node"><title>ITF&#45;F_12V</title>
<ellipse fill="yellow" stroke="black" cx="69.5" cy="-594" rx="51.1914" ry="18"/>
<text text-anchor="middle" x="69.5" y="-590.3" font-family="Times,serif" font-size="14.00">ITF&#45;F_12V</text>
</g>
<!-- mogaba&#45;&gt;ITF&#45;F_12V -->
<g id="edge47" class="edge"><title>mogaba&#45;&gt;ITF&#45;F_12V</title>
<path fill="none" stroke="black" d="M154.248,-647.876C136.73,-638.245 115.874,-626.147 99.1783,-615.953"/>
<polygon fill="red" stroke="black" points="100.725,-612.795 90.3783,-610.514 97.0445,-618.749 100.725,-612.795"/>
</g>
<!-- ITF&#45;A_gnd&#45;&gt;tobo -->
<g id="edge1" class="edge"><title>ITF&#45;A_gnd&#45;&gt;tobo</title>
<path fill="none" stroke="black" d="M200.616,-576.222C223.03,-543.667 276.888,-471.655 339.5,-432 381.507,-405.394 401.08,-413.892 451.872,-395.896"/>
<polygon fill="black" stroke="black" points="453.223,-399.128 461.371,-392.355 450.778,-392.569 453.223,-399.128"/>
</g>
<!-- ITF&#45;A_gnd&#45;&gt;oneeye -->
<g id="edge10" class="edge"><title>ITF&#45;A_gnd&#45;&gt;oneeye</title>
<path fill="none" stroke="black" d="M227.895,-582.064C235.071,-580.036 242.512,-577.945 249.5,-576 298.39,-562.396 354.302,-547.155 393.501,-536.521"/>
<polygon fill="black" stroke="black" points="394.606,-539.848 403.342,-533.853 392.775,-533.091 394.606,-539.848"/>
</g>
<!-- ITF&#45;A_gnd&#45;&gt;croaker -->
<g id="edge17" class="edge"><title>ITF&#45;A_gnd&#45;&gt;croaker</title>
<path fill="none" stroke="black" d="M161.506,-578.905C122.759,-557.176 57.5,-511.586 57.5,-451 57.5,-451 57.5,-451 57.5,-233 57.5,-192.553 47.3655,-172.056 76.5,-144 111.77,-110.036 251.665,-97.5531 328.791,-93.1912"/>
<polygon fill="black" stroke="black" points="328.988,-96.6858 338.785,-92.6516 328.611,-89.696 328.988,-96.6858"/>
</g>
<!-- ITF&#45;A_gnd&#45;&gt;goblin -->
<g id="edge22" class="edge"><title>ITF&#45;A_gnd&#45;&gt;goblin</title>
<path fill="none" stroke="black" d="M189.5,-575.951C189.5,-549.292 189.5,-496.115 189.5,-451 189.5,-451 189.5,-451 189.5,-377 189.5,-334.965 188.56,-314.113 221.5,-288 284.325,-238.196 528.872,-233.855 633.062,-234.344"/>
<polygon fill="black" stroke="black" points="633.265,-237.846 643.287,-234.41 633.31,-230.846 633.265,-237.846"/>
</g>
<!-- ITF&#45;A_gnd&#45;&gt;retro10PV -->
<g id="edge34" class="edge"><title>ITF&#45;A_gnd&#45;&gt;retro10PV</title>
<path fill="none" stroke="black" d="M173.753,-576.609C151.492,-551.639 113.5,-501.611 113.5,-451 113.5,-451 113.5,-451 113.5,-377 113.5,-335.633 128.735,-289.722 139.912,-261.605"/>
<polygon fill="black" stroke="black" points="143.256,-262.673 143.81,-252.093 136.779,-260.019 143.256,-262.673"/>
</g>
<!-- ITF&#45;B_5v&#45;&gt;tobo -->
<g id="edge2" class="edge"><title>ITF&#45;B_5v&#45;&gt;tobo</title>
<path fill="none" stroke="black" d="M727.425,-575.942C724.431,-543.221 713.208,-471.4 671.5,-432 650.717,-412.367 574.306,-394.97 527.353,-385.817"/>
<polygon fill="black" stroke="black" points="528.006,-382.379 517.526,-383.938 526.691,-389.254 528.006,-382.379"/>
</g>
<!-- ITF&#45;B_5v&#45;&gt;oneeye -->
<g id="edge11" class="edge"><title>ITF&#45;B_5v&#45;&gt;oneeye</title>
<path fill="none" stroke="black" d="M690.359,-583.632C639.563,-571.156 549.603,-549.06 493.445,-535.267"/>
<polygon fill="black" stroke="black" points="494.257,-531.863 483.711,-532.876 492.587,-538.661 494.257,-531.863"/>
</g>
<!-- ITF&#45;B_5v&#45;&gt;croaker -->
<g id="edge18" class="edge"><title>ITF&#45;B_5v&#45;&gt;croaker</title>
<path fill="none" stroke="black" d="M774.643,-591.988C860.126,-587.403 1034.5,-564.18 1034.5,-451 1034.5,-451 1034.5,-451 1034.5,-233 1034.5,-192.553 1045.86,-170.727 1015.5,-144 972.111,-105.801 576.257,-94.6476 432.425,-91.8403"/>
<polygon fill="black" stroke="black" points="432.174,-88.335 422.11,-91.645 432.042,-95.3338 432.174,-88.335"/>
</g>
<!-- ITF&#45;B_5v&#45;&gt;goblin -->
<g id="edge23" class="edge"><title>ITF&#45;B_5v&#45;&gt;goblin</title>
<path fill="none" stroke="black" d="M744.869,-576.726C768.008,-551.904 807.5,-502.062 807.5,-451 807.5,-451 807.5,-451 807.5,-377 807.5,-333.449 795.383,-320.595 766.5,-288 755.527,-275.617 740.963,-265.164 726.945,-256.899"/>
<polygon fill="black" stroke="black" points="728.287,-253.638 717.855,-251.785 724.855,-259.739 728.287,-253.638"/>
</g>
<!-- ITF&#45;I_pulse_on&#45;&gt;tobo -->
<g id="edge3" class="edge"><title>ITF&#45;I_pulse_on&#45;&gt;tobo</title>
<path fill="none" stroke="black" d="M454.635,-432.055C460.035,-423.837 466.637,-413.791 472.638,-404.66"/>
<polygon fill="black" stroke="black" points="475.581,-406.555 478.148,-396.275 469.731,-402.71 475.581,-406.555"/>
</g>
<!-- ITF&#45;J_pulse_off&#45;&gt;tobo -->
<g id="edge4" class="edge"><title>ITF&#45;J_pulse_off&#45;&gt;tobo</title>
<path fill="none" stroke="black" d="M570.674,-433.116C556.815,-423.877 539.111,-412.074 523.775,-401.85"/>
<polygon fill="black" stroke="black" points="525.328,-398.679 515.066,-396.044 521.445,-404.503 525.328,-398.679"/>
</g>
<!-- ITF&#45;S_3_3v&#45;&gt;tobo -->
<g id="edge5" class="edge"><title>ITF&#45;S_3_3v&#45;&gt;tobo</title>
<path fill="none" stroke="black" d="M313.985,-575.637C317.628,-543.344 329.756,-473.562 368.5,-432 394.249,-404.379 412.637,-411.244 451.959,-395.946"/>
<polygon fill="black" stroke="black" points="453.37,-399.149 461.252,-392.07 450.676,-392.689 453.37,-399.149"/>
</g>
<!-- ITF&#45;S_3_3v&#45;&gt;oneeye -->
<g id="edge12" class="edge"><title>ITF&#45;S_3_3v&#45;&gt;oneeye</title>
<path fill="none" stroke="black" d="M339.962,-578.326C358.049,-568.661 382.058,-555.831 402.403,-544.96"/>
<polygon fill="black" stroke="black" points="404.287,-547.922 411.458,-540.122 400.988,-541.748 404.287,-547.922"/>
</g>
<!-- ITF&#45;S_3_3v&#45;&gt;goblin -->
<g id="edge24" class="edge"><title>ITF&#45;S_3_3v&#45;&gt;goblin</title>
<path fill="none" stroke="black" d="M300.325,-576.333C265.143,-526.007 170.546,-373.794 246.5,-288 271.821,-259.398 525.661,-243.007 632.987,-237.308"/>
<polygon fill="black" stroke="black" points="633.404,-240.791 643.208,-236.774 633.039,-233.801 633.404,-240.791"/>
</g>
<!-- ITF&#45;mET_Transducer&#45;&gt;tobo -->
<g id="edge6" class="edge"><title>ITF&#45;mET_Transducer&#45;&gt;tobo</title>
<path fill="none" stroke="black" d="M381.995,-322.35C403.595,-332.206 430.564,-345.137 452.137,-355.946"/>
<polygon fill="black" stroke="black" points="450.821,-359.202 461.324,-360.588 453.978,-352.954 450.821,-359.202"/>
</g>
<!-- ITF&#45;mET_Transducer&#45;&gt;retro10PV -->
<g id="edge37" class="edge"><title>ITF&#45;mET_Transducer&#45;&gt;retro10PV</title>
<path fill="none" stroke="black" d="M298.918,-290.496C269.825,-280.414 232.162,-266.829 202.148,-255.624"/>
<polygon fill="black" stroke="black" points="203.284,-252.312 192.692,-252.077 200.825,-258.866 203.284,-252.312"/>
</g>
<!-- ITF&#45;R_reserved&#45;&gt;goblin -->
<g id="edge28" class="edge"><title>ITF&#45;R_reserved&#45;&gt;goblin</title>
<path fill="none" stroke="black" d="M675.983,-287.697C676.644,-279.983 677.439,-270.712 678.176,-262.112"/>
<polygon fill="black" stroke="black" points="681.667,-262.367 679.034,-252.104 674.693,-261.769 681.667,-262.367"/>
</g>
<!-- ITF&#45;mET_SMA&#45;&gt;goblin -->
<g id="edge29" class="edge"><title>ITF&#45;mET_SMA&#45;&gt;goblin</title>
<path fill="none" stroke="black" d="M554.432,-290.155C577.532,-280.048 608.407,-266.541 633.82,-255.423"/>
<polygon fill="black" stroke="black" points="635.506,-258.505 643.265,-251.29 632.7,-252.092 635.506,-258.505"/>
</g>
<!-- ITF&#45;G_gain_control&#45;&gt;goblin -->
<g id="edge25" class="edge"><title>ITF&#45;G_gain_control&#45;&gt;goblin</title>
<path fill="none" stroke="black" d="M718.887,-360.834C730.878,-351.65 743.97,-338.99 750.5,-324 756.891,-309.332 757.623,-302.327 750.5,-288 744.498,-275.927 734.286,-265.869 723.491,-257.876"/>
<polygon fill="black" stroke="black" points="725.406,-254.945 715.182,-252.166 721.442,-260.714 725.406,-254.945"/>
</g>
<!-- ITF&#45;N_cc_motor_pwm&#45;&gt;retro10PV -->
<g id="edge36" class="edge"><title>ITF&#45;N_cc_motor_pwm&#45;&gt;retro10PV</title>
<path fill="none" stroke="black" d="M313.298,-361.399C292.887,-351.874 267.375,-338.715 246.5,-324 219.55,-305.002 192.462,-278.751 174.147,-259.685"/>
<polygon fill="black" stroke="black" points="176.519,-257.1 167.099,-252.251 171.439,-261.916 176.519,-257.1"/>
</g>
<!-- ITF&#45;mEG_SPI&#45;&gt;croaker -->
<g id="edge19" class="edge"><title>ITF&#45;mEG_SPI&#45;&gt;croaker</title>
<path fill="none" stroke="black" d="M380.5,-143.697C380.5,-135.983 380.5,-126.712 380.5,-118.112"/>
<polygon fill="black" stroke="black" points="384,-118.104 380.5,-108.104 377,-118.104 384,-118.104"/>
</g>
<!-- ITF&#45;C_amplified_raw_signal&#45;&gt;goblin -->
<g id="edge26" class="edge"><title>ITF&#45;C_amplified_raw_signal&#45;&gt;goblin</title>
<path fill="none" stroke="black" d="M690.929,-180.104C691.076,-187.791 690.518,-197.054 689.447,-205.665"/>
<polygon fill="black" stroke="black" points="685.965,-205.28 687.899,-215.697 692.883,-206.347 685.965,-205.28"/>
</g>
<!-- ITF&#45;E_signal_envelope&#45;&gt;goblin -->
<g id="edge27" class="edge"><title>ITF&#45;E_signal_envelope&#45;&gt;goblin</title>
<path fill="none" stroke="black" d="M868.319,-178.038C827.954,-190.688 768.598,-208.563 727.402,-220.454"/>
<polygon fill="black" stroke="black" points="726.25,-217.143 717.604,-223.267 728.181,-223.872 726.25,-217.143"/>
</g>
<!-- ITF&#45;F_12V&#45;&gt;retro10PV -->
<g id="edge35" class="edge"><title>ITF&#45;F_12V&#45;&gt;retro10PV</title>
<path fill="none" stroke="black" d="M59.3818,-576.188C44.7716,-550.272 19.5,-498.568 19.5,-451 19.5,-451 19.5,-451 19.5,-377 19.5,-323.403 70.5702,-281.543 109.178,-257.555"/>
<polygon fill="black" stroke="black" points="111.426,-260.287 118.191,-252.133 107.818,-254.289 111.426,-260.287"/>
</g>
<!-- ITF&#45;F_12V&#45;&gt;mogaba -->
<g id="edge44" class="edge"><title>ITF&#45;F_12V&#45;&gt;mogaba</title>
<path fill="none" stroke="black" d="M98.8328,-608.895C116.63,-618.52 139.231,-631.542 157.476,-642.619"/>
<polygon fill="black" stroke="black" points="155.688,-645.628 166.042,-647.876 159.35,-639.662 155.688,-645.628"/>
</g>
<!-- Motor&#45;&gt;retro10PV -->
<g id="edge38" class="edge"><title>Motor&#45;&gt;retro10PV</title>
<path fill="none" stroke="black" d="M131.624,-178.671C136.427,-186.829 141.514,-197.028 145.525,-206.38"/>
<polygon fill="black" stroke="black" points="142.29,-207.716 149.258,-215.697 148.788,-205.112 142.29,-207.716"/>
</g>
<!-- Tri&#45;Piezo Head&#45;&gt;retro10PV -->
<g id="edge39" class="edge"><title>Tri&#45;Piezo Head&#45;&gt;retro10PV</title>
<path fill="none" stroke="black" d="M220.634,-179.622C211.025,-188.546 197.997,-199.694 185.791,-209.491"/>
<polygon fill="black" stroke="black" points="183.611,-206.752 177.933,-215.697 187.95,-212.246 183.611,-206.752"/>
</g>
<!-- ITF&#45;mEM_Alimentation -->
<g id="node27" class="node"><title>ITF&#45;mEM_Alimentation</title>
<ellipse fill="green" stroke="black" cx="189.5" cy="-738" rx="98.5829" ry="18"/>
<text text-anchor="middle" x="189.5" y="-734.3" font-family="Times,serif" font-size="14.00">ITF&#45;mEM_Alimentation</text>
</g>
<!-- ITF&#45;mEM_Alimentation&#45;&gt;mogaba -->
<g id="edge43" class="edge"><title>ITF&#45;mEM_Alimentation&#45;&gt;mogaba</title>
<path fill="none" stroke="black" d="M189.5,-719.697C189.5,-711.983 189.5,-702.712 189.5,-694.112"/>
<polygon fill="black" stroke="black" points="193,-694.104 189.5,-684.104 186,-694.104 193,-694.104"/>
</g>
</g>
</svg>
