<?xml version="1.0" encoding="UTF-8" standalone="no"?>
<!DOCTYPE svg PUBLIC "-//W3C//DTD SVG 1.1//EN"
 "http://www.w3.org/Graphics/SVG/1.1/DTD/svg11.dtd">
<!-- Generated by graphviz version 2.38.0 (20140413.2041)
 -->
<!-- Title: %3 Pages: 1 -->
<svg width="5166pt" height="116pt"
 viewBox="0.00 0.00 5165.50 116.00" xmlns="http://www.w3.org/2000/svg" xmlns:xlink="http://www.w3.org/1999/xlink">
<g id="graph0" class="graph" transform="scale(1 1) rotate(0) translate(4 112)">
<title>%3</title>
<polygon fill="white" stroke="none" points="-4,4 -4,-112 5161.5,-112 5161.5,4 -4,4"/>
<!-- sleepy -->
<g id="node1" class="node"><title>sleepy</title>
<polygon fill="blue" stroke="black" points="73,-36 0,-36 0,-0 73,-0 73,-36"/>
<text text-anchor="middle" x="36.5" y="-12.4" font-family="Times,serif" font-size="22.00">sleepy</text>
</g>
<!-- tobo -->
<g id="node2" class="node"><title>tobo</title>
<polygon fill="blue" stroke="black" points="2102.5,-36 2046.5,-36 2046.5,-0 2102.5,-0 2102.5,-36"/>
<text text-anchor="middle" x="2074.5" y="-12.4" font-family="Times,serif" font-size="22.00">tobo</text>
</g>
<!-- elmo -->
<g id="node3" class="node"><title>elmo</title>
<polygon fill="blue" stroke="black" points="1156,-36 1095,-36 1095,-0 1156,-0 1156,-36"/>
<text text-anchor="middle" x="1125.5" y="-12.4" font-family="Times,serif" font-size="22.00">elmo</text>
</g>
<!-- cletus -->
<g id="node4" class="node"><title>cletus</title>
<polygon fill="blue" stroke="black" points="4263.5,-36 4195.5,-36 4195.5,-0 4263.5,-0 4263.5,-36"/>
<text text-anchor="middle" x="4229.5" y="-12.4" font-family="Times,serif" font-size="22.00">cletus</text>
</g>
<!-- tomtom -->
<g id="node5" class="node"><title>tomtom</title>
<polygon fill="blue" stroke="black" points="2741.5,-36 2655.5,-36 2655.5,-0 2741.5,-0 2741.5,-36"/>
<text text-anchor="middle" x="2698.5" y="-12.4" font-family="Times,serif" font-size="22.00">tomtom</text>
</g>
<!-- doj -->
<g id="node6" class="node"><title>doj</title>
<polygon fill="blue" stroke="black" points="5157.5,-108 5103.5,-108 5103.5,-72 5157.5,-72 5157.5,-108"/>
<text text-anchor="middle" x="5130.5" y="-84.4" font-family="Times,serif" font-size="22.00">doj</text>
</g>
<!-- oneeye -->
<g id="node7" class="node"><title>oneeye</title>
<polygon fill="blue" stroke="black" points="2028.5,-36 1948.5,-36 1948.5,-0 2028.5,-0 2028.5,-36"/>
<text text-anchor="middle" x="1988.5" y="-12.4" font-family="Times,serif" font-size="22.00">oneeye</text>
</g>
<!-- croaker -->
<g id="node8" class="node"><title>croaker</title>
<polygon fill="blue" stroke="black" points="1671,-36 1588,-36 1588,-0 1671,-0 1671,-36"/>
<text text-anchor="middle" x="1629.5" y="-12.4" font-family="Times,serif" font-size="22.00">croaker</text>
</g>
<!-- retroATL3 -->
<g id="node9" class="node"><title>retroATL3</title>
<polygon fill="blue" stroke="black" points="4859,-36 4746,-36 4746,-0 4859,-0 4859,-36"/>
<text text-anchor="middle" x="4802.5" y="-12.4" font-family="Times,serif" font-size="22.00">retroATL3</text>
</g>
<!-- toadkiller -->
<g id="node10" class="node"><title>toadkiller</title>
<polygon fill="blue" stroke="black" points="1803,-36 1702,-36 1702,-0 1803,-0 1803,-36"/>
<text text-anchor="middle" x="1752.5" y="-12.4" font-family="Times,serif" font-size="22.00">toadkiller</text>
</g>
<!-- goblin -->
<g id="node11" class="node"><title>goblin</title>
<polygon fill="blue" stroke="black" points="2858.5,-36 2784.5,-36 2784.5,-0 2858.5,-0 2858.5,-36"/>
<text text-anchor="middle" x="2821.5" y="-12.4" font-family="Times,serif" font-size="22.00">goblin</text>
</g>
<!-- silent -->
<g id="node12" class="node"><title>silent</title>
<polygon fill="blue" stroke="black" points="2410.5,-36 2346.5,-36 2346.5,-0 2410.5,-0 2410.5,-36"/>
<text text-anchor="middle" x="2378.5" y="-12.4" font-family="Times,serif" font-size="22.00">silent</text>
</g>
<!-- mogaba -->
<g id="node13" class="node"><title>mogaba</title>
<polygon fill="blue" stroke="black" points="1415,-36 1328,-36 1328,-0 1415,-0 1415,-36"/>
<text text-anchor="middle" x="1371.5" y="-12.4" font-family="Times,serif" font-size="22.00">mogaba</text>
</g>
<!-- None -->
<g id="node14" class="node"><title>None</title>
<ellipse fill="yellow" stroke="black" cx="36.5" cy="-90" rx="29.795" ry="18"/>
<text text-anchor="middle" x="36.5" y="-86.3" font-family="Times,serif" font-size="14.00">None</text>
</g>
<!-- None&#45;&gt;sleepy -->
<g id="edge1" class="edge"><title>None&#45;&gt;sleepy</title>
<path fill="none" stroke="black" d="M30.6218,-72.055C29.8037,-64.3456 29.5614,-55.0269 29.8949,-46.3642"/>
<polygon fill="black" stroke="black" points="33.3943,-46.4915 30.5872,-36.2753 26.4107,-46.0122 33.3943,-46.4915"/>
</g>
<!-- None&#45;&gt;sleepy -->
<g id="edge2" class="edge"><title>None&#45;&gt;sleepy</title>
<path fill="none" stroke="black" d="M42.3782,-72.055C43.1963,-64.3456 43.4386,-55.0269 43.1051,-46.3642"/>
<polygon fill="black" stroke="black" points="46.5893,-46.0122 42.4128,-36.2753 39.6057,-46.4915 46.5893,-46.0122"/>
</g>
<!-- ITF&#45;1_GND -->
<g id="node15" class="node"><title>ITF&#45;1_GND</title>
<ellipse fill="yellow" stroke="black" cx="2031.5" cy="-90" rx="54.6905" ry="18"/>
<text text-anchor="middle" x="2031.5" y="-86.3" font-family="Times,serif" font-size="14.00">ITF&#45;1_GND</text>
</g>
<!-- ITF&#45;1_GND&#45;&gt;tobo -->
<g id="edge3" class="edge"><title>ITF&#45;1_GND&#45;&gt;tobo</title>
<path fill="none" stroke="black" d="M2041.91,-72.055C2046.91,-63.922 2053,-53.998 2058.56,-44.9426"/>
<polygon fill="black" stroke="black" points="2061.64,-46.6281 2063.89,-36.2753 2055.67,-42.9641 2061.64,-46.6281"/>
</g>
<!-- ITF&#45;1_GND&#45;&gt;elmo -->
<g id="edge12" class="edge"><title>ITF&#45;1_GND&#45;&gt;elmo</title>
<path fill="none" stroke="black" d="M1992.79,-77.1983C1984.82,-75.1534 1976.44,-73.2771 1968.5,-72 1682.84,-26.0625 1607.09,-56.6962 1318.5,-36 1266.06,-32.2392 1205.71,-26.7334 1166.65,-23.0155"/>
<polygon fill="black" stroke="black" points="1166.52,-19.4863 1156.23,-22.0172 1165.85,-26.4545 1166.52,-19.4863"/>
</g>
<!-- ITF&#45;1_GND&#45;&gt;tomtom -->
<g id="edge25" class="edge"><title>ITF&#45;1_GND&#45;&gt;tomtom</title>
<path fill="none" stroke="black" d="M2070.87,-77.4071C2078.96,-75.3459 2087.46,-73.4103 2095.5,-72 2200.59,-53.5664 2518.3,-31.0332 2645.25,-22.4993"/>
<polygon fill="black" stroke="black" points="2645.75,-25.9737 2655.5,-21.8132 2645.29,-18.9893 2645.75,-25.9737"/>
</g>
<!-- ITF&#45;1_GND&#45;&gt;oneeye -->
<g id="edge35" class="edge"><title>ITF&#45;1_GND&#45;&gt;oneeye</title>
<path fill="none" stroke="black" d="M2021.09,-72.055C2016.09,-63.922 2010,-53.998 2004.44,-44.9426"/>
<polygon fill="black" stroke="black" points="2007.33,-42.9641 1999.11,-36.2753 2001.36,-46.6281 2007.33,-42.9641"/>
</g>
<!-- ITF&#45;1_GND&#45;&gt;croaker -->
<g id="edge44" class="edge"><title>ITF&#45;1_GND&#45;&gt;croaker</title>
<path fill="none" stroke="black" d="M1992.03,-77.4839C1984.28,-75.4661 1976.17,-73.5272 1968.5,-72 1847.18,-47.8318 1813.82,-60.1682 1692.5,-36 1688.84,-35.271 1685.08,-34.4482 1681.3,-33.5677"/>
<polygon fill="black" stroke="black" points="1681.88,-30.1058 1671.34,-31.1275 1680.22,-36.905 1681.88,-30.1058"/>
</g>
<!-- ITF&#45;1_GND&#45;&gt;toadkiller -->
<g id="edge59" class="edge"><title>ITF&#45;1_GND&#45;&gt;toadkiller</title>
<path fill="none" stroke="black" d="M1990.87,-77.8891C1983.44,-75.8983 1975.74,-73.865 1968.5,-72 1916.12,-58.5081 1856.38,-43.9115 1813.03,-33.4593"/>
<polygon fill="black" stroke="black" points="1813.75,-30.0326 1803.21,-31.0947 1812.11,-36.8382 1813.75,-30.0326"/>
</g>
<!-- ITF&#45;1_GND&#45;&gt;goblin -->
<g id="edge68" class="edge"><title>ITF&#45;1_GND&#45;&gt;goblin</title>
<path fill="none" stroke="black" d="M2070.49,-77.287C2078.69,-75.2083 2087.32,-73.2964 2095.5,-72 2383.45,-26.3372 2462.01,-78.1151 2750.5,-36 2758.26,-34.8671 2766.42,-33.2888 2774.33,-31.5465"/>
<polygon fill="black" stroke="black" points="2775.21,-34.9353 2784.16,-29.273 2773.63,-28.1151 2775.21,-34.9353"/>
</g>
<!-- ITF&#45;1_GND&#45;&gt;silent -->
<g id="edge78" class="edge"><title>ITF&#45;1_GND&#45;&gt;silent</title>
<path fill="none" stroke="black" d="M2072.02,-77.7508C2079.79,-75.7319 2087.87,-73.7242 2095.5,-72 2180.24,-52.8393 2280.35,-35.267 2335.91,-25.9576"/>
<polygon fill="black" stroke="black" points="2336.8,-29.3589 2346.08,-24.2624 2335.64,-22.4542 2336.8,-29.3589"/>
</g>
<!-- ITF&#45;1_GND&#45;&gt;mogaba -->
<g id="edge83" class="edge"><title>ITF&#45;1_GND&#45;&gt;mogaba</title>
<path fill="none" stroke="black" d="M1992.42,-77.3177C1984.56,-75.2893 1976.31,-73.3889 1968.5,-72 1941.98,-67.2828 1567.77,-35.5212 1425.69,-23.5518"/>
<polygon fill="black" stroke="black" points="1425.73,-20.0425 1415.47,-22.6911 1425.14,-27.0179 1425.73,-20.0425"/>
</g>
<!-- ITF&#45;2_VDD_5V -->
<g id="node16" class="node"><title>ITF&#45;2_VDD_5V</title>
<ellipse fill="yellow" stroke="black" cx="1889.5" cy="-90" rx="69.5877" ry="18"/>
<text text-anchor="middle" x="1889.5" y="-86.3" font-family="Times,serif" font-size="14.00">ITF&#45;2_VDD_5V</text>
</g>
<!-- ITF&#45;2_VDD_5V&#45;&gt;tobo -->
<g id="edge4" class="edge"><title>ITF&#45;2_VDD_5V&#45;&gt;tobo</title>
<path fill="none" stroke="black" d="M1930.38,-75.4301C1958.19,-65.9559 1995.97,-52.624 2036.97,-36.0621"/>
<polygon fill="black" stroke="black" points="2038.39,-39.2645 2046.33,-32.2492 2035.75,-32.7822 2038.39,-39.2645"/>
</g>
<!-- ITF&#45;2_VDD_5V&#45;&gt;elmo -->
<g id="edge13" class="edge"><title>ITF&#45;2_VDD_5V&#45;&gt;elmo</title>
<path fill="none" stroke="black" d="M1839.96,-77.2399C1830.24,-75.2434 1820.08,-73.3748 1810.5,-72 1593.47,-40.8625 1537.04,-53.6194 1318.5,-36 1266.09,-31.7749 1205.73,-26.3718 1166.67,-22.8042"/>
<polygon fill="black" stroke="black" points="1166.52,-19.2758 1156.24,-21.8492 1165.88,-26.2466 1166.52,-19.2758"/>
</g>
<!-- ITF&#45;2_VDD_5V&#45;&gt;tomtom -->
<g id="edge26" class="edge"><title>ITF&#45;2_VDD_5V&#45;&gt;tomtom</title>
<path fill="none" stroke="black" d="M1938.82,-77.1415C1948.3,-75.1788 1958.17,-73.3476 1967.5,-72 2033.94,-62.401 2487.56,-32.6135 2644.9,-22.4437"/>
<polygon fill="black" stroke="black" points="2645.51,-25.9115 2655.26,-21.7743 2645.06,-18.926 2645.51,-25.9115"/>
</g>
<!-- ITF&#45;2_VDD_5V&#45;&gt;oneeye -->
<g id="edge36" class="edge"><title>ITF&#45;2_VDD_5V&#45;&gt;oneeye</title>
<path fill="none" stroke="black" d="M1912.46,-72.7646C1925.33,-63.6672 1941.59,-52.1684 1955.77,-42.1419"/>
<polygon fill="black" stroke="black" points="1958.14,-44.7551 1964.28,-36.1239 1954.1,-39.0395 1958.14,-44.7551"/>
</g>
<!-- ITF&#45;2_VDD_5V&#45;&gt;croaker -->
<g id="edge45" class="edge"><title>ITF&#45;2_VDD_5V&#45;&gt;croaker</title>
<path fill="none" stroke="black" d="M1842.93,-76.4808C1803.01,-65.7474 1743.97,-49.8674 1692.5,-36 1688.73,-34.9846 1684.84,-33.9345 1680.92,-32.8776"/>
<polygon fill="black" stroke="black" points="1681.75,-29.4768 1671.18,-30.252 1679.92,-36.2353 1681.75,-29.4768"/>
</g>
<!-- ITF&#45;2_VDD_5V&#45;&gt;toadkiller -->
<g id="edge60" class="edge"><title>ITF&#45;2_VDD_5V&#45;&gt;toadkiller</title>
<path fill="none" stroke="black" d="M1859.43,-73.6382C1840.5,-63.9623 1815.77,-51.3258 1794.86,-40.6427"/>
<polygon fill="black" stroke="black" points="1796.36,-37.4775 1785.86,-36.0442 1793.17,-43.7109 1796.36,-37.4775"/>
</g>
<!-- ITF&#45;2_VDD_5V&#45;&gt;goblin -->
<g id="edge69" class="edge"><title>ITF&#45;2_VDD_5V&#45;&gt;goblin</title>
<path fill="none" stroke="black" d="M1938.38,-77.0278C1947.98,-75.0499 1958.02,-73.2423 1967.5,-72 2312.92,-26.7468 2405.56,-84.7773 2750.5,-36 2758.27,-34.9019 2766.42,-33.3415 2774.33,-31.6065"/>
<polygon fill="black" stroke="black" points="2775.21,-34.9957 2784.17,-29.3369 2773.64,-28.1749 2775.21,-34.9957"/>
</g>
<!-- ITF&#45;2_VDD_5V&#45;&gt;silent -->
<g id="edge79" class="edge"><title>ITF&#45;2_VDD_5V&#45;&gt;silent</title>
<path fill="none" stroke="black" d="M1939.73,-77.3857C1948.94,-75.4461 1958.49,-73.5604 1967.5,-72 2101.28,-48.8396 2261.17,-31.0238 2335.98,-23.259"/>
<polygon fill="black" stroke="black" points="2336.8,-26.6935 2346.38,-22.1869 2336.08,-19.7303 2336.8,-26.6935"/>
</g>
<!-- ITF&#45;2_VDD_5V&#45;&gt;mogaba -->
<g id="edge84" class="edge"><title>ITF&#45;2_VDD_5V&#45;&gt;mogaba</title>
<path fill="none" stroke="black" d="M1839.06,-77.4243C1829.6,-75.4585 1819.77,-73.5537 1810.5,-72 1672.55,-48.8795 1508.58,-31.822 1425.51,-23.9093"/>
<polygon fill="black" stroke="black" points="1425.59,-20.4012 1415.31,-22.9444 1424.93,-27.3702 1425.59,-20.4012"/>
</g>
<!-- ITF&#45;9_Pon -->
<g id="node17" class="node"><title>ITF&#45;9_Pon</title>
<ellipse fill="yellow" stroke="black" cx="1752.5" cy="-90" rx="49.2915" ry="18"/>
<text text-anchor="middle" x="1752.5" y="-86.3" font-family="Times,serif" font-size="14.00">ITF&#45;9_Pon</text>
</g>
<!-- ITF&#45;9_Pon&#45;&gt;tobo -->
<g id="edge5" class="edge"><title>ITF&#45;9_Pon&#45;&gt;tobo</title>
<path fill="none" stroke="black" d="M1788.51,-77.6702C1795.75,-75.6128 1803.33,-73.6115 1810.5,-72 1907.05,-50.2887 1937.82,-64.6367 2036.37,-35.8927"/>
<polygon fill="black" stroke="black" points="2037.54,-39.194 2046.12,-32.9738 2035.53,-32.4879 2037.54,-39.194"/>
</g>
<!-- ITF&#45;9_Pon&#45;&gt;oneeye -->
<g id="edge38" class="edge"><title>ITF&#45;9_Pon&#45;&gt;oneeye</title>
<path fill="none" stroke="black" d="M1789.63,-77.9855C1829.82,-66.0659 1894.12,-46.995 1938.67,-33.779"/>
<polygon fill="black" stroke="black" points="1939.83,-37.0857 1948.43,-30.8865 1937.84,-30.3747 1939.83,-37.0857"/>
</g>
<!-- ITF&#45;9_Pon&#45;&gt;croaker -->
<g id="edge43" class="edge"><title>ITF&#45;9_Pon&#45;&gt;croaker</title>
<path fill="none" stroke="black" d="M1727.01,-74.496C1710.13,-64.8853 1687.65,-52.0912 1668.53,-41.2096"/>
<polygon fill="black" stroke="black" points="1670.15,-38.1081 1659.73,-36.2038 1666.69,-44.1919 1670.15,-38.1081"/>
</g>
<!-- ITF&#45;9_Pon&#45;&gt;toadkiller -->
<g id="edge65" class="edge"><title>ITF&#45;9_Pon&#45;&gt;toadkiller</title>
<path fill="none" stroke="black" d="M1752.5,-71.6966C1752.5,-63.9827 1752.5,-54.7125 1752.5,-46.1124"/>
<polygon fill="black" stroke="black" points="1756,-46.1043 1752.5,-36.1043 1749,-46.1044 1756,-46.1043"/>
</g>
<!-- ITF&#45;10_Poff -->
<g id="node18" class="node"><title>ITF&#45;10_Poff</title>
<ellipse fill="yellow" stroke="black" cx="1629.5" cy="-90" rx="55.4913" ry="18"/>
<text text-anchor="middle" x="1629.5" y="-86.3" font-family="Times,serif" font-size="14.00">ITF&#45;10_Poff</text>
</g>
<!-- ITF&#45;10_Poff&#45;&gt;tobo -->
<g id="edge6" class="edge"><title>ITF&#45;10_Poff&#45;&gt;tobo</title>
<path fill="none" stroke="black" d="M1669.51,-77.5229C1677.72,-75.4528 1686.35,-73.4842 1694.5,-72 1842.06,-45.1194 1887.72,-75.1875 2036.23,-35.8258"/>
<polygon fill="black" stroke="black" points="2037.43,-39.1274 2046.16,-33.1314 2035.6,-32.3715 2037.43,-39.1274"/>
</g>
<!-- ITF&#45;10_Poff&#45;&gt;oneeye -->
<g id="edge39" class="edge"><title>ITF&#45;10_Poff&#45;&gt;oneeye</title>
<path fill="none" stroke="black" d="M1670.3,-77.8141C1678.3,-75.7675 1686.64,-73.7335 1694.5,-72 1779.55,-53.2425 1879.52,-36.2893 1938.24,-26.8437"/>
<polygon fill="black" stroke="black" points="1939.04,-30.2606 1948.36,-25.2247 1937.93,-23.3485 1939.04,-30.2606"/>
</g>
<!-- ITF&#45;10_Poff&#45;&gt;croaker -->
<g id="edge42" class="edge"><title>ITF&#45;10_Poff&#45;&gt;croaker</title>
<path fill="none" stroke="black" d="M1629.5,-71.6966C1629.5,-63.9827 1629.5,-54.7125 1629.5,-46.1124"/>
<polygon fill="black" stroke="black" points="1633,-46.1043 1629.5,-36.1043 1626,-46.1044 1633,-46.1043"/>
</g>
<!-- ITF&#45;10_Poff&#45;&gt;toadkiller -->
<g id="edge66" class="edge"><title>ITF&#45;10_Poff&#45;&gt;toadkiller</title>
<path fill="none" stroke="black" d="M1655.89,-73.9832C1672.63,-64.4548 1694.59,-51.9548 1713.35,-41.2813"/>
<polygon fill="black" stroke="black" points="1715.3,-44.1975 1722.26,-36.2094 1711.84,-38.1137 1715.3,-44.1975"/>
</g>
<!-- ITF&#45;19_3.3V -->
<g id="node19" class="node"><title>ITF&#45;19_3.3V</title>
<ellipse fill="yellow" stroke="black" cx="1125.5" cy="-90" rx="57.6901" ry="18"/>
<text text-anchor="middle" x="1125.5" y="-86.3" font-family="Times,serif" font-size="14.00">ITF&#45;19_3.3V</text>
</g>
<!-- ITF&#45;19_3.3V&#45;&gt;tobo -->
<g id="edge7" class="edge"><title>ITF&#45;19_3.3V&#45;&gt;tobo</title>
<path fill="none" stroke="black" d="M1166.33,-77.2197C1174.91,-75.1459 1183.95,-73.253 1192.5,-72 1375.37,-45.1964 1839.05,-78.9058 2036.45,-35.5791"/>
<polygon fill="black" stroke="black" points="2037.26,-38.9834 2046.21,-33.3182 2035.68,-32.1637 2037.26,-38.9834"/>
</g>
<!-- ITF&#45;19_3.3V&#45;&gt;elmo -->
<g id="edge14" class="edge"><title>ITF&#45;19_3.3V&#45;&gt;elmo</title>
<path fill="none" stroke="black" d="M1125.5,-71.6966C1125.5,-63.9827 1125.5,-54.7125 1125.5,-46.1124"/>
<polygon fill="black" stroke="black" points="1129,-46.1043 1125.5,-36.1043 1122,-46.1044 1129,-46.1043"/>
</g>
<!-- ITF&#45;19_3.3V&#45;&gt;croaker -->
<g id="edge46" class="edge"><title>ITF&#45;19_3.3V&#45;&gt;croaker</title>
<path fill="none" stroke="black" d="M1167.49,-77.4721C1175.74,-75.4553 1184.36,-73.5198 1192.5,-72 1330.65,-46.2062 1495.8,-30.1221 1577.89,-23.1072"/>
<polygon fill="black" stroke="black" points="1578.29,-26.5862 1587.96,-22.2569 1577.7,-19.611 1578.29,-26.5862"/>
</g>
<!-- ITF&#45;19_3.3V&#45;&gt;toadkiller -->
<g id="edge61" class="edge"><title>ITF&#45;19_3.3V&#45;&gt;toadkiller</title>
<path fill="none" stroke="black" d="M1166.72,-77.3393C1175.19,-75.2834 1184.09,-73.367 1192.5,-72 1406.72,-37.1786 1464.94,-68.7108 1679.5,-36 1683.44,-35.3994 1687.48,-34.6992 1691.54,-33.9318"/>
<polygon fill="black" stroke="black" points="1692.53,-37.3045 1701.64,-31.9044 1691.15,-30.4415 1692.53,-37.3045"/>
</g>
<!-- ITF&#45;19_3.3V&#45;&gt;mogaba -->
<g id="edge85" class="edge"><title>ITF&#45;19_3.3V&#45;&gt;mogaba</title>
<path fill="none" stroke="black" d="M1166.67,-77.2836C1208.22,-65.4628 1272.55,-47.1574 1318.01,-34.22"/>
<polygon fill="black" stroke="black" points="1319.04,-37.5669 1327.7,-31.4635 1317.12,-30.8341 1319.04,-37.5669"/>
</g>
<!-- ITF&#45;mET_Transducer -->
<g id="node20" class="node"><title>ITF&#45;mET_Transducer</title>
<ellipse fill="green" stroke="black" cx="4053.5" cy="-90" rx="89.0842" ry="18"/>
<text text-anchor="middle" x="4053.5" y="-86.3" font-family="Times,serif" font-size="14.00">ITF&#45;mET_Transducer</text>
</g>
<!-- ITF&#45;mET_Transducer&#45;&gt;tobo -->
<g id="edge8" class="edge"><title>ITF&#45;mET_Transducer&#45;&gt;tobo</title>
<path fill="none" stroke="black" d="M3988.21,-77.7086C3974.42,-75.419 3959.99,-73.3129 3946.5,-72 3230.59,-2.33611 3047.11,-67.2056 2328.5,-36 2251.68,-32.6642 2162.39,-26.3825 2112.64,-22.4599"/>
<polygon fill="black" stroke="black" points="2112.9,-18.9689 2102.65,-21.6605 2112.34,-25.9466 2112.9,-18.9689"/>
</g>
<!-- ITF&#45;mET_Transducer&#45;&gt;tobo -->
<g id="edge11" class="edge"><title>ITF&#45;mET_Transducer&#45;&gt;tobo</title>
<path fill="none" stroke="black" d="M3996.41,-76.1699C3985.85,-74.4949 3974.9,-73.0118 3964.5,-72 3248.59,-2.33611 3065.11,-67.2056 2346.5,-36 2263.53,-32.3972 2166.02,-25.3581 2113.07,-21.5661"/>
<polygon fill="black" stroke="black" points="2113.01,-18.0527 2102.79,-20.8308 2112.51,-25.0349 2113.01,-18.0527"/>
</g>
<!-- ITF&#45;mET_Transducer&#45;&gt;cletus -->
<g id="edge21" class="edge"><title>ITF&#45;mET_Transducer&#45;&gt;cletus</title>
<path fill="none" stroke="black" d="M4087.26,-73.2906C4115.34,-61.5786 4155.34,-45.6755 4185.84,-34.1099"/>
<polygon fill="black" stroke="black" points="4187.26,-37.3172 4195.38,-30.518 4184.79,-30.7661 4187.26,-37.3172"/>
</g>
<!-- ITF&#45;mET_Transducer&#45;&gt;cletus -->
<g id="edge24" class="edge"><title>ITF&#45;mET_Transducer&#45;&gt;cletus</title>
<path fill="none" stroke="black" d="M4096.46,-74.1548C4123.66,-63.8516 4158.62,-50.0134 4185.92,-38.776"/>
<polygon fill="black" stroke="black" points="4187.34,-41.979 4195.24,-34.9196 4184.66,-35.5114 4187.34,-41.979"/>
</g>
<!-- ITF&#45;mET_Transducer&#45;&gt;retroATL3 -->
<g id="edge53" class="edge"><title>ITF&#45;mET_Transducer&#45;&gt;retroATL3</title>
<path fill="none" stroke="black" d="M4112.22,-76.4471C4122.28,-74.8002 4132.65,-73.2527 4142.5,-72 4358.37,-44.546 4616.43,-28.4695 4735.9,-22.1404"/>
<polygon fill="black" stroke="black" points="4736.19,-25.6303 4745.99,-21.6118 4735.82,-18.6399 4736.19,-25.6303"/>
</g>
<!-- ITF&#45;mET_Transducer&#45;&gt;retroATL3 -->
<g id="edge57" class="edge"><title>ITF&#45;mET_Transducer&#45;&gt;retroATL3</title>
<path fill="none" stroke="black" d="M4120.17,-78.0609C4133.56,-75.8266 4147.48,-73.6557 4160.5,-72 4369.6,-45.4068 4618.29,-29.4888 4735.37,-22.7645"/>
<polygon fill="black" stroke="black" points="4735.82,-26.2445 4745.6,-22.1807 4735.42,-19.2558 4735.82,-26.2445"/>
</g>
<!-- ITF&#45;18_Raw -->
<g id="node21" class="node"><title>ITF&#45;18_Raw</title>
<ellipse fill="yellow" stroke="black" cx="2562.5" cy="-90" rx="55.7903" ry="18"/>
<text text-anchor="middle" x="2562.5" y="-86.3" font-family="Times,serif" font-size="14.00">ITF&#45;18_Raw</text>
</g>
<!-- ITF&#45;18_Raw&#45;&gt;tobo -->
<g id="edge9" class="edge"><title>ITF&#45;18_Raw&#45;&gt;tobo</title>
<path fill="none" stroke="black" d="M2521.77,-77.4753C2513.77,-75.4583 2505.4,-73.5218 2497.5,-72 2357.06,-44.9566 2187.61,-28.5408 2112.97,-22.1178"/>
<polygon fill="black" stroke="black" points="2112.93,-18.6012 2102.67,-21.2426 2112.33,-25.5761 2112.93,-18.6012"/>
</g>
<!-- ITF&#45;18_Raw&#45;&gt;goblin -->
<g id="edge73" class="edge"><title>ITF&#45;18_Raw&#45;&gt;goblin</title>
<path fill="none" stroke="black" d="M2603.83,-77.8309C2650.32,-65.2641 2725.7,-44.8914 2774.43,-31.7213"/>
<polygon fill="black" stroke="black" points="2775.36,-35.0947 2784.1,-29.1068 2773.54,-28.3371 2775.36,-35.0947"/>
</g>
<!-- ITF&#45;18_Raw&#45;&gt;silent -->
<g id="edge81" class="edge"><title>ITF&#45;18_Raw&#45;&gt;silent</title>
<path fill="none" stroke="black" d="M2527.89,-75.8335C2497.42,-64.2407 2452.96,-47.3269 2420.47,-34.9655"/>
<polygon fill="black" stroke="black" points="2421.39,-31.5708 2410.8,-31.2863 2418.9,-38.1134 2421.39,-31.5708"/>
</g>
<!-- ITF&#45;mET_SMA -->
<g id="node22" class="node"><title>ITF&#45;mET_SMA</title>
<ellipse fill="green" stroke="black" cx="2847.5" cy="-90" rx="68.7879" ry="18"/>
<text text-anchor="middle" x="2847.5" y="-86.3" font-family="Times,serif" font-size="14.00">ITF&#45;mET_SMA</text>
</g>
<!-- ITF&#45;mET_SMA&#45;&gt;tobo -->
<g id="edge10" class="edge"><title>ITF&#45;mET_SMA&#45;&gt;tobo</title>
<path fill="none" stroke="black" d="M2798.59,-77.2565C2788.99,-75.2586 2778.96,-73.3851 2769.5,-72 2704.51,-62.4862 2249.83,-30.9864 2113.23,-21.6378"/>
<polygon fill="black" stroke="black" points="2113.06,-18.1182 2102.84,-20.9279 2112.58,-25.1019 2113.06,-18.1182"/>
</g>
<!-- ITF&#45;mET_SMA&#45;&gt;goblin -->
<g id="edge74" class="edge"><title>ITF&#45;mET_SMA&#45;&gt;goblin</title>
<path fill="none" stroke="black" d="M2841.21,-72.055C2838.28,-64.1762 2834.73,-54.6165 2831.45,-45.794"/>
<polygon fill="black" stroke="black" points="2834.68,-44.4309 2827.92,-36.2753 2828.12,-46.8682 2834.68,-44.4309"/>
</g>
<!-- ITF&#45;12_RPIn -->
<g id="node23" class="node"><title>ITF&#45;12_RPIn</title>
<ellipse fill="yellow" stroke="black" cx="310.5" cy="-90" rx="57.6901" ry="18"/>
<text text-anchor="middle" x="310.5" y="-86.3" font-family="Times,serif" font-size="14.00">ITF&#45;12_RPIn</text>
</g>
<!-- ITF&#45;12_RPIn&#45;&gt;elmo -->
<g id="edge15" class="edge"><title>ITF&#45;12_RPIn&#45;&gt;elmo</title>
<path fill="none" stroke="black" d="M351.719,-77.3192C360.188,-75.2649 369.088,-73.3542 377.5,-72 644.897,-28.954 971.674,-20.8695 1084.73,-19.3511"/>
<polygon fill="black" stroke="black" points="1085.04,-22.8476 1095,-19.2237 1084.95,-15.8482 1085.04,-22.8476"/>
</g>
<!-- Signal Digitalized -->
<g id="node24" class="node"><title>Signal Digitalized</title>
<ellipse fill="yellow" stroke="black" cx="159.5" cy="-90" rx="74.9875" ry="18"/>
<text text-anchor="middle" x="159.5" y="-86.3" font-family="Times,serif" font-size="14.00">Signal Digitalized</text>
</g>
<!-- Signal Digitalized&#45;&gt;elmo -->
<g id="edge16" class="edge"><title>Signal Digitalized&#45;&gt;elmo</title>
<path fill="none" stroke="black" d="M212.187,-77.1673C222.525,-75.1771 233.32,-73.3294 243.5,-72 565.708,-29.9241 958.573,-21.1919 1084.56,-19.4312"/>
<polygon fill="black" stroke="black" points="1084.93,-22.9266 1094.89,-19.2943 1084.84,-15.9272 1084.93,-22.9266"/>
</g>
<!-- ITF&#45;A_gnd -->
<g id="node25" class="node"><title>ITF&#45;A_gnd</title>
<ellipse fill="yellow" stroke="black" cx="4682.5" cy="-90" rx="50.8918" ry="18"/>
<text text-anchor="middle" x="4682.5" y="-86.3" font-family="Times,serif" font-size="14.00">ITF&#45;A_gnd</text>
</g>
<!-- ITF&#45;A_gnd&#45;&gt;cletus -->
<g id="edge17" class="edge"><title>ITF&#45;A_gnd&#45;&gt;cletus</title>
<path fill="none" stroke="black" d="M4645.89,-77.5482C4638.52,-75.5009 4630.8,-73.5345 4623.5,-72 4497.96,-45.6199 4347.03,-29.6083 4273.75,-22.8148"/>
<polygon fill="black" stroke="black" points="4273.79,-19.304 4263.52,-21.8792 4273.16,-26.2749 4273.79,-19.304"/>
</g>
<!-- ITF&#45;A_gnd&#45;&gt;retroATL3 -->
<g id="edge50" class="edge"><title>ITF&#45;A_gnd&#45;&gt;retroATL3</title>
<path fill="none" stroke="black" d="M4707.66,-74.3257C4724.08,-64.7479 4745.82,-52.0624 4764.35,-41.2547"/>
<polygon fill="black" stroke="black" points="4766.27,-44.1838 4773.15,-36.1218 4762.75,-38.1374 4766.27,-44.1838"/>
</g>
<!-- ITF&#45;B_5v -->
<g id="node26" class="node"><title>ITF&#45;B_5v</title>
<ellipse fill="yellow" stroke="black" cx="4362.5" cy="-90" rx="46.2923" ry="18"/>
<text text-anchor="middle" x="4362.5" y="-86.3" font-family="Times,serif" font-size="14.00">ITF&#45;B_5v</text>
</g>
<!-- ITF&#45;B_5v&#45;&gt;cletus -->
<g id="edge18" class="edge"><title>ITF&#45;B_5v&#45;&gt;cletus</title>
<path fill="none" stroke="black" d="M4336.22,-75.1703C4317.54,-65.3387 4292.08,-51.9374 4270.71,-40.6905"/>
<polygon fill="black" stroke="black" points="4272.32,-37.5793 4261.84,-36.019 4269.06,-43.7738 4272.32,-37.5793"/>
</g>
<!-- ITF&#45;N_cc_motor_pwm -->
<g id="node27" class="node"><title>ITF&#45;N_cc_motor_pwm</title>
<ellipse fill="yellow" stroke="black" cx="4520.5" cy="-90" rx="93.6835" ry="18"/>
<text text-anchor="middle" x="4520.5" y="-86.3" font-family="Times,serif" font-size="14.00">ITF&#45;N_cc_motor_pwm</text>
</g>
<!-- ITF&#45;N_cc_motor_pwm&#45;&gt;cletus -->
<g id="edge19" class="edge"><title>ITF&#45;N_cc_motor_pwm&#45;&gt;cletus</title>
<path fill="none" stroke="black" d="M4464.39,-75.5033C4408.65,-62.0948 4324.33,-41.8118 4273.33,-29.5436"/>
<polygon fill="black" stroke="black" points="4274.14,-26.1372 4263.59,-27.2013 4272.5,-32.9431 4274.14,-26.1372"/>
</g>
<!-- ITF&#45;N_cc_motor_pwm&#45;&gt;retroATL3 -->
<g id="edge52" class="edge"><title>ITF&#45;N_cc_motor_pwm&#45;&gt;retroATL3</title>
<path fill="none" stroke="black" d="M4575.54,-75.3371C4621.43,-63.9468 4686.96,-47.6811 4735.81,-35.5531"/>
<polygon fill="black" stroke="black" points="4736.8,-38.9144 4745.66,-33.1083 4735.12,-32.1206 4736.8,-38.9144"/>
</g>
<!-- ITF&#45;S_3_3v -->
<g id="node28" class="node"><title>ITF&#45;S_3_3v</title>
<ellipse fill="yellow" stroke="black" cx="3892.5" cy="-90" rx="53.8905" ry="18"/>
<text text-anchor="middle" x="3892.5" y="-86.3" font-family="Times,serif" font-size="14.00">ITF&#45;S_3_3v</text>
</g>
<!-- ITF&#45;S_3_3v&#45;&gt;cletus -->
<g id="edge20" class="edge"><title>ITF&#45;S_3_3v&#45;&gt;cletus</title>
<path fill="none" stroke="black" d="M3932.38,-77.77C3940.03,-75.7494 3947.99,-73.7361 3955.5,-72 4035.99,-53.3816 4130.81,-36.0525 4185.17,-26.555"/>
<polygon fill="black" stroke="black" points="4185.91,-29.9793 4195.16,-24.818 4184.71,-23.0827 4185.91,-29.9793"/>
</g>
<!-- ITF&#45;mET_Piezo -->
<g id="node29" class="node"><title>ITF&#45;mET_Piezo</title>
<ellipse fill="green" stroke="black" cx="4229.5" cy="-90" rx="68.7879" ry="18"/>
<text text-anchor="middle" x="4229.5" y="-86.3" font-family="Times,serif" font-size="14.00">ITF&#45;mET_Piezo</text>
</g>
<!-- ITF&#45;mET_Piezo&#45;&gt;cletus -->
<g id="edge22" class="edge"><title>ITF&#45;mET_Piezo&#45;&gt;cletus</title>
<path fill="none" stroke="black" d="M4223.62,-72.055C4222.8,-64.3456 4222.56,-55.0269 4222.89,-46.3642"/>
<polygon fill="black" stroke="black" points="4226.39,-46.4915 4223.59,-36.2753 4219.41,-46.0122 4226.39,-46.4915"/>
</g>
<!-- ITF&#45;mET_Piezo&#45;&gt;cletus -->
<g id="edge23" class="edge"><title>ITF&#45;mET_Piezo&#45;&gt;cletus</title>
<path fill="none" stroke="black" d="M4235.38,-72.055C4236.2,-64.3456 4236.44,-55.0269 4236.11,-46.3642"/>
<polygon fill="black" stroke="black" points="4239.59,-46.0122 4235.41,-36.2753 4232.61,-46.4915 4239.59,-46.0122"/>
</g>
<!-- ITF&#45;3_ENV -->
<g id="node30" class="node"><title>ITF&#45;3_ENV</title>
<ellipse fill="yellow" stroke="black" cx="2158.5" cy="-90" rx="53.8905" ry="18"/>
<text text-anchor="middle" x="2158.5" y="-86.3" font-family="Times,serif" font-size="14.00">ITF&#45;3_ENV</text>
</g>
<!-- ITF&#45;3_ENV&#45;&gt;tomtom -->
<g id="edge27" class="edge"><title>ITF&#45;3_ENV&#45;&gt;tomtom</title>
<path fill="none" stroke="black" d="M2197.61,-77.4542C2205.47,-75.4147 2213.71,-73.4752 2221.5,-72 2373.88,-43.1505 2556.84,-28.2347 2645.35,-22.2419"/>
<polygon fill="black" stroke="black" points="2645.67,-25.7286 2655.41,-21.5717 2645.2,-18.7441 2645.67,-25.7286"/>
</g>
<!-- ITF&#45;3_ENV&#45;&gt;oneeye -->
<g id="edge34" class="edge"><title>ITF&#45;3_ENV&#45;&gt;oneeye</title>
<path fill="none" stroke="black" d="M2125.72,-75.5033C2100.84,-65.2591 2066.22,-51.0023 2037.98,-39.3728"/>
<polygon fill="black" stroke="black" points="2039.25,-36.1103 2028.67,-35.5391 2036.58,-42.5831 2039.25,-36.1103"/>
</g>
<!-- ITF&#45;3_ENV&#45;&gt;croaker -->
<g id="edge41" class="edge"><title>ITF&#45;3_ENV&#45;&gt;croaker</title>
<path fill="none" stroke="black" d="M2119.76,-77.4081C2111.79,-75.3469 2103.42,-73.4109 2095.5,-72 1918.46,-40.4559 1869.54,-67.5441 1692.5,-36 1688.83,-35.3455 1685.06,-34.5779 1681.27,-33.7373"/>
<polygon fill="black" stroke="black" points="1681.83,-30.2722 1671.29,-31.3689 1680.21,-37.0831 1681.83,-30.2722"/>
</g>
<!-- ITF&#45;3_ENV&#45;&gt;toadkiller -->
<g id="edge62" class="edge"><title>ITF&#45;3_ENV&#45;&gt;toadkiller</title>
<path fill="none" stroke="black" d="M2119.01,-77.6285C2111.25,-75.5981 2103.15,-73.6175 2095.5,-72 1997.51,-51.2751 1882.17,-35.1196 1813.32,-26.3369"/>
<polygon fill="black" stroke="black" points="1813.45,-22.8259 1803.09,-25.043 1812.57,-29.7705 1813.45,-22.8259"/>
</g>
<!-- ITF&#45;3_ENV&#45;&gt;goblin -->
<g id="edge72" class="edge"><title>ITF&#45;3_ENV&#45;&gt;goblin</title>
<path fill="none" stroke="black" d="M2197.22,-77.2768C2205.19,-75.2258 2213.57,-73.3271 2221.5,-72 2453.92,-33.1174 2517.54,-71.5607 2750.5,-36 2758.25,-34.8165 2766.41,-33.2121 2774.31,-31.4592"/>
<polygon fill="black" stroke="black" points="2775.2,-34.8474 2784.15,-29.1801 2773.61,-28.0281 2775.2,-34.8474"/>
</g>
<!-- ITF&#45;15_GPIO21 -->
<g id="node31" class="node"><title>ITF&#45;15_GPIO21</title>
<ellipse fill="yellow" stroke="black" cx="3003.5" cy="-90" rx="69.5877" ry="18"/>
<text text-anchor="middle" x="3003.5" y="-86.3" font-family="Times,serif" font-size="14.00">ITF&#45;15_GPIO21</text>
</g>
<!-- ITF&#45;15_GPIO21&#45;&gt;tomtom -->
<g id="edge28" class="edge"><title>ITF&#45;15_GPIO21&#45;&gt;tomtom</title>
<path fill="none" stroke="black" d="M2953.14,-77.4409C2897.43,-64.6562 2808.08,-44.1487 2751.38,-31.1368"/>
<polygon fill="black" stroke="black" points="2752.07,-27.703 2741.54,-28.8774 2750.5,-34.5257 2752.07,-27.703"/>
</g>
<!-- ITF&#45;16_POn3 -->
<g id="node32" class="node"><title>ITF&#45;16_POn3</title>
<ellipse fill="yellow" stroke="black" cx="3150.5" cy="-90" rx="59.5901" ry="18"/>
<text text-anchor="middle" x="3150.5" y="-86.3" font-family="Times,serif" font-size="14.00">ITF&#45;16_POn3</text>
</g>
<!-- ITF&#45;16_POn3&#45;&gt;tomtom -->
<g id="edge29" class="edge"><title>ITF&#45;16_POn3&#45;&gt;tomtom</title>
<path fill="none" stroke="black" d="M3103.86,-78.6027C3093.82,-76.1841 3083.32,-73.7948 3073.5,-72 2938.36,-47.2895 2901.97,-58.8375 2766.5,-36 2761.69,-35.1893 2756.73,-34.2749 2751.77,-33.3016"/>
<polygon fill="black" stroke="black" points="2752.16,-29.8089 2741.67,-31.235 2750.76,-36.6671 2752.16,-29.8089"/>
</g>
<!-- ITF&#45;16_POn3&#45;&gt;tomtom -->
<g id="edge30" class="edge"><title>ITF&#45;16_POn3&#45;&gt;tomtom</title>
<path fill="none" stroke="black" d="M3111.65,-76.2433C3104.98,-74.6751 3098.08,-73.2039 3091.5,-72 2956.36,-47.2895 2919.97,-58.8375 2784.5,-36 2773.85,-34.2053 2762.46,-31.9032 2751.53,-29.5765"/>
<polygon fill="black" stroke="black" points="2752.16,-26.1333 2741.65,-27.4467 2750.69,-32.976 2752.16,-26.1333"/>
</g>
<!-- ITF&#45;17_POff3 -->
<g id="node33" class="node"><title>ITF&#45;17_POff3</title>
<ellipse fill="yellow" stroke="black" cx="2698.5" cy="-90" rx="61.99" ry="18"/>
<text text-anchor="middle" x="2698.5" y="-86.3" font-family="Times,serif" font-size="14.00">ITF&#45;17_POff3</text>
</g>
<!-- ITF&#45;17_POff3&#45;&gt;tomtom -->
<g id="edge31" class="edge"><title>ITF&#45;17_POff3&#45;&gt;tomtom</title>
<path fill="none" stroke="black" d="M2698.5,-71.6966C2698.5,-63.9827 2698.5,-54.7125 2698.5,-46.1124"/>
<polygon fill="black" stroke="black" points="2702,-46.1043 2698.5,-36.1043 2695,-46.1044 2702,-46.1043"/>
</g>
<!-- ITF&#45;17_POff3&#45;&gt;silent -->
<g id="edge80" class="edge"><title>ITF&#45;17_POff3&#45;&gt;silent</title>
<path fill="none" stroke="black" d="M2652.71,-77.8559C2644.33,-75.8685 2635.66,-73.8449 2627.5,-72 2555.06,-55.62 2470.43,-37.9068 2420.83,-27.6689"/>
<polygon fill="black" stroke="black" points="2421.29,-24.1913 2410.79,-25.6009 2419.88,-31.0473 2421.29,-24.1913"/>
</g>
<!-- ITF&#45;14_PWM -->
<g id="node34" class="node"><title>ITF&#45;14_PWM</title>
<ellipse fill="yellow" stroke="black" cx="2292.5" cy="-90" rx="61.99" ry="18"/>
<text text-anchor="middle" x="2292.5" y="-86.3" font-family="Times,serif" font-size="14.00">ITF&#45;14_PWM</text>
</g>
<!-- ITF&#45;14_PWM&#45;&gt;tomtom -->
<g id="edge32" class="edge"><title>ITF&#45;14_PWM&#45;&gt;tomtom</title>
<path fill="none" stroke="black" d="M2337.84,-77.5876C2346.34,-75.6059 2355.17,-73.6535 2363.5,-72 2462.46,-52.3565 2579.01,-35.2666 2645.28,-26.1111"/>
<polygon fill="black" stroke="black" points="2646.05,-29.5391 2655.48,-24.7106 2645.09,-22.6043 2646.05,-29.5391"/>
</g>
<!-- ITF&#45;14_PWM&#45;&gt;oneeye -->
<g id="edge40" class="edge"><title>ITF&#45;14_PWM&#45;&gt;oneeye</title>
<path fill="none" stroke="black" d="M2246.73,-77.7445C2238.35,-75.7684 2229.67,-73.7775 2221.5,-72 2143.1,-54.9515 2119.67,-57.4857 2038.4,-36.0506"/>
<polygon fill="black" stroke="black" points="2039.3,-32.6694 2028.74,-33.463 2037.49,-39.4311 2039.3,-32.6694"/>
</g>
<!-- ITF&#45;14_PWM&#45;&gt;toadkiller -->
<g id="edge67" class="edge"><title>ITF&#45;14_PWM&#45;&gt;toadkiller</title>
<path fill="none" stroke="black" d="M2247.98,-77.4597C2239.24,-75.4441 2230.11,-73.5121 2221.5,-72 2144.49,-58.4811 1921.65,-35.6639 1813.21,-24.9249"/>
<polygon fill="black" stroke="black" points="1813.38,-21.4245 1803.08,-23.9241 1812.69,-28.3906 1813.38,-21.4245"/>
</g>
<!-- Wifi -->
<g id="node35" class="node"><title>Wifi</title>
<ellipse fill="yellow" stroke="black" cx="3255.5" cy="-90" rx="27.0966" ry="18"/>
<text text-anchor="middle" x="3255.5" y="-86.3" font-family="Times,serif" font-size="14.00">Wifi</text>
</g>
<!-- Wifi&#45;&gt;tomtom -->
<g id="edge33" class="edge"><title>Wifi&#45;&gt;tomtom</title>
<path fill="none" stroke="black" d="M3235.04,-77.7909C3230.09,-75.5131 3224.71,-73.3914 3219.5,-72 3028.23,-20.9037 2971.28,-65.4095 2775.5,-36 2767.79,-34.8418 2759.7,-33.3575 2751.78,-31.7496"/>
<polygon fill="black" stroke="black" points="2752.39,-28.3008 2741.88,-29.662 2750.94,-35.1501 2752.39,-28.3008"/>
</g>
<!-- ITF&#45;7_GAIN -->
<g id="node36" class="node"><title>ITF&#45;7_GAIN</title>
<ellipse fill="yellow" stroke="black" cx="2430.5" cy="-90" rx="57.6901" ry="18"/>
<text text-anchor="middle" x="2430.5" y="-86.3" font-family="Times,serif" font-size="14.00">ITF&#45;7_GAIN</text>
</g>
<!-- ITF&#45;7_GAIN&#45;&gt;oneeye -->
<g id="edge37" class="edge"><title>ITF&#45;7_GAIN&#45;&gt;oneeye</title>
<path fill="none" stroke="black" d="M2388.88,-77.4898C2380.52,-75.4473 2371.77,-73.4976 2363.5,-72 2223.29,-46.5963 2181.56,-67.1231 2038.68,-35.9669"/>
<polygon fill="black" stroke="black" points="2039.19,-32.4949 2028.67,-33.7362 2037.67,-39.3274 2039.19,-32.4949"/>
</g>
<!-- ITF&#45;7_GAIN&#45;&gt;goblin -->
<g id="edge70" class="edge"><title>ITF&#45;7_GAIN&#45;&gt;goblin</title>
<path fill="none" stroke="black" d="M2472.52,-77.6065C2480.76,-75.578 2489.38,-73.6038 2497.5,-72 2608.93,-50.002 2638.93,-57.2468 2750.5,-36 2758.29,-34.5162 2766.52,-32.7421 2774.5,-30.9081"/>
<polygon fill="black" stroke="black" points="2775.49,-34.2694 2784.42,-28.5705 2773.89,-27.4558 2775.49,-34.2694"/>
</g>
<!-- ITF&#45;mED&#45;TFT&#45;Screen -->
<g id="node37" class="node"><title>ITF&#45;mED&#45;TFT&#45;Screen</title>
<ellipse fill="green" stroke="black" cx="1292.5" cy="-90" rx="90.9839" ry="18"/>
<text text-anchor="middle" x="1292.5" y="-86.3" font-family="Times,serif" font-size="14.00">ITF&#45;mED&#45;TFT&#45;Screen</text>
</g>
<!-- ITF&#45;mED&#45;TFT&#45;Screen&#45;&gt;croaker -->
<g id="edge47" class="edge"><title>ITF&#45;mED&#45;TFT&#45;Screen&#45;&gt;croaker</title>
<path fill="none" stroke="black" d="M1352.75,-76.4854C1416.82,-63.1769 1517.1,-42.3466 1577.73,-29.7525"/>
<polygon fill="black" stroke="black" points="1578.77,-33.1132 1587.84,-27.6525 1577.34,-26.2594 1578.77,-33.1132"/>
</g>
<!-- ITF&#45;mED&#45;TFT&#45;Screen&#45;&gt;toadkiller -->
<g id="edge64" class="edge"><title>ITF&#45;mED&#45;TFT&#45;Screen&#45;&gt;toadkiller</title>
<path fill="none" stroke="black" d="M1358.06,-77.4342C1369.53,-75.5318 1381.35,-73.6462 1392.5,-72 1519.68,-53.2229 1552.95,-58.6092 1679.5,-36 1683.61,-35.2662 1687.83,-34.4496 1692.08,-33.5824"/>
<polygon fill="black" stroke="black" points="1692.93,-36.9803 1701.98,-31.4822 1691.47,-30.1326 1692.93,-36.9803"/>
</g>
<!-- ITF&#45;mED&#45;OLED&#45;Screen -->
<g id="node38" class="node"><title>ITF&#45;mED&#45;OLED&#45;Screen</title>
<ellipse fill="green" stroke="black" cx="701.5" cy="-90" rx="98.5829" ry="18"/>
<text text-anchor="middle" x="701.5" y="-86.3" font-family="Times,serif" font-size="14.00">ITF&#45;mED&#45;OLED&#45;Screen</text>
</g>
<!-- ITF&#45;mED&#45;OLED&#45;Screen&#45;&gt;croaker -->
<g id="edge48" class="edge"><title>ITF&#45;mED&#45;OLED&#45;Screen&#45;&gt;croaker</title>
<path fill="none" stroke="black" d="M770.436,-77.0188C783.068,-75.1165 796.158,-73.3383 808.5,-72 1080.71,-42.4826 1150.38,-55.2607 1423.5,-36 1475.97,-32.2998 1535.89,-27.2636 1577.53,-23.6344"/>
<polygon fill="black" stroke="black" points="1578.04,-27.1024 1587.7,-22.7437 1577.43,-20.1291 1578.04,-27.1024"/>
</g>
<!-- ITF&#45;mEC&#45;WiFi&#45;UDP&#45;Stream -->
<g id="node39" class="node"><title>ITF&#45;mEC&#45;WiFi&#45;UDP&#45;Stream</title>
<ellipse fill="green" stroke="black" cx="933.5" cy="-90" rx="115.88" ry="18"/>
<text text-anchor="middle" x="933.5" y="-86.3" font-family="Times,serif" font-size="14.00">ITF&#45;mEC&#45;WiFi&#45;UDP&#45;Stream</text>
</g>
<!-- ITF&#45;mEC&#45;WiFi&#45;UDP&#45;Stream&#45;&gt;croaker -->
<g id="edge49" class="edge"><title>ITF&#45;mEC&#45;WiFi&#45;UDP&#45;Stream&#45;&gt;croaker</title>
<path fill="none" stroke="black" d="M1015.8,-77.2993C1030.03,-75.4223 1044.68,-73.5801 1058.5,-72 1158.46,-60.5692 1456.48,-34.1528 1577.53,-23.5375"/>
<polygon fill="black" stroke="black" points="1578,-27.0101 1587.65,-22.6504 1577.39,-20.0368 1578,-27.0101"/>
</g>
<!-- ITF&#45;F_12V -->
<g id="node40" class="node"><title>ITF&#45;F_12V</title>
<ellipse fill="yellow" stroke="black" cx="4802.5" cy="-90" rx="51.1914" ry="18"/>
<text text-anchor="middle" x="4802.5" y="-86.3" font-family="Times,serif" font-size="14.00">ITF&#45;F_12V</text>
</g>
<!-- ITF&#45;F_12V&#45;&gt;retroATL3 -->
<g id="edge51" class="edge"><title>ITF&#45;F_12V&#45;&gt;retroATL3</title>
<path fill="none" stroke="black" d="M4802.5,-71.6966C4802.5,-63.9827 4802.5,-54.7125 4802.5,-46.1124"/>
<polygon fill="black" stroke="black" points="4806,-46.1043 4802.5,-36.1043 4799,-46.1044 4806,-46.1043"/>
</g>
<!-- Motor -->
<g id="node41" class="node"><title>Motor</title>
<ellipse fill="yellow" stroke="black" cx="4904.5" cy="-90" rx="33.2948" ry="18"/>
<text text-anchor="middle" x="4904.5" y="-86.3" font-family="Times,serif" font-size="14.00">Motor</text>
</g>
<!-- Motor&#45;&gt;retroATL3 -->
<g id="edge54" class="edge"><title>Motor&#45;&gt;retroATL3</title>
<path fill="none" stroke="black" d="M4881.47,-76.8069C4866.13,-67.2884 4846.07,-53.7838 4829.94,-42.2209"/>
<polygon fill="black" stroke="black" points="4831.58,-39.0869 4821.43,-36.0344 4827.46,-44.7475 4831.58,-39.0869"/>
</g>
<!-- Motor&#45;&gt;retroATL3 -->
<g id="edge56" class="edge"><title>Motor&#45;&gt;retroATL3</title>
<path fill="none" stroke="black" d="M4888.5,-74.1548C4875.97,-64.7412 4858.19,-52.3769 4842,-41.7412"/>
<polygon fill="black" stroke="black" points="4843.51,-38.5469 4833.22,-36.04 4839.7,-44.4192 4843.51,-38.5469"/>
</g>
<!-- Tri&#45;Piezo Head -->
<g id="node42" class="node"><title>Tri&#45;Piezo Head</title>
<ellipse fill="yellow" stroke="black" cx="5020.5" cy="-90" rx="64.9885" ry="18"/>
<text text-anchor="middle" x="5020.5" y="-86.3" font-family="Times,serif" font-size="14.00">Tri&#45;Piezo Head</text>
</g>
<!-- Tri&#45;Piezo Head&#45;&gt;retroATL3 -->
<g id="edge55" class="edge"><title>Tri&#45;Piezo Head&#45;&gt;retroATL3</title>
<path fill="none" stroke="black" d="M4976.74,-76.6465C4942.96,-66.306 4896.06,-51.3438 4859.39,-39.2541"/>
<polygon fill="black" stroke="black" points="4860.41,-35.9064 4849.82,-36.0872 4858.22,-42.5519 4860.41,-35.9064"/>
</g>
<!-- Tri&#45;Piezo Head&#45;&gt;retroATL3 -->
<g id="edge58" class="edge"><title>Tri&#45;Piezo Head&#45;&gt;retroATL3</title>
<path fill="none" stroke="black" d="M4982.93,-75.1703C4951.67,-64.6731 4906.5,-50.1063 4869.15,-38.4374"/>
<polygon fill="black" stroke="black" points="4869.93,-35.0137 4859.34,-35.3836 4867.85,-41.6975 4869.93,-35.0137"/>
</g>
<!-- WiFi UDP Stream -->
<g id="node43" class="node"><title>WiFi UDP Stream</title>
<ellipse fill="yellow" stroke="black" cx="1478.5" cy="-90" rx="77.1866" ry="18"/>
<text text-anchor="middle" x="1478.5" y="-86.3" font-family="Times,serif" font-size="14.00">WiFi UDP Stream</text>
</g>
<!-- WiFi UDP Stream&#45;&gt;toadkiller -->
<g id="edge63" class="edge"><title>WiFi UDP Stream&#45;&gt;toadkiller</title>
<path fill="none" stroke="black" d="M1528.44,-76.2423C1574.5,-64.4735 1642.99,-46.9759 1692.12,-34.4265"/>
<polygon fill="black" stroke="black" points="1693.16,-37.7732 1701.98,-31.9068 1691.42,-30.991 1693.16,-37.7732"/>
</g>
<!-- ITF&#45;4_RawSig -->
<g id="node44" class="node"><title>ITF&#45;4_RawSig</title>
<ellipse fill="yellow" stroke="black" cx="3364.5" cy="-90" rx="63.8893" ry="18"/>
<text text-anchor="middle" x="3364.5" y="-86.3" font-family="Times,serif" font-size="14.00">ITF&#45;4_RawSig</text>
</g>
<!-- ITF&#45;4_RawSig&#45;&gt;goblin -->
<g id="edge71" class="edge"><title>ITF&#45;4_RawSig&#45;&gt;goblin</title>
<path fill="none" stroke="black" d="M3315.04,-78.6251C3304.28,-76.206 3293.02,-73.811 3282.5,-72 3132.18,-46.1127 2952.56,-29.8889 2868.73,-22.9344"/>
<polygon fill="black" stroke="black" points="2869,-19.4452 2858.75,-22.1126 2868.43,-26.4216 2869,-19.4452"/>
</g>
<!-- ITF&#45;4_RawSig&#45;&gt;goblin -->
<g id="edge75" class="edge"><title>ITF&#45;4_RawSig&#45;&gt;goblin</title>
<path fill="none" stroke="black" d="M3322.51,-76.3491C3315.21,-74.7459 3307.68,-73.2368 3300.5,-72 3143.81,-45.015 2955.27,-28.5304 2868.8,-22.0997"/>
<polygon fill="black" stroke="black" points="2869,-18.605 2858.78,-21.3653 2868.49,-25.5863 2869,-18.605"/>
</g>
<!-- ITF&#45;3_ENV_signal_envelope -->
<g id="node45" class="node"><title>ITF&#45;3_ENV_signal_envelope</title>
<ellipse fill="yellow" stroke="black" cx="3561.5" cy="-90" rx="115.08" ry="18"/>
<text text-anchor="middle" x="3561.5" y="-86.3" font-family="Times,serif" font-size="14.00">ITF&#45;3_ENV_signal_envelope</text>
</g>
<!-- ITF&#45;3_ENV_signal_envelope&#45;&gt;goblin -->
<g id="edge76" class="edge"><title>ITF&#45;3_ENV_signal_envelope&#45;&gt;goblin</title>
<path fill="none" stroke="black" d="M3480.2,-77.2567C3465.98,-75.374 3451.32,-73.541 3437.5,-72 3225.81,-48.3977 2972.18,-29.541 2868.82,-22.2541"/>
<polygon fill="black" stroke="black" points="2868.93,-18.7534 2858.71,-21.5446 2868.44,-25.7362 2868.93,-18.7534"/>
</g>
<!-- ITF&#45;mEG_SPI -->
<g id="node46" class="node"><title>ITF&#45;mEG_SPI</title>
<ellipse fill="green" stroke="black" cx="3757.5" cy="-90" rx="63.0888" ry="18"/>
<text text-anchor="middle" x="3757.5" y="-86.3" font-family="Times,serif" font-size="14.00">ITF&#45;mEG_SPI</text>
</g>
<!-- ITF&#45;mEG_SPI&#45;&gt;goblin -->
<g id="edge77" class="edge"><title>ITF&#45;mEG_SPI&#45;&gt;goblin</title>
<path fill="none" stroke="black" d="M3712.79,-77.1974C3703.81,-75.179 3694.39,-73.313 3685.5,-72 3376.46,-26.3779 2999.63,-19.9008 2868.86,-19.0779"/>
<polygon fill="black" stroke="black" points="2868.81,-15.5777 2858.79,-19.0229 2868.77,-22.5776 2868.81,-15.5777"/>
</g>
<!-- ITF&#45;mEM_Alimentation -->
<g id="node47" class="node"><title>ITF&#45;mEM_Alimentation</title>
<ellipse fill="green" stroke="black" cx="485.5" cy="-90" rx="98.5829" ry="18"/>
<text text-anchor="middle" x="485.5" y="-86.3" font-family="Times,serif" font-size="14.00">ITF&#45;mEM_Alimentation</text>
</g>
<!-- ITF&#45;mEM_Alimentation&#45;&gt;mogaba -->
<g id="edge82" class="edge"><title>ITF&#45;mEM_Alimentation&#45;&gt;mogaba</title>
<path fill="none" stroke="black" d="M554.799,-77.1138C567.637,-75.1901 580.953,-73.3799 593.5,-72 846.257,-44.2004 910.885,-54.4073 1164.5,-36 1216.55,-32.2221 1275.91,-27.2821 1317.68,-23.7016"/>
<polygon fill="black" stroke="black" points="1318.24,-27.1663 1327.9,-22.8221 1317.64,-20.1921 1318.24,-27.1663"/>
</g>
</g>
</svg>
