<?xml version="1.0" encoding="UTF-8" standalone="no"?>
<!DOCTYPE svg PUBLIC "-//W3C//DTD SVG 1.1//EN"
 "http://www.w3.org/Graphics/SVG/1.1/DTD/svg11.dtd">
<!-- Generated by graphviz version 2.38.0 (20140413.2041)
 -->
<!-- Title: %3 Pages: 1 -->
<svg width="3855pt" height="116pt"
 viewBox="0.00 0.00 3854.50 116.00" xmlns="http://www.w3.org/2000/svg" xmlns:xlink="http://www.w3.org/1999/xlink">
<g id="graph0" class="graph" transform="scale(1 1) rotate(0) translate(4 112)">
<title>%3</title>
<polygon fill="white" stroke="none" points="-4,4 -4,-112 3850.5,-112 3850.5,4 -4,4"/>
<!-- sleepy -->
<g id="node1" class="node"><title>sleepy</title>
<polygon fill="blue" stroke="black" points="73,-36 0,-36 0,-0 73,-0 73,-36"/>
<text text-anchor="middle" x="36.5" y="-12.4" font-family="Times,serif" font-size="22.00">sleepy</text>
</g>
<!-- tobo -->
<g id="node2" class="node"><title>tobo</title>
<polygon fill="blue" stroke="black" points="2348.5,-36 2292.5,-36 2292.5,-0 2348.5,-0 2348.5,-36"/>
<text text-anchor="middle" x="2320.5" y="-12.4" font-family="Times,serif" font-size="22.00">tobo</text>
</g>
<!-- cletus -->
<g id="node3" class="node"><title>cletus</title>
<polygon fill="blue" stroke="black" points="2904.5,-36 2836.5,-36 2836.5,-0 2904.5,-0 2904.5,-36"/>
<text text-anchor="middle" x="2870.5" y="-12.4" font-family="Times,serif" font-size="22.00">cletus</text>
</g>
<!-- tomtom -->
<g id="node4" class="node"><title>tomtom</title>
<polygon fill="blue" stroke="black" points="1434.5,-36 1348.5,-36 1348.5,-0 1434.5,-0 1434.5,-36"/>
<text text-anchor="middle" x="1391.5" y="-12.4" font-family="Times,serif" font-size="22.00">tomtom</text>
</g>
<!-- doj -->
<g id="node5" class="node"><title>doj</title>
<polygon fill="blue" stroke="black" points="3846.5,-108 3792.5,-108 3792.5,-72 3846.5,-72 3846.5,-108"/>
<text text-anchor="middle" x="3819.5" y="-84.4" font-family="Times,serif" font-size="22.00">doj</text>
</g>
<!-- oneeye -->
<g id="node6" class="node"><title>oneeye</title>
<polygon fill="blue" stroke="black" points="2089.5,-36 2009.5,-36 2009.5,-0 2089.5,-0 2089.5,-36"/>
<text text-anchor="middle" x="2049.5" y="-12.4" font-family="Times,serif" font-size="22.00">oneeye</text>
</g>
<!-- croaker -->
<g id="node7" class="node"><title>croaker</title>
<polygon fill="blue" stroke="black" points="973,-36 890,-36 890,-0 973,-0 973,-36"/>
<text text-anchor="middle" x="931.5" y="-12.4" font-family="Times,serif" font-size="22.00">croaker</text>
</g>
<!-- retroATL3 -->
<g id="node8" class="node"><title>retroATL3</title>
<polygon fill="blue" stroke="black" points="3548,-36 3435,-36 3435,-0 3548,-0 3548,-36"/>
<text text-anchor="middle" x="3491.5" y="-12.4" font-family="Times,serif" font-size="22.00">retroATL3</text>
</g>
<!-- toadkiller -->
<g id="node9" class="node"><title>toadkiller</title>
<polygon fill="blue" stroke="black" points="1642,-36 1541,-36 1541,-0 1642,-0 1642,-36"/>
<text text-anchor="middle" x="1591.5" y="-12.4" font-family="Times,serif" font-size="22.00">toadkiller</text>
</g>
<!-- goblin -->
<g id="node10" class="node"><title>goblin</title>
<polygon fill="blue" stroke="black" points="1940.5,-36 1866.5,-36 1866.5,-0 1940.5,-0 1940.5,-36"/>
<text text-anchor="middle" x="1903.5" y="-12.4" font-family="Times,serif" font-size="22.00">goblin</text>
</g>
<!-- silent -->
<g id="node11" class="node"><title>silent</title>
<polygon fill="blue" stroke="black" points="2222.5,-36 2158.5,-36 2158.5,-0 2222.5,-0 2222.5,-36"/>
<text text-anchor="middle" x="2190.5" y="-12.4" font-family="Times,serif" font-size="22.00">silent</text>
</g>
<!-- mogaba -->
<g id="node12" class="node"><title>mogaba</title>
<polygon fill="blue" stroke="black" points="3154,-36 3067,-36 3067,-0 3154,-0 3154,-36"/>
<text text-anchor="middle" x="3110.5" y="-12.4" font-family="Times,serif" font-size="22.00">mogaba</text>
</g>
<!-- None -->
<g id="node13" class="node"><title>None</title>
<ellipse fill="yellow" stroke="black" cx="36.5" cy="-90" rx="29.795" ry="18"/>
<text text-anchor="middle" x="36.5" y="-86.3" font-family="Times,serif" font-size="14.00">None</text>
</g>
<!-- None&#45;&gt;sleepy -->
<g id="edge1" class="edge"><title>None&#45;&gt;sleepy</title>
<path fill="none" stroke="black" d="M30.6218,-72.055C29.8037,-64.3456 29.5614,-55.0269 29.8949,-46.3642"/>
<polygon fill="black" stroke="black" points="33.3943,-46.4915 30.5872,-36.2753 26.4107,-46.0122 33.3943,-46.4915"/>
</g>
<!-- None&#45;&gt;sleepy -->
<g id="edge2" class="edge"><title>None&#45;&gt;sleepy</title>
<path fill="none" stroke="black" d="M42.3782,-72.055C43.1963,-64.3456 43.4386,-55.0269 43.1051,-46.3642"/>
<polygon fill="black" stroke="black" points="46.5893,-46.0122 42.4128,-36.2753 39.6057,-46.4915 46.5893,-46.0122"/>
</g>
<!-- ITF&#45;A_gnd -->
<g id="node14" class="node"><title>ITF&#45;A_gnd</title>
<ellipse fill="yellow" stroke="black" cx="2320.5" cy="-90" rx="50.8918" ry="18"/>
<text text-anchor="middle" x="2320.5" y="-86.3" font-family="Times,serif" font-size="14.00">ITF&#45;A_gnd</text>
</g>
<!-- ITF&#45;A_gnd&#45;&gt;tobo -->
<g id="edge3" class="edge"><title>ITF&#45;A_gnd&#45;&gt;tobo</title>
<path fill="none" stroke="black" d="M2320.5,-71.6966C2320.5,-63.9827 2320.5,-54.7125 2320.5,-46.1124"/>
<polygon fill="black" stroke="black" points="2324,-46.1043 2320.5,-36.1043 2317,-46.1044 2324,-46.1043"/>
</g>
<!-- ITF&#45;A_gnd&#45;&gt;cletus -->
<g id="edge12" class="edge"><title>ITF&#45;A_gnd&#45;&gt;cletus</title>
<path fill="none" stroke="black" d="M2357.08,-77.3966C2364.45,-75.3618 2372.18,-73.4388 2379.5,-72 2542.4,-39.9898 2739.77,-26.0817 2826.27,-21.2048"/>
<polygon fill="black" stroke="black" points="2826.47,-24.6993 2836.26,-20.6542 2826.09,-17.7099 2826.47,-24.6993"/>
</g>
<!-- ITF&#45;A_gnd&#45;&gt;tomtom -->
<g id="edge20" class="edge"><title>ITF&#45;A_gnd&#45;&gt;tomtom</title>
<path fill="none" stroke="black" d="M2284.31,-77.3215C2276.53,-75.2129 2268.3,-73.2804 2260.5,-72 1940.39,-19.4472 1854.72,-63.5694 1531.5,-36 1502.75,-33.5476 1470.8,-29.7502 1444.69,-26.366"/>
<polygon fill="black" stroke="black" points="1444.99,-22.8757 1434.62,-25.0442 1444.08,-29.8162 1444.99,-22.8757"/>
</g>
<!-- ITF&#45;A_gnd&#45;&gt;oneeye -->
<g id="edge29" class="edge"><title>ITF&#45;A_gnd&#45;&gt;oneeye</title>
<path fill="none" stroke="black" d="M2282.46,-78.036C2275.18,-75.9908 2267.61,-73.9005 2260.5,-72 2205.6,-57.3323 2142.36,-41.6008 2099.54,-31.1211"/>
<polygon fill="black" stroke="black" points="2100.19,-27.6781 2089.65,-28.7052 2098.53,-34.4782 2100.19,-27.6781"/>
</g>
<!-- ITF&#45;A_gnd&#45;&gt;croaker -->
<g id="edge36" class="edge"><title>ITF&#45;A_gnd&#45;&gt;croaker</title>
<path fill="none" stroke="black" d="M2284.32,-77.26C2276.54,-75.1556 2268.31,-73.2403 2260.5,-72 2058.21,-39.8569 1544.16,-44.2635 1339.5,-36 1211.63,-30.837 1061.23,-24.5028 983.654,-21.2161"/>
<polygon fill="black" stroke="black" points="983.339,-17.6997 973.2,-20.773 983.043,-24.6934 983.339,-17.6997"/>
</g>
<!-- ITF&#45;A_gnd&#45;&gt;retroATL3 -->
<g id="edge44" class="edge"><title>ITF&#45;A_gnd&#45;&gt;retroATL3</title>
<path fill="none" stroke="black" d="M2356.39,-77.2105C2363.95,-75.1374 2371.93,-73.2471 2379.5,-72 2723.68,-15.3224 2815.1,-53.0273 3163.5,-36 3253.92,-31.581 3358.33,-26.105 3424.61,-22.5824"/>
<polygon fill="black" stroke="black" points="3425.11,-26.0608 3434.91,-22.0343 3424.74,-19.0707 3425.11,-26.0608"/>
</g>
<!-- ITF&#45;A_gnd&#45;&gt;toadkiller -->
<g id="edge53" class="edge"><title>ITF&#45;A_gnd&#45;&gt;toadkiller</title>
<path fill="none" stroke="black" d="M2283.96,-77.4118C2276.28,-75.3242 2268.17,-73.377 2260.5,-72 2201.58,-61.4251 1806.06,-33.6687 1652.39,-23.135"/>
<polygon fill="black" stroke="black" points="1652.4,-19.6278 1642.19,-22.4366 1651.92,-26.6115 1652.4,-19.6278"/>
</g>
<!-- ITF&#45;A_gnd&#45;&gt;goblin -->
<g id="edge62" class="edge"><title>ITF&#45;A_gnd&#45;&gt;goblin</title>
<path fill="none" stroke="black" d="M2283.25,-77.583C2275.76,-75.5328 2267.92,-73.5564 2260.5,-72 2146.33,-48.0419 2115.75,-54.0721 2000.5,-36 1984.29,-33.458 1966.6,-30.4326 1950.82,-27.6435"/>
<polygon fill="black" stroke="black" points="1951.22,-24.1595 1940.76,-25.8523 1949.99,-31.0511 1951.22,-24.1595"/>
</g>
<!-- ITF&#45;A_gnd&#45;&gt;silent -->
<g id="edge73" class="edge"><title>ITF&#45;A_gnd&#45;&gt;silent</title>
<path fill="none" stroke="black" d="M2293.88,-74.6655C2275.76,-64.9096 2251.44,-51.8161 2230.95,-40.7789"/>
<polygon fill="black" stroke="black" points="2232.59,-37.691 2222.13,-36.0316 2229.28,-43.8543 2232.59,-37.691"/>
</g>
<!-- ITF&#45;A_gnd&#45;&gt;mogaba -->
<g id="edge79" class="edge"><title>ITF&#45;A_gnd&#45;&gt;mogaba</title>
<path fill="none" stroke="black" d="M2356.72,-77.2495C2364.19,-75.2006 2372.05,-73.3097 2379.5,-72 2613.78,-30.8363 2676.33,-54.2263 2913.5,-36 2961.99,-32.2737 3017.14,-27.4655 3056.73,-23.914"/>
<polygon fill="black" stroke="black" points="3057.06,-27.399 3066.7,-23.0166 3056.43,-20.4272 3057.06,-27.399"/>
</g>
<!-- ITF&#45;B_5v -->
<g id="node15" class="node"><title>ITF&#45;B_5v</title>
<ellipse fill="yellow" stroke="black" cx="2049.5" cy="-90" rx="46.2923" ry="18"/>
<text text-anchor="middle" x="2049.5" y="-86.3" font-family="Times,serif" font-size="14.00">ITF&#45;B_5v</text>
</g>
<!-- ITF&#45;B_5v&#45;&gt;tobo -->
<g id="edge4" class="edge"><title>ITF&#45;B_5v&#45;&gt;tobo</title>
<path fill="none" stroke="black" d="M2084.03,-77.9858C2090.8,-75.9242 2097.85,-73.8407 2104.5,-72 2166.51,-54.8253 2239.31,-37.5527 2282.59,-27.5869"/>
<polygon fill="black" stroke="black" points="2283.44,-30.9823 2292.4,-25.3348 2281.87,-24.1596 2283.44,-30.9823"/>
</g>
<!-- ITF&#45;B_5v&#45;&gt;cletus -->
<g id="edge13" class="edge"><title>ITF&#45;B_5v&#45;&gt;cletus</title>
<path fill="none" stroke="black" d="M2082.64,-77.4097C2089.77,-75.2952 2097.33,-73.3379 2104.5,-72 2375.13,-21.515 2707.62,-17.9921 2826.04,-18.5164"/>
<polygon fill="black" stroke="black" points="2826.15,-22.017 2836.17,-18.5737 2826.19,-15.0171 2826.15,-22.017"/>
</g>
<!-- ITF&#45;B_5v&#45;&gt;tomtom -->
<g id="edge21" class="edge"><title>ITF&#45;B_5v&#45;&gt;tomtom</title>
<path fill="none" stroke="black" d="M2016.35,-77.4565C2009.22,-75.3388 2001.67,-73.3685 1994.5,-72 1791.76,-33.2859 1736.88,-56.4448 1531.5,-36 1502.79,-33.1417 1470.84,-29.3121 1444.72,-26.0114"/>
<polygon fill="black" stroke="black" points="1445.01,-22.5202 1434.65,-24.7284 1444.13,-29.4641 1445.01,-22.5202"/>
</g>
<!-- ITF&#45;B_5v&#45;&gt;oneeye -->
<g id="edge30" class="edge"><title>ITF&#45;B_5v&#45;&gt;oneeye</title>
<path fill="none" stroke="black" d="M2049.5,-71.6966C2049.5,-63.9827 2049.5,-54.7125 2049.5,-46.1124"/>
<polygon fill="black" stroke="black" points="2053,-46.1043 2049.5,-36.1043 2046,-46.1044 2053,-46.1043"/>
</g>
<!-- ITF&#45;B_5v&#45;&gt;croaker -->
<g id="edge37" class="edge"><title>ITF&#45;B_5v&#45;&gt;croaker</title>
<path fill="none" stroke="black" d="M2016.38,-77.3037C2009.24,-75.1963 2001.68,-73.2688 1994.5,-72 1944.28,-63.1315 1190.01,-30.1381 983.455,-21.2292"/>
<polygon fill="black" stroke="black" points="983.326,-17.7204 973.185,-20.7866 983.025,-24.7139 983.326,-17.7204"/>
</g>
<!-- ITF&#45;B_5v&#45;&gt;toadkiller -->
<g id="edge54" class="edge"><title>ITF&#45;B_5v&#45;&gt;toadkiller</title>
<path fill="none" stroke="black" d="M2015.71,-77.5723C2008.75,-75.4984 2001.43,-73.5158 1994.5,-72 1874.75,-45.8162 1731.97,-30.7642 1652.54,-23.7925"/>
<polygon fill="black" stroke="black" points="1652.5,-20.2758 1642.24,-22.902 1651.9,-27.2498 1652.5,-20.2758"/>
</g>
<!-- ITF&#45;B_5v&#45;&gt;goblin -->
<g id="edge63" class="edge"><title>ITF&#45;B_5v&#45;&gt;goblin</title>
<path fill="none" stroke="black" d="M2021.35,-75.5033C2000.65,-65.5776 1972.09,-51.8848 1948.27,-40.4647"/>
<polygon fill="black" stroke="black" points="1949.59,-37.2185 1939.06,-36.0512 1946.57,-43.5305 1949.59,-37.2185"/>
</g>
<!-- ITF&#45;B_5v&#45;&gt;silent -->
<g id="edge74" class="edge"><title>ITF&#45;B_5v&#45;&gt;silent</title>
<path fill="none" stroke="black" d="M2077.02,-75.3371C2097.61,-65.1157 2126.11,-50.9683 2149.39,-39.4079"/>
<polygon fill="black" stroke="black" points="2150.96,-42.538 2158.36,-34.9563 2147.85,-36.2681 2150.96,-42.538"/>
</g>
<!-- ITF&#45;B_5v&#45;&gt;mogaba -->
<g id="edge80" class="edge"><title>ITF&#45;B_5v&#45;&gt;mogaba</title>
<path fill="none" stroke="black" d="M2082.61,-77.2743C2089.75,-75.1689 2097.31,-73.2496 2104.5,-72 2459.09,-10.3564 2554.36,-59.4768 2913.5,-36 2962.03,-32.8277 3017.18,-27.9604 3056.76,-24.2455"/>
<polygon fill="black" stroke="black" points="3057.1,-27.7289 3066.72,-23.3034 3056.44,-20.76 3057.1,-27.7289"/>
</g>
<!-- ITF&#45;I_pulse_on -->
<g id="node16" class="node"><title>ITF&#45;I_pulse_on</title>
<ellipse fill="yellow" stroke="black" cx="1020.5" cy="-90" rx="65.7887" ry="18"/>
<text text-anchor="middle" x="1020.5" y="-86.3" font-family="Times,serif" font-size="14.00">ITF&#45;I_pulse_on</text>
</g>
<!-- ITF&#45;I_pulse_on&#45;&gt;tobo -->
<g id="edge5" class="edge"><title>ITF&#45;I_pulse_on&#45;&gt;tobo</title>
<path fill="none" stroke="black" d="M1066.66,-77.0829C1076.14,-75.0469 1086.1,-73.2034 1095.5,-72 1596.56,-7.87399 1729.42,-91.5584 2231.5,-36 2248.3,-34.1408 2266.68,-30.8469 2282.35,-27.6505"/>
<polygon fill="black" stroke="black" points="2283.15,-31.0599 2292.21,-25.5801 2281.71,-24.2092 2283.15,-31.0599"/>
</g>
<!-- ITF&#45;I_pulse_on&#45;&gt;tomtom -->
<g id="edge23" class="edge"><title>ITF&#45;I_pulse_on&#45;&gt;tomtom</title>
<path fill="none" stroke="black" d="M1064.78,-76.626C1072.01,-75.0172 1079.43,-73.4326 1086.5,-72 1174.04,-54.2504 1276.79,-36.5515 1338,-26.7645"/>
<polygon fill="black" stroke="black" points="1338.87,-30.1708 1348.2,-25.1468 1337.77,-23.2573 1338.87,-30.1708"/>
</g>
<!-- ITF&#45;I_pulse_on&#45;&gt;tomtom -->
<g id="edge24" class="edge"><title>ITF&#45;I_pulse_on&#45;&gt;tomtom</title>
<path fill="none" stroke="black" d="M1072.39,-78.8633C1083.06,-76.5171 1094.16,-74.0958 1104.5,-72 1185.95,-55.4859 1280.56,-39.0156 1338.31,-28.9205"/>
<polygon fill="black" stroke="black" points="1339.05,-32.3435 1348.3,-27.1725 1337.84,-25.4483 1339.05,-32.3435"/>
</g>
<!-- ITF&#45;I_pulse_on&#45;&gt;oneeye -->
<g id="edge33" class="edge"><title>ITF&#45;I_pulse_on&#45;&gt;oneeye</title>
<path fill="none" stroke="black" d="M1066.67,-77.1598C1076.15,-75.1179 1086.1,-73.2525 1095.5,-72 1472.06,-21.8058 1571.71,-75.9137 1949.5,-36 1965.73,-34.2849 1983.32,-31.583 1999.16,-28.8338"/>
<polygon fill="black" stroke="black" points="2000.04,-32.2305 2009.28,-27.0302 1998.82,-25.3391 2000.04,-32.2305"/>
</g>
<!-- ITF&#45;I_pulse_on&#45;&gt;croaker -->
<g id="edge39" class="edge"><title>ITF&#45;I_pulse_on&#45;&gt;croaker</title>
<path fill="none" stroke="black" d="M999.858,-72.7646C988.4,-63.7531 973.947,-52.3852 961.285,-42.4261"/>
<polygon fill="black" stroke="black" points="963.296,-39.555 953.272,-36.1239 958.968,-45.0571 963.296,-39.555"/>
</g>
<!-- ITF&#45;I_pulse_on&#45;&gt;toadkiller -->
<g id="edge59" class="edge"><title>ITF&#45;I_pulse_on&#45;&gt;toadkiller</title>
<path fill="none" stroke="black" d="M1067.54,-77.4322C1076.77,-75.4189 1086.41,-73.4949 1095.5,-72 1248.93,-46.7683 1288.93,-52.8722 1443.5,-36 1472.23,-32.8645 1504.07,-29.2278 1530.83,-26.1247"/>
<polygon fill="black" stroke="black" points="1531.3,-29.5944 1540.83,-24.9636 1530.49,-22.6412 1531.3,-29.5944"/>
</g>
<!-- ITF&#45;J_pulse_off -->
<g id="node17" class="node"><title>ITF&#45;J_pulse_off</title>
<ellipse fill="yellow" stroke="black" cx="1591.5" cy="-90" rx="67.6881" ry="18"/>
<text text-anchor="middle" x="1591.5" y="-86.3" font-family="Times,serif" font-size="14.00">ITF&#45;J_pulse_off</text>
</g>
<!-- ITF&#45;J_pulse_off&#45;&gt;tobo -->
<g id="edge6" class="edge"><title>ITF&#45;J_pulse_off&#45;&gt;tobo</title>
<path fill="none" stroke="black" d="M1639.35,-77.2445C1648.95,-75.2222 1659.01,-73.3427 1668.5,-72 1916.76,-36.8692 1982.76,-67.5827 2231.5,-36 2248.27,-33.8707 2266.64,-30.5335 2282.32,-27.3777"/>
<polygon fill="black" stroke="black" points="2283.1,-30.7907 2292.19,-25.3446 2281.69,-23.9347 2283.1,-30.7907"/>
</g>
<!-- ITF&#45;J_pulse_off&#45;&gt;tomtom -->
<g id="edge25" class="edge"><title>ITF&#45;J_pulse_off&#45;&gt;tomtom</title>
<path fill="none" stroke="black" d="M1551.99,-75.1703C1521.21,-64.3998 1478.2,-49.345 1444.45,-37.532"/>
<polygon fill="black" stroke="black" points="1445.34,-34.1358 1434.74,-34.1357 1443.03,-40.7428 1445.34,-34.1358"/>
</g>
<!-- ITF&#45;J_pulse_off&#45;&gt;oneeye -->
<g id="edge34" class="edge"><title>ITF&#45;J_pulse_off&#45;&gt;oneeye</title>
<path fill="none" stroke="black" d="M1640.66,-77.4561C1649.88,-75.4872 1659.46,-73.5731 1668.5,-72 1792.54,-50.4059 1824.97,-54.5548 1949.5,-36 1965.65,-33.5944 1983.21,-30.702 1999.05,-27.9908"/>
<polygon fill="black" stroke="black" points="1999.92,-31.3928 2009.18,-26.2422 1998.73,-24.4948 1999.92,-31.3928"/>
</g>
<!-- ITF&#45;J_pulse_off&#45;&gt;croaker -->
<g id="edge40" class="edge"><title>ITF&#45;J_pulse_off&#45;&gt;croaker</title>
<path fill="none" stroke="black" d="M1543.21,-77.3583C1533.73,-75.3515 1523.83,-73.4487 1514.5,-72 1319.58,-41.7475 1085.12,-26.9031 983.106,-21.4922"/>
<polygon fill="black" stroke="black" points="983.241,-17.9946 973.072,-20.9679 982.876,-24.985 983.241,-17.9946"/>
</g>
<!-- ITF&#45;J_pulse_off&#45;&gt;toadkiller -->
<g id="edge60" class="edge"><title>ITF&#45;J_pulse_off&#45;&gt;toadkiller</title>
<path fill="none" stroke="black" d="M1591.5,-71.6966C1591.5,-63.9827 1591.5,-54.7125 1591.5,-46.1124"/>
<polygon fill="black" stroke="black" points="1595,-46.1043 1591.5,-36.1043 1588,-46.1044 1595,-46.1043"/>
</g>
<!-- ITF&#45;J_pulse_off&#45;&gt;silent -->
<g id="edge75" class="edge"><title>ITF&#45;J_pulse_off&#45;&gt;silent</title>
<path fill="none" stroke="black" d="M1639.78,-77.305C1649.26,-75.3029 1659.16,-73.4154 1668.5,-72 1858.11,-43.2631 1908.42,-61.4551 2098.5,-36 2114.88,-33.807 2132.76,-30.6729 2148.37,-27.6916"/>
<polygon fill="black" stroke="black" points="2149.12,-31.1124 2158.27,-25.7661 2147.78,-24.2413 2149.12,-31.1124"/>
</g>
<!-- ITF&#45;S_3_3v -->
<g id="node18" class="node"><title>ITF&#45;S_3_3v</title>
<ellipse fill="yellow" stroke="black" cx="2800.5" cy="-90" rx="53.8905" ry="18"/>
<text text-anchor="middle" x="2800.5" y="-86.3" font-family="Times,serif" font-size="14.00">ITF&#45;S_3_3v</text>
</g>
<!-- ITF&#45;S_3_3v&#45;&gt;tobo -->
<g id="edge7" class="edge"><title>ITF&#45;S_3_3v&#45;&gt;tobo</title>
<path fill="none" stroke="black" d="M2761.38,-77.5514C2753.52,-75.5038 2745.28,-73.5365 2737.5,-72 2599.32,-44.7083 2432.46,-28.4428 2358.72,-22.0905"/>
<polygon fill="black" stroke="black" points="2358.79,-18.5839 2348.53,-21.225 2358.2,-25.5588 2358.79,-18.5839"/>
</g>
<!-- ITF&#45;S_3_3v&#45;&gt;cletus -->
<g id="edge15" class="edge"><title>ITF&#45;S_3_3v&#45;&gt;cletus</title>
<path fill="none" stroke="black" d="M2816.74,-72.7646C2825.49,-64.0105 2836.47,-53.0328 2846.22,-43.2831"/>
<polygon fill="black" stroke="black" points="2848.78,-45.6699 2853.38,-36.1239 2843.83,-40.7201 2848.78,-45.6699"/>
</g>
<!-- ITF&#45;S_3_3v&#45;&gt;oneeye -->
<g id="edge31" class="edge"><title>ITF&#45;S_3_3v&#45;&gt;oneeye</title>
<path fill="none" stroke="black" d="M2762.12,-77.3211C2754.05,-75.24 2745.55,-73.3185 2737.5,-72 2479.12,-29.678 2409.6,-65.9832 2149.5,-36 2133.28,-34.1306 2115.7,-31.3862 2099.87,-28.6454"/>
<polygon fill="black" stroke="black" points="2100.2,-25.1505 2089.74,-26.8541 2098.98,-32.0434 2100.2,-25.1505"/>
</g>
<!-- ITF&#45;S_3_3v&#45;&gt;toadkiller -->
<g id="edge55" class="edge"><title>ITF&#45;S_3_3v&#45;&gt;toadkiller</title>
<path fill="none" stroke="black" d="M2762.14,-77.1947C2754.07,-75.1227 2745.56,-73.2369 2737.5,-72 2350.59,-12.6431 2248.4,-56.4842 1857.5,-36 1787.17,-32.3145 1706.45,-27.0028 1652.55,-23.301"/>
<polygon fill="black" stroke="black" points="1652.69,-19.8024 1642.47,-22.6062 1652.21,-26.7858 1652.69,-19.8024"/>
</g>
<!-- ITF&#45;S_3_3v&#45;&gt;goblin -->
<g id="edge64" class="edge"><title>ITF&#45;S_3_3v&#45;&gt;goblin</title>
<path fill="none" stroke="black" d="M2762.13,-77.2441C2754.07,-75.1686 2745.56,-73.2688 2737.5,-72 2413.55,-20.9874 2326.42,-72.3768 2000.5,-36 1984.19,-34.1799 1966.48,-31.335 1950.7,-28.4897"/>
<polygon fill="black" stroke="black" points="1951.12,-25.0079 1940.65,-26.6306 1949.85,-31.8911 1951.12,-25.0079"/>
</g>
<!-- ITF&#45;S_3_3v&#45;&gt;mogaba -->
<g id="edge82" class="edge"><title>ITF&#45;S_3_3v&#45;&gt;mogaba</title>
<path fill="none" stroke="black" d="M2840.75,-77.8035C2848.29,-75.8009 2856.12,-73.7855 2863.5,-72 2929.7,-55.9773 3006.48,-39.8898 3056.64,-29.7128"/>
<polygon fill="black" stroke="black" points="3057.51,-33.1082 3066.62,-27.6956 3056.12,-26.2471 3057.51,-33.1082"/>
</g>
<!-- ITF&#45;mET_Transducer -->
<g id="node19" class="node"><title>ITF&#45;mET_Transducer</title>
<ellipse fill="green" stroke="black" cx="3117.5" cy="-90" rx="89.0842" ry="18"/>
<text text-anchor="middle" x="3117.5" y="-86.3" font-family="Times,serif" font-size="14.00">ITF&#45;mET_Transducer</text>
</g>
<!-- ITF&#45;mET_Transducer&#45;&gt;tobo -->
<g id="edge8" class="edge"><title>ITF&#45;mET_Transducer&#45;&gt;tobo</title>
<path fill="none" stroke="black" d="M3050.83,-78.0072C3037.45,-75.7757 3023.52,-73.6195 3010.5,-72 2762.96,-41.2179 2463.73,-25.7525 2358.88,-20.8094"/>
<polygon fill="black" stroke="black" points="2358.92,-17.3078 2348.77,-20.3371 2358.6,-24.3002 2358.92,-17.3078"/>
</g>
<!-- ITF&#45;mET_Transducer&#45;&gt;tobo -->
<g id="edge11" class="edge"><title>ITF&#45;mET_Transducer&#45;&gt;tobo</title>
<path fill="none" stroke="black" d="M3058.78,-76.3977C3048.72,-74.7578 3038.35,-73.2253 3028.5,-72 2774.25,-40.383 2465.46,-24.9249 2358.77,-20.4303"/>
<polygon fill="black" stroke="black" points="2358.64,-16.922 2348.5,-20.0058 2358.35,-23.916 2358.64,-16.922"/>
</g>
<!-- ITF&#45;mET_Transducer&#45;&gt;cletus -->
<g id="edge16" class="edge"><title>ITF&#45;mET_Transducer&#45;&gt;cletus</title>
<path fill="none" stroke="black" d="M3064.42,-75.5033C3019.63,-63.2923 2956.4,-45.3798 2914.41,-33.0117"/>
<polygon fill="black" stroke="black" points="2915.33,-29.632 2904.74,-30.1497 2913.34,-36.3441 2915.33,-29.632"/>
</g>
<!-- ITF&#45;mET_Transducer&#45;&gt;cletus -->
<g id="edge19" class="edge"><title>ITF&#45;mET_Transducer&#45;&gt;cletus</title>
<path fill="none" stroke="black" d="M3071.91,-74.496C3026.94,-61.2699 2958.83,-42.0148 2914.43,-30.0124"/>
<polygon fill="black" stroke="black" points="2915.08,-26.5616 2904.51,-27.3459 2913.26,-33.3217 2915.08,-26.5616"/>
</g>
<!-- ITF&#45;mET_Transducer&#45;&gt;retroATL3 -->
<g id="edge47" class="edge"><title>ITF&#45;mET_Transducer&#45;&gt;retroATL3</title>
<path fill="none" stroke="black" d="M3177.79,-76.7268C3245.38,-63.7026 3354.53,-43.281 3424.67,-30.542"/>
<polygon fill="black" stroke="black" points="3425.51,-33.9469 3434.72,-28.7201 3424.26,-27.0591 3425.51,-33.9469"/>
</g>
<!-- ITF&#45;mET_Transducer&#45;&gt;retroATL3 -->
<g id="edge51" class="edge"><title>ITF&#45;mET_Transducer&#45;&gt;retroATL3</title>
<path fill="none" stroke="black" d="M3183.13,-77.6755C3250.95,-65.3642 3356.15,-45.6956 3424.48,-32.5678"/>
<polygon fill="black" stroke="black" points="3425.54,-35.9275 3434.7,-30.5996 3424.22,-29.0538 3425.54,-35.9275"/>
</g>
<!-- ITF&#45;R_reserved -->
<g id="node20" class="node"><title>ITF&#45;R_reserved</title>
<ellipse fill="yellow" stroke="black" cx="2661.5" cy="-90" rx="66.8882" ry="18"/>
<text text-anchor="middle" x="2661.5" y="-86.3" font-family="Times,serif" font-size="14.00">ITF&#45;R_reserved</text>
</g>
<!-- ITF&#45;R_reserved&#45;&gt;tobo -->
<g id="edge9" class="edge"><title>ITF&#45;R_reserved&#45;&gt;tobo</title>
<path fill="none" stroke="black" d="M2612.07,-77.7725C2603.23,-75.8134 2594.1,-73.8211 2585.5,-72 2504.99,-54.9458 2410.39,-36.3787 2358.81,-26.3792"/>
<polygon fill="black" stroke="black" points="2359.26,-22.9022 2348.78,-24.4378 2357.93,-29.7746 2359.26,-22.9022"/>
</g>
<!-- ITF&#45;R_reserved&#45;&gt;goblin -->
<g id="edge68" class="edge"><title>ITF&#45;R_reserved&#45;&gt;goblin</title>
<path fill="none" stroke="black" d="M2614.28,-77.2209C2604.8,-75.2005 2594.87,-73.3278 2585.5,-72 2327.58,-35.4538 2259.2,-66.5318 2000.5,-36 1984.2,-34.0767 1966.49,-31.2061 1950.72,-28.3688"/>
<polygon fill="black" stroke="black" points="1951.13,-24.8867 1940.67,-26.5194 1949.87,-31.7711 1951.13,-24.8867"/>
</g>
<!-- ITF&#45;R_reserved&#45;&gt;silent -->
<g id="edge76" class="edge"><title>ITF&#45;R_reserved&#45;&gt;silent</title>
<path fill="none" stroke="black" d="M2613.4,-77.4683C2604.17,-75.4754 2594.56,-73.5496 2585.5,-72 2452.26,-49.2173 2417.16,-56.1628 2283.5,-36 2266.86,-33.4896 2248.63,-30.2628 2232.75,-27.2963"/>
<polygon fill="black" stroke="black" points="2233.17,-23.8144 2222.7,-25.3947 2231.87,-30.6924 2233.17,-23.8144"/>
</g>
<!-- ITF&#45;mET_SMA -->
<g id="node21" class="node"><title>ITF&#45;mET_SMA</title>
<ellipse fill="green" stroke="black" cx="2182.5" cy="-90" rx="68.7879" ry="18"/>
<text text-anchor="middle" x="2182.5" y="-86.3" font-family="Times,serif" font-size="14.00">ITF&#45;mET_SMA</text>
</g>
<!-- ITF&#45;mET_SMA&#45;&gt;tobo -->
<g id="edge10" class="edge"><title>ITF&#45;mET_SMA&#45;&gt;tobo</title>
<path fill="none" stroke="black" d="M2212.78,-73.6382C2233.47,-63.1442 2261.03,-49.1678 2283.09,-37.9777"/>
<polygon fill="black" stroke="black" points="2284.83,-41.0161 2292.17,-33.3708 2281.67,-34.7733 2284.83,-41.0161"/>
</g>
<!-- ITF&#45;mET_SMA&#45;&gt;goblin -->
<g id="edge69" class="edge"><title>ITF&#45;mET_SMA&#45;&gt;goblin</title>
<path fill="none" stroke="black" d="M2134.54,-76.9666C2082.98,-64.0303 2001.55,-43.5995 1950.4,-30.7672"/>
<polygon fill="black" stroke="black" points="1951.14,-27.3453 1940.59,-28.3065 1949.44,-34.1349 1951.14,-27.3453"/>
</g>
<!-- ITF&#45;N_cc_motor_pwm -->
<g id="node22" class="node"><title>ITF&#45;N_cc_motor_pwm</title>
<ellipse fill="yellow" stroke="black" cx="2482.5" cy="-90" rx="93.6835" ry="18"/>
<text text-anchor="middle" x="2482.5" y="-86.3" font-family="Times,serif" font-size="14.00">ITF&#45;N_cc_motor_pwm</text>
</g>
<!-- ITF&#45;N_cc_motor_pwm&#45;&gt;cletus -->
<g id="edge14" class="edge"><title>ITF&#45;N_cc_motor_pwm&#45;&gt;cletus</title>
<path fill="none" stroke="black" d="M2548.32,-77.1255C2627.6,-62.8227 2758.57,-39.1941 2826.53,-26.9331"/>
<polygon fill="black" stroke="black" points="2827.26,-30.3575 2836.48,-25.1375 2826.02,-23.4687 2827.26,-30.3575"/>
</g>
<!-- ITF&#45;N_cc_motor_pwm&#45;&gt;tomtom -->
<g id="edge28" class="edge"><title>ITF&#45;N_cc_motor_pwm&#45;&gt;tomtom</title>
<path fill="none" stroke="black" d="M2417.64,-76.9639C2405.34,-75.0303 2392.55,-73.2551 2380.5,-72 2004.86,-32.8818 1907.92,-66.7866 1531.5,-36 1502.74,-33.6478 1470.79,-29.8583 1444.68,-26.4535"/>
<polygon fill="black" stroke="black" points="1444.99,-22.9635 1434.61,-25.1222 1444.07,-29.903 1444.99,-22.9635"/>
</g>
<!-- ITF&#45;N_cc_motor_pwm&#45;&gt;oneeye -->
<g id="edge35" class="edge"><title>ITF&#45;N_cc_motor_pwm&#45;&gt;oneeye</title>
<path fill="none" stroke="black" d="M2414.48,-77.5612C2403.14,-75.6827 2391.49,-73.7719 2380.5,-72 2277.92,-55.4588 2252.05,-52.7075 2149.5,-36 2133.39,-33.3752 2115.83,-30.4224 2099.99,-27.7232"/>
<polygon fill="black" stroke="black" points="2100.31,-24.2267 2089.86,-25.9921 2099.13,-31.1267 2100.31,-24.2267"/>
</g>
<!-- ITF&#45;N_cc_motor_pwm&#45;&gt;retroATL3 -->
<g id="edge46" class="edge"><title>ITF&#45;N_cc_motor_pwm&#45;&gt;retroATL3</title>
<path fill="none" stroke="black" d="M2548.02,-77.1267C2560.43,-75.1776 2573.34,-73.3552 2585.5,-72 2668.04,-62.7996 3229.23,-32.8004 3424.61,-22.5054"/>
<polygon fill="black" stroke="black" points="3424.93,-25.993 3434.74,-21.9719 3424.57,-19.0027 3424.93,-25.993"/>
</g>
<!-- ITF&#45;N_cc_motor_pwm&#45;&gt;toadkiller -->
<g id="edge61" class="edge"><title>ITF&#45;N_cc_motor_pwm&#45;&gt;toadkiller</title>
<path fill="none" stroke="black" d="M2417.07,-77.119C2404.94,-75.1947 2392.36,-73.3831 2380.5,-72 2344.49,-67.7997 1830.53,-34.434 1652.04,-22.9034"/>
<polygon fill="black" stroke="black" points="1652.23,-19.4088 1642.03,-22.257 1651.78,-26.3943 1652.23,-19.4088"/>
</g>
<!-- ITF&#45;mET_Piezo -->
<g id="node23" class="node"><title>ITF&#45;mET_Piezo</title>
<ellipse fill="green" stroke="black" cx="2941.5" cy="-90" rx="68.7879" ry="18"/>
<text text-anchor="middle" x="2941.5" y="-86.3" font-family="Times,serif" font-size="14.00">ITF&#45;mET_Piezo</text>
</g>
<!-- ITF&#45;mET_Piezo&#45;&gt;cletus -->
<g id="edge17" class="edge"><title>ITF&#45;mET_Piezo&#45;&gt;cletus</title>
<path fill="none" stroke="black" d="M2919.23,-72.7646C2909.47,-64.0964 2898.24,-53.2479 2888.94,-43.5702"/>
<polygon fill="black" stroke="black" points="2891.36,-41.0305 2881.97,-36.1239 2886.25,-45.8154 2891.36,-41.0305"/>
</g>
<!-- ITF&#45;mET_Piezo&#45;&gt;cletus -->
<g id="edge18" class="edge"><title>ITF&#45;mET_Piezo&#45;&gt;cletus</title>
<path fill="none" stroke="black" d="M2930.19,-72.055C2922.28,-63.3492 2911.56,-52.5913 2901.33,-43.0432"/>
<polygon fill="black" stroke="black" points="2903.4,-40.1947 2893.66,-36.0316 2898.68,-45.3617 2903.4,-40.1947"/>
</g>
<!-- ITF&#45;E_signal_envelope -->
<g id="node24" class="node"><title>ITF&#45;E_signal_envelope</title>
<ellipse fill="yellow" stroke="black" cx="843.5" cy="-90" rx="93.6835" ry="18"/>
<text text-anchor="middle" x="843.5" y="-86.3" font-family="Times,serif" font-size="14.00">ITF&#45;E_signal_envelope</text>
</g>
<!-- ITF&#45;E_signal_envelope&#45;&gt;tomtom -->
<g id="edge22" class="edge"><title>ITF&#45;E_signal_envelope&#45;&gt;tomtom</title>
<path fill="none" stroke="black" d="M906.41,-76.5961C916.442,-74.9746 926.725,-73.3946 936.5,-72 1081.15,-51.3631 1253,-32.5412 1338.26,-23.934"/>
<polygon fill="black" stroke="black" points="1338.62,-27.4156 1348.22,-22.9355 1337.92,-20.4505 1338.62,-27.4156"/>
</g>
<!-- ITF&#45;E_signal_envelope&#45;&gt;tomtom -->
<g id="edge27" class="edge"><title>ITF&#45;E_signal_envelope&#45;&gt;tomtom</title>
<path fill="none" stroke="black" d="M914.25,-78.1963C927.657,-76.0287 941.526,-73.851 954.5,-72 1092.75,-52.2763 1255.84,-34.2107 1338.28,-25.136"/>
<polygon fill="black" stroke="black" points="1338.84,-28.5946 1348.4,-24.0216 1338.08,-21.6366 1338.84,-28.5946"/>
</g>
<!-- ITF&#45;E_signal_envelope&#45;&gt;croaker -->
<g id="edge38" class="edge"><title>ITF&#45;E_signal_envelope&#45;&gt;croaker</title>
<path fill="none" stroke="black" d="M864.355,-72.411C875.505,-63.5417 889.427,-52.4675 901.698,-42.706"/>
<polygon fill="black" stroke="black" points="904.229,-45.1653 909.876,-36.201 899.871,-39.6871 904.229,-45.1653"/>
</g>
<!-- ITF&#45;E_signal_envelope&#45;&gt;toadkiller -->
<g id="edge56" class="edge"><title>ITF&#45;E_signal_envelope&#45;&gt;toadkiller</title>
<path fill="none" stroke="black" d="M909.214,-77.1251C921.256,-75.212 933.735,-73.4026 945.5,-72 1165.85,-45.7307 1222.55,-56.6662 1443.5,-36 1472.27,-33.3089 1504.12,-29.7288 1530.88,-26.5481"/>
<polygon fill="black" stroke="black" points="1531.35,-30.0161 1540.87,-25.3514 1530.52,-23.0658 1531.35,-30.0161"/>
</g>
<!-- ITF&#45;E_signal_envelope&#45;&gt;goblin -->
<g id="edge67" class="edge"><title>ITF&#45;E_signal_envelope&#45;&gt;goblin</title>
<path fill="none" stroke="black" d="M904.42,-76.2804C915.064,-74.6358 926.059,-73.1329 936.5,-72 1248.41,-38.1555 1328.31,-54.5176 1641.5,-36 1716.28,-31.5788 1803.42,-25.5245 1856.1,-21.9613"/>
<polygon fill="black" stroke="black" points="1856.42,-25.4477 1866.16,-21.2831 1855.95,-18.4635 1856.42,-25.4477"/>
</g>
<!-- ITF&#45;E_signal_envelope&#45;&gt;goblin -->
<g id="edge71" class="edge"><title>ITF&#45;E_signal_envelope&#45;&gt;goblin</title>
<path fill="none" stroke="black" d="M912.515,-77.7882C926.435,-75.568 940.936,-73.4718 954.5,-72 1266.41,-38.1555 1346.31,-54.5176 1659.5,-36 1728.02,-31.949 1806.92,-26.5268 1856.11,-22.9062"/>
<polygon fill="black" stroke="black" points="1856.42,-26.3924 1866.14,-22.1621 1855.91,-19.4115 1856.42,-26.3924"/>
</g>
<!-- ITF&#45;C_amplified_raw_signal -->
<g id="node25" class="node"><title>ITF&#45;C_amplified_raw_signal</title>
<ellipse fill="yellow" stroke="black" cx="1391.5" cy="-90" rx="114.28" ry="18"/>
<text text-anchor="middle" x="1391.5" y="-86.3" font-family="Times,serif" font-size="14.00">ITF&#45;C_amplified_raw_signal</text>
</g>
<!-- ITF&#45;C_amplified_raw_signal&#45;&gt;tomtom -->
<g id="edge26" class="edge"><title>ITF&#45;C_amplified_raw_signal&#45;&gt;tomtom</title>
<path fill="none" stroke="black" d="M1391.5,-71.6966C1391.5,-63.9827 1391.5,-54.7125 1391.5,-46.1124"/>
<polygon fill="black" stroke="black" points="1395,-46.1043 1391.5,-36.1043 1388,-46.1044 1395,-46.1043"/>
</g>
<!-- ITF&#45;C_amplified_raw_signal&#45;&gt;goblin -->
<g id="edge66" class="edge"><title>ITF&#45;C_amplified_raw_signal&#45;&gt;goblin</title>
<path fill="none" stroke="black" d="M1470.26,-76.8603C1482.05,-75.2231 1494.07,-73.568 1505.5,-72 1631.91,-54.6536 1781.45,-34.3366 1856.22,-24.6685"/>
<polygon fill="black" stroke="black" points="1856.79,-28.1238 1866.26,-23.3764 1855.9,-21.181 1856.79,-28.1238"/>
</g>
<!-- ITF&#45;C_amplified_raw_signal&#45;&gt;goblin -->
<g id="edge70" class="edge"><title>ITF&#45;C_amplified_raw_signal&#45;&gt;goblin</title>
<path fill="none" stroke="black" d="M1478.08,-78.231C1493.26,-76.158 1508.87,-74.0076 1523.5,-72 1643.53,-55.5281 1784.43,-36.3776 1856.32,-26.2102"/>
<polygon fill="black" stroke="black" points="1857.01,-29.6477 1866.42,-24.7767 1856.03,-22.7172 1857.01,-29.6477"/>
</g>
<!-- ITF&#45;G_gain_control -->
<g id="node26" class="node"><title>ITF&#45;G_gain_control</title>
<ellipse fill="yellow" stroke="black" cx="1903.5" cy="-90" rx="81.7856" ry="18"/>
<text text-anchor="middle" x="1903.5" y="-86.3" font-family="Times,serif" font-size="14.00">ITF&#45;G_gain_control</text>
</g>
<!-- ITF&#45;G_gain_control&#45;&gt;oneeye -->
<g id="edge32" class="edge"><title>ITF&#45;G_gain_control&#45;&gt;oneeye</title>
<path fill="none" stroke="black" d="M1935.9,-73.4647C1956.12,-63.7727 1982.42,-51.1609 2004.63,-40.5144"/>
<polygon fill="black" stroke="black" points="2006.36,-43.5655 2013.86,-36.0861 2003.33,-37.2535 2006.36,-43.5655"/>
</g>
<!-- ITF&#45;G_gain_control&#45;&gt;goblin -->
<g id="edge65" class="edge"><title>ITF&#45;G_gain_control&#45;&gt;goblin</title>
<path fill="none" stroke="black" d="M1903.5,-71.6966C1903.5,-63.9827 1903.5,-54.7125 1903.5,-46.1124"/>
<polygon fill="black" stroke="black" points="1907,-46.1043 1903.5,-36.1043 1900,-46.1044 1907,-46.1043"/>
</g>
<!-- ITF&#45;mED&#45;TFT&#45;Screen -->
<g id="node27" class="node"><title>ITF&#45;mED&#45;TFT&#45;Screen</title>
<ellipse fill="green" stroke="black" cx="640.5" cy="-90" rx="90.9839" ry="18"/>
<text text-anchor="middle" x="640.5" y="-86.3" font-family="Times,serif" font-size="14.00">ITF&#45;mED&#45;TFT&#45;Screen</text>
</g>
<!-- ITF&#45;mED&#45;TFT&#45;Screen&#45;&gt;croaker -->
<g id="edge41" class="edge"><title>ITF&#45;mED&#45;TFT&#45;Screen&#45;&gt;croaker</title>
<path fill="none" stroke="black" d="M695.92,-75.6688C748.947,-62.9131 828.291,-43.827 879.978,-31.3935"/>
<polygon fill="black" stroke="black" points="881.027,-34.7411 889.931,-28.9994 879.39,-27.9353 881.027,-34.7411"/>
</g>
<!-- ITF&#45;mED&#45;TFT&#45;Screen&#45;&gt;toadkiller -->
<g id="edge58" class="edge"><title>ITF&#45;mED&#45;TFT&#45;Screen&#45;&gt;toadkiller</title>
<path fill="none" stroke="black" d="M704.091,-77.0406C716.148,-75.0997 728.685,-73.3023 740.5,-72 1051.47,-37.7247 1131.72,-61.8635 1443.5,-36 1472.3,-33.6112 1504.15,-30.0694 1530.9,-26.8361"/>
<polygon fill="black" stroke="black" points="1531.39,-30.3028 1540.89,-25.615 1530.54,-23.3546 1531.39,-30.3028"/>
</g>
<!-- ITF&#45;mED&#45;OLED&#45;Screen -->
<g id="node28" class="node"><title>ITF&#45;mED&#45;OLED&#45;Screen</title>
<ellipse fill="green" stroke="black" cx="432.5" cy="-90" rx="98.5829" ry="18"/>
<text text-anchor="middle" x="432.5" y="-86.3" font-family="Times,serif" font-size="14.00">ITF&#45;mED&#45;OLED&#45;Screen</text>
</g>
<!-- ITF&#45;mED&#45;OLED&#45;Screen&#45;&gt;croaker -->
<g id="edge42" class="edge"><title>ITF&#45;mED&#45;OLED&#45;Screen&#45;&gt;croaker</title>
<path fill="none" stroke="black" d="M503.923,-77.5367C516.119,-75.6424 528.668,-73.7329 540.5,-72 661.878,-54.2228 804.771,-35.3822 879.684,-25.6649"/>
<polygon fill="black" stroke="black" points="880.327,-29.1109 889.795,-24.3553 879.428,-22.1689 880.327,-29.1109"/>
</g>
<!-- ITF&#45;mEC&#45;WiFi&#45;UDP&#45;Stream -->
<g id="node29" class="node"><title>ITF&#45;mEC&#45;WiFi&#45;UDP&#45;Stream</title>
<ellipse fill="green" stroke="black" cx="200.5" cy="-90" rx="115.88" ry="18"/>
<text text-anchor="middle" x="200.5" y="-86.3" font-family="Times,serif" font-size="14.00">ITF&#45;mEC&#45;WiFi&#45;UDP&#45;Stream</text>
</g>
<!-- ITF&#45;mEC&#45;WiFi&#45;UDP&#45;Stream&#45;&gt;croaker -->
<g id="edge43" class="edge"><title>ITF&#45;mEC&#45;WiFi&#45;UDP&#45;Stream&#45;&gt;croaker</title>
<path fill="none" stroke="black" d="M282.137,-77.2273C296.249,-75.3584 310.788,-73.5376 324.5,-72 529.753,-48.9835 775.006,-30.2461 879.849,-22.6491"/>
<polygon fill="black" stroke="black" points="880.127,-26.1382 889.849,-21.9275 879.623,-19.1564 880.127,-26.1382"/>
</g>
<!-- ITF&#45;F_12V -->
<g id="node30" class="node"><title>ITF&#45;F_12V</title>
<ellipse fill="yellow" stroke="black" cx="3491.5" cy="-90" rx="51.1914" ry="18"/>
<text text-anchor="middle" x="3491.5" y="-86.3" font-family="Times,serif" font-size="14.00">ITF&#45;F_12V</text>
</g>
<!-- ITF&#45;F_12V&#45;&gt;retroATL3 -->
<g id="edge45" class="edge"><title>ITF&#45;F_12V&#45;&gt;retroATL3</title>
<path fill="none" stroke="black" d="M3491.5,-71.6966C3491.5,-63.9827 3491.5,-54.7125 3491.5,-46.1124"/>
<polygon fill="black" stroke="black" points="3495,-46.1043 3491.5,-36.1043 3488,-46.1044 3495,-46.1043"/>
</g>
<!-- ITF&#45;F_12V&#45;&gt;mogaba -->
<g id="edge78" class="edge"><title>ITF&#45;F_12V&#45;&gt;mogaba</title>
<path fill="none" stroke="black" d="M3450.3,-79.0645C3441.11,-76.5555 3431.48,-74.0071 3422.5,-72 3332.43,-51.8704 3226.56,-35.8448 3164.1,-26.8852"/>
<polygon fill="black" stroke="black" points="3164.47,-23.4036 3154.08,-25.4551 3163.48,-30.3333 3164.47,-23.4036"/>
</g>
<!-- ITF&#45;F_12V&#45;&gt;mogaba -->
<g id="edge81" class="edge"><title>ITF&#45;F_12V&#45;&gt;mogaba</title>
<path fill="none" stroke="black" d="M3457.96,-76.3318C3452.17,-74.7687 3446.21,-73.2751 3440.5,-72 3344.35,-50.5134 3230.21,-33.7027 3164.38,-25.1705"/>
<polygon fill="black" stroke="black" points="3164.6,-21.6706 3154.24,-23.8728 3163.72,-28.6139 3164.6,-21.6706"/>
</g>
<!-- Motor -->
<g id="node31" class="node"><title>Motor</title>
<ellipse fill="yellow" stroke="black" cx="3593.5" cy="-90" rx="33.2948" ry="18"/>
<text text-anchor="middle" x="3593.5" y="-86.3" font-family="Times,serif" font-size="14.00">Motor</text>
</g>
<!-- Motor&#45;&gt;retroATL3 -->
<g id="edge48" class="edge"><title>Motor&#45;&gt;retroATL3</title>
<path fill="none" stroke="black" d="M3570.47,-76.8069C3555.13,-67.2884 3535.07,-53.7838 3518.94,-42.2209"/>
<polygon fill="black" stroke="black" points="3520.58,-39.0869 3510.43,-36.0344 3516.46,-44.7475 3520.58,-39.0869"/>
</g>
<!-- Motor&#45;&gt;retroATL3 -->
<g id="edge50" class="edge"><title>Motor&#45;&gt;retroATL3</title>
<path fill="none" stroke="black" d="M3577.5,-74.1548C3564.97,-64.7412 3547.19,-52.3769 3531,-41.7412"/>
<polygon fill="black" stroke="black" points="3532.51,-38.5469 3522.22,-36.04 3528.7,-44.4192 3532.51,-38.5469"/>
</g>
<!-- Tri&#45;Piezo Head -->
<g id="node32" class="node"><title>Tri&#45;Piezo Head</title>
<ellipse fill="yellow" stroke="black" cx="3709.5" cy="-90" rx="64.9885" ry="18"/>
<text text-anchor="middle" x="3709.5" y="-86.3" font-family="Times,serif" font-size="14.00">Tri&#45;Piezo Head</text>
</g>
<!-- Tri&#45;Piezo Head&#45;&gt;retroATL3 -->
<g id="edge49" class="edge"><title>Tri&#45;Piezo Head&#45;&gt;retroATL3</title>
<path fill="none" stroke="black" d="M3665.74,-76.6465C3631.96,-66.306 3585.06,-51.3438 3548.39,-39.2541"/>
<polygon fill="black" stroke="black" points="3549.41,-35.9064 3538.82,-36.0872 3547.22,-42.5519 3549.41,-35.9064"/>
</g>
<!-- Tri&#45;Piezo Head&#45;&gt;retroATL3 -->
<g id="edge52" class="edge"><title>Tri&#45;Piezo Head&#45;&gt;retroATL3</title>
<path fill="none" stroke="black" d="M3671.93,-75.1703C3640.67,-64.6731 3595.5,-50.1063 3558.15,-38.4374"/>
<polygon fill="black" stroke="black" points="3558.93,-35.0137 3548.34,-35.3836 3556.85,-41.6975 3558.93,-35.0137"/>
</g>
<!-- WiFi UDP Stream -->
<g id="node33" class="node"><title>WiFi UDP Stream</title>
<ellipse fill="yellow" stroke="black" cx="1181.5" cy="-90" rx="77.1866" ry="18"/>
<text text-anchor="middle" x="1181.5" y="-86.3" font-family="Times,serif" font-size="14.00">WiFi UDP Stream</text>
</g>
<!-- WiFi UDP Stream&#45;&gt;toadkiller -->
<g id="edge57" class="edge"><title>WiFi UDP Stream&#45;&gt;toadkiller</title>
<path fill="none" stroke="black" d="M1238.08,-77.686C1248.2,-75.7361 1258.65,-73.7693 1268.5,-72 1359.68,-55.6144 1465.72,-38.6042 1530.72,-28.4102"/>
<polygon fill="black" stroke="black" points="1531.45,-31.8383 1540.79,-26.8337 1530.37,-24.9225 1531.45,-31.8383"/>
</g>
<!-- ITF&#45;mEG_SPI -->
<g id="node34" class="node"><title>ITF&#45;mEG_SPI</title>
<ellipse fill="green" stroke="black" cx="1740.5" cy="-90" rx="63.0888" ry="18"/>
<text text-anchor="middle" x="1740.5" y="-86.3" font-family="Times,serif" font-size="14.00">ITF&#45;mEG_SPI</text>
</g>
<!-- ITF&#45;mEG_SPI&#45;&gt;goblin -->
<g id="edge72" class="edge"><title>ITF&#45;mEG_SPI&#45;&gt;goblin</title>
<path fill="none" stroke="black" d="M1773.88,-74.6655C1797.85,-64.3702 1830.48,-50.3581 1857,-38.9681"/>
<polygon fill="black" stroke="black" points="1858.66,-42.0642 1866.47,-34.9022 1855.9,-35.6323 1858.66,-42.0642"/>
</g>
<!-- ITF&#45;mEM_Alimentation -->
<g id="node35" class="node"><title>ITF&#45;mEM_Alimentation</title>
<ellipse fill="green" stroke="black" cx="3323.5" cy="-90" rx="98.5829" ry="18"/>
<text text-anchor="middle" x="3323.5" y="-86.3" font-family="Times,serif" font-size="14.00">ITF&#45;mEM_Alimentation</text>
</g>
<!-- ITF&#45;mEM_Alimentation&#45;&gt;mogaba -->
<g id="edge77" class="edge"><title>ITF&#45;mEM_Alimentation&#45;&gt;mogaba</title>
<path fill="none" stroke="black" d="M3277.81,-73.9832C3244.4,-63.0039 3198.98,-48.0791 3163.9,-36.5495"/>
<polygon fill="black" stroke="black" points="3164.89,-33.1908 3154.3,-33.3937 3162.71,-39.8409 3164.89,-33.1908"/>
</g>
</g>
</svg>
