<?xml version="1.0" encoding="UTF-8" standalone="no"?>
<!DOCTYPE svg PUBLIC "-//W3C//DTD SVG 1.1//EN"
 "http://www.w3.org/Graphics/SVG/1.1/DTD/svg11.dtd">
<!-- Generated by graphviz version 2.38.0 (20140413.2041)
 -->
<!-- Title: %3 Pages: 1 -->
<svg width="1497pt" height="764pt"
 viewBox="0.00 0.00 1496.63 764.00" xmlns="http://www.w3.org/2000/svg" xmlns:xlink="http://www.w3.org/1999/xlink">
<g id="graph0" class="graph" transform="scale(1 1) rotate(0) translate(4 760)">
<title>%3</title>
<polygon fill="white" stroke="none" points="-4,4 -4,-760 1492.63,-760 1492.63,4 -4,4"/>
<!-- sleepy -->
<g id="node1" class="node"><title>sleepy</title>
<polygon fill="blue" stroke="black" points="202.5,-756 129.5,-756 129.5,-720 202.5,-720 202.5,-756"/>
<text text-anchor="middle" x="166" y="-732.4" font-family="Times,serif" font-size="22.00">sleepy</text>
</g>
<!-- tobo -->
<g id="node2" class="node"><title>tobo</title>
<polygon fill="blue" stroke="black" points="704,-540 648,-540 648,-504 704,-504 704,-540"/>
<text text-anchor="middle" x="676" y="-516.4" font-family="Times,serif" font-size="22.00">tobo</text>
</g>
<!-- ITF&#45;mET_Transducer -->
<g id="node18" class="node"><title>ITF&#45;mET_Transducer</title>
<ellipse fill="green" stroke="black" cx="457" cy="-162" rx="89.0842" ry="18"/>
<text text-anchor="middle" x="457" y="-158.3" font-family="Times,serif" font-size="14.00">ITF&#45;mET_Transducer</text>
</g>
<!-- tobo&#45;&gt;ITF&#45;mET_Transducer -->
<g id="edge9" class="edge"><title>tobo&#45;&gt;ITF&#45;mET_Transducer</title>
<path fill="none" stroke="black" d="M647.667,-517.168C586.386,-506.552 448,-471.214 448,-379 448,-379 448,-379 448,-305 448,-264.996 448,-218.653 450.292,-190.08"/>
<polygon fill="red" stroke="black" points="453.783,-190.346 451.288,-180.049 446.817,-189.655 453.783,-190.346"/>
</g>
<!-- ITF&#45;R_reserved -->
<g id="node19" class="node"><title>ITF&#45;R_reserved</title>
<ellipse fill="yellow" stroke="black" cx="599" cy="-450" rx="66.8882" ry="18"/>
<text text-anchor="middle" x="599" y="-446.3" font-family="Times,serif" font-size="14.00">ITF&#45;R_reserved</text>
</g>
<!-- tobo&#45;&gt;ITF&#45;R_reserved -->
<g id="edge7" class="edge"><title>tobo&#45;&gt;ITF&#45;R_reserved</title>
<path fill="none" stroke="black" d="M656.966,-503.697C647.147,-494.77 635.035,-483.759 624.426,-474.115"/>
<polygon fill="red" stroke="black" points="626.775,-471.52 617.021,-467.383 622.066,-476.699 626.775,-471.52"/>
</g>
<!-- ITF&#45;mET_SMA -->
<g id="node20" class="node"><title>ITF&#45;mET_SMA</title>
<ellipse fill="green" stroke="black" cx="753" cy="-450" rx="68.7879" ry="18"/>
<text text-anchor="middle" x="753" y="-446.3" font-family="Times,serif" font-size="14.00">ITF&#45;mET_SMA</text>
</g>
<!-- tobo&#45;&gt;ITF&#45;mET_SMA -->
<g id="edge8" class="edge"><title>tobo&#45;&gt;ITF&#45;mET_SMA</title>
<path fill="none" stroke="black" d="M695.034,-503.697C704.853,-494.77 716.965,-483.759 727.574,-474.115"/>
<polygon fill="red" stroke="black" points="729.934,-476.699 734.979,-467.383 725.225,-471.52 729.934,-476.699"/>
</g>
<!-- cletus -->
<g id="node3" class="node"><title>cletus</title>
<polygon fill="blue" stroke="black" points="491,-108 423,-108 423,-72 491,-72 491,-108"/>
<text text-anchor="middle" x="457" y="-84.4" font-family="Times,serif" font-size="22.00">cletus</text>
</g>
<!-- cletus&#45;&gt;ITF&#45;mET_Transducer -->
<g id="edge17" class="edge"><title>cletus&#45;&gt;ITF&#45;mET_Transducer</title>
<path fill="none" stroke="black" d="M462.895,-108.104C463.701,-115.791 463.937,-125.054 463.604,-133.665"/>
<polygon fill="red" stroke="black" points="460.109,-133.48 462.916,-143.697 467.092,-133.96 460.109,-133.48"/>
</g>
<!-- ITF&#45;mET_Piezo -->
<g id="node22" class="node"><title>ITF&#45;mET_Piezo</title>
<ellipse fill="green" stroke="black" cx="457" cy="-18" rx="68.7879" ry="18"/>
<text text-anchor="middle" x="457" y="-14.3" font-family="Times,serif" font-size="14.00">ITF&#45;mET_Piezo</text>
</g>
<!-- cletus&#45;&gt;ITF&#45;mET_Piezo -->
<g id="edge16" class="edge"><title>cletus&#45;&gt;ITF&#45;mET_Piezo</title>
<path fill="none" stroke="black" d="M451.084,-71.6966C450.289,-63.9827 450.062,-54.7125 450.405,-46.1124"/>
<polygon fill="red" stroke="black" points="453.898,-46.3243 451.105,-36.1043 446.915,-45.8356 453.898,-46.3243"/>
</g>
<!-- doj -->
<g id="node4" class="node"><title>doj</title>
<polygon fill="blue" stroke="black" points="490,-756 436,-756 436,-720 490,-720 490,-756"/>
<text text-anchor="middle" x="463" y="-732.4" font-family="Times,serif" font-size="22.00">doj</text>
</g>
<!-- oneeye -->
<g id="node5" class="node"><title>oneeye</title>
<polygon fill="blue" stroke="black" points="1080,-540 1000,-540 1000,-504 1080,-504 1080,-540"/>
<text text-anchor="middle" x="1040" y="-516.4" font-family="Times,serif" font-size="22.00">oneeye</text>
</g>
<!-- ITF&#45;I_pulse_on -->
<g id="node15" class="node"><title>ITF&#45;I_pulse_on</title>
<ellipse fill="yellow" stroke="black" cx="992" cy="-162" rx="65.7887" ry="18"/>
<text text-anchor="middle" x="992" y="-158.3" font-family="Times,serif" font-size="14.00">ITF&#45;I_pulse_on</text>
</g>
<!-- oneeye&#45;&gt;ITF&#45;I_pulse_on -->
<g id="edge22" class="edge"><title>oneeye&#45;&gt;ITF&#45;I_pulse_on</title>
<path fill="none" stroke="black" d="M1080.22,-512.722C1106.5,-505.292 1139.61,-491.766 1160,-468 1186.68,-436.908 1184,-419.969 1184,-379 1184,-379 1184,-379 1184,-305 1184,-264.031 1188.35,-245.574 1160,-216 1151.89,-207.541 1093.28,-190.216 1047.54,-177.671"/>
<polygon fill="red" stroke="black" points="1048.28,-174.244 1037.71,-174.993 1046.44,-180.998 1048.28,-174.244"/>
</g>
<!-- ITF&#45;J_pulse_off -->
<g id="node16" class="node"><title>ITF&#45;J_pulse_off</title>
<ellipse fill="yellow" stroke="black" cx="1316" cy="-162" rx="67.6881" ry="18"/>
<text text-anchor="middle" x="1316" y="-158.3" font-family="Times,serif" font-size="14.00">ITF&#45;J_pulse_off</text>
</g>
<!-- oneeye&#45;&gt;ITF&#45;J_pulse_off -->
<g id="edge23" class="edge"><title>oneeye&#45;&gt;ITF&#45;J_pulse_off</title>
<path fill="none" stroke="black" d="M1080.09,-518.037C1145.75,-510.644 1272.83,-484.943 1312,-396 1342.41,-326.929 1330.63,-234.8 1321.99,-189.893"/>
<polygon fill="red" stroke="black" points="1325.41,-189.148 1320,-180.04 1318.55,-190.535 1325.41,-189.148"/>
</g>
<!-- ITF&#45;N_cc_motor_pwm -->
<g id="node21" class="node"><title>ITF&#45;N_cc_motor_pwm</title>
<ellipse fill="yellow" stroke="black" cx="815" cy="-162" rx="93.6835" ry="18"/>
<text text-anchor="middle" x="815" y="-158.3" font-family="Times,serif" font-size="14.00">ITF&#45;N_cc_motor_pwm</text>
</g>
<!-- oneeye&#45;&gt;ITF&#45;N_cc_motor_pwm -->
<g id="edge24" class="edge"><title>oneeye&#45;&gt;ITF&#45;N_cc_motor_pwm</title>
<path fill="none" stroke="black" d="M1064.58,-503.928C1095.9,-479.958 1146,-433.145 1146,-379 1146,-379 1146,-379 1146,-305 1146,-248.702 982.239,-201.348 885.09,-178.209"/>
<polygon fill="red" stroke="black" points="885.861,-174.795 875.326,-175.912 884.258,-181.609 885.861,-174.795"/>
</g>
<!-- ITF&#45;G_gain_control -->
<g id="node23" class="node"><title>ITF&#45;G_gain_control</title>
<ellipse fill="yellow" stroke="black" cx="998" cy="-450" rx="81.7856" ry="18"/>
<text text-anchor="middle" x="998" y="-446.3" font-family="Times,serif" font-size="14.00">ITF&#45;G_gain_control</text>
</g>
<!-- oneeye&#45;&gt;ITF&#45;G_gain_control -->
<g id="edge21" class="edge"><title>oneeye&#45;&gt;ITF&#45;G_gain_control</title>
<path fill="none" stroke="black" d="M1029.62,-503.697C1024.74,-495.559 1018.81,-485.689 1013.42,-476.701"/>
<polygon fill="red" stroke="black" points="1016.41,-474.879 1008.26,-468.104 1010.41,-478.48 1016.41,-474.879"/>
</g>
<!-- croaker -->
<g id="node6" class="node"><title>croaker</title>
<polygon fill="blue" stroke="black" points="269.5,-252 186.5,-252 186.5,-216 269.5,-216 269.5,-252"/>
<text text-anchor="middle" x="228" y="-228.4" font-family="Times,serif" font-size="22.00">croaker</text>
</g>
<!-- Screen -->
<g id="node25" class="node"><title>Screen</title>
<ellipse fill="yellow" stroke="black" cx="221" cy="-162" rx="34.394" ry="18"/>
<text text-anchor="middle" x="221" y="-158.3" font-family="Times,serif" font-size="14.00">Screen</text>
</g>
<!-- croaker&#45;&gt;Screen -->
<g id="edge28" class="edge"><title>croaker&#45;&gt;Screen</title>
<path fill="none" stroke="black" d="M226.27,-215.697C225.498,-207.983 224.571,-198.712 223.711,-190.112"/>
<polygon fill="red" stroke="black" points="227.188,-189.706 222.71,-180.104 220.223,-190.403 227.188,-189.706"/>
</g>
<!-- WiFi -->
<g id="node26" class="node"><title>WiFi</title>
<ellipse fill="yellow" stroke="black" cx="303" cy="-162" rx="29.4969" ry="18"/>
<text text-anchor="middle" x="303" y="-158.3" font-family="Times,serif" font-size="14.00">WiFi</text>
</g>
<!-- croaker&#45;&gt;WiFi -->
<g id="edge29" class="edge"><title>croaker&#45;&gt;WiFi</title>
<path fill="none" stroke="black" d="M246.539,-215.697C256.592,-206.314 269.112,-194.629 279.806,-184.648"/>
<polygon fill="red" stroke="black" points="282.287,-187.12 287.209,-177.738 277.51,-182.003 282.287,-187.12"/>
</g>
<!-- retroATL3 -->
<g id="node7" class="node"><title>retroATL3</title>
<polygon fill="blue" stroke="black" points="361.5,-108 248.5,-108 248.5,-72 361.5,-72 361.5,-108"/>
<text text-anchor="middle" x="305" y="-84.4" font-family="Times,serif" font-size="22.00">retroATL3</text>
</g>
<!-- retroATL3&#45;&gt;ITF&#45;mET_Transducer -->
<g id="edge37" class="edge"><title>retroATL3&#45;&gt;ITF&#45;mET_Transducer</title>
<path fill="none" stroke="black" d="M347.99,-108.084C370.265,-117.869 397.17,-130.212 418.724,-140.515"/>
<polygon fill="red" stroke="black" points="417.381,-143.753 427.909,-144.941 420.419,-137.447 417.381,-143.753"/>
</g>
<!-- Motor -->
<g id="node28" class="node"><title>Motor</title>
<ellipse fill="yellow" stroke="black" cx="189" cy="-18" rx="33.2948" ry="18"/>
<text text-anchor="middle" x="189" y="-14.3" font-family="Times,serif" font-size="14.00">Motor</text>
</g>
<!-- retroATL3&#45;&gt;Motor -->
<g id="edge36" class="edge"><title>retroATL3&#45;&gt;Motor</title>
<path fill="none" stroke="black" d="M270.726,-71.8761C253.158,-61.9039 232.161,-49.2853 215.782,-38.8763"/>
<polygon fill="red" stroke="black" points="217.511,-35.8267 207.21,-33.3517 213.719,-41.7107 217.511,-35.8267"/>
</g>
<!-- Tri&#45;Piezo Head -->
<g id="node29" class="node"><title>Tri&#45;Piezo Head</title>
<ellipse fill="yellow" stroke="black" cx="305" cy="-18" rx="64.9885" ry="18"/>
<text text-anchor="middle" x="305" y="-14.3" font-family="Times,serif" font-size="14.00">Tri&#45;Piezo Head</text>
</g>
<!-- retroATL3&#45;&gt;Tri&#45;Piezo Head -->
<g id="edge38" class="edge"><title>retroATL3&#45;&gt;Tri&#45;Piezo Head</title>
<path fill="none" stroke="black" d="M299.084,-71.6966C298.289,-63.9827 298.062,-54.7125 298.405,-46.1124"/>
<polygon fill="red" stroke="black" points="301.898,-46.3243 299.105,-36.1043 294.915,-45.8356 301.898,-46.3243"/>
</g>
<!-- toadkiller -->
<g id="node8" class="node"><title>toadkiller</title>
<polygon fill="blue" stroke="black" points="922.5,-252 821.5,-252 821.5,-216 922.5,-216 922.5,-252"/>
<text text-anchor="middle" x="872" y="-228.4" font-family="Times,serif" font-size="22.00">toadkiller</text>
</g>
<!-- ITF&#45;E_signal_envelope -->
<g id="node30" class="node"><title>ITF&#45;E_signal_envelope</title>
<ellipse fill="yellow" stroke="black" cx="872" cy="-306" rx="93.6835" ry="18"/>
<text text-anchor="middle" x="872" y="-302.3" font-family="Times,serif" font-size="14.00">ITF&#45;E_signal_envelope</text>
</g>
<!-- toadkiller&#45;&gt;ITF&#45;E_signal_envelope -->
<g id="edge43" class="edge"><title>toadkiller&#45;&gt;ITF&#45;E_signal_envelope</title>
<path fill="none" stroke="black" d="M877.895,-252.104C878.701,-259.791 878.937,-269.054 878.604,-277.665"/>
<polygon fill="red" stroke="black" points="875.109,-277.48 877.916,-287.697 882.092,-277.96 875.109,-277.48"/>
</g>
<!-- kina -->
<g id="node9" class="node"><title>kina</title>
<polygon fill="blue" stroke="black" points="1267.5,-252 1212.5,-252 1212.5,-216 1267.5,-216 1267.5,-252"/>
<text text-anchor="middle" x="1240" y="-228.4" font-family="Times,serif" font-size="22.00">kina</text>
</g>
<!-- kina&#45;&gt;ITF&#45;I_pulse_on -->
<g id="edge50" class="edge"><title>kina&#45;&gt;ITF&#45;I_pulse_on</title>
<path fill="none" stroke="black" d="M1212.08,-224.497C1204.51,-221.593 1196.47,-218.461 1189,-216 1162.42,-207.245 1095.11,-190.28 1046.48,-177.895"/>
<polygon fill="red" stroke="black" points="1047.27,-174.484 1036.72,-175.404 1045.54,-181.267 1047.27,-174.484"/>
</g>
<!-- kina&#45;&gt;ITF&#45;J_pulse_off -->
<g id="edge51" class="edge"><title>kina&#45;&gt;ITF&#45;J_pulse_off</title>
<path fill="none" stroke="black" d="M1258.79,-215.697C1268.38,-206.857 1280.2,-195.973 1290.6,-186.396"/>
<polygon fill="red" stroke="black" points="1293.23,-188.732 1298.21,-179.383 1288.49,-183.583 1293.23,-188.732"/>
</g>
<!-- kina&#45;&gt;ITF&#45;N_cc_motor_pwm -->
<g id="edge52" class="edge"><title>kina&#45;&gt;ITF&#45;N_cc_motor_pwm</title>
<path fill="none" stroke="black" d="M1212.32,-226.673C1196.95,-223.274 1177.47,-219.147 1160,-216 1052.55,-196.644 1024.85,-196.975 917,-180 909.12,-178.76 900.903,-177.438 892.702,-176.1"/>
<polygon fill="red" stroke="black" points="893.167,-172.63 882.732,-174.465 892.034,-179.537 893.167,-172.63"/>
</g>
<!-- WiFi UDP Stream -->
<g id="node31" class="node"><title>WiFi UDP Stream</title>
<ellipse fill="yellow" stroke="black" cx="1153" cy="-162" rx="77.1866" ry="18"/>
<text text-anchor="middle" x="1153" y="-158.3" font-family="Times,serif" font-size="14.00">WiFi UDP Stream</text>
</g>
<!-- kina&#45;&gt;WiFi UDP Stream -->
<g id="edge49" class="edge"><title>kina&#45;&gt;WiFi UDP Stream</title>
<path fill="none" stroke="black" d="M1218.49,-215.697C1207.29,-206.683 1193.45,-195.545 1181.38,-185.834"/>
<polygon fill="red" stroke="black" points="1183.35,-182.925 1173.36,-179.383 1178.96,-188.379 1183.35,-182.925"/>
</g>
<!-- goblin -->
<g id="node10" class="node"><title>goblin</title>
<polygon fill="blue" stroke="black" points="683,-396 609,-396 609,-360 683,-360 683,-396"/>
<text text-anchor="middle" x="646" y="-372.4" font-family="Times,serif" font-size="22.00">goblin</text>
</g>
<!-- ITF&#45;mEG_SPI -->
<g id="node24" class="node"><title>ITF&#45;mEG_SPI</title>
<ellipse fill="green" stroke="black" cx="357" cy="-306" rx="63.0888" ry="18"/>
<text text-anchor="middle" x="357" y="-302.3" font-family="Times,serif" font-size="14.00">ITF&#45;mEG_SPI</text>
</g>
<!-- goblin&#45;&gt;ITF&#45;mEG_SPI -->
<g id="edge63" class="edge"><title>goblin&#45;&gt;ITF&#45;mEG_SPI</title>
<path fill="none" stroke="black" d="M608.81,-367.992C559.338,-356.009 471.419,-334.714 413.665,-320.725"/>
<polygon fill="red" stroke="black" points="414.146,-317.241 403.603,-318.288 412.498,-324.044 414.146,-317.241"/>
</g>
<!-- goblin&#45;&gt;ITF&#45;E_signal_envelope -->
<g id="edge62" class="edge"><title>goblin&#45;&gt;ITF&#45;E_signal_envelope</title>
<path fill="none" stroke="black" d="M683.097,-363.834C717.831,-352.577 770.208,-336.305 811.05,-324.054"/>
<polygon fill="red" stroke="black" points="812.056,-327.407 820.635,-321.19 810.052,-320.7 812.056,-327.407"/>
</g>
<!-- ITF&#45;C_amplified_raw_signal -->
<g id="node32" class="node"><title>ITF&#45;C_amplified_raw_signal</title>
<ellipse fill="yellow" stroke="black" cx="646" cy="-306" rx="114.28" ry="18"/>
<text text-anchor="middle" x="646" y="-302.3" font-family="Times,serif" font-size="14.00">ITF&#45;C_amplified_raw_signal</text>
</g>
<!-- goblin&#45;&gt;ITF&#45;C_amplified_raw_signal -->
<g id="edge61" class="edge"><title>goblin&#45;&gt;ITF&#45;C_amplified_raw_signal</title>
<path fill="none" stroke="black" d="M640.084,-359.697C639.289,-351.983 639.062,-342.712 639.405,-334.112"/>
<polygon fill="red" stroke="black" points="642.898,-334.324 640.105,-324.104 635.915,-333.836 642.898,-334.324"/>
</g>
<!-- silent -->
<g id="node11" class="node"><title>silent</title>
<polygon fill="blue" stroke="black" points="1186,-108 1122,-108 1122,-72 1186,-72 1186,-108"/>
<text text-anchor="middle" x="1154" y="-84.4" font-family="Times,serif" font-size="22.00">silent</text>
</g>
<!-- silent&#45;&gt;ITF&#45;E_signal_envelope -->
<g id="edge69" class="edge"><title>silent&#45;&gt;ITF&#45;E_signal_envelope</title>
<path fill="none" stroke="black" d="M1121.73,-92.4434C1024.46,-97.1206 739.185,-113.36 712,-144 664.859,-197.131 763.42,-255.259 825.878,-285.007"/>
<polygon fill="red" stroke="black" points="824.646,-288.295 835.187,-289.36 827.611,-281.954 824.646,-288.295"/>
</g>
<!-- mogaba -->
<g id="node12" class="node"><title>mogaba</title>
<polygon fill="blue" stroke="black" points="362.5,-684 275.5,-684 275.5,-648 362.5,-648 362.5,-684"/>
<text text-anchor="middle" x="319" y="-660.4" font-family="Times,serif" font-size="22.00">mogaba</text>
</g>
<!-- ITF&#45;A_gnd -->
<g id="node13" class="node"><title>ITF&#45;A_gnd</title>
<ellipse fill="yellow" stroke="black" cx="319" cy="-594" rx="50.8918" ry="18"/>
<text text-anchor="middle" x="319" y="-590.3" font-family="Times,serif" font-size="14.00">ITF&#45;A_gnd</text>
</g>
<!-- mogaba&#45;&gt;ITF&#45;A_gnd -->
<g id="edge72" class="edge"><title>mogaba&#45;&gt;ITF&#45;A_gnd</title>
<path fill="none" stroke="black" d="M319,-647.697C319,-639.983 319,-630.712 319,-622.112"/>
<polygon fill="red" stroke="black" points="322.5,-622.104 319,-612.104 315.5,-622.104 322.5,-622.104"/>
</g>
<!-- ITF&#45;B_5v -->
<g id="node14" class="node"><title>ITF&#45;B_5v</title>
<ellipse fill="yellow" stroke="black" cx="676" cy="-594" rx="46.2923" ry="18"/>
<text text-anchor="middle" x="676" y="-590.3" font-family="Times,serif" font-size="14.00">ITF&#45;B_5v</text>
</g>
<!-- mogaba&#45;&gt;ITF&#45;B_5v -->
<g id="edge73" class="edge"><title>mogaba&#45;&gt;ITF&#45;B_5v</title>
<path fill="none" stroke="black" d="M362.775,-656.417C429.324,-643.368 555.602,-618.607 625.786,-604.846"/>
<polygon fill="red" stroke="black" points="626.58,-608.257 635.72,-602.898 625.233,-601.388 626.58,-608.257"/>
</g>
<!-- ITF&#45;S_3_3v -->
<g id="node17" class="node"><title>ITF&#45;S_3_3v</title>
<ellipse fill="yellow" stroke="black" cx="1203" cy="-594" rx="53.8905" ry="18"/>
<text text-anchor="middle" x="1203" y="-590.3" font-family="Times,serif" font-size="14.00">ITF&#45;S_3_3v</text>
</g>
<!-- mogaba&#45;&gt;ITF&#45;S_3_3v -->
<g id="edge75" class="edge"><title>mogaba&#45;&gt;ITF&#45;S_3_3v</title>
<path fill="none" stroke="black" d="M362.536,-661.553C507.201,-650.097 972.221,-613.274 1141.03,-599.907"/>
<polygon fill="red" stroke="black" points="1141.55,-603.377 1151.24,-599.099 1140.99,-596.399 1141.55,-603.377"/>
</g>
<!-- ITF&#45;F_12V -->
<g id="node27" class="node"><title>ITF&#45;F_12V</title>
<ellipse fill="yellow" stroke="black" cx="199" cy="-594" rx="51.1914" ry="18"/>
<text text-anchor="middle" x="199" y="-590.3" font-family="Times,serif" font-size="14.00">ITF&#45;F_12V</text>
</g>
<!-- mogaba&#45;&gt;ITF&#45;F_12V -->
<g id="edge74" class="edge"><title>mogaba&#45;&gt;ITF&#45;F_12V</title>
<path fill="none" stroke="black" d="M283.748,-647.876C266.23,-638.245 245.374,-626.147 228.678,-615.953"/>
<polygon fill="red" stroke="black" points="230.225,-612.795 219.878,-610.514 226.545,-618.749 230.225,-612.795"/>
</g>
<!-- ITF&#45;A_gnd&#45;&gt;tobo -->
<g id="edge1" class="edge"><title>ITF&#45;A_gnd&#45;&gt;tobo</title>
<path fill="none" stroke="black" d="M362.418,-584.487C432.796,-570.687 570.643,-543.658 637.632,-530.523"/>
<polygon fill="black" stroke="black" points="638.614,-533.897 647.753,-528.539 637.267,-527.028 638.614,-533.897"/>
</g>
<!-- ITF&#45;A_gnd&#45;&gt;cletus -->
<g id="edge10" class="edge"><title>ITF&#45;A_gnd&#45;&gt;cletus</title>
<path fill="none" stroke="black" d="M280.994,-581.901C273.712,-579.868 266.134,-577.817 259,-576 188.786,-558.118 152.267,-590.18 100,-540 70.4469,-511.627 76,-491.969 76,-451 76,-451 76,-451 76,-233 76,-192.031 69.1924,-171.006 100,-144 145.684,-103.954 311.06,-117.895 371,-108 384.641,-105.748 399.431,-102.954 412.835,-100.285"/>
<polygon fill="black" stroke="black" points="413.664,-103.689 422.774,-98.2804 412.28,-96.8269 413.664,-103.689"/>
</g>
<!-- ITF&#45;A_gnd&#45;&gt;oneeye -->
<g id="edge18" class="edge"><title>ITF&#45;A_gnd&#45;&gt;oneeye</title>
<path fill="none" stroke="black" d="M367.145,-588.326C497.543,-575.666 856.659,-540.8 989.624,-527.891"/>
<polygon fill="black" stroke="black" points="990.306,-531.341 999.92,-526.891 989.629,-524.374 990.306,-531.341"/>
</g>
<!-- ITF&#45;A_gnd&#45;&gt;croaker -->
<g id="edge25" class="edge"><title>ITF&#45;A_gnd&#45;&gt;croaker</title>
<path fill="none" stroke="black" d="M280.426,-582.268C257.989,-574.135 230.89,-560.743 214,-540 188.132,-508.231 190,-491.969 190,-451 190,-451 190,-451 190,-377 190,-335.633 205.235,-289.722 216.412,-261.605"/>
<polygon fill="black" stroke="black" points="219.756,-262.673 220.31,-252.093 213.279,-260.019 219.756,-262.673"/>
</g>
<!-- ITF&#45;A_gnd&#45;&gt;retroATL3 -->
<g id="edge30" class="edge"><title>ITF&#45;A_gnd&#45;&gt;retroATL3</title>
<path fill="none" stroke="black" d="M281.374,-581.747C273.989,-579.706 266.276,-577.692 259,-576 172.306,-555.846 127.483,-600.283 62,-540 31.8588,-512.252 38,-491.969 38,-451 38,-451 38,-451 38,-233 38,-192.031 32.3348,-172.256 62,-144 86.9525,-120.233 175.254,-105.5 238.21,-97.7744"/>
<polygon fill="black" stroke="black" points="238.958,-101.21 248.473,-96.5491 238.128,-94.2594 238.958,-101.21"/>
</g>
<!-- ITF&#45;A_gnd&#45;&gt;toadkiller -->
<g id="edge39" class="edge"><title>ITF&#45;A_gnd&#45;&gt;toadkiller</title>
<path fill="none" stroke="black" d="M308.275,-576.269C292.788,-550.459 266,-498.891 266,-451 266,-451 266,-451 266,-377 266,-336.553 254.732,-314.83 285,-288 323.752,-253.65 668.267,-240.484 810.745,-236.478"/>
<polygon fill="black" stroke="black" points="811.154,-239.969 821.054,-236.195 810.961,-232.971 811.154,-239.969"/>
</g>
<!-- ITF&#45;A_gnd&#45;&gt;kina -->
<g id="edge44" class="edge"><title>ITF&#45;A_gnd&#45;&gt;kina</title>
<path fill="none" stroke="black" d="M324.41,-575.857C342.39,-522.091 405.757,-356.307 523,-288 537.813,-279.37 1055.52,-246.503 1201.83,-237.368"/>
<polygon fill="black" stroke="black" points="1202.34,-240.843 1212.11,-236.727 1201.91,-233.857 1202.34,-240.843"/>
</g>
<!-- ITF&#45;A_gnd&#45;&gt;goblin -->
<g id="edge53" class="edge"><title>ITF&#45;A_gnd&#45;&gt;goblin</title>
<path fill="none" stroke="black" d="M339.084,-577.414C352.47,-566.951 370.405,-552.792 386,-540 443.287,-493.008 449.524,-470.219 513,-432 540.001,-415.742 572.884,-402.587 599.198,-393.45"/>
<polygon fill="black" stroke="black" points="600.589,-396.674 608.935,-390.146 598.341,-390.045 600.589,-396.674"/>
</g>
<!-- ITF&#45;A_gnd&#45;&gt;silent -->
<g id="edge64" class="edge"><title>ITF&#45;A_gnd&#45;&gt;silent</title>
<path fill="none" stroke="black" d="M285.219,-580.508C264.92,-571.662 239.683,-558.137 222,-540 196.884,-514.239 195.616,-502.376 185,-468 142.5,-330.379 78.4695,-248.112 178,-144 210.729,-109.764 928.887,-94.9297 1111.87,-91.6979"/>
<polygon fill="black" stroke="black" points="1111.98,-95.1967 1121.92,-91.5227 1111.86,-88.1977 1111.98,-95.1967"/>
</g>
<!-- ITF&#45;B_5v&#45;&gt;tobo -->
<g id="edge2" class="edge"><title>ITF&#45;B_5v&#45;&gt;tobo</title>
<path fill="none" stroke="black" d="M676,-575.697C676,-567.983 676,-558.712 676,-550.112"/>
<polygon fill="black" stroke="black" points="679.5,-550.104 676,-540.104 672.5,-550.104 679.5,-550.104"/>
</g>
<!-- ITF&#45;B_5v&#45;&gt;cletus -->
<g id="edge11" class="edge"><title>ITF&#45;B_5v&#45;&gt;cletus</title>
<path fill="none" stroke="black" d="M629.981,-591.765C536.692,-588.503 329.13,-577.166 270,-540 205.291,-499.328 204.082,-467.083 176,-396 134.384,-290.656 64.2766,-229.989 138,-144 172.101,-104.225 319.401,-117.082 371,-108 384.617,-105.603 399.399,-102.767 412.805,-100.105"/>
<polygon fill="black" stroke="black" points="413.628,-103.509 422.746,-98.1129 412.253,-96.6456 413.628,-103.509"/>
</g>
<!-- ITF&#45;B_5v&#45;&gt;oneeye -->
<g id="edge19" class="edge"><title>ITF&#45;B_5v&#45;&gt;oneeye</title>
<path fill="none" stroke="black" d="M716.345,-585.241C783.259,-572.373 917.027,-546.649 989.888,-532.637"/>
<polygon fill="black" stroke="black" points="990.593,-536.066 999.752,-530.74 989.271,-529.192 990.593,-536.066"/>
</g>
<!-- ITF&#45;B_5v&#45;&gt;croaker -->
<g id="edge26" class="edge"><title>ITF&#45;B_5v&#45;&gt;croaker</title>
<path fill="none" stroke="black" d="M631.818,-588.529C518.794,-575.875 228,-535.141 228,-451 228,-451 228,-451 228,-377 228,-336.996 228,-290.653 228,-262.08"/>
<polygon fill="black" stroke="black" points="231.5,-262.049 228,-252.049 224.5,-262.049 231.5,-262.049"/>
</g>
<!-- ITF&#45;B_5v&#45;&gt;toadkiller -->
<g id="edge40" class="edge"><title>ITF&#45;B_5v&#45;&gt;toadkiller</title>
<path fill="none" stroke="black" d="M703.563,-579.29C766.832,-546.003 921.157,-453.989 975,-324 981.123,-309.218 983.333,-301.659 975,-288 965.191,-271.921 948.773,-260.513 931.895,-252.511"/>
<polygon fill="black" stroke="black" points="933.075,-249.207 922.51,-248.407 930.271,-255.621 933.075,-249.207"/>
</g>
<!-- ITF&#45;B_5v&#45;&gt;kina -->
<g id="edge45" class="edge"><title>ITF&#45;B_5v&#45;&gt;kina</title>
<path fill="none" stroke="black" d="M721.196,-590.146C814.05,-583.805 1023.09,-566.945 1089,-540 1138.04,-519.952 1155.01,-512.342 1184,-468 1226.68,-402.721 1236.88,-308.099 1239.29,-262.117"/>
<polygon fill="black" stroke="black" points="1242.79,-262.18 1239.73,-252.036 1235.79,-261.874 1242.79,-262.18"/>
</g>
<!-- ITF&#45;B_5v&#45;&gt;goblin -->
<g id="edge54" class="edge"><title>ITF&#45;B_5v&#45;&gt;goblin</title>
<path fill="none" stroke="black" d="M647.467,-579.665C610.776,-560.733 548.724,-522.234 523,-468 516.143,-453.544 514.205,-445.366 523,-432 539.847,-406.396 571.954,-393.108 599.141,-386.24"/>
<polygon fill="black" stroke="black" points="599.939,-389.648 608.897,-383.99 598.366,-382.827 599.939,-389.648"/>
</g>
<!-- ITF&#45;B_5v&#45;&gt;silent -->
<g id="edge65" class="edge"><title>ITF&#45;B_5v&#45;&gt;silent</title>
<path fill="none" stroke="black" d="M722.395,-593.867C806.924,-594.103 990.7,-588.376 1136,-540 1270.74,-495.14 1412,-521.012 1412,-379 1412,-379 1412,-379 1412,-233 1412,-192.553 1421.49,-172.713 1393,-144 1365.91,-116.691 1257.62,-101.502 1196.52,-94.9478"/>
<polygon fill="black" stroke="black" points="1196.72,-91.4501 1186.41,-93.8964 1196,-98.4125 1196.72,-91.4501"/>
</g>
<!-- ITF&#45;I_pulse_on&#45;&gt;tobo -->
<g id="edge3" class="edge"><title>ITF&#45;I_pulse_on&#45;&gt;tobo</title>
<path fill="none" stroke="black" d="M993.818,-180.46C996.243,-211.151 997.881,-276.059 975,-324 936.015,-405.683 907.808,-420.119 831,-468 794.523,-490.739 747.089,-505.102 714.352,-513.053"/>
<polygon fill="black" stroke="black" points="713.211,-509.726 704.271,-515.412 714.806,-516.542 713.211,-509.726"/>
</g>
<!-- ITF&#45;I_pulse_on&#45;&gt;kina -->
<g id="edge48" class="edge"><title>ITF&#45;I_pulse_on&#45;&gt;kina</title>
<path fill="none" stroke="black" d="M1042.39,-173.6C1091.72,-185.01 1164.07,-202.925 1202.89,-214.835"/>
<polygon fill="black" stroke="black" points="1201.86,-218.181 1212.45,-217.876 1203.98,-211.51 1201.86,-218.181"/>
</g>
<!-- ITF&#45;I_pulse_on&#45;&gt;silent -->
<g id="edge67" class="edge"><title>ITF&#45;I_pulse_on&#45;&gt;silent</title>
<path fill="none" stroke="black" d="M1025.57,-146.496C1050.85,-135.57 1085.66,-120.53 1112.66,-108.863"/>
<polygon fill="black" stroke="black" points="1114.06,-112.069 1121.86,-104.889 1111.29,-105.643 1114.06,-112.069"/>
</g>
<!-- ITF&#45;J_pulse_off&#45;&gt;tobo -->
<g id="edge4" class="edge"><title>ITF&#45;J_pulse_off&#45;&gt;tobo</title>
<path fill="none" stroke="black" d="M1310.25,-180.166C1303.65,-198.675 1291.8,-228.627 1277,-252 1208.9,-359.518 1201.23,-407.979 1089,-468 1024.46,-502.515 803.644,-515.588 714.14,-519.545"/>
<polygon fill="black" stroke="black" points="713.985,-516.048 704.144,-519.973 714.284,-523.042 713.985,-516.048"/>
</g>
<!-- ITF&#45;J_pulse_off&#45;&gt;silent -->
<g id="edge68" class="edge"><title>ITF&#45;J_pulse_off&#45;&gt;silent</title>
<path fill="none" stroke="black" d="M1282.04,-146.326C1256.92,-135.471 1222.56,-120.625 1195.76,-109.045"/>
<polygon fill="black" stroke="black" points="1196.83,-105.693 1186.26,-104.94 1194.05,-112.119 1196.83,-105.693"/>
</g>
<!-- ITF&#45;S_3_3v&#45;&gt;tobo -->
<g id="edge5" class="edge"><title>ITF&#45;S_3_3v&#45;&gt;tobo</title>
<path fill="none" stroke="black" d="M1153.89,-586.477C1049.7,-572.637 808.329,-540.577 714.388,-528.099"/>
<polygon fill="black" stroke="black" points="714.573,-524.593 704.199,-526.746 713.652,-531.532 714.573,-524.593"/>
</g>
<!-- ITF&#45;S_3_3v&#45;&gt;cletus -->
<g id="edge13" class="edge"><title>ITF&#45;S_3_3v&#45;&gt;cletus</title>
<path fill="none" stroke="black" d="M1252.69,-586.88C1324.82,-574.909 1450,-541.147 1450,-451 1450,-451 1450,-451 1450,-233 1450,-186.027 1433.56,-167.7 1393,-144 1354.1,-121.266 682.017,-98.2018 501.386,-92.3923"/>
<polygon fill="black" stroke="black" points="501.292,-88.8876 491.185,-92.0658 501.068,-95.884 501.292,-88.8876"/>
</g>
<!-- ITF&#45;S_3_3v&#45;&gt;oneeye -->
<g id="edge20" class="edge"><title>ITF&#45;S_3_3v&#45;&gt;oneeye</title>
<path fill="none" stroke="black" d="M1171.19,-579.337C1147.92,-569.344 1115.91,-555.599 1089.34,-544.187"/>
<polygon fill="black" stroke="black" points="1090.39,-540.83 1079.82,-540.099 1087.62,-547.261 1090.39,-540.83"/>
</g>
<!-- ITF&#45;S_3_3v&#45;&gt;toadkiller -->
<g id="edge41" class="edge"><title>ITF&#45;S_3_3v&#45;&gt;toadkiller</title>
<path fill="none" stroke="black" d="M1201.56,-575.805C1199.46,-557.27 1194.48,-527.297 1183,-504 1161.04,-459.434 1023.67,-311.514 991,-288 973.015,-275.054 951.365,-264.253 931.49,-255.853"/>
<polygon fill="black" stroke="black" points="932.782,-252.6 922.202,-252.044 930.126,-259.077 932.782,-252.6"/>
</g>
<!-- ITF&#45;S_3_3v&#45;&gt;kina -->
<g id="edge46" class="edge"><title>ITF&#45;S_3_3v&#45;&gt;kina</title>
<path fill="none" stroke="black" d="M1241.15,-581.238C1263.9,-572.698 1292.11,-559.24 1312,-540 1338,-514.841 1341.3,-503.122 1350,-468 1370.01,-387.233 1302.86,-300.823 1264.66,-259.613"/>
<polygon fill="black" stroke="black" points="1267.08,-257.078 1257.66,-252.222 1261.99,-261.89 1267.08,-257.078"/>
</g>
<!-- ITF&#45;S_3_3v&#45;&gt;goblin -->
<g id="edge55" class="edge"><title>ITF&#45;S_3_3v&#45;&gt;goblin</title>
<path fill="none" stroke="black" d="M1196.55,-576.012C1182.68,-542.08 1146.54,-466.245 1089,-432 1023.03,-392.734 793.593,-382.499 693.411,-379.88"/>
<polygon fill="black" stroke="black" points="693.357,-376.378 683.273,-379.63 693.184,-383.376 693.357,-376.378"/>
</g>
<!-- ITF&#45;S_3_3v&#45;&gt;silent -->
<g id="edge66" class="edge"><title>ITF&#45;S_3_3v&#45;&gt;silent</title>
<path fill="none" stroke="black" d="M1254.84,-588.867C1322.1,-582.457 1434.34,-567.85 1464,-540 1493.87,-511.958 1488,-491.969 1488,-451 1488,-451 1488,-451 1488,-233 1488,-192.031 1494.3,-171.575 1464,-144 1425.43,-108.901 1271.83,-96.6727 1196.33,-92.7265"/>
<polygon fill="black" stroke="black" points="1196.38,-89.2246 1186.22,-92.2232 1196.03,-96.216 1196.38,-89.2246"/>
</g>
<!-- ITF&#45;mET_Transducer&#45;&gt;tobo -->
<g id="edge6" class="edge"><title>ITF&#45;mET_Transducer&#45;&gt;tobo</title>
<path fill="none" stroke="black" d="M462.712,-180.049C466,-206.708 466,-259.885 466,-305 466,-379 466,-379 466,-379 466,-461.673 577.232,-498.631 637.893,-513.043"/>
<polygon fill="black" stroke="black" points="637.354,-516.51 647.882,-515.323 638.911,-509.686 637.354,-516.51"/>
</g>
<!-- ITF&#45;mET_Transducer&#45;&gt;cletus -->
<g id="edge14" class="edge"><title>ITF&#45;mET_Transducer&#45;&gt;cletus</title>
<path fill="none" stroke="black" d="M451.084,-143.697C450.289,-135.983 450.062,-126.712 450.405,-118.112"/>
<polygon fill="black" stroke="black" points="453.898,-118.324 451.105,-108.104 446.915,-117.836 453.898,-118.324"/>
</g>
<!-- ITF&#45;mET_Transducer&#45;&gt;retroATL3 -->
<g id="edge33" class="edge"><title>ITF&#45;mET_Transducer&#45;&gt;retroATL3</title>
<path fill="none" stroke="black" d="M417.944,-145.638C395.671,-135.919 367.886,-123.212 345.401,-112.499"/>
<polygon fill="black" stroke="black" points="346.651,-109.217 336.122,-108.044 343.622,-115.527 346.651,-109.217"/>
</g>
<!-- ITF&#45;R_reserved&#45;&gt;goblin -->
<g id="edge59" class="edge"><title>ITF&#45;R_reserved&#45;&gt;goblin</title>
<path fill="none" stroke="black" d="M610.377,-432.055C615.895,-423.837 622.64,-413.791 628.771,-404.66"/>
<polygon fill="black" stroke="black" points="631.732,-406.529 634.401,-396.275 625.921,-402.626 631.732,-406.529"/>
</g>
<!-- ITF&#45;mET_SMA&#45;&gt;goblin -->
<g id="edge60" class="edge"><title>ITF&#45;mET_SMA&#45;&gt;goblin</title>
<path fill="none" stroke="black" d="M728.72,-433.116C714.465,-423.79 696.218,-411.853 680.49,-401.564"/>
<polygon fill="black" stroke="black" points="682.338,-398.59 672.053,-396.044 678.505,-404.448 682.338,-398.59"/>
</g>
<!-- ITF&#45;N_cc_motor_pwm&#45;&gt;cletus -->
<g id="edge12" class="edge"><title>ITF&#45;N_cc_motor_pwm&#45;&gt;cletus</title>
<path fill="none" stroke="black" d="M751.821,-148.647C679.946,-134.593 564.409,-112.002 501.433,-99.688"/>
<polygon fill="black" stroke="black" points="501.906,-96.2143 491.42,-97.7303 500.563,-103.084 501.906,-96.2143"/>
</g>
<!-- ITF&#45;N_cc_motor_pwm&#45;&gt;retroATL3 -->
<g id="edge32" class="edge"><title>ITF&#45;N_cc_motor_pwm&#45;&gt;retroATL3</title>
<path fill="none" stroke="black" d="M738.799,-151.465C658.078,-141.24 526.947,-124.27 414,-108 400.271,-106.022 385.587,-103.803 371.586,-101.637"/>
<polygon fill="black" stroke="black" points="371.955,-98.1527 361.535,-100.074 370.879,-105.07 371.955,-98.1527"/>
</g>
<!-- ITF&#45;mET_Piezo&#45;&gt;cletus -->
<g id="edge15" class="edge"><title>ITF&#45;mET_Piezo&#45;&gt;cletus</title>
<path fill="none" stroke="black" d="M462.895,-36.1043C463.701,-43.7913 463.937,-53.0537 463.604,-61.6651"/>
<polygon fill="black" stroke="black" points="460.109,-61.4805 462.916,-71.6966 467.092,-61.9597 460.109,-61.4805"/>
</g>
<!-- ITF&#45;G_gain_control&#45;&gt;goblin -->
<g id="edge56" class="edge"><title>ITF&#45;G_gain_control&#45;&gt;goblin</title>
<path fill="none" stroke="black" d="M939.479,-437.362C870.405,-423.626 756.902,-401.054 693.186,-388.384"/>
<polygon fill="black" stroke="black" points="693.514,-384.88 683.024,-386.363 692.149,-391.746 693.514,-384.88"/>
</g>
<!-- ITF&#45;mEG_SPI&#45;&gt;croaker -->
<g id="edge27" class="edge"><title>ITF&#45;mEG_SPI&#45;&gt;croaker</title>
<path fill="none" stroke="black" d="M329.009,-289.811C311.353,-280.23 288.255,-267.697 268.604,-257.033"/>
<polygon fill="black" stroke="black" points="270.021,-253.82 259.562,-252.127 266.682,-259.972 270.021,-253.82"/>
</g>
<!-- ITF&#45;F_12V&#45;&gt;retroATL3 -->
<g id="edge31" class="edge"><title>ITF&#45;F_12V&#45;&gt;retroATL3</title>
<path fill="none" stroke="black" d="M150.326,-588.16C114.667,-582.246 67.2325,-569.119 36,-540 4.7911,-510.903 0,-493.669 0,-451 0,-451 0,-451 0,-233 0,-190.331 3.1047,-171.176 36,-144 66.2106,-119.042 168.838,-104.264 238.231,-96.8954"/>
<polygon fill="black" stroke="black" points="238.629,-100.373 248.216,-95.8617 237.909,-93.4102 238.629,-100.373"/>
</g>
<!-- ITF&#45;F_12V&#45;&gt;mogaba -->
<g id="edge71" class="edge"><title>ITF&#45;F_12V&#45;&gt;mogaba</title>
<path fill="none" stroke="black" d="M228.333,-608.895C246.13,-618.52 268.731,-631.542 286.976,-642.619"/>
<polygon fill="black" stroke="black" points="285.188,-645.628 295.542,-647.876 288.85,-639.662 285.188,-645.628"/>
</g>
<!-- Motor&#45;&gt;retroATL3 -->
<g id="edge34" class="edge"><title>Motor&#45;&gt;retroATL3</title>
<path fill="none" stroke="black" d="M213.173,-30.4776C230.854,-40.1871 254.797,-54.3926 273.869,-66.3763"/>
<polygon fill="black" stroke="black" points="272.204,-69.4647 282.52,-71.8761 275.959,-63.5574 272.204,-69.4647"/>
</g>
<!-- Tri&#45;Piezo Head&#45;&gt;retroATL3 -->
<g id="edge35" class="edge"><title>Tri&#45;Piezo Head&#45;&gt;retroATL3</title>
<path fill="none" stroke="black" d="M310.895,-36.1043C311.701,-43.7913 311.937,-53.0537 311.604,-61.6651"/>
<polygon fill="black" stroke="black" points="308.109,-61.4805 310.916,-71.6966 315.092,-61.9597 308.109,-61.4805"/>
</g>
<!-- ITF&#45;E_signal_envelope&#45;&gt;toadkiller -->
<g id="edge42" class="edge"><title>ITF&#45;E_signal_envelope&#45;&gt;toadkiller</title>
<path fill="none" stroke="black" d="M866.084,-287.697C865.289,-279.983 865.062,-270.712 865.405,-262.112"/>
<polygon fill="black" stroke="black" points="868.898,-262.324 866.105,-252.104 861.915,-261.836 868.898,-262.324"/>
</g>
<!-- ITF&#45;E_signal_envelope&#45;&gt;kina -->
<g id="edge47" class="edge"><title>ITF&#45;E_signal_envelope&#45;&gt;kina</title>
<path fill="none" stroke="black" d="M936.101,-292.807C1013.15,-278.15 1139.89,-254.043 1202.54,-242.126"/>
<polygon fill="black" stroke="black" points="1203.22,-245.56 1212.39,-240.252 1201.91,-238.683 1203.22,-245.56"/>
</g>
<!-- ITF&#45;E_signal_envelope&#45;&gt;goblin -->
<g id="edge58" class="edge"><title>ITF&#45;E_signal_envelope&#45;&gt;goblin</title>
<path fill="none" stroke="black" d="M829.013,-322.069C790.062,-334.611 732.931,-352.275 692.833,-364.156"/>
<polygon fill="black" stroke="black" points="691.63,-360.861 683.027,-367.045 693.609,-367.576 691.63,-360.861"/>
</g>
<!-- ITF&#45;C_amplified_raw_signal&#45;&gt;goblin -->
<g id="edge57" class="edge"><title>ITF&#45;C_amplified_raw_signal&#45;&gt;goblin</title>
<path fill="none" stroke="black" d="M651.895,-324.104C652.701,-331.791 652.937,-341.054 652.604,-349.665"/>
<polygon fill="black" stroke="black" points="649.109,-349.48 651.916,-359.697 656.092,-349.96 649.109,-349.48"/>
</g>
<!-- ITF&#45;mEM_Alimentation -->
<g id="node33" class="node"><title>ITF&#45;mEM_Alimentation</title>
<ellipse fill="green" stroke="black" cx="319" cy="-738" rx="98.5829" ry="18"/>
<text text-anchor="middle" x="319" y="-734.3" font-family="Times,serif" font-size="14.00">ITF&#45;mEM_Alimentation</text>
</g>
<!-- ITF&#45;mEM_Alimentation&#45;&gt;mogaba -->
<g id="edge70" class="edge"><title>ITF&#45;mEM_Alimentation&#45;&gt;mogaba</title>
<path fill="none" stroke="black" d="M319,-719.697C319,-711.983 319,-702.712 319,-694.112"/>
<polygon fill="black" stroke="black" points="322.5,-694.104 319,-684.104 315.5,-694.104 322.5,-694.104"/>
</g>
</g>
</svg>
