<?xml version="1.0" encoding="UTF-8" standalone="no"?>
<!DOCTYPE svg PUBLIC "-//W3C//DTD SVG 1.1//EN"
 "http://www.w3.org/Graphics/SVG/1.1/DTD/svg11.dtd">
<!-- Generated by graphviz version 2.38.0 (20140413.2041)
 -->
<!-- Title: %3 Pages: 1 -->
<svg width="962pt" height="620pt"
 viewBox="0.00 0.00 961.78 620.00" xmlns="http://www.w3.org/2000/svg" xmlns:xlink="http://www.w3.org/1999/xlink">
<g id="graph0" class="graph" transform="scale(1 1) rotate(0) translate(4 616)">
<title>%3</title>
<polygon fill="white" stroke="none" points="-4,4 -4,-616 957.779,-616 957.779,4 -4,4"/>
<!-- tobo -->
<g id="node1" class="node"><title>tobo</title>
<polygon fill="blue" stroke="black" points="580.592,-252 524.592,-252 524.592,-216 580.592,-216 580.592,-252"/>
<text text-anchor="middle" x="552.592" y="-228.4" font-family="Times,serif" font-size="22.00">tobo</text>
</g>
<!-- ITF&#45;R_reserved -->
<g id="node11" class="node"><title>ITF&#45;R_reserved</title>
<ellipse fill="yellow" stroke="black" cx="354.592" cy="-162" rx="66.8882" ry="18"/>
<text text-anchor="middle" x="354.592" y="-158.3" font-family="Times,serif" font-size="14.00">ITF&#45;R_reserved</text>
</g>
<!-- tobo&#45;&gt;ITF&#45;R_reserved -->
<g id="edge6" class="edge"><title>tobo&#45;&gt;ITF&#45;R_reserved</title>
<path fill="none" stroke="black" d="M524.223,-222.971C492.714,-211.831 441.287,-193.65 403.305,-180.222"/>
<polygon fill="red" stroke="black" points="404.063,-176.778 393.468,-176.744 401.73,-183.377 404.063,-176.778"/>
</g>
<!-- ITF&#45;mET_SMA -->
<g id="node12" class="node"><title>ITF&#45;mET_SMA</title>
<ellipse fill="green" stroke="black" cx="508.592" cy="-162" rx="68.7879" ry="18"/>
<text text-anchor="middle" x="508.592" y="-158.3" font-family="Times,serif" font-size="14.00">ITF&#45;mET_SMA</text>
</g>
<!-- tobo&#45;&gt;ITF&#45;mET_SMA -->
<g id="edge7" class="edge"><title>tobo&#45;&gt;ITF&#45;mET_SMA</title>
<path fill="none" stroke="black" d="M541.715,-215.697C536.6,-207.559 530.396,-197.689 524.747,-188.701"/>
<polygon fill="red" stroke="black" points="527.628,-186.708 519.343,-180.104 521.702,-190.433 527.628,-186.708"/>
</g>
<!-- ITF&#45;mET_Transducer -->
<g id="node13" class="node"><title>ITF&#45;mET_Transducer</title>
<ellipse fill="green" stroke="black" cx="722.592" cy="-162" rx="89.0842" ry="18"/>
<text text-anchor="middle" x="722.592" y="-158.3" font-family="Times,serif" font-size="14.00">ITF&#45;mET_Transducer</text>
</g>
<!-- tobo&#45;&gt;ITF&#45;mET_Transducer -->
<g id="edge8" class="edge"><title>tobo&#45;&gt;ITF&#45;mET_Transducer</title>
<path fill="none" stroke="black" d="M580.664,-221.441C606.448,-210.824 645.167,-194.881 675.653,-182.328"/>
<polygon fill="red" stroke="black" points="677.321,-185.426 685.235,-178.382 674.656,-178.953 677.321,-185.426"/>
</g>
<!-- cletus -->
<g id="node2" class="node"><title>cletus</title>
<polygon fill="blue" stroke="black" points="836.592,-108 768.592,-108 768.592,-72 836.592,-72 836.592,-108"/>
<text text-anchor="middle" x="802.592" y="-84.4" font-family="Times,serif" font-size="22.00">cletus</text>
</g>
<!-- cletus&#45;&gt;ITF&#45;mET_Transducer -->
<g id="edge16" class="edge"><title>cletus&#45;&gt;ITF&#45;mET_Transducer</title>
<path fill="none" stroke="black" d="M788.839,-108.201C779.522,-117.169 767.005,-128.262 755.308,-137.962"/>
<polygon fill="red" stroke="black" points="752.933,-135.382 747.39,-144.411 757.354,-140.809 752.933,-135.382"/>
</g>
<!-- ITF&#45;mET_Piezo -->
<g id="node15" class="node"><title>ITF&#45;mET_Piezo</title>
<ellipse fill="green" stroke="black" cx="802.592" cy="-18" rx="68.7879" ry="18"/>
<text text-anchor="middle" x="802.592" y="-14.3" font-family="Times,serif" font-size="14.00">ITF&#45;mET_Piezo</text>
</g>
<!-- cletus&#45;&gt;ITF&#45;mET_Piezo -->
<g id="edge15" class="edge"><title>cletus&#45;&gt;ITF&#45;mET_Piezo</title>
<path fill="none" stroke="black" d="M796.676,-71.6966C795.88,-63.9827 795.654,-54.7125 795.996,-46.1124"/>
<polygon fill="red" stroke="black" points="799.49,-46.3243 796.697,-36.1043 792.507,-45.8356 799.49,-46.3243"/>
</g>
<!-- oneeye -->
<g id="node3" class="node"><title>oneeye</title>
<polygon fill="blue" stroke="black" points="652.592,-396 572.592,-396 572.592,-360 652.592,-360 652.592,-396"/>
<text text-anchor="middle" x="612.592" y="-372.4" font-family="Times,serif" font-size="22.00">oneeye</text>
</g>
<!-- ITF&#45;I_pulse_on -->
<g id="node8" class="node"><title>ITF&#45;I_pulse_on</title>
<ellipse fill="yellow" stroke="black" cx="612.592" cy="-306" rx="65.7887" ry="18"/>
<text text-anchor="middle" x="612.592" y="-302.3" font-family="Times,serif" font-size="14.00">ITF&#45;I_pulse_on</text>
</g>
<!-- oneeye&#45;&gt;ITF&#45;I_pulse_on -->
<g id="edge21" class="edge"><title>oneeye&#45;&gt;ITF&#45;I_pulse_on</title>
<path fill="none" stroke="black" d="M612.592,-359.697C612.592,-351.983 612.592,-342.712 612.592,-334.112"/>
<polygon fill="red" stroke="black" points="616.092,-334.104 612.592,-324.104 609.092,-334.104 616.092,-334.104"/>
</g>
<!-- ITF&#45;J_pulse_off -->
<g id="node9" class="node"><title>ITF&#45;J_pulse_off</title>
<ellipse fill="yellow" stroke="black" cx="461.592" cy="-306" rx="67.6881" ry="18"/>
<text text-anchor="middle" x="461.592" y="-302.3" font-family="Times,serif" font-size="14.00">ITF&#45;J_pulse_off</text>
</g>
<!-- oneeye&#45;&gt;ITF&#45;J_pulse_off -->
<g id="edge22" class="edge"><title>oneeye&#45;&gt;ITF&#45;J_pulse_off</title>
<path fill="none" stroke="black" d="M575.653,-359.876C553.629,-349.666 525.621,-336.682 502.871,-326.136"/>
<polygon fill="red" stroke="black" points="504.341,-322.96 493.796,-321.929 501.397,-329.31 504.341,-322.96"/>
</g>
<!-- ITF&#45;N_cc_motor_pwm -->
<g id="node14" class="node"><title>ITF&#45;N_cc_motor_pwm</title>
<ellipse fill="yellow" stroke="black" cx="717.592" cy="-234" rx="93.6835" ry="18"/>
<text text-anchor="middle" x="717.592" y="-230.3" font-family="Times,serif" font-size="14.00">ITF&#45;N_cc_motor_pwm</text>
</g>
<!-- oneeye&#45;&gt;ITF&#45;N_cc_motor_pwm -->
<g id="edge23" class="edge"><title>oneeye&#45;&gt;ITF&#45;N_cc_motor_pwm</title>
<path fill="none" stroke="black" d="M645.815,-359.858C660.389,-350.891 676.636,-338.703 687.592,-324 701.174,-305.771 708.86,-281.002 713.044,-262.222"/>
<polygon fill="red" stroke="black" points="716.515,-262.714 715.072,-252.218 709.655,-261.323 716.515,-262.714"/>
</g>
<!-- ITF&#45;G_gain_control -->
<g id="node16" class="node"><title>ITF&#45;G_gain_control</title>
<ellipse fill="yellow" stroke="black" cx="399.592" cy="-234" rx="81.7856" ry="18"/>
<text text-anchor="middle" x="399.592" y="-230.3" font-family="Times,serif" font-size="14.00">ITF&#45;G_gain_control</text>
</g>
<!-- oneeye&#45;&gt;ITF&#45;G_gain_control -->
<g id="edge20" class="edge"><title>oneeye&#45;&gt;ITF&#45;G_gain_control</title>
<path fill="none" stroke="black" d="M572.218,-373.534C513.127,-367.53 407.591,-352.959 384.592,-324 370.586,-306.365 377.034,-280.481 385.384,-261.167"/>
<polygon fill="red" stroke="black" points="388.6,-262.551 389.689,-252.012 382.266,-259.572 388.6,-262.551"/>
</g>
<!-- goblin -->
<g id="node4" class="node"><title>goblin</title>
<polygon fill="blue" stroke="black" points="332.592,-108 258.592,-108 258.592,-72 332.592,-72 332.592,-108"/>
<text text-anchor="middle" x="295.592" y="-84.4" font-family="Times,serif" font-size="22.00">goblin</text>
</g>
<!-- ITF&#45;C_amplified_raw_signal -->
<g id="node17" class="node"><title>ITF&#45;C_amplified_raw_signal</title>
<ellipse fill="yellow" stroke="black" cx="573.592" cy="-18" rx="114.28" ry="18"/>
<text text-anchor="middle" x="573.592" y="-14.3" font-family="Times,serif" font-size="14.00">ITF&#45;C_amplified_raw_signal</text>
</g>
<!-- goblin&#45;&gt;ITF&#45;C_amplified_raw_signal -->
<g id="edge32" class="edge"><title>goblin&#45;&gt;ITF&#45;C_amplified_raw_signal</title>
<path fill="none" stroke="black" d="M332.805,-78.3685C375.92,-67.0087 447.759,-48.8499 501.812,-35.6031"/>
<polygon fill="red" stroke="black" points="502.804,-38.9638 511.687,-33.1896 501.142,-32.164 502.804,-38.9638"/>
</g>
<!-- ITF&#45;E_signal_envelope -->
<g id="node18" class="node"><title>ITF&#45;E_signal_envelope</title>
<ellipse fill="yellow" stroke="black" cx="93.5917" cy="-18" rx="93.6835" ry="18"/>
<text text-anchor="middle" x="93.5917" y="-14.3" font-family="Times,serif" font-size="14.00">ITF&#45;E_signal_envelope</text>
</g>
<!-- goblin&#45;&gt;ITF&#45;E_signal_envelope -->
<g id="edge34" class="edge"><title>goblin&#45;&gt;ITF&#45;E_signal_envelope</title>
<path fill="none" stroke="black" d="M258.495,-77.9083C225.77,-67.1959 178.011,-50.7599 142.252,-37.9682"/>
<polygon fill="red" stroke="black" points="143.101,-34.5543 132.507,-34.4647 140.733,-41.1415 143.101,-34.5543"/>
</g>
<!-- ADL5511 -->
<g id="node19" class="node"><title>ADL5511</title>
<ellipse fill="yellow" stroke="black" cx="251.592" cy="-18" rx="46.2923" ry="18"/>
<text text-anchor="middle" x="251.592" y="-14.3" font-family="Times,serif" font-size="14.00">ADL5511</text>
</g>
<!-- goblin&#45;&gt;ADL5511 -->
<g id="edge33" class="edge"><title>goblin&#45;&gt;ADL5511</title>
<path fill="none" stroke="black" d="M284.715,-71.6966C279.524,-63.4374 273.211,-53.394 267.494,-44.2994"/>
<polygon fill="red" stroke="black" points="270.325,-42.2261 262.04,-35.6223 264.399,-45.9513 270.325,-42.2261"/>
</g>
<!-- ITF&#45;mEG_SPI -->
<g id="node20" class="node"><title>ITF&#45;mEG_SPI</title>
<ellipse fill="green" stroke="black" cx="378.592" cy="-18" rx="63.0888" ry="18"/>
<text text-anchor="middle" x="378.592" y="-14.3" font-family="Times,serif" font-size="14.00">ITF&#45;mEG_SPI</text>
</g>
<!-- goblin&#45;&gt;ITF&#45;mEG_SPI -->
<g id="edge35" class="edge"><title>goblin&#45;&gt;ITF&#45;mEG_SPI</title>
<path fill="none" stroke="black" d="M316.109,-71.6966C326.796,-62.6834 340.002,-51.5453 351.517,-41.8343"/>
<polygon fill="red" stroke="black" points="353.778,-44.5055 359.166,-35.3829 349.265,-39.1544 353.778,-44.5055"/>
</g>
<!-- mogaba -->
<g id="node5" class="node"><title>mogaba</title>
<polygon fill="blue" stroke="black" points="691.092,-540 604.092,-540 604.092,-504 691.092,-504 691.092,-540"/>
<text text-anchor="middle" x="647.592" y="-516.4" font-family="Times,serif" font-size="22.00">mogaba</text>
</g>
<!-- ITF&#45;A_gnd -->
<g id="node6" class="node"><title>ITF&#45;A_gnd</title>
<ellipse fill="yellow" stroke="black" cx="365.592" cy="-450" rx="50.8918" ry="18"/>
<text text-anchor="middle" x="365.592" y="-446.3" font-family="Times,serif" font-size="14.00">ITF&#45;A_gnd</text>
</g>
<!-- mogaba&#45;&gt;ITF&#45;A_gnd -->
<g id="edge37" class="edge"><title>mogaba&#45;&gt;ITF&#45;A_gnd</title>
<path fill="none" stroke="black" d="M603.839,-510.139C552.971,-497.512 469.179,-476.713 415.73,-463.446"/>
<polygon fill="red" stroke="black" points="416.339,-459.991 405.791,-460.978 414.653,-466.785 416.339,-459.991"/>
</g>
<!-- ITF&#45;B_5v -->
<g id="node7" class="node"><title>ITF&#45;B_5v</title>
<ellipse fill="yellow" stroke="black" cx="647.592" cy="-450" rx="46.2923" ry="18"/>
<text text-anchor="middle" x="647.592" y="-446.3" font-family="Times,serif" font-size="14.00">ITF&#45;B_5v</text>
</g>
<!-- mogaba&#45;&gt;ITF&#45;B_5v -->
<g id="edge38" class="edge"><title>mogaba&#45;&gt;ITF&#45;B_5v</title>
<path fill="none" stroke="black" d="M647.592,-503.697C647.592,-495.983 647.592,-486.712 647.592,-478.112"/>
<polygon fill="red" stroke="black" points="651.092,-478.104 647.592,-468.104 644.092,-478.104 651.092,-478.104"/>
</g>
<!-- ITF&#45;S_3_3v -->
<g id="node10" class="node"><title>ITF&#45;S_3_3v</title>
<ellipse fill="yellow" stroke="black" cx="801.592" cy="-450" rx="53.8905" ry="18"/>
<text text-anchor="middle" x="801.592" y="-446.3" font-family="Times,serif" font-size="14.00">ITF&#45;S_3_3v</text>
</g>
<!-- mogaba&#45;&gt;ITF&#45;S_3_3v -->
<g id="edge39" class="edge"><title>mogaba&#45;&gt;ITF&#45;S_3_3v</title>
<path fill="none" stroke="black" d="M685.264,-503.876C708.43,-493.346 738.088,-479.865 761.659,-469.151"/>
<polygon fill="red" stroke="black" points="763.367,-472.219 771.022,-464.895 760.47,-465.847 763.367,-472.219"/>
</g>
<!-- ITF&#45;A_gnd&#45;&gt;tobo -->
<g id="edge1" class="edge"><title>ITF&#45;A_gnd&#45;&gt;tobo</title>
<path fill="none" stroke="black" d="M362.1,-431.65C356.677,-399.378 350.138,-329.631 384.592,-288 388.87,-282.831 466.251,-259.837 514.485,-245.889"/>
<polygon fill="black" stroke="black" points="515.659,-249.193 524.298,-243.06 513.72,-242.467 515.659,-249.193"/>
</g>
<!-- ITF&#45;A_gnd&#45;&gt;cletus -->
<g id="edge9" class="edge"><title>ITF&#45;A_gnd&#45;&gt;cletus</title>
<path fill="none" stroke="black" d="M352.774,-432.272C322.345,-390.421 252.372,-279.969 308.592,-216 349.714,-169.209 530.327,-206.735 586.592,-180 607.605,-170.015 604.447,-155.638 624.592,-144 666.699,-119.673 720.974,-105.614 758.464,-98.1688"/>
<polygon fill="black" stroke="black" points="759.402,-101.553 768.569,-96.2411 758.091,-94.677 759.402,-101.553"/>
</g>
<!-- ITF&#45;A_gnd&#45;&gt;oneeye -->
<g id="edge17" class="edge"><title>ITF&#45;A_gnd&#45;&gt;oneeye</title>
<path fill="none" stroke="black" d="M403.914,-438.139C446.673,-426.021 515.992,-406.377 562.889,-393.086"/>
<polygon fill="black" stroke="black" points="563.872,-396.445 572.539,-390.351 561.963,-389.71 563.872,-396.445"/>
</g>
<!-- ITF&#45;A_gnd&#45;&gt;goblin -->
<g id="edge24" class="edge"><title>ITF&#45;A_gnd&#45;&gt;goblin</title>
<path fill="none" stroke="black" d="M324.839,-439.286C297.756,-431.224 262.693,-417.532 237.592,-396 202.474,-365.877 183.592,-353.267 183.592,-307 183.592,-307 183.592,-307 183.592,-233 183.592,-192.031 182.927,-176.712 207.592,-144 218.362,-129.715 234.204,-118.487 249.489,-110.114"/>
<polygon fill="black" stroke="black" points="251.108,-113.217 258.381,-105.513 247.891,-107 251.108,-113.217"/>
</g>
<!-- ITF&#45;B_5v&#45;&gt;tobo -->
<g id="edge2" class="edge"><title>ITF&#45;B_5v&#45;&gt;tobo</title>
<path fill="none" stroke="black" d="M659.682,-432.411C680.666,-401.408 718.74,-333.691 687.592,-288 681.798,-279.501 628.402,-260.26 590.531,-247.451"/>
<polygon fill="black" stroke="black" points="591.389,-244.048 580.795,-244.184 589.162,-250.684 591.389,-244.048"/>
</g>
<!-- ITF&#45;B_5v&#45;&gt;cletus -->
<g id="edge10" class="edge"><title>ITF&#45;B_5v&#45;&gt;cletus</title>
<path fill="none" stroke="black" d="M666.699,-433.341C702.846,-402.603 781.141,-330.492 820.592,-252 842.445,-208.521 852.895,-190.513 838.592,-144 835.583,-134.215 830.085,-124.616 824.276,-116.334"/>
<polygon fill="black" stroke="black" points="826.999,-114.131 818.202,-108.226 821.397,-118.328 826.999,-114.131"/>
</g>
<!-- ITF&#45;B_5v&#45;&gt;oneeye -->
<g id="edge18" class="edge"><title>ITF&#45;B_5v&#45;&gt;oneeye</title>
<path fill="none" stroke="black" d="M639.119,-432.055C635.095,-424.007 630.194,-414.205 625.705,-405.226"/>
<polygon fill="black" stroke="black" points="628.832,-403.654 621.229,-396.275 622.571,-406.785 628.832,-403.654"/>
</g>
<!-- ITF&#45;B_5v&#45;&gt;goblin -->
<g id="edge25" class="edge"><title>ITF&#45;B_5v&#45;&gt;goblin</title>
<path fill="none" stroke="black" d="M612.103,-438.199C557.169,-420.359 449.834,-380.959 372.592,-324 309.053,-277.146 288.395,-256.422 268.592,-180 264.578,-164.512 264.857,-159.558 268.592,-144 270.798,-134.807 274.879,-125.412 279.212,-117.134"/>
<polygon fill="black" stroke="black" points="282.307,-118.771 284.125,-108.333 276.195,-115.359 282.307,-118.771"/>
</g>
<!-- ITF&#45;I_pulse_on&#45;&gt;tobo -->
<g id="edge3" class="edge"><title>ITF&#45;I_pulse_on&#45;&gt;tobo</title>
<path fill="none" stroke="black" d="M598.373,-288.411C591.117,-279.946 582.14,-269.472 574.062,-260.049"/>
<polygon fill="black" stroke="black" points="576.711,-257.762 567.546,-252.447 571.397,-262.317 576.711,-257.762"/>
</g>
<!-- ITF&#45;J_pulse_off&#45;&gt;tobo -->
<g id="edge4" class="edge"><title>ITF&#45;J_pulse_off&#45;&gt;tobo</title>
<path fill="none" stroke="black" d="M482.698,-288.765C494.413,-279.753 509.191,-268.385 522.138,-258.426"/>
<polygon fill="black" stroke="black" points="524.538,-260.995 530.331,-252.124 520.27,-255.447 524.538,-260.995"/>
</g>
<!-- ITF&#45;S_3_3v&#45;&gt;tobo -->
<g id="edge5" class="edge"><title>ITF&#45;S_3_3v&#45;&gt;tobo</title>
<path fill="none" stroke="black" d="M796.185,-431.99C784.961,-399.352 756.057,-327.668 707.592,-288 698.27,-280.371 633.402,-259.627 590.59,-246.469"/>
<polygon fill="black" stroke="black" points="591.345,-243.04 580.759,-243.461 589.297,-249.733 591.345,-243.04"/>
</g>
<!-- ITF&#45;S_3_3v&#45;&gt;cletus -->
<g id="edge12" class="edge"><title>ITF&#45;S_3_3v&#45;&gt;cletus</title>
<path fill="none" stroke="black" d="M834.573,-435.732C879.278,-415.311 953.592,-371.642 953.592,-307 953.592,-307 953.592,-307 953.592,-233 953.592,-192.031 956.588,-174.816 929.592,-144 908.279,-119.672 873.993,-106.253 846.414,-99.0082"/>
<polygon fill="black" stroke="black" points="847.138,-95.5822 836.594,-96.6097 845.478,-102.382 847.138,-95.5822"/>
</g>
<!-- ITF&#45;S_3_3v&#45;&gt;oneeye -->
<g id="edge19" class="edge"><title>ITF&#45;S_3_3v&#45;&gt;oneeye</title>
<path fill="none" stroke="black" d="M766.926,-436.161C737.537,-425.276 695.032,-409.534 662.067,-397.324"/>
<polygon fill="black" stroke="black" points="663.198,-394.011 652.605,-393.82 660.767,-400.575 663.198,-394.011"/>
</g>
<!-- ITF&#45;S_3_3v&#45;&gt;goblin -->
<g id="edge26" class="edge"><title>ITF&#45;S_3_3v&#45;&gt;goblin</title>
<path fill="none" stroke="black" d="M817.339,-432.609C839.6,-407.639 877.592,-357.611 877.592,-307 877.592,-307 877.592,-307 877.592,-233 877.592,-186.027 860.615,-168.587 820.592,-144 741.208,-95.2325 456.548,-90.5018 342.922,-90.6166"/>
<polygon fill="black" stroke="black" points="342.783,-87.1168 332.792,-90.6403 342.8,-94.1168 342.783,-87.1168"/>
</g>
<!-- ITF&#45;R_reserved&#45;&gt;goblin -->
<g id="edge30" class="edge"><title>ITF&#45;R_reserved&#45;&gt;goblin</title>
<path fill="none" stroke="black" d="M340.309,-144.055C333.24,-135.668 324.566,-125.376 316.744,-116.096"/>
<polygon fill="black" stroke="black" points="319.273,-113.666 310.152,-108.275 313.921,-118.177 319.273,-113.666"/>
</g>
<!-- ITF&#45;mET_SMA&#45;&gt;goblin -->
<g id="edge31" class="edge"><title>ITF&#45;mET_SMA&#45;&gt;goblin</title>
<path fill="none" stroke="black" d="M467.523,-147.503C431.679,-135.724 379.69,-118.638 342.276,-106.342"/>
<polygon fill="black" stroke="black" points="343.21,-102.965 332.617,-103.168 341.025,-109.615 343.21,-102.965"/>
</g>
<!-- ITF&#45;mET_Transducer&#45;&gt;cletus -->
<g id="edge13" class="edge"><title>ITF&#45;mET_Transducer&#45;&gt;cletus</title>
<path fill="none" stroke="black" d="M736.079,-144.055C745.282,-135.179 757.686,-124.169 769.34,-114.483"/>
<polygon fill="black" stroke="black" points="771.708,-117.068 777.24,-108.032 767.28,-111.646 771.708,-117.068"/>
</g>
<!-- ITF&#45;N_cc_motor_pwm&#45;&gt;cletus -->
<g id="edge11" class="edge"><title>ITF&#45;N_cc_motor_pwm&#45;&gt;cletus</title>
<path fill="none" stroke="black" d="M769.722,-218.931C789.181,-210.871 809.28,-198.541 820.592,-180 832.127,-161.091 825.578,-136.128 817.32,-117.453"/>
<polygon fill="black" stroke="black" points="820.42,-115.822 812.933,-108.325 814.111,-118.854 820.42,-115.822"/>
</g>
<!-- ITF&#45;mET_Piezo&#45;&gt;cletus -->
<g id="edge14" class="edge"><title>ITF&#45;mET_Piezo&#45;&gt;cletus</title>
<path fill="none" stroke="black" d="M808.487,-36.1043C809.292,-43.7913 809.529,-53.0537 809.196,-61.6651"/>
<polygon fill="black" stroke="black" points="805.7,-61.4805 808.507,-71.6966 812.684,-61.9597 805.7,-61.4805"/>
</g>
<!-- ITF&#45;G_gain_control&#45;&gt;goblin -->
<g id="edge27" class="edge"><title>ITF&#45;G_gain_control&#45;&gt;goblin</title>
<path fill="none" stroke="black" d="M339.883,-221.551C316.677,-213.871 292.395,-201.116 278.592,-180 266.424,-161.387 272.878,-136.193 281.098,-117.361"/>
<polygon fill="black" stroke="black" points="284.338,-118.696 285.468,-108.161 278.015,-115.692 284.338,-118.696"/>
</g>
<!-- ITF&#45;C_amplified_raw_signal&#45;&gt;goblin -->
<g id="edge28" class="edge"><title>ITF&#45;C_amplified_raw_signal&#45;&gt;goblin</title>
<path fill="none" stroke="black" d="M519.935,-33.9326C468.479,-47.3075 391.696,-66.5871 342.579,-78.4274"/>
<polygon fill="black" stroke="black" points="341.746,-75.0278 332.839,-80.7643 343.379,-81.8346 341.746,-75.0278"/>
</g>
<!-- ITF&#45;E_signal_envelope&#45;&gt;goblin -->
<g id="edge29" class="edge"><title>ITF&#45;E_signal_envelope&#45;&gt;goblin</title>
<path fill="none" stroke="black" d="M141.279,-33.5838C173.748,-44.3585 216.433,-59.1024 248.724,-70.6735"/>
<polygon fill="black" stroke="black" points="247.794,-74.0588 258.389,-74.1548 250.167,-67.473 247.794,-74.0588"/>
</g>
<!-- ITF&#45;mEM_Alimentation -->
<g id="node21" class="node"><title>ITF&#45;mEM_Alimentation</title>
<ellipse fill="green" stroke="black" cx="647.592" cy="-594" rx="98.5829" ry="18"/>
<text text-anchor="middle" x="647.592" y="-590.3" font-family="Times,serif" font-size="14.00">ITF&#45;mEM_Alimentation</text>
</g>
<!-- ITF&#45;mEM_Alimentation&#45;&gt;mogaba -->
<g id="edge36" class="edge"><title>ITF&#45;mEM_Alimentation&#45;&gt;mogaba</title>
<path fill="none" stroke="black" d="M647.592,-575.697C647.592,-567.983 647.592,-558.712 647.592,-550.112"/>
<polygon fill="black" stroke="black" points="651.092,-550.104 647.592,-540.104 644.092,-550.104 651.092,-550.104"/>
</g>
</g>
</svg>
