<?xml version="1.0" encoding="UTF-8" standalone="no"?>
<!DOCTYPE svg PUBLIC "-//W3C//DTD SVG 1.1//EN"
 "http://www.w3.org/Graphics/SVG/1.1/DTD/svg11.dtd">
<!-- Generated by graphviz version 2.38.0 (20140413.2041)
 -->
<!-- Title: %3 Pages: 1 -->
<svg width="1348pt" height="764pt"
 viewBox="0.00 0.00 1347.50 764.00" xmlns="http://www.w3.org/2000/svg" xmlns:xlink="http://www.w3.org/1999/xlink">
<g id="graph0" class="graph" transform="scale(1 1) rotate(0) translate(4 760)">
<title>%3</title>
<polygon fill="white" stroke="none" points="-4,4 -4,-760 1343.5,-760 1343.5,4 -4,4"/>
<!-- sleepy -->
<g id="node1" class="node"><title>sleepy</title>
<polygon fill="blue" stroke="black" points="73,-756 0,-756 0,-720 73,-720 73,-756"/>
<text text-anchor="middle" x="36.5" y="-732.4" font-family="Times,serif" font-size="22.00">sleepy</text>
</g>
<!-- tobo -->
<g id="node2" class="node"><title>tobo</title>
<polygon fill="blue" stroke="black" points="690.5,-396 634.5,-396 634.5,-360 690.5,-360 690.5,-396"/>
<text text-anchor="middle" x="662.5" y="-372.4" font-family="Times,serif" font-size="22.00">tobo</text>
</g>
<!-- ITF&#45;mET_Transducer -->
<g id="node13" class="node"><title>ITF&#45;mET_Transducer</title>
<ellipse fill="green" stroke="black" cx="374.5" cy="-306" rx="89.0842" ry="18"/>
<text text-anchor="middle" x="374.5" y="-302.3" font-family="Times,serif" font-size="14.00">ITF&#45;mET_Transducer</text>
</g>
<!-- tobo&#45;&gt;ITF&#45;mET_Transducer -->
<g id="edge9" class="edge"><title>tobo&#45;&gt;ITF&#45;mET_Transducer</title>
<path fill="none" stroke="black" d="M634.199,-366.992C628.342,-364.454 622.272,-361.909 616.5,-360 584.822,-349.523 504.244,-333.155 444.662,-321.38"/>
<polygon fill="red" stroke="black" points="445.034,-317.886 434.546,-319.385 443.68,-324.754 445.034,-317.886"/>
</g>
<!-- ITF&#45;R_reserved -->
<g id="node14" class="node"><title>ITF&#45;R_reserved</title>
<ellipse fill="yellow" stroke="black" cx="548.5" cy="-306" rx="66.8882" ry="18"/>
<text text-anchor="middle" x="548.5" y="-302.3" font-family="Times,serif" font-size="14.00">ITF&#45;R_reserved</text>
</g>
<!-- tobo&#45;&gt;ITF&#45;R_reserved -->
<g id="edge7" class="edge"><title>tobo&#45;&gt;ITF&#45;R_reserved</title>
<path fill="none" stroke="black" d="M634.612,-359.876C619.04,-350.314 599.504,-338.318 582.978,-328.17"/>
<polygon fill="red" stroke="black" points="584.504,-325 574.15,-322.75 580.841,-330.966 584.504,-325"/>
</g>
<!-- ITF&#45;mET_SMA -->
<g id="node15" class="node"><title>ITF&#45;mET_SMA</title>
<ellipse fill="green" stroke="black" cx="702.5" cy="-306" rx="68.7879" ry="18"/>
<text text-anchor="middle" x="702.5" y="-302.3" font-family="Times,serif" font-size="14.00">ITF&#45;mET_SMA</text>
</g>
<!-- tobo&#45;&gt;ITF&#45;mET_SMA -->
<g id="edge8" class="edge"><title>tobo&#45;&gt;ITF&#45;mET_SMA</title>
<path fill="none" stroke="black" d="M672.388,-359.697C676.989,-351.644 682.56,-341.894 687.653,-332.982"/>
<polygon fill="red" stroke="black" points="690.804,-334.523 692.726,-324.104 684.726,-331.05 690.804,-334.523"/>
</g>
<!-- oneeye -->
<g id="node3" class="node"><title>oneeye</title>
<polygon fill="blue" stroke="black" points="373.5,-540 293.5,-540 293.5,-504 373.5,-504 373.5,-540"/>
<text text-anchor="middle" x="333.5" y="-516.4" font-family="Times,serif" font-size="22.00">oneeye</text>
</g>
<!-- ITF&#45;I_pulse_on -->
<g id="node10" class="node"><title>ITF&#45;I_pulse_on</title>
<ellipse fill="yellow" stroke="black" cx="580.5" cy="-450" rx="65.7887" ry="18"/>
<text text-anchor="middle" x="580.5" y="-446.3" font-family="Times,serif" font-size="14.00">ITF&#45;I_pulse_on</text>
</g>
<!-- oneeye&#45;&gt;ITF&#45;I_pulse_on -->
<g id="edge14" class="edge"><title>oneeye&#45;&gt;ITF&#45;I_pulse_on</title>
<path fill="none" stroke="black" d="M373.735,-509.597C415.38,-497.795 480.669,-479.292 526.722,-466.241"/>
<polygon fill="red" stroke="black" points="527.865,-469.555 536.532,-463.461 525.956,-462.82 527.865,-469.555"/>
</g>
<!-- ITF&#45;J_pulse_off -->
<g id="node11" class="node"><title>ITF&#45;J_pulse_off</title>
<ellipse fill="yellow" stroke="black" cx="429.5" cy="-450" rx="67.6881" ry="18"/>
<text text-anchor="middle" x="429.5" y="-446.3" font-family="Times,serif" font-size="14.00">ITF&#45;J_pulse_off</text>
</g>
<!-- oneeye&#45;&gt;ITF&#45;J_pulse_off -->
<g id="edge15" class="edge"><title>oneeye&#45;&gt;ITF&#45;J_pulse_off</title>
<path fill="none" stroke="black" d="M357.23,-503.697C369.921,-494.443 385.683,-482.95 399.246,-473.06"/>
<polygon fill="red" stroke="black" points="401.341,-475.864 407.359,-467.145 397.217,-470.208 401.341,-475.864"/>
</g>
<!-- ITF&#45;G_gain_control -->
<g id="node16" class="node"><title>ITF&#45;G_gain_control</title>
<ellipse fill="yellow" stroke="black" cx="534.5" cy="-378" rx="81.7856" ry="18"/>
<text text-anchor="middle" x="534.5" y="-374.3" font-family="Times,serif" font-size="14.00">ITF&#45;G_gain_control</text>
</g>
<!-- oneeye&#45;&gt;ITF&#45;G_gain_control -->
<g id="edge13" class="edge"><title>oneeye&#45;&gt;ITF&#45;G_gain_control</title>
<path fill="none" stroke="black" d="M332.293,-503.926C331.864,-484.08 334.321,-451.557 352.5,-432 367.862,-415.473 418.988,-401.444 463.155,-391.979"/>
<polygon fill="red" stroke="black" points="463.968,-395.385 473.039,-389.911 462.534,-388.534 463.968,-395.385"/>
</g>
<!-- ITF&#45;N_cc_motor_pwm -->
<g id="node17" class="node"><title>ITF&#45;N_cc_motor_pwm</title>
<ellipse fill="yellow" stroke="black" cx="341.5" cy="-378" rx="93.6835" ry="18"/>
<text text-anchor="middle" x="341.5" y="-374.3" font-family="Times,serif" font-size="14.00">ITF&#45;N_cc_motor_pwm</text>
</g>
<!-- oneeye&#45;&gt;ITF&#45;N_cc_motor_pwm -->
<g id="edge16" class="edge"><title>oneeye&#45;&gt;ITF&#45;N_cc_motor_pwm</title>
<path fill="none" stroke="black" d="M327.22,-503.865C321.469,-485.89 314.547,-456.85 319.5,-432 321.291,-423.011 324.637,-413.638 328.187,-405.318"/>
<polygon fill="red" stroke="black" points="331.416,-406.672 332.369,-396.12 325.044,-403.775 331.416,-406.672"/>
</g>
<!-- croaker -->
<g id="node4" class="node"><title>croaker</title>
<polygon fill="blue" stroke="black" points="467,-108 384,-108 384,-72 467,-72 467,-108"/>
<text text-anchor="middle" x="425.5" y="-84.4" font-family="Times,serif" font-size="22.00">croaker</text>
</g>
<!-- Screen -->
<g id="node19" class="node"><title>Screen</title>
<ellipse fill="yellow" stroke="black" cx="384.5" cy="-18" rx="34.394" ry="18"/>
<text text-anchor="middle" x="384.5" y="-14.3" font-family="Times,serif" font-size="14.00">Screen</text>
</g>
<!-- croaker&#45;&gt;Screen -->
<g id="edge20" class="edge"><title>croaker&#45;&gt;Screen</title>
<path fill="none" stroke="black" d="M415.365,-71.6966C410.528,-63.4374 404.645,-53.394 399.318,-44.2994"/>
<polygon fill="red" stroke="black" points="402.31,-42.4822 394.236,-35.6223 396.27,-46.0201 402.31,-42.4822"/>
</g>
<!-- WiFi -->
<g id="node20" class="node"><title>WiFi</title>
<ellipse fill="yellow" stroke="black" cx="466.5" cy="-18" rx="29.4969" ry="18"/>
<text text-anchor="middle" x="466.5" y="-14.3" font-family="Times,serif" font-size="14.00">WiFi</text>
</g>
<!-- croaker&#45;&gt;WiFi -->
<g id="edge21" class="edge"><title>croaker&#45;&gt;WiFi</title>
<path fill="none" stroke="black" d="M435.635,-71.6966C440.544,-63.316 446.528,-53.0983 451.916,-43.8988"/>
<polygon fill="red" stroke="black" points="455.01,-45.5423 457.044,-35.1446 448.97,-42.0045 455.01,-45.5423"/>
</g>
<!-- goblin -->
<g id="node5" class="node"><title>goblin</title>
<polygon fill="blue" stroke="black" points="715.5,-252 641.5,-252 641.5,-216 715.5,-216 715.5,-252"/>
<text text-anchor="middle" x="678.5" y="-228.4" font-family="Times,serif" font-size="22.00">goblin</text>
</g>
<!-- ITF&#45;mEG_SPI -->
<g id="node18" class="node"><title>ITF&#45;mEG_SPI</title>
<ellipse fill="green" stroke="black" cx="425.5" cy="-162" rx="63.0888" ry="18"/>
<text text-anchor="middle" x="425.5" y="-158.3" font-family="Times,serif" font-size="14.00">ITF&#45;mEG_SPI</text>
</g>
<!-- goblin&#45;&gt;ITF&#45;mEG_SPI -->
<g id="edge35" class="edge"><title>goblin&#45;&gt;ITF&#45;mEG_SPI</title>
<path fill="none" stroke="black" d="M641.441,-222.746C598.553,-210.88 527.584,-191.245 478.783,-177.742"/>
<polygon fill="red" stroke="black" points="479.601,-174.337 469.029,-175.044 477.734,-181.084 479.601,-174.337"/>
</g>
<!-- ITF&#45;C_amplified_raw_signal -->
<g id="node22" class="node"><title>ITF&#45;C_amplified_raw_signal</title>
<ellipse fill="yellow" stroke="black" cx="620.5" cy="-162" rx="114.28" ry="18"/>
<text text-anchor="middle" x="620.5" y="-158.3" font-family="Times,serif" font-size="14.00">ITF&#45;C_amplified_raw_signal</text>
</g>
<!-- goblin&#45;&gt;ITF&#45;C_amplified_raw_signal -->
<g id="edge32" class="edge"><title>goblin&#45;&gt;ITF&#45;C_amplified_raw_signal</title>
<path fill="none" stroke="black" d="M658.247,-215.697C650.507,-207.389 641.932,-197.277 634.825,-188.141"/>
<polygon fill="red" stroke="black" points="637.587,-185.99 628.777,-180.104 631.994,-190.199 637.587,-185.99"/>
</g>
<!-- ITF&#45;E_signal_envelope -->
<g id="node23" class="node"><title>ITF&#45;E_signal_envelope</title>
<ellipse fill="yellow" stroke="black" cx="846.5" cy="-162" rx="93.6835" ry="18"/>
<text text-anchor="middle" x="846.5" y="-158.3" font-family="Times,serif" font-size="14.00">ITF&#45;E_signal_envelope</text>
</g>
<!-- goblin&#45;&gt;ITF&#45;E_signal_envelope -->
<g id="edge34" class="edge"><title>goblin&#45;&gt;ITF&#45;E_signal_envelope</title>
<path fill="none" stroke="black" d="M713.7,-215.876C737.283,-205.602 768.622,-192.519 794.975,-181.938"/>
<polygon fill="red" stroke="black" points="796.445,-185.12 804.435,-178.162 793.85,-178.619 796.445,-185.12"/>
</g>
<!-- ADL5511 -->
<g id="node25" class="node"><title>ADL5511</title>
<ellipse fill="yellow" stroke="black" cx="1004.5" cy="-162" rx="46.2923" ry="18"/>
<text text-anchor="middle" x="1004.5" y="-158.3" font-family="Times,serif" font-size="14.00">ADL5511</text>
</g>
<!-- goblin&#45;&gt;ADL5511 -->
<g id="edge33" class="edge"><title>goblin&#45;&gt;ADL5511</title>
<path fill="none" stroke="black" d="M715.596,-227.036C768.054,-218.31 866.745,-200.819 949.5,-180 953.104,-179.093 956.822,-178.091 960.544,-177.041"/>
<polygon fill="red" stroke="black" points="961.717,-180.345 970.333,-174.179 959.752,-173.626 961.717,-180.345"/>
</g>
<!-- retro10PV -->
<g id="node6" class="node"><title>retro10PV</title>
<polygon fill="blue" stroke="black" points="205,-252 96,-252 96,-216 205,-216 205,-252"/>
<text text-anchor="middle" x="150.5" y="-228.4" font-family="Times,serif" font-size="22.00">retro10PV</text>
</g>
<!-- retro10PV&#45;&gt;ITF&#45;mET_Transducer -->
<g id="edge43" class="edge"><title>retro10PV&#45;&gt;ITF&#45;mET_Transducer</title>
<path fill="none" stroke="black" d="M205.054,-250.271C240.908,-261.067 287.459,-275.582 322.735,-286.952"/>
<polygon fill="red" stroke="black" points="321.776,-290.32 332.368,-290.069 323.931,-283.66 321.776,-290.32"/>
</g>
<!-- Motor -->
<g id="node27" class="node"><title>Motor</title>
<ellipse fill="yellow" stroke="black" cx="139.5" cy="-162" rx="33.2948" ry="18"/>
<text text-anchor="middle" x="139.5" y="-158.3" font-family="Times,serif" font-size="14.00">Motor</text>
</g>
<!-- retro10PV&#45;&gt;Motor -->
<g id="edge42" class="edge"><title>retro10PV&#45;&gt;Motor</title>
<path fill="none" stroke="black" d="M141.865,-215.697C139.857,-207.983 138.174,-198.712 137.165,-190.112"/>
<polygon fill="red" stroke="black" points="140.648,-189.763 136.293,-180.104 133.675,-190.371 140.648,-189.763"/>
</g>
<!-- Tri&#45;Piezo Head -->
<g id="node28" class="node"><title>Tri&#45;Piezo Head</title>
<ellipse fill="yellow" stroke="black" cx="255.5" cy="-162" rx="64.9885" ry="18"/>
<text text-anchor="middle" x="255.5" y="-158.3" font-family="Times,serif" font-size="14.00">Tri&#45;Piezo Head</text>
</g>
<!-- retro10PV&#45;&gt;Tri&#45;Piezo Head -->
<g id="edge44" class="edge"><title>retro10PV&#45;&gt;Tri&#45;Piezo Head</title>
<path fill="none" stroke="black" d="M170.289,-215.876C183.822,-206.177 202.017,-193.975 218.17,-183.737"/>
<polygon fill="red" stroke="black" points="220.271,-186.551 226.892,-178.279 216.558,-180.617 220.271,-186.551"/>
</g>
<!-- mogaba -->
<g id="node7" class="node"><title>mogaba</title>
<polygon fill="blue" stroke="black" points="233,-684 146,-684 146,-648 233,-648 233,-684"/>
<text text-anchor="middle" x="189.5" y="-660.4" font-family="Times,serif" font-size="22.00">mogaba</text>
</g>
<!-- ITF&#45;A_gnd -->
<g id="node8" class="node"><title>ITF&#45;A_gnd</title>
<ellipse fill="yellow" stroke="black" cx="189.5" cy="-594" rx="50.8918" ry="18"/>
<text text-anchor="middle" x="189.5" y="-590.3" font-family="Times,serif" font-size="14.00">ITF&#45;A_gnd</text>
</g>
<!-- mogaba&#45;&gt;ITF&#45;A_gnd -->
<g id="edge47" class="edge"><title>mogaba&#45;&gt;ITF&#45;A_gnd</title>
<path fill="none" stroke="black" d="M189.5,-647.697C189.5,-639.983 189.5,-630.712 189.5,-622.112"/>
<polygon fill="red" stroke="black" points="193,-622.104 189.5,-612.104 186,-622.104 193,-622.104"/>
</g>
<!-- ITF&#45;B_5v -->
<g id="node9" class="node"><title>ITF&#45;B_5v</title>
<ellipse fill="yellow" stroke="black" cx="712.5" cy="-594" rx="46.2923" ry="18"/>
<text text-anchor="middle" x="712.5" y="-590.3" font-family="Times,serif" font-size="14.00">ITF&#45;B_5v</text>
</g>
<!-- mogaba&#45;&gt;ITF&#45;B_5v -->
<g id="edge48" class="edge"><title>mogaba&#45;&gt;ITF&#45;B_5v</title>
<path fill="none" stroke="black" d="M233.191,-659.152C328.725,-646.366 555.913,-615.958 659.448,-602.101"/>
<polygon fill="red" stroke="black" points="660.22,-605.529 669.667,-600.733 659.291,-598.591 660.22,-605.529"/>
</g>
<!-- ITF&#45;S_3_3v -->
<g id="node12" class="node"><title>ITF&#45;S_3_3v</title>
<ellipse fill="yellow" stroke="black" cx="319.5" cy="-594" rx="53.8905" ry="18"/>
<text text-anchor="middle" x="319.5" y="-590.3" font-family="Times,serif" font-size="14.00">ITF&#45;S_3_3v</text>
</g>
<!-- mogaba&#45;&gt;ITF&#45;S_3_3v -->
<g id="edge50" class="edge"><title>mogaba&#45;&gt;ITF&#45;S_3_3v</title>
<path fill="none" stroke="black" d="M221.302,-647.876C240.12,-637.743 264.014,-624.877 283.52,-614.374"/>
<polygon fill="red" stroke="black" points="285.274,-617.404 292.42,-609.582 281.955,-611.241 285.274,-617.404"/>
</g>
<!-- ITF&#45;F_12V -->
<g id="node26" class="node"><title>ITF&#45;F_12V</title>
<ellipse fill="yellow" stroke="black" cx="69.5" cy="-594" rx="51.1914" ry="18"/>
<text text-anchor="middle" x="69.5" y="-590.3" font-family="Times,serif" font-size="14.00">ITF&#45;F_12V</text>
</g>
<!-- mogaba&#45;&gt;ITF&#45;F_12V -->
<g id="edge49" class="edge"><title>mogaba&#45;&gt;ITF&#45;F_12V</title>
<path fill="none" stroke="black" d="M154.248,-647.876C136.73,-638.245 115.874,-626.147 99.1783,-615.953"/>
<polygon fill="red" stroke="black" points="100.725,-612.795 90.3783,-610.514 97.0445,-618.749 100.725,-612.795"/>
</g>
<!-- ITF&#45;A_gnd&#45;&gt;tobo -->
<g id="edge1" class="edge"><title>ITF&#45;A_gnd&#45;&gt;tobo</title>
<path fill="none" stroke="black" d="M200.625,-576.262C224.129,-542.44 282.477,-466.272 352.5,-432 459.525,-379.617 505.469,-427.273 624.322,-395.788"/>
<polygon fill="black" stroke="black" points="625.448,-399.107 634.141,-393.052 623.569,-392.364 625.448,-399.107"/>
</g>
<!-- ITF&#45;A_gnd&#45;&gt;oneeye -->
<g id="edge10" class="edge"><title>ITF&#45;A_gnd&#45;&gt;oneeye</title>
<path fill="none" stroke="black" d="M218.294,-579.003C238.565,-569.149 266.086,-555.771 289.146,-544.561"/>
<polygon fill="black" stroke="black" points="290.929,-547.586 298.392,-540.066 287.868,-541.29 290.929,-547.586"/>
</g>
<!-- ITF&#45;A_gnd&#45;&gt;croaker -->
<g id="edge17" class="edge"><title>ITF&#45;A_gnd&#45;&gt;croaker</title>
<path fill="none" stroke="black" d="M163.627,-578.354C127.815,-555.939 67.5,-509.503 67.5,-451 67.5,-451 67.5,-451 67.5,-233 67.5,-191.258 65.6529,-170.985 97.5,-144 138.28,-109.446 291.909,-97.1457 373.628,-92.9874"/>
<polygon fill="black" stroke="black" points="373.887,-96.4791 383.705,-92.4974 373.547,-89.4874 373.887,-96.4791"/>
</g>
<!-- ITF&#45;A_gnd&#45;&gt;goblin -->
<g id="edge22" class="edge"><title>ITF&#45;A_gnd&#45;&gt;goblin</title>
<path fill="none" stroke="black" d="M187.919,-575.968C185.588,-549.332 181.5,-496.186 181.5,-451 181.5,-451 181.5,-451 181.5,-377 181.5,-332.268 191.608,-313.298 228.5,-288 293.104,-243.699 529.545,-236.25 631.354,-235.126"/>
<polygon fill="black" stroke="black" points="631.388,-238.626 641.354,-235.032 631.322,-231.627 631.388,-238.626"/>
</g>
<!-- ITF&#45;A_gnd&#45;&gt;retro10PV -->
<g id="edge36" class="edge"><title>ITF&#45;A_gnd&#45;&gt;retro10PV</title>
<path fill="none" stroke="black" d="M172.095,-576.927C147.491,-552.362 105.5,-502.844 105.5,-451 105.5,-451 105.5,-451 105.5,-377 105.5,-335.128 123.5,-289.42 136.732,-261.477"/>
<polygon fill="black" stroke="black" points="139.936,-262.892 141.176,-252.37 133.645,-259.822 139.936,-262.892"/>
</g>
<!-- ITF&#45;B_5v&#45;&gt;tobo -->
<g id="edge2" class="edge"><title>ITF&#45;B_5v&#45;&gt;tobo</title>
<path fill="none" stroke="black" d="M711.665,-575.693C709.839,-545.776 704.304,-482.724 688.5,-432 685.665,-422.9 681.458,-413.417 677.251,-405.03"/>
<polygon fill="black" stroke="black" points="680.316,-403.339 672.573,-396.106 674.116,-406.588 680.316,-403.339"/>
</g>
<!-- ITF&#45;B_5v&#45;&gt;oneeye -->
<g id="edge11" class="edge"><title>ITF&#45;B_5v&#45;&gt;oneeye</title>
<path fill="none" stroke="black" d="M671.58,-585.442C601.747,-572.544 459.771,-546.322 383.926,-532.313"/>
<polygon fill="black" stroke="black" points="384.146,-528.795 373.677,-530.421 382.875,-535.679 384.146,-528.795"/>
</g>
<!-- ITF&#45;B_5v&#45;&gt;croaker -->
<g id="edge18" class="edge"><title>ITF&#45;B_5v&#45;&gt;croaker</title>
<path fill="none" stroke="black" d="M758.581,-591.95C870.319,-588.835 1152.8,-577.389 1238.5,-540 1293.34,-516.076 1339.5,-510.83 1339.5,-451 1339.5,-451 1339.5,-451 1339.5,-233 1339.5,-102.42 1187.59,-169.376 1059.5,-144 846.165,-101.736 585.943,-93.1322 477.16,-91.4123"/>
<polygon fill="black" stroke="black" points="477.162,-87.912 467.112,-91.2664 477.061,-94.9113 477.162,-87.912"/>
</g>
<!-- ITF&#45;B_5v&#45;&gt;goblin -->
<g id="edge23" class="edge"><title>ITF&#45;B_5v&#45;&gt;goblin</title>
<path fill="none" stroke="black" d="M758.718,-591.739C897.569,-586.71 1301.5,-562.498 1301.5,-451 1301.5,-451 1301.5,-451 1301.5,-377 1301.5,-336.553 1312.8,-314.791 1282.5,-288 1241.09,-251.389 861.08,-239.177 725.932,-235.972"/>
<polygon fill="black" stroke="black" points="725.956,-232.471 715.878,-235.739 725.794,-239.47 725.956,-232.471"/>
</g>
<!-- ITF&#45;I_pulse_on&#45;&gt;tobo -->
<g id="edge3" class="edge"><title>ITF&#45;I_pulse_on&#45;&gt;tobo</title>
<path fill="none" stroke="black" d="M599.519,-432.765C609.974,-423.839 623.138,-412.601 634.724,-402.711"/>
<polygon fill="black" stroke="black" points="637.107,-405.279 642.441,-396.124 632.562,-399.955 637.107,-405.279"/>
</g>
<!-- ITF&#45;J_pulse_off&#45;&gt;tobo -->
<g id="edge4" class="edge"><title>ITF&#45;J_pulse_off&#45;&gt;tobo</title>
<path fill="none" stroke="black" d="M479.751,-437.855C517.585,-428.914 570.742,-415.186 624.996,-395.892"/>
<polygon fill="black" stroke="black" points="626.204,-399.177 634.42,-392.487 623.826,-392.593 626.204,-399.177"/>
</g>
<!-- ITF&#45;S_3_3v&#45;&gt;tobo -->
<g id="edge5" class="edge"><title>ITF&#45;S_3_3v&#45;&gt;tobo</title>
<path fill="none" stroke="black" d="M372.276,-590.193C448.542,-583.031 587.82,-557.667 655.5,-468 668.657,-450.569 669.451,-425.363 667.506,-406.222"/>
<polygon fill="black" stroke="black" points="670.975,-405.76 666.204,-396.301 664.035,-406.671 670.975,-405.76"/>
</g>
<!-- ITF&#45;S_3_3v&#45;&gt;oneeye -->
<g id="edge12" class="edge"><title>ITF&#45;S_3_3v&#45;&gt;oneeye</title>
<path fill="none" stroke="black" d="M322.961,-575.697C324.503,-567.983 326.358,-558.712 328.078,-550.112"/>
<polygon fill="black" stroke="black" points="331.55,-550.597 330.079,-540.104 324.686,-549.224 331.55,-550.597"/>
</g>
<!-- ITF&#45;S_3_3v&#45;&gt;goblin -->
<g id="edge24" class="edge"><title>ITF&#45;S_3_3v&#45;&gt;goblin</title>
<path fill="none" stroke="black" d="M306.57,-576.048C299.344,-565.981 290.594,-552.731 284.5,-540 235.993,-438.658 176.842,-358.278 264.5,-288 320.139,-243.393 534.955,-236.048 631.288,-235.036"/>
<polygon fill="black" stroke="black" points="631.363,-238.536 641.333,-234.949 631.303,-231.536 631.363,-238.536"/>
</g>
<!-- ITF&#45;mET_Transducer&#45;&gt;tobo -->
<g id="edge6" class="edge"><title>ITF&#45;mET_Transducer&#45;&gt;tobo</title>
<path fill="none" stroke="black" d="M441.057,-318.064C500.671,-328.923 584.538,-345.491 625.111,-357.137"/>
<polygon fill="black" stroke="black" points="624.317,-360.554 634.903,-360.134 626.365,-353.861 624.317,-360.554"/>
</g>
<!-- ITF&#45;mET_Transducer&#45;&gt;retro10PV -->
<g id="edge39" class="edge"><title>ITF&#45;mET_Transducer&#45;&gt;retro10PV</title>
<path fill="none" stroke="black" d="M324.462,-291.087C290.312,-280.846 245.028,-266.765 209.187,-255.274"/>
<polygon fill="black" stroke="black" points="209.937,-251.838 199.346,-252.107 207.793,-258.502 209.937,-251.838"/>
</g>
<!-- ITF&#45;R_reserved&#45;&gt;goblin -->
<g id="edge29" class="edge"><title>ITF&#45;R_reserved&#45;&gt;goblin</title>
<path fill="none" stroke="black" d="M577.029,-289.638C594.918,-280.006 618.256,-267.439 638.039,-256.787"/>
<polygon fill="black" stroke="black" points="639.701,-259.867 646.846,-252.044 636.382,-253.704 639.701,-259.867"/>
</g>
<!-- ITF&#45;mET_SMA&#45;&gt;goblin -->
<g id="edge31" class="edge"><title>ITF&#45;mET_SMA&#45;&gt;goblin</title>
<path fill="none" stroke="black" d="M696.69,-288.055C693.989,-280.176 690.711,-270.617 687.687,-261.794"/>
<polygon fill="black" stroke="black" points="690.977,-260.6 684.423,-252.275 684.355,-262.87 690.977,-260.6"/>
</g>
<!-- ITF&#45;G_gain_control&#45;&gt;goblin -->
<g id="edge25" class="edge"><title>ITF&#45;G_gain_control&#45;&gt;goblin</title>
<path fill="none" stroke="black" d="M474.629,-365.665C399.405,-351.286 279.665,-327.882 276.5,-324 266.388,-311.6 265.952,-300.03 276.5,-288 299.584,-261.672 529.601,-244.255 630.958,-237.8"/>
<polygon fill="black" stroke="black" points="631.459,-241.276 641.22,-237.156 631.021,-234.289 631.459,-241.276"/>
</g>
<!-- ITF&#45;N_cc_motor_pwm&#45;&gt;retro10PV -->
<g id="edge38" class="edge"><title>ITF&#45;N_cc_motor_pwm&#45;&gt;retro10PV</title>
<path fill="none" stroke="black" d="M316.615,-360.425C301.404,-350.158 281.643,-336.574 264.5,-324 235.108,-302.441 202.391,-276.713 179.572,-258.477"/>
<polygon fill="black" stroke="black" points="181.63,-255.641 171.638,-252.119 177.253,-261.104 181.63,-255.641"/>
</g>
<!-- ITF&#45;mEG_SPI&#45;&gt;croaker -->
<g id="edge19" class="edge"><title>ITF&#45;mEG_SPI&#45;&gt;croaker</title>
<path fill="none" stroke="black" d="M425.5,-143.697C425.5,-135.983 425.5,-126.712 425.5,-118.112"/>
<polygon fill="black" stroke="black" points="429,-118.104 425.5,-108.104 422,-118.104 429,-118.104"/>
</g>
<!-- ITF&#45;InternalPot1_gain_control -->
<g id="node21" class="node"><title>ITF&#45;InternalPot1_gain_control</title>
<ellipse fill="yellow" stroke="black" cx="908.5" cy="-306" rx="118.879" ry="18"/>
<text text-anchor="middle" x="908.5" y="-302.3" font-family="Times,serif" font-size="14.00">ITF&#45;InternalPot1_gain_control</text>
</g>
<!-- ITF&#45;InternalPot1_gain_control&#45;&gt;goblin -->
<g id="edge26" class="edge"><title>ITF&#45;InternalPot1_gain_control&#45;&gt;goblin</title>
<path fill="none" stroke="black" d="M858.026,-289.638C818.575,-277.631 764.144,-261.066 725.587,-249.331"/>
<polygon fill="black" stroke="black" points="726.238,-245.87 715.652,-246.307 724.2,-252.567 726.238,-245.87"/>
</g>
<!-- ITF&#45;C_amplified_raw_signal&#45;&gt;goblin -->
<g id="edge27" class="edge"><title>ITF&#45;C_amplified_raw_signal&#45;&gt;goblin</title>
<path fill="none" stroke="black" d="M640.567,-180.104C648.294,-188.383 656.874,-198.488 664.004,-207.64"/>
<polygon fill="black" stroke="black" points="661.264,-209.819 670.079,-215.697 666.853,-205.605 661.264,-209.819"/>
</g>
<!-- ITF&#45;E_signal_envelope&#45;&gt;goblin -->
<g id="edge28" class="edge"><title>ITF&#45;E_signal_envelope&#45;&gt;goblin</title>
<path fill="none" stroke="black" d="M814.034,-178.93C788.65,-190.039 753.169,-204.837 724.825,-216.143"/>
<polygon fill="black" stroke="black" points="723.519,-212.896 715.511,-219.834 726.097,-219.404 723.519,-212.896"/>
</g>
<!-- ITF&#45;InternalPot2_ADC_Vref -->
<g id="node24" class="node"><title>ITF&#45;InternalPot2_ADC_Vref</title>
<ellipse fill="yellow" stroke="black" cx="1159.5" cy="-306" rx="113.98" ry="18"/>
<text text-anchor="middle" x="1159.5" y="-302.3" font-family="Times,serif" font-size="14.00">ITF&#45;InternalPot2_ADC_Vref</text>
</g>
<!-- ITF&#45;InternalPot2_ADC_Vref&#45;&gt;goblin -->
<g id="edge30" class="edge"><title>ITF&#45;InternalPot2_ADC_Vref&#45;&gt;goblin</title>
<path fill="none" stroke="black" d="M1078.99,-293.284C977.942,-278.578 807.929,-253.836 725.769,-241.879"/>
<polygon fill="black" stroke="black" points="726.121,-238.394 715.721,-240.417 725.113,-245.321 726.121,-238.394"/>
</g>
<!-- ITF&#45;F_12V&#45;&gt;retro10PV -->
<g id="edge37" class="edge"><title>ITF&#45;F_12V&#45;&gt;retro10PV</title>
<path fill="none" stroke="black" d="M61.4054,-575.949C49.7173,-549.72 29.5,-497.614 29.5,-451 29.5,-451 29.5,-451 29.5,-377 29.5,-325.046 77.006,-282.449 112.485,-257.88"/>
<polygon fill="black" stroke="black" points="114.854,-260.505 121.209,-252.028 110.955,-254.692 114.854,-260.505"/>
</g>
<!-- ITF&#45;F_12V&#45;&gt;mogaba -->
<g id="edge46" class="edge"><title>ITF&#45;F_12V&#45;&gt;mogaba</title>
<path fill="none" stroke="black" d="M98.8328,-608.895C116.63,-618.52 139.231,-631.542 157.476,-642.619"/>
<polygon fill="black" stroke="black" points="155.688,-645.628 166.042,-647.876 159.35,-639.662 155.688,-645.628"/>
</g>
<!-- Motor&#45;&gt;retro10PV -->
<g id="edge40" class="edge"><title>Motor&#45;&gt;retro10PV</title>
<path fill="none" stroke="black" d="M147.956,-179.622C150.013,-187.356 151.746,-196.76 152.79,-205.508"/>
<polygon fill="black" stroke="black" points="149.324,-206.046 153.697,-215.697 156.296,-205.426 149.324,-206.046"/>
</g>
<!-- Tri&#45;Piezo Head&#45;&gt;retro10PV -->
<g id="edge41" class="edge"><title>Tri&#45;Piezo Head&#45;&gt;retro10PV</title>
<path fill="none" stroke="black" d="M236.629,-179.465C223.78,-188.71 206.451,-200.38 190.659,-210.463"/>
<polygon fill="black" stroke="black" points="188.672,-207.579 182.083,-215.876 192.408,-213.499 188.672,-207.579"/>
</g>
<!-- ITF&#45;mEM_Alimentation -->
<g id="node29" class="node"><title>ITF&#45;mEM_Alimentation</title>
<ellipse fill="green" stroke="black" cx="189.5" cy="-738" rx="98.5829" ry="18"/>
<text text-anchor="middle" x="189.5" y="-734.3" font-family="Times,serif" font-size="14.00">ITF&#45;mEM_Alimentation</text>
</g>
<!-- ITF&#45;mEM_Alimentation&#45;&gt;mogaba -->
<g id="edge45" class="edge"><title>ITF&#45;mEM_Alimentation&#45;&gt;mogaba</title>
<path fill="none" stroke="black" d="M189.5,-719.697C189.5,-711.983 189.5,-702.712 189.5,-694.112"/>
<polygon fill="black" stroke="black" points="193,-694.104 189.5,-684.104 186,-694.104 193,-694.104"/>
</g>
</g>
</svg>
