<?xml version="1.0" encoding="UTF-8" standalone="no"?>
<!DOCTYPE svg PUBLIC "-//W3C//DTD SVG 1.1//EN"
 "http://www.w3.org/Graphics/SVG/1.1/DTD/svg11.dtd">
<!-- Generated by graphviz version 2.38.0 (20140413.2041)
 -->
<!-- Title: %3 Pages: 1 -->
<svg width="5552pt" height="116pt"
 viewBox="0.00 0.00 5551.50 116.00" xmlns="http://www.w3.org/2000/svg" xmlns:xlink="http://www.w3.org/1999/xlink">
<g id="graph0" class="graph" transform="scale(1 1) rotate(0) translate(4 112)">
<title>%3</title>
<polygon fill="white" stroke="none" points="-4,4 -4,-112 5547.5,-112 5547.5,4 -4,4"/>
<!-- sleepy -->
<g id="node1" class="node"><title>sleepy</title>
<polygon fill="blue" stroke="black" points="73,-36 0,-36 0,-0 73,-0 73,-36"/>
<text text-anchor="middle" x="36.5" y="-12.4" font-family="Times,serif" font-size="22.00">sleepy</text>
</g>
<!-- tobo -->
<g id="node2" class="node"><title>tobo</title>
<polygon fill="blue" stroke="black" points="2046.5,-36 1990.5,-36 1990.5,-0 2046.5,-0 2046.5,-36"/>
<text text-anchor="middle" x="2018.5" y="-12.4" font-family="Times,serif" font-size="22.00">tobo</text>
</g>
<!-- elmo -->
<g id="node3" class="node"><title>elmo</title>
<polygon fill="blue" stroke="black" points="1972,-36 1911,-36 1911,-0 1972,-0 1972,-36"/>
<text text-anchor="middle" x="1941.5" y="-12.4" font-family="Times,serif" font-size="22.00">elmo</text>
</g>
<!-- cletus -->
<g id="node4" class="node"><title>cletus</title>
<polygon fill="blue" stroke="black" points="4246.5,-36 4178.5,-36 4178.5,-0 4246.5,-0 4246.5,-36"/>
<text text-anchor="middle" x="4212.5" y="-12.4" font-family="Times,serif" font-size="22.00">cletus</text>
</g>
<!-- tomtom -->
<g id="node5" class="node"><title>tomtom</title>
<polygon fill="blue" stroke="black" points="5045.5,-36 4959.5,-36 4959.5,-0 5045.5,-0 5045.5,-36"/>
<text text-anchor="middle" x="5002.5" y="-12.4" font-family="Times,serif" font-size="22.00">tomtom</text>
</g>
<!-- doj -->
<g id="node6" class="node"><title>doj</title>
<polygon fill="blue" stroke="black" points="5543.5,-108 5489.5,-108 5489.5,-72 5543.5,-72 5543.5,-108"/>
<text text-anchor="middle" x="5516.5" y="-84.4" font-family="Times,serif" font-size="22.00">doj</text>
</g>
<!-- oneeye -->
<g id="node7" class="node"><title>oneeye</title>
<polygon fill="blue" stroke="black" points="1402.5,-36 1322.5,-36 1322.5,-0 1402.5,-0 1402.5,-36"/>
<text text-anchor="middle" x="1362.5" y="-12.4" font-family="Times,serif" font-size="22.00">oneeye</text>
</g>
<!-- croaker -->
<g id="node8" class="node"><title>croaker</title>
<polygon fill="blue" stroke="black" points="1179,-36 1096,-36 1096,-0 1179,-0 1179,-36"/>
<text text-anchor="middle" x="1137.5" y="-12.4" font-family="Times,serif" font-size="22.00">croaker</text>
</g>
<!-- retroATL3 -->
<g id="node9" class="node"><title>retroATL3</title>
<polygon fill="blue" stroke="black" points="3847,-36 3734,-36 3734,-0 3847,-0 3847,-36"/>
<text text-anchor="middle" x="3790.5" y="-12.4" font-family="Times,serif" font-size="22.00">retroATL3</text>
</g>
<!-- toadkiller -->
<g id="node10" class="node"><title>toadkiller</title>
<polygon fill="blue" stroke="black" points="1298,-36 1197,-36 1197,-0 1298,-0 1298,-36"/>
<text text-anchor="middle" x="1247.5" y="-12.4" font-family="Times,serif" font-size="22.00">toadkiller</text>
</g>
<!-- goblin -->
<g id="node11" class="node"><title>goblin</title>
<polygon fill="blue" stroke="black" points="2822.5,-36 2748.5,-36 2748.5,-0 2822.5,-0 2822.5,-36"/>
<text text-anchor="middle" x="2785.5" y="-12.4" font-family="Times,serif" font-size="22.00">goblin</text>
</g>
<!-- silent -->
<g id="node12" class="node"><title>silent</title>
<polygon fill="blue" stroke="black" points="2381.5,-36 2317.5,-36 2317.5,-0 2381.5,-0 2381.5,-36"/>
<text text-anchor="middle" x="2349.5" y="-12.4" font-family="Times,serif" font-size="22.00">silent</text>
</g>
<!-- mogaba -->
<g id="node13" class="node"><title>mogaba</title>
<polygon fill="blue" stroke="black" points="1803,-36 1716,-36 1716,-0 1803,-0 1803,-36"/>
<text text-anchor="middle" x="1759.5" y="-12.4" font-family="Times,serif" font-size="22.00">mogaba</text>
</g>
<!-- None -->
<g id="node14" class="node"><title>None</title>
<ellipse fill="yellow" stroke="black" cx="36.5" cy="-90" rx="29.795" ry="18"/>
<text text-anchor="middle" x="36.5" y="-86.3" font-family="Times,serif" font-size="14.00">None</text>
</g>
<!-- None&#45;&gt;sleepy -->
<g id="edge1" class="edge"><title>None&#45;&gt;sleepy</title>
<path fill="none" stroke="black" d="M30.6218,-72.055C29.8037,-64.3456 29.5614,-55.0269 29.8949,-46.3642"/>
<polygon fill="black" stroke="black" points="33.3943,-46.4915 30.5872,-36.2753 26.4107,-46.0122 33.3943,-46.4915"/>
</g>
<!-- None&#45;&gt;sleepy -->
<g id="edge2" class="edge"><title>None&#45;&gt;sleepy</title>
<path fill="none" stroke="black" d="M42.3782,-72.055C43.1963,-64.3456 43.4386,-55.0269 43.1051,-46.3642"/>
<polygon fill="black" stroke="black" points="46.5893,-46.0122 42.4128,-36.2753 39.6057,-46.4915 46.5893,-46.0122"/>
</g>
<!-- ITF&#45;1_GND -->
<g id="node15" class="node"><title>ITF&#45;1_GND</title>
<ellipse fill="yellow" stroke="black" cx="1838.5" cy="-90" rx="54.6905" ry="18"/>
<text text-anchor="middle" x="1838.5" y="-86.3" font-family="Times,serif" font-size="14.00">ITF&#45;1_GND</text>
</g>
<!-- ITF&#45;1_GND&#45;&gt;tobo -->
<g id="edge3" class="edge"><title>ITF&#45;1_GND&#45;&gt;tobo</title>
<path fill="none" stroke="black" d="M1874.34,-76.3348C1903.2,-65.9667 1944.71,-50.6685 1980.5,-36 1980.7,-35.9178 1980.9,-35.8352 1981.1,-35.7521"/>
<polygon fill="black" stroke="black" points="1982.52,-38.9516 1990.36,-31.8258 1979.79,-32.5069 1982.52,-38.9516"/>
</g>
<!-- ITF&#45;1_GND&#45;&gt;elmo -->
<g id="edge12" class="edge"><title>ITF&#45;1_GND&#45;&gt;elmo</title>
<path fill="none" stroke="black" d="M1861.36,-73.4647C1874.93,-64.2391 1892.4,-52.3678 1907.56,-42.0643"/>
<polygon fill="black" stroke="black" points="1909.87,-44.7265 1916.18,-36.2108 1905.94,-38.937 1909.87,-44.7265"/>
</g>
<!-- ITF&#45;1_GND&#45;&gt;oneeye -->
<g id="edge35" class="edge"><title>ITF&#45;1_GND&#45;&gt;oneeye</title>
<path fill="none" stroke="black" d="M1799.04,-77.4712C1791.28,-75.4545 1783.17,-73.5192 1775.5,-72 1645.88,-46.3182 1490.8,-30.29 1412.7,-23.2231"/>
<polygon fill="black" stroke="black" points="1412.93,-19.7296 1402.66,-22.3254 1412.31,-26.7018 1412.93,-19.7296"/>
</g>
<!-- ITF&#45;1_GND&#45;&gt;croaker -->
<g id="edge44" class="edge"><title>ITF&#45;1_GND&#45;&gt;croaker</title>
<path fill="none" stroke="black" d="M1799.79,-77.2345C1791.82,-75.1868 1783.44,-73.3002 1775.5,-72 1520.4,-30.2153 1446.27,-85.1605 1189.03,-35.9887"/>
<polygon fill="black" stroke="black" points="1189.5,-32.5146 1179.02,-34.0398 1188.16,-39.3857 1189.5,-32.5146"/>
</g>
<!-- ITF&#45;1_GND&#45;&gt;toadkiller -->
<g id="edge59" class="edge"><title>ITF&#45;1_GND&#45;&gt;toadkiller</title>
<path fill="none" stroke="black" d="M1799.43,-77.251C1791.57,-75.2282 1783.31,-73.3468 1775.5,-72 1572.54,-37.0211 1516.66,-69.8146 1313.5,-36 1311.77,-35.7128 1310.03,-35.4022 1308.27,-35.0717"/>
<polygon fill="black" stroke="black" points="1308.62,-31.5697 1298.12,-32.9874 1307.21,-38.4267 1308.62,-31.5697"/>
</g>
<!-- ITF&#45;1_GND&#45;&gt;goblin -->
<g id="edge68" class="edge"><title>ITF&#45;1_GND&#45;&gt;goblin</title>
<path fill="none" stroke="black" d="M1877.21,-77.2267C1885.18,-75.1795 1893.56,-73.2951 1901.5,-72 1984.18,-58.5117 2566.75,-29.5778 2738.17,-21.272"/>
<polygon fill="black" stroke="black" points="2738.57,-24.7569 2748.38,-20.7778 2738.23,-17.7651 2738.57,-24.7569"/>
</g>
<!-- ITF&#45;1_GND&#45;&gt;silent -->
<g id="edge78" class="edge"><title>ITF&#45;1_GND&#45;&gt;silent</title>
<path fill="none" stroke="black" d="M1877.95,-77.4105C1885.71,-75.3991 1893.82,-73.4813 1901.5,-72 2049.25,-43.4845 2227.56,-27.9189 2307.34,-21.9264"/>
<polygon fill="black" stroke="black" points="2307.76,-25.4047 2317.48,-21.1769 2307.25,-18.4238 2307.76,-25.4047"/>
</g>
<!-- ITF&#45;1_GND&#45;&gt;mogaba -->
<g id="edge83" class="edge"><title>ITF&#45;1_GND&#45;&gt;mogaba</title>
<path fill="none" stroke="black" d="M1820.18,-72.7646C1810.2,-63.9247 1797.67,-52.8174 1786.58,-42.9967"/>
<polygon fill="black" stroke="black" points="1788.63,-40.1362 1778.83,-36.1239 1783.99,-45.3754 1788.63,-40.1362"/>
</g>
<!-- ITF&#45;2_VDD_5V -->
<g id="node16" class="node"><title>ITF&#45;2_VDD_5V</title>
<ellipse fill="yellow" stroke="black" cx="1980.5" cy="-90" rx="69.5877" ry="18"/>
<text text-anchor="middle" x="1980.5" y="-86.3" font-family="Times,serif" font-size="14.00">ITF&#45;2_VDD_5V</text>
</g>
<!-- ITF&#45;2_VDD_5V&#45;&gt;tobo -->
<g id="edge4" class="edge"><title>ITF&#45;2_VDD_5V&#45;&gt;tobo</title>
<path fill="none" stroke="black" d="M1989.7,-72.055C1994.07,-64.0067 1999.39,-54.2046 2004.26,-45.2259"/>
<polygon fill="black" stroke="black" points="2007.43,-46.7337 2009.12,-36.2753 2001.28,-43.394 2007.43,-46.7337"/>
</g>
<!-- ITF&#45;2_VDD_5V&#45;&gt;elmo -->
<g id="edge13" class="edge"><title>ITF&#45;2_VDD_5V&#45;&gt;elmo</title>
<path fill="none" stroke="black" d="M1971.06,-72.055C1966.58,-64.0067 1961.11,-54.2046 1956.11,-45.2259"/>
<polygon fill="black" stroke="black" points="1959.05,-43.3075 1951.12,-36.2753 1952.93,-46.7145 1959.05,-43.3075"/>
</g>
<!-- ITF&#45;2_VDD_5V&#45;&gt;oneeye -->
<g id="edge36" class="edge"><title>ITF&#45;2_VDD_5V&#45;&gt;oneeye</title>
<path fill="none" stroke="black" d="M1930.73,-77.2462C1921.39,-75.2976 1911.67,-73.4447 1902.5,-72 1723.57,-43.8184 1508.77,-28.0703 1412.94,-21.9774"/>
<polygon fill="black" stroke="black" points="1412.87,-18.4664 1402.67,-21.3328 1412.43,-25.4526 1412.87,-18.4664"/>
</g>
<!-- ITF&#45;2_VDD_5V&#45;&gt;croaker -->
<g id="edge45" class="edge"><title>ITF&#45;2_VDD_5V&#45;&gt;croaker</title>
<path fill="none" stroke="black" d="M1931.62,-77.0609C1922.02,-75.0801 1911.98,-73.2629 1902.5,-72 1590.49,-30.4315 1501.91,-94.3845 1189.27,-36.0198"/>
<polygon fill="black" stroke="black" points="1189.49,-32.4978 1179.01,-34.0749 1188.18,-39.3754 1189.49,-32.4978"/>
</g>
<!-- ITF&#45;2_VDD_5V&#45;&gt;toadkiller -->
<g id="edge60" class="edge"><title>ITF&#45;2_VDD_5V&#45;&gt;toadkiller</title>
<path fill="none" stroke="black" d="M1931.61,-77.1423C1922.01,-75.1544 1911.97,-73.3138 1902.5,-72 1642.72,-35.9691 1572.56,-76.8955 1313.5,-36 1311.77,-35.7273 1310.02,-35.4294 1308.26,-35.1101"/>
<polygon fill="black" stroke="black" points="1308.59,-31.6069 1298.1,-33.0746 1307.22,-38.4706 1308.59,-31.6069"/>
</g>
<!-- ITF&#45;2_VDD_5V&#45;&gt;goblin -->
<g id="edge69" class="edge"><title>ITF&#45;2_VDD_5V&#45;&gt;goblin</title>
<path fill="none" stroke="black" d="M2029.82,-77.1445C2039.3,-75.1815 2049.17,-73.3495 2058.5,-72 2312.95,-35.1865 2621.39,-23.4241 2737.89,-20.1367"/>
<polygon fill="black" stroke="black" points="2738.33,-23.626 2748.23,-19.8531 2738.13,-16.6287 2738.33,-23.626"/>
</g>
<!-- ITF&#45;2_VDD_5V&#45;&gt;silent -->
<g id="edge79" class="edge"><title>ITF&#45;2_VDD_5V&#45;&gt;silent</title>
<path fill="none" stroke="black" d="M2031.22,-77.6815C2040.29,-75.732 2049.67,-73.7666 2058.5,-72 2146.67,-54.3675 2250.37,-36.0602 2307.1,-26.2505"/>
<polygon fill="black" stroke="black" points="2307.88,-29.669 2317.13,-24.5198 2306.69,-22.7708 2307.88,-29.669"/>
</g>
<!-- ITF&#45;2_VDD_5V&#45;&gt;mogaba -->
<g id="edge84" class="edge"><title>ITF&#45;2_VDD_5V&#45;&gt;mogaba</title>
<path fill="none" stroke="black" d="M1938.41,-75.6688C1902.89,-64.4169 1851.81,-48.2392 1813.32,-36.0471"/>
<polygon fill="black" stroke="black" points="1813.91,-32.5634 1803.32,-32.8804 1811.8,-39.2367 1813.91,-32.5634"/>
</g>
<!-- ITF&#45;9_Pon -->
<g id="node17" class="node"><title>ITF&#45;9_Pon</title>
<ellipse fill="yellow" stroke="black" cx="1241.5" cy="-90" rx="49.2915" ry="18"/>
<text text-anchor="middle" x="1241.5" y="-86.3" font-family="Times,serif" font-size="14.00">ITF&#45;9_Pon</text>
</g>
<!-- ITF&#45;9_Pon&#45;&gt;tobo -->
<g id="edge5" class="edge"><title>ITF&#45;9_Pon&#45;&gt;tobo</title>
<path fill="none" stroke="black" d="M1276.77,-77.2468C1284.21,-75.171 1292.05,-73.2705 1299.5,-72 1598.27,-21.0315 1685.86,-107.085 1980.5,-36 1980.6,-35.9756 1980.7,-35.951 1980.8,-35.9261"/>
<polygon fill="black" stroke="black" points="1981.76,-39.2943 1990.26,-32.9765 1979.68,-32.6116 1981.76,-39.2943"/>
</g>
<!-- ITF&#45;9_Pon&#45;&gt;oneeye -->
<g id="edge38" class="edge"><title>ITF&#45;9_Pon&#45;&gt;oneeye</title>
<path fill="none" stroke="black" d="M1266.87,-74.3257C1283.42,-64.7479 1305.35,-52.0624 1324.03,-41.2547"/>
<polygon fill="black" stroke="black" points="1326,-44.159 1332.9,-36.1218 1322.5,-38.0999 1326,-44.159"/>
</g>
<!-- ITF&#45;9_Pon&#45;&gt;croaker -->
<g id="edge43" class="edge"><title>ITF&#45;9_Pon&#45;&gt;croaker</title>
<path fill="none" stroke="black" d="M1218.93,-73.811C1205.02,-64.4471 1186.92,-52.2623 1171.31,-41.7598"/>
<polygon fill="black" stroke="black" points="1173.2,-38.807 1162.95,-36.1267 1169.29,-44.6141 1173.2,-38.807"/>
</g>
<!-- ITF&#45;9_Pon&#45;&gt;toadkiller -->
<g id="edge65" class="edge"><title>ITF&#45;9_Pon&#45;&gt;toadkiller</title>
<path fill="none" stroke="black" d="M1242.98,-71.6966C1243.64,-63.9827 1244.44,-54.7125 1245.18,-46.1124"/>
<polygon fill="black" stroke="black" points="1248.67,-46.3667 1246.03,-36.1043 1241.69,-45.7689 1248.67,-46.3667"/>
</g>
<!-- ITF&#45;10_Poff -->
<g id="node18" class="node"><title>ITF&#45;10_Poff</title>
<ellipse fill="yellow" stroke="black" cx="1118.5" cy="-90" rx="55.4913" ry="18"/>
<text text-anchor="middle" x="1118.5" y="-86.3" font-family="Times,serif" font-size="14.00">ITF&#45;10_Poff</text>
</g>
<!-- ITF&#45;10_Poff&#45;&gt;tobo -->
<g id="edge6" class="edge"><title>ITF&#45;10_Poff&#45;&gt;tobo</title>
<path fill="none" stroke="black" d="M1157.75,-77.3154C1166.18,-75.2073 1175.08,-73.2764 1183.5,-72 1534.08,-18.8457 1635.49,-117.838 1980.5,-36 1980.6,-35.976 1980.7,-35.9518 1980.8,-35.9273"/>
<polygon fill="black" stroke="black" points="1981.75,-39.2983 1990.27,-33.0016 1979.68,-32.6104 1981.75,-39.2983"/>
</g>
<!-- ITF&#45;10_Poff&#45;&gt;oneeye -->
<g id="edge39" class="edge"><title>ITF&#45;10_Poff&#45;&gt;oneeye</title>
<path fill="none" stroke="black" d="M1159.27,-77.7578C1197.4,-67.186 1255.89,-50.8136 1306.5,-36 1308.44,-35.4327 1310.41,-34.851 1312.41,-34.2606"/>
<polygon fill="black" stroke="black" points="1313.87,-37.4753 1322.46,-31.2621 1311.87,-30.7675 1313.87,-37.4753"/>
</g>
<!-- ITF&#45;10_Poff&#45;&gt;croaker -->
<g id="edge42" class="edge"><title>ITF&#45;10_Poff&#45;&gt;croaker</title>
<path fill="none" stroke="black" d="M1123.1,-72.055C1125.21,-64.2609 1127.78,-54.8219 1130.15,-46.0789"/>
<polygon fill="black" stroke="black" points="1133.57,-46.843 1132.81,-36.2753 1126.81,-45.0093 1133.57,-46.843"/>
</g>
<!-- ITF&#45;10_Poff&#45;&gt;toadkiller -->
<g id="edge66" class="edge"><title>ITF&#45;10_Poff&#45;&gt;toadkiller</title>
<path fill="none" stroke="black" d="M1145.86,-74.1548C1163.69,-64.4797 1187.26,-51.6877 1207.22,-40.859"/>
<polygon fill="black" stroke="black" points="1208.98,-43.8857 1216.1,-36.04 1205.64,-37.7332 1208.98,-43.8857"/>
</g>
<!-- ITF&#45;19_3.3V -->
<g id="node19" class="node"><title>ITF&#45;19_3.3V</title>
<ellipse fill="yellow" stroke="black" cx="1708.5" cy="-90" rx="57.6901" ry="18"/>
<text text-anchor="middle" x="1708.5" y="-86.3" font-family="Times,serif" font-size="14.00">ITF&#45;19_3.3V</text>
</g>
<!-- ITF&#45;19_3.3V&#45;&gt;tobo -->
<g id="edge7" class="edge"><title>ITF&#45;19_3.3V&#45;&gt;tobo</title>
<path fill="none" stroke="black" d="M1750.63,-77.6185C1758.54,-75.6338 1766.75,-73.6724 1774.5,-72 1865.35,-52.3931 1891.62,-63.1856 1980.5,-36 1980.6,-35.9696 1980.7,-35.939 1980.8,-35.9083"/>
<polygon fill="black" stroke="black" points="1981.9,-39.2299 1990.16,-32.5875 1979.56,-32.6328 1981.9,-39.2299"/>
</g>
<!-- ITF&#45;19_3.3V&#45;&gt;elmo -->
<g id="edge14" class="edge"><title>ITF&#45;19_3.3V&#45;&gt;elmo</title>
<path fill="none" stroke="black" d="M1748.55,-76.9666C1791.2,-64.1558 1858.3,-43.9953 1901.08,-31.1428"/>
<polygon fill="black" stroke="black" points="1902.31,-34.4295 1910.88,-28.2002 1900.29,-27.7255 1902.31,-34.4295"/>
</g>
<!-- ITF&#45;19_3.3V&#45;&gt;croaker -->
<g id="edge46" class="edge"><title>ITF&#45;19_3.3V&#45;&gt;croaker</title>
<path fill="none" stroke="black" d="M1666.91,-77.2876C1658.55,-75.2617 1649.79,-73.3699 1641.5,-72 1445.02,-39.5233 1387.58,-75.6908 1188.9,-35.9938"/>
<polygon fill="black" stroke="black" points="1189.52,-32.5486 1179.03,-33.9818 1188.13,-39.4077 1189.52,-32.5486"/>
</g>
<!-- ITF&#45;19_3.3V&#45;&gt;toadkiller -->
<g id="edge61" class="edge"><title>ITF&#45;19_3.3V&#45;&gt;toadkiller</title>
<path fill="none" stroke="black" d="M1666.88,-77.4854C1658.52,-75.4433 1649.77,-73.4948 1641.5,-72 1497.19,-45.903 1457.77,-62.3573 1313.5,-36 1311.78,-35.6857 1310.04,-35.351 1308.28,-34.9993"/>
<polygon fill="black" stroke="black" points="1308.66,-31.4999 1298.14,-32.8231 1307.19,-38.344 1308.66,-31.4999"/>
</g>
<!-- ITF&#45;19_3.3V&#45;&gt;mogaba -->
<g id="edge85" class="edge"><title>ITF&#45;19_3.3V&#45;&gt;mogaba</title>
<path fill="none" stroke="black" d="M1720.85,-72.055C1726.89,-63.7526 1734.3,-53.5837 1741.01,-44.3778"/>
<polygon fill="black" stroke="black" points="1743.85,-46.4187 1746.91,-36.2753 1738.2,-42.2967 1743.85,-46.4187"/>
</g>
<!-- ITF&#45;mET_Transducer -->
<g id="node20" class="node"><title>ITF&#45;mET_Transducer</title>
<ellipse fill="green" stroke="black" cx="3790.5" cy="-90" rx="89.0842" ry="18"/>
<text text-anchor="middle" x="3790.5" y="-86.3" font-family="Times,serif" font-size="14.00">ITF&#45;mET_Transducer</text>
</g>
<!-- ITF&#45;mET_Transducer&#45;&gt;tobo -->
<g id="edge8" class="edge"><title>ITF&#45;mET_Transducer&#45;&gt;tobo</title>
<path fill="none" stroke="black" d="M3725.21,-77.7452C3711.42,-75.4542 3696.99,-73.3382 3683.5,-72 3071.19,-11.2545 2914.27,-62.0078 2299.5,-36 2212.58,-32.3228 2111.13,-25.8825 2056.94,-22.0723"/>
<polygon fill="black" stroke="black" points="2056.98,-18.5661 2046.75,-21.347 2056.48,-25.5484 2056.98,-18.5661"/>
</g>
<!-- ITF&#45;mET_Transducer&#45;&gt;tobo -->
<g id="edge11" class="edge"><title>ITF&#45;mET_Transducer&#45;&gt;tobo</title>
<path fill="none" stroke="black" d="M3733.14,-76.1625C3722.67,-74.5001 3711.81,-73.0228 3701.5,-72 3089.19,-11.2545 2932.27,-62.0078 2317.5,-36 2224.05,-32.0466 2113.8,-24.8994 2056.72,-21.2606"/>
<polygon fill="black" stroke="black" points="2056.89,-17.7649 2046.69,-20.6235 2056.45,-24.7508 2056.89,-17.7649"/>
</g>
<!-- ITF&#45;mET_Transducer&#45;&gt;cletus -->
<g id="edge21" class="edge"><title>ITF&#45;mET_Transducer&#45;&gt;cletus</title>
<path fill="none" stroke="black" d="M3851.43,-76.7988C3860.81,-75.1712 3870.39,-73.5352 3879.5,-72 3982.52,-54.6387 4104.12,-34.968 4168.18,-25.1954"/>
<polygon fill="black" stroke="black" points="4168.96,-28.616 4178.33,-23.6574 4167.92,-21.695 4168.96,-28.616"/>
</g>
<!-- ITF&#45;mET_Transducer&#45;&gt;cletus -->
<g id="edge24" class="edge"><title>ITF&#45;mET_Transducer&#45;&gt;cletus</title>
<path fill="none" stroke="black" d="M3859.14,-78.5249C3871.94,-76.346 3885.15,-74.0804 3897.5,-72 3994.2,-55.7042 4107.26,-37.3737 4168.29,-27.1037"/>
<polygon fill="black" stroke="black" points="4169.06,-30.5218 4178.34,-25.4041 4167.9,-23.6197 4169.06,-30.5218"/>
</g>
<!-- ITF&#45;mET_Transducer&#45;&gt;retroATL3 -->
<g id="edge53" class="edge"><title>ITF&#45;mET_Transducer&#45;&gt;retroATL3</title>
<path fill="none" stroke="black" d="M3784.58,-71.6966C3783.79,-63.9827 3783.56,-54.7125 3783.9,-46.1124"/>
<polygon fill="black" stroke="black" points="3787.4,-46.3243 3784.6,-36.1043 3780.42,-45.8356 3787.4,-46.3243"/>
</g>
<!-- ITF&#45;mET_Transducer&#45;&gt;retroATL3 -->
<g id="edge57" class="edge"><title>ITF&#45;mET_Transducer&#45;&gt;retroATL3</title>
<path fill="none" stroke="black" d="M3796.42,-71.6966C3797.21,-63.9827 3797.44,-54.7125 3797.1,-46.1124"/>
<polygon fill="black" stroke="black" points="3800.58,-45.8356 3796.4,-36.1043 3793.6,-46.3243 3800.58,-45.8356"/>
</g>
<!-- ITF&#45;18_Raw -->
<g id="node21" class="node"><title>ITF&#45;18_Raw</title>
<ellipse fill="yellow" stroke="black" cx="2857.5" cy="-90" rx="55.7903" ry="18"/>
<text text-anchor="middle" x="2857.5" y="-86.3" font-family="Times,serif" font-size="14.00">ITF&#45;18_Raw</text>
</g>
<!-- ITF&#45;18_Raw&#45;&gt;tobo -->
<g id="edge9" class="edge"><title>ITF&#45;18_Raw&#45;&gt;tobo</title>
<path fill="none" stroke="black" d="M2817.53,-77.2914C2809.31,-75.2393 2800.67,-73.3365 2792.5,-72 2719.56,-60.0719 2202.64,-29.6327 2056.75,-21.1968"/>
<polygon fill="black" stroke="black" points="2056.7,-17.6877 2046.51,-20.6054 2056.29,-24.6761 2056.7,-17.6877"/>
</g>
<!-- ITF&#45;18_Raw&#45;&gt;goblin -->
<g id="edge73" class="edge"><title>ITF&#45;18_Raw&#45;&gt;goblin</title>
<path fill="none" stroke="black" d="M2840.8,-72.7646C2831.8,-64.0105 2820.51,-53.0328 2810.48,-43.2831"/>
<polygon fill="black" stroke="black" points="2812.72,-40.5852 2803.11,-36.1239 2807.84,-45.6042 2812.72,-40.5852"/>
</g>
<!-- ITF&#45;18_Raw&#45;&gt;silent -->
<g id="edge81" class="edge"><title>ITF&#45;18_Raw&#45;&gt;silent</title>
<path fill="none" stroke="black" d="M2817.13,-77.5276C2809.02,-75.482 2800.52,-73.5215 2792.5,-72 2646.65,-44.338 2470.91,-28.3899 2391.76,-22.1197"/>
<polygon fill="black" stroke="black" points="2391.94,-18.623 2381.7,-21.3335 2391.39,-25.6018 2391.94,-18.623"/>
</g>
<!-- ITF&#45;mET_SMA -->
<g id="node22" class="node"><title>ITF&#45;mET_SMA</title>
<ellipse fill="green" stroke="black" cx="2714.5" cy="-90" rx="68.7879" ry="18"/>
<text text-anchor="middle" x="2714.5" y="-86.3" font-family="Times,serif" font-size="14.00">ITF&#45;mET_SMA</text>
</g>
<!-- ITF&#45;mET_SMA&#45;&gt;tobo -->
<g id="edge10" class="edge"><title>ITF&#45;mET_SMA&#45;&gt;tobo</title>
<path fill="none" stroke="black" d="M2665.16,-77.2409C2655.69,-75.269 2645.82,-73.4091 2636.5,-72 2418.67,-39.0625 2154.32,-24.9212 2056.92,-20.5692"/>
<polygon fill="black" stroke="black" points="2056.82,-17.0618 2046.68,-20.1206 2056.52,-24.0551 2056.82,-17.0618"/>
</g>
<!-- ITF&#45;mET_SMA&#45;&gt;goblin -->
<g id="edge74" class="edge"><title>ITF&#45;mET_SMA&#45;&gt;goblin</title>
<path fill="none" stroke="black" d="M2731.33,-72.411C2740.15,-63.7123 2751.12,-52.8926 2760.88,-43.2706"/>
<polygon fill="black" stroke="black" points="2763.39,-45.7141 2768.05,-36.201 2758.47,-40.7294 2763.39,-45.7141"/>
</g>
<!-- ITF&#45;12_RPIn -->
<g id="node23" class="node"><title>ITF&#45;12_RPIn</title>
<ellipse fill="yellow" stroke="black" cx="2427.5" cy="-90" rx="57.6901" ry="18"/>
<text text-anchor="middle" x="2427.5" y="-86.3" font-family="Times,serif" font-size="14.00">ITF&#45;12_RPIn</text>
</g>
<!-- ITF&#45;12_RPIn&#45;&gt;elmo -->
<g id="edge15" class="edge"><title>ITF&#45;12_RPIn&#45;&gt;elmo</title>
<path fill="none" stroke="black" d="M2385.9,-77.3897C2377.54,-75.3554 2368.78,-73.4344 2360.5,-72 2197.04,-43.6722 2147.44,-76.258 1982.2,-35.6592"/>
<polygon fill="black" stroke="black" points="1982.73,-32.1853 1972.18,-33.1447 1981.03,-38.9746 1982.73,-32.1853"/>
</g>
<!-- Signal Digitalized -->
<g id="node24" class="node"><title>Signal Digitalized</title>
<ellipse fill="yellow" stroke="black" cx="2276.5" cy="-90" rx="74.9875" ry="18"/>
<text text-anchor="middle" x="2276.5" y="-86.3" font-family="Times,serif" font-size="14.00">Signal Digitalized</text>
</g>
<!-- Signal Digitalized&#45;&gt;elmo -->
<g id="edge16" class="edge"><title>Signal Digitalized&#45;&gt;elmo</title>
<path fill="none" stroke="black" d="M2221.87,-77.6917C2212.1,-75.7412 2202.01,-73.7727 2192.5,-72 2102.08,-55.1417 2074.6,-62.2687 1982.02,-35.7594"/>
<polygon fill="black" stroke="black" points="1982.83,-32.3488 1972.25,-32.9067 1980.87,-39.0684 1982.83,-32.3488"/>
</g>
<!-- ITF&#45;A_gnd -->
<g id="node25" class="node"><title>ITF&#45;A_gnd</title>
<ellipse fill="yellow" stroke="black" cx="4350.5" cy="-90" rx="50.8918" ry="18"/>
<text text-anchor="middle" x="4350.5" y="-86.3" font-family="Times,serif" font-size="14.00">ITF&#45;A_gnd</text>
</g>
<!-- ITF&#45;A_gnd&#45;&gt;cletus -->
<g id="edge17" class="edge"><title>ITF&#45;A_gnd&#45;&gt;cletus</title>
<path fill="none" stroke="black" d="M4322.57,-74.8345C4303.28,-65.0468 4277.24,-51.8414 4255.34,-40.7303"/>
<polygon fill="black" stroke="black" points="4256.74,-37.5151 4246.24,-36.1127 4253.57,-43.7579 4256.74,-37.5151"/>
</g>
<!-- ITF&#45;A_gnd&#45;&gt;tomtom -->
<g id="edge25" class="edge"><title>ITF&#45;A_gnd&#45;&gt;tomtom</title>
<path fill="none" stroke="black" d="M4386.75,-77.3768C4394.21,-75.318 4402.06,-73.391 4409.5,-72 4606.2,-35.2224 4844.54,-23.7595 4949.04,-20.3564"/>
<polygon fill="black" stroke="black" points="4949.44,-23.8456 4959.33,-20.0336 4949.22,-16.8491 4949.44,-23.8456"/>
</g>
<!-- ITF&#45;A_gnd&#45;&gt;retroATL3 -->
<g id="edge50" class="edge"><title>ITF&#45;A_gnd&#45;&gt;retroATL3</title>
<path fill="none" stroke="black" d="M4313.61,-77.4821C4306.02,-75.4152 4298.05,-73.4582 4290.5,-72 4137.1,-42.3633 3953.8,-28.2608 3857.39,-22.4577"/>
<polygon fill="black" stroke="black" points="3857.39,-18.9518 3847.2,-21.856 3856.98,-25.9396 3857.39,-18.9518"/>
</g>
<!-- ITF&#45;B_5v -->
<g id="node26" class="node"><title>ITF&#45;B_5v</title>
<ellipse fill="yellow" stroke="black" cx="4670.5" cy="-90" rx="46.2923" ry="18"/>
<text text-anchor="middle" x="4670.5" y="-86.3" font-family="Times,serif" font-size="14.00">ITF&#45;B_5v</text>
</g>
<!-- ITF&#45;B_5v&#45;&gt;cletus -->
<g id="edge18" class="edge"><title>ITF&#45;B_5v&#45;&gt;cletus</title>
<path fill="none" stroke="black" d="M4636.71,-77.5723C4629.75,-75.4984 4622.43,-73.5158 4615.5,-72 4486.61,-43.8181 4331.04,-28.5318 4256.5,-22.3362"/>
<polygon fill="black" stroke="black" points="4256.79,-18.8478 4246.54,-21.5219 4256.22,-25.8245 4256.79,-18.8478"/>
</g>
<!-- ITF&#45;B_5v&#45;&gt;tomtom -->
<g id="edge26" class="edge"><title>ITF&#45;B_5v&#45;&gt;tomtom</title>
<path fill="none" stroke="black" d="M4704.66,-77.7992C4711.52,-75.7311 4718.71,-73.693 4725.5,-72 4802.65,-52.7592 4893.38,-36.6021 4949.42,-27.3589"/>
<polygon fill="black" stroke="black" points="4950.17,-30.7835 4959.47,-25.7142 4949.04,-23.8754 4950.17,-30.7835"/>
</g>
<!-- ITF&#45;N_cc_motor_pwm -->
<g id="node27" class="node"><title>ITF&#45;N_cc_motor_pwm</title>
<ellipse fill="yellow" stroke="black" cx="4512.5" cy="-90" rx="93.6835" ry="18"/>
<text text-anchor="middle" x="4512.5" y="-86.3" font-family="Times,serif" font-size="14.00">ITF&#45;N_cc_motor_pwm</text>
</g>
<!-- ITF&#45;N_cc_motor_pwm&#45;&gt;cletus -->
<g id="edge19" class="edge"><title>ITF&#45;N_cc_motor_pwm&#45;&gt;cletus</title>
<path fill="none" stroke="black" d="M4455.37,-75.6688C4397.51,-62.1694 4309.27,-41.5796 4256.6,-29.289"/>
<polygon fill="black" stroke="black" points="4257.09,-25.81 4246.55,-26.9461 4255.5,-32.6269 4257.09,-25.81"/>
</g>
<!-- ITF&#45;N_cc_motor_pwm&#45;&gt;tomtom -->
<g id="edge33" class="edge"><title>ITF&#45;N_cc_motor_pwm&#45;&gt;tomtom</title>
<path fill="none" stroke="black" d="M4580.33,-77.5332C4592.05,-75.6297 4604.12,-73.718 4615.5,-72 4734.62,-54.0165 4874.77,-35.4703 4949.41,-25.8019"/>
<polygon fill="black" stroke="black" points="4950.03,-29.2511 4959.49,-24.4975 4949.13,-22.3089 4950.03,-29.2511"/>
</g>
<!-- ITF&#45;N_cc_motor_pwm&#45;&gt;retroATL3 -->
<g id="edge52" class="edge"><title>ITF&#45;N_cc_motor_pwm&#45;&gt;retroATL3</title>
<path fill="none" stroke="black" d="M4446.5,-77.2087C4434.54,-75.2985 4422.17,-73.4685 4410.5,-72 4209.89,-46.7495 3971.23,-30.0919 3857.37,-22.9588"/>
<polygon fill="black" stroke="black" points="3857.28,-19.4462 3847.08,-22.3187 3856.84,-26.4327 3857.28,-19.4462"/>
</g>
<!-- ITF&#45;S_3_3v -->
<g id="node28" class="node"><title>ITF&#45;S_3_3v</title>
<ellipse fill="yellow" stroke="black" cx="4071.5" cy="-90" rx="53.8905" ry="18"/>
<text text-anchor="middle" x="4071.5" y="-86.3" font-family="Times,serif" font-size="14.00">ITF&#45;S_3_3v</text>
</g>
<!-- ITF&#45;S_3_3v&#45;&gt;cletus -->
<g id="edge20" class="edge"><title>ITF&#45;S_3_3v&#45;&gt;cletus</title>
<path fill="none" stroke="black" d="M4100.37,-74.6655C4120.27,-64.7869 4147.06,-51.4863 4169.47,-40.3637"/>
<polygon fill="black" stroke="black" points="4171.05,-43.4866 4178.45,-35.9049 4167.94,-37.2168 4171.05,-43.4866"/>
</g>
<!-- ITF&#45;mET_Piezo -->
<g id="node29" class="node"><title>ITF&#45;mET_Piezo</title>
<ellipse fill="green" stroke="black" cx="4212.5" cy="-90" rx="68.7879" ry="18"/>
<text text-anchor="middle" x="4212.5" y="-86.3" font-family="Times,serif" font-size="14.00">ITF&#45;mET_Piezo</text>
</g>
<!-- ITF&#45;mET_Piezo&#45;&gt;cletus -->
<g id="edge22" class="edge"><title>ITF&#45;mET_Piezo&#45;&gt;cletus</title>
<path fill="none" stroke="black" d="M4206.62,-72.055C4205.8,-64.3456 4205.56,-55.0269 4205.89,-46.3642"/>
<polygon fill="black" stroke="black" points="4209.39,-46.4915 4206.59,-36.2753 4202.41,-46.0122 4209.39,-46.4915"/>
</g>
<!-- ITF&#45;mET_Piezo&#45;&gt;cletus -->
<g id="edge23" class="edge"><title>ITF&#45;mET_Piezo&#45;&gt;cletus</title>
<path fill="none" stroke="black" d="M4218.38,-72.055C4219.2,-64.3456 4219.44,-55.0269 4219.11,-46.3642"/>
<polygon fill="black" stroke="black" points="4222.59,-46.0122 4218.41,-36.2753 4215.61,-46.4915 4222.59,-46.0122"/>
</g>
<!-- ITF&#45;E_signal_envelope -->
<g id="node30" class="node"><title>ITF&#45;E_signal_envelope</title>
<ellipse fill="yellow" stroke="black" cx="5228.5" cy="-90" rx="93.6835" ry="18"/>
<text text-anchor="middle" x="5228.5" y="-86.3" font-family="Times,serif" font-size="14.00">ITF&#45;E_signal_envelope</text>
</g>
<!-- ITF&#45;E_signal_envelope&#45;&gt;tomtom -->
<g id="edge27" class="edge"><title>ITF&#45;E_signal_envelope&#45;&gt;tomtom</title>
<path fill="none" stroke="black" d="M5177.22,-74.8345C5140.74,-63.9794 5091.97,-48.9205 5055.18,-37.177"/>
<polygon fill="black" stroke="black" points="5056.22,-33.8331 5045.63,-34.1135 5054.08,-40.499 5056.22,-33.8331"/>
</g>
<!-- ITF&#45;E_signal_envelope&#45;&gt;tomtom -->
<g id="edge32" class="edge"><title>ITF&#45;E_signal_envelope&#45;&gt;tomtom</title>
<path fill="none" stroke="black" d="M5185.67,-73.9832C5148.65,-62.0583 5095.1,-45.479 5055.41,-33.6507"/>
<polygon fill="black" stroke="black" points="5056.22,-30.2398 5045.64,-30.7516 5054.23,-36.9508 5056.22,-30.2398"/>
</g>
<!-- ITF&#45;I_pulse_on -->
<g id="node31" class="node"><title>ITF&#45;I_pulse_on</title>
<ellipse fill="yellow" stroke="black" cx="5405.5" cy="-90" rx="65.7887" ry="18"/>
<text text-anchor="middle" x="5405.5" y="-86.3" font-family="Times,serif" font-size="14.00">ITF&#45;I_pulse_on</text>
</g>
<!-- ITF&#45;I_pulse_on&#45;&gt;tomtom -->
<g id="edge28" class="edge"><title>ITF&#45;I_pulse_on&#45;&gt;tomtom</title>
<path fill="none" stroke="black" d="M5354.21,-78.7187C5343.68,-76.3776 5332.72,-73.995 5322.5,-72 5228.91,-53.7317 5119.45,-37.0169 5055.76,-27.428"/>
<polygon fill="black" stroke="black" points="5055.97,-23.92 5045.56,-25.8938 5054.92,-30.8422 5055.97,-23.92"/>
</g>
<!-- ITF&#45;I_pulse_on&#45;&gt;tomtom -->
<g id="edge29" class="edge"><title>ITF&#45;I_pulse_on&#45;&gt;tomtom</title>
<path fill="none" stroke="black" d="M5361.95,-76.4973C5354.82,-74.9085 5347.49,-73.3637 5340.5,-72 5240.79,-52.5368 5123.06,-34.8369 5056.05,-25.6394"/>
<polygon fill="black" stroke="black" points="5056.13,-22.117 5045.75,-24.2373 5055.18,-29.0532 5056.13,-22.117"/>
</g>
<!-- ITF&#45;J_pulse_off -->
<g id="node32" class="node"><title>ITF&#45;J_pulse_off</title>
<ellipse fill="yellow" stroke="black" cx="4802.5" cy="-90" rx="67.6881" ry="18"/>
<text text-anchor="middle" x="4802.5" y="-86.3" font-family="Times,serif" font-size="14.00">ITF&#45;J_pulse_off</text>
</g>
<!-- ITF&#45;J_pulse_off&#45;&gt;tomtom -->
<g id="edge30" class="edge"><title>ITF&#45;J_pulse_off&#45;&gt;tomtom</title>
<path fill="none" stroke="black" d="M4842.01,-75.1703C4872.79,-64.3998 4915.8,-49.345 4949.55,-37.532"/>
<polygon fill="black" stroke="black" points="4950.97,-40.7428 4959.26,-34.1357 4948.66,-34.1358 4950.97,-40.7428"/>
</g>
<!-- ITF&#45;C_amplified_raw_signal -->
<g id="node33" class="node"><title>ITF&#45;C_amplified_raw_signal</title>
<ellipse fill="yellow" stroke="black" cx="5002.5" cy="-90" rx="114.28" ry="18"/>
<text text-anchor="middle" x="5002.5" y="-86.3" font-family="Times,serif" font-size="14.00">ITF&#45;C_amplified_raw_signal</text>
</g>
<!-- ITF&#45;C_amplified_raw_signal&#45;&gt;tomtom -->
<g id="edge31" class="edge"><title>ITF&#45;C_amplified_raw_signal&#45;&gt;tomtom</title>
<path fill="none" stroke="black" d="M5002.5,-71.6966C5002.5,-63.9827 5002.5,-54.7125 5002.5,-46.1124"/>
<polygon fill="black" stroke="black" points="5006,-46.1043 5002.5,-36.1043 4999,-46.1044 5006,-46.1043"/>
</g>
<!-- ITF&#45;3_ENV -->
<g id="node34" class="node"><title>ITF&#45;3_ENV</title>
<ellipse fill="yellow" stroke="black" cx="1362.5" cy="-90" rx="53.8905" ry="18"/>
<text text-anchor="middle" x="1362.5" y="-86.3" font-family="Times,serif" font-size="14.00">ITF&#45;3_ENV</text>
</g>
<!-- ITF&#45;3_ENV&#45;&gt;oneeye -->
<g id="edge34" class="edge"><title>ITF&#45;3_ENV&#45;&gt;oneeye</title>
<path fill="none" stroke="black" d="M1362.5,-71.6966C1362.5,-63.9827 1362.5,-54.7125 1362.5,-46.1124"/>
<polygon fill="black" stroke="black" points="1366,-46.1043 1362.5,-36.1043 1359,-46.1044 1366,-46.1043"/>
</g>
<!-- ITF&#45;3_ENV&#45;&gt;croaker -->
<g id="edge41" class="edge"><title>ITF&#45;3_ENV&#45;&gt;croaker</title>
<path fill="none" stroke="black" d="M1323.11,-77.4835C1289.65,-67.6072 1240.12,-52.7728 1188.81,-36.3764"/>
<polygon fill="black" stroke="black" points="1189.8,-33.0192 1179.21,-33.2975 1187.66,-39.6847 1189.8,-33.0192"/>
</g>
<!-- ITF&#45;3_ENV&#45;&gt;toadkiller -->
<g id="edge62" class="edge"><title>ITF&#45;3_ENV&#45;&gt;toadkiller</title>
<path fill="none" stroke="black" d="M1337.83,-73.9832C1322.32,-64.5415 1302.01,-52.1819 1284.58,-41.5729"/>
<polygon fill="black" stroke="black" points="1286.13,-38.4192 1275.77,-36.2094 1282.49,-44.3986 1286.13,-38.4192"/>
</g>
<!-- ITF&#45;3_ENV&#45;&gt;goblin -->
<g id="edge72" class="edge"><title>ITF&#45;3_ENV&#45;&gt;goblin</title>
<path fill="none" stroke="black" d="M1400.85,-77.1722C1408.92,-75.1019 1417.44,-73.2224 1425.5,-72 1849.84,-7.68223 1961.66,-53.2272 2390.5,-36 2516.01,-30.9581 2663.93,-24.4375 2738.08,-21.1287"/>
<polygon fill="black" stroke="black" points="2738.64,-24.6073 2748.47,-20.6644 2738.33,-17.6143 2738.64,-24.6073"/>
</g>
<!-- ITF&#45;7_GAIN -->
<g id="node35" class="node"><title>ITF&#45;7_GAIN</title>
<ellipse fill="yellow" stroke="black" cx="2125.5" cy="-90" rx="57.6901" ry="18"/>
<text text-anchor="middle" x="2125.5" y="-86.3" font-family="Times,serif" font-size="14.00">ITF&#45;7_GAIN</text>
</g>
<!-- ITF&#45;7_GAIN&#45;&gt;oneeye -->
<g id="edge37" class="edge"><title>ITF&#45;7_GAIN&#45;&gt;oneeye</title>
<path fill="none" stroke="black" d="M2084.55,-77.2596C2076.31,-75.236 2067.67,-73.3522 2059.5,-72 1934.79,-51.3628 1551.49,-29.2161 1413.04,-21.6828"/>
<polygon fill="black" stroke="black" points="1412.91,-18.1703 1402.73,-21.124 1412.53,-25.16 1412.91,-18.1703"/>
</g>
<!-- ITF&#45;7_GAIN&#45;&gt;goblin -->
<g id="edge70" class="edge"><title>ITF&#45;7_GAIN&#45;&gt;goblin</title>
<path fill="none" stroke="black" d="M2167.1,-77.3532C2175.46,-75.322 2184.22,-73.4114 2192.5,-72 2393.75,-37.7002 2637.44,-24.7784 2738.3,-20.6643"/>
<polygon fill="black" stroke="black" points="2738.6,-24.1548 2748.46,-20.26 2738.33,-17.1604 2738.6,-24.1548"/>
</g>
<!-- ITF&#45;14_PWM -->
<g id="node36" class="node"><title>ITF&#45;14_PWM</title>
<ellipse fill="yellow" stroke="black" cx="983.5" cy="-90" rx="61.99" ry="18"/>
<text text-anchor="middle" x="983.5" y="-86.3" font-family="Times,serif" font-size="14.00">ITF&#45;14_PWM</text>
</g>
<!-- ITF&#45;14_PWM&#45;&gt;oneeye -->
<g id="edge40" class="edge"><title>ITF&#45;14_PWM&#45;&gt;oneeye</title>
<path fill="none" stroke="black" d="M1028.44,-77.5736C1037.06,-75.571 1046.03,-73.6147 1054.5,-72 1165.63,-50.8048 1196.05,-60.5036 1306.5,-36 1308.43,-35.5709 1310.4,-35.1085 1312.38,-34.6204"/>
<polygon fill="black" stroke="black" points="1313.54,-37.9334 1322.32,-32.0008 1311.76,-31.1645 1313.54,-37.9334"/>
</g>
<!-- ITF&#45;14_PWM&#45;&gt;toadkiller -->
<g id="edge67" class="edge"><title>ITF&#45;14_PWM&#45;&gt;toadkiller</title>
<path fill="none" stroke="black" d="M1028.55,-77.5986C1067.83,-67.5875 1126.6,-52.4492 1187.07,-36.0897"/>
<polygon fill="black" stroke="black" points="1188.05,-39.45 1196.78,-33.4542 1186.22,-32.6941 1188.05,-39.45"/>
</g>
<!-- ITF&#45;mED&#45;TFT&#45;Screen -->
<g id="node37" class="node"><title>ITF&#45;mED&#45;TFT&#45;Screen</title>
<ellipse fill="green" stroke="black" cx="640.5" cy="-90" rx="90.9839" ry="18"/>
<text text-anchor="middle" x="640.5" y="-86.3" font-family="Times,serif" font-size="14.00">ITF&#45;mED&#45;TFT&#45;Screen</text>
</g>
<!-- ITF&#45;mED&#45;TFT&#45;Screen&#45;&gt;croaker -->
<g id="edge47" class="edge"><title>ITF&#45;mED&#45;TFT&#45;Screen&#45;&gt;croaker</title>
<path fill="none" stroke="black" d="M706.071,-77.5088C717.535,-75.5981 729.357,-73.6904 740.5,-72 864.105,-53.2489 1009.91,-34.694 1085.76,-25.3087"/>
<polygon fill="black" stroke="black" points="1086.5,-28.7448 1095.99,-24.0462 1085.64,-21.7975 1086.5,-28.7448"/>
</g>
<!-- ITF&#45;mED&#45;TFT&#45;Screen&#45;&gt;toadkiller -->
<g id="edge64" class="edge"><title>ITF&#45;mED&#45;TFT&#45;Screen&#45;&gt;toadkiller</title>
<path fill="none" stroke="black" d="M704.66,-77.2336C716.549,-75.2979 728.88,-73.4528 740.5,-72 934.987,-47.6848 989.545,-70.5498 1186.81,-35.8872"/>
<polygon fill="black" stroke="black" points="1187.69,-39.2847 1196.92,-34.082 1186.46,-32.3936 1187.69,-39.2847"/>
</g>
<!-- ITF&#45;mED&#45;OLED&#45;Screen -->
<g id="node38" class="node"><title>ITF&#45;mED&#45;OLED&#45;Screen</title>
<ellipse fill="green" stroke="black" cx="183.5" cy="-90" rx="98.5829" ry="18"/>
<text text-anchor="middle" x="183.5" y="-86.3" font-family="Times,serif" font-size="14.00">ITF&#45;mED&#45;OLED&#45;Screen</text>
</g>
<!-- ITF&#45;mED&#45;OLED&#45;Screen&#45;&gt;croaker -->
<g id="edge48" class="edge"><title>ITF&#45;mED&#45;OLED&#45;Screen&#45;&gt;croaker</title>
<path fill="none" stroke="black" d="M252.44,-77.0598C265.072,-75.1534 278.161,-73.3631 290.5,-72 590.639,-38.8427 953.077,-24.8062 1085.69,-20.5266"/>
<polygon fill="black" stroke="black" points="1086.07,-24.0164 1095.96,-20.2002 1085.85,-17.02 1086.07,-24.0164"/>
</g>
<!-- ITF&#45;mEC&#45;WiFi&#45;UDP&#45;Stream -->
<g id="node39" class="node"><title>ITF&#45;mEC&#45;WiFi&#45;UDP&#45;Stream</title>
<ellipse fill="green" stroke="black" cx="415.5" cy="-90" rx="115.88" ry="18"/>
<text text-anchor="middle" x="415.5" y="-86.3" font-family="Times,serif" font-size="14.00">ITF&#45;mEC&#45;WiFi&#45;UDP&#45;Stream</text>
</g>
<!-- ITF&#45;mEC&#45;WiFi&#45;UDP&#45;Stream&#45;&gt;croaker -->
<g id="edge49" class="edge"><title>ITF&#45;mEC&#45;WiFi&#45;UDP&#45;Stream&#45;&gt;croaker</title>
<path fill="none" stroke="black" d="M497.463,-77.2965C511.794,-75.4094 526.571,-73.5646 540.5,-72 741.689,-49.401 981.914,-30.5386 1085.62,-22.7872"/>
<polygon fill="black" stroke="black" points="1086.1,-26.261 1095.82,-22.0282 1085.58,-19.2804 1086.1,-26.261"/>
</g>
<!-- ITF&#45;F_12V -->
<g id="node40" class="node"><title>ITF&#45;F_12V</title>
<ellipse fill="yellow" stroke="black" cx="3948.5" cy="-90" rx="51.1914" ry="18"/>
<text text-anchor="middle" x="3948.5" y="-86.3" font-family="Times,serif" font-size="14.00">ITF&#45;F_12V</text>
</g>
<!-- ITF&#45;F_12V&#45;&gt;retroATL3 -->
<g id="edge51" class="edge"><title>ITF&#45;F_12V&#45;&gt;retroATL3</title>
<path fill="none" stroke="black" d="M3918.04,-75.5033C3895.43,-65.4898 3864.18,-51.6422 3838.27,-40.1621"/>
<polygon fill="black" stroke="black" points="3839.55,-36.9019 3828.99,-36.0512 3836.71,-43.3019 3839.55,-36.9019"/>
</g>
<!-- Motor -->
<g id="node41" class="node"><title>Motor</title>
<ellipse fill="yellow" stroke="black" cx="3502.5" cy="-90" rx="33.2948" ry="18"/>
<text text-anchor="middle" x="3502.5" y="-86.3" font-family="Times,serif" font-size="14.00">Motor</text>
</g>
<!-- Motor&#45;&gt;retroATL3 -->
<g id="edge54" class="edge"><title>Motor&#45;&gt;retroATL3</title>
<path fill="none" stroke="black" d="M3523.63,-76.1103C3527.54,-74.618 3531.59,-73.2026 3535.5,-72 3597.94,-52.794 3671.37,-37.9421 3723.44,-28.9106"/>
<polygon fill="black" stroke="black" points="3724.29,-32.3159 3733.56,-27.1823 3723.11,-25.4158 3724.29,-32.3159"/>
</g>
<!-- Motor&#45;&gt;retroATL3 -->
<g id="edge56" class="edge"><title>Motor&#45;&gt;retroATL3</title>
<path fill="none" stroke="black" d="M3530.82,-80.1564C3538.25,-77.2889 3546.13,-74.2664 3553.5,-72 3610.22,-54.5528 3676.01,-40.6988 3723.93,-31.5371"/>
<polygon fill="black" stroke="black" points="3724.7,-34.9535 3733.87,-29.6537 3723.4,-28.0757 3724.7,-34.9535"/>
</g>
<!-- Tri&#45;Piezo Head -->
<g id="node42" class="node"><title>Tri&#45;Piezo Head</title>
<ellipse fill="yellow" stroke="black" cx="3618.5" cy="-90" rx="64.9885" ry="18"/>
<text text-anchor="middle" x="3618.5" y="-86.3" font-family="Times,serif" font-size="14.00">Tri&#45;Piezo Head</text>
</g>
<!-- Tri&#45;Piezo Head&#45;&gt;retroATL3 -->
<g id="edge55" class="edge"><title>Tri&#45;Piezo Head&#45;&gt;retroATL3</title>
<path fill="none" stroke="black" d="M3649.34,-74.1548C3672.72,-64.1311 3705.37,-50.7617 3733.42,-39.6962"/>
<polygon fill="black" stroke="black" points="3734.71,-42.9511 3742.74,-36.04 3732.15,-36.4349 3734.71,-42.9511"/>
</g>
<!-- Tri&#45;Piezo Head&#45;&gt;retroATL3 -->
<g id="edge58" class="edge"><title>Tri&#45;Piezo Head&#45;&gt;retroATL3</title>
<path fill="none" stroke="black" d="M3657.12,-75.5033C3683.23,-65.4458 3717.71,-51.5207 3745.12,-40.0112"/>
<polygon fill="black" stroke="black" points="3746.64,-43.1669 3754.49,-36.0512 3743.92,-36.7187 3746.64,-43.1669"/>
</g>
<!-- WiFi UDP Stream -->
<g id="node43" class="node"><title>WiFi UDP Stream</title>
<ellipse fill="yellow" stroke="black" cx="826.5" cy="-90" rx="77.1866" ry="18"/>
<text text-anchor="middle" x="826.5" y="-86.3" font-family="Times,serif" font-size="14.00">WiFi UDP Stream</text>
</g>
<!-- WiFi UDP Stream&#45;&gt;toadkiller -->
<g id="edge63" class="edge"><title>WiFi UDP Stream&#45;&gt;toadkiller</title>
<path fill="none" stroke="black" d="M882.38,-77.4068C892.389,-75.4866 902.738,-73.6021 912.5,-72 1030.93,-52.5639 1064.99,-60.4217 1186.8,-35.9605"/>
<polygon fill="black" stroke="black" points="1187.79,-39.3297 1196.89,-33.9009 1186.39,-32.4711 1187.79,-39.3297"/>
</g>
<!-- ITF&#45;4_RawSig -->
<g id="node44" class="node"><title>ITF&#45;4_RawSig</title>
<ellipse fill="yellow" stroke="black" cx="2995.5" cy="-90" rx="63.8893" ry="18"/>
<text text-anchor="middle" x="2995.5" y="-86.3" font-family="Times,serif" font-size="14.00">ITF&#45;4_RawSig</text>
</g>
<!-- ITF&#45;4_RawSig&#45;&gt;goblin -->
<g id="edge71" class="edge"><title>ITF&#45;4_RawSig&#45;&gt;goblin</title>
<path fill="none" stroke="black" d="M2952.89,-76.5661C2917.92,-65.4695 2868.59,-49.0974 2832.49,-36.6471"/>
<polygon fill="black" stroke="black" points="2833.28,-33.2154 2822.68,-33.2471 2830.98,-39.8293 2833.28,-33.2154"/>
</g>
<!-- ITF&#45;4_RawSig&#45;&gt;goblin -->
<g id="edge75" class="edge"><title>ITF&#45;4_RawSig&#45;&gt;goblin</title>
<path fill="none" stroke="black" d="M2959.03,-75.0027C2923.97,-62.7699 2870.97,-45.1054 2832.72,-32.9011"/>
<polygon fill="black" stroke="black" points="2833.43,-29.4547 2822.84,-29.768 2831.31,-36.1272 2833.43,-29.4547"/>
</g>
<!-- ITF&#45;3_ENV_signal_envelope -->
<g id="node45" class="node"><title>ITF&#45;3_ENV_signal_envelope</title>
<ellipse fill="yellow" stroke="black" cx="3192.5" cy="-90" rx="115.08" ry="18"/>
<text text-anchor="middle" x="3192.5" y="-86.3" font-family="Times,serif" font-size="14.00">ITF&#45;3_ENV_signal_envelope</text>
</g>
<!-- ITF&#45;3_ENV_signal_envelope&#45;&gt;goblin -->
<g id="edge76" class="edge"><title>ITF&#45;3_ENV_signal_envelope&#45;&gt;goblin</title>
<path fill="none" stroke="black" d="M3117.85,-76.1609C3034.62,-61.8467 2902.55,-39.1315 2832.59,-27.0985"/>
<polygon fill="black" stroke="black" points="2833.18,-23.6487 2822.73,-25.403 2831.99,-30.5474 2833.18,-23.6487"/>
</g>
<!-- ITF&#45;mEG_SPI -->
<g id="node46" class="node"><title>ITF&#45;mEG_SPI</title>
<ellipse fill="green" stroke="black" cx="3388.5" cy="-90" rx="63.0888" ry="18"/>
<text text-anchor="middle" x="3388.5" y="-86.3" font-family="Times,serif" font-size="14.00">ITF&#45;mEG_SPI</text>
</g>
<!-- ITF&#45;mEG_SPI&#45;&gt;goblin -->
<g id="edge77" class="edge"><title>ITF&#45;mEG_SPI&#45;&gt;goblin</title>
<path fill="none" stroke="black" d="M3343.36,-77.3788C3334.5,-75.3702 3325.24,-73.4615 3316.5,-72 3139.43,-42.3925 2926.17,-27.24 2832.97,-21.6235"/>
<polygon fill="black" stroke="black" points="2832.93,-18.115 2822.74,-21.0164 2832.52,-25.1027 2832.93,-18.115"/>
</g>
<!-- ITF&#45;17_POff3 -->
<g id="node47" class="node"><title>ITF&#45;17_POff3</title>
<ellipse fill="yellow" stroke="black" cx="2565.5" cy="-90" rx="61.99" ry="18"/>
<text text-anchor="middle" x="2565.5" y="-86.3" font-family="Times,serif" font-size="14.00">ITF&#45;17_POff3</text>
</g>
<!-- ITF&#45;17_POff3&#45;&gt;silent -->
<g id="edge80" class="edge"><title>ITF&#45;17_POff3&#45;&gt;silent</title>
<path fill="none" stroke="black" d="M2525.88,-76.1609C2487.87,-63.8421 2430.66,-45.3012 2391.78,-32.7017"/>
<polygon fill="black" stroke="black" points="2392.41,-29.2284 2381.82,-29.475 2390.26,-35.8875 2392.41,-29.2284"/>
</g>
<!-- ITF&#45;mEM_Alimentation -->
<g id="node48" class="node"><title>ITF&#45;mEM_Alimentation</title>
<ellipse fill="green" stroke="black" cx="1533.5" cy="-90" rx="98.5829" ry="18"/>
<text text-anchor="middle" x="1533.5" y="-86.3" font-family="Times,serif" font-size="14.00">ITF&#45;mEM_Alimentation</text>
</g>
<!-- ITF&#45;mEM_Alimentation&#45;&gt;mogaba -->
<g id="edge82" class="edge"><title>ITF&#45;mEM_Alimentation&#45;&gt;mogaba</title>
<path fill="none" stroke="black" d="M1581.43,-74.1548C1617.94,-62.8448 1668.21,-47.2754 1706.03,-35.562"/>
<polygon fill="black" stroke="black" points="1707.33,-38.8221 1715.85,-32.52 1705.26,-32.1355 1707.33,-38.8221"/>
</g>
</g>
</svg>
