<?xml version="1.0" encoding="UTF-8" standalone="no"?>
<!DOCTYPE svg PUBLIC "-//W3C//DTD SVG 1.1//EN"
 "http://www.w3.org/Graphics/SVG/1.1/DTD/svg11.dtd">
<!-- Generated by graphviz version 2.38.0 (20140413.2041)
 -->
<!-- Title: %3 Pages: 1 -->
<svg width="3323pt" height="116pt"
 viewBox="0.00 0.00 3322.50 116.00" xmlns="http://www.w3.org/2000/svg" xmlns:xlink="http://www.w3.org/1999/xlink">
<g id="graph0" class="graph" transform="scale(1 1) rotate(0) translate(4 112)">
<title>%3</title>
<polygon fill="white" stroke="none" points="-4,4 -4,-112 3318.5,-112 3318.5,4 -4,4"/>
<!-- wirephantom -->
<g id="node1" class="node"><title>wirephantom</title>
<polygon fill="blue" stroke="black" points="134,-36 0,-36 0,-0 134,-0 134,-36"/>
<text text-anchor="middle" x="67" y="-12.4" font-family="Times,serif" font-size="22.00">wirephantom</text>
</g>
<!-- elmo -->
<g id="node2" class="node"><title>elmo</title>
<polygon fill="blue" stroke="black" points="1296.5,-36 1235.5,-36 1235.5,-0 1296.5,-0 1296.5,-36"/>
<text text-anchor="middle" x="1266" y="-12.4" font-family="Times,serif" font-size="22.00">elmo</text>
</g>
<!-- doj -->
<g id="node3" class="node"><title>doj</title>
<polygon fill="blue" stroke="black" points="3229,-108 3175,-108 3175,-72 3229,-72 3229,-108"/>
<text text-anchor="middle" x="3202" y="-84.4" font-family="Times,serif" font-size="22.00">doj</text>
</g>
<!-- matty -->
<g id="node4" class="node"><title>matty</title>
<polygon fill="blue" stroke="black" points="3314.5,-108 3247.5,-108 3247.5,-72 3314.5,-72 3314.5,-108"/>
<text text-anchor="middle" x="3281" y="-84.4" font-family="Times,serif" font-size="22.00">matty</text>
</g>
<!-- retroATL3 -->
<g id="node5" class="node"><title>retroATL3</title>
<polygon fill="blue" stroke="black" points="2702.5,-36 2589.5,-36 2589.5,-0 2702.5,-0 2702.5,-36"/>
<text text-anchor="middle" x="2646" y="-12.4" font-family="Times,serif" font-size="22.00">retroATL3</text>
</g>
<!-- goblin -->
<g id="node6" class="node"><title>goblin</title>
<polygon fill="blue" stroke="black" points="807,-36 733,-36 733,-0 807,-0 807,-36"/>
<text text-anchor="middle" x="770" y="-12.4" font-family="Times,serif" font-size="22.00">goblin</text>
</g>
<!-- lite.tbo -->
<g id="node7" class="node"><title>lite.tbo</title>
<polygon fill="blue" stroke="black" points="2019,-36 1941,-36 1941,-0 2019,-0 2019,-36"/>
<text text-anchor="middle" x="1980" y="-12.4" font-family="Times,serif" font-size="22.00">lite.tbo</text>
</g>
<!-- silent -->
<g id="node8" class="node"><title>silent</title>
<polygon fill="blue" stroke="black" points="1506,-36 1442,-36 1442,-0 1506,-0 1506,-36"/>
<text text-anchor="middle" x="1474" y="-12.4" font-family="Times,serif" font-size="22.00">silent</text>
</g>
<!-- na -->
<g id="node9" class="node"><title>na</title>
<ellipse fill="yellow" stroke="black" cx="67" cy="-90" rx="27" ry="18"/>
<text text-anchor="middle" x="67" y="-86.3" font-family="Times,serif" font-size="14.00">na</text>
</g>
<!-- na&#45;&gt;wirephantom -->
<g id="edge1" class="edge"><title>na&#45;&gt;wirephantom</title>
<path fill="none" stroke="black" d="M61.1601,-72.411C60.3194,-64.7079 60.0612,-55.3415 60.3853,-46.6164"/>
<polygon fill="black" stroke="black" points="63.8903,-46.6592 61.0696,-36.4468 56.906,-46.1892 63.8903,-46.6592"/>
</g>
<!-- na&#45;&gt;wirephantom -->
<g id="edge2" class="edge"><title>na&#45;&gt;wirephantom</title>
<path fill="none" stroke="black" d="M72.8399,-72.411C73.6806,-64.7079 73.9388,-55.3415 73.6147,-46.6164"/>
<polygon fill="black" stroke="black" points="77.094,-46.1892 72.9304,-36.4468 70.1097,-46.6592 77.094,-46.1892"/>
</g>
<!-- ITF&#45;1_GND -->
<g id="node10" class="node"><title>ITF&#45;1_GND</title>
<ellipse fill="yellow" stroke="black" cx="1266" cy="-90" rx="54.6905" ry="18"/>
<text text-anchor="middle" x="1266" y="-86.3" font-family="Times,serif" font-size="14.00">ITF&#45;1_GND</text>
</g>
<!-- ITF&#45;1_GND&#45;&gt;elmo -->
<g id="edge3" class="edge"><title>ITF&#45;1_GND&#45;&gt;elmo</title>
<path fill="none" stroke="black" d="M1266,-71.6966C1266,-63.9827 1266,-54.7125 1266,-46.1124"/>
<polygon fill="black" stroke="black" points="1269.5,-46.1043 1266,-36.1043 1262.5,-46.1044 1269.5,-46.1043"/>
</g>
<!-- ITF&#45;1_GND&#45;&gt;goblin -->
<g id="edge17" class="edge"><title>ITF&#45;1_GND&#45;&gt;goblin</title>
<path fill="none" stroke="black" d="M1226.54,-77.4353C1218.79,-75.4218 1210.67,-73.4968 1203,-72 1064.1,-44.9007 897.276,-29.1245 817.296,-22.5795"/>
<polygon fill="black" stroke="black" points="817.308,-19.0692 807.059,-21.7536 816.745,-26.0465 817.308,-19.0692"/>
</g>
<!-- ITF&#45;1_GND&#45;&gt;lite.tbo -->
<g id="edge27" class="edge"><title>ITF&#45;1_GND&#45;&gt;lite.tbo</title>
<path fill="none" stroke="black" d="M1300.93,-76.0773C1307.22,-74.5139 1313.75,-73.0883 1320,-72 1545.64,-32.7091 1820.48,-22.4256 1930.84,-19.8353"/>
<polygon fill="black" stroke="black" points="1931.08,-23.3309 1941,-19.6079 1930.92,-16.3326 1931.08,-23.3309"/>
</g>
<!-- ITF&#45;1_GND&#45;&gt;lite.tbo -->
<g id="edge33" class="edge"><title>ITF&#45;1_GND&#45;&gt;lite.tbo</title>
<path fill="none" stroke="black" d="M1308.75,-78.5891C1318.38,-76.081 1328.51,-73.6519 1338,-72 1556.93,-33.8782 1822.17,-23.0633 1930.48,-20.0875"/>
<polygon fill="black" stroke="black" points="1930.87,-23.5786 1940.77,-19.8156 1930.68,-16.581 1930.87,-23.5786"/>
</g>
<!-- ITF&#45;1_GND&#45;&gt;silent -->
<g id="edge45" class="edge"><title>ITF&#45;1_GND&#45;&gt;silent</title>
<path fill="none" stroke="black" d="M1302.71,-76.6465C1338.89,-64.4685 1394.13,-45.8803 1432.03,-33.1232"/>
<polygon fill="black" stroke="black" points="1433.39,-36.3586 1441.75,-29.8517 1431.16,-29.7242 1433.39,-36.3586"/>
</g>
<!-- ITF&#45;2_VDD_5V -->
<g id="node11" class="node"><title>ITF&#45;2_VDD_5V</title>
<ellipse fill="yellow" stroke="black" cx="1549" cy="-90" rx="69.5877" ry="18"/>
<text text-anchor="middle" x="1549" y="-86.3" font-family="Times,serif" font-size="14.00">ITF&#45;2_VDD_5V</text>
</g>
<!-- ITF&#45;2_VDD_5V&#45;&gt;elmo -->
<g id="edge4" class="edge"><title>ITF&#45;2_VDD_5V&#45;&gt;elmo</title>
<path fill="none" stroke="black" d="M1500.67,-77.0461C1445.91,-63.5012 1357.64,-41.6666 1306.4,-28.9917"/>
<polygon fill="black" stroke="black" points="1307.21,-25.5876 1296.66,-26.584 1305.53,-32.3829 1307.21,-25.5876"/>
</g>
<!-- ITF&#45;2_VDD_5V&#45;&gt;goblin -->
<g id="edge18" class="edge"><title>ITF&#45;2_VDD_5V&#45;&gt;goblin</title>
<path fill="none" stroke="black" d="M1499.67,-77.1648C1490.2,-75.1999 1480.33,-73.362 1471,-72 1226.53,-36.2944 930.368,-23.9171 817.125,-20.3006"/>
<polygon fill="black" stroke="black" points="817.166,-16.8002 807.062,-19.9871 816.948,-23.7969 817.166,-16.8002"/>
</g>
<!-- ITF&#45;2_VDD_5V&#45;&gt;lite.tbo -->
<g id="edge28" class="edge"><title>ITF&#45;2_VDD_5V&#45;&gt;lite.tbo</title>
<path fill="none" stroke="black" d="M1595.39,-76.4777C1602.91,-74.892 1610.64,-73.3532 1618,-72 1728.88,-51.6166 1860.42,-33.4399 1930.5,-24.6262"/>
<polygon fill="black" stroke="black" points="1931.31,-28.053 1940.8,-23.3438 1930.44,-21.1066 1931.31,-28.053"/>
</g>
<!-- ITF&#45;2_VDD_5V&#45;&gt;lite.tbo -->
<g id="edge34" class="edge"><title>ITF&#45;2_VDD_5V&#45;&gt;lite.tbo</title>
<path fill="none" stroke="black" d="M1603.01,-78.6078C1613.97,-76.2964 1625.37,-73.9546 1636,-72 1740.57,-52.7752 1863.53,-35.5134 1930.55,-26.2186"/>
<polygon fill="black" stroke="black" points="1931.39,-29.6357 1940.82,-24.7961 1930.43,-22.702 1931.39,-29.6357"/>
</g>
<!-- ITF&#45;2_VDD_5V&#45;&gt;silent -->
<g id="edge46" class="edge"><title>ITF&#45;2_VDD_5V&#45;&gt;silent</title>
<path fill="none" stroke="black" d="M1531.23,-72.411C1521.91,-63.7123 1510.31,-52.8926 1500,-43.2706"/>
<polygon fill="black" stroke="black" points="1502.13,-40.4655 1492.43,-36.201 1497.35,-45.5829 1502.13,-40.4655"/>
</g>
<!-- ITF&#45;19_3.3V -->
<g id="node12" class="node"><title>ITF&#45;19_3.3V</title>
<ellipse fill="yellow" stroke="black" cx="1980" cy="-90" rx="57.6901" ry="18"/>
<text text-anchor="middle" x="1980" y="-86.3" font-family="Times,serif" font-size="14.00">ITF&#45;19_3.3V</text>
</g>
<!-- ITF&#45;19_3.3V&#45;&gt;elmo -->
<g id="edge5" class="edge"><title>ITF&#45;19_3.3V&#45;&gt;elmo</title>
<path fill="none" stroke="black" d="M1938.78,-77.3463C1930.31,-75.2899 1921.41,-73.3715 1913,-72 1701.86,-37.5632 1646.1,-54.8345 1433,-36 1389.85,-32.1867 1340.52,-27.0712 1306.72,-23.4508"/>
<polygon fill="black" stroke="black" points="1307.07,-19.9685 1296.76,-22.3783 1306.32,-26.9283 1307.07,-19.9685"/>
</g>
<!-- ITF&#45;19_3.3V&#45;&gt;lite.tbo -->
<g id="edge31" class="edge"><title>ITF&#45;19_3.3V&#45;&gt;lite.tbo</title>
<path fill="none" stroke="black" d="M1974.12,-72.055C1973.3,-64.3456 1973.06,-55.0269 1973.39,-46.3642"/>
<polygon fill="black" stroke="black" points="1976.89,-46.4915 1974.09,-36.2753 1969.91,-46.0122 1976.89,-46.4915"/>
</g>
<!-- ITF&#45;19_3.3V&#45;&gt;lite.tbo -->
<g id="edge37" class="edge"><title>ITF&#45;19_3.3V&#45;&gt;lite.tbo</title>
<path fill="none" stroke="black" d="M1985.88,-72.055C1986.7,-64.3456 1986.94,-55.0269 1986.61,-46.3642"/>
<polygon fill="black" stroke="black" points="1990.09,-46.0122 1985.91,-36.2753 1983.11,-46.4915 1990.09,-46.0122"/>
</g>
<!-- ITF&#45;12_RPIn -->
<g id="node13" class="node"><title>ITF&#45;12_RPIn</title>
<ellipse fill="yellow" stroke="black" cx="1136" cy="-90" rx="57.6901" ry="18"/>
<text text-anchor="middle" x="1136" y="-86.3" font-family="Times,serif" font-size="14.00">ITF&#45;12_RPIn</text>
</g>
<!-- ITF&#45;12_RPIn&#45;&gt;elmo -->
<g id="edge6" class="edge"><title>ITF&#45;12_RPIn&#45;&gt;elmo</title>
<path fill="none" stroke="black" d="M1163.57,-74.1548C1181.8,-64.3405 1205.98,-51.3189 1226.27,-40.3928"/>
<polygon fill="black" stroke="black" points="1228.14,-43.3618 1235.28,-35.5391 1224.82,-37.1985 1228.14,-43.3618"/>
</g>
<!-- Signal Digitalized -->
<g id="node14" class="node"><title>Signal Digitalized</title>
<ellipse fill="yellow" stroke="black" cx="985" cy="-90" rx="74.9875" ry="18"/>
<text text-anchor="middle" x="985" y="-86.3" font-family="Times,serif" font-size="14.00">Signal Digitalized</text>
</g>
<!-- Signal Digitalized&#45;&gt;elmo -->
<g id="edge7" class="edge"><title>Signal Digitalized&#45;&gt;elmo</title>
<path fill="none" stroke="black" d="M1034.91,-76.5661C1089.21,-63.0401 1174.97,-41.6758 1225.33,-29.1303"/>
<polygon fill="black" stroke="black" points="1226.36,-32.4819 1235.22,-26.6684 1224.67,-25.6895 1226.36,-32.4819"/>
</g>
<!-- ITF&#45;A_gnd -->
<g id="node15" class="node"><title>ITF&#45;A_gnd</title>
<ellipse fill="yellow" stroke="black" cx="2780" cy="-90" rx="50.8918" ry="18"/>
<text text-anchor="middle" x="2780" y="-86.3" font-family="Times,serif" font-size="14.00">ITF&#45;A_gnd</text>
</g>
<!-- ITF&#45;A_gnd&#45;&gt;retroATL3 -->
<g id="edge8" class="edge"><title>ITF&#45;A_gnd&#45;&gt;retroATL3</title>
<path fill="none" stroke="black" d="M2752.56,-74.6655C2733.88,-64.9096 2708.82,-51.8161 2687.69,-40.7789"/>
<polygon fill="black" stroke="black" points="2689.09,-37.5596 2678.6,-36.0316 2685.85,-43.7641 2689.09,-37.5596"/>
</g>
<!-- ITF&#45;F_12V -->
<g id="node16" class="node"><title>ITF&#45;F_12V</title>
<ellipse fill="yellow" stroke="black" cx="2900" cy="-90" rx="51.1914" ry="18"/>
<text text-anchor="middle" x="2900" y="-86.3" font-family="Times,serif" font-size="14.00">ITF&#45;F_12V</text>
</g>
<!-- ITF&#45;F_12V&#45;&gt;retroATL3 -->
<g id="edge9" class="edge"><title>ITF&#45;F_12V&#45;&gt;retroATL3</title>
<path fill="none" stroke="black" d="M2861.28,-77.9727C2854.21,-75.9733 2846.88,-73.9156 2840,-72 2797.7,-60.229 2750.14,-47.2325 2712.7,-37.0553"/>
<polygon fill="black" stroke="black" points="2713.48,-33.6415 2702.91,-34.3974 2711.65,-40.3966 2713.48,-33.6415"/>
</g>
<!-- ITF&#45;N_cc_motor_pwm -->
<g id="node17" class="node"><title>ITF&#45;N_cc_motor_pwm</title>
<ellipse fill="yellow" stroke="black" cx="3063" cy="-90" rx="93.6835" ry="18"/>
<text text-anchor="middle" x="3063" y="-86.3" font-family="Times,serif" font-size="14.00">ITF&#45;N_cc_motor_pwm</text>
</g>
<!-- ITF&#45;N_cc_motor_pwm&#45;&gt;retroATL3 -->
<g id="edge10" class="edge"><title>ITF&#45;N_cc_motor_pwm&#45;&gt;retroATL3</title>
<path fill="none" stroke="black" d="M2995.07,-77.5975C2917.11,-64.5096 2790.05,-43.1814 2712.63,-30.1855"/>
<polygon fill="black" stroke="black" points="2712.96,-26.6907 2702.51,-28.4869 2711.8,-33.5942 2712.96,-26.6907"/>
</g>
<!-- ITF&#45;mET_Transducer -->
<g id="node18" class="node"><title>ITF&#45;mET_Transducer</title>
<ellipse fill="green" stroke="black" cx="2390" cy="-90" rx="89.0842" ry="18"/>
<text text-anchor="middle" x="2390" y="-86.3" font-family="Times,serif" font-size="14.00">ITF&#45;mET_Transducer</text>
</g>
<!-- ITF&#45;mET_Transducer&#45;&gt;retroATL3 -->
<g id="edge11" class="edge"><title>ITF&#45;mET_Transducer&#45;&gt;retroATL3</title>
<path fill="none" stroke="black" d="M2436.85,-74.6655C2476.85,-63.3237 2534.74,-47.4711 2579.52,-35.5827"/>
<polygon fill="black" stroke="black" points="2580.66,-38.8991 2589.44,-32.957 2578.87,-32.1321 2580.66,-38.8991"/>
</g>
<!-- ITF&#45;mET_Transducer&#45;&gt;retroATL3 -->
<g id="edge15" class="edge"><title>ITF&#45;mET_Transducer&#45;&gt;retroATL3</title>
<path fill="none" stroke="black" d="M2444.19,-75.6688C2483.89,-65.2173 2537.89,-50.5157 2580.07,-38.706"/>
<polygon fill="black" stroke="black" points="2581.02,-42.0749 2589.7,-36.0023 2579.13,-35.3354 2581.02,-42.0749"/>
</g>
<!-- ITF&#45;mET_Transducer&#45;&gt;lite.tbo -->
<g id="edge32" class="edge"><title>ITF&#45;mET_Transducer&#45;&gt;lite.tbo</title>
<path fill="none" stroke="black" d="M2314.68,-80.3616C2297.9,-77.6715 2280.74,-74.7025 2265,-72 2181.99,-57.7496 2086.52,-41.5613 2029.07,-30.8658"/>
<polygon fill="black" stroke="black" points="2029.62,-27.4079 2019.15,-29.0003 2028.33,-34.2874 2029.62,-27.4079"/>
</g>
<!-- ITF&#45;mET_Transducer&#45;&gt;lite.tbo -->
<g id="edge38" class="edge"><title>ITF&#45;mET_Transducer&#45;&gt;lite.tbo</title>
<path fill="none" stroke="black" d="M2321.09,-78.5379C2308.37,-76.3686 2295.25,-74.1036 2283,-72 2193.42,-56.6216 2089.33,-38.9864 2029.31,-28.433"/>
<polygon fill="black" stroke="black" points="2029.81,-24.9663 2019.35,-26.6743 2028.59,-31.8597 2029.81,-24.9663"/>
</g>
<!-- ITF&#45;mET_Transducer&#45;&gt;lite.tbo -->
<g id="edge41" class="edge"><title>ITF&#45;mET_Transducer&#45;&gt;lite.tbo</title>
<path fill="none" stroke="black" d="M2329.06,-76.8512C2319.68,-75.2153 2310.11,-73.5631 2301,-72 2205.08,-55.5332 2092.52,-36.4787 2029.29,-26.3019"/>
<polygon fill="black" stroke="black" points="2029.63,-22.8115 2019.2,-24.6867 2028.52,-29.7235 2029.63,-22.8115"/>
</g>
<!-- ITF&#45;mET_Transducer&#45;&gt;lite.tbo -->
<g id="edge44" class="edge"><title>ITF&#45;mET_Transducer&#45;&gt;lite.tbo</title>
<path fill="none" stroke="black" d="M2338.29,-75.336C2331.82,-74.2047 2325.3,-73.081 2319,-72 2217.27,-54.5368 2096.84,-34.1635 2029.26,-24.5547"/>
<polygon fill="black" stroke="black" points="2029.67,-21.0778 2019.28,-23.1618 2028.7,-28.0106 2029.67,-21.0778"/>
</g>
<!-- Motor -->
<g id="node19" class="node"><title>Motor</title>
<ellipse fill="yellow" stroke="black" cx="2530" cy="-90" rx="33.2948" ry="18"/>
<text text-anchor="middle" x="2530" y="-86.3" font-family="Times,serif" font-size="14.00">Motor</text>
</g>
<!-- Motor&#45;&gt;retroATL3 -->
<g id="edge12" class="edge"><title>Motor&#45;&gt;retroATL3</title>
<path fill="none" stroke="black" d="M2547.93,-74.8345C2562.65,-65.1779 2583.91,-52.1945 2602.92,-41.1779"/>
<polygon fill="black" stroke="black" points="2604.81,-44.1252 2611.75,-36.1127 2601.33,-38.0536 2604.81,-44.1252"/>
</g>
<!-- Motor&#45;&gt;retroATL3 -->
<g id="edge14" class="edge"><title>Motor&#45;&gt;retroATL3</title>
<path fill="none" stroke="black" d="M2554.04,-77.5975C2571.71,-67.8987 2595.69,-53.6746 2614.8,-41.6696"/>
<polygon fill="black" stroke="black" points="2616.9,-44.4778 2623.46,-36.1596 2613.15,-38.5702 2616.9,-44.4778"/>
</g>
<!-- Tri&#45;Piezo Head -->
<g id="node20" class="node"><title>Tri&#45;Piezo Head</title>
<ellipse fill="yellow" stroke="black" cx="2646" cy="-90" rx="64.9885" ry="18"/>
<text text-anchor="middle" x="2646" y="-86.3" font-family="Times,serif" font-size="14.00">Tri&#45;Piezo Head</text>
</g>
<!-- Tri&#45;Piezo Head&#45;&gt;retroATL3 -->
<g id="edge13" class="edge"><title>Tri&#45;Piezo Head&#45;&gt;retroATL3</title>
<path fill="none" stroke="black" d="M2640.12,-72.055C2639.3,-64.3456 2639.06,-55.0269 2639.39,-46.3642"/>
<polygon fill="black" stroke="black" points="2642.89,-46.4915 2640.09,-36.2753 2635.91,-46.0122 2642.89,-46.4915"/>
</g>
<!-- Tri&#45;Piezo Head&#45;&gt;retroATL3 -->
<g id="edge16" class="edge"><title>Tri&#45;Piezo Head&#45;&gt;retroATL3</title>
<path fill="none" stroke="black" d="M2651.88,-72.055C2652.7,-64.3456 2652.94,-55.0269 2652.61,-46.3642"/>
<polygon fill="black" stroke="black" points="2656.09,-46.0122 2651.91,-36.2753 2649.11,-46.4915 2656.09,-46.0122"/>
</g>
<!-- ITF&#45;7_GAIN -->
<g id="node21" class="node"><title>ITF&#45;7_GAIN</title>
<ellipse fill="yellow" stroke="black" cx="562" cy="-90" rx="57.6901" ry="18"/>
<text text-anchor="middle" x="562" y="-86.3" font-family="Times,serif" font-size="14.00">ITF&#45;7_GAIN</text>
</g>
<!-- ITF&#45;7_GAIN&#45;&gt;goblin -->
<g id="edge19" class="edge"><title>ITF&#45;7_GAIN&#45;&gt;goblin</title>
<path fill="none" stroke="black" d="M599.667,-76.3235C634.379,-64.6417 686.011,-47.2655 723.325,-34.708"/>
<polygon fill="black" stroke="black" points="724.601,-37.9713 732.963,-31.4645 722.369,-31.337 724.601,-37.9713"/>
</g>
<!-- ITF&#45;4_RawSig -->
<g id="node22" class="node"><title>ITF&#45;4_RawSig</title>
<ellipse fill="yellow" stroke="black" cx="702" cy="-90" rx="63.8893" ry="18"/>
<text text-anchor="middle" x="702" y="-86.3" font-family="Times,serif" font-size="14.00">ITF&#45;4_RawSig</text>
</g>
<!-- ITF&#45;4_RawSig&#45;&gt;goblin -->
<g id="edge20" class="edge"><title>ITF&#45;4_RawSig&#45;&gt;goblin</title>
<path fill="none" stroke="black" d="M712.583,-72.055C720.116,-63.3492 730.377,-52.5913 740.197,-43.0432"/>
<polygon fill="black" stroke="black" points="742.734,-45.4598 747.568,-36.0316 737.91,-40.388 742.734,-45.4598"/>
</g>
<!-- ITF&#45;4_RawSig&#45;&gt;goblin -->
<g id="edge24" class="edge"><title>ITF&#45;4_RawSig&#45;&gt;goblin</title>
<path fill="none" stroke="black" d="M723.572,-72.7646C732.873,-64.1822 743.516,-53.4625 752.344,-43.858"/>
<polygon fill="black" stroke="black" points="755.204,-45.9105 759.262,-36.1239 749.987,-41.2434 755.204,-45.9105"/>
</g>
<!-- ITF&#45;3_ENV -->
<g id="node23" class="node"><title>ITF&#45;3_ENV</title>
<ellipse fill="yellow" stroke="black" cx="838" cy="-90" rx="53.8905" ry="18"/>
<text text-anchor="middle" x="838" y="-86.3" font-family="Times,serif" font-size="14.00">ITF&#45;3_ENV</text>
</g>
<!-- ITF&#45;3_ENV&#45;&gt;goblin -->
<g id="edge21" class="edge"><title>ITF&#45;3_ENV&#45;&gt;goblin</title>
<path fill="none" stroke="black" d="M822.229,-72.7646C813.808,-64.0964 803.269,-53.2479 793.868,-43.5702"/>
<polygon fill="black" stroke="black" points="796.113,-40.858 786.635,-36.1239 791.092,-45.7355 796.113,-40.858"/>
</g>
<!-- ITF&#45;18_Raw -->
<g id="node24" class="node"><title>ITF&#45;18_Raw</title>
<ellipse fill="yellow" stroke="black" cx="1692" cy="-90" rx="55.7903" ry="18"/>
<text text-anchor="middle" x="1692" y="-86.3" font-family="Times,serif" font-size="14.00">ITF&#45;18_Raw</text>
</g>
<!-- ITF&#45;18_Raw&#45;&gt;goblin -->
<g id="edge22" class="edge"><title>ITF&#45;18_Raw&#45;&gt;goblin</title>
<path fill="none" stroke="black" d="M1652.32,-77.1568C1644.33,-75.1418 1635.94,-73.2874 1628,-72 1469.77,-46.3571 972.952,-26.4307 817.191,-20.6829"/>
<polygon fill="black" stroke="black" points="817.124,-17.1782 807.002,-20.3092 816.867,-24.1734 817.124,-17.1782"/>
</g>
<!-- ITF&#45;18_Raw&#45;&gt;lite.tbo -->
<g id="edge39" class="edge"><title>ITF&#45;18_Raw&#45;&gt;lite.tbo</title>
<path fill="none" stroke="black" d="M1729.91,-76.6172C1735.94,-75.0422 1742.12,-73.4687 1748,-72 1810.77,-56.335 1883.75,-39.1921 1930.96,-28.7657"/>
<polygon fill="black" stroke="black" points="1931.9,-32.142 1940.92,-26.5823 1930.4,-25.3043 1931.9,-32.142"/>
</g>
<!-- ITF&#45;18_Raw&#45;&gt;lite.tbo -->
<g id="edge42" class="edge"><title>ITF&#45;18_Raw&#45;&gt;lite.tbo</title>
<path fill="none" stroke="black" d="M1737.11,-79.3251C1746.72,-76.8926 1756.72,-74.316 1766,-72 1822.59,-57.8757 1887.49,-42.5499 1930.94,-32.0292"/>
<polygon fill="black" stroke="black" points="1931.79,-35.4228 1940.68,-29.6609 1930.14,-28.6207 1931.79,-35.4228"/>
</g>
<!-- ITF&#45;18_Raw&#45;&gt;silent -->
<g id="edge48" class="edge"><title>ITF&#45;18_Raw&#45;&gt;silent</title>
<path fill="none" stroke="black" d="M1653.78,-76.7268C1615.17,-64.3284 1555.68,-45.2265 1515.82,-32.43"/>
<polygon fill="black" stroke="black" points="1516.73,-29.0453 1506.14,-29.3204 1514.59,-35.7101 1516.73,-29.0453"/>
</g>
<!-- ITF&#45;mET_SMA -->
<g id="node25" class="node"><title>ITF&#45;mET_SMA</title>
<ellipse fill="green" stroke="black" cx="1835" cy="-90" rx="68.7879" ry="18"/>
<text text-anchor="middle" x="1835" y="-86.3" font-family="Times,serif" font-size="14.00">ITF&#45;mET_SMA</text>
</g>
<!-- ITF&#45;mET_SMA&#45;&gt;goblin -->
<g id="edge23" class="edge"><title>ITF&#45;mET_SMA&#45;&gt;goblin</title>
<path fill="none" stroke="black" d="M1786.53,-77.1726C1776.8,-75.1562 1766.61,-73.2973 1757,-72 1571.9,-47.024 987.891,-26.2003 817.254,-20.5274"/>
<polygon fill="black" stroke="black" points="817.198,-17.0237 807.087,-20.1911 816.966,-24.0199 817.198,-17.0237"/>
</g>
<!-- ITF&#45;mET_SMA&#45;&gt;lite.tbo -->
<g id="edge40" class="edge"><title>ITF&#45;mET_SMA&#45;&gt;lite.tbo</title>
<path fill="none" stroke="black" d="M1861.8,-73.2906C1881.33,-63.2999 1908.19,-50.2595 1931.41,-39.4633"/>
<polygon fill="black" stroke="black" points="1933.16,-42.5105 1940.77,-35.1425 1930.23,-36.1546 1933.16,-42.5105"/>
</g>
<!-- ITF&#45;mET_SMA&#45;&gt;lite.tbo -->
<g id="edge43" class="edge"><title>ITF&#45;mET_SMA&#45;&gt;lite.tbo</title>
<path fill="none" stroke="black" d="M1870.64,-74.496C1892.14,-64.7198 1919.45,-51.6496 1941.45,-40.6492"/>
<polygon fill="black" stroke="black" points="1943.16,-43.7039 1950.52,-36.0771 1940.01,-37.4531 1943.16,-43.7039"/>
</g>
<!-- ITF&#45;3_ENV_signal_envelope -->
<g id="node26" class="node"><title>ITF&#45;3_ENV_signal_envelope</title>
<ellipse fill="yellow" stroke="black" cx="227" cy="-90" rx="115.08" ry="18"/>
<text text-anchor="middle" x="227" y="-86.3" font-family="Times,serif" font-size="14.00">ITF&#45;3_ENV_signal_envelope</text>
</g>
<!-- ITF&#45;3_ENV_signal_envelope&#45;&gt;goblin -->
<g id="edge25" class="edge"><title>ITF&#45;3_ENV_signal_envelope&#45;&gt;goblin</title>
<path fill="none" stroke="black" d="M310.026,-77.4957C323.712,-75.6343 337.751,-73.7461 351,-72 485.967,-54.2126 645.553,-34.3485 723.057,-24.7759"/>
<polygon fill="black" stroke="black" points="723.495,-28.2485 732.991,-23.5499 722.637,-21.3013 723.495,-28.2485"/>
</g>
<!-- ITF&#45;mEG_SPI -->
<g id="node27" class="node"><title>ITF&#45;mEG_SPI</title>
<ellipse fill="green" stroke="black" cx="423" cy="-90" rx="63.0888" ry="18"/>
<text text-anchor="middle" x="423" y="-86.3" font-family="Times,serif" font-size="14.00">ITF&#45;mEG_SPI</text>
</g>
<!-- ITF&#45;mEG_SPI&#45;&gt;goblin -->
<g id="edge26" class="edge"><title>ITF&#45;mEG_SPI&#45;&gt;goblin</title>
<path fill="none" stroke="black" d="M469.414,-77.7428C477.911,-75.7668 486.711,-73.7764 495,-72 574.724,-54.9133 668.001,-37.4701 722.867,-27.4692"/>
<polygon fill="black" stroke="black" points="723.77,-30.8626 732.983,-25.6304 722.518,-23.9754 723.77,-30.8626"/>
</g>
<!-- ITF&#45;9_Pon -->
<g id="node28" class="node"><title>ITF&#45;9_Pon</title>
<ellipse fill="yellow" stroke="black" cx="2234" cy="-90" rx="49.2915" ry="18"/>
<text text-anchor="middle" x="2234" y="-86.3" font-family="Times,serif" font-size="14.00">ITF&#45;9_Pon</text>
</g>
<!-- ITF&#45;9_Pon&#45;&gt;lite.tbo -->
<g id="edge29" class="edge"><title>ITF&#45;9_Pon&#45;&gt;lite.tbo</title>
<path fill="none" stroke="black" d="M2193.2,-79.6475C2184.16,-77.1374 2174.73,-74.4426 2166,-72 2119.48,-58.9773 2066.59,-44.6305 2029.04,-34.1515"/>
<polygon fill="black" stroke="black" points="2029.93,-30.7661 2019.36,-31.4386 2028.04,-37.5065 2029.93,-30.7661"/>
</g>
<!-- ITF&#45;9_Pon&#45;&gt;lite.tbo -->
<g id="edge35" class="edge"><title>ITF&#45;9_Pon&#45;&gt;lite.tbo</title>
<path fill="none" stroke="black" d="M2200.41,-76.666C2194.94,-75.083 2189.34,-73.4943 2184,-72 2131.41,-57.2778 2070.68,-40.8633 2029.12,-30.258"/>
<polygon fill="black" stroke="black" points="2029.81,-26.8201 2019.25,-27.7574 2028.09,-33.6058 2029.81,-26.8201"/>
</g>
<!-- ITF&#45;10_Poff -->
<g id="node29" class="node"><title>ITF&#45;10_Poff</title>
<ellipse fill="yellow" stroke="black" cx="2111" cy="-90" rx="55.4913" ry="18"/>
<text text-anchor="middle" x="2111" y="-86.3" font-family="Times,serif" font-size="14.00">ITF&#45;10_Poff</text>
</g>
<!-- ITF&#45;10_Poff&#45;&gt;lite.tbo -->
<g id="edge30" class="edge"><title>ITF&#45;10_Poff&#45;&gt;lite.tbo</title>
<path fill="none" stroke="black" d="M2079.61,-75.1703C2060.06,-65.4265 2034.99,-52.1764 2014.84,-40.9923"/>
<polygon fill="black" stroke="black" points="2016.4,-37.8539 2005.96,-36.019 2012.98,-43.9606 2016.4,-37.8539"/>
</g>
<!-- ITF&#45;10_Poff&#45;&gt;lite.tbo -->
<g id="edge36" class="edge"><title>ITF&#45;10_Poff&#45;&gt;lite.tbo</title>
<path fill="none" stroke="black" d="M2087.95,-73.6382C2071.01,-63.9623 2047.56,-51.3258 2026.8,-40.6427"/>
<polygon fill="black" stroke="black" points="2028.28,-37.4729 2017.79,-36.0442 2025.1,-43.7077 2028.28,-37.4729"/>
</g>
<!-- ITF&#45;17_POff3 -->
<g id="node30" class="node"><title>ITF&#45;17_POff3</title>
<ellipse fill="yellow" stroke="black" cx="1400" cy="-90" rx="61.99" ry="18"/>
<text text-anchor="middle" x="1400" y="-86.3" font-family="Times,serif" font-size="14.00">ITF&#45;17_POff3</text>
</g>
<!-- ITF&#45;17_POff3&#45;&gt;silent -->
<g id="edge47" class="edge"><title>ITF&#45;17_POff3&#45;&gt;silent</title>
<path fill="none" stroke="black" d="M1417.54,-72.411C1426.73,-63.7123 1438.17,-52.8926 1448.34,-43.2706"/>
<polygon fill="black" stroke="black" points="1450.96,-45.6156 1455.82,-36.201 1446.15,-40.5303 1450.96,-45.6156"/>
</g>
</g>
</svg>
