<?xml version="1.0" encoding="UTF-8" standalone="no"?>
<!DOCTYPE svg PUBLIC "-//W3C//DTD SVG 1.1//EN"
 "http://www.w3.org/Graphics/SVG/1.1/DTD/svg11.dtd">
<!-- Generated by graphviz version 2.38.0 (20140413.2041)
 -->
<!-- Title: %3 Pages: 1 -->
<svg width="1016pt" height="332pt"
 viewBox="0.00 0.00 1016.26 332.00" xmlns="http://www.w3.org/2000/svg" xmlns:xlink="http://www.w3.org/1999/xlink">
<g id="graph0" class="graph" transform="scale(1 1) rotate(0) translate(4 328)">
<title>%3</title>
<polygon fill="white" stroke="none" points="-4,4 -4,-328 1012.26,-328 1012.26,4 -4,4"/>
<!-- tobo -->
<g id="node1" class="node"><title>tobo</title>
<polygon fill="blue" stroke="black" points="143.218,-108 89.2177,-108 89.2177,-72 143.218,-72 143.218,-108"/>
<text text-anchor="middle" x="116.218" y="-86.3" font-family="Times,serif" font-size="14.00">tobo</text>
</g>
<!-- ITF&#45;R_reserved -->
<g id="node11" class="node"><title>ITF&#45;R_reserved</title>
<ellipse fill="yellow" stroke="black" cx="116.218" cy="-18" rx="66.8882" ry="18"/>
<text text-anchor="middle" x="116.218" y="-14.3" font-family="Times,serif" font-size="14.00">ITF&#45;R_reserved</text>
</g>
<!-- tobo&#45;&gt;ITF&#45;R_reserved -->
<g id="edge6" class="edge"><title>tobo&#45;&gt;ITF&#45;R_reserved</title>
<path fill="none" stroke="black" d="M116.218,-71.6966C116.218,-63.9827 116.218,-54.7125 116.218,-46.1124"/>
<polygon fill="red" stroke="black" points="119.718,-46.1043 116.218,-36.1043 112.718,-46.1044 119.718,-46.1043"/>
</g>
<!-- oneeye -->
<g id="node2" class="node"><title>oneeye</title>
<polygon fill="blue" stroke="black" points="432.718,-252 377.718,-252 377.718,-216 432.718,-216 432.718,-252"/>
<text text-anchor="middle" x="405.218" y="-230.3" font-family="Times,serif" font-size="14.00">oneeye</text>
</g>
<!-- ITF&#45;I_pulse_on -->
<g id="node8" class="node"><title>ITF&#45;I_pulse_on</title>
<ellipse fill="yellow" stroke="black" cx="306.218" cy="-162" rx="65.7887" ry="18"/>
<text text-anchor="middle" x="306.218" y="-158.3" font-family="Times,serif" font-size="14.00">ITF&#45;I_pulse_on</text>
</g>
<!-- oneeye&#45;&gt;ITF&#45;I_pulse_on -->
<g id="edge11" class="edge"><title>oneeye&#45;&gt;ITF&#45;I_pulse_on</title>
<path fill="none" stroke="black" d="M381,-215.876C367.821,-206.558 351.374,-194.929 337.263,-184.951"/>
<polygon fill="red" stroke="black" points="339.014,-181.903 328.828,-178.987 334.973,-187.619 339.014,-181.903"/>
</g>
<!-- ITF&#45;J_pulse_off -->
<g id="node9" class="node"><title>ITF&#45;J_pulse_off</title>
<ellipse fill="yellow" stroke="black" cx="116.218" cy="-162" rx="67.6881" ry="18"/>
<text text-anchor="middle" x="116.218" y="-158.3" font-family="Times,serif" font-size="14.00">ITF&#45;J_pulse_off</text>
</g>
<!-- oneeye&#45;&gt;ITF&#45;J_pulse_off -->
<g id="edge12" class="edge"><title>oneeye&#45;&gt;ITF&#45;J_pulse_off</title>
<path fill="none" stroke="black" d="M377.507,-226.288C330.935,-215.008 236.02,-192.018 174.318,-177.073"/>
<polygon fill="red" stroke="black" points="174.879,-173.607 164.336,-174.655 173.231,-180.411 174.879,-173.607"/>
</g>
<!-- ITF&#45;G_gain_control -->
<g id="node12" class="node"><title>ITF&#45;G_gain_control</title>
<ellipse fill="yellow" stroke="black" cx="715.218" cy="-162" rx="81.7856" ry="18"/>
<text text-anchor="middle" x="715.218" y="-158.3" font-family="Times,serif" font-size="14.00">ITF&#45;G_gain_control</text>
</g>
<!-- oneeye&#45;&gt;ITF&#45;G_gain_control -->
<g id="edge10" class="edge"><title>oneeye&#45;&gt;ITF&#45;G_gain_control</title>
<path fill="none" stroke="black" d="M432.728,-226.788C481.213,-215.84 583.099,-192.833 650.33,-177.652"/>
<polygon fill="red" stroke="black" points="651.415,-180.995 660.398,-175.379 649.873,-174.167 651.415,-180.995"/>
</g>
<!-- ITF&#45;N_cc_motor_pwm -->
<g id="node13" class="node"><title>ITF&#45;N_cc_motor_pwm</title>
<ellipse fill="yellow" stroke="black" cx="483.218" cy="-162" rx="93.6835" ry="18"/>
<text text-anchor="middle" x="483.218" y="-158.3" font-family="Times,serif" font-size="14.00">ITF&#45;N_cc_motor_pwm</text>
</g>
<!-- oneeye&#45;&gt;ITF&#45;N_cc_motor_pwm -->
<g id="edge13" class="edge"><title>oneeye&#45;&gt;ITF&#45;N_cc_motor_pwm</title>
<path fill="none" stroke="black" d="M424.499,-215.697C434.205,-206.986 446.123,-196.29 456.68,-186.816"/>
<polygon fill="red" stroke="black" points="459.323,-189.147 464.428,-179.863 454.648,-183.937 459.323,-189.147"/>
</g>
<!-- goblin -->
<g id="node3" class="node"><title>goblin</title>
<polygon fill="blue" stroke="black" points="797.218,-108 743.218,-108 743.218,-72 797.218,-72 797.218,-108"/>
<text text-anchor="middle" x="770.218" y="-86.3" font-family="Times,serif" font-size="14.00">goblin</text>
</g>
<!-- ITF&#45;C_amplified_raw_signal -->
<g id="node14" class="node"><title>ITF&#45;C_amplified_raw_signal</title>
<ellipse fill="yellow" stroke="black" cx="544.218" cy="-18" rx="114.28" ry="18"/>
<text text-anchor="middle" x="544.218" y="-14.3" font-family="Times,serif" font-size="14.00">ITF&#45;C_amplified_raw_signal</text>
</g>
<!-- goblin&#45;&gt;ITF&#45;C_amplified_raw_signal -->
<g id="edge18" class="edge"><title>goblin&#45;&gt;ITF&#45;C_amplified_raw_signal</title>
<path fill="none" stroke="black" d="M742.957,-80.5564C708.613,-69.9189 648.636,-51.342 603.529,-37.3707"/>
<polygon fill="red" stroke="black" points="604.444,-33.9901 593.856,-34.3747 602.373,-40.6767 604.444,-33.9901"/>
</g>
<!-- ITF&#45;E_signal_envelope -->
<g id="node15" class="node"><title>ITF&#45;E_signal_envelope</title>
<ellipse fill="yellow" stroke="black" cx="770.218" cy="-18" rx="93.6835" ry="18"/>
<text text-anchor="middle" x="770.218" y="-14.3" font-family="Times,serif" font-size="14.00">ITF&#45;E_signal_envelope</text>
</g>
<!-- goblin&#45;&gt;ITF&#45;E_signal_envelope -->
<g id="edge19" class="edge"><title>goblin&#45;&gt;ITF&#45;E_signal_envelope</title>
<path fill="none" stroke="black" d="M770.218,-71.6966C770.218,-63.9827 770.218,-54.7125 770.218,-46.1124"/>
<polygon fill="red" stroke="black" points="773.718,-46.1043 770.218,-36.1043 766.718,-46.1044 773.718,-46.1043"/>
</g>
<!-- ITF&#45;mEG_SPI -->
<g id="node16" class="node"><title>ITF&#45;mEG_SPI</title>
<ellipse fill="yellow" stroke="black" cx="945.218" cy="-18" rx="63.0888" ry="18"/>
<text text-anchor="middle" x="945.218" y="-14.3" font-family="Times,serif" font-size="14.00">ITF&#45;mEG_SPI</text>
</g>
<!-- goblin&#45;&gt;ITF&#45;mEG_SPI -->
<g id="edge20" class="edge"><title>goblin&#45;&gt;ITF&#45;mEG_SPI</title>
<path fill="none" stroke="black" d="M797.561,-78.0625C825.209,-67.0033 868.388,-49.7317 900.925,-36.717"/>
<polygon fill="red" stroke="black" points="902.24,-39.9609 910.224,-32.9973 899.64,-33.4616 902.24,-39.9609"/>
</g>
<!-- silent -->
<g id="node4" class="node"><title>silent</title>
<polygon fill="blue" stroke="black" points="731.218,-324 677.218,-324 677.218,-288 731.218,-288 731.218,-324"/>
<text text-anchor="middle" x="704.218" y="-302.3" font-family="Times,serif" font-size="14.00">silent</text>
</g>
<!-- mogaba -->
<g id="node5" class="node"><title>mogaba</title>
<polygon fill="blue" stroke="black" points="809.218,-324 749.218,-324 749.218,-288 809.218,-288 809.218,-324"/>
<text text-anchor="middle" x="779.218" y="-302.3" font-family="Times,serif" font-size="14.00">mogaba</text>
</g>
<!-- ITF&#45;A_gnd -->
<g id="node6" class="node"><title>ITF&#45;A_gnd</title>
<ellipse fill="yellow" stroke="black" cx="212.218" cy="-306" rx="50.8918" ry="18"/>
<text text-anchor="middle" x="212.218" y="-302.3" font-family="Times,serif" font-size="14.00">ITF&#45;A_gnd</text>
</g>
<!-- ITF&#45;A_gnd&#45;&gt;tobo -->
<g id="edge1" class="edge"><title>ITF&#45;A_gnd&#45;&gt;tobo</title>
<path fill="none" stroke="black" d="M173.341,-294.265C124.258,-278.382 41.9231,-243.431 6.21771,-180 -1.63077,-166.057 -2.29347,-157.548 6.21771,-144 22.1456,-118.645 53.9849,-105.135 79.328,-98.117"/>
<polygon fill="black" stroke="black" points="80.1946,-101.508 89.0246,-95.6531 78.4706,-94.7238 80.1946,-101.508"/>
</g>
<!-- ITF&#45;A_gnd&#45;&gt;oneeye -->
<g id="edge7" class="edge"><title>ITF&#45;A_gnd&#45;&gt;oneeye</title>
<path fill="none" stroke="black" d="M246.278,-292.647C280.404,-280.269 332.787,-261.27 367.992,-248.502"/>
<polygon fill="black" stroke="black" points="369.229,-251.776 377.436,-245.076 366.842,-245.196 369.229,-251.776"/>
</g>
<!-- ITF&#45;A_gnd&#45;&gt;goblin -->
<g id="edge14" class="edge"><title>ITF&#45;A_gnd&#45;&gt;goblin</title>
<path fill="none" stroke="black" d="M208.162,-287.971C201.424,-254.978 192.235,-182.232 231.218,-144 266.981,-108.925 616.683,-95.5196 732.89,-92.0114"/>
<polygon fill="black" stroke="black" points="733.182,-95.5044 743.074,-91.7114 732.976,-88.5075 733.182,-95.5044"/>
</g>
<!-- ITF&#45;B_5v -->
<g id="node7" class="node"><title>ITF&#45;B_5v</title>
<ellipse fill="yellow" stroke="black" cx="405.218" cy="-306" rx="46.2923" ry="18"/>
<text text-anchor="middle" x="405.218" y="-302.3" font-family="Times,serif" font-size="14.00">ITF&#45;B_5v</text>
</g>
<!-- ITF&#45;B_5v&#45;&gt;tobo -->
<g id="edge2" class="edge"><title>ITF&#45;B_5v&#45;&gt;tobo</title>
<path fill="none" stroke="black" d="M364.644,-297.251C277.685,-279.732 78.0823,-234.342 39.2177,-180 29.9102,-166.986 31.7728,-158.162 39.2177,-144 47.9288,-127.429 64.4248,-115.03 79.9206,-106.408"/>
<polygon fill="black" stroke="black" points="81.6003,-109.48 88.8623,-101.766 78.3745,-103.268 81.6003,-109.48"/>
</g>
<!-- ITF&#45;B_5v&#45;&gt;oneeye -->
<g id="edge8" class="edge"><title>ITF&#45;B_5v&#45;&gt;oneeye</title>
<path fill="none" stroke="black" d="M405.218,-287.697C405.218,-279.983 405.218,-270.712 405.218,-262.112"/>
<polygon fill="black" stroke="black" points="408.718,-262.104 405.218,-252.104 401.718,-262.104 408.718,-262.104"/>
</g>
<!-- ITF&#45;B_5v&#45;&gt;goblin -->
<g id="edge15" class="edge"><title>ITF&#45;B_5v&#45;&gt;goblin</title>
<path fill="none" stroke="black" d="M447.128,-298.285C540.904,-282.316 762.84,-238.958 806.218,-180 820.501,-160.587 807.162,-134.709 792.849,-115.863"/>
<polygon fill="black" stroke="black" points="795.516,-113.594 786.517,-108.002 790.065,-117.986 795.516,-113.594"/>
</g>
<!-- ITF&#45;I_pulse_on&#45;&gt;tobo -->
<g id="edge3" class="edge"><title>ITF&#45;I_pulse_on&#45;&gt;tobo</title>
<path fill="none" stroke="black" d="M268.68,-147.17C235.161,-134.821 186.354,-116.84 153.051,-104.57"/>
<polygon fill="black" stroke="black" points="153.841,-101.131 143.248,-100.958 151.421,-107.7 153.841,-101.131"/>
</g>
<!-- ITF&#45;J_pulse_off&#45;&gt;tobo -->
<g id="edge4" class="edge"><title>ITF&#45;J_pulse_off&#45;&gt;tobo</title>
<path fill="none" stroke="black" d="M116.218,-143.697C116.218,-135.983 116.218,-126.712 116.218,-118.112"/>
<polygon fill="black" stroke="black" points="119.718,-118.104 116.218,-108.104 112.718,-118.104 119.718,-118.104"/>
</g>
<!-- ITF&#45;S_3_3v -->
<g id="node10" class="node"><title>ITF&#45;S_3_3v</title>
<ellipse fill="yellow" stroke="black" cx="605.218" cy="-306" rx="53.8905" ry="18"/>
<text text-anchor="middle" x="605.218" y="-302.3" font-family="Times,serif" font-size="14.00">ITF&#45;S_3_3v</text>
</g>
<!-- ITF&#45;S_3_3v&#45;&gt;tobo -->
<g id="edge5" class="edge"><title>ITF&#45;S_3_3v&#45;&gt;tobo</title>
<path fill="none" stroke="black" d="M609.226,-288.02C615.879,-255.112 624.927,-182.509 586.218,-144 555.685,-113.625 259.545,-97.4407 153.639,-92.5879"/>
<polygon fill="black" stroke="black" points="153.567,-89.0812 143.419,-92.1279 153.252,-96.0741 153.567,-89.0812"/>
</g>
<!-- ITF&#45;S_3_3v&#45;&gt;oneeye -->
<g id="edge9" class="edge"><title>ITF&#45;S_3_3v&#45;&gt;oneeye</title>
<path fill="none" stroke="black" d="M569.462,-292.485C533.721,-279.976 478.995,-260.822 442.668,-248.108"/>
<polygon fill="black" stroke="black" points="443.536,-244.703 432.941,-244.703 441.224,-251.31 443.536,-244.703"/>
</g>
<!-- ITF&#45;S_3_3v&#45;&gt;goblin -->
<g id="edge17" class="edge"><title>ITF&#45;S_3_3v&#45;&gt;goblin</title>
<path fill="none" stroke="black" d="M645.124,-293.87C652.77,-291.84 660.727,-289.798 668.218,-288 743.739,-269.876 790.282,-312.31 839.218,-252 869.461,-214.726 860.437,-187.055 839.218,-144 832.11,-129.579 818.985,-117.987 806.075,-109.366"/>
<polygon fill="black" stroke="black" points="807.588,-106.185 797.248,-103.873 803.89,-112.128 807.588,-106.185"/>
</g>
<!-- ITF&#45;G_gain_control&#45;&gt;goblin -->
<g id="edge16" class="edge"><title>ITF&#45;G_gain_control&#45;&gt;goblin</title>
<path fill="none" stroke="black" d="M728.532,-144.055C735.055,-135.753 743.045,-125.584 750.278,-116.378"/>
<polygon fill="black" stroke="black" points="753.218,-118.301 756.644,-108.275 747.714,-113.976 753.218,-118.301"/>
</g>
</g>
</svg>
