<?xml version="1.0" encoding="UTF-8" standalone="no"?>
<!DOCTYPE svg PUBLIC "-//W3C//DTD SVG 1.1//EN"
 "http://www.w3.org/Graphics/SVG/1.1/DTD/svg11.dtd">
<!-- Generated by graphviz version 2.38.0 (20140413.2041)
 -->
<!-- Title: %3 Pages: 1 -->
<svg width="924pt" height="620pt"
 viewBox="0.00 0.00 923.83 620.00" xmlns="http://www.w3.org/2000/svg" xmlns:xlink="http://www.w3.org/1999/xlink">
<g id="graph0" class="graph" transform="scale(1 1) rotate(0) translate(4 616)">
<title>%3</title>
<polygon fill="white" stroke="none" points="-4,4 -4,-616 919.83,-616 919.83,4 -4,4"/>
<!-- tobo -->
<g id="node1" class="node"><title>tobo</title>
<polygon fill="blue" stroke="black" points="542.592,-252 486.592,-252 486.592,-216 542.592,-216 542.592,-252"/>
<text text-anchor="middle" x="514.592" y="-228.4" font-family="Times,serif" font-size="22.00">tobo</text>
</g>
<!-- ITF&#45;R_reserved -->
<g id="node11" class="node"><title>ITF&#45;R_reserved</title>
<ellipse fill="yellow" stroke="black" cx="316.592" cy="-162" rx="66.8882" ry="18"/>
<text text-anchor="middle" x="316.592" y="-158.3" font-family="Times,serif" font-size="14.00">ITF&#45;R_reserved</text>
</g>
<!-- tobo&#45;&gt;ITF&#45;R_reserved -->
<g id="edge6" class="edge"><title>tobo&#45;&gt;ITF&#45;R_reserved</title>
<path fill="none" stroke="black" d="M486.223,-222.971C454.714,-211.831 403.287,-193.65 365.305,-180.222"/>
<polygon fill="red" stroke="black" points="366.063,-176.778 355.468,-176.744 363.73,-183.377 366.063,-176.778"/>
</g>
<!-- ITF&#45;mET_SMA -->
<g id="node12" class="node"><title>ITF&#45;mET_SMA</title>
<ellipse fill="green" stroke="black" cx="470.592" cy="-162" rx="68.7879" ry="18"/>
<text text-anchor="middle" x="470.592" y="-158.3" font-family="Times,serif" font-size="14.00">ITF&#45;mET_SMA</text>
</g>
<!-- tobo&#45;&gt;ITF&#45;mET_SMA -->
<g id="edge7" class="edge"><title>tobo&#45;&gt;ITF&#45;mET_SMA</title>
<path fill="none" stroke="black" d="M503.715,-215.697C498.6,-207.559 492.396,-197.689 486.747,-188.701"/>
<polygon fill="red" stroke="black" points="489.628,-186.708 481.343,-180.104 483.702,-190.433 489.628,-186.708"/>
</g>
<!-- ITF&#45;mET_Transducer -->
<g id="node13" class="node"><title>ITF&#45;mET_Transducer</title>
<ellipse fill="green" stroke="black" cx="684.592" cy="-162" rx="89.0842" ry="18"/>
<text text-anchor="middle" x="684.592" y="-158.3" font-family="Times,serif" font-size="14.00">ITF&#45;mET_Transducer</text>
</g>
<!-- tobo&#45;&gt;ITF&#45;mET_Transducer -->
<g id="edge8" class="edge"><title>tobo&#45;&gt;ITF&#45;mET_Transducer</title>
<path fill="none" stroke="black" d="M542.664,-221.441C568.448,-210.824 607.167,-194.881 637.653,-182.328"/>
<polygon fill="red" stroke="black" points="639.321,-185.426 647.235,-178.382 636.656,-178.953 639.321,-185.426"/>
</g>
<!-- cletus -->
<g id="node2" class="node"><title>cletus</title>
<polygon fill="blue" stroke="black" points="776.592,-108 708.592,-108 708.592,-72 776.592,-72 776.592,-108"/>
<text text-anchor="middle" x="742.592" y="-84.4" font-family="Times,serif" font-size="22.00">cletus</text>
</g>
<!-- cletus&#45;&gt;ITF&#45;mET_Transducer -->
<g id="edge16" class="edge"><title>cletus&#45;&gt;ITF&#45;mET_Transducer</title>
<path fill="none" stroke="black" d="M734.066,-108.447C727.82,-117.043 719.292,-127.545 711.015,-136.895"/>
<polygon fill="red" stroke="black" points="708.318,-134.659 704.177,-144.411 713.495,-139.37 708.318,-134.659"/>
</g>
<!-- ITF&#45;mET_Piezo -->
<g id="node15" class="node"><title>ITF&#45;mET_Piezo</title>
<ellipse fill="green" stroke="black" cx="742.592" cy="-18" rx="68.7879" ry="18"/>
<text text-anchor="middle" x="742.592" y="-14.3" font-family="Times,serif" font-size="14.00">ITF&#45;mET_Piezo</text>
</g>
<!-- cletus&#45;&gt;ITF&#45;mET_Piezo -->
<g id="edge15" class="edge"><title>cletus&#45;&gt;ITF&#45;mET_Piezo</title>
<path fill="none" stroke="black" d="M736.676,-71.6966C735.88,-63.9827 735.654,-54.7125 735.996,-46.1124"/>
<polygon fill="red" stroke="black" points="739.49,-46.3243 736.697,-36.1043 732.507,-45.8356 739.49,-46.3243"/>
</g>
<!-- oneeye -->
<g id="node3" class="node"><title>oneeye</title>
<polygon fill="blue" stroke="black" points="614.592,-396 534.592,-396 534.592,-360 614.592,-360 614.592,-396"/>
<text text-anchor="middle" x="574.592" y="-372.4" font-family="Times,serif" font-size="22.00">oneeye</text>
</g>
<!-- ITF&#45;I_pulse_on -->
<g id="node8" class="node"><title>ITF&#45;I_pulse_on</title>
<ellipse fill="yellow" stroke="black" cx="574.592" cy="-306" rx="65.7887" ry="18"/>
<text text-anchor="middle" x="574.592" y="-302.3" font-family="Times,serif" font-size="14.00">ITF&#45;I_pulse_on</text>
</g>
<!-- oneeye&#45;&gt;ITF&#45;I_pulse_on -->
<g id="edge21" class="edge"><title>oneeye&#45;&gt;ITF&#45;I_pulse_on</title>
<path fill="none" stroke="black" d="M574.592,-359.697C574.592,-351.983 574.592,-342.712 574.592,-334.112"/>
<polygon fill="red" stroke="black" points="578.092,-334.104 574.592,-324.104 571.092,-334.104 578.092,-334.104"/>
</g>
<!-- ITF&#45;J_pulse_off -->
<g id="node9" class="node"><title>ITF&#45;J_pulse_off</title>
<ellipse fill="yellow" stroke="black" cx="423.592" cy="-306" rx="67.6881" ry="18"/>
<text text-anchor="middle" x="423.592" y="-302.3" font-family="Times,serif" font-size="14.00">ITF&#45;J_pulse_off</text>
</g>
<!-- oneeye&#45;&gt;ITF&#45;J_pulse_off -->
<g id="edge22" class="edge"><title>oneeye&#45;&gt;ITF&#45;J_pulse_off</title>
<path fill="none" stroke="black" d="M537.653,-359.876C515.629,-349.666 487.621,-336.682 464.871,-326.136"/>
<polygon fill="red" stroke="black" points="466.341,-322.96 455.796,-321.929 463.397,-329.31 466.341,-322.96"/>
</g>
<!-- ITF&#45;N_cc_motor_pwm -->
<g id="node14" class="node"><title>ITF&#45;N_cc_motor_pwm</title>
<ellipse fill="yellow" stroke="black" cx="679.592" cy="-234" rx="93.6835" ry="18"/>
<text text-anchor="middle" x="679.592" y="-230.3" font-family="Times,serif" font-size="14.00">ITF&#45;N_cc_motor_pwm</text>
</g>
<!-- oneeye&#45;&gt;ITF&#45;N_cc_motor_pwm -->
<g id="edge23" class="edge"><title>oneeye&#45;&gt;ITF&#45;N_cc_motor_pwm</title>
<path fill="none" stroke="black" d="M607.815,-359.858C622.389,-350.891 638.636,-338.703 649.592,-324 663.174,-305.771 670.86,-281.002 675.044,-262.222"/>
<polygon fill="red" stroke="black" points="678.515,-262.714 677.072,-252.218 671.655,-261.323 678.515,-262.714"/>
</g>
<!-- ITF&#45;G_gain_control -->
<g id="node16" class="node"><title>ITF&#45;G_gain_control</title>
<ellipse fill="yellow" stroke="black" cx="361.592" cy="-234" rx="81.7856" ry="18"/>
<text text-anchor="middle" x="361.592" y="-230.3" font-family="Times,serif" font-size="14.00">ITF&#45;G_gain_control</text>
</g>
<!-- oneeye&#45;&gt;ITF&#45;G_gain_control -->
<g id="edge20" class="edge"><title>oneeye&#45;&gt;ITF&#45;G_gain_control</title>
<path fill="none" stroke="black" d="M534.218,-373.534C475.127,-367.53 369.591,-352.959 346.592,-324 332.586,-306.365 339.034,-280.481 347.384,-261.167"/>
<polygon fill="red" stroke="black" points="350.6,-262.551 351.689,-252.012 344.266,-259.572 350.6,-262.551"/>
</g>
<!-- goblin -->
<g id="node4" class="node"><title>goblin</title>
<polygon fill="blue" stroke="black" points="305.592,-108 231.592,-108 231.592,-72 305.592,-72 305.592,-108"/>
<text text-anchor="middle" x="268.592" y="-84.4" font-family="Times,serif" font-size="22.00">goblin</text>
</g>
<!-- ITF&#45;C_amplified_raw_signal -->
<g id="node17" class="node"><title>ITF&#45;C_amplified_raw_signal</title>
<ellipse fill="yellow" stroke="black" cx="463.592" cy="-18" rx="114.28" ry="18"/>
<text text-anchor="middle" x="463.592" y="-14.3" font-family="Times,serif" font-size="14.00">ITF&#45;C_amplified_raw_signal</text>
</g>
<!-- goblin&#45;&gt;ITF&#45;C_amplified_raw_signal -->
<g id="edge32" class="edge"><title>goblin&#45;&gt;ITF&#45;C_amplified_raw_signal</title>
<path fill="none" stroke="black" d="M305.686,-73.6382C333.88,-63.0612 373.081,-48.9465 405.41,-37.7127"/>
<polygon fill="red" stroke="black" points="406.896,-40.9023 415.203,-34.326 404.608,-34.2867 406.896,-40.9023"/>
</g>
<!-- ITF&#45;E_signal_envelope -->
<g id="node18" class="node"><title>ITF&#45;E_signal_envelope</title>
<ellipse fill="yellow" stroke="black" cx="93.5917" cy="-18" rx="93.6835" ry="18"/>
<text text-anchor="middle" x="93.5917" y="-14.3" font-family="Times,serif" font-size="14.00">ITF&#45;E_signal_envelope</text>
</g>
<!-- goblin&#45;&gt;ITF&#45;E_signal_envelope -->
<g id="edge33" class="edge"><title>goblin&#45;&gt;ITF&#45;E_signal_envelope</title>
<path fill="none" stroke="black" d="M231.56,-76.3235C203.904,-65.8814 166.152,-50.8893 137.078,-38.856"/>
<polygon fill="red" stroke="black" points="138.155,-35.5131 127.578,-34.8995 135.464,-41.9751 138.155,-35.5131"/>
</g>
<!-- ITF&#45;mEG_SPI -->
<g id="node19" class="node"><title>ITF&#45;mEG_SPI</title>
<ellipse fill="green" stroke="black" cx="268.592" cy="-18" rx="63.0888" ry="18"/>
<text text-anchor="middle" x="268.592" y="-14.3" font-family="Times,serif" font-size="14.00">ITF&#45;mEG_SPI</text>
</g>
<!-- goblin&#45;&gt;ITF&#45;mEG_SPI -->
<g id="edge34" class="edge"><title>goblin&#45;&gt;ITF&#45;mEG_SPI</title>
<path fill="none" stroke="black" d="M268.592,-71.6966C268.592,-63.9827 268.592,-54.7125 268.592,-46.1124"/>
<polygon fill="red" stroke="black" points="272.092,-46.1043 268.592,-36.1043 265.092,-46.1044 272.092,-46.1043"/>
</g>
<!-- mogaba -->
<g id="node5" class="node"><title>mogaba</title>
<polygon fill="blue" stroke="black" points="653.092,-540 566.092,-540 566.092,-504 653.092,-504 653.092,-540"/>
<text text-anchor="middle" x="609.592" y="-516.4" font-family="Times,serif" font-size="22.00">mogaba</text>
</g>
<!-- ITF&#45;A_gnd -->
<g id="node6" class="node"><title>ITF&#45;A_gnd</title>
<ellipse fill="yellow" stroke="black" cx="327.592" cy="-450" rx="50.8918" ry="18"/>
<text text-anchor="middle" x="327.592" y="-446.3" font-family="Times,serif" font-size="14.00">ITF&#45;A_gnd</text>
</g>
<!-- mogaba&#45;&gt;ITF&#45;A_gnd -->
<g id="edge36" class="edge"><title>mogaba&#45;&gt;ITF&#45;A_gnd</title>
<path fill="none" stroke="black" d="M565.839,-510.139C514.971,-497.512 431.179,-476.713 377.73,-463.446"/>
<polygon fill="red" stroke="black" points="378.339,-459.991 367.791,-460.978 376.653,-466.785 378.339,-459.991"/>
</g>
<!-- ITF&#45;B_5v -->
<g id="node7" class="node"><title>ITF&#45;B_5v</title>
<ellipse fill="yellow" stroke="black" cx="609.592" cy="-450" rx="46.2923" ry="18"/>
<text text-anchor="middle" x="609.592" y="-446.3" font-family="Times,serif" font-size="14.00">ITF&#45;B_5v</text>
</g>
<!-- mogaba&#45;&gt;ITF&#45;B_5v -->
<g id="edge37" class="edge"><title>mogaba&#45;&gt;ITF&#45;B_5v</title>
<path fill="none" stroke="black" d="M609.592,-503.697C609.592,-495.983 609.592,-486.712 609.592,-478.112"/>
<polygon fill="red" stroke="black" points="613.092,-478.104 609.592,-468.104 606.092,-478.104 613.092,-478.104"/>
</g>
<!-- ITF&#45;S_3_3v -->
<g id="node10" class="node"><title>ITF&#45;S_3_3v</title>
<ellipse fill="yellow" stroke="black" cx="763.592" cy="-450" rx="53.8905" ry="18"/>
<text text-anchor="middle" x="763.592" y="-446.3" font-family="Times,serif" font-size="14.00">ITF&#45;S_3_3v</text>
</g>
<!-- mogaba&#45;&gt;ITF&#45;S_3_3v -->
<g id="edge38" class="edge"><title>mogaba&#45;&gt;ITF&#45;S_3_3v</title>
<path fill="none" stroke="black" d="M647.264,-503.876C670.43,-493.346 700.088,-479.865 723.659,-469.151"/>
<polygon fill="red" stroke="black" points="725.367,-472.219 733.022,-464.895 722.47,-465.847 725.367,-472.219"/>
</g>
<!-- ITF&#45;A_gnd&#45;&gt;tobo -->
<g id="edge1" class="edge"><title>ITF&#45;A_gnd&#45;&gt;tobo</title>
<path fill="none" stroke="black" d="M324.1,-431.65C318.677,-399.378 312.138,-329.631 346.592,-288 350.87,-282.831 428.251,-259.837 476.485,-245.889"/>
<polygon fill="black" stroke="black" points="477.659,-249.193 486.298,-243.06 475.72,-242.467 477.659,-249.193"/>
</g>
<!-- ITF&#45;A_gnd&#45;&gt;cletus -->
<g id="edge9" class="edge"><title>ITF&#45;A_gnd&#45;&gt;cletus</title>
<path fill="none" stroke="black" d="M314.774,-432.272C284.345,-390.421 214.372,-279.969 270.592,-216 311.714,-169.209 492.327,-206.735 548.592,-180 569.605,-170.015 566.673,-156.02 586.592,-144 621.508,-122.93 665.917,-108.891 698.417,-100.585"/>
<polygon fill="black" stroke="black" points="699.654,-103.885 708.523,-98.0888 697.975,-97.0893 699.654,-103.885"/>
</g>
<!-- ITF&#45;A_gnd&#45;&gt;oneeye -->
<g id="edge17" class="edge"><title>ITF&#45;A_gnd&#45;&gt;oneeye</title>
<path fill="none" stroke="black" d="M365.914,-438.139C408.673,-426.021 477.992,-406.377 524.889,-393.086"/>
<polygon fill="black" stroke="black" points="525.872,-396.445 534.539,-390.351 523.963,-389.71 525.872,-396.445"/>
</g>
<!-- ITF&#45;A_gnd&#45;&gt;goblin -->
<g id="edge24" class="edge"><title>ITF&#45;A_gnd&#45;&gt;goblin</title>
<path fill="none" stroke="black" d="M286.839,-439.286C259.756,-431.224 224.693,-417.532 199.592,-396 164.474,-365.877 145.592,-353.267 145.592,-307 145.592,-307 145.592,-307 145.592,-233 145.592,-192.031 144.108,-176.078 169.592,-144 182.974,-127.154 203.216,-114.983 221.916,-106.587"/>
<polygon fill="black" stroke="black" points="223.376,-109.77 231.222,-102.651 220.648,-103.323 223.376,-109.77"/>
</g>
<!-- ITF&#45;B_5v&#45;&gt;tobo -->
<g id="edge2" class="edge"><title>ITF&#45;B_5v&#45;&gt;tobo</title>
<path fill="none" stroke="black" d="M621.682,-432.411C642.666,-401.408 680.74,-333.691 649.592,-288 643.798,-279.501 590.402,-260.26 552.531,-247.451"/>
<polygon fill="black" stroke="black" points="553.389,-244.048 542.795,-244.184 551.162,-250.684 553.389,-244.048"/>
</g>
<!-- ITF&#45;B_5v&#45;&gt;cletus -->
<g id="edge10" class="edge"><title>ITF&#45;B_5v&#45;&gt;cletus</title>
<path fill="none" stroke="black" d="M628.793,-433.388C665.1,-402.729 743.657,-330.749 782.592,-252 804.128,-208.442 818.999,-188.547 799.592,-144 794.658,-132.677 785.981,-122.682 776.863,-114.512"/>
<polygon fill="black" stroke="black" points="779.09,-111.812 769.172,-108.088 774.603,-117.185 779.09,-111.812"/>
</g>
<!-- ITF&#45;B_5v&#45;&gt;oneeye -->
<g id="edge18" class="edge"><title>ITF&#45;B_5v&#45;&gt;oneeye</title>
<path fill="none" stroke="black" d="M601.119,-432.055C597.095,-424.007 592.194,-414.205 587.705,-405.226"/>
<polygon fill="black" stroke="black" points="590.832,-403.654 583.229,-396.275 584.571,-406.785 590.832,-403.654"/>
</g>
<!-- ITF&#45;B_5v&#45;&gt;goblin -->
<g id="edge25" class="edge"><title>ITF&#45;B_5v&#45;&gt;goblin</title>
<path fill="none" stroke="black" d="M574.103,-438.199C519.169,-420.359 411.834,-380.959 334.592,-324 271.261,-277.3 250.923,-256.275 231.592,-180 227.661,-164.49 226.791,-159.263 231.592,-144 234.69,-134.148 240.343,-124.53 246.313,-116.251"/>
<polygon fill="black" stroke="black" points="249.221,-118.211 252.555,-108.154 243.677,-113.937 249.221,-118.211"/>
</g>
<!-- ITF&#45;I_pulse_on&#45;&gt;tobo -->
<g id="edge3" class="edge"><title>ITF&#45;I_pulse_on&#45;&gt;tobo</title>
<path fill="none" stroke="black" d="M560.373,-288.411C553.117,-279.946 544.14,-269.472 536.062,-260.049"/>
<polygon fill="black" stroke="black" points="538.711,-257.762 529.546,-252.447 533.397,-262.317 538.711,-257.762"/>
</g>
<!-- ITF&#45;J_pulse_off&#45;&gt;tobo -->
<g id="edge4" class="edge"><title>ITF&#45;J_pulse_off&#45;&gt;tobo</title>
<path fill="none" stroke="black" d="M444.698,-288.765C456.413,-279.753 471.191,-268.385 484.138,-258.426"/>
<polygon fill="black" stroke="black" points="486.538,-260.995 492.331,-252.124 482.27,-255.447 486.538,-260.995"/>
</g>
<!-- ITF&#45;S_3_3v&#45;&gt;tobo -->
<g id="edge5" class="edge"><title>ITF&#45;S_3_3v&#45;&gt;tobo</title>
<path fill="none" stroke="black" d="M758.185,-431.99C746.961,-399.352 718.057,-327.668 669.592,-288 660.27,-280.371 595.402,-259.627 552.59,-246.469"/>
<polygon fill="black" stroke="black" points="553.345,-243.04 542.759,-243.461 551.297,-249.733 553.345,-243.04"/>
</g>
<!-- ITF&#45;S_3_3v&#45;&gt;cletus -->
<g id="edge12" class="edge"><title>ITF&#45;S_3_3v&#45;&gt;cletus</title>
<path fill="none" stroke="black" d="M796.573,-435.732C841.278,-415.311 915.592,-371.642 915.592,-307 915.592,-307 915.592,-307 915.592,-233 915.592,-192.031 919.404,-174.081 891.592,-144 864.481,-114.677 820.077,-101.566 786.782,-95.7099"/>
<polygon fill="black" stroke="black" points="787.266,-92.2428 776.838,-94.1156 786.158,-99.1546 787.266,-92.2428"/>
</g>
<!-- ITF&#45;S_3_3v&#45;&gt;oneeye -->
<g id="edge19" class="edge"><title>ITF&#45;S_3_3v&#45;&gt;oneeye</title>
<path fill="none" stroke="black" d="M728.926,-436.161C699.537,-425.276 657.032,-409.534 624.067,-397.324"/>
<polygon fill="black" stroke="black" points="625.198,-394.011 614.605,-393.82 622.767,-400.575 625.198,-394.011"/>
</g>
<!-- ITF&#45;S_3_3v&#45;&gt;goblin -->
<g id="edge27" class="edge"><title>ITF&#45;S_3_3v&#45;&gt;goblin</title>
<path fill="none" stroke="black" d="M779.339,-432.609C801.6,-407.639 839.592,-357.611 839.592,-307 839.592,-307 839.592,-307 839.592,-233 839.592,-186.027 822.589,-168.63 782.592,-144 705.169,-96.3229 428.076,-90.9195 316.071,-90.7358"/>
<polygon fill="black" stroke="black" points="315.76,-87.2359 305.759,-90.7331 315.759,-94.2359 315.76,-87.2359"/>
</g>
<!-- ITF&#45;R_reserved&#45;&gt;goblin -->
<g id="edge30" class="edge"><title>ITF&#45;R_reserved&#45;&gt;goblin</title>
<path fill="none" stroke="black" d="M304.972,-144.055C299.337,-135.837 292.448,-125.791 286.187,-116.66"/>
<polygon fill="black" stroke="black" points="288.979,-114.543 280.438,-108.275 283.206,-118.502 288.979,-114.543"/>
</g>
<!-- ITF&#45;mET_SMA&#45;&gt;goblin -->
<g id="edge31" class="edge"><title>ITF&#45;mET_SMA&#45;&gt;goblin</title>
<path fill="none" stroke="black" d="M430.683,-147.17C397.472,-135.662 350.145,-119.261 315.199,-107.151"/>
<polygon fill="black" stroke="black" points="316.288,-103.824 305.693,-103.857 313.996,-110.438 316.288,-103.824"/>
</g>
<!-- ITF&#45;mET_Transducer&#45;&gt;cletus -->
<g id="edge13" class="edge"><title>ITF&#45;mET_Transducer&#45;&gt;cletus</title>
<path fill="none" stroke="black" d="M692.754,-144.055C698.874,-135.583 707.3,-125.168 715.541,-115.815"/>
<polygon fill="black" stroke="black" points="718.25,-118.038 722.365,-108.275 713.06,-113.341 718.25,-118.038"/>
</g>
<!-- ITF&#45;N_cc_motor_pwm&#45;&gt;cletus -->
<g id="edge11" class="edge"><title>ITF&#45;N_cc_motor_pwm&#45;&gt;cletus</title>
<path fill="none" stroke="black" d="M731.722,-218.931C751.181,-210.871 771.28,-198.541 782.592,-180 795.139,-159.433 781.4,-134.25 766.709,-115.927"/>
<polygon fill="black" stroke="black" points="769.132,-113.375 759.983,-108.032 763.804,-117.914 769.132,-113.375"/>
</g>
<!-- ITF&#45;mET_Piezo&#45;&gt;cletus -->
<g id="edge14" class="edge"><title>ITF&#45;mET_Piezo&#45;&gt;cletus</title>
<path fill="none" stroke="black" d="M748.487,-36.1043C749.292,-43.7913 749.529,-53.0537 749.196,-61.6651"/>
<polygon fill="black" stroke="black" points="745.7,-61.4805 748.507,-71.6966 752.684,-61.9597 745.7,-61.4805"/>
</g>
<!-- ITF&#45;G_gain_control&#45;&gt;goblin -->
<g id="edge26" class="edge"><title>ITF&#45;G_gain_control&#45;&gt;goblin</title>
<path fill="none" stroke="black" d="M301.883,-221.551C278.677,-213.871 254.395,-201.116 240.592,-180 228.024,-160.775 237.969,-135.542 249.343,-116.855"/>
<polygon fill="black" stroke="black" points="252.417,-118.55 254.949,-108.262 246.554,-114.725 252.417,-118.55"/>
</g>
<!-- ITF&#45;C_amplified_raw_signal&#45;&gt;goblin -->
<g id="edge28" class="edge"><title>ITF&#45;C_amplified_raw_signal&#45;&gt;goblin</title>
<path fill="none" stroke="black" d="M424.716,-35.0292C393.249,-46.8074 348.949,-62.6928 315.518,-74.1769"/>
<polygon fill="black" stroke="black" points="314.291,-70.8974 305.958,-77.4409 316.553,-77.5219 314.291,-70.8974"/>
</g>
<!-- ITF&#45;E_signal_envelope&#45;&gt;goblin -->
<g id="edge29" class="edge"><title>ITF&#45;E_signal_envelope&#45;&gt;goblin</title>
<path fill="none" stroke="black" d="M136.867,-34.0456C162.828,-43.9425 195.757,-57.036 222.239,-67.9597"/>
<polygon fill="black" stroke="black" points="221.101,-71.2768 231.679,-71.8761 223.784,-64.8111 221.101,-71.2768"/>
</g>
<!-- ITF&#45;mEM_Alimentation -->
<g id="node20" class="node"><title>ITF&#45;mEM_Alimentation</title>
<ellipse fill="green" stroke="black" cx="609.592" cy="-594" rx="98.5829" ry="18"/>
<text text-anchor="middle" x="609.592" y="-590.3" font-family="Times,serif" font-size="14.00">ITF&#45;mEM_Alimentation</text>
</g>
<!-- ITF&#45;mEM_Alimentation&#45;&gt;mogaba -->
<g id="edge35" class="edge"><title>ITF&#45;mEM_Alimentation&#45;&gt;mogaba</title>
<path fill="none" stroke="black" d="M609.592,-575.697C609.592,-567.983 609.592,-558.712 609.592,-550.112"/>
<polygon fill="black" stroke="black" points="613.092,-550.104 609.592,-540.104 606.092,-550.104 613.092,-550.104"/>
</g>
</g>
</svg>
