<?xml version="1.0" encoding="UTF-8" standalone="no"?>
<!DOCTYPE svg PUBLIC "-//W3C//DTD SVG 1.1//EN"
 "http://www.w3.org/Graphics/SVG/1.1/DTD/svg11.dtd">
<!-- Generated by graphviz version 2.38.0 (20140413.2041)
 -->
<!-- Title: %3 Pages: 1 -->
<svg width="1016pt" height="476pt"
 viewBox="0.00 0.00 1016.33 476.00" xmlns="http://www.w3.org/2000/svg" xmlns:xlink="http://www.w3.org/1999/xlink">
<g id="graph0" class="graph" transform="scale(1 1) rotate(0) translate(4 472)">
<title>%3</title>
<polygon fill="white" stroke="none" points="-4,4 -4,-472 1012.33,-472 1012.33,4 -4,4"/>
<!-- tobo -->
<g id="node1" class="node"><title>tobo</title>
<polygon fill="blue" stroke="black" points="143.287,-108 89.2873,-108 89.2873,-72 143.287,-72 143.287,-108"/>
<text text-anchor="middle" x="116.287" y="-86.3" font-family="Times,serif" font-size="14.00">tobo</text>
</g>
<!-- ITF&#45;R_reserved -->
<g id="node10" class="node"><title>ITF&#45;R_reserved</title>
<ellipse fill="yellow" stroke="black" cx="116.287" cy="-18" rx="66.8882" ry="18"/>
<text text-anchor="middle" x="116.287" y="-14.3" font-family="Times,serif" font-size="14.00">ITF&#45;R_reserved</text>
</g>
<!-- tobo&#45;&gt;ITF&#45;R_reserved -->
<g id="edge6" class="edge"><title>tobo&#45;&gt;ITF&#45;R_reserved</title>
<path fill="none" stroke="black" d="M116.287,-71.6966C116.287,-63.9827 116.287,-54.7125 116.287,-46.1124"/>
<polygon fill="red" stroke="black" points="119.787,-46.1043 116.287,-36.1043 112.787,-46.1044 119.787,-46.1043"/>
</g>
<!-- oneeye -->
<g id="node2" class="node"><title>oneeye</title>
<polygon fill="blue" stroke="black" points="452.787,-252 397.787,-252 397.787,-216 452.787,-216 452.787,-252"/>
<text text-anchor="middle" x="425.287" y="-230.3" font-family="Times,serif" font-size="14.00">oneeye</text>
</g>
<!-- ITF&#45;I_pulse_on -->
<g id="node7" class="node"><title>ITF&#45;I_pulse_on</title>
<ellipse fill="yellow" stroke="black" cx="306.287" cy="-162" rx="65.7887" ry="18"/>
<text text-anchor="middle" x="306.287" y="-158.3" font-family="Times,serif" font-size="14.00">ITF&#45;I_pulse_on</text>
</g>
<!-- oneeye&#45;&gt;ITF&#45;I_pulse_on -->
<g id="edge11" class="edge"><title>oneeye&#45;&gt;ITF&#45;I_pulse_on</title>
<path fill="none" stroke="black" d="M397.687,-216.765C381.082,-206.997 359.771,-194.461 341.905,-183.952"/>
<polygon fill="red" stroke="black" points="343.313,-180.719 332.919,-178.666 339.764,-186.753 343.313,-180.719"/>
</g>
<!-- ITF&#45;J_pulse_off -->
<g id="node8" class="node"><title>ITF&#45;J_pulse_off</title>
<ellipse fill="yellow" stroke="black" cx="116.287" cy="-162" rx="67.6881" ry="18"/>
<text text-anchor="middle" x="116.287" y="-158.3" font-family="Times,serif" font-size="14.00">ITF&#45;J_pulse_off</text>
</g>
<!-- oneeye&#45;&gt;ITF&#45;J_pulse_off -->
<g id="edge12" class="edge"><title>oneeye&#45;&gt;ITF&#45;J_pulse_off</title>
<path fill="none" stroke="black" d="M397.594,-226.726C347.926,-215.475 242.674,-191.631 175.936,-176.513"/>
<polygon fill="red" stroke="black" points="176.502,-173.052 165.975,-174.256 174.955,-179.879 176.502,-173.052"/>
</g>
<!-- ITF&#45;G_gain_control -->
<g id="node11" class="node"><title>ITF&#45;G_gain_control</title>
<ellipse fill="yellow" stroke="black" cx="715.287" cy="-162" rx="81.7856" ry="18"/>
<text text-anchor="middle" x="715.287" y="-158.3" font-family="Times,serif" font-size="14.00">ITF&#45;G_gain_control</text>
</g>
<!-- oneeye&#45;&gt;ITF&#45;G_gain_control -->
<g id="edge10" class="edge"><title>oneeye&#45;&gt;ITF&#45;G_gain_control</title>
<path fill="none" stroke="black" d="M452.831,-226.351C498.3,-215.376 590.197,-193.194 652.258,-178.214"/>
<polygon fill="red" stroke="black" points="653.433,-181.531 662.332,-175.782 651.79,-174.726 653.433,-181.531"/>
</g>
<!-- ITF&#45;N_cc_motor_pwm -->
<g id="node12" class="node"><title>ITF&#45;N_cc_motor_pwm</title>
<ellipse fill="yellow" stroke="black" cx="483.287" cy="-162" rx="93.6835" ry="18"/>
<text text-anchor="middle" x="483.287" y="-158.3" font-family="Times,serif" font-size="14.00">ITF&#45;N_cc_motor_pwm</text>
</g>
<!-- oneeye&#45;&gt;ITF&#45;N_cc_motor_pwm -->
<g id="edge13" class="edge"><title>oneeye&#45;&gt;ITF&#45;N_cc_motor_pwm</title>
<path fill="none" stroke="black" d="M439.624,-215.697C446.578,-207.305 455.058,-197.07 462.688,-187.861"/>
<polygon fill="red" stroke="black" points="465.43,-190.038 469.115,-180.104 460.04,-185.571 465.43,-190.038"/>
</g>
<!-- goblin -->
<g id="node3" class="node"><title>goblin</title>
<polygon fill="blue" stroke="black" points="797.287,-108 743.287,-108 743.287,-72 797.287,-72 797.287,-108"/>
<text text-anchor="middle" x="770.287" y="-86.3" font-family="Times,serif" font-size="14.00">goblin</text>
</g>
<!-- ITF&#45;C_amplified_raw_signal -->
<g id="node13" class="node"><title>ITF&#45;C_amplified_raw_signal</title>
<ellipse fill="yellow" stroke="black" cx="544.287" cy="-18" rx="114.28" ry="18"/>
<text text-anchor="middle" x="544.287" y="-14.3" font-family="Times,serif" font-size="14.00">ITF&#45;C_amplified_raw_signal</text>
</g>
<!-- goblin&#45;&gt;ITF&#45;C_amplified_raw_signal -->
<g id="edge18" class="edge"><title>goblin&#45;&gt;ITF&#45;C_amplified_raw_signal</title>
<path fill="none" stroke="black" d="M743.026,-80.5564C708.683,-69.9189 648.706,-51.342 603.599,-37.3707"/>
<polygon fill="red" stroke="black" points="604.513,-33.9901 593.925,-34.3747 602.442,-40.6767 604.513,-33.9901"/>
</g>
<!-- ITF&#45;E_signal_envelope -->
<g id="node14" class="node"><title>ITF&#45;E_signal_envelope</title>
<ellipse fill="yellow" stroke="black" cx="770.287" cy="-18" rx="93.6835" ry="18"/>
<text text-anchor="middle" x="770.287" y="-14.3" font-family="Times,serif" font-size="14.00">ITF&#45;E_signal_envelope</text>
</g>
<!-- goblin&#45;&gt;ITF&#45;E_signal_envelope -->
<g id="edge19" class="edge"><title>goblin&#45;&gt;ITF&#45;E_signal_envelope</title>
<path fill="none" stroke="black" d="M770.287,-71.6966C770.287,-63.9827 770.287,-54.7125 770.287,-46.1124"/>
<polygon fill="red" stroke="black" points="773.787,-46.1043 770.287,-36.1043 766.787,-46.1044 773.787,-46.1043"/>
</g>
<!-- ITF&#45;mEG_SPI -->
<g id="node15" class="node"><title>ITF&#45;mEG_SPI</title>
<ellipse fill="yellow" stroke="black" cx="945.287" cy="-18" rx="63.0888" ry="18"/>
<text text-anchor="middle" x="945.287" y="-14.3" font-family="Times,serif" font-size="14.00">ITF&#45;mEG_SPI</text>
</g>
<!-- goblin&#45;&gt;ITF&#45;mEG_SPI -->
<g id="edge20" class="edge"><title>goblin&#45;&gt;ITF&#45;mEG_SPI</title>
<path fill="none" stroke="black" d="M797.631,-78.0625C825.279,-67.0033 868.458,-49.7317 900.995,-36.717"/>
<polygon fill="red" stroke="black" points="902.309,-39.9609 910.294,-32.9973 899.709,-33.4616 902.309,-39.9609"/>
</g>
<!-- mogaba -->
<g id="node4" class="node"><title>mogaba</title>
<polygon fill="blue" stroke="black" points="455.287,-396 395.287,-396 395.287,-360 455.287,-360 455.287,-396"/>
<text text-anchor="middle" x="425.287" y="-374.3" font-family="Times,serif" font-size="14.00">mogaba</text>
</g>
<!-- ITF&#45;A_gnd -->
<g id="node5" class="node"><title>ITF&#45;A_gnd</title>
<ellipse fill="yellow" stroke="black" cx="232.287" cy="-306" rx="50.8918" ry="18"/>
<text text-anchor="middle" x="232.287" y="-302.3" font-family="Times,serif" font-size="14.00">ITF&#45;A_gnd</text>
</g>
<!-- mogaba&#45;&gt;ITF&#45;A_gnd -->
<g id="edge22" class="edge"><title>mogaba&#45;&gt;ITF&#45;A_gnd</title>
<path fill="none" stroke="black" d="M395.131,-366.062C363.249,-354.499 312.64,-336.143 276.302,-322.964"/>
<polygon fill="red" stroke="black" points="277.053,-319.513 266.458,-319.394 274.666,-326.094 277.053,-319.513"/>
</g>
<!-- ITF&#45;B_5v -->
<g id="node6" class="node"><title>ITF&#45;B_5v</title>
<ellipse fill="yellow" stroke="black" cx="425.287" cy="-306" rx="46.2923" ry="18"/>
<text text-anchor="middle" x="425.287" y="-302.3" font-family="Times,serif" font-size="14.00">ITF&#45;B_5v</text>
</g>
<!-- mogaba&#45;&gt;ITF&#45;B_5v -->
<g id="edge23" class="edge"><title>mogaba&#45;&gt;ITF&#45;B_5v</title>
<path fill="none" stroke="black" d="M425.287,-359.697C425.287,-351.983 425.287,-342.712 425.287,-334.112"/>
<polygon fill="red" stroke="black" points="428.787,-334.104 425.287,-324.104 421.787,-334.104 428.787,-334.104"/>
</g>
<!-- ITF&#45;S_3_3v -->
<g id="node9" class="node"><title>ITF&#45;S_3_3v</title>
<ellipse fill="yellow" stroke="black" cx="564.287" cy="-306" rx="53.8905" ry="18"/>
<text text-anchor="middle" x="564.287" y="-302.3" font-family="Times,serif" font-size="14.00">ITF&#45;S_3_3v</text>
</g>
<!-- mogaba&#45;&gt;ITF&#45;S_3_3v -->
<g id="edge24" class="edge"><title>mogaba&#45;&gt;ITF&#45;S_3_3v</title>
<path fill="none" stroke="black" d="M455.448,-361.811C476.268,-351.326 504.111,-337.305 526.423,-326.068"/>
<polygon fill="red" stroke="black" points="528.253,-329.066 535.61,-321.442 525.105,-322.814 528.253,-329.066"/>
</g>
<!-- ITF&#45;A_gnd&#45;&gt;tobo -->
<g id="edge1" class="edge"><title>ITF&#45;A_gnd&#45;&gt;tobo</title>
<path fill="none" stroke="black" d="M190.699,-295.677C137.119,-281.184 46.1432,-247.59 6.28734,-180 -1.83967,-166.218 -2.22384,-157.548 6.28734,-144 22.2153,-118.645 54.0545,-105.135 79.3977,-98.117"/>
<polygon fill="black" stroke="black" points="80.2642,-101.508 89.0942,-95.6531 78.5402,-94.7238 80.2642,-101.508"/>
</g>
<!-- ITF&#45;A_gnd&#45;&gt;oneeye -->
<g id="edge7" class="edge"><title>ITF&#45;A_gnd&#45;&gt;oneeye</title>
<path fill="none" stroke="black" d="M266.348,-292.647C300.474,-280.269 352.857,-261.27 388.061,-248.502"/>
<polygon fill="black" stroke="black" points="389.299,-251.776 397.506,-245.076 386.912,-245.196 389.299,-251.776"/>
</g>
<!-- ITF&#45;A_gnd&#45;&gt;goblin -->
<g id="edge14" class="edge"><title>ITF&#45;A_gnd&#45;&gt;goblin</title>
<path fill="none" stroke="black" d="M225.642,-288.062C214.121,-255.55 194.962,-184.073 231.287,-144 264.93,-106.886 616.042,-94.8362 732.781,-91.8396"/>
<polygon fill="black" stroke="black" points="733.103,-95.3328 743.012,-91.585 732.928,-88.335 733.103,-95.3328"/>
</g>
<!-- ITF&#45;B_5v&#45;&gt;tobo -->
<g id="edge2" class="edge"><title>ITF&#45;B_5v&#45;&gt;tobo</title>
<path fill="none" stroke="black" d="M383.904,-297.85C293.009,-281.217 80.719,-236.967 39.2873,-180 29.8764,-167.06 31.8425,-158.162 39.2873,-144 47.9985,-127.429 64.4944,-115.03 79.9902,-106.408"/>
<polygon fill="black" stroke="black" points="81.6699,-109.48 88.932,-101.766 78.4441,-103.268 81.6699,-109.48"/>
</g>
<!-- ITF&#45;B_5v&#45;&gt;oneeye -->
<g id="edge8" class="edge"><title>ITF&#45;B_5v&#45;&gt;oneeye</title>
<path fill="none" stroke="black" d="M425.287,-287.697C425.287,-279.983 425.287,-270.712 425.287,-262.112"/>
<polygon fill="black" stroke="black" points="428.787,-262.104 425.287,-252.104 421.787,-262.104 428.787,-262.104"/>
</g>
<!-- ITF&#45;B_5v&#45;&gt;goblin -->
<g id="edge15" class="edge"><title>ITF&#45;B_5v&#45;&gt;goblin</title>
<path fill="none" stroke="black" d="M462.806,-295.359C554.761,-271.363 785.409,-208.823 806.287,-180 820.341,-160.599 807.266,-134.928 793.095,-116.144"/>
<polygon fill="black" stroke="black" points="795.797,-113.919 786.816,-108.3 790.332,-118.294 795.797,-113.919"/>
</g>
<!-- ITF&#45;I_pulse_on&#45;&gt;tobo -->
<g id="edge3" class="edge"><title>ITF&#45;I_pulse_on&#45;&gt;tobo</title>
<path fill="none" stroke="black" d="M268.749,-147.17C235.23,-134.821 186.424,-116.84 153.121,-104.57"/>
<polygon fill="black" stroke="black" points="153.911,-101.131 143.317,-100.958 151.491,-107.7 153.911,-101.131"/>
</g>
<!-- ITF&#45;J_pulse_off&#45;&gt;tobo -->
<g id="edge4" class="edge"><title>ITF&#45;J_pulse_off&#45;&gt;tobo</title>
<path fill="none" stroke="black" d="M116.287,-143.697C116.287,-135.983 116.287,-126.712 116.287,-118.112"/>
<polygon fill="black" stroke="black" points="119.787,-118.104 116.287,-108.104 112.787,-118.104 119.787,-118.104"/>
</g>
<!-- ITF&#45;S_3_3v&#45;&gt;tobo -->
<g id="edge5" class="edge"><title>ITF&#45;S_3_3v&#45;&gt;tobo</title>
<path fill="none" stroke="black" d="M574.085,-288.175C591.478,-255.859 622.66,-184.705 586.287,-144 557.558,-111.848 259.592,-96.7779 153.521,-92.4027"/>
<polygon fill="black" stroke="black" points="153.424,-88.896 143.291,-91.9895 153.141,-95.8903 153.424,-88.896"/>
</g>
<!-- ITF&#45;S_3_3v&#45;&gt;oneeye -->
<g id="edge9" class="edge"><title>ITF&#45;S_3_3v&#45;&gt;oneeye</title>
<path fill="none" stroke="black" d="M535.823,-290.666C514.601,-279.978 485.427,-265.286 462.379,-253.679"/>
<polygon fill="black" stroke="black" points="463.744,-250.448 453.238,-249.076 460.596,-256.7 463.744,-250.448"/>
</g>
<!-- ITF&#45;S_3_3v&#45;&gt;goblin -->
<g id="edge17" class="edge"><title>ITF&#45;S_3_3v&#45;&gt;goblin</title>
<path fill="none" stroke="black" d="M617.343,-302.55C689.203,-297.993 811.697,-285.416 839.287,-252 869.849,-214.986 860.507,-187.055 839.287,-144 832.18,-129.579 819.055,-117.987 806.145,-109.366"/>
<polygon fill="black" stroke="black" points="807.658,-106.185 797.318,-103.873 803.959,-112.128 807.658,-106.185"/>
</g>
<!-- ITF&#45;G_gain_control&#45;&gt;goblin -->
<g id="edge16" class="edge"><title>ITF&#45;G_gain_control&#45;&gt;goblin</title>
<path fill="none" stroke="black" d="M728.601,-144.055C735.125,-135.753 743.114,-125.584 750.348,-116.378"/>
<polygon fill="black" stroke="black" points="753.288,-118.301 756.714,-108.275 747.784,-113.976 753.288,-118.301"/>
</g>
<!-- ITF&#45;mEM_Alimentation -->
<g id="node16" class="node"><title>ITF&#45;mEM_Alimentation</title>
<ellipse fill="yellow" stroke="black" cx="425.287" cy="-450" rx="98.5829" ry="18"/>
<text text-anchor="middle" x="425.287" y="-446.3" font-family="Times,serif" font-size="14.00">ITF&#45;mEM_Alimentation</text>
</g>
<!-- ITF&#45;mEM_Alimentation&#45;&gt;mogaba -->
<g id="edge21" class="edge"><title>ITF&#45;mEM_Alimentation&#45;&gt;mogaba</title>
<path fill="none" stroke="black" d="M425.287,-431.697C425.287,-423.983 425.287,-414.712 425.287,-406.112"/>
<polygon fill="black" stroke="black" points="428.787,-406.104 425.287,-396.104 421.787,-406.104 428.787,-406.104"/>
</g>
</g>
</svg>
