<?xml version="1.0" encoding="UTF-8" standalone="no"?>
<!DOCTYPE svg PUBLIC "-//W3C//DTD SVG 1.1//EN"
 "http://www.w3.org/Graphics/SVG/1.1/DTD/svg11.dtd">
<!-- Generated by graphviz version 2.38.0 (20140413.2041)
 -->
<!-- Title: %3 Pages: 1 -->
<svg width="1356pt" height="764pt"
 viewBox="0.00 0.00 1356.00 764.00" xmlns="http://www.w3.org/2000/svg" xmlns:xlink="http://www.w3.org/1999/xlink">
<g id="graph0" class="graph" transform="scale(1 1) rotate(0) translate(4 760)">
<title>%3</title>
<polygon fill="white" stroke="none" points="-4,4 -4,-760 1352,-760 1352,4 -4,4"/>
<!-- sleepy -->
<g id="node1" class="node"><title>sleepy</title>
<polygon fill="blue" stroke="black" points="528.5,-756 455.5,-756 455.5,-720 528.5,-720 528.5,-756"/>
<text text-anchor="middle" x="492" y="-732.4" font-family="Times,serif" font-size="22.00">sleepy</text>
</g>
<!-- tobo -->
<g id="node2" class="node"><title>tobo</title>
<polygon fill="blue" stroke="black" points="623,-396 567,-396 567,-360 623,-360 623,-396"/>
<text text-anchor="middle" x="595" y="-372.4" font-family="Times,serif" font-size="22.00">tobo</text>
</g>
<!-- ITF&#45;mET_Transducer -->
<g id="node13" class="node"><title>ITF&#45;mET_Transducer</title>
<ellipse fill="green" stroke="black" cx="307" cy="-306" rx="89.0842" ry="18"/>
<text text-anchor="middle" x="307" y="-302.3" font-family="Times,serif" font-size="14.00">ITF&#45;mET_Transducer</text>
</g>
<!-- tobo&#45;&gt;ITF&#45;mET_Transducer -->
<g id="edge9" class="edge"><title>tobo&#45;&gt;ITF&#45;mET_Transducer</title>
<path fill="none" stroke="black" d="M566.699,-366.992C560.842,-364.454 554.772,-361.909 549,-360 494.522,-341.983 431.305,-328.677 383.091,-319.904"/>
<polygon fill="red" stroke="black" points="383.5,-316.421 373.039,-318.1 382.264,-323.311 383.5,-316.421"/>
</g>
<!-- ITF&#45;R_reserved -->
<g id="node14" class="node"><title>ITF&#45;R_reserved</title>
<ellipse fill="yellow" stroke="black" cx="813" cy="-306" rx="66.8882" ry="18"/>
<text text-anchor="middle" x="813" y="-302.3" font-family="Times,serif" font-size="14.00">ITF&#45;R_reserved</text>
</g>
<!-- tobo&#45;&gt;ITF&#45;R_reserved -->
<g id="edge7" class="edge"><title>tobo&#45;&gt;ITF&#45;R_reserved</title>
<path fill="none" stroke="black" d="M623.053,-367.992C658.047,-356.756 718.539,-337.331 761.861,-323.421"/>
<polygon fill="red" stroke="black" points="763.2,-326.667 771.651,-320.277 761.06,-320.002 763.2,-326.667"/>
</g>
<!-- ITF&#45;mET_SMA -->
<g id="node15" class="node"><title>ITF&#45;mET_SMA</title>
<ellipse fill="green" stroke="black" cx="967" cy="-306" rx="68.7879" ry="18"/>
<text text-anchor="middle" x="967" y="-302.3" font-family="Times,serif" font-size="14.00">ITF&#45;mET_SMA</text>
</g>
<!-- tobo&#45;&gt;ITF&#45;mET_SMA -->
<g id="edge8" class="edge"><title>tobo&#45;&gt;ITF&#45;mET_SMA</title>
<path fill="none" stroke="black" d="M623.034,-372.294C675.4,-363.427 791.59,-343.389 889,-324 894.66,-322.873 900.543,-321.663 906.426,-320.427"/>
<polygon fill="red" stroke="black" points="907.233,-323.834 916.287,-318.332 905.778,-316.987 907.233,-323.834"/>
</g>
<!-- cletus -->
<g id="node3" class="node"><title>cletus</title>
<polygon fill="blue" stroke="black" points="287,-252 219,-252 219,-216 287,-216 287,-252"/>
<text text-anchor="middle" x="253" y="-228.4" font-family="Times,serif" font-size="22.00">cletus</text>
</g>
<!-- cletus&#45;&gt;ITF&#45;mET_Transducer -->
<g id="edge17" class="edge"><title>cletus&#45;&gt;ITF&#45;mET_Transducer</title>
<path fill="none" stroke="black" d="M272.239,-252.275C279.471,-260.541 287.43,-270.599 294.001,-279.705"/>
<polygon fill="red" stroke="black" points="291.224,-281.843 299.806,-288.055 296.971,-277.846 291.224,-281.843"/>
</g>
<!-- ITF&#45;mET_Piezo -->
<g id="node17" class="node"><title>ITF&#45;mET_Piezo</title>
<ellipse fill="green" stroke="black" cx="253" cy="-162" rx="68.7879" ry="18"/>
<text text-anchor="middle" x="253" y="-158.3" font-family="Times,serif" font-size="14.00">ITF&#45;mET_Piezo</text>
</g>
<!-- cletus&#45;&gt;ITF&#45;mET_Piezo -->
<g id="edge16" class="edge"><title>cletus&#45;&gt;ITF&#45;mET_Piezo</title>
<path fill="none" stroke="black" d="M247.084,-215.697C246.289,-207.983 246.062,-198.712 246.405,-190.112"/>
<polygon fill="red" stroke="black" points="249.898,-190.324 247.105,-180.104 242.915,-189.836 249.898,-190.324"/>
</g>
<!-- oneeye -->
<g id="node4" class="node"><title>oneeye</title>
<polygon fill="blue" stroke="black" points="368,-540 288,-540 288,-504 368,-504 368,-540"/>
<text text-anchor="middle" x="328" y="-516.4" font-family="Times,serif" font-size="22.00">oneeye</text>
</g>
<!-- ITF&#45;I_pulse_on -->
<g id="node10" class="node"><title>ITF&#45;I_pulse_on</title>
<ellipse fill="yellow" stroke="black" cx="360" cy="-450" rx="65.7887" ry="18"/>
<text text-anchor="middle" x="360" y="-446.3" font-family="Times,serif" font-size="14.00">ITF&#45;I_pulse_on</text>
</g>
<!-- oneeye&#45;&gt;ITF&#45;I_pulse_on -->
<g id="edge22" class="edge"><title>oneeye&#45;&gt;ITF&#45;I_pulse_on</title>
<path fill="none" stroke="black" d="M335.91,-503.697C339.553,-495.728 343.954,-486.1 347.994,-477.264"/>
<polygon fill="red" stroke="black" points="351.206,-478.654 352.181,-468.104 344.84,-475.744 351.206,-478.654"/>
</g>
<!-- ITF&#45;J_pulse_off -->
<g id="node11" class="node"><title>ITF&#45;J_pulse_off</title>
<ellipse fill="yellow" stroke="black" cx="511" cy="-450" rx="67.6881" ry="18"/>
<text text-anchor="middle" x="511" y="-446.3" font-family="Times,serif" font-size="14.00">ITF&#45;J_pulse_off</text>
</g>
<!-- oneeye&#45;&gt;ITF&#45;J_pulse_off -->
<g id="edge23" class="edge"><title>oneeye&#45;&gt;ITF&#45;J_pulse_off</title>
<path fill="none" stroke="black" d="M368.16,-505.638C396.642,-494.744 434.936,-480.096 464.704,-468.709"/>
<polygon fill="red" stroke="black" points="465.957,-471.977 474.046,-465.135 463.456,-465.439 465.957,-471.977"/>
</g>
<!-- ITF&#45;N_cc_motor_pwm -->
<g id="node16" class="node"><title>ITF&#45;N_cc_motor_pwm</title>
<ellipse fill="yellow" stroke="black" cx="274" cy="-378" rx="93.6835" ry="18"/>
<text text-anchor="middle" x="274" y="-374.3" font-family="Times,serif" font-size="14.00">ITF&#45;N_cc_motor_pwm</text>
</g>
<!-- oneeye&#45;&gt;ITF&#45;N_cc_motor_pwm -->
<g id="edge24" class="edge"><title>oneeye&#45;&gt;ITF&#45;N_cc_motor_pwm</title>
<path fill="none" stroke="black" d="M289.224,-503.783C274.819,-495.242 260.037,-483.402 252,-468 241.655,-448.173 249.293,-423.299 258.29,-404.892"/>
<polygon fill="red" stroke="black" points="261.456,-406.393 263.031,-395.916 255.266,-403.124 261.456,-406.393"/>
</g>
<!-- ITF&#45;G_gain_control -->
<g id="node18" class="node"><title>ITF&#45;G_gain_control</title>
<ellipse fill="yellow" stroke="black" cx="467" cy="-378" rx="81.7856" ry="18"/>
<text text-anchor="middle" x="467" y="-374.3" font-family="Times,serif" font-size="14.00">ITF&#45;G_gain_control</text>
</g>
<!-- oneeye&#45;&gt;ITF&#45;G_gain_control -->
<g id="edge21" class="edge"><title>oneeye&#45;&gt;ITF&#45;G_gain_control</title>
<path fill="none" stroke="black" d="M309.121,-503.843C290.782,-485.074 268.007,-454.648 285,-432 292.368,-422.18 352.983,-405.801 402.267,-393.845"/>
<polygon fill="red" stroke="black" points="403.366,-397.181 412.271,-391.441 401.73,-390.375 403.366,-397.181"/>
</g>
<!-- croaker -->
<g id="node5" class="node"><title>croaker</title>
<polygon fill="blue" stroke="black" points="450.5,-108 367.5,-108 367.5,-72 450.5,-72 450.5,-108"/>
<text text-anchor="middle" x="409" y="-84.4" font-family="Times,serif" font-size="22.00">croaker</text>
</g>
<!-- Screen -->
<g id="node20" class="node"><title>Screen</title>
<ellipse fill="yellow" stroke="black" cx="368" cy="-18" rx="34.394" ry="18"/>
<text text-anchor="middle" x="368" y="-14.3" font-family="Times,serif" font-size="14.00">Screen</text>
</g>
<!-- croaker&#45;&gt;Screen -->
<g id="edge28" class="edge"><title>croaker&#45;&gt;Screen</title>
<path fill="none" stroke="black" d="M398.865,-71.6966C394.028,-63.4374 388.145,-53.394 382.818,-44.2994"/>
<polygon fill="red" stroke="black" points="385.81,-42.4822 377.736,-35.6223 379.77,-46.0201 385.81,-42.4822"/>
</g>
<!-- WiFi -->
<g id="node21" class="node"><title>WiFi</title>
<ellipse fill="yellow" stroke="black" cx="450" cy="-18" rx="29.4969" ry="18"/>
<text text-anchor="middle" x="450" y="-14.3" font-family="Times,serif" font-size="14.00">WiFi</text>
</g>
<!-- croaker&#45;&gt;WiFi -->
<g id="edge29" class="edge"><title>croaker&#45;&gt;WiFi</title>
<path fill="none" stroke="black" d="M419.135,-71.6966C424.044,-63.316 430.028,-53.0983 435.416,-43.8988"/>
<polygon fill="red" stroke="black" points="438.51,-45.5423 440.544,-35.1446 432.47,-42.0045 438.51,-45.5423"/>
</g>
<!-- goblin -->
<g id="node6" class="node"><title>goblin</title>
<polygon fill="blue" stroke="black" points="700,-252 626,-252 626,-216 700,-216 700,-252"/>
<text text-anchor="middle" x="663" y="-228.4" font-family="Times,serif" font-size="22.00">goblin</text>
</g>
<!-- ITF&#45;mEG_SPI -->
<g id="node19" class="node"><title>ITF&#45;mEG_SPI</title>
<ellipse fill="green" stroke="black" cx="409" cy="-162" rx="63.0888" ry="18"/>
<text text-anchor="middle" x="409" y="-158.3" font-family="Times,serif" font-size="14.00">ITF&#45;mEG_SPI</text>
</g>
<!-- goblin&#45;&gt;ITF&#45;mEG_SPI -->
<g id="edge43" class="edge"><title>goblin&#45;&gt;ITF&#45;mEG_SPI</title>
<path fill="none" stroke="black" d="M625.794,-222.746C582.737,-210.88 511.487,-191.245 462.494,-177.742"/>
<polygon fill="red" stroke="black" points="463.272,-174.326 452.701,-175.044 461.412,-181.075 463.272,-174.326"/>
</g>
<!-- ITF&#45;C_amplified_raw_signal -->
<g id="node23" class="node"><title>ITF&#45;C_amplified_raw_signal</title>
<ellipse fill="yellow" stroke="black" cx="921" cy="-162" rx="114.28" ry="18"/>
<text text-anchor="middle" x="921" y="-158.3" font-family="Times,serif" font-size="14.00">ITF&#45;C_amplified_raw_signal</text>
</g>
<!-- goblin&#45;&gt;ITF&#45;C_amplified_raw_signal -->
<g id="edge40" class="edge"><title>goblin&#45;&gt;ITF&#45;C_amplified_raw_signal</title>
<path fill="none" stroke="black" d="M700.161,-221.519C739.779,-210.27 803.226,-192.989 852.011,-180.118"/>
<polygon fill="red" stroke="black" points="853.092,-183.453 861.872,-177.524 851.311,-176.683 853.092,-183.453"/>
</g>
<!-- ITF&#45;E_signal_envelope -->
<g id="node24" class="node"><title>ITF&#45;E_signal_envelope</title>
<ellipse fill="yellow" stroke="black" cx="584" cy="-162" rx="93.6835" ry="18"/>
<text text-anchor="middle" x="584" y="-158.3" font-family="Times,serif" font-size="14.00">ITF&#45;E_signal_envelope</text>
</g>
<!-- goblin&#45;&gt;ITF&#45;E_signal_envelope -->
<g id="edge42" class="edge"><title>goblin&#45;&gt;ITF&#45;E_signal_envelope</title>
<path fill="none" stroke="black" d="M637.556,-215.697C626.906,-207.05 614.765,-196.449 604.67,-187.027"/>
<polygon fill="red" stroke="black" points="607.062,-184.471 597.408,-180.104 602.231,-189.538 607.062,-184.471"/>
</g>
<!-- ADL5511 -->
<g id="node26" class="node"><title>ADL5511</title>
<ellipse fill="yellow" stroke="black" cx="742" cy="-162" rx="46.2923" ry="18"/>
<text text-anchor="middle" x="742" y="-158.3" font-family="Times,serif" font-size="14.00">ADL5511</text>
</g>
<!-- goblin&#45;&gt;ADL5511 -->
<g id="edge41" class="edge"><title>goblin&#45;&gt;ADL5511</title>
<path fill="none" stroke="black" d="M682.528,-215.697C692.823,-206.575 705.574,-195.276 716.626,-185.483"/>
<polygon fill="red" stroke="black" points="719.151,-187.923 724.314,-178.671 714.508,-182.684 719.151,-187.923"/>
</g>
<!-- mogaba -->
<g id="node7" class="node"><title>mogaba</title>
<polygon fill="blue" stroke="black" points="688.5,-684 601.5,-684 601.5,-648 688.5,-648 688.5,-684"/>
<text text-anchor="middle" x="645" y="-660.4" font-family="Times,serif" font-size="22.00">mogaba</text>
</g>
<!-- ITF&#45;A_gnd -->
<g id="node8" class="node"><title>ITF&#45;A_gnd</title>
<ellipse fill="yellow" stroke="black" cx="645" cy="-594" rx="50.8918" ry="18"/>
<text text-anchor="middle" x="645" y="-590.3" font-family="Times,serif" font-size="14.00">ITF&#45;A_gnd</text>
</g>
<!-- mogaba&#45;&gt;ITF&#45;A_gnd -->
<g id="edge46" class="edge"><title>mogaba&#45;&gt;ITF&#45;A_gnd</title>
<path fill="none" stroke="black" d="M645,-647.697C645,-639.983 645,-630.712 645,-622.112"/>
<polygon fill="red" stroke="black" points="648.5,-622.104 645,-612.104 641.5,-622.104 648.5,-622.104"/>
</g>
<!-- ITF&#45;B_5v -->
<g id="node9" class="node"><title>ITF&#45;B_5v</title>
<ellipse fill="yellow" stroke="black" cx="133" cy="-594" rx="46.2923" ry="18"/>
<text text-anchor="middle" x="133" y="-590.3" font-family="Times,serif" font-size="14.00">ITF&#45;B_5v</text>
</g>
<!-- mogaba&#45;&gt;ITF&#45;B_5v -->
<g id="edge47" class="edge"><title>mogaba&#45;&gt;ITF&#45;B_5v</title>
<path fill="none" stroke="black" d="M601.347,-659.032C507.594,-646.214 287.294,-616.095 185.842,-602.225"/>
<polygon fill="red" stroke="black" points="186.202,-598.741 175.82,-600.854 185.254,-605.677 186.202,-598.741"/>
</g>
<!-- ITF&#45;S_3_3v -->
<g id="node12" class="node"><title>ITF&#45;S_3_3v</title>
<ellipse fill="yellow" stroke="black" cx="328" cy="-594" rx="53.8905" ry="18"/>
<text text-anchor="middle" x="328" y="-590.3" font-family="Times,serif" font-size="14.00">ITF&#45;S_3_3v</text>
</g>
<!-- mogaba&#45;&gt;ITF&#45;S_3_3v -->
<g id="edge49" class="edge"><title>mogaba&#45;&gt;ITF&#45;S_3_3v</title>
<path fill="none" stroke="black" d="M601.255,-655.34C543.979,-642.692 443.61,-620.529 381.762,-606.872"/>
<polygon fill="red" stroke="black" points="382.324,-603.412 371.804,-604.673 380.814,-610.247 382.324,-603.412"/>
</g>
<!-- ITF&#45;F_12V -->
<g id="node28" class="node"><title>ITF&#45;F_12V</title>
<ellipse fill="yellow" stroke="black" cx="765" cy="-594" rx="51.1914" ry="18"/>
<text text-anchor="middle" x="765" y="-590.3" font-family="Times,serif" font-size="14.00">ITF&#45;F_12V</text>
</g>
<!-- mogaba&#45;&gt;ITF&#45;F_12V -->
<g id="edge48" class="edge"><title>mogaba&#45;&gt;ITF&#45;F_12V</title>
<path fill="none" stroke="black" d="M668.458,-647.876C685.106,-637.533 707.665,-624.344 726.845,-613.725"/>
<polygon fill="red" stroke="black" points="728.577,-616.768 735.667,-608.895 725.215,-610.628 728.577,-616.768"/>
</g>
<!-- ITF&#45;A_gnd&#45;&gt;tobo -->
<g id="edge1" class="edge"><title>ITF&#45;A_gnd&#45;&gt;tobo</title>
<path fill="none" stroke="black" d="M644.165,-575.693C642.339,-545.776 636.804,-482.724 621,-432 618.165,-422.9 613.958,-413.417 609.751,-405.03"/>
<polygon fill="black" stroke="black" points="612.816,-403.339 605.073,-396.106 606.616,-406.588 612.816,-403.339"/>
</g>
<!-- ITF&#45;A_gnd&#45;&gt;cletus -->
<g id="edge10" class="edge"><title>ITF&#45;A_gnd&#45;&gt;cletus</title>
<path fill="none" stroke="black" d="M650.422,-575.928C662.792,-533.283 687.914,-421.14 632,-360 585.44,-309.088 546.084,-346.891 481,-324 445.742,-311.599 439.584,-302.173 405,-288 369.065,-273.273 327.356,-258.918 296.729,-248.87"/>
<polygon fill="black" stroke="black" points="297.788,-245.534 287.196,-245.764 295.62,-252.19 297.788,-245.534"/>
</g>
<!-- ITF&#45;A_gnd&#45;&gt;oneeye -->
<g id="edge18" class="edge"><title>ITF&#45;A_gnd&#45;&gt;oneeye</title>
<path fill="none" stroke="black" d="M603.232,-583.777C545.262,-570.976 440.545,-547.852 378.336,-534.115"/>
<polygon fill="black" stroke="black" points="378.876,-530.65 368.357,-531.912 377.367,-537.486 378.876,-530.65"/>
</g>
<!-- ITF&#45;A_gnd&#45;&gt;croaker -->
<g id="edge25" class="edge"><title>ITF&#45;A_gnd&#45;&gt;croaker</title>
<path fill="none" stroke="black" d="M681.528,-581.343C689.213,-579.261 697.32,-577.333 705,-576 821.748,-555.739 1126.6,-583.037 1237,-540 1295.91,-517.034 1348,-514.233 1348,-451 1348,-451 1348,-451 1348,-233 1348,-142.496 657.225,-102.78 460.631,-93.3099"/>
<polygon fill="black" stroke="black" points="460.714,-89.81 450.559,-92.8305 460.381,-96.8021 460.714,-89.81"/>
</g>
<!-- ITF&#45;A_gnd&#45;&gt;goblin -->
<g id="edge30" class="edge"><title>ITF&#45;A_gnd&#45;&gt;goblin</title>
<path fill="none" stroke="black" d="M682.657,-581.881C690.04,-579.828 697.744,-577.775 705,-576 838.352,-543.378 1310,-588.284 1310,-451 1310,-451 1310,-451 1310,-377 1310,-336.553 1321.35,-314.741 1291,-288 1247.7,-249.841 849.142,-238.58 710.372,-235.8"/>
<polygon fill="black" stroke="black" points="710.132,-232.295 700.066,-235.6 709.996,-239.293 710.132,-232.295"/>
</g>
<!-- ITF&#45;B_5v&#45;&gt;tobo -->
<g id="edge2" class="edge"><title>ITF&#45;B_5v&#45;&gt;tobo</title>
<path fill="none" stroke="black" d="M143.08,-576.266C164.455,-542.453 217.917,-466.298 285,-432 391.094,-377.757 437.92,-427.175 556.82,-395.784"/>
<polygon fill="black" stroke="black" points="557.945,-399.104 566.641,-393.052 556.069,-392.36 557.945,-399.104"/>
</g>
<!-- ITF&#45;B_5v&#45;&gt;cletus -->
<g id="edge11" class="edge"><title>ITF&#45;B_5v&#45;&gt;cletus</title>
<path fill="none" stroke="black" d="M113.316,-577.401C85.4899,-553.442 38,-504.687 38,-451 38,-451 38,-451 38,-377 38,-295.854 145.954,-258.408 208.87,-243.475"/>
<polygon fill="black" stroke="black" points="209.958,-246.817 218.933,-241.187 208.405,-239.991 209.958,-246.817"/>
</g>
<!-- ITF&#45;B_5v&#45;&gt;oneeye -->
<g id="edge19" class="edge"><title>ITF&#45;B_5v&#45;&gt;oneeye</title>
<path fill="none" stroke="black" d="M166.079,-581.125C196.77,-570.108 242.875,-553.558 278.048,-540.931"/>
<polygon fill="black" stroke="black" points="279.427,-544.155 287.657,-537.482 277.062,-537.567 279.427,-544.155"/>
</g>
<!-- ITF&#45;B_5v&#45;&gt;croaker -->
<g id="edge26" class="edge"><title>ITF&#45;B_5v&#45;&gt;croaker</title>
<path fill="none" stroke="black" d="M105.442,-579.32C66.4858,-557.807 0,-512.137 0,-451 0,-451 0,-451 0,-233 0,-158.273 246.736,-113.963 356.927,-97.9009"/>
<polygon fill="black" stroke="black" points="357.75,-101.319 367.152,-96.4346 356.756,-94.3897 357.75,-101.319"/>
</g>
<!-- ITF&#45;B_5v&#45;&gt;goblin -->
<g id="edge31" class="edge"><title>ITF&#45;B_5v&#45;&gt;goblin</title>
<path fill="none" stroke="black" d="M128.672,-575.725C116.774,-523.673 89.5435,-367.08 170,-288 201.436,-257.102 498.147,-241.719 615.532,-236.803"/>
<polygon fill="black" stroke="black" points="615.81,-240.295 625.658,-236.387 615.522,-233.301 615.81,-240.295"/>
</g>
<!-- ITF&#45;I_pulse_on&#45;&gt;tobo -->
<g id="edge3" class="edge"><title>ITF&#45;I_pulse_on&#45;&gt;tobo</title>
<path fill="none" stroke="black" d="M407.25,-437.333C452.517,-425.995 518.507,-409.01 557.23,-395.908"/>
<polygon fill="black" stroke="black" points="558.653,-399.117 566.923,-392.495 556.328,-392.515 558.653,-399.117"/>
</g>
<!-- ITF&#45;J_pulse_off&#45;&gt;tobo -->
<g id="edge4" class="edge"><title>ITF&#45;J_pulse_off&#45;&gt;tobo</title>
<path fill="none" stroke="black" d="M530.907,-432.411C541.55,-423.542 554.839,-412.467 566.553,-402.706"/>
<polygon fill="black" stroke="black" points="568.917,-405.292 574.359,-396.201 564.436,-399.914 568.917,-405.292"/>
</g>
<!-- ITF&#45;S_3_3v&#45;&gt;tobo -->
<g id="edge5" class="edge"><title>ITF&#45;S_3_3v&#45;&gt;tobo</title>
<path fill="none" stroke="black" d="M374.999,-585.039C435.453,-572.081 538.54,-540.208 588,-468 600.284,-450.066 601.21,-425.069 599.535,-406.131"/>
<polygon fill="black" stroke="black" points="602.994,-405.573 598.354,-396.049 596.041,-406.388 602.994,-405.573"/>
</g>
<!-- ITF&#45;S_3_3v&#45;&gt;cletus -->
<g id="edge13" class="edge"><title>ITF&#45;S_3_3v&#45;&gt;cletus</title>
<path fill="none" stroke="black" d="M288.723,-581.608C241.379,-565.369 164.835,-530.387 138,-468 119.034,-423.906 121.117,-404.933 138,-360 153.954,-317.54 192.253,-280.977 220.285,-258.553"/>
<polygon fill="black" stroke="black" points="222.525,-261.245 228.255,-252.334 218.218,-255.727 222.525,-261.245"/>
</g>
<!-- ITF&#45;S_3_3v&#45;&gt;oneeye -->
<g id="edge20" class="edge"><title>ITF&#45;S_3_3v&#45;&gt;oneeye</title>
<path fill="none" stroke="black" d="M328,-575.697C328,-567.983 328,-558.712 328,-550.112"/>
<polygon fill="black" stroke="black" points="331.5,-550.104 328,-540.104 324.5,-550.104 331.5,-550.104"/>
</g>
<!-- ITF&#45;S_3_3v&#45;&gt;goblin -->
<g id="edge32" class="edge"><title>ITF&#45;S_3_3v&#45;&gt;goblin</title>
<path fill="none" stroke="black" d="M308.448,-577.155C272.589,-546.643 197.554,-475.661 171,-396 154.909,-347.727 167.023,-316.761 209,-288 274.267,-243.282 513.304,-236.071 615.809,-235.069"/>
<polygon fill="black" stroke="black" points="615.904,-238.568 625.875,-234.986 615.847,-231.569 615.904,-238.568"/>
</g>
<!-- ITF&#45;mET_Transducer&#45;&gt;tobo -->
<g id="edge6" class="edge"><title>ITF&#45;mET_Transducer&#45;&gt;tobo</title>
<path fill="none" stroke="black" d="M379.065,-316.594C429.366,-324.731 497.786,-338.102 557.841,-357.046"/>
<polygon fill="black" stroke="black" points="556.811,-360.392 567.403,-360.134 558.963,-353.73 556.811,-360.392"/>
</g>
<!-- ITF&#45;mET_Transducer&#45;&gt;cletus -->
<g id="edge14" class="edge"><title>ITF&#45;mET_Transducer&#45;&gt;cletus</title>
<path fill="none" stroke="black" d="M288.05,-288.055C280.839,-279.837 272.871,-269.791 266.263,-260.66"/>
<polygon fill="black" stroke="black" points="269.006,-258.474 260.414,-252.275 263.265,-262.479 269.006,-258.474"/>
</g>
<!-- ITF&#45;R_reserved&#45;&gt;goblin -->
<g id="edge37" class="edge"><title>ITF&#45;R_reserved&#45;&gt;goblin</title>
<path fill="none" stroke="black" d="M781.189,-290.155C760.083,-280.305 732.055,-267.226 708.59,-256.276"/>
<polygon fill="black" stroke="black" points="710.056,-253.097 699.514,-252.04 707.096,-259.441 710.056,-253.097"/>
</g>
<!-- ITF&#45;mET_SMA&#45;&gt;goblin -->
<g id="edge39" class="edge"><title>ITF&#45;mET_SMA&#45;&gt;goblin</title>
<path fill="none" stroke="black" d="M917.141,-293.519C859.895,-280.338 766.675,-258.872 710.458,-245.928"/>
<polygon fill="black" stroke="black" points="710.939,-242.447 700.409,-243.614 709.369,-249.269 710.939,-242.447"/>
</g>
<!-- ITF&#45;N_cc_motor_pwm&#45;&gt;cletus -->
<g id="edge12" class="edge"><title>ITF&#45;N_cc_motor_pwm&#45;&gt;cletus</title>
<path fill="none" stroke="black" d="M244.125,-360.931C230.757,-351.993 216.371,-339.52 209,-324 202.136,-309.547 203.567,-303.049 209,-288 212.754,-277.6 219.536,-267.8 226.668,-259.522"/>
<polygon fill="black" stroke="black" points="229.322,-261.807 233.526,-252.082 224.175,-257.062 229.322,-261.807"/>
</g>
<!-- ITF&#45;mET_Piezo&#45;&gt;cletus -->
<g id="edge15" class="edge"><title>ITF&#45;mET_Piezo&#45;&gt;cletus</title>
<path fill="none" stroke="black" d="M258.895,-180.104C259.701,-187.791 259.937,-197.054 259.604,-205.665"/>
<polygon fill="black" stroke="black" points="256.109,-205.48 258.916,-215.697 263.092,-205.96 256.109,-205.48"/>
</g>
<!-- ITF&#45;G_gain_control&#45;&gt;goblin -->
<g id="edge33" class="edge"><title>ITF&#45;G_gain_control&#45;&gt;goblin</title>
<path fill="none" stroke="black" d="M464.671,-359.673C463.035,-339.891 463.639,-307.726 481,-288 514.574,-249.853 573.862,-238.442 615.629,-235.393"/>
<polygon fill="black" stroke="black" points="616.068,-238.873 625.843,-234.787 615.654,-231.886 616.068,-238.873"/>
</g>
<!-- ITF&#45;mEG_SPI&#45;&gt;croaker -->
<g id="edge27" class="edge"><title>ITF&#45;mEG_SPI&#45;&gt;croaker</title>
<path fill="none" stroke="black" d="M409,-143.697C409,-135.983 409,-126.712 409,-118.112"/>
<polygon fill="black" stroke="black" points="412.5,-118.104 409,-108.104 405.5,-118.104 412.5,-118.104"/>
</g>
<!-- ITF&#45;InternalPot1_gain_control -->
<g id="node22" class="node"><title>ITF&#45;InternalPot1_gain_control</title>
<ellipse fill="yellow" stroke="black" cx="609" cy="-306" rx="118.879" ry="18"/>
<text text-anchor="middle" x="609" y="-302.3" font-family="Times,serif" font-size="14.00">ITF&#45;InternalPot1_gain_control</text>
</g>
<!-- ITF&#45;InternalPot1_gain_control&#45;&gt;goblin -->
<g id="edge34" class="edge"><title>ITF&#45;InternalPot1_gain_control&#45;&gt;goblin</title>
<path fill="none" stroke="black" d="M622.072,-288.055C628.477,-279.753 636.321,-269.584 643.423,-260.378"/>
<polygon fill="black" stroke="black" points="646.337,-262.331 649.673,-252.275 640.794,-258.055 646.337,-262.331"/>
</g>
<!-- ITF&#45;C_amplified_raw_signal&#45;&gt;goblin -->
<g id="edge35" class="edge"><title>ITF&#45;C_amplified_raw_signal&#45;&gt;goblin</title>
<path fill="none" stroke="black" d="M870.63,-178.207C824.043,-191.279 755.46,-209.837 709.977,-221.647"/>
<polygon fill="black" stroke="black" points="708.88,-218.315 700.073,-224.205 710.631,-225.093 708.88,-218.315"/>
</g>
<!-- ITF&#45;E_signal_envelope&#45;&gt;goblin -->
<g id="edge36" class="edge"><title>ITF&#45;E_signal_envelope&#45;&gt;goblin</title>
<path fill="none" stroke="black" d="M608.306,-179.383C619.081,-188.076 631.547,-198.93 641.923,-208.594"/>
<polygon fill="black" stroke="black" points="639.731,-211.339 649.388,-215.697 644.556,-206.268 639.731,-211.339"/>
</g>
<!-- ITF&#45;InternalPot2_ADC_Vref -->
<g id="node25" class="node"><title>ITF&#45;InternalPot2_ADC_Vref</title>
<ellipse fill="yellow" stroke="black" cx="1168" cy="-306" rx="113.98" ry="18"/>
<text text-anchor="middle" x="1168" y="-302.3" font-family="Times,serif" font-size="14.00">ITF&#45;InternalPot2_ADC_Vref</text>
</g>
<!-- ITF&#45;InternalPot2_ADC_Vref&#45;&gt;goblin -->
<g id="edge38" class="edge"><title>ITF&#45;InternalPot2_ADC_Vref&#45;&gt;goblin</title>
<path fill="none" stroke="black" d="M1085.46,-293.558C978.637,-278.752 796.072,-253.446 710.232,-241.547"/>
<polygon fill="black" stroke="black" points="710.641,-238.07 700.255,-240.164 709.68,-245.004 710.641,-238.07"/>
</g>
<!-- ITF&#45;mEM_Alimentation -->
<g id="node27" class="node"><title>ITF&#45;mEM_Alimentation</title>
<ellipse fill="green" stroke="black" cx="645" cy="-738" rx="98.5829" ry="18"/>
<text text-anchor="middle" x="645" y="-734.3" font-family="Times,serif" font-size="14.00">ITF&#45;mEM_Alimentation</text>
</g>
<!-- ITF&#45;mEM_Alimentation&#45;&gt;mogaba -->
<g id="edge44" class="edge"><title>ITF&#45;mEM_Alimentation&#45;&gt;mogaba</title>
<path fill="none" stroke="black" d="M645,-719.697C645,-711.983 645,-702.712 645,-694.112"/>
<polygon fill="black" stroke="black" points="648.5,-694.104 645,-684.104 641.5,-694.104 648.5,-694.104"/>
</g>
<!-- ITF&#45;F_12V&#45;&gt;mogaba -->
<g id="edge45" class="edge"><title>ITF&#45;F_12V&#45;&gt;mogaba</title>
<path fill="none" stroke="black" d="M744.122,-610.514C728.879,-620.068 707.827,-632.464 688.999,-643.019"/>
<polygon fill="black" stroke="black" points="687.295,-639.961 680.252,-647.876 690.694,-646.081 687.295,-639.961"/>
</g>
</g>
</svg>
