<?xml version="1.0" encoding="UTF-8" standalone="no"?>
<!DOCTYPE svg PUBLIC "-//W3C//DTD SVG 1.1//EN"
 "http://www.w3.org/Graphics/SVG/1.1/DTD/svg11.dtd">
<!-- Generated by graphviz version 2.38.0 (20140413.2041)
 -->
<!-- Title: %3 Pages: 1 -->
<svg width="924pt" height="620pt"
 viewBox="0.00 0.00 923.83 620.00" xmlns="http://www.w3.org/2000/svg" xmlns:xlink="http://www.w3.org/1999/xlink">
<g id="graph0" class="graph" transform="scale(1 1) rotate(0) translate(4 616)">
<title>%3</title>
<polygon fill="white" stroke="none" points="-4,4 -4,-616 919.83,-616 919.83,4 -4,4"/>
<!-- tobo -->
<g id="node1" class="node"><title>tobo</title>
<polygon fill="blue" stroke="black" points="541.592,-252 487.592,-252 487.592,-216 541.592,-216 541.592,-252"/>
<text text-anchor="middle" x="514.592" y="-230.3" font-family="Times,serif" font-size="14.00">tobo</text>
</g>
<!-- ITF&#45;R_reserved -->
<g id="node11" class="node"><title>ITF&#45;R_reserved</title>
<ellipse fill="yellow" stroke="black" cx="316.592" cy="-162" rx="66.8882" ry="18"/>
<text text-anchor="middle" x="316.592" y="-158.3" font-family="Times,serif" font-size="14.00">ITF&#45;R_reserved</text>
</g>
<!-- tobo&#45;&gt;ITF&#45;R_reserved -->
<g id="edge6" class="edge"><title>tobo&#45;&gt;ITF&#45;R_reserved</title>
<path fill="none" stroke="black" d="M487.476,-223.414C456.036,-212.299 403.612,-193.765 365.104,-180.151"/>
<polygon fill="red" stroke="black" points="366.229,-176.836 355.634,-176.803 363.896,-183.436 366.229,-176.836"/>
</g>
<!-- ITF&#45;mET_SMA -->
<g id="node12" class="node"><title>ITF&#45;mET_SMA</title>
<ellipse fill="yellow" stroke="black" cx="470.592" cy="-162" rx="68.7879" ry="18"/>
<text text-anchor="middle" x="470.592" y="-158.3" font-family="Times,serif" font-size="14.00">ITF&#45;mET_SMA</text>
</g>
<!-- tobo&#45;&gt;ITF&#45;mET_SMA -->
<g id="edge7" class="edge"><title>tobo&#45;&gt;ITF&#45;mET_SMA</title>
<path fill="none" stroke="black" d="M503.715,-215.697C498.6,-207.559 492.396,-197.689 486.747,-188.701"/>
<polygon fill="red" stroke="black" points="489.628,-186.708 481.343,-180.104 483.702,-190.433 489.628,-186.708"/>
</g>
<!-- ITF&#45;mET_Transducer -->
<g id="node13" class="node"><title>ITF&#45;mET_Transducer</title>
<ellipse fill="yellow" stroke="black" cx="684.592" cy="-162" rx="89.0842" ry="18"/>
<text text-anchor="middle" x="684.592" y="-158.3" font-family="Times,serif" font-size="14.00">ITF&#45;mET_Transducer</text>
</g>
<!-- tobo&#45;&gt;ITF&#45;mET_Transducer -->
<g id="edge8" class="edge"><title>tobo&#45;&gt;ITF&#45;mET_Transducer</title>
<path fill="none" stroke="black" d="M541.905,-221.753C567.763,-211.106 607.106,-194.906 637.936,-182.211"/>
<polygon fill="red" stroke="black" points="639.291,-185.438 647.206,-178.394 636.626,-178.965 639.291,-185.438"/>
</g>
<!-- cletus -->
<g id="node2" class="node"><title>cletus</title>
<polygon fill="blue" stroke="black" points="769.592,-108 715.592,-108 715.592,-72 769.592,-72 769.592,-108"/>
<text text-anchor="middle" x="742.592" y="-86.3" font-family="Times,serif" font-size="14.00">cletus</text>
</g>
<!-- cletus&#45;&gt;ITF&#45;mET_Transducer -->
<g id="edge16" class="edge"><title>cletus&#45;&gt;ITF&#45;mET_Transducer</title>
<path fill="none" stroke="black" d="M734.066,-108.447C727.82,-117.043 719.292,-127.545 711.015,-136.895"/>
<polygon fill="red" stroke="black" points="708.318,-134.659 704.177,-144.411 713.495,-139.37 708.318,-134.659"/>
</g>
<!-- ITF&#45;mET_Piezo -->
<g id="node15" class="node"><title>ITF&#45;mET_Piezo</title>
<ellipse fill="yellow" stroke="black" cx="742.592" cy="-18" rx="68.7879" ry="18"/>
<text text-anchor="middle" x="742.592" y="-14.3" font-family="Times,serif" font-size="14.00">ITF&#45;mET_Piezo</text>
</g>
<!-- cletus&#45;&gt;ITF&#45;mET_Piezo -->
<g id="edge15" class="edge"><title>cletus&#45;&gt;ITF&#45;mET_Piezo</title>
<path fill="none" stroke="black" d="M736.676,-71.6966C735.88,-63.9827 735.654,-54.7125 735.996,-46.1124"/>
<polygon fill="red" stroke="black" points="739.49,-46.3243 736.697,-36.1043 732.507,-45.8356 739.49,-46.3243"/>
</g>
<!-- oneeye -->
<g id="node3" class="node"><title>oneeye</title>
<polygon fill="blue" stroke="black" points="603.092,-396 548.092,-396 548.092,-360 603.092,-360 603.092,-396"/>
<text text-anchor="middle" x="575.592" y="-374.3" font-family="Times,serif" font-size="14.00">oneeye</text>
</g>
<!-- ITF&#45;I_pulse_on -->
<g id="node8" class="node"><title>ITF&#45;I_pulse_on</title>
<ellipse fill="yellow" stroke="black" cx="575.592" cy="-306" rx="65.7887" ry="18"/>
<text text-anchor="middle" x="575.592" y="-302.3" font-family="Times,serif" font-size="14.00">ITF&#45;I_pulse_on</text>
</g>
<!-- oneeye&#45;&gt;ITF&#45;I_pulse_on -->
<g id="edge21" class="edge"><title>oneeye&#45;&gt;ITF&#45;I_pulse_on</title>
<path fill="none" stroke="black" d="M575.592,-359.697C575.592,-351.983 575.592,-342.712 575.592,-334.112"/>
<polygon fill="red" stroke="black" points="579.092,-334.104 575.592,-324.104 572.092,-334.104 579.092,-334.104"/>
</g>
<!-- ITF&#45;J_pulse_off -->
<g id="node9" class="node"><title>ITF&#45;J_pulse_off</title>
<ellipse fill="yellow" stroke="black" cx="424.592" cy="-306" rx="67.6881" ry="18"/>
<text text-anchor="middle" x="424.592" y="-302.3" font-family="Times,serif" font-size="14.00">ITF&#45;J_pulse_off</text>
</g>
<!-- oneeye&#45;&gt;ITF&#45;J_pulse_off -->
<g id="edge22" class="edge"><title>oneeye&#45;&gt;ITF&#45;J_pulse_off</title>
<path fill="none" stroke="black" d="M547.896,-364.161C524.996,-353.545 492.127,-338.308 466.084,-326.235"/>
<polygon fill="red" stroke="black" points="467.373,-322.975 456.829,-321.944 464.429,-329.326 467.373,-322.975"/>
</g>
<!-- ITF&#45;N_cc_motor_pwm -->
<g id="node14" class="node"><title>ITF&#45;N_cc_motor_pwm</title>
<ellipse fill="yellow" stroke="black" cx="679.592" cy="-234" rx="93.6835" ry="18"/>
<text text-anchor="middle" x="679.592" y="-230.3" font-family="Times,serif" font-size="14.00">ITF&#45;N_cc_motor_pwm</text>
</g>
<!-- oneeye&#45;&gt;ITF&#45;N_cc_motor_pwm -->
<g id="edge23" class="edge"><title>oneeye&#45;&gt;ITF&#45;N_cc_motor_pwm</title>
<path fill="none" stroke="black" d="M603.274,-363.245C619.144,-354.09 638.292,-340.683 650.592,-324 664.036,-305.764 671.438,-280.995 675.391,-262.217"/>
<polygon fill="red" stroke="black" points="678.864,-262.693 677.295,-252.215 671.987,-261.384 678.864,-262.693"/>
</g>
<!-- ITF&#45;G_gain_control -->
<g id="node16" class="node"><title>ITF&#45;G_gain_control</title>
<ellipse fill="yellow" stroke="black" cx="362.592" cy="-234" rx="81.7856" ry="18"/>
<text text-anchor="middle" x="362.592" y="-230.3" font-family="Times,serif" font-size="14.00">ITF&#45;G_gain_control</text>
</g>
<!-- oneeye&#45;&gt;ITF&#45;G_gain_control -->
<g id="edge20" class="edge"><title>oneeye&#45;&gt;ITF&#45;G_gain_control</title>
<path fill="none" stroke="black" d="M547.971,-374.77C492.851,-369.686 372.36,-355.187 347.592,-324 333.586,-306.365 340.034,-280.481 348.384,-261.167"/>
<polygon fill="red" stroke="black" points="351.6,-262.551 352.689,-252.012 345.266,-259.572 351.6,-262.551"/>
</g>
<!-- goblin -->
<g id="node4" class="node"><title>goblin</title>
<polygon fill="blue" stroke="black" points="295.592,-108 241.592,-108 241.592,-72 295.592,-72 295.592,-108"/>
<text text-anchor="middle" x="268.592" y="-86.3" font-family="Times,serif" font-size="14.00">goblin</text>
</g>
<!-- ITF&#45;C_amplified_raw_signal -->
<g id="node17" class="node"><title>ITF&#45;C_amplified_raw_signal</title>
<ellipse fill="yellow" stroke="black" cx="463.592" cy="-18" rx="114.28" ry="18"/>
<text text-anchor="middle" x="463.592" y="-14.3" font-family="Times,serif" font-size="14.00">ITF&#45;C_amplified_raw_signal</text>
</g>
<!-- goblin&#45;&gt;ITF&#45;C_amplified_raw_signal -->
<g id="edge32" class="edge"><title>goblin&#45;&gt;ITF&#45;C_amplified_raw_signal</title>
<path fill="none" stroke="black" d="M295.626,-77.4409C323.956,-66.64 369.105,-50.3271 405.508,-37.6786"/>
<polygon fill="red" stroke="black" points="406.733,-40.9585 415.04,-34.3821 404.445,-34.343 406.733,-40.9585"/>
</g>
<!-- ITF&#45;E_signal_envelope -->
<g id="node18" class="node"><title>ITF&#45;E_signal_envelope</title>
<ellipse fill="yellow" stroke="black" cx="93.5917" cy="-18" rx="93.6835" ry="18"/>
<text text-anchor="middle" x="93.5917" y="-14.3" font-family="Times,serif" font-size="14.00">ITF&#45;E_signal_envelope</text>
</g>
<!-- goblin&#45;&gt;ITF&#45;E_signal_envelope -->
<g id="edge33" class="edge"><title>goblin&#45;&gt;ITF&#45;E_signal_envelope</title>
<path fill="none" stroke="black" d="M241.369,-79.992C213.387,-69.6408 169.654,-52.3407 136.952,-38.8039"/>
<polygon fill="red" stroke="black" points="138.193,-35.5294 127.616,-34.9155 135.502,-41.9914 138.193,-35.5294"/>
</g>
<!-- ITF&#45;mEG_SPI -->
<g id="node19" class="node"><title>ITF&#45;mEG_SPI</title>
<ellipse fill="yellow" stroke="black" cx="268.592" cy="-18" rx="63.0888" ry="18"/>
<text text-anchor="middle" x="268.592" y="-14.3" font-family="Times,serif" font-size="14.00">ITF&#45;mEG_SPI</text>
</g>
<!-- goblin&#45;&gt;ITF&#45;mEG_SPI -->
<g id="edge34" class="edge"><title>goblin&#45;&gt;ITF&#45;mEG_SPI</title>
<path fill="none" stroke="black" d="M268.592,-71.6966C268.592,-63.9827 268.592,-54.7125 268.592,-46.1124"/>
<polygon fill="red" stroke="black" points="272.092,-46.1043 268.592,-36.1043 265.092,-46.1044 272.092,-46.1043"/>
</g>
<!-- mogaba -->
<g id="node5" class="node"><title>mogaba</title>
<polygon fill="blue" stroke="black" points="640.592,-540 580.592,-540 580.592,-504 640.592,-504 640.592,-540"/>
<text text-anchor="middle" x="610.592" y="-518.3" font-family="Times,serif" font-size="14.00">mogaba</text>
</g>
<!-- ITF&#45;A_gnd -->
<g id="node6" class="node"><title>ITF&#45;A_gnd</title>
<ellipse fill="yellow" stroke="black" cx="328.592" cy="-450" rx="50.8918" ry="18"/>
<text text-anchor="middle" x="328.592" y="-446.3" font-family="Times,serif" font-size="14.00">ITF&#45;A_gnd</text>
</g>
<!-- mogaba&#45;&gt;ITF&#45;A_gnd -->
<g id="edge36" class="edge"><title>mogaba&#45;&gt;ITF&#45;A_gnd</title>
<path fill="none" stroke="black" d="M580.413,-513.509C532.193,-501.539 437.261,-477.975 378.726,-463.445"/>
<polygon fill="red" stroke="black" points="379.497,-460.03 368.949,-461.018 377.811,-466.824 379.497,-460.03"/>
</g>
<!-- ITF&#45;B_5v -->
<g id="node7" class="node"><title>ITF&#45;B_5v</title>
<ellipse fill="yellow" stroke="black" cx="610.592" cy="-450" rx="46.2923" ry="18"/>
<text text-anchor="middle" x="610.592" y="-446.3" font-family="Times,serif" font-size="14.00">ITF&#45;B_5v</text>
</g>
<!-- mogaba&#45;&gt;ITF&#45;B_5v -->
<g id="edge37" class="edge"><title>mogaba&#45;&gt;ITF&#45;B_5v</title>
<path fill="none" stroke="black" d="M610.592,-503.697C610.592,-495.983 610.592,-486.712 610.592,-478.112"/>
<polygon fill="red" stroke="black" points="614.092,-478.104 610.592,-468.104 607.092,-478.104 614.092,-478.104"/>
</g>
<!-- ITF&#45;S_3_3v -->
<g id="node10" class="node"><title>ITF&#45;S_3_3v</title>
<ellipse fill="yellow" stroke="black" cx="763.592" cy="-450" rx="53.8905" ry="18"/>
<text text-anchor="middle" x="763.592" y="-446.3" font-family="Times,serif" font-size="14.00">ITF&#45;S_3_3v</text>
</g>
<!-- mogaba&#45;&gt;ITF&#45;S_3_3v -->
<g id="edge38" class="edge"><title>mogaba&#45;&gt;ITF&#45;S_3_3v</title>
<path fill="none" stroke="black" d="M640.82,-507.17C664.631,-496.276 698.024,-480.999 723.973,-469.126"/>
<polygon fill="red" stroke="black" points="725.528,-472.264 733.165,-464.921 722.616,-465.898 725.528,-472.264"/>
</g>
<!-- ITF&#45;A_gnd&#45;&gt;tobo -->
<g id="edge1" class="edge"><title>ITF&#45;A_gnd&#45;&gt;tobo</title>
<path fill="none" stroke="black" d="M325.107,-431.655C319.695,-399.393 313.174,-329.661 347.592,-288 351.876,-282.814 429.996,-259.484 477.853,-245.564"/>
<polygon fill="black" stroke="black" points="478.939,-248.893 487.569,-242.747 476.989,-242.17 478.939,-248.893"/>
</g>
<!-- ITF&#45;A_gnd&#45;&gt;cletus -->
<g id="edge9" class="edge"><title>ITF&#45;A_gnd&#45;&gt;cletus</title>
<path fill="none" stroke="black" d="M315.776,-432.273C285.351,-390.426 215.387,-279.982 271.592,-216 312.558,-169.365 492.532,-206.653 548.592,-180 569.602,-170.011 566.673,-156.02 586.592,-144 624.049,-121.397 672.432,-106.884 705.316,-98.8626"/>
<polygon fill="black" stroke="black" points="706.483,-102.184 715.414,-96.4842 704.878,-95.37 706.483,-102.184"/>
</g>
<!-- ITF&#45;A_gnd&#45;&gt;oneeye -->
<g id="edge17" class="edge"><title>ITF&#45;A_gnd&#45;&gt;oneeye</title>
<path fill="none" stroke="black" d="M366.914,-438.139C413.623,-424.902 492.026,-402.683 538.275,-389.576"/>
<polygon fill="black" stroke="black" points="539.244,-392.939 547.91,-386.845 537.335,-386.204 539.244,-392.939"/>
</g>
<!-- ITF&#45;A_gnd&#45;&gt;goblin -->
<g id="edge24" class="edge"><title>ITF&#45;A_gnd&#45;&gt;goblin</title>
<path fill="none" stroke="black" d="M287.895,-439.22C260.838,-431.129 225.781,-417.429 200.592,-396 165.175,-365.87 145.592,-353.499 145.592,-307 145.592,-307 145.592,-307 145.592,-233 145.592,-192.031 144.108,-176.078 169.592,-144 185.4,-124.101 210.778,-110.725 231.882,-102.389"/>
<polygon fill="black" stroke="black" points="233.378,-105.567 241.531,-98.8013 230.939,-99.0054 233.378,-105.567"/>
</g>
<!-- ITF&#45;B_5v&#45;&gt;tobo -->
<g id="edge2" class="edge"><title>ITF&#45;B_5v&#45;&gt;tobo</title>
<path fill="none" stroke="black" d="M622.693,-432.404C643.694,-401.389 681.797,-333.652 650.592,-288 644.685,-279.358 589.745,-259.792 551.53,-247.004"/>
<polygon fill="black" stroke="black" points="552.326,-243.581 541.732,-243.751 550.12,-250.224 552.326,-243.581"/>
</g>
<!-- ITF&#45;B_5v&#45;&gt;cletus -->
<g id="edge10" class="edge"><title>ITF&#45;B_5v&#45;&gt;cletus</title>
<path fill="none" stroke="black" d="M629.688,-433.366C665.797,-402.671 743.918,-330.632 782.592,-252 804.037,-208.397 818.999,-188.547 799.592,-144 794.658,-132.677 785.981,-122.682 776.863,-114.512"/>
<polygon fill="black" stroke="black" points="779.09,-111.812 769.172,-108.088 774.603,-117.185 779.09,-111.812"/>
</g>
<!-- ITF&#45;B_5v&#45;&gt;oneeye -->
<g id="edge18" class="edge"><title>ITF&#45;B_5v&#45;&gt;oneeye</title>
<path fill="none" stroke="black" d="M602.119,-432.055C598.095,-424.007 593.194,-414.205 588.705,-405.226"/>
<polygon fill="black" stroke="black" points="591.832,-403.654 584.229,-396.275 585.571,-406.785 591.832,-403.654"/>
</g>
<!-- ITF&#45;B_5v&#45;&gt;goblin -->
<g id="edge25" class="edge"><title>ITF&#45;B_5v&#45;&gt;goblin</title>
<path fill="none" stroke="black" d="M575.103,-438.199C520.169,-420.359 412.834,-380.959 335.592,-324 272.053,-277.146 251.395,-256.422 231.592,-180 227.578,-164.512 226.791,-159.263 231.592,-144 234.69,-134.148 240.343,-124.53 246.313,-116.251"/>
<polygon fill="black" stroke="black" points="249.221,-118.211 252.555,-108.154 243.677,-113.937 249.221,-118.211"/>
</g>
<!-- ITF&#45;I_pulse_on&#45;&gt;tobo -->
<g id="edge3" class="edge"><title>ITF&#45;I_pulse_on&#45;&gt;tobo</title>
<path fill="none" stroke="black" d="M561.136,-288.411C553.759,-279.946 544.632,-269.472 536.42,-260.049"/>
<polygon fill="black" stroke="black" points="539.004,-257.686 529.795,-252.447 533.726,-262.285 539.004,-257.686"/>
</g>
<!-- ITF&#45;J_pulse_off&#45;&gt;tobo -->
<g id="edge4" class="edge"><title>ITF&#45;J_pulse_off&#45;&gt;tobo</title>
<path fill="none" stroke="black" d="M445.466,-288.765C457.052,-279.753 471.668,-268.385 484.472,-258.426"/>
<polygon fill="black" stroke="black" points="486.83,-261.026 492.575,-252.124 482.533,-255.501 486.83,-261.026"/>
</g>
<!-- ITF&#45;S_3_3v&#45;&gt;tobo -->
<g id="edge5" class="edge"><title>ITF&#45;S_3_3v&#45;&gt;tobo</title>
<path fill="none" stroke="black" d="M758.302,-431.982C747.3,-399.332 718.874,-327.626 670.592,-288 661.13,-280.235 594.581,-259.16 551.513,-246.045"/>
<polygon fill="black" stroke="black" points="552.5,-242.687 541.915,-243.135 550.469,-249.386 552.5,-242.687"/>
</g>
<!-- ITF&#45;S_3_3v&#45;&gt;cletus -->
<g id="edge12" class="edge"><title>ITF&#45;S_3_3v&#45;&gt;cletus</title>
<path fill="none" stroke="black" d="M796.573,-435.732C841.278,-415.311 915.592,-371.642 915.592,-307 915.592,-307 915.592,-307 915.592,-233 915.592,-192.031 919.404,-174.081 891.592,-144 862.538,-112.576 813.625,-99.77 779.807,-94.5597"/>
<polygon fill="black" stroke="black" points="780.222,-91.0838 769.836,-93.1743 779.259,-98.0172 780.222,-91.0838"/>
</g>
<!-- ITF&#45;S_3_3v&#45;&gt;oneeye -->
<g id="edge19" class="edge"><title>ITF&#45;S_3_3v&#45;&gt;oneeye</title>
<path fill="none" stroke="black" d="M728.671,-435.998C695.714,-423.726 646.463,-405.388 612.783,-392.848"/>
<polygon fill="black" stroke="black" points="613.887,-389.524 603.295,-389.315 611.445,-396.084 613.887,-389.524"/>
</g>
<!-- ITF&#45;S_3_3v&#45;&gt;goblin -->
<g id="edge27" class="edge"><title>ITF&#45;S_3_3v&#45;&gt;goblin</title>
<path fill="none" stroke="black" d="M779.339,-432.609C801.6,-407.639 839.592,-357.611 839.592,-307 839.592,-307 839.592,-307 839.592,-233 839.592,-186.027 822.589,-168.63 782.592,-144 702.648,-94.7705 409.819,-90.6125 305.668,-90.7332"/>
<polygon fill="black" stroke="black" points="305.612,-87.2333 295.621,-90.7592 305.63,-94.2332 305.612,-87.2333"/>
</g>
<!-- ITF&#45;R_reserved&#45;&gt;goblin -->
<g id="edge30" class="edge"><title>ITF&#45;R_reserved&#45;&gt;goblin</title>
<path fill="none" stroke="black" d="M304.972,-144.055C299.337,-135.837 292.448,-125.791 286.187,-116.66"/>
<polygon fill="black" stroke="black" points="288.979,-114.543 280.438,-108.275 283.206,-118.502 288.979,-114.543"/>
</g>
<!-- ITF&#45;mET_SMA&#45;&gt;goblin -->
<g id="edge31" class="edge"><title>ITF&#45;mET_SMA&#45;&gt;goblin</title>
<path fill="none" stroke="black" d="M430.683,-147.17C394.214,-134.533 340.724,-115.996 305.297,-103.72"/>
<polygon fill="black" stroke="black" points="306.408,-100.4 295.813,-100.433 304.116,-107.015 306.408,-100.4"/>
</g>
<!-- ITF&#45;mET_Transducer&#45;&gt;cletus -->
<g id="edge13" class="edge"><title>ITF&#45;mET_Transducer&#45;&gt;cletus</title>
<path fill="none" stroke="black" d="M692.754,-144.055C698.874,-135.583 707.3,-125.168 715.541,-115.815"/>
<polygon fill="black" stroke="black" points="718.25,-118.038 722.365,-108.275 713.06,-113.341 718.25,-118.038"/>
</g>
<!-- ITF&#45;N_cc_motor_pwm&#45;&gt;cletus -->
<g id="edge11" class="edge"><title>ITF&#45;N_cc_motor_pwm&#45;&gt;cletus</title>
<path fill="none" stroke="black" d="M731.722,-218.931C751.181,-210.871 771.28,-198.541 782.592,-180 795.139,-159.433 781.4,-134.25 766.709,-115.927"/>
<polygon fill="black" stroke="black" points="769.132,-113.375 759.983,-108.032 763.804,-117.914 769.132,-113.375"/>
</g>
<!-- ITF&#45;mET_Piezo&#45;&gt;cletus -->
<g id="edge14" class="edge"><title>ITF&#45;mET_Piezo&#45;&gt;cletus</title>
<path fill="none" stroke="black" d="M748.487,-36.1043C749.292,-43.7913 749.529,-53.0537 749.196,-61.6651"/>
<polygon fill="black" stroke="black" points="745.7,-61.4805 748.507,-71.6966 752.684,-61.9597 745.7,-61.4805"/>
</g>
<!-- ITF&#45;G_gain_control&#45;&gt;goblin -->
<g id="edge26" class="edge"><title>ITF&#45;G_gain_control&#45;&gt;goblin</title>
<path fill="none" stroke="black" d="M302.403,-221.674C279.007,-214.014 254.523,-201.241 240.592,-180 227.995,-160.794 237.943,-135.559 249.326,-116.866"/>
<polygon fill="black" stroke="black" points="252.402,-118.558 254.937,-108.271 246.54,-114.732 252.402,-118.558"/>
</g>
<!-- ITF&#45;C_amplified_raw_signal&#45;&gt;goblin -->
<g id="edge28" class="edge"><title>ITF&#45;C_amplified_raw_signal&#45;&gt;goblin</title>
<path fill="none" stroke="black" d="M424.637,-35.0587C389.898,-48.0603 339.563,-66.0523 305.461,-77.6096"/>
<polygon fill="black" stroke="black" points="304.231,-74.3304 295.867,-80.8331 306.461,-80.9659 304.231,-74.3304"/>
</g>
<!-- ITF&#45;E_signal_envelope&#45;&gt;goblin -->
<g id="edge29" class="edge"><title>ITF&#45;E_signal_envelope&#45;&gt;goblin</title>
<path fill="none" stroke="black" d="M136.742,-33.9983C166.058,-45.1719 204.301,-60.4395 232.106,-72.0543"/>
<polygon fill="black" stroke="black" points="230.899,-75.3437 241.474,-75.9976 233.615,-68.892 230.899,-75.3437"/>
</g>
<!-- ITF&#45;mEM_Alimentation -->
<g id="node20" class="node"><title>ITF&#45;mEM_Alimentation</title>
<ellipse fill="yellow" stroke="black" cx="610.592" cy="-594" rx="98.5829" ry="18"/>
<text text-anchor="middle" x="610.592" y="-590.3" font-family="Times,serif" font-size="14.00">ITF&#45;mEM_Alimentation</text>
</g>
<!-- ITF&#45;mEM_Alimentation&#45;&gt;mogaba -->
<g id="edge35" class="edge"><title>ITF&#45;mEM_Alimentation&#45;&gt;mogaba</title>
<path fill="none" stroke="black" d="M610.592,-575.697C610.592,-567.983 610.592,-558.712 610.592,-550.112"/>
<polygon fill="black" stroke="black" points="614.092,-550.104 610.592,-540.104 607.092,-550.104 614.092,-550.104"/>
</g>
</g>
</svg>
