<?xml version="1.0" encoding="UTF-8" standalone="no"?>
<!DOCTYPE svg PUBLIC "-//W3C//DTD SVG 1.1//EN"
 "http://www.w3.org/Graphics/SVG/1.1/DTD/svg11.dtd">
<!-- Generated by graphviz version 2.38.0 (20140413.2041)
 -->
<!-- Title: %3 Pages: 1 -->
<svg width="3852pt" height="116pt"
 viewBox="0.00 0.00 3851.50 116.00" xmlns="http://www.w3.org/2000/svg" xmlns:xlink="http://www.w3.org/1999/xlink">
<g id="graph0" class="graph" transform="scale(1 1) rotate(0) translate(4 112)">
<title>%3</title>
<polygon fill="white" stroke="none" points="-4,4 -4,-112 3847.5,-112 3847.5,4 -4,4"/>
<!-- sleepy -->
<g id="node1" class="node"><title>sleepy</title>
<polygon fill="blue" stroke="black" points="73,-36 0,-36 0,-0 73,-0 73,-36"/>
<text text-anchor="middle" x="36.5" y="-12.4" font-family="Times,serif" font-size="22.00">sleepy</text>
</g>
<!-- tobo -->
<g id="node2" class="node"><title>tobo</title>
<polygon fill="blue" stroke="black" points="2469.5,-36 2413.5,-36 2413.5,-0 2469.5,-0 2469.5,-36"/>
<text text-anchor="middle" x="2441.5" y="-12.4" font-family="Times,serif" font-size="22.00">tobo</text>
</g>
<!-- cletus -->
<g id="node3" class="node"><title>cletus</title>
<polygon fill="blue" stroke="black" points="3050.5,-36 2982.5,-36 2982.5,-0 3050.5,-0 3050.5,-36"/>
<text text-anchor="middle" x="3016.5" y="-12.4" font-family="Times,serif" font-size="22.00">cletus</text>
</g>
<!-- doj -->
<g id="node4" class="node"><title>doj</title>
<polygon fill="blue" stroke="black" points="3843.5,-108 3789.5,-108 3789.5,-72 3843.5,-72 3843.5,-108"/>
<text text-anchor="middle" x="3816.5" y="-84.4" font-family="Times,serif" font-size="22.00">doj</text>
</g>
<!-- oneeye -->
<g id="node5" class="node"><title>oneeye</title>
<polygon fill="blue" stroke="black" points="2395.5,-36 2315.5,-36 2315.5,-0 2395.5,-0 2395.5,-36"/>
<text text-anchor="middle" x="2355.5" y="-12.4" font-family="Times,serif" font-size="22.00">oneeye</text>
</g>
<!-- croaker -->
<g id="node6" class="node"><title>croaker</title>
<polygon fill="blue" stroke="black" points="1830,-36 1747,-36 1747,-0 1830,-0 1830,-36"/>
<text text-anchor="middle" x="1788.5" y="-12.4" font-family="Times,serif" font-size="22.00">croaker</text>
</g>
<!-- retroATL3 -->
<g id="node7" class="node"><title>retroATL3</title>
<polygon fill="blue" stroke="black" points="3507,-36 3394,-36 3394,-0 3507,-0 3507,-36"/>
<text text-anchor="middle" x="3450.5" y="-12.4" font-family="Times,serif" font-size="22.00">retroATL3</text>
</g>
<!-- toadkiller -->
<g id="node8" class="node"><title>toadkiller</title>
<polygon fill="blue" stroke="black" points="2215,-36 2114,-36 2114,-0 2215,-0 2215,-36"/>
<text text-anchor="middle" x="2164.5" y="-12.4" font-family="Times,serif" font-size="22.00">toadkiller</text>
</g>
<!-- goblin -->
<g id="node9" class="node"><title>goblin</title>
<polygon fill="blue" stroke="black" points="1463.5,-36 1389.5,-36 1389.5,-0 1463.5,-0 1463.5,-36"/>
<text text-anchor="middle" x="1426.5" y="-12.4" font-family="Times,serif" font-size="22.00">goblin</text>
</g>
<!-- silent -->
<g id="node10" class="node"><title>silent</title>
<polygon fill="blue" stroke="black" points="2297.5,-36 2233.5,-36 2233.5,-0 2297.5,-0 2297.5,-36"/>
<text text-anchor="middle" x="2265.5" y="-12.4" font-family="Times,serif" font-size="22.00">silent</text>
</g>
<!-- mogaba -->
<g id="node11" class="node"><title>mogaba</title>
<polygon fill="blue" stroke="black" points="2673,-36 2586,-36 2586,-0 2673,-0 2673,-36"/>
<text text-anchor="middle" x="2629.5" y="-12.4" font-family="Times,serif" font-size="22.00">mogaba</text>
</g>
<!-- None -->
<g id="node12" class="node"><title>None</title>
<ellipse fill="yellow" stroke="black" cx="36.5" cy="-90" rx="29.795" ry="18"/>
<text text-anchor="middle" x="36.5" y="-86.3" font-family="Times,serif" font-size="14.00">None</text>
</g>
<!-- None&#45;&gt;sleepy -->
<g id="edge1" class="edge"><title>None&#45;&gt;sleepy</title>
<path fill="none" stroke="black" d="M30.6218,-72.055C29.8037,-64.3456 29.5614,-55.0269 29.8949,-46.3642"/>
<polygon fill="black" stroke="black" points="33.3943,-46.4915 30.5872,-36.2753 26.4107,-46.0122 33.3943,-46.4915"/>
</g>
<!-- None&#45;&gt;sleepy -->
<g id="edge2" class="edge"><title>None&#45;&gt;sleepy</title>
<path fill="none" stroke="black" d="M42.3782,-72.055C43.1963,-64.3456 43.4386,-55.0269 43.1051,-46.3642"/>
<polygon fill="black" stroke="black" points="46.5893,-46.0122 42.4128,-36.2753 39.6057,-46.4915 46.5893,-46.0122"/>
</g>
<!-- ITF&#45;A_gnd -->
<g id="node13" class="node"><title>ITF&#45;A_gnd</title>
<ellipse fill="yellow" stroke="black" cx="2596.5" cy="-90" rx="50.8918" ry="18"/>
<text text-anchor="middle" x="2596.5" y="-86.3" font-family="Times,serif" font-size="14.00">ITF&#45;A_gnd</text>
</g>
<!-- ITF&#45;A_gnd&#45;&gt;tobo -->
<g id="edge3" class="edge"><title>ITF&#45;A_gnd&#45;&gt;tobo</title>
<path fill="none" stroke="black" d="M2566.25,-75.3371C2541.29,-64.0685 2505.78,-48.0282 2479.02,-35.9432"/>
<polygon fill="black" stroke="black" points="2480.14,-32.6121 2469.59,-31.686 2477.26,-38.9917 2480.14,-32.6121"/>
</g>
<!-- ITF&#45;A_gnd&#45;&gt;cletus -->
<g id="edge12" class="edge"><title>ITF&#45;A_gnd&#45;&gt;cletus</title>
<path fill="none" stroke="black" d="M2633.44,-77.53C2640.71,-75.5082 2648.31,-73.556 2655.5,-72 2768.57,-47.5276 2904.03,-30.9992 2972.4,-23.5348"/>
<polygon fill="black" stroke="black" points="2972.82,-27.01 2982.38,-22.4571 2972.06,-20.0504 2972.82,-27.01"/>
</g>
<!-- ITF&#45;A_gnd&#45;&gt;oneeye -->
<g id="edge20" class="edge"><title>ITF&#45;A_gnd&#45;&gt;oneeye</title>
<path fill="none" stroke="black" d="M2558.11,-78.0611C2550.93,-76.0335 2543.49,-73.9431 2536.5,-72 2480.89,-56.5386 2464.26,-54.1899 2405.37,-36.1694"/>
<polygon fill="black" stroke="black" points="2406.13,-32.7412 2395.54,-33.1383 2404.06,-39.4303 2406.13,-32.7412"/>
</g>
<!-- ITF&#45;A_gnd&#45;&gt;croaker -->
<g id="edge27" class="edge"><title>ITF&#45;A_gnd&#45;&gt;croaker</title>
<path fill="none" stroke="black" d="M2559.97,-77.3624C2552.28,-75.2783 2544.18,-73.3451 2536.5,-72 2468.46,-60.0803 1999.07,-31.4937 1840.61,-22.0706"/>
<polygon fill="black" stroke="black" points="1840.38,-18.5508 1830.19,-21.4518 1839.97,-25.5384 1840.38,-18.5508"/>
</g>
<!-- ITF&#45;A_gnd&#45;&gt;retroATL3 -->
<g id="edge35" class="edge"><title>ITF&#45;A_gnd&#45;&gt;retroATL3</title>
<path fill="none" stroke="black" d="M2632.72,-77.2451C2640.19,-75.1966 2648.05,-73.3069 2655.5,-72 2794.79,-47.5796 3218.73,-28.3582 3383.76,-21.6095"/>
<polygon fill="black" stroke="black" points="3383.93,-25.1055 3393.78,-21.2021 3383.65,-18.1113 3383.93,-25.1055"/>
</g>
<!-- ITF&#45;A_gnd&#45;&gt;toadkiller -->
<g id="edge44" class="edge"><title>ITF&#45;A_gnd&#45;&gt;toadkiller</title>
<path fill="none" stroke="black" d="M2559.6,-77.5369C2552.01,-75.4657 2544.04,-73.4931 2536.5,-72 2402.78,-45.5216 2363.27,-62.2844 2225.21,-35.9296"/>
<polygon fill="black" stroke="black" points="2225.58,-32.4363 2215.1,-33.9564 2224.24,-39.3067 2225.58,-32.4363"/>
</g>
<!-- ITF&#45;A_gnd&#45;&gt;goblin -->
<g id="edge53" class="edge"><title>ITF&#45;A_gnd&#45;&gt;goblin</title>
<path fill="none" stroke="black" d="M2560.31,-77.2957C2552.53,-75.1888 2544.3,-73.2636 2536.5,-72 2185.6,-15.1699 2092.53,-53.7012 1737.5,-36 1644.07,-31.3419 1534.9,-25.2164 1473.92,-21.7337"/>
<polygon fill="black" stroke="black" points="1474.02,-18.2336 1463.83,-21.1566 1473.62,-25.2222 1474.02,-18.2336"/>
</g>
<!-- ITF&#45;A_gnd&#45;&gt;silent -->
<g id="edge64" class="edge"><title>ITF&#45;A_gnd&#45;&gt;silent</title>
<path fill="none" stroke="black" d="M2559.23,-77.6867C2551.74,-75.6279 2543.9,-73.6219 2536.5,-72 2438.59,-50.5489 2408.01,-63.1632 2307.84,-36.0165"/>
<polygon fill="black" stroke="black" points="2308.5,-32.5665 2297.93,-33.2628 2306.62,-39.3112 2308.5,-32.5665"/>
</g>
<!-- ITF&#45;A_gnd&#45;&gt;mogaba -->
<g id="edge70" class="edge"><title>ITF&#45;A_gnd&#45;&gt;mogaba</title>
<path fill="none" stroke="black" d="M2604.49,-72.055C2608.24,-64.0915 2612.81,-54.4107 2617,-45.5097"/>
<polygon fill="black" stroke="black" points="2620.26,-46.8131 2621.36,-36.2753 2613.93,-43.8281 2620.26,-46.8131"/>
</g>
<!-- ITF&#45;B_5v -->
<g id="node14" class="node"><title>ITF&#45;B_5v</title>
<ellipse fill="yellow" stroke="black" cx="2355.5" cy="-90" rx="46.2923" ry="18"/>
<text text-anchor="middle" x="2355.5" y="-86.3" font-family="Times,serif" font-size="14.00">ITF&#45;B_5v</text>
</g>
<!-- ITF&#45;B_5v&#45;&gt;tobo -->
<g id="edge4" class="edge"><title>ITF&#45;B_5v&#45;&gt;tobo</title>
<path fill="none" stroke="black" d="M2374.59,-73.4647C2385.71,-64.4115 2399.96,-52.8107 2412.45,-42.6437"/>
<polygon fill="black" stroke="black" points="2414.81,-45.238 2420.36,-36.2108 2410.39,-39.8091 2414.81,-45.238"/>
</g>
<!-- ITF&#45;B_5v&#45;&gt;cletus -->
<g id="edge13" class="edge"><title>ITF&#45;B_5v&#45;&gt;cletus</title>
<path fill="none" stroke="black" d="M2388.95,-77.4224C2396,-75.3339 2403.44,-73.3838 2410.5,-72 2518.38,-50.8602 2851.56,-29.053 2972.26,-21.644"/>
<polygon fill="black" stroke="black" points="2972.49,-25.1363 2982.26,-21.0332 2972.07,-18.1493 2972.49,-25.1363"/>
</g>
<!-- ITF&#45;B_5v&#45;&gt;oneeye -->
<g id="edge21" class="edge"><title>ITF&#45;B_5v&#45;&gt;oneeye</title>
<path fill="none" stroke="black" d="M2355.5,-71.6966C2355.5,-63.9827 2355.5,-54.7125 2355.5,-46.1124"/>
<polygon fill="black" stroke="black" points="2359,-46.1043 2355.5,-36.1043 2352,-46.1044 2359,-46.1043"/>
</g>
<!-- ITF&#45;B_5v&#45;&gt;croaker -->
<g id="edge28" class="edge"><title>ITF&#45;B_5v&#45;&gt;croaker</title>
<path fill="none" stroke="black" d="M2322.03,-77.5094C2314.99,-75.4146 2307.55,-73.4399 2300.5,-72 2134.41,-38.0799 1933.35,-25.3284 1840.33,-20.9983"/>
<polygon fill="black" stroke="black" points="1840.21,-17.4895 1830.07,-20.5344 1839.9,-24.4824 1840.21,-17.4895"/>
</g>
<!-- ITF&#45;B_5v&#45;&gt;toadkiller -->
<g id="edge45" class="edge"><title>ITF&#45;B_5v&#45;&gt;toadkiller</title>
<path fill="none" stroke="black" d="M2323.1,-77.1255C2295.1,-66.8654 2254.01,-51.8063 2220.67,-39.5871"/>
<polygon fill="black" stroke="black" points="2221.64,-36.2138 2211.05,-36.0589 2219.23,-42.7863 2221.64,-36.2138"/>
</g>
<!-- ITF&#45;B_5v&#45;&gt;goblin -->
<g id="edge54" class="edge"><title>ITF&#45;B_5v&#45;&gt;goblin</title>
<path fill="none" stroke="black" d="M2322.37,-77.3629C2315.23,-75.2515 2307.68,-73.3074 2300.5,-72 2259.58,-64.5466 1649.66,-31.0913 1473.69,-21.5485"/>
<polygon fill="black" stroke="black" points="1473.88,-18.0533 1463.7,-21.007 1473.5,-25.0431 1473.88,-18.0533"/>
</g>
<!-- ITF&#45;B_5v&#45;&gt;silent -->
<g id="edge65" class="edge"><title>ITF&#45;B_5v&#45;&gt;silent</title>
<path fill="none" stroke="black" d="M2335.53,-73.4647C2323.78,-64.3253 2308.69,-52.5895 2295.53,-42.3536"/>
<polygon fill="black" stroke="black" points="2297.67,-39.5875 2287.63,-36.2108 2293.37,-45.113 2297.67,-39.5875"/>
</g>
<!-- ITF&#45;B_5v&#45;&gt;mogaba -->
<g id="edge71" class="edge"><title>ITF&#45;B_5v&#45;&gt;mogaba</title>
<path fill="none" stroke="black" d="M2390.02,-77.9689C2396.79,-75.9088 2403.85,-73.8302 2410.5,-72 2466.48,-56.5897 2531.17,-41.2312 2575.65,-31.0455"/>
<polygon fill="black" stroke="black" points="2576.69,-34.3981 2585.67,-28.7619 2575.14,-27.5733 2576.69,-34.3981"/>
</g>
<!-- ITF&#45;I_pulse_on -->
<g id="node15" class="node"><title>ITF&#45;I_pulse_on</title>
<ellipse fill="yellow" stroke="black" cx="2072.5" cy="-90" rx="65.7887" ry="18"/>
<text text-anchor="middle" x="2072.5" y="-86.3" font-family="Times,serif" font-size="14.00">ITF&#45;I_pulse_on</text>
</g>
<!-- ITF&#45;I_pulse_on&#45;&gt;tobo -->
<g id="edge5" class="edge"><title>ITF&#45;I_pulse_on&#45;&gt;tobo</title>
<path fill="none" stroke="black" d="M2119.74,-77.5009C2128.61,-75.5277 2137.81,-73.6005 2146.5,-72 2257.25,-51.5926 2291.52,-67.5866 2403.5,-35.8233"/>
<polygon fill="black" stroke="black" points="2404.51,-39.1767 2413.13,-33.0294 2402.56,-32.4538 2404.51,-39.1767"/>
</g>
<!-- ITF&#45;I_pulse_on&#45;&gt;oneeye -->
<g id="edge24" class="edge"><title>ITF&#45;I_pulse_on&#45;&gt;oneeye</title>
<path fill="none" stroke="black" d="M2121.06,-77.8125C2129.54,-75.8681 2138.27,-73.8704 2146.5,-72 2214.52,-56.5345 2234.69,-55.9955 2305.4,-36.1626"/>
<polygon fill="black" stroke="black" points="2306.57,-39.4678 2315.24,-33.3714 2304.66,-32.7335 2306.57,-39.4678"/>
</g>
<!-- ITF&#45;I_pulse_on&#45;&gt;croaker -->
<g id="edge30" class="edge"><title>ITF&#45;I_pulse_on&#45;&gt;croaker</title>
<path fill="none" stroke="black" d="M2025.28,-77.3623C1974.16,-64.762 1892.88,-44.7271 1840.1,-31.7195"/>
<polygon fill="black" stroke="black" points="1840.82,-28.2909 1830.27,-29.296 1839.14,-35.0875 1840.82,-28.2909"/>
</g>
<!-- ITF&#45;I_pulse_on&#45;&gt;toadkiller -->
<g id="edge50" class="edge"><title>ITF&#45;I_pulse_on&#45;&gt;toadkiller</title>
<path fill="none" stroke="black" d="M2093.84,-72.7646C2105.68,-63.7531 2120.62,-52.3852 2133.71,-42.4261"/>
<polygon fill="black" stroke="black" points="2136.16,-44.9646 2141.99,-36.1239 2131.92,-39.3938 2136.16,-44.9646"/>
</g>
<!-- ITF&#45;J_pulse_off -->
<g id="node16" class="node"><title>ITF&#45;J_pulse_off</title>
<ellipse fill="yellow" stroke="black" cx="2223.5" cy="-90" rx="67.6881" ry="18"/>
<text text-anchor="middle" x="2223.5" y="-86.3" font-family="Times,serif" font-size="14.00">ITF&#45;J_pulse_off</text>
</g>
<!-- ITF&#45;J_pulse_off&#45;&gt;tobo -->
<g id="edge6" class="edge"><title>ITF&#45;J_pulse_off&#45;&gt;tobo</title>
<path fill="none" stroke="black" d="M2270.99,-77.1256C2305.63,-68.0088 2353.77,-54.399 2403.72,-36.035"/>
<polygon fill="black" stroke="black" points="2405.25,-39.1994 2413.4,-32.4251 2402.8,-32.6408 2405.25,-39.1994"/>
</g>
<!-- ITF&#45;J_pulse_off&#45;&gt;oneeye -->
<g id="edge25" class="edge"><title>ITF&#45;J_pulse_off&#45;&gt;oneeye</title>
<path fill="none" stroke="black" d="M2252.47,-73.6382C2270.63,-64.0057 2294.33,-51.4391 2314.42,-40.7865"/>
<polygon fill="black" stroke="black" points="2316.16,-43.8214 2323.36,-36.0442 2312.89,-37.6372 2316.16,-43.8214"/>
</g>
<!-- ITF&#45;J_pulse_off&#45;&gt;croaker -->
<g id="edge31" class="edge"><title>ITF&#45;J_pulse_off&#45;&gt;croaker</title>
<path fill="none" stroke="black" d="M2174.55,-77.4954C2165.58,-75.5446 2156.27,-73.6267 2147.5,-72 2038.79,-51.8452 1910.42,-34.417 1840.43,-25.4484"/>
<polygon fill="black" stroke="black" points="1840.49,-21.9273 1830.12,-24.1349 1839.6,-28.8711 1840.49,-21.9273"/>
</g>
<!-- ITF&#45;J_pulse_off&#45;&gt;toadkiller -->
<g id="edge51" class="edge"><title>ITF&#45;J_pulse_off&#45;&gt;toadkiller</title>
<path fill="none" stroke="black" d="M2209.22,-72.055C2202.15,-63.6679 2193.47,-53.376 2185.65,-44.0963"/>
<polygon fill="black" stroke="black" points="2188.18,-41.6659 2179.06,-36.2753 2182.83,-46.1773 2188.18,-41.6659"/>
</g>
<!-- ITF&#45;J_pulse_off&#45;&gt;silent -->
<g id="edge66" class="edge"><title>ITF&#45;J_pulse_off&#45;&gt;silent</title>
<path fill="none" stroke="black" d="M2233.67,-72.055C2238.55,-63.922 2244.5,-53.998 2249.93,-44.9426"/>
<polygon fill="black" stroke="black" points="2252.99,-46.651 2255.13,-36.2753 2246.99,-43.0495 2252.99,-46.651"/>
</g>
<!-- ITF&#45;S_3_3v -->
<g id="node17" class="node"><title>ITF&#45;S_3_3v</title>
<ellipse fill="yellow" stroke="black" cx="2473.5" cy="-90" rx="53.8905" ry="18"/>
<text text-anchor="middle" x="2473.5" y="-86.3" font-family="Times,serif" font-size="14.00">ITF&#45;S_3_3v</text>
</g>
<!-- ITF&#45;S_3_3v&#45;&gt;tobo -->
<g id="edge7" class="edge"><title>ITF&#45;S_3_3v&#45;&gt;tobo</title>
<path fill="none" stroke="black" d="M2465.75,-72.055C2462.11,-64.0915 2457.69,-54.4107 2453.62,-45.5097"/>
<polygon fill="black" stroke="black" points="2456.74,-43.9149 2449.4,-36.2753 2450.37,-46.8252 2456.74,-43.9149"/>
</g>
<!-- ITF&#45;S_3_3v&#45;&gt;cletus -->
<g id="edge15" class="edge"><title>ITF&#45;S_3_3v&#45;&gt;cletus</title>
<path fill="none" stroke="black" d="M2512.6,-77.45C2520.47,-75.4108 2528.71,-73.4725 2536.5,-72 2695.46,-41.9618 2887.48,-27.0954 2972.42,-21.5948"/>
<polygon fill="black" stroke="black" points="2972.72,-25.0827 2982.48,-20.9549 2972.28,-18.0969 2972.72,-25.0827"/>
</g>
<!-- ITF&#45;S_3_3v&#45;&gt;oneeye -->
<g id="edge22" class="edge"><title>ITF&#45;S_3_3v&#45;&gt;oneeye</title>
<path fill="none" stroke="black" d="M2448.19,-73.9832C2432.27,-64.5415 2411.44,-52.1819 2393.55,-41.5729"/>
<polygon fill="black" stroke="black" points="2394.9,-38.3012 2384.51,-36.2094 2391.32,-44.3216 2394.9,-38.3012"/>
</g>
<!-- ITF&#45;S_3_3v&#45;&gt;toadkiller -->
<g id="edge46" class="edge"><title>ITF&#45;S_3_3v&#45;&gt;toadkiller</title>
<path fill="none" stroke="black" d="M2433.62,-77.7707C2425.97,-75.75 2418.01,-73.7365 2410.5,-72 2331.51,-53.7238 2308.13,-55.3401 2225.04,-36.0108"/>
<polygon fill="black" stroke="black" points="2225.7,-32.5697 2215.16,-33.6803 2224.09,-39.3827 2225.7,-32.5697"/>
</g>
<!-- ITF&#45;S_3_3v&#45;&gt;goblin -->
<g id="edge55" class="edge"><title>ITF&#45;S_3_3v&#45;&gt;goblin</title>
<path fill="none" stroke="black" d="M2435.13,-77.2731C2427.06,-75.1954 2418.55,-73.2874 2410.5,-72 2114.72,-24.7209 2036.6,-52.1745 1737.5,-36 1644.09,-30.9488 1534.91,-24.9615 1473.93,-21.6097"/>
<polygon fill="black" stroke="black" points="1474.02,-18.1095 1463.84,-21.0552 1473.63,-25.0989 1474.02,-18.1095"/>
</g>
<!-- ITF&#45;S_3_3v&#45;&gt;mogaba -->
<g id="edge73" class="edge"><title>ITF&#45;S_3_3v&#45;&gt;mogaba</title>
<path fill="none" stroke="black" d="M2504.32,-75.1703C2526.52,-65.2071 2556.9,-51.5778 2582.17,-40.2398"/>
<polygon fill="black" stroke="black" points="2583.88,-43.3063 2591.57,-36.019 2581.02,-36.9198 2583.88,-43.3063"/>
</g>
<!-- ITF&#45;mET_Transducer -->
<g id="node18" class="node"><title>ITF&#45;mET_Transducer</title>
<ellipse fill="green" stroke="black" cx="3450.5" cy="-90" rx="89.0842" ry="18"/>
<text text-anchor="middle" x="3450.5" y="-86.3" font-family="Times,serif" font-size="14.00">ITF&#45;mET_Transducer</text>
</g>
<!-- ITF&#45;mET_Transducer&#45;&gt;tobo -->
<g id="edge8" class="edge"><title>ITF&#45;mET_Transducer&#45;&gt;tobo</title>
<path fill="none" stroke="black" d="M3384.66,-77.8553C3371.03,-75.5893 3356.8,-73.4566 3343.5,-72 3000.29,-34.4208 2911.49,-65.5913 2567.5,-36 2537.85,-33.449 2504.68,-29.2909 2479.71,-25.7257"/>
<polygon fill="black" stroke="black" points="2479.95,-22.2234 2469.55,-24.2404 2478.94,-29.1498 2479.95,-22.2234"/>
</g>
<!-- ITF&#45;mET_Transducer&#45;&gt;tobo -->
<g id="edge11" class="edge"><title>ITF&#45;mET_Transducer&#45;&gt;tobo</title>
<path fill="none" stroke="black" d="M3392.6,-76.2627C3382.29,-74.6096 3371.63,-73.1089 3361.5,-72 3018.29,-34.4208 2929.49,-65.5913 2585.5,-36 2549.76,-32.9256 2508.92,-27.517 2479.73,-23.6251"/>
<polygon fill="black" stroke="black" points="2479.9,-20.1179 2469.53,-22.267 2478.98,-27.0566 2479.9,-20.1179"/>
</g>
<!-- ITF&#45;mET_Transducer&#45;&gt;cletus -->
<g id="edge16" class="edge"><title>ITF&#45;mET_Transducer&#45;&gt;cletus</title>
<path fill="none" stroke="black" d="M3381.87,-78.4707C3369.07,-76.2955 3355.85,-74.0453 3343.5,-72 3242.23,-55.2301 3123.57,-36.7986 3060.65,-26.6936"/>
<polygon fill="black" stroke="black" points="3061.1,-23.2213 3050.67,-25.0851 3059.99,-30.132 3061.1,-23.2213"/>
</g>
<!-- ITF&#45;mET_Transducer&#45;&gt;cletus -->
<g id="edge19" class="edge"><title>ITF&#45;mET_Transducer&#45;&gt;cletus</title>
<path fill="none" stroke="black" d="M3389.84,-76.7956C3380.38,-75.1605 3370.7,-73.5234 3361.5,-72 3253.94,-54.1881 3126.76,-34.5019 3060.83,-24.9089"/>
<polygon fill="black" stroke="black" points="3061.19,-21.4239 3050.79,-23.4578 3060.19,-28.3519 3061.19,-21.4239"/>
</g>
<!-- ITF&#45;mET_Transducer&#45;&gt;retroATL3 -->
<g id="edge38" class="edge"><title>ITF&#45;mET_Transducer&#45;&gt;retroATL3</title>
<path fill="none" stroke="black" d="M3444.58,-71.6966C3443.79,-63.9827 3443.56,-54.7125 3443.9,-46.1124"/>
<polygon fill="black" stroke="black" points="3447.4,-46.3243 3444.6,-36.1043 3440.42,-45.8356 3447.4,-46.3243"/>
</g>
<!-- ITF&#45;mET_Transducer&#45;&gt;retroATL3 -->
<g id="edge42" class="edge"><title>ITF&#45;mET_Transducer&#45;&gt;retroATL3</title>
<path fill="none" stroke="black" d="M3456.42,-71.6966C3457.21,-63.9827 3457.44,-54.7125 3457.1,-46.1124"/>
<polygon fill="black" stroke="black" points="3460.58,-45.8356 3456.4,-36.1043 3453.6,-46.3243 3460.58,-45.8356"/>
</g>
<!-- ITF&#45;R_reserved -->
<g id="node19" class="node"><title>ITF&#45;R_reserved</title>
<ellipse fill="yellow" stroke="black" cx="1921.5" cy="-90" rx="66.8882" ry="18"/>
<text text-anchor="middle" x="1921.5" y="-86.3" font-family="Times,serif" font-size="14.00">ITF&#45;R_reserved</text>
</g>
<!-- ITF&#45;R_reserved&#45;&gt;tobo -->
<g id="edge9" class="edge"><title>ITF&#45;R_reserved&#45;&gt;tobo</title>
<path fill="none" stroke="black" d="M1969.16,-77.3321C1978.51,-75.3275 1988.28,-73.4323 1997.5,-72 2173.7,-44.623 2227.06,-81.221 2403.32,-35.7733"/>
<polygon fill="black" stroke="black" points="2404.4,-39.1097 2413.18,-33.1805 2402.62,-32.3401 2404.4,-39.1097"/>
</g>
<!-- ITF&#45;R_reserved&#45;&gt;goblin -->
<g id="edge59" class="edge"><title>ITF&#45;R_reserved&#45;&gt;goblin</title>
<path fill="none" stroke="black" d="M1872.98,-77.4328C1863.88,-75.4662 1854.42,-73.5588 1845.5,-72 1711.4,-48.5738 1551.42,-31.25 1473.64,-23.4989"/>
<polygon fill="black" stroke="black" points="1473.96,-20.0141 1463.67,-22.5131 1473.28,-26.9802 1473.96,-20.0141"/>
</g>
<!-- ITF&#45;R_reserved&#45;&gt;silent -->
<g id="edge67" class="edge"><title>ITF&#45;R_reserved&#45;&gt;silent</title>
<path fill="none" stroke="black" d="M1970.47,-77.5779C1979.44,-75.6187 1988.74,-73.6766 1997.5,-72 2097.4,-52.8896 2125.51,-63.2554 2223.5,-36 2223.6,-35.9723 2223.7,-35.9445 2223.8,-35.9165"/>
<polygon fill="black" stroke="black" points="2224.73,-39.2936 2233.19,-32.9214 2222.6,-32.6243 2224.73,-39.2936"/>
</g>
<!-- ITF&#45;mET_SMA -->
<g id="node20" class="node"><title>ITF&#45;mET_SMA</title>
<ellipse fill="green" stroke="black" cx="1595.5" cy="-90" rx="68.7879" ry="18"/>
<text text-anchor="middle" x="1595.5" y="-86.3" font-family="Times,serif" font-size="14.00">ITF&#45;mET_SMA</text>
</g>
<!-- ITF&#45;mET_SMA&#45;&gt;tobo -->
<g id="edge10" class="edge"><title>ITF&#45;mET_SMA&#45;&gt;tobo</title>
<path fill="none" stroke="black" d="M1643.96,-77.1388C1653.69,-75.1252 1663.88,-73.2759 1673.5,-72 1992.65,-29.6581 2086.61,-111.594 2403.29,-35.7079"/>
<polygon fill="black" stroke="black" points="2404.32,-39.0609 2413.21,-33.2982 2402.66,-32.2589 2404.32,-39.0609"/>
</g>
<!-- ITF&#45;mET_SMA&#45;&gt;goblin -->
<g id="edge60" class="edge"><title>ITF&#45;mET_SMA&#45;&gt;goblin</title>
<path fill="none" stroke="black" d="M1560.48,-74.496C1535.14,-64.0001 1500.64,-49.7073 1472.99,-38.2554"/>
<polygon fill="black" stroke="black" points="1474.1,-34.9273 1463.52,-34.3341 1471.42,-41.3945 1474.1,-34.9273"/>
</g>
<!-- ITF&#45;N_cc_motor_pwm -->
<g id="node21" class="node"><title>ITF&#45;N_cc_motor_pwm</title>
<ellipse fill="yellow" stroke="black" cx="2758.5" cy="-90" rx="93.6835" ry="18"/>
<text text-anchor="middle" x="2758.5" y="-86.3" font-family="Times,serif" font-size="14.00">ITF&#45;N_cc_motor_pwm</text>
</g>
<!-- ITF&#45;N_cc_motor_pwm&#45;&gt;cletus -->
<g id="edge14" class="edge"><title>ITF&#45;N_cc_motor_pwm&#45;&gt;cletus</title>
<path fill="none" stroke="black" d="M2810.4,-74.9187C2858.01,-62.002 2927.74,-43.0813 2972.63,-30.9021"/>
<polygon fill="black" stroke="black" points="2973.64,-34.2564 2982.37,-28.2599 2971.8,-27.5006 2973.64,-34.2564"/>
</g>
<!-- ITF&#45;N_cc_motor_pwm&#45;&gt;oneeye -->
<g id="edge26" class="edge"><title>ITF&#45;N_cc_motor_pwm&#45;&gt;oneeye</title>
<path fill="none" stroke="black" d="M2690.78,-77.4859C2679.34,-75.6071 2667.59,-73.7158 2656.5,-72 2547.86,-55.189 2516.23,-62.2336 2405.57,-36.0102"/>
<polygon fill="black" stroke="black" points="2406.24,-32.5694 2395.69,-33.6312 2404.6,-39.3749 2406.24,-32.5694"/>
</g>
<!-- ITF&#45;N_cc_motor_pwm&#45;&gt;retroATL3 -->
<g id="edge37" class="edge"><title>ITF&#45;N_cc_motor_pwm&#45;&gt;retroATL3</title>
<path fill="none" stroke="black" d="M2824.78,-77.2067C2836.65,-75.3078 2848.93,-73.4823 2860.5,-72 3049.5,-47.7965 3273.96,-30.8662 3383.56,-23.3587"/>
<polygon fill="black" stroke="black" points="3384.06,-26.8326 3393.8,-22.6616 3383.59,-19.8487 3384.06,-26.8326"/>
</g>
<!-- ITF&#45;N_cc_motor_pwm&#45;&gt;toadkiller -->
<g id="edge52" class="edge"><title>ITF&#45;N_cc_motor_pwm&#45;&gt;toadkiller</title>
<path fill="none" stroke="black" d="M2692.5,-77.1881C2680.54,-75.2799 2668.17,-73.4561 2656.5,-72 2468.58,-48.5507 2415.86,-69.6727 2225.15,-35.8846"/>
<polygon fill="black" stroke="black" points="2225.54,-32.3982 2215.08,-34.0718 2224.3,-39.2876 2225.54,-32.3982"/>
</g>
<!-- ITF&#45;mET_Piezo -->
<g id="node22" class="node"><title>ITF&#45;mET_Piezo</title>
<ellipse fill="green" stroke="black" cx="3274.5" cy="-90" rx="68.7879" ry="18"/>
<text text-anchor="middle" x="3274.5" y="-86.3" font-family="Times,serif" font-size="14.00">ITF&#45;mET_Piezo</text>
</g>
<!-- ITF&#45;mET_Piezo&#45;&gt;cletus -->
<g id="edge17" class="edge"><title>ITF&#45;mET_Piezo&#45;&gt;cletus</title>
<path fill="none" stroke="black" d="M3225.82,-77.2046C3178.08,-64.7899 3106.12,-45.2861 3060.18,-32.3241"/>
<polygon fill="black" stroke="black" points="3061.08,-28.9419 3050.5,-29.5819 3059.17,-35.6765 3061.08,-28.9419"/>
</g>
<!-- ITF&#45;mET_Piezo&#45;&gt;cletus -->
<g id="edge18" class="edge"><title>ITF&#45;mET_Piezo&#45;&gt;cletus</title>
<path fill="none" stroke="black" d="M3231.38,-75.8335C3183.96,-62.4489 3108.35,-41.9714 3060.56,-29.5966"/>
<polygon fill="black" stroke="black" points="3061.36,-26.1886 3050.8,-27.0844 3059.61,-32.9675 3061.36,-26.1886"/>
</g>
<!-- ITF&#45;G_gain_control -->
<g id="node23" class="node"><title>ITF&#45;G_gain_control</title>
<ellipse fill="yellow" stroke="black" cx="1426.5" cy="-90" rx="81.7856" ry="18"/>
<text text-anchor="middle" x="1426.5" y="-86.3" font-family="Times,serif" font-size="14.00">ITF&#45;G_gain_control</text>
</g>
<!-- ITF&#45;G_gain_control&#45;&gt;oneeye -->
<g id="edge23" class="edge"><title>ITF&#45;G_gain_control&#45;&gt;oneeye</title>
<path fill="none" stroke="black" d="M1483.6,-77.0787C1494.8,-75.0963 1506.48,-73.274 1517.5,-72 1862.89,-32.0554 1959.93,-100.883 2305.34,-35.8619"/>
<polygon fill="black" stroke="black" points="2306.21,-39.2604 2315.38,-33.9494 2304.9,-32.3843 2306.21,-39.2604"/>
</g>
<!-- ITF&#45;G_gain_control&#45;&gt;goblin -->
<g id="edge56" class="edge"><title>ITF&#45;G_gain_control&#45;&gt;goblin</title>
<path fill="none" stroke="black" d="M1426.5,-71.6966C1426.5,-63.9827 1426.5,-54.7125 1426.5,-46.1124"/>
<polygon fill="black" stroke="black" points="1430,-46.1043 1426.5,-36.1043 1423,-46.1044 1430,-46.1043"/>
</g>
<!-- ITF&#45;E_signal_envelope -->
<g id="node24" class="node"><title>ITF&#45;E_signal_envelope</title>
<ellipse fill="yellow" stroke="black" cx="568.5" cy="-90" rx="93.6835" ry="18"/>
<text text-anchor="middle" x="568.5" y="-86.3" font-family="Times,serif" font-size="14.00">ITF&#45;E_signal_envelope</text>
</g>
<!-- ITF&#45;E_signal_envelope&#45;&gt;croaker -->
<g id="edge29" class="edge"><title>ITF&#45;E_signal_envelope&#45;&gt;croaker</title>
<path fill="none" stroke="black" d="M633.364,-76.9883C645.661,-75.0523 658.449,-73.2701 670.5,-72 1025.34,-34.6033 1116.13,-53.5839 1472.5,-36 1565.67,-31.4026 1674.27,-25.4251 1736.83,-21.9207"/>
<polygon fill="black" stroke="black" points="1737.06,-25.4138 1746.84,-21.3591 1736.66,-18.4248 1737.06,-25.4138"/>
</g>
<!-- ITF&#45;E_signal_envelope&#45;&gt;toadkiller -->
<g id="edge47" class="edge"><title>ITF&#45;E_signal_envelope&#45;&gt;toadkiller</title>
<path fill="none" stroke="black" d="M633.076,-76.8933C645.459,-74.9535 658.351,-73.1942 670.5,-72 1187.37,-21.1945 1319.59,-57.5244 1838.5,-36 1931.08,-32.1596 2038.39,-26.2902 2103.84,-22.5502"/>
<polygon fill="black" stroke="black" points="2104.19,-26.0358 2113.97,-21.9688 2103.79,-19.0472 2104.19,-26.0358"/>
</g>
<!-- ITF&#45;E_signal_envelope&#45;&gt;goblin -->
<g id="edge58" class="edge"><title>ITF&#45;E_signal_envelope&#45;&gt;goblin</title>
<path fill="none" stroke="black" d="M629.986,-76.3717C640.456,-74.7354 651.249,-73.2109 661.5,-72 931.66,-40.0901 1258.57,-25.1523 1379.08,-20.5865"/>
<polygon fill="black" stroke="black" points="1379.56,-24.0712 1389.42,-20.2012 1379.29,-17.0761 1379.56,-24.0712"/>
</g>
<!-- ITF&#45;E_signal_envelope&#45;&gt;goblin -->
<g id="edge62" class="edge"><title>ITF&#45;E_signal_envelope&#45;&gt;goblin</title>
<path fill="none" stroke="black" d="M638.086,-77.891C651.837,-75.6925 666.129,-73.5794 679.5,-72 943.001,-40.8766 1260.49,-25.899 1379,-20.9431"/>
<polygon fill="black" stroke="black" points="1379.33,-24.4324 1389.18,-20.5216 1379.04,-17.4384 1379.33,-24.4324"/>
</g>
<!-- ITF&#45;mED&#45;TFT&#45;Screen -->
<g id="node25" class="node"><title>ITF&#45;mED&#45;TFT&#45;Screen</title>
<ellipse fill="green" stroke="black" cx="1235.5" cy="-90" rx="90.9839" ry="18"/>
<text text-anchor="middle" x="1235.5" y="-86.3" font-family="Times,serif" font-size="14.00">ITF&#45;mED&#45;TFT&#45;Screen</text>
</g>
<!-- ITF&#45;mED&#45;TFT&#45;Screen&#45;&gt;croaker -->
<g id="edge32" class="edge"><title>ITF&#45;mED&#45;TFT&#45;Screen&#45;&gt;croaker</title>
<path fill="none" stroke="black" d="M1300.78,-77.4004C1312.33,-75.4914 1324.26,-73.6123 1335.5,-72 1480.53,-51.2028 1652.56,-32.7813 1736.8,-24.1661"/>
<polygon fill="black" stroke="black" points="1737.28,-27.6354 1746.87,-23.1398 1736.57,-20.6714 1737.28,-27.6354"/>
</g>
<!-- ITF&#45;mED&#45;TFT&#45;Screen&#45;&gt;toadkiller -->
<g id="edge49" class="edge"><title>ITF&#45;mED&#45;TFT&#45;Screen&#45;&gt;toadkiller</title>
<path fill="none" stroke="black" d="M1299.37,-77.1191C1311.35,-75.1829 1323.78,-73.367 1335.5,-72 1484.34,-54.6387 1937.82,-30.5389 2103.26,-22.0813"/>
<polygon fill="black" stroke="black" points="2103.93,-25.5519 2113.73,-21.547 2103.57,-18.561 2103.93,-25.5519"/>
</g>
<!-- ITF&#45;mED&#45;OLED&#45;Screen -->
<g id="node26" class="node"><title>ITF&#45;mED&#45;OLED&#45;Screen</title>
<ellipse fill="green" stroke="black" cx="778.5" cy="-90" rx="98.5829" ry="18"/>
<text text-anchor="middle" x="778.5" y="-86.3" font-family="Times,serif" font-size="14.00">ITF&#45;mED&#45;OLED&#45;Screen</text>
</g>
<!-- ITF&#45;mED&#45;OLED&#45;Screen&#45;&gt;croaker -->
<g id="edge33" class="edge"><title>ITF&#45;mED&#45;OLED&#45;Screen&#45;&gt;croaker</title>
<path fill="none" stroke="black" d="M847.436,-77.0204C860.068,-75.1179 873.158,-73.3393 885.5,-72 969.978,-62.8327 1557.08,-31.2818 1736.52,-21.7492"/>
<polygon fill="black" stroke="black" points="1736.95,-25.2314 1746.75,-21.2061 1736.58,-18.2412 1736.95,-25.2314"/>
</g>
<!-- ITF&#45;mEC&#45;WiFi&#45;UDP&#45;Stream -->
<g id="node27" class="node"><title>ITF&#45;mEC&#45;WiFi&#45;UDP&#45;Stream</title>
<ellipse fill="green" stroke="black" cx="1010.5" cy="-90" rx="115.88" ry="18"/>
<text text-anchor="middle" x="1010.5" y="-86.3" font-family="Times,serif" font-size="14.00">ITF&#45;mEC&#45;WiFi&#45;UDP&#45;Stream</text>
</g>
<!-- ITF&#45;mEC&#45;WiFi&#45;UDP&#45;Stream&#45;&gt;croaker -->
<g id="edge34" class="edge"><title>ITF&#45;mEC&#45;WiFi&#45;UDP&#45;Stream&#45;&gt;croaker</title>
<path fill="none" stroke="black" d="M1092.45,-77.2077C1106.79,-75.3304 1121.57,-73.512 1135.5,-72 1358.69,-47.7831 1625.91,-29.4024 1736.58,-22.2547"/>
<polygon fill="black" stroke="black" points="1737.04,-25.7325 1746.79,-21.5982 1736.59,-18.7469 1737.04,-25.7325"/>
</g>
<!-- ITF&#45;F_12V -->
<g id="node28" class="node"><title>ITF&#45;F_12V</title>
<ellipse fill="yellow" stroke="black" cx="3136.5" cy="-90" rx="51.1914" ry="18"/>
<text text-anchor="middle" x="3136.5" y="-86.3" font-family="Times,serif" font-size="14.00">ITF&#45;F_12V</text>
</g>
<!-- ITF&#45;F_12V&#45;&gt;retroATL3 -->
<g id="edge36" class="edge"><title>ITF&#45;F_12V&#45;&gt;retroATL3</title>
<path fill="none" stroke="black" d="M3174.48,-77.803C3181.77,-75.7793 3189.35,-73.7565 3196.5,-72 3259.76,-56.4584 3332.6,-41.5633 3384.01,-31.5435"/>
<polygon fill="black" stroke="black" points="3384.85,-34.9465 3394,-29.6058 3383.52,-28.0746 3384.85,-34.9465"/>
</g>
<!-- ITF&#45;F_12V&#45;&gt;mogaba -->
<g id="edge69" class="edge"><title>ITF&#45;F_12V&#45;&gt;mogaba</title>
<path fill="none" stroke="black" d="M3095.68,-78.8782C3086.4,-76.3396 3076.63,-73.8229 3067.5,-72 2930.25,-44.599 2766.27,-29.5977 2683.21,-23.0572"/>
<polygon fill="black" stroke="black" points="2683.25,-19.5496 2673.01,-22.2641 2682.71,-26.5285 2683.25,-19.5496"/>
</g>
<!-- ITF&#45;F_12V&#45;&gt;mogaba -->
<g id="edge72" class="edge"><title>ITF&#45;F_12V&#45;&gt;mogaba</title>
<path fill="none" stroke="black" d="M3103.33,-76.173C3097.44,-74.6154 3091.34,-73.1658 3085.5,-72 2941.9,-43.3302 2769.03,-28.2351 2683.15,-22.2027"/>
<polygon fill="black" stroke="black" points="2683.33,-18.7071 2673.11,-21.5117 2682.85,-25.6905 2683.33,-18.7071"/>
</g>
<!-- Motor -->
<g id="node29" class="node"><title>Motor</title>
<ellipse fill="yellow" stroke="black" cx="3590.5" cy="-90" rx="33.2948" ry="18"/>
<text text-anchor="middle" x="3590.5" y="-86.3" font-family="Times,serif" font-size="14.00">Motor</text>
</g>
<!-- Motor&#45;&gt;retroATL3 -->
<g id="edge39" class="edge"><title>Motor&#45;&gt;retroATL3</title>
<path fill="none" stroke="black" d="M3564.56,-78.5203C3542.9,-68.5774 3511.96,-53.3288 3487.71,-40.7553"/>
<polygon fill="black" stroke="black" points="3489.26,-37.6156 3478.78,-36.084 3486.02,-43.819 3489.26,-37.6156"/>
</g>
<!-- Motor&#45;&gt;retroATL3 -->
<g id="edge41" class="edge"><title>Motor&#45;&gt;retroATL3</title>
<path fill="none" stroke="black" d="M3569.58,-75.8335C3551.14,-65.904 3523.76,-52.071 3499.86,-40.5384"/>
<polygon fill="black" stroke="black" points="3501.09,-37.2447 3490.56,-36.082 3498.06,-43.558 3501.09,-37.2447"/>
</g>
<!-- Tri&#45;Piezo Head -->
<g id="node30" class="node"><title>Tri&#45;Piezo Head</title>
<ellipse fill="yellow" stroke="black" cx="3706.5" cy="-90" rx="64.9885" ry="18"/>
<text text-anchor="middle" x="3706.5" y="-86.3" font-family="Times,serif" font-size="14.00">Tri&#45;Piezo Head</text>
</g>
<!-- Tri&#45;Piezo Head&#45;&gt;retroATL3 -->
<g id="edge40" class="edge"><title>Tri&#45;Piezo Head&#45;&gt;retroATL3</title>
<path fill="none" stroke="black" d="M3659.36,-77.5193C3619.4,-67.062 3561.76,-51.3913 3517.11,-38.8974"/>
<polygon fill="black" stroke="black" points="3517.79,-35.453 3507.22,-36.1208 3515.9,-42.1926 3517.79,-35.453"/>
</g>
<!-- Tri&#45;Piezo Head&#45;&gt;retroATL3 -->
<g id="edge43" class="edge"><title>Tri&#45;Piezo Head&#45;&gt;retroATL3</title>
<path fill="none" stroke="black" d="M3664.91,-76.1609C3624.81,-64.7379 3563.62,-47.9647 3516.82,-35.5398"/>
<polygon fill="black" stroke="black" points="3517.63,-32.133 3507.07,-32.958 3515.84,-38.9 3517.63,-32.133"/>
</g>
<!-- WiFi UDP Stream -->
<g id="node31" class="node"><title>WiFi UDP Stream</title>
<ellipse fill="yellow" stroke="black" cx="1759.5" cy="-90" rx="77.1866" ry="18"/>
<text text-anchor="middle" x="1759.5" y="-86.3" font-family="Times,serif" font-size="14.00">WiFi UDP Stream</text>
</g>
<!-- WiFi UDP Stream&#45;&gt;toadkiller -->
<g id="edge48" class="edge"><title>WiFi UDP Stream&#45;&gt;toadkiller</title>
<path fill="none" stroke="black" d="M1815.89,-77.5973C1825.75,-75.6768 1835.92,-73.7429 1845.5,-72 1935.29,-55.6709 2039.67,-38.7097 2103.91,-28.5029"/>
<polygon fill="black" stroke="black" points="2104.54,-31.947 2113.86,-26.9239 2103.44,-25.0334 2104.54,-31.947"/>
</g>
<!-- ITF&#45;C_amplified_raw_signal -->
<g id="node32" class="node"><title>ITF&#45;C_amplified_raw_signal</title>
<ellipse fill="yellow" stroke="black" cx="198.5" cy="-90" rx="114.28" ry="18"/>
<text text-anchor="middle" x="198.5" y="-86.3" font-family="Times,serif" font-size="14.00">ITF&#45;C_amplified_raw_signal</text>
</g>
<!-- ITF&#45;C_amplified_raw_signal&#45;&gt;goblin -->
<g id="edge57" class="edge"><title>ITF&#45;C_amplified_raw_signal&#45;&gt;goblin</title>
<path fill="none" stroke="black" d="M273.523,-76.3828C286.476,-74.7137 299.836,-73.1765 312.5,-72 724.24,-33.7494 1225.01,-22.3501 1379.17,-19.6924"/>
<polygon fill="black" stroke="black" points="1379.3,-23.1907 1389.24,-19.5228 1379.19,-16.1917 1379.3,-23.1907"/>
</g>
<!-- ITF&#45;C_amplified_raw_signal&#45;&gt;goblin -->
<g id="edge61" class="edge"><title>ITF&#45;C_amplified_raw_signal&#45;&gt;goblin</title>
<path fill="none" stroke="black" d="M281.638,-77.6339C297.867,-75.491 314.723,-73.4656 330.5,-72 735.292,-34.3948 1226.13,-22.7424 1378.9,-19.8345"/>
<polygon fill="black" stroke="black" points="1379.38,-23.3263 1389.31,-19.64 1379.24,-16.3275 1379.38,-23.3263"/>
</g>
<!-- ITF&#45;mEG_SPI -->
<g id="node33" class="node"><title>ITF&#45;mEG_SPI</title>
<ellipse fill="green" stroke="black" cx="393.5" cy="-90" rx="63.0888" ry="18"/>
<text text-anchor="middle" x="393.5" y="-86.3" font-family="Times,serif" font-size="14.00">ITF&#45;mEG_SPI</text>
</g>
<!-- ITF&#45;mEG_SPI&#45;&gt;goblin -->
<g id="edge63" class="edge"><title>ITF&#45;mEG_SPI&#45;&gt;goblin</title>
<path fill="none" stroke="black" d="M438.202,-77.154C447.186,-75.1391 456.602,-73.2855 465.5,-72 813.241,-21.7609 1238.08,-18.2953 1378.75,-18.6601"/>
<polygon fill="black" stroke="black" points="1379.15,-22.1614 1389.16,-18.6957 1379.17,-15.1615 1379.15,-22.1614"/>
</g>
<!-- ITF&#45;mEM_Alimentation -->
<g id="node34" class="node"><title>ITF&#45;mEM_Alimentation</title>
<ellipse fill="green" stroke="black" cx="2968.5" cy="-90" rx="98.5829" ry="18"/>
<text text-anchor="middle" x="2968.5" y="-86.3" font-family="Times,serif" font-size="14.00">ITF&#45;mEM_Alimentation</text>
</g>
<!-- ITF&#45;mEM_Alimentation&#45;&gt;mogaba -->
<g id="edge68" class="edge"><title>ITF&#45;mEM_Alimentation&#45;&gt;mogaba</title>
<path fill="none" stroke="black" d="M2905.53,-75.9976C2841.55,-62.7852 2743.5,-42.5397 2683.11,-30.0699"/>
<polygon fill="black" stroke="black" points="2683.52,-26.5813 2673.02,-27.9866 2682.11,-33.4366 2683.52,-26.5813"/>
</g>
</g>
</svg>
