<?xml version="1.0" encoding="UTF-8" standalone="no"?>
<!DOCTYPE svg PUBLIC "-//W3C//DTD SVG 1.1//EN"
 "http://www.w3.org/Graphics/SVG/1.1/DTD/svg11.dtd">
<!-- Generated by graphviz version 2.38.0 (20140413.2041)
 -->
<!-- Title: %3 Pages: 1 -->
<svg width="976pt" height="620pt"
 viewBox="0.00 0.00 976.38 620.00" xmlns="http://www.w3.org/2000/svg" xmlns:xlink="http://www.w3.org/1999/xlink">
<g id="graph0" class="graph" transform="scale(1 1) rotate(0) translate(4 616)">
<title>%3</title>
<polygon fill="white" stroke="none" points="-4,4 -4,-616 972.384,-616 972.384,4 -4,4"/>
<!-- tobo -->
<g id="node1" class="node"><title>tobo</title>
<polygon fill="blue" stroke="black" points="608.39,-252 552.39,-252 552.39,-216 608.39,-216 608.39,-252"/>
<text text-anchor="middle" x="580.39" y="-228.4" font-family="Times,serif" font-size="22.00">tobo</text>
</g>
<!-- ITF&#45;mET_Transducer -->
<g id="node11" class="node"><title>ITF&#45;mET_Transducer</title>
<ellipse fill="green" stroke="black" cx="717.39" cy="-162" rx="89.0842" ry="18"/>
<text text-anchor="middle" x="717.39" y="-158.3" font-family="Times,serif" font-size="14.00">ITF&#45;mET_Transducer</text>
</g>
<!-- tobo&#45;&gt;ITF&#45;mET_Transducer -->
<g id="edge9" class="edge"><title>tobo&#45;&gt;ITF&#45;mET_Transducer</title>
<path fill="none" stroke="black" d="M608.007,-215.876C626.426,-205.933 650.945,-193.36 672.146,-182.968"/>
<polygon fill="red" stroke="black" points="673.845,-186.034 681.309,-178.514 670.785,-179.738 673.845,-186.034"/>
</g>
<!-- ITF&#45;R_reserved -->
<g id="node12" class="node"><title>ITF&#45;R_reserved</title>
<ellipse fill="yellow" stroke="black" cx="387.39" cy="-162" rx="66.8882" ry="18"/>
<text text-anchor="middle" x="387.39" y="-158.3" font-family="Times,serif" font-size="14.00">ITF&#45;R_reserved</text>
</g>
<!-- tobo&#45;&gt;ITF&#45;R_reserved -->
<g id="edge7" class="edge"><title>tobo&#45;&gt;ITF&#45;R_reserved</title>
<path fill="none" stroke="black" d="M552.326,-222.821C521.615,-211.683 471.852,-193.634 435.008,-180.271"/>
<polygon fill="red" stroke="black" points="436.057,-176.928 425.463,-176.809 433.67,-183.509 436.057,-176.928"/>
</g>
<!-- ITF&#45;mET_SMA -->
<g id="node13" class="node"><title>ITF&#45;mET_SMA</title>
<ellipse fill="green" stroke="black" cx="541.39" cy="-162" rx="68.7879" ry="18"/>
<text text-anchor="middle" x="541.39" y="-158.3" font-family="Times,serif" font-size="14.00">ITF&#45;mET_SMA</text>
</g>
<!-- tobo&#45;&gt;ITF&#45;mET_SMA -->
<g id="edge8" class="edge"><title>tobo&#45;&gt;ITF&#45;mET_SMA</title>
<path fill="none" stroke="black" d="M570.749,-215.697C566.263,-207.644 560.831,-197.894 555.866,-188.982"/>
<polygon fill="red" stroke="black" points="558.844,-187.137 550.919,-180.104 552.729,-190.544 558.844,-187.137"/>
</g>
<!-- oneeye -->
<g id="node2" class="node"><title>oneeye</title>
<polygon fill="blue" stroke="black" points="620.39,-396 540.39,-396 540.39,-360 620.39,-360 620.39,-396"/>
<text text-anchor="middle" x="580.39" y="-372.4" font-family="Times,serif" font-size="22.00">oneeye</text>
</g>
<!-- ITF&#45;I_pulse_on -->
<g id="node8" class="node"><title>ITF&#45;I_pulse_on</title>
<ellipse fill="yellow" stroke="black" cx="580.39" cy="-306" rx="65.7887" ry="18"/>
<text text-anchor="middle" x="580.39" y="-302.3" font-family="Times,serif" font-size="14.00">ITF&#45;I_pulse_on</text>
</g>
<!-- oneeye&#45;&gt;ITF&#45;I_pulse_on -->
<g id="edge14" class="edge"><title>oneeye&#45;&gt;ITF&#45;I_pulse_on</title>
<path fill="none" stroke="black" d="M580.39,-359.697C580.39,-351.983 580.39,-342.712 580.39,-334.112"/>
<polygon fill="red" stroke="black" points="583.89,-334.104 580.39,-324.104 576.89,-334.104 583.89,-334.104"/>
</g>
<!-- ITF&#45;J_pulse_off -->
<g id="node9" class="node"><title>ITF&#45;J_pulse_off</title>
<ellipse fill="yellow" stroke="black" cx="429.39" cy="-306" rx="67.6881" ry="18"/>
<text text-anchor="middle" x="429.39" y="-302.3" font-family="Times,serif" font-size="14.00">ITF&#45;J_pulse_off</text>
</g>
<!-- oneeye&#45;&gt;ITF&#45;J_pulse_off -->
<g id="edge15" class="edge"><title>oneeye&#45;&gt;ITF&#45;J_pulse_off</title>
<path fill="none" stroke="black" d="M543.451,-359.876C521.427,-349.666 493.419,-336.682 470.669,-326.136"/>
<polygon fill="red" stroke="black" points="472.139,-322.96 461.594,-321.929 469.195,-329.31 472.139,-322.96"/>
</g>
<!-- ITF&#45;G_gain_control -->
<g id="node14" class="node"><title>ITF&#45;G_gain_control</title>
<ellipse fill="yellow" stroke="black" cx="364.39" cy="-234" rx="81.7856" ry="18"/>
<text text-anchor="middle" x="364.39" y="-230.3" font-family="Times,serif" font-size="14.00">ITF&#45;G_gain_control</text>
</g>
<!-- oneeye&#45;&gt;ITF&#45;G_gain_control -->
<g id="edge13" class="edge"><title>oneeye&#45;&gt;ITF&#45;G_gain_control</title>
<path fill="none" stroke="black" d="M540.016,-373.534C480.925,-367.53 375.389,-352.959 352.39,-324 338.518,-306.533 343.898,-280.794 351.344,-261.483"/>
<polygon fill="red" stroke="black" points="354.663,-262.622 355.336,-252.049 348.216,-259.894 354.663,-262.622"/>
</g>
<!-- ITF&#45;N_cc_motor_pwm -->
<g id="node15" class="node"><title>ITF&#45;N_cc_motor_pwm</title>
<ellipse fill="yellow" stroke="black" cx="750.39" cy="-234" rx="93.6835" ry="18"/>
<text text-anchor="middle" x="750.39" y="-230.3" font-family="Times,serif" font-size="14.00">ITF&#45;N_cc_motor_pwm</text>
</g>
<!-- oneeye&#45;&gt;ITF&#45;N_cc_motor_pwm -->
<g id="edge16" class="edge"><title>oneeye&#45;&gt;ITF&#45;N_cc_motor_pwm</title>
<path fill="none" stroke="black" d="M606.374,-359.936C621.115,-349.939 639.696,-336.795 655.39,-324 680.679,-303.382 707.659,-277.713 726.38,-259.247"/>
<polygon fill="red" stroke="black" points="729.239,-261.34 733.868,-251.81 724.306,-256.374 729.239,-261.34"/>
</g>
<!-- goblin -->
<g id="node3" class="node"><title>goblin</title>
<polygon fill="blue" stroke="black" points="377.39,-108 303.39,-108 303.39,-72 377.39,-72 377.39,-108"/>
<text text-anchor="middle" x="340.39" y="-84.4" font-family="Times,serif" font-size="22.00">goblin</text>
</g>
<!-- ITF&#45;C_amplified_raw_signal -->
<g id="node16" class="node"><title>ITF&#45;C_amplified_raw_signal</title>
<ellipse fill="yellow" stroke="black" cx="114.39" cy="-18" rx="114.28" ry="18"/>
<text text-anchor="middle" x="114.39" y="-14.3" font-family="Times,serif" font-size="14.00">ITF&#45;C_amplified_raw_signal</text>
</g>
<!-- goblin&#45;&gt;ITF&#45;C_amplified_raw_signal -->
<g id="edge25" class="edge"><title>goblin&#45;&gt;ITF&#45;C_amplified_raw_signal</title>
<path fill="none" stroke="black" d="M303.363,-79.045C266.725,-68.3172 210.417,-50.997 168.741,-37.7092"/>
<polygon fill="red" stroke="black" points="169.608,-34.3119 159.017,-34.5966 167.474,-40.9787 169.608,-34.3119"/>
</g>
<!-- ITF&#45;E_signal_envelope -->
<g id="node17" class="node"><title>ITF&#45;E_signal_envelope</title>
<ellipse fill="yellow" stroke="black" cx="340.39" cy="-18" rx="93.6835" ry="18"/>
<text text-anchor="middle" x="340.39" y="-14.3" font-family="Times,serif" font-size="14.00">ITF&#45;E_signal_envelope</text>
</g>
<!-- goblin&#45;&gt;ITF&#45;E_signal_envelope -->
<g id="edge27" class="edge"><title>goblin&#45;&gt;ITF&#45;E_signal_envelope</title>
<path fill="none" stroke="black" d="M334.474,-71.6966C333.678,-63.9827 333.452,-54.7125 333.795,-46.1124"/>
<polygon fill="red" stroke="black" points="337.288,-46.3243 334.495,-36.1043 330.305,-45.8356 337.288,-46.3243"/>
</g>
<!-- ADL5511 -->
<g id="node18" class="node"><title>ADL5511</title>
<ellipse fill="yellow" stroke="black" cx="498.39" cy="-18" rx="46.2923" ry="18"/>
<text text-anchor="middle" x="498.39" y="-14.3" font-family="Times,serif" font-size="14.00">ADL5511</text>
</g>
<!-- goblin&#45;&gt;ADL5511 -->
<g id="edge26" class="edge"><title>goblin&#45;&gt;ADL5511</title>
<path fill="none" stroke="black" d="M377.434,-72.5881C402.183,-61.6234 434.671,-47.2301 459.744,-36.1215"/>
<polygon fill="red" stroke="black" points="461.234,-39.2896 468.959,-32.0389 458.399,-32.8896 461.234,-39.2896"/>
</g>
<!-- ITF&#45;mEG_SPI -->
<g id="node19" class="node"><title>ITF&#45;mEG_SPI</title>
<ellipse fill="green" stroke="black" cx="625.39" cy="-18" rx="63.0888" ry="18"/>
<text text-anchor="middle" x="625.39" y="-14.3" font-family="Times,serif" font-size="14.00">ITF&#45;mEG_SPI</text>
</g>
<!-- goblin&#45;&gt;ITF&#45;mEG_SPI -->
<g id="edge28" class="edge"><title>goblin&#45;&gt;ITF&#45;mEG_SPI</title>
<path fill="none" stroke="black" d="M377.649,-79.8487C426.471,-67.8574 512.53,-46.7199 569.262,-32.7858"/>
<polygon fill="red" stroke="black" points="570.273,-36.1417 579.149,-30.3574 568.603,-29.3437 570.273,-36.1417"/>
</g>
<!-- retro10PV -->
<g id="node4" class="node"><title>retro10PV</title>
<polygon fill="blue" stroke="black" points="888.89,-108 779.89,-108 779.89,-72 888.89,-72 888.89,-108"/>
<text text-anchor="middle" x="834.39" y="-84.4" font-family="Times,serif" font-size="22.00">retro10PV</text>
</g>
<!-- retro10PV&#45;&gt;ITF&#45;mET_Transducer -->
<g id="edge36" class="edge"><title>retro10PV&#45;&gt;ITF&#45;mET_Transducer</title>
<path fill="none" stroke="black" d="M811.79,-108.044C796.723,-117.665 776.612,-129.768 758.779,-139.975"/>
<polygon fill="red" stroke="black" points="756.677,-137.143 749.7,-145.116 760.126,-143.234 756.677,-137.143"/>
</g>
<!-- Motor -->
<g id="node21" class="node"><title>Motor</title>
<ellipse fill="yellow" stroke="black" cx="787.39" cy="-18" rx="33.2948" ry="18"/>
<text text-anchor="middle" x="787.39" y="-14.3" font-family="Times,serif" font-size="14.00">Motor</text>
</g>
<!-- retro10PV&#45;&gt;Motor -->
<g id="edge35" class="edge"><title>retro10PV&#45;&gt;Motor</title>
<path fill="none" stroke="black" d="M816.856,-71.6966C810.553,-63.5589 803.72,-53.689 798.113,-44.7013"/>
<polygon fill="red" stroke="black" points="801.111,-42.8956 792.979,-36.1043 795.101,-46.4845 801.111,-42.8956"/>
</g>
<!-- Tri&#45;Piezo Head -->
<g id="node22" class="node"><title>Tri&#45;Piezo Head</title>
<ellipse fill="yellow" stroke="black" cx="903.39" cy="-18" rx="64.9885" ry="18"/>
<text text-anchor="middle" x="903.39" y="-14.3" font-family="Times,serif" font-size="14.00">Tri&#45;Piezo Head</text>
</g>
<!-- retro10PV&#45;&gt;Tri&#45;Piezo Head -->
<g id="edge37" class="edge"><title>retro10PV&#45;&gt;Tri&#45;Piezo Head</title>
<path fill="none" stroke="black" d="M845.53,-71.6966C853.389,-62.7922 864.05,-51.8139 874.139,-42.1866"/>
<polygon fill="red" stroke="black" points="876.762,-44.5259 881.685,-35.1446 871.986,-39.4079 876.762,-44.5259"/>
</g>
<!-- mogaba -->
<g id="node5" class="node"><title>mogaba</title>
<polygon fill="blue" stroke="black" points="755.89,-540 668.89,-540 668.89,-504 755.89,-504 755.89,-540"/>
<text text-anchor="middle" x="712.39" y="-516.4" font-family="Times,serif" font-size="22.00">mogaba</text>
</g>
<!-- ITF&#45;A_gnd -->
<g id="node6" class="node"><title>ITF&#45;A_gnd</title>
<ellipse fill="yellow" stroke="black" cx="712.39" cy="-450" rx="50.8918" ry="18"/>
<text text-anchor="middle" x="712.39" y="-446.3" font-family="Times,serif" font-size="14.00">ITF&#45;A_gnd</text>
</g>
<!-- mogaba&#45;&gt;ITF&#45;A_gnd -->
<g id="edge40" class="edge"><title>mogaba&#45;&gt;ITF&#45;A_gnd</title>
<path fill="none" stroke="black" d="M712.39,-503.697C712.39,-495.983 712.39,-486.712 712.39,-478.112"/>
<polygon fill="red" stroke="black" points="715.89,-478.104 712.39,-468.104 708.89,-478.104 715.89,-478.104"/>
</g>
<!-- ITF&#45;B_5v -->
<g id="node7" class="node"><title>ITF&#45;B_5v</title>
<ellipse fill="yellow" stroke="black" cx="378.39" cy="-450" rx="46.2923" ry="18"/>
<text text-anchor="middle" x="378.39" y="-446.3" font-family="Times,serif" font-size="14.00">ITF&#45;B_5v</text>
</g>
<!-- mogaba&#45;&gt;ITF&#45;B_5v -->
<g id="edge41" class="edge"><title>mogaba&#45;&gt;ITF&#45;B_5v</title>
<path fill="none" stroke="black" d="M668.725,-511.849C606.706,-498.851 493.412,-475.106 428.196,-461.438"/>
<polygon fill="red" stroke="black" points="428.663,-457.96 418.158,-459.335 427.227,-464.811 428.663,-457.96"/>
</g>
<!-- ITF&#45;S_3_3v -->
<g id="node10" class="node"><title>ITF&#45;S_3_3v</title>
<ellipse fill="yellow" stroke="black" cx="585.39" cy="-450" rx="53.8905" ry="18"/>
<text text-anchor="middle" x="585.39" y="-446.3" font-family="Times,serif" font-size="14.00">ITF&#45;S_3_3v</text>
</g>
<!-- mogaba&#45;&gt;ITF&#45;S_3_3v -->
<g id="edge43" class="edge"><title>mogaba&#45;&gt;ITF&#45;S_3_3v</title>
<path fill="none" stroke="black" d="M681.322,-503.876C663.147,-493.858 640.127,-481.17 621.193,-470.734"/>
<polygon fill="red" stroke="black" points="622.712,-467.575 612.265,-465.813 619.333,-473.706 622.712,-467.575"/>
</g>
<!-- ITF&#45;F_12V -->
<g id="node20" class="node"><title>ITF&#45;F_12V</title>
<ellipse fill="yellow" stroke="black" cx="832.39" cy="-450" rx="51.1914" ry="18"/>
<text text-anchor="middle" x="832.39" y="-446.3" font-family="Times,serif" font-size="14.00">ITF&#45;F_12V</text>
</g>
<!-- mogaba&#45;&gt;ITF&#45;F_12V -->
<g id="edge42" class="edge"><title>mogaba&#45;&gt;ITF&#45;F_12V</title>
<path fill="none" stroke="black" d="M735.848,-503.876C752.496,-493.533 775.055,-480.344 794.235,-469.725"/>
<polygon fill="red" stroke="black" points="795.967,-472.768 803.057,-464.895 792.605,-466.628 795.967,-472.768"/>
</g>
<!-- ITF&#45;A_gnd&#45;&gt;tobo -->
<g id="edge1" class="edge"><title>ITF&#45;A_gnd&#45;&gt;tobo</title>
<path fill="none" stroke="black" d="M712.518,-431.869C711.903,-400.265 706.511,-332.003 673.39,-288 659.527,-269.583 637.264,-256.57 617.995,-248.048"/>
<polygon fill="black" stroke="black" points="619.118,-244.724 608.541,-244.109 616.426,-251.186 619.118,-244.724"/>
</g>
<!-- ITF&#45;A_gnd&#45;&gt;oneeye -->
<g id="edge10" class="edge"><title>ITF&#45;A_gnd&#45;&gt;oneeye</title>
<path fill="none" stroke="black" d="M685.359,-434.666C666.962,-424.91 642.272,-411.816 621.459,-400.779"/>
<polygon fill="black" stroke="black" points="622.981,-397.625 612.507,-396.032 619.701,-403.809 622.981,-397.625"/>
</g>
<!-- ITF&#45;A_gnd&#45;&gt;goblin -->
<g id="edge17" class="edge"><title>ITF&#45;A_gnd&#45;&gt;goblin</title>
<path fill="none" stroke="black" d="M746.322,-436.561C793.288,-416.896 872.39,-373.852 872.39,-307 872.39,-307 872.39,-307 872.39,-233 872.39,-186.027 855.284,-168.797 815.39,-144 744.716,-100.07 493.211,-92.4431 387.612,-91.1997"/>
<polygon fill="black" stroke="black" points="387.596,-87.6994 377.56,-91.0956 387.523,-94.6991 387.596,-87.6994"/>
</g>
<!-- ITF&#45;A_gnd&#45;&gt;retro10PV -->
<g id="edge29" class="edge"><title>ITF&#45;A_gnd&#45;&gt;retro10PV</title>
<path fill="none" stroke="black" d="M750.325,-437.94C800.779,-423.161 883.946,-398.524 886.39,-396 914.888,-366.567 910.39,-347.969 910.39,-307 910.39,-307 910.39,-307 910.39,-233 910.39,-192.031 906.733,-179.561 886.39,-144 880.35,-133.442 871.698,-123.467 863.18,-115.079"/>
<polygon fill="black" stroke="black" points="865.482,-112.439 855.798,-108.142 860.688,-117.54 865.482,-112.439"/>
</g>
<!-- ITF&#45;B_5v&#45;&gt;tobo -->
<g id="edge2" class="edge"><title>ITF&#45;B_5v&#45;&gt;tobo</title>
<path fill="none" stroke="black" d="M368.266,-432.322C350.441,-400.57 318.405,-330.791 352.39,-288 364.187,-273.147 480.043,-251.769 541.905,-241.284"/>
<polygon fill="black" stroke="black" points="542.786,-244.685 552.068,-239.576 541.627,-237.781 542.786,-244.685"/>
</g>
<!-- ITF&#45;B_5v&#45;&gt;oneeye -->
<g id="edge11" class="edge"><title>ITF&#45;B_5v&#45;&gt;oneeye</title>
<path fill="none" stroke="black" d="M411.746,-437.441C444.149,-426.212 493.742,-409.026 530.774,-396.194"/>
<polygon fill="black" stroke="black" points="532.077,-399.446 540.379,-392.865 529.785,-392.832 532.077,-399.446"/>
</g>
<!-- ITF&#45;B_5v&#45;&gt;goblin -->
<g id="edge18" class="edge"><title>ITF&#45;B_5v&#45;&gt;goblin</title>
<path fill="none" stroke="black" d="M345.607,-437.327C298.27,-418.123 216.39,-375.068 216.39,-307 216.39,-307 216.39,-307 216.39,-233 216.39,-192.031 214.839,-176.025 240.39,-144 254.018,-126.919 274.677,-114.676 293.687,-106.292"/>
<polygon fill="black" stroke="black" points="295.245,-109.435 303.139,-102.368 292.561,-102.97 295.245,-109.435"/>
</g>
<!-- ITF&#45;I_pulse_on&#45;&gt;tobo -->
<g id="edge3" class="edge"><title>ITF&#45;I_pulse_on&#45;&gt;tobo</title>
<path fill="none" stroke="black" d="M580.39,-287.697C580.39,-279.983 580.39,-270.712 580.39,-262.112"/>
<polygon fill="black" stroke="black" points="583.89,-262.104 580.39,-252.104 576.89,-262.104 583.89,-262.104"/>
</g>
<!-- ITF&#45;J_pulse_off&#45;&gt;tobo -->
<g id="edge4" class="edge"><title>ITF&#45;J_pulse_off&#45;&gt;tobo</title>
<path fill="none" stroke="black" d="M461.783,-289.983C485.604,-278.941 518.034,-263.907 542.963,-252.35"/>
<polygon fill="black" stroke="black" points="544.516,-255.488 552.117,-248.107 541.572,-249.137 544.516,-255.488"/>
</g>
<!-- ITF&#45;S_3_3v&#45;&gt;tobo -->
<g id="edge5" class="edge"><title>ITF&#45;S_3_3v&#45;&gt;tobo</title>
<path fill="none" stroke="black" d="M602.259,-432.668C630.561,-403.201 682.019,-339.425 655.39,-288 647.254,-272.289 632.079,-260.24 617.497,-251.63"/>
<polygon fill="black" stroke="black" points="619.01,-248.468 608.561,-246.712 615.634,-254.6 619.01,-248.468"/>
</g>
<!-- ITF&#45;S_3_3v&#45;&gt;oneeye -->
<g id="edge12" class="edge"><title>ITF&#45;S_3_3v&#45;&gt;oneeye</title>
<path fill="none" stroke="black" d="M584.154,-431.697C583.603,-423.983 582.941,-414.712 582.326,-406.112"/>
<polygon fill="black" stroke="black" points="585.815,-405.83 581.612,-396.104 578.833,-406.328 585.815,-405.83"/>
</g>
<!-- ITF&#45;S_3_3v&#45;&gt;goblin -->
<g id="edge19" class="edge"><title>ITF&#45;S_3_3v&#45;&gt;goblin</title>
<path fill="none" stroke="black" d="M542.458,-438.976C467.828,-418.779 317.881,-365.12 273.39,-252 254.368,-203.636 290.982,-147.742 317.171,-116.162"/>
<polygon fill="black" stroke="black" points="320.055,-118.175 323.895,-108.301 314.735,-113.625 320.055,-118.175"/>
</g>
<!-- ITF&#45;mET_Transducer&#45;&gt;tobo -->
<g id="edge6" class="edge"><title>ITF&#45;mET_Transducer&#45;&gt;tobo</title>
<path fill="none" stroke="black" d="M690.969,-179.478C670.118,-190.766 640.943,-205.667 617.73,-216.878"/>
<polygon fill="black" stroke="black" points="616.026,-213.814 608.512,-221.284 619.044,-220.13 616.026,-213.814"/>
</g>
<!-- ITF&#45;mET_Transducer&#45;&gt;retro10PV -->
<g id="edge32" class="edge"><title>ITF&#45;mET_Transducer&#45;&gt;retro10PV</title>
<path fill="none" stroke="black" d="M739.277,-144.411C753.8,-135.115 773.219,-123.398 790.765,-113.308"/>
<polygon fill="black" stroke="black" points="792.776,-116.19 799.735,-108.201 789.313,-110.107 792.776,-116.19"/>
</g>
<!-- ITF&#45;R_reserved&#45;&gt;goblin -->
<g id="edge23" class="edge"><title>ITF&#45;R_reserved&#45;&gt;goblin</title>
<path fill="none" stroke="black" d="M376.012,-144.055C370.495,-135.837 363.75,-125.791 357.619,-116.66"/>
<polygon fill="black" stroke="black" points="360.469,-114.626 351.989,-108.275 354.658,-118.529 360.469,-114.626"/>
</g>
<!-- ITF&#45;mET_SMA&#45;&gt;goblin -->
<g id="edge24" class="edge"><title>ITF&#45;mET_SMA&#45;&gt;goblin</title>
<path fill="none" stroke="black" d="M501.679,-147.17C468.737,-135.698 421.838,-119.365 387.097,-107.266"/>
<polygon fill="black" stroke="black" points="388.238,-103.957 377.643,-103.974 385.935,-110.568 388.238,-103.957"/>
</g>
<!-- ITF&#45;G_gain_control&#45;&gt;goblin -->
<g id="edge20" class="edge"><title>ITF&#45;G_gain_control&#45;&gt;goblin</title>
<path fill="none" stroke="black" d="M341.022,-216.694C329.787,-207.392 317.465,-194.667 311.39,-180 302.758,-159.16 312.012,-134.754 322.294,-116.776"/>
<polygon fill="black" stroke="black" points="325.425,-118.367 327.675,-108.014 319.46,-114.703 325.425,-118.367"/>
</g>
<!-- ITF&#45;N_cc_motor_pwm&#45;&gt;retro10PV -->
<g id="edge31" class="edge"><title>ITF&#45;N_cc_motor_pwm&#45;&gt;retro10PV</title>
<path fill="none" stroke="black" d="M778.219,-216.642C791.427,-207.487 806.279,-194.909 815.39,-180 826.753,-161.405 831.387,-137.011 833.245,-118.466"/>
<polygon fill="black" stroke="black" points="836.748,-118.555 834.047,-108.31 829.77,-118.003 836.748,-118.555"/>
</g>
<!-- ITF&#45;C_amplified_raw_signal&#45;&gt;goblin -->
<g id="edge21" class="edge"><title>ITF&#45;C_amplified_raw_signal&#45;&gt;goblin</title>
<path fill="none" stroke="black" d="M168.231,-33.9275C206.35,-45.2967 256.894,-60.9345 293.392,-72.6424"/>
<polygon fill="black" stroke="black" points="292.701,-76.0967 303.292,-75.8335 294.848,-69.4343 292.701,-76.0967"/>
</g>
<!-- ITF&#45;E_signal_envelope&#45;&gt;goblin -->
<g id="edge22" class="edge"><title>ITF&#45;E_signal_envelope&#45;&gt;goblin</title>
<path fill="none" stroke="black" d="M346.285,-36.1043C347.09,-43.7913 347.327,-53.0537 346.994,-61.6651"/>
<polygon fill="black" stroke="black" points="343.498,-61.4805 346.306,-71.6966 350.482,-61.9597 343.498,-61.4805"/>
</g>
<!-- ITF&#45;F_12V&#45;&gt;retro10PV -->
<g id="edge30" class="edge"><title>ITF&#45;F_12V&#45;&gt;retro10PV</title>
<path fill="none" stroke="black" d="M867.145,-436.725C886.643,-428.157 909.89,-414.846 924.39,-396 949.371,-363.529 948.39,-347.969 948.39,-307 948.39,-307 948.39,-307 948.39,-233 948.39,-192.031 949.216,-176.59 924.39,-144 914.655,-131.221 900.879,-120.939 887.025,-112.957"/>
<polygon fill="black" stroke="black" points="888.411,-109.727 877.952,-108.04 885.077,-115.882 888.411,-109.727"/>
</g>
<!-- ITF&#45;F_12V&#45;&gt;mogaba -->
<g id="edge39" class="edge"><title>ITF&#45;F_12V&#45;&gt;mogaba</title>
<path fill="none" stroke="black" d="M811.512,-466.514C796.268,-476.068 775.217,-488.464 756.389,-499.019"/>
<polygon fill="black" stroke="black" points="754.685,-495.961 747.642,-503.876 758.084,-502.081 754.685,-495.961"/>
</g>
<!-- Motor&#45;&gt;retro10PV -->
<g id="edge33" class="edge"><title>Motor&#45;&gt;retro10PV</title>
<path fill="none" stroke="black" d="M803.277,-34.2024C809.912,-42.5687 817.331,-53.1839 823.379,-62.8388"/>
<polygon fill="black" stroke="black" points="820.545,-64.918 828.688,-71.6966 826.549,-61.3198 820.545,-64.918"/>
</g>
<!-- Tri&#45;Piezo Head&#45;&gt;retro10PV -->
<g id="edge34" class="edge"><title>Tri&#45;Piezo Head&#45;&gt;retro10PV</title>
<path fill="none" stroke="black" d="M892.425,-36.1043C884.835,-44.7205 874.578,-55.316 864.746,-64.7555"/>
<polygon fill="black" stroke="black" points="862.251,-62.2974 857.362,-71.6966 867.045,-67.398 862.251,-62.2974"/>
</g>
<!-- ITF&#45;mEM_Alimentation -->
<g id="node23" class="node"><title>ITF&#45;mEM_Alimentation</title>
<ellipse fill="green" stroke="black" cx="712.39" cy="-594" rx="98.5829" ry="18"/>
<text text-anchor="middle" x="712.39" y="-590.3" font-family="Times,serif" font-size="14.00">ITF&#45;mEM_Alimentation</text>
</g>
<!-- ITF&#45;mEM_Alimentation&#45;&gt;mogaba -->
<g id="edge38" class="edge"><title>ITF&#45;mEM_Alimentation&#45;&gt;mogaba</title>
<path fill="none" stroke="black" d="M712.39,-575.697C712.39,-567.983 712.39,-558.712 712.39,-550.112"/>
<polygon fill="black" stroke="black" points="715.89,-550.104 712.39,-540.104 708.89,-550.104 715.89,-550.104"/>
</g>
</g>
</svg>
