<?xml version="1.0" encoding="UTF-8" standalone="no"?>
<!DOCTYPE svg PUBLIC "-//W3C//DTD SVG 1.1//EN"
 "http://www.w3.org/Graphics/SVG/1.1/DTD/svg11.dtd">
<!-- Generated by graphviz version 2.38.0 (20140413.2041)
 -->
<!-- Title: %3 Pages: 1 -->
<svg width="4690pt" height="116pt"
 viewBox="0.00 0.00 4689.99 116.00" xmlns="http://www.w3.org/2000/svg" xmlns:xlink="http://www.w3.org/1999/xlink">
<g id="graph0" class="graph" transform="scale(1 1) rotate(0) translate(4 112)">
<title>%3</title>
<polygon fill="white" stroke="none" points="-4,4 -4,-112 4685.99,-112 4685.99,4 -4,4"/>
<!-- tobo -->
<g id="node1" class="node"><title>tobo</title>
<polygon fill="blue" stroke="black" points="1569.99,-36 1513.99,-36 1513.99,-0 1569.99,-0 1569.99,-36"/>
<text text-anchor="middle" x="1541.99" y="-12.4" font-family="Times,serif" font-size="22.00">tobo</text>
</g>
<!-- elmo -->
<g id="node2" class="node"><title>elmo</title>
<polygon fill="blue" stroke="black" points="1300.49,-36 1239.49,-36 1239.49,-0 1300.49,-0 1300.49,-36"/>
<text text-anchor="middle" x="1269.99" y="-12.4" font-family="Times,serif" font-size="22.00">elmo</text>
</g>
<!-- cletus -->
<g id="node3" class="node"><title>cletus</title>
<polygon fill="blue" stroke="black" points="3724.99,-36 3656.99,-36 3656.99,-0 3724.99,-0 3724.99,-36"/>
<text text-anchor="middle" x="3690.99" y="-12.4" font-family="Times,serif" font-size="22.00">cletus</text>
</g>
<!-- tomtom -->
<g id="node4" class="node"><title>tomtom</title>
<polygon fill="blue" stroke="black" points="2956.99,-36 2870.99,-36 2870.99,-0 2956.99,-0 2956.99,-36"/>
<text text-anchor="middle" x="2913.99" y="-12.4" font-family="Times,serif" font-size="22.00">tomtom</text>
</g>
<!-- doj -->
<g id="node5" class="node"><title>doj</title>
<polygon fill="blue" stroke="black" points="4681.99,-108 4627.99,-108 4627.99,-72 4681.99,-72 4681.99,-108"/>
<text text-anchor="middle" x="4654.99" y="-84.4" font-family="Times,serif" font-size="22.00">doj</text>
</g>
<!-- croaker -->
<g id="node6" class="node"><title>croaker</title>
<polygon fill="blue" stroke="black" points="878.492,-36 795.492,-36 795.492,-0 878.492,-0 878.492,-36"/>
<text text-anchor="middle" x="836.992" y="-12.4" font-family="Times,serif" font-size="22.00">croaker</text>
</g>
<!-- retroATL3 -->
<g id="node7" class="node"><title>retroATL3</title>
<polygon fill="blue" stroke="black" points="4383.49,-36 4270.49,-36 4270.49,-0 4383.49,-0 4383.49,-36"/>
<text text-anchor="middle" x="4326.99" y="-12.4" font-family="Times,serif" font-size="22.00">retroATL3</text>
</g>
<!-- goblin -->
<g id="node8" class="node"><title>goblin</title>
<polygon fill="blue" stroke="black" points="2098.99,-36 2024.99,-36 2024.99,-0 2098.99,-0 2098.99,-36"/>
<text text-anchor="middle" x="2061.99" y="-12.4" font-family="Times,serif" font-size="22.00">goblin</text>
</g>
<!-- loftus -->
<g id="node9" class="node"><title>loftus</title>
<polygon fill="blue" stroke="black" points="3810.49,-36 3743.49,-36 3743.49,-0 3810.49,-0 3810.49,-36"/>
<text text-anchor="middle" x="3776.99" y="-12.4" font-family="Times,serif" font-size="22.00">loftus</text>
</g>
<!-- silent -->
<g id="node10" class="node"><title>silent</title>
<polygon fill="blue" stroke="black" points="1683.99,-36 1619.99,-36 1619.99,-0 1683.99,-0 1683.99,-36"/>
<text text-anchor="middle" x="1651.99" y="-12.4" font-family="Times,serif" font-size="22.00">silent</text>
</g>
<!-- ITF&#45;1_GND -->
<g id="node11" class="node"><title>ITF&#45;1_GND</title>
<ellipse fill="yellow" stroke="black" cx="1399.99" cy="-90" rx="54.6905" ry="18"/>
<text text-anchor="middle" x="1399.99" y="-86.3" font-family="Times,serif" font-size="14.00">ITF&#45;1_GND</text>
</g>
<!-- ITF&#45;1_GND&#45;&gt;tobo -->
<g id="edge1" class="edge"><title>ITF&#45;1_GND&#45;&gt;tobo</title>
<path fill="none" stroke="black" d="M1429.07,-74.6655C1450.99,-63.8602 1481.21,-48.9608 1504.88,-37.2956"/>
<polygon fill="black" stroke="black" points="1506.5,-40.3991 1513.92,-32.8382 1503.4,-34.1205 1506.5,-40.3991"/>
</g>
<!-- ITF&#45;1_GND&#45;&gt;elmo -->
<g id="edge10" class="edge"><title>ITF&#45;1_GND&#45;&gt;elmo</title>
<path fill="none" stroke="black" d="M1372.74,-74.3257C1354.53,-64.5217 1330.28,-51.4616 1309.91,-40.4924"/>
<polygon fill="black" stroke="black" points="1311.32,-37.2782 1300.86,-35.6188 1308,-43.4415 1311.32,-37.2782"/>
</g>
<!-- ITF&#45;1_GND&#45;&gt;tomtom -->
<g id="edge23" class="edge"><title>ITF&#45;1_GND&#45;&gt;tomtom</title>
<path fill="none" stroke="black" d="M1438.35,-77.1673C1446.42,-75.0974 1454.93,-73.2192 1462.99,-72 1603.05,-50.8269 2615.75,-25.9762 2860.74,-20.2284"/>
<polygon fill="black" stroke="black" points="2860.9,-23.7257 2870.81,-19.9926 2860.73,-16.7276 2860.9,-23.7257"/>
</g>
<!-- ITF&#45;1_GND&#45;&gt;croaker -->
<g id="edge35" class="edge"><title>ITF&#45;1_GND&#45;&gt;croaker</title>
<path fill="none" stroke="black" d="M1360.89,-77.4231C1353.03,-75.386 1344.79,-73.4555 1336.99,-72 1175.05,-41.7633 980.137,-27.3038 888.88,-21.7923"/>
<polygon fill="black" stroke="black" points="888.988,-18.2927 878.799,-21.1945 888.574,-25.2804 888.988,-18.2927"/>
</g>
<!-- ITF&#45;1_GND&#45;&gt;goblin -->
<g id="edge50" class="edge"><title>ITF&#45;1_GND&#45;&gt;goblin</title>
<path fill="none" stroke="black" d="M1439.07,-77.3159C1446.94,-75.2877 1455.18,-73.3878 1462.99,-72 1666.26,-35.8707 1912.92,-23.9334 2014.64,-20.3716"/>
<polygon fill="black" stroke="black" points="2015.01,-23.8611 2024.89,-20.0242 2014.78,-16.8651 2015.01,-23.8611"/>
</g>
<!-- ITF&#45;1_GND&#45;&gt;silent -->
<g id="edge68" class="edge"><title>ITF&#45;1_GND&#45;&gt;silent</title>
<path fill="none" stroke="black" d="M1440.48,-77.7533C1486.88,-64.8634 1562.59,-43.8351 1609.72,-30.7413"/>
<polygon fill="black" stroke="black" points="1610.92,-34.0423 1619.62,-27.9935 1609.04,-27.2977 1610.92,-34.0423"/>
</g>
<!-- ITF&#45;2_VDD_5V -->
<g id="node12" class="node"><title>ITF&#45;2_VDD_5V</title>
<ellipse fill="yellow" stroke="black" cx="1541.99" cy="-90" rx="69.5877" ry="18"/>
<text text-anchor="middle" x="1541.99" y="-86.3" font-family="Times,serif" font-size="14.00">ITF&#45;2_VDD_5V</text>
</g>
<!-- ITF&#45;2_VDD_5V&#45;&gt;tobo -->
<g id="edge2" class="edge"><title>ITF&#45;2_VDD_5V&#45;&gt;tobo</title>
<path fill="none" stroke="black" d="M1541.99,-71.6966C1541.99,-63.9827 1541.99,-54.7125 1541.99,-46.1124"/>
<polygon fill="black" stroke="black" points="1545.49,-46.1043 1541.99,-36.1043 1538.49,-46.1044 1545.49,-46.1043"/>
</g>
<!-- ITF&#45;2_VDD_5V&#45;&gt;elmo -->
<g id="edge11" class="edge"><title>ITF&#45;2_VDD_5V&#45;&gt;elmo</title>
<path fill="none" stroke="black" d="M1494.61,-76.8069C1442.6,-63.4224 1359.97,-42.1564 1310.75,-29.4899"/>
<polygon fill="black" stroke="black" points="1311.34,-26.0263 1300.78,-26.9235 1309.59,-32.8055 1311.34,-26.0263"/>
</g>
<!-- ITF&#45;2_VDD_5V&#45;&gt;tomtom -->
<g id="edge24" class="edge"><title>ITF&#45;2_VDD_5V&#45;&gt;tomtom</title>
<path fill="none" stroke="black" d="M1590.45,-77.0757C1600.18,-75.0674 1610.37,-73.2362 1619.99,-72 1865.89,-40.4111 2648.37,-23.9161 2860.5,-19.9513"/>
<polygon fill="black" stroke="black" points="2860.82,-23.4461 2870.76,-19.7612 2860.69,-16.4473 2860.82,-23.4461"/>
</g>
<!-- ITF&#45;2_VDD_5V&#45;&gt;croaker -->
<g id="edge36" class="edge"><title>ITF&#45;2_VDD_5V&#45;&gt;croaker</title>
<path fill="none" stroke="black" d="M1492.66,-77.2317C1483.18,-75.2606 1473.31,-73.4034 1463.99,-72 1252.03,-40.082 996.646,-25.9562 888.926,-21.0992"/>
<polygon fill="black" stroke="black" points="888.808,-17.5907 878.663,-20.6445 888.498,-24.5838 888.808,-17.5907"/>
</g>
<!-- ITF&#45;2_VDD_5V&#45;&gt;goblin -->
<g id="edge51" class="edge"><title>ITF&#45;2_VDD_5V&#45;&gt;goblin</title>
<path fill="none" stroke="black" d="M1591.79,-77.4073C1601.13,-75.4431 1610.84,-73.5432 1619.99,-72 1762.76,-47.9377 1933.28,-30.7101 2014.47,-23.1998"/>
<polygon fill="black" stroke="black" points="2015.22,-26.6461 2024.86,-22.2473 2014.58,-19.6753 2015.22,-26.6461"/>
</g>
<!-- ITF&#45;2_VDD_5V&#45;&gt;silent -->
<g id="edge69" class="edge"><title>ITF&#45;2_VDD_5V&#45;&gt;silent</title>
<path fill="none" stroke="black" d="M1566.95,-73.1159C1581.61,-63.7903 1600.37,-51.8529 1616.53,-41.5638"/>
<polygon fill="black" stroke="black" points="1618.65,-44.3658 1625.21,-36.0442 1614.89,-38.4602 1618.65,-44.3658"/>
</g>
<!-- ITF&#45;9_Pon -->
<g id="node13" class="node"><title>ITF&#45;9_Pon</title>
<ellipse fill="yellow" stroke="black" cx="713.992" cy="-90" rx="49.2915" ry="18"/>
<text text-anchor="middle" x="713.992" y="-86.3" font-family="Times,serif" font-size="14.00">ITF&#45;9_Pon</text>
</g>
<!-- ITF&#45;9_Pon&#45;&gt;tobo -->
<g id="edge3" class="edge"><title>ITF&#45;9_Pon&#45;&gt;tobo</title>
<path fill="none" stroke="black" d="M749.586,-77.4215C757.237,-75.3062 765.328,-73.3457 772.992,-72 1008.15,-30.7123 1070.82,-52.6871 1308.99,-36 1377.49,-31.2005 1457.3,-25.3135 1503.5,-21.8768"/>
<polygon fill="black" stroke="black" points="1503.95,-25.3531 1513.66,-21.12 1503.43,-18.3725 1503.95,-25.3531"/>
</g>
<!-- ITF&#45;9_Pon&#45;&gt;croaker -->
<g id="edge34" class="edge"><title>ITF&#45;9_Pon&#45;&gt;croaker</title>
<path fill="none" stroke="black" d="M739.478,-74.496C756.365,-64.8853 778.846,-52.0912 797.966,-41.2096"/>
<polygon fill="black" stroke="black" points="799.802,-44.1919 806.762,-36.2038 796.34,-38.1081 799.802,-44.1919"/>
</g>
<!-- ITF&#45;10_Poff -->
<g id="node14" class="node"><title>ITF&#45;10_Poff</title>
<ellipse fill="yellow" stroke="black" cx="836.992" cy="-90" rx="55.4913" ry="18"/>
<text text-anchor="middle" x="836.992" y="-86.3" font-family="Times,serif" font-size="14.00">ITF&#45;10_Poff</text>
</g>
<!-- ITF&#45;10_Poff&#45;&gt;tobo -->
<g id="edge4" class="edge"><title>ITF&#45;10_Poff&#45;&gt;tobo</title>
<path fill="none" stroke="black" d="M876.695,-77.2876C884.683,-75.2617 893.062,-73.3699 900.992,-72 960.324,-61.7503 1374.69,-31.1498 1503.73,-21.7665"/>
<polygon fill="black" stroke="black" points="1504.2,-25.2415 1513.92,-21.0263 1503.69,-18.2599 1504.2,-25.2415"/>
</g>
<!-- ITF&#45;10_Poff&#45;&gt;croaker -->
<g id="edge33" class="edge"><title>ITF&#45;10_Poff&#45;&gt;croaker</title>
<path fill="none" stroke="black" d="M836.992,-71.6966C836.992,-63.9827 836.992,-54.7125 836.992,-46.1124"/>
<polygon fill="black" stroke="black" points="840.492,-46.1043 836.992,-36.1043 833.492,-46.1044 840.492,-46.1043"/>
</g>
<!-- ITF&#45;19_3.3V -->
<g id="node15" class="node"><title>ITF&#45;19_3.3V</title>
<ellipse fill="yellow" stroke="black" cx="1269.99" cy="-90" rx="57.6901" ry="18"/>
<text text-anchor="middle" x="1269.99" y="-86.3" font-family="Times,serif" font-size="14.00">ITF&#45;19_3.3V</text>
</g>
<!-- ITF&#45;19_3.3V&#45;&gt;tobo -->
<g id="edge5" class="edge"><title>ITF&#45;19_3.3V&#45;&gt;tobo</title>
<path fill="none" stroke="black" d="M1312.95,-77.9333C1320.62,-75.957 1328.54,-73.9174 1335.99,-72 1394.51,-56.9354 1462.38,-39.4752 1503.75,-28.8367"/>
<polygon fill="black" stroke="black" points="1504.86,-32.1654 1513.67,-26.2846 1503.11,-25.386 1504.86,-32.1654"/>
</g>
<!-- ITF&#45;19_3.3V&#45;&gt;elmo -->
<g id="edge12" class="edge"><title>ITF&#45;19_3.3V&#45;&gt;elmo</title>
<path fill="none" stroke="black" d="M1269.99,-71.6966C1269.99,-63.9827 1269.99,-54.7125 1269.99,-46.1124"/>
<polygon fill="black" stroke="black" points="1273.49,-46.1043 1269.99,-36.1043 1266.49,-46.1044 1273.49,-46.1043"/>
</g>
<!-- ITF&#45;19_3.3V&#45;&gt;croaker -->
<g id="edge37" class="edge"><title>ITF&#45;19_3.3V&#45;&gt;croaker</title>
<path fill="none" stroke="black" d="M1227.97,-77.6225C1219.72,-75.5926 1211.11,-73.6138 1202.99,-72 1091.8,-49.9063 959.883,-33.0769 888.722,-24.7602"/>
<polygon fill="black" stroke="black" points="889.01,-21.2702 878.674,-23.5953 888.204,-28.2236 889.01,-21.2702"/>
</g>
<!-- ITF&#45;mET_Transducer -->
<g id="node16" class="node"><title>ITF&#45;mET_Transducer</title>
<ellipse fill="green" stroke="black" cx="3733.99" cy="-90" rx="89.0842" ry="18"/>
<text text-anchor="middle" x="3733.99" y="-86.3" font-family="Times,serif" font-size="14.00">ITF&#45;mET_Transducer</text>
</g>
<!-- ITF&#45;mET_Transducer&#45;&gt;tobo -->
<g id="edge6" class="edge"><title>ITF&#45;mET_Transducer&#45;&gt;tobo</title>
<path fill="none" stroke="black" d="M3668.71,-77.6651C3654.92,-75.3772 3640.49,-73.2827 3626.99,-72 3178.94,-29.4115 2048.28,-94.1977 1601.99,-36 1594.92,-35.0782 1587.53,-33.7065 1580.42,-32.1349"/>
<polygon fill="black" stroke="black" points="1580.82,-28.6326 1570.29,-29.7184 1579.2,-35.4418 1580.82,-28.6326"/>
</g>
<!-- ITF&#45;mET_Transducer&#45;&gt;tobo -->
<g id="edge9" class="edge"><title>ITF&#45;mET_Transducer&#45;&gt;tobo</title>
<path fill="none" stroke="black" d="M3676.9,-76.1292C3666.35,-74.4594 3655.39,-72.9886 3644.99,-72 3196.94,-29.4115 2066.28,-94.1977 1619.99,-36 1606.96,-34.3006 1592.83,-31.072 1580.12,-27.8811"/>
<polygon fill="black" stroke="black" points="1580.83,-24.4514 1570.28,-25.36 1579.09,-31.2324 1580.83,-24.4514"/>
</g>
<!-- ITF&#45;mET_Transducer&#45;&gt;cletus -->
<g id="edge19" class="edge"><title>ITF&#45;mET_Transducer&#45;&gt;cletus</title>
<path fill="none" stroke="black" d="M3717.7,-72.055C3711.91,-64.0067 3705.66,-54.2046 3700.54,-45.2259"/>
<polygon fill="black" stroke="black" points="3703.53,-43.3979 3695.69,-36.2753 3697.38,-46.7345 3703.53,-43.3979"/>
</g>
<!-- ITF&#45;mET_Transducer&#45;&gt;cletus -->
<g id="edge22" class="edge"><title>ITF&#45;mET_Transducer&#45;&gt;cletus</title>
<path fill="none" stroke="black" d="M3729.28,-71.6966C3725.08,-63.4741 3719.14,-53.4832 3713.13,-44.4207"/>
<polygon fill="black" stroke="black" points="3715.95,-42.3506 3707.39,-36.1043 3710.19,-46.324 3715.95,-42.3506"/>
</g>
<!-- ITF&#45;mET_Transducer&#45;&gt;retroATL3 -->
<g id="edge44" class="edge"><title>ITF&#45;mET_Transducer&#45;&gt;retroATL3</title>
<path fill="none" stroke="black" d="M3793.53,-76.5415C3803.34,-74.9101 3813.42,-73.3418 3822.99,-72 3978.66,-50.1878 4162.98,-32.6176 4259.9,-24.2713"/>
<polygon fill="black" stroke="black" points="4260.48,-27.735 4270.14,-23.3959 4259.88,-20.7604 4260.48,-27.735"/>
</g>
<!-- ITF&#45;mET_Transducer&#45;&gt;retroATL3 -->
<g id="edge48" class="edge"><title>ITF&#45;mET_Transducer&#45;&gt;retroATL3</title>
<path fill="none" stroke="black" d="M3801.49,-78.1732C3814.63,-75.971 3828.25,-73.7851 3840.99,-72 3990.32,-51.0768 4166,-34.057 4259.93,-25.3375"/>
<polygon fill="black" stroke="black" points="4260.5,-28.7991 4270.14,-24.3921 4259.86,-21.8289 4260.5,-28.7991"/>
</g>
<!-- ITF&#45;mET_Transducer&#45;&gt;loftus -->
<g id="edge64" class="edge"><title>ITF&#45;mET_Transducer&#45;&gt;loftus</title>
<path fill="none" stroke="black" d="M3738.71,-71.6966C3742.91,-63.4741 3748.84,-53.4832 3754.86,-44.4207"/>
<polygon fill="black" stroke="black" points="3757.8,-46.324 3760.59,-36.1043 3752.03,-42.3506 3757.8,-46.324"/>
</g>
<!-- ITF&#45;mET_Transducer&#45;&gt;loftus -->
<g id="edge67" class="edge"><title>ITF&#45;mET_Transducer&#45;&gt;loftus</title>
<path fill="none" stroke="black" d="M3750.28,-72.055C3756.08,-64.0067 3762.33,-54.2046 3767.44,-45.2259"/>
<polygon fill="black" stroke="black" points="3770.6,-46.7345 3772.29,-36.2753 3764.45,-43.3979 3770.6,-46.7345"/>
</g>
<!-- ITF&#45;18_Raw -->
<g id="node17" class="node"><title>ITF&#45;18_Raw</title>
<ellipse fill="yellow" stroke="black" cx="1684.99" cy="-90" rx="55.7903" ry="18"/>
<text text-anchor="middle" x="1684.99" y="-86.3" font-family="Times,serif" font-size="14.00">ITF&#45;18_Raw</text>
</g>
<!-- ITF&#45;18_Raw&#45;&gt;tobo -->
<g id="edge7" class="edge"><title>ITF&#45;18_Raw&#45;&gt;tobo</title>
<path fill="none" stroke="black" d="M1655.71,-74.6655C1633.63,-63.8602 1603.2,-48.9608 1579.37,-37.2956"/>
<polygon fill="black" stroke="black" points="1580.78,-34.0913 1570.26,-32.8382 1577.7,-40.3785 1580.78,-34.0913"/>
</g>
<!-- ITF&#45;18_Raw&#45;&gt;goblin -->
<g id="edge55" class="edge"><title>ITF&#45;18_Raw&#45;&gt;goblin</title>
<path fill="none" stroke="black" d="M1726.12,-77.6619C1734.02,-75.6512 1742.24,-73.6692 1749.99,-72 1843.16,-51.9427 1953.32,-34.7326 2014.67,-25.7203"/>
<polygon fill="black" stroke="black" points="2015.42,-29.1474 2024.81,-24.2395 2014.41,-22.2208 2015.42,-29.1474"/>
</g>
<!-- ITF&#45;18_Raw&#45;&gt;silent -->
<g id="edge71" class="edge"><title>ITF&#45;18_Raw&#45;&gt;silent</title>
<path fill="none" stroke="black" d="M1677,-72.055C1673.25,-64.0915 1668.69,-54.4107 1664.49,-45.5097"/>
<polygon fill="black" stroke="black" points="1667.57,-43.8281 1660.14,-36.2753 1661.23,-46.8131 1667.57,-43.8281"/>
</g>
<!-- ITF&#45;mET_SMA -->
<g id="node18" class="node"><title>ITF&#45;mET_SMA</title>
<ellipse fill="green" stroke="black" cx="1827.99" cy="-90" rx="68.7879" ry="18"/>
<text text-anchor="middle" x="1827.99" y="-86.3" font-family="Times,serif" font-size="14.00">ITF&#45;mET_SMA</text>
</g>
<!-- ITF&#45;mET_SMA&#45;&gt;tobo -->
<g id="edge8" class="edge"><title>ITF&#45;mET_SMA&#45;&gt;tobo</title>
<path fill="none" stroke="black" d="M1779.29,-77.135C1735.31,-66.4122 1668.81,-50.1824 1610.99,-36 1600.93,-33.531 1590.04,-30.8519 1579.95,-28.3665"/>
<polygon fill="black" stroke="black" points="1580.74,-24.9555 1570.19,-25.9606 1579.06,-31.7521 1580.74,-24.9555"/>
</g>
<!-- ITF&#45;mET_SMA&#45;&gt;goblin -->
<g id="edge56" class="edge"><title>ITF&#45;mET_SMA&#45;&gt;goblin</title>
<path fill="none" stroke="black" d="M1871.46,-75.9976C1912.33,-63.772 1973.32,-45.5245 2015.23,-32.9877"/>
<polygon fill="black" stroke="black" points="2016.35,-36.3079 2024.92,-30.0887 2014.34,-29.6015 2016.35,-36.3079"/>
</g>
<!-- ITF&#45;12_RPIn -->
<g id="node19" class="node"><title>ITF&#45;12_RPIn</title>
<ellipse fill="yellow" stroke="black" cx="1135.99" cy="-90" rx="57.6901" ry="18"/>
<text text-anchor="middle" x="1135.99" y="-86.3" font-family="Times,serif" font-size="14.00">ITF&#45;12_RPIn</text>
</g>
<!-- ITF&#45;12_RPIn&#45;&gt;elmo -->
<g id="edge13" class="edge"><title>ITF&#45;12_RPIn&#45;&gt;elmo</title>
<path fill="none" stroke="black" d="M1164.41,-74.1548C1183.55,-64.1565 1209.06,-50.8294 1230.21,-39.7803"/>
<polygon fill="black" stroke="black" points="1232.04,-42.7754 1239.28,-35.043 1228.8,-36.571 1232.04,-42.7754"/>
</g>
<!-- Signal Digitalized -->
<g id="node20" class="node"><title>Signal Digitalized</title>
<ellipse fill="yellow" stroke="black" cx="984.992" cy="-90" rx="74.9875" ry="18"/>
<text text-anchor="middle" x="984.992" y="-86.3" font-family="Times,serif" font-size="14.00">Signal Digitalized</text>
</g>
<!-- Signal Digitalized&#45;&gt;elmo -->
<g id="edge14" class="edge"><title>Signal Digitalized&#45;&gt;elmo</title>
<path fill="none" stroke="black" d="M1035.29,-76.6465C1090.6,-63.0603 1178.4,-41.4956 1229.48,-28.9506"/>
<polygon fill="black" stroke="black" points="1230.61,-32.276 1239.49,-26.4917 1228.94,-25.4781 1230.61,-32.276"/>
</g>
<!-- ITF&#45;A_gnd -->
<g id="node21" class="node"><title>ITF&#45;A_gnd</title>
<ellipse fill="yellow" stroke="black" cx="4001.99" cy="-90" rx="50.8918" ry="18"/>
<text text-anchor="middle" x="4001.99" y="-86.3" font-family="Times,serif" font-size="14.00">ITF&#45;A_gnd</text>
</g>
<!-- ITF&#45;A_gnd&#45;&gt;cletus -->
<g id="edge15" class="edge"><title>ITF&#45;A_gnd&#45;&gt;cletus</title>
<path fill="none" stroke="black" d="M3964.7,-77.7811C3957.22,-75.7145 3949.38,-73.6815 3941.99,-72 3853.55,-51.875 3826.12,-60.7371 3734.69,-35.8756"/>
<polygon fill="black" stroke="black" points="3735.61,-32.4988 3725.04,-33.1922 3733.74,-39.243 3735.61,-32.4988"/>
</g>
<!-- ITF&#45;A_gnd&#45;&gt;retroATL3 -->
<g id="edge41" class="edge"><title>ITF&#45;A_gnd&#45;&gt;retroATL3</title>
<path fill="none" stroke="black" d="M4039.32,-77.733C4046.48,-75.7157 4053.95,-73.7132 4060.99,-72 4128.37,-55.6112 4206.25,-40.5399 4260.25,-30.6932"/>
<polygon fill="black" stroke="black" points="4261.17,-34.0836 4270.39,-28.8556 4259.92,-27.1959 4261.17,-34.0836"/>
</g>
<!-- ITF&#45;A_gnd&#45;&gt;loftus -->
<g id="edge60" class="edge"><title>ITF&#45;A_gnd&#45;&gt;loftus</title>
<path fill="none" stroke="black" d="M3965.09,-77.5193C3925.39,-65.1669 3862.3,-45.5403 3820.28,-32.4678"/>
<polygon fill="black" stroke="black" points="3821.19,-29.086 3810.6,-29.4572 3819.11,-35.77 3821.19,-29.086"/>
</g>
<!-- ITF&#45;B_5v -->
<g id="node22" class="node"><title>ITF&#45;B_5v</title>
<ellipse fill="yellow" stroke="black" cx="3886.99" cy="-90" rx="46.2923" ry="18"/>
<text text-anchor="middle" x="3886.99" y="-86.3" font-family="Times,serif" font-size="14.00">ITF&#45;B_5v</text>
</g>
<!-- ITF&#45;B_5v&#45;&gt;cletus -->
<g id="edge16" class="edge"><title>ITF&#45;B_5v&#45;&gt;cletus</title>
<path fill="none" stroke="black" d="M3853.11,-77.731C3824.02,-67.9485 3780.75,-53.1574 3734.75,-36.2128"/>
<polygon fill="black" stroke="black" points="3735.8,-32.8701 3725.21,-32.6809 3733.37,-39.4348 3735.8,-32.8701"/>
</g>
<!-- ITF&#45;B_5v&#45;&gt;loftus -->
<g id="edge61" class="edge"><title>ITF&#45;B_5v&#45;&gt;loftus</title>
<path fill="none" stroke="black" d="M3863.93,-74.3257C3849.02,-64.8349 3829.31,-52.2928 3812.43,-41.5499"/>
<polygon fill="black" stroke="black" points="3814.21,-38.5378 3803.9,-36.1218 3810.46,-44.4434 3814.21,-38.5378"/>
</g>
<!-- ITF&#45;N_cc_motor_pwm -->
<g id="node23" class="node"><title>ITF&#45;N_cc_motor_pwm</title>
<ellipse fill="yellow" stroke="black" cx="4163.99" cy="-90" rx="93.6835" ry="18"/>
<text text-anchor="middle" x="4163.99" y="-86.3" font-family="Times,serif" font-size="14.00">ITF&#45;N_cc_motor_pwm</text>
</g>
<!-- ITF&#45;N_cc_motor_pwm&#45;&gt;cletus -->
<g id="edge17" class="edge"><title>ITF&#45;N_cc_motor_pwm&#45;&gt;cletus</title>
<path fill="none" stroke="black" d="M4097.14,-77.3087C4085.44,-75.4202 4073.37,-73.5718 4061.99,-72 3919.98,-52.388 3878.21,-70.4247 3735.47,-36.0029"/>
<polygon fill="black" stroke="black" points="3736.01,-32.5327 3725.47,-33.546 3734.34,-39.3306 3736.01,-32.5327"/>
</g>
<!-- ITF&#45;N_cc_motor_pwm&#45;&gt;retroATL3 -->
<g id="edge43" class="edge"><title>ITF&#45;N_cc_motor_pwm&#45;&gt;retroATL3</title>
<path fill="none" stroke="black" d="M4200.57,-73.2906C4223.46,-63.4613 4253.22,-50.6801 4278.12,-39.9883"/>
<polygon fill="black" stroke="black" points="4279.59,-43.1654 4287.4,-36.0033 4276.83,-36.7334 4279.59,-43.1654"/>
</g>
<!-- ITF&#45;N_cc_motor_pwm&#45;&gt;loftus -->
<g id="edge62" class="edge"><title>ITF&#45;N_cc_motor_pwm&#45;&gt;loftus</title>
<path fill="none" stroke="black" d="M4098.34,-77.1255C4019.17,-62.8041 3888.3,-39.1328 3820.59,-26.8855"/>
<polygon fill="black" stroke="black" points="3821.14,-23.4283 3810.67,-25.0924 3819.89,-30.3165 3821.14,-23.4283"/>
</g>
<!-- ITF&#45;S_3_3v -->
<g id="node24" class="node"><title>ITF&#45;S_3_3v</title>
<ellipse fill="yellow" stroke="black" cx="3416.99" cy="-90" rx="53.8905" ry="18"/>
<text text-anchor="middle" x="3416.99" y="-86.3" font-family="Times,serif" font-size="14.00">ITF&#45;S_3_3v</text>
</g>
<!-- ITF&#45;S_3_3v&#45;&gt;cletus -->
<g id="edge18" class="edge"><title>ITF&#45;S_3_3v&#45;&gt;cletus</title>
<path fill="none" stroke="black" d="M3457.29,-78.0125C3464.83,-75.9896 3472.65,-73.9133 3479.99,-72 3537.68,-56.9715 3604.45,-40.3263 3647.17,-29.7716"/>
<polygon fill="black" stroke="black" points="3648.09,-33.1489 3656.96,-27.3545 3646.41,-26.3529 3648.09,-33.1489"/>
</g>
<!-- ITF&#45;S_3_3v&#45;&gt;loftus -->
<g id="edge63" class="edge"><title>ITF&#45;S_3_3v&#45;&gt;loftus</title>
<path fill="none" stroke="black" d="M3456.47,-77.5519C3464.23,-75.5282 3472.33,-73.5697 3479.99,-72 3588.52,-49.7532 3621.89,-64.2837 3733.48,-35.7382"/>
<polygon fill="black" stroke="black" points="3734.66,-39.0491 3743.44,-33.1306 3732.88,-32.2773 3734.66,-39.0491"/>
</g>
<!-- ITF&#45;mET_Piezo -->
<g id="node25" class="node"><title>ITF&#45;mET_Piezo</title>
<ellipse fill="green" stroke="black" cx="3557.99" cy="-90" rx="68.7879" ry="18"/>
<text text-anchor="middle" x="3557.99" y="-86.3" font-family="Times,serif" font-size="14.00">ITF&#45;mET_Piezo</text>
</g>
<!-- ITF&#45;mET_Piezo&#45;&gt;cletus -->
<g id="edge20" class="edge"><title>ITF&#45;mET_Piezo&#45;&gt;cletus</title>
<path fill="none" stroke="black" d="M3582.41,-73.1159C3600.68,-62.8802 3625.98,-49.498 3647.62,-38.6024"/>
<polygon fill="black" stroke="black" points="3649.25,-41.6994 3656.63,-34.1014 3646.12,-35.4364 3649.25,-41.6994"/>
</g>
<!-- ITF&#45;mET_Piezo&#45;&gt;cletus -->
<g id="edge21" class="edge"><title>ITF&#45;mET_Piezo&#45;&gt;cletus</title>
<path fill="none" stroke="black" d="M3591.83,-74.1548C3611.34,-64.5233 3635.73,-51.8029 3655.5,-41.0054"/>
<polygon fill="black" stroke="black" points="3657.44,-43.9339 3664.5,-36.04 3654.06,-37.8041 3657.44,-43.9339"/>
</g>
<!-- ITF&#45;mET_Piezo&#45;&gt;loftus -->
<g id="edge65" class="edge"><title>ITF&#45;mET_Piezo&#45;&gt;loftus</title>
<path fill="none" stroke="black" d="M3599.41,-75.4657C3633.42,-65.3492 3682.49,-50.7713 3724.99,-36 3727.86,-35.0043 3730.81,-33.9323 3733.8,-32.8281"/>
<polygon fill="black" stroke="black" points="3735.23,-36.0297 3743.37,-29.2458 3732.78,-29.4741 3735.23,-36.0297"/>
</g>
<!-- ITF&#45;mET_Piezo&#45;&gt;loftus -->
<g id="edge66" class="edge"><title>ITF&#45;mET_Piezo&#45;&gt;loftus</title>
<path fill="none" stroke="black" d="M3607.46,-77.3472C3642.48,-67.9222 3690.45,-53.8667 3733.72,-39.1821"/>
<polygon fill="black" stroke="black" points="3735.13,-42.3993 3743.45,-35.8412 3732.85,-35.7787 3735.13,-42.3993"/>
</g>
<!-- ITF&#45;3_ENV -->
<g id="node26" class="node"><title>ITF&#45;3_ENV</title>
<ellipse fill="yellow" stroke="black" cx="1968.99" cy="-90" rx="53.8905" ry="18"/>
<text text-anchor="middle" x="1968.99" y="-86.3" font-family="Times,serif" font-size="14.00">ITF&#45;3_ENV</text>
</g>
<!-- ITF&#45;3_ENV&#45;&gt;tomtom -->
<g id="edge25" class="edge"><title>ITF&#45;3_ENV&#45;&gt;tomtom</title>
<path fill="none" stroke="black" d="M2007.37,-77.3141C2015.44,-75.2335 2023.94,-73.3139 2031.99,-72 2342.96,-21.2442 2722.71,-17.8165 2860.68,-18.4445"/>
<polygon fill="black" stroke="black" points="2860.95,-21.9459 2870.97,-18.501 2860.99,-14.946 2860.95,-21.9459"/>
</g>
<!-- ITF&#45;3_ENV&#45;&gt;croaker -->
<g id="edge32" class="edge"><title>ITF&#45;3_ENV&#45;&gt;croaker</title>
<path fill="none" stroke="black" d="M1930.63,-77.2487C1922.56,-75.1728 1914.05,-73.2717 1905.99,-72 1855.28,-63.996 1095.32,-30.3074 888.577,-21.25"/>
<polygon fill="black" stroke="black" points="888.729,-17.7534 878.586,-20.8126 888.423,-24.7467 888.729,-17.7534"/>
</g>
<!-- ITF&#45;3_ENV&#45;&gt;goblin -->
<g id="edge54" class="edge"><title>ITF&#45;3_ENV&#45;&gt;goblin</title>
<path fill="none" stroke="black" d="M1990.1,-73.1159C2002.26,-63.963 2017.76,-52.2942 2031.25,-42.1371"/>
<polygon fill="black" stroke="black" points="2033.46,-44.8544 2039.35,-36.0442 2029.25,-39.2616 2033.46,-44.8544"/>
</g>
<!-- ITF&#45;15_GPIO21 -->
<g id="node27" class="node"><title>ITF&#45;15_GPIO21</title>
<ellipse fill="yellow" stroke="black" cx="3275.99" cy="-90" rx="69.5877" ry="18"/>
<text text-anchor="middle" x="3275.99" y="-86.3" font-family="Times,serif" font-size="14.00">ITF&#45;15_GPIO21</text>
</g>
<!-- ITF&#45;15_GPIO21&#45;&gt;tomtom -->
<g id="edge26" class="edge"><title>ITF&#45;15_GPIO21&#45;&gt;tomtom</title>
<path fill="none" stroke="black" d="M3224.61,-77.7351C3215.42,-75.7799 3205.93,-73.7987 3196.99,-72 3117.02,-55.9092 3024,-38.7945 2967.07,-28.5008"/>
<polygon fill="black" stroke="black" points="2967.67,-25.0543 2957.21,-26.7222 2966.43,-31.943 2967.67,-25.0543"/>
</g>
<!-- ITF&#45;16_POn3 -->
<g id="node28" class="node"><title>ITF&#45;16_POn3</title>
<ellipse fill="yellow" stroke="black" cx="2913.99" cy="-90" rx="59.5901" ry="18"/>
<text text-anchor="middle" x="2913.99" y="-86.3" font-family="Times,serif" font-size="14.00">ITF&#45;16_POn3</text>
</g>
<!-- ITF&#45;16_POn3&#45;&gt;tomtom -->
<g id="edge27" class="edge"><title>ITF&#45;16_POn3&#45;&gt;tomtom</title>
<path fill="none" stroke="black" d="M2908.11,-72.055C2907.3,-64.3456 2907.05,-55.0269 2907.39,-46.3642"/>
<polygon fill="black" stroke="black" points="2910.89,-46.4915 2908.08,-36.2753 2903.9,-46.0122 2910.89,-46.4915"/>
</g>
<!-- ITF&#45;16_POn3&#45;&gt;tomtom -->
<g id="edge28" class="edge"><title>ITF&#45;16_POn3&#45;&gt;tomtom</title>
<path fill="none" stroke="black" d="M2919.87,-72.055C2920.69,-64.3456 2920.93,-55.0269 2920.6,-46.3642"/>
<polygon fill="black" stroke="black" points="2924.08,-46.0122 2919.9,-36.2753 2917.1,-46.4915 2924.08,-46.0122"/>
</g>
<!-- ITF&#45;17_POff3 -->
<g id="node29" class="node"><title>ITF&#45;17_POff3</title>
<ellipse fill="yellow" stroke="black" cx="2350.99" cy="-90" rx="61.99" ry="18"/>
<text text-anchor="middle" x="2350.99" y="-86.3" font-family="Times,serif" font-size="14.00">ITF&#45;17_POff3</text>
</g>
<!-- ITF&#45;17_POff3&#45;&gt;tomtom -->
<g id="edge29" class="edge"><title>ITF&#45;17_POff3&#45;&gt;tomtom</title>
<path fill="none" stroke="black" d="M2395.5,-77.4238C2404.24,-75.4112 2413.37,-73.4896 2421.99,-72 2580.54,-44.5952 2770.42,-28.9221 2860.94,-22.4825"/>
<polygon fill="black" stroke="black" points="2861.23,-25.9712 2870.96,-21.779 2860.74,-18.9884 2861.23,-25.9712"/>
</g>
<!-- ITF&#45;17_POff3&#45;&gt;silent -->
<g id="edge70" class="edge"><title>ITF&#45;17_POff3&#45;&gt;silent</title>
<path fill="none" stroke="black" d="M2306.89,-77.3511C2298.03,-75.32 2288.75,-73.4101 2279.99,-72 2061.42,-36.8151 1796.04,-24.1398 1694.39,-20.372"/>
<polygon fill="black" stroke="black" points="1694.34,-16.8681 1684.22,-20.0048 1694.09,-23.8635 1694.34,-16.8681"/>
</g>
<!-- ITF&#45;14_PWM -->
<g id="node30" class="node"><title>ITF&#45;14_PWM</title>
<ellipse fill="yellow" stroke="black" cx="3053.99" cy="-90" rx="61.99" ry="18"/>
<text text-anchor="middle" x="3053.99" y="-86.3" font-family="Times,serif" font-size="14.00">ITF&#45;14_PWM</text>
</g>
<!-- ITF&#45;14_PWM&#45;&gt;tomtom -->
<g id="edge30" class="edge"><title>ITF&#45;14_PWM&#45;&gt;tomtom</title>
<path fill="none" stroke="black" d="M3024.3,-74.1548C3004.78,-64.3926 2978.91,-51.4569 2957.13,-40.5668"/>
<polygon fill="black" stroke="black" points="2958.58,-37.3817 2948.07,-36.04 2955.45,-43.6427 2958.58,-37.3817"/>
</g>
<!-- Wifi -->
<g id="node31" class="node"><title>Wifi</title>
<ellipse fill="yellow" stroke="black" cx="3160.99" cy="-90" rx="27.0966" ry="18"/>
<text text-anchor="middle" x="3160.99" y="-86.3" font-family="Times,serif" font-size="14.00">Wifi</text>
</g>
<!-- Wifi&#45;&gt;tomtom -->
<g id="edge31" class="edge"><title>Wifi&#45;&gt;tomtom</title>
<path fill="none" stroke="black" d="M3139.96,-78.2301C3135.12,-75.9871 3129.94,-73.7698 3124.99,-72 3072.48,-53.2097 3010.35,-38.4628 2967.16,-29.3464"/>
<polygon fill="black" stroke="black" points="2967.66,-25.8749 2957.15,-27.2632 2966.23,-32.728 2967.66,-25.8749"/>
</g>
<!-- ITF&#45;mED&#45;TFT&#45;Screen -->
<g id="node32" class="node"><title>ITF&#45;mED&#45;TFT&#45;Screen</title>
<ellipse fill="green" stroke="black" cx="90.9919" cy="-90" rx="90.9839" ry="18"/>
<text text-anchor="middle" x="90.9919" y="-86.3" font-family="Times,serif" font-size="14.00">ITF&#45;mED&#45;TFT&#45;Screen</text>
</g>
<!-- ITF&#45;mED&#45;TFT&#45;Screen&#45;&gt;croaker -->
<g id="edge38" class="edge"><title>ITF&#45;mED&#45;TFT&#45;Screen&#45;&gt;croaker</title>
<path fill="none" stroke="black" d="M155.422,-77.2042C167.228,-75.283 179.46,-73.4505 190.992,-72 411.099,-44.3144 675.299,-27.8388 785.153,-21.7262"/>
<polygon fill="black" stroke="black" points="785.504,-25.2123 795.296,-21.167 785.118,-18.2229 785.504,-25.2123"/>
</g>
<!-- ITF&#45;mED&#45;OLED&#45;Screen -->
<g id="node33" class="node"><title>ITF&#45;mED&#45;OLED&#45;Screen</title>
<ellipse fill="green" stroke="black" cx="298.992" cy="-90" rx="98.5829" ry="18"/>
<text text-anchor="middle" x="298.992" y="-86.3" font-family="Times,serif" font-size="14.00">ITF&#45;mED&#45;OLED&#45;Screen</text>
</g>
<!-- ITF&#45;mED&#45;OLED&#45;Screen&#45;&gt;croaker -->
<g id="edge39" class="edge"><title>ITF&#45;mED&#45;OLED&#45;Screen&#45;&gt;croaker</title>
<path fill="none" stroke="black" d="M369.733,-77.4007C381.819,-75.5221 394.258,-73.6531 405.992,-72 542.452,-52.7755 703.781,-33.9831 784.891,-24.8073"/>
<polygon fill="black" stroke="black" points="785.777,-28.2296 795.321,-23.6303 784.992,-21.2737 785.777,-28.2296"/>
</g>
<!-- ITF&#45;mEC&#45;WiFi&#45;UDP&#45;Stream -->
<g id="node34" class="node"><title>ITF&#45;mEC&#45;WiFi&#45;UDP&#45;Stream</title>
<ellipse fill="green" stroke="black" cx="530.992" cy="-90" rx="115.88" ry="18"/>
<text text-anchor="middle" x="530.992" y="-86.3" font-family="Times,serif" font-size="14.00">ITF&#45;mEC&#45;WiFi&#45;UDP&#45;Stream</text>
</g>
<!-- ITF&#45;mEC&#45;WiFi&#45;UDP&#45;Stream&#45;&gt;croaker -->
<g id="edge40" class="edge"><title>ITF&#45;mEC&#45;WiFi&#45;UDP&#45;Stream&#45;&gt;croaker</title>
<path fill="none" stroke="black" d="M593.284,-74.7501C649.922,-61.7939 732.513,-42.9004 785.503,-30.7786"/>
<polygon fill="black" stroke="black" points="786.397,-34.1645 795.364,-28.5226 784.836,-27.3408 786.397,-34.1645"/>
</g>
<!-- ITF&#45;F_12V -->
<g id="node35" class="node"><title>ITF&#45;F_12V</title>
<ellipse fill="yellow" stroke="black" cx="4326.99" cy="-90" rx="51.1914" ry="18"/>
<text text-anchor="middle" x="4326.99" y="-86.3" font-family="Times,serif" font-size="14.00">ITF&#45;F_12V</text>
</g>
<!-- ITF&#45;F_12V&#45;&gt;retroATL3 -->
<g id="edge42" class="edge"><title>ITF&#45;F_12V&#45;&gt;retroATL3</title>
<path fill="none" stroke="black" d="M4326.99,-71.6966C4326.99,-63.9827 4326.99,-54.7125 4326.99,-46.1124"/>
<polygon fill="black" stroke="black" points="4330.49,-46.1043 4326.99,-36.1043 4323.49,-46.1044 4330.49,-46.1043"/>
</g>
<!-- Motor -->
<g id="node36" class="node"><title>Motor</title>
<ellipse fill="yellow" stroke="black" cx="4428.99" cy="-90" rx="33.2948" ry="18"/>
<text text-anchor="middle" x="4428.99" y="-86.3" font-family="Times,serif" font-size="14.00">Motor</text>
</g>
<!-- Motor&#45;&gt;retroATL3 -->
<g id="edge45" class="edge"><title>Motor&#45;&gt;retroATL3</title>
<path fill="none" stroke="black" d="M4405.96,-76.8069C4390.62,-67.2884 4370.56,-53.7838 4354.43,-42.2209"/>
<polygon fill="black" stroke="black" points="4356.07,-39.0869 4345.93,-36.0344 4351.95,-44.7475 4356.07,-39.0869"/>
</g>
<!-- Motor&#45;&gt;retroATL3 -->
<g id="edge47" class="edge"><title>Motor&#45;&gt;retroATL3</title>
<path fill="none" stroke="black" d="M4413,-74.1548C4400.46,-64.7412 4382.68,-52.3769 4366.5,-41.7412"/>
<polygon fill="black" stroke="black" points="4368,-38.5469 4357.71,-36.04 4364.19,-44.4192 4368,-38.5469"/>
</g>
<!-- Tri&#45;Piezo Head -->
<g id="node37" class="node"><title>Tri&#45;Piezo Head</title>
<ellipse fill="yellow" stroke="black" cx="4544.99" cy="-90" rx="64.9885" ry="18"/>
<text text-anchor="middle" x="4544.99" y="-86.3" font-family="Times,serif" font-size="14.00">Tri&#45;Piezo Head</text>
</g>
<!-- Tri&#45;Piezo Head&#45;&gt;retroATL3 -->
<g id="edge46" class="edge"><title>Tri&#45;Piezo Head&#45;&gt;retroATL3</title>
<path fill="none" stroke="black" d="M4501.23,-76.6465C4467.45,-66.306 4420.55,-51.3438 4383.88,-39.2541"/>
<polygon fill="black" stroke="black" points="4384.91,-35.9064 4374.31,-36.0872 4382.71,-42.5519 4384.91,-35.9064"/>
</g>
<!-- Tri&#45;Piezo Head&#45;&gt;retroATL3 -->
<g id="edge49" class="edge"><title>Tri&#45;Piezo Head&#45;&gt;retroATL3</title>
<path fill="none" stroke="black" d="M4507.43,-75.1703C4476.16,-64.6731 4431,-50.1063 4393.64,-38.4374"/>
<polygon fill="black" stroke="black" points="4394.42,-35.0137 4383.83,-35.3836 4392.34,-41.6975 4394.42,-35.0137"/>
</g>
<!-- ITF&#45;7_GAIN -->
<g id="node38" class="node"><title>ITF&#45;7_GAIN</title>
<ellipse fill="yellow" stroke="black" cx="2632.99" cy="-90" rx="57.6901" ry="18"/>
<text text-anchor="middle" x="2632.99" y="-86.3" font-family="Times,serif" font-size="14.00">ITF&#45;7_GAIN</text>
</g>
<!-- ITF&#45;7_GAIN&#45;&gt;goblin -->
<g id="edge52" class="edge"><title>ITF&#45;7_GAIN&#45;&gt;goblin</title>
<path fill="none" stroke="black" d="M2591.38,-77.4557C2583.02,-75.416 2574.26,-73.4761 2565.99,-72 2399.57,-42.2953 2199.05,-27.324 2109.36,-21.7032"/>
<polygon fill="black" stroke="black" points="2109.44,-18.2012 2099.24,-21.0792 2109,-25.188 2109.44,-18.2012"/>
</g>
<!-- ITF&#45;4_RawSig -->
<g id="node39" class="node"><title>ITF&#45;4_RawSig</title>
<ellipse fill="yellow" stroke="black" cx="2772.99" cy="-90" rx="63.8893" ry="18"/>
<text text-anchor="middle" x="2772.99" y="-86.3" font-family="Times,serif" font-size="14.00">ITF&#45;4_RawSig</text>
</g>
<!-- ITF&#45;4_RawSig&#45;&gt;goblin -->
<g id="edge53" class="edge"><title>ITF&#45;4_RawSig&#45;&gt;goblin</title>
<path fill="none" stroke="black" d="M2723.96,-78.4989C2713.09,-76.0527 2701.66,-73.6764 2690.99,-72 2475.24,-38.1017 2214.8,-25.0162 2109.47,-20.7647"/>
<polygon fill="black" stroke="black" points="2109.3,-17.2555 2099.17,-20.3574 2109.03,-24.25 2109.3,-17.2555"/>
</g>
<!-- ITF&#45;4_RawSig&#45;&gt;goblin -->
<g id="edge57" class="edge"><title>ITF&#45;4_RawSig&#45;&gt;goblin</title>
<path fill="none" stroke="black" d="M2731.42,-76.24C2724,-74.6326 2716.32,-73.1512 2708.99,-72 2486.64,-37.0658 2216.84,-24.2358 2109.34,-20.3993"/>
<polygon fill="black" stroke="black" points="2109.27,-16.8947 2099.15,-20.0455 2109.02,-23.8904 2109.27,-16.8947"/>
</g>
<!-- ITF&#45;3_ENV_signal_envelope -->
<g id="node40" class="node"><title>ITF&#45;3_ENV_signal_envelope</title>
<ellipse fill="yellow" stroke="black" cx="2155.99" cy="-90" rx="115.08" ry="18"/>
<text text-anchor="middle" x="2155.99" y="-86.3" font-family="Times,serif" font-size="14.00">ITF&#45;3_ENV_signal_envelope</text>
</g>
<!-- ITF&#45;3_ENV_signal_envelope&#45;&gt;goblin -->
<g id="edge58" class="edge"><title>ITF&#45;3_ENV_signal_envelope&#45;&gt;goblin</title>
<path fill="none" stroke="black" d="M2133.24,-72.055C2121.2,-63.0932 2106.25,-51.9567 2093.15,-42.204"/>
<polygon fill="black" stroke="black" points="2094.97,-39.1972 2084.86,-36.0316 2090.79,-44.8115 2094.97,-39.1972"/>
</g>
<!-- ITF&#45;mEG_SPI -->
<g id="node41" class="node"><title>ITF&#45;mEG_SPI</title>
<ellipse fill="green" stroke="black" cx="2493.99" cy="-90" rx="63.0888" ry="18"/>
<text text-anchor="middle" x="2493.99" y="-86.3" font-family="Times,serif" font-size="14.00">ITF&#45;mEG_SPI</text>
</g>
<!-- ITF&#45;mEG_SPI&#45;&gt;goblin -->
<g id="edge59" class="edge"><title>ITF&#45;mEG_SPI&#45;&gt;goblin</title>
<path fill="none" stroke="black" d="M2448.03,-77.5277C2439.4,-75.5519 2430.44,-73.6169 2421.99,-72 2310.59,-50.6893 2178.39,-33.2023 2109.34,-24.6571"/>
<polygon fill="black" stroke="black" points="2109.58,-21.1591 2099.22,-23.4124 2108.72,-28.1068 2109.58,-21.1591"/>
</g>
</g>
</svg>
