<?xml version="1.0" encoding="UTF-8" standalone="no"?>
<!DOCTYPE svg PUBLIC "-//W3C//DTD SVG 1.1//EN"
 "http://www.w3.org/Graphics/SVG/1.1/DTD/svg11.dtd">
<!-- Generated by graphviz version 2.38.0 (20140413.2041)
 -->
<!-- Title: %3 Pages: 1 -->
<svg width="1553pt" height="908pt"
 viewBox="0.00 0.00 1553.00 908.00" xmlns="http://www.w3.org/2000/svg" xmlns:xlink="http://www.w3.org/1999/xlink">
<g id="graph0" class="graph" transform="scale(1 1) rotate(0) translate(4 904)">
<title>%3</title>
<polygon fill="white" stroke="none" points="-4,4 -4,-904 1549,-904 1549,4 -4,4"/>
<!-- sleepy -->
<g id="node1" class="node"><title>sleepy</title>
<polygon fill="blue" stroke="black" points="688.5,-900 615.5,-900 615.5,-864 688.5,-864 688.5,-900"/>
<text text-anchor="middle" x="652" y="-876.4" font-family="Times,serif" font-size="22.00">sleepy</text>
</g>
<!-- tobo -->
<g id="node2" class="node"><title>tobo</title>
<polygon fill="blue" stroke="black" points="936,-684 880,-684 880,-648 936,-648 936,-684"/>
<text text-anchor="middle" x="908" y="-660.4" font-family="Times,serif" font-size="22.00">tobo</text>
</g>
<!-- ITF&#45;mET_Transducer -->
<g id="node18" class="node"><title>ITF&#45;mET_Transducer</title>
<ellipse fill="green" stroke="black" cx="1314" cy="-162" rx="89.0842" ry="18"/>
<text text-anchor="middle" x="1314" y="-158.3" font-family="Times,serif" font-size="14.00">ITF&#45;mET_Transducer</text>
</g>
<!-- tobo&#45;&gt;ITF&#45;mET_Transducer -->
<g id="edge9" class="edge"><title>tobo&#45;&gt;ITF&#45;mET_Transducer</title>
<path fill="none" stroke="black" d="M936.048,-655.707C1026.88,-626.848 1306,-535.622 1306,-451 1306,-451 1306,-451 1306,-305 1306,-264.995 1305.6,-218.652 1307.6,-190.079"/>
<polygon fill="red" stroke="black" points="1311.09,-190.319 1308.49,-180.049 1304.12,-189.701 1311.09,-190.319"/>
</g>
<!-- ITF&#45;R_reserved -->
<g id="node19" class="node"><title>ITF&#45;R_reserved</title>
<ellipse fill="yellow" stroke="black" cx="908" cy="-594" rx="66.8882" ry="18"/>
<text text-anchor="middle" x="908" y="-590.3" font-family="Times,serif" font-size="14.00">ITF&#45;R_reserved</text>
</g>
<!-- tobo&#45;&gt;ITF&#45;R_reserved -->
<g id="edge7" class="edge"><title>tobo&#45;&gt;ITF&#45;R_reserved</title>
<path fill="none" stroke="black" d="M908,-647.697C908,-639.983 908,-630.712 908,-622.112"/>
<polygon fill="red" stroke="black" points="911.5,-622.104 908,-612.104 904.5,-622.104 911.5,-622.104"/>
</g>
<!-- ITF&#45;mET_SMA -->
<g id="node20" class="node"><title>ITF&#45;mET_SMA</title>
<ellipse fill="green" stroke="black" cx="716" cy="-594" rx="68.7879" ry="18"/>
<text text-anchor="middle" x="716" y="-590.3" font-family="Times,serif" font-size="14.00">ITF&#45;mET_SMA</text>
</g>
<!-- tobo&#45;&gt;ITF&#45;mET_SMA -->
<g id="edge8" class="edge"><title>tobo&#45;&gt;ITF&#45;mET_SMA</title>
<path fill="none" stroke="black" d="M879.67,-654.671C849.219,-643.57 800.288,-625.73 763.848,-612.444"/>
<polygon fill="red" stroke="black" points="764.994,-609.137 754.4,-609 762.596,-615.714 764.994,-609.137"/>
</g>
<!-- cletus -->
<g id="node3" class="node"><title>cletus</title>
<polygon fill="blue" stroke="black" points="803,-108 735,-108 735,-72 803,-72 803,-108"/>
<text text-anchor="middle" x="769" y="-84.4" font-family="Times,serif" font-size="22.00">cletus</text>
</g>
<!-- cletus&#45;&gt;ITF&#45;mET_Transducer -->
<g id="edge17" class="edge"><title>cletus&#45;&gt;ITF&#45;mET_Transducer</title>
<path fill="none" stroke="black" d="M803.027,-94.9426C888.042,-105.365 1111.09,-133.938 1232.51,-149.879"/>
<polygon fill="red" stroke="black" points="1232.13,-153.36 1242.51,-151.193 1233.05,-146.42 1232.13,-153.36"/>
</g>
<!-- ITF&#45;mET_Piezo -->
<g id="node22" class="node"><title>ITF&#45;mET_Piezo</title>
<ellipse fill="green" stroke="black" cx="769" cy="-18" rx="68.7879" ry="18"/>
<text text-anchor="middle" x="769" y="-14.3" font-family="Times,serif" font-size="14.00">ITF&#45;mET_Piezo</text>
</g>
<!-- cletus&#45;&gt;ITF&#45;mET_Piezo -->
<g id="edge16" class="edge"><title>cletus&#45;&gt;ITF&#45;mET_Piezo</title>
<path fill="none" stroke="black" d="M763.084,-71.6966C762.289,-63.9827 762.062,-54.7125 762.405,-46.1124"/>
<polygon fill="red" stroke="black" points="765.898,-46.3243 763.105,-36.1043 758.915,-45.8356 765.898,-46.3243"/>
</g>
<!-- doj -->
<g id="node4" class="node"><title>doj</title>
<polygon fill="blue" stroke="black" points="1096,-900 1042,-900 1042,-864 1096,-864 1096,-900"/>
<text text-anchor="middle" x="1069" y="-876.4" font-family="Times,serif" font-size="22.00">doj</text>
</g>
<!-- oneeye -->
<g id="node5" class="node"><title>oneeye</title>
<polygon fill="blue" stroke="black" points="511,-684 431,-684 431,-648 511,-648 511,-684"/>
<text text-anchor="middle" x="471" y="-660.4" font-family="Times,serif" font-size="22.00">oneeye</text>
</g>
<!-- ITF&#45;I_pulse_on -->
<g id="node15" class="node"><title>ITF&#45;I_pulse_on</title>
<ellipse fill="yellow" stroke="black" cx="605" cy="-306" rx="65.7887" ry="18"/>
<text text-anchor="middle" x="605" y="-302.3" font-family="Times,serif" font-size="14.00">ITF&#45;I_pulse_on</text>
</g>
<!-- oneeye&#45;&gt;ITF&#45;I_pulse_on -->
<g id="edge22" class="edge"><title>oneeye&#45;&gt;ITF&#45;I_pulse_on</title>
<path fill="none" stroke="black" d="M430.969,-652.329C411.957,-644.069 391.025,-631.179 380,-612 372.026,-598.128 373.203,-590.484 380,-576 411.912,-508.001 461.304,-525.193 510,-468 546.384,-425.267 576.962,-366.801 592.976,-333.357"/>
<polygon fill="red" stroke="black" points="596.183,-334.761 597.284,-324.224 589.852,-331.775 596.183,-334.761"/>
</g>
<!-- ITF&#45;J_pulse_off -->
<g id="node16" class="node"><title>ITF&#45;J_pulse_off</title>
<ellipse fill="yellow" stroke="black" cx="814" cy="-162" rx="67.6881" ry="18"/>
<text text-anchor="middle" x="814" y="-158.3" font-family="Times,serif" font-size="14.00">ITF&#45;J_pulse_off</text>
</g>
<!-- oneeye&#45;&gt;ITF&#45;J_pulse_off -->
<g id="edge23" class="edge"><title>oneeye&#45;&gt;ITF&#45;J_pulse_off</title>
<path fill="none" stroke="black" d="M501.788,-647.852C535.074,-629.488 589.835,-599.78 638,-576 713.614,-538.668 752.493,-541.405 794,-468 813.909,-432.792 813,-419.447 813,-379 813,-379 813,-379 813,-305 813,-264.995 813.402,-218.652 813.696,-190.079"/>
<polygon fill="red" stroke="black" points="817.196,-190.086 813.802,-180.049 810.196,-190.011 817.196,-190.086"/>
</g>
<!-- ITF&#45;N_cc_motor_pwm -->
<g id="node21" class="node"><title>ITF&#45;N_cc_motor_pwm</title>
<ellipse fill="yellow" stroke="black" cx="434" cy="-162" rx="93.6835" ry="18"/>
<text text-anchor="middle" x="434" y="-158.3" font-family="Times,serif" font-size="14.00">ITF&#45;N_cc_motor_pwm</text>
</g>
<!-- oneeye&#45;&gt;ITF&#45;N_cc_motor_pwm -->
<g id="edge24" class="edge"><title>oneeye&#45;&gt;ITF&#45;N_cc_motor_pwm</title>
<path fill="none" stroke="black" d="M430.613,-651.05C410.337,-642.392 386.62,-629.534 370,-612 321.567,-560.905 319.012,-536.783 304,-468 300.588,-452.368 300.429,-447.596 304,-432 309.879,-406.324 388.279,-252.027 420.41,-189.393"/>
<polygon fill="red" stroke="black" points="423.696,-190.656 425.151,-180.162 417.469,-187.458 423.696,-190.656"/>
</g>
<!-- ITF&#45;G_gain_control -->
<g id="node23" class="node"><title>ITF&#45;G_gain_control</title>
<ellipse fill="yellow" stroke="black" cx="471" cy="-594" rx="81.7856" ry="18"/>
<text text-anchor="middle" x="471" y="-590.3" font-family="Times,serif" font-size="14.00">ITF&#45;G_gain_control</text>
</g>
<!-- oneeye&#45;&gt;ITF&#45;G_gain_control -->
<g id="edge21" class="edge"><title>oneeye&#45;&gt;ITF&#45;G_gain_control</title>
<path fill="none" stroke="black" d="M471,-647.697C471,-639.983 471,-630.712 471,-622.112"/>
<polygon fill="red" stroke="black" points="474.5,-622.104 471,-612.104 467.5,-622.104 474.5,-622.104"/>
</g>
<!-- croaker -->
<g id="node6" class="node"><title>croaker</title>
<polygon fill="blue" stroke="black" points="1089.5,-396 1006.5,-396 1006.5,-360 1089.5,-360 1089.5,-396"/>
<text text-anchor="middle" x="1048" y="-372.4" font-family="Times,serif" font-size="22.00">croaker</text>
</g>
<!-- croaker&#45;&gt;ITF&#45;I_pulse_on -->
<g id="edge30" class="edge"><title>croaker&#45;&gt;ITF&#45;I_pulse_on</title>
<path fill="none" stroke="black" d="M1006.32,-370.415C928.991,-358.195 762.765,-331.929 670.348,-317.326"/>
<polygon fill="red" stroke="black" points="670.698,-313.838 660.274,-315.734 669.605,-320.752 670.698,-313.838"/>
</g>
<!-- croaker&#45;&gt;ITF&#45;J_pulse_off -->
<g id="edge31" class="edge"><title>croaker&#45;&gt;ITF&#45;J_pulse_off</title>
<path fill="none" stroke="black" d="M1046.19,-359.854C1043.59,-341.094 1037.53,-310.677 1024,-288 1000.16,-248.042 987.235,-241.011 948,-216 923.308,-200.26 893.183,-187.834 867.755,-178.981"/>
<polygon fill="red" stroke="black" points="868.855,-175.659 858.26,-175.764 866.608,-182.288 868.855,-175.659"/>
</g>
<!-- ITF&#45;mED&#45;TFT&#45;Screen -->
<g id="node25" class="node"><title>ITF&#45;mED&#45;TFT&#45;Screen</title>
<ellipse fill="green" stroke="black" cx="637" cy="-162" rx="90.9839" ry="18"/>
<text text-anchor="middle" x="637" y="-158.3" font-family="Times,serif" font-size="14.00">ITF&#45;mED&#45;TFT&#45;Screen</text>
</g>
<!-- croaker&#45;&gt;ITF&#45;mED&#45;TFT&#45;Screen -->
<g id="edge28" class="edge"><title>croaker&#45;&gt;ITF&#45;mED&#45;TFT&#45;Screen</title>
<path fill="none" stroke="black" d="M1015.06,-359.849C940.227,-320.884 757.649,-225.819 676.73,-183.687"/>
<polygon fill="red" stroke="black" points="678.325,-180.571 667.839,-179.057 675.093,-186.78 678.325,-180.571"/>
</g>
<!-- ITF&#45;mEC&#45;WiFi&#45;UDP&#45;Stream -->
<g id="node26" class="node"><title>ITF&#45;mEC&#45;WiFi&#45;UDP&#45;Stream</title>
<ellipse fill="green" stroke="black" cx="1015" cy="-162" rx="115.88" ry="18"/>
<text text-anchor="middle" x="1015" y="-158.3" font-family="Times,serif" font-size="14.00">ITF&#45;mEC&#45;WiFi&#45;UDP&#45;Stream</text>
</g>
<!-- croaker&#45;&gt;ITF&#45;mEC&#45;WiFi&#45;UDP&#45;Stream -->
<g id="edge29" class="edge"><title>croaker&#45;&gt;ITF&#45;mEC&#45;WiFi&#45;UDP&#45;Stream</title>
<path fill="none" stroke="black" d="M1054.24,-359.876C1064.22,-329.705 1080.82,-265.577 1062,-216 1057.92,-205.26 1050.57,-195.302 1042.86,-186.984"/>
<polygon fill="red" stroke="black" points="1045.3,-184.472 1035.78,-179.832 1040.33,-189.399 1045.3,-184.472"/>
</g>
<!-- retroATL3 -->
<g id="node7" class="node"><title>retroATL3</title>
<polygon fill="blue" stroke="black" points="1370.5,-108 1257.5,-108 1257.5,-72 1370.5,-72 1370.5,-108"/>
<text text-anchor="middle" x="1314" y="-84.4" font-family="Times,serif" font-size="22.00">retroATL3</text>
</g>
<!-- retroATL3&#45;&gt;ITF&#45;mET_Transducer -->
<g id="edge39" class="edge"><title>retroATL3&#45;&gt;ITF&#45;mET_Transducer</title>
<path fill="none" stroke="black" d="M1319.9,-108.104C1320.7,-115.791 1320.94,-125.054 1320.6,-133.665"/>
<polygon fill="red" stroke="black" points="1317.11,-133.48 1319.92,-143.697 1324.09,-133.96 1317.11,-133.48"/>
</g>
<!-- Motor -->
<g id="node28" class="node"><title>Motor</title>
<ellipse fill="yellow" stroke="black" cx="1372" cy="-18" rx="33.2948" ry="18"/>
<text text-anchor="middle" x="1372" y="-14.3" font-family="Times,serif" font-size="14.00">Motor</text>
</g>
<!-- retroATL3&#45;&gt;Motor -->
<g id="edge38" class="edge"><title>retroATL3&#45;&gt;Motor</title>
<path fill="none" stroke="black" d="M1322.42,-71.6966C1329.1,-62.4961 1338.41,-51.0816 1347.25,-41.2309"/>
<polygon fill="red" stroke="black" points="1349.95,-43.4594 1354.17,-33.7383 1344.81,-38.7103 1349.95,-43.4594"/>
</g>
<!-- Tri&#45;Piezo Head -->
<g id="node29" class="node"><title>Tri&#45;Piezo Head</title>
<ellipse fill="yellow" stroke="black" cx="1256" cy="-18" rx="64.9885" ry="18"/>
<text text-anchor="middle" x="1256" y="-14.3" font-family="Times,serif" font-size="14.00">Tri&#45;Piezo Head</text>
</g>
<!-- retroATL3&#45;&gt;Tri&#45;Piezo Head -->
<g id="edge40" class="edge"><title>retroATL3&#45;&gt;Tri&#45;Piezo Head</title>
<path fill="none" stroke="black" d="M1293.75,-71.6966C1286.01,-63.3893 1277.43,-53.2771 1270.32,-44.1407"/>
<polygon fill="red" stroke="black" points="1273.09,-41.9901 1264.28,-36.1043 1267.49,-46.1992 1273.09,-41.9901"/>
</g>
<!-- toadkiller -->
<g id="node8" class="node"><title>toadkiller</title>
<polygon fill="blue" stroke="black" points="307.5,-396 206.5,-396 206.5,-360 307.5,-360 307.5,-396"/>
<text text-anchor="middle" x="257" y="-372.4" font-family="Times,serif" font-size="22.00">toadkiller</text>
</g>
<!-- toadkiller&#45;&gt;ITF&#45;I_pulse_on -->
<g id="edge47" class="edge"><title>toadkiller&#45;&gt;ITF&#45;I_pulse_on</title>
<path fill="none" stroke="black" d="M307.602,-366.821C370.18,-354.234 476.628,-332.822 543.754,-319.32"/>
<polygon fill="red" stroke="black" points="544.656,-322.708 553.77,-317.305 543.276,-315.846 544.656,-322.708"/>
</g>
<!-- toadkiller&#45;&gt;ITF&#45;J_pulse_off -->
<g id="edge48" class="edge"><title>toadkiller&#45;&gt;ITF&#45;J_pulse_off</title>
<path fill="none" stroke="black" d="M287.141,-359.877C303.961,-349.965 325.075,-336.923 343,-324 363.218,-309.424 364.57,-300.728 386,-288 526.333,-204.654 577.512,-214.693 737,-180 742.434,-178.818 748.083,-177.583 753.741,-176.341"/>
<polygon fill="red" stroke="black" points="754.877,-179.675 763.892,-174.11 753.374,-172.839 754.877,-179.675"/>
</g>
<!-- toadkiller&#45;&gt;ITF&#45;N_cc_motor_pwm -->
<g id="edge49" class="edge"><title>toadkiller&#45;&gt;ITF&#45;N_cc_motor_pwm</title>
<path fill="none" stroke="black" d="M206.258,-374.671C170.167,-370.04 123.99,-357.419 100,-324 72.0083,-285.007 68.8318,-252.504 100,-216 129.337,-181.64 244.12,-169.438 331.005,-165.171"/>
<polygon fill="red" stroke="black" points="331.359,-168.658 341.187,-164.7 331.036,-161.665 331.359,-168.658"/>
</g>
<!-- toadkiller&#45;&gt;ITF&#45;mED&#45;TFT&#45;Screen -->
<g id="edge46" class="edge"><title>toadkiller&#45;&gt;ITF&#45;mED&#45;TFT&#45;Screen</title>
<path fill="none" stroke="black" d="M211.453,-359.977C195.753,-351.658 179.892,-339.925 171,-324 163.2,-310.03 161.262,-300.695 171,-288 195.23,-256.414 440.442,-202.81 565.079,-177.305"/>
<polygon fill="red" stroke="black" points="565.834,-180.724 574.933,-175.296 564.435,-173.865 565.834,-180.724"/>
</g>
<!-- WiFi UDP Stream -->
<g id="node31" class="node"><title>WiFi UDP Stream</title>
<ellipse fill="yellow" stroke="black" cx="257" cy="-306" rx="77.1866" ry="18"/>
<text text-anchor="middle" x="257" y="-302.3" font-family="Times,serif" font-size="14.00">WiFi UDP Stream</text>
</g>
<!-- toadkiller&#45;&gt;WiFi UDP Stream -->
<g id="edge45" class="edge"><title>toadkiller&#45;&gt;WiFi UDP Stream</title>
<path fill="none" stroke="black" d="M257,-359.697C257,-351.983 257,-342.712 257,-334.112"/>
<polygon fill="red" stroke="black" points="260.5,-334.104 257,-324.104 253.5,-334.104 260.5,-334.104"/>
</g>
<!-- kina -->
<g id="node9" class="node"><title>kina</title>
<polygon fill="blue" stroke="black" points="632.5,-252 577.5,-252 577.5,-216 632.5,-216 632.5,-252"/>
<text text-anchor="middle" x="605" y="-228.4" font-family="Times,serif" font-size="22.00">kina</text>
</g>
<!-- kina&#45;&gt;ITF&#45;I_pulse_on -->
<g id="edge57" class="edge"><title>kina&#45;&gt;ITF&#45;I_pulse_on</title>
<path fill="none" stroke="black" d="M610.913,-252.275C611.715,-260.03 611.94,-269.362 611.591,-278.005"/>
<polygon fill="red" stroke="black" points="608.094,-277.832 610.878,-288.055 615.077,-278.327 608.094,-277.832"/>
</g>
<!-- kina&#45;&gt;ITF&#45;J_pulse_off -->
<g id="edge58" class="edge"><title>kina&#45;&gt;ITF&#45;J_pulse_off</title>
<path fill="none" stroke="black" d="M632.754,-223.705C666.163,-212.515 722.897,-193.513 764.005,-179.745"/>
<polygon fill="red" stroke="black" points="765.199,-183.036 773.57,-176.541 762.976,-176.398 765.199,-183.036"/>
</g>
<!-- kina&#45;&gt;ITF&#45;N_cc_motor_pwm -->
<g id="edge59" class="edge"><title>kina&#45;&gt;ITF&#45;N_cc_motor_pwm</title>
<path fill="none" stroke="black" d="M577.145,-221.597C551.244,-210.995 512.131,-194.984 481.332,-182.376"/>
<polygon fill="red" stroke="black" points="482.646,-179.132 472.065,-178.582 479.994,-185.61 482.646,-179.132"/>
</g>
<!-- kina&#45;&gt;ITF&#45;mED&#45;TFT&#45;Screen -->
<g id="edge56" class="edge"><title>kina&#45;&gt;ITF&#45;mED&#45;TFT&#45;Screen</title>
<path fill="none" stroke="black" d="M612.91,-215.697C616.553,-207.728 620.954,-198.1 624.994,-189.264"/>
<polygon fill="red" stroke="black" points="628.206,-190.654 629.181,-180.104 621.84,-187.744 628.206,-190.654"/>
</g>
<!-- kina&#45;&gt;ITF&#45;mEC&#45;WiFi&#45;UDP&#45;Stream -->
<g id="edge55" class="edge"><title>kina&#45;&gt;ITF&#45;mEC&#45;WiFi&#45;UDP&#45;Stream</title>
<path fill="none" stroke="black" d="M632.538,-228.298C692.477,-218.065 836.85,-193.416 930.07,-177.5"/>
<polygon fill="red" stroke="black" points="930.781,-180.93 940.049,-175.796 929.603,-174.029 930.781,-180.93"/>
</g>
<!-- goblin -->
<g id="node10" class="node"><title>goblin</title>
<polygon fill="blue" stroke="black" points="708,-540 634,-540 634,-504 708,-504 708,-540"/>
<text text-anchor="middle" x="671" y="-516.4" font-family="Times,serif" font-size="22.00">goblin</text>
</g>
<!-- ITF&#45;mEG_SPI -->
<g id="node24" class="node"><title>ITF&#45;mEG_SPI</title>
<ellipse fill="green" stroke="black" cx="1025" cy="-450" rx="63.0888" ry="18"/>
<text text-anchor="middle" x="1025" y="-446.3" font-family="Times,serif" font-size="14.00">ITF&#45;mEG_SPI</text>
</g>
<!-- goblin&#45;&gt;ITF&#45;mEG_SPI -->
<g id="edge70" class="edge"><title>goblin&#45;&gt;ITF&#45;mEG_SPI</title>
<path fill="none" stroke="black" d="M708.215,-513.641C769.25,-501.572 891.169,-477.464 964.676,-462.929"/>
<polygon fill="red" stroke="black" points="965.584,-466.317 974.715,-460.943 964.226,-459.45 965.584,-466.317"/>
</g>
<!-- ITF&#45;E_signal_envelope -->
<g id="node30" class="node"><title>ITF&#45;E_signal_envelope</title>
<ellipse fill="yellow" stroke="black" cx="407" cy="-450" rx="93.6835" ry="18"/>
<text text-anchor="middle" x="407" y="-446.3" font-family="Times,serif" font-size="14.00">ITF&#45;E_signal_envelope</text>
</g>
<!-- goblin&#45;&gt;ITF&#45;E_signal_envelope -->
<g id="edge69" class="edge"><title>goblin&#45;&gt;ITF&#45;E_signal_envelope</title>
<path fill="none" stroke="black" d="M633.735,-512.346C589.95,-501.35 516.994,-482.117 465.639,-468.111"/>
<polygon fill="red" stroke="black" points="466.561,-464.735 455.992,-465.472 464.714,-471.487 466.561,-464.735"/>
</g>
<!-- ITF&#45;C_amplified_raw_signal -->
<g id="node32" class="node"><title>ITF&#45;C_amplified_raw_signal</title>
<ellipse fill="yellow" stroke="black" cx="671" cy="-450" rx="114.28" ry="18"/>
<text text-anchor="middle" x="671" y="-446.3" font-family="Times,serif" font-size="14.00">ITF&#45;C_amplified_raw_signal</text>
</g>
<!-- goblin&#45;&gt;ITF&#45;C_amplified_raw_signal -->
<g id="edge68" class="edge"><title>goblin&#45;&gt;ITF&#45;C_amplified_raw_signal</title>
<path fill="none" stroke="black" d="M665.084,-503.697C664.289,-495.983 664.062,-486.712 664.405,-478.112"/>
<polygon fill="red" stroke="black" points="667.898,-478.324 665.105,-468.104 660.915,-477.836 667.898,-478.324"/>
</g>
<!-- silent -->
<g id="node11" class="node"><title>silent</title>
<polygon fill="blue" stroke="black" points="1234,-108 1170,-108 1170,-72 1234,-72 1234,-108"/>
<text text-anchor="middle" x="1202" y="-84.4" font-family="Times,serif" font-size="22.00">silent</text>
</g>
<!-- silent&#45;&gt;ITF&#45;R_reserved -->
<g id="edge74" class="edge"><title>silent&#45;&gt;ITF&#45;R_reserved</title>
<path fill="none" stroke="black" d="M1204.22,-108.227C1210.02,-154.98 1224.41,-283.458 1213,-324 1176.74,-452.887 1026.83,-538.435 951.548,-574.126"/>
<polygon fill="red" stroke="black" points="949.898,-571.034 942.313,-578.432 952.856,-577.378 949.898,-571.034"/>
</g>
<!-- mogaba -->
<g id="node12" class="node"><title>mogaba</title>
<polygon fill="blue" stroke="black" points="932.5,-828 845.5,-828 845.5,-792 932.5,-792 932.5,-828"/>
<text text-anchor="middle" x="889" y="-804.4" font-family="Times,serif" font-size="22.00">mogaba</text>
</g>
<!-- ITF&#45;A_gnd -->
<g id="node13" class="node"><title>ITF&#45;A_gnd</title>
<ellipse fill="yellow" stroke="black" cx="1159" cy="-738" rx="50.8918" ry="18"/>
<text text-anchor="middle" x="1159" y="-734.3" font-family="Times,serif" font-size="14.00">ITF&#45;A_gnd</text>
</g>
<!-- mogaba&#45;&gt;ITF&#45;A_gnd -->
<g id="edge77" class="edge"><title>mogaba&#45;&gt;ITF&#45;A_gnd</title>
<path fill="none" stroke="black" d="M932.68,-797.675C981.093,-785.124 1059,-764.925 1109.6,-751.807"/>
<polygon fill="red" stroke="black" points="1110.54,-755.18 1119.34,-749.282 1108.78,-748.404 1110.54,-755.18"/>
</g>
<!-- ITF&#45;B_5v -->
<g id="node14" class="node"><title>ITF&#45;B_5v</title>
<ellipse fill="yellow" stroke="black" cx="619" cy="-738" rx="46.2923" ry="18"/>
<text text-anchor="middle" x="619" y="-734.3" font-family="Times,serif" font-size="14.00">ITF&#45;B_5v</text>
</g>
<!-- mogaba&#45;&gt;ITF&#45;B_5v -->
<g id="edge78" class="edge"><title>mogaba&#45;&gt;ITF&#45;B_5v</title>
<path fill="none" stroke="black" d="M845.32,-797.675C796.207,-784.943 716.74,-764.34 666.222,-751.243"/>
<polygon fill="red" stroke="black" points="667.08,-747.85 656.522,-748.728 665.323,-754.626 667.08,-747.85"/>
</g>
<!-- ITF&#45;S_3_3v -->
<g id="node17" class="node"><title>ITF&#45;S_3_3v</title>
<ellipse fill="yellow" stroke="black" cx="171" cy="-738" rx="53.8905" ry="18"/>
<text text-anchor="middle" x="171" y="-734.3" font-family="Times,serif" font-size="14.00">ITF&#45;S_3_3v</text>
</g>
<!-- mogaba&#45;&gt;ITF&#45;S_3_3v -->
<g id="edge80" class="edge"><title>mogaba&#45;&gt;ITF&#45;S_3_3v</title>
<path fill="none" stroke="black" d="M845.435,-804.753C722.869,-792.803 374.762,-758.865 232.609,-745.006"/>
<polygon fill="red" stroke="black" points="232.623,-741.491 222.331,-744.004 231.944,-748.458 232.623,-741.491"/>
</g>
<!-- ITF&#45;F_12V -->
<g id="node27" class="node"><title>ITF&#45;F_12V</title>
<ellipse fill="yellow" stroke="black" cx="973" cy="-882" rx="51.1914" ry="18"/>
<text text-anchor="middle" x="973" y="-878.3" font-family="Times,serif" font-size="14.00">ITF&#45;F_12V</text>
</g>
<!-- mogaba&#45;&gt;ITF&#45;F_12V -->
<g id="edge79" class="edge"><title>mogaba&#45;&gt;ITF&#45;F_12V</title>
<path fill="none" stroke="black" d="M915.546,-828.201C927.128,-837.083 940.454,-848.049 951.422,-857.682"/>
<polygon fill="red" stroke="black" points="949.15,-860.345 958.933,-864.411 953.821,-855.131 949.15,-860.345"/>
</g>
<!-- ITF&#45;A_gnd&#45;&gt;tobo -->
<g id="edge1" class="edge"><title>ITF&#45;A_gnd&#45;&gt;tobo</title>
<path fill="none" stroke="black" d="M1120.33,-726.216C1072.93,-712.996 993.11,-690.736 946.01,-677.601"/>
<polygon fill="black" stroke="black" points="946.769,-674.179 936.197,-674.864 944.889,-680.921 946.769,-674.179"/>
</g>
<!-- ITF&#45;A_gnd&#45;&gt;cletus -->
<g id="edge10" class="edge"><title>ITF&#45;A_gnd&#45;&gt;cletus</title>
<path fill="none" stroke="black" d="M1174.6,-720.824C1182.97,-711.016 1192.47,-697.766 1197,-684 1207.01,-653.601 1197.78,-644.002 1198,-612 1198.73,-507.207 1214.83,-217.362 1140,-144 1094.52,-99.411 901.595,-92.0247 813.365,-91.0167"/>
<polygon fill="black" stroke="black" points="813.172,-87.5149 803.141,-90.9234 813.108,-94.5146 813.172,-87.5149"/>
</g>
<!-- ITF&#45;A_gnd&#45;&gt;oneeye -->
<g id="edge18" class="edge"><title>ITF&#45;A_gnd&#45;&gt;oneeye</title>
<path fill="none" stroke="black" d="M1110.89,-732.106C985.581,-719.356 649.935,-685.206 521.733,-672.162"/>
<polygon fill="black" stroke="black" points="521.725,-668.643 511.422,-671.113 521.017,-675.607 521.725,-668.643"/>
</g>
<!-- ITF&#45;A_gnd&#45;&gt;croaker -->
<g id="edge25" class="edge"><title>ITF&#45;A_gnd&#45;&gt;croaker</title>
<path fill="none" stroke="black" d="M1162.2,-719.893C1170.44,-670.86 1187.85,-527.238 1130,-432 1122.35,-419.405 1110.44,-409.252 1098.04,-401.335"/>
<polygon fill="black" stroke="black" points="1099.81,-398.316 1089.43,-396.209 1096.23,-404.331 1099.81,-398.316"/>
</g>
<!-- ITF&#45;A_gnd&#45;&gt;retroATL3 -->
<g id="edge32" class="edge"><title>ITF&#45;A_gnd&#45;&gt;retroATL3</title>
<path fill="none" stroke="black" d="M1207.48,-732.714C1279.18,-725.615 1409.2,-709.605 1448,-684 1487.61,-657.858 1507,-642.458 1507,-595 1507,-595 1507,-595 1507,-233 1507,-190.162 1501.28,-173.267 1470,-144 1445.7,-121.263 1411.26,-108.246 1380.93,-100.81"/>
<polygon fill="black" stroke="black" points="1381.34,-97.3148 1370.82,-98.4958 1379.78,-104.138 1381.34,-97.3148"/>
</g>
<!-- ITF&#45;A_gnd&#45;&gt;toadkiller -->
<g id="edge41" class="edge"><title>ITF&#45;A_gnd&#45;&gt;toadkiller</title>
<path fill="none" stroke="black" d="M1147.13,-720.431C1133.83,-702.178 1111.33,-672.201 1090,-648 982.315,-525.825 947.813,-485.521 794,-432 707.382,-401.86 439.142,-386.821 317.762,-381.414"/>
<polygon fill="black" stroke="black" points="317.675,-377.907 307.531,-380.966 317.368,-384.901 317.675,-377.907"/>
</g>
<!-- ITF&#45;A_gnd&#45;&gt;kina -->
<g id="edge50" class="edge"><title>ITF&#45;A_gnd&#45;&gt;kina</title>
<path fill="none" stroke="black" d="M1168.41,-719.9C1173.47,-709.783 1179.22,-696.533 1182,-684 1188.94,-652.75 1183.56,-644.009 1184,-612 1185.64,-493.812 1197.08,-425.962 1099,-360 951.213,-260.611 730.367,-240.238 642.762,-236.069"/>
<polygon fill="black" stroke="black" points="642.894,-232.572 632.753,-235.637 642.592,-239.565 642.894,-232.572"/>
</g>
<!-- ITF&#45;A_gnd&#45;&gt;goblin -->
<g id="edge60" class="edge"><title>ITF&#45;A_gnd&#45;&gt;goblin</title>
<path fill="none" stroke="black" d="M1138.33,-721.296C1125.09,-711.019 1107.69,-697.113 1093,-684 1067.56,-661.294 1014.34,-591.572 984,-576 897.844,-531.773 782.495,-523.29 718.621,-522.319"/>
<polygon fill="black" stroke="black" points="718.479,-518.818 708.446,-522.222 718.412,-525.817 718.479,-518.818"/>
</g>
<!-- ITF&#45;A_gnd&#45;&gt;silent -->
<g id="edge71" class="edge"><title>ITF&#45;A_gnd&#45;&gt;silent</title>
<path fill="none" stroke="black" d="M1209.5,-736.016C1297.34,-731.339 1469,-707.77 1469,-595 1469,-595 1469,-595 1469,-233 1469,-192.031 1475.13,-171.761 1445,-144 1379.87,-83.9842 1334.49,-131.142 1249,-108 1247.33,-107.548 1245.64,-107.063 1243.93,-106.554"/>
<polygon fill="black" stroke="black" points="1244.73,-103.135 1234.14,-103.418 1242.59,-109.801 1244.73,-103.135"/>
</g>
<!-- ITF&#45;B_5v&#45;&gt;tobo -->
<g id="edge2" class="edge"><title>ITF&#45;B_5v&#45;&gt;tobo</title>
<path fill="none" stroke="black" d="M657.079,-727.777C712.487,-714.356 814.74,-689.589 870.067,-676.188"/>
<polygon fill="black" stroke="black" points="870.934,-679.579 879.829,-673.823 869.286,-672.776 870.934,-679.579"/>
</g>
<!-- ITF&#45;B_5v&#45;&gt;cletus -->
<g id="edge11" class="edge"><title>ITF&#45;B_5v&#45;&gt;cletus</title>
<path fill="none" stroke="black" d="M572.829,-736.33C481.495,-734.124 281.996,-724.654 229,-684 55.4781,-550.891 -54.8791,-390.458 77,-216 155.566,-112.067 584.157,-94.55 724.494,-91.5981"/>
<polygon fill="black" stroke="black" points="724.934,-95.0903 734.864,-91.3958 724.798,-88.0916 724.934,-95.0903"/>
</g>
<!-- ITF&#45;B_5v&#45;&gt;oneeye -->
<g id="edge19" class="edge"><title>ITF&#45;B_5v&#45;&gt;oneeye</title>
<path fill="none" stroke="black" d="M590.814,-723.669C569.693,-713.679 540.364,-699.807 516.01,-688.289"/>
<polygon fill="black" stroke="black" points="517.484,-685.114 506.948,-684.002 514.491,-691.442 517.484,-685.114"/>
</g>
<!-- ITF&#45;B_5v&#45;&gt;croaker -->
<g id="edge26" class="edge"><title>ITF&#45;B_5v&#45;&gt;croaker</title>
<path fill="none" stroke="black" d="M663.502,-732.695C772.22,-721.099 1045.89,-685.037 1093,-612 1136.38,-544.757 1126.17,-506.515 1097,-432 1092.8,-421.279 1085.31,-411.427 1077.42,-403.201"/>
<polygon fill="black" stroke="black" points="1079.76,-400.592 1070.15,-396.125 1074.88,-405.608 1079.76,-400.592"/>
</g>
<!-- ITF&#45;B_5v&#45;&gt;toadkiller -->
<g id="edge42" class="edge"><title>ITF&#45;B_5v&#45;&gt;toadkiller</title>
<path fill="none" stroke="black" d="M573.265,-735.077C490.209,-730.779 318.75,-717.956 271,-684 178.694,-618.358 209.1,-542.716 233,-432 234.961,-422.916 238.612,-413.517 242.485,-405.201"/>
<polygon fill="black" stroke="black" points="245.731,-406.534 247.046,-396.022 239.462,-403.42 245.731,-406.534"/>
</g>
<!-- ITF&#45;B_5v&#45;&gt;kina -->
<g id="edge51" class="edge"><title>ITF&#45;B_5v&#45;&gt;kina</title>
<path fill="none" stroke="black" d="M572.646,-736.856C493.734,-733.739 335.579,-714.337 271,-612 228.307,-544.344 232.809,-502.295 271,-432 278.018,-419.083 480.161,-295.16 493,-288 517.385,-274.401 545.834,-260.968 567.957,-251.028"/>
<polygon fill="black" stroke="black" points="569.617,-254.12 577.329,-246.855 566.77,-247.725 569.617,-254.12"/>
</g>
<!-- ITF&#45;B_5v&#45;&gt;goblin -->
<g id="edge61" class="edge"><title>ITF&#45;B_5v&#45;&gt;goblin</title>
<path fill="none" stroke="black" d="M618.604,-719.525C618.453,-689.356 620.495,-625.934 638,-576 641.318,-566.535 646.549,-556.988 651.876,-548.655"/>
<polygon fill="black" stroke="black" points="654.922,-550.399 657.609,-540.15 649.117,-546.486 654.922,-550.399"/>
</g>
<!-- ITF&#45;B_5v&#45;&gt;silent -->
<g id="edge72" class="edge"><title>ITF&#45;B_5v&#45;&gt;silent</title>
<path fill="none" stroke="black" d="M665.217,-736.198C740.223,-733.714 892.318,-723.727 1014,-684 1141.42,-642.399 1176.43,-626.298 1279,-540 1310.23,-513.724 1317.74,-504.502 1336,-468 1402.17,-335.718 1504.63,-259.315 1412,-144 1365.54,-86.1587 1320.26,-128.661 1249,-108 1247.34,-107.518 1245.65,-107.008 1243.95,-106.478"/>
<polygon fill="black" stroke="black" points="1244.77,-103.064 1234.18,-103.262 1242.59,-109.713 1244.77,-103.064"/>
</g>
<!-- ITF&#45;I_pulse_on&#45;&gt;tobo -->
<g id="edge3" class="edge"><title>ITF&#45;I_pulse_on&#45;&gt;tobo</title>
<path fill="none" stroke="black" d="M641.541,-320.956C684.967,-339.506 756.279,-376.538 794,-432 839.982,-499.608 786.854,-543.831 832,-612 841.636,-626.549 856.753,-638.285 870.975,-646.98"/>
<polygon fill="black" stroke="black" points="869.249,-650.024 879.658,-651.998 872.751,-643.964 869.249,-650.024"/>
</g>
<!-- ITF&#45;I_pulse_on&#45;&gt;kina -->
<g id="edge54" class="edge"><title>ITF&#45;I_pulse_on&#45;&gt;kina</title>
<path fill="none" stroke="black" d="M599.122,-288.055C598.304,-280.346 598.061,-271.027 598.395,-262.364"/>
<polygon fill="black" stroke="black" points="601.894,-262.491 599.087,-252.275 594.911,-262.012 601.894,-262.491"/>
</g>
<!-- ITF&#45;J_pulse_off&#45;&gt;tobo -->
<g id="edge4" class="edge"><title>ITF&#45;J_pulse_off&#45;&gt;tobo</title>
<path fill="none" stroke="black" d="M840.93,-178.707C876.31,-201.598 934,-247.709 934,-305 934,-379 934,-379 934,-379 934,-469.332 971.416,-486.549 984,-576 986.229,-591.844 991.402,-597.815 984,-612 975.681,-627.944 960.134,-640.07 945.258,-648.672"/>
<polygon fill="black" stroke="black" points="943.298,-645.752 936.153,-653.575 946.617,-651.915 943.298,-645.752"/>
</g>
<!-- ITF&#45;J_pulse_off&#45;&gt;silent -->
<g id="edge73" class="edge"><title>ITF&#45;J_pulse_off&#45;&gt;silent</title>
<path fill="none" stroke="black" d="M863.389,-149.563C872.233,-147.626 881.377,-145.696 890,-144 986.063,-125.11 1099.56,-106.839 1159.68,-97.4769"/>
<polygon fill="black" stroke="black" points="1160.22,-100.935 1169.56,-95.9432 1159.14,-94.0181 1160.22,-100.935"/>
</g>
<!-- ITF&#45;S_3_3v&#45;&gt;tobo -->
<g id="edge5" class="edge"><title>ITF&#45;S_3_3v&#45;&gt;tobo</title>
<path fill="none" stroke="black" d="M222.239,-732.133C361.803,-718.878 746.457,-682.343 869.566,-670.65"/>
<polygon fill="black" stroke="black" points="870.027,-674.122 879.652,-669.693 869.365,-667.154 870.027,-674.122"/>
</g>
<!-- ITF&#45;S_3_3v&#45;&gt;cletus -->
<g id="edge13" class="edge"><title>ITF&#45;S_3_3v&#45;&gt;cletus</title>
<path fill="none" stroke="black" d="M133.473,-724.776C83.1367,-705.743 0,-663.881 0,-595 0,-595 0,-595 0,-233 0,-165.883 59.0912,-167.392 122,-144 232.968,-102.738 597.561,-93.5055 724.751,-91.5211"/>
<polygon fill="black" stroke="black" points="724.958,-95.0186 734.905,-91.3704 724.854,-88.0193 724.958,-95.0186"/>
</g>
<!-- ITF&#45;S_3_3v&#45;&gt;oneeye -->
<g id="edge20" class="edge"><title>ITF&#45;S_3_3v&#45;&gt;oneeye</title>
<path fill="none" stroke="black" d="M213.983,-726.971C268.699,-714.203 363.058,-692.186 420.955,-678.677"/>
<polygon fill="black" stroke="black" points="422.03,-682.02 430.973,-676.34 420.44,-675.203 422.03,-682.02"/>
</g>
<!-- ITF&#45;S_3_3v&#45;&gt;toadkiller -->
<g id="edge43" class="edge"><title>ITF&#45;S_3_3v&#45;&gt;toadkiller</title>
<path fill="none" stroke="black" d="M168.036,-719.936C160.506,-671.611 144.625,-530.922 195,-432 200.882,-420.45 210.484,-410.384 220.393,-402.217"/>
<polygon fill="black" stroke="black" points="222.564,-404.963 228.341,-396.082 218.287,-399.422 222.564,-404.963"/>
</g>
<!-- ITF&#45;S_3_3v&#45;&gt;kina -->
<g id="edge52" class="edge"><title>ITF&#45;S_3_3v&#45;&gt;kina</title>
<path fill="none" stroke="black" d="M155.253,-720.609C132.992,-695.639 95,-645.611 95,-595 95,-595 95,-595 95,-521 95,-412.075 86.8885,-357.209 171,-288 231.038,-238.599 472.899,-234.323 567.143,-234.586"/>
<polygon fill="black" stroke="black" points="567.346,-238.087 577.362,-234.634 567.379,-231.087 567.346,-238.087"/>
</g>
<!-- ITF&#45;S_3_3v&#45;&gt;goblin -->
<g id="edge62" class="edge"><title>ITF&#45;S_3_3v&#45;&gt;goblin</title>
<path fill="none" stroke="black" d="M186.542,-720.623C219.035,-687.468 297.966,-612.464 380,-576 460.787,-540.09 564.525,-528.509 623.806,-524.776"/>
<polygon fill="black" stroke="black" points="624.209,-528.258 633.989,-524.184 623.803,-521.27 624.209,-528.258"/>
</g>
<!-- ITF&#45;mET_Transducer&#45;&gt;tobo -->
<g id="edge6" class="edge"><title>ITF&#45;mET_Transducer&#45;&gt;tobo</title>
<path fill="none" stroke="black" d="M1319.91,-180.049C1323.49,-206.708 1324,-259.884 1324,-305 1324,-451 1324,-451 1324,-451 1324,-535.116 1048.21,-625.758 945.657,-655.183"/>
<polygon fill="black" stroke="black" points="944.672,-651.824 936.005,-657.916 946.58,-658.559 944.672,-651.824"/>
</g>
<!-- ITF&#45;mET_Transducer&#45;&gt;cletus -->
<g id="edge14" class="edge"><title>ITF&#45;mET_Transducer&#45;&gt;cletus</title>
<path fill="none" stroke="black" d="M1239.73,-152.063C1124.48,-137.64 906.334,-109.593 813.027,-97.1733"/>
<polygon fill="black" stroke="black" points="813.447,-93.6984 803.072,-95.844 812.52,-100.637 813.447,-93.6984"/>
</g>
<!-- ITF&#45;mET_Transducer&#45;&gt;retroATL3 -->
<g id="edge35" class="edge"><title>ITF&#45;mET_Transducer&#45;&gt;retroATL3</title>
<path fill="none" stroke="black" d="M1308.08,-143.697C1307.29,-135.983 1307.06,-126.712 1307.4,-118.112"/>
<polygon fill="black" stroke="black" points="1310.9,-118.324 1308.1,-108.104 1303.92,-117.836 1310.9,-118.324"/>
</g>
<!-- ITF&#45;R_reserved&#45;&gt;goblin -->
<g id="edge66" class="edge"><title>ITF&#45;R_reserved&#45;&gt;goblin</title>
<path fill="none" stroke="black" d="M864.806,-580.242C823.187,-567.95 760.408,-549.407 717.661,-536.782"/>
<polygon fill="black" stroke="black" points="718.638,-533.421 708.056,-533.945 716.655,-540.134 718.638,-533.421"/>
</g>
<!-- ITF&#45;mET_SMA&#45;&gt;goblin -->
<g id="edge67" class="edge"><title>ITF&#45;mET_SMA&#45;&gt;goblin</title>
<path fill="none" stroke="black" d="M705.107,-576.055C699.878,-567.922 693.499,-557.998 687.677,-548.943"/>
<polygon fill="black" stroke="black" points="690.457,-546.794 682.106,-540.275 684.569,-550.58 690.457,-546.794"/>
</g>
<!-- ITF&#45;N_cc_motor_pwm&#45;&gt;cletus -->
<g id="edge12" class="edge"><title>ITF&#45;N_cc_motor_pwm&#45;&gt;cletus</title>
<path fill="none" stroke="black" d="M495.055,-148.242C561.461,-134.366 665.98,-112.527 724.861,-100.223"/>
<polygon fill="black" stroke="black" points="725.883,-103.585 734.955,-98.1138 724.451,-96.7333 725.883,-103.585"/>
</g>
<!-- ITF&#45;N_cc_motor_pwm&#45;&gt;retroATL3 -->
<g id="edge34" class="edge"><title>ITF&#45;N_cc_motor_pwm&#45;&gt;retroATL3</title>
<path fill="none" stroke="black" d="M499.51,-149.053C511.927,-147.111 524.837,-145.31 537,-144 849.38,-110.365 932.021,-152.769 1243,-108 1244.31,-107.812 1245.62,-107.611 1246.95,-107.399"/>
<polygon fill="black" stroke="black" points="1247.98,-110.77 1257.21,-105.57 1246.75,-103.879 1247.98,-110.77"/>
</g>
<!-- ITF&#45;mET_Piezo&#45;&gt;cletus -->
<g id="edge15" class="edge"><title>ITF&#45;mET_Piezo&#45;&gt;cletus</title>
<path fill="none" stroke="black" d="M774.895,-36.1043C775.701,-43.7913 775.937,-53.0537 775.604,-61.6651"/>
<polygon fill="black" stroke="black" points="772.109,-61.4805 774.916,-71.6966 779.092,-61.9597 772.109,-61.4805"/>
</g>
<!-- ITF&#45;G_gain_control&#45;&gt;goblin -->
<g id="edge63" class="edge"><title>ITF&#45;G_gain_control&#45;&gt;goblin</title>
<path fill="none" stroke="black" d="M512.927,-578.326C545.453,-566.941 590.525,-551.166 624.22,-539.373"/>
<polygon fill="black" stroke="black" points="625.561,-542.612 633.843,-536.005 623.248,-536.005 625.561,-542.612"/>
</g>
<!-- ITF&#45;mEG_SPI&#45;&gt;croaker -->
<g id="edge27" class="edge"><title>ITF&#45;mEG_SPI&#45;&gt;croaker</title>
<path fill="none" stroke="black" d="M1030.57,-432.055C1033.16,-424.176 1036.3,-414.617 1039.2,-405.794"/>
<polygon fill="black" stroke="black" points="1042.53,-406.868 1042.32,-396.275 1035.88,-404.683 1042.53,-406.868"/>
</g>
<!-- ITF&#45;F_12V&#45;&gt;retroATL3 -->
<g id="edge33" class="edge"><title>ITF&#45;F_12V&#45;&gt;retroATL3</title>
<path fill="none" stroke="black" d="M1011.35,-869.908C1018.53,-867.895 1025.99,-865.849 1033,-864 1146.25,-834.143 1545,-856.12 1545,-739 1545,-739 1545,-739 1545,-233 1545,-188.268 1532.71,-172.221 1498,-144 1464.85,-117.047 1418.61,-103.799 1380.78,-97.2876"/>
<polygon fill="black" stroke="black" points="1381.29,-93.8235 1370.86,-95.6986 1380.18,-100.736 1381.29,-93.8235"/>
</g>
<!-- ITF&#45;F_12V&#45;&gt;mogaba -->
<g id="edge76" class="edge"><title>ITF&#45;F_12V&#45;&gt;mogaba</title>
<path fill="none" stroke="black" d="M949.095,-865.811C937.176,-856.794 922.962,-845.161 911.279,-834.933"/>
<polygon fill="black" stroke="black" points="913.445,-832.175 903.655,-828.127 908.784,-837.397 913.445,-832.175"/>
</g>
<!-- Motor&#45;&gt;retroATL3 -->
<g id="edge36" class="edge"><title>Motor&#45;&gt;retroATL3</title>
<path fill="none" stroke="black" d="M1364.07,-35.6223C1357.95,-44.1207 1349.46,-54.637 1341.14,-64.0823"/>
<polygon fill="black" stroke="black" points="1338.37,-61.9327 1334.25,-71.6966 1343.56,-66.6286 1338.37,-61.9327"/>
</g>
<!-- Tri&#45;Piezo Head&#45;&gt;retroATL3 -->
<g id="edge37" class="edge"><title>Tri&#45;Piezo Head&#45;&gt;retroATL3</title>
<path fill="none" stroke="black" d="M1275.62,-35.6223C1283.42,-43.9507 1292.16,-54.2172 1299.41,-63.5143"/>
<polygon fill="black" stroke="black" points="1296.76,-65.8209 1305.58,-71.6966 1302.35,-61.6055 1296.76,-65.8209"/>
</g>
<!-- ITF&#45;E_signal_envelope&#45;&gt;toadkiller -->
<g id="edge44" class="edge"><title>ITF&#45;E_signal_envelope&#45;&gt;toadkiller</title>
<path fill="none" stroke="black" d="M372.963,-433.116C352.147,-423.402 325.258,-410.854 302.614,-400.287"/>
<polygon fill="black" stroke="black" points="304.065,-397.101 293.523,-396.044 301.105,-403.445 304.065,-397.101"/>
</g>
<!-- ITF&#45;E_signal_envelope&#45;&gt;kina -->
<g id="edge53" class="edge"><title>ITF&#45;E_signal_envelope&#45;&gt;kina</title>
<path fill="none" stroke="black" d="M417.714,-431.661C437.43,-400.595 481.872,-334.371 530,-288 541.661,-276.765 555.874,-266.102 568.779,-257.327"/>
<polygon fill="black" stroke="black" points="571.059,-260.014 577.457,-251.569 567.189,-254.181 571.059,-260.014"/>
</g>
<!-- ITF&#45;E_signal_envelope&#45;&gt;goblin -->
<g id="edge65" class="edge"><title>ITF&#45;E_signal_envelope&#45;&gt;goblin</title>
<path fill="none" stroke="black" d="M463.48,-464.527C511.404,-476.784 579.236,-494.765 624.19,-507.127"/>
<polygon fill="black" stroke="black" points="623.407,-510.542 633.978,-509.831 625.271,-503.795 623.407,-510.542"/>
</g>
<!-- ITF&#45;C_amplified_raw_signal&#45;&gt;goblin -->
<g id="edge64" class="edge"><title>ITF&#45;C_amplified_raw_signal&#45;&gt;goblin</title>
<path fill="none" stroke="black" d="M676.895,-468.104C677.701,-475.791 677.937,-485.054 677.604,-493.665"/>
<polygon fill="black" stroke="black" points="674.109,-493.48 676.916,-503.697 681.092,-493.96 674.109,-493.48"/>
</g>
<!-- ITF&#45;mEM_Alimentation -->
<g id="node33" class="node"><title>ITF&#45;mEM_Alimentation</title>
<ellipse fill="green" stroke="black" cx="805" cy="-882" rx="98.5829" ry="18"/>
<text text-anchor="middle" x="805" y="-878.3" font-family="Times,serif" font-size="14.00">ITF&#45;mEM_Alimentation</text>
</g>
<!-- ITF&#45;mEM_Alimentation&#45;&gt;mogaba -->
<g id="edge75" class="edge"><title>ITF&#45;mEM_Alimentation&#45;&gt;mogaba</title>
<path fill="none" stroke="black" d="M825.334,-864.055C835.986,-855.179 849.198,-844.169 860.82,-834.483"/>
<polygon fill="black" stroke="black" points="863.12,-837.122 868.562,-828.032 858.639,-831.745 863.12,-837.122"/>
</g>
</g>
</svg>
