<?xml version="1.0" encoding="UTF-8" standalone="no"?>
<!DOCTYPE svg PUBLIC "-//W3C//DTD SVG 1.1//EN"
 "http://www.w3.org/Graphics/SVG/1.1/DTD/svg11.dtd">
<!-- Generated by graphviz version 2.38.0 (20140413.2041)
 -->
<!-- Title: %3 Pages: 1 -->
<svg width="4890pt" height="116pt"
 viewBox="0.00 0.00 4889.50 116.00" xmlns="http://www.w3.org/2000/svg" xmlns:xlink="http://www.w3.org/1999/xlink">
<g id="graph0" class="graph" transform="scale(1 1) rotate(0) translate(4 112)">
<title>%3</title>
<polygon fill="white" stroke="none" points="-4,4 -4,-112 4885.5,-112 4885.5,4 -4,4"/>
<!-- wirephantom -->
<g id="node1" class="node"><title>wirephantom</title>
<polygon fill="blue" stroke="black" points="134,-36 0,-36 0,-0 134,-0 134,-36"/>
<text text-anchor="middle" x="67" y="-12.4" font-family="Times,serif" font-size="22.00">wirephantom</text>
</g>
<!-- tobo -->
<g id="node2" class="node"><title>tobo</title>
<polygon fill="blue" stroke="black" points="1725,-36 1669,-36 1669,-0 1725,-0 1725,-36"/>
<text text-anchor="middle" x="1697" y="-12.4" font-family="Times,serif" font-size="22.00">tobo</text>
</g>
<!-- elmo -->
<g id="node3" class="node"><title>elmo</title>
<polygon fill="blue" stroke="black" points="1168.5,-36 1107.5,-36 1107.5,-0 1168.5,-0 1168.5,-36"/>
<text text-anchor="middle" x="1138" y="-12.4" font-family="Times,serif" font-size="22.00">elmo</text>
</g>
<!-- alt.tbo -->
<g id="node4" class="node"><title>alt.tbo</title>
<polygon fill="blue" stroke="black" points="1651,-36 1579,-36 1579,-0 1651,-0 1651,-36"/>
<text text-anchor="middle" x="1615" y="-12.4" font-family="Times,serif" font-size="22.00">alt.tbo</text>
</g>
<!-- cletus -->
<g id="node5" class="node"><title>cletus</title>
<polygon fill="blue" stroke="black" points="3886,-36 3818,-36 3818,-0 3886,-0 3886,-36"/>
<text text-anchor="middle" x="3852" y="-12.4" font-family="Times,serif" font-size="22.00">cletus</text>
</g>
<!-- tomtom -->
<g id="node6" class="node"><title>tomtom</title>
<polygon fill="blue" stroke="black" points="2402,-36 2316,-36 2316,-0 2402,-0 2402,-36"/>
<text text-anchor="middle" x="2359" y="-12.4" font-family="Times,serif" font-size="22.00">tomtom</text>
</g>
<!-- doj -->
<g id="node7" class="node"><title>doj</title>
<polygon fill="blue" stroke="black" points="4796,-108 4742,-108 4742,-72 4796,-72 4796,-108"/>
<text text-anchor="middle" x="4769" y="-84.4" font-family="Times,serif" font-size="22.00">doj</text>
</g>
<!-- matty -->
<g id="node8" class="node"><title>matty</title>
<polygon fill="blue" stroke="black" points="4881.5,-108 4814.5,-108 4814.5,-72 4881.5,-72 4881.5,-108"/>
<text text-anchor="middle" x="4848" y="-84.4" font-family="Times,serif" font-size="22.00">matty</text>
</g>
<!-- croaker -->
<g id="node9" class="node"><title>croaker</title>
<polygon fill="blue" stroke="black" points="1304.5,-36 1221.5,-36 1221.5,-0 1304.5,-0 1304.5,-36"/>
<text text-anchor="middle" x="1263" y="-12.4" font-family="Times,serif" font-size="22.00">croaker</text>
</g>
<!-- retroATL3 -->
<g id="node10" class="node"><title>retroATL3</title>
<polygon fill="blue" stroke="black" points="4497.5,-36 4384.5,-36 4384.5,-0 4497.5,-0 4497.5,-36"/>
<text text-anchor="middle" x="4441" y="-12.4" font-family="Times,serif" font-size="22.00">retroATL3</text>
</g>
<!-- goblin -->
<g id="node11" class="node"><title>goblin</title>
<polygon fill="blue" stroke="black" points="2700,-36 2626,-36 2626,-0 2700,-0 2700,-36"/>
<text text-anchor="middle" x="2663" y="-12.4" font-family="Times,serif" font-size="22.00">goblin</text>
</g>
<!-- loftus -->
<g id="node12" class="node"><title>loftus</title>
<polygon fill="blue" stroke="black" points="3787.5,-36 3720.5,-36 3720.5,-0 3787.5,-0 3787.5,-36"/>
<text text-anchor="middle" x="3754" y="-12.4" font-family="Times,serif" font-size="22.00">loftus</text>
</g>
<!-- silent -->
<g id="node13" class="node"><title>silent</title>
<polygon fill="blue" stroke="black" points="1877,-36 1813,-36 1813,-0 1877,-0 1877,-36"/>
<text text-anchor="middle" x="1845" y="-12.4" font-family="Times,serif" font-size="22.00">silent</text>
</g>
<!-- na -->
<g id="node14" class="node"><title>na</title>
<ellipse fill="yellow" stroke="black" cx="67" cy="-90" rx="27" ry="18"/>
<text text-anchor="middle" x="67" y="-86.3" font-family="Times,serif" font-size="14.00">na</text>
</g>
<!-- na&#45;&gt;wirephantom -->
<g id="edge1" class="edge"><title>na&#45;&gt;wirephantom</title>
<path fill="none" stroke="black" d="M61.1601,-72.411C60.3194,-64.7079 60.0612,-55.3415 60.3853,-46.6164"/>
<polygon fill="black" stroke="black" points="63.8903,-46.6592 61.0696,-36.4468 56.906,-46.1892 63.8903,-46.6592"/>
</g>
<!-- na&#45;&gt;wirephantom -->
<g id="edge2" class="edge"><title>na&#45;&gt;wirephantom</title>
<path fill="none" stroke="black" d="M72.8399,-72.411C73.6806,-64.7079 73.9388,-55.3415 73.6147,-46.6164"/>
<polygon fill="black" stroke="black" points="77.094,-46.1892 72.9304,-36.4468 70.1097,-46.6592 77.094,-46.1892"/>
</g>
<!-- ITF&#45;1_GND -->
<g id="node15" class="node"><title>ITF&#45;1_GND</title>
<ellipse fill="yellow" stroke="black" cx="1514" cy="-90" rx="54.6905" ry="18"/>
<text text-anchor="middle" x="1514" y="-86.3" font-family="Times,serif" font-size="14.00">ITF&#45;1_GND</text>
</g>
<!-- ITF&#45;1_GND&#45;&gt;tobo -->
<g id="edge3" class="edge"><title>ITF&#45;1_GND&#45;&gt;tobo</title>
<path fill="none" stroke="black" d="M1550.62,-76.647C1578.31,-67.0965 1617.41,-53.1692 1659.51,-36.0547"/>
<polygon fill="black" stroke="black" points="1660.9,-39.2681 1668.82,-32.2363 1658.24,-32.7913 1660.9,-39.2681"/>
</g>
<!-- ITF&#45;1_GND&#45;&gt;elmo -->
<g id="edge12" class="edge"><title>ITF&#45;1_GND&#45;&gt;elmo</title>
<path fill="none" stroke="black" d="M1473.87,-77.6265C1466,-75.5963 1457.77,-73.6163 1450,-72 1345.69,-50.292 1317.69,-55.7889 1213,-36 1201.75,-33.8736 1189.62,-31.2643 1178.47,-28.7342"/>
<polygon fill="black" stroke="black" points="1179.08,-25.2835 1168.55,-26.4491 1177.51,-32.1048 1179.08,-25.2835"/>
</g>
<!-- ITF&#45;1_GND&#45;&gt;alt.tbo -->
<g id="edge17" class="edge"><title>ITF&#45;1_GND&#45;&gt;alt.tbo</title>
<path fill="none" stroke="black" d="M1536.42,-73.4647C1549.73,-64.2391 1566.86,-52.3678 1581.72,-42.0643"/>
<polygon fill="black" stroke="black" points="1583.94,-44.7838 1590.17,-36.2108 1579.95,-39.0305 1583.94,-44.7838"/>
</g>
<!-- ITF&#45;1_GND&#45;&gt;tomtom -->
<g id="edge34" class="edge"><title>ITF&#45;1_GND&#45;&gt;tomtom</title>
<path fill="none" stroke="black" d="M1552.72,-77.2751C1560.69,-75.2242 1569.07,-73.326 1577,-72 1848.2,-26.6686 2178.49,-19.8789 2305.61,-19.03"/>
<polygon fill="black" stroke="black" points="2305.87,-22.5287 2315.85,-18.9717 2305.83,-15.5288 2305.87,-22.5287"/>
</g>
<!-- ITF&#45;1_GND&#45;&gt;croaker -->
<g id="edge46" class="edge"><title>ITF&#45;1_GND&#45;&gt;croaker</title>
<path fill="none" stroke="black" d="M1473.67,-77.7533C1430.46,-65.7023 1361.74,-46.5378 1314.61,-33.3942"/>
<polygon fill="black" stroke="black" points="1315.47,-30.0007 1304.9,-30.6856 1313.59,-36.7434 1315.47,-30.0007"/>
</g>
<!-- ITF&#45;1_GND&#45;&gt;goblin -->
<g id="edge61" class="edge"><title>ITF&#45;1_GND&#45;&gt;goblin</title>
<path fill="none" stroke="black" d="M1552.7,-77.1225C1560.67,-75.0834 1569.05,-73.2286 1577,-72 1943.66,-15.3276 2040.55,-56.4874 2411,-36 2482.48,-32.047 2565.27,-26.2223 2615.88,-22.5207"/>
<polygon fill="black" stroke="black" points="2616.15,-26.0103 2625.87,-21.7872 2615.64,-19.0291 2616.15,-26.0103"/>
</g>
<!-- ITF&#45;1_GND&#45;&gt;silent -->
<g id="edge79" class="edge"><title>ITF&#45;1_GND&#45;&gt;silent</title>
<path fill="none" stroke="black" d="M1554.23,-77.7061C1561.77,-75.713 1569.61,-73.726 1577,-72 1656.24,-53.4967 1749.64,-35.9905 1802.63,-26.4552"/>
<polygon fill="black" stroke="black" points="1803.44,-29.8646 1812.67,-24.6565 1802.21,-22.9743 1803.44,-29.8646"/>
</g>
<!-- ITF&#45;2_VDD_5V -->
<g id="node16" class="node"><title>ITF&#45;2_VDD_5V</title>
<ellipse fill="yellow" stroke="black" cx="1656" cy="-90" rx="69.5877" ry="18"/>
<text text-anchor="middle" x="1656" y="-86.3" font-family="Times,serif" font-size="14.00">ITF&#45;2_VDD_5V</text>
</g>
<!-- ITF&#45;2_VDD_5V&#45;&gt;tobo -->
<g id="edge4" class="edge"><title>ITF&#45;2_VDD_5V&#45;&gt;tobo</title>
<path fill="none" stroke="black" d="M1665.92,-72.055C1670.69,-63.922 1676.5,-53.998 1681.81,-44.9426"/>
<polygon fill="black" stroke="black" points="1684.85,-46.6731 1686.88,-36.2753 1678.81,-43.1352 1684.85,-46.6731"/>
</g>
<!-- ITF&#45;2_VDD_5V&#45;&gt;elmo -->
<g id="edge13" class="edge"><title>ITF&#45;2_VDD_5V&#45;&gt;elmo</title>
<path fill="none" stroke="black" d="M1606.23,-77.2497C1596.89,-75.3009 1587.17,-73.4469 1578,-72 1416.98,-46.6007 1373.91,-62.0679 1213,-36 1201.8,-34.1855 1189.77,-31.7023 1178.7,-29.1943"/>
<polygon fill="black" stroke="black" points="1179.38,-25.7598 1168.85,-26.9025 1177.79,-32.5777 1179.38,-25.7598"/>
</g>
<!-- ITF&#45;2_VDD_5V&#45;&gt;alt.tbo -->
<g id="edge18" class="edge"><title>ITF&#45;2_VDD_5V&#45;&gt;alt.tbo</title>
<path fill="none" stroke="black" d="M1646.08,-72.055C1641.31,-63.922 1635.5,-53.998 1630.19,-44.9426"/>
<polygon fill="black" stroke="black" points="1633.19,-43.1352 1625.12,-36.2753 1627.15,-46.6731 1633.19,-43.1352"/>
</g>
<!-- ITF&#45;2_VDD_5V&#45;&gt;tomtom -->
<g id="edge35" class="edge"><title>ITF&#45;2_VDD_5V&#45;&gt;tomtom</title>
<path fill="none" stroke="black" d="M1705.34,-77.2337C1714.81,-75.2625 1724.68,-73.4046 1734,-72 1944.46,-40.2798 2197.86,-26.1017 2305.96,-21.169"/>
<polygon fill="black" stroke="black" points="2306.13,-24.6651 2315.96,-20.7203 2305.81,-17.6721 2306.13,-24.6651"/>
</g>
<!-- ITF&#45;2_VDD_5V&#45;&gt;croaker -->
<g id="edge47" class="edge"><title>ITF&#45;2_VDD_5V&#45;&gt;croaker</title>
<path fill="none" stroke="black" d="M1605.3,-77.5821C1596.23,-75.6432 1586.85,-73.7071 1578,-72 1485.54,-54.157 1377.16,-36.6673 1314.65,-26.9119"/>
<polygon fill="black" stroke="black" points="1315.06,-23.4346 1304.64,-25.3558 1313.99,-30.3514 1315.06,-23.4346"/>
</g>
<!-- ITF&#45;2_VDD_5V&#45;&gt;goblin -->
<g id="edge62" class="edge"><title>ITF&#45;2_VDD_5V&#45;&gt;goblin</title>
<path fill="none" stroke="black" d="M1704.88,-77.0823C1714.49,-75.0996 1724.52,-73.2763 1734,-72 2032.62,-31.7867 2110.23,-54.1408 2411,-36 2482.46,-31.6902 2565.26,-25.9638 2615.87,-22.3802"/>
<polygon fill="black" stroke="black" points="2616.14,-25.8705 2625.86,-21.6712 2615.64,-18.888 2616.14,-25.8705"/>
</g>
<!-- ITF&#45;2_VDD_5V&#45;&gt;silent -->
<g id="edge80" class="edge"><title>ITF&#45;2_VDD_5V&#45;&gt;silent</title>
<path fill="none" stroke="black" d="M1694.25,-74.8345C1725.82,-63.1405 1770.57,-46.5677 1803.1,-34.5171"/>
<polygon fill="black" stroke="black" points="1804.62,-37.6881 1812.78,-30.9328 1802.19,-31.1239 1804.62,-37.6881"/>
</g>
<!-- ITF&#45;9_Pon -->
<g id="node17" class="node"><title>ITF&#45;9_Pon</title>
<ellipse fill="yellow" stroke="black" cx="1263" cy="-90" rx="49.2915" ry="18"/>
<text text-anchor="middle" x="1263" y="-86.3" font-family="Times,serif" font-size="14.00">ITF&#45;9_Pon</text>
</g>
<!-- ITF&#45;9_Pon&#45;&gt;tobo -->
<g id="edge5" class="edge"><title>ITF&#45;9_Pon&#45;&gt;tobo</title>
<path fill="none" stroke="black" d="M1298.95,-77.563C1306.51,-75.4644 1314.47,-73.4745 1322,-72 1467.07,-43.5995 1512.39,-74.6697 1658.87,-35.7902"/>
<polygon fill="black" stroke="black" points="1659.93,-39.1279 1668.66,-33.1268 1658.09,-32.3731 1659.93,-39.1279"/>
</g>
<!-- ITF&#45;9_Pon&#45;&gt;alt.tbo -->
<g id="edge19" class="edge"><title>ITF&#45;9_Pon&#45;&gt;alt.tbo</title>
<path fill="none" stroke="black" d="M1299.67,-77.8092C1307.03,-75.7403 1314.73,-73.6993 1322,-72 1408.42,-51.7883 1510.71,-34.8481 1568.72,-25.8823"/>
<polygon fill="black" stroke="black" points="1569.32,-29.331 1578.67,-24.3546 1568.26,-22.412 1569.32,-29.331"/>
</g>
<!-- ITF&#45;9_Pon&#45;&gt;croaker -->
<g id="edge45" class="edge"><title>ITF&#45;9_Pon&#45;&gt;croaker</title>
<path fill="none" stroke="black" d="M1263,-71.6966C1263,-63.9827 1263,-54.7125 1263,-46.1124"/>
<polygon fill="black" stroke="black" points="1266.5,-46.1043 1263,-36.1043 1259.5,-46.1044 1266.5,-46.1043"/>
</g>
<!-- ITF&#45;10_Poff -->
<g id="node18" class="node"><title>ITF&#45;10_Poff</title>
<ellipse fill="yellow" stroke="black" cx="1386" cy="-90" rx="55.4913" ry="18"/>
<text text-anchor="middle" x="1386" y="-86.3" font-family="Times,serif" font-size="14.00">ITF&#45;10_Poff</text>
</g>
<!-- ITF&#45;10_Poff&#45;&gt;tobo -->
<g id="edge6" class="edge"><title>ITF&#45;10_Poff&#45;&gt;tobo</title>
<path fill="none" stroke="black" d="M1426.49,-77.656C1434.27,-75.6458 1442.36,-73.6656 1450,-72 1539.45,-52.4944 1567.67,-63.2323 1658.97,-35.8911"/>
<polygon fill="black" stroke="black" points="1660.07,-39.2147 1668.61,-32.9366 1658.02,-32.5222 1660.07,-39.2147"/>
</g>
<!-- ITF&#45;10_Poff&#45;&gt;alt.tbo -->
<g id="edge20" class="edge"><title>ITF&#45;10_Poff&#45;&gt;alt.tbo</title>
<path fill="none" stroke="black" d="M1424.85,-77.1255C1464.78,-64.9198 1526.92,-45.9225 1569.22,-32.9942"/>
<polygon fill="black" stroke="black" points="1570.45,-36.2789 1578.99,-30.0085 1568.4,-29.5847 1570.45,-36.2789"/>
</g>
<!-- ITF&#45;10_Poff&#45;&gt;croaker -->
<g id="edge44" class="edge"><title>ITF&#45;10_Poff&#45;&gt;croaker</title>
<path fill="none" stroke="black" d="M1359.61,-73.9832C1342.87,-64.4548 1320.91,-51.9548 1302.15,-41.2813"/>
<polygon fill="black" stroke="black" points="1303.66,-38.1137 1293.24,-36.2094 1300.2,-44.1975 1303.66,-38.1137"/>
</g>
<!-- ITF&#45;19_3.3V -->
<g id="node19" class="node"><title>ITF&#45;19_3.3V</title>
<ellipse fill="yellow" stroke="black" cx="1138" cy="-90" rx="57.6901" ry="18"/>
<text text-anchor="middle" x="1138" y="-86.3" font-family="Times,serif" font-size="14.00">ITF&#45;19_3.3V</text>
</g>
<!-- ITF&#45;19_3.3V&#45;&gt;tobo -->
<g id="edge7" class="edge"><title>ITF&#45;19_3.3V&#45;&gt;tobo</title>
<path fill="none" stroke="black" d="M1179.23,-77.3733C1187.7,-75.3148 1196.59,-73.3887 1205,-72 1401.92,-39.4693 1461.77,-85.6024 1658.89,-35.7364"/>
<polygon fill="black" stroke="black" points="1659.88,-39.0962 1668.68,-33.2084 1658.13,-32.3182 1659.88,-39.0962"/>
</g>
<!-- ITF&#45;19_3.3V&#45;&gt;elmo -->
<g id="edge14" class="edge"><title>ITF&#45;19_3.3V&#45;&gt;elmo</title>
<path fill="none" stroke="black" d="M1138,-71.6966C1138,-63.9827 1138,-54.7125 1138,-46.1124"/>
<polygon fill="black" stroke="black" points="1141.5,-46.1043 1138,-36.1043 1134.5,-46.1044 1141.5,-46.1043"/>
</g>
<!-- ITF&#45;19_3.3V&#45;&gt;alt.tbo -->
<g id="edge21" class="edge"><title>ITF&#45;19_3.3V&#45;&gt;alt.tbo</title>
<path fill="none" stroke="black" d="M1180,-77.5233C1188.25,-75.5021 1196.87,-73.5518 1205,-72 1335.8,-47.0457 1492.35,-30.425 1568.63,-23.165"/>
<polygon fill="black" stroke="black" points="1569.22,-26.6248 1578.85,-22.2028 1568.56,-19.6557 1569.22,-26.6248"/>
</g>
<!-- ITF&#45;19_3.3V&#45;&gt;croaker -->
<g id="edge48" class="edge"><title>ITF&#45;19_3.3V&#45;&gt;croaker</title>
<path fill="none" stroke="black" d="M1164.82,-73.9832C1181.91,-64.4115 1204.36,-51.8411 1223.47,-41.1359"/>
<polygon fill="black" stroke="black" points="1225.25,-44.1492 1232.27,-36.2094 1221.83,-38.0417 1225.25,-44.1492"/>
</g>
<!-- ITF&#45;mET_Transducer -->
<g id="node20" class="node"><title>ITF&#45;mET_Transducer</title>
<ellipse fill="green" stroke="black" cx="3566" cy="-90" rx="89.0842" ry="18"/>
<text text-anchor="middle" x="3566" y="-86.3" font-family="Times,serif" font-size="14.00">ITF&#45;mET_Transducer</text>
</g>
<!-- ITF&#45;mET_Transducer&#45;&gt;tobo -->
<g id="edge8" class="edge"><title>ITF&#45;mET_Transducer&#45;&gt;tobo</title>
<path fill="none" stroke="black" d="M3500.71,-77.7026C3486.92,-75.4133 3472.49,-73.3087 3459,-72 2722.73,-0.582841 2531.76,-102.188 1795,-36 1775.02,-34.2049 1753.11,-30.9546 1735.01,-27.7733"/>
<polygon fill="black" stroke="black" points="1735.57,-24.3179 1725.1,-25.9714 1734.31,-31.2049 1735.57,-24.3179"/>
</g>
<!-- ITF&#45;mET_Transducer&#45;&gt;tobo -->
<g id="edge11" class="edge"><title>ITF&#45;mET_Transducer&#45;&gt;tobo</title>
<path fill="none" stroke="black" d="M3508.91,-76.1643C3498.36,-74.49 3487.4,-73.0086 3477,-72 2740.73,-0.582841 2549.76,-102.188 1813,-36 1787.01,-33.6648 1757.76,-28.8671 1734.99,-24.9622"/>
<polygon fill="black" stroke="black" points="1735.46,-21.4928 1725.01,-23.2429 1734.27,-28.3911 1735.46,-21.4928"/>
</g>
<!-- ITF&#45;mET_Transducer&#45;&gt;alt.tbo -->
<g id="edge22" class="edge"><title>ITF&#45;mET_Transducer&#45;&gt;alt.tbo</title>
<path fill="none" stroke="black" d="M3500.71,-77.6858C3486.93,-75.3972 3472.49,-73.2971 3459,-72 3062.4,-33.8756 2062.85,-110.78 1661.25,-37.917"/>
<polygon fill="black" stroke="black" points="1661.76,-34.4526 1651.29,-36.0557 1660.48,-41.3335 1661.76,-34.4526"/>
</g>
<!-- ITF&#45;mET_Transducer&#45;&gt;alt.tbo -->
<g id="edge25" class="edge"><title>ITF&#45;mET_Transducer&#45;&gt;alt.tbo</title>
<path fill="none" stroke="black" d="M3508.91,-76.1486C3498.36,-74.4763 3487.4,-72.9997 3477,-72 3076.99,-33.5471 2063.58,-112.114 1669,-36 1666.4,-35.4983 1663.75,-34.8599 1661.09,-34.1264"/>
<polygon fill="black" stroke="black" points="1662.06,-30.7621 1651.47,-31.1284 1659.98,-37.4451 1662.06,-30.7621"/>
</g>
<!-- ITF&#45;mET_Transducer&#45;&gt;cletus -->
<g id="edge30" class="edge"><title>ITF&#45;mET_Transducer&#45;&gt;cletus</title>
<path fill="none" stroke="black" d="M3621.6,-75.8554C3666.67,-65.8181 3731.58,-51.1705 3788,-36 3794.48,-34.2565 3801.35,-32.2572 3808.12,-30.2564"/>
<polygon fill="black" stroke="black" points="3809.32,-33.5528 3817.91,-27.3537 3807.33,-26.8418 3809.32,-33.5528"/>
</g>
<!-- ITF&#45;mET_Transducer&#45;&gt;cletus -->
<g id="edge33" class="edge"><title>ITF&#45;mET_Transducer&#45;&gt;cletus</title>
<path fill="none" stroke="black" d="M3629.53,-77.3056C3678.25,-67.261 3746.79,-51.9183 3806,-36 3806.72,-35.8054 3807.45,-35.6076 3808.18,-35.4069"/>
<polygon fill="black" stroke="black" points="3809.16,-38.769 3817.82,-32.6677 3807.24,-32.0359 3809.16,-38.769"/>
</g>
<!-- ITF&#45;mET_Transducer&#45;&gt;retroATL3 -->
<g id="edge55" class="edge"><title>ITF&#45;mET_Transducer&#45;&gt;retroATL3</title>
<path fill="none" stroke="black" d="M3624.45,-76.3729C3634.59,-74.7262 3645.06,-73.1983 3655,-72 3919.93,-40.073 4238.17,-25.8733 4374.19,-21.0432"/>
<polygon fill="black" stroke="black" points="4374.58,-24.532 4384.45,-20.6846 4374.33,-17.5362 4374.58,-24.532"/>
</g>
<!-- ITF&#45;mET_Transducer&#45;&gt;retroATL3 -->
<g id="edge59" class="edge"><title>ITF&#45;mET_Transducer&#45;&gt;retroATL3</title>
<path fill="none" stroke="black" d="M3632.39,-77.9781C3645.86,-75.7345 3659.88,-73.5805 3673,-72 3931.39,-40.8613 4240.49,-26.5853 4374.14,-21.4182"/>
<polygon fill="black" stroke="black" points="4374.36,-24.9122 4384.22,-21.0328 4374.09,-17.9174 4374.36,-24.9122"/>
</g>
<!-- ITF&#45;mET_Transducer&#45;&gt;loftus -->
<g id="edge75" class="edge"><title>ITF&#45;mET_Transducer&#45;&gt;loftus</title>
<path fill="none" stroke="black" d="M3602,-73.4647C3632.93,-61.419 3677.45,-44.8629 3710.38,-33.1753"/>
<polygon fill="black" stroke="black" points="3711.93,-36.3396 3720.2,-29.7148 3709.6,-29.7375 3711.93,-36.3396"/>
</g>
<!-- ITF&#45;mET_Transducer&#45;&gt;loftus -->
<g id="edge78" class="edge"><title>ITF&#45;mET_Transducer&#45;&gt;loftus</title>
<path fill="none" stroke="black" d="M3611.03,-74.3257C3641.34,-63.5455 3681,-48.8283 3710.91,-37.283"/>
<polygon fill="black" stroke="black" points="3712.2,-40.5375 3720.25,-33.655 3709.66,-34.0122 3712.2,-40.5375"/>
</g>
<!-- ITF&#45;18_Raw -->
<g id="node21" class="node"><title>ITF&#45;18_Raw</title>
<ellipse fill="yellow" stroke="black" cx="1955" cy="-90" rx="55.7903" ry="18"/>
<text text-anchor="middle" x="1955" y="-86.3" font-family="Times,serif" font-size="14.00">ITF&#45;18_Raw</text>
</g>
<!-- ITF&#45;18_Raw&#45;&gt;tobo -->
<g id="edge9" class="edge"><title>ITF&#45;18_Raw&#45;&gt;tobo</title>
<path fill="none" stroke="black" d="M1913.55,-77.7533C1864.31,-64.3953 1782.87,-42.2972 1735.14,-29.347"/>
<polygon fill="black" stroke="black" points="1735.77,-25.8918 1725.2,-26.6511 1733.93,-32.6476 1735.77,-25.8918"/>
</g>
<!-- ITF&#45;18_Raw&#45;&gt;alt.tbo -->
<g id="edge23" class="edge"><title>ITF&#45;18_Raw&#45;&gt;alt.tbo</title>
<path fill="none" stroke="black" d="M1914.23,-77.6687C1906.23,-75.6347 1897.88,-73.6426 1890,-72 1791.88,-51.5432 1761.9,-61.7333 1661.12,-35.9906"/>
<polygon fill="black" stroke="black" points="1661.7,-32.5251 1651.14,-33.3849 1659.93,-39.298 1661.7,-32.5251"/>
</g>
<!-- ITF&#45;18_Raw&#45;&gt;goblin -->
<g id="edge66" class="edge"><title>ITF&#45;18_Raw&#45;&gt;goblin</title>
<path fill="none" stroke="black" d="M1994.98,-77.3802C2003.2,-75.3212 2011.84,-73.3931 2020,-72 2078.18,-62.0719 2476.38,-32.5683 2615.3,-22.4504"/>
<polygon fill="black" stroke="black" points="2615.9,-25.9162 2625.62,-21.6998 2615.4,-18.9346 2615.9,-25.9162"/>
</g>
<!-- ITF&#45;18_Raw&#45;&gt;silent -->
<g id="edge82" class="edge"><title>ITF&#45;18_Raw&#45;&gt;silent</title>
<path fill="none" stroke="black" d="M1930.86,-73.6382C1916.13,-64.2661 1897.04,-52.1162 1880.6,-41.6543"/>
<polygon fill="black" stroke="black" points="1882.1,-38.4602 1871.78,-36.0442 1878.34,-44.3658 1882.1,-38.4602"/>
</g>
<!-- ITF&#45;mET_SMA -->
<g id="node22" class="node"><title>ITF&#45;mET_SMA</title>
<ellipse fill="green" stroke="black" cx="1812" cy="-90" rx="68.7879" ry="18"/>
<text text-anchor="middle" x="1812" y="-86.3" font-family="Times,serif" font-size="14.00">ITF&#45;mET_SMA</text>
</g>
<!-- ITF&#45;mET_SMA&#45;&gt;tobo -->
<g id="edge10" class="edge"><title>ITF&#45;mET_SMA&#45;&gt;tobo</title>
<path fill="none" stroke="black" d="M1786.19,-73.2906C1770.74,-63.8854 1750.85,-51.7773 1733.77,-41.3832"/>
<polygon fill="black" stroke="black" points="1735.5,-38.3372 1725.14,-36.1274 1731.86,-44.3166 1735.5,-38.3372"/>
</g>
<!-- ITF&#45;mET_SMA&#45;&gt;alt.tbo -->
<g id="edge24" class="edge"><title>ITF&#45;mET_SMA&#45;&gt;alt.tbo</title>
<path fill="none" stroke="black" d="M1771.9,-75.331C1743.29,-65.5102 1703.7,-51.7741 1660.81,-36.2561"/>
<polygon fill="black" stroke="black" points="1661.91,-32.9333 1651.32,-32.8122 1659.53,-39.5135 1661.91,-32.9333"/>
</g>
<!-- ITF&#45;mET_SMA&#45;&gt;goblin -->
<g id="edge67" class="edge"><title>ITF&#45;mET_SMA&#45;&gt;goblin</title>
<path fill="none" stroke="black" d="M1860.9,-77.1985C1870.5,-75.2057 1880.53,-73.3489 1890,-72 1899.04,-70.7127 2448.72,-33.4893 2615.52,-22.2089"/>
<polygon fill="black" stroke="black" points="2616.21,-25.6708 2625.95,-21.5041 2615.73,-18.6868 2616.21,-25.6708"/>
</g>
<!-- ITF&#45;12_RPIn -->
<g id="node23" class="node"><title>ITF&#45;12_RPIn</title>
<ellipse fill="yellow" stroke="black" cx="338" cy="-90" rx="57.6901" ry="18"/>
<text text-anchor="middle" x="338" y="-86.3" font-family="Times,serif" font-size="14.00">ITF&#45;12_RPIn</text>
</g>
<!-- ITF&#45;12_RPIn&#45;&gt;elmo -->
<g id="edge15" class="edge"><title>ITF&#45;12_RPIn&#45;&gt;elmo</title>
<path fill="none" stroke="black" d="M379.22,-77.3287C387.69,-75.2736 396.589,-73.3603 405,-72 666.421,-29.7225 985.767,-21.1602 1097.27,-19.4336"/>
<polygon fill="black" stroke="black" points="1097.46,-22.9314 1107.4,-19.287 1097.35,-15.9321 1097.46,-22.9314"/>
</g>
<!-- Signal Digitalized -->
<g id="node24" class="node"><title>Signal Digitalized</title>
<ellipse fill="yellow" stroke="black" cx="187" cy="-90" rx="74.9875" ry="18"/>
<text text-anchor="middle" x="187" y="-86.3" font-family="Times,serif" font-size="14.00">Signal Digitalized</text>
</g>
<!-- Signal Digitalized&#45;&gt;elmo -->
<g id="edge16" class="edge"><title>Signal Digitalized&#45;&gt;elmo</title>
<path fill="none" stroke="black" d="M239.688,-77.1757C250.026,-75.1848 260.821,-73.3346 271,-72 587.001,-30.5683 972.14,-21.4232 1096.9,-19.4934"/>
<polygon fill="black" stroke="black" points="1097.19,-22.9896 1107.14,-19.3424 1097.09,-15.9904 1097.19,-22.9896"/>
</g>
<!-- ITF&#45;A_gnd -->
<g id="node25" class="node"><title>ITF&#45;A_gnd</title>
<ellipse fill="yellow" stroke="black" cx="4116" cy="-90" rx="50.8918" ry="18"/>
<text text-anchor="middle" x="4116" y="-86.3" font-family="Times,serif" font-size="14.00">ITF&#45;A_gnd</text>
</g>
<!-- ITF&#45;A_gnd&#45;&gt;cletus -->
<g id="edge26" class="edge"><title>ITF&#45;A_gnd&#45;&gt;cletus</title>
<path fill="none" stroke="black" d="M4077.95,-78.0825C4070.67,-76.033 4063.1,-73.9292 4056,-72 4001.03,-57.0735 3937.48,-40.7031 3896.11,-30.1638"/>
<polygon fill="black" stroke="black" points="3896.91,-26.7537 3886.35,-27.6799 3895.18,-33.5376 3896.91,-26.7537"/>
</g>
<!-- ITF&#45;A_gnd&#45;&gt;retroATL3 -->
<g id="edge52" class="edge"><title>ITF&#45;A_gnd&#45;&gt;retroATL3</title>
<path fill="none" stroke="black" d="M4153.33,-77.733C4160.49,-75.7157 4167.96,-73.7132 4175,-72 4242.38,-55.6112 4320.26,-40.5399 4374.26,-30.6932"/>
<polygon fill="black" stroke="black" points="4375.18,-34.0836 4384.4,-28.8556 4373.93,-27.1959 4375.18,-34.0836"/>
</g>
<!-- ITF&#45;A_gnd&#45;&gt;loftus -->
<g id="edge71" class="edge"><title>ITF&#45;A_gnd&#45;&gt;loftus</title>
<path fill="none" stroke="black" d="M4078.74,-77.6249C4071.26,-75.5712 4063.41,-73.5829 4056,-72 3947.51,-48.8291 3917.21,-60.4537 3809,-36 3805.16,-35.1326 3801.2,-34.1298 3797.25,-33.0538"/>
<polygon fill="black" stroke="black" points="3798.09,-29.6547 3787.52,-30.264 3796.17,-36.3838 3798.09,-29.6547"/>
</g>
<!-- ITF&#45;B_5v -->
<g id="node26" class="node"><title>ITF&#45;B_5v</title>
<ellipse fill="yellow" stroke="black" cx="3875" cy="-90" rx="46.2923" ry="18"/>
<text text-anchor="middle" x="3875" y="-86.3" font-family="Times,serif" font-size="14.00">ITF&#45;B_5v</text>
</g>
<!-- ITF&#45;B_5v&#45;&gt;cletus -->
<g id="edge27" class="edge"><title>ITF&#45;B_5v&#45;&gt;cletus</title>
<path fill="none" stroke="black" d="M3869.43,-72.055C3866.84,-64.1762 3863.7,-54.6165 3860.8,-45.794"/>
<polygon fill="black" stroke="black" points="3864.12,-44.6831 3857.68,-36.2753 3857.47,-46.8682 3864.12,-44.6831"/>
</g>
<!-- ITF&#45;B_5v&#45;&gt;loftus -->
<g id="edge72" class="edge"><title>ITF&#45;B_5v&#45;&gt;loftus</title>
<path fill="none" stroke="black" d="M3850.22,-74.6655C3833.51,-64.9971 3811.13,-52.0507 3792.16,-41.0764"/>
<polygon fill="black" stroke="black" points="3793.85,-38.0096 3783.44,-36.0316 3790.34,-44.0688 3793.85,-38.0096"/>
</g>
<!-- ITF&#45;N_cc_motor_pwm -->
<g id="node27" class="node"><title>ITF&#45;N_cc_motor_pwm</title>
<ellipse fill="yellow" stroke="black" cx="4278" cy="-90" rx="93.6835" ry="18"/>
<text text-anchor="middle" x="4278" y="-86.3" font-family="Times,serif" font-size="14.00">ITF&#45;N_cc_motor_pwm</text>
</g>
<!-- ITF&#45;N_cc_motor_pwm&#45;&gt;cletus -->
<g id="edge28" class="edge"><title>ITF&#45;N_cc_motor_pwm&#45;&gt;cletus</title>
<path fill="none" stroke="black" d="M4209.97,-77.6325C4198.63,-75.7455 4186.98,-73.8134 4176,-72 4075.85,-55.4632 3958.25,-36.2859 3895.94,-26.1444"/>
<polygon fill="black" stroke="black" points="3896.49,-22.6884 3886.06,-24.5367 3895.37,-29.5975 3896.49,-22.6884"/>
</g>
<!-- ITF&#45;N_cc_motor_pwm&#45;&gt;retroATL3 -->
<g id="edge54" class="edge"><title>ITF&#45;N_cc_motor_pwm&#45;&gt;retroATL3</title>
<path fill="none" stroke="black" d="M4314.58,-73.2906C4337.47,-63.4613 4367.23,-50.6801 4392.13,-39.9883"/>
<polygon fill="black" stroke="black" points="4393.6,-43.1654 4401.41,-36.0033 4390.84,-36.7334 4393.6,-43.1654"/>
</g>
<!-- ITF&#45;N_cc_motor_pwm&#45;&gt;loftus -->
<g id="edge73" class="edge"><title>ITF&#45;N_cc_motor_pwm&#45;&gt;loftus</title>
<path fill="none" stroke="black" d="M4211.71,-77.2858C4199.84,-75.3785 4187.57,-73.5297 4176,-72 4013.52,-50.5158 3969.67,-68.3644 3809,-36 3805.3,-35.2556 3801.5,-34.3615 3797.71,-33.378"/>
<polygon fill="black" stroke="black" points="3798.33,-29.9173 3787.76,-30.6071 3796.45,-36.6609 3798.33,-29.9173"/>
</g>
<!-- ITF&#45;S_3_3v -->
<g id="node28" class="node"><title>ITF&#45;S_3_3v</title>
<ellipse fill="yellow" stroke="black" cx="3993" cy="-90" rx="53.8905" ry="18"/>
<text text-anchor="middle" x="3993" y="-86.3" font-family="Times,serif" font-size="14.00">ITF&#45;S_3_3v</text>
</g>
<!-- ITF&#45;S_3_3v&#45;&gt;cletus -->
<g id="edge29" class="edge"><title>ITF&#45;S_3_3v&#45;&gt;cletus</title>
<path fill="none" stroke="black" d="M3964.13,-74.6655C3944.23,-64.7869 3917.44,-51.4863 3895.03,-40.3637"/>
<polygon fill="black" stroke="black" points="3896.56,-37.2168 3886.05,-35.9049 3893.45,-43.4866 3896.56,-37.2168"/>
</g>
<!-- ITF&#45;S_3_3v&#45;&gt;loftus -->
<g id="edge74" class="edge"><title>ITF&#45;S_3_3v&#45;&gt;loftus</title>
<path fill="none" stroke="black" d="M3953.09,-77.7457C3915.78,-67.1654 3858.53,-50.7874 3809,-36 3805.23,-34.8743 3801.32,-33.6927 3797.4,-32.499"/>
<polygon fill="black" stroke="black" points="3798.3,-29.114 3787.71,-29.532 3796.25,-35.8071 3798.3,-29.114"/>
</g>
<!-- ITF&#45;mET_Piezo -->
<g id="node29" class="node"><title>ITF&#45;mET_Piezo</title>
<ellipse fill="green" stroke="black" cx="3742" cy="-90" rx="68.7879" ry="18"/>
<text text-anchor="middle" x="3742" y="-86.3" font-family="Times,serif" font-size="14.00">ITF&#45;mET_Piezo</text>
</g>
<!-- ITF&#45;mET_Piezo&#45;&gt;cletus -->
<g id="edge31" class="edge"><title>ITF&#45;mET_Piezo&#45;&gt;cletus</title>
<path fill="none" stroke="black" d="M3761.97,-72.5881C3775.52,-63.314 3793.77,-51.587 3810.34,-41.4695"/>
<polygon fill="black" stroke="black" points="3812.58,-44.2046 3819.33,-36.04 3808.96,-38.212 3812.58,-44.2046"/>
</g>
<!-- ITF&#45;mET_Piezo&#45;&gt;cletus -->
<g id="edge32" class="edge"><title>ITF&#45;mET_Piezo&#45;&gt;cletus</title>
<path fill="none" stroke="black" d="M3771.84,-73.6382C3787.69,-64.2661 3807.01,-52.1162 3822.76,-41.6543"/>
<polygon fill="black" stroke="black" points="3824.76,-44.5289 3831.1,-36.0442 3820.85,-38.7201 3824.76,-44.5289"/>
</g>
<!-- ITF&#45;mET_Piezo&#45;&gt;loftus -->
<g id="edge76" class="edge"><title>ITF&#45;mET_Piezo&#45;&gt;loftus</title>
<path fill="none" stroke="black" d="M3739.05,-71.6966C3739.58,-63.8979 3740.97,-54.5085 3742.82,-45.8292"/>
<polygon fill="black" stroke="black" points="3746.22,-46.6473 3745.17,-36.1043 3739.42,-44.9991 3746.22,-46.6473"/>
</g>
<!-- ITF&#45;mET_Piezo&#45;&gt;loftus -->
<g id="edge77" class="edge"><title>ITF&#45;mET_Piezo&#45;&gt;loftus</title>
<path fill="none" stroke="black" d="M3750.78,-72.055C3752.92,-64.3456 3754.76,-55.0269 3755.91,-46.3642"/>
<polygon fill="black" stroke="black" points="3759.41,-46.5808 3756.95,-36.2753 3752.45,-45.8649 3759.41,-46.5808"/>
</g>
<!-- ITF&#45;3_ENV -->
<g id="node30" class="node"><title>ITF&#45;3_ENV</title>
<ellipse fill="yellow" stroke="black" cx="2225" cy="-90" rx="53.8905" ry="18"/>
<text text-anchor="middle" x="2225" y="-86.3" font-family="Times,serif" font-size="14.00">ITF&#45;3_ENV</text>
</g>
<!-- ITF&#45;3_ENV&#45;&gt;tomtom -->
<g id="edge36" class="edge"><title>ITF&#45;3_ENV&#45;&gt;tomtom</title>
<path fill="none" stroke="black" d="M2252.76,-74.496C2271.33,-64.7983 2296.1,-51.8594 2317.05,-40.9146"/>
<polygon fill="black" stroke="black" points="2318.82,-43.9362 2326.07,-36.2038 2315.58,-37.7318 2318.82,-43.9362"/>
</g>
<!-- ITF&#45;3_ENV&#45;&gt;croaker -->
<g id="edge43" class="edge"><title>ITF&#45;3_ENV&#45;&gt;croaker</title>
<path fill="none" stroke="black" d="M2186.62,-77.307C2178.56,-75.2269 2170.05,-73.3094 2162,-72 2140.96,-68.5784 1503.1,-32.5097 1314.83,-21.9122"/>
<polygon fill="black" stroke="black" points="1314.82,-18.4063 1304.64,-21.3389 1314.43,-25.3952 1314.82,-18.4063"/>
</g>
<!-- ITF&#45;3_ENV&#45;&gt;goblin -->
<g id="edge65" class="edge"><title>ITF&#45;3_ENV&#45;&gt;goblin</title>
<path fill="none" stroke="black" d="M2264.48,-77.5495C2272.24,-75.526 2280.34,-73.5682 2288,-72 2404.8,-48.0813 2544.29,-31.4556 2615.71,-23.7919"/>
<polygon fill="black" stroke="black" points="2616.17,-27.2628 2625.75,-22.7264 2615.43,-20.302 2616.17,-27.2628"/>
</g>
<!-- ITF&#45;15_GPIO21 -->
<g id="node31" class="node"><title>ITF&#45;15_GPIO21</title>
<ellipse fill="yellow" stroke="black" cx="2581" cy="-90" rx="69.5877" ry="18"/>
<text text-anchor="middle" x="2581" y="-86.3" font-family="Times,serif" font-size="14.00">ITF&#45;15_GPIO21</text>
</g>
<!-- ITF&#45;15_GPIO21&#45;&gt;tomtom -->
<g id="edge37" class="edge"><title>ITF&#45;15_GPIO21&#45;&gt;tomtom</title>
<path fill="none" stroke="black" d="M2538.72,-75.6688C2502.65,-64.2959 2450.62,-47.8907 2411.82,-35.6551"/>
<polygon fill="black" stroke="black" points="2412.85,-32.3091 2402.26,-32.6398 2410.74,-38.9851 2412.85,-32.3091"/>
</g>
<!-- ITF&#45;16_POn3 -->
<g id="node32" class="node"><title>ITF&#45;16_POn3</title>
<ellipse fill="yellow" stroke="black" cx="2728" cy="-90" rx="59.5901" ry="18"/>
<text text-anchor="middle" x="2728" y="-86.3" font-family="Times,serif" font-size="14.00">ITF&#45;16_POn3</text>
</g>
<!-- ITF&#45;16_POn3&#45;&gt;tomtom -->
<g id="edge38" class="edge"><title>ITF&#45;16_POn3&#45;&gt;tomtom</title>
<path fill="none" stroke="black" d="M2680.92,-78.9044C2670.99,-76.5063 2660.64,-74.0512 2651,-72 2567.89,-54.3176 2470.98,-38.0187 2412.25,-28.2914"/>
<polygon fill="black" stroke="black" points="2412.54,-24.7909 2402.1,-26.6115 2411.4,-31.697 2412.54,-24.7909"/>
</g>
<!-- ITF&#45;16_POn3&#45;&gt;tomtom -->
<g id="edge39" class="edge"><title>ITF&#45;16_POn3&#45;&gt;tomtom</title>
<path fill="none" stroke="black" d="M2688.36,-76.4161C2681.92,-74.8572 2675.31,-73.3422 2669,-72 2579.52,-52.9631 2474.05,-35.5297 2411.96,-26.174"/>
<polygon fill="black" stroke="black" points="2412.41,-22.7025 2402,-24.6877 2411.37,-29.6258 2412.41,-22.7025"/>
</g>
<!-- ITF&#45;17_POff3 -->
<g id="node33" class="node"><title>ITF&#45;17_POff3</title>
<ellipse fill="yellow" stroke="black" cx="2091" cy="-90" rx="61.99" ry="18"/>
<text text-anchor="middle" x="2091" y="-86.3" font-family="Times,serif" font-size="14.00">ITF&#45;17_POff3</text>
</g>
<!-- ITF&#45;17_POff3&#45;&gt;tomtom -->
<g id="edge40" class="edge"><title>ITF&#45;17_POff3&#45;&gt;tomtom</title>
<path fill="none" stroke="black" d="M2135.25,-77.4409C2181.99,-65.2343 2255.68,-45.9877 2305.6,-32.9466"/>
<polygon fill="black" stroke="black" points="2306.78,-36.2576 2315.57,-30.344 2305.01,-29.4848 2306.78,-36.2576"/>
</g>
<!-- ITF&#45;17_POff3&#45;&gt;silent -->
<g id="edge81" class="edge"><title>ITF&#45;17_POff3&#45;&gt;silent</title>
<path fill="none" stroke="black" d="M2048.43,-76.8868C2003.17,-64.0086 1932.04,-43.7686 1887,-30.9521"/>
<polygon fill="black" stroke="black" points="1887.83,-27.5486 1877.25,-28.178 1885.91,-34.2813 1887.83,-27.5486"/>
</g>
<!-- ITF&#45;14_PWM -->
<g id="node34" class="node"><title>ITF&#45;14_PWM</title>
<ellipse fill="yellow" stroke="black" cx="2359" cy="-90" rx="61.99" ry="18"/>
<text text-anchor="middle" x="2359" y="-86.3" font-family="Times,serif" font-size="14.00">ITF&#45;14_PWM</text>
</g>
<!-- ITF&#45;14_PWM&#45;&gt;tomtom -->
<g id="edge41" class="edge"><title>ITF&#45;14_PWM&#45;&gt;tomtom</title>
<path fill="none" stroke="black" d="M2359,-71.6966C2359,-63.9827 2359,-54.7125 2359,-46.1124"/>
<polygon fill="black" stroke="black" points="2362.5,-46.1043 2359,-36.1043 2355.5,-46.1044 2362.5,-46.1043"/>
</g>
<!-- Wifi -->
<g id="node35" class="node"><title>Wifi</title>
<ellipse fill="yellow" stroke="black" cx="2466" cy="-90" rx="27.0966" ry="18"/>
<text text-anchor="middle" x="2466" y="-86.3" font-family="Times,serif" font-size="14.00">Wifi</text>
</g>
<!-- Wifi&#45;&gt;tomtom -->
<g id="edge42" class="edge"><title>Wifi&#45;&gt;tomtom</title>
<path fill="none" stroke="black" d="M2447.36,-76.8069C2432.54,-67.1121 2411.4,-53.2823 2393.52,-41.5805"/>
<polygon fill="black" stroke="black" points="2395.32,-38.5801 2385.04,-36.0344 2391.49,-44.438 2395.32,-38.5801"/>
</g>
<!-- ITF&#45;mED&#45;TFT&#45;Screen -->
<g id="node36" class="node"><title>ITF&#45;mED&#45;TFT&#45;Screen</title>
<ellipse fill="green" stroke="black" cx="755" cy="-90" rx="90.9839" ry="18"/>
<text text-anchor="middle" x="755" y="-86.3" font-family="Times,serif" font-size="14.00">ITF&#45;mED&#45;TFT&#45;Screen</text>
</g>
<!-- ITF&#45;mED&#45;TFT&#45;Screen&#45;&gt;croaker -->
<g id="edge49" class="edge"><title>ITF&#45;mED&#45;TFT&#45;Screen&#45;&gt;croaker</title>
<path fill="none" stroke="black" d="M820.004,-77.393C831.639,-75.4742 843.665,-73.5938 855,-72 998.037,-51.8876 1035.27,-58.1846 1178,-36 1188.82,-34.3189 1200.35,-32.2207 1211.31,-30.0782"/>
<polygon fill="black" stroke="black" points="1212.07,-33.4968 1221.19,-28.1088 1210.7,-26.632 1212.07,-33.4968"/>
</g>
<!-- ITF&#45;mED&#45;OLED&#45;Screen -->
<g id="node37" class="node"><title>ITF&#45;mED&#45;OLED&#45;Screen</title>
<ellipse fill="green" stroke="black" cx="963" cy="-90" rx="98.5829" ry="18"/>
<text text-anchor="middle" x="963" y="-86.3" font-family="Times,serif" font-size="14.00">ITF&#45;mED&#45;OLED&#45;Screen</text>
</g>
<!-- ITF&#45;mED&#45;OLED&#45;Screen&#45;&gt;croaker -->
<g id="edge50" class="edge"><title>ITF&#45;mED&#45;OLED&#45;Screen&#45;&gt;croaker</title>
<path fill="none" stroke="black" d="M1021.2,-75.4203C1076.43,-62.5341 1158.63,-43.3535 1211.52,-31.0114"/>
<polygon fill="black" stroke="black" points="1212.43,-34.3946 1221.37,-28.7138 1210.84,-27.5777 1212.43,-34.3946"/>
</g>
<!-- ITF&#45;mEC&#45;WiFi&#45;UDP&#45;Stream -->
<g id="node38" class="node"><title>ITF&#45;mEC&#45;WiFi&#45;UDP&#45;Stream</title>
<ellipse fill="green" stroke="black" cx="530" cy="-90" rx="115.88" ry="18"/>
<text text-anchor="middle" x="530" y="-86.3" font-family="Times,serif" font-size="14.00">ITF&#45;mEC&#45;WiFi&#45;UDP&#45;Stream</text>
</g>
<!-- ITF&#45;mEC&#45;WiFi&#45;UDP&#45;Stream&#45;&gt;croaker -->
<g id="edge51" class="edge"><title>ITF&#45;mEC&#45;WiFi&#45;UDP&#45;Stream&#45;&gt;croaker</title>
<path fill="none" stroke="black" d="M611.267,-77.1508C625.809,-75.2578 640.838,-73.4488 655,-72 886.785,-48.2878 947.065,-66.9109 1178,-36 1188.85,-34.5478 1200.39,-32.5485 1211.37,-30.4302"/>
<polygon fill="black" stroke="black" points="1212.12,-33.8491 1221.24,-28.4637 1210.75,-26.9838 1212.12,-33.8491"/>
</g>
<!-- ITF&#45;F_12V -->
<g id="node39" class="node"><title>ITF&#45;F_12V</title>
<ellipse fill="yellow" stroke="black" cx="4441" cy="-90" rx="51.1914" ry="18"/>
<text text-anchor="middle" x="4441" y="-86.3" font-family="Times,serif" font-size="14.00">ITF&#45;F_12V</text>
</g>
<!-- ITF&#45;F_12V&#45;&gt;retroATL3 -->
<g id="edge53" class="edge"><title>ITF&#45;F_12V&#45;&gt;retroATL3</title>
<path fill="none" stroke="black" d="M4441,-71.6966C4441,-63.9827 4441,-54.7125 4441,-46.1124"/>
<polygon fill="black" stroke="black" points="4444.5,-46.1043 4441,-36.1043 4437.5,-46.1044 4444.5,-46.1043"/>
</g>
<!-- Motor -->
<g id="node40" class="node"><title>Motor</title>
<ellipse fill="yellow" stroke="black" cx="4543" cy="-90" rx="33.2948" ry="18"/>
<text text-anchor="middle" x="4543" y="-86.3" font-family="Times,serif" font-size="14.00">Motor</text>
</g>
<!-- Motor&#45;&gt;retroATL3 -->
<g id="edge56" class="edge"><title>Motor&#45;&gt;retroATL3</title>
<path fill="none" stroke="black" d="M4519.97,-76.8069C4504.63,-67.2884 4484.57,-53.7838 4468.44,-42.2209"/>
<polygon fill="black" stroke="black" points="4470.08,-39.0869 4459.93,-36.0344 4465.96,-44.7475 4470.08,-39.0869"/>
</g>
<!-- Motor&#45;&gt;retroATL3 -->
<g id="edge58" class="edge"><title>Motor&#45;&gt;retroATL3</title>
<path fill="none" stroke="black" d="M4527,-74.1548C4514.47,-64.7412 4496.69,-52.3769 4480.5,-41.7412"/>
<polygon fill="black" stroke="black" points="4482.01,-38.5469 4471.72,-36.04 4478.2,-44.4192 4482.01,-38.5469"/>
</g>
<!-- Tri&#45;Piezo Head -->
<g id="node41" class="node"><title>Tri&#45;Piezo Head</title>
<ellipse fill="yellow" stroke="black" cx="4659" cy="-90" rx="64.9885" ry="18"/>
<text text-anchor="middle" x="4659" y="-86.3" font-family="Times,serif" font-size="14.00">Tri&#45;Piezo Head</text>
</g>
<!-- Tri&#45;Piezo Head&#45;&gt;retroATL3 -->
<g id="edge57" class="edge"><title>Tri&#45;Piezo Head&#45;&gt;retroATL3</title>
<path fill="none" stroke="black" d="M4615.24,-76.6465C4581.46,-66.306 4534.56,-51.3438 4497.89,-39.2541"/>
<polygon fill="black" stroke="black" points="4498.91,-35.9064 4488.32,-36.0872 4496.72,-42.5519 4498.91,-35.9064"/>
</g>
<!-- Tri&#45;Piezo Head&#45;&gt;retroATL3 -->
<g id="edge60" class="edge"><title>Tri&#45;Piezo Head&#45;&gt;retroATL3</title>
<path fill="none" stroke="black" d="M4621.43,-75.1703C4590.17,-64.6731 4545,-50.1063 4507.65,-38.4374"/>
<polygon fill="black" stroke="black" points="4508.43,-35.0137 4497.84,-35.3836 4506.35,-41.6975 4508.43,-35.0137"/>
</g>
<!-- ITF&#45;7_GAIN -->
<g id="node42" class="node"><title>ITF&#45;7_GAIN</title>
<ellipse fill="yellow" stroke="black" cx="3401" cy="-90" rx="57.6901" ry="18"/>
<text text-anchor="middle" x="3401" y="-86.3" font-family="Times,serif" font-size="14.00">ITF&#45;7_GAIN</text>
</g>
<!-- ITF&#45;7_GAIN&#45;&gt;goblin -->
<g id="edge63" class="edge"><title>ITF&#45;7_GAIN&#45;&gt;goblin</title>
<path fill="none" stroke="black" d="M3359.77,-77.3724C3351.3,-75.314 3342.41,-73.3882 3334,-72 3102.24,-33.729 2820.73,-22.8821 2710.49,-19.9881"/>
<polygon fill="black" stroke="black" points="2710.45,-16.4861 2700.37,-19.7323 2710.27,-23.4839 2710.45,-16.4861"/>
</g>
<!-- ITF&#45;4_RawSig -->
<g id="node43" class="node"><title>ITF&#45;4_RawSig</title>
<ellipse fill="yellow" stroke="black" cx="2869" cy="-90" rx="63.8893" ry="18"/>
<text text-anchor="middle" x="2869" y="-86.3" font-family="Times,serif" font-size="14.00">ITF&#45;4_RawSig</text>
</g>
<!-- ITF&#45;4_RawSig&#45;&gt;goblin -->
<g id="edge64" class="edge"><title>ITF&#45;4_RawSig&#45;&gt;goblin</title>
<path fill="none" stroke="black" d="M2826.86,-76.4854C2792.83,-65.486 2745.12,-49.3486 2709.9,-36.9696"/>
<polygon fill="black" stroke="black" points="2710.91,-33.616 2700.32,-33.5851 2708.58,-40.2162 2710.91,-33.616"/>
</g>
<!-- ITF&#45;4_RawSig&#45;&gt;goblin -->
<g id="edge68" class="edge"><title>ITF&#45;4_RawSig&#45;&gt;goblin</title>
<path fill="none" stroke="black" d="M2833.33,-75.0027C2799.07,-62.8065 2747.29,-45.2111 2709.76,-33.0109"/>
<polygon fill="black" stroke="black" points="2710.65,-29.6215 2700.06,-29.8772 2708.5,-36.2824 2710.65,-29.6215"/>
</g>
<!-- ITF&#45;3_ENV_signal_envelope -->
<g id="node44" class="node"><title>ITF&#45;3_ENV_signal_envelope</title>
<ellipse fill="yellow" stroke="black" cx="3066" cy="-90" rx="115.08" ry="18"/>
<text text-anchor="middle" x="3066" y="-86.3" font-family="Times,serif" font-size="14.00">ITF&#45;3_ENV_signal_envelope</text>
</g>
<!-- ITF&#45;3_ENV_signal_envelope&#45;&gt;goblin -->
<g id="edge69" class="edge"><title>ITF&#45;3_ENV_signal_envelope&#45;&gt;goblin</title>
<path fill="none" stroke="black" d="M2992.08,-76.1609C2909.95,-61.8948 2779.78,-39.2841 2710.32,-27.2202"/>
<polygon fill="black" stroke="black" points="2710.57,-23.7113 2700.12,-25.4482 2709.38,-30.608 2710.57,-23.7113"/>
</g>
<!-- ITF&#45;mEG_SPI -->
<g id="node45" class="node"><title>ITF&#45;mEG_SPI</title>
<ellipse fill="green" stroke="black" cx="3262" cy="-90" rx="63.0888" ry="18"/>
<text text-anchor="middle" x="3262" y="-86.3" font-family="Times,serif" font-size="14.00">ITF&#45;mEG_SPI</text>
</g>
<!-- ITF&#45;mEG_SPI&#45;&gt;goblin -->
<g id="edge70" class="edge"><title>ITF&#45;mEG_SPI&#45;&gt;goblin</title>
<path fill="none" stroke="black" d="M3216.86,-77.384C3208,-75.375 3198.74,-73.4648 3190,-72 3014.48,-42.584 2803.14,-27.3532 2710.46,-21.6721"/>
<polygon fill="black" stroke="black" points="2710.47,-18.1668 2700.28,-21.0576 2710.05,-25.154 2710.47,-18.1668"/>
</g>
</g>
</svg>
