<?xml version="1.0" encoding="UTF-8" standalone="no"?>
<!DOCTYPE svg PUBLIC "-//W3C//DTD SVG 1.1//EN"
 "http://www.w3.org/Graphics/SVG/1.1/DTD/svg11.dtd">
<!-- Generated by graphviz version 2.38.0 (20140413.2041)
 -->
<!-- Title: %3 Pages: 1 -->
<svg width="1013pt" height="620pt"
 viewBox="0.00 0.00 1013.15 620.00" xmlns="http://www.w3.org/2000/svg" xmlns:xlink="http://www.w3.org/1999/xlink">
<g id="graph0" class="graph" transform="scale(1 1) rotate(0) translate(4 616)">
<title>%3</title>
<polygon fill="white" stroke="none" points="-4,4 -4,-616 1009.15,-616 1009.15,4 -4,4"/>
<!-- tobo -->
<g id="node1" class="node"><title>tobo</title>
<polygon fill="blue" stroke="black" points="565.146,-252 509.146,-252 509.146,-216 565.146,-216 565.146,-252"/>
<text text-anchor="middle" x="537.146" y="-228.4" font-family="Times,serif" font-size="22.00">tobo</text>
</g>
<!-- ITF&#45;R_reserved -->
<g id="node11" class="node"><title>ITF&#45;R_reserved</title>
<ellipse fill="yellow" stroke="black" cx="593.146" cy="-162" rx="66.8882" ry="18"/>
<text text-anchor="middle" x="593.146" y="-158.3" font-family="Times,serif" font-size="14.00">ITF&#45;R_reserved</text>
</g>
<!-- tobo&#45;&gt;ITF&#45;R_reserved -->
<g id="edge6" class="edge"><title>tobo&#45;&gt;ITF&#45;R_reserved</title>
<path fill="none" stroke="black" d="M550.989,-215.697C557.634,-207.389 565.724,-197.277 573.033,-188.141"/>
<polygon fill="red" stroke="black" points="575.948,-190.099 579.462,-180.104 570.482,-185.727 575.948,-190.099"/>
</g>
<!-- ITF&#45;mET_SMA -->
<g id="node12" class="node"><title>ITF&#45;mET_SMA</title>
<ellipse fill="green" stroke="black" cx="439.146" cy="-162" rx="68.7879" ry="18"/>
<text text-anchor="middle" x="439.146" y="-158.3" font-family="Times,serif" font-size="14.00">ITF&#45;mET_SMA</text>
</g>
<!-- tobo&#45;&gt;ITF&#45;mET_SMA -->
<g id="edge7" class="edge"><title>tobo&#45;&gt;ITF&#45;mET_SMA</title>
<path fill="none" stroke="black" d="M513.172,-215.876C500.221,-206.625 484.08,-195.096 470.179,-185.167"/>
<polygon fill="red" stroke="black" points="472.034,-182.19 461.862,-179.226 467.965,-187.886 472.034,-182.19"/>
</g>
<!-- ITF&#45;mET_Transducer -->
<g id="node13" class="node"><title>ITF&#45;mET_Transducer</title>
<ellipse fill="green" stroke="black" cx="850.146" cy="-162" rx="89.0842" ry="18"/>
<text text-anchor="middle" x="850.146" y="-158.3" font-family="Times,serif" font-size="14.00">ITF&#45;mET_Transducer</text>
</g>
<!-- tobo&#45;&gt;ITF&#45;mET_Transducer -->
<g id="edge8" class="edge"><title>tobo&#45;&gt;ITF&#45;mET_Transducer</title>
<path fill="none" stroke="black" d="M565.149,-219.287C568.147,-218.075 571.184,-216.949 574.146,-216 637.242,-195.774 711.061,-182.093 766.473,-173.704"/>
<polygon fill="red" stroke="black" points="767.222,-177.131 776.598,-172.199 766.192,-170.207 767.222,-177.131"/>
</g>
<!-- oneeye -->
<g id="node2" class="node"><title>oneeye</title>
<polygon fill="blue" stroke="black" points="554.146,-396 474.146,-396 474.146,-360 554.146,-360 554.146,-396"/>
<text text-anchor="middle" x="514.146" y="-372.4" font-family="Times,serif" font-size="22.00">oneeye</text>
</g>
<!-- ITF&#45;I_pulse_on -->
<g id="node8" class="node"><title>ITF&#45;I_pulse_on</title>
<ellipse fill="yellow" stroke="black" cx="438.146" cy="-306" rx="65.7887" ry="18"/>
<text text-anchor="middle" x="438.146" y="-302.3" font-family="Times,serif" font-size="14.00">ITF&#45;I_pulse_on</text>
</g>
<!-- oneeye&#45;&gt;ITF&#45;I_pulse_on -->
<g id="edge13" class="edge"><title>oneeye&#45;&gt;ITF&#45;I_pulse_on</title>
<path fill="none" stroke="black" d="M495.359,-359.697C485.762,-350.857 473.945,-339.973 463.547,-330.396"/>
<polygon fill="red" stroke="black" points="465.66,-327.583 455.933,-323.383 460.917,-332.732 465.66,-327.583"/>
</g>
<!-- ITF&#45;J_pulse_off -->
<g id="node9" class="node"><title>ITF&#45;J_pulse_off</title>
<ellipse fill="yellow" stroke="black" cx="589.146" cy="-306" rx="67.6881" ry="18"/>
<text text-anchor="middle" x="589.146" y="-302.3" font-family="Times,serif" font-size="14.00">ITF&#45;J_pulse_off</text>
</g>
<!-- oneeye&#45;&gt;ITF&#45;J_pulse_off -->
<g id="edge14" class="edge"><title>oneeye&#45;&gt;ITF&#45;J_pulse_off</title>
<path fill="none" stroke="black" d="M532.685,-359.697C542.157,-350.857 553.818,-339.973 564.079,-330.396"/>
<polygon fill="red" stroke="black" points="566.67,-332.765 571.593,-323.383 561.894,-327.647 566.67,-332.765"/>
</g>
<!-- ITF&#45;G_gain_control -->
<g id="node14" class="node"><title>ITF&#45;G_gain_control</title>
<ellipse fill="yellow" stroke="black" cx="378.146" cy="-234" rx="81.7856" ry="18"/>
<text text-anchor="middle" x="378.146" y="-230.3" font-family="Times,serif" font-size="14.00">ITF&#45;G_gain_control</text>
</g>
<!-- oneeye&#45;&gt;ITF&#45;G_gain_control -->
<g id="edge12" class="edge"><title>oneeye&#45;&gt;ITF&#45;G_gain_control</title>
<path fill="none" stroke="black" d="M473.809,-375.166C438.151,-371.152 388.049,-359.133 363.146,-324 350.26,-305.82 356.319,-280.374 364.252,-261.344"/>
<polygon fill="red" stroke="black" points="367.525,-262.602 368.481,-252.051 361.153,-259.703 367.525,-262.602"/>
</g>
<!-- ITF&#45;N_cc_motor_pwm -->
<g id="node15" class="node"><title>ITF&#45;N_cc_motor_pwm</title>
<ellipse fill="yellow" stroke="black" cx="677.146" cy="-234" rx="93.6835" ry="18"/>
<text text-anchor="middle" x="677.146" y="-230.3" font-family="Times,serif" font-size="14.00">ITF&#45;N_cc_motor_pwm</text>
</g>
<!-- oneeye&#45;&gt;ITF&#45;N_cc_motor_pwm -->
<g id="edge15" class="edge"><title>oneeye&#45;&gt;ITF&#45;N_cc_motor_pwm</title>
<path fill="none" stroke="black" d="M554.433,-374.413C589.598,-369.866 639.113,-357.489 666.146,-324 680.008,-306.828 681.891,-281.385 680.812,-262.096"/>
<polygon fill="red" stroke="black" points="684.297,-261.773 679.964,-252.105 677.322,-262.365 684.297,-261.773"/>
</g>
<!-- goblin -->
<g id="node3" class="node"><title>goblin</title>
<polygon fill="blue" stroke="black" points="405.146,-108 331.146,-108 331.146,-72 405.146,-72 405.146,-108"/>
<text text-anchor="middle" x="368.146" y="-84.4" font-family="Times,serif" font-size="22.00">goblin</text>
</g>
<!-- ITF&#45;C_amplified_raw_signal -->
<g id="node16" class="node"><title>ITF&#45;C_amplified_raw_signal</title>
<ellipse fill="yellow" stroke="black" cx="368.146" cy="-18" rx="114.28" ry="18"/>
<text text-anchor="middle" x="368.146" y="-14.3" font-family="Times,serif" font-size="14.00">ITF&#45;C_amplified_raw_signal</text>
</g>
<!-- goblin&#45;&gt;ITF&#45;C_amplified_raw_signal -->
<g id="edge24" class="edge"><title>goblin&#45;&gt;ITF&#45;C_amplified_raw_signal</title>
<path fill="none" stroke="black" d="M362.23,-71.6966C361.434,-63.9827 361.208,-54.7125 361.551,-46.1124"/>
<polygon fill="red" stroke="black" points="365.044,-46.3243 362.251,-36.1043 358.061,-45.8356 365.044,-46.3243"/>
</g>
<!-- ITF&#45;E_signal_envelope -->
<g id="node17" class="node"><title>ITF&#45;E_signal_envelope</title>
<ellipse fill="yellow" stroke="black" cx="594.146" cy="-18" rx="93.6835" ry="18"/>
<text text-anchor="middle" x="594.146" y="-14.3" font-family="Times,serif" font-size="14.00">ITF&#45;E_signal_envelope</text>
</g>
<!-- goblin&#45;&gt;ITF&#45;E_signal_envelope -->
<g id="edge26" class="edge"><title>goblin&#45;&gt;ITF&#45;E_signal_envelope</title>
<path fill="none" stroke="black" d="M405.243,-75.8335C439.977,-64.5775 492.354,-48.3051 533.196,-36.0542"/>
<polygon fill="red" stroke="black" points="534.202,-39.4065 542.781,-33.1899 532.197,-32.6996 534.202,-39.4065"/>
</g>
<!-- ADL5511 -->
<g id="node18" class="node"><title>ADL5511</title>
<ellipse fill="yellow" stroke="black" cx="46.1459" cy="-18" rx="46.2923" ry="18"/>
<text text-anchor="middle" x="46.1459" y="-14.3" font-family="Times,serif" font-size="14.00">ADL5511</text>
</g>
<!-- goblin&#45;&gt;ADL5511 -->
<g id="edge25" class="edge"><title>goblin&#45;&gt;ADL5511</title>
<path fill="none" stroke="black" d="M330.726,-82.8363C278.832,-74.002 182.237,-56.5217 101.146,-36 97.5429,-35.0882 93.826,-34.0825 90.1044,-33.0296"/>
<polygon fill="red" stroke="black" points="90.8978,-29.615 80.3172,-30.1638 88.9307,-36.3329 90.8978,-29.615"/>
</g>
<!-- ITF&#45;mEG_SPI -->
<g id="node19" class="node"><title>ITF&#45;mEG_SPI</title>
<ellipse fill="green" stroke="black" cx="173.146" cy="-18" rx="63.0888" ry="18"/>
<text text-anchor="middle" x="173.146" y="-14.3" font-family="Times,serif" font-size="14.00">ITF&#45;mEG_SPI</text>
</g>
<!-- goblin&#45;&gt;ITF&#45;mEG_SPI -->
<g id="edge27" class="edge"><title>goblin&#45;&gt;ITF&#45;mEG_SPI</title>
<path fill="none" stroke="black" d="M331.009,-75.6688C299.63,-64.4044 254.498,-48.2031 220.521,-36.0063"/>
<polygon fill="red" stroke="black" points="221.403,-32.6046 210.809,-32.52 219.038,-39.1929 221.403,-32.6046"/>
</g>
<!-- retro10PV -->
<g id="node4" class="node"><title>retro10PV</title>
<polygon fill="blue" stroke="black" points="916.646,-108 807.646,-108 807.646,-72 916.646,-72 916.646,-108"/>
<text text-anchor="middle" x="862.146" y="-84.4" font-family="Times,serif" font-size="22.00">retro10PV</text>
</g>
<!-- retro10PV&#45;&gt;ITF&#45;mET_Transducer -->
<g id="edge34" class="edge"><title>retro10PV&#45;&gt;ITF&#45;mET_Transducer</title>
<path fill="none" stroke="black" d="M865.097,-108.275C864.564,-116.115 863.165,-125.567 861.304,-134.29"/>
<polygon fill="red" stroke="black" points="857.891,-133.511 858.929,-144.055 864.693,-135.165 857.891,-133.511"/>
</g>
<!-- Motor -->
<g id="node20" class="node"><title>Motor</title>
<ellipse fill="yellow" stroke="black" cx="791.146" cy="-18" rx="33.2948" ry="18"/>
<text text-anchor="middle" x="791.146" y="-14.3" font-family="Times,serif" font-size="14.00">Motor</text>
</g>
<!-- retro10PV&#45;&gt;Motor -->
<g id="edge33" class="edge"><title>retro10PV&#45;&gt;Motor</title>
<path fill="none" stroke="black" d="M838.68,-71.6966C828.827,-62.8795 817.656,-52.0289 808.538,-42.4701"/>
<polygon fill="red" stroke="black" points="811.102,-40.0874 801.731,-35.1446 805.974,-44.8525 811.102,-40.0874"/>
</g>
<!-- Tri&#45;Piezo Head -->
<g id="node21" class="node"><title>Tri&#45;Piezo Head</title>
<ellipse fill="yellow" stroke="black" cx="907.146" cy="-18" rx="64.9885" ry="18"/>
<text text-anchor="middle" x="907.146" y="-14.3" font-family="Times,serif" font-size="14.00">Tri&#45;Piezo Head</text>
</g>
<!-- retro10PV&#45;&gt;Tri&#45;Piezo Head -->
<g id="edge35" class="edge"><title>retro10PV&#45;&gt;Tri&#45;Piezo Head</title>
<path fill="none" stroke="black" d="M867.354,-71.6966C871.904,-63.2653 878.33,-52.9748 884.762,-43.7323"/>
<polygon fill="red" stroke="black" points="887.601,-45.7789 890.617,-35.6223 881.925,-41.6815 887.601,-45.7789"/>
</g>
<!-- mogaba -->
<g id="node5" class="node"><title>mogaba</title>
<polygon fill="blue" stroke="black" points="557.646,-540 470.646,-540 470.646,-504 557.646,-504 557.646,-540"/>
<text text-anchor="middle" x="514.146" y="-516.4" font-family="Times,serif" font-size="22.00">mogaba</text>
</g>
<!-- ITF&#45;A_gnd -->
<g id="node6" class="node"><title>ITF&#45;A_gnd</title>
<ellipse fill="yellow" stroke="black" cx="723.146" cy="-450" rx="50.8918" ry="18"/>
<text text-anchor="middle" x="723.146" y="-446.3" font-family="Times,serif" font-size="14.00">ITF&#45;A_gnd</text>
</g>
<!-- mogaba&#45;&gt;ITF&#45;A_gnd -->
<g id="edge37" class="edge"><title>mogaba&#45;&gt;ITF&#45;A_gnd</title>
<path fill="none" stroke="black" d="M557.705,-506.411C592.916,-494.618 642.316,-478.072 677.957,-466.135"/>
<polygon fill="red" stroke="black" points="679.25,-469.393 687.621,-462.898 677.027,-462.756 679.25,-469.393"/>
</g>
<!-- ITF&#45;B_5v -->
<g id="node7" class="node"><title>ITF&#45;B_5v</title>
<ellipse fill="yellow" stroke="black" cx="351.146" cy="-450" rx="46.2923" ry="18"/>
<text text-anchor="middle" x="351.146" y="-446.3" font-family="Times,serif" font-size="14.00">ITF&#45;B_5v</text>
</g>
<!-- mogaba&#45;&gt;ITF&#45;B_5v -->
<g id="edge38" class="edge"><title>mogaba&#45;&gt;ITF&#45;B_5v</title>
<path fill="none" stroke="black" d="M474.272,-503.876C448.698,-492.894 415.65,-478.701 390.233,-467.786"/>
<polygon fill="red" stroke="black" points="391.466,-464.506 380.896,-463.776 388.703,-470.938 391.466,-464.506"/>
</g>
<!-- ITF&#45;S_3_3v -->
<g id="node10" class="node"><title>ITF&#45;S_3_3v</title>
<ellipse fill="yellow" stroke="black" cx="514.146" cy="-450" rx="53.8905" ry="18"/>
<text text-anchor="middle" x="514.146" y="-446.3" font-family="Times,serif" font-size="14.00">ITF&#45;S_3_3v</text>
</g>
<!-- mogaba&#45;&gt;ITF&#45;S_3_3v -->
<g id="edge39" class="edge"><title>mogaba&#45;&gt;ITF&#45;S_3_3v</title>
<path fill="none" stroke="black" d="M514.146,-503.697C514.146,-495.983 514.146,-486.712 514.146,-478.112"/>
<polygon fill="red" stroke="black" points="517.646,-478.104 514.146,-468.104 510.646,-478.104 517.646,-478.104"/>
</g>
<!-- ITF&#45;A_gnd&#45;&gt;tobo -->
<g id="edge1" class="edge"><title>ITF&#45;A_gnd&#45;&gt;tobo</title>
<path fill="none" stroke="black" d="M723.937,-431.953C724.483,-399.57 720.94,-328.76 683.146,-288 650.49,-252.781 624.793,-268.522 574.894,-251.836"/>
<polygon fill="black" stroke="black" points="575.881,-248.47 565.288,-248.323 573.477,-255.045 575.881,-248.47"/>
</g>
<!-- ITF&#45;A_gnd&#45;&gt;oneeye -->
<g id="edge9" class="edge"><title>ITF&#45;A_gnd&#45;&gt;oneeye</title>
<path fill="none" stroke="black" d="M687.692,-437.125C653.802,-425.775 602.375,-408.551 564.293,-395.796"/>
<polygon fill="black" stroke="black" points="565.02,-392.348 554.426,-392.491 562.797,-398.986 565.02,-392.348"/>
</g>
<!-- ITF&#45;A_gnd&#45;&gt;goblin -->
<g id="edge16" class="edge"><title>ITF&#45;A_gnd&#45;&gt;goblin</title>
<path fill="none" stroke="black" d="M734.849,-432.434C761.307,-392.761 820.404,-290.1 780.146,-216 752.074,-164.331 723.865,-165.53 669.146,-144 583.729,-110.391 476.305,-98.0031 415.621,-93.5027"/>
<polygon fill="black" stroke="black" points="415.792,-90.0062 405.572,-92.7983 415.302,-96.9891 415.792,-90.0062"/>
</g>
<!-- ITF&#45;A_gnd&#45;&gt;retro10PV -->
<g id="edge28" class="edge"><title>ITF&#45;A_gnd&#45;&gt;retro10PV</title>
<path fill="none" stroke="black" d="M772.913,-446.016C853.869,-438.177 1005.15,-409.778 1005.15,-307 1005.15,-307 1005.15,-307 1005.15,-233 1005.15,-189.633 994.99,-175.464 965.146,-144 952.767,-130.949 936.464,-120.548 920.491,-112.538"/>
<polygon fill="black" stroke="black" points="921.69,-109.233 911.157,-108.096 918.683,-115.554 921.69,-109.233"/>
</g>
<!-- ITF&#45;B_5v&#45;&gt;tobo -->
<g id="edge2" class="edge"><title>ITF&#45;B_5v&#45;&gt;tobo</title>
<path fill="none" stroke="black" d="M346.717,-431.723C339.586,-399.574 329.527,-330.022 363.146,-288 367.518,-282.536 449.283,-259.221 499.151,-245.401"/>
<polygon fill="black" stroke="black" points="500.261,-248.725 508.968,-242.689 498.397,-241.978 500.261,-248.725"/>
</g>
<!-- ITF&#45;B_5v&#45;&gt;oneeye -->
<g id="edge10" class="edge"><title>ITF&#45;B_5v&#45;&gt;oneeye</title>
<path fill="none" stroke="black" d="M381.043,-436.161C404.474,-426.099 437.572,-411.885 464.9,-400.148"/>
<polygon fill="black" stroke="black" points="466.494,-403.273 474.301,-396.111 463.731,-396.841 466.494,-403.273"/>
</g>
<!-- ITF&#45;B_5v&#45;&gt;goblin -->
<g id="edge17" class="edge"><title>ITF&#45;B_5v&#45;&gt;goblin</title>
<path fill="none" stroke="black" d="M326.075,-434.673C290.633,-412.335 230.146,-365.624 230.146,-307 230.146,-307 230.146,-307 230.146,-233 230.146,-192.031 227.769,-175.348 254.146,-144 271.299,-123.615 298.012,-110.62 321.268,-102.603"/>
<polygon fill="black" stroke="black" points="322.546,-105.868 330.986,-99.4641 320.394,-99.2069 322.546,-105.868"/>
</g>
<!-- ITF&#45;I_pulse_on&#45;&gt;tobo -->
<g id="edge3" class="edge"><title>ITF&#45;I_pulse_on&#45;&gt;tobo</title>
<path fill="none" stroke="black" d="M461.107,-288.765C473.974,-279.667 490.236,-268.168 504.417,-258.142"/>
<polygon fill="black" stroke="black" points="506.783,-260.755 512.928,-252.124 502.742,-255.039 506.783,-260.755"/>
</g>
<!-- ITF&#45;J_pulse_off&#45;&gt;tobo -->
<g id="edge4" class="edge"><title>ITF&#45;J_pulse_off&#45;&gt;tobo</title>
<path fill="none" stroke="black" d="M576.558,-288.055C570.391,-279.753 562.837,-269.584 555.998,-260.378"/>
<polygon fill="black" stroke="black" points="558.752,-258.216 549.979,-252.275 553.133,-262.39 558.752,-258.216"/>
</g>
<!-- ITF&#45;S_3_3v&#45;&gt;tobo -->
<g id="edge5" class="edge"><title>ITF&#45;S_3_3v&#45;&gt;tobo</title>
<path fill="none" stroke="black" d="M544.076,-434.788C580.711,-415.519 640.974,-377.291 666.146,-324 672.979,-309.533 675.166,-301.215 666.146,-288 643.037,-254.142 618.111,-267.094 574.865,-251.867"/>
<polygon fill="black" stroke="black" points="575.941,-248.53 565.353,-248.163 573.402,-255.053 575.941,-248.53"/>
</g>
<!-- ITF&#45;S_3_3v&#45;&gt;oneeye -->
<g id="edge11" class="edge"><title>ITF&#45;S_3_3v&#45;&gt;oneeye</title>
<path fill="none" stroke="black" d="M514.146,-431.697C514.146,-423.983 514.146,-414.712 514.146,-406.112"/>
<polygon fill="black" stroke="black" points="517.646,-406.104 514.146,-396.104 510.646,-406.104 517.646,-406.104"/>
</g>
<!-- ITF&#45;S_3_3v&#45;&gt;goblin -->
<g id="edge18" class="edge"><title>ITF&#45;S_3_3v&#45;&gt;goblin</title>
<path fill="none" stroke="black" d="M483.758,-434.921C430.539,-408.23 322.737,-344.536 287.146,-252 267.886,-201.924 310.766,-146.7 341.184,-115.69"/>
<polygon fill="black" stroke="black" points="343.958,-117.868 348.603,-108.346 339.034,-112.893 343.958,-117.868"/>
</g>
<!-- ITF&#45;R_reserved&#45;&gt;goblin -->
<g id="edge22" class="edge"><title>ITF&#45;R_reserved&#45;&gt;goblin</title>
<path fill="none" stroke="black" d="M551.089,-147.916C512.312,-135.852 454.852,-117.975 414.706,-105.486"/>
<polygon fill="black" stroke="black" points="415.738,-102.141 405.149,-102.512 413.658,-108.825 415.738,-102.141"/>
</g>
<!-- ITF&#45;mET_SMA&#45;&gt;goblin -->
<g id="edge23" class="edge"><title>ITF&#45;mET_SMA&#45;&gt;goblin</title>
<path fill="none" stroke="black" d="M422.32,-144.411C413.497,-135.712 402.523,-124.893 392.763,-115.271"/>
<polygon fill="black" stroke="black" points="395.171,-112.729 385.593,-108.201 390.256,-117.714 395.171,-112.729"/>
</g>
<!-- ITF&#45;mET_Transducer&#45;&gt;retro10PV -->
<g id="edge30" class="edge"><title>ITF&#45;mET_Transducer&#45;&gt;retro10PV</title>
<path fill="none" stroke="black" d="M847.196,-143.697C847.729,-135.898 849.116,-126.509 850.963,-117.829"/>
<polygon fill="black" stroke="black" points="854.366,-118.647 853.319,-108.104 847.563,-116.999 854.366,-118.647"/>
</g>
<!-- ITF&#45;G_gain_control&#45;&gt;goblin -->
<g id="edge19" class="edge"><title>ITF&#45;G_gain_control&#45;&gt;goblin</title>
<path fill="none" stroke="black" d="M371.08,-215.665C367.308,-205.47 363.058,-192.22 361.146,-180 357.932,-159.457 360.009,-136.003 362.714,-118.331"/>
<polygon fill="black" stroke="black" points="366.219,-118.597 364.438,-108.153 359.317,-117.428 366.219,-118.597"/>
</g>
<!-- ITF&#45;N_cc_motor_pwm&#45;&gt;retro10PV -->
<g id="edge29" class="edge"><title>ITF&#45;N_cc_motor_pwm&#45;&gt;retro10PV</title>
<path fill="none" stroke="black" d="M764.906,-227.668C834.988,-221.361 925.139,-207.942 948.146,-180 958.316,-167.648 955.946,-157.97 948.146,-144 940.921,-131.061 929.096,-120.889 916.494,-113.067"/>
<polygon fill="black" stroke="black" points="918.11,-109.959 907.693,-108.023 914.629,-116.032 918.11,-109.959"/>
</g>
<!-- ITF&#45;C_amplified_raw_signal&#45;&gt;goblin -->
<g id="edge20" class="edge"><title>ITF&#45;C_amplified_raw_signal&#45;&gt;goblin</title>
<path fill="none" stroke="black" d="M374.041,-36.1043C374.846,-43.7913 375.083,-53.0537 374.75,-61.6651"/>
<polygon fill="black" stroke="black" points="371.254,-61.4805 374.062,-71.6966 378.238,-61.9597 371.254,-61.4805"/>
</g>
<!-- ITF&#45;E_signal_envelope&#45;&gt;goblin -->
<g id="edge21" class="edge"><title>ITF&#45;E_signal_envelope&#45;&gt;goblin</title>
<path fill="none" stroke="black" d="M551.159,-34.0687C512.208,-46.611 455.077,-64.2754 414.979,-76.1559"/>
<polygon fill="black" stroke="black" points="413.776,-72.8614 405.173,-79.045 415.754,-79.5761 413.776,-72.8614"/>
</g>
<!-- Motor&#45;&gt;retro10PV -->
<g id="edge31" class="edge"><title>Motor&#45;&gt;retro10PV</title>
<path fill="none" stroke="black" d="M810.671,-32.8245C820.986,-41.7951 833.427,-53.7393 843.583,-64.3071"/>
<polygon fill="black" stroke="black" points="841.118,-66.7952 850.511,-71.6966 846.225,-62.0075 841.118,-66.7952"/>
</g>
<!-- Tri&#45;Piezo Head&#45;&gt;retro10PV -->
<g id="edge32" class="edge"><title>Tri&#45;Piezo Head&#45;&gt;retro10PV</title>
<path fill="none" stroke="black" d="M902.045,-36.1043C897.636,-44.2981 891.43,-54.282 885.16,-63.3594"/>
<polygon fill="black" stroke="black" points="882.165,-61.5295 879.185,-71.6966 887.855,-65.607 882.165,-61.5295"/>
</g>
<!-- ITF&#45;mEM_Alimentation -->
<g id="node22" class="node"><title>ITF&#45;mEM_Alimentation</title>
<ellipse fill="green" stroke="black" cx="514.146" cy="-594" rx="98.5829" ry="18"/>
<text text-anchor="middle" x="514.146" y="-590.3" font-family="Times,serif" font-size="14.00">ITF&#45;mEM_Alimentation</text>
</g>
<!-- ITF&#45;mEM_Alimentation&#45;&gt;mogaba -->
<g id="edge36" class="edge"><title>ITF&#45;mEM_Alimentation&#45;&gt;mogaba</title>
<path fill="none" stroke="black" d="M514.146,-575.697C514.146,-567.983 514.146,-558.712 514.146,-550.112"/>
<polygon fill="black" stroke="black" points="517.646,-550.104 514.146,-540.104 510.646,-550.104 517.646,-550.104"/>
</g>
</g>
</svg>
