<?xml version="1.0" encoding="UTF-8" standalone="no"?>
<!DOCTYPE svg PUBLIC "-//W3C//DTD SVG 1.1//EN"
 "http://www.w3.org/Graphics/SVG/1.1/DTD/svg11.dtd">
<!-- Generated by graphviz version 2.38.0 (20140413.2041)
 -->
<!-- Title: %3 Pages: 1 -->
<svg width="1428pt" height="1052pt"
 viewBox="0.00 0.00 1428.48 1052.00" xmlns="http://www.w3.org/2000/svg" xmlns:xlink="http://www.w3.org/1999/xlink">
<g id="graph0" class="graph" transform="scale(1 1) rotate(0) translate(4 1048)">
<title>%3</title>
<polygon fill="white" stroke="none" points="-4,4 -4,-1048 1424.48,-1048 1424.48,4 -4,4"/>
<!-- sleepy -->
<g id="node1" class="node"><title>sleepy</title>
<polygon fill="blue" stroke="black" points="869.984,-1044 796.984,-1044 796.984,-1008 869.984,-1008 869.984,-1044"/>
<text text-anchor="middle" x="833.484" y="-1020.4" font-family="Times,serif" font-size="22.00">sleepy</text>
</g>
<!-- tobo -->
<g id="node2" class="node"><title>tobo</title>
<polygon fill="blue" stroke="black" points="406.484,-828 350.484,-828 350.484,-792 406.484,-792 406.484,-828"/>
<text text-anchor="middle" x="378.484" y="-804.4" font-family="Times,serif" font-size="22.00">tobo</text>
</g>
<!-- ITF&#45;mET_Transducer -->
<g id="node18" class="node"><title>ITF&#45;mET_Transducer</title>
<ellipse fill="green" stroke="black" cx="171.484" cy="-162" rx="89.0842" ry="18"/>
<text text-anchor="middle" x="171.484" y="-158.3" font-family="Times,serif" font-size="14.00">ITF&#45;mET_Transducer</text>
</g>
<!-- tobo&#45;&gt;ITF&#45;mET_Transducer -->
<g id="edge9" class="edge"><title>tobo&#45;&gt;ITF&#45;mET_Transducer</title>
<path fill="none" stroke="black" d="M350.279,-808.425C275.058,-805.352 76.4839,-786.131 76.4839,-667 76.4839,-667 76.4839,-667 76.4839,-305 76.4839,-257.58 112.007,-212.458 139.782,-186.269"/>
<polygon fill="red" stroke="black" points="142.308,-188.703 147.374,-179.398 137.611,-183.513 142.308,-188.703"/>
</g>
<!-- ITF&#45;R_reserved -->
<g id="node19" class="node"><title>ITF&#45;R_reserved</title>
<ellipse fill="yellow" stroke="black" cx="455.484" cy="-738" rx="66.8882" ry="18"/>
<text text-anchor="middle" x="455.484" y="-734.3" font-family="Times,serif" font-size="14.00">ITF&#45;R_reserved</text>
</g>
<!-- tobo&#45;&gt;ITF&#45;R_reserved -->
<g id="edge7" class="edge"><title>tobo&#45;&gt;ITF&#45;R_reserved</title>
<path fill="none" stroke="black" d="M397.518,-791.697C407.337,-782.77 419.449,-771.759 430.058,-762.115"/>
<polygon fill="red" stroke="black" points="432.418,-764.699 437.463,-755.383 427.709,-759.52 432.418,-764.699"/>
</g>
<!-- ITF&#45;mET_SMA -->
<g id="node20" class="node"><title>ITF&#45;mET_SMA</title>
<ellipse fill="green" stroke="black" cx="609.484" cy="-738" rx="68.7879" ry="18"/>
<text text-anchor="middle" x="609.484" y="-734.3" font-family="Times,serif" font-size="14.00">ITF&#45;mET_SMA</text>
</g>
<!-- tobo&#45;&gt;ITF&#45;mET_SMA -->
<g id="edge8" class="edge"><title>tobo&#45;&gt;ITF&#45;mET_SMA</title>
<path fill="none" stroke="black" d="M406.809,-800.417C444.038,-789.135 510.158,-769.099 556.732,-754.985"/>
<polygon fill="red" stroke="black" points="557.801,-758.319 566.356,-752.069 555.771,-751.62 557.801,-758.319"/>
</g>
<!-- cletus -->
<g id="node3" class="node"><title>cletus</title>
<polygon fill="blue" stroke="black" points="205.484,-108 137.484,-108 137.484,-72 205.484,-72 205.484,-108"/>
<text text-anchor="middle" x="171.484" y="-84.4" font-family="Times,serif" font-size="22.00">cletus</text>
</g>
<!-- cletus&#45;&gt;ITF&#45;mET_Transducer -->
<g id="edge17" class="edge"><title>cletus&#45;&gt;ITF&#45;mET_Transducer</title>
<path fill="none" stroke="black" d="M177.379,-108.104C178.184,-115.791 178.421,-125.054 178.088,-133.665"/>
<polygon fill="red" stroke="black" points="174.592,-133.48 177.4,-143.697 181.576,-133.96 174.592,-133.48"/>
</g>
<!-- ITF&#45;mET_Piezo -->
<g id="node22" class="node"><title>ITF&#45;mET_Piezo</title>
<ellipse fill="green" stroke="black" cx="171.484" cy="-18" rx="68.7879" ry="18"/>
<text text-anchor="middle" x="171.484" y="-14.3" font-family="Times,serif" font-size="14.00">ITF&#45;mET_Piezo</text>
</g>
<!-- cletus&#45;&gt;ITF&#45;mET_Piezo -->
<g id="edge16" class="edge"><title>cletus&#45;&gt;ITF&#45;mET_Piezo</title>
<path fill="none" stroke="black" d="M165.568,-71.6966C164.773,-63.9827 164.546,-54.7125 164.889,-46.1124"/>
<polygon fill="red" stroke="black" points="168.382,-46.3243 165.589,-36.1043 161.399,-45.8356 168.382,-46.3243"/>
</g>
<!-- doj -->
<g id="node4" class="node"><title>doj</title>
<polygon fill="blue" stroke="black" points="1277.48,-1044 1223.48,-1044 1223.48,-1008 1277.48,-1008 1277.48,-1044"/>
<text text-anchor="middle" x="1250.48" y="-1020.4" font-family="Times,serif" font-size="22.00">doj</text>
</g>
<!-- oneeye -->
<g id="node5" class="node"><title>oneeye</title>
<polygon fill="blue" stroke="black" points="970.484,-828 890.484,-828 890.484,-792 970.484,-792 970.484,-828"/>
<text text-anchor="middle" x="930.484" y="-804.4" font-family="Times,serif" font-size="22.00">oneeye</text>
</g>
<!-- ITF&#45;I_pulse_on -->
<g id="node15" class="node"><title>ITF&#45;I_pulse_on</title>
<ellipse fill="yellow" stroke="black" cx="873.484" cy="-450" rx="65.7887" ry="18"/>
<text text-anchor="middle" x="873.484" y="-446.3" font-family="Times,serif" font-size="14.00">ITF&#45;I_pulse_on</text>
</g>
<!-- oneeye&#45;&gt;ITF&#45;I_pulse_on -->
<g id="edge22" class="edge"><title>oneeye&#45;&gt;ITF&#45;I_pulse_on</title>
<path fill="none" stroke="black" d="M937.364,-791.829C947.299,-765.444 964.484,-713.136 964.484,-667 964.484,-667 964.484,-667 964.484,-593 964.484,-545.297 927.629,-500.8 900.827,-474.748"/>
<polygon fill="red" stroke="black" points="902.907,-471.899 893.23,-467.587 898.106,-476.993 902.907,-471.899"/>
</g>
<!-- ITF&#45;J_pulse_off -->
<g id="node16" class="node"><title>ITF&#45;J_pulse_off</title>
<ellipse fill="yellow" stroke="black" cx="957.484" cy="-162" rx="67.6881" ry="18"/>
<text text-anchor="middle" x="957.484" y="-158.3" font-family="Times,serif" font-size="14.00">ITF&#45;J_pulse_off</text>
</g>
<!-- oneeye&#45;&gt;ITF&#45;J_pulse_off -->
<g id="edge23" class="edge"><title>oneeye&#45;&gt;ITF&#45;J_pulse_off</title>
<path fill="none" stroke="black" d="M945.799,-791.591C953.564,-781.794 962.404,-768.954 967.484,-756 979.279,-725.923 974.921,-716.205 977.484,-684 988.91,-540.429 992.433,-503.746 983.484,-360 979.689,-299.048 968.71,-228.192 962.297,-190.275"/>
<polygon fill="red" stroke="black" points="965.683,-189.315 960.543,-180.051 958.784,-190.499 965.683,-189.315"/>
</g>
<!-- ITF&#45;N_cc_motor_pwm -->
<g id="node21" class="node"><title>ITF&#45;N_cc_motor_pwm</title>
<ellipse fill="yellow" stroke="black" cx="405.484" cy="-162" rx="93.6835" ry="18"/>
<text text-anchor="middle" x="405.484" y="-158.3" font-family="Times,serif" font-size="14.00">ITF&#45;N_cc_motor_pwm</text>
</g>
<!-- oneeye&#45;&gt;ITF&#45;N_cc_motor_pwm -->
<g id="edge24" class="edge"><title>oneeye&#45;&gt;ITF&#45;N_cc_motor_pwm</title>
<path fill="none" stroke="black" d="M928.764,-791.936C926.289,-773.248 920.495,-742.893 907.484,-720 874.097,-661.256 847.025,-660.984 800.484,-612 651.392,-455.083 610.615,-418.646 472.484,-252 455.195,-231.142 436.766,-206.463 423.621,-188.39"/>
<polygon fill="red" stroke="black" points="426.318,-186.145 417.621,-180.094 420.646,-190.248 426.318,-186.145"/>
</g>
<!-- ITF&#45;G_gain_control -->
<g id="node23" class="node"><title>ITF&#45;G_gain_control</title>
<ellipse fill="yellow" stroke="black" cx="816.484" cy="-738" rx="81.7856" ry="18"/>
<text text-anchor="middle" x="816.484" y="-734.3" font-family="Times,serif" font-size="14.00">ITF&#45;G_gain_control</text>
</g>
<!-- oneeye&#45;&gt;ITF&#45;G_gain_control -->
<g id="edge21" class="edge"><title>oneeye&#45;&gt;ITF&#45;G_gain_control</title>
<path fill="none" stroke="black" d="M902.596,-791.876C887.246,-782.45 868.045,-770.66 851.672,-760.606"/>
<polygon fill="red" stroke="black" points="853.262,-757.476 842.909,-755.226 849.599,-763.441 853.262,-757.476"/>
</g>
<!-- croaker -->
<g id="node6" class="node"><title>croaker</title>
<polygon fill="blue" stroke="black" points="1163.98,-540 1080.98,-540 1080.98,-504 1163.98,-504 1163.98,-540"/>
<text text-anchor="middle" x="1122.48" y="-516.4" font-family="Times,serif" font-size="22.00">croaker</text>
</g>
<!-- croaker&#45;&gt;ITF&#45;I_pulse_on -->
<g id="edge30" class="edge"><title>croaker&#45;&gt;ITF&#45;I_pulse_on</title>
<path fill="none" stroke="black" d="M1080.81,-509.284C1038.76,-497.463 973.644,-479.157 927.624,-466.22"/>
<polygon fill="red" stroke="black" points="928.393,-462.801 917.818,-463.464 926.498,-469.539 928.393,-462.801"/>
</g>
<!-- croaker&#45;&gt;ITF&#45;J_pulse_off -->
<g id="edge31" class="edge"><title>croaker&#45;&gt;ITF&#45;J_pulse_off</title>
<path fill="none" stroke="black" d="M1130.89,-503.964C1154.27,-453.888 1214.03,-305.096 1146.48,-216 1131.64,-196.415 1073.52,-182.074 1025.61,-173.286"/>
<polygon fill="red" stroke="black" points="1026.01,-169.804 1015.56,-171.495 1024.79,-176.695 1026.01,-169.804"/>
</g>
<!-- ITF&#45;mED&#45;TFT&#45;Screen -->
<g id="node25" class="node"><title>ITF&#45;mED&#45;TFT&#45;Screen</title>
<ellipse fill="green" stroke="black" cx="780.484" cy="-162" rx="90.9839" ry="18"/>
<text text-anchor="middle" x="780.484" y="-158.3" font-family="Times,serif" font-size="14.00">ITF&#45;mED&#45;TFT&#45;Screen</text>
</g>
<!-- croaker&#45;&gt;ITF&#45;mED&#45;TFT&#45;Screen -->
<g id="edge28" class="edge"><title>croaker&#45;&gt;ITF&#45;mED&#45;TFT&#45;Screen</title>
<path fill="none" stroke="black" d="M1119.83,-503.809C1112.64,-462.315 1089.4,-355.151 1032.48,-288 983.752,-230.509 902.198,-196.908 845.103,-179.285"/>
<polygon fill="red" stroke="black" points="846.035,-175.911 835.45,-176.386 844.021,-182.615 846.035,-175.911"/>
</g>
<!-- ITF&#45;mEC&#45;WiFi&#45;UDP&#45;Stream -->
<g id="node26" class="node"><title>ITF&#45;mEC&#45;WiFi&#45;UDP&#45;Stream</title>
<ellipse fill="green" stroke="black" cx="1186.48" cy="-162" rx="115.88" ry="18"/>
<text text-anchor="middle" x="1186.48" y="-158.3" font-family="Times,serif" font-size="14.00">ITF&#45;mEC&#45;WiFi&#45;UDP&#45;Stream</text>
</g>
<!-- croaker&#45;&gt;ITF&#45;mEC&#45;WiFi&#45;UDP&#45;Stream -->
<g id="edge29" class="edge"><title>croaker&#45;&gt;ITF&#45;mEC&#45;WiFi&#45;UDP&#45;Stream</title>
<path fill="none" stroke="black" d="M1147.81,-503.832C1179.73,-479.922 1230.48,-433.357 1230.48,-379 1230.48,-379 1230.48,-379 1230.48,-305 1230.48,-262.981 1212.69,-216.976 1199.73,-189.049"/>
<polygon fill="red" stroke="black" points="1202.86,-187.474 1195.39,-179.961 1196.54,-190.493 1202.86,-187.474"/>
</g>
<!-- retroATL3 -->
<g id="node7" class="node"><title>retroATL3</title>
<polygon fill="blue" stroke="black" points="461.984,-108 348.984,-108 348.984,-72 461.984,-72 461.984,-108"/>
<text text-anchor="middle" x="405.484" y="-84.4" font-family="Times,serif" font-size="22.00">retroATL3</text>
</g>
<!-- retroATL3&#45;&gt;ITF&#45;mET_Transducer -->
<g id="edge39" class="edge"><title>retroATL3&#45;&gt;ITF&#45;mET_Transducer</title>
<path fill="none" stroke="black" d="M354.348,-108.059C318.559,-119.113 270.652,-133.439 232.815,-144.401"/>
<polygon fill="red" stroke="black" points="231.565,-141.118 222.928,-147.254 233.506,-147.844 231.565,-141.118"/>
</g>
<!-- Motor -->
<g id="node28" class="node"><title>Motor</title>
<ellipse fill="yellow" stroke="black" cx="480.484" cy="-18" rx="33.2948" ry="18"/>
<text text-anchor="middle" x="480.484" y="-14.3" font-family="Times,serif" font-size="14.00">Motor</text>
</g>
<!-- retroATL3&#45;&gt;Motor -->
<g id="edge38" class="edge"><title>retroATL3&#45;&gt;Motor</title>
<path fill="none" stroke="black" d="M418.108,-71.6966C427.599,-61.8939 440.703,-49.5778 452.523,-39.3177"/>
<polygon fill="red" stroke="black" points="455.081,-41.7379 460.441,-32.5992 450.552,-36.4004 455.081,-41.7379"/>
</g>
<!-- Tri&#45;Piezo Head -->
<g id="node29" class="node"><title>Tri&#45;Piezo Head</title>
<ellipse fill="yellow" stroke="black" cx="364.484" cy="-18" rx="64.9885" ry="18"/>
<text text-anchor="middle" x="364.484" y="-14.3" font-family="Times,serif" font-size="14.00">Tri&#45;Piezo Head</text>
</g>
<!-- retroATL3&#45;&gt;Tri&#45;Piezo Head -->
<g id="edge40" class="edge"><title>retroATL3&#45;&gt;Tri&#45;Piezo Head</title>
<path fill="none" stroke="black" d="M389.433,-71.6966C383.944,-63.7284 378.09,-54.0995 373.308,-45.2641"/>
<polygon fill="red" stroke="black" points="376.287,-43.4033 368.607,-36.1043 370.059,-46.5992 376.287,-43.4033"/>
</g>
<!-- toadkiller -->
<g id="node8" class="node"><title>toadkiller</title>
<polygon fill="blue" stroke="black" points="581.984,-252 480.984,-252 480.984,-216 581.984,-216 581.984,-252"/>
<text text-anchor="middle" x="531.484" y="-228.4" font-family="Times,serif" font-size="22.00">toadkiller</text>
</g>
<!-- toadkiller&#45;&gt;ITF&#45;I_pulse_on -->
<g id="edge47" class="edge"><title>toadkiller&#45;&gt;ITF&#45;I_pulse_on</title>
<path fill="none" stroke="black" d="M549.886,-252.317C570.503,-271.227 605.385,-301.775 638.484,-324 702.684,-367.11 783.368,-407.272 831.552,-429.92"/>
<polygon fill="red" stroke="black" points="830.199,-433.151 840.74,-434.211 833.161,-426.808 830.199,-433.151"/>
</g>
<!-- toadkiller&#45;&gt;ITF&#45;J_pulse_off -->
<g id="edge48" class="edge"><title>toadkiller&#45;&gt;ITF&#45;J_pulse_off</title>
<path fill="none" stroke="black" d="M582.081,-219.089C586.93,-217.961 591.788,-216.908 596.484,-216 721.404,-191.853 755.122,-201.737 880.484,-180 886.274,-178.996 892.286,-177.851 898.285,-176.64"/>
<polygon fill="red" stroke="black" points="899.245,-180.015 908.324,-174.554 897.821,-173.162 899.245,-180.015"/>
</g>
<!-- toadkiller&#45;&gt;ITF&#45;N_cc_motor_pwm -->
<g id="edge49" class="edge"><title>toadkiller&#45;&gt;ITF&#45;N_cc_motor_pwm</title>
<path fill="none" stroke="black" d="M500.661,-215.876C483.459,-206.319 461.882,-194.332 443.623,-184.189"/>
<polygon fill="red" stroke="black" points="445.132,-181.023 434.69,-179.226 441.732,-187.142 445.132,-181.023"/>
</g>
<!-- toadkiller&#45;&gt;ITF&#45;mED&#45;TFT&#45;Screen -->
<g id="edge46" class="edge"><title>toadkiller&#45;&gt;ITF&#45;mED&#45;TFT&#45;Screen</title>
<path fill="none" stroke="black" d="M582.173,-218.75C622.192,-207.5 678.135,-191.773 720.405,-179.89"/>
<polygon fill="red" stroke="black" points="721.612,-183.186 730.292,-177.11 719.718,-176.447 721.612,-183.186"/>
</g>
<!-- WiFi UDP Stream -->
<g id="node31" class="node"><title>WiFi UDP Stream</title>
<ellipse fill="yellow" stroke="black" cx="594.484" cy="-162" rx="77.1866" ry="18"/>
<text text-anchor="middle" x="594.484" y="-158.3" font-family="Times,serif" font-size="14.00">WiFi UDP Stream</text>
</g>
<!-- toadkiller&#45;&gt;WiFi UDP Stream -->
<g id="edge45" class="edge"><title>toadkiller&#45;&gt;WiFi UDP Stream</title>
<path fill="none" stroke="black" d="M547.057,-215.697C554.686,-207.22 564.007,-196.864 572.36,-187.583"/>
<polygon fill="red" stroke="black" points="575.002,-189.879 579.09,-180.104 569.799,-185.196 575.002,-189.879"/>
</g>
<!-- kina -->
<g id="node9" class="node"><title>kina</title>
<polygon fill="blue" stroke="black" points="900.984,-252 845.984,-252 845.984,-216 900.984,-216 900.984,-252"/>
<text text-anchor="middle" x="873.484" y="-228.4" font-family="Times,serif" font-size="22.00">kina</text>
</g>
<!-- kina&#45;&gt;ITF&#45;I_pulse_on -->
<g id="edge57" class="edge"><title>kina&#45;&gt;ITF&#45;I_pulse_on</title>
<path fill="none" stroke="black" d="M877.369,-252.232C880.9,-289.324 881.167,-376.981 878.169,-421.712"/>
<polygon fill="red" stroke="black" points="874.667,-421.603 877.361,-431.849 881.645,-422.159 874.667,-421.603"/>
</g>
<!-- kina&#45;&gt;ITF&#45;J_pulse_off -->
<g id="edge58" class="edge"><title>kina&#45;&gt;ITF&#45;J_pulse_off</title>
<path fill="none" stroke="black" d="M894.248,-215.697C905.064,-206.683 918.43,-195.545 930.083,-185.834"/>
<polygon fill="red" stroke="black" points="932.383,-188.474 937.824,-179.383 927.902,-183.096 932.383,-188.474"/>
</g>
<!-- kina&#45;&gt;ITF&#45;N_cc_motor_pwm -->
<g id="edge59" class="edge"><title>kina&#45;&gt;ITF&#45;N_cc_motor_pwm</title>
<path fill="none" stroke="black" d="M845.524,-229.128C784.356,-220.617 634.087,-199.483 508.484,-180 500.374,-178.742 491.911,-177.397 483.473,-176.036"/>
<polygon fill="red" stroke="black" points="484.033,-172.581 473.601,-174.434 482.912,-179.491 484.033,-172.581"/>
</g>
<!-- kina&#45;&gt;ITF&#45;mED&#45;TFT&#45;Screen -->
<g id="edge56" class="edge"><title>kina&#45;&gt;ITF&#45;mED&#45;TFT&#45;Screen</title>
<path fill="none" stroke="black" d="M850.495,-215.697C838.493,-206.663 823.656,-195.495 810.734,-185.769"/>
<polygon fill="red" stroke="black" points="812.662,-182.84 802.568,-179.622 808.453,-188.432 812.662,-182.84"/>
</g>
<!-- kina&#45;&gt;ITF&#45;mEC&#45;WiFi&#45;UDP&#45;Stream -->
<g id="edge55" class="edge"><title>kina&#45;&gt;ITF&#45;mEC&#45;WiFi&#45;UDP&#45;Stream</title>
<path fill="none" stroke="black" d="M900.986,-226.849C948.049,-216.324 1045.51,-194.528 1113.39,-179.346"/>
<polygon fill="red" stroke="black" points="1114.19,-182.755 1123.18,-177.156 1112.66,-175.923 1114.19,-182.755"/>
</g>
<!-- goblin -->
<g id="node10" class="node"><title>goblin</title>
<polygon fill="blue" stroke="black" points="743.484,-684 669.484,-684 669.484,-648 743.484,-648 743.484,-684"/>
<text text-anchor="middle" x="706.484" y="-660.4" font-family="Times,serif" font-size="22.00">goblin</text>
</g>
<!-- ITF&#45;mEG_SPI -->
<g id="node24" class="node"><title>ITF&#45;mEG_SPI</title>
<ellipse fill="green" stroke="black" cx="872.484" cy="-594" rx="63.0888" ry="18"/>
<text text-anchor="middle" x="872.484" y="-590.3" font-family="Times,serif" font-size="14.00">ITF&#45;mEG_SPI</text>
</g>
<!-- goblin&#45;&gt;ITF&#45;mEG_SPI -->
<g id="edge70" class="edge"><title>goblin&#45;&gt;ITF&#45;mEG_SPI</title>
<path fill="none" stroke="black" d="M743.738,-649.291C769.108,-638.592 802.771,-624.397 829.312,-613.205"/>
<polygon fill="red" stroke="black" points="830.885,-616.34 838.74,-609.229 828.166,-609.89 830.885,-616.34"/>
</g>
<!-- ITF&#45;E_signal_envelope -->
<g id="node30" class="node"><title>ITF&#45;E_signal_envelope</title>
<ellipse fill="yellow" stroke="black" cx="741.484" cy="-306" rx="93.6835" ry="18"/>
<text text-anchor="middle" x="741.484" y="-302.3" font-family="Times,serif" font-size="14.00">ITF&#45;E_signal_envelope</text>
</g>
<!-- goblin&#45;&gt;ITF&#45;E_signal_envelope -->
<g id="edge69" class="edge"><title>goblin&#45;&gt;ITF&#45;E_signal_envelope</title>
<path fill="none" stroke="black" d="M705.062,-647.733C706.076,-590.194 723.985,-404.658 735.01,-334.351"/>
<polygon fill="red" stroke="black" points="738.528,-334.533 736.717,-324.094 731.623,-333.384 738.528,-334.533"/>
</g>
<!-- ITF&#45;C_amplified_raw_signal -->
<g id="node32" class="node"><title>ITF&#45;C_amplified_raw_signal</title>
<ellipse fill="yellow" stroke="black" cx="578.484" cy="-594" rx="114.28" ry="18"/>
<text text-anchor="middle" x="578.484" y="-590.3" font-family="Times,serif" font-size="14.00">ITF&#45;C_amplified_raw_signal</text>
</g>
<!-- goblin&#45;&gt;ITF&#45;C_amplified_raw_signal -->
<g id="edge68" class="edge"><title>goblin&#45;&gt;ITF&#45;C_amplified_raw_signal</title>
<path fill="none" stroke="black" d="M669.275,-647.876C651.151,-638.501 629.595,-626.787 611.988,-616.769"/>
<polygon fill="red" stroke="black" points="613.593,-613.654 603.179,-611.706 610.105,-619.723 613.593,-613.654"/>
</g>
<!-- silent -->
<g id="node11" class="node"><title>silent</title>
<polygon fill="blue" stroke="black" points="974.484,-396 910.484,-396 910.484,-360 974.484,-360 974.484,-396"/>
<text text-anchor="middle" x="942.484" y="-372.4" font-family="Times,serif" font-size="22.00">silent</text>
</g>
<!-- silent&#45;&gt;ITF&#45;E_signal_envelope -->
<g id="edge76" class="edge"><title>silent&#45;&gt;ITF&#45;E_signal_envelope</title>
<path fill="none" stroke="black" d="M910.19,-365.753C878.916,-354.862 830.958,-338.16 794.157,-325.344"/>
<polygon fill="red" stroke="black" points="795.173,-321.992 784.578,-322.008 792.871,-328.602 795.173,-321.992"/>
</g>
<!-- mogaba -->
<g id="node12" class="node"><title>mogaba</title>
<polygon fill="blue" stroke="black" points="1113.98,-972 1026.98,-972 1026.98,-936 1113.98,-936 1113.98,-972"/>
<text text-anchor="middle" x="1070.48" y="-948.4" font-family="Times,serif" font-size="22.00">mogaba</text>
</g>
<!-- ITF&#45;A_gnd -->
<g id="node13" class="node"><title>ITF&#45;A_gnd</title>
<ellipse fill="yellow" stroke="black" cx="1211.48" cy="-882" rx="50.8918" ry="18"/>
<text text-anchor="middle" x="1211.48" y="-878.3" font-family="Times,serif" font-size="14.00">ITF&#45;A_gnd</text>
</g>
<!-- mogaba&#45;&gt;ITF&#45;A_gnd -->
<g id="edge79" class="edge"><title>mogaba&#45;&gt;ITF&#45;A_gnd</title>
<path fill="none" stroke="black" d="M1104.98,-935.876C1125.86,-925.51 1152.5,-912.285 1173.91,-901.654"/>
<polygon fill="red" stroke="black" points="1175.64,-904.704 1183.04,-897.123 1172.52,-898.435 1175.64,-904.704"/>
</g>
<!-- ITF&#45;B_5v -->
<g id="node14" class="node"><title>ITF&#45;B_5v</title>
<ellipse fill="yellow" stroke="black" cx="930.484" cy="-882" rx="46.2923" ry="18"/>
<text text-anchor="middle" x="930.484" y="-878.3" font-family="Times,serif" font-size="14.00">ITF&#45;B_5v</text>
</g>
<!-- mogaba&#45;&gt;ITF&#45;B_5v -->
<g id="edge80" class="edge"><title>mogaba&#45;&gt;ITF&#45;B_5v</title>
<path fill="none" stroke="black" d="M1036.24,-935.876C1015.22,-925.369 988.333,-911.924 966.927,-901.222"/>
<polygon fill="red" stroke="black" points="968.331,-898.01 957.821,-896.669 965.2,-904.271 968.331,-898.01"/>
</g>
<!-- ITF&#45;S_3_3v -->
<g id="node17" class="node"><title>ITF&#45;S_3_3v</title>
<ellipse fill="yellow" stroke="black" cx="265.484" cy="-882" rx="53.8905" ry="18"/>
<text text-anchor="middle" x="265.484" y="-878.3" font-family="Times,serif" font-size="14.00">ITF&#45;S_3_3v</text>
</g>
<!-- mogaba&#45;&gt;ITF&#45;S_3_3v -->
<g id="edge82" class="edge"><title>mogaba&#45;&gt;ITF&#45;S_3_3v</title>
<path fill="none" stroke="black" d="M1026.92,-949.212C892.524,-937.525 484.048,-902.006 327.474,-888.39"/>
<polygon fill="red" stroke="black" points="327.352,-884.867 317.087,-887.487 326.746,-891.84 327.352,-884.867"/>
</g>
<!-- ITF&#45;F_12V -->
<g id="node27" class="node"><title>ITF&#45;F_12V</title>
<ellipse fill="yellow" stroke="black" cx="1154.48" cy="-1026" rx="51.1914" ry="18"/>
<text text-anchor="middle" x="1154.48" y="-1022.3" font-family="Times,serif" font-size="14.00">ITF&#45;F_12V</text>
</g>
<!-- mogaba&#45;&gt;ITF&#45;F_12V -->
<g id="edge81" class="edge"><title>mogaba&#45;&gt;ITF&#45;F_12V</title>
<path fill="none" stroke="black" d="M1097.03,-972.201C1108.61,-981.083 1121.94,-992.049 1132.91,-1001.68"/>
<polygon fill="red" stroke="black" points="1130.63,-1004.34 1140.42,-1008.41 1135.3,-999.131 1130.63,-1004.34"/>
</g>
<!-- ITF&#45;A_gnd&#45;&gt;tobo -->
<g id="edge1" class="edge"><title>ITF&#45;A_gnd&#45;&gt;tobo</title>
<path fill="none" stroke="black" d="M1162.79,-876.908C1011.68,-864.21 552.726,-825.642 416.805,-814.22"/>
<polygon fill="black" stroke="black" points="416.743,-810.703 406.485,-813.353 416.157,-817.678 416.743,-810.703"/>
</g>
<!-- ITF&#45;A_gnd&#45;&gt;cletus -->
<g id="edge10" class="edge"><title>ITF&#45;A_gnd&#45;&gt;cletus</title>
<path fill="none" stroke="black" d="M1245.06,-868.451C1264.79,-859.655 1289.02,-846.203 1305.48,-828 1334.45,-795.969 1344.48,-782.187 1344.48,-739 1344.48,-739 1344.48,-739 1344.48,-233 1344.48,-190.813 1345.66,-168.731 1311.48,-144 1267.75,-112.355 394.338,-111.703 340.484,-108 298.093,-105.085 249.881,-100.066 215.83,-96.2343"/>
<polygon fill="black" stroke="black" points="216.071,-92.7392 205.74,-95.0871 215.281,-99.6944 216.071,-92.7392"/>
</g>
<!-- ITF&#45;A_gnd&#45;&gt;oneeye -->
<g id="edge18" class="edge"><title>ITF&#45;A_gnd&#45;&gt;oneeye</title>
<path fill="none" stroke="black" d="M1169.4,-871.681C1124.44,-861.567 1051.18,-844.627 988.484,-828 985.864,-827.305 983.183,-826.578 980.479,-825.831"/>
<polygon fill="black" stroke="black" points="981.232,-822.407 970.658,-823.068 979.336,-829.145 981.232,-822.407"/>
</g>
<!-- ITF&#45;A_gnd&#45;&gt;croaker -->
<g id="edge25" class="edge"><title>ITF&#45;A_gnd&#45;&gt;croaker</title>
<path fill="none" stroke="black" d="M1207.19,-863.733C1192.86,-806.075 1146.57,-619.894 1129.18,-549.918"/>
<polygon fill="black" stroke="black" points="1132.54,-548.954 1126.73,-540.094 1125.75,-550.643 1132.54,-548.954"/>
</g>
<!-- ITF&#45;A_gnd&#45;&gt;retroATL3 -->
<g id="edge32" class="edge"><title>ITF&#45;A_gnd&#45;&gt;retroATL3</title>
<path fill="none" stroke="black" d="M1258.83,-875.427C1291.21,-869.174 1332.76,-855.943 1358.48,-828 1386.23,-797.859 1382.48,-779.969 1382.48,-739 1382.48,-739 1382.48,-739 1382.48,-233 1382.48,-192.031 1390.3,-169.808 1358.48,-144 1324.12,-116.126 683.482,-97.8656 472.345,-92.5844"/>
<polygon fill="black" stroke="black" points="472.406,-89.085 462.322,-92.3354 472.232,-96.0828 472.406,-89.085"/>
</g>
<!-- ITF&#45;A_gnd&#45;&gt;toadkiller -->
<g id="edge41" class="edge"><title>ITF&#45;A_gnd&#45;&gt;toadkiller</title>
<path fill="none" stroke="black" d="M1223.02,-864.384C1239.67,-838.722 1268.48,-787.348 1268.48,-739 1268.48,-739 1268.48,-739 1268.48,-521 1268.48,-413.488 946.442,-322.109 844.484,-288 759.697,-259.636 656.683,-245.937 592.587,-239.707"/>
<polygon fill="black" stroke="black" points="592.538,-236.187 582.254,-238.735 591.882,-243.156 592.538,-236.187"/>
</g>
<!-- ITF&#45;A_gnd&#45;&gt;kina -->
<g id="edge50" class="edge"><title>ITF&#45;A_gnd&#45;&gt;kina</title>
<path fill="none" stroke="black" d="M1238.69,-866.717C1253.67,-857.539 1271.42,-844.289 1282.48,-828 1305.5,-794.106 1306.48,-779.969 1306.48,-739 1306.48,-739 1306.48,-739 1306.48,-521 1306.48,-351.825 1159.22,-358.618 1005.48,-288 974.044,-273.558 937.482,-259.05 910.82,-248.873"/>
<polygon fill="black" stroke="black" points="911.709,-245.467 901.118,-245.194 909.227,-252.012 911.709,-245.467"/>
</g>
<!-- ITF&#45;A_gnd&#45;&gt;goblin -->
<g id="edge60" class="edge"><title>ITF&#45;A_gnd&#45;&gt;goblin</title>
<path fill="none" stroke="black" d="M1187.57,-865.872C1137.41,-834.708 1016.79,-762.703 907.484,-720 856.245,-699.983 794.762,-685.013 753.4,-676.176"/>
<polygon fill="black" stroke="black" points="754.103,-672.747 743.597,-674.116 752.663,-679.598 754.103,-672.747"/>
</g>
<!-- ITF&#45;A_gnd&#45;&gt;silent -->
<g id="edge71" class="edge"><title>ITF&#45;A_gnd&#45;&gt;silent</title>
<path fill="none" stroke="black" d="M1215.24,-864.049C1220.77,-837.521 1230.48,-784.517 1230.48,-739 1230.48,-739 1230.48,-739 1230.48,-593 1230.48,-546.027 1207.9,-535.97 1173.48,-504 1143.5,-476.145 1041.99,-425.894 984,-398.351"/>
<polygon fill="black" stroke="black" points="985.276,-395.083 974.74,-393.969 982.283,-401.41 985.276,-395.083"/>
</g>
<!-- ITF&#45;B_5v&#45;&gt;tobo -->
<g id="edge2" class="edge"><title>ITF&#45;B_5v&#45;&gt;tobo</title>
<path fill="none" stroke="black" d="M887.169,-875.507C782.337,-862.213 516.274,-828.473 416.794,-815.858"/>
<polygon fill="black" stroke="black" points="416.96,-812.351 406.599,-814.565 416.079,-819.296 416.96,-812.351"/>
</g>
<!-- ITF&#45;B_5v&#45;&gt;cletus -->
<g id="edge11" class="edge"><title>ITF&#45;B_5v&#45;&gt;cletus</title>
<path fill="none" stroke="black" d="M884.232,-880.626C780.739,-879.009 523.042,-870.64 312.484,-828 186.99,-802.586 38.4839,-867.041 38.4839,-739 38.4839,-739 38.4839,-739 38.4839,-233 38.4839,-190.496 45.3024,-175.819 73.4839,-144 88.0755,-127.525 109.055,-115.226 127.861,-106.644"/>
<polygon fill="black" stroke="black" points="129.383,-109.799 137.166,-102.611 126.599,-103.377 129.383,-109.799"/>
</g>
<!-- ITF&#45;B_5v&#45;&gt;oneeye -->
<g id="edge19" class="edge"><title>ITF&#45;B_5v&#45;&gt;oneeye</title>
<path fill="none" stroke="black" d="M930.484,-863.697C930.484,-855.983 930.484,-846.712 930.484,-838.112"/>
<polygon fill="black" stroke="black" points="933.984,-838.104 930.484,-828.104 926.984,-838.104 933.984,-838.104"/>
</g>
<!-- ITF&#45;B_5v&#45;&gt;croaker -->
<g id="edge26" class="edge"><title>ITF&#45;B_5v&#45;&gt;croaker</title>
<path fill="none" stroke="black" d="M975.46,-877.779C1011.9,-872.781 1062.04,-860.097 1092.48,-828 1120.68,-798.276 1116.48,-779.969 1116.48,-739 1116.48,-739 1116.48,-739 1116.48,-665 1116.48,-624.96 1118.89,-578.627 1120.66,-550.065"/>
<polygon fill="black" stroke="black" points="1124.16,-550.242 1121.3,-540.039 1117.17,-549.797 1124.16,-550.242"/>
</g>
<!-- ITF&#45;B_5v&#45;&gt;toadkiller -->
<g id="edge42" class="edge"><title>ITF&#45;B_5v&#45;&gt;toadkiller</title>
<path fill="none" stroke="black" d="M884.262,-880.343C751.787,-877.987 377.894,-867.833 341.484,-828 183.051,-654.67 430.276,-348.542 508.816,-259.77"/>
<polygon fill="black" stroke="black" points="511.613,-261.893 515.661,-252.102 506.391,-257.231 511.613,-261.893"/>
</g>
<!-- ITF&#45;B_5v&#45;&gt;kina -->
<g id="edge51" class="edge"><title>ITF&#45;B_5v&#45;&gt;kina</title>
<path fill="none" stroke="black" d="M976.803,-880.721C1019.3,-877.853 1080.88,-866.652 1116.48,-828 1215.54,-720.452 1233.09,-637.509 1173.48,-504 1118.74,-381.374 977.399,-291.393 910.123,-254.052"/>
<polygon fill="black" stroke="black" points="911.591,-250.866 901.138,-249.135 908.23,-257.006 911.591,-250.866"/>
</g>
<!-- ITF&#45;B_5v&#45;&gt;goblin -->
<g id="edge61" class="edge"><title>ITF&#45;B_5v&#45;&gt;goblin</title>
<path fill="none" stroke="black" d="M896.158,-869.83C849.822,-852.902 768.16,-816.187 725.484,-756 712.743,-738.032 708.245,-713.239 706.789,-694.384"/>
<polygon fill="black" stroke="black" points="710.281,-694.132 706.253,-684.333 703.291,-694.505 710.281,-694.132"/>
</g>
<!-- ITF&#45;B_5v&#45;&gt;silent -->
<g id="edge72" class="edge"><title>ITF&#45;B_5v&#45;&gt;silent</title>
<path fill="none" stroke="black" d="M953.752,-866.232C983.647,-845.713 1034.11,-805.463 1054.48,-756 1107.15,-628.13 1006.37,-466.611 961.987,-404.727"/>
<polygon fill="black" stroke="black" points="964.59,-402.356 955.873,-396.336 958.933,-406.479 964.59,-402.356"/>
</g>
<!-- ITF&#45;I_pulse_on&#45;&gt;tobo -->
<g id="edge3" class="edge"><title>ITF&#45;I_pulse_on&#45;&gt;tobo</title>
<path fill="none" stroke="black" d="M844.913,-466.331C806.545,-486.272 735.746,-520.818 671.484,-540 578.226,-567.837 534.401,-519.043 455.484,-576 396.804,-618.351 397.278,-649.855 379.484,-720 374.331,-740.313 374.357,-764.082 375.521,-781.944"/>
<polygon fill="black" stroke="black" points="372.037,-782.278 376.332,-791.963 379.014,-781.713 372.037,-782.278"/>
</g>
<!-- ITF&#45;I_pulse_on&#45;&gt;kina -->
<g id="edge54" class="edge"><title>ITF&#45;I_pulse_on&#45;&gt;kina</title>
<path fill="none" stroke="black" d="M869.606,-431.849C866.071,-394.832 865.799,-307.181 868.792,-262.386"/>
<polygon fill="black" stroke="black" points="872.295,-262.478 869.599,-252.232 865.317,-261.924 872.295,-262.478"/>
</g>
<!-- ITF&#45;I_pulse_on&#45;&gt;silent -->
<g id="edge74" class="edge"><title>ITF&#45;I_pulse_on&#45;&gt;silent</title>
<path fill="none" stroke="black" d="M889.836,-432.411C898.263,-423.861 908.711,-413.263 918.071,-403.766"/>
<polygon fill="black" stroke="black" points="920.759,-406.026 925.286,-396.447 915.774,-401.112 920.759,-406.026"/>
</g>
<!-- ITF&#45;J_pulse_off&#45;&gt;tobo -->
<g id="edge4" class="edge"><title>ITF&#45;J_pulse_off&#45;&gt;tobo</title>
<path fill="none" stroke="black" d="M915.01,-176.004C838.73,-199.941 682.385,-251.833 638.484,-288 616.453,-306.15 406.139,-614.923 379.484,-720 374.331,-740.313 374.357,-764.082 375.521,-781.944"/>
<polygon fill="black" stroke="black" points="372.037,-782.278 376.332,-791.963 379.014,-781.713 372.037,-782.278"/>
</g>
<!-- ITF&#45;J_pulse_off&#45;&gt;silent -->
<g id="edge75" class="edge"><title>ITF&#45;J_pulse_off&#45;&gt;silent</title>
<path fill="none" stroke="black" d="M956.276,-180.232C953.676,-217.324 947.532,-304.981 944.397,-349.712"/>
<polygon fill="black" stroke="black" points="940.894,-349.629 943.686,-359.849 947.877,-350.118 940.894,-349.629"/>
</g>
<!-- ITF&#45;S_3_3v&#45;&gt;tobo -->
<g id="edge5" class="edge"><title>ITF&#45;S_3_3v&#45;&gt;tobo</title>
<path fill="none" stroke="black" d="M290.003,-865.811C305.259,-856.36 325.154,-844.036 342.213,-833.468"/>
<polygon fill="black" stroke="black" points="344.179,-836.368 350.836,-828.127 340.492,-830.418 344.179,-836.368"/>
</g>
<!-- ITF&#45;S_3_3v&#45;&gt;cletus -->
<g id="edge13" class="edge"><title>ITF&#45;S_3_3v&#45;&gt;cletus</title>
<path fill="none" stroke="black" d="M214.366,-875.966C151.929,-868.792 51.2945,-853.581 24.4839,-828 -5.15687,-799.719 0.483923,-779.969 0.483923,-739 0.483923,-739 0.483923,-739 0.483923,-233 0.483923,-192.031 -3.26381,-174.141 24.4839,-144 51.0118,-115.184 94.3723,-102.013 127.142,-96.0065"/>
<polygon fill="black" stroke="black" points="128.088,-99.3971 137.375,-94.2971 126.935,-92.4927 128.088,-99.3971"/>
</g>
<!-- ITF&#45;S_3_3v&#45;&gt;oneeye -->
<g id="edge20" class="edge"><title>ITF&#45;S_3_3v&#45;&gt;oneeye</title>
<path fill="none" stroke="black" d="M316.013,-875.681C439.71,-862.66 756.611,-829.302 880.128,-816.301"/>
<polygon fill="black" stroke="black" points="880.847,-819.744 890.425,-815.217 880.114,-812.783 880.847,-819.744"/>
</g>
<!-- ITF&#45;S_3_3v&#45;&gt;toadkiller -->
<g id="edge43" class="edge"><title>ITF&#45;S_3_3v&#45;&gt;toadkiller</title>
<path fill="none" stroke="black" d="M224.392,-870.257C201.321,-862.215 173.779,-848.921 156.484,-828 130.38,-796.424 132.484,-779.969 132.484,-739 132.484,-739 132.484,-739 132.484,-377 132.484,-336.031 125.789,-315.134 156.484,-288 201.889,-247.862 376.345,-238.048 470.456,-235.698"/>
<polygon fill="black" stroke="black" points="470.773,-239.192 480.69,-235.465 470.613,-232.194 470.773,-239.192"/>
</g>
<!-- ITF&#45;S_3_3v&#45;&gt;kina -->
<g id="edge52" class="edge"><title>ITF&#45;S_3_3v&#45;&gt;kina</title>
<path fill="none" stroke="black" d="M245.337,-865.002C217.45,-840.903 170.484,-792.39 170.484,-739 170.484,-739 170.484,-739 170.484,-377 170.484,-308.519 689.642,-252.871 835.677,-238.573"/>
<polygon fill="black" stroke="black" points="836.311,-242.028 845.925,-237.577 835.634,-235.061 836.311,-242.028"/>
</g>
<!-- ITF&#45;S_3_3v&#45;&gt;goblin -->
<g id="edge62" class="edge"><title>ITF&#45;S_3_3v&#45;&gt;goblin</title>
<path fill="none" stroke="black" d="M272.165,-863.953C286.334,-830.258 322.817,-755.344 379.484,-720 425.368,-691.381 580.299,-676.209 659.306,-670.171"/>
<polygon fill="black" stroke="black" points="659.76,-673.647 669.471,-669.412 659.239,-666.666 659.76,-673.647"/>
</g>
<!-- ITF&#45;S_3_3v&#45;&gt;silent -->
<g id="edge73" class="edge"><title>ITF&#45;S_3_3v&#45;&gt;silent</title>
<path fill="none" stroke="black" d="M267.729,-863.802C270.484,-845.525 275.998,-816.008 285.484,-792 326.407,-688.427 327.177,-647.587 412.484,-576 563.574,-449.21 803.987,-400.091 900.432,-384.825"/>
<polygon fill="black" stroke="black" points="901.04,-388.273 910.389,-383.289 899.973,-381.355 901.04,-388.273"/>
</g>
<!-- ITF&#45;mET_Transducer&#45;&gt;tobo -->
<g id="edge6" class="edge"><title>ITF&#45;mET_Transducer&#45;&gt;tobo</title>
<path fill="none" stroke="black" d="M158.372,-180.227C136.061,-205.086 94.4839,-253.698 94.4839,-305 94.4839,-667 94.4839,-667 94.4839,-667 94.4839,-776.46 262.128,-801.573 339.904,-807.313"/>
<polygon fill="black" stroke="black" points="340.045,-810.83 350.255,-808.001 340.509,-803.845 340.045,-810.83"/>
</g>
<!-- ITF&#45;mET_Transducer&#45;&gt;cletus -->
<g id="edge14" class="edge"><title>ITF&#45;mET_Transducer&#45;&gt;cletus</title>
<path fill="none" stroke="black" d="M165.568,-143.697C164.773,-135.983 164.546,-126.712 164.889,-118.112"/>
<polygon fill="black" stroke="black" points="168.382,-118.324 165.589,-108.104 161.399,-117.836 168.382,-118.324"/>
</g>
<!-- ITF&#45;mET_Transducer&#45;&gt;retroATL3 -->
<g id="edge35" class="edge"><title>ITF&#45;mET_Transducer&#45;&gt;retroATL3</title>
<path fill="none" stroke="black" d="M215.198,-146.24C250.126,-135.383 299.536,-120.566 339.29,-109.011"/>
<polygon fill="black" stroke="black" points="340.281,-112.368 348.912,-106.223 338.333,-105.644 340.281,-112.368"/>
</g>
<!-- ITF&#45;R_reserved&#45;&gt;goblin -->
<g id="edge66" class="edge"><title>ITF&#45;R_reserved&#45;&gt;goblin</title>
<path fill="none" stroke="black" d="M500.068,-724.566C544.954,-712.048 613.912,-692.817 659.599,-680.076"/>
<polygon fill="black" stroke="black" points="660.569,-683.439 669.261,-677.381 658.689,-676.696 660.569,-683.439"/>
</g>
<!-- ITF&#45;mET_SMA&#45;&gt;goblin -->
<g id="edge67" class="edge"><title>ITF&#45;mET_SMA&#45;&gt;goblin</title>
<path fill="none" stroke="black" d="M631.981,-720.765C644.588,-711.667 660.522,-700.168 674.416,-690.142"/>
<polygon fill="black" stroke="black" points="676.694,-692.814 682.755,-684.124 672.598,-687.138 676.694,-692.814"/>
</g>
<!-- ITF&#45;N_cc_motor_pwm&#45;&gt;cletus -->
<g id="edge12" class="edge"><title>ITF&#45;N_cc_motor_pwm&#45;&gt;cletus</title>
<path fill="none" stroke="black" d="M356.999,-146.496C315.287,-134.018 255.636,-116.174 215.329,-104.116"/>
<polygon fill="black" stroke="black" points="216.105,-100.695 205.521,-101.182 214.099,-107.401 216.105,-100.695"/>
</g>
<!-- ITF&#45;N_cc_motor_pwm&#45;&gt;retroATL3 -->
<g id="edge34" class="edge"><title>ITF&#45;N_cc_motor_pwm&#45;&gt;retroATL3</title>
<path fill="none" stroke="black" d="M405.484,-143.697C405.484,-135.983 405.484,-126.712 405.484,-118.112"/>
<polygon fill="black" stroke="black" points="408.984,-118.104 405.484,-108.104 401.984,-118.104 408.984,-118.104"/>
</g>
<!-- ITF&#45;mET_Piezo&#45;&gt;cletus -->
<g id="edge15" class="edge"><title>ITF&#45;mET_Piezo&#45;&gt;cletus</title>
<path fill="none" stroke="black" d="M177.379,-36.1043C178.184,-43.7913 178.421,-53.0537 178.088,-61.6651"/>
<polygon fill="black" stroke="black" points="174.592,-61.4805 177.4,-71.6966 181.576,-61.9597 174.592,-61.4805"/>
</g>
<!-- ITF&#45;G_gain_control&#45;&gt;goblin -->
<g id="edge63" class="edge"><title>ITF&#45;G_gain_control&#45;&gt;goblin</title>
<path fill="none" stroke="black" d="M790.971,-720.765C776.406,-711.496 757.922,-699.734 741.96,-689.576"/>
<polygon fill="black" stroke="black" points="743.709,-686.54 733.393,-684.124 739.951,-692.446 743.709,-686.54"/>
</g>
<!-- ITF&#45;mEG_SPI&#45;&gt;croaker -->
<g id="edge27" class="edge"><title>ITF&#45;mEG_SPI&#45;&gt;croaker</title>
<path fill="none" stroke="black" d="M915.745,-580.887C958.841,-568.82 1025.02,-550.29 1070.84,-537.459"/>
<polygon fill="black" stroke="black" points="1071.9,-540.799 1080.58,-534.732 1070.01,-534.058 1071.9,-540.799"/>
</g>
<!-- ITF&#45;F_12V&#45;&gt;retroATL3 -->
<g id="edge33" class="edge"><title>ITF&#45;F_12V&#45;&gt;retroATL3</title>
<path fill="none" stroke="black" d="M1192.03,-1013.53C1265.35,-990 1420.48,-934.171 1420.48,-883 1420.48,-883 1420.48,-883 1420.48,-233 1420.48,-190.162 1418.46,-168.732 1383.48,-144 1309.5,-91.6862 680.707,-89.7449 472.29,-90.5606"/>
<polygon fill="black" stroke="black" points="472.084,-87.0614 462.099,-90.6041 472.113,-94.0613 472.084,-87.0614"/>
</g>
<!-- ITF&#45;F_12V&#45;&gt;mogaba -->
<g id="edge78" class="edge"><title>ITF&#45;F_12V&#45;&gt;mogaba</title>
<path fill="none" stroke="black" d="M1130.58,-1009.81C1118.66,-1000.79 1104.45,-989.161 1092.76,-978.933"/>
<polygon fill="black" stroke="black" points="1094.93,-976.175 1085.14,-972.127 1090.27,-981.397 1094.93,-976.175"/>
</g>
<!-- Motor&#45;&gt;retroATL3 -->
<g id="edge36" class="edge"><title>Motor&#45;&gt;retroATL3</title>
<path fill="none" stroke="black" d="M468.977,-35.1446C460.459,-44.0315 448.676,-55.2305 437.517,-65.1113"/>
<polygon fill="black" stroke="black" points="435.191,-62.4954 429.939,-71.6966 439.783,-67.7791 435.191,-62.4954"/>
</g>
<!-- Tri&#45;Piezo Head&#45;&gt;retroATL3 -->
<g id="edge37" class="edge"><title>Tri&#45;Piezo Head&#45;&gt;retroATL3</title>
<path fill="none" stroke="black" d="M380.063,-35.6223C385.671,-43.6958 391.706,-53.5904 396.618,-62.6579"/>
<polygon fill="black" stroke="black" points="393.58,-64.4034 401.265,-71.6966 399.805,-61.2028 393.58,-64.4034"/>
</g>
<!-- ITF&#45;E_signal_envelope&#45;&gt;toadkiller -->
<g id="edge44" class="edge"><title>ITF&#45;E_signal_envelope&#45;&gt;toadkiller</title>
<path fill="none" stroke="black" d="M696.948,-290.155C666.375,-279.964 625.428,-266.315 591.916,-255.144"/>
<polygon fill="black" stroke="black" points="592.821,-251.756 582.227,-251.914 590.607,-258.397 592.821,-251.756"/>
</g>
<!-- ITF&#45;E_signal_envelope&#45;&gt;kina -->
<g id="edge53" class="edge"><title>ITF&#45;E_signal_envelope&#45;&gt;kina</title>
<path fill="none" stroke="black" d="M771.767,-288.941C791.041,-278.72 816.13,-265.415 836.568,-254.577"/>
<polygon fill="black" stroke="black" points="838.399,-257.568 845.593,-249.79 835.119,-251.383 838.399,-257.568"/>
</g>
<!-- ITF&#45;E_signal_envelope&#45;&gt;goblin -->
<g id="edge65" class="edge"><title>ITF&#45;E_signal_envelope&#45;&gt;goblin</title>
<path fill="none" stroke="black" d="M742.908,-324.094C741.929,-381.375 724.03,-566.898 712.991,-637.436"/>
<polygon fill="black" stroke="black" points="709.467,-637.295 711.282,-647.733 716.372,-638.441 709.467,-637.295"/>
</g>
<!-- ITF&#45;C_amplified_raw_signal&#45;&gt;goblin -->
<g id="edge64" class="edge"><title>ITF&#45;C_amplified_raw_signal&#45;&gt;goblin</title>
<path fill="none" stroke="black" d="M613.954,-611.226C632.112,-620.582 654.048,-632.48 672.053,-642.704"/>
<polygon fill="black" stroke="black" points="670.653,-645.936 681.069,-647.876 674.136,-639.864 670.653,-645.936"/>
</g>
<!-- ITF&#45;mEM_Alimentation -->
<g id="node33" class="node"><title>ITF&#45;mEM_Alimentation</title>
<ellipse fill="green" stroke="black" cx="986.484" cy="-1026" rx="98.5829" ry="18"/>
<text text-anchor="middle" x="986.484" y="-1022.3" font-family="Times,serif" font-size="14.00">ITF&#45;mEM_Alimentation</text>
</g>
<!-- ITF&#45;mEM_Alimentation&#45;&gt;mogaba -->
<g id="edge77" class="edge"><title>ITF&#45;mEM_Alimentation&#45;&gt;mogaba</title>
<path fill="none" stroke="black" d="M1006.82,-1008.05C1017.47,-999.179 1030.68,-988.169 1042.3,-978.483"/>
<polygon fill="black" stroke="black" points="1044.6,-981.122 1050.05,-972.032 1040.12,-975.745 1044.6,-981.122"/>
</g>
</g>
</svg>
