<?xml version="1.0" encoding="UTF-8" standalone="no"?>
<!DOCTYPE svg PUBLIC "-//W3C//DTD SVG 1.1//EN"
 "http://www.w3.org/Graphics/SVG/1.1/DTD/svg11.dtd">
<!-- Generated by graphviz version 2.38.0 (20140413.2041)
 -->
<!-- Title: %3 Pages: 1 -->
<svg width="995pt" height="620pt"
 viewBox="0.00 0.00 995.42 620.00" xmlns="http://www.w3.org/2000/svg" xmlns:xlink="http://www.w3.org/1999/xlink">
<g id="graph0" class="graph" transform="scale(1 1) rotate(0) translate(4 616)">
<title>%3</title>
<polygon fill="white" stroke="none" points="-4,4 -4,-616 991.421,-616 991.421,4 -4,4"/>
<!-- tobo -->
<g id="node1" class="node"><title>tobo</title>
<polygon fill="blue" stroke="black" points="902.829,-252 846.829,-252 846.829,-216 902.829,-216 902.829,-252"/>
<text text-anchor="middle" x="874.829" y="-228.4" font-family="Times,serif" font-size="22.00">tobo</text>
</g>
<!-- ITF&#45;R_reserved -->
<g id="node11" class="node"><title>ITF&#45;R_reserved</title>
<ellipse fill="yellow" stroke="black" cx="870.829" cy="-162" rx="66.8882" ry="18"/>
<text text-anchor="middle" x="870.829" y="-158.3" font-family="Times,serif" font-size="14.00">ITF&#45;R_reserved</text>
</g>
<!-- tobo&#45;&gt;ITF&#45;R_reserved -->
<g id="edge6" class="edge"><title>tobo&#45;&gt;ITF&#45;R_reserved</title>
<path fill="none" stroke="black" d="M873.84,-215.697C873.399,-207.983 872.87,-198.712 872.378,-190.112"/>
<polygon fill="red" stroke="black" points="875.871,-189.888 871.806,-180.104 868.883,-190.288 875.871,-189.888"/>
</g>
<!-- ITF&#45;mET_SMA -->
<g id="node12" class="node"><title>ITF&#45;mET_SMA</title>
<ellipse fill="green" stroke="black" cx="716.829" cy="-162" rx="68.7879" ry="18"/>
<text text-anchor="middle" x="716.829" y="-158.3" font-family="Times,serif" font-size="14.00">ITF&#45;mET_SMA</text>
</g>
<!-- tobo&#45;&gt;ITF&#45;mET_SMA -->
<g id="edge7" class="edge"><title>tobo&#45;&gt;ITF&#45;mET_SMA</title>
<path fill="none" stroke="black" d="M846.571,-219.954C843.622,-218.611 840.667,-217.273 837.829,-216 812.083,-204.448 783.132,-191.756 760.006,-181.69"/>
<polygon fill="red" stroke="black" points="761.369,-178.466 750.802,-177.688 758.577,-184.885 761.369,-178.466"/>
</g>
<!-- ITF&#45;mET_Transducer -->
<g id="node13" class="node"><title>ITF&#45;mET_Transducer</title>
<ellipse fill="green" stroke="black" cx="276.829" cy="-162" rx="89.0842" ry="18"/>
<text text-anchor="middle" x="276.829" y="-158.3" font-family="Times,serif" font-size="14.00">ITF&#45;mET_Transducer</text>
</g>
<!-- tobo&#45;&gt;ITF&#45;mET_Transducer -->
<g id="edge8" class="edge"><title>tobo&#45;&gt;ITF&#45;mET_Transducer</title>
<path fill="none" stroke="black" d="M846.501,-218.837C843.619,-217.745 840.696,-216.77 837.829,-216 752.454,-193.065 508.027,-176.098 371.669,-168.103"/>
<polygon fill="red" stroke="black" points="371.825,-164.606 361.639,-167.52 371.419,-171.595 371.825,-164.606"/>
</g>
<!-- oneeye -->
<g id="node2" class="node"><title>oneeye</title>
<polygon fill="blue" stroke="black" points="674.829,-396 594.829,-396 594.829,-360 674.829,-360 674.829,-396"/>
<text text-anchor="middle" x="634.829" y="-372.4" font-family="Times,serif" font-size="22.00">oneeye</text>
</g>
<!-- ITF&#45;I_pulse_on -->
<g id="node8" class="node"><title>ITF&#45;I_pulse_on</title>
<ellipse fill="yellow" stroke="black" cx="639.829" cy="-306" rx="65.7887" ry="18"/>
<text text-anchor="middle" x="639.829" y="-302.3" font-family="Times,serif" font-size="14.00">ITF&#45;I_pulse_on</text>
</g>
<!-- oneeye&#45;&gt;ITF&#45;I_pulse_on -->
<g id="edge13" class="edge"><title>oneeye&#45;&gt;ITF&#45;I_pulse_on</title>
<path fill="none" stroke="black" d="M636.065,-359.697C636.616,-351.983 637.278,-342.712 637.892,-334.112"/>
<polygon fill="red" stroke="black" points="641.386,-334.328 638.607,-324.104 634.404,-333.83 641.386,-334.328"/>
</g>
<!-- ITF&#45;J_pulse_off -->
<g id="node9" class="node"><title>ITF&#45;J_pulse_off</title>
<ellipse fill="yellow" stroke="black" cx="790.829" cy="-306" rx="67.6881" ry="18"/>
<text text-anchor="middle" x="790.829" y="-302.3" font-family="Times,serif" font-size="14.00">ITF&#45;J_pulse_off</text>
</g>
<!-- oneeye&#45;&gt;ITF&#45;J_pulse_off -->
<g id="edge14" class="edge"><title>oneeye&#45;&gt;ITF&#45;J_pulse_off</title>
<path fill="none" stroke="black" d="M672.991,-359.876C695.823,-349.631 724.881,-336.592 748.429,-326.026"/>
<polygon fill="red" stroke="black" points="750.126,-329.1 757.817,-321.813 747.261,-322.714 750.126,-329.1"/>
</g>
<!-- ITF&#45;G_gain_control -->
<g id="node14" class="node"><title>ITF&#45;G_gain_control</title>
<ellipse fill="yellow" stroke="black" cx="746.829" cy="-234" rx="81.7856" ry="18"/>
<text text-anchor="middle" x="746.829" y="-230.3" font-family="Times,serif" font-size="14.00">ITF&#45;G_gain_control</text>
</g>
<!-- oneeye&#45;&gt;ITF&#45;G_gain_control -->
<g id="edge12" class="edge"><title>oneeye&#45;&gt;ITF&#45;G_gain_control</title>
<path fill="none" stroke="black" d="M600.147,-359.834C586.522,-351.127 572.361,-339.151 564.829,-324 557.706,-309.673 555.226,-300.798 564.829,-288 572.197,-278.18 632.812,-261.801 682.096,-249.845"/>
<polygon fill="red" stroke="black" points="683.195,-253.181 692.1,-247.441 681.559,-246.375 683.195,-253.181"/>
</g>
<!-- ITF&#45;N_cc_motor_pwm -->
<g id="node15" class="node"><title>ITF&#45;N_cc_motor_pwm</title>
<ellipse fill="yellow" stroke="black" cx="553.829" cy="-234" rx="93.6835" ry="18"/>
<text text-anchor="middle" x="553.829" y="-230.3" font-family="Times,serif" font-size="14.00">ITF&#45;N_cc_motor_pwm</text>
</g>
<!-- oneeye&#45;&gt;ITF&#45;N_cc_motor_pwm -->
<g id="edge15" class="edge"><title>oneeye&#45;&gt;ITF&#45;N_cc_motor_pwm</title>
<path fill="none" stroke="black" d="M594.692,-367.429C571.996,-359.739 545.497,-346.404 531.829,-324 520.058,-304.705 528.116,-279.43 537.626,-260.747"/>
<polygon fill="red" stroke="black" points="540.737,-262.353 542.481,-251.902 534.601,-258.984 540.737,-262.353"/>
</g>
<!-- goblin -->
<g id="node3" class="node"><title>goblin</title>
<polygon fill="blue" stroke="black" points="704.829,-108 630.829,-108 630.829,-72 704.829,-72 704.829,-108"/>
<text text-anchor="middle" x="667.829" y="-84.4" font-family="Times,serif" font-size="22.00">goblin</text>
</g>
<!-- ITF&#45;C_amplified_raw_signal -->
<g id="node16" class="node"><title>ITF&#45;C_amplified_raw_signal</title>
<ellipse fill="yellow" stroke="black" cx="667.829" cy="-18" rx="114.28" ry="18"/>
<text text-anchor="middle" x="667.829" y="-14.3" font-family="Times,serif" font-size="14.00">ITF&#45;C_amplified_raw_signal</text>
</g>
<!-- goblin&#45;&gt;ITF&#45;C_amplified_raw_signal -->
<g id="edge24" class="edge"><title>goblin&#45;&gt;ITF&#45;C_amplified_raw_signal</title>
<path fill="none" stroke="black" d="M661.913,-71.6966C661.118,-63.9827 660.891,-54.7125 661.234,-46.1124"/>
<polygon fill="red" stroke="black" points="664.727,-46.3243 661.934,-36.1043 657.744,-45.8356 664.727,-46.3243"/>
</g>
<!-- ITF&#45;E_signal_envelope -->
<g id="node17" class="node"><title>ITF&#45;E_signal_envelope</title>
<ellipse fill="yellow" stroke="black" cx="893.829" cy="-18" rx="93.6835" ry="18"/>
<text text-anchor="middle" x="893.829" y="-14.3" font-family="Times,serif" font-size="14.00">ITF&#45;E_signal_envelope</text>
</g>
<!-- goblin&#45;&gt;ITF&#45;E_signal_envelope -->
<g id="edge26" class="edge"><title>goblin&#45;&gt;ITF&#45;E_signal_envelope</title>
<path fill="none" stroke="black" d="M704.926,-75.8335C739.66,-64.5775 792.037,-48.3051 832.879,-36.0542"/>
<polygon fill="red" stroke="black" points="833.885,-39.4065 842.464,-33.1899 831.881,-32.6996 833.885,-39.4065"/>
</g>
<!-- ADL5511 -->
<g id="node18" class="node"><title>ADL5511</title>
<ellipse fill="yellow" stroke="black" cx="345.829" cy="-18" rx="46.2923" ry="18"/>
<text text-anchor="middle" x="345.829" y="-14.3" font-family="Times,serif" font-size="14.00">ADL5511</text>
</g>
<!-- goblin&#45;&gt;ADL5511 -->
<g id="edge25" class="edge"><title>goblin&#45;&gt;ADL5511</title>
<path fill="none" stroke="black" d="M630.41,-82.8363C578.515,-74.002 481.92,-56.5217 400.829,-36 397.226,-35.0882 393.509,-34.0825 389.788,-33.0296"/>
<polygon fill="red" stroke="black" points="390.581,-29.615 380,-30.1638 388.614,-36.3329 390.581,-29.615"/>
</g>
<!-- ITF&#45;mEG_SPI -->
<g id="node19" class="node"><title>ITF&#45;mEG_SPI</title>
<ellipse fill="green" stroke="black" cx="472.829" cy="-18" rx="63.0888" ry="18"/>
<text text-anchor="middle" x="472.829" y="-14.3" font-family="Times,serif" font-size="14.00">ITF&#45;mEG_SPI</text>
</g>
<!-- goblin&#45;&gt;ITF&#45;mEG_SPI -->
<g id="edge27" class="edge"><title>goblin&#45;&gt;ITF&#45;mEG_SPI</title>
<path fill="none" stroke="black" d="M630.692,-75.6688C599.313,-64.4044 554.181,-48.2031 520.204,-36.0063"/>
<polygon fill="red" stroke="black" points="521.086,-32.6046 510.492,-32.52 518.721,-39.1929 521.086,-32.6046"/>
</g>
<!-- retro10PV -->
<g id="node4" class="node"><title>retro10PV</title>
<polygon fill="blue" stroke="black" points="214.329,-108 105.329,-108 105.329,-72 214.329,-72 214.329,-108"/>
<text text-anchor="middle" x="159.829" y="-84.4" font-family="Times,serif" font-size="22.00">retro10PV</text>
</g>
<!-- retro10PV&#45;&gt;ITF&#45;mET_Transducer -->
<g id="edge35" class="edge"><title>retro10PV&#45;&gt;ITF&#45;mET_Transducer</title>
<path fill="none" stroke="black" d="M194.484,-108.201C210.866,-117.428 230.189,-128.904 246.051,-138.798"/>
<polygon fill="red" stroke="black" points="244.617,-142.032 254.942,-144.411 248.355,-136.113 244.617,-142.032"/>
</g>
<!-- Motor -->
<g id="node21" class="node"><title>Motor</title>
<ellipse fill="yellow" stroke="black" cx="97.8291" cy="-18" rx="33.2948" ry="18"/>
<text text-anchor="middle" x="97.8291" y="-14.3" font-family="Times,serif" font-size="14.00">Motor</text>
</g>
<!-- retro10PV&#45;&gt;Motor -->
<g id="edge34" class="edge"><title>retro10PV&#45;&gt;Motor</title>
<path fill="none" stroke="black" d="M138.587,-71.6966C130.165,-63.1793 120.756,-52.7646 113.015,-43.4497"/>
<polygon fill="red" stroke="black" points="115.708,-41.2133 106.708,-35.6223 110.257,-45.6052 115.708,-41.2133"/>
</g>
<!-- Tri&#45;Piezo Head -->
<g id="node22" class="node"><title>Tri&#45;Piezo Head</title>
<ellipse fill="yellow" stroke="black" cx="213.829" cy="-18" rx="64.9885" ry="18"/>
<text text-anchor="middle" x="213.829" y="-14.3" font-family="Times,serif" font-size="14.00">Tri&#45;Piezo Head</text>
</g>
<!-- retro10PV&#45;&gt;Tri&#45;Piezo Head -->
<g id="edge36" class="edge"><title>retro10PV&#45;&gt;Tri&#45;Piezo Head</title>
<path fill="none" stroke="black" d="M167.262,-71.6966C172.954,-63.1793 180.803,-52.7646 188.498,-43.4497"/>
<polygon fill="red" stroke="black" points="191.345,-45.5053 195.163,-35.6223 186.015,-40.9674 191.345,-45.5053"/>
</g>
<!-- mogaba -->
<g id="node5" class="node"><title>mogaba</title>
<polygon fill="blue" stroke="black" points="678.329,-540 591.329,-540 591.329,-504 678.329,-504 678.329,-540"/>
<text text-anchor="middle" x="634.829" y="-516.4" font-family="Times,serif" font-size="22.00">mogaba</text>
</g>
<!-- ITF&#45;A_gnd -->
<g id="node6" class="node"><title>ITF&#45;A_gnd</title>
<ellipse fill="yellow" stroke="black" cx="507.829" cy="-450" rx="50.8918" ry="18"/>
<text text-anchor="middle" x="507.829" y="-446.3" font-family="Times,serif" font-size="14.00">ITF&#45;A_gnd</text>
</g>
<!-- mogaba&#45;&gt;ITF&#45;A_gnd -->
<g id="edge38" class="edge"><title>mogaba&#45;&gt;ITF&#45;A_gnd</title>
<path fill="none" stroke="black" d="M603.761,-503.876C585.46,-493.789 562.246,-480.994 543.238,-470.517"/>
<polygon fill="red" stroke="black" points="544.732,-467.344 534.285,-465.582 541.353,-473.474 544.732,-467.344"/>
</g>
<!-- ITF&#45;B_5v -->
<g id="node7" class="node"><title>ITF&#45;B_5v</title>
<ellipse fill="yellow" stroke="black" cx="838.829" cy="-450" rx="46.2923" ry="18"/>
<text text-anchor="middle" x="838.829" y="-446.3" font-family="Times,serif" font-size="14.00">ITF&#45;B_5v</text>
</g>
<!-- mogaba&#45;&gt;ITF&#45;B_5v -->
<g id="edge39" class="edge"><title>mogaba&#45;&gt;ITF&#45;B_5v</title>
<path fill="none" stroke="black" d="M678.342,-506.069C712.956,-494.192 761.141,-477.658 795.664,-465.812"/>
<polygon fill="red" stroke="black" points="797.139,-469.006 805.461,-462.45 794.867,-462.385 797.139,-469.006"/>
</g>
<!-- ITF&#45;S_3_3v -->
<g id="node10" class="node"><title>ITF&#45;S_3_3v</title>
<ellipse fill="yellow" stroke="black" cx="634.829" cy="-450" rx="53.8905" ry="18"/>
<text text-anchor="middle" x="634.829" y="-446.3" font-family="Times,serif" font-size="14.00">ITF&#45;S_3_3v</text>
</g>
<!-- mogaba&#45;&gt;ITF&#45;S_3_3v -->
<g id="edge40" class="edge"><title>mogaba&#45;&gt;ITF&#45;S_3_3v</title>
<path fill="none" stroke="black" d="M634.829,-503.697C634.829,-495.983 634.829,-486.712 634.829,-478.112"/>
<polygon fill="red" stroke="black" points="638.329,-478.104 634.829,-468.104 631.329,-478.104 638.329,-478.104"/>
</g>
<!-- ITF&#45;A_gnd&#45;&gt;tobo -->
<g id="edge1" class="edge"><title>ITF&#45;A_gnd&#45;&gt;tobo</title>
<path fill="none" stroke="black" d="M508.358,-431.874C510.394,-398.378 520.015,-324.301 564.829,-288 610.15,-251.289 763.673,-267.265 836.356,-251.602"/>
<polygon fill="black" stroke="black" points="837.63,-254.891 846.47,-249.052 835.918,-248.103 837.63,-254.891"/>
</g>
<!-- ITF&#45;A_gnd&#45;&gt;oneeye -->
<g id="edge9" class="edge"><title>ITF&#45;A_gnd&#45;&gt;oneeye</title>
<path fill="none" stroke="black" d="M534.144,-434.496C551.659,-424.842 575.002,-411.975 594.802,-401.062"/>
<polygon fill="black" stroke="black" points="596.548,-404.096 603.617,-396.204 593.169,-397.966 596.548,-404.096"/>
</g>
<!-- ITF&#45;A_gnd&#45;&gt;goblin -->
<g id="edge16" class="edge"><title>ITF&#45;A_gnd&#45;&gt;goblin</title>
<path fill="none" stroke="black" d="M483.931,-434.122C450.502,-411.252 393.829,-364.064 393.829,-307 393.829,-307 393.829,-307 393.829,-233 393.829,-132.115 542.065,-102.815 620.472,-94.3737"/>
<polygon fill="black" stroke="black" points="620.991,-97.8394 630.591,-93.3583 620.292,-90.8744 620.991,-97.8394"/>
</g>
<!-- ITF&#45;A_gnd&#45;&gt;retro10PV -->
<g id="edge28" class="edge"><title>ITF&#45;A_gnd&#45;&gt;retro10PV</title>
<path fill="none" stroke="black" d="M458.39,-445.692C331.068,-435.826 1.82905,-401.206 1.82905,-307 1.82905,-307 1.82905,-307 1.82905,-233 1.82905,-192.553 -5.48716,-174.715 20.8291,-144 39.686,-121.991 68.7204,-109.093 95.3861,-101.548"/>
<polygon fill="black" stroke="black" points="96.2963,-104.928 105.08,-99.0035 94.519,-98.1573 96.2963,-104.928"/>
</g>
<!-- ITF&#45;B_5v&#45;&gt;tobo -->
<g id="edge2" class="edge"><title>ITF&#45;B_5v&#45;&gt;tobo</title>
<path fill="none" stroke="black" d="M864.14,-434.847C877.744,-425.712 893.244,-412.462 900.829,-396 920.915,-352.405 911.68,-334.757 900.829,-288 898.731,-278.959 894.863,-269.681 890.741,-261.467"/>
<polygon fill="black" stroke="black" points="893.684,-259.55 885.875,-252.389 887.515,-262.857 893.684,-259.55"/>
</g>
<!-- ITF&#45;B_5v&#45;&gt;oneeye -->
<g id="edge10" class="edge"><title>ITF&#45;B_5v&#45;&gt;oneeye</title>
<path fill="none" stroke="black" d="M805.143,-437.441C772.315,-426.177 722.016,-408.917 684.58,-396.072"/>
<polygon fill="black" stroke="black" points="685.469,-392.676 674.874,-392.741 683.197,-399.297 685.469,-392.676"/>
</g>
<!-- ITF&#45;B_5v&#45;&gt;goblin -->
<g id="edge17" class="edge"><title>ITF&#45;B_5v&#45;&gt;goblin</title>
<path fill="none" stroke="black" d="M866.986,-435.66C884.208,-426.412 905.752,-412.761 920.829,-396 950.472,-363.047 965.829,-351.324 965.829,-307 965.829,-307 965.829,-307 965.829,-233 965.829,-192.553 975.751,-172.275 946.829,-144 914.571,-112.463 785.862,-98.9309 715.081,-93.7778"/>
<polygon fill="black" stroke="black" points="715.297,-90.2845 705.077,-93.0772 714.808,-97.2674 715.297,-90.2845"/>
</g>
<!-- ITF&#45;I_pulse_on&#45;&gt;tobo -->
<g id="edge3" class="edge"><title>ITF&#45;I_pulse_on&#45;&gt;tobo</title>
<path fill="none" stroke="black" d="M687.079,-293.333C732.347,-281.995 798.337,-265.01 837.059,-251.908"/>
<polygon fill="black" stroke="black" points="838.482,-255.117 846.752,-248.495 836.157,-248.515 838.482,-255.117"/>
</g>
<!-- ITF&#45;J_pulse_off&#45;&gt;tobo -->
<g id="edge4" class="edge"><title>ITF&#45;J_pulse_off&#45;&gt;tobo</title>
<path fill="none" stroke="black" d="M810.736,-288.411C821.379,-279.542 834.668,-268.467 846.382,-258.706"/>
<polygon fill="black" stroke="black" points="848.746,-261.292 854.188,-252.201 844.265,-255.914 848.746,-261.292"/>
</g>
<!-- ITF&#45;S_3_3v&#45;&gt;tobo -->
<g id="edge5" class="edge"><title>ITF&#45;S_3_3v&#45;&gt;tobo</title>
<path fill="none" stroke="black" d="M678.261,-439.199C732.741,-424.398 824.286,-390.688 867.829,-324 879.643,-305.907 880.665,-281.126 879.146,-262.306"/>
<polygon fill="black" stroke="black" points="882.617,-261.842 878.057,-252.278 875.657,-262.597 882.617,-261.842"/>
</g>
<!-- ITF&#45;S_3_3v&#45;&gt;oneeye -->
<g id="edge11" class="edge"><title>ITF&#45;S_3_3v&#45;&gt;oneeye</title>
<path fill="none" stroke="black" d="M634.829,-431.697C634.829,-423.983 634.829,-414.712 634.829,-406.112"/>
<polygon fill="black" stroke="black" points="638.329,-406.104 634.829,-396.104 631.329,-406.104 638.329,-406.104"/>
</g>
<!-- ITF&#45;S_3_3v&#45;&gt;goblin -->
<g id="edge18" class="edge"><title>ITF&#45;S_3_3v&#45;&gt;goblin</title>
<path fill="none" stroke="black" d="M606.767,-434.305C543.41,-399.1 398.725,-306.144 450.829,-216 487.212,-153.055 568.654,-119.007 620.765,-102.962"/>
<polygon fill="black" stroke="black" points="621.868,-106.286 630.455,-100.081 619.873,-99.5762 621.868,-106.286"/>
</g>
<!-- ITF&#45;R_reserved&#45;&gt;goblin -->
<g id="edge22" class="edge"><title>ITF&#45;R_reserved&#45;&gt;goblin</title>
<path fill="none" stroke="black" d="M831.207,-147.337C797.773,-135.808 749.855,-119.285 714.556,-107.113"/>
<polygon fill="black" stroke="black" points="715.551,-103.754 704.956,-103.802 713.269,-110.371 715.551,-103.754"/>
</g>
<!-- ITF&#45;mET_SMA&#45;&gt;goblin -->
<g id="edge23" class="edge"><title>ITF&#45;mET_SMA&#45;&gt;goblin</title>
<path fill="none" stroke="black" d="M704.968,-144.055C699.215,-135.837 692.183,-125.791 685.791,-116.66"/>
<polygon fill="black" stroke="black" points="688.524,-114.461 679.922,-108.275 682.789,-118.475 688.524,-114.461"/>
</g>
<!-- ITF&#45;mET_Transducer&#45;&gt;retro10PV -->
<g id="edge31" class="edge"><title>ITF&#45;mET_Transducer&#45;&gt;retro10PV</title>
<path fill="none" stroke="black" d="M244.519,-145.116C227.856,-135.79 207.706,-123.853 191.187,-113.564"/>
<polygon fill="black" stroke="black" points="192.755,-110.415 182.428,-108.044 189.022,-116.337 192.755,-110.415"/>
</g>
<!-- ITF&#45;G_gain_control&#45;&gt;goblin -->
<g id="edge19" class="edge"><title>ITF&#45;G_gain_control&#45;&gt;goblin</title>
<path fill="none" stroke="black" d="M693.936,-220.189C673.023,-212.253 651.091,-199.676 638.829,-180 626.642,-160.443 636.852,-135.246 648.388,-116.657"/>
<polygon fill="black" stroke="black" points="651.444,-118.382 654.065,-108.116 645.615,-114.507 651.444,-118.382"/>
</g>
<!-- ITF&#45;N_cc_motor_pwm&#45;&gt;retro10PV -->
<g id="edge30" class="edge"><title>ITF&#45;N_cc_motor_pwm&#45;&gt;retro10PV</title>
<path fill="none" stroke="black" d="M460.846,-231.708C363.255,-228.351 218.563,-217.049 178.829,-180 162.177,-164.474 158.252,-138.227 158.001,-118.248"/>
<polygon fill="black" stroke="black" points="161.502,-118.24 158.17,-108.182 154.503,-118.122 161.502,-118.24"/>
</g>
<!-- ITF&#45;C_amplified_raw_signal&#45;&gt;goblin -->
<g id="edge20" class="edge"><title>ITF&#45;C_amplified_raw_signal&#45;&gt;goblin</title>
<path fill="none" stroke="black" d="M673.724,-36.1043C674.53,-43.7913 674.766,-53.0537 674.433,-61.6651"/>
<polygon fill="black" stroke="black" points="670.938,-61.4805 673.745,-71.6966 677.921,-61.9597 670.938,-61.4805"/>
</g>
<!-- ITF&#45;E_signal_envelope&#45;&gt;goblin -->
<g id="edge21" class="edge"><title>ITF&#45;E_signal_envelope&#45;&gt;goblin</title>
<path fill="none" stroke="black" d="M850.843,-34.0687C811.891,-46.611 754.76,-64.2754 714.662,-76.1559"/>
<polygon fill="black" stroke="black" points="713.459,-72.8614 704.856,-79.045 715.438,-79.5761 713.459,-72.8614"/>
</g>
<!-- ITF&#45;F_12V -->
<g id="node20" class="node"><title>ITF&#45;F_12V</title>
<ellipse fill="yellow" stroke="black" cx="80.8291" cy="-162" rx="51.1914" ry="18"/>
<text text-anchor="middle" x="80.8291" y="-158.3" font-family="Times,serif" font-size="14.00">ITF&#45;F_12V</text>
</g>
<!-- ITF&#45;F_12V&#45;&gt;retro10PV -->
<g id="edge29" class="edge"><title>ITF&#45;F_12V&#45;&gt;retro10PV</title>
<path fill="none" stroke="black" d="M98.7554,-145.116C108.89,-136.136 121.758,-124.734 133.067,-114.714"/>
<polygon fill="black" stroke="black" points="135.43,-117.296 140.593,-108.044 130.788,-112.057 135.43,-117.296"/>
</g>
<!-- Motor&#45;&gt;retro10PV -->
<g id="edge32" class="edge"><title>Motor&#45;&gt;retro10PV</title>
<path fill="none" stroke="black" d="M116.04,-33.279C124.958,-42.0519 135.447,-53.539 144.02,-63.8028"/>
<polygon fill="black" stroke="black" points="141.403,-66.132 150.419,-71.6966 146.841,-61.7242 141.403,-66.132"/>
</g>
<!-- Tri&#45;Piezo Head&#45;&gt;retro10PV -->
<g id="edge33" class="edge"><title>Tri&#45;Piezo Head&#45;&gt;retro10PV</title>
<path fill="none" stroke="black" d="M206.529,-36.1043C200.954,-44.467 193.267,-54.6945 185.68,-63.9197"/>
<polygon fill="black" stroke="black" points="182.885,-61.8037 179.093,-71.6966 188.227,-66.3278 182.885,-61.8037"/>
</g>
<!-- ITF&#45;mEM_Alimentation -->
<g id="node23" class="node"><title>ITF&#45;mEM_Alimentation</title>
<ellipse fill="green" stroke="black" cx="634.829" cy="-594" rx="98.5829" ry="18"/>
<text text-anchor="middle" x="634.829" y="-590.3" font-family="Times,serif" font-size="14.00">ITF&#45;mEM_Alimentation</text>
</g>
<!-- ITF&#45;mEM_Alimentation&#45;&gt;mogaba -->
<g id="edge37" class="edge"><title>ITF&#45;mEM_Alimentation&#45;&gt;mogaba</title>
<path fill="none" stroke="black" d="M634.829,-575.697C634.829,-567.983 634.829,-558.712 634.829,-550.112"/>
<polygon fill="black" stroke="black" points="638.329,-550.104 634.829,-540.104 631.329,-550.104 638.329,-550.104"/>
</g>
</g>
</svg>
