<?xml version="1.0" encoding="UTF-8" standalone="no"?>
<!DOCTYPE svg PUBLIC "-//W3C//DTD SVG 1.1//EN"
 "http://www.w3.org/Graphics/SVG/1.1/DTD/svg11.dtd">
<!-- Generated by graphviz version 2.38.0 (20140413.2041)
 -->
<!-- Title: %3 Pages: 1 -->
<svg width="1175pt" height="764pt"
 viewBox="0.00 0.00 1174.59 764.00" xmlns="http://www.w3.org/2000/svg" xmlns:xlink="http://www.w3.org/1999/xlink">
<g id="graph0" class="graph" transform="scale(1 1) rotate(0) translate(4 760)">
<title>%3</title>
<polygon fill="white" stroke="none" points="-4,4 -4,-760 1170.59,-760 1170.59,4 -4,4"/>
<!-- tobo -->
<g id="node1" class="node"><title>tobo</title>
<polygon fill="blue" stroke="black" points="710.592,-396 654.592,-396 654.592,-360 710.592,-360 710.592,-396"/>
<text text-anchor="middle" x="682.592" y="-372.4" font-family="Times,serif" font-size="22.00">tobo</text>
</g>
<!-- ITF&#45;R_reserved -->
<g id="node12" class="node"><title>ITF&#45;R_reserved</title>
<ellipse fill="yellow" stroke="black" cx="517.592" cy="-306" rx="66.8882" ry="18"/>
<text text-anchor="middle" x="517.592" y="-302.3" font-family="Times,serif" font-size="14.00">ITF&#45;R_reserved</text>
</g>
<!-- tobo&#45;&gt;ITF&#45;R_reserved -->
<g id="edge6" class="edge"><title>tobo&#45;&gt;ITF&#45;R_reserved</title>
<path fill="none" stroke="black" d="M654.227,-364.967C628.619,-354.103 590.553,-337.953 561.098,-325.457"/>
<polygon fill="red" stroke="black" points="562.437,-322.223 551.864,-321.54 559.703,-328.668 562.437,-322.223"/>
</g>
<!-- ITF&#45;mET_SMA -->
<g id="node13" class="node"><title>ITF&#45;mET_SMA</title>
<ellipse fill="green" stroke="black" cx="363.592" cy="-306" rx="68.7879" ry="18"/>
<text text-anchor="middle" x="363.592" y="-302.3" font-family="Times,serif" font-size="14.00">ITF&#45;mET_SMA</text>
</g>
<!-- tobo&#45;&gt;ITF&#45;mET_SMA -->
<g id="edge7" class="edge"><title>tobo&#45;&gt;ITF&#45;mET_SMA</title>
<path fill="none" stroke="black" d="M654.562,-370.849C603.337,-359.609 493.526,-335.512 424.419,-320.348"/>
<polygon fill="red" stroke="black" points="425.048,-316.902 414.53,-318.178 423.547,-323.74 425.048,-316.902"/>
</g>
<!-- ITF&#45;mET_Transducer -->
<g id="node14" class="node"><title>ITF&#45;mET_Transducer</title>
<ellipse fill="green" stroke="black" cx="935.592" cy="-306" rx="89.0842" ry="18"/>
<text text-anchor="middle" x="935.592" y="-302.3" font-family="Times,serif" font-size="14.00">ITF&#45;mET_Transducer</text>
</g>
<!-- tobo&#45;&gt;ITF&#45;mET_Transducer -->
<g id="edge8" class="edge"><title>tobo&#45;&gt;ITF&#45;mET_Transducer</title>
<path fill="none" stroke="black" d="M710.634,-369.241C750.157,-358.306 823.238,-338.086 875.378,-323.66"/>
<polygon fill="red" stroke="black" points="876.479,-326.987 885.184,-320.947 874.613,-320.24 876.479,-326.987"/>
</g>
<!-- cletus -->
<g id="node2" class="node"><title>cletus</title>
<polygon fill="blue" stroke="black" points="969.592,-252 901.592,-252 901.592,-216 969.592,-216 969.592,-252"/>
<text text-anchor="middle" x="935.592" y="-228.4" font-family="Times,serif" font-size="22.00">cletus</text>
</g>
<!-- cletus&#45;&gt;ITF&#45;mET_Transducer -->
<g id="edge16" class="edge"><title>cletus&#45;&gt;ITF&#45;mET_Transducer</title>
<path fill="none" stroke="black" d="M941.487,-252.104C942.292,-259.791 942.529,-269.054 942.196,-277.665"/>
<polygon fill="red" stroke="black" points="938.7,-277.48 941.507,-287.697 945.684,-277.96 938.7,-277.48"/>
</g>
<!-- ITF&#45;mET_Piezo -->
<g id="node16" class="node"><title>ITF&#45;mET_Piezo</title>
<ellipse fill="green" stroke="black" cx="935.592" cy="-162" rx="68.7879" ry="18"/>
<text text-anchor="middle" x="935.592" y="-158.3" font-family="Times,serif" font-size="14.00">ITF&#45;mET_Piezo</text>
</g>
<!-- cletus&#45;&gt;ITF&#45;mET_Piezo -->
<g id="edge15" class="edge"><title>cletus&#45;&gt;ITF&#45;mET_Piezo</title>
<path fill="none" stroke="black" d="M929.676,-215.697C928.88,-207.983 928.654,-198.712 928.996,-190.112"/>
<polygon fill="red" stroke="black" points="932.49,-190.324 929.697,-180.104 925.507,-189.836 932.49,-190.324"/>
</g>
<!-- oneeye -->
<g id="node3" class="node"><title>oneeye</title>
<polygon fill="blue" stroke="black" points="798.592,-540 718.592,-540 718.592,-504 798.592,-504 798.592,-540"/>
<text text-anchor="middle" x="758.592" y="-516.4" font-family="Times,serif" font-size="22.00">oneeye</text>
</g>
<!-- ITF&#45;I_pulse_on -->
<g id="node9" class="node"><title>ITF&#45;I_pulse_on</title>
<ellipse fill="yellow" stroke="black" cx="607.592" cy="-450" rx="65.7887" ry="18"/>
<text text-anchor="middle" x="607.592" y="-446.3" font-family="Times,serif" font-size="14.00">ITF&#45;I_pulse_on</text>
</g>
<!-- oneeye&#45;&gt;ITF&#45;I_pulse_on -->
<g id="edge21" class="edge"><title>oneeye&#45;&gt;ITF&#45;I_pulse_on</title>
<path fill="none" stroke="black" d="M721.653,-503.876C699.552,-493.631 671.426,-480.592 648.633,-470.026"/>
<polygon fill="red" stroke="black" points="650.09,-466.844 639.546,-465.813 647.146,-473.194 650.09,-466.844"/>
</g>
<!-- ITF&#45;J_pulse_off -->
<g id="node10" class="node"><title>ITF&#45;J_pulse_off</title>
<ellipse fill="yellow" stroke="black" cx="758.592" cy="-450" rx="67.6881" ry="18"/>
<text text-anchor="middle" x="758.592" y="-446.3" font-family="Times,serif" font-size="14.00">ITF&#45;J_pulse_off</text>
</g>
<!-- oneeye&#45;&gt;ITF&#45;J_pulse_off -->
<g id="edge22" class="edge"><title>oneeye&#45;&gt;ITF&#45;J_pulse_off</title>
<path fill="none" stroke="black" d="M758.592,-503.697C758.592,-495.983 758.592,-486.712 758.592,-478.112"/>
<polygon fill="red" stroke="black" points="762.092,-478.104 758.592,-468.104 755.092,-478.104 762.092,-478.104"/>
</g>
<!-- ITF&#45;N_cc_motor_pwm -->
<g id="node15" class="node"><title>ITF&#45;N_cc_motor_pwm</title>
<ellipse fill="yellow" stroke="black" cx="734.592" cy="-306" rx="93.6835" ry="18"/>
<text text-anchor="middle" x="734.592" y="-302.3" font-family="Times,serif" font-size="14.00">ITF&#45;N_cc_motor_pwm</text>
</g>
<!-- oneeye&#45;&gt;ITF&#45;N_cc_motor_pwm -->
<g id="edge23" class="edge"><title>oneeye&#45;&gt;ITF&#45;N_cc_motor_pwm</title>
<path fill="none" stroke="black" d="M797.864,-503.895C812.458,-495.371 827.436,-483.514 835.592,-468 843.037,-453.838 840.924,-447.085 835.592,-432 821.159,-391.174 787.104,-353.906 762.523,-330.888"/>
<polygon fill="red" stroke="black" points="764.654,-328.094 754.912,-323.929 759.93,-333.26 764.654,-328.094"/>
</g>
<!-- ITF&#45;G_gain_control -->
<g id="node17" class="node"><title>ITF&#45;G_gain_control</title>
<ellipse fill="yellow" stroke="black" cx="429.592" cy="-378" rx="81.7856" ry="18"/>
<text text-anchor="middle" x="429.592" y="-374.3" font-family="Times,serif" font-size="14.00">ITF&#45;G_gain_control</text>
</g>
<!-- oneeye&#45;&gt;ITF&#45;G_gain_control -->
<g id="edge20" class="edge"><title>oneeye&#45;&gt;ITF&#45;G_gain_control</title>
<path fill="none" stroke="black" d="M718.219,-517.419C671.391,-511.967 592.91,-498.752 532.592,-468 500.667,-451.724 470.426,-423.506 451.074,-403.202"/>
<polygon fill="red" stroke="black" points="453.592,-400.77 444.209,-395.849 448.475,-405.547 453.592,-400.77"/>
</g>
<!-- goblin -->
<g id="node4" class="node"><title>goblin</title>
<polygon fill="blue" stroke="black" points="351.592,-252 277.592,-252 277.592,-216 351.592,-216 351.592,-252"/>
<text text-anchor="middle" x="314.592" y="-228.4" font-family="Times,serif" font-size="22.00">goblin</text>
</g>
<!-- ITF&#45;C_amplified_raw_signal -->
<g id="node18" class="node"><title>ITF&#45;C_amplified_raw_signal</title>
<ellipse fill="yellow" stroke="black" cx="573.592" cy="-162" rx="114.28" ry="18"/>
<text text-anchor="middle" x="573.592" y="-158.3" font-family="Times,serif" font-size="14.00">ITF&#45;C_amplified_raw_signal</text>
</g>
<!-- goblin&#45;&gt;ITF&#45;C_amplified_raw_signal -->
<g id="edge32" class="edge"><title>goblin&#45;&gt;ITF&#45;C_amplified_raw_signal</title>
<path fill="none" stroke="black" d="M351.64,-221.597C391.488,-210.326 455.559,-192.942 504.684,-180.032"/>
<polygon fill="red" stroke="black" points="505.826,-183.352 514.612,-177.431 504.051,-176.58 505.826,-183.352"/>
</g>
<!-- ITF&#45;E_signal_envelope -->
<g id="node19" class="node"><title>ITF&#45;E_signal_envelope</title>
<ellipse fill="yellow" stroke="black" cx="93.5917" cy="-162" rx="93.6835" ry="18"/>
<text text-anchor="middle" x="93.5917" y="-158.3" font-family="Times,serif" font-size="14.00">ITF&#45;E_signal_envelope</text>
</g>
<!-- goblin&#45;&gt;ITF&#45;E_signal_envelope -->
<g id="edge34" class="edge"><title>goblin&#45;&gt;ITF&#45;E_signal_envelope</title>
<path fill="none" stroke="black" d="M277.528,-222.821C241.257,-211.962 185.874,-194.535 145.305,-181.284"/>
<polygon fill="red" stroke="black" points="146.184,-177.889 135.591,-178.098 144.002,-184.541 146.184,-177.889"/>
</g>
<!-- ADL5511 -->
<g id="node20" class="node"><title>ADL5511</title>
<ellipse fill="yellow" stroke="black" cx="251.592" cy="-162" rx="46.2923" ry="18"/>
<text text-anchor="middle" x="251.592" y="-158.3" font-family="Times,serif" font-size="14.00">ADL5511</text>
</g>
<!-- goblin&#45;&gt;ADL5511 -->
<g id="edge33" class="edge"><title>goblin&#45;&gt;ADL5511</title>
<path fill="none" stroke="black" d="M299.019,-215.697C291.162,-206.967 281.511,-196.244 272.971,-186.754"/>
<polygon fill="red" stroke="black" points="275.413,-184.236 266.122,-179.145 270.21,-188.919 275.413,-184.236"/>
</g>
<!-- ITF&#45;mEG_SPI -->
<g id="node21" class="node"><title>ITF&#45;mEG_SPI</title>
<ellipse fill="green" stroke="black" cx="378.592" cy="-162" rx="63.0888" ry="18"/>
<text text-anchor="middle" x="378.592" y="-158.3" font-family="Times,serif" font-size="14.00">ITF&#45;mEG_SPI</text>
</g>
<!-- goblin&#45;&gt;ITF&#45;mEG_SPI -->
<g id="edge35" class="edge"><title>goblin&#45;&gt;ITF&#45;mEG_SPI</title>
<path fill="none" stroke="black" d="M330.412,-215.697C338.278,-207.093 347.914,-196.554 356.495,-187.168"/>
<polygon fill="red" stroke="black" points="359.23,-189.364 363.394,-179.622 354.063,-184.641 359.23,-189.364"/>
</g>
<!-- retro10PV -->
<g id="node5" class="node"><title>retro10PV</title>
<polygon fill="blue" stroke="black" points="990.092,-108 881.092,-108 881.092,-72 990.092,-72 990.092,-108"/>
<text text-anchor="middle" x="935.592" y="-84.4" font-family="Times,serif" font-size="22.00">retro10PV</text>
</g>
<!-- retro10PV&#45;&gt;ITF&#45;mET_Piezo -->
<g id="edge43" class="edge"><title>retro10PV&#45;&gt;ITF&#45;mET_Piezo</title>
<path fill="none" stroke="black" d="M941.505,-108.275C942.306,-116.03 942.532,-125.362 942.182,-134.005"/>
<polygon fill="red" stroke="black" points="938.686,-133.832 941.47,-144.055 945.668,-134.327 938.686,-133.832"/>
</g>
<!-- Motor -->
<g id="node22" class="node"><title>Motor</title>
<ellipse fill="yellow" stroke="black" cx="877.592" cy="-18" rx="33.2948" ry="18"/>
<text text-anchor="middle" x="877.592" y="-14.3" font-family="Times,serif" font-size="14.00">Motor</text>
</g>
<!-- retro10PV&#45;&gt;Motor -->
<g id="edge42" class="edge"><title>retro10PV&#45;&gt;Motor</title>
<path fill="none" stroke="black" d="M915.339,-71.6966C907.483,-63.2653 898.767,-52.9748 891.599,-43.7323"/>
<polygon fill="red" stroke="black" points="894.319,-41.5252 885.521,-35.6223 888.718,-45.7234 894.319,-41.5252"/>
</g>
<!-- Tri&#45;Piezo Head -->
<g id="node23" class="node"><title>Tri&#45;Piezo Head</title>
<ellipse fill="yellow" stroke="black" cx="993.592" cy="-18" rx="64.9885" ry="18"/>
<text text-anchor="middle" x="993.592" y="-14.3" font-family="Times,serif" font-size="14.00">Tri&#45;Piezo Head</text>
</g>
<!-- retro10PV&#45;&gt;Tri&#45;Piezo Head -->
<g id="edge44" class="edge"><title>retro10PV&#45;&gt;Tri&#45;Piezo Head</title>
<path fill="none" stroke="black" d="M944.013,-71.6966C950.254,-63.0933 958.807,-52.554 967.113,-43.1677"/>
<polygon fill="red" stroke="black" points="969.836,-45.3752 973.975,-35.6223 964.658,-40.6654 969.836,-45.3752"/>
</g>
<!-- mogaba -->
<g id="node6" class="node"><title>mogaba</title>
<polygon fill="blue" stroke="black" points="898.092,-684 811.092,-684 811.092,-648 898.092,-648 898.092,-684"/>
<text text-anchor="middle" x="854.592" y="-660.4" font-family="Times,serif" font-size="22.00">mogaba</text>
</g>
<!-- ITF&#45;A_gnd -->
<g id="node7" class="node"><title>ITF&#45;A_gnd</title>
<ellipse fill="yellow" stroke="black" cx="1071.59" cy="-594" rx="50.8918" ry="18"/>
<text text-anchor="middle" x="1071.59" y="-590.3" font-family="Times,serif" font-size="14.00">ITF&#45;A_gnd</text>
</g>
<!-- mogaba&#45;&gt;ITF&#45;A_gnd -->
<g id="edge46" class="edge"><title>mogaba&#45;&gt;ITF&#45;A_gnd</title>
<path fill="none" stroke="black" d="M898.244,-650.919C935.168,-639.008 987.918,-621.991 1025.51,-609.864"/>
<polygon fill="red" stroke="black" points="1026.77,-613.138 1035.21,-606.737 1024.62,-606.476 1026.77,-613.138"/>
</g>
<!-- ITF&#45;B_5v -->
<g id="node8" class="node"><title>ITF&#45;B_5v</title>
<ellipse fill="yellow" stroke="black" cx="736.592" cy="-594" rx="46.2923" ry="18"/>
<text text-anchor="middle" x="736.592" y="-590.3" font-family="Times,serif" font-size="14.00">ITF&#45;B_5v</text>
</g>
<!-- mogaba&#45;&gt;ITF&#45;B_5v -->
<g id="edge47" class="edge"><title>mogaba&#45;&gt;ITF&#45;B_5v</title>
<path fill="none" stroke="black" d="M825.726,-647.876C808.76,-637.812 787.25,-625.051 769.611,-614.588"/>
<polygon fill="red" stroke="black" points="771.171,-611.444 760.784,-609.352 767.599,-617.464 771.171,-611.444"/>
</g>
<!-- ITF&#45;S_3_3v -->
<g id="node11" class="node"><title>ITF&#45;S_3_3v</title>
<ellipse fill="yellow" stroke="black" cx="854.592" cy="-594" rx="53.8905" ry="18"/>
<text text-anchor="middle" x="854.592" y="-590.3" font-family="Times,serif" font-size="14.00">ITF&#45;S_3_3v</text>
</g>
<!-- mogaba&#45;&gt;ITF&#45;S_3_3v -->
<g id="edge48" class="edge"><title>mogaba&#45;&gt;ITF&#45;S_3_3v</title>
<path fill="none" stroke="black" d="M854.592,-647.697C854.592,-639.983 854.592,-630.712 854.592,-622.112"/>
<polygon fill="red" stroke="black" points="858.092,-622.104 854.592,-612.104 851.092,-622.104 858.092,-622.104"/>
</g>
<!-- ITF&#45;A_gnd&#45;&gt;tobo -->
<g id="edge1" class="edge"><title>ITF&#45;A_gnd&#45;&gt;tobo</title>
<path fill="none" stroke="black" d="M1054.9,-576.888C1020.88,-544.874 939.932,-472.833 859.592,-432 814.372,-409.017 757.481,-394.205 720.592,-386.239"/>
<polygon fill="black" stroke="black" points="721.249,-382.8 710.744,-384.172 719.812,-389.651 721.249,-382.8"/>
</g>
<!-- ITF&#45;A_gnd&#45;&gt;cletus -->
<g id="edge9" class="edge"><title>ITF&#45;A_gnd&#45;&gt;cletus</title>
<path fill="none" stroke="black" d="M1083.62,-576.512C1090.55,-566.388 1098.97,-552.922 1104.59,-540 1120.93,-502.429 1128.59,-491.969 1128.59,-451 1128.59,-451 1128.59,-451 1128.59,-377 1128.59,-332.473 1116.07,-317.357 1082.59,-288 1053.6,-262.58 1011.5,-249.05 979.77,-242.042"/>
<polygon fill="black" stroke="black" points="980.366,-238.591 969.864,-239.989 978.946,-245.446 980.366,-238.591"/>
</g>
<!-- ITF&#45;A_gnd&#45;&gt;oneeye -->
<g id="edge17" class="edge"><title>ITF&#45;A_gnd&#45;&gt;oneeye</title>
<path fill="none" stroke="black" d="M1029.7,-583.632C972.424,-570.822 869.799,-547.871 808.572,-534.178"/>
<polygon fill="black" stroke="black" points="809.269,-530.747 798.746,-531.98 807.741,-537.578 809.269,-530.747"/>
</g>
<!-- ITF&#45;A_gnd&#45;&gt;goblin -->
<g id="edge24" class="edge"><title>ITF&#45;A_gnd&#45;&gt;goblin</title>
<path fill="none" stroke="black" d="M1061.54,-576.348C1049.66,-557.483 1028.57,-526.448 1005.59,-504 965.898,-465.225 952.386,-458.424 903.592,-432 889.295,-424.258 645.296,-332.749 631.592,-324 611.982,-311.482 614.301,-298.599 593.592,-288 518.807,-249.724 419.971,-238.921 362.233,-235.976"/>
<polygon fill="black" stroke="black" points="362.093,-232.466 351.946,-235.512 361.778,-239.459 362.093,-232.466"/>
</g>
<!-- ITF&#45;A_gnd&#45;&gt;retro10PV -->
<g id="edge37" class="edge"><title>ITF&#45;A_gnd&#45;&gt;retro10PV</title>
<path fill="none" stroke="black" d="M1091.28,-577.401C1119.1,-553.442 1166.59,-504.687 1166.59,-451 1166.59,-451 1166.59,-451 1166.59,-233 1166.59,-154.48 1068.53,-117.998 1000.19,-102.107"/>
<polygon fill="black" stroke="black" points="1000.86,-98.6706 990.335,-99.9095 999.334,-105.503 1000.86,-98.6706"/>
</g>
<!-- ITF&#45;B_5v&#45;&gt;tobo -->
<g id="edge2" class="edge"><title>ITF&#45;B_5v&#45;&gt;tobo</title>
<path fill="none" stroke="black" d="M700.154,-582.828C651.812,-567.146 568.415,-531.964 532.592,-468 524.773,-454.04 523.353,-445.063 532.592,-432 557.776,-396.391 608.965,-384.546 644.495,-380.697"/>
<polygon fill="black" stroke="black" points="644.881,-384.176 654.519,-379.776 644.24,-377.206 644.881,-384.176"/>
</g>
<!-- ITF&#45;B_5v&#45;&gt;cletus -->
<g id="edge10" class="edge"><title>ITF&#45;B_5v&#45;&gt;cletus</title>
<path fill="none" stroke="black" d="M763.75,-579.141C826.125,-545.537 978.486,-452.894 1033.59,-324 1039.88,-309.288 1041.78,-301.744 1033.59,-288 1021.71,-268.063 999.433,-255.171 979.119,-247.101"/>
<polygon fill="black" stroke="black" points="980.258,-243.79 969.665,-243.62 977.84,-250.36 980.258,-243.79"/>
</g>
<!-- ITF&#45;B_5v&#45;&gt;oneeye -->
<g id="edge18" class="edge"><title>ITF&#45;B_5v&#45;&gt;oneeye</title>
<path fill="none" stroke="black" d="M741.917,-576.055C744.367,-568.261 747.333,-558.822 750.081,-550.079"/>
<polygon fill="black" stroke="black" points="753.503,-550.865 753.162,-540.275 746.825,-548.766 753.503,-550.865"/>
</g>
<!-- ITF&#45;B_5v&#45;&gt;goblin -->
<g id="edge25" class="edge"><title>ITF&#45;B_5v&#45;&gt;goblin</title>
<path fill="none" stroke="black" d="M690.925,-591.291C570.411,-586.375 250.559,-570.559 214.592,-540 183.371,-513.473 190.592,-491.969 190.592,-451 190.592,-451 190.592,-451 190.592,-377 190.592,-336.031 189.041,-320.025 214.592,-288 228.22,-270.919 248.879,-258.676 267.889,-250.292"/>
<polygon fill="black" stroke="black" points="269.447,-253.435 277.341,-246.368 266.763,-246.97 269.447,-253.435"/>
</g>
<!-- ITF&#45;I_pulse_on&#45;&gt;tobo -->
<g id="edge3" class="edge"><title>ITF&#45;I_pulse_on&#45;&gt;tobo</title>
<path fill="none" stroke="black" d="M625.366,-432.411C634.686,-423.712 646.278,-412.893 656.588,-403.271"/>
<polygon fill="black" stroke="black" points="659.24,-405.583 664.162,-396.201 654.463,-400.465 659.24,-405.583"/>
</g>
<!-- ITF&#45;J_pulse_off&#45;&gt;tobo -->
<g id="edge4" class="edge"><title>ITF&#45;J_pulse_off&#45;&gt;tobo</title>
<path fill="none" stroke="black" d="M740.581,-432.411C731.044,-423.627 719.159,-412.68 708.636,-402.988"/>
<polygon fill="black" stroke="black" points="710.994,-400.401 701.267,-396.201 706.251,-405.55 710.994,-400.401"/>
</g>
<!-- ITF&#45;S_3_3v&#45;&gt;tobo -->
<g id="edge5" class="edge"><title>ITF&#45;S_3_3v&#45;&gt;tobo</title>
<path fill="none" stroke="black" d="M857.974,-575.739C863.214,-543.616 869.462,-474.108 835.592,-432 807.849,-397.51 756.353,-385.397 720.818,-381.182"/>
<polygon fill="black" stroke="black" points="721.105,-377.693 710.8,-380.151 720.389,-384.657 721.105,-377.693"/>
</g>
<!-- ITF&#45;S_3_3v&#45;&gt;cletus -->
<g id="edge12" class="edge"><title>ITF&#45;S_3_3v&#45;&gt;cletus</title>
<path fill="none" stroke="black" d="M901.729,-584.991C930.828,-577.784 966.984,-564.407 990.592,-540 1061.35,-466.851 1049.46,-424.316 1066.59,-324 1069.29,-308.228 1075.54,-301.267 1066.59,-288 1047.31,-259.397 1009.69,-246.226 979.693,-240.163"/>
<polygon fill="black" stroke="black" points="980.316,-236.719 969.85,-238.367 979.06,-243.605 980.316,-236.719"/>
</g>
<!-- ITF&#45;S_3_3v&#45;&gt;oneeye -->
<g id="edge19" class="edge"><title>ITF&#45;S_3_3v&#45;&gt;oneeye</title>
<path fill="none" stroke="black" d="M832.808,-577.116C820.255,-567.963 804.252,-556.294 790.323,-546.137"/>
<polygon fill="black" stroke="black" points="792.109,-543.108 781.967,-540.044 787.985,-548.764 792.109,-543.108"/>
</g>
<!-- ITF&#45;S_3_3v&#45;&gt;goblin -->
<g id="edge26" class="edge"><title>ITF&#45;S_3_3v&#45;&gt;goblin</title>
<path fill="none" stroke="black" d="M814.331,-581.846C806.79,-579.84 798.963,-577.812 791.592,-576 667.138,-545.409 228.592,-579.158 228.592,-451 228.592,-451 228.592,-451 228.592,-377 228.592,-330.307 263.034,-285.843 288.325,-259.487"/>
<polygon fill="black" stroke="black" points="290.962,-261.798 295.506,-252.227 285.985,-256.876 290.962,-261.798"/>
</g>
<!-- ITF&#45;R_reserved&#45;&gt;goblin -->
<g id="edge30" class="edge"><title>ITF&#45;R_reserved&#45;&gt;goblin</title>
<path fill="none" stroke="black" d="M477.969,-291.337C444.536,-279.808 396.618,-263.285 361.318,-251.113"/>
<polygon fill="black" stroke="black" points="362.314,-247.754 351.719,-247.802 360.032,-254.371 362.314,-247.754"/>
</g>
<!-- ITF&#45;mET_SMA&#45;&gt;goblin -->
<g id="edge31" class="edge"><title>ITF&#45;mET_SMA&#45;&gt;goblin</title>
<path fill="none" stroke="black" d="M351.73,-288.055C345.978,-279.837 338.945,-269.791 332.554,-260.66"/>
<polygon fill="black" stroke="black" points="335.286,-258.461 326.684,-252.275 329.552,-262.475 335.286,-258.461"/>
</g>
<!-- ITF&#45;mET_Transducer&#45;&gt;cletus -->
<g id="edge13" class="edge"><title>ITF&#45;mET_Transducer&#45;&gt;cletus</title>
<path fill="none" stroke="black" d="M929.676,-287.697C928.88,-279.983 928.654,-270.712 928.996,-262.112"/>
<polygon fill="black" stroke="black" points="932.49,-262.324 929.697,-252.104 925.507,-261.836 932.49,-262.324"/>
</g>
<!-- ITF&#45;N_cc_motor_pwm&#45;&gt;cletus -->
<g id="edge11" class="edge"><title>ITF&#45;N_cc_motor_pwm&#45;&gt;cletus</title>
<path fill="none" stroke="black" d="M777.711,-289.983C811.413,-278.246 858.06,-262.001 891.906,-250.214"/>
<polygon fill="black" stroke="black" points="893.237,-253.457 901.529,-246.862 890.935,-246.846 893.237,-253.457"/>
</g>
<!-- ITF&#45;N_cc_motor_pwm&#45;&gt;retro10PV -->
<g id="edge36" class="edge"><title>ITF&#45;N_cc_motor_pwm&#45;&gt;retro10PV</title>
<path fill="none" stroke="black" d="M739.901,-287.572C755.803,-256.367 800.04,-189.927 848.592,-144 860.495,-132.74 875.012,-122.185 888.818,-113.503"/>
<polygon fill="black" stroke="black" points="891.02,-116.26 897.753,-108.08 887.388,-110.276 891.02,-116.26"/>
</g>
<!-- ITF&#45;N_cc_motor_pwm&#45;&gt;retro10PV -->
<g id="edge38" class="edge"><title>ITF&#45;N_cc_motor_pwm&#45;&gt;retro10PV</title>
<path fill="none" stroke="black" d="M750.176,-288.062C773.338,-257.067 817.784,-190.169 866.592,-144 878.381,-132.848 892.736,-122.386 905.378,-113.751"/>
<polygon fill="black" stroke="black" points="907.463,-116.567 913.804,-108.08 903.554,-110.76 907.463,-116.567"/>
</g>
<!-- ITF&#45;mET_Piezo&#45;&gt;cletus -->
<g id="edge14" class="edge"><title>ITF&#45;mET_Piezo&#45;&gt;cletus</title>
<path fill="none" stroke="black" d="M941.487,-180.104C942.292,-187.791 942.529,-197.054 942.196,-205.665"/>
<polygon fill="black" stroke="black" points="938.7,-205.48 941.507,-215.697 945.684,-205.96 938.7,-205.48"/>
</g>
<!-- ITF&#45;mET_Piezo&#45;&gt;retro10PV -->
<g id="edge39" class="edge"><title>ITF&#45;mET_Piezo&#45;&gt;retro10PV</title>
<path fill="none" stroke="black" d="M929.713,-144.055C928.895,-136.346 928.653,-127.027 928.987,-118.364"/>
<polygon fill="black" stroke="black" points="932.486,-118.491 929.679,-108.275 925.502,-118.012 932.486,-118.491"/>
</g>
<!-- ITF&#45;G_gain_control&#45;&gt;goblin -->
<g id="edge27" class="edge"><title>ITF&#45;G_gain_control&#45;&gt;goblin</title>
<path fill="none" stroke="black" d="M359.614,-368.594C331.828,-361.438 302.509,-348.253 285.592,-324 272.268,-304.899 282.949,-279.294 294.934,-260.452"/>
<polygon fill="black" stroke="black" points="297.91,-262.3 300.637,-252.062 292.121,-258.365 297.91,-262.3"/>
</g>
<!-- ITF&#45;C_amplified_raw_signal&#45;&gt;goblin -->
<g id="edge28" class="edge"><title>ITF&#45;C_amplified_raw_signal&#45;&gt;goblin</title>
<path fill="none" stroke="black" d="M523.005,-178.207C476.23,-191.279 407.383,-209.837 361.731,-221.647"/>
<polygon fill="black" stroke="black" points="360.602,-218.323 351.79,-224.205 362.347,-225.102 360.602,-218.323"/>
</g>
<!-- ITF&#45;E_signal_envelope&#45;&gt;goblin -->
<g id="edge29" class="edge"><title>ITF&#45;E_signal_envelope&#45;&gt;goblin</title>
<path fill="none" stroke="black" d="M144.297,-177.297C181.432,-188.593 231.366,-204.378 267.603,-216.262"/>
<polygon fill="black" stroke="black" points="266.846,-219.697 277.439,-219.503 269.037,-213.049 266.846,-219.697"/>
</g>
<!-- Motor&#45;&gt;retro10PV -->
<g id="edge40" class="edge"><title>Motor&#45;&gt;retro10PV</title>
<path fill="none" stroke="black" d="M895.426,-33.7383C903.692,-42.3963 913.255,-53.5774 921.077,-63.6147"/>
<polygon fill="black" stroke="black" points="918.355,-65.8192 927.17,-71.6966 923.944,-61.6048 918.355,-65.8192"/>
</g>
<!-- Tri&#45;Piezo Head&#45;&gt;retro10PV -->
<g id="edge41" class="edge"><title>Tri&#45;Piezo Head&#45;&gt;retro10PV</title>
<path fill="none" stroke="black" d="M985.315,-36.1043C979.201,-44.5515 970.823,-54.9013 962.63,-64.1989"/>
<polygon fill="black" stroke="black" points="959.959,-61.9335 955.845,-71.6966 965.15,-66.6305 959.959,-61.9335"/>
</g>
<!-- ITF&#45;mEM_Alimentation -->
<g id="node24" class="node"><title>ITF&#45;mEM_Alimentation</title>
<ellipse fill="green" stroke="black" cx="854.592" cy="-738" rx="98.5829" ry="18"/>
<text text-anchor="middle" x="854.592" y="-734.3" font-family="Times,serif" font-size="14.00">ITF&#45;mEM_Alimentation</text>
</g>
<!-- ITF&#45;mEM_Alimentation&#45;&gt;mogaba -->
<g id="edge45" class="edge"><title>ITF&#45;mEM_Alimentation&#45;&gt;mogaba</title>
<path fill="none" stroke="black" d="M854.592,-719.697C854.592,-711.983 854.592,-702.712 854.592,-694.112"/>
<polygon fill="black" stroke="black" points="858.092,-694.104 854.592,-684.104 851.092,-694.104 858.092,-694.104"/>
</g>
</g>
</svg>
