<?xml version="1.0" encoding="UTF-8" standalone="no"?>
<!DOCTYPE svg PUBLIC "-//W3C//DTD SVG 1.1//EN"
 "http://www.w3.org/Graphics/SVG/1.1/DTD/svg11.dtd">
<!-- Generated by graphviz version 2.38.0 (20140413.2041)
 -->
<!-- Title: %3 Pages: 1 -->
<svg width="1020pt" height="620pt"
 viewBox="0.00 0.00 1019.51 620.00" xmlns="http://www.w3.org/2000/svg" xmlns:xlink="http://www.w3.org/1999/xlink">
<g id="graph0" class="graph" transform="scale(1 1) rotate(0) translate(4 616)">
<title>%3</title>
<polygon fill="white" stroke="none" points="-4,4 -4,-616 1015.51,-616 1015.51,4 -4,4"/>
<!-- tobo -->
<g id="node1" class="node"><title>tobo</title>
<polygon fill="blue" stroke="black" points="772.759,-252 716.759,-252 716.759,-216 772.759,-216 772.759,-252"/>
<text text-anchor="middle" x="744.759" y="-228.4" font-family="Times,serif" font-size="22.00">tobo</text>
</g>
<!-- ITF&#45;R_reserved -->
<g id="node11" class="node"><title>ITF&#45;R_reserved</title>
<ellipse fill="yellow" stroke="black" cx="913.759" cy="-162" rx="66.8882" ry="18"/>
<text text-anchor="middle" x="913.759" y="-158.3" font-family="Times,serif" font-size="14.00">ITF&#45;R_reserved</text>
</g>
<!-- tobo&#45;&gt;ITF&#45;R_reserved -->
<g id="edge6" class="edge"><title>tobo&#45;&gt;ITF&#45;R_reserved</title>
<path fill="none" stroke="black" d="M773.046,-221.284C799.331,-210.396 838.896,-194.009 869.385,-181.38"/>
<polygon fill="red" stroke="black" points="871.037,-184.484 878.936,-177.424 868.358,-178.017 871.037,-184.484"/>
</g>
<!-- ITF&#45;mET_SMA -->
<g id="node12" class="node"><title>ITF&#45;mET_SMA</title>
<ellipse fill="green" stroke="black" cx="563.759" cy="-162" rx="68.7879" ry="18"/>
<text text-anchor="middle" x="563.759" y="-158.3" font-family="Times,serif" font-size="14.00">ITF&#45;mET_SMA</text>
</g>
<!-- tobo&#45;&gt;ITF&#45;mET_SMA -->
<g id="edge7" class="edge"><title>tobo&#45;&gt;ITF&#45;mET_SMA</title>
<path fill="none" stroke="black" d="M716.478,-222.062C688.063,-211.073 643.788,-193.95 610.211,-180.965"/>
<polygon fill="red" stroke="black" points="611.195,-177.593 600.606,-177.25 608.67,-184.121 611.195,-177.593"/>
</g>
<!-- ITF&#45;mET_Transducer -->
<g id="node13" class="node"><title>ITF&#45;mET_Transducer</title>
<ellipse fill="green" stroke="black" cx="739.759" cy="-162" rx="89.0842" ry="18"/>
<text text-anchor="middle" x="739.759" y="-158.3" font-family="Times,serif" font-size="14.00">ITF&#45;mET_Transducer</text>
</g>
<!-- tobo&#45;&gt;ITF&#45;mET_Transducer -->
<g id="edge8" class="edge"><title>tobo&#45;&gt;ITF&#45;mET_Transducer</title>
<path fill="none" stroke="black" d="M743.523,-215.697C742.972,-207.983 742.31,-198.712 741.696,-190.112"/>
<polygon fill="red" stroke="black" points="745.185,-189.83 740.981,-180.104 738.203,-190.328 745.185,-189.83"/>
</g>
<!-- oneeye -->
<g id="node2" class="node"><title>oneeye</title>
<polygon fill="blue" stroke="black" points="631.759,-396 551.759,-396 551.759,-360 631.759,-360 631.759,-396"/>
<text text-anchor="middle" x="591.759" y="-372.4" font-family="Times,serif" font-size="22.00">oneeye</text>
</g>
<!-- ITF&#45;I_pulse_on -->
<g id="node8" class="node"><title>ITF&#45;I_pulse_on</title>
<ellipse fill="yellow" stroke="black" cx="596.759" cy="-306" rx="65.7887" ry="18"/>
<text text-anchor="middle" x="596.759" y="-302.3" font-family="Times,serif" font-size="14.00">ITF&#45;I_pulse_on</text>
</g>
<!-- oneeye&#45;&gt;ITF&#45;I_pulse_on -->
<g id="edge13" class="edge"><title>oneeye&#45;&gt;ITF&#45;I_pulse_on</title>
<path fill="none" stroke="black" d="M592.995,-359.697C593.546,-351.983 594.209,-342.712 594.823,-334.112"/>
<polygon fill="red" stroke="black" points="598.316,-334.328 595.538,-324.104 591.334,-333.83 598.316,-334.328"/>
</g>
<!-- ITF&#45;J_pulse_off -->
<g id="node9" class="node"><title>ITF&#45;J_pulse_off</title>
<ellipse fill="yellow" stroke="black" cx="747.759" cy="-306" rx="67.6881" ry="18"/>
<text text-anchor="middle" x="747.759" y="-302.3" font-family="Times,serif" font-size="14.00">ITF&#45;J_pulse_off</text>
</g>
<!-- oneeye&#45;&gt;ITF&#45;J_pulse_off -->
<g id="edge14" class="edge"><title>oneeye&#45;&gt;ITF&#45;J_pulse_off</title>
<path fill="none" stroke="black" d="M629.921,-359.876C652.754,-349.631 681.812,-336.592 705.359,-326.026"/>
<polygon fill="red" stroke="black" points="707.057,-329.1 714.747,-321.813 704.191,-322.714 707.057,-329.1"/>
</g>
<!-- ITF&#45;G_gain_control -->
<g id="node14" class="node"><title>ITF&#45;G_gain_control</title>
<ellipse fill="yellow" stroke="black" cx="536.759" cy="-234" rx="81.7856" ry="18"/>
<text text-anchor="middle" x="536.759" y="-230.3" font-family="Times,serif" font-size="14.00">ITF&#45;G_gain_control</text>
</g>
<!-- oneeye&#45;&gt;ITF&#45;G_gain_control -->
<g id="edge12" class="edge"><title>oneeye&#45;&gt;ITF&#45;G_gain_control</title>
<path fill="none" stroke="black" d="M557.077,-359.834C543.452,-351.127 529.292,-339.151 521.759,-324 512.048,-304.466 517.335,-279.857 524.18,-261.47"/>
<polygon fill="red" stroke="black" points="527.521,-262.548 528.058,-251.967 521.039,-259.903 527.521,-262.548"/>
</g>
<!-- ITF&#45;N_cc_motor_pwm -->
<g id="node15" class="node"><title>ITF&#45;N_cc_motor_pwm</title>
<ellipse fill="yellow" stroke="black" cx="303.759" cy="-306" rx="93.6835" ry="18"/>
<text text-anchor="middle" x="303.759" y="-302.3" font-family="Times,serif" font-size="14.00">ITF&#45;N_cc_motor_pwm</text>
</g>
<!-- oneeye&#45;&gt;ITF&#45;N_cc_motor_pwm -->
<g id="edge15" class="edge"><title>oneeye&#45;&gt;ITF&#45;N_cc_motor_pwm</title>
<path fill="none" stroke="black" d="M551.714,-367.267C504.546,-355.802 425.515,-336.593 369.363,-322.945"/>
<polygon fill="red" stroke="black" points="370.051,-319.511 359.507,-320.55 368.398,-326.313 370.051,-319.511"/>
</g>
<!-- goblin -->
<g id="node3" class="node"><title>goblin</title>
<polygon fill="blue" stroke="black" points="551.759,-108 477.759,-108 477.759,-72 551.759,-72 551.759,-108"/>
<text text-anchor="middle" x="514.759" y="-84.4" font-family="Times,serif" font-size="22.00">goblin</text>
</g>
<!-- ITF&#45;C_amplified_raw_signal -->
<g id="node16" class="node"><title>ITF&#45;C_amplified_raw_signal</title>
<ellipse fill="yellow" stroke="black" cx="288.759" cy="-18" rx="114.28" ry="18"/>
<text text-anchor="middle" x="288.759" y="-14.3" font-family="Times,serif" font-size="14.00">ITF&#45;C_amplified_raw_signal</text>
</g>
<!-- goblin&#45;&gt;ITF&#45;C_amplified_raw_signal -->
<g id="edge24" class="edge"><title>goblin&#45;&gt;ITF&#45;C_amplified_raw_signal</title>
<path fill="none" stroke="black" d="M477.732,-79.045C441.095,-68.3172 384.787,-50.997 343.11,-37.7092"/>
<polygon fill="red" stroke="black" points="343.978,-34.3119 333.387,-34.5966 341.844,-40.9787 343.978,-34.3119"/>
</g>
<!-- ITF&#45;E_signal_envelope -->
<g id="node17" class="node"><title>ITF&#45;E_signal_envelope</title>
<ellipse fill="yellow" stroke="black" cx="514.759" cy="-18" rx="93.6835" ry="18"/>
<text text-anchor="middle" x="514.759" y="-14.3" font-family="Times,serif" font-size="14.00">ITF&#45;E_signal_envelope</text>
</g>
<!-- goblin&#45;&gt;ITF&#45;E_signal_envelope -->
<g id="edge26" class="edge"><title>goblin&#45;&gt;ITF&#45;E_signal_envelope</title>
<path fill="none" stroke="black" d="M508.844,-71.6966C508.048,-63.9827 507.821,-54.7125 508.164,-46.1124"/>
<polygon fill="red" stroke="black" points="511.658,-46.3243 508.864,-36.1043 504.675,-45.8356 511.658,-46.3243"/>
</g>
<!-- ADL5511 -->
<g id="node18" class="node"><title>ADL5511</title>
<ellipse fill="yellow" stroke="black" cx="672.759" cy="-18" rx="46.2923" ry="18"/>
<text text-anchor="middle" x="672.759" y="-14.3" font-family="Times,serif" font-size="14.00">ADL5511</text>
</g>
<!-- goblin&#45;&gt;ADL5511 -->
<g id="edge25" class="edge"><title>goblin&#45;&gt;ADL5511</title>
<path fill="none" stroke="black" d="M551.803,-72.5881C576.552,-61.6234 609.04,-47.2301 634.114,-36.1215"/>
<polygon fill="red" stroke="black" points="635.604,-39.2896 643.329,-32.0389 632.768,-32.8896 635.604,-39.2896"/>
</g>
<!-- ITF&#45;mEG_SPI -->
<g id="node19" class="node"><title>ITF&#45;mEG_SPI</title>
<ellipse fill="green" stroke="black" cx="799.759" cy="-18" rx="63.0888" ry="18"/>
<text text-anchor="middle" x="799.759" y="-14.3" font-family="Times,serif" font-size="14.00">ITF&#45;mEG_SPI</text>
</g>
<!-- goblin&#45;&gt;ITF&#45;mEG_SPI -->
<g id="edge27" class="edge"><title>goblin&#45;&gt;ITF&#45;mEG_SPI</title>
<path fill="none" stroke="black" d="M552.018,-79.8487C600.84,-67.8574 686.9,-46.7199 743.632,-32.7858"/>
<polygon fill="red" stroke="black" points="744.642,-36.1417 753.519,-30.3574 742.972,-29.3437 744.642,-36.1417"/>
</g>
<!-- retro10PV -->
<g id="node4" class="node"><title>retro10PV</title>
<polygon fill="blue" stroke="black" points="236.259,-252 127.259,-252 127.259,-216 236.259,-216 236.259,-252"/>
<text text-anchor="middle" x="181.759" y="-228.4" font-family="Times,serif" font-size="22.00">retro10PV</text>
</g>
<!-- ITF&#45;mET_Piezo -->
<g id="node20" class="node"><title>ITF&#45;mET_Piezo</title>
<ellipse fill="green" stroke="black" cx="331.759" cy="-162" rx="68.7879" ry="18"/>
<text text-anchor="middle" x="331.759" y="-158.3" font-family="Times,serif" font-size="14.00">ITF&#45;mET_Piezo</text>
</g>
<!-- retro10PV&#45;&gt;ITF&#45;mET_Piezo -->
<g id="edge35" class="edge"><title>retro10PV&#45;&gt;ITF&#45;mET_Piezo</title>
<path fill="none" stroke="black" d="M212.556,-215.876C233.823,-205.442 262.346,-192.111 286.206,-181.445"/>
<polygon fill="red" stroke="black" points="287.711,-184.606 295.433,-177.352 284.873,-178.208 287.711,-184.606"/>
</g>
<!-- Motor -->
<g id="node21" class="node"><title>Motor</title>
<ellipse fill="yellow" stroke="black" cx="63.7594" cy="-162" rx="33.2948" ry="18"/>
<text text-anchor="middle" x="63.7594" y="-158.3" font-family="Times,serif" font-size="14.00">Motor</text>
</g>
<!-- retro10PV&#45;&gt;Motor -->
<g id="edge34" class="edge"><title>retro10PV&#45;&gt;Motor</title>
<path fill="none" stroke="black" d="M146.996,-215.876C129.021,-205.836 107.493,-193.112 90.7677,-182.663"/>
<polygon fill="red" stroke="black" points="92.3439,-179.518 82.0234,-177.123 88.5976,-185.431 92.3439,-179.518"/>
</g>
<!-- Tri&#45;Piezo Head -->
<g id="node22" class="node"><title>Tri&#45;Piezo Head</title>
<ellipse fill="yellow" stroke="black" cx="179.759" cy="-162" rx="64.9885" ry="18"/>
<text text-anchor="middle" x="179.759" y="-158.3" font-family="Times,serif" font-size="14.00">Tri&#45;Piezo Head</text>
</g>
<!-- retro10PV&#45;&gt;Tri&#45;Piezo Head -->
<g id="edge36" class="edge"><title>retro10PV&#45;&gt;Tri&#45;Piezo Head</title>
<path fill="none" stroke="black" d="M175.349,-215.697C174.333,-207.983 173.842,-198.712 173.939,-190.112"/>
<polygon fill="red" stroke="black" points="177.436,-190.241 174.353,-180.104 170.442,-189.951 177.436,-190.241"/>
</g>
<!-- mogaba -->
<g id="node5" class="node"><title>mogaba</title>
<polygon fill="blue" stroke="black" points="635.259,-540 548.259,-540 548.259,-504 635.259,-504 635.259,-540"/>
<text text-anchor="middle" x="591.759" y="-516.4" font-family="Times,serif" font-size="22.00">mogaba</text>
</g>
<!-- ITF&#45;A_gnd -->
<g id="node6" class="node"><title>ITF&#45;A_gnd</title>
<ellipse fill="yellow" stroke="black" cx="464.759" cy="-450" rx="50.8918" ry="18"/>
<text text-anchor="middle" x="464.759" y="-446.3" font-family="Times,serif" font-size="14.00">ITF&#45;A_gnd</text>
</g>
<!-- mogaba&#45;&gt;ITF&#45;A_gnd -->
<g id="edge38" class="edge"><title>mogaba&#45;&gt;ITF&#45;A_gnd</title>
<path fill="none" stroke="black" d="M560.692,-503.876C542.391,-493.789 519.177,-480.994 500.168,-470.517"/>
<polygon fill="red" stroke="black" points="501.662,-467.344 491.215,-465.582 498.283,-473.474 501.662,-467.344"/>
</g>
<!-- ITF&#45;B_5v -->
<g id="node7" class="node"><title>ITF&#45;B_5v</title>
<ellipse fill="yellow" stroke="black" cx="795.759" cy="-450" rx="46.2923" ry="18"/>
<text text-anchor="middle" x="795.759" y="-446.3" font-family="Times,serif" font-size="14.00">ITF&#45;B_5v</text>
</g>
<!-- mogaba&#45;&gt;ITF&#45;B_5v -->
<g id="edge39" class="edge"><title>mogaba&#45;&gt;ITF&#45;B_5v</title>
<path fill="none" stroke="black" d="M635.272,-506.069C669.886,-494.192 718.072,-477.658 752.594,-465.812"/>
<polygon fill="red" stroke="black" points="754.069,-469.006 762.392,-462.45 751.797,-462.385 754.069,-469.006"/>
</g>
<!-- ITF&#45;S_3_3v -->
<g id="node10" class="node"><title>ITF&#45;S_3_3v</title>
<ellipse fill="yellow" stroke="black" cx="591.759" cy="-450" rx="53.8905" ry="18"/>
<text text-anchor="middle" x="591.759" y="-446.3" font-family="Times,serif" font-size="14.00">ITF&#45;S_3_3v</text>
</g>
<!-- mogaba&#45;&gt;ITF&#45;S_3_3v -->
<g id="edge40" class="edge"><title>mogaba&#45;&gt;ITF&#45;S_3_3v</title>
<path fill="none" stroke="black" d="M591.759,-503.697C591.759,-495.983 591.759,-486.712 591.759,-478.112"/>
<polygon fill="red" stroke="black" points="595.26,-478.104 591.759,-468.104 588.26,-478.104 595.26,-478.104"/>
</g>
<!-- ITF&#45;A_gnd&#45;&gt;tobo -->
<g id="edge1" class="edge"><title>ITF&#45;A_gnd&#45;&gt;tobo</title>
<path fill="none" stroke="black" d="M465.661,-431.753C468.354,-398.706 479.079,-326.345 521.759,-288 548.721,-263.777 650.225,-247.191 706.535,-239.639"/>
<polygon fill="black" stroke="black" points="707.035,-243.103 716.495,-238.334 706.125,-236.163 707.035,-243.103"/>
</g>
<!-- ITF&#45;A_gnd&#45;&gt;oneeye -->
<g id="edge9" class="edge"><title>ITF&#45;A_gnd&#45;&gt;oneeye</title>
<path fill="none" stroke="black" d="M491.074,-434.496C508.589,-424.842 531.933,-411.975 551.733,-401.062"/>
<polygon fill="black" stroke="black" points="553.479,-404.096 560.547,-396.204 550.1,-397.966 553.479,-404.096"/>
</g>
<!-- ITF&#45;A_gnd&#45;&gt;goblin -->
<g id="edge16" class="edge"><title>ITF&#45;A_gnd&#45;&gt;goblin</title>
<path fill="none" stroke="black" d="M416.191,-444.489C297.574,-432.135 2.75944,-392.799 2.75944,-307 2.75944,-307 2.75944,-307 2.75944,-233 2.75944,-192.553 -8.27832,-171.087 21.7594,-144 54.4943,-114.481 350.425,-98.2707 467.447,-92.9686"/>
<polygon fill="black" stroke="black" points="467.707,-96.4606 477.541,-92.5183 467.395,-89.4676 467.707,-96.4606"/>
</g>
<!-- ITF&#45;A_gnd&#45;&gt;retro10PV -->
<g id="edge29" class="edge"><title>ITF&#45;A_gnd&#45;&gt;retro10PV</title>
<path fill="none" stroke="black" d="M421.018,-440.801C361.637,-427.289 256.539,-394.485 200.759,-324 187.008,-306.623 182.622,-281.573 181.466,-262.473"/>
<polygon fill="black" stroke="black" points="184.958,-262.163 181.115,-252.289 177.962,-262.404 184.958,-262.163"/>
</g>
<!-- ITF&#45;B_5v&#45;&gt;tobo -->
<g id="edge2" class="edge"><title>ITF&#45;B_5v&#45;&gt;tobo</title>
<path fill="none" stroke="black" d="M821.071,-434.847C834.675,-425.712 850.175,-412.462 857.759,-396 877.846,-352.405 883.505,-328.512 857.759,-288 841.394,-262.249 808.845,-248.791 782.867,-241.894"/>
<polygon fill="black" stroke="black" points="783.465,-238.438 772.922,-239.481 781.814,-245.24 783.465,-238.438"/>
</g>
<!-- ITF&#45;B_5v&#45;&gt;oneeye -->
<g id="edge10" class="edge"><title>ITF&#45;B_5v&#45;&gt;oneeye</title>
<path fill="none" stroke="black" d="M762.073,-437.441C729.246,-426.177 678.947,-408.917 641.511,-396.072"/>
<polygon fill="black" stroke="black" points="642.399,-392.676 631.805,-392.741 640.127,-399.297 642.399,-392.676"/>
</g>
<!-- ITF&#45;B_5v&#45;&gt;goblin -->
<g id="edge17" class="edge"><title>ITF&#45;B_5v&#45;&gt;goblin</title>
<path fill="none" stroke="black" d="M836.074,-441.205C897.824,-426.662 1008.76,-389.109 1008.76,-307 1008.76,-307 1008.76,-307 1008.76,-233 1008.76,-192.553 1019.74,-171.147 989.759,-144 958.444,-115.647 676.376,-98.8646 562.309,-93.186"/>
<polygon fill="black" stroke="black" points="562.289,-89.6809 552.13,-92.6866 561.946,-96.6725 562.289,-89.6809"/>
</g>
<!-- ITF&#45;I_pulse_on&#45;&gt;tobo -->
<g id="edge3" class="edge"><title>ITF&#45;I_pulse_on&#45;&gt;tobo</title>
<path fill="none" stroke="black" d="M628.146,-290.155C651.218,-279.243 682.673,-264.365 707.1,-252.812"/>
<polygon fill="black" stroke="black" points="708.877,-255.843 716.421,-248.404 705.884,-249.515 708.877,-255.843"/>
</g>
<!-- ITF&#45;J_pulse_off&#45;&gt;tobo -->
<g id="edge4" class="edge"><title>ITF&#45;J_pulse_off&#45;&gt;tobo</title>
<path fill="none" stroke="black" d="M747.018,-287.697C746.687,-279.983 746.29,-270.712 745.921,-262.112"/>
<polygon fill="black" stroke="black" points="749.418,-261.945 745.492,-252.104 742.424,-262.245 749.418,-261.945"/>
</g>
<!-- ITF&#45;S_3_3v&#45;&gt;tobo -->
<g id="edge5" class="edge"><title>ITF&#45;S_3_3v&#45;&gt;tobo</title>
<path fill="none" stroke="black" d="M636.496,-439.592C691.912,-425.275 783.984,-392.148 824.759,-324 832.975,-310.27 832.33,-302.096 824.759,-288 815.666,-271.068 798.523,-258.634 782.432,-250.082"/>
<polygon fill="black" stroke="black" points="783.663,-246.786 773.148,-245.49 780.56,-253.061 783.663,-246.786"/>
</g>
<!-- ITF&#45;S_3_3v&#45;&gt;oneeye -->
<g id="edge11" class="edge"><title>ITF&#45;S_3_3v&#45;&gt;oneeye</title>
<path fill="none" stroke="black" d="M591.759,-431.697C591.759,-423.983 591.759,-414.712 591.759,-406.112"/>
<polygon fill="black" stroke="black" points="595.26,-406.104 591.759,-396.104 588.26,-406.104 595.26,-406.104"/>
</g>
<!-- ITF&#45;S_3_3v&#45;&gt;goblin -->
<g id="edge18" class="edge"><title>ITF&#45;S_3_3v&#45;&gt;goblin</title>
<path fill="none" stroke="black" d="M573.423,-432.876C539.821,-401.898 469.632,-330.171 445.759,-252 430.594,-202.341 466.352,-147.304 491.851,-116.154"/>
<polygon fill="black" stroke="black" points="494.624,-118.296 498.398,-108.396 489.274,-113.781 494.624,-118.296"/>
</g>
<!-- ITF&#45;R_reserved&#45;&gt;goblin -->
<g id="edge22" class="edge"><title>ITF&#45;R_reserved&#45;&gt;goblin</title>
<path fill="none" stroke="black" d="M864.787,-149.612C855.815,-147.649 846.52,-145.697 837.759,-144 740.257,-125.112 625.341,-107.311 562.232,-97.9169"/>
<polygon fill="black" stroke="black" points="562.591,-94.4319 552.186,-96.4273 561.564,-101.356 562.591,-94.4319"/>
</g>
<!-- ITF&#45;mET_SMA&#45;&gt;goblin -->
<g id="edge23" class="edge"><title>ITF&#45;mET_SMA&#45;&gt;goblin</title>
<path fill="none" stroke="black" d="M551.898,-144.055C546.146,-135.837 539.113,-125.791 532.721,-116.66"/>
<polygon fill="black" stroke="black" points="535.454,-114.461 526.852,-108.275 529.719,-118.475 535.454,-114.461"/>
</g>
<!-- ITF&#45;G_gain_control&#45;&gt;goblin -->
<g id="edge19" class="edge"><title>ITF&#45;G_gain_control&#45;&gt;goblin</title>
<path fill="none" stroke="black" d="M514.254,-216.515C503.438,-207.164 491.583,-194.45 485.759,-180 477.38,-159.206 486.453,-134.978 496.602,-117.056"/>
<polygon fill="black" stroke="black" points="499.715,-118.673 501.921,-108.31 493.734,-115.035 499.715,-118.673"/>
</g>
<!-- ITF&#45;N_cc_motor_pwm&#45;&gt;retro10PV -->
<g id="edge28" class="edge"><title>ITF&#45;N_cc_motor_pwm&#45;&gt;retro10PV</title>
<path fill="none" stroke="black" d="M270.315,-289.116C252.826,-279.704 231.593,-267.632 214.251,-257.278"/>
<polygon fill="black" stroke="black" points="215.947,-254.214 205.576,-252.044 212.33,-260.207 215.947,-254.214"/>
</g>
<!-- ITF&#45;N_cc_motor_pwm&#45;&gt;retro10PV -->
<g id="edge30" class="edge"><title>ITF&#45;N_cc_motor_pwm&#45;&gt;retro10PV</title>
<path fill="none" stroke="black" d="M280.687,-288.411C265.361,-279.03 244.872,-267.182 226.475,-257.03"/>
<polygon fill="black" stroke="black" points="228.097,-253.928 217.643,-252.201 224.738,-260.07 228.097,-253.928"/>
</g>
<!-- ITF&#45;C_amplified_raw_signal&#45;&gt;goblin -->
<g id="edge20" class="edge"><title>ITF&#45;C_amplified_raw_signal&#45;&gt;goblin</title>
<path fill="none" stroke="black" d="M342.6,-33.9275C380.72,-45.2967 431.264,-60.9345 467.762,-72.6424"/>
<polygon fill="black" stroke="black" points="467.07,-76.0967 477.662,-75.8335 469.218,-69.4343 467.07,-76.0967"/>
</g>
<!-- ITF&#45;E_signal_envelope&#45;&gt;goblin -->
<g id="edge21" class="edge"><title>ITF&#45;E_signal_envelope&#45;&gt;goblin</title>
<path fill="none" stroke="black" d="M520.654,-36.1043C521.46,-43.7913 521.696,-53.0537 521.363,-61.6651"/>
<polygon fill="black" stroke="black" points="517.868,-61.4805 520.675,-71.6966 524.852,-61.9597 517.868,-61.4805"/>
</g>
<!-- ITF&#45;mET_Piezo&#45;&gt;retro10PV -->
<g id="edge31" class="edge"><title>ITF&#45;mET_Piezo&#45;&gt;retro10PV</title>
<path fill="none" stroke="black" d="M304.232,-178.514C284.457,-188.284 257.334,-201.027 233.599,-211.732"/>
<polygon fill="black" stroke="black" points="232.045,-208.593 224.351,-215.876 234.908,-214.981 232.045,-208.593"/>
</g>
<!-- Motor&#45;&gt;retro10PV -->
<g id="edge32" class="edge"><title>Motor&#45;&gt;retro10PV</title>
<path fill="none" stroke="black" d="M88.2605,-174.478C106.3,-184.231 130.788,-198.521 150.246,-210.539"/>
<polygon fill="black" stroke="black" points="148.455,-213.547 158.79,-215.876 152.163,-207.61 148.455,-213.547"/>
</g>
<!-- Tri&#45;Piezo Head&#45;&gt;retro10PV -->
<g id="edge33" class="edge"><title>Tri&#45;Piezo Head&#45;&gt;retro10PV</title>
<path fill="none" stroke="black" d="M186.143,-180.104C187.168,-187.791 187.669,-197.054 187.582,-205.665"/>
<polygon fill="black" stroke="black" points="184.084,-205.565 187.181,-215.697 191.078,-205.845 184.084,-205.565"/>
</g>
<!-- ITF&#45;mEM_Alimentation -->
<g id="node23" class="node"><title>ITF&#45;mEM_Alimentation</title>
<ellipse fill="green" stroke="black" cx="591.759" cy="-594" rx="98.5829" ry="18"/>
<text text-anchor="middle" x="591.759" y="-590.3" font-family="Times,serif" font-size="14.00">ITF&#45;mEM_Alimentation</text>
</g>
<!-- ITF&#45;mEM_Alimentation&#45;&gt;mogaba -->
<g id="edge37" class="edge"><title>ITF&#45;mEM_Alimentation&#45;&gt;mogaba</title>
<path fill="none" stroke="black" d="M591.759,-575.697C591.759,-567.983 591.759,-558.712 591.759,-550.112"/>
<polygon fill="black" stroke="black" points="595.26,-550.104 591.759,-540.104 588.26,-550.104 595.26,-550.104"/>
</g>
</g>
</svg>
