<?xml version="1.0" encoding="UTF-8" standalone="no"?>
<!DOCTYPE svg PUBLIC "-//W3C//DTD SVG 1.1//EN"
 "http://www.w3.org/Graphics/SVG/1.1/DTD/svg11.dtd">
<!-- Generated by graphviz version 2.38.0 (20140413.2041)
 -->
<!-- Title: %3 Pages: 1 -->
<svg width="1525pt" height="908pt"
 viewBox="0.00 0.00 1525.00 908.00" xmlns="http://www.w3.org/2000/svg" xmlns:xlink="http://www.w3.org/1999/xlink">
<g id="graph0" class="graph" transform="scale(1 1) rotate(0) translate(4 904)">
<title>%3</title>
<polygon fill="white" stroke="none" points="-4,4 -4,-904 1521,-904 1521,4 -4,4"/>
<!-- sleepy -->
<g id="node1" class="node"><title>sleepy</title>
<polygon fill="blue" stroke="black" points="417.5,-900 344.5,-900 344.5,-864 417.5,-864 417.5,-900"/>
<text text-anchor="middle" x="381" y="-876.4" font-family="Times,serif" font-size="22.00">sleepy</text>
</g>
<!-- tobo -->
<g id="node2" class="node"><title>tobo</title>
<polygon fill="blue" stroke="black" points="550,-684 494,-684 494,-648 550,-648 550,-684"/>
<text text-anchor="middle" x="522" y="-660.4" font-family="Times,serif" font-size="22.00">tobo</text>
</g>
<!-- ITF&#45;mET_Transducer -->
<g id="node18" class="node"><title>ITF&#45;mET_Transducer</title>
<ellipse fill="green" stroke="black" cx="155" cy="-162" rx="89.0842" ry="18"/>
<text text-anchor="middle" x="155" y="-158.3" font-family="Times,serif" font-size="14.00">ITF&#45;mET_Transducer</text>
</g>
<!-- tobo&#45;&gt;ITF&#45;mET_Transducer -->
<g id="edge9" class="edge"><title>tobo&#45;&gt;ITF&#45;mET_Transducer</title>
<path fill="none" stroke="black" d="M493.824,-661.077C405.799,-647.197 143,-597.223 143,-523 143,-523 143,-523 143,-305 143,-264.987 144.205,-218.646 147.38,-190.076"/>
<polygon fill="red" stroke="black" points="150.865,-190.417 148.695,-180.047 143.925,-189.507 150.865,-190.417"/>
</g>
<!-- ITF&#45;R_reserved -->
<g id="node19" class="node"><title>ITF&#45;R_reserved</title>
<ellipse fill="yellow" stroke="black" cx="522" cy="-594" rx="66.8882" ry="18"/>
<text text-anchor="middle" x="522" y="-590.3" font-family="Times,serif" font-size="14.00">ITF&#45;R_reserved</text>
</g>
<!-- tobo&#45;&gt;ITF&#45;R_reserved -->
<g id="edge7" class="edge"><title>tobo&#45;&gt;ITF&#45;R_reserved</title>
<path fill="none" stroke="black" d="M522,-647.697C522,-639.983 522,-630.712 522,-622.112"/>
<polygon fill="red" stroke="black" points="525.5,-622.104 522,-612.104 518.5,-622.104 525.5,-622.104"/>
</g>
<!-- ITF&#45;mET_SMA -->
<g id="node20" class="node"><title>ITF&#45;mET_SMA</title>
<ellipse fill="green" stroke="black" cx="676" cy="-594" rx="68.7879" ry="18"/>
<text text-anchor="middle" x="676" y="-590.3" font-family="Times,serif" font-size="14.00">ITF&#45;mET_SMA</text>
</g>
<!-- tobo&#45;&gt;ITF&#45;mET_SMA -->
<g id="edge8" class="edge"><title>tobo&#45;&gt;ITF&#45;mET_SMA</title>
<path fill="none" stroke="black" d="M550.246,-652.161C573.601,-641.545 607.123,-626.308 633.684,-614.235"/>
<polygon fill="red" stroke="black" points="635.467,-617.269 643.123,-609.944 632.571,-610.896 635.467,-617.269"/>
</g>
<!-- cletus -->
<g id="node3" class="node"><title>cletus</title>
<polygon fill="blue" stroke="black" points="344,-108 276,-108 276,-72 344,-72 344,-108"/>
<text text-anchor="middle" x="310" y="-84.4" font-family="Times,serif" font-size="22.00">cletus</text>
</g>
<!-- cletus&#45;&gt;ITF&#45;mET_Transducer -->
<g id="edge17" class="edge"><title>cletus&#45;&gt;ITF&#45;mET_Transducer</title>
<path fill="none" stroke="black" d="M278.238,-108.002C256.752,-118.191 228.072,-131.176 203.743,-141.743"/>
<polygon fill="red" stroke="black" points="202.107,-138.637 194.311,-145.811 204.88,-145.064 202.107,-138.637"/>
</g>
<!-- ITF&#45;mET_Piezo -->
<g id="node22" class="node"><title>ITF&#45;mET_Piezo</title>
<ellipse fill="green" stroke="black" cx="310" cy="-18" rx="68.7879" ry="18"/>
<text text-anchor="middle" x="310" y="-14.3" font-family="Times,serif" font-size="14.00">ITF&#45;mET_Piezo</text>
</g>
<!-- cletus&#45;&gt;ITF&#45;mET_Piezo -->
<g id="edge16" class="edge"><title>cletus&#45;&gt;ITF&#45;mET_Piezo</title>
<path fill="none" stroke="black" d="M304.084,-71.6966C303.289,-63.9827 303.062,-54.7125 303.405,-46.1124"/>
<polygon fill="red" stroke="black" points="306.898,-46.3243 304.105,-36.1043 299.915,-45.8356 306.898,-46.3243"/>
</g>
<!-- doj -->
<g id="node4" class="node"><title>doj</title>
<polygon fill="blue" stroke="black" points="826,-900 772,-900 772,-864 826,-864 826,-900"/>
<text text-anchor="middle" x="799" y="-876.4" font-family="Times,serif" font-size="22.00">doj</text>
</g>
<!-- oneeye -->
<g id="node5" class="node"><title>oneeye</title>
<polygon fill="blue" stroke="black" points="1147,-684 1067,-684 1067,-648 1147,-648 1147,-684"/>
<text text-anchor="middle" x="1107" y="-660.4" font-family="Times,serif" font-size="22.00">oneeye</text>
</g>
<!-- ITF&#45;I_pulse_on -->
<g id="node15" class="node"><title>ITF&#45;I_pulse_on</title>
<ellipse fill="yellow" stroke="black" cx="1233" cy="-306" rx="65.7887" ry="18"/>
<text text-anchor="middle" x="1233" y="-302.3" font-family="Times,serif" font-size="14.00">ITF&#45;I_pulse_on</text>
</g>
<!-- oneeye&#45;&gt;ITF&#45;I_pulse_on -->
<g id="edge22" class="edge"><title>oneeye&#45;&gt;ITF&#45;I_pulse_on</title>
<path fill="none" stroke="black" d="M1127.17,-647.885C1137.69,-638.175 1150.17,-625.323 1159,-612 1218.12,-522.798 1230.08,-390.942 1232.45,-334.387"/>
<polygon fill="red" stroke="black" points="1235.96,-334.231 1232.8,-324.115 1228.96,-333.988 1235.96,-334.231"/>
</g>
<!-- ITF&#45;J_pulse_off -->
<g id="node16" class="node"><title>ITF&#45;J_pulse_off</title>
<ellipse fill="yellow" stroke="black" cx="948" cy="-162" rx="67.6881" ry="18"/>
<text text-anchor="middle" x="948" y="-158.3" font-family="Times,serif" font-size="14.00">ITF&#45;J_pulse_off</text>
</g>
<!-- oneeye&#45;&gt;ITF&#45;J_pulse_off -->
<g id="edge23" class="edge"><title>oneeye&#45;&gt;ITF&#45;J_pulse_off</title>
<path fill="none" stroke="black" d="M1113.86,-647.953C1129.39,-606.316 1162.2,-498.031 1113,-432 1084.78,-394.122 1050.47,-424.763 1013,-396 982.096,-372.277 978.866,-359.582 963,-324 943.212,-279.621 945.084,-264.582 946,-216 946.157,-207.678 946.452,-198.626 946.769,-190.396"/>
<polygon fill="red" stroke="black" points="950.275,-190.316 947.187,-180.181 943.281,-190.029 950.275,-190.316"/>
</g>
<!-- ITF&#45;N_cc_motor_pwm -->
<g id="node21" class="node"><title>ITF&#45;N_cc_motor_pwm</title>
<ellipse fill="yellow" stroke="black" cx="735" cy="-162" rx="93.6835" ry="18"/>
<text text-anchor="middle" x="735" y="-158.3" font-family="Times,serif" font-size="14.00">ITF&#45;N_cc_motor_pwm</text>
</g>
<!-- oneeye&#45;&gt;ITF&#45;N_cc_motor_pwm -->
<g id="edge24" class="edge"><title>oneeye&#45;&gt;ITF&#45;N_cc_motor_pwm</title>
<path fill="none" stroke="black" d="M1110.62,-647.765C1118.38,-605.706 1131.97,-496.545 1080,-432 1049.06,-393.576 1018.04,-420.119 975,-396 887.433,-346.924 870.066,-324.845 801,-252 782.233,-232.206 764.007,-207.034 751.481,-188.515"/>
<polygon fill="red" stroke="black" points="754.271,-186.391 745.812,-180.011 748.446,-190.273 754.271,-186.391"/>
</g>
<!-- ITF&#45;G_gain_control -->
<g id="node23" class="node"><title>ITF&#45;G_gain_control</title>
<ellipse fill="yellow" stroke="black" cx="959" cy="-594" rx="81.7856" ry="18"/>
<text text-anchor="middle" x="959" y="-590.3" font-family="Times,serif" font-size="14.00">ITF&#45;G_gain_control</text>
</g>
<!-- oneeye&#45;&gt;ITF&#45;G_gain_control -->
<g id="edge21" class="edge"><title>oneeye&#45;&gt;ITF&#45;G_gain_control</title>
<path fill="none" stroke="black" d="M1070.8,-647.876C1049.68,-637.889 1022.95,-625.247 1000.92,-614.829"/>
<polygon fill="red" stroke="black" points="1002.34,-611.626 991.802,-610.514 999.345,-617.954 1002.34,-611.626"/>
</g>
<!-- croaker -->
<g id="node6" class="node"><title>croaker</title>
<polygon fill="blue" stroke="black" points="1085.5,-108 1002.5,-108 1002.5,-72 1085.5,-72 1085.5,-108"/>
<text text-anchor="middle" x="1044" y="-84.4" font-family="Times,serif" font-size="22.00">croaker</text>
</g>
<!-- ITF&#45;mED&#45;TFT&#45;Screen -->
<g id="node25" class="node"><title>ITF&#45;mED&#45;TFT&#45;Screen</title>
<ellipse fill="green" stroke="black" cx="1365" cy="-18" rx="90.9839" ry="18"/>
<text text-anchor="middle" x="1365" y="-14.3" font-family="Times,serif" font-size="14.00">ITF&#45;mED&#45;TFT&#45;Screen</text>
</g>
<!-- croaker&#45;&gt;ITF&#45;mED&#45;TFT&#45;Screen -->
<g id="edge30" class="edge"><title>croaker&#45;&gt;ITF&#45;mED&#45;TFT&#45;Screen</title>
<path fill="none" stroke="black" d="M1085.64,-79.9205C1139.02,-68.2801 1232.3,-47.9373 1296.28,-33.9855"/>
<polygon fill="red" stroke="black" points="1297.26,-37.3539 1306.29,-31.8035 1295.77,-30.5146 1297.26,-37.3539"/>
</g>
<!-- ITF&#45;mED&#45;OLED&#45;Screen -->
<g id="node26" class="node"><title>ITF&#45;mED&#45;OLED&#45;Screen</title>
<ellipse fill="green" stroke="black" cx="908" cy="-18" rx="98.5829" ry="18"/>
<text text-anchor="middle" x="908" y="-14.3" font-family="Times,serif" font-size="14.00">ITF&#45;mED&#45;OLED&#45;Screen</text>
</g>
<!-- croaker&#45;&gt;ITF&#45;mED&#45;OLED&#45;Screen -->
<g id="edge31" class="edge"><title>croaker&#45;&gt;ITF&#45;mED&#45;OLED&#45;Screen</title>
<path fill="none" stroke="black" d="M1010.73,-71.8761C991.994,-62.2322 968.448,-50.1131 948.627,-39.9111"/>
<polygon fill="red" stroke="black" points="950.017,-36.6902 939.524,-35.2257 946.814,-42.9142 950.017,-36.6902"/>
</g>
<!-- ITF&#45;mEC&#45;WiFi&#45;UDP&#45;Stream -->
<g id="node27" class="node"><title>ITF&#45;mEC&#45;WiFi&#45;UDP&#45;Stream</title>
<ellipse fill="green" stroke="black" cx="1140" cy="-18" rx="115.88" ry="18"/>
<text text-anchor="middle" x="1140" y="-14.3" font-family="Times,serif" font-size="14.00">ITF&#45;mEC&#45;WiFi&#45;UDP&#45;Stream</text>
</g>
<!-- croaker&#45;&gt;ITF&#45;mEC&#45;WiFi&#45;UDP&#45;Stream -->
<g id="edge32" class="edge"><title>croaker&#45;&gt;ITF&#45;mEC&#45;WiFi&#45;UDP&#45;Stream</title>
<path fill="none" stroke="black" d="M1067.73,-71.6966C1080.03,-62.7295 1095.21,-51.6593 1108.48,-41.9836"/>
<polygon fill="red" stroke="black" points="1110.86,-44.5826 1116.87,-35.8628 1106.73,-38.9265 1110.86,-44.5826"/>
</g>
<!-- retroATL3 -->
<g id="node7" class="node"><title>retroATL3</title>
<polygon fill="blue" stroke="black" points="211.5,-108 98.5,-108 98.5,-72 211.5,-72 211.5,-108"/>
<text text-anchor="middle" x="155" y="-84.4" font-family="Times,serif" font-size="22.00">retroATL3</text>
</g>
<!-- retroATL3&#45;&gt;ITF&#45;mET_Transducer -->
<g id="edge40" class="edge"><title>retroATL3&#45;&gt;ITF&#45;mET_Transducer</title>
<path fill="none" stroke="black" d="M160.895,-108.104C161.701,-115.791 161.937,-125.054 161.604,-133.665"/>
<polygon fill="red" stroke="black" points="158.109,-133.48 160.916,-143.697 165.092,-133.96 158.109,-133.48"/>
</g>
<!-- Motor -->
<g id="node29" class="node"><title>Motor</title>
<ellipse fill="yellow" stroke="black" cx="40" cy="-18" rx="33.2948" ry="18"/>
<text text-anchor="middle" x="40" y="-14.3" font-family="Times,serif" font-size="14.00">Motor</text>
</g>
<!-- retroATL3&#45;&gt;Motor -->
<g id="edge39" class="edge"><title>retroATL3&#45;&gt;Motor</title>
<path fill="none" stroke="black" d="M120.971,-71.8761C103.545,-61.9039 82.7279,-49.2853 66.4984,-38.8763"/>
<polygon fill="red" stroke="black" points="68.2958,-35.8702 58.0047,-33.3517 64.4791,-41.7381 68.2958,-35.8702"/>
</g>
<!-- Tri&#45;Piezo Head -->
<g id="node30" class="node"><title>Tri&#45;Piezo Head</title>
<ellipse fill="yellow" stroke="black" cx="156" cy="-18" rx="64.9885" ry="18"/>
<text text-anchor="middle" x="156" y="-14.3" font-family="Times,serif" font-size="14.00">Tri&#45;Piezo Head</text>
</g>
<!-- retroATL3&#45;&gt;Tri&#45;Piezo Head -->
<g id="edge41" class="edge"><title>retroATL3&#45;&gt;Tri&#45;Piezo Head</title>
<path fill="none" stroke="black" d="M149.331,-71.6966C148.646,-63.9827 148.552,-54.7125 149.017,-46.1124"/>
<polygon fill="red" stroke="black" points="152.509,-46.3629 149.861,-36.1043 145.533,-45.7751 152.509,-46.3629"/>
</g>
<!-- toadkiller -->
<g id="node8" class="node"><title>toadkiller</title>
<polygon fill="blue" stroke="black" points="1122.5,-396 1021.5,-396 1021.5,-360 1122.5,-360 1122.5,-396"/>
<text text-anchor="middle" x="1072" y="-372.4" font-family="Times,serif" font-size="22.00">toadkiller</text>
</g>
<!-- toadkiller&#45;&gt;ITF&#45;I_pulse_on -->
<g id="edge48" class="edge"><title>toadkiller&#45;&gt;ITF&#45;I_pulse_on</title>
<path fill="none" stroke="black" d="M1111.39,-359.876C1135.22,-349.514 1165.62,-336.294 1190.07,-325.665"/>
<polygon fill="red" stroke="black" points="1191.69,-328.779 1199.46,-321.582 1188.9,-322.359 1191.69,-328.779"/>
</g>
<!-- toadkiller&#45;&gt;ITF&#45;J_pulse_off -->
<g id="edge49" class="edge"><title>toadkiller&#45;&gt;ITF&#45;J_pulse_off</title>
<path fill="none" stroke="black" d="M1030.56,-359.977C1014.44,-351.411 997.187,-339.501 986,-324 957.034,-283.864 949.846,-224.797 948.242,-190.481"/>
<polygon fill="red" stroke="black" points="951.733,-190.141 947.897,-180.265 944.737,-190.377 951.733,-190.141"/>
</g>
<!-- toadkiller&#45;&gt;ITF&#45;N_cc_motor_pwm -->
<g id="edge50" class="edge"><title>toadkiller&#45;&gt;ITF&#45;N_cc_motor_pwm</title>
<path fill="none" stroke="black" d="M1033.12,-359.963C1011.95,-350.227 985.554,-337.327 963,-324 888.298,-279.858 806.55,-218.698 764.161,-185.924"/>
<polygon fill="red" stroke="black" points="766.267,-183.128 756.221,-179.761 761.974,-188.658 766.267,-183.128"/>
</g>
<!-- toadkiller&#45;&gt;ITF&#45;mED&#45;TFT&#45;Screen -->
<g id="edge47" class="edge"><title>toadkiller&#45;&gt;ITF&#45;mED&#45;TFT&#45;Screen</title>
<path fill="none" stroke="black" d="M1122.63,-377.351C1215.36,-375.057 1403,-355.527 1403,-235 1403,-235 1403,-235 1403,-161 1403,-119.633 1387.77,-73.7216 1376.59,-45.6051"/>
<polygon fill="red" stroke="black" points="1379.72,-44.0187 1372.69,-36.0929 1373.24,-46.6733 1379.72,-44.0187"/>
</g>
<!-- WiFi UDP Stream -->
<g id="node31" class="node"><title>WiFi UDP Stream</title>
<ellipse fill="yellow" stroke="black" cx="1072" cy="-306" rx="77.1866" ry="18"/>
<text text-anchor="middle" x="1072" y="-302.3" font-family="Times,serif" font-size="14.00">WiFi UDP Stream</text>
</g>
<!-- toadkiller&#45;&gt;WiFi UDP Stream -->
<g id="edge46" class="edge"><title>toadkiller&#45;&gt;WiFi UDP Stream</title>
<path fill="none" stroke="black" d="M1072,-359.697C1072,-351.983 1072,-342.712 1072,-334.112"/>
<polygon fill="red" stroke="black" points="1075.5,-334.104 1072,-324.104 1068.5,-334.104 1075.5,-334.104"/>
</g>
<!-- kina -->
<g id="node9" class="node"><title>kina</title>
<polygon fill="blue" stroke="black" points="1260.5,-252 1205.5,-252 1205.5,-216 1260.5,-216 1260.5,-252"/>
<text text-anchor="middle" x="1233" y="-228.4" font-family="Times,serif" font-size="22.00">kina</text>
</g>
<!-- kina&#45;&gt;ITF&#45;I_pulse_on -->
<g id="edge58" class="edge"><title>kina&#45;&gt;ITF&#45;I_pulse_on</title>
<path fill="none" stroke="black" d="M1238.91,-252.275C1239.71,-260.03 1239.94,-269.362 1239.59,-278.005"/>
<polygon fill="red" stroke="black" points="1236.09,-277.832 1238.88,-288.055 1243.08,-278.327 1236.09,-277.832"/>
</g>
<!-- kina&#45;&gt;ITF&#45;J_pulse_off -->
<g id="edge59" class="edge"><title>kina&#45;&gt;ITF&#45;J_pulse_off</title>
<path fill="none" stroke="black" d="M1205.41,-226.225C1159.5,-214.946 1066.44,-192.091 1005.7,-177.171"/>
<polygon fill="red" stroke="black" points="1006.41,-173.743 995.868,-174.757 1004.74,-180.541 1006.41,-173.743"/>
</g>
<!-- kina&#45;&gt;ITF&#45;N_cc_motor_pwm -->
<g id="edge60" class="edge"><title>kina&#45;&gt;ITF&#45;N_cc_motor_pwm</title>
<path fill="none" stroke="black" d="M1205.16,-229.087C1132.09,-218.815 932.6,-190.775 818.329,-174.713"/>
<polygon fill="red" stroke="black" points="818.611,-171.218 808.221,-173.292 817.636,-178.15 818.611,-171.218"/>
</g>
<!-- kina&#45;&gt;ITF&#45;mED&#45;TFT&#45;Screen -->
<g id="edge57" class="edge"><title>kina&#45;&gt;ITF&#45;mED&#45;TFT&#45;Screen</title>
<path fill="none" stroke="black" d="M1243.58,-215.849C1266.71,-178.348 1321.9,-88.8807 1349.18,-44.6517"/>
<polygon fill="red" stroke="black" points="1352.28,-46.284 1354.55,-35.9354 1346.33,-42.6091 1352.28,-46.284"/>
</g>
<!-- kina&#45;&gt;ITF&#45;mEC&#45;WiFi&#45;UDP&#45;Stream -->
<g id="edge56" class="edge"><title>kina&#45;&gt;ITF&#45;mEC&#45;WiFi&#45;UDP&#45;Stream</title>
<path fill="none" stroke="black" d="M1225.55,-215.849C1209.36,-178.597 1170.88,-90.067 1151.53,-45.5391"/>
<polygon fill="red" stroke="black" points="1154.68,-44.0088 1147.49,-36.2325 1148.26,-46.7989 1154.68,-44.0088"/>
</g>
<!-- goblin -->
<g id="node10" class="node"><title>goblin</title>
<polygon fill="blue" stroke="black" points="839,-540 765,-540 765,-504 839,-504 839,-540"/>
<text text-anchor="middle" x="802" y="-516.4" font-family="Times,serif" font-size="22.00">goblin</text>
</g>
<!-- ITF&#45;E_signal_envelope -->
<g id="node24" class="node"><title>ITF&#45;E_signal_envelope</title>
<ellipse fill="yellow" stroke="black" cx="977" cy="-450" rx="93.6835" ry="18"/>
<text text-anchor="middle" x="977" y="-446.3" font-family="Times,serif" font-size="14.00">ITF&#45;E_signal_envelope</text>
</g>
<!-- goblin&#45;&gt;ITF&#45;E_signal_envelope -->
<g id="edge70" class="edge"><title>goblin&#45;&gt;ITF&#45;E_signal_envelope</title>
<path fill="none" stroke="black" d="M838.913,-503.876C863.717,-493.521 896.687,-480.312 924.231,-469.687"/>
<polygon fill="red" stroke="black" points="925.642,-472.895 933.725,-466.046 923.135,-466.359 925.642,-472.895"/>
</g>
<!-- ITF&#45;C_amplified_raw_signal -->
<g id="node32" class="node"><title>ITF&#45;C_amplified_raw_signal</title>
<ellipse fill="yellow" stroke="black" cx="607" cy="-450" rx="114.28" ry="18"/>
<text text-anchor="middle" x="607" y="-446.3" font-family="Times,serif" font-size="14.00">ITF&#45;C_amplified_raw_signal</text>
</g>
<!-- goblin&#45;&gt;ITF&#45;C_amplified_raw_signal -->
<g id="edge69" class="edge"><title>goblin&#45;&gt;ITF&#45;C_amplified_raw_signal</title>
<path fill="none" stroke="black" d="M764.633,-509.441C733.58,-498.909 689.316,-483.135 655.546,-470.629"/>
<polygon fill="red" stroke="black" points="656.468,-467.238 645.875,-467.029 654.026,-473.798 656.468,-467.238"/>
</g>
<!-- ITF&#45;mEG_SPI -->
<g id="node33" class="node"><title>ITF&#45;mEG_SPI</title>
<ellipse fill="green" stroke="black" cx="802" cy="-450" rx="63.0888" ry="18"/>
<text text-anchor="middle" x="802" y="-446.3" font-family="Times,serif" font-size="14.00">ITF&#45;mEG_SPI</text>
</g>
<!-- goblin&#45;&gt;ITF&#45;mEG_SPI -->
<g id="edge71" class="edge"><title>goblin&#45;&gt;ITF&#45;mEG_SPI</title>
<path fill="none" stroke="black" d="M802,-503.697C802,-495.983 802,-486.712 802,-478.112"/>
<polygon fill="red" stroke="black" points="805.5,-478.104 802,-468.104 798.5,-478.104 805.5,-478.104"/>
</g>
<!-- silent -->
<g id="node11" class="node"><title>silent</title>
<polygon fill="blue" stroke="black" points="711,-108 647,-108 647,-72 711,-72 711,-108"/>
<text text-anchor="middle" x="679" y="-84.4" font-family="Times,serif" font-size="22.00">silent</text>
</g>
<!-- silent&#45;&gt;ITF&#45;R_reserved -->
<g id="edge75" class="edge"><title>silent&#45;&gt;ITF&#45;R_reserved</title>
<path fill="none" stroke="black" d="M646.719,-100.665C595.909,-118.104 503,-159.975 503,-233 503,-307 503,-307 503,-307 503,-379.052 473.406,-396.731 484,-468 489.188,-502.902 502.103,-541.545 511.438,-566.494"/>
<polygon fill="red" stroke="black" points="508.225,-567.889 515.064,-575.981 514.763,-565.39 508.225,-567.889"/>
</g>
<!-- mogaba -->
<g id="node12" class="node"><title>mogaba</title>
<polygon fill="blue" stroke="black" points="614.5,-828 527.5,-828 527.5,-792 614.5,-792 614.5,-828"/>
<text text-anchor="middle" x="571" y="-804.4" font-family="Times,serif" font-size="22.00">mogaba</text>
</g>
<!-- ITF&#45;A_gnd -->
<g id="node13" class="node"><title>ITF&#45;A_gnd</title>
<ellipse fill="yellow" stroke="black" cx="332" cy="-738" rx="50.8918" ry="18"/>
<text text-anchor="middle" x="332" y="-734.3" font-family="Times,serif" font-size="14.00">ITF&#45;A_gnd</text>
</g>
<!-- mogaba&#45;&gt;ITF&#45;A_gnd -->
<g id="edge78" class="edge"><title>mogaba&#45;&gt;ITF&#45;A_gnd</title>
<path fill="none" stroke="black" d="M527.442,-796.242C485.597,-783.986 422.539,-765.518 379.44,-752.895"/>
<polygon fill="red" stroke="black" points="380.332,-749.509 369.751,-750.057 378.364,-756.227 380.332,-749.509"/>
</g>
<!-- ITF&#45;B_5v -->
<g id="node14" class="node"><title>ITF&#45;B_5v</title>
<ellipse fill="yellow" stroke="black" cx="1297" cy="-738" rx="46.2923" ry="18"/>
<text text-anchor="middle" x="1297" y="-734.3" font-family="Times,serif" font-size="14.00">ITF&#45;B_5v</text>
</g>
<!-- mogaba&#45;&gt;ITF&#45;B_5v -->
<g id="edge79" class="edge"><title>mogaba&#45;&gt;ITF&#45;B_5v</title>
<path fill="none" stroke="black" d="M614.51,-804.805C740.305,-792.676 1104.27,-757.583 1242.69,-744.236"/>
<polygon fill="red" stroke="black" points="1243.04,-747.719 1252.65,-743.276 1242.36,-740.752 1243.04,-747.719"/>
</g>
<!-- ITF&#45;S_3_3v -->
<g id="node17" class="node"><title>ITF&#45;S_3_3v</title>
<ellipse fill="yellow" stroke="black" cx="811" cy="-738" rx="53.8905" ry="18"/>
<text text-anchor="middle" x="811" y="-734.3" font-family="Times,serif" font-size="14.00">ITF&#45;S_3_3v</text>
</g>
<!-- mogaba&#45;&gt;ITF&#45;S_3_3v -->
<g id="edge81" class="edge"><title>mogaba&#45;&gt;ITF&#45;S_3_3v</title>
<path fill="none" stroke="black" d="M614.741,-796.242C656.259,-784.133 718.573,-765.958 761.803,-753.349"/>
<polygon fill="red" stroke="black" points="762.919,-756.67 771.538,-750.51 760.958,-749.95 762.919,-756.67"/>
</g>
<!-- ITF&#45;F_12V -->
<g id="node28" class="node"><title>ITF&#45;F_12V</title>
<ellipse fill="yellow" stroke="black" cx="487" cy="-882" rx="51.1914" ry="18"/>
<text text-anchor="middle" x="487" y="-878.3" font-family="Times,serif" font-size="14.00">ITF&#45;F_12V</text>
</g>
<!-- mogaba&#45;&gt;ITF&#45;F_12V -->
<g id="edge80" class="edge"><title>mogaba&#45;&gt;ITF&#45;F_12V</title>
<path fill="none" stroke="black" d="M556.345,-828.127C545.988,-837.582 531.917,-849.415 519.097,-859.488"/>
<polygon fill="red" stroke="black" points="516.683,-856.93 510.905,-865.811 520.96,-862.472 516.683,-856.93"/>
</g>
<!-- ITF&#45;A_gnd&#45;&gt;tobo -->
<g id="edge1" class="edge"><title>ITF&#45;A_gnd&#45;&gt;tobo</title>
<path fill="none" stroke="black" d="M365.968,-724.485C399.193,-712.245 449.691,-693.64 484.178,-680.934"/>
<polygon fill="black" stroke="black" points="485.718,-684.097 493.891,-677.356 483.298,-677.529 485.718,-684.097"/>
</g>
<!-- ITF&#45;A_gnd&#45;&gt;cletus -->
<g id="edge10" class="edge"><title>ITF&#45;A_gnd&#45;&gt;cletus</title>
<path fill="none" stroke="black" d="M292.244,-726.719C268.909,-718.728 240.63,-705.326 223,-684 196.896,-652.424 199,-635.969 199,-595 199,-595 199,-595 199,-521 199,-383.258 213.321,-347.598 254,-216 264.912,-180.7 283.207,-142.204 295.903,-117.394"/>
<polygon fill="black" stroke="black" points="299.135,-118.766 300.633,-108.277 292.921,-115.542 299.135,-118.766"/>
</g>
<!-- ITF&#45;A_gnd&#45;&gt;oneeye -->
<g id="edge18" class="edge"><title>ITF&#45;A_gnd&#45;&gt;oneeye</title>
<path fill="none" stroke="black" d="M380.48,-732.621C519.009,-720.109 915.654,-684.283 1056.57,-671.555"/>
<polygon fill="black" stroke="black" points="1057.02,-675.029 1066.66,-670.643 1056.39,-668.057 1057.02,-675.029"/>
</g>
<!-- ITF&#45;A_gnd&#45;&gt;croaker -->
<g id="edge25" class="edge"><title>ITF&#45;A_gnd&#45;&gt;croaker</title>
<path fill="none" stroke="black" d="M320.465,-720.384C303.81,-694.722 275,-643.348 275,-595 275,-595 275,-595 275,-521 275,-297.734 409.455,-248.036 607,-144 672.798,-109.347 891.104,-96.7517 992.018,-92.7034"/>
<polygon fill="black" stroke="black" points="992.422,-96.1905 1002.28,-92.3052 992.15,-89.1957 992.422,-96.1905"/>
</g>
<!-- ITF&#45;A_gnd&#45;&gt;retroATL3 -->
<g id="edge33" class="edge"><title>ITF&#45;A_gnd&#45;&gt;retroATL3</title>
<path fill="none" stroke="black" d="M281.794,-734.9C197.824,-728.405 38,-701.99 38,-595 38,-595 38,-595 38,-233 38,-192.553 32.7585,-176.377 57,-144 66.8883,-130.793 81.0669,-120.503 95.5789,-112.652"/>
<polygon fill="black" stroke="black" points="97.2806,-115.714 104.622,-108.075 94.1195,-109.468 97.2806,-115.714"/>
</g>
<!-- ITF&#45;A_gnd&#45;&gt;toadkiller -->
<g id="edge42" class="edge"><title>ITF&#45;A_gnd&#45;&gt;toadkiller</title>
<path fill="none" stroke="black" d="M334.667,-719.693C343.925,-666.161 380.003,-502.642 484,-432 526.909,-402.853 869.632,-386.662 1011.18,-381.162"/>
<polygon fill="black" stroke="black" points="1011.56,-384.65 1021.42,-380.769 1011.29,-377.655 1011.56,-384.65"/>
</g>
<!-- ITF&#45;A_gnd&#45;&gt;kina -->
<g id="edge51" class="edge"><title>ITF&#45;A_gnd&#45;&gt;kina</title>
<path fill="none" stroke="black" d="M331.813,-719.959C332.263,-666.498 341.77,-501.518 439,-432 685.727,-255.593 1073.35,-236.413 1195.1,-234.902"/>
<polygon fill="black" stroke="black" points="1195.42,-238.4 1205.39,-234.81 1195.36,-231.4 1195.42,-238.4"/>
</g>
<!-- ITF&#45;A_gnd&#45;&gt;goblin -->
<g id="edge61" class="edge"><title>ITF&#45;A_gnd&#45;&gt;goblin</title>
<path fill="none" stroke="black" d="M382.202,-735.183C468.315,-729.505 645.38,-706.3 754,-612 773.078,-595.437 785.875,-569.37 793.425,-549.719"/>
<polygon fill="black" stroke="black" points="796.789,-550.706 796.899,-540.111 790.207,-548.325 796.789,-550.706"/>
</g>
<!-- ITF&#45;A_gnd&#45;&gt;silent -->
<g id="edge72" class="edge"><title>ITF&#45;A_gnd&#45;&gt;silent</title>
<path fill="none" stroke="black" d="M304.795,-722.717C289.81,-713.539 272.06,-700.289 261,-684 237.987,-650.106 237,-635.969 237,-595 237,-595 237,-595 237,-521 237,-312.287 328.872,-234.383 517,-144 556.16,-125.186 603.684,-110.52 637.1,-101.432"/>
<polygon fill="black" stroke="black" points="638.233,-104.753 646.992,-98.7927 636.428,-97.9893 638.233,-104.753"/>
</g>
<!-- ITF&#45;B_5v&#45;&gt;tobo -->
<g id="edge2" class="edge"><title>ITF&#45;B_5v&#45;&gt;tobo</title>
<path fill="none" stroke="black" d="M1252.55,-732.985C1113.8,-720.453 690.272,-682.199 560.321,-670.461"/>
<polygon fill="black" stroke="black" points="560.345,-666.949 550.071,-669.535 559.715,-673.921 560.345,-666.949"/>
</g>
<!-- ITF&#45;B_5v&#45;&gt;cletus -->
<g id="edge11" class="edge"><title>ITF&#45;B_5v&#45;&gt;cletus</title>
<path fill="none" stroke="black" d="M1326.49,-724.112C1368.62,-703.468 1441,-658.726 1441,-595 1441,-595 1441,-595 1441,-377 1441,-272.615 1363.2,-263.012 1270,-216 1168.67,-164.886 1136.66,-164.309 1025,-144 895.053,-120.366 489.191,-99.4937 354.178,-93.0463"/>
<polygon fill="black" stroke="black" points="354.341,-89.5502 344.187,-92.5719 354.009,-96.5423 354.341,-89.5502"/>
</g>
<!-- ITF&#45;B_5v&#45;&gt;oneeye -->
<g id="edge19" class="edge"><title>ITF&#45;B_5v&#45;&gt;oneeye</title>
<path fill="none" stroke="black" d="M1264.34,-724.967C1234.79,-714.08 1190.83,-697.885 1156.88,-685.378"/>
<polygon fill="black" stroke="black" points="1157.74,-681.964 1147.15,-681.791 1155.32,-688.532 1157.74,-681.964"/>
</g>
<!-- ITF&#45;B_5v&#45;&gt;croaker -->
<g id="edge26" class="edge"><title>ITF&#45;B_5v&#45;&gt;croaker</title>
<path fill="none" stroke="black" d="M1338.12,-729.754C1401.8,-715.905 1517,-679.214 1517,-595 1517,-595 1517,-595 1517,-233 1517,-145.836 1218.63,-107.555 1095.84,-95.491"/>
<polygon fill="black" stroke="black" points="1095.85,-91.9761 1085.56,-94.5025 1095.18,-98.9439 1095.85,-91.9761"/>
</g>
<!-- ITF&#45;B_5v&#45;&gt;toadkiller -->
<g id="edge43" class="edge"><title>ITF&#45;B_5v&#45;&gt;toadkiller</title>
<path fill="none" stroke="black" d="M1298.39,-719.934C1301.53,-669.135 1303.74,-517.156 1227,-432 1202.93,-405.291 1164.83,-392.037 1132.43,-385.462"/>
<polygon fill="black" stroke="black" points="1133.05,-382.017 1122.58,-383.628 1131.77,-388.899 1133.05,-382.017"/>
</g>
<!-- ITF&#45;B_5v&#45;&gt;kina -->
<g id="edge52" class="edge"><title>ITF&#45;B_5v&#45;&gt;kina</title>
<path fill="none" stroke="black" d="M1310.76,-720.734C1330.63,-695.532 1365,-644.747 1365,-595 1365,-595 1365,-595 1365,-377 1365,-336.031 1367.05,-319.623 1341,-288 1322.99,-266.135 1293.75,-252.562 1270.24,-244.632"/>
<polygon fill="black" stroke="black" points="1271.15,-241.249 1260.56,-241.571 1269.04,-247.923 1271.15,-241.249"/>
</g>
<!-- ITF&#45;B_5v&#45;&gt;goblin -->
<g id="edge62" class="edge"><title>ITF&#45;B_5v&#45;&gt;goblin</title>
<path fill="none" stroke="black" d="M1251.59,-734.258C1167.77,-727.1 986.492,-701.606 868,-612 845.615,-595.072 827.309,-568.533 815.702,-548.835"/>
<polygon fill="black" stroke="black" points="818.693,-547.014 810.703,-540.056 812.61,-550.478 818.693,-547.014"/>
</g>
<!-- ITF&#45;B_5v&#45;&gt;silent -->
<g id="edge73" class="edge"><title>ITF&#45;B_5v&#45;&gt;silent</title>
<path fill="none" stroke="black" d="M1318.68,-721.835C1331.52,-712.083 1347.49,-698.546 1359,-684 1431.29,-592.666 1479,-567.483 1479,-451 1479,-451 1479,-451 1479,-377 1479,-224.462 1372.89,-188.538 1227,-144 1132.46,-115.139 832.982,-98.3177 721.423,-92.9205"/>
<polygon fill="black" stroke="black" points="721.382,-89.4147 711.227,-92.4339 721.049,-96.4068 721.382,-89.4147"/>
</g>
<!-- ITF&#45;I_pulse_on&#45;&gt;tobo -->
<g id="edge3" class="edge"><title>ITF&#45;I_pulse_on&#45;&gt;tobo</title>
<path fill="none" stroke="black" d="M1228.65,-323.962C1214,-377.19 1161.07,-541.553 1050,-612 968.59,-663.633 667.417,-666.266 560.202,-665.508"/>
<polygon fill="black" stroke="black" points="560.182,-662.007 550.152,-665.422 560.122,-669.007 560.182,-662.007"/>
</g>
<!-- ITF&#45;I_pulse_on&#45;&gt;croaker -->
<g id="edge28" class="edge"><title>ITF&#45;I_pulse_on&#45;&gt;croaker</title>
<path fill="none" stroke="black" d="M1249.02,-288.273C1264.6,-269.881 1284.02,-239.783 1270,-216 1232.48,-152.37 1149.65,-118.869 1095.37,-103.071"/>
<polygon fill="black" stroke="black" points="1096.16,-99.6565 1085.59,-100.323 1094.27,-106.396 1096.16,-99.6565"/>
</g>
<!-- ITF&#45;I_pulse_on&#45;&gt;kina -->
<g id="edge55" class="edge"><title>ITF&#45;I_pulse_on&#45;&gt;kina</title>
<path fill="none" stroke="black" d="M1227.12,-288.055C1226.3,-280.346 1226.06,-271.027 1226.39,-262.364"/>
<polygon fill="black" stroke="black" points="1229.89,-262.491 1227.09,-252.275 1222.91,-262.012 1229.89,-262.491"/>
</g>
<!-- ITF&#45;J_pulse_off&#45;&gt;tobo -->
<g id="edge4" class="edge"><title>ITF&#45;J_pulse_off&#45;&gt;tobo</title>
<path fill="none" stroke="black" d="M905.806,-176.171C781.774,-216.146 427,-340.012 427,-449 427,-523 427,-523 427,-523 427,-563.447 423.629,-578.303 446,-612 455.652,-626.538 470.772,-638.273 484.992,-646.969"/>
<polygon fill="black" stroke="black" points="483.263,-650.012 493.672,-651.988 486.767,-643.953 483.263,-650.012"/>
</g>
<!-- ITF&#45;J_pulse_off&#45;&gt;croaker -->
<g id="edge29" class="edge"><title>ITF&#45;J_pulse_off&#45;&gt;croaker</title>
<path fill="none" stroke="black" d="M970.266,-144.765C982.742,-135.667 998.512,-124.168 1012.26,-114.142"/>
<polygon fill="black" stroke="black" points="1014.5,-116.844 1020.52,-108.124 1010.37,-111.188 1014.5,-116.844"/>
</g>
<!-- ITF&#45;J_pulse_off&#45;&gt;silent -->
<g id="edge74" class="edge"><title>ITF&#45;J_pulse_off&#45;&gt;silent</title>
<path fill="none" stroke="black" d="M901.451,-148.887C850.63,-135.662 769.978,-114.675 721.019,-101.934"/>
<polygon fill="black" stroke="black" points="721.634,-98.478 711.075,-99.3467 719.872,-105.252 721.634,-98.478"/>
</g>
<!-- ITF&#45;S_3_3v&#45;&gt;tobo -->
<g id="edge5" class="edge"><title>ITF&#45;S_3_3v&#45;&gt;tobo</title>
<path fill="none" stroke="black" d="M768.667,-726.746C712.403,-713.118 613.827,-689.242 559.896,-676.179"/>
<polygon fill="black" stroke="black" points="560.591,-672.746 550.048,-673.794 558.943,-679.549 560.591,-672.746"/>
</g>
<!-- ITF&#45;S_3_3v&#45;&gt;cletus -->
<g id="edge13" class="edge"><title>ITF&#45;S_3_3v&#45;&gt;cletus</title>
<path fill="none" stroke="black" d="M758.991,-733.031C679.123,-726.195 530.708,-710.337 485,-684 449.153,-663.345 444.099,-649.203 426,-612 340.822,-436.912 317.322,-198.259 311.635,-118.336"/>
<polygon fill="black" stroke="black" points="315.112,-117.877 310.946,-108.135 308.128,-118.348 315.112,-117.877"/>
</g>
<!-- ITF&#45;S_3_3v&#45;&gt;oneeye -->
<g id="edge20" class="edge"><title>ITF&#45;S_3_3v&#45;&gt;oneeye</title>
<path fill="none" stroke="black" d="M853.725,-726.896C907.492,-714.181 999.694,-692.376 1056.78,-678.877"/>
<polygon fill="black" stroke="black" points="1057.74,-682.247 1066.66,-676.539 1056.13,-675.434 1057.74,-682.247"/>
</g>
<!-- ITF&#45;S_3_3v&#45;&gt;toadkiller -->
<g id="edge44" class="edge"><title>ITF&#45;S_3_3v&#45;&gt;toadkiller</title>
<path fill="none" stroke="black" d="M865.145,-736.713C952.435,-734.992 1118.32,-726.108 1156,-684 1183.03,-653.798 1164.52,-455.739 1151,-432 1143.9,-419.527 1132.51,-409.415 1120.57,-401.498"/>
<polygon fill="black" stroke="black" points="1122.18,-398.38 1111.83,-396.119 1118.51,-404.341 1122.18,-398.38"/>
</g>
<!-- ITF&#45;S_3_3v&#45;&gt;kina -->
<g id="edge53" class="edge"><title>ITF&#45;S_3_3v&#45;&gt;kina</title>
<path fill="none" stroke="black" d="M863.478,-733.603C950.852,-727.25 1121.81,-711.65 1175,-684 1262.32,-638.613 1327,-621.407 1327,-523 1327,-523 1327,-523 1327,-377 1327,-336.553 1330.27,-321.766 1308,-288 1298.5,-273.587 1283.61,-261.885 1269.6,-253.179"/>
<polygon fill="black" stroke="black" points="1270.98,-249.931 1260.59,-247.892 1267.44,-255.969 1270.98,-249.931"/>
</g>
<!-- ITF&#45;S_3_3v&#45;&gt;goblin -->
<g id="edge63" class="edge"><title>ITF&#45;S_3_3v&#45;&gt;goblin</title>
<path fill="none" stroke="black" d="M810.279,-719.849C808.722,-682.832 805.036,-595.181 803.152,-550.386"/>
<polygon fill="black" stroke="black" points="806.642,-550.077 802.725,-540.232 799.648,-550.371 806.642,-550.077"/>
</g>
<!-- ITF&#45;mET_Transducer&#45;&gt;tobo -->
<g id="edge6" class="edge"><title>ITF&#45;mET_Transducer&#45;&gt;tobo</title>
<path fill="none" stroke="black" d="M160.12,-180.047C162.533,-206.703 161,-259.875 161,-305 161,-523 161,-523 161,-523 161,-592.468 391.21,-640.696 484.038,-657.969"/>
<polygon fill="black" stroke="black" points="483.411,-661.412 493.88,-659.781 484.679,-654.528 483.411,-661.412"/>
</g>
<!-- ITF&#45;mET_Transducer&#45;&gt;cletus -->
<g id="edge14" class="edge"><title>ITF&#45;mET_Transducer&#45;&gt;cletus</title>
<path fill="none" stroke="black" d="M184.779,-144.941C208.037,-133.868 240.536,-119.177 266.653,-107.923"/>
<polygon fill="black" stroke="black" points="268.138,-111.094 275.957,-103.945 265.386,-104.658 268.138,-111.094"/>
</g>
<!-- ITF&#45;mET_Transducer&#45;&gt;retroATL3 -->
<g id="edge36" class="edge"><title>ITF&#45;mET_Transducer&#45;&gt;retroATL3</title>
<path fill="none" stroke="black" d="M149.084,-143.697C148.289,-135.983 148.062,-126.712 148.405,-118.112"/>
<polygon fill="black" stroke="black" points="151.898,-118.324 149.105,-108.104 144.915,-117.836 151.898,-118.324"/>
</g>
<!-- ITF&#45;R_reserved&#45;&gt;goblin -->
<g id="edge67" class="edge"><title>ITF&#45;R_reserved&#45;&gt;goblin</title>
<path fill="none" stroke="black" d="M569.182,-581.205C620.906,-568.274 703.395,-547.651 755.034,-534.741"/>
<polygon fill="black" stroke="black" points="756.08,-538.088 764.932,-532.267 754.382,-531.297 756.08,-538.088"/>
</g>
<!-- ITF&#45;mET_SMA&#45;&gt;goblin -->
<g id="edge68" class="edge"><title>ITF&#45;mET_SMA&#45;&gt;goblin</title>
<path fill="none" stroke="black" d="M703.963,-577.465C721.035,-567.98 743.14,-555.7 762.037,-545.201"/>
<polygon fill="black" stroke="black" points="763.979,-548.127 771.021,-540.211 760.579,-542.008 763.979,-548.127"/>
</g>
<!-- ITF&#45;N_cc_motor_pwm&#45;&gt;cletus -->
<g id="edge12" class="edge"><title>ITF&#45;N_cc_motor_pwm&#45;&gt;cletus</title>
<path fill="none" stroke="black" d="M666.244,-149.675C578.176,-135.17 428.099,-110.452 354.024,-98.2511"/>
<polygon fill="black" stroke="black" points="354.527,-94.7867 344.091,-96.615 353.389,-101.694 354.527,-94.7867"/>
</g>
<!-- ITF&#45;N_cc_motor_pwm&#45;&gt;retroATL3 -->
<g id="edge35" class="edge"><title>ITF&#45;N_cc_motor_pwm&#45;&gt;retroATL3</title>
<path fill="none" stroke="black" d="M654.14,-152.782C560.757,-143.074 402.575,-125.959 267,-108 252.347,-106.059 236.644,-103.792 221.771,-101.559"/>
<polygon fill="black" stroke="black" points="222.042,-98.0598 211.631,-100.022 220.993,-104.981 222.042,-98.0598"/>
</g>
<!-- ITF&#45;mET_Piezo&#45;&gt;cletus -->
<g id="edge15" class="edge"><title>ITF&#45;mET_Piezo&#45;&gt;cletus</title>
<path fill="none" stroke="black" d="M315.895,-36.1043C316.701,-43.7913 316.937,-53.0537 316.604,-61.6651"/>
<polygon fill="black" stroke="black" points="313.109,-61.4805 315.916,-71.6966 320.092,-61.9597 313.109,-61.4805"/>
</g>
<!-- ITF&#45;G_gain_control&#45;&gt;goblin -->
<g id="edge64" class="edge"><title>ITF&#45;G_gain_control&#45;&gt;goblin</title>
<path fill="none" stroke="black" d="M924.546,-577.638C902.233,-567.69 872.902,-554.612 848.529,-543.746"/>
<polygon fill="black" stroke="black" points="849.672,-540.423 839.114,-539.547 846.822,-546.816 849.672,-540.423"/>
</g>
<!-- ITF&#45;E_signal_envelope&#45;&gt;croaker -->
<g id="edge27" class="edge"><title>ITF&#45;E_signal_envelope&#45;&gt;croaker</title>
<path fill="none" stroke="black" d="M910.66,-437.188C805.67,-416.585 613,-370.169 613,-307 613,-307 613,-307 613,-233 613,-192.553 602.246,-171.398 632,-144 683.43,-96.6416 893.288,-90.6176 992.093,-90.4824"/>
<polygon fill="black" stroke="black" points="992.151,-93.9823 1002.15,-90.4886 992.156,-86.9823 992.151,-93.9823"/>
</g>
<!-- ITF&#45;E_signal_envelope&#45;&gt;toadkiller -->
<g id="edge45" class="edge"><title>ITF&#45;E_signal_envelope&#45;&gt;toadkiller</title>
<path fill="none" stroke="black" d="M999.514,-432.411C1011.78,-423.371 1027.16,-412.041 1040.59,-402.144"/>
<polygon fill="black" stroke="black" points="1042.68,-404.951 1048.66,-396.201 1038.53,-399.315 1042.68,-404.951"/>
</g>
<!-- ITF&#45;E_signal_envelope&#45;&gt;kina -->
<g id="edge54" class="edge"><title>ITF&#45;E_signal_envelope&#45;&gt;kina</title>
<path fill="none" stroke="black" d="M971.986,-432.007C963.598,-399.716 950.878,-329.058 986,-288 1012.75,-256.731 1132.99,-242.826 1195.29,-237.63"/>
<polygon fill="black" stroke="black" points="1195.81,-241.1 1205.5,-236.814 1195.25,-234.123 1195.81,-241.1"/>
</g>
<!-- ITF&#45;E_signal_envelope&#45;&gt;goblin -->
<g id="edge66" class="edge"><title>ITF&#45;E_signal_envelope&#45;&gt;goblin</title>
<path fill="none" stroke="black" d="M943.014,-466.899C916.024,-478.217 878.142,-493.375 848.383,-504.767"/>
<polygon fill="black" stroke="black" points="847.134,-501.497 839.031,-508.324 849.622,-508.04 847.134,-501.497"/>
</g>
<!-- ITF&#45;F_12V&#45;&gt;retroATL3 -->
<g id="edge34" class="edge"><title>ITF&#45;F_12V&#45;&gt;retroATL3</title>
<path fill="none" stroke="black" d="M448.379,-870C333.193,-837.16 0,-741.914 0,-739 0,-739 0,-739 0,-233 0,-190.331 6.35537,-174.689 36,-144 50.4499,-129.041 69.8746,-117.99 88.8353,-109.969"/>
<polygon fill="black" stroke="black" points="90.3896,-113.118 98.3795,-106.16 87.7945,-106.616 90.3896,-113.118"/>
</g>
<!-- ITF&#45;F_12V&#45;&gt;mogaba -->
<g id="edge77" class="edge"><title>ITF&#45;F_12V&#45;&gt;mogaba</title>
<path fill="none" stroke="black" d="M501.067,-864.411C510.835,-855.456 524.087,-844.254 536.48,-834.425"/>
<polygon fill="black" stroke="black" points="538.724,-837.113 544.454,-828.201 534.417,-831.595 538.724,-837.113"/>
</g>
<!-- Motor&#45;&gt;retroATL3 -->
<g id="edge37" class="edge"><title>Motor&#45;&gt;retroATL3</title>
<path fill="none" stroke="black" d="M64.0091,-30.4776C81.5512,-40.1871 105.291,-54.3926 124.193,-66.3763"/>
<polygon fill="black" stroke="black" points="122.458,-69.422 132.765,-71.8761 126.238,-63.5303 122.458,-69.422"/>
</g>
<!-- Tri&#45;Piezo Head&#45;&gt;retroATL3 -->
<g id="edge38" class="edge"><title>Tri&#45;Piezo Head&#45;&gt;retroATL3</title>
<path fill="none" stroke="black" d="M161.651,-36.1043C162.346,-43.7913 162.45,-53.0537 161.995,-61.6651"/>
<polygon fill="black" stroke="black" points="158.501,-61.4416 161.163,-71.6966 165.477,-62.02 158.501,-61.4416"/>
</g>
<!-- ITF&#45;C_amplified_raw_signal&#45;&gt;goblin -->
<g id="edge65" class="edge"><title>ITF&#45;C_amplified_raw_signal&#45;&gt;goblin</title>
<path fill="none" stroke="black" d="M655.389,-466.326C685.972,-476.849 725.203,-490.887 755.43,-502.104"/>
<polygon fill="black" stroke="black" points="754.313,-505.422 764.906,-505.638 756.76,-498.864 754.313,-505.422"/>
</g>
<!-- ITF&#45;mEM_Alimentation -->
<g id="node34" class="node"><title>ITF&#45;mEM_Alimentation</title>
<ellipse fill="green" stroke="black" cx="655" cy="-882" rx="98.5829" ry="18"/>
<text text-anchor="middle" x="655" y="-878.3" font-family="Times,serif" font-size="14.00">ITF&#45;mEM_Alimentation</text>
</g>
<!-- ITF&#45;mEM_Alimentation&#45;&gt;mogaba -->
<g id="edge76" class="edge"><title>ITF&#45;mEM_Alimentation&#45;&gt;mogaba</title>
<path fill="none" stroke="black" d="M634.666,-864.055C624.014,-855.179 610.802,-844.169 599.18,-834.483"/>
<polygon fill="black" stroke="black" points="601.361,-831.745 591.438,-828.032 596.88,-837.122 601.361,-831.745"/>
</g>
</g>
</svg>
