<?xml version="1.0" encoding="UTF-8" standalone="no"?>
<!DOCTYPE svg PUBLIC "-//W3C//DTD SVG 1.1//EN"
 "http://www.w3.org/Graphics/SVG/1.1/DTD/svg11.dtd">
<!-- Generated by graphviz version 2.38.0 (20140413.2041)
 -->
<!-- Title: %3 Pages: 1 -->
<svg width="5459pt" height="116pt"
 viewBox="0.00 0.00 5458.50 116.00" xmlns="http://www.w3.org/2000/svg" xmlns:xlink="http://www.w3.org/1999/xlink">
<g id="graph0" class="graph" transform="scale(1 1) rotate(0) translate(4 112)">
<title>%3</title>
<polygon fill="white" stroke="none" points="-4,4 -4,-112 5454.5,-112 5454.5,4 -4,4"/>
<!-- sleepy -->
<g id="node1" class="node"><title>sleepy</title>
<polygon fill="blue" stroke="black" points="73,-36 0,-36 0,-0 73,-0 73,-36"/>
<text text-anchor="middle" x="36.5" y="-12.4" font-family="Times,serif" font-size="22.00">sleepy</text>
</g>
<!-- tobo -->
<g id="node2" class="node"><title>tobo</title>
<polygon fill="blue" stroke="black" points="2087.5,-36 2031.5,-36 2031.5,-0 2087.5,-0 2087.5,-36"/>
<text text-anchor="middle" x="2059.5" y="-12.4" font-family="Times,serif" font-size="22.00">tobo</text>
</g>
<!-- elmo -->
<g id="node3" class="node"><title>elmo</title>
<polygon fill="blue" stroke="black" points="691,-36 630,-36 630,-0 691,-0 691,-36"/>
<text text-anchor="middle" x="660.5" y="-12.4" font-family="Times,serif" font-size="22.00">elmo</text>
</g>
<!-- cletus -->
<g id="node4" class="node"><title>cletus</title>
<polygon fill="blue" stroke="black" points="4556.5,-36 4488.5,-36 4488.5,-0 4556.5,-0 4556.5,-36"/>
<text text-anchor="middle" x="4522.5" y="-12.4" font-family="Times,serif" font-size="22.00">cletus</text>
</g>
<!-- tomtom -->
<g id="node5" class="node"><title>tomtom</title>
<polygon fill="blue" stroke="black" points="2649.5,-36 2563.5,-36 2563.5,-0 2649.5,-0 2649.5,-36"/>
<text text-anchor="middle" x="2606.5" y="-12.4" font-family="Times,serif" font-size="22.00">tomtom</text>
</g>
<!-- doj -->
<g id="node6" class="node"><title>doj</title>
<polygon fill="blue" stroke="black" points="5450.5,-108 5396.5,-108 5396.5,-72 5450.5,-72 5450.5,-108"/>
<text text-anchor="middle" x="5423.5" y="-84.4" font-family="Times,serif" font-size="22.00">doj</text>
</g>
<!-- oneeye -->
<g id="node7" class="node"><title>oneeye</title>
<polygon fill="blue" stroke="black" points="2013.5,-36 1933.5,-36 1933.5,-0 2013.5,-0 2013.5,-36"/>
<text text-anchor="middle" x="1973.5" y="-12.4" font-family="Times,serif" font-size="22.00">oneeye</text>
</g>
<!-- croaker -->
<g id="node8" class="node"><title>croaker</title>
<polygon fill="blue" stroke="black" points="1671,-36 1588,-36 1588,-0 1671,-0 1671,-36"/>
<text text-anchor="middle" x="1629.5" y="-12.4" font-family="Times,serif" font-size="22.00">croaker</text>
</g>
<!-- retroATL3 -->
<g id="node9" class="node"><title>retroATL3</title>
<polygon fill="blue" stroke="black" points="5152,-36 5039,-36 5039,-0 5152,-0 5152,-36"/>
<text text-anchor="middle" x="5095.5" y="-12.4" font-family="Times,serif" font-size="22.00">retroATL3</text>
</g>
<!-- toadkiller -->
<g id="node10" class="node"><title>toadkiller</title>
<polygon fill="blue" stroke="black" points="1803,-36 1702,-36 1702,-0 1803,-0 1803,-36"/>
<text text-anchor="middle" x="1752.5" y="-12.4" font-family="Times,serif" font-size="22.00">toadkiller</text>
</g>
<!-- goblin -->
<g id="node11" class="node"><title>goblin</title>
<polygon fill="blue" stroke="black" points="2741.5,-36 2667.5,-36 2667.5,-0 2741.5,-0 2741.5,-36"/>
<text text-anchor="middle" x="2704.5" y="-12.4" font-family="Times,serif" font-size="22.00">goblin</text>
</g>
<!-- silent -->
<g id="node12" class="node"><title>silent</title>
<polygon fill="blue" stroke="black" points="2378.5,-36 2314.5,-36 2314.5,-0 2378.5,-0 2378.5,-36"/>
<text text-anchor="middle" x="2346.5" y="-12.4" font-family="Times,serif" font-size="22.00">silent</text>
</g>
<!-- mogaba -->
<g id="node13" class="node"><title>mogaba</title>
<polygon fill="blue" stroke="black" points="1183,-36 1096,-36 1096,-0 1183,-0 1183,-36"/>
<text text-anchor="middle" x="1139.5" y="-12.4" font-family="Times,serif" font-size="22.00">mogaba</text>
</g>
<!-- None -->
<g id="node14" class="node"><title>None</title>
<ellipse fill="yellow" stroke="black" cx="36.5" cy="-90" rx="29.795" ry="18"/>
<text text-anchor="middle" x="36.5" y="-86.3" font-family="Times,serif" font-size="14.00">None</text>
</g>
<!-- None&#45;&gt;sleepy -->
<g id="edge1" class="edge"><title>None&#45;&gt;sleepy</title>
<path fill="none" stroke="black" d="M30.6218,-72.055C29.8037,-64.3456 29.5614,-55.0269 29.8949,-46.3642"/>
<polygon fill="black" stroke="black" points="33.3943,-46.4915 30.5872,-36.2753 26.4107,-46.0122 33.3943,-46.4915"/>
</g>
<!-- None&#45;&gt;sleepy -->
<g id="edge2" class="edge"><title>None&#45;&gt;sleepy</title>
<path fill="none" stroke="black" d="M42.3782,-72.055C43.1963,-64.3456 43.4386,-55.0269 43.1051,-46.3642"/>
<polygon fill="black" stroke="black" points="46.5893,-46.0122 42.4128,-36.2753 39.6057,-46.4915 46.5893,-46.0122"/>
</g>
<!-- ITF&#45;1_GND -->
<g id="node15" class="node"><title>ITF&#45;1_GND</title>
<ellipse fill="yellow" stroke="black" cx="1874.5" cy="-90" rx="54.6905" ry="18"/>
<text text-anchor="middle" x="1874.5" y="-86.3" font-family="Times,serif" font-size="14.00">ITF&#45;1_GND</text>
</g>
<!-- ITF&#45;1_GND&#45;&gt;tobo -->
<g id="edge3" class="edge"><title>ITF&#45;1_GND&#45;&gt;tobo</title>
<path fill="none" stroke="black" d="M1911.63,-76.702C1939.71,-67.1809 1979.35,-53.269 2021.91,-36.0844"/>
<polygon fill="black" stroke="black" points="2023.39,-39.2633 2031.33,-32.2492 2020.75,-32.7806 2023.39,-39.2633"/>
</g>
<!-- ITF&#45;1_GND&#45;&gt;elmo -->
<g id="edge12" class="edge"><title>ITF&#45;1_GND&#45;&gt;elmo</title>
<path fill="none" stroke="black" d="M1835.52,-77.2309C1827.32,-75.1563 1818.68,-73.2602 1810.5,-72 1754.64,-63.3957 899.55,-28.6138 701.316,-20.6362"/>
<polygon fill="black" stroke="black" points="701.183,-17.1281 691.051,-20.2234 700.902,-24.1225 701.183,-17.1281"/>
</g>
<!-- ITF&#45;1_GND&#45;&gt;tomtom -->
<g id="edge25" class="edge"><title>ITF&#45;1_GND&#45;&gt;tomtom</title>
<path fill="none" stroke="black" d="M1913.57,-77.259C1921.43,-75.2355 1929.69,-73.3519 1937.5,-72 1945.08,-70.6887 2395.79,-35.4445 2553.06,-23.1685"/>
<polygon fill="black" stroke="black" points="2553.73,-26.627 2563.43,-22.3594 2553.19,-19.6482 2553.73,-26.627"/>
</g>
<!-- ITF&#45;1_GND&#45;&gt;oneeye -->
<g id="edge35" class="edge"><title>ITF&#45;1_GND&#45;&gt;oneeye</title>
<path fill="none" stroke="black" d="M1896.47,-73.4647C1909.52,-64.2391 1926.31,-52.3678 1940.88,-42.0643"/>
<polygon fill="black" stroke="black" points="1943.01,-44.8419 1949.16,-36.2108 1938.97,-39.1263 1943.01,-44.8419"/>
</g>
<!-- ITF&#45;1_GND&#45;&gt;croaker -->
<g id="edge44" class="edge"><title>ITF&#45;1_GND&#45;&gt;croaker</title>
<path fill="none" stroke="black" d="M1834.59,-77.5975C1792.65,-65.6148 1726.54,-46.7247 1680.76,-33.646"/>
<polygon fill="black" stroke="black" points="1681.61,-30.2478 1671.03,-30.8659 1679.68,-36.9785 1681.61,-30.2478"/>
</g>
<!-- ITF&#45;1_GND&#45;&gt;toadkiller -->
<g id="edge59" class="edge"><title>ITF&#45;1_GND&#45;&gt;toadkiller</title>
<path fill="none" stroke="black" d="M1848.33,-73.9832C1831.72,-64.4548 1809.94,-51.9548 1791.33,-41.2813"/>
<polygon fill="black" stroke="black" points="1792.91,-38.1503 1782.49,-36.2094 1789.43,-44.2219 1792.91,-38.1503"/>
</g>
<!-- ITF&#45;1_GND&#45;&gt;goblin -->
<g id="edge68" class="edge"><title>ITF&#45;1_GND&#45;&gt;goblin</title>
<path fill="none" stroke="black" d="M1913.2,-77.1645C1921.17,-75.1222 1929.56,-73.2555 1937.5,-72 2251.16,-22.4344 2342.31,-98.7578 2657.5,-35.7992"/>
<polygon fill="black" stroke="black" points="2658.27,-39.2155 2667.37,-33.7973 2656.88,-32.3553 2658.27,-39.2155"/>
</g>
<!-- ITF&#45;1_GND&#45;&gt;silent -->
<g id="edge78" class="edge"><title>ITF&#45;1_GND&#45;&gt;silent</title>
<path fill="none" stroke="black" d="M1913.96,-77.4787C1921.72,-75.4614 1929.83,-73.524 1937.5,-72 2070.03,-45.6565 2229.43,-29.3507 2304.06,-22.5994"/>
<polygon fill="black" stroke="black" points="2304.79,-26.048 2314.44,-21.6726 2304.17,-19.0757 2304.79,-26.048"/>
</g>
<!-- ITF&#45;1_GND&#45;&gt;mogaba -->
<g id="edge83" class="edge"><title>ITF&#45;1_GND&#45;&gt;mogaba</title>
<path fill="none" stroke="black" d="M1835.14,-77.3513C1827.05,-75.2945 1818.55,-73.3747 1810.5,-72 1583.19,-33.162 1307.61,-22.7074 1193.24,-19.9554"/>
<polygon fill="black" stroke="black" points="1193.09,-16.451 1183.01,-19.7196 1192.93,-23.4492 1193.09,-16.451"/>
</g>
<!-- ITF&#45;2_VDD_5V -->
<g id="node16" class="node"><title>ITF&#45;2_VDD_5V</title>
<ellipse fill="yellow" stroke="black" cx="2016.5" cy="-90" rx="69.5877" ry="18"/>
<text text-anchor="middle" x="2016.5" y="-86.3" font-family="Times,serif" font-size="14.00">ITF&#45;2_VDD_5V</text>
</g>
<!-- ITF&#45;2_VDD_5V&#45;&gt;tobo -->
<g id="edge4" class="edge"><title>ITF&#45;2_VDD_5V&#45;&gt;tobo</title>
<path fill="none" stroke="black" d="M2026.91,-72.055C2031.91,-63.922 2038,-53.998 2043.56,-44.9426"/>
<polygon fill="black" stroke="black" points="2046.64,-46.6281 2048.89,-36.2753 2040.67,-42.9641 2046.64,-46.6281"/>
</g>
<!-- ITF&#45;2_VDD_5V&#45;&gt;elmo -->
<g id="edge13" class="edge"><title>ITF&#45;2_VDD_5V&#45;&gt;elmo</title>
<path fill="none" stroke="black" d="M1968.05,-77.0796C1958.31,-75.0709 1948.12,-73.2386 1938.5,-72 1922.78,-69.9765 917.874,-29.3778 701.33,-20.6454"/>
<polygon fill="black" stroke="black" points="701.178,-17.1365 691.045,-20.2307 700.896,-24.1309 701.178,-17.1365"/>
</g>
<!-- ITF&#45;2_VDD_5V&#45;&gt;tomtom -->
<g id="edge26" class="edge"><title>ITF&#45;2_VDD_5V&#45;&gt;tomtom</title>
<path fill="none" stroke="black" d="M2066.28,-77.286C2075.62,-75.3336 2085.33,-73.4691 2094.5,-72 2260.99,-45.3255 2460.18,-29.1808 2553.44,-22.5341"/>
<polygon fill="black" stroke="black" points="2553.74,-26.0214 2563.47,-21.8265 2553.25,-19.0387 2553.74,-26.0214"/>
</g>
<!-- ITF&#45;2_VDD_5V&#45;&gt;oneeye -->
<g id="edge36" class="edge"><title>ITF&#45;2_VDD_5V&#45;&gt;oneeye</title>
<path fill="none" stroke="black" d="M2006.09,-72.055C2001.09,-63.922 1995,-53.998 1989.44,-44.9426"/>
<polygon fill="black" stroke="black" points="1992.33,-42.9641 1984.11,-36.2753 1986.36,-46.6281 1992.33,-42.9641"/>
</g>
<!-- ITF&#45;2_VDD_5V&#45;&gt;croaker -->
<g id="edge45" class="edge"><title>ITF&#45;2_VDD_5V&#45;&gt;croaker</title>
<path fill="none" stroke="black" d="M1966.25,-77.5127C1957.04,-75.5602 1947.5,-73.6372 1938.5,-72 1829.79,-52.2229 1800.7,-58.4328 1692.5,-36 1688.68,-35.2076 1684.74,-34.3206 1680.8,-33.3788"/>
<polygon fill="black" stroke="black" points="1681.56,-29.9631 1671.02,-30.9474 1679.88,-36.7564 1681.56,-29.9631"/>
</g>
<!-- ITF&#45;2_VDD_5V&#45;&gt;toadkiller -->
<g id="edge60" class="edge"><title>ITF&#45;2_VDD_5V&#45;&gt;toadkiller</title>
<path fill="none" stroke="black" d="M1969.61,-76.5661C1925.89,-64.9756 1860.47,-47.6296 1812.88,-35.0089"/>
<polygon fill="black" stroke="black" points="1813.57,-31.5712 1803,-32.3913 1811.77,-38.3374 1813.57,-31.5712"/>
</g>
<!-- ITF&#45;2_VDD_5V&#45;&gt;goblin -->
<g id="edge69" class="edge"><title>ITF&#45;2_VDD_5V&#45;&gt;goblin</title>
<path fill="none" stroke="black" d="M2065.4,-77.1628C2075,-75.1731 2085.03,-73.3266 2094.5,-72 2339.97,-37.6163 2410.92,-86.7549 2657.39,-35.8465"/>
<polygon fill="black" stroke="black" points="2658.29,-39.2327 2667.36,-33.7521 2656.86,-32.3821 2658.29,-39.2327"/>
</g>
<!-- ITF&#45;2_VDD_5V&#45;&gt;silent -->
<g id="edge79" class="edge"><title>ITF&#45;2_VDD_5V&#45;&gt;silent</title>
<path fill="none" stroke="black" d="M2067.68,-77.7904C2076.61,-75.8484 2085.83,-73.8573 2094.5,-72 2168.32,-56.1925 2254.4,-38.1782 2304.45,-27.7465"/>
<polygon fill="black" stroke="black" points="2305.19,-31.1678 2314.26,-25.7016 2303.76,-24.315 2305.19,-31.1678"/>
</g>
<!-- ITF&#45;2_VDD_5V&#45;&gt;mogaba -->
<g id="edge84" class="edge"><title>ITF&#45;2_VDD_5V&#45;&gt;mogaba</title>
<path fill="none" stroke="black" d="M1967.6,-77.1817C1958,-75.1903 1947.97,-73.3384 1938.5,-72 1659.73,-32.5979 1322,-22.3684 1193.05,-19.814"/>
<polygon fill="black" stroke="black" points="1193.1,-16.3144 1183.04,-19.6229 1192.97,-23.3132 1193.1,-16.3144"/>
</g>
<!-- ITF&#45;9_Pon -->
<g id="node17" class="node"><title>ITF&#45;9_Pon</title>
<ellipse fill="yellow" stroke="black" cx="1752.5" cy="-90" rx="49.2915" ry="18"/>
<text text-anchor="middle" x="1752.5" y="-86.3" font-family="Times,serif" font-size="14.00">ITF&#45;9_Pon</text>
</g>
<!-- ITF&#45;9_Pon&#45;&gt;tobo -->
<g id="edge5" class="edge"><title>ITF&#45;9_Pon&#45;&gt;tobo</title>
<path fill="none" stroke="black" d="M1788.84,-77.6438C1795.98,-75.612 1803.44,-73.6271 1810.5,-72 1900.53,-51.2358 1929.28,-63.3239 2021.39,-35.9086"/>
<polygon fill="black" stroke="black" points="2022.57,-39.2088 2031.11,-32.9413 2020.52,-32.5138 2022.57,-39.2088"/>
</g>
<!-- ITF&#45;9_Pon&#45;&gt;oneeye -->
<g id="edge38" class="edge"><title>ITF&#45;9_Pon&#45;&gt;oneeye</title>
<path fill="none" stroke="black" d="M1788.5,-77.5975C1825.3,-65.9412 1882.74,-47.7487 1923.85,-34.7275"/>
<polygon fill="black" stroke="black" points="1924.92,-38.0578 1933.4,-31.7015 1922.81,-31.3845 1924.92,-38.0578"/>
</g>
<!-- ITF&#45;9_Pon&#45;&gt;croaker -->
<g id="edge43" class="edge"><title>ITF&#45;9_Pon&#45;&gt;croaker</title>
<path fill="none" stroke="black" d="M1727.01,-74.496C1710.13,-64.8853 1687.65,-52.0912 1668.53,-41.2096"/>
<polygon fill="black" stroke="black" points="1670.15,-38.1081 1659.73,-36.2038 1666.69,-44.1919 1670.15,-38.1081"/>
</g>
<!-- ITF&#45;9_Pon&#45;&gt;toadkiller -->
<g id="edge65" class="edge"><title>ITF&#45;9_Pon&#45;&gt;toadkiller</title>
<path fill="none" stroke="black" d="M1752.5,-71.6966C1752.5,-63.9827 1752.5,-54.7125 1752.5,-46.1124"/>
<polygon fill="black" stroke="black" points="1756,-46.1043 1752.5,-36.1043 1749,-46.1044 1756,-46.1043"/>
</g>
<!-- ITF&#45;10_Poff -->
<g id="node18" class="node"><title>ITF&#45;10_Poff</title>
<ellipse fill="yellow" stroke="black" cx="1629.5" cy="-90" rx="55.4913" ry="18"/>
<text text-anchor="middle" x="1629.5" y="-86.3" font-family="Times,serif" font-size="14.00">ITF&#45;10_Poff</text>
</g>
<!-- ITF&#45;10_Poff&#45;&gt;tobo -->
<g id="edge6" class="edge"><title>ITF&#45;10_Poff&#45;&gt;tobo</title>
<path fill="none" stroke="black" d="M1669.51,-77.5532C1677.73,-75.4807 1686.36,-73.5035 1694.5,-72 1835.48,-45.973 1879.2,-73.8101 2021.21,-35.8402"/>
<polygon fill="black" stroke="black" points="2022.44,-39.1334 2031.16,-33.1172 2020.59,-32.3818 2022.44,-39.1334"/>
</g>
<!-- ITF&#45;10_Poff&#45;&gt;oneeye -->
<g id="edge39" class="edge"><title>ITF&#45;10_Poff&#45;&gt;oneeye</title>
<path fill="none" stroke="black" d="M1670.66,-77.7838C1678.55,-75.7619 1686.76,-73.7446 1694.5,-72 1773.96,-54.0829 1867.07,-37.2172 1923.11,-27.5086"/>
<polygon fill="black" stroke="black" points="1923.87,-30.929 1933.13,-25.7804 1922.68,-24.0309 1923.87,-30.929"/>
</g>
<!-- ITF&#45;10_Poff&#45;&gt;croaker -->
<g id="edge42" class="edge"><title>ITF&#45;10_Poff&#45;&gt;croaker</title>
<path fill="none" stroke="black" d="M1629.5,-71.6966C1629.5,-63.9827 1629.5,-54.7125 1629.5,-46.1124"/>
<polygon fill="black" stroke="black" points="1633,-46.1043 1629.5,-36.1043 1626,-46.1044 1633,-46.1043"/>
</g>
<!-- ITF&#45;10_Poff&#45;&gt;toadkiller -->
<g id="edge66" class="edge"><title>ITF&#45;10_Poff&#45;&gt;toadkiller</title>
<path fill="none" stroke="black" d="M1655.89,-73.9832C1672.63,-64.4548 1694.59,-51.9548 1713.35,-41.2813"/>
<polygon fill="black" stroke="black" points="1715.3,-44.1975 1722.26,-36.2094 1711.84,-38.1137 1715.3,-44.1975"/>
</g>
<!-- ITF&#45;19_3.3V -->
<g id="node19" class="node"><title>ITF&#45;19_3.3V</title>
<ellipse fill="yellow" stroke="black" cx="660.5" cy="-90" rx="57.6901" ry="18"/>
<text text-anchor="middle" x="660.5" y="-86.3" font-family="Times,serif" font-size="14.00">ITF&#45;19_3.3V</text>
</g>
<!-- ITF&#45;19_3.3V&#45;&gt;tobo -->
<g id="edge7" class="edge"><title>ITF&#45;19_3.3V&#45;&gt;tobo</title>
<path fill="none" stroke="black" d="M701.318,-77.1217C709.898,-75.055 718.942,-73.1898 727.5,-72 1009.44,-32.8027 1725.81,-99.8823 2021.32,-35.6044"/>
<polygon fill="black" stroke="black" points="2022.24,-38.9839 2031.22,-33.363 2020.7,-32.1565 2022.24,-38.9839"/>
</g>
<!-- ITF&#45;19_3.3V&#45;&gt;elmo -->
<g id="edge14" class="edge"><title>ITF&#45;19_3.3V&#45;&gt;elmo</title>
<path fill="none" stroke="black" d="M660.5,-71.6966C660.5,-63.9827 660.5,-54.7125 660.5,-46.1124"/>
<polygon fill="black" stroke="black" points="664,-46.1043 660.5,-36.1043 657,-46.1044 664,-46.1043"/>
</g>
<!-- ITF&#45;19_3.3V&#45;&gt;croaker -->
<g id="edge46" class="edge"><title>ITF&#45;19_3.3V&#45;&gt;croaker</title>
<path fill="none" stroke="black" d="M701.706,-77.2398C710.177,-75.1916 719.08,-73.3035 727.5,-72 893.127,-46.3596 1410.7,-26.5969 1577.29,-20.764"/>
<polygon fill="black" stroke="black" points="1577.87,-24.2458 1587.74,-20.4 1577.63,-17.25 1577.87,-24.2458"/>
</g>
<!-- ITF&#45;19_3.3V&#45;&gt;toadkiller -->
<g id="edge61" class="edge"><title>ITF&#45;19_3.3V&#45;&gt;toadkiller</title>
<path fill="none" stroke="black" d="M701.328,-77.188C709.907,-75.1166 718.948,-73.2326 727.5,-72 1146.58,-11.5984 1259.84,-92.2732 1679.5,-36 1683.45,-35.4704 1687.5,-34.8242 1691.57,-34.0968"/>
<polygon fill="black" stroke="black" points="1692.52,-37.4772 1701.68,-32.1421 1691.19,-30.6045 1692.52,-37.4772"/>
</g>
<!-- ITF&#45;19_3.3V&#45;&gt;mogaba -->
<g id="edge85" class="edge"><title>ITF&#45;19_3.3V&#45;&gt;mogaba</title>
<path fill="none" stroke="black" d="M702.501,-77.5193C710.749,-75.4984 719.366,-73.5493 727.5,-72 854.963,-47.7225 1006.77,-31.3907 1085.74,-23.8279"/>
<polygon fill="black" stroke="black" points="1086.3,-27.2904 1095.93,-22.8623 1085.64,-20.3216 1086.3,-27.2904"/>
</g>
<!-- ITF&#45;mET_Transducer -->
<g id="node20" class="node"><title>ITF&#45;mET_Transducer</title>
<ellipse fill="green" stroke="black" cx="4346.5" cy="-90" rx="89.0842" ry="18"/>
<text text-anchor="middle" x="4346.5" y="-86.3" font-family="Times,serif" font-size="14.00">ITF&#45;mET_Transducer</text>
</g>
<!-- ITF&#45;mET_Transducer&#45;&gt;tobo -->
<g id="edge8" class="edge"><title>ITF&#45;mET_Transducer&#45;&gt;tobo</title>
<path fill="none" stroke="black" d="M4281.21,-77.6724C4267.43,-75.3842 4252.99,-73.2878 4239.5,-72 3809.6,-30.9743 2727.94,-54.8922 2296.5,-36 2226.12,-32.9182 2144.58,-26.7742 2097.69,-22.7781"/>
<polygon fill="black" stroke="black" points="2097.93,-19.286 2087.67,-21.9105 2097.33,-26.2599 2097.93,-19.286"/>
</g>
<!-- ITF&#45;mET_Transducer&#45;&gt;tobo -->
<g id="edge11" class="edge"><title>ITF&#45;mET_Transducer&#45;&gt;tobo</title>
<path fill="none" stroke="black" d="M4289.41,-76.136C4278.86,-74.4653 4267.9,-72.9925 4257.5,-72 3827.6,-30.9743 2745.94,-54.8922 2314.5,-36 2237.84,-32.643 2147.92,-25.6524 2097.81,-21.7626"/>
<polygon fill="black" stroke="black" points="2097.98,-18.2654 2087.74,-20.982 2097.44,-25.2445 2097.98,-18.2654"/>
</g>
<!-- ITF&#45;mET_Transducer&#45;&gt;cletus -->
<g id="edge21" class="edge"><title>ITF&#45;mET_Transducer&#45;&gt;cletus</title>
<path fill="none" stroke="black" d="M4380.26,-73.2906C4408.34,-61.5786 4448.34,-45.6755 4478.84,-34.1099"/>
<polygon fill="black" stroke="black" points="4480.26,-37.3172 4488.38,-30.518 4477.79,-30.7661 4480.26,-37.3172"/>
</g>
<!-- ITF&#45;mET_Transducer&#45;&gt;cletus -->
<g id="edge24" class="edge"><title>ITF&#45;mET_Transducer&#45;&gt;cletus</title>
<path fill="none" stroke="black" d="M4389.46,-74.1548C4416.66,-63.8516 4451.62,-50.0134 4478.92,-38.776"/>
<polygon fill="black" stroke="black" points="4480.34,-41.979 4488.24,-34.9196 4477.66,-35.5114 4480.34,-41.979"/>
</g>
<!-- ITF&#45;mET_Transducer&#45;&gt;retroATL3 -->
<g id="edge53" class="edge"><title>ITF&#45;mET_Transducer&#45;&gt;retroATL3</title>
<path fill="none" stroke="black" d="M4405.22,-76.4471C4415.28,-74.8002 4425.65,-73.2527 4435.5,-72 4651.37,-44.546 4909.43,-28.4695 5028.9,-22.1404"/>
<polygon fill="black" stroke="black" points="5029.19,-25.6303 5038.99,-21.6118 5028.82,-18.6399 5029.19,-25.6303"/>
</g>
<!-- ITF&#45;mET_Transducer&#45;&gt;retroATL3 -->
<g id="edge57" class="edge"><title>ITF&#45;mET_Transducer&#45;&gt;retroATL3</title>
<path fill="none" stroke="black" d="M4413.17,-78.0609C4426.56,-75.8266 4440.48,-73.6557 4453.5,-72 4662.6,-45.4068 4911.29,-29.4888 5028.37,-22.7645"/>
<polygon fill="black" stroke="black" points="5028.82,-26.2445 5038.6,-22.1807 5028.42,-19.2558 5028.82,-26.2445"/>
</g>
<!-- ITF&#45;18_Raw -->
<g id="node21" class="node"><title>ITF&#45;18_Raw</title>
<ellipse fill="yellow" stroke="black" cx="2561.5" cy="-90" rx="55.7903" ry="18"/>
<text text-anchor="middle" x="2561.5" y="-86.3" font-family="Times,serif" font-size="14.00">ITF&#45;18_Raw</text>
</g>
<!-- ITF&#45;18_Raw&#45;&gt;tobo -->
<g id="edge9" class="edge"><title>ITF&#45;18_Raw&#45;&gt;tobo</title>
<path fill="none" stroke="black" d="M2521.12,-77.5379C2513.02,-75.4914 2504.52,-73.528 2496.5,-72 2350.41,-44.1687 2173.91,-28.0246 2097.65,-21.8812"/>
<polygon fill="black" stroke="black" points="2097.81,-18.3833 2087.57,-21.0805 2097.26,-25.3613 2097.81,-18.3833"/>
</g>
<!-- ITF&#45;18_Raw&#45;&gt;goblin -->
<g id="edge73" class="edge"><title>ITF&#45;18_Raw&#45;&gt;goblin</title>
<path fill="none" stroke="black" d="M2590.78,-74.6655C2610.89,-64.8221 2637.94,-51.581 2660.61,-40.4825"/>
<polygon fill="black" stroke="black" points="2662.26,-43.5719 2669.71,-36.0316 2659.19,-37.2847 2662.26,-43.5719"/>
</g>
<!-- ITF&#45;18_Raw&#45;&gt;silent -->
<g id="edge81" class="edge"><title>ITF&#45;18_Raw&#45;&gt;silent</title>
<path fill="none" stroke="black" d="M2523.56,-76.6465C2485.66,-64.3082 2427.55,-45.3896 2388.34,-32.6223"/>
<polygon fill="black" stroke="black" points="2389.39,-29.2846 2378.8,-29.5167 2387.23,-35.9407 2389.39,-29.2846"/>
</g>
<!-- ITF&#45;mET_SMA -->
<g id="node22" class="node"><title>ITF&#45;mET_SMA</title>
<ellipse fill="green" stroke="black" cx="2704.5" cy="-90" rx="68.7879" ry="18"/>
<text text-anchor="middle" x="2704.5" y="-86.3" font-family="Times,serif" font-size="14.00">ITF&#45;mET_SMA</text>
</g>
<!-- ITF&#45;mET_SMA&#45;&gt;tobo -->
<g id="edge10" class="edge"><title>ITF&#45;mET_SMA&#45;&gt;tobo</title>
<path fill="none" stroke="black" d="M2655.15,-77.2986C2645.68,-75.3214 2635.81,-73.4447 2626.5,-72 2523.81,-56.0702 2207.43,-30.5638 2097.56,-21.9504"/>
<polygon fill="black" stroke="black" points="2097.83,-18.4608 2087.59,-21.1705 2097.28,-25.4395 2097.83,-18.4608"/>
</g>
<!-- ITF&#45;mET_SMA&#45;&gt;goblin -->
<g id="edge74" class="edge"><title>ITF&#45;mET_SMA&#45;&gt;goblin</title>
<path fill="none" stroke="black" d="M2704.5,-71.6966C2704.5,-63.9827 2704.5,-54.7125 2704.5,-46.1124"/>
<polygon fill="black" stroke="black" points="2708,-46.1043 2704.5,-36.1043 2701,-46.1044 2708,-46.1043"/>
</g>
<!-- ITF&#45;12_RPIn -->
<g id="node23" class="node"><title>ITF&#45;12_RPIn</title>
<ellipse fill="yellow" stroke="black" cx="310.5" cy="-90" rx="57.6901" ry="18"/>
<text text-anchor="middle" x="310.5" y="-86.3" font-family="Times,serif" font-size="14.00">ITF&#45;12_RPIn</text>
</g>
<!-- ITF&#45;12_RPIn&#45;&gt;elmo -->
<g id="edge15" class="edge"><title>ITF&#45;12_RPIn&#45;&gt;elmo</title>
<path fill="none" stroke="black" d="M353.295,-77.712C361.317,-75.7183 369.648,-73.7296 377.5,-72 463.259,-53.1097 564.587,-35.1869 619.73,-25.7996"/>
<polygon fill="black" stroke="black" points="620.526,-29.2149 629.8,-24.093 619.356,-22.3133 620.526,-29.2149"/>
</g>
<!-- Signal Digitalized -->
<g id="node24" class="node"><title>Signal Digitalized</title>
<ellipse fill="yellow" stroke="black" cx="159.5" cy="-90" rx="74.9875" ry="18"/>
<text text-anchor="middle" x="159.5" y="-86.3" font-family="Times,serif" font-size="14.00">Signal Digitalized</text>
</g>
<!-- Signal Digitalized&#45;&gt;elmo -->
<g id="edge16" class="edge"><title>Signal Digitalized&#45;&gt;elmo</title>
<path fill="none" stroke="black" d="M213.616,-77.4415C223.533,-75.4962 233.81,-73.5941 243.5,-72 380.598,-49.4456 544.414,-31.1249 619.381,-23.2153"/>
<polygon fill="black" stroke="black" points="620.203,-26.6484 629.783,-22.1246 619.473,-19.6866 620.203,-26.6484"/>
</g>
<!-- ITF&#45;A_gnd -->
<g id="node25" class="node"><title>ITF&#45;A_gnd</title>
<ellipse fill="yellow" stroke="black" cx="4975.5" cy="-90" rx="50.8918" ry="18"/>
<text text-anchor="middle" x="4975.5" y="-86.3" font-family="Times,serif" font-size="14.00">ITF&#45;A_gnd</text>
</g>
<!-- ITF&#45;A_gnd&#45;&gt;cletus -->
<g id="edge17" class="edge"><title>ITF&#45;A_gnd&#45;&gt;cletus</title>
<path fill="none" stroke="black" d="M4938.89,-77.5482C4931.52,-75.5009 4923.8,-73.5345 4916.5,-72 4790.96,-45.6199 4640.03,-29.6083 4566.75,-22.8148"/>
<polygon fill="black" stroke="black" points="4566.79,-19.304 4556.52,-21.8792 4566.16,-26.2749 4566.79,-19.304"/>
</g>
<!-- ITF&#45;A_gnd&#45;&gt;retroATL3 -->
<g id="edge50" class="edge"><title>ITF&#45;A_gnd&#45;&gt;retroATL3</title>
<path fill="none" stroke="black" d="M5000.66,-74.3257C5017.08,-64.7479 5038.82,-52.0624 5057.35,-41.2547"/>
<polygon fill="black" stroke="black" points="5059.27,-44.1838 5066.15,-36.1218 5055.75,-38.1374 5059.27,-44.1838"/>
</g>
<!-- ITF&#45;B_5v -->
<g id="node26" class="node"><title>ITF&#45;B_5v</title>
<ellipse fill="yellow" stroke="black" cx="4655.5" cy="-90" rx="46.2923" ry="18"/>
<text text-anchor="middle" x="4655.5" y="-86.3" font-family="Times,serif" font-size="14.00">ITF&#45;B_5v</text>
</g>
<!-- ITF&#45;B_5v&#45;&gt;cletus -->
<g id="edge18" class="edge"><title>ITF&#45;B_5v&#45;&gt;cletus</title>
<path fill="none" stroke="black" d="M4629.22,-75.1703C4610.54,-65.3387 4585.08,-51.9374 4563.71,-40.6905"/>
<polygon fill="black" stroke="black" points="4565.32,-37.5793 4554.84,-36.019 4562.06,-43.7738 4565.32,-37.5793"/>
</g>
<!-- ITF&#45;N_cc_motor_pwm -->
<g id="node27" class="node"><title>ITF&#45;N_cc_motor_pwm</title>
<ellipse fill="yellow" stroke="black" cx="4813.5" cy="-90" rx="93.6835" ry="18"/>
<text text-anchor="middle" x="4813.5" y="-86.3" font-family="Times,serif" font-size="14.00">ITF&#45;N_cc_motor_pwm</text>
</g>
<!-- ITF&#45;N_cc_motor_pwm&#45;&gt;cletus -->
<g id="edge19" class="edge"><title>ITF&#45;N_cc_motor_pwm&#45;&gt;cletus</title>
<path fill="none" stroke="black" d="M4757.39,-75.5033C4701.65,-62.0948 4617.33,-41.8118 4566.33,-29.5436"/>
<polygon fill="black" stroke="black" points="4567.14,-26.1372 4556.59,-27.2013 4565.5,-32.9431 4567.14,-26.1372"/>
</g>
<!-- ITF&#45;N_cc_motor_pwm&#45;&gt;retroATL3 -->
<g id="edge52" class="edge"><title>ITF&#45;N_cc_motor_pwm&#45;&gt;retroATL3</title>
<path fill="none" stroke="black" d="M4868.54,-75.3371C4914.43,-63.9468 4979.96,-47.6811 5028.81,-35.5531"/>
<polygon fill="black" stroke="black" points="5029.8,-38.9144 5038.66,-33.1083 5028.12,-32.1206 5029.8,-38.9144"/>
</g>
<!-- ITF&#45;S_3_3v -->
<g id="node28" class="node"><title>ITF&#45;S_3_3v</title>
<ellipse fill="yellow" stroke="black" cx="4185.5" cy="-90" rx="53.8905" ry="18"/>
<text text-anchor="middle" x="4185.5" y="-86.3" font-family="Times,serif" font-size="14.00">ITF&#45;S_3_3v</text>
</g>
<!-- ITF&#45;S_3_3v&#45;&gt;cletus -->
<g id="edge20" class="edge"><title>ITF&#45;S_3_3v&#45;&gt;cletus</title>
<path fill="none" stroke="black" d="M4225.38,-77.77C4233.03,-75.7494 4240.99,-73.7361 4248.5,-72 4328.99,-53.3816 4423.81,-36.0525 4478.17,-26.555"/>
<polygon fill="black" stroke="black" points="4478.91,-29.9793 4488.16,-24.818 4477.71,-23.0827 4478.91,-29.9793"/>
</g>
<!-- ITF&#45;mET_Piezo -->
<g id="node29" class="node"><title>ITF&#45;mET_Piezo</title>
<ellipse fill="green" stroke="black" cx="4522.5" cy="-90" rx="68.7879" ry="18"/>
<text text-anchor="middle" x="4522.5" y="-86.3" font-family="Times,serif" font-size="14.00">ITF&#45;mET_Piezo</text>
</g>
<!-- ITF&#45;mET_Piezo&#45;&gt;cletus -->
<g id="edge22" class="edge"><title>ITF&#45;mET_Piezo&#45;&gt;cletus</title>
<path fill="none" stroke="black" d="M4516.62,-72.055C4515.8,-64.3456 4515.56,-55.0269 4515.89,-46.3642"/>
<polygon fill="black" stroke="black" points="4519.39,-46.4915 4516.59,-36.2753 4512.41,-46.0122 4519.39,-46.4915"/>
</g>
<!-- ITF&#45;mET_Piezo&#45;&gt;cletus -->
<g id="edge23" class="edge"><title>ITF&#45;mET_Piezo&#45;&gt;cletus</title>
<path fill="none" stroke="black" d="M4528.38,-72.055C4529.2,-64.3456 4529.44,-55.0269 4529.11,-46.3642"/>
<polygon fill="black" stroke="black" points="4532.59,-46.0122 4528.41,-36.2753 4525.61,-46.4915 4532.59,-46.0122"/>
</g>
<!-- ITF&#45;3_ENV -->
<g id="node30" class="node"><title>ITF&#45;3_ENV</title>
<ellipse fill="yellow" stroke="black" cx="2299.5" cy="-90" rx="53.8905" ry="18"/>
<text text-anchor="middle" x="2299.5" y="-86.3" font-family="Times,serif" font-size="14.00">ITF&#45;3_ENV</text>
</g>
<!-- ITF&#45;3_ENV&#45;&gt;tomtom -->
<g id="edge27" class="edge"><title>ITF&#45;3_ENV&#45;&gt;tomtom</title>
<path fill="none" stroke="black" d="M2339.75,-77.8187C2347.3,-75.8146 2355.13,-73.7948 2362.5,-72 2427.91,-56.0808 2503.76,-39.9713 2553.3,-29.7609"/>
<polygon fill="black" stroke="black" points="2554.07,-33.1774 2563.16,-27.7366 2552.66,-26.3206 2554.07,-33.1774"/>
</g>
<!-- ITF&#45;3_ENV&#45;&gt;oneeye -->
<g id="edge34" class="edge"><title>ITF&#45;3_ENV&#45;&gt;oneeye</title>
<path fill="none" stroke="black" d="M2259.99,-77.7102C2252.23,-75.6727 2244.14,-73.6686 2236.5,-72 2145.4,-52.096 2117.77,-59.359 2023.65,-36.0608"/>
<polygon fill="black" stroke="black" points="2024.27,-32.6064 2013.71,-33.5499 2022.55,-39.3931 2024.27,-32.6064"/>
</g>
<!-- ITF&#45;3_ENV&#45;&gt;croaker -->
<g id="edge41" class="edge"><title>ITF&#45;3_ENV&#45;&gt;croaker</title>
<path fill="none" stroke="black" d="M2261.12,-77.3519C2253.05,-75.2686 2244.55,-73.3383 2236.5,-72 1997.48,-32.2431 1931.52,-75.7569 1692.5,-36 1688.82,-35.3878 1685.04,-34.6517 1681.26,-33.8337"/>
<polygon fill="black" stroke="black" points="1681.8,-30.3669 1671.27,-31.5061 1680.21,-37.1843 1681.8,-30.3669"/>
</g>
<!-- ITF&#45;3_ENV&#45;&gt;toadkiller -->
<g id="edge62" class="edge"><title>ITF&#45;3_ENV&#45;&gt;toadkiller</title>
<path fill="none" stroke="black" d="M2260.4,-77.4444C2252.53,-75.4057 2244.29,-73.469 2236.5,-72 2195.84,-64.3355 1934.26,-37.3927 1813.47,-25.1437"/>
<polygon fill="black" stroke="black" points="1813.58,-21.6369 1803.28,-24.111 1812.87,-28.6012 1813.58,-21.6369"/>
</g>
<!-- ITF&#45;3_ENV&#45;&gt;goblin -->
<g id="edge72" class="edge"><title>ITF&#45;3_ENV&#45;&gt;goblin</title>
<path fill="none" stroke="black" d="M2338.62,-77.5182C2346.48,-75.4733 2354.72,-73.5155 2362.5,-72 2489.41,-47.2911 2527.83,-66.2071 2657.42,-35.9328"/>
<polygon fill="black" stroke="black" points="2658.41,-39.2947 2667.32,-33.566 2656.78,-32.4864 2658.41,-39.2947"/>
</g>
<!-- ITF&#45;I_pulse_on -->
<g id="node31" class="node"><title>ITF&#45;I_pulse_on</title>
<ellipse fill="yellow" stroke="black" cx="2998.5" cy="-90" rx="65.7887" ry="18"/>
<text text-anchor="middle" x="2998.5" y="-86.3" font-family="Times,serif" font-size="14.00">ITF&#45;I_pulse_on</text>
</g>
<!-- ITF&#45;I_pulse_on&#45;&gt;tomtom -->
<g id="edge28" class="edge"><title>ITF&#45;I_pulse_on&#45;&gt;tomtom</title>
<path fill="none" stroke="black" d="M2951.26,-77.4717C2942.4,-75.5013 2933.19,-73.5826 2924.5,-72 2810.34,-51.2068 2776.62,-62.0126 2659.8,-36.0655"/>
<polygon fill="black" stroke="black" points="2660.27,-32.5841 2649.75,-33.7886 2658.73,-39.4112 2660.27,-32.5841"/>
</g>
<!-- ITF&#45;15_GPIO21 -->
<g id="node32" class="node"><title>ITF&#45;15_GPIO21</title>
<ellipse fill="yellow" stroke="black" cx="3151.5" cy="-90" rx="69.5877" ry="18"/>
<text text-anchor="middle" x="3151.5" y="-86.3" font-family="Times,serif" font-size="14.00">ITF&#45;15_GPIO21</text>
</g>
<!-- ITF&#45;15_GPIO21&#45;&gt;tomtom -->
<g id="edge29" class="edge"><title>ITF&#45;15_GPIO21&#45;&gt;tomtom</title>
<path fill="none" stroke="black" d="M3102.16,-77.2483C3092.69,-75.2757 3082.82,-73.4136 3073.5,-72 2893.67,-44.7188 2841.72,-72.0137 2659.61,-35.9461"/>
<polygon fill="black" stroke="black" points="2660.21,-32.4954 2649.71,-33.9486 2658.82,-39.3571 2660.21,-32.4954"/>
</g>
<!-- ITF&#45;16_POn3 -->
<g id="node33" class="node"><title>ITF&#45;16_POn3</title>
<ellipse fill="yellow" stroke="black" cx="3298.5" cy="-90" rx="59.5901" ry="18"/>
<text text-anchor="middle" x="3298.5" y="-86.3" font-family="Times,serif" font-size="14.00">ITF&#45;16_POn3</text>
</g>
<!-- ITF&#45;16_POn3&#45;&gt;tomtom -->
<g id="edge30" class="edge"><title>ITF&#45;16_POn3&#45;&gt;tomtom</title>
<path fill="none" stroke="black" d="M3256.3,-77.1862C3247.82,-75.1687 3238.92,-73.3059 3230.5,-72 2982.1,-33.4631 2910.55,-82.6307 2659.84,-35.9505"/>
<polygon fill="black" stroke="black" points="2660.17,-32.4511 2649.7,-34.0278 2658.87,-39.3287 2660.17,-32.4511"/>
</g>
<!-- ITF&#45;11_OffSig -->
<g id="node34" class="node"><title>ITF&#45;11_OffSig</title>
<ellipse fill="yellow" stroke="black" cx="3439.5" cy="-90" rx="63.8893" ry="18"/>
<text text-anchor="middle" x="3439.5" y="-86.3" font-family="Times,serif" font-size="14.00">ITF&#45;11_OffSig</text>
</g>
<!-- ITF&#45;11_OffSig&#45;&gt;tomtom -->
<g id="edge31" class="edge"><title>ITF&#45;11_OffSig&#45;&gt;tomtom</title>
<path fill="none" stroke="black" d="M3394.8,-77.1232C3385.82,-75.1109 3376.4,-73.2661 3367.5,-72 3058.48,-28.0435 2970.61,-92.1225 2659.89,-35.9415"/>
<polygon fill="black" stroke="black" points="2660.16,-32.4319 2649.69,-34.0684 2658.89,-39.3168 2660.16,-32.4319"/>
</g>
<!-- ITF&#45;14_PWM -->
<g id="node35" class="node"><title>ITF&#45;14_PWM</title>
<ellipse fill="yellow" stroke="black" cx="2165.5" cy="-90" rx="61.99" ry="18"/>
<text text-anchor="middle" x="2165.5" y="-86.3" font-family="Times,serif" font-size="14.00">ITF&#45;14_PWM</text>
</g>
<!-- ITF&#45;14_PWM&#45;&gt;tomtom -->
<g id="edge32" class="edge"><title>ITF&#45;14_PWM&#45;&gt;tomtom</title>
<path fill="none" stroke="black" d="M2210.44,-77.5762C2219.06,-75.5734 2228.03,-73.6163 2236.5,-72 2348.44,-50.6297 2480.91,-33.6382 2553.07,-25.0743"/>
<polygon fill="black" stroke="black" points="2553.75,-28.5188 2563.27,-23.8724 2552.93,-21.5669 2553.75,-28.5188"/>
</g>
<!-- ITF&#45;14_PWM&#45;&gt;oneeye -->
<g id="edge40" class="edge"><title>ITF&#45;14_PWM&#45;&gt;oneeye</title>
<path fill="none" stroke="black" d="M2128.48,-75.5033C2098.53,-64.5831 2056.07,-49.1033 2023.16,-37.1067"/>
<polygon fill="black" stroke="black" points="2024.31,-33.8007 2013.72,-33.6636 2021.92,-40.3773 2024.31,-33.8007"/>
</g>
<!-- ITF&#45;14_PWM&#45;&gt;toadkiller -->
<g id="edge67" class="edge"><title>ITF&#45;14_PWM&#45;&gt;toadkiller</title>
<path fill="none" stroke="black" d="M2120.81,-77.5491C2112.43,-75.5712 2103.72,-73.63 2095.5,-72 1997.26,-52.5172 1881.99,-35.9908 1813.22,-26.7952"/>
<polygon fill="black" stroke="black" points="1813.38,-23.2858 1803.01,-25.4376 1812.46,-30.2247 1813.38,-23.2858"/>
</g>
<!-- Wifi -->
<g id="node36" class="node"><title>Wifi</title>
<ellipse fill="yellow" stroke="black" cx="3548.5" cy="-90" rx="27.0966" ry="18"/>
<text text-anchor="middle" x="3548.5" y="-86.3" font-family="Times,serif" font-size="14.00">Wifi</text>
</g>
<!-- Wifi&#45;&gt;tomtom -->
<g id="edge33" class="edge"><title>Wifi&#45;&gt;tomtom</title>
<path fill="none" stroke="black" d="M3528.08,-77.6441C3523.12,-75.3723 3517.73,-73.2902 3512.5,-72 3146.89,18.1129 3034.3,-101.519 2659.71,-35.8872"/>
<polygon fill="black" stroke="black" points="2660.14,-32.4092 2649.68,-34.0973 2658.91,-39.3003 2660.14,-32.4092"/>
</g>
<!-- ITF&#45;7_GAIN -->
<g id="node37" class="node"><title>ITF&#45;7_GAIN</title>
<ellipse fill="yellow" stroke="black" cx="2429.5" cy="-90" rx="57.6901" ry="18"/>
<text text-anchor="middle" x="2429.5" y="-86.3" font-family="Times,serif" font-size="14.00">ITF&#45;7_GAIN</text>
</g>
<!-- ITF&#45;7_GAIN&#45;&gt;oneeye -->
<g id="edge37" class="edge"><title>ITF&#45;7_GAIN&#45;&gt;oneeye</title>
<path fill="none" stroke="black" d="M2387.88,-77.4604C2379.53,-75.4203 2370.77,-73.479 2362.5,-72 2216.13,-45.8206 2172.66,-68.1169 2023.64,-35.9497"/>
<polygon fill="black" stroke="black" points="2024.18,-32.4866 2013.67,-33.7511 2022.68,-39.3224 2024.18,-32.4866"/>
</g>
<!-- ITF&#45;7_GAIN&#45;&gt;goblin -->
<g id="edge70" class="edge"><title>ITF&#45;7_GAIN&#45;&gt;goblin</title>
<path fill="none" stroke="black" d="M2472.7,-77.8367C2480.61,-75.8512 2488.79,-73.8332 2496.5,-72 2565.17,-55.6619 2585.97,-56.703 2657.53,-36.0803"/>
<polygon fill="black" stroke="black" points="2658.87,-39.3352 2667.49,-33.168 2656.91,-32.6169 2658.87,-39.3352"/>
</g>
<!-- ITF&#45;mED&#45;TFT&#45;Screen -->
<g id="node38" class="node"><title>ITF&#45;mED&#45;TFT&#45;Screen</title>
<ellipse fill="green" stroke="black" cx="1292.5" cy="-90" rx="90.9839" ry="18"/>
<text text-anchor="middle" x="1292.5" y="-86.3" font-family="Times,serif" font-size="14.00">ITF&#45;mED&#45;TFT&#45;Screen</text>
</g>
<!-- ITF&#45;mED&#45;TFT&#45;Screen&#45;&gt;croaker -->
<g id="edge47" class="edge"><title>ITF&#45;mED&#45;TFT&#45;Screen&#45;&gt;croaker</title>
<path fill="none" stroke="black" d="M1352.75,-76.4854C1416.82,-63.1769 1517.1,-42.3466 1577.73,-29.7525"/>
<polygon fill="black" stroke="black" points="1578.77,-33.1132 1587.84,-27.6525 1577.34,-26.2594 1578.77,-33.1132"/>
</g>
<!-- ITF&#45;mED&#45;TFT&#45;Screen&#45;&gt;toadkiller -->
<g id="edge64" class="edge"><title>ITF&#45;mED&#45;TFT&#45;Screen&#45;&gt;toadkiller</title>
<path fill="none" stroke="black" d="M1358.06,-77.4342C1369.53,-75.5318 1381.35,-73.6462 1392.5,-72 1519.68,-53.2229 1552.95,-58.6092 1679.5,-36 1683.61,-35.2662 1687.83,-34.4496 1692.08,-33.5824"/>
<polygon fill="black" stroke="black" points="1692.93,-36.9803 1701.98,-31.4822 1691.47,-30.1326 1692.93,-36.9803"/>
</g>
<!-- ITF&#45;mED&#45;OLED&#45;Screen -->
<g id="node39" class="node"><title>ITF&#45;mED&#45;OLED&#45;Screen</title>
<ellipse fill="green" stroke="black" cx="835.5" cy="-90" rx="98.5829" ry="18"/>
<text text-anchor="middle" x="835.5" y="-86.3" font-family="Times,serif" font-size="14.00">ITF&#45;mED&#45;OLED&#45;Screen</text>
</g>
<!-- ITF&#45;mED&#45;OLED&#45;Screen&#45;&gt;croaker -->
<g id="edge48" class="edge"><title>ITF&#45;mED&#45;OLED&#45;Screen&#45;&gt;croaker</title>
<path fill="none" stroke="black" d="M905.032,-77.1203C917.484,-75.2306 930.358,-73.4306 942.5,-72 1178.96,-44.1403 1463.01,-27.564 1577.72,-21.5665"/>
<polygon fill="black" stroke="black" points="1578.15,-25.0487 1587.96,-21.0357 1577.79,-18.0581 1578.15,-25.0487"/>
</g>
<!-- ITF&#45;mEC&#45;WiFi&#45;UDP&#45;Stream -->
<g id="node40" class="node"><title>ITF&#45;mEC&#45;WiFi&#45;UDP&#45;Stream</title>
<ellipse fill="green" stroke="black" cx="1067.5" cy="-90" rx="115.88" ry="18"/>
<text text-anchor="middle" x="1067.5" y="-86.3" font-family="Times,serif" font-size="14.00">ITF&#45;mEC&#45;WiFi&#45;UDP&#45;Stream</text>
</g>
<!-- ITF&#45;mEC&#45;WiFi&#45;UDP&#45;Stream&#45;&gt;croaker -->
<g id="edge49" class="edge"><title>ITF&#45;mEC&#45;WiFi&#45;UDP&#45;Stream&#45;&gt;croaker</title>
<path fill="none" stroke="black" d="M1150.85,-77.4931C1164.76,-75.6228 1179.03,-73.7324 1192.5,-72 1331.7,-54.0939 1496.07,-34.6037 1577.87,-25.0169"/>
<polygon fill="black" stroke="black" points="1578.37,-28.4814 1587.9,-23.8421 1577.56,-21.5289 1578.37,-28.4814"/>
</g>
<!-- ITF&#45;F_12V -->
<g id="node41" class="node"><title>ITF&#45;F_12V</title>
<ellipse fill="yellow" stroke="black" cx="5095.5" cy="-90" rx="51.1914" ry="18"/>
<text text-anchor="middle" x="5095.5" y="-86.3" font-family="Times,serif" font-size="14.00">ITF&#45;F_12V</text>
</g>
<!-- ITF&#45;F_12V&#45;&gt;retroATL3 -->
<g id="edge51" class="edge"><title>ITF&#45;F_12V&#45;&gt;retroATL3</title>
<path fill="none" stroke="black" d="M5095.5,-71.6966C5095.5,-63.9827 5095.5,-54.7125 5095.5,-46.1124"/>
<polygon fill="black" stroke="black" points="5099,-46.1043 5095.5,-36.1043 5092,-46.1044 5099,-46.1043"/>
</g>
<!-- Motor -->
<g id="node42" class="node"><title>Motor</title>
<ellipse fill="yellow" stroke="black" cx="5197.5" cy="-90" rx="33.2948" ry="18"/>
<text text-anchor="middle" x="5197.5" y="-86.3" font-family="Times,serif" font-size="14.00">Motor</text>
</g>
<!-- Motor&#45;&gt;retroATL3 -->
<g id="edge54" class="edge"><title>Motor&#45;&gt;retroATL3</title>
<path fill="none" stroke="black" d="M5174.47,-76.8069C5159.13,-67.2884 5139.07,-53.7838 5122.94,-42.2209"/>
<polygon fill="black" stroke="black" points="5124.58,-39.0869 5114.43,-36.0344 5120.46,-44.7475 5124.58,-39.0869"/>
</g>
<!-- Motor&#45;&gt;retroATL3 -->
<g id="edge56" class="edge"><title>Motor&#45;&gt;retroATL3</title>
<path fill="none" stroke="black" d="M5181.5,-74.1548C5168.97,-64.7412 5151.19,-52.3769 5135,-41.7412"/>
<polygon fill="black" stroke="black" points="5136.51,-38.5469 5126.22,-36.04 5132.7,-44.4192 5136.51,-38.5469"/>
</g>
<!-- Tri&#45;Piezo Head -->
<g id="node43" class="node"><title>Tri&#45;Piezo Head</title>
<ellipse fill="yellow" stroke="black" cx="5313.5" cy="-90" rx="64.9885" ry="18"/>
<text text-anchor="middle" x="5313.5" y="-86.3" font-family="Times,serif" font-size="14.00">Tri&#45;Piezo Head</text>
</g>
<!-- Tri&#45;Piezo Head&#45;&gt;retroATL3 -->
<g id="edge55" class="edge"><title>Tri&#45;Piezo Head&#45;&gt;retroATL3</title>
<path fill="none" stroke="black" d="M5269.74,-76.6465C5235.96,-66.306 5189.06,-51.3438 5152.39,-39.2541"/>
<polygon fill="black" stroke="black" points="5153.41,-35.9064 5142.82,-36.0872 5151.22,-42.5519 5153.41,-35.9064"/>
</g>
<!-- Tri&#45;Piezo Head&#45;&gt;retroATL3 -->
<g id="edge58" class="edge"><title>Tri&#45;Piezo Head&#45;&gt;retroATL3</title>
<path fill="none" stroke="black" d="M5275.93,-75.1703C5244.67,-64.6731 5199.5,-50.1063 5162.15,-38.4374"/>
<polygon fill="black" stroke="black" points="5162.93,-35.0137 5152.34,-35.3836 5160.85,-41.6975 5162.93,-35.0137"/>
</g>
<!-- WiFi UDP Stream -->
<g id="node44" class="node"><title>WiFi UDP Stream</title>
<ellipse fill="yellow" stroke="black" cx="1478.5" cy="-90" rx="77.1866" ry="18"/>
<text text-anchor="middle" x="1478.5" y="-86.3" font-family="Times,serif" font-size="14.00">WiFi UDP Stream</text>
</g>
<!-- WiFi UDP Stream&#45;&gt;toadkiller -->
<g id="edge63" class="edge"><title>WiFi UDP Stream&#45;&gt;toadkiller</title>
<path fill="none" stroke="black" d="M1528.44,-76.2423C1574.5,-64.4735 1642.99,-46.9759 1692.12,-34.4265"/>
<polygon fill="black" stroke="black" points="1693.16,-37.7732 1701.98,-31.9068 1691.42,-30.991 1693.16,-37.7732"/>
</g>
<!-- ITF&#45;4_RawSig -->
<g id="node45" class="node"><title>ITF&#45;4_RawSig</title>
<ellipse fill="yellow" stroke="black" cx="3657.5" cy="-90" rx="63.8893" ry="18"/>
<text text-anchor="middle" x="3657.5" y="-86.3" font-family="Times,serif" font-size="14.00">ITF&#45;4_RawSig</text>
</g>
<!-- ITF&#45;4_RawSig&#45;&gt;goblin -->
<g id="edge71" class="edge"><title>ITF&#45;4_RawSig&#45;&gt;goblin</title>
<path fill="none" stroke="black" d="M3608.49,-78.3327C3597.62,-75.8887 3586.19,-73.555 3575.5,-72 3263.24,-26.5691 2883.19,-19.9385 2751.76,-19.0786"/>
<polygon fill="black" stroke="black" points="2751.65,-15.578 2741.63,-19.0207 2751.61,-22.5779 2751.65,-15.578"/>
</g>
<!-- ITF&#45;4_RawSig&#45;&gt;goblin -->
<g id="edge75" class="edge"><title>ITF&#45;4_RawSig&#45;&gt;goblin</title>
<path fill="none" stroke="black" d="M3616.34,-76.1725C3608.8,-74.5535 3600.97,-73.0866 3593.5,-72 3274.97,-25.6573 2885.9,-19.688 2752.17,-19.0335"/>
<polygon fill="black" stroke="black" points="2751.89,-15.5324 2741.87,-18.9913 2751.86,-22.5323 2751.89,-15.5324"/>
</g>
<!-- ITF&#45;3_ENV_signal_envelope -->
<g id="node46" class="node"><title>ITF&#45;3_ENV_signal_envelope</title>
<ellipse fill="yellow" stroke="black" cx="3854.5" cy="-90" rx="115.08" ry="18"/>
<text text-anchor="middle" x="3854.5" y="-86.3" font-family="Times,serif" font-size="14.00">ITF&#45;3_ENV_signal_envelope</text>
</g>
<!-- ITF&#45;3_ENV_signal_envelope&#45;&gt;goblin -->
<g id="edge76" class="edge"><title>ITF&#45;3_ENV_signal_envelope&#45;&gt;goblin</title>
<path fill="none" stroke="black" d="M3774.57,-77.03C3759.94,-75.1265 3744.78,-73.3451 3730.5,-72 3354.57,-36.5847 2898.75,-23.4987 2752.26,-20.0304"/>
<polygon fill="black" stroke="black" points="2751.93,-16.5218 2741.85,-19.7879 2751.77,-23.5199 2751.93,-16.5218"/>
</g>
<!-- ITF&#45;mEG_SPI -->
<g id="node47" class="node"><title>ITF&#45;mEG_SPI</title>
<ellipse fill="green" stroke="black" cx="4050.5" cy="-90" rx="63.0888" ry="18"/>
<text text-anchor="middle" x="4050.5" y="-86.3" font-family="Times,serif" font-size="14.00">ITF&#45;mEG_SPI</text>
</g>
<!-- ITF&#45;mEG_SPI&#45;&gt;goblin -->
<g id="edge77" class="edge"><title>ITF&#45;mEG_SPI&#45;&gt;goblin</title>
<path fill="none" stroke="black" d="M4006.2,-77.1448C3997.1,-75.104 3987.53,-73.2429 3978.5,-72 3734.64,-38.4494 2952.99,-23.1929 2751.99,-19.7656"/>
<polygon fill="black" stroke="black" points="2751.82,-16.2624 2741.76,-19.593 2751.7,-23.2614 2751.82,-16.2624"/>
</g>
<!-- ITF&#45;17_POff3 -->
<g id="node48" class="node"><title>ITF&#45;17_POff3</title>
<ellipse fill="yellow" stroke="black" cx="2853.5" cy="-90" rx="61.99" ry="18"/>
<text text-anchor="middle" x="2853.5" y="-86.3" font-family="Times,serif" font-size="14.00">ITF&#45;17_POff3</text>
</g>
<!-- ITF&#45;17_POff3&#45;&gt;silent -->
<g id="edge80" class="edge"><title>ITF&#45;17_POff3&#45;&gt;silent</title>
<path fill="none" stroke="black" d="M2808.97,-77.5179C2800.23,-75.4971 2791.11,-73.5484 2782.5,-72 2639.33,-46.2443 2467.41,-29.4422 2389.1,-22.5524"/>
<polygon fill="black" stroke="black" points="2388.95,-19.0262 2378.69,-21.6461 2388.35,-25.9999 2388.95,-19.0262"/>
</g>
<!-- ITF&#45;mEM_Alimentation -->
<g id="node49" class="node"><title>ITF&#45;mEM_Alimentation</title>
<ellipse fill="green" stroke="black" cx="485.5" cy="-90" rx="98.5829" ry="18"/>
<text text-anchor="middle" x="485.5" y="-86.3" font-family="Times,serif" font-size="14.00">ITF&#45;mEM_Alimentation</text>
</g>
<!-- ITF&#45;mEM_Alimentation&#45;&gt;mogaba -->
<g id="edge82" class="edge"><title>ITF&#45;mEM_Alimentation&#45;&gt;mogaba</title>
<path fill="none" stroke="black" d="M555.709,-77.3296C568.274,-75.4176 581.261,-73.5559 593.5,-72 773.304,-49.1425 987.528,-30.9788 1085.62,-23.1626"/>
<polygon fill="black" stroke="black" points="1086.18,-26.6292 1095.87,-22.3497 1085.63,-19.6511 1086.18,-26.6292"/>
</g>
</g>
</svg>
