<?xml version="1.0" encoding="UTF-8" standalone="no"?>
<!DOCTYPE svg PUBLIC "-//W3C//DTD SVG 1.1//EN"
 "http://www.w3.org/Graphics/SVG/1.1/DTD/svg11.dtd">
<!-- Generated by graphviz version 2.38.0 (20140413.2041)
 -->
<!-- Title: %3 Pages: 1 -->
<svg width="1447pt" height="764pt"
 viewBox="0.00 0.00 1447.44 764.00" xmlns="http://www.w3.org/2000/svg" xmlns:xlink="http://www.w3.org/1999/xlink">
<g id="graph0" class="graph" transform="scale(1 1) rotate(0) translate(4 760)">
<title>%3</title>
<polygon fill="white" stroke="none" points="-4,4 -4,-760 1443.44,-760 1443.44,4 -4,4"/>
<!-- sleepy -->
<g id="node1" class="node"><title>sleepy</title>
<polygon fill="blue" stroke="black" points="868.315,-756 795.315,-756 795.315,-720 868.315,-720 868.315,-756"/>
<text text-anchor="middle" x="831.815" y="-732.4" font-family="Times,serif" font-size="22.00">sleepy</text>
</g>
<!-- tobo -->
<g id="node2" class="node"><title>tobo</title>
<polygon fill="blue" stroke="black" points="725.815,-540 669.815,-540 669.815,-504 725.815,-504 725.815,-540"/>
<text text-anchor="middle" x="697.815" y="-516.4" font-family="Times,serif" font-size="22.00">tobo</text>
</g>
<!-- ITF&#45;mET_Transducer -->
<g id="node17" class="node"><title>ITF&#45;mET_Transducer</title>
<ellipse fill="green" stroke="black" cx="1245.81" cy="-162" rx="89.0842" ry="18"/>
<text text-anchor="middle" x="1245.81" y="-158.3" font-family="Times,serif" font-size="14.00">ITF&#45;mET_Transducer</text>
</g>
<!-- tobo&#45;&gt;ITF&#45;mET_Transducer -->
<g id="edge9" class="edge"><title>tobo&#45;&gt;ITF&#45;mET_Transducer</title>
<path fill="none" stroke="black" d="M726.019,-519.124C832.364,-511.654 1201.81,-479.382 1201.81,-379 1201.81,-379 1201.81,-379 1201.81,-305 1201.81,-263.663 1215.97,-217.473 1228.59,-189.32"/>
<polygon fill="red" stroke="black" points="1231.82,-190.685 1232.97,-180.152 1225.5,-187.67 1231.82,-190.685"/>
</g>
<!-- ITF&#45;R_reserved -->
<g id="node18" class="node"><title>ITF&#45;R_reserved</title>
<ellipse fill="yellow" stroke="black" cx="851.815" cy="-450" rx="66.8882" ry="18"/>
<text text-anchor="middle" x="851.815" y="-446.3" font-family="Times,serif" font-size="14.00">ITF&#45;R_reserved</text>
</g>
<!-- tobo&#45;&gt;ITF&#45;R_reserved -->
<g id="edge7" class="edge"><title>tobo&#45;&gt;ITF&#45;R_reserved</title>
<path fill="none" stroke="black" d="M726.061,-508.161C749.494,-497.51 783.16,-482.207 809.762,-470.115"/>
<polygon fill="red" stroke="black" points="811.556,-473.144 819.211,-465.82 808.659,-466.772 811.556,-473.144"/>
</g>
<!-- ITF&#45;mET_SMA -->
<g id="node19" class="node"><title>ITF&#45;mET_SMA</title>
<ellipse fill="green" stroke="black" cx="697.815" cy="-450" rx="68.7879" ry="18"/>
<text text-anchor="middle" x="697.815" y="-446.3" font-family="Times,serif" font-size="14.00">ITF&#45;mET_SMA</text>
</g>
<!-- tobo&#45;&gt;ITF&#45;mET_SMA -->
<g id="edge8" class="edge"><title>tobo&#45;&gt;ITF&#45;mET_SMA</title>
<path fill="none" stroke="black" d="M697.815,-503.697C697.815,-495.983 697.815,-486.712 697.815,-478.112"/>
<polygon fill="red" stroke="black" points="701.315,-478.104 697.815,-468.104 694.315,-478.104 701.315,-478.104"/>
</g>
<!-- cletus -->
<g id="node3" class="node"><title>cletus</title>
<polygon fill="blue" stroke="black" points="1162.81,-108 1094.81,-108 1094.81,-72 1162.81,-72 1162.81,-108"/>
<text text-anchor="middle" x="1128.81" y="-84.4" font-family="Times,serif" font-size="22.00">cletus</text>
</g>
<!-- cletus&#45;&gt;ITF&#45;mET_Transducer -->
<g id="edge17" class="edge"><title>cletus&#45;&gt;ITF&#45;mET_Transducer</title>
<path fill="none" stroke="black" d="M1163.04,-107.956C1179.64,-117.298 1199.34,-128.999 1215.42,-139.034"/>
<polygon fill="red" stroke="black" points="1213.6,-142.029 1223.93,-144.411 1217.34,-136.111 1213.6,-142.029"/>
</g>
<!-- ITF&#45;mET_Piezo -->
<g id="node21" class="node"><title>ITF&#45;mET_Piezo</title>
<ellipse fill="green" stroke="black" cx="1128.81" cy="-18" rx="68.7879" ry="18"/>
<text text-anchor="middle" x="1128.81" y="-14.3" font-family="Times,serif" font-size="14.00">ITF&#45;mET_Piezo</text>
</g>
<!-- cletus&#45;&gt;ITF&#45;mET_Piezo -->
<g id="edge16" class="edge"><title>cletus&#45;&gt;ITF&#45;mET_Piezo</title>
<path fill="none" stroke="black" d="M1122.9,-71.6966C1122.1,-63.9827 1121.88,-54.7125 1122.22,-46.1124"/>
<polygon fill="red" stroke="black" points="1125.71,-46.3243 1122.92,-36.1043 1118.73,-45.8356 1125.71,-46.3243"/>
</g>
<!-- doj -->
<g id="node4" class="node"><title>doj</title>
<polygon fill="blue" stroke="black" points="1155.81,-756 1101.81,-756 1101.81,-720 1155.81,-720 1155.81,-756"/>
<text text-anchor="middle" x="1128.81" y="-732.4" font-family="Times,serif" font-size="22.00">doj</text>
</g>
<!-- oneeye -->
<g id="node5" class="node"><title>oneeye</title>
<polygon fill="blue" stroke="black" points="306.815,-540 226.815,-540 226.815,-504 306.815,-504 306.815,-540"/>
<text text-anchor="middle" x="266.815" y="-516.4" font-family="Times,serif" font-size="22.00">oneeye</text>
</g>
<!-- ITF&#45;I_pulse_on -->
<g id="node14" class="node"><title>ITF&#45;I_pulse_on</title>
<ellipse fill="yellow" stroke="black" cx="170.815" cy="-162" rx="65.7887" ry="18"/>
<text text-anchor="middle" x="170.815" y="-158.3" font-family="Times,serif" font-size="14.00">ITF&#45;I_pulse_on</text>
</g>
<!-- oneeye&#45;&gt;ITF&#45;I_pulse_on -->
<g id="edge22" class="edge"><title>oneeye&#45;&gt;ITF&#45;I_pulse_on</title>
<path fill="none" stroke="black" d="M245.229,-503.958C234.574,-494.454 222.408,-481.772 214.815,-468 167.19,-381.619 175.225,-349.978 163.815,-252 161.41,-231.347 163.448,-207.898 165.933,-190.256"/>
<polygon fill="red" stroke="black" points="169.434,-190.516 167.502,-180.099 162.516,-189.447 169.434,-190.516"/>
</g>
<!-- ITF&#45;J_pulse_off -->
<g id="node15" class="node"><title>ITF&#45;J_pulse_off</title>
<ellipse fill="yellow" stroke="black" cx="532.815" cy="-162" rx="67.6881" ry="18"/>
<text text-anchor="middle" x="532.815" y="-158.3" font-family="Times,serif" font-size="14.00">ITF&#45;J_pulse_off</text>
</g>
<!-- oneeye&#45;&gt;ITF&#45;J_pulse_off -->
<g id="edge23" class="edge"><title>oneeye&#45;&gt;ITF&#45;J_pulse_off</title>
<path fill="none" stroke="black" d="M260.991,-503.56C257.884,-493.33 254.384,-480.08 252.815,-468 242.286,-386.917 248.437,-357.924 290.815,-288 329.507,-224.158 412.507,-191.52 470.454,-175.878"/>
<polygon fill="red" stroke="black" points="471.449,-179.236 480.246,-173.332 469.687,-172.461 471.449,-179.236"/>
</g>
<!-- ITF&#45;N_cc_motor_pwm -->
<g id="node20" class="node"><title>ITF&#45;N_cc_motor_pwm</title>
<ellipse fill="yellow" stroke="black" cx="1006.81" cy="-162" rx="93.6835" ry="18"/>
<text text-anchor="middle" x="1006.81" y="-158.3" font-family="Times,serif" font-size="14.00">ITF&#45;N_cc_motor_pwm</text>
</g>
<!-- oneeye&#45;&gt;ITF&#45;N_cc_motor_pwm -->
<g id="edge24" class="edge"><title>oneeye&#45;&gt;ITF&#45;N_cc_motor_pwm</title>
<path fill="none" stroke="black" d="M268.384,-503.709C273.321,-460.056 292.607,-344.834 361.815,-288 444.566,-220.045 752.874,-184.531 911.378,-170.426"/>
<polygon fill="red" stroke="black" points="911.942,-173.89 921.598,-169.528 911.329,-166.917 911.942,-173.89"/>
</g>
<!-- ITF&#45;G_gain_control -->
<g id="node22" class="node"><title>ITF&#45;G_gain_control</title>
<ellipse fill="yellow" stroke="black" cx="414.815" cy="-450" rx="81.7856" ry="18"/>
<text text-anchor="middle" x="414.815" y="-446.3" font-family="Times,serif" font-size="14.00">ITF&#45;G_gain_control</text>
</g>
<!-- oneeye&#45;&gt;ITF&#45;G_gain_control -->
<g id="edge21" class="edge"><title>oneeye&#45;&gt;ITF&#45;G_gain_control</title>
<path fill="none" stroke="black" d="M303.02,-503.876C324.136,-493.889 350.864,-481.247 372.891,-470.829"/>
<polygon fill="red" stroke="black" points="374.47,-473.954 382.013,-466.514 371.477,-467.626 374.47,-473.954"/>
</g>
<!-- croaker -->
<g id="node6" class="node"><title>croaker</title>
<polygon fill="blue" stroke="black" points="563.315,-108 480.315,-108 480.315,-72 563.315,-72 563.315,-108"/>
<text text-anchor="middle" x="521.815" y="-84.4" font-family="Times,serif" font-size="22.00">croaker</text>
</g>
<!-- ITF&#45;mED&#45;TFT&#45;Screen -->
<g id="node24" class="node"><title>ITF&#45;mED&#45;TFT&#45;Screen</title>
<ellipse fill="green" stroke="black" cx="270.815" cy="-18" rx="90.9839" ry="18"/>
<text text-anchor="middle" x="270.815" y="-14.3" font-family="Times,serif" font-size="14.00">ITF&#45;mED&#45;TFT&#45;Screen</text>
</g>
<!-- croaker&#45;&gt;ITF&#45;mED&#45;TFT&#45;Screen -->
<g id="edge30" class="edge"><title>croaker&#45;&gt;ITF&#45;mED&#45;TFT&#45;Screen</title>
<path fill="none" stroke="black" d="M480.086,-77.3623C439.436,-66.0258 377.207,-48.6712 331.166,-35.8309"/>
<polygon fill="red" stroke="black" points="331.88,-32.3966 321.307,-33.0815 329.999,-39.1393 331.88,-32.3966"/>
</g>
<!-- ITF&#45;mED&#45;OLED&#45;Screen -->
<g id="node25" class="node"><title>ITF&#45;mED&#45;OLED&#45;Screen</title>
<ellipse fill="green" stroke="black" cx="732.815" cy="-18" rx="98.5829" ry="18"/>
<text text-anchor="middle" x="732.815" y="-14.3" font-family="Times,serif" font-size="14.00">ITF&#45;mED&#45;OLED&#45;Screen</text>
</g>
<!-- croaker&#45;&gt;ITF&#45;mED&#45;OLED&#45;Screen -->
<g id="edge31" class="edge"><title>croaker&#45;&gt;ITF&#45;mED&#45;OLED&#45;Screen</title>
<path fill="none" stroke="black" d="M563.502,-75.1703C596.216,-64.3171 642.044,-49.1137 677.772,-37.2607"/>
<polygon fill="red" stroke="black" points="679.173,-40.4835 687.562,-34.0127 676.969,-33.8396 679.173,-40.4835"/>
</g>
<!-- ITF&#45;mEC&#45;WiFi&#45;UDP&#45;Stream -->
<g id="node26" class="node"><title>ITF&#45;mEC&#45;WiFi&#45;UDP&#45;Stream</title>
<ellipse fill="green" stroke="black" cx="500.815" cy="-18" rx="115.88" ry="18"/>
<text text-anchor="middle" x="500.815" y="-14.3" font-family="Times,serif" font-size="14.00">ITF&#45;mEC&#45;WiFi&#45;UDP&#45;Stream</text>
</g>
<!-- croaker&#45;&gt;ITF&#45;mEC&#45;WiFi&#45;UDP&#45;Stream -->
<g id="edge32" class="edge"><title>croaker&#45;&gt;ITF&#45;mEC&#45;WiFi&#45;UDP&#45;Stream</title>
<path fill="none" stroke="black" d="M516.624,-71.6966C514.284,-63.8979 511.467,-54.5085 508.864,-45.8292"/>
<polygon fill="red" stroke="black" points="512.172,-44.6769 505.946,-36.1043 505.467,-46.6883 512.172,-44.6769"/>
</g>
<!-- retroATL3 -->
<g id="node7" class="node"><title>retroATL3</title>
<polygon fill="blue" stroke="black" points="1305.31,-108 1192.31,-108 1192.31,-72 1305.31,-72 1305.31,-108"/>
<text text-anchor="middle" x="1248.81" y="-84.4" font-family="Times,serif" font-size="22.00">retroATL3</text>
</g>
<!-- retroATL3&#45;&gt;ITF&#45;mET_Transducer -->
<g id="edge40" class="edge"><title>retroATL3&#45;&gt;ITF&#45;mET_Transducer</title>
<path fill="none" stroke="black" d="M1253.98,-108.104C1254.45,-115.791 1254.29,-125.054 1253.59,-133.665"/>
<polygon fill="red" stroke="black" points="1250.1,-133.37 1252.47,-143.697 1257.06,-134.146 1250.1,-133.37"/>
</g>
<!-- Motor -->
<g id="node28" class="node"><title>Motor</title>
<ellipse fill="yellow" stroke="black" cx="1248.81" cy="-18" rx="33.2948" ry="18"/>
<text text-anchor="middle" x="1248.81" y="-14.3" font-family="Times,serif" font-size="14.00">Motor</text>
</g>
<!-- retroATL3&#45;&gt;Motor -->
<g id="edge39" class="edge"><title>retroATL3&#45;&gt;Motor</title>
<path fill="none" stroke="black" d="M1242.9,-71.6966C1242.1,-63.9827 1241.88,-54.7125 1242.22,-46.1124"/>
<polygon fill="red" stroke="black" points="1245.71,-46.3243 1242.92,-36.1043 1238.73,-45.8356 1245.71,-46.3243"/>
</g>
<!-- Tri&#45;Piezo Head -->
<g id="node29" class="node"><title>Tri&#45;Piezo Head</title>
<ellipse fill="yellow" stroke="black" cx="1364.81" cy="-18" rx="64.9885" ry="18"/>
<text text-anchor="middle" x="1364.81" y="-14.3" font-family="Times,serif" font-size="14.00">Tri&#45;Piezo Head</text>
</g>
<!-- retroATL3&#45;&gt;Tri&#45;Piezo Head -->
<g id="edge41" class="edge"><title>retroATL3&#45;&gt;Tri&#45;Piezo Head</title>
<path fill="none" stroke="black" d="M1271.29,-71.8761C1286.6,-62.0184 1307.12,-49.5747 1325.1,-39.2356"/>
<polygon fill="red" stroke="black" points="1327.26,-42.032 1334.22,-34.0456 1323.8,-35.9474 1327.26,-42.032"/>
</g>
<!-- toadkiller -->
<g id="node8" class="node"><title>toadkiller</title>
<polygon fill="blue" stroke="black" points="307.315,-252 206.315,-252 206.315,-216 307.315,-216 307.315,-252"/>
<text text-anchor="middle" x="256.815" y="-228.4" font-family="Times,serif" font-size="22.00">toadkiller</text>
</g>
<!-- toadkiller&#45;&gt;ITF&#45;I_pulse_on -->
<g id="edge48" class="edge"><title>toadkiller&#45;&gt;ITF&#45;I_pulse_on</title>
<path fill="none" stroke="black" d="M235.556,-215.697C224.483,-206.683 210.799,-195.545 198.868,-185.834"/>
<polygon fill="red" stroke="black" points="200.908,-182.981 190.942,-179.383 196.489,-188.41 200.908,-182.981"/>
</g>
<!-- toadkiller&#45;&gt;ITF&#45;J_pulse_off -->
<g id="edge49" class="edge"><title>toadkiller&#45;&gt;ITF&#45;J_pulse_off</title>
<path fill="none" stroke="black" d="M307.545,-219.681C312.366,-218.431 317.182,-217.188 321.815,-216 373.638,-202.715 432.709,-187.906 475.143,-177.326"/>
<polygon fill="red" stroke="black" points="476.158,-180.68 485.015,-174.866 474.466,-173.888 476.158,-180.68"/>
</g>
<!-- toadkiller&#45;&gt;ITF&#45;N_cc_motor_pwm -->
<g id="edge50" class="edge"><title>toadkiller&#45;&gt;ITF&#45;N_cc_motor_pwm</title>
<path fill="none" stroke="black" d="M307.482,-228.271C432.015,-216.648 754.52,-186.548 914.302,-171.635"/>
<polygon fill="red" stroke="black" points="914.956,-175.089 924.588,-170.675 914.306,-168.119 914.956,-175.089"/>
</g>
<!-- toadkiller&#45;&gt;ITF&#45;mED&#45;TFT&#45;Screen -->
<g id="edge47" class="edge"><title>toadkiller&#45;&gt;ITF&#45;mED&#45;TFT&#45;Screen</title>
<path fill="none" stroke="black" d="M257.937,-215.849C260.359,-178.832 266.093,-91.1809 269.023,-46.3863"/>
<polygon fill="red" stroke="black" points="272.527,-46.4396 269.688,-36.2325 265.542,-45.9826 272.527,-46.4396"/>
</g>
<!-- WiFi UDP Stream -->
<g id="node30" class="node"><title>WiFi UDP Stream</title>
<ellipse fill="yellow" stroke="black" cx="369.815" cy="-162" rx="77.1866" ry="18"/>
<text text-anchor="middle" x="369.815" y="-158.3" font-family="Times,serif" font-size="14.00">WiFi UDP Stream</text>
</g>
<!-- toadkiller&#45;&gt;WiFi UDP Stream -->
<g id="edge46" class="edge"><title>toadkiller&#45;&gt;WiFi UDP Stream</title>
<path fill="none" stroke="black" d="M284.458,-215.876C299.784,-206.382 318.982,-194.489 335.288,-184.388"/>
<polygon fill="red" stroke="black" points="337.349,-187.229 344.007,-178.987 333.662,-181.278 337.349,-187.229"/>
</g>
<!-- goblin -->
<g id="node9" class="node"><title>goblin</title>
<polygon fill="blue" stroke="black" points="727.815,-396 653.815,-396 653.815,-360 727.815,-360 727.815,-396"/>
<text text-anchor="middle" x="690.815" y="-372.4" font-family="Times,serif" font-size="22.00">goblin</text>
</g>
<!-- ITF&#45;E_signal_envelope -->
<g id="node23" class="node"><title>ITF&#45;E_signal_envelope</title>
<ellipse fill="yellow" stroke="black" cx="464.815" cy="-306" rx="93.6835" ry="18"/>
<text text-anchor="middle" x="464.815" y="-302.3" font-family="Times,serif" font-size="14.00">ITF&#45;E_signal_envelope</text>
</g>
<!-- goblin&#45;&gt;ITF&#45;E_signal_envelope -->
<g id="edge60" class="edge"><title>goblin&#45;&gt;ITF&#45;E_signal_envelope</title>
<path fill="none" stroke="black" d="M653.788,-367.045C616.673,-356.177 559.372,-338.545 517.544,-325.192"/>
<polygon fill="red" stroke="black" points="518.393,-321.788 507.801,-322.069 516.256,-328.454 518.393,-321.788"/>
</g>
<!-- ITF&#45;C_amplified_raw_signal -->
<g id="node31" class="node"><title>ITF&#45;C_amplified_raw_signal</title>
<ellipse fill="yellow" stroke="black" cx="690.815" cy="-306" rx="114.28" ry="18"/>
<text text-anchor="middle" x="690.815" y="-302.3" font-family="Times,serif" font-size="14.00">ITF&#45;C_amplified_raw_signal</text>
</g>
<!-- goblin&#45;&gt;ITF&#45;C_amplified_raw_signal -->
<g id="edge59" class="edge"><title>goblin&#45;&gt;ITF&#45;C_amplified_raw_signal</title>
<path fill="none" stroke="black" d="M684.899,-359.697C684.103,-351.983 683.877,-342.712 684.22,-334.112"/>
<polygon fill="red" stroke="black" points="687.713,-334.324 684.92,-324.104 680.73,-333.836 687.713,-334.324"/>
</g>
<!-- ITF&#45;mEG_SPI -->
<g id="node32" class="node"><title>ITF&#45;mEG_SPI</title>
<ellipse fill="green" stroke="black" cx="885.815" cy="-306" rx="63.0888" ry="18"/>
<text text-anchor="middle" x="885.815" y="-302.3" font-family="Times,serif" font-size="14.00">ITF&#45;mEG_SPI</text>
</g>
<!-- goblin&#45;&gt;ITF&#45;mEG_SPI -->
<g id="edge61" class="edge"><title>goblin&#45;&gt;ITF&#45;mEG_SPI</title>
<path fill="none" stroke="black" d="M727.952,-363.669C759.331,-352.404 804.463,-336.203 838.44,-324.006"/>
<polygon fill="red" stroke="black" points="839.923,-327.193 848.152,-320.52 837.557,-320.605 839.923,-327.193"/>
</g>
<!-- silent -->
<g id="node10" class="node"><title>silent</title>
<polygon fill="blue" stroke="black" points="767.815,-108 703.815,-108 703.815,-72 767.815,-72 767.815,-108"/>
<text text-anchor="middle" x="735.815" y="-84.4" font-family="Times,serif" font-size="22.00">silent</text>
</g>
<!-- silent&#45;&gt;ITF&#45;R_reserved -->
<g id="edge65" class="edge"><title>silent&#45;&gt;ITF&#45;R_reserved</title>
<path fill="none" stroke="black" d="M746.318,-108.391C766.637,-140.731 814.334,-210.587 870.815,-252 904.562,-276.744 934.56,-253.21 957.815,-288 990.96,-337.585 926.581,-396.161 884.402,-427.177"/>
<polygon fill="red" stroke="black" points="882.12,-424.507 876.039,-433.183 886.203,-430.192 882.12,-424.507"/>
</g>
<!-- mogaba -->
<g id="node11" class="node"><title>mogaba</title>
<polygon fill="blue" stroke="black" points="1028.31,-684 941.315,-684 941.315,-648 1028.31,-648 1028.31,-684"/>
<text text-anchor="middle" x="984.815" y="-660.4" font-family="Times,serif" font-size="22.00">mogaba</text>
</g>
<!-- ITF&#45;A_gnd -->
<g id="node12" class="node"><title>ITF&#45;A_gnd</title>
<ellipse fill="yellow" stroke="black" cx="984.815" cy="-594" rx="50.8918" ry="18"/>
<text text-anchor="middle" x="984.815" y="-590.3" font-family="Times,serif" font-size="14.00">ITF&#45;A_gnd</text>
</g>
<!-- mogaba&#45;&gt;ITF&#45;A_gnd -->
<g id="edge68" class="edge"><title>mogaba&#45;&gt;ITF&#45;A_gnd</title>
<path fill="none" stroke="black" d="M984.815,-647.697C984.815,-639.983 984.815,-630.712 984.815,-622.112"/>
<polygon fill="red" stroke="black" points="988.315,-622.104 984.815,-612.104 981.315,-622.104 988.315,-622.104"/>
</g>
<!-- ITF&#45;B_5v -->
<g id="node13" class="node"><title>ITF&#45;B_5v</title>
<ellipse fill="yellow" stroke="black" cx="190.815" cy="-594" rx="46.2923" ry="18"/>
<text text-anchor="middle" x="190.815" y="-590.3" font-family="Times,serif" font-size="14.00">ITF&#45;B_5v</text>
</g>
<!-- mogaba&#45;&gt;ITF&#45;B_5v -->
<g id="edge69" class="edge"><title>mogaba&#45;&gt;ITF&#45;B_5v</title>
<path fill="none" stroke="black" d="M941.279,-661.162C806.34,-649.265 395.224,-613.021 245.823,-599.85"/>
<polygon fill="red" stroke="black" points="245.795,-596.334 235.526,-598.942 245.18,-603.307 245.795,-596.334"/>
</g>
<!-- ITF&#45;S_3_3v -->
<g id="node16" class="node"><title>ITF&#45;S_3_3v</title>
<ellipse fill="yellow" stroke="black" cx="630.815" cy="-594" rx="53.8905" ry="18"/>
<text text-anchor="middle" x="630.815" y="-590.3" font-family="Times,serif" font-size="14.00">ITF&#45;S_3_3v</text>
</g>
<!-- mogaba&#45;&gt;ITF&#45;S_3_3v -->
<g id="edge71" class="edge"><title>mogaba&#45;&gt;ITF&#45;S_3_3v</title>
<path fill="none" stroke="black" d="M941.052,-656.346C876.609,-643.603 756.236,-619.801 685.877,-605.888"/>
<polygon fill="red" stroke="black" points="686.361,-602.416 675.872,-603.91 685.003,-609.283 686.361,-602.416"/>
</g>
<!-- ITF&#45;F_12V -->
<g id="node27" class="node"><title>ITF&#45;F_12V</title>
<ellipse fill="yellow" stroke="black" cx="1104.81" cy="-594" rx="51.1914" ry="18"/>
<text text-anchor="middle" x="1104.81" y="-590.3" font-family="Times,serif" font-size="14.00">ITF&#45;F_12V</text>
</g>
<!-- mogaba&#45;&gt;ITF&#45;F_12V -->
<g id="edge70" class="edge"><title>mogaba&#45;&gt;ITF&#45;F_12V</title>
<path fill="none" stroke="black" d="M1008.27,-647.876C1024.92,-637.533 1047.48,-624.344 1066.66,-613.725"/>
<polygon fill="red" stroke="black" points="1068.39,-616.768 1075.48,-608.895 1065.03,-610.628 1068.39,-616.768"/>
</g>
<!-- ITF&#45;A_gnd&#45;&gt;tobo -->
<g id="edge1" class="edge"><title>ITF&#45;A_gnd&#45;&gt;tobo</title>
<path fill="none" stroke="black" d="M944.304,-583.119C888.853,-569.595 790.038,-545.493 735.891,-532.287"/>
<polygon fill="black" stroke="black" points="736.546,-528.844 726.002,-529.875 734.888,-535.645 736.546,-528.844"/>
</g>
<!-- ITF&#45;A_gnd&#45;&gt;cletus -->
<g id="edge10" class="edge"><title>ITF&#45;A_gnd&#45;&gt;cletus</title>
<path fill="none" stroke="black" d="M1021.06,-581.378C1115.67,-550.787 1362.81,-469.139 1362.81,-451 1362.81,-451 1362.81,-451 1362.81,-233 1362.81,-192.553 1372.26,-172.757 1343.81,-144 1292.56,-92.1774 1254.24,-126.777 1183.81,-108 1180.22,-107.043 1176.52,-106.005 1172.8,-104.93"/>
<polygon fill="black" stroke="black" points="1173.6,-101.518 1163.02,-102.028 1171.61,-108.228 1173.6,-101.518"/>
</g>
<!-- ITF&#45;A_gnd&#45;&gt;oneeye -->
<g id="edge18" class="edge"><title>ITF&#45;A_gnd&#45;&gt;oneeye</title>
<path fill="none" stroke="black" d="M936.59,-588.298C806.637,-575.629 450.04,-540.863 317.394,-527.931"/>
<polygon fill="black" stroke="black" points="317.411,-524.416 307.119,-526.929 316.732,-531.383 317.411,-524.416"/>
</g>
<!-- ITF&#45;A_gnd&#45;&gt;croaker -->
<g id="edge25" class="edge"><title>ITF&#45;A_gnd&#45;&gt;croaker</title>
<path fill="none" stroke="black" d="M996.757,-576.179C1003.24,-566.155 1010.74,-552.905 1014.81,-540 1048.79,-432.449 1065.2,-367.117 984.815,-288 865.994,-171.059 667.018,-118.991 573.432,-100.062"/>
<polygon fill="black" stroke="black" points="573.85,-96.5769 563.361,-98.0712 572.492,-103.444 573.85,-96.5769"/>
</g>
<!-- ITF&#45;A_gnd&#45;&gt;retroATL3 -->
<g id="edge33" class="edge"><title>ITF&#45;A_gnd&#45;&gt;retroATL3</title>
<path fill="none" stroke="black" d="M1022.49,-581.945C1029.87,-579.887 1037.57,-577.815 1044.81,-576 1207.48,-535.251 1400.81,-618.692 1400.81,-451 1400.81,-451 1400.81,-451 1400.81,-233 1400.81,-190.656 1395.89,-174.786 1366.81,-144 1352.7,-129.054 1333.59,-118.021 1314.87,-110.012"/>
<polygon fill="black" stroke="black" points="1316.02,-106.702 1305.44,-106.208 1313.4,-113.194 1316.02,-106.702"/>
</g>
<!-- ITF&#45;A_gnd&#45;&gt;toadkiller -->
<g id="edge42" class="edge"><title>ITF&#45;A_gnd&#45;&gt;toadkiller</title>
<path fill="none" stroke="black" d="M989.804,-576.084C1003.9,-524.383 1038.01,-367.175 957.815,-288 912.745,-243.505 479.914,-236.321 317.753,-235.195"/>
<polygon fill="black" stroke="black" points="317.493,-231.694 307.47,-235.13 317.448,-238.694 317.493,-231.694"/>
</g>
<!-- ITF&#45;A_gnd&#45;&gt;goblin -->
<g id="edge51" class="edge"><title>ITF&#45;A_gnd&#45;&gt;goblin</title>
<path fill="none" stroke="black" d="M979.772,-575.857C968.031,-536.432 939.02,-441.933 927.815,-432 900.152,-407.479 799.186,-391.683 738.318,-384.165"/>
<polygon fill="black" stroke="black" points="738.526,-380.664 728.179,-382.943 737.689,-387.614 738.526,-380.664"/>
</g>
<!-- ITF&#45;A_gnd&#45;&gt;silent -->
<g id="edge62" class="edge"><title>ITF&#45;A_gnd&#45;&gt;silent</title>
<path fill="none" stroke="black" d="M1021.64,-581.419C1041.15,-573.193 1063.39,-559.993 1074.81,-540 1102.94,-490.803 1224.4,-553.615 1066.81,-288 1049.94,-259.561 861.55,-157.467 776.752,-112.511"/>
<polygon fill="black" stroke="black" points="778.385,-109.415 767.909,-107.831 775.11,-115.602 778.385,-109.415"/>
</g>
<!-- ITF&#45;B_5v&#45;&gt;tobo -->
<g id="edge2" class="edge"><title>ITF&#45;B_5v&#45;&gt;tobo</title>
<path fill="none" stroke="black" d="M233.604,-587.092C330.841,-573.667 567.143,-541.041 659.719,-528.26"/>
<polygon fill="black" stroke="black" points="660.338,-531.708 669.765,-526.873 659.381,-524.773 660.338,-531.708"/>
</g>
<!-- ITF&#45;B_5v&#45;&gt;cletus -->
<g id="edge11" class="edge"><title>ITF&#45;B_5v&#45;&gt;cletus</title>
<path fill="none" stroke="black" d="M167.194,-578.312C133.803,-555.513 76.8149,-508.222 76.8149,-451 76.8149,-451 76.8149,-451 76.8149,-233 76.8149,-192.553 65.0328,-170.238 95.8149,-144 98.2065,-141.961 887.248,-102.915 1084.52,-93.1828"/>
<polygon fill="black" stroke="black" points="1084.72,-96.6774 1094.53,-92.6889 1084.37,-89.6859 1084.72,-96.6774"/>
</g>
<!-- ITF&#45;B_5v&#45;&gt;oneeye -->
<g id="edge19" class="edge"><title>ITF&#45;B_5v&#45;&gt;oneeye</title>
<path fill="none" stroke="black" d="M208.06,-577.116C217.717,-568.222 229.952,-556.953 240.754,-547.003"/>
<polygon fill="black" stroke="black" points="243.325,-549.393 248.31,-540.044 238.583,-544.245 243.325,-549.393"/>
</g>
<!-- ITF&#45;B_5v&#45;&gt;croaker -->
<g id="edge26" class="edge"><title>ITF&#45;B_5v&#45;&gt;croaker</title>
<path fill="none" stroke="black" d="M145.499,-590.189C108.11,-585.452 56.2665,-572.921 24.8149,-540 -3.48553,-510.377 0.814887,-491.969 0.814887,-451 0.814887,-451 0.814887,-451 0.814887,-233 0.814887,-192.031 -6.33888,-170.606 24.8149,-144 58.1958,-115.492 349.328,-98.9377 469.882,-93.2513"/>
<polygon fill="black" stroke="black" points="470.151,-96.7427 479.978,-92.7817 469.826,-89.7502 470.151,-96.7427"/>
</g>
<!-- ITF&#45;B_5v&#45;&gt;toadkiller -->
<g id="edge43" class="edge"><title>ITF&#45;B_5v&#45;&gt;toadkiller</title>
<path fill="none" stroke="black" d="M169.496,-577.955C158.056,-568.524 145.056,-555.274 138.815,-540 120.657,-495.567 132.64,-479.601 138.815,-432 147.33,-366.359 138.256,-341.8 176.815,-288 185.647,-275.677 198.308,-265.418 210.961,-257.313"/>
<polygon fill="black" stroke="black" points="212.925,-260.215 219.672,-252.046 209.303,-254.225 212.925,-260.215"/>
</g>
<!-- ITF&#45;B_5v&#45;&gt;goblin -->
<g id="edge52" class="edge"><title>ITF&#45;B_5v&#45;&gt;goblin</title>
<path fill="none" stroke="black" d="M223.322,-580.968C280.811,-559.498 403.968,-512.64 505.815,-468 555.168,-446.369 610.752,-419.246 647.994,-400.662"/>
<polygon fill="black" stroke="black" points="649.675,-403.735 657.052,-396.13 646.543,-397.475 649.675,-403.735"/>
</g>
<!-- ITF&#45;B_5v&#45;&gt;silent -->
<g id="edge63" class="edge"><title>ITF&#45;B_5v&#45;&gt;silent</title>
<path fill="none" stroke="black" d="M149.478,-585.798C121.236,-578.776 85.0386,-565.297 62.8149,-540 35.7759,-509.222 38.8149,-491.969 38.8149,-451 38.8149,-451 38.8149,-451 38.8149,-233 38.8149,-192.031 31.1903,-170.044 62.8149,-144 106.666,-107.886 516.223,-112.947 572.815,-108 613.864,-104.412 660.636,-99.4425 693.518,-95.8034"/>
<polygon fill="black" stroke="black" points="694.129,-99.257 703.68,-94.672 693.355,-92.3 694.129,-99.257"/>
</g>
<!-- ITF&#45;I_pulse_on&#45;&gt;tobo -->
<g id="edge3" class="edge"><title>ITF&#45;I_pulse_on&#45;&gt;tobo</title>
<path fill="none" stroke="black" d="M173.516,-180.344C182.886,-233.982 219.334,-397.779 323.815,-468 378.164,-504.528 575.323,-516.318 659.401,-519.738"/>
<polygon fill="black" stroke="black" points="659.42,-523.241 669.549,-520.132 659.692,-516.246 659.42,-523.241"/>
</g>
<!-- ITF&#45;I_pulse_on&#45;&gt;croaker -->
<g id="edge28" class="edge"><title>ITF&#45;I_pulse_on&#45;&gt;croaker</title>
<path fill="none" stroke="black" d="M222.229,-150.746C288.7,-137.49 403.793,-114.537 470.309,-101.272"/>
<polygon fill="black" stroke="black" points="471.033,-104.696 480.155,-99.3082 469.664,-97.8316 471.033,-104.696"/>
</g>
<!-- ITF&#45;J_pulse_off&#45;&gt;tobo -->
<g id="edge4" class="edge"><title>ITF&#45;J_pulse_off&#45;&gt;tobo</title>
<path fill="none" stroke="black" d="M494.963,-176.965C433.792,-201.835 323.708,-257.485 361.815,-324 395.287,-382.426 580.027,-469.172 660.422,-504.816"/>
<polygon fill="black" stroke="black" points="659.129,-508.071 669.691,-508.904 661.954,-501.666 659.129,-508.071"/>
</g>
<!-- ITF&#45;J_pulse_off&#45;&gt;croaker -->
<g id="edge29" class="edge"><title>ITF&#45;J_pulse_off&#45;&gt;croaker</title>
<path fill="none" stroke="black" d="M530.096,-143.697C528.884,-135.983 527.427,-126.712 526.075,-118.112"/>
<polygon fill="black" stroke="black" points="529.513,-117.44 524.503,-108.104 522.598,-118.526 529.513,-117.44"/>
</g>
<!-- ITF&#45;J_pulse_off&#45;&gt;silent -->
<g id="edge64" class="edge"><title>ITF&#45;J_pulse_off&#45;&gt;silent</title>
<path fill="none" stroke="black" d="M572.437,-147.337C607.453,-135.263 658.356,-117.71 694.012,-105.415"/>
<polygon fill="black" stroke="black" points="695.326,-108.664 703.638,-102.095 693.044,-102.046 695.326,-108.664"/>
</g>
<!-- ITF&#45;S_3_3v&#45;&gt;tobo -->
<g id="edge5" class="edge"><title>ITF&#45;S_3_3v&#45;&gt;tobo</title>
<path fill="none" stroke="black" d="M646.693,-576.411C654.876,-567.861 665.02,-557.263 674.11,-547.766"/>
<polygon fill="black" stroke="black" points="676.73,-550.091 681.116,-540.447 671.673,-545.251 676.73,-550.091"/>
</g>
<!-- ITF&#45;S_3_3v&#45;&gt;cletus -->
<g id="edge13" class="edge"><title>ITF&#45;S_3_3v&#45;&gt;cletus</title>
<path fill="none" stroke="black" d="M685.058,-593.853C814.128,-592.772 1128.81,-570.5 1128.81,-379 1128.81,-379 1128.81,-379 1128.81,-233 1128.81,-192.996 1128.81,-146.653 1128.81,-118.08"/>
<polygon fill="black" stroke="black" points="1132.31,-118.049 1128.81,-108.049 1125.31,-118.049 1132.31,-118.049"/>
</g>
<!-- ITF&#45;S_3_3v&#45;&gt;oneeye -->
<g id="edge20" class="edge"><title>ITF&#45;S_3_3v&#45;&gt;oneeye</title>
<path fill="none" stroke="black" d="M585.083,-584.205C516.653,-571.046 388.089,-546.322 317.098,-532.67"/>
<polygon fill="black" stroke="black" points="317.537,-529.19 307.056,-530.739 316.215,-536.064 317.537,-529.19"/>
</g>
<!-- ITF&#45;S_3_3v&#45;&gt;toadkiller -->
<g id="edge44" class="edge"><title>ITF&#45;S_3_3v&#45;&gt;toadkiller</title>
<path fill="none" stroke="black" d="M578.057,-590.062C472.049,-583.62 241.273,-566.661 217.815,-540 147.334,-459.896 210.683,-318.954 241.849,-261.003"/>
<polygon fill="black" stroke="black" points="244.981,-262.571 246.726,-252.121 238.845,-259.201 244.981,-262.571"/>
</g>
<!-- ITF&#45;S_3_3v&#45;&gt;goblin -->
<g id="edge53" class="edge"><title>ITF&#45;S_3_3v&#45;&gt;goblin</title>
<path fill="none" stroke="black" d="M624.241,-575.903C613.572,-545.221 595.955,-479.585 619.815,-432 625.913,-419.837 636.274,-409.752 647.223,-401.761"/>
<polygon fill="black" stroke="black" points="649.329,-404.562 655.65,-396.059 645.406,-398.764 649.329,-404.562"/>
</g>
<!-- ITF&#45;mET_Transducer&#45;&gt;tobo -->
<g id="edge6" class="edge"><title>ITF&#45;mET_Transducer&#45;&gt;tobo</title>
<path fill="none" stroke="black" d="M1244.5,-180.152C1237.51,-206.513 1219.81,-258.789 1219.81,-305 1219.81,-379 1219.81,-379 1219.81,-379 1219.81,-478.459 857.123,-511.055 736.316,-518.912"/>
<polygon fill="black" stroke="black" points="735.817,-515.436 726.056,-519.557 736.256,-522.423 735.817,-515.436"/>
</g>
<!-- ITF&#45;mET_Transducer&#45;&gt;cletus -->
<g id="edge14" class="edge"><title>ITF&#45;mET_Transducer&#45;&gt;cletus</title>
<path fill="none" stroke="black" d="M1213.5,-145.116C1196.84,-135.79 1176.69,-123.853 1160.17,-113.564"/>
<polygon fill="black" stroke="black" points="1161.74,-110.415 1151.41,-108.044 1158.01,-116.337 1161.74,-110.415"/>
</g>
<!-- ITF&#45;mET_Transducer&#45;&gt;retroATL3 -->
<g id="edge36" class="edge"><title>ITF&#45;mET_Transducer&#45;&gt;retroATL3</title>
<path fill="none" stroke="black" d="M1240.64,-143.697C1240.18,-135.983 1240.35,-126.712 1241.06,-118.112"/>
<polygon fill="black" stroke="black" points="1244.54,-118.434 1242.19,-108.104 1237.59,-117.649 1244.54,-118.434"/>
</g>
<!-- ITF&#45;R_reserved&#45;&gt;goblin -->
<g id="edge57" class="edge"><title>ITF&#45;R_reserved&#45;&gt;goblin</title>
<path fill="none" stroke="black" d="M818.064,-434.326C794.577,-424.114 762.965,-410.37 737.125,-399.135"/>
<polygon fill="black" stroke="black" points="738.458,-395.898 727.892,-395.121 735.667,-402.318 738.458,-395.898"/>
</g>
<!-- ITF&#45;mET_SMA&#45;&gt;goblin -->
<g id="edge58" class="edge"><title>ITF&#45;mET_SMA&#45;&gt;goblin</title>
<path fill="none" stroke="black" d="M696.085,-431.697C695.313,-423.983 694.386,-414.712 693.526,-406.112"/>
<polygon fill="black" stroke="black" points="697.003,-405.706 692.525,-396.104 690.038,-406.403 697.003,-405.706"/>
</g>
<!-- ITF&#45;N_cc_motor_pwm&#45;&gt;cletus -->
<g id="edge12" class="edge"><title>ITF&#45;N_cc_motor_pwm&#45;&gt;cletus</title>
<path fill="none" stroke="black" d="M1035.11,-144.765C1051.42,-135.41 1072.14,-123.516 1089.96,-113.294"/>
<polygon fill="black" stroke="black" points="1092.04,-116.136 1098.97,-108.124 1088.55,-110.065 1092.04,-116.136"/>
</g>
<!-- ITF&#45;N_cc_motor_pwm&#45;&gt;retroATL3 -->
<g id="edge35" class="edge"><title>ITF&#45;N_cc_motor_pwm&#45;&gt;retroATL3</title>
<path fill="none" stroke="black" d="M1056.37,-146.666C1092.78,-136.134 1142.63,-121.714 1182.48,-110.189"/>
<polygon fill="black" stroke="black" points="1183.48,-113.542 1192.11,-107.401 1181.53,-106.818 1183.48,-113.542"/>
</g>
<!-- ITF&#45;mET_Piezo&#45;&gt;cletus -->
<g id="edge15" class="edge"><title>ITF&#45;mET_Piezo&#45;&gt;cletus</title>
<path fill="none" stroke="black" d="M1134.71,-36.1043C1135.52,-43.7913 1135.75,-53.0537 1135.42,-61.6651"/>
<polygon fill="black" stroke="black" points="1131.92,-61.4805 1134.73,-71.6966 1138.91,-61.9597 1131.92,-61.4805"/>
</g>
<!-- ITF&#45;G_gain_control&#45;&gt;goblin -->
<g id="edge54" class="edge"><title>ITF&#45;G_gain_control&#45;&gt;goblin</title>
<path fill="none" stroke="black" d="M466.405,-435.916C517.347,-422.995 594.578,-403.408 643.852,-390.911"/>
<polygon fill="black" stroke="black" points="644.787,-394.285 653.62,-388.434 643.066,-387.499 644.787,-394.285"/>
</g>
<!-- ITF&#45;E_signal_envelope&#45;&gt;croaker -->
<g id="edge27" class="edge"><title>ITF&#45;E_signal_envelope&#45;&gt;croaker</title>
<path fill="none" stroke="black" d="M495.878,-289.017C531.049,-268.958 586.486,-230.913 609.815,-180 616.48,-165.454 617.686,-157.93 609.815,-144 601.532,-129.341 587.39,-118.287 572.838,-110.171"/>
<polygon fill="black" stroke="black" points="574.264,-106.968 563.772,-105.492 571.053,-113.189 574.264,-106.968"/>
</g>
<!-- ITF&#45;E_signal_envelope&#45;&gt;toadkiller -->
<g id="edge45" class="edge"><title>ITF&#45;E_signal_envelope&#45;&gt;toadkiller</title>
<path fill="none" stroke="black" d="M420.449,-290.069C390.26,-279.91 349.947,-266.342 316.888,-255.217"/>
<polygon fill="black" stroke="black" points="317.921,-251.872 307.327,-251.999 315.688,-258.506 317.921,-251.872"/>
</g>
<!-- ITF&#45;E_signal_envelope&#45;&gt;goblin -->
<g id="edge56" class="edge"><title>ITF&#45;E_signal_envelope&#45;&gt;goblin</title>
<path fill="none" stroke="black" d="M516.18,-321.19C554.657,-332.641 606.776,-348.757 644.089,-360.73"/>
<polygon fill="black" stroke="black" points="643.126,-364.096 653.717,-363.834 645.274,-357.434 643.126,-364.096"/>
</g>
<!-- ITF&#45;F_12V&#45;&gt;retroATL3 -->
<g id="edge34" class="edge"><title>ITF&#45;F_12V&#45;&gt;retroATL3</title>
<path fill="none" stroke="black" d="M1155.45,-590.822C1233.38,-586.432 1377.61,-573.856 1414.81,-540 1445.11,-512.425 1438.81,-491.969 1438.81,-451 1438.81,-451 1438.81,-451 1438.81,-233 1438.81,-192.031 1443.12,-173.623 1414.81,-144 1389.04,-117.023 1349.58,-103.738 1315.59,-97.2135"/>
<polygon fill="black" stroke="black" points="1316.16,-93.7601 1305.71,-95.4723 1314.95,-100.654 1316.16,-93.7601"/>
</g>
<!-- ITF&#45;F_12V&#45;&gt;mogaba -->
<g id="edge67" class="edge"><title>ITF&#45;F_12V&#45;&gt;mogaba</title>
<path fill="none" stroke="black" d="M1083.94,-610.514C1068.69,-620.068 1047.64,-632.464 1028.81,-643.019"/>
<polygon fill="black" stroke="black" points="1027.11,-639.961 1020.07,-647.876 1030.51,-646.081 1027.11,-639.961"/>
</g>
<!-- Motor&#45;&gt;retroATL3 -->
<g id="edge37" class="edge"><title>Motor&#45;&gt;retroATL3</title>
<path fill="none" stroke="black" d="M1254.71,-36.1043C1255.52,-43.7913 1255.75,-53.0537 1255.42,-61.6651"/>
<polygon fill="black" stroke="black" points="1251.92,-61.4805 1254.73,-71.6966 1258.91,-61.9597 1251.92,-61.4805"/>
</g>
<!-- Tri&#45;Piezo Head&#45;&gt;retroATL3 -->
<g id="edge38" class="edge"><title>Tri&#45;Piezo Head&#45;&gt;retroATL3</title>
<path fill="none" stroke="black" d="M1343.73,-35.2257C1329.27,-44.5816 1309.74,-56.4797 1292.1,-66.7042"/>
<polygon fill="black" stroke="black" points="1290.02,-63.8628 1283.09,-71.8761 1293.5,-69.934 1290.02,-63.8628"/>
</g>
<!-- ITF&#45;C_amplified_raw_signal&#45;&gt;goblin -->
<g id="edge55" class="edge"><title>ITF&#45;C_amplified_raw_signal&#45;&gt;goblin</title>
<path fill="none" stroke="black" d="M696.71,-324.104C697.515,-331.791 697.752,-341.054 697.419,-349.665"/>
<polygon fill="black" stroke="black" points="693.923,-349.48 696.731,-359.697 700.907,-349.96 693.923,-349.48"/>
</g>
<!-- ITF&#45;mEM_Alimentation -->
<g id="node33" class="node"><title>ITF&#45;mEM_Alimentation</title>
<ellipse fill="green" stroke="black" cx="984.815" cy="-738" rx="98.5829" ry="18"/>
<text text-anchor="middle" x="984.815" y="-734.3" font-family="Times,serif" font-size="14.00">ITF&#45;mEM_Alimentation</text>
</g>
<!-- ITF&#45;mEM_Alimentation&#45;&gt;mogaba -->
<g id="edge66" class="edge"><title>ITF&#45;mEM_Alimentation&#45;&gt;mogaba</title>
<path fill="none" stroke="black" d="M984.815,-719.697C984.815,-711.983 984.815,-702.712 984.815,-694.112"/>
<polygon fill="black" stroke="black" points="988.315,-694.104 984.815,-684.104 981.315,-694.104 988.315,-694.104"/>
</g>
</g>
</svg>
