<?xml version="1.0" encoding="UTF-8" standalone="no"?>
<!DOCTYPE svg PUBLIC "-//W3C//DTD SVG 1.1//EN"
 "http://www.w3.org/Graphics/SVG/1.1/DTD/svg11.dtd">
<!-- Generated by graphviz version 2.38.0 (20140413.2041)
 -->
<!-- Title: %3 Pages: 1 -->
<svg width="2163pt" height="692pt"
 viewBox="0.00 0.00 2162.56 692.00" xmlns="http://www.w3.org/2000/svg" xmlns:xlink="http://www.w3.org/1999/xlink">
<g id="graph0" class="graph" transform="scale(1 1) rotate(0) translate(4 688)">
<title>%3</title>
<polygon fill="white" stroke="none" points="-4,4 -4,-688 2158.56,-688 2158.56,4 -4,4"/>
<!-- sleepy -->
<g id="node1" class="node"><title>sleepy</title>
<polygon fill="blue" stroke="black" points="1411.06,-684 1338.06,-684 1338.06,-648 1411.06,-648 1411.06,-684"/>
<text text-anchor="middle" x="1374.56" y="-660.4" font-family="Times,serif" font-size="22.00">sleepy</text>
</g>
<!-- tobo -->
<g id="node2" class="node"><title>tobo</title>
<polygon fill="blue" stroke="black" points="1200.56,-468 1144.56,-468 1144.56,-432 1200.56,-432 1200.56,-468"/>
<text text-anchor="middle" x="1172.56" y="-444.4" font-family="Times,serif" font-size="22.00">tobo</text>
</g>
<!-- ITF&#45;mET_Transducer -->
<g id="node16" class="node"><title>ITF&#45;mET_Transducer</title>
<ellipse fill="green" stroke="black" cx="1565.56" cy="-378" rx="89.0842" ry="18"/>
<text text-anchor="middle" x="1565.56" y="-374.3" font-family="Times,serif" font-size="14.00">ITF&#45;mET_Transducer</text>
</g>
<!-- tobo&#45;&gt;ITF&#45;mET_Transducer -->
<g id="edge9" class="edge"><title>tobo&#45;&gt;ITF&#45;mET_Transducer</title>
<path fill="none" stroke="black" d="M1200.81,-443.272C1260.52,-432.063 1400.78,-406.994 1488.99,-391.688"/>
<polygon fill="red" stroke="black" points="1489.69,-395.118 1498.95,-389.963 1488.5,-388.221 1489.69,-395.118"/>
</g>
<!-- ITF&#45;R_reserved -->
<g id="node17" class="node"><title>ITF&#45;R_reserved</title>
<ellipse fill="yellow" stroke="black" cx="1057.56" cy="-378" rx="66.8882" ry="18"/>
<text text-anchor="middle" x="1057.56" y="-374.3" font-family="Times,serif" font-size="14.00">ITF&#45;R_reserved</text>
</g>
<!-- tobo&#45;&gt;ITF&#45;R_reserved -->
<g id="edge7" class="edge"><title>tobo&#45;&gt;ITF&#45;R_reserved</title>
<path fill="none" stroke="black" d="M1144.43,-431.876C1128.72,-422.314 1109.01,-410.318 1092.34,-400.17"/>
<polygon fill="red" stroke="black" points="1093.8,-396.96 1083.44,-394.75 1090.16,-402.939 1093.8,-396.96"/>
</g>
<!-- ITF&#45;mET_SMA -->
<g id="node18" class="node"><title>ITF&#45;mET_SMA</title>
<ellipse fill="green" stroke="black" cx="903.563" cy="-378" rx="68.7879" ry="18"/>
<text text-anchor="middle" x="903.563" y="-374.3" font-family="Times,serif" font-size="14.00">ITF&#45;mET_SMA</text>
</g>
<!-- tobo&#45;&gt;ITF&#45;mET_SMA -->
<g id="edge8" class="edge"><title>tobo&#45;&gt;ITF&#45;mET_SMA</title>
<path fill="none" stroke="black" d="M1144.54,-441.707C1101.25,-430.442 1017.23,-408.579 960.752,-393.882"/>
<polygon fill="red" stroke="black" points="961.451,-390.447 950.891,-391.316 959.688,-397.222 961.451,-390.447"/>
</g>
<!-- cletus -->
<g id="node3" class="node"><title>cletus</title>
<polygon fill="blue" stroke="black" points="1599.56,-324 1531.56,-324 1531.56,-288 1599.56,-288 1599.56,-324"/>
<text text-anchor="middle" x="1565.56" y="-300.4" font-family="Times,serif" font-size="22.00">cletus</text>
</g>
<!-- cletus&#45;&gt;ITF&#45;mET_Transducer -->
<g id="edge17" class="edge"><title>cletus&#45;&gt;ITF&#45;mET_Transducer</title>
<path fill="none" stroke="black" d="M1571.46,-324.104C1572.26,-331.791 1572.5,-341.054 1572.17,-349.665"/>
<polygon fill="red" stroke="black" points="1568.67,-349.48 1571.48,-359.697 1575.66,-349.96 1568.67,-349.48"/>
</g>
<!-- ITF&#45;mET_Piezo -->
<g id="node20" class="node"><title>ITF&#45;mET_Piezo</title>
<ellipse fill="green" stroke="black" cx="1565.56" cy="-234" rx="68.7879" ry="18"/>
<text text-anchor="middle" x="1565.56" y="-230.3" font-family="Times,serif" font-size="14.00">ITF&#45;mET_Piezo</text>
</g>
<!-- cletus&#45;&gt;ITF&#45;mET_Piezo -->
<g id="edge16" class="edge"><title>cletus&#45;&gt;ITF&#45;mET_Piezo</title>
<path fill="none" stroke="black" d="M1559.65,-287.697C1558.85,-279.983 1558.63,-270.712 1558.97,-262.112"/>
<polygon fill="red" stroke="black" points="1562.46,-262.324 1559.67,-252.104 1555.48,-261.836 1562.46,-262.324"/>
</g>
<!-- oneeye -->
<g id="node4" class="node"><title>oneeye</title>
<polygon fill="blue" stroke="black" points="1461.56,-468 1381.56,-468 1381.56,-432 1461.56,-432 1461.56,-468"/>
<text text-anchor="middle" x="1421.56" y="-444.4" font-family="Times,serif" font-size="22.00">oneeye</text>
</g>
<!-- ITF&#45;I_pulse_on -->
<g id="node13" class="node"><title>ITF&#45;I_pulse_on</title>
<ellipse fill="yellow" stroke="black" cx="1371.56" cy="-90" rx="65.7887" ry="18"/>
<text text-anchor="middle" x="1371.56" y="-86.3" font-family="Times,serif" font-size="14.00">ITF&#45;I_pulse_on</text>
</g>
<!-- oneeye&#45;&gt;ITF&#45;I_pulse_on -->
<g id="edge22" class="edge"><title>oneeye&#45;&gt;ITF&#45;I_pulse_on</title>
<path fill="none" stroke="black" d="M1461.62,-433.217C1463.28,-432.77 1464.93,-432.361 1466.56,-432 1518.67,-420.451 1909.26,-435.129 1945.56,-396 2027.64,-307.523 1931.11,-406.069 1790.56,-324 1734.33,-291.165 1745.28,-252.8 1691.56,-216 1608.84,-159.33 1496.76,-123.183 1429.56,-105.043"/>
<polygon fill="red" stroke="black" points="1430.14,-101.576 1419.57,-102.392 1428.34,-108.341 1430.14,-101.576"/>
</g>
<!-- ITF&#45;J_pulse_off -->
<g id="node14" class="node"><title>ITF&#45;J_pulse_off</title>
<ellipse fill="yellow" stroke="black" cx="1047.56" cy="-90" rx="67.6881" ry="18"/>
<text text-anchor="middle" x="1047.56" y="-86.3" font-family="Times,serif" font-size="14.00">ITF&#45;J_pulse_off</text>
</g>
<!-- oneeye&#45;&gt;ITF&#45;J_pulse_off -->
<g id="edge23" class="edge"><title>oneeye&#45;&gt;ITF&#45;J_pulse_off</title>
<path fill="none" stroke="black" d="M1461.68,-433.435C1463.32,-432.928 1464.95,-432.447 1466.56,-432 1552.32,-408.176 1606.56,-464.36 1663.56,-396 1695.11,-358.166 1742.09,-310.146 1643.56,-216 1580.96,-156.178 1339.5,-201.29 1255.56,-180 1193.22,-164.187 1125.53,-132.191 1084.84,-111.183"/>
<polygon fill="red" stroke="black" points="1086.33,-108.009 1075.84,-106.487 1083.09,-114.215 1086.33,-108.009"/>
</g>
<!-- ITF&#45;N_cc_motor_pwm -->
<g id="node19" class="node"><title>ITF&#45;N_cc_motor_pwm</title>
<ellipse fill="yellow" stroke="black" cx="1842.56" cy="-378" rx="93.6835" ry="18"/>
<text text-anchor="middle" x="1842.56" y="-374.3" font-family="Times,serif" font-size="14.00">ITF&#45;N_cc_motor_pwm</text>
</g>
<!-- oneeye&#45;&gt;ITF&#45;N_cc_motor_pwm -->
<g id="edge24" class="edge"><title>oneeye&#45;&gt;ITF&#45;N_cc_motor_pwm</title>
<path fill="none" stroke="black" d="M1461.76,-435.538C1466.38,-434.23 1471.06,-433.015 1475.56,-432 1588.94,-406.462 1619.6,-413.036 1734.56,-396 1743.83,-394.627 1753.54,-393.151 1763.17,-391.664"/>
<polygon fill="red" stroke="black" points="1763.82,-395.105 1773.16,-390.113 1762.75,-388.188 1763.82,-395.105"/>
</g>
<!-- ITF&#45;G_gain_control -->
<g id="node21" class="node"><title>ITF&#45;G_gain_control</title>
<ellipse fill="yellow" stroke="black" cx="1338.56" cy="-378" rx="81.7856" ry="18"/>
<text text-anchor="middle" x="1338.56" y="-374.3" font-family="Times,serif" font-size="14.00">ITF&#45;G_gain_control</text>
</g>
<!-- oneeye&#45;&gt;ITF&#45;G_gain_control -->
<g id="edge21" class="edge"><title>oneeye&#45;&gt;ITF&#45;G_gain_control</title>
<path fill="none" stroke="black" d="M1401.05,-431.697C1390.54,-422.835 1377.6,-411.92 1366.22,-402.326"/>
<polygon fill="red" stroke="black" points="1368.17,-399.394 1358.27,-395.622 1363.66,-404.745 1368.17,-399.394"/>
</g>
<!-- croaker -->
<g id="node5" class="node"><title>croaker</title>
<polygon fill="blue" stroke="black" points="118.063,-180 35.063,-180 35.063,-144 118.063,-144 118.063,-180"/>
<text text-anchor="middle" x="76.563" y="-156.4" font-family="Times,serif" font-size="22.00">croaker</text>
</g>
<!-- Screen -->
<g id="node23" class="node"><title>Screen</title>
<ellipse fill="yellow" stroke="black" cx="69.563" cy="-90" rx="34.394" ry="18"/>
<text text-anchor="middle" x="69.563" y="-86.3" font-family="Times,serif" font-size="14.00">Screen</text>
</g>
<!-- croaker&#45;&gt;Screen -->
<g id="edge28" class="edge"><title>croaker&#45;&gt;Screen</title>
<path fill="none" stroke="black" d="M74.8326,-143.697C74.0612,-135.983 73.1342,-126.712 72.2742,-118.112"/>
<polygon fill="red" stroke="black" points="75.7511,-117.706 71.2734,-108.104 68.7859,-118.403 75.7511,-117.706"/>
</g>
<!-- WiFi -->
<g id="node24" class="node"><title>WiFi</title>
<ellipse fill="yellow" stroke="black" cx="151.563" cy="-90" rx="29.4969" ry="18"/>
<text text-anchor="middle" x="151.563" y="-86.3" font-family="Times,serif" font-size="14.00">WiFi</text>
</g>
<!-- croaker&#45;&gt;WiFi -->
<g id="edge29" class="edge"><title>croaker&#45;&gt;WiFi</title>
<path fill="none" stroke="black" d="M95.1023,-143.697C105.155,-134.314 117.675,-122.629 128.369,-112.648"/>
<polygon fill="red" stroke="black" points="130.849,-115.12 135.772,-105.738 126.073,-110.003 130.849,-115.12"/>
</g>
<!-- retroATL3 -->
<g id="node6" class="node"><title>retroATL3</title>
<polygon fill="blue" stroke="black" points="1912.06,-324 1799.06,-324 1799.06,-288 1912.06,-288 1912.06,-324"/>
<text text-anchor="middle" x="1855.56" y="-300.4" font-family="Times,serif" font-size="22.00">retroATL3</text>
</g>
<!-- retroATL3&#45;&gt;ITF&#45;mET_Transducer -->
<g id="edge37" class="edge"><title>retroATL3&#45;&gt;ITF&#45;mET_Transducer</title>
<path fill="none" stroke="black" d="M1798.91,-322.042C1751.52,-333.831 1683.89,-350.156 1633.59,-361.947"/>
<polygon fill="red" stroke="black" points="1632.71,-358.558 1623.77,-364.242 1634.3,-365.374 1632.71,-358.558"/>
</g>
<!-- Motor -->
<g id="node26" class="node"><title>Motor</title>
<ellipse fill="yellow" stroke="black" cx="1831.56" cy="-234" rx="33.2948" ry="18"/>
<text text-anchor="middle" x="1831.56" y="-230.3" font-family="Times,serif" font-size="14.00">Motor</text>
</g>
<!-- retroATL3&#45;&gt;Motor -->
<g id="edge36" class="edge"><title>retroATL3&#45;&gt;Motor</title>
<path fill="none" stroke="black" d="M1843.71,-287.697C1840.24,-279.898 1836.79,-270.509 1834.18,-261.829"/>
<polygon fill="red" stroke="black" points="1837.53,-260.835 1831.53,-252.104 1830.78,-262.672 1837.53,-260.835"/>
</g>
<!-- Tri&#45;Piezo Head -->
<g id="node27" class="node"><title>Tri&#45;Piezo Head</title>
<ellipse fill="yellow" stroke="black" cx="1947.56" cy="-234" rx="64.9885" ry="18"/>
<text text-anchor="middle" x="1947.56" y="-230.3" font-family="Times,serif" font-size="14.00">Tri&#45;Piezo Head</text>
</g>
<!-- retroATL3&#45;&gt;Tri&#45;Piezo Head -->
<g id="edge38" class="edge"><title>retroATL3&#45;&gt;Tri&#45;Piezo Head</title>
<path fill="none" stroke="black" d="M1872.39,-287.697C1883.76,-278.309 1899,-266.616 1912.84,-256.631"/>
<polygon fill="red" stroke="black" points="1915.11,-259.316 1921.23,-250.671 1911.05,-253.61 1915.11,-259.316"/>
</g>
<!-- kina -->
<g id="node7" class="node"><title>kina</title>
<polygon fill="blue" stroke="black" points="1319.06,-180 1264.06,-180 1264.06,-144 1319.06,-144 1319.06,-180"/>
<text text-anchor="middle" x="1291.56" y="-156.4" font-family="Times,serif" font-size="22.00">kina</text>
</g>
<!-- kina&#45;&gt;ITF&#45;I_pulse_on -->
<g id="edge45" class="edge"><title>kina&#45;&gt;ITF&#45;I_pulse_on</title>
<path fill="none" stroke="black" d="M1305.42,-143.697C1314.93,-134.552 1327.74,-123.22 1339.61,-113.41"/>
<polygon fill="red" stroke="black" points="1342.06,-115.926 1347.62,-106.907 1337.65,-110.49 1342.06,-115.926"/>
</g>
<!-- kina&#45;&gt;ITF&#45;J_pulse_off -->
<g id="edge46" class="edge"><title>kina&#45;&gt;ITF&#45;J_pulse_off</title>
<path fill="none" stroke="black" d="M1263.73,-149.156C1259.04,-147.327 1254.19,-145.537 1249.56,-144 1202.46,-128.358 1147.97,-114.29 1107.46,-104.584"/>
<polygon fill="red" stroke="black" points="1108.01,-101.119 1097.48,-102.213 1106.4,-107.929 1108.01,-101.119"/>
</g>
<!-- WiFi UDP Stream -->
<g id="node29" class="node"><title>WiFi UDP Stream</title>
<ellipse fill="yellow" stroke="black" cx="1210.56" cy="-90" rx="77.1866" ry="18"/>
<text text-anchor="middle" x="1210.56" y="-86.3" font-family="Times,serif" font-size="14.00">WiFi UDP Stream</text>
</g>
<!-- kina&#45;&gt;WiFi UDP Stream -->
<g id="edge44" class="edge"><title>kina&#45;&gt;WiFi UDP Stream</title>
<path fill="none" stroke="black" d="M1271.54,-143.697C1261.29,-134.835 1248.66,-123.92 1237.55,-114.326"/>
<polygon fill="red" stroke="black" points="1239.65,-111.513 1229.8,-107.622 1235.07,-116.809 1239.65,-111.513"/>
</g>
<!-- goblin -->
<g id="node8" class="node"><title>goblin</title>
<polygon fill="blue" stroke="black" points="843.563,-324 769.563,-324 769.563,-288 843.563,-288 843.563,-324"/>
<text text-anchor="middle" x="806.563" y="-300.4" font-family="Times,serif" font-size="22.00">goblin</text>
</g>
<!-- ITF&#45;mEG_SPI -->
<g id="node22" class="node"><title>ITF&#45;mEG_SPI</title>
<ellipse fill="green" stroke="black" cx="205.563" cy="-234" rx="63.0888" ry="18"/>
<text text-anchor="middle" x="205.563" y="-230.3" font-family="Times,serif" font-size="14.00">ITF&#45;mEG_SPI</text>
</g>
<!-- goblin&#45;&gt;ITF&#45;mEG_SPI -->
<g id="edge60" class="edge"><title>goblin&#45;&gt;ITF&#45;mEG_SPI</title>
<path fill="none" stroke="black" d="M769.421,-300.674C670.5,-289.152 399.572,-257.597 272.728,-242.823"/>
<polygon fill="red" stroke="black" points="273.084,-239.341 262.746,-241.66 272.274,-246.294 273.084,-239.341"/>
</g>
<!-- ITF&#45;E_signal_envelope -->
<g id="node28" class="node"><title>ITF&#45;E_signal_envelope</title>
<ellipse fill="yellow" stroke="black" cx="964.563" cy="-234" rx="93.6835" ry="18"/>
<text text-anchor="middle" x="964.563" y="-230.3" font-family="Times,serif" font-size="14.00">ITF&#45;E_signal_envelope</text>
</g>
<!-- goblin&#45;&gt;ITF&#45;E_signal_envelope -->
<g id="edge59" class="edge"><title>goblin&#45;&gt;ITF&#45;E_signal_envelope</title>
<path fill="none" stroke="black" d="M839.317,-287.876C861.257,-277.683 890.438,-264.725 915.156,-254.188"/>
<polygon fill="red" stroke="black" points="916.543,-257.402 924.386,-250.279 913.813,-250.956 916.543,-257.402"/>
</g>
<!-- ITF&#45;C_amplified_raw_signal -->
<g id="node31" class="node"><title>ITF&#45;C_amplified_raw_signal</title>
<ellipse fill="yellow" stroke="black" cx="627.563" cy="-234" rx="114.28" ry="18"/>
<text text-anchor="middle" x="627.563" y="-230.3" font-family="Times,serif" font-size="14.00">ITF&#45;C_amplified_raw_signal</text>
</g>
<!-- goblin&#45;&gt;ITF&#45;C_amplified_raw_signal -->
<g id="edge57" class="edge"><title>goblin&#45;&gt;ITF&#45;C_amplified_raw_signal</title>
<path fill="none" stroke="black" d="M769.245,-292.485C741.094,-282.088 702.484,-267.101 672.628,-255.036"/>
<polygon fill="red" stroke="black" points="673.848,-251.754 663.267,-251.231 671.213,-258.238 673.848,-251.754"/>
</g>
<!-- ADL5511 -->
<g id="node33" class="node"><title>ADL5511</title>
<ellipse fill="yellow" stroke="black" cx="806.563" cy="-234" rx="46.2923" ry="18"/>
<text text-anchor="middle" x="806.563" y="-230.3" font-family="Times,serif" font-size="14.00">ADL5511</text>
</g>
<!-- goblin&#45;&gt;ADL5511 -->
<g id="edge58" class="edge"><title>goblin&#45;&gt;ADL5511</title>
<path fill="none" stroke="black" d="M806.563,-287.697C806.563,-279.983 806.563,-270.712 806.563,-262.112"/>
<polygon fill="red" stroke="black" points="810.063,-262.104 806.563,-252.104 803.063,-262.104 810.063,-262.104"/>
</g>
<!-- silent -->
<g id="node9" class="node"><title>silent</title>
<polygon fill="blue" stroke="black" points="1031.56,-36 967.563,-36 967.563,-0 1031.56,-0 1031.56,-36"/>
<text text-anchor="middle" x="999.563" y="-12.4" font-family="Times,serif" font-size="22.00">silent</text>
</g>
<!-- silent&#45;&gt;ITF&#45;E_signal_envelope -->
<g id="edge66" class="edge"><title>silent&#45;&gt;ITF&#45;E_signal_envelope</title>
<path fill="none" stroke="black" d="M987.44,-36.2646C981.155,-46.2211 974.075,-59.2593 970.563,-72 958.009,-117.546 959.409,-173.077 961.815,-205.59"/>
<polygon fill="red" stroke="black" points="958.337,-206.009 962.65,-215.686 965.313,-205.432 958.337,-206.009"/>
</g>
<!-- mogaba -->
<g id="node10" class="node"><title>mogaba</title>
<polygon fill="blue" stroke="black" points="1571.06,-612 1484.06,-612 1484.06,-576 1571.06,-576 1571.06,-612"/>
<text text-anchor="middle" x="1527.56" y="-588.4" font-family="Times,serif" font-size="22.00">mogaba</text>
</g>
<!-- ITF&#45;A_gnd -->
<g id="node11" class="node"><title>ITF&#45;A_gnd</title>
<ellipse fill="yellow" stroke="black" cx="1228.56" cy="-522" rx="50.8918" ry="18"/>
<text text-anchor="middle" x="1228.56" y="-518.3" font-family="Times,serif" font-size="14.00">ITF&#45;A_gnd</text>
</g>
<!-- mogaba&#45;&gt;ITF&#45;A_gnd -->
<g id="edge69" class="edge"><title>mogaba&#45;&gt;ITF&#45;A_gnd</title>
<path fill="none" stroke="black" d="M1483.77,-582.746C1429.44,-570.029 1337,-548.387 1279.55,-534.936"/>
<polygon fill="red" stroke="black" points="1280.13,-531.477 1269.59,-532.605 1278.53,-538.293 1280.13,-531.477"/>
</g>
<!-- ITF&#45;B_5v -->
<g id="node12" class="node"><title>ITF&#45;B_5v</title>
<ellipse fill="yellow" stroke="black" cx="171.563" cy="-522" rx="46.2923" ry="18"/>
<text text-anchor="middle" x="171.563" y="-518.3" font-family="Times,serif" font-size="14.00">ITF&#45;B_5v</text>
</g>
<!-- mogaba&#45;&gt;ITF&#45;B_5v -->
<g id="edge70" class="edge"><title>mogaba&#45;&gt;ITF&#45;B_5v</title>
<path fill="none" stroke="black" d="M1483.98,-590.75C1283.62,-580.407 451.167,-537.434 227.238,-525.874"/>
<polygon fill="red" stroke="black" points="227.207,-522.368 217.04,-525.348 226.846,-529.359 227.207,-522.368"/>
</g>
<!-- ITF&#45;S_3_3v -->
<g id="node15" class="node"><title>ITF&#45;S_3_3v</title>
<ellipse fill="yellow" stroke="black" cx="1527.56" cy="-522" rx="53.8905" ry="18"/>
<text text-anchor="middle" x="1527.56" y="-518.3" font-family="Times,serif" font-size="14.00">ITF&#45;S_3_3v</text>
</g>
<!-- mogaba&#45;&gt;ITF&#45;S_3_3v -->
<g id="edge72" class="edge"><title>mogaba&#45;&gt;ITF&#45;S_3_3v</title>
<path fill="none" stroke="black" d="M1527.56,-575.697C1527.56,-567.983 1527.56,-558.712 1527.56,-550.112"/>
<polygon fill="red" stroke="black" points="1531.06,-550.104 1527.56,-540.104 1524.06,-550.104 1531.06,-550.104"/>
</g>
<!-- ITF&#45;F_12V -->
<g id="node25" class="node"><title>ITF&#45;F_12V</title>
<ellipse fill="yellow" stroke="black" cx="1650.56" cy="-522" rx="51.1914" ry="18"/>
<text text-anchor="middle" x="1650.56" y="-518.3" font-family="Times,serif" font-size="14.00">ITF&#45;F_12V</text>
</g>
<!-- mogaba&#45;&gt;ITF&#45;F_12V -->
<g id="edge71" class="edge"><title>mogaba&#45;&gt;ITF&#45;F_12V</title>
<path fill="none" stroke="black" d="M1551.76,-575.876C1568.85,-565.533 1591.97,-552.344 1611.61,-541.725"/>
<polygon fill="red" stroke="black" points="1613.47,-544.698 1620.63,-536.895 1610.17,-538.526 1613.47,-544.698"/>
</g>
<!-- ITF&#45;A_gnd&#45;&gt;tobo -->
<g id="edge1" class="edge"><title>ITF&#45;A_gnd&#45;&gt;tobo</title>
<path fill="none" stroke="black" d="M1215.29,-504.411C1208.59,-496.031 1200.31,-485.682 1192.83,-476.332"/>
<polygon fill="black" stroke="black" points="1195.5,-474.069 1186.52,-468.447 1190.03,-478.442 1195.5,-474.069"/>
</g>
<!-- ITF&#45;A_gnd&#45;&gt;cletus -->
<g id="edge10" class="edge"><title>ITF&#45;A_gnd&#45;&gt;cletus</title>
<path fill="none" stroke="black" d="M1224.69,-503.945C1218.36,-471.23 1209.98,-399.417 1247.56,-360 1284.43,-321.329 1443.19,-310.86 1521.52,-308.037"/>
<polygon fill="black" stroke="black" points="1521.68,-311.533 1531.56,-307.701 1521.45,-304.537 1521.68,-311.533"/>
</g>
<!-- ITF&#45;A_gnd&#45;&gt;oneeye -->
<g id="edge18" class="edge"><title>ITF&#45;A_gnd&#45;&gt;oneeye</title>
<path fill="none" stroke="black" d="M1262.62,-508.647C1292.86,-497.68 1337.43,-481.514 1371.69,-469.09"/>
<polygon fill="black" stroke="black" points="1373.3,-472.229 1381.5,-465.529 1370.91,-465.648 1373.3,-472.229"/>
</g>
<!-- ITF&#45;A_gnd&#45;&gt;croaker -->
<g id="edge25" class="edge"><title>ITF&#45;A_gnd&#45;&gt;croaker</title>
<path fill="none" stroke="black" d="M1177.93,-521.046C988.959,-520.838 331.683,-516.6 252.563,-468 147.674,-403.571 98.903,-251.811 82.8603,-189.954"/>
<polygon fill="black" stroke="black" points="86.23,-189.002 80.4001,-180.156 79.4408,-190.707 86.23,-189.002"/>
</g>
<!-- ITF&#45;A_gnd&#45;&gt;retroATL3 -->
<g id="edge30" class="edge"><title>ITF&#45;A_gnd&#45;&gt;retroATL3</title>
<path fill="none" stroke="black" d="M1270.55,-511.881C1318.82,-501.378 1400.44,-483.567 1470.56,-468 1541.72,-452.203 1558.63,-443.771 1630.56,-432 1707.29,-419.445 1926.49,-453.734 1978.56,-396 1989.28,-384.118 1987.36,-373.366 1978.56,-360 1965.59,-340.288 1943.58,-327.875 1921.72,-320.073"/>
<polygon fill="black" stroke="black" points="1922.66,-316.695 1912.06,-316.903 1920.47,-323.346 1922.66,-316.695"/>
</g>
<!-- ITF&#45;A_gnd&#45;&gt;kina -->
<g id="edge39" class="edge"><title>ITF&#45;A_gnd&#45;&gt;kina</title>
<path fill="none" stroke="black" d="M1276.75,-516.383C1436.86,-500.609 1943.89,-447 1995.56,-396 2053.09,-339.22 2076.61,-275.189 2021.56,-216 1974.13,-164.995 1472.43,-162.481 1329.42,-162.81"/>
<polygon fill="black" stroke="black" points="1329.36,-159.31 1319.37,-162.839 1329.38,-166.31 1329.36,-159.31"/>
</g>
<!-- ITF&#45;A_gnd&#45;&gt;goblin -->
<g id="edge47" class="edge"><title>ITF&#45;A_gnd&#45;&gt;goblin</title>
<path fill="none" stroke="black" d="M1177.68,-520.737C1091.78,-517.38 918.318,-497.548 825.563,-396 810.369,-379.366 806.206,-353.649 805.5,-334.129"/>
<polygon fill="black" stroke="black" points="808.999,-333.99 805.415,-324.02 801.999,-334.049 808.999,-333.99"/>
</g>
<!-- ITF&#45;A_gnd&#45;&gt;silent -->
<g id="edge61" class="edge"><title>ITF&#45;A_gnd&#45;&gt;silent</title>
<path fill="none" stroke="black" d="M1178.66,-518.334C989.45,-507.724 323.791,-465.661 262.563,-396 192.674,-316.485 322.708,-260.933 418.563,-216 612.533,-125.075 860.349,-55.4202 957.667,-29.739"/>
<polygon fill="black" stroke="black" points="958.64,-33.1022 967.425,-27.1787 956.864,-26.3314 958.64,-33.1022"/>
</g>
<!-- ITF&#45;B_5v&#45;&gt;tobo -->
<g id="edge2" class="edge"><title>ITF&#45;B_5v&#45;&gt;tobo</title>
<path fill="none" stroke="black" d="M216.518,-517.856C384.98,-506.076 977.199,-464.662 1134.15,-453.686"/>
<polygon fill="black" stroke="black" points="1134.54,-457.168 1144.27,-452.979 1134.05,-450.185 1134.54,-457.168"/>
</g>
<!-- ITF&#45;B_5v&#45;&gt;cletus -->
<g id="edge11" class="edge"><title>ITF&#45;B_5v&#45;&gt;cletus</title>
<path fill="none" stroke="black" d="M217.431,-519.183C357.164,-512.772 789.039,-486.469 1133.56,-396 1174.83,-385.163 1181.43,-371.333 1222.56,-360 1327.61,-331.059 1455.39,-316.56 1521.38,-310.54"/>
<polygon fill="black" stroke="black" points="1521.77,-314.018 1531.42,-309.646 1521.15,-307.046 1521.77,-314.018"/>
</g>
<!-- ITF&#45;B_5v&#45;&gt;oneeye -->
<g id="edge19" class="edge"><title>ITF&#45;B_5v&#45;&gt;oneeye</title>
<path fill="none" stroke="black" d="M217.376,-519.136C362.686,-513.12 826.269,-493.148 1209.56,-468 1264.87,-464.371 1328.22,-459.152 1371.15,-455.456"/>
<polygon fill="black" stroke="black" points="1371.68,-458.924 1381.34,-454.575 1371.08,-451.95 1371.68,-458.924"/>
</g>
<!-- ITF&#45;B_5v&#45;&gt;croaker -->
<g id="edge26" class="edge"><title>ITF&#45;B_5v&#45;&gt;croaker</title>
<path fill="none" stroke="black" d="M144.005,-507.32C105.049,-485.807 38.563,-440.137 38.563,-379 38.563,-379 38.563,-379 38.563,-305 38.563,-263.633 53.7977,-217.722 64.9746,-189.605"/>
<polygon fill="black" stroke="black" points="68.3193,-190.673 68.8731,-180.093 61.8422,-188.019 68.3193,-190.673"/>
</g>
<!-- ITF&#45;B_5v&#45;&gt;kina -->
<g id="edge40" class="edge"><title>ITF&#45;B_5v&#45;&gt;kina</title>
<path fill="none" stroke="black" d="M160.028,-504.384C143.373,-478.722 114.563,-427.348 114.563,-379 114.563,-379 114.563,-379 114.563,-305 114.563,-264.553 102.708,-242.152 133.563,-216 177.257,-178.965 1059.24,-165.883 1253.8,-163.442"/>
<polygon fill="black" stroke="black" points="1253.88,-166.942 1263.83,-163.318 1253.79,-159.942 1253.88,-166.942"/>
</g>
<!-- ITF&#45;B_5v&#45;&gt;goblin -->
<g id="edge48" class="edge"><title>ITF&#45;B_5v&#45;&gt;goblin</title>
<path fill="none" stroke="black" d="M168.236,-503.993C165.461,-485.083 163.763,-454.274 176.563,-432 205.491,-381.661 230.877,-379.502 285.563,-360 372.255,-329.083 647.711,-313.918 759.119,-308.928"/>
<polygon fill="black" stroke="black" points="759.54,-312.413 769.377,-308.476 759.233,-305.419 759.54,-312.413"/>
</g>
<!-- ITF&#45;B_5v&#45;&gt;silent -->
<g id="edge62" class="edge"><title>ITF&#45;B_5v&#45;&gt;silent</title>
<path fill="none" stroke="black" d="M135.119,-510.793C110.256,-502.422 77.7556,-488.564 54.563,-468 19.9439,-437.305 0.562952,-425.267 0.562952,-379 0.562952,-379 0.562952,-379 0.562952,-161 0.562952,-119.791 -5.72483,-97.6061 26.563,-72 63.5208,-42.6903 774.766,-24.2195 957.208,-19.951"/>
<polygon fill="black" stroke="black" points="957.556,-23.444 967.472,-19.7129 957.393,-16.4459 957.556,-23.444"/>
</g>
<!-- ITF&#45;I_pulse_on&#45;&gt;tobo -->
<g id="edge3" class="edge"><title>ITF&#45;I_pulse_on&#45;&gt;tobo</title>
<path fill="none" stroke="black" d="M1363.88,-107.938C1355.58,-125.998 1341.76,-155.335 1328.56,-180 1284.78,-261.867 1268.86,-279.525 1222.56,-360 1210.48,-380.998 1197.05,-404.946 1187.15,-422.707"/>
<polygon fill="black" stroke="black" points="1183.85,-421.44 1182.05,-431.88 1189.97,-424.844 1183.85,-421.44"/>
</g>
<!-- ITF&#45;I_pulse_on&#45;&gt;kina -->
<g id="edge43" class="edge"><title>ITF&#45;I_pulse_on&#45;&gt;kina</title>
<path fill="none" stroke="black" d="M1358.16,-107.863C1349.03,-116.675 1336.72,-127.607 1325.12,-137.26"/>
<polygon fill="black" stroke="black" points="1322.78,-134.656 1317.25,-143.697 1327.21,-140.075 1322.78,-134.656"/>
</g>
<!-- ITF&#45;I_pulse_on&#45;&gt;silent -->
<g id="edge64" class="edge"><title>ITF&#45;I_pulse_on&#45;&gt;silent</title>
<path fill="none" stroke="black" d="M1323.22,-77.6965C1314.37,-75.7253 1305.2,-73.7484 1296.56,-72 1206.19,-53.7044 1099.66,-35.5084 1041.94,-25.9267"/>
<polygon fill="black" stroke="black" points="1042.18,-22.4191 1031.74,-24.2398 1041.03,-29.3252 1042.18,-22.4191"/>
</g>
<!-- ITF&#45;J_pulse_off&#45;&gt;tobo -->
<g id="edge4" class="edge"><title>ITF&#45;J_pulse_off&#45;&gt;tobo</title>
<path fill="none" stroke="black" d="M986.737,-97.8511C883.966,-110.973 670.9,-144.897 504.563,-216 278.697,-312.55 233.568,-340.806 285.563,-396 315.063,-427.315 966.818,-444.302 1133.84,-448.151"/>
<polygon fill="black" stroke="black" points="1134.06,-451.656 1144.13,-448.385 1134.22,-444.658 1134.06,-451.656"/>
</g>
<!-- ITF&#45;J_pulse_off&#45;&gt;silent -->
<g id="edge65" class="edge"><title>ITF&#45;J_pulse_off&#45;&gt;silent</title>
<path fill="none" stroke="black" d="M1035.94,-72.055C1030.31,-63.8373 1023.42,-53.7911 1017.16,-44.6599"/>
<polygon fill="black" stroke="black" points="1019.95,-42.5432 1011.41,-36.2753 1014.18,-46.502 1019.95,-42.5432"/>
</g>
<!-- ITF&#45;S_3_3v&#45;&gt;tobo -->
<g id="edge5" class="edge"><title>ITF&#45;S_3_3v&#45;&gt;tobo</title>
<path fill="none" stroke="black" d="M1482.24,-512.063C1411.62,-498.139 1276.61,-471.517 1210.69,-458.517"/>
<polygon fill="black" stroke="black" points="1211.21,-455.053 1200.72,-456.552 1209.85,-461.921 1211.21,-455.053"/>
</g>
<!-- ITF&#45;S_3_3v&#45;&gt;cletus -->
<g id="edge13" class="edge"><title>ITF&#45;S_3_3v&#45;&gt;cletus</title>
<path fill="none" stroke="black" d="M1554.15,-506.12C1586.99,-486.024 1641.26,-446.798 1663.56,-396 1670,-381.35 1671.76,-373.744 1663.56,-360 1651.68,-340.063 1629.4,-327.171 1609.09,-319.101"/>
<polygon fill="black" stroke="black" points="1610.23,-315.79 1599.64,-315.62 1607.81,-322.36 1610.23,-315.79"/>
</g>
<!-- ITF&#45;S_3_3v&#45;&gt;oneeye -->
<g id="edge20" class="edge"><title>ITF&#45;S_3_3v&#45;&gt;oneeye</title>
<path fill="none" stroke="black" d="M1504.3,-505.638C1490.11,-496.266 1471.71,-484.116 1455.87,-473.654"/>
<polygon fill="black" stroke="black" points="1457.65,-470.634 1447.37,-468.044 1453.79,-476.475 1457.65,-470.634"/>
</g>
<!-- ITF&#45;S_3_3v&#45;&gt;kina -->
<g id="edge41" class="edge"><title>ITF&#45;S_3_3v&#45;&gt;kina</title>
<path fill="none" stroke="black" d="M1567.86,-509.999C1575.4,-507.978 1583.22,-505.905 1590.56,-504 1698.92,-475.9 2078.56,-490.946 2078.56,-379 2078.56,-379 2078.56,-379 2078.56,-305 2078.56,-262.965 2080.08,-241.367 2046.56,-216 1989,-172.436 1473.94,-164.61 1329.23,-163.267"/>
<polygon fill="black" stroke="black" points="1329.1,-159.766 1319.07,-163.178 1329.04,-166.765 1329.1,-159.766"/>
</g>
<!-- ITF&#45;S_3_3v&#45;&gt;goblin -->
<g id="edge49" class="edge"><title>ITF&#45;S_3_3v&#45;&gt;goblin</title>
<path fill="none" stroke="black" d="M1519.67,-504.015C1501.77,-466.247 1457.45,-377.27 1429.56,-360 1380.99,-329.924 991.018,-313.473 853.975,-308.576"/>
<polygon fill="black" stroke="black" points="853.907,-305.072 843.79,-308.217 853.66,-312.068 853.907,-305.072"/>
</g>
<!-- ITF&#45;S_3_3v&#45;&gt;silent -->
<g id="edge63" class="edge"><title>ITF&#45;S_3_3v&#45;&gt;silent</title>
<path fill="none" stroke="black" d="M1566.31,-509.414C1574.27,-507.352 1582.64,-505.414 1590.56,-504 1765.84,-472.689 1822.45,-529.442 1989.56,-468 2085.73,-432.643 2154.56,-409.46 2154.56,-307 2154.56,-307 2154.56,-307 2154.56,-161 2154.56,-46.5695 1249.93,-23.463 1041.87,-19.6619"/>
<polygon fill="black" stroke="black" points="1041.72,-16.1587 1031.66,-19.4807 1041.6,-23.1576 1041.72,-16.1587"/>
</g>
<!-- ITF&#45;mET_Transducer&#45;&gt;tobo -->
<g id="edge6" class="edge"><title>ITF&#45;mET_Transducer&#45;&gt;tobo</title>
<path fill="none" stroke="black" d="M1503.44,-390.998C1421.24,-406.06 1279,-431.323 1210.91,-442.887"/>
<polygon fill="black" stroke="black" points="1209.91,-439.505 1200.63,-444.621 1211.08,-446.407 1209.91,-439.505"/>
</g>
<!-- ITF&#45;mET_Transducer&#45;&gt;cletus -->
<g id="edge14" class="edge"><title>ITF&#45;mET_Transducer&#45;&gt;cletus</title>
<path fill="none" stroke="black" d="M1559.65,-359.697C1558.85,-351.983 1558.63,-342.712 1558.97,-334.112"/>
<polygon fill="black" stroke="black" points="1562.46,-334.324 1559.67,-324.104 1555.48,-333.836 1562.46,-334.324"/>
</g>
<!-- ITF&#45;mET_Transducer&#45;&gt;retroATL3 -->
<g id="edge33" class="edge"><title>ITF&#45;mET_Transducer&#45;&gt;retroATL3</title>
<path fill="none" stroke="black" d="M1617.02,-363.254C1664.98,-351.284 1736.63,-333.977 1788.93,-321.727"/>
<polygon fill="black" stroke="black" points="1789.85,-325.107 1798.79,-319.424 1788.26,-318.29 1789.85,-325.107"/>
</g>
<!-- ITF&#45;R_reserved&#45;&gt;goblin -->
<g id="edge54" class="edge"><title>ITF&#45;R_reserved&#45;&gt;goblin</title>
<path fill="none" stroke="black" d="M1012.98,-364.566C968.093,-352.048 899.135,-332.817 853.448,-320.076"/>
<polygon fill="black" stroke="black" points="854.358,-316.696 843.786,-317.381 852.478,-323.439 854.358,-316.696"/>
</g>
<!-- ITF&#45;mET_SMA&#45;&gt;goblin -->
<g id="edge56" class="edge"><title>ITF&#45;mET_SMA&#45;&gt;goblin</title>
<path fill="none" stroke="black" d="M881.065,-360.765C868.459,-351.667 852.525,-340.168 838.631,-330.142"/>
<polygon fill="black" stroke="black" points="840.449,-327.138 830.292,-324.124 836.353,-332.814 840.449,-327.138"/>
</g>
<!-- ITF&#45;N_cc_motor_pwm&#45;&gt;cletus -->
<g id="edge12" class="edge"><title>ITF&#45;N_cc_motor_pwm&#45;&gt;cletus</title>
<path fill="none" stroke="black" d="M1788.17,-363.254C1735.95,-350.058 1658.06,-330.374 1609.61,-318.132"/>
<polygon fill="black" stroke="black" points="1610.29,-314.694 1599.74,-315.637 1608.58,-321.481 1610.29,-314.694"/>
</g>
<!-- ITF&#45;N_cc_motor_pwm&#45;&gt;retroATL3 -->
<g id="edge32" class="edge"><title>ITF&#45;N_cc_motor_pwm&#45;&gt;retroATL3</title>
<path fill="none" stroke="black" d="M1845.78,-359.697C1847.21,-351.983 1848.93,-342.712 1850.53,-334.112"/>
<polygon fill="black" stroke="black" points="1854,-334.575 1852.39,-324.104 1847.12,-333.297 1854,-334.575"/>
</g>
<!-- ITF&#45;mET_Piezo&#45;&gt;cletus -->
<g id="edge15" class="edge"><title>ITF&#45;mET_Piezo&#45;&gt;cletus</title>
<path fill="none" stroke="black" d="M1571.46,-252.104C1572.26,-259.791 1572.5,-269.054 1572.17,-277.665"/>
<polygon fill="black" stroke="black" points="1568.67,-277.48 1571.48,-287.697 1575.66,-277.96 1568.67,-277.48"/>
</g>
<!-- ITF&#45;G_gain_control&#45;&gt;goblin -->
<g id="edge50" class="edge"><title>ITF&#45;G_gain_control&#45;&gt;goblin</title>
<path fill="none" stroke="black" d="M1270.37,-368.028C1160.79,-353.609 948.231,-325.641 853.774,-313.212"/>
<polygon fill="black" stroke="black" points="854.031,-309.716 843.66,-311.881 853.118,-316.656 854.031,-309.716"/>
</g>
<!-- ITF&#45;mEG_SPI&#45;&gt;croaker -->
<g id="edge27" class="edge"><title>ITF&#45;mEG_SPI&#45;&gt;croaker</title>
<path fill="none" stroke="black" d="M177.572,-217.811C159.916,-208.23 136.818,-195.697 117.167,-185.033"/>
<polygon fill="black" stroke="black" points="118.584,-181.82 108.125,-180.127 115.245,-187.972 118.584,-181.82"/>
</g>
<!-- ITF&#45;F_12V&#45;&gt;retroATL3 -->
<g id="edge31" class="edge"><title>ITF&#45;F_12V&#45;&gt;retroATL3</title>
<path fill="none" stroke="black" d="M1702.06,-520.832C1784.48,-517.433 1944.11,-497.311 2016.56,-396 2045.74,-355.197 1978.51,-330.96 1922.19,-318.32"/>
<polygon fill="black" stroke="black" points="1922.69,-314.85 1912.18,-316.168 1921.22,-321.693 1922.69,-314.85"/>
</g>
<!-- ITF&#45;F_12V&#45;&gt;mogaba -->
<g id="edge68" class="edge"><title>ITF&#45;F_12V&#45;&gt;mogaba</title>
<path fill="none" stroke="black" d="M1629.02,-538.514C1613.37,-548.068 1591.78,-560.464 1572.5,-571.019"/>
<polygon fill="black" stroke="black" points="1570.67,-568.031 1563.55,-575.876 1574.01,-574.184 1570.67,-568.031"/>
</g>
<!-- Motor&#45;&gt;retroATL3 -->
<g id="edge34" class="edge"><title>Motor&#45;&gt;retroATL3</title>
<path fill="none" stroke="black" d="M1842.89,-251.145C1846.51,-259.092 1850.14,-268.887 1852.88,-277.936"/>
<polygon fill="black" stroke="black" points="1849.53,-278.974 1855.55,-287.697 1856.28,-277.128 1849.53,-278.974"/>
</g>
<!-- Tri&#45;Piezo Head&#45;&gt;retroATL3 -->
<g id="edge35" class="edge"><title>Tri&#45;Piezo Head&#45;&gt;retroATL3</title>
<path fill="none" stroke="black" d="M1931.75,-251.465C1920.82,-260.539 1906.02,-271.949 1892.31,-281.901"/>
<polygon fill="black" stroke="black" points="1890.06,-279.209 1883.97,-287.876 1894.13,-284.901 1890.06,-279.209"/>
</g>
<!-- ITF&#45;E_signal_envelope&#45;&gt;kina -->
<g id="edge42" class="edge"><title>ITF&#45;E_signal_envelope&#45;&gt;kina</title>
<path fill="none" stroke="black" d="M1024.54,-220.161C1091.54,-205.818 1197.94,-183.041 1254.06,-171.027"/>
<polygon fill="black" stroke="black" points="1254.89,-174.429 1263.94,-168.913 1253.43,-167.584 1254.89,-174.429"/>
</g>
<!-- ITF&#45;E_signal_envelope&#45;&gt;goblin -->
<g id="edge53" class="edge"><title>ITF&#45;E_signal_envelope&#45;&gt;goblin</title>
<path fill="none" stroke="black" d="M934.105,-251.055C911.082,-261.797 879.212,-275.946 853.041,-287.058"/>
<polygon fill="black" stroke="black" points="851.538,-283.893 843.683,-291.003 854.257,-290.343 851.538,-283.893"/>
</g>
<!-- ITF&#45;InternalPot1_gain_control -->
<g id="node30" class="node"><title>ITF&#45;InternalPot1_gain_control</title>
<ellipse fill="yellow" stroke="black" cx="659.563" cy="-378" rx="118.879" ry="18"/>
<text text-anchor="middle" x="659.563" y="-374.3" font-family="Times,serif" font-size="14.00">ITF&#45;InternalPot1_gain_control</text>
</g>
<!-- ITF&#45;InternalPot1_gain_control&#45;&gt;goblin -->
<g id="edge51" class="edge"><title>ITF&#45;InternalPot1_gain_control&#45;&gt;goblin</title>
<path fill="none" stroke="black" d="M694.028,-360.588C714.225,-350.971 739.961,-338.715 761.723,-328.352"/>
<polygon fill="black" stroke="black" points="763.255,-331.499 770.779,-324.04 760.246,-325.179 763.255,-331.499"/>
</g>
<!-- ITF&#45;C_amplified_raw_signal&#45;&gt;goblin -->
<g id="edge52" class="edge"><title>ITF&#45;C_amplified_raw_signal&#45;&gt;goblin</title>
<path fill="none" stroke="black" d="M673.053,-250.552C699.691,-260.508 733.18,-273.54 759.995,-284.358"/>
<polygon fill="black" stroke="black" points="758.965,-287.717 769.547,-288.233 761.597,-281.23 758.965,-287.717"/>
</g>
<!-- ITF&#45;InternalPot2_ADC_Vref -->
<g id="node32" class="node"><title>ITF&#45;InternalPot2_ADC_Vref</title>
<ellipse fill="yellow" stroke="black" cx="408.563" cy="-378" rx="113.98" ry="18"/>
<text text-anchor="middle" x="408.563" y="-374.3" font-family="Times,serif" font-size="14.00">ITF&#45;InternalPot2_ADC_Vref</text>
</g>
<!-- ITF&#45;InternalPot2_ADC_Vref&#45;&gt;goblin -->
<g id="edge55" class="edge"><title>ITF&#45;InternalPot2_ADC_Vref&#45;&gt;goblin</title>
<path fill="none" stroke="black" d="M481.562,-364.161C562.462,-349.932 690.557,-327.403 759.282,-315.316"/>
<polygon fill="black" stroke="black" points="760.14,-318.719 769.383,-313.539 758.928,-311.824 760.14,-318.719"/>
</g>
<!-- ITF&#45;mEM_Alimentation -->
<g id="node34" class="node"><title>ITF&#45;mEM_Alimentation</title>
<ellipse fill="green" stroke="black" cx="1527.56" cy="-666" rx="98.5829" ry="18"/>
<text text-anchor="middle" x="1527.56" y="-662.3" font-family="Times,serif" font-size="14.00">ITF&#45;mEM_Alimentation</text>
</g>
<!-- ITF&#45;mEM_Alimentation&#45;&gt;mogaba -->
<g id="edge67" class="edge"><title>ITF&#45;mEM_Alimentation&#45;&gt;mogaba</title>
<path fill="none" stroke="black" d="M1527.56,-647.697C1527.56,-639.983 1527.56,-630.712 1527.56,-622.112"/>
<polygon fill="black" stroke="black" points="1531.06,-622.104 1527.56,-612.104 1524.06,-622.104 1531.06,-622.104"/>
</g>
</g>
</svg>
