<?xml version="1.0" encoding="UTF-8" standalone="no"?>
<!DOCTYPE svg PUBLIC "-//W3C//DTD SVG 1.1//EN"
 "http://www.w3.org/Graphics/SVG/1.1/DTD/svg11.dtd">
<!-- Generated by graphviz version 2.38.0 (20140413.2041)
 -->
<!-- Title: %3 Pages: 1 -->
<svg width="1353pt" height="764pt"
 viewBox="0.00 0.00 1352.75 764.00" xmlns="http://www.w3.org/2000/svg" xmlns:xlink="http://www.w3.org/1999/xlink">
<g id="graph0" class="graph" transform="scale(1 1) rotate(0) translate(4 760)">
<title>%3</title>
<polygon fill="white" stroke="none" points="-4,4 -4,-760 1348.75,-760 1348.75,4 -4,4"/>
<!-- sleepy -->
<g id="node1" class="node"><title>sleepy</title>
<polygon fill="blue" stroke="black" points="924.25,-756 851.25,-756 851.25,-720 924.25,-720 924.25,-756"/>
<text text-anchor="middle" x="887.75" y="-732.4" font-family="Times,serif" font-size="22.00">sleepy</text>
</g>
<!-- tobo -->
<g id="node2" class="node"><title>tobo</title>
<polygon fill="blue" stroke="black" points="841.75,-540 785.75,-540 785.75,-504 841.75,-504 841.75,-540"/>
<text text-anchor="middle" x="813.75" y="-516.4" font-family="Times,serif" font-size="22.00">tobo</text>
</g>
<!-- ITF&#45;mET_Transducer -->
<g id="node16" class="node"><title>ITF&#45;mET_Transducer</title>
<ellipse fill="green" stroke="black" cx="912.75" cy="-162" rx="89.0842" ry="18"/>
<text text-anchor="middle" x="912.75" y="-158.3" font-family="Times,serif" font-size="14.00">ITF&#45;mET_Transducer</text>
</g>
<!-- tobo&#45;&gt;ITF&#45;mET_Transducer -->
<g id="edge9" class="edge"><title>tobo&#45;&gt;ITF&#45;mET_Transducer</title>
<path fill="none" stroke="black" d="M842.115,-504.41C856.157,-495.748 871.82,-483.648 880.75,-468 932.317,-377.632 918.421,-246.924 913.097,-190.566"/>
<polygon fill="red" stroke="black" points="916.556,-189.963 912.168,-180.32 909.585,-190.595 916.556,-189.963"/>
</g>
<!-- ITF&#45;R_reserved -->
<g id="node17" class="node"><title>ITF&#45;R_reserved</title>
<ellipse fill="yellow" stroke="black" cx="813.75" cy="-450" rx="66.8882" ry="18"/>
<text text-anchor="middle" x="813.75" y="-446.3" font-family="Times,serif" font-size="14.00">ITF&#45;R_reserved</text>
</g>
<!-- tobo&#45;&gt;ITF&#45;R_reserved -->
<g id="edge7" class="edge"><title>tobo&#45;&gt;ITF&#45;R_reserved</title>
<path fill="none" stroke="black" d="M813.75,-503.697C813.75,-495.983 813.75,-486.712 813.75,-478.112"/>
<polygon fill="red" stroke="black" points="817.25,-478.104 813.75,-468.104 810.25,-478.104 817.25,-478.104"/>
</g>
<!-- ITF&#45;mET_SMA -->
<g id="node18" class="node"><title>ITF&#45;mET_SMA</title>
<ellipse fill="green" stroke="black" cx="659.75" cy="-450" rx="68.7879" ry="18"/>
<text text-anchor="middle" x="659.75" y="-446.3" font-family="Times,serif" font-size="14.00">ITF&#45;mET_SMA</text>
</g>
<!-- tobo&#45;&gt;ITF&#45;mET_SMA -->
<g id="edge8" class="edge"><title>tobo&#45;&gt;ITF&#45;mET_SMA</title>
<path fill="none" stroke="black" d="M785.504,-508.161C762.148,-497.545 728.627,-482.308 702.066,-470.235"/>
<polygon fill="red" stroke="black" points="703.179,-466.896 692.627,-465.944 700.282,-473.269 703.179,-466.896"/>
</g>
<!-- cletus -->
<g id="node3" class="node"><title>cletus</title>
<polygon fill="blue" stroke="black" points="946.75,-108 878.75,-108 878.75,-72 946.75,-72 946.75,-108"/>
<text text-anchor="middle" x="912.75" y="-84.4" font-family="Times,serif" font-size="22.00">cletus</text>
</g>
<!-- cletus&#45;&gt;ITF&#45;mET_Transducer -->
<g id="edge17" class="edge"><title>cletus&#45;&gt;ITF&#45;mET_Transducer</title>
<path fill="none" stroke="black" d="M918.645,-108.104C919.45,-115.791 919.686,-125.054 919.354,-133.665"/>
<polygon fill="red" stroke="black" points="915.858,-133.48 918.665,-143.697 922.842,-133.96 915.858,-133.48"/>
</g>
<!-- ITF&#45;mET_Piezo -->
<g id="node20" class="node"><title>ITF&#45;mET_Piezo</title>
<ellipse fill="green" stroke="black" cx="912.75" cy="-18" rx="68.7879" ry="18"/>
<text text-anchor="middle" x="912.75" y="-14.3" font-family="Times,serif" font-size="14.00">ITF&#45;mET_Piezo</text>
</g>
<!-- cletus&#45;&gt;ITF&#45;mET_Piezo -->
<g id="edge16" class="edge"><title>cletus&#45;&gt;ITF&#45;mET_Piezo</title>
<path fill="none" stroke="black" d="M906.834,-71.6966C906.038,-63.9827 905.812,-54.7125 906.154,-46.1124"/>
<polygon fill="red" stroke="black" points="909.648,-46.3243 906.854,-36.1043 902.665,-45.8356 909.648,-46.3243"/>
</g>
<!-- oneeye -->
<g id="node4" class="node"><title>oneeye</title>
<polygon fill="blue" stroke="black" points="399.75,-540 319.75,-540 319.75,-504 399.75,-504 399.75,-540"/>
<text text-anchor="middle" x="359.75" y="-516.4" font-family="Times,serif" font-size="22.00">oneeye</text>
</g>
<!-- ITF&#45;I_pulse_on -->
<g id="node13" class="node"><title>ITF&#45;I_pulse_on</title>
<ellipse fill="yellow" stroke="black" cx="170.75" cy="-162" rx="65.7887" ry="18"/>
<text text-anchor="middle" x="170.75" y="-158.3" font-family="Times,serif" font-size="14.00">ITF&#45;I_pulse_on</text>
</g>
<!-- oneeye&#45;&gt;ITF&#45;I_pulse_on -->
<g id="edge22" class="edge"><title>oneeye&#45;&gt;ITF&#45;I_pulse_on</title>
<path fill="none" stroke="black" d="M319.567,-516.22C250.061,-505.47 114.75,-472.532 114.75,-379 114.75,-379 114.75,-379 114.75,-305 114.75,-261.905 137.346,-216.262 153.831,-188.697"/>
<polygon fill="red" stroke="black" points="156.88,-190.421 159.146,-180.072 150.92,-186.749 156.88,-190.421"/>
</g>
<!-- ITF&#45;J_pulse_off -->
<g id="node14" class="node"><title>ITF&#45;J_pulse_off</title>
<ellipse fill="yellow" stroke="black" cx="699.75" cy="-162" rx="67.6881" ry="18"/>
<text text-anchor="middle" x="699.75" y="-158.3" font-family="Times,serif" font-size="14.00">ITF&#45;J_pulse_off</text>
</g>
<!-- oneeye&#45;&gt;ITF&#45;J_pulse_off -->
<g id="edge23" class="edge"><title>oneeye&#45;&gt;ITF&#45;J_pulse_off</title>
<path fill="none" stroke="black" d="M344.14,-503.774C336.377,-494.03 327.804,-481.184 323.75,-468 319.047,-452.707 319.988,-447.551 323.75,-432 349.987,-323.538 357.645,-275.973 451.75,-216 517.245,-174.259 546.829,-196.372 622.75,-180 628.186,-178.828 633.836,-177.599 639.495,-176.362"/>
<polygon fill="red" stroke="black" points="640.629,-179.697 649.647,-174.136 639.13,-172.859 640.629,-179.697"/>
</g>
<!-- ITF&#45;N_cc_motor_pwm -->
<g id="node19" class="node"><title>ITF&#45;N_cc_motor_pwm</title>
<ellipse fill="yellow" stroke="black" cx="347.75" cy="-162" rx="93.6835" ry="18"/>
<text text-anchor="middle" x="347.75" y="-158.3" font-family="Times,serif" font-size="14.00">ITF&#45;N_cc_motor_pwm</text>
</g>
<!-- oneeye&#45;&gt;ITF&#45;N_cc_motor_pwm -->
<g id="edge24" class="edge"><title>oneeye&#45;&gt;ITF&#45;N_cc_motor_pwm</title>
<path fill="none" stroke="black" d="M319.631,-518.486C285.451,-513.975 238.248,-501.608 214.75,-468 197.797,-443.753 221.402,-222.107 225.75,-216 238.006,-198.781 257.092,-187.1 276.558,-179.198"/>
<polygon fill="red" stroke="black" points="277.982,-182.402 286.117,-175.614 275.524,-175.848 277.982,-182.402"/>
</g>
<!-- ITF&#45;G_gain_control -->
<g id="node21" class="node"><title>ITF&#45;G_gain_control</title>
<ellipse fill="yellow" stroke="black" cx="414.75" cy="-450" rx="81.7856" ry="18"/>
<text text-anchor="middle" x="414.75" y="-446.3" font-family="Times,serif" font-size="14.00">ITF&#45;G_gain_control</text>
</g>
<!-- oneeye&#45;&gt;ITF&#45;G_gain_control -->
<g id="edge21" class="edge"><title>oneeye&#45;&gt;ITF&#45;G_gain_control</title>
<path fill="none" stroke="black" d="M373.345,-503.697C379.872,-495.389 387.818,-485.277 394.996,-476.141"/>
<polygon fill="red" stroke="black" points="397.884,-478.13 401.31,-468.104 392.38,-473.805 397.884,-478.13"/>
</g>
<!-- croaker -->
<g id="node5" class="node"><title>croaker</title>
<polygon fill="blue" stroke="black" points="1158.25,-252 1075.25,-252 1075.25,-216 1158.25,-216 1158.25,-252"/>
<text text-anchor="middle" x="1116.75" y="-228.4" font-family="Times,serif" font-size="22.00">croaker</text>
</g>
<!-- Screen -->
<g id="node23" class="node"><title>Screen</title>
<ellipse fill="yellow" stroke="black" cx="1053.75" cy="-162" rx="34.394" ry="18"/>
<text text-anchor="middle" x="1053.75" y="-158.3" font-family="Times,serif" font-size="14.00">Screen</text>
</g>
<!-- croaker&#45;&gt;Screen -->
<g id="edge28" class="edge"><title>croaker&#45;&gt;Screen</title>
<path fill="none" stroke="black" d="M1101.18,-215.697C1093.21,-206.84 1083.39,-195.932 1074.76,-186.343"/>
<polygon fill="red" stroke="black" points="1077.14,-183.763 1067.85,-178.671 1071.94,-188.446 1077.14,-183.763"/>
</g>
<!-- WiFi -->
<g id="node24" class="node"><title>WiFi</title>
<ellipse fill="yellow" stroke="black" cx="1135.75" cy="-162" rx="29.4969" ry="18"/>
<text text-anchor="middle" x="1135.75" y="-158.3" font-family="Times,serif" font-size="14.00">WiFi</text>
</g>
<!-- croaker&#45;&gt;WiFi -->
<g id="edge29" class="edge"><title>croaker&#45;&gt;WiFi</title>
<path fill="none" stroke="black" d="M1121.45,-215.697C1123.56,-207.898 1126.11,-198.509 1128.47,-189.829"/>
<polygon fill="red" stroke="black" points="1131.87,-190.672 1131.11,-180.104 1125.11,-188.838 1131.87,-190.672"/>
</g>
<!-- retroATL3 -->
<g id="node6" class="node"><title>retroATL3</title>
<polygon fill="blue" stroke="black" points="1089.25,-108 976.25,-108 976.25,-72 1089.25,-72 1089.25,-108"/>
<text text-anchor="middle" x="1032.75" y="-84.4" font-family="Times,serif" font-size="22.00">retroATL3</text>
</g>
<!-- retroATL3&#45;&gt;ITF&#45;mET_Transducer -->
<g id="edge37" class="edge"><title>retroATL3&#45;&gt;ITF&#45;mET_Transducer</title>
<path fill="none" stroke="black" d="M1009.42,-108.044C993.798,-117.753 972.932,-129.991 954.538,-140.255"/>
<polygon fill="red" stroke="black" points="952.8,-137.216 945.74,-145.116 956.186,-143.343 952.8,-137.216"/>
</g>
<!-- Motor -->
<g id="node26" class="node"><title>Motor</title>
<ellipse fill="yellow" stroke="black" cx="1032.75" cy="-18" rx="33.2948" ry="18"/>
<text text-anchor="middle" x="1032.75" y="-14.3" font-family="Times,serif" font-size="14.00">Motor</text>
</g>
<!-- retroATL3&#45;&gt;Motor -->
<g id="edge36" class="edge"><title>retroATL3&#45;&gt;Motor</title>
<path fill="none" stroke="black" d="M1026.83,-71.6966C1026.04,-63.9827 1025.81,-54.7125 1026.15,-46.1124"/>
<polygon fill="red" stroke="black" points="1029.65,-46.3243 1026.85,-36.1043 1022.66,-45.8356 1029.65,-46.3243"/>
</g>
<!-- Tri&#45;Piezo Head -->
<g id="node27" class="node"><title>Tri&#45;Piezo Head</title>
<ellipse fill="yellow" stroke="black" cx="1148.75" cy="-18" rx="64.9885" ry="18"/>
<text text-anchor="middle" x="1148.75" y="-14.3" font-family="Times,serif" font-size="14.00">Tri&#45;Piezo Head</text>
</g>
<!-- retroATL3&#45;&gt;Tri&#45;Piezo Head -->
<g id="edge38" class="edge"><title>retroATL3&#45;&gt;Tri&#45;Piezo Head</title>
<path fill="none" stroke="black" d="M1055.23,-71.8761C1070.53,-62.0184 1091.06,-49.5747 1109.03,-39.2356"/>
<polygon fill="red" stroke="black" points="1111.19,-42.032 1118.16,-34.0456 1107.73,-35.9474 1111.19,-42.032"/>
</g>
<!-- kina -->
<g id="node7" class="node"><title>kina</title>
<polygon fill="blue" stroke="black" points="289.25,-252 234.25,-252 234.25,-216 289.25,-216 289.25,-252"/>
<text text-anchor="middle" x="261.75" y="-228.4" font-family="Times,serif" font-size="22.00">kina</text>
</g>
<!-- kina&#45;&gt;ITF&#45;I_pulse_on -->
<g id="edge45" class="edge"><title>kina&#45;&gt;ITF&#45;I_pulse_on</title>
<path fill="none" stroke="black" d="M234.094,-216.233C221.419,-207.229 206.63,-195.99 194.467,-186.163"/>
<polygon fill="red" stroke="black" points="196.471,-183.279 186.524,-179.63 192.024,-188.685 196.471,-183.279"/>
</g>
<!-- kina&#45;&gt;ITF&#45;J_pulse_off -->
<g id="edge46" class="edge"><title>kina&#45;&gt;ITF&#45;J_pulse_off</title>
<path fill="none" stroke="black" d="M289.408,-220.575C294.121,-218.815 299.022,-217.199 303.75,-216 442.045,-180.91 482.006,-203.412 622.75,-180 628.632,-179.021 634.743,-177.884 640.833,-176.669"/>
<polygon fill="red" stroke="black" points="641.933,-180.016 651.019,-174.567 640.518,-173.16 641.933,-180.016"/>
</g>
<!-- kina&#45;&gt;ITF&#45;N_cc_motor_pwm -->
<g id="edge47" class="edge"><title>kina&#45;&gt;ITF&#45;N_cc_motor_pwm</title>
<path fill="none" stroke="black" d="M283.008,-215.697C294.001,-206.749 307.566,-195.708 319.434,-186.047"/>
<polygon fill="red" stroke="black" points="321.782,-188.65 327.328,-179.622 317.363,-183.221 321.782,-188.65"/>
</g>
<!-- WiFi UDP Stream -->
<g id="node29" class="node"><title>WiFi UDP Stream</title>
<ellipse fill="yellow" stroke="black" cx="536.75" cy="-162" rx="77.1866" ry="18"/>
<text text-anchor="middle" x="536.75" y="-158.3" font-family="Times,serif" font-size="14.00">WiFi UDP Stream</text>
</g>
<!-- kina&#45;&gt;WiFi UDP Stream -->
<g id="edge44" class="edge"><title>kina&#45;&gt;WiFi UDP Stream</title>
<path fill="none" stroke="black" d="M289.535,-221.025C294.233,-219.211 299.096,-217.461 303.75,-216 334.461,-206.361 413.556,-188.932 471.092,-176.7"/>
<polygon fill="red" stroke="black" points="472.15,-180.054 481.207,-174.556 470.698,-173.206 472.15,-180.054"/>
</g>
<!-- goblin -->
<g id="node8" class="node"><title>goblin</title>
<polygon fill="blue" stroke="black" points="793.75,-396 719.75,-396 719.75,-360 793.75,-360 793.75,-396"/>
<text text-anchor="middle" x="756.75" y="-372.4" font-family="Times,serif" font-size="22.00">goblin</text>
</g>
<!-- ITF&#45;mEG_SPI -->
<g id="node22" class="node"><title>ITF&#45;mEG_SPI</title>
<ellipse fill="green" stroke="black" cx="1025.75" cy="-306" rx="63.0888" ry="18"/>
<text text-anchor="middle" x="1025.75" y="-302.3" font-family="Times,serif" font-size="14.00">ITF&#45;mEG_SPI</text>
</g>
<!-- goblin&#45;&gt;ITF&#45;mEG_SPI -->
<g id="edge58" class="edge"><title>goblin&#45;&gt;ITF&#45;mEG_SPI</title>
<path fill="none" stroke="black" d="M793.87,-367.34C839.636,-355.431 917.823,-335.085 970.614,-321.348"/>
<polygon fill="red" stroke="black" points="971.693,-324.683 980.489,-318.778 969.93,-317.909 971.693,-324.683"/>
</g>
<!-- ITF&#45;E_signal_envelope -->
<g id="node28" class="node"><title>ITF&#45;E_signal_envelope</title>
<ellipse fill="yellow" stroke="black" cx="756.75" cy="-306" rx="93.6835" ry="18"/>
<text text-anchor="middle" x="756.75" y="-302.3" font-family="Times,serif" font-size="14.00">ITF&#45;E_signal_envelope</text>
</g>
<!-- goblin&#45;&gt;ITF&#45;E_signal_envelope -->
<g id="edge57" class="edge"><title>goblin&#45;&gt;ITF&#45;E_signal_envelope</title>
<path fill="none" stroke="black" d="M750.834,-359.697C750.038,-351.983 749.812,-342.712 750.154,-334.112"/>
<polygon fill="red" stroke="black" points="753.648,-334.324 750.854,-324.104 746.665,-333.836 753.648,-334.324"/>
</g>
<!-- ITF&#45;C_amplified_raw_signal -->
<g id="node30" class="node"><title>ITF&#45;C_amplified_raw_signal</title>
<ellipse fill="yellow" stroke="black" cx="530.75" cy="-306" rx="114.28" ry="18"/>
<text text-anchor="middle" x="530.75" y="-302.3" font-family="Times,serif" font-size="14.00">ITF&#45;C_amplified_raw_signal</text>
</g>
<!-- goblin&#45;&gt;ITF&#45;C_amplified_raw_signal -->
<g id="edge56" class="edge"><title>goblin&#45;&gt;ITF&#45;C_amplified_raw_signal</title>
<path fill="none" stroke="black" d="M719.722,-367.045C683.085,-356.317 626.777,-338.997 585.101,-325.709"/>
<polygon fill="red" stroke="black" points="585.968,-322.312 575.377,-322.597 583.834,-328.979 585.968,-322.312"/>
</g>
<!-- silent -->
<g id="node9" class="node"><title>silent</title>
<polygon fill="blue" stroke="black" points="466.75,-108 402.75,-108 402.75,-72 466.75,-72 466.75,-108"/>
<text text-anchor="middle" x="434.75" y="-84.4" font-family="Times,serif" font-size="22.00">silent</text>
</g>
<!-- silent&#45;&gt;ITF&#45;E_signal_envelope -->
<g id="edge64" class="edge"><title>silent&#45;&gt;ITF&#45;E_signal_envelope</title>
<path fill="none" stroke="black" d="M466.981,-90.9158C544.323,-91.4692 736.968,-97.5786 776.75,-144 809.083,-181.73 787.356,-243.915 770.721,-278.934"/>
<polygon fill="red" stroke="black" points="767.51,-277.532 766.214,-288.047 773.785,-280.635 767.51,-277.532"/>
</g>
<!-- mogaba -->
<g id="node10" class="node"><title>mogaba</title>
<polygon fill="blue" stroke="black" points="1084.25,-684 997.25,-684 997.25,-648 1084.25,-648 1084.25,-684"/>
<text text-anchor="middle" x="1040.75" y="-660.4" font-family="Times,serif" font-size="22.00">mogaba</text>
</g>
<!-- ITF&#45;A_gnd -->
<g id="node11" class="node"><title>ITF&#45;A_gnd</title>
<ellipse fill="yellow" stroke="black" cx="1040.75" cy="-594" rx="50.8918" ry="18"/>
<text text-anchor="middle" x="1040.75" y="-590.3" font-family="Times,serif" font-size="14.00">ITF&#45;A_gnd</text>
</g>
<!-- mogaba&#45;&gt;ITF&#45;A_gnd -->
<g id="edge67" class="edge"><title>mogaba&#45;&gt;ITF&#45;A_gnd</title>
<path fill="none" stroke="black" d="M1040.75,-647.697C1040.75,-639.983 1040.75,-630.712 1040.75,-622.112"/>
<polygon fill="red" stroke="black" points="1044.25,-622.104 1040.75,-612.104 1037.25,-622.104 1044.25,-622.104"/>
</g>
<!-- ITF&#45;B_5v -->
<g id="node12" class="node"><title>ITF&#45;B_5v</title>
<ellipse fill="yellow" stroke="black" cx="861.75" cy="-594" rx="46.2923" ry="18"/>
<text text-anchor="middle" x="861.75" y="-590.3" font-family="Times,serif" font-size="14.00">ITF&#45;B_5v</text>
</g>
<!-- mogaba&#45;&gt;ITF&#45;B_5v -->
<g id="edge68" class="edge"><title>mogaba&#45;&gt;ITF&#45;B_5v</title>
<path fill="none" stroke="black" d="M996.961,-647.876C968.26,-636.652 930.985,-622.075 902.843,-611.07"/>
<polygon fill="red" stroke="black" points="903.887,-607.72 893.299,-607.338 901.337,-614.239 903.887,-607.72"/>
</g>
<!-- ITF&#45;S_3_3v -->
<g id="node15" class="node"><title>ITF&#45;S_3_3v</title>
<ellipse fill="yellow" stroke="black" cx="359.75" cy="-594" rx="53.8905" ry="18"/>
<text text-anchor="middle" x="359.75" y="-590.3" font-family="Times,serif" font-size="14.00">ITF&#45;S_3_3v</text>
</g>
<!-- mogaba&#45;&gt;ITF&#45;S_3_3v -->
<g id="edge70" class="edge"><title>mogaba&#45;&gt;ITF&#45;S_3_3v</title>
<path fill="none" stroke="black" d="M997.114,-660.515C879.666,-648.442 556.6,-615.234 420.968,-601.293"/>
<polygon fill="red" stroke="black" points="421.061,-597.784 410.756,-600.243 420.345,-604.747 421.061,-597.784"/>
</g>
<!-- ITF&#45;F_12V -->
<g id="node25" class="node"><title>ITF&#45;F_12V</title>
<ellipse fill="yellow" stroke="black" cx="1160.75" cy="-594" rx="51.1914" ry="18"/>
<text text-anchor="middle" x="1160.75" y="-590.3" font-family="Times,serif" font-size="14.00">ITF&#45;F_12V</text>
</g>
<!-- mogaba&#45;&gt;ITF&#45;F_12V -->
<g id="edge69" class="edge"><title>mogaba&#45;&gt;ITF&#45;F_12V</title>
<path fill="none" stroke="black" d="M1064.21,-647.876C1080.86,-637.533 1103.41,-624.344 1122.59,-613.725"/>
<polygon fill="red" stroke="black" points="1124.33,-616.768 1131.42,-608.895 1120.96,-610.628 1124.33,-616.768"/>
</g>
<!-- ITF&#45;A_gnd&#45;&gt;tobo -->
<g id="edge1" class="edge"><title>ITF&#45;A_gnd&#45;&gt;tobo</title>
<path fill="none" stroke="black" d="M1003.77,-581.597C961.786,-568.65 893.648,-547.638 851.388,-534.607"/>
<polygon fill="black" stroke="black" points="852.338,-531.237 841.75,-531.635 850.275,-537.926 852.338,-531.237"/>
</g>
<!-- ITF&#45;A_gnd&#45;&gt;cletus -->
<g id="edge10" class="edge"><title>ITF&#45;A_gnd&#45;&gt;cletus</title>
<path fill="none" stroke="black" d="M1078.79,-582.03C1086.07,-579.985 1093.64,-577.896 1100.75,-576 1164.49,-559.006 1197.67,-586.216 1244.75,-540 1273.98,-511.299 1268.75,-491.969 1268.75,-451 1268.75,-451 1268.75,-451 1268.75,-233 1268.75,-190.162 1265.69,-170.135 1231.75,-144 1184.84,-107.877 1025.56,-120.786 967.75,-108 964.121,-107.197 960.385,-106.269 956.651,-105.269"/>
<polygon fill="black" stroke="black" points="957.419,-101.849 946.844,-102.489 955.51,-108.584 957.419,-101.849"/>
</g>
<!-- ITF&#45;A_gnd&#45;&gt;oneeye -->
<g id="edge18" class="edge"><title>ITF&#45;A_gnd&#45;&gt;oneeye</title>
<path fill="none" stroke="black" d="M994.875,-586.25C971.516,-582.93 942.651,-579.006 916.75,-576 730.321,-554.36 508.023,-535.195 410.192,-527.096"/>
<polygon fill="black" stroke="black" points="410.255,-523.589 400.001,-526.255 409.679,-530.565 410.255,-523.589"/>
</g>
<!-- ITF&#45;A_gnd&#45;&gt;croaker -->
<g id="edge25" class="edge"><title>ITF&#45;A_gnd&#45;&gt;croaker</title>
<path fill="none" stroke="black" d="M1064.65,-578.122C1098.08,-555.252 1154.75,-508.064 1154.75,-451 1154.75,-451 1154.75,-451 1154.75,-377 1154.75,-335.633 1139.51,-289.722 1128.34,-261.605"/>
<polygon fill="black" stroke="black" points="1131.47,-260.019 1124.44,-252.093 1124.99,-262.673 1131.47,-260.019"/>
</g>
<!-- ITF&#45;A_gnd&#45;&gt;retroATL3 -->
<g id="edge30" class="edge"><title>ITF&#45;A_gnd&#45;&gt;retroATL3</title>
<path fill="none" stroke="black" d="M1078.4,-581.832C1085.78,-579.784 1093.49,-577.744 1100.75,-576 1180.93,-556.745 1222.49,-596.286 1282.75,-540 1312.69,-512.034 1306.75,-491.969 1306.75,-451 1306.75,-451 1306.75,-451 1306.75,-233 1306.75,-192.031 1312.5,-172.169 1282.75,-144 1256.8,-119.423 1164.47,-104.787 1099.61,-97.3154"/>
<polygon fill="black" stroke="black" points="1099.78,-93.8124 1089.45,-96.1773 1099,-100.769 1099.78,-93.8124"/>
</g>
<!-- ITF&#45;A_gnd&#45;&gt;kina -->
<g id="edge39" class="edge"><title>ITF&#45;A_gnd&#45;&gt;kina</title>
<path fill="none" stroke="black" d="M1036.83,-576.046C1023.35,-522.115 973.328,-354.192 859.75,-288 811.406,-259.826 423.39,-241.626 299.574,-236.491"/>
<polygon fill="black" stroke="black" points="299.572,-232.988 289.437,-236.075 299.285,-239.982 299.572,-232.988"/>
</g>
<!-- ITF&#45;A_gnd&#45;&gt;goblin -->
<g id="edge48" class="edge"><title>ITF&#45;A_gnd&#45;&gt;goblin</title>
<path fill="none" stroke="black" d="M1031.5,-576.297C1012.72,-543.875 967.025,-472.084 909.75,-432 877.953,-409.747 835.954,-396.082 804.004,-388.213"/>
<polygon fill="black" stroke="black" points="804.546,-384.745 794.01,-385.859 802.94,-391.559 804.546,-384.745"/>
</g>
<!-- ITF&#45;A_gnd&#45;&gt;silent -->
<g id="edge59" class="edge"><title>ITF&#45;A_gnd&#45;&gt;silent</title>
<path fill="none" stroke="black" d="M1075.95,-580.949C1096.61,-572.335 1121.87,-558.899 1138.75,-540 1189.02,-483.707 1192.75,-454.473 1192.75,-379 1192.75,-379 1192.75,-379 1192.75,-233 1192.75,-192.553 1204.26,-170.549 1173.75,-144 1147.33,-121.016 631.082,-98.7825 477.494,-92.6549"/>
<polygon fill="black" stroke="black" points="477.206,-89.1408 467.075,-92.2418 476.928,-96.1353 477.206,-89.1408"/>
</g>
<!-- ITF&#45;B_5v&#45;&gt;tobo -->
<g id="edge2" class="edge"><title>ITF&#45;B_5v&#45;&gt;tobo</title>
<path fill="none" stroke="black" d="M850.374,-576.411C844.744,-568.2 837.817,-558.099 831.509,-548.9"/>
<polygon fill="black" stroke="black" points="834.255,-546.715 825.713,-540.447 828.482,-550.673 834.255,-546.715"/>
</g>
<!-- ITF&#45;B_5v&#45;&gt;cletus -->
<g id="edge11" class="edge"><title>ITF&#45;B_5v&#45;&gt;cletus</title>
<path fill="none" stroke="black" d="M905.528,-588.223C1003.27,-574.885 1230.75,-527.853 1230.75,-379 1230.75,-379 1230.75,-379 1230.75,-233 1230.75,-192.031 1237.32,-171.273 1206.75,-144 1166.67,-108.244 1020.11,-119.964 967.75,-108 964.126,-107.172 960.395,-106.226 956.664,-105.214"/>
<polygon fill="black" stroke="black" points="957.437,-101.795 946.861,-102.414 955.515,-108.525 957.437,-101.795"/>
</g>
<!-- ITF&#45;B_5v&#45;&gt;oneeye -->
<g id="edge19" class="edge"><title>ITF&#45;B_5v&#45;&gt;oneeye</title>
<path fill="none" stroke="black" d="M818.949,-587.032C726.548,-574.147 508.772,-543.78 410.012,-530.009"/>
<polygon fill="black" stroke="black" points="410.373,-526.525 399.985,-528.611 409.406,-533.458 410.373,-526.525"/>
</g>
<!-- ITF&#45;B_5v&#45;&gt;croaker -->
<g id="edge26" class="edge"><title>ITF&#45;B_5v&#45;&gt;croaker</title>
<path fill="none" stroke="black" d="M880.978,-577.402C926.523,-539.325 1041.38,-436.473 1097.75,-324 1107.45,-304.636 1112.21,-280.487 1114.54,-262.233"/>
<polygon fill="black" stroke="black" points="1118.03,-262.571 1115.65,-252.246 1111.07,-261.799 1118.03,-262.571"/>
</g>
<!-- ITF&#45;B_5v&#45;&gt;kina -->
<g id="edge40" class="edge"><title>ITF&#45;B_5v&#45;&gt;kina</title>
<path fill="none" stroke="black" d="M820.24,-585.885C700.386,-564.996 359.994,-503.111 323.75,-468 266.589,-412.628 260.134,-310.991 260.598,-262.348"/>
<polygon fill="black" stroke="black" points="264.099,-262.333 260.803,-252.263 257.1,-262.19 264.099,-262.333"/>
</g>
<!-- ITF&#45;B_5v&#45;&gt;goblin -->
<g id="edge49" class="edge"><title>ITF&#45;B_5v&#45;&gt;goblin</title>
<path fill="none" stroke="black" d="M871.856,-576.298C889.283,-545.106 920.317,-477.087 889.75,-432 870.639,-403.812 833.887,-390.615 803.852,-384.437"/>
<polygon fill="black" stroke="black" points="804.43,-380.985 793.959,-382.599 803.152,-387.867 804.43,-380.985"/>
</g>
<!-- ITF&#45;B_5v&#45;&gt;silent -->
<g id="edge60" class="edge"><title>ITF&#45;B_5v&#45;&gt;silent</title>
<path fill="none" stroke="black" d="M815.665,-592.959C720.112,-591.92 494.023,-584.501 310.75,-540 227.02,-519.67 203.072,-514.834 130.75,-468 82.997,-437.077 38.7495,-435.891 38.7495,-379 38.7495,-379 38.7495,-379 38.7495,-233 38.7495,-192.031 32.0699,-171.151 62.7495,-144 110.926,-101.365 305.679,-92.9656 392.555,-91.3563"/>
<polygon fill="black" stroke="black" points="392.657,-94.8552 402.598,-91.1918 392.542,-87.8561 392.657,-94.8552"/>
</g>
<!-- ITF&#45;I_pulse_on&#45;&gt;tobo -->
<g id="edge3" class="edge"><title>ITF&#45;I_pulse_on&#45;&gt;tobo</title>
<path fill="none" stroke="black" d="M173.543,-180.208C183.184,-233.45 220.337,-396.216 323.75,-468 396.644,-518.6 673.065,-521.998 775.371,-521.465"/>
<polygon fill="black" stroke="black" points="775.586,-524.964 785.562,-521.396 775.538,-517.964 775.586,-524.964"/>
</g>
<!-- ITF&#45;I_pulse_on&#45;&gt;kina -->
<g id="edge43" class="edge"><title>ITF&#45;I_pulse_on&#45;&gt;kina</title>
<path fill="none" stroke="black" d="M196.858,-178.671C209.637,-187.688 224.831,-199.198 237.368,-209.301"/>
<polygon fill="black" stroke="black" points="235.218,-212.064 245.171,-215.697 239.655,-206.651 235.218,-212.064"/>
</g>
<!-- ITF&#45;I_pulse_on&#45;&gt;silent -->
<g id="edge62" class="edge"><title>ITF&#45;I_pulse_on&#45;&gt;silent</title>
<path fill="none" stroke="black" d="M216.133,-148.967C265.681,-135.829 344.382,-114.961 392.612,-102.173"/>
<polygon fill="black" stroke="black" points="393.65,-105.519 402.419,-99.5724 391.856,-98.7524 393.65,-105.519"/>
</g>
<!-- ITF&#45;J_pulse_off&#45;&gt;tobo -->
<g id="edge4" class="edge"><title>ITF&#45;J_pulse_off&#45;&gt;tobo</title>
<path fill="none" stroke="black" d="M654.929,-175.615C580.391,-197.6 436.293,-244.731 407.75,-288 398.939,-301.356 400.938,-309.522 407.75,-324 474.971,-466.888 688.017,-506.894 775.593,-517.448"/>
<polygon fill="black" stroke="black" points="775.3,-520.937 785.633,-518.594 776.094,-513.982 775.3,-520.937"/>
</g>
<!-- ITF&#45;J_pulse_off&#45;&gt;silent -->
<g id="edge63" class="edge"><title>ITF&#45;J_pulse_off&#45;&gt;silent</title>
<path fill="none" stroke="black" d="M653.59,-148.807C603.751,-135.642 525.044,-114.852 476.846,-102.12"/>
<polygon fill="black" stroke="black" points="477.607,-98.7009 467.045,-99.5309 475.819,-105.469 477.607,-98.7009"/>
</g>
<!-- ITF&#45;S_3_3v&#45;&gt;tobo -->
<g id="edge5" class="edge"><title>ITF&#45;S_3_3v&#45;&gt;tobo</title>
<path fill="none" stroke="black" d="M407.906,-585.575C498.618,-571.589 693.098,-541.603 775.546,-528.89"/>
<polygon fill="black" stroke="black" points="776.144,-532.34 785.494,-527.357 775.077,-525.421 776.144,-532.34"/>
</g>
<!-- ITF&#45;S_3_3v&#45;&gt;cletus -->
<g id="edge13" class="edge"><title>ITF&#45;S_3_3v&#45;&gt;cletus</title>
<path fill="none" stroke="black" d="M307.183,-589.824C225.341,-581.721 76.7495,-552.969 76.7495,-451 76.7495,-451 76.7495,-451 76.7495,-233 76.7495,-192.553 65.1455,-170.445 95.7495,-144 125.183,-118.566 701.861,-97.8701 868.198,-92.4113"/>
<polygon fill="black" stroke="black" points="868.67,-95.8979 878.551,-92.0739 868.442,-88.9016 868.67,-95.8979"/>
</g>
<!-- ITF&#45;S_3_3v&#45;&gt;oneeye -->
<g id="edge20" class="edge"><title>ITF&#45;S_3_3v&#45;&gt;oneeye</title>
<path fill="none" stroke="black" d="M359.75,-575.697C359.75,-567.983 359.75,-558.712 359.75,-550.112"/>
<polygon fill="black" stroke="black" points="363.25,-550.104 359.75,-540.104 356.25,-550.104 363.25,-550.104"/>
</g>
<!-- ITF&#45;S_3_3v&#45;&gt;kina -->
<g id="edge41" class="edge"><title>ITF&#45;S_3_3v&#45;&gt;kina</title>
<path fill="none" stroke="black" d="M338.936,-577.169C312.772,-555.777 269.282,-514.875 252.75,-468 227.695,-396.96 243.819,-306.088 254.496,-261.75"/>
<polygon fill="black" stroke="black" points="257.899,-262.568 256.934,-252.017 251.109,-260.867 257.899,-262.568"/>
</g>
<!-- ITF&#45;S_3_3v&#45;&gt;goblin -->
<g id="edge50" class="edge"><title>ITF&#45;S_3_3v&#45;&gt;goblin</title>
<path fill="none" stroke="black" d="M377.392,-576.964C413.312,-545.087 498.592,-473.28 581.75,-432 622.945,-411.551 673.561,-397.272 709.742,-388.73"/>
<polygon fill="black" stroke="black" points="710.585,-392.127 719.544,-386.472 709.013,-385.306 710.585,-392.127"/>
</g>
<!-- ITF&#45;S_3_3v&#45;&gt;silent -->
<g id="edge61" class="edge"><title>ITF&#45;S_3_3v&#45;&gt;silent</title>
<path fill="none" stroke="black" d="M308.184,-588.57C234.245,-581.426 102.615,-565.523 62.7495,-540 22.1498,-514.008 0.749521,-499.207 0.749521,-451 0.749521,-451 0.749521,-451 0.749521,-233 0.749521,-192.031 -6.10543,-170.952 24.7495,-144 78.8153,-96.7738 298.732,-90.9917 392.292,-90.7205"/>
<polygon fill="black" stroke="black" points="392.533,-94.2204 402.53,-90.7116 392.527,-87.2204 392.533,-94.2204"/>
</g>
<!-- ITF&#45;mET_Transducer&#45;&gt;tobo -->
<g id="edge6" class="edge"><title>ITF&#45;mET_Transducer&#45;&gt;tobo</title>
<path fill="none" stroke="black" d="M920.274,-179.969C934.183,-228.636 953.887,-371.377 898.75,-468 888.362,-486.203 868.862,-499.606 851.029,-508.379"/>
<polygon fill="black" stroke="black" points="849.553,-505.206 841.913,-512.546 852.463,-511.572 849.553,-505.206"/>
</g>
<!-- ITF&#45;mET_Transducer&#45;&gt;cletus -->
<g id="edge14" class="edge"><title>ITF&#45;mET_Transducer&#45;&gt;cletus</title>
<path fill="none" stroke="black" d="M906.834,-143.697C906.038,-135.983 905.812,-126.712 906.154,-118.112"/>
<polygon fill="black" stroke="black" points="909.648,-118.324 906.854,-108.104 902.665,-117.836 909.648,-118.324"/>
</g>
<!-- ITF&#45;mET_Transducer&#45;&gt;retroATL3 -->
<g id="edge33" class="edge"><title>ITF&#45;mET_Transducer&#45;&gt;retroATL3</title>
<path fill="none" stroke="black" d="M935.348,-144.411C950.269,-135.115 970.19,-123.398 988.169,-113.308"/>
<polygon fill="black" stroke="black" points="990.317,-116.118 997.357,-108.201 986.916,-110 990.317,-116.118"/>
</g>
<!-- ITF&#45;R_reserved&#45;&gt;goblin -->
<g id="edge54" class="edge"><title>ITF&#45;R_reserved&#45;&gt;goblin</title>
<path fill="none" stroke="black" d="M799.951,-432.055C793.122,-423.668 784.741,-413.376 777.185,-404.096"/>
<polygon fill="black" stroke="black" points="779.845,-401.82 770.817,-396.275 774.417,-406.24 779.845,-401.82"/>
</g>
<!-- ITF&#45;mET_SMA&#45;&gt;goblin -->
<g id="edge55" class="edge"><title>ITF&#45;mET_SMA&#45;&gt;goblin</title>
<path fill="none" stroke="black" d="M682.247,-432.765C694.854,-423.667 710.788,-412.168 724.681,-402.142"/>
<polygon fill="black" stroke="black" points="726.96,-404.814 733.021,-396.124 722.863,-399.138 726.96,-404.814"/>
</g>
<!-- ITF&#45;N_cc_motor_pwm&#45;&gt;cletus -->
<g id="edge12" class="edge"><title>ITF&#45;N_cc_motor_pwm&#45;&gt;cletus</title>
<path fill="none" stroke="black" d="M414.994,-149.411C426.89,-147.501 439.172,-145.618 450.75,-144 603.721,-122.615 786.081,-103.593 868.468,-95.3451"/>
<polygon fill="black" stroke="black" points="868.877,-98.8218 878.481,-94.3467 868.183,-91.8564 868.877,-98.8218"/>
</g>
<!-- ITF&#45;N_cc_motor_pwm&#45;&gt;retroATL3 -->
<g id="edge32" class="edge"><title>ITF&#45;N_cc_motor_pwm&#45;&gt;retroATL3</title>
<path fill="none" stroke="black" d="M413.834,-149.165C426.079,-147.237 438.78,-145.411 450.75,-144 674.215,-117.651 733.072,-140.341 955.75,-108 959.172,-107.503 962.67,-106.938 966.193,-106.324"/>
<polygon fill="black" stroke="black" points="966.959,-109.742 976.154,-104.479 965.683,-102.859 966.959,-109.742"/>
</g>
<!-- ITF&#45;mET_Piezo&#45;&gt;cletus -->
<g id="edge15" class="edge"><title>ITF&#45;mET_Piezo&#45;&gt;cletus</title>
<path fill="none" stroke="black" d="M918.645,-36.1043C919.45,-43.7913 919.686,-53.0537 919.354,-61.6651"/>
<polygon fill="black" stroke="black" points="915.858,-61.4805 918.665,-71.6966 922.842,-61.9597 915.858,-61.4805"/>
</g>
<!-- ITF&#45;G_gain_control&#45;&gt;goblin -->
<g id="edge51" class="edge"><title>ITF&#45;G_gain_control&#45;&gt;goblin</title>
<path fill="none" stroke="black" d="M472.378,-437.205C539.099,-423.548 647.731,-401.314 709.628,-388.645"/>
<polygon fill="black" stroke="black" points="710.42,-392.055 719.515,-386.621 709.016,-385.197 710.42,-392.055"/>
</g>
<!-- ITF&#45;mEG_SPI&#45;&gt;croaker -->
<g id="edge27" class="edge"><title>ITF&#45;mEG_SPI&#45;&gt;croaker</title>
<path fill="none" stroke="black" d="M1046.86,-288.765C1058.57,-279.753 1073.35,-268.385 1086.3,-258.426"/>
<polygon fill="black" stroke="black" points="1088.7,-260.995 1094.49,-252.124 1084.43,-255.447 1088.7,-260.995"/>
</g>
<!-- ITF&#45;F_12V&#45;&gt;retroATL3 -->
<g id="edge31" class="edge"><title>ITF&#45;F_12V&#45;&gt;retroATL3</title>
<path fill="none" stroke="black" d="M1207.35,-586.284C1239.17,-579.503 1280.36,-566.111 1307.75,-540 1338.76,-510.444 1344.75,-493.838 1344.75,-451 1344.75,-451 1344.75,-451 1344.75,-233 1344.75,-190.162 1340.96,-171.056 1307.75,-144 1276.54,-118.572 1170.63,-103.864 1099.72,-96.6466"/>
<polygon fill="black" stroke="black" points="1099.83,-93.1397 1089.53,-95.6358 1099.13,-100.106 1099.83,-93.1397"/>
</g>
<!-- ITF&#45;F_12V&#45;&gt;mogaba -->
<g id="edge66" class="edge"><title>ITF&#45;F_12V&#45;&gt;mogaba</title>
<path fill="none" stroke="black" d="M1139.87,-610.514C1124.63,-620.068 1103.58,-632.464 1084.75,-643.019"/>
<polygon fill="black" stroke="black" points="1083.04,-639.961 1076,-647.876 1086.44,-646.081 1083.04,-639.961"/>
</g>
<!-- Motor&#45;&gt;retroATL3 -->
<g id="edge34" class="edge"><title>Motor&#45;&gt;retroATL3</title>
<path fill="none" stroke="black" d="M1038.64,-36.1043C1039.45,-43.7913 1039.69,-53.0537 1039.35,-61.6651"/>
<polygon fill="black" stroke="black" points="1035.86,-61.4805 1038.67,-71.6966 1042.84,-61.9597 1035.86,-61.4805"/>
</g>
<!-- Tri&#45;Piezo Head&#45;&gt;retroATL3 -->
<g id="edge35" class="edge"><title>Tri&#45;Piezo Head&#45;&gt;retroATL3</title>
<path fill="none" stroke="black" d="M1127.66,-35.2257C1113.21,-44.5816 1093.67,-56.4797 1076.04,-66.7042"/>
<polygon fill="black" stroke="black" points="1073.95,-63.8628 1067.02,-71.8761 1077.44,-69.934 1073.95,-63.8628"/>
</g>
<!-- ITF&#45;E_signal_envelope&#45;&gt;kina -->
<g id="edge42" class="edge"><title>ITF&#45;E_signal_envelope&#45;&gt;kina</title>
<path fill="none" stroke="black" d="M688.923,-293.517C677.203,-291.615 665.131,-289.708 653.75,-288 523.908,-268.512 369.369,-248.572 299.44,-239.724"/>
<polygon fill="black" stroke="black" points="299.713,-236.231 289.354,-238.451 298.837,-243.176 299.713,-236.231"/>
</g>
<!-- ITF&#45;E_signal_envelope&#45;&gt;goblin -->
<g id="edge53" class="edge"><title>ITF&#45;E_signal_envelope&#45;&gt;goblin</title>
<path fill="none" stroke="black" d="M762.645,-324.104C763.45,-331.791 763.686,-341.054 763.354,-349.665"/>
<polygon fill="black" stroke="black" points="759.858,-349.48 762.665,-359.697 766.842,-349.96 759.858,-349.48"/>
</g>
<!-- ITF&#45;C_amplified_raw_signal&#45;&gt;goblin -->
<g id="edge52" class="edge"><title>ITF&#45;C_amplified_raw_signal&#45;&gt;goblin</title>
<path fill="none" stroke="black" d="M584.59,-321.928C622.71,-333.297 673.254,-348.935 709.752,-360.642"/>
<polygon fill="black" stroke="black" points="709.061,-364.097 719.652,-363.834 711.208,-357.434 709.061,-364.097"/>
</g>
<!-- ITF&#45;mEM_Alimentation -->
<g id="node31" class="node"><title>ITF&#45;mEM_Alimentation</title>
<ellipse fill="green" stroke="black" cx="1040.75" cy="-738" rx="98.5829" ry="18"/>
<text text-anchor="middle" x="1040.75" y="-734.3" font-family="Times,serif" font-size="14.00">ITF&#45;mEM_Alimentation</text>
</g>
<!-- ITF&#45;mEM_Alimentation&#45;&gt;mogaba -->
<g id="edge65" class="edge"><title>ITF&#45;mEM_Alimentation&#45;&gt;mogaba</title>
<path fill="none" stroke="black" d="M1040.75,-719.697C1040.75,-711.983 1040.75,-702.712 1040.75,-694.112"/>
<polygon fill="black" stroke="black" points="1044.25,-694.104 1040.75,-684.104 1037.25,-694.104 1044.25,-694.104"/>
</g>
</g>
</svg>
