<?xml version="1.0" encoding="UTF-8" standalone="no"?>
<!DOCTYPE svg PUBLIC "-//W3C//DTD SVG 1.1//EN"
 "http://www.w3.org/Graphics/SVG/1.1/DTD/svg11.dtd">
<!-- Generated by graphviz version 2.38.0 (20140413.2041)
 -->
<!-- Title: %3 Pages: 1 -->
<svg width="1055pt" height="620pt"
 viewBox="0.00 0.00 1055.26 620.00" xmlns="http://www.w3.org/2000/svg" xmlns:xlink="http://www.w3.org/1999/xlink">
<g id="graph0" class="graph" transform="scale(1 1) rotate(0) translate(4 616)">
<title>%3</title>
<polygon fill="white" stroke="none" points="-4,4 -4,-616 1051.26,-616 1051.26,4 -4,4"/>
<!-- tobo -->
<g id="node1" class="node"><title>tobo</title>
<polygon fill="blue" stroke="black" points="327,-252 271,-252 271,-216 327,-216 327,-252"/>
<text text-anchor="middle" x="299" y="-228.4" font-family="Times,serif" font-size="22.00">tobo</text>
</g>
<!-- ITF&#45;R_reserved -->
<g id="node12" class="node"><title>ITF&#45;R_reserved</title>
<ellipse fill="yellow" stroke="black" cx="204" cy="-162" rx="66.8882" ry="18"/>
<text text-anchor="middle" x="204" y="-158.3" font-family="Times,serif" font-size="14.00">ITF&#45;R_reserved</text>
</g>
<!-- tobo&#45;&gt;ITF&#45;R_reserved -->
<g id="edge6" class="edge"><title>tobo&#45;&gt;ITF&#45;R_reserved</title>
<path fill="none" stroke="black" d="M275.517,-215.697C263.077,-206.53 247.654,-195.166 234.32,-185.341"/>
<polygon fill="red" stroke="black" points="236.037,-182.259 225.91,-179.145 231.885,-187.894 236.037,-182.259"/>
</g>
<!-- ITF&#45;mET_SMA -->
<g id="node13" class="node"><title>ITF&#45;mET_SMA</title>
<ellipse fill="green" stroke="black" cx="358" cy="-162" rx="68.7879" ry="18"/>
<text text-anchor="middle" x="358" y="-158.3" font-family="Times,serif" font-size="14.00">ITF&#45;mET_SMA</text>
</g>
<!-- tobo&#45;&gt;ITF&#45;mET_SMA -->
<g id="edge7" class="edge"><title>tobo&#45;&gt;ITF&#45;mET_SMA</title>
<path fill="none" stroke="black" d="M313.584,-215.697C320.658,-207.305 329.283,-197.07 337.045,-187.861"/>
<polygon fill="red" stroke="black" points="339.815,-190.006 343.583,-180.104 334.463,-185.495 339.815,-190.006"/>
</g>
<!-- ITF&#45;mET_Transducer -->
<g id="node14" class="node"><title>ITF&#45;mET_Transducer</title>
<ellipse fill="green" stroke="black" cx="648" cy="-162" rx="89.0842" ry="18"/>
<text text-anchor="middle" x="648" y="-158.3" font-family="Times,serif" font-size="14.00">ITF&#45;mET_Transducer</text>
</g>
<!-- tobo&#45;&gt;ITF&#45;mET_Transducer -->
<g id="edge8" class="edge"><title>tobo&#45;&gt;ITF&#45;mET_Transducer</title>
<path fill="none" stroke="black" d="M327.265,-227.331C381.154,-216.522 500.07,-192.671 576.987,-177.243"/>
<polygon fill="red" stroke="black" points="577.967,-180.617 587.083,-175.218 576.59,-173.753 577.967,-180.617"/>
</g>
<!-- cletus -->
<g id="node2" class="node"><title>cletus</title>
<polygon fill="blue" stroke="black" points="896,-108 828,-108 828,-72 896,-72 896,-108"/>
<text text-anchor="middle" x="862" y="-84.4" font-family="Times,serif" font-size="22.00">cletus</text>
</g>
<!-- cletus&#45;&gt;ITF&#45;mET_Transducer -->
<g id="edge16" class="edge"><title>cletus&#45;&gt;ITF&#45;mET_Transducer</title>
<path fill="none" stroke="black" d="M827.749,-103.964C795.084,-115.182 745.402,-131.49 706.497,-143.797"/>
<polygon fill="red" stroke="black" points="705.341,-140.492 696.855,-146.834 707.444,-147.168 705.341,-140.492"/>
</g>
<!-- ITF&#45;mET_Piezo -->
<g id="node16" class="node"><title>ITF&#45;mET_Piezo</title>
<ellipse fill="green" stroke="black" cx="862" cy="-18" rx="68.7879" ry="18"/>
<text text-anchor="middle" x="862" y="-14.3" font-family="Times,serif" font-size="14.00">ITF&#45;mET_Piezo</text>
</g>
<!-- cletus&#45;&gt;ITF&#45;mET_Piezo -->
<g id="edge15" class="edge"><title>cletus&#45;&gt;ITF&#45;mET_Piezo</title>
<path fill="none" stroke="black" d="M856.084,-71.6966C855.289,-63.9827 855.062,-54.7125 855.405,-46.1124"/>
<polygon fill="red" stroke="black" points="858.898,-46.3243 856.105,-36.1043 851.915,-45.8356 858.898,-46.3243"/>
</g>
<!-- oneeye -->
<g id="node3" class="node"><title>oneeye</title>
<polygon fill="blue" stroke="black" points="399,-396 319,-396 319,-360 399,-360 399,-396"/>
<text text-anchor="middle" x="359" y="-372.4" font-family="Times,serif" font-size="22.00">oneeye</text>
</g>
<!-- ITF&#45;I_pulse_on -->
<g id="node9" class="node"><title>ITF&#45;I_pulse_on</title>
<ellipse fill="yellow" stroke="black" cx="208" cy="-306" rx="65.7887" ry="18"/>
<text text-anchor="middle" x="208" y="-302.3" font-family="Times,serif" font-size="14.00">ITF&#45;I_pulse_on</text>
</g>
<!-- oneeye&#45;&gt;ITF&#45;I_pulse_on -->
<g id="edge21" class="edge"><title>oneeye&#45;&gt;ITF&#45;I_pulse_on</title>
<path fill="none" stroke="black" d="M322.061,-359.876C299.961,-349.631 271.834,-336.592 249.041,-326.026"/>
<polygon fill="red" stroke="black" points="250.499,-322.844 239.954,-321.813 247.554,-329.194 250.499,-322.844"/>
</g>
<!-- ITF&#45;J_pulse_off -->
<g id="node10" class="node"><title>ITF&#45;J_pulse_off</title>
<ellipse fill="yellow" stroke="black" cx="359" cy="-306" rx="67.6881" ry="18"/>
<text text-anchor="middle" x="359" y="-302.3" font-family="Times,serif" font-size="14.00">ITF&#45;J_pulse_off</text>
</g>
<!-- oneeye&#45;&gt;ITF&#45;J_pulse_off -->
<g id="edge22" class="edge"><title>oneeye&#45;&gt;ITF&#45;J_pulse_off</title>
<path fill="none" stroke="black" d="M359,-359.697C359,-351.983 359,-342.712 359,-334.112"/>
<polygon fill="red" stroke="black" points="362.5,-334.104 359,-324.104 355.5,-334.104 362.5,-334.104"/>
</g>
<!-- ITF&#45;N_cc_motor_pwm -->
<g id="node15" class="node"><title>ITF&#45;N_cc_motor_pwm</title>
<ellipse fill="yellow" stroke="black" cx="849" cy="-162" rx="93.6835" ry="18"/>
<text text-anchor="middle" x="849" y="-158.3" font-family="Times,serif" font-size="14.00">ITF&#45;N_cc_motor_pwm</text>
</g>
<!-- oneeye&#45;&gt;ITF&#45;N_cc_motor_pwm -->
<g id="edge23" class="edge"><title>oneeye&#45;&gt;ITF&#45;N_cc_motor_pwm</title>
<path fill="none" stroke="black" d="M398.27,-359.849C488.07,-320.631 708.004,-224.578 803.504,-182.87"/>
<polygon fill="red" stroke="black" points="805.13,-185.979 812.893,-178.769 802.328,-179.564 805.13,-185.979"/>
</g>
<!-- ITF&#45;G_gain_control -->
<g id="node17" class="node"><title>ITF&#45;G_gain_control</title>
<ellipse fill="yellow" stroke="black" cx="112" cy="-234" rx="81.7856" ry="18"/>
<text text-anchor="middle" x="112" y="-230.3" font-family="Times,serif" font-size="14.00">ITF&#45;G_gain_control</text>
</g>
<!-- oneeye&#45;&gt;ITF&#45;G_gain_control -->
<g id="edge20" class="edge"><title>oneeye&#45;&gt;ITF&#45;G_gain_control</title>
<path fill="none" stroke="black" d="M318.818,-372.654C261.097,-365.595 158.807,-349.772 133,-324 116.982,-308.004 112.293,-282.215 111.282,-262.505"/>
<polygon fill="red" stroke="black" points="114.776,-262.2 111.05,-252.282 107.778,-262.358 114.776,-262.2"/>
</g>
<!-- goblin -->
<g id="node4" class="node"><title>goblin</title>
<polygon fill="blue" stroke="black" points="315,-108 241,-108 241,-72 315,-72 315,-108"/>
<text text-anchor="middle" x="278" y="-84.4" font-family="Times,serif" font-size="22.00">goblin</text>
</g>
<!-- ITF&#45;C_amplified_raw_signal -->
<g id="node18" class="node"><title>ITF&#45;C_amplified_raw_signal</title>
<ellipse fill="yellow" stroke="black" cx="272" cy="-18" rx="114.28" ry="18"/>
<text text-anchor="middle" x="272" y="-14.3" font-family="Times,serif" font-size="14.00">ITF&#45;C_amplified_raw_signal</text>
</g>
<!-- goblin&#45;&gt;ITF&#45;C_amplified_raw_signal -->
<g id="edge32" class="edge"><title>goblin&#45;&gt;ITF&#45;C_amplified_raw_signal</title>
<path fill="none" stroke="black" d="M270.601,-71.6966C269.144,-63.9827 268.123,-54.7125 267.729,-46.1124"/>
<polygon fill="red" stroke="black" points="271.228,-46.048 267.571,-36.1043 264.229,-46.1582 271.228,-46.048"/>
</g>
<!-- ITF&#45;E_signal_envelope -->
<g id="node19" class="node"><title>ITF&#45;E_signal_envelope</title>
<ellipse fill="yellow" stroke="black" cx="498" cy="-18" rx="93.6835" ry="18"/>
<text text-anchor="middle" x="498" y="-14.3" font-family="Times,serif" font-size="14.00">ITF&#45;E_signal_envelope</text>
</g>
<!-- goblin&#45;&gt;ITF&#45;E_signal_envelope -->
<g id="edge34" class="edge"><title>goblin&#45;&gt;ITF&#45;E_signal_envelope</title>
<path fill="none" stroke="black" d="M315.21,-75.4203C348.798,-64.2413 398.674,-48.3252 437.888,-36.2463"/>
<polygon fill="red" stroke="black" points="439.077,-39.5424 447.611,-33.2633 437.024,-32.8502 439.077,-39.5424"/>
</g>
<!-- ADL5511 -->
<g id="node20" class="node"><title>ADL5511</title>
<ellipse fill="yellow" stroke="black" cx="656" cy="-18" rx="46.2923" ry="18"/>
<text text-anchor="middle" x="656" y="-14.3" font-family="Times,serif" font-size="14.00">ADL5511</text>
</g>
<!-- goblin&#45;&gt;ADL5511 -->
<g id="edge33" class="edge"><title>goblin&#45;&gt;ADL5511</title>
<path fill="none" stroke="black" d="M315.14,-84.5902C375.557,-77.041 498.669,-60.0905 601,-36 604.669,-35.1362 608.452,-34.1578 612.233,-33.1175"/>
<polygon fill="red" stroke="black" points="613.527,-36.3873 622.166,-30.2549 611.588,-29.661 613.527,-36.3873"/>
</g>
<!-- ITF&#45;mEG_SPI -->
<g id="node21" class="node"><title>ITF&#45;mEG_SPI</title>
<ellipse fill="green" stroke="black" cx="77" cy="-18" rx="63.0888" ry="18"/>
<text text-anchor="middle" x="77" y="-14.3" font-family="Times,serif" font-size="14.00">ITF&#45;mEG_SPI</text>
</g>
<!-- goblin&#45;&gt;ITF&#45;mEG_SPI -->
<g id="edge35" class="edge"><title>goblin&#45;&gt;ITF&#45;mEG_SPI</title>
<path fill="none" stroke="black" d="M240.665,-75.9976C208.079,-64.6496 160.596,-48.1131 125.158,-35.7713"/>
<polygon fill="red" stroke="black" points="126.099,-32.393 115.504,-32.4094 123.797,-39.0036 126.099,-32.393"/>
</g>
<!-- retro10PV -->
<g id="node5" class="node"><title>retro10PV</title>
<polygon fill="blue" stroke="black" points="702.5,-108 593.5,-108 593.5,-72 702.5,-72 702.5,-108"/>
<text text-anchor="middle" x="648" y="-84.4" font-family="Times,serif" font-size="22.00">retro10PV</text>
</g>
<!-- retro10PV&#45;&gt;ITF&#45;mET_Transducer -->
<g id="edge39" class="edge"><title>retro10PV&#45;&gt;ITF&#45;mET_Transducer</title>
<path fill="none" stroke="black" d="M653.895,-108.104C654.701,-115.791 654.937,-125.054 654.604,-133.665"/>
<polygon fill="red" stroke="black" points="651.109,-133.48 653.916,-143.697 658.092,-133.96 651.109,-133.48"/>
</g>
<!-- mogaba -->
<g id="node6" class="node"><title>mogaba</title>
<polygon fill="blue" stroke="black" points="451.5,-540 364.5,-540 364.5,-504 451.5,-504 451.5,-540"/>
<text text-anchor="middle" x="408" y="-516.4" font-family="Times,serif" font-size="22.00">mogaba</text>
</g>
<!-- ITF&#45;A_gnd -->
<g id="node7" class="node"><title>ITF&#45;A_gnd</title>
<ellipse fill="yellow" stroke="black" cx="531" cy="-450" rx="50.8918" ry="18"/>
<text text-anchor="middle" x="531" y="-446.3" font-family="Times,serif" font-size="14.00">ITF&#45;A_gnd</text>
</g>
<!-- mogaba&#45;&gt;ITF&#45;A_gnd -->
<g id="edge41" class="edge"><title>mogaba&#45;&gt;ITF&#45;A_gnd</title>
<path fill="none" stroke="black" d="M438.089,-503.876C455.733,-493.835 478.093,-481.11 496.455,-470.66"/>
<polygon fill="red" stroke="black" points="498.418,-473.57 505.378,-465.582 494.955,-467.486 498.418,-473.57"/>
</g>
<!-- ITF&#45;B_5v -->
<g id="node8" class="node"><title>ITF&#45;B_5v</title>
<ellipse fill="yellow" stroke="black" cx="290" cy="-450" rx="46.2923" ry="18"/>
<text text-anchor="middle" x="290" y="-446.3" font-family="Times,serif" font-size="14.00">ITF&#45;B_5v</text>
</g>
<!-- mogaba&#45;&gt;ITF&#45;B_5v -->
<g id="edge42" class="edge"><title>mogaba&#45;&gt;ITF&#45;B_5v</title>
<path fill="none" stroke="black" d="M379.134,-503.876C362.168,-493.812 340.658,-481.051 323.019,-470.588"/>
<polygon fill="red" stroke="black" points="324.579,-467.444 314.193,-465.352 321.008,-473.464 324.579,-467.444"/>
</g>
<!-- ITF&#45;S_3_3v -->
<g id="node11" class="node"><title>ITF&#45;S_3_3v</title>
<ellipse fill="yellow" stroke="black" cx="408" cy="-450" rx="53.8905" ry="18"/>
<text text-anchor="middle" x="408" y="-446.3" font-family="Times,serif" font-size="14.00">ITF&#45;S_3_3v</text>
</g>
<!-- mogaba&#45;&gt;ITF&#45;S_3_3v -->
<g id="edge43" class="edge"><title>mogaba&#45;&gt;ITF&#45;S_3_3v</title>
<path fill="none" stroke="black" d="M408,-503.697C408,-495.983 408,-486.712 408,-478.112"/>
<polygon fill="red" stroke="black" points="411.5,-478.104 408,-468.104 404.5,-478.104 411.5,-478.104"/>
</g>
<!-- ITF&#45;A_gnd&#45;&gt;tobo -->
<g id="edge1" class="edge"><title>ITF&#45;A_gnd&#45;&gt;tobo</title>
<path fill="none" stroke="black" d="M525.251,-431.909C513.507,-399.45 483.769,-328.516 436,-288 407.468,-263.8 366.646,-249.931 336.991,-242.5"/>
<polygon fill="black" stroke="black" points="337.543,-239.034 327.005,-240.133 335.929,-245.845 337.543,-239.034"/>
</g>
<!-- ITF&#45;A_gnd&#45;&gt;cletus -->
<g id="edge9" class="edge"><title>ITF&#45;A_gnd&#45;&gt;cletus</title>
<path fill="none" stroke="black" d="M581.867,-449.232C689.314,-448.787 935.021,-442.55 1002,-396 1038.4,-370.704 1047,-351.324 1047,-307 1047,-307 1047,-307 1047,-233 1047,-192.031 1051.17,-173.749 1023,-144 992.708,-112.007 942.779,-99.3076 906.544,-94.2772"/>
<polygon fill="black" stroke="black" points="906.6,-90.7575 896.245,-93.0006 905.739,-97.7043 906.6,-90.7575"/>
</g>
<!-- ITF&#45;A_gnd&#45;&gt;oneeye -->
<g id="edge17" class="edge"><title>ITF&#45;A_gnd&#45;&gt;oneeye</title>
<path fill="none" stroke="black" d="M499.051,-435.998C473.739,-425.696 437.921,-411.119 408.844,-399.285"/>
<polygon fill="black" stroke="black" points="409.849,-395.916 399.267,-395.388 407.21,-402.399 409.849,-395.916"/>
</g>
<!-- ITF&#45;A_gnd&#45;&gt;goblin -->
<g id="edge24" class="edge"><title>ITF&#45;A_gnd&#45;&gt;goblin</title>
<path fill="none" stroke="black" d="M532.596,-431.671C536.324,-380.135 539.902,-226.311 460,-144 424.816,-107.755 366.395,-95.9202 325.25,-92.2538"/>
<polygon fill="black" stroke="black" points="325.424,-88.757 315.187,-91.4878 324.892,-95.7368 325.424,-88.757"/>
</g>
<!-- ITF&#45;A_gnd&#45;&gt;retro10PV -->
<g id="edge36" class="edge"><title>ITF&#45;A_gnd&#45;&gt;retro10PV</title>
<path fill="none" stroke="black" d="M581.191,-446.837C693.731,-441.472 958.489,-425.786 985,-396 995.638,-384.048 993.892,-373.302 985,-360 868.726,-186.051 666.274,-353.949 550,-180 541.108,-166.698 541.808,-157.744 550,-144 558.002,-130.575 570.716,-120.345 584.369,-112.63"/>
<polygon fill="black" stroke="black" points="586.18,-115.633 593.438,-107.915 582.951,-109.423 586.18,-115.633"/>
</g>
<!-- ITF&#45;B_5v&#45;&gt;tobo -->
<g id="edge2" class="edge"><title>ITF&#45;B_5v&#45;&gt;tobo</title>
<path fill="none" stroke="black" d="M245.412,-445.099C185.651,-438.842 84.4625,-424.283 62,-396 32.1476,-358.412 31.9902,-325.462 62,-288 68.2553,-280.191 195.568,-254.817 260.951,-242.225"/>
<polygon fill="black" stroke="black" points="261.724,-245.64 270.885,-240.318 260.405,-238.766 261.724,-245.64"/>
</g>
<!-- ITF&#45;B_5v&#45;&gt;cletus -->
<g id="edge10" class="edge"><title>ITF&#45;B_5v&#45;&gt;cletus</title>
<path fill="none" stroke="black" d="M324.217,-437.598C454.477,-393.866 913.989,-236.476 952,-180 960.934,-166.726 959.94,-157.891 952,-144 941.902,-126.334 923.363,-113.972 905.724,-105.658"/>
<polygon fill="black" stroke="black" points="906.641,-102.24 896.076,-101.448 903.841,-108.655 906.641,-102.24"/>
</g>
<!-- ITF&#45;B_5v&#45;&gt;oneeye -->
<g id="edge18" class="edge"><title>ITF&#45;B_5v&#45;&gt;oneeye</title>
<path fill="none" stroke="black" d="M306.003,-432.765C314.632,-424.011 325.453,-413.033 335.064,-403.283"/>
<polygon fill="black" stroke="black" points="337.593,-405.703 342.121,-396.124 332.608,-400.789 337.593,-405.703"/>
</g>
<!-- ITF&#45;B_5v&#45;&gt;goblin -->
<g id="edge25" class="edge"><title>ITF&#45;B_5v&#45;&gt;goblin</title>
<path fill="none" stroke="black" d="M245.781,-444.538C182.483,-437.354 70.223,-421.401 39,-396 5.49943,-368.746 0,-350.187 0,-307 0,-307 0,-307 0,-233 0,-130.693 151.165,-102.054 230.557,-94.0686"/>
<polygon fill="black" stroke="black" points="231.165,-97.5272 240.796,-93.1131 230.514,-90.5575 231.165,-97.5272"/>
</g>
<!-- ITF&#45;I_pulse_on&#45;&gt;tobo -->
<g id="edge3" class="edge"><title>ITF&#45;I_pulse_on&#45;&gt;tobo</title>
<path fill="none" stroke="black" d="M229.106,-288.765C240.821,-279.753 255.599,-268.385 268.546,-258.426"/>
<polygon fill="black" stroke="black" points="270.947,-260.995 276.739,-252.124 266.679,-255.447 270.947,-260.995"/>
</g>
<!-- ITF&#45;J_pulse_off&#45;&gt;tobo -->
<g id="edge4" class="edge"><title>ITF&#45;J_pulse_off&#45;&gt;tobo</title>
<path fill="none" stroke="black" d="M344.476,-288.055C337.287,-279.668 328.465,-269.376 320.511,-260.096"/>
<polygon fill="black" stroke="black" points="322.973,-257.59 313.807,-252.275 317.658,-262.146 322.973,-257.59"/>
</g>
<!-- ITF&#45;S_3_3v&#45;&gt;tobo -->
<g id="edge5" class="edge"><title>ITF&#45;S_3_3v&#45;&gt;tobo</title>
<path fill="none" stroke="black" d="M369.603,-437.234C300.582,-415.221 160.186,-366.219 133,-324 124.338,-310.548 123.562,-300.92 133,-288 148.231,-267.149 216.959,-250.54 261.067,-241.786"/>
<polygon fill="black" stroke="black" points="261.737,-245.222 270.889,-239.885 260.407,-238.349 261.737,-245.222"/>
</g>
<!-- ITF&#45;S_3_3v&#45;&gt;cletus -->
<g id="edge12" class="edge"><title>ITF&#45;S_3_3v&#45;&gt;cletus</title>
<path fill="none" stroke="black" d="M446.729,-437.324C454.696,-435.269 463.072,-433.357 471,-432 523.28,-423.051 907.691,-431.61 947,-396 1030.94,-319.955 1047.26,-238.62 985,-144 967.584,-117.531 933.859,-104.224 906.122,-97.5661"/>
<polygon fill="black" stroke="black" points="906.731,-94.1169 896.215,-95.4021 905.237,-100.956 906.731,-94.1169"/>
</g>
<!-- ITF&#45;S_3_3v&#45;&gt;oneeye -->
<g id="edge19" class="edge"><title>ITF&#45;S_3_3v&#45;&gt;oneeye</title>
<path fill="none" stroke="black" d="M396.388,-432.411C390.64,-424.2 383.569,-414.099 377.13,-404.9"/>
<polygon fill="black" stroke="black" points="379.815,-402.632 371.213,-396.447 374.08,-406.646 379.815,-402.632"/>
</g>
<!-- ITF&#45;S_3_3v&#45;&gt;goblin -->
<g id="edge26" class="edge"><title>ITF&#45;S_3_3v&#45;&gt;goblin</title>
<path fill="none" stroke="black" d="M417.511,-432.111C431.245,-406.095 455,-354.262 455,-307 455,-307 455,-307 455,-233 455,-192.553 462.935,-174.174 436,-144 408.03,-112.666 360.974,-99.8262 325.473,-94.5814"/>
<polygon fill="black" stroke="black" points="325.699,-91.0809 315.327,-93.2397 324.781,-98.0205 325.699,-91.0809"/>
</g>
<!-- ITF&#45;R_reserved&#45;&gt;goblin -->
<g id="edge30" class="edge"><title>ITF&#45;R_reserved&#45;&gt;goblin</title>
<path fill="none" stroke="black" d="M221.537,-144.411C230.733,-135.712 242.171,-124.893 252.343,-115.271"/>
<polygon fill="black" stroke="black" points="254.957,-117.616 259.816,-108.201 250.146,-112.53 254.957,-117.616"/>
</g>
<!-- ITF&#45;mET_SMA&#45;&gt;goblin -->
<g id="edge31" class="edge"><title>ITF&#45;mET_SMA&#45;&gt;goblin</title>
<path fill="none" stroke="black" d="M339.041,-144.411C329.002,-135.627 316.492,-124.68 305.415,-114.988"/>
<polygon fill="black" stroke="black" points="307.489,-112.152 297.658,-108.201 302.879,-117.42 307.489,-112.152"/>
</g>
<!-- ITF&#45;mET_Transducer&#45;&gt;cletus -->
<g id="edge13" class="edge"><title>ITF&#45;mET_Transducer&#45;&gt;cletus</title>
<path fill="none" stroke="black" d="M688.503,-145.897C725.531,-133.279 780.012,-115.495 818.074,-103.624"/>
<polygon fill="black" stroke="black" points="819.345,-106.895 827.86,-100.591 817.272,-100.208 819.345,-106.895"/>
</g>
<!-- ITF&#45;mET_Transducer&#45;&gt;retro10PV -->
<g id="edge38" class="edge"><title>ITF&#45;mET_Transducer&#45;&gt;retro10PV</title>
<path fill="none" stroke="black" d="M642.084,-143.697C641.289,-135.983 641.062,-126.712 641.405,-118.112"/>
<polygon fill="black" stroke="black" points="644.898,-118.324 642.105,-108.104 637.915,-117.836 644.898,-118.324"/>
</g>
<!-- ITF&#45;N_cc_motor_pwm&#45;&gt;cletus -->
<g id="edge11" class="edge"><title>ITF&#45;N_cc_motor_pwm&#45;&gt;cletus</title>
<path fill="none" stroke="black" d="M852.213,-143.697C853.646,-135.983 855.368,-126.712 856.965,-118.112"/>
<polygon fill="black" stroke="black" points="860.439,-118.575 858.823,-108.104 853.556,-117.297 860.439,-118.575"/>
</g>
<!-- ITF&#45;N_cc_motor_pwm&#45;&gt;retro10PV -->
<g id="edge37" class="edge"><title>ITF&#45;N_cc_motor_pwm&#45;&gt;retro10PV</title>
<path fill="none" stroke="black" d="M805.88,-145.983C776.923,-135.899 738.409,-122.486 706.669,-111.432"/>
<polygon fill="black" stroke="black" points="707.649,-108.067 697.055,-108.084 705.347,-114.678 707.649,-108.067"/>
</g>
<!-- ITF&#45;mET_Piezo&#45;&gt;cletus -->
<g id="edge14" class="edge"><title>ITF&#45;mET_Piezo&#45;&gt;cletus</title>
<path fill="none" stroke="black" d="M867.895,-36.1043C868.701,-43.7913 868.937,-53.0537 868.604,-61.6651"/>
<polygon fill="black" stroke="black" points="865.109,-61.4805 867.916,-71.6966 872.092,-61.9597 865.109,-61.4805"/>
</g>
<!-- ITF&#45;G_gain_control&#45;&gt;goblin -->
<g id="edge27" class="edge"><title>ITF&#45;G_gain_control&#45;&gt;goblin</title>
<path fill="none" stroke="black" d="M110.317,-215.804C109.366,-196.145 110.918,-164.095 128,-144 153.533,-113.963 197.224,-100.945 230.887,-95.3047"/>
<polygon fill="black" stroke="black" points="231.616,-98.7344 240.982,-93.7806 230.571,-91.8129 231.616,-98.7344"/>
</g>
<!-- ITF&#45;C_amplified_raw_signal&#45;&gt;goblin -->
<g id="edge28" class="edge"><title>ITF&#45;C_amplified_raw_signal&#45;&gt;goblin</title>
<path fill="none" stroke="black" d="M279.361,-36.1043C280.826,-43.7913 281.856,-53.0537 282.261,-61.6651"/>
<polygon fill="black" stroke="black" points="278.762,-61.758 282.433,-71.6966 285.761,-61.6382 278.762,-61.758"/>
</g>
<!-- ITF&#45;E_signal_envelope&#45;&gt;goblin -->
<g id="edge29" class="edge"><title>ITF&#45;E_signal_envelope&#45;&gt;goblin</title>
<path fill="none" stroke="black" d="M456.027,-34.1607C418.708,-46.5146 364.328,-63.7925 325.446,-75.6343"/>
<polygon fill="black" stroke="black" points="323.974,-72.4232 315.417,-78.6713 326.002,-79.1228 323.974,-72.4232"/>
</g>
<!-- ITF&#45;mEM_Alimentation -->
<g id="node22" class="node"><title>ITF&#45;mEM_Alimentation</title>
<ellipse fill="green" stroke="black" cx="408" cy="-594" rx="98.5829" ry="18"/>
<text text-anchor="middle" x="408" y="-590.3" font-family="Times,serif" font-size="14.00">ITF&#45;mEM_Alimentation</text>
</g>
<!-- ITF&#45;mEM_Alimentation&#45;&gt;mogaba -->
<g id="edge40" class="edge"><title>ITF&#45;mEM_Alimentation&#45;&gt;mogaba</title>
<path fill="none" stroke="black" d="M408,-575.697C408,-567.983 408,-558.712 408,-550.112"/>
<polygon fill="black" stroke="black" points="411.5,-550.104 408,-540.104 404.5,-550.104 411.5,-550.104"/>
</g>
</g>
</svg>
