<?xml version="1.0" encoding="UTF-8" standalone="no"?>
<!DOCTYPE svg PUBLIC "-//W3C//DTD SVG 1.1//EN"
 "http://www.w3.org/Graphics/SVG/1.1/DTD/svg11.dtd">
<!-- Generated by graphviz version 2.38.0 (20140413.2041)
 -->
<!-- Title: %3 Pages: 1 -->
<svg width="354pt" height="260pt"
 viewBox="0.00 0.00 353.94 260.00" xmlns="http://www.w3.org/2000/svg" xmlns:xlink="http://www.w3.org/1999/xlink">
<g id="graph0" class="graph" transform="scale(1 1) rotate(0) translate(4 256)">
<title>%3</title>
<polygon fill="white" stroke="none" points="-4,4 -4,-256 349.937,-256 349.937,4 -4,4"/>
<!-- ITF&#45;3_ENV -->
<g id="node1" class="node"><title>ITF&#45;3_ENV</title>
<ellipse fill="none" stroke="black" cx="53.9452" cy="-234" rx="53.8905" ry="18"/>
<text text-anchor="middle" x="53.9452" y="-230.3" font-family="Times,serif" font-size="14.00">ITF&#45;3_ENV</text>
</g>
<!-- Feather WICED -->
<g id="node2" class="node"><title>Feather WICED</title>
<ellipse fill="none" stroke="black" cx="116.945" cy="-162" rx="68.7879" ry="18"/>
<text text-anchor="middle" x="116.945" y="-158.3" font-family="Times,serif" font-size="14.00">Feather WICED</text>
</g>
<!-- ITF&#45;3_ENV&#45;&gt;Feather WICED -->
<g id="edge1" class="edge"><title>ITF&#45;3_ENV&#45;&gt;Feather WICED</title>
<path fill="none" stroke="black" d="M68.8753,-216.411C76.6075,-207.82 86.2017,-197.159 94.7805,-187.627"/>
<polygon fill="black" stroke="black" points="97.5965,-189.731 101.685,-179.956 92.3934,-185.048 97.5965,-189.731"/>
</g>
<!-- WiFi -->
<g id="node3" class="node"><title>WiFi</title>
<ellipse fill="none" stroke="black" cx="116.945" cy="-90" rx="29.4969" ry="18"/>
<text text-anchor="middle" x="116.945" y="-86.3" font-family="Times,serif" font-size="14.00">WiFi</text>
</g>
<!-- Feather WICED&#45;&gt;WiFi -->
<g id="edge2" class="edge"><title>Feather WICED&#45;&gt;WiFi</title>
<path fill="none" stroke="black" d="M111.067,-144.055C110.237,-136.231 109.999,-126.748 110.355,-117.977"/>
<polygon fill="black" stroke="black" points="113.862,-118.013 111.084,-107.789 106.879,-117.514 113.862,-118.013"/>
</g>
<!-- Feather WICED&#45;&gt;WiFi -->
<g id="edge5" class="edge"><title>Feather WICED&#45;&gt;WiFi</title>
<path fill="none" stroke="black" d="M122.823,-144.055C123.654,-136.231 123.891,-126.748 123.535,-117.977"/>
<polygon fill="black" stroke="black" points="127.011,-117.514 122.807,-107.789 120.029,-118.013 127.011,-117.514"/>
</g>
<!-- ITF&#45;mED&#45;TFT&#45;Screen -->
<g id="node5" class="node"><title>ITF&#45;mED&#45;TFT&#45;Screen</title>
<ellipse fill="none" stroke="black" cx="254.945" cy="-90" rx="90.9839" ry="18"/>
<text text-anchor="middle" x="254.945" y="-86.3" font-family="Times,serif" font-size="14.00">ITF&#45;mED&#45;TFT&#45;Screen</text>
</g>
<!-- Feather WICED&#45;&gt;ITF&#45;mED&#45;TFT&#45;Screen -->
<g id="edge4" class="edge"><title>Feather WICED&#45;&gt;ITF&#45;mED&#45;TFT&#45;Screen</title>
<path fill="none" stroke="black" d="M147.23,-145.638C166.858,-135.682 192.666,-122.591 214.1,-111.719"/>
<polygon fill="black" stroke="black" points="215.958,-114.701 223.293,-107.055 212.792,-108.458 215.958,-114.701"/>
</g>
<!-- ITF&#45;mEC&#45;WiFi&#45;UDP&#45;Stream -->
<g id="node6" class="node"><title>ITF&#45;mEC&#45;WiFi&#45;UDP&#45;Stream</title>
<ellipse fill="none" stroke="black" cx="116.945" cy="-18" rx="115.88" ry="18"/>
<text text-anchor="middle" x="116.945" y="-14.3" font-family="Times,serif" font-size="14.00">ITF&#45;mEC&#45;WiFi&#45;UDP&#45;Stream</text>
</g>
<!-- WiFi&#45;&gt;ITF&#45;mEC&#45;WiFi&#45;UDP&#45;Stream -->
<g id="edge6" class="edge"><title>WiFi&#45;&gt;ITF&#45;mEC&#45;WiFi&#45;UDP&#45;Stream</title>
<path fill="none" stroke="black" d="M116.945,-71.6966C116.945,-63.9827 116.945,-54.7125 116.945,-46.1124"/>
<polygon fill="black" stroke="black" points="120.445,-46.1043 116.945,-36.1043 113.445,-46.1044 120.445,-46.1043"/>
</g>
<!-- ITF&#45;10_Poff -->
<g id="node4" class="node"><title>ITF&#45;10_Poff</title>
<ellipse fill="none" stroke="black" cx="180.945" cy="-234" rx="55.4913" ry="18"/>
<text text-anchor="middle" x="180.945" y="-230.3" font-family="Times,serif" font-size="14.00">ITF&#45;10_Poff</text>
</g>
<!-- ITF&#45;10_Poff&#45;&gt;Feather WICED -->
<g id="edge3" class="edge"><title>ITF&#45;10_Poff&#45;&gt;Feather WICED</title>
<path fill="none" stroke="black" d="M165.778,-216.411C157.845,-207.734 147.982,-196.946 139.201,-187.342"/>
<polygon fill="black" stroke="black" points="141.779,-184.975 132.448,-179.956 136.613,-189.698 141.779,-184.975"/>
</g>
</g>
</svg>
