<?xml version="1.0" encoding="UTF-8" standalone="no"?>
<!DOCTYPE svg PUBLIC "-//W3C//DTD SVG 1.1//EN"
 "http://www.w3.org/Graphics/SVG/1.1/DTD/svg11.dtd">
<!-- Generated by graphviz version 2.38.0 (20140413.2041)
 -->
<!-- Title: %3 Pages: 1 -->
<svg width="353pt" height="260pt"
 viewBox="0.00 0.00 352.68 260.00" xmlns="http://www.w3.org/2000/svg" xmlns:xlink="http://www.w3.org/1999/xlink">
<g id="graph0" class="graph" transform="scale(1 1) rotate(0) translate(4 256)">
<title>%3</title>
<polygon fill="white" stroke="none" points="-4,4 -4,-256 348.682,-256 348.682,4 -4,4"/>
<!-- ITF&#45;E_signal_envelope -->
<g id="node1" class="node"><title>ITF&#45;E_signal_envelope</title>
<ellipse fill="none" stroke="black" cx="115.69" cy="-234" rx="93.6835" ry="18"/>
<text text-anchor="middle" x="115.69" y="-230.3" font-family="Times,serif" font-size="14.00">ITF&#45;E_signal_envelope</text>
</g>
<!-- Feather WICED -->
<g id="node2" class="node"><title>Feather WICED</title>
<ellipse fill="none" stroke="black" cx="115.69" cy="-162" rx="68.7879" ry="18"/>
<text text-anchor="middle" x="115.69" y="-158.3" font-family="Times,serif" font-size="14.00">Feather WICED</text>
</g>
<!-- ITF&#45;E_signal_envelope&#45;&gt;Feather WICED -->
<g id="edge1" class="edge"><title>ITF&#45;E_signal_envelope&#45;&gt;Feather WICED</title>
<path fill="none" stroke="black" d="M115.69,-215.697C115.69,-207.983 115.69,-198.712 115.69,-190.112"/>
<polygon fill="black" stroke="black" points="119.19,-190.104 115.69,-180.104 112.19,-190.104 119.19,-190.104"/>
</g>
<!-- WiFi -->
<g id="node3" class="node"><title>WiFi</title>
<ellipse fill="none" stroke="black" cx="115.69" cy="-90" rx="29.4969" ry="18"/>
<text text-anchor="middle" x="115.69" y="-86.3" font-family="Times,serif" font-size="14.00">WiFi</text>
</g>
<!-- Feather WICED&#45;&gt;WiFi -->
<g id="edge2" class="edge"><title>Feather WICED&#45;&gt;WiFi</title>
<path fill="none" stroke="black" d="M109.811,-144.055C108.981,-136.231 108.744,-126.748 109.1,-117.977"/>
<polygon fill="black" stroke="black" points="112.606,-118.013 109.828,-107.789 105.624,-117.514 112.606,-118.013"/>
</g>
<!-- Feather WICED&#45;&gt;WiFi -->
<g id="edge4" class="edge"><title>Feather WICED&#45;&gt;WiFi</title>
<path fill="none" stroke="black" d="M121.568,-144.055C122.398,-136.231 122.635,-126.748 122.28,-117.977"/>
<polygon fill="black" stroke="black" points="125.756,-117.514 121.551,-107.789 118.773,-118.013 125.756,-117.514"/>
</g>
<!-- ITF&#45;mED&#45;TFT&#45;Screen -->
<g id="node4" class="node"><title>ITF&#45;mED&#45;TFT&#45;Screen</title>
<ellipse fill="none" stroke="black" cx="253.69" cy="-90" rx="90.9839" ry="18"/>
<text text-anchor="middle" x="253.69" y="-86.3" font-family="Times,serif" font-size="14.00">ITF&#45;mED&#45;TFT&#45;Screen</text>
</g>
<!-- Feather WICED&#45;&gt;ITF&#45;mED&#45;TFT&#45;Screen -->
<g id="edge3" class="edge"><title>Feather WICED&#45;&gt;ITF&#45;mED&#45;TFT&#45;Screen</title>
<path fill="none" stroke="black" d="M145.974,-145.638C165.603,-135.682 191.411,-122.591 212.844,-111.719"/>
<polygon fill="black" stroke="black" points="214.703,-114.701 222.038,-107.055 211.536,-108.458 214.703,-114.701"/>
</g>
<!-- ITF&#45;mEC&#45;WiFi&#45;UDP&#45;Stream -->
<g id="node5" class="node"><title>ITF&#45;mEC&#45;WiFi&#45;UDP&#45;Stream</title>
<ellipse fill="none" stroke="black" cx="115.69" cy="-18" rx="115.88" ry="18"/>
<text text-anchor="middle" x="115.69" y="-14.3" font-family="Times,serif" font-size="14.00">ITF&#45;mEC&#45;WiFi&#45;UDP&#45;Stream</text>
</g>
<!-- WiFi&#45;&gt;ITF&#45;mEC&#45;WiFi&#45;UDP&#45;Stream -->
<g id="edge5" class="edge"><title>WiFi&#45;&gt;ITF&#45;mEC&#45;WiFi&#45;UDP&#45;Stream</title>
<path fill="none" stroke="black" d="M115.69,-71.6966C115.69,-63.9827 115.69,-54.7125 115.69,-46.1124"/>
<polygon fill="black" stroke="black" points="119.19,-46.1043 115.69,-36.1043 112.19,-46.1044 119.19,-46.1043"/>
</g>
</g>
</svg>
