<?xml version="1.0" encoding="UTF-8" standalone="no"?>
<!DOCTYPE svg PUBLIC "-//W3C//DTD SVG 1.1//EN"
 "http://www.w3.org/Graphics/SVG/1.1/DTD/svg11.dtd">
<!-- Generated by graphviz version 2.38.0 (20140413.2041)
 -->
<!-- Title: %3 Pages: 1 -->
<svg width="516pt" height="188pt"
 viewBox="0.00 0.00 515.94 188.00" xmlns="http://www.w3.org/2000/svg" xmlns:xlink="http://www.w3.org/1999/xlink">
<g id="graph0" class="graph" transform="scale(1 1) rotate(0) translate(4 184)">
<title>%3</title>
<polygon fill="white" stroke="none" points="-4,4 -4,-184 511.937,-184 511.937,4 -4,4"/>
<!-- ITF&#45;E_signal_envelope -->
<g id="node1" class="node"><title>ITF&#45;E_signal_envelope</title>
<ellipse fill="none" stroke="black" cx="167.247" cy="-162" rx="93.6835" ry="18"/>
<text text-anchor="middle" x="167.247" y="-158.3" font-family="Times,serif" font-size="14.00">ITF&#45;E_signal_envelope</text>
</g>
<!-- Feather WICED -->
<g id="node2" class="node"><title>Feather WICED</title>
<ellipse fill="none" stroke="black" cx="167.247" cy="-90" rx="68.7879" ry="18"/>
<text text-anchor="middle" x="167.247" y="-86.3" font-family="Times,serif" font-size="14.00">Feather WICED</text>
</g>
<!-- ITF&#45;E_signal_envelope&#45;&gt;Feather WICED -->
<g id="edge1" class="edge"><title>ITF&#45;E_signal_envelope&#45;&gt;Feather WICED</title>
<path fill="none" stroke="black" d="M167.247,-143.697C167.247,-135.983 167.247,-126.712 167.247,-118.112"/>
<polygon fill="black" stroke="black" points="170.748,-118.104 167.247,-108.104 163.748,-118.104 170.748,-118.104"/>
</g>
<!-- WiFi -->
<g id="node3" class="node"><title>WiFi</title>
<ellipse fill="none" stroke="black" cx="29.2474" cy="-18" rx="29.4969" ry="18"/>
<text text-anchor="middle" x="29.2474" y="-14.3" font-family="Times,serif" font-size="14.00">WiFi</text>
</g>
<!-- Feather WICED&#45;&gt;WiFi -->
<g id="edge2" class="edge"><title>Feather WICED&#45;&gt;WiFi</title>
<path fill="none" stroke="black" d="M136.963,-73.6382C114.23,-62.107 83.207,-46.3708 60.292,-34.7472"/>
<polygon fill="black" stroke="black" points="61.8266,-31.6012 51.325,-30.1988 58.66,-37.844 61.8266,-31.6012"/>
</g>
<!-- ITF&#45;mED&#45;TFT&#45;Screen -->
<g id="node4" class="node"><title>ITF&#45;mED&#45;TFT&#45;Screen</title>
<ellipse fill="none" stroke="black" cx="167.247" cy="-18" rx="90.9839" ry="18"/>
<text text-anchor="middle" x="167.247" y="-14.3" font-family="Times,serif" font-size="14.00">ITF&#45;mED&#45;TFT&#45;Screen</text>
</g>
<!-- Feather WICED&#45;&gt;ITF&#45;mED&#45;TFT&#45;Screen -->
<g id="edge3" class="edge"><title>Feather WICED&#45;&gt;ITF&#45;mED&#45;TFT&#45;Screen</title>
<path fill="none" stroke="black" d="M167.247,-71.6966C167.247,-63.9827 167.247,-54.7125 167.247,-46.1124"/>
<polygon fill="black" stroke="black" points="170.748,-46.1043 167.247,-36.1043 163.748,-46.1044 170.748,-46.1043"/>
</g>
<!-- ITF&#45;mEC&#45;WiFi&#45;UDP&#45;Stream -->
<g id="node5" class="node"><title>ITF&#45;mEC&#45;WiFi&#45;UDP&#45;Stream</title>
<ellipse fill="none" stroke="black" cx="392.247" cy="-18" rx="115.88" ry="18"/>
<text text-anchor="middle" x="392.247" y="-14.3" font-family="Times,serif" font-size="14.00">ITF&#45;mEC&#45;WiFi&#45;UDP&#45;Stream</text>
</g>
<!-- Feather WICED&#45;&gt;ITF&#45;mEC&#45;WiFi&#45;UDP&#45;Stream -->
<g id="edge4" class="edge"><title>Feather WICED&#45;&gt;ITF&#45;mEC&#45;WiFi&#45;UDP&#45;Stream</title>
<path fill="none" stroke="black" d="M209.833,-75.7512C244.715,-64.899 294.455,-49.4244 333.186,-37.3745"/>
<polygon fill="black" stroke="black" points="334.272,-40.7024 342.78,-34.3897 332.192,-34.0184 334.272,-40.7024"/>
</g>
</g>
</svg>
