<?xml version="1.0" encoding="UTF-8" standalone="no"?>
<!DOCTYPE svg PUBLIC "-//W3C//DTD SVG 1.1//EN"
 "http://www.w3.org/Graphics/SVG/1.1/DTD/svg11.dtd">
<!-- Generated by graphviz version 2.38.0 (20140413.2041)
 -->
<!-- Title: %3 Pages: 1 -->
<svg width="154pt" height="188pt"
 viewBox="0.00 0.00 153.69 188.00" xmlns="http://www.w3.org/2000/svg" xmlns:xlink="http://www.w3.org/1999/xlink">
<g id="graph0" class="graph" transform="scale(1 1) rotate(0) translate(4 184)">
<title>%3</title>
<polygon fill="white" stroke="none" points="-4,4 -4,-184 149.694,-184 149.694,4 -4,4"/>
<!-- ITF&#45;mEG_SPI -->
<g id="node1" class="node"><title>ITF&#45;mEG_SPI</title>
<ellipse fill="none" stroke="black" cx="70.2474" cy="-162" rx="63.0888" ry="18"/>
<text text-anchor="middle" x="70.2474" y="-158.3" font-family="Times,serif" font-size="14.00">ITF&#45;mEG_SPI</text>
</g>
<!-- Pi Zero -->
<g id="node2" class="node"><title>Pi Zero</title>
<ellipse fill="none" stroke="black" cx="70.2474" cy="-90" rx="37.0935" ry="18"/>
<text text-anchor="middle" x="70.2474" y="-86.3" font-family="Times,serif" font-size="14.00">Pi Zero</text>
</g>
<!-- ITF&#45;mEG_SPI&#45;&gt;Pi Zero -->
<g id="edge1" class="edge"><title>ITF&#45;mEG_SPI&#45;&gt;Pi Zero</title>
<path fill="none" stroke="black" d="M70.2474,-143.697C70.2474,-135.983 70.2474,-126.712 70.2474,-118.112"/>
<polygon fill="black" stroke="black" points="73.7475,-118.104 70.2474,-108.104 66.7475,-118.104 73.7475,-118.104"/>
</g>
<!-- WiFi -->
<g id="node3" class="node"><title>WiFi</title>
<ellipse fill="none" stroke="black" cx="29.2474" cy="-18" rx="29.4969" ry="18"/>
<text text-anchor="middle" x="29.2474" y="-14.3" font-family="Times,serif" font-size="14.00">WiFi</text>
</g>
<!-- Pi Zero&#45;&gt;WiFi -->
<g id="edge2" class="edge"><title>Pi Zero&#45;&gt;WiFi</title>
<path fill="none" stroke="black" d="M60.531,-72.411C55.6292,-64.0421 49.5775,-53.7098 44.1069,-44.3698"/>
<polygon fill="black" stroke="black" points="46.9683,-42.3299 38.8941,-35.4699 40.9281,-45.8677 46.9683,-42.3299"/>
</g>
<!-- Screen -->
<g id="node4" class="node"><title>Screen</title>
<ellipse fill="none" stroke="black" cx="111.247" cy="-18" rx="34.394" ry="18"/>
<text text-anchor="middle" x="111.247" y="-14.3" font-family="Times,serif" font-size="14.00">Screen</text>
</g>
<!-- Pi Zero&#45;&gt;Screen -->
<g id="edge3" class="edge"><title>Pi Zero&#45;&gt;Screen</title>
<path fill="none" stroke="black" d="M79.9638,-72.411C84.8656,-64.0421 90.9174,-53.7098 96.3879,-44.3698"/>
<polygon fill="black" stroke="black" points="99.5667,-45.8677 101.601,-35.4699 93.5265,-42.3299 99.5667,-45.8677"/>
</g>
</g>
</svg>
