<?xml version="1.0" encoding="UTF-8" standalone="no"?>
<!DOCTYPE svg PUBLIC "-//W3C//DTD SVG 1.1//EN"
 "http://www.w3.org/Graphics/SVG/1.1/DTD/svg11.dtd">
<!-- Generated by graphviz version 2.38.0 (20140413.2041)
 -->
<!-- Title: %3 Pages: 1 -->
<svg width="516pt" height="188pt"
 viewBox="0.00 0.00 515.94 188.00" xmlns="http://www.w3.org/2000/svg" xmlns:xlink="http://www.w3.org/1999/xlink">
<g id="graph0" class="graph" transform="scale(1 1) rotate(0) translate(4 184)">
<title>%3</title>
<polygon fill="white" stroke="none" points="-4,4 -4,-184 511.937,-184 511.937,4 -4,4"/>
<!-- ITF&#45;mEG_SPI -->
<g id="node1" class="node"><title>ITF&#45;mEG_SPI</title>
<ellipse fill="none" stroke="black" cx="167.247" cy="-162" rx="63.0888" ry="18"/>
<text text-anchor="middle" x="167.247" y="-158.3" font-family="Times,serif" font-size="14.00">ITF&#45;mEG_SPI</text>
</g>
<!-- BBB -->
<g id="node2" class="node"><title>BBB</title>
<ellipse fill="none" stroke="black" cx="167.247" cy="-90" rx="28.6953" ry="18"/>
<text text-anchor="middle" x="167.247" y="-86.3" font-family="Times,serif" font-size="14.00">BBB</text>
</g>
<!-- ITF&#45;mEG_SPI&#45;&gt;BBB -->
<g id="edge1" class="edge"><title>ITF&#45;mEG_SPI&#45;&gt;BBB</title>
<path fill="none" stroke="black" d="M167.247,-143.697C167.247,-135.983 167.247,-126.712 167.247,-118.112"/>
<polygon fill="black" stroke="black" points="170.748,-118.104 167.247,-108.104 163.748,-118.104 170.748,-118.104"/>
</g>
<!-- WiFi -->
<g id="node3" class="node"><title>WiFi</title>
<ellipse fill="none" stroke="black" cx="29.2474" cy="-18" rx="29.4969" ry="18"/>
<text text-anchor="middle" x="29.2474" y="-14.3" font-family="Times,serif" font-size="14.00">WiFi</text>
</g>
<!-- BBB&#45;&gt;WiFi -->
<g id="edge2" class="edge"><title>BBB&#45;&gt;WiFi</title>
<path fill="none" stroke="black" d="M145.685,-78.0625C122.73,-66.4187 86.1989,-47.8884 60.1797,-34.6903"/>
<polygon fill="black" stroke="black" points="61.6155,-31.4941 51.1139,-30.0917 58.4489,-37.7369 61.6155,-31.4941"/>
</g>
<!-- ITF&#45;mED&#45;TFT&#45;Screen -->
<g id="node4" class="node"><title>ITF&#45;mED&#45;TFT&#45;Screen</title>
<ellipse fill="none" stroke="black" cx="167.247" cy="-18" rx="90.9839" ry="18"/>
<text text-anchor="middle" x="167.247" y="-14.3" font-family="Times,serif" font-size="14.00">ITF&#45;mED&#45;TFT&#45;Screen</text>
</g>
<!-- BBB&#45;&gt;ITF&#45;mED&#45;TFT&#45;Screen -->
<g id="edge3" class="edge"><title>BBB&#45;&gt;ITF&#45;mED&#45;TFT&#45;Screen</title>
<path fill="none" stroke="black" d="M167.247,-71.6966C167.247,-63.9827 167.247,-54.7125 167.247,-46.1124"/>
<polygon fill="black" stroke="black" points="170.748,-46.1043 167.247,-36.1043 163.748,-46.1044 170.748,-46.1043"/>
</g>
<!-- ITF&#45;mEC&#45;WiFi&#45;UDP&#45;Stream -->
<g id="node5" class="node"><title>ITF&#45;mEC&#45;WiFi&#45;UDP&#45;Stream</title>
<ellipse fill="none" stroke="black" cx="392.247" cy="-18" rx="115.88" ry="18"/>
<text text-anchor="middle" x="392.247" y="-14.3" font-family="Times,serif" font-size="14.00">ITF&#45;mEC&#45;WiFi&#45;UDP&#45;Stream</text>
</g>
<!-- BBB&#45;&gt;ITF&#45;mEC&#45;WiFi&#45;UDP&#45;Stream -->
<g id="edge4" class="edge"><title>BBB&#45;&gt;ITF&#45;mEC&#45;WiFi&#45;UDP&#45;Stream</title>
<path fill="none" stroke="black" d="M192.62,-81.1062C226.455,-70.5798 287.381,-51.6251 333.057,-37.4148"/>
<polygon fill="black" stroke="black" points="334.34,-40.6813 342.848,-34.3686 332.26,-33.9973 334.34,-40.6813"/>
</g>
</g>
</svg>
