<?xml version="1.0" encoding="UTF-8" standalone="no"?>
<!DOCTYPE svg PUBLIC "-//W3C//DTD SVG 1.1//EN"
 "http://www.w3.org/Graphics/SVG/1.1/DTD/svg11.dtd">
<!-- Generated by graphviz version 2.38.0 (20140413.2041)
 -->
<!-- Title: %3 Pages: 1 -->
<svg width="344pt" height="260pt"
 viewBox="0.00 0.00 344.24 260.00" xmlns="http://www.w3.org/2000/svg" xmlns:xlink="http://www.w3.org/1999/xlink">
<g id="graph0" class="graph" transform="scale(1 1) rotate(0) translate(4 256)">
<title>%3</title>
<polygon fill="white" stroke="none" points="-4,4 -4,-256 340.236,-256 340.236,4 -4,4"/>
<!-- ITF&#45;I_pulse_on -->
<g id="node1" class="node"><title>ITF&#45;I_pulse_on</title>
<ellipse fill="none" stroke="black" cx="65.6442" cy="-234" rx="65.7887" ry="18"/>
<text text-anchor="middle" x="65.6442" y="-230.3" font-family="Times,serif" font-size="14.00">ITF&#45;I_pulse_on</text>
</g>
<!-- EMW3165 -->
<g id="node2" class="node"><title>EMW3165</title>
<ellipse fill="none" stroke="black" cx="153.644" cy="-162" rx="50.8918" ry="18"/>
<text text-anchor="middle" x="153.644" y="-158.3" font-family="Times,serif" font-size="14.00">EMW3165</text>
</g>
<!-- ITF&#45;I_pulse_on&#45;&gt;EMW3165 -->
<g id="edge1" class="edge"><title>ITF&#45;I_pulse_on&#45;&gt;EMW3165</title>
<path fill="none" stroke="black" d="M86.0543,-216.765C97.883,-207.355 112.941,-195.378 125.841,-185.117"/>
<polygon fill="black" stroke="black" points="128.303,-187.63 133.95,-178.666 123.945,-182.152 128.303,-187.63"/>
</g>
<!-- WiFi UDP Stream -->
<g id="node3" class="node"><title>WiFi UDP Stream</title>
<ellipse fill="none" stroke="black" cx="92.6442" cy="-90" rx="77.1866" ry="18"/>
<text text-anchor="middle" x="92.6442" y="-86.3" font-family="Times,serif" font-size="14.00">WiFi UDP Stream</text>
</g>
<!-- EMW3165&#45;&gt;WiFi UDP Stream -->
<g id="edge2" class="edge"><title>EMW3165&#45;&gt;WiFi UDP Stream</title>
<path fill="none" stroke="black" d="M139.188,-144.411C131.701,-135.82 122.412,-125.159 114.105,-115.627"/>
<polygon fill="black" stroke="black" points="116.629,-113.196 107.42,-107.956 111.351,-117.795 116.629,-113.196"/>
</g>
<!-- SPI -->
<g id="node4" class="node"><title>SPI</title>
<ellipse fill="none" stroke="black" cx="214.644" cy="-90" rx="27" ry="18"/>
<text text-anchor="middle" x="214.644" y="-86.3" font-family="Times,serif" font-size="14.00">SPI</text>
</g>
<!-- EMW3165&#45;&gt;SPI -->
<g id="edge3" class="edge"><title>EMW3165&#45;&gt;SPI</title>
<path fill="none" stroke="black" d="M168.1,-144.411C176.107,-135.223 186.175,-123.67 194.898,-113.66"/>
<polygon fill="black" stroke="black" points="197.608,-115.877 201.539,-106.038 192.331,-111.278 197.608,-115.877"/>
</g>
<!-- OLED 128x64 screen -->
<g id="node5" class="node"><title>OLED 128x64 screen</title>
<ellipse fill="none" stroke="black" cx="214.644" cy="-18" rx="87.9851" ry="18"/>
<text text-anchor="middle" x="214.644" y="-14.3" font-family="Times,serif" font-size="14.00">OLED 128x64 screen</text>
</g>
<!-- SPI&#45;&gt;OLED 128x64 screen -->
<g id="edge4" class="edge"><title>SPI&#45;&gt;OLED 128x64 screen</title>
<path fill="none" stroke="black" d="M214.644,-71.6966C214.644,-63.9827 214.644,-54.7125 214.644,-46.1124"/>
<polygon fill="black" stroke="black" points="218.144,-46.1043 214.644,-36.1043 211.144,-46.1044 218.144,-46.1043"/>
</g>
<!-- ITF&#45;E_signal_envelope -->
<g id="node6" class="node"><title>ITF&#45;E_signal_envelope</title>
<ellipse fill="none" stroke="black" cx="242.644" cy="-234" rx="93.6835" ry="18"/>
<text text-anchor="middle" x="242.644" y="-230.3" font-family="Times,serif" font-size="14.00">ITF&#45;E_signal_envelope</text>
</g>
<!-- ITF&#45;E_signal_envelope&#45;&gt;EMW3165 -->
<g id="edge5" class="edge"><title>ITF&#45;E_signal_envelope&#45;&gt;EMW3165</title>
<path fill="none" stroke="black" d="M221.552,-216.411C209.661,-207.058 194.653,-195.254 181.771,-185.123"/>
<polygon fill="black" stroke="black" points="183.692,-182.18 173.668,-178.749 179.364,-187.682 183.692,-182.18"/>
</g>
</g>
</svg>
