M48
;Layer_Color=9474304
;FILE_FORMAT=2:4
INCH
;TYPE=PLATED
T1F00S00C0.0118
T2F00S00C0.0315
T3F00S00C0.0354
T4F00S00C0.0394
%
T01
X047185Y028091
X049587Y028110
X048701Y029016
X046831Y029331
X045935Y029321
X045600Y028081
X043898Y027913
X043780Y030354
X042933Y029862
X042451Y029154
X041585Y028445
X042461Y033268
X041811Y034409
X041821Y034980
X041329Y035039
X044478Y035650
X044449Y036024
X044409Y037195
Y037717
X044026Y038396
X043789Y039134
X043465Y040167
X044232Y040640
X043386Y042372
X041417Y042844
X041821Y044006
X042913Y044882
Y045787
Y046654
X044488
Y045787
Y044882
X046102Y043898
X046732Y043425
X046772Y044567
X046102Y042756
X046496Y037992
X046299Y036378
X046565Y035246
X040886Y039862
X046975Y038458
X047057Y037185
X047067Y036703
X047579Y036693
X047569Y037195
X048474Y037274
X048472Y036642
X047313Y035778
X047323Y044016
X047480Y045276
X048071Y044764
X048307Y045709
X049331Y045748
Y044961
X050591
Y045748
X051811Y045748
Y044961
T02
X043602Y028528
Y029528
Y032528
Y033528
Y034528
Y035528
T03
X052362Y028346
Y029346
Y030346
X040354
Y029346
Y028346
Y031346
Y032346
Y033346
Y034346
Y035346
Y036346
Y037346
Y038346
Y039346
Y040346
Y041346
Y042346
Y043346
Y044346
Y045346
Y046346
X052362
Y045346
Y044346
Y043346
Y042346
Y041346
Y040346
Y039346
Y038346
Y037346
Y036346
Y035346
Y034346
Y033346
Y032346
Y031346
T04
X044776Y031325
X045776
Y032325
X044776
Y033325
X045776
Y034325
X044776
M30
