G04 Layer_Color=65535*
%FSLAX42Y42*%
%MOMM*%
G71*
G01*
G75*
%ADD17C,0.25*%
%ADD39C,0.30*%
%ADD40C,0.20*%
%ADD41C,0.13*%
D17*
X7175Y4852D02*
X7226D01*
X7200D01*
Y4700D01*
X7175D01*
X7226D01*
X7404Y4827D02*
X7378Y4852D01*
X7327D01*
X7302Y4827D01*
Y4725D01*
X7327Y4700D01*
X7378D01*
X7404Y4725D01*
X7454Y4827D02*
X7480Y4852D01*
X7530D01*
X7556Y4827D01*
Y4802D01*
X7530Y4776D01*
X7505D01*
X7530D01*
X7556Y4751D01*
Y4725D01*
X7530Y4700D01*
X7480D01*
X7454Y4725D01*
X5977Y9177D02*
X5926D01*
X5951D01*
Y9050D01*
X5926Y9025D01*
X5900D01*
X5875Y9050D01*
X6027Y9025D02*
X6078D01*
X6053D01*
Y9177D01*
X6027Y9152D01*
X5775Y7975D02*
Y8127D01*
X5851D01*
X5877Y8102D01*
Y8051D01*
X5851Y8026D01*
X5775D01*
X5927Y7975D02*
X5978D01*
X5953D01*
Y8127D01*
X5927Y8102D01*
X6700Y8452D02*
X6802D01*
X6751D01*
Y8300D01*
X6852D02*
Y8452D01*
X6929D01*
X6954Y8427D01*
Y8376D01*
X6929Y8351D01*
X6852D01*
X7005Y8300D02*
X7055D01*
X7030D01*
Y8452D01*
X7005Y8427D01*
X6700Y8127D02*
X6802D01*
X6751D01*
Y7975D01*
X6852D02*
Y8127D01*
X6929D01*
X6954Y8102D01*
Y8051D01*
X6929Y8026D01*
X6852D01*
X7106Y7975D02*
X7005D01*
X7106Y8077D01*
Y8102D01*
X7081Y8127D01*
X7030D01*
X7005Y8102D01*
X7177Y9202D02*
X7126D01*
X7151D01*
Y9075D01*
X7126Y9050D01*
X7100D01*
X7075Y9075D01*
X7329Y9050D02*
X7227D01*
X7329Y9152D01*
Y9177D01*
X7304Y9202D01*
X7253D01*
X7227Y9177D01*
X7353Y8245D02*
X7302D01*
X7328D01*
Y8118D01*
X7302Y8092D01*
X7277D01*
X7252Y8118D01*
X7404Y8194D02*
Y8118D01*
X7429Y8092D01*
X7506D01*
Y8194D01*
X7556Y8092D02*
Y8194D01*
X7582D01*
X7607Y8169D01*
Y8092D01*
Y8169D01*
X7633Y8194D01*
X7658Y8169D01*
Y8092D01*
X7709Y8042D02*
Y8194D01*
X7785D01*
X7810Y8169D01*
Y8118D01*
X7785Y8092D01*
X7709D01*
X7937D02*
X7886D01*
X7861Y8118D01*
Y8169D01*
X7886Y8194D01*
X7937D01*
X7963Y8169D01*
Y8143D01*
X7861D01*
X8013Y8194D02*
Y8092D01*
Y8143D01*
X8039Y8169D01*
X8064Y8194D01*
X8090D01*
X8166Y8092D02*
X8217D01*
X8191D01*
Y8245D01*
X8166Y8219D01*
X5650Y8827D02*
X5752D01*
X5701D01*
Y8675D01*
X5802D02*
Y8827D01*
X5879D01*
X5904Y8802D01*
Y8751D01*
X5879Y8726D01*
X5802D01*
X5853D02*
X5904Y8675D01*
X5955D02*
Y8827D01*
X6056Y8675D01*
Y8827D01*
X6209Y8802D02*
X6183Y8827D01*
X6132D01*
X6107Y8802D01*
Y8777D01*
X6132Y8751D01*
X6183D01*
X6209Y8726D01*
Y8700D01*
X6183Y8675D01*
X6132D01*
X6107Y8700D01*
X6259Y8827D02*
Y8675D01*
X6336D01*
X6361Y8700D01*
Y8802D01*
X6336Y8827D01*
X6259D01*
X6412Y8675D02*
Y8827D01*
X6488D01*
X6513Y8802D01*
Y8751D01*
X6488Y8726D01*
X6412D01*
X6463D02*
X6513Y8675D01*
X6975Y8827D02*
Y8726D01*
X7026Y8675D01*
X7077Y8726D01*
Y8827D01*
X7229Y8802D02*
X7204Y8827D01*
X7153D01*
X7127Y8802D01*
Y8700D01*
X7153Y8675D01*
X7204D01*
X7229Y8700D01*
Y8751D01*
X7178D01*
X7280Y8675D02*
Y8777D01*
X7330Y8827D01*
X7381Y8777D01*
Y8675D01*
Y8751D01*
X7280D01*
X7432Y8827D02*
X7483D01*
X7457D01*
Y8675D01*
X7432D01*
X7483D01*
X7559D02*
Y8827D01*
X7661Y8675D01*
Y8827D01*
X8550Y8612D02*
Y9138D01*
Y4862D02*
Y5388D01*
X5000Y4500D02*
Y9500D01*
X8550D01*
X5000Y4500D02*
X8550D01*
Y6425D02*
Y7575D01*
Y5800D02*
Y6425D01*
Y7575D02*
Y8200D01*
Y8612D01*
Y9138D02*
Y9500D01*
Y4500D02*
Y4862D01*
Y5388D02*
Y5800D01*
D39*
X7909Y8255D02*
G03*
X7909Y8255I-10J0D01*
G01*
D40*
X6018Y8409D02*
G03*
X6045Y8500I40J38D01*
G01*
X6012Y8409D02*
G03*
X6045Y8506I46J38D01*
G01*
X6475Y8432D02*
Y8568D01*
X5624Y9503D02*
X5986D01*
X5624D02*
Y9668D01*
X6576Y9503D02*
Y9668D01*
X5833Y10384D02*
X6409Y10363D01*
X5833Y10384D02*
X6409Y10349D01*
X5833Y10384D02*
X6372Y10328D01*
X5791Y10363D02*
X6409Y10307D01*
X5791Y10349D02*
X6409Y10293D01*
X5828Y10328D02*
X6372Y10272D01*
X5791Y10307D02*
X6409Y10251D01*
X5791Y10293D02*
X6409Y10237D01*
X5828Y10272D02*
X6372Y10216D01*
X5791Y10251D02*
X6409Y10195D01*
X5791Y10237D02*
X6409Y10181D01*
X5828Y10216D02*
X6372Y10160D01*
X5791Y10195D02*
X6409Y10139D01*
X5791Y10181D02*
X6409Y10125D01*
X5828Y10160D02*
X6372Y10104D01*
X5791Y10139D02*
X6409Y10083D01*
X5791Y10125D02*
X6409Y10069D01*
X5791Y10027D02*
X6371Y9992D01*
X5791Y10013D02*
X6367Y9992D01*
X5828Y10048D02*
X6371Y9992D01*
X5828Y10104D02*
X6372Y10048D01*
X5791Y10083D02*
X6409Y10027D01*
X5791Y10069D02*
X6409Y10013D01*
X5855Y9668D02*
Y9954D01*
X5833Y10384D02*
Y10456D01*
X6367D01*
Y10384D02*
Y10456D01*
X6345Y9668D02*
Y9954D01*
X5855D02*
X6345D01*
X5833Y9992D02*
X5855Y9954D01*
X5828Y9992D02*
X6371D01*
X5791Y10013D02*
X5828Y9992D01*
X5791Y10013D02*
Y10027D01*
X5828Y10048D01*
X5791Y10069D02*
X5828Y10048D01*
X5791Y10069D02*
Y10083D01*
X5828Y10104D01*
X5791Y10125D02*
X5828Y10104D01*
X5791Y10125D02*
Y10139D01*
X5828Y10160D01*
X5791Y10181D02*
X5828Y10160D01*
X5791Y10181D02*
Y10195D01*
X5828Y10216D01*
X5791Y10237D02*
X5828Y10216D01*
X5791Y10237D02*
Y10251D01*
X5828Y10272D01*
X5791Y10293D02*
X5828Y10272D01*
X5791Y10293D02*
Y10307D01*
X5828Y10328D01*
X5791Y10349D02*
X5828Y10328D01*
X5791Y10349D02*
Y10363D01*
X5833Y10384D01*
X6372D01*
X6409Y10363D01*
Y10349D02*
Y10363D01*
X6372Y10328D02*
X6409Y10349D01*
X6372Y10328D02*
X6409Y10307D01*
Y10293D02*
Y10307D01*
X6372Y10272D02*
X6409Y10293D01*
X6372Y10272D02*
X6409Y10251D01*
Y10237D02*
Y10251D01*
X6372Y10216D02*
X6409Y10237D01*
X6372Y10216D02*
X6409Y10195D01*
Y10181D02*
Y10195D01*
X6372Y10160D02*
X6409Y10181D01*
X6372Y10160D02*
X6409Y10139D01*
Y10125D02*
Y10139D01*
X6372Y10104D02*
X6409Y10125D01*
X6372Y10104D02*
X6409Y10083D01*
Y10069D02*
Y10083D01*
X6372Y10048D02*
X6409Y10069D01*
X6372Y10048D02*
X6409Y10027D01*
Y10013D02*
Y10027D01*
X6371Y9992D02*
X6409Y10013D01*
X6345Y9954D02*
X6367Y9992D01*
X6214Y9503D02*
X6576D01*
X5624Y9668D02*
X6576D01*
X6874Y9503D02*
X7236D01*
X6874D02*
Y9668D01*
X7826Y9503D02*
Y9668D01*
X7083Y10384D02*
X7659Y10363D01*
X7083Y10384D02*
X7659Y10349D01*
X7083Y10384D02*
X7621Y10328D01*
X7041Y10363D02*
X7659Y10307D01*
X7041Y10349D02*
X7659Y10293D01*
X7079Y10328D02*
X7621Y10272D01*
X7041Y10307D02*
X7659Y10251D01*
X7041Y10293D02*
X7659Y10237D01*
X7079Y10272D02*
X7621Y10216D01*
X7041Y10251D02*
X7659Y10195D01*
X7041Y10237D02*
X7659Y10181D01*
X7079Y10216D02*
X7621Y10160D01*
X7041Y10195D02*
X7659Y10139D01*
X7041Y10181D02*
X7659Y10125D01*
X7079Y10160D02*
X7621Y10104D01*
X7041Y10139D02*
X7659Y10083D01*
X7041Y10125D02*
X7659Y10069D01*
X7041Y10027D02*
X7621Y9992D01*
X7041Y10013D02*
X7617Y9992D01*
X7079Y10048D02*
X7621Y9992D01*
X7079Y10104D02*
X7621Y10048D01*
X7041Y10083D02*
X7659Y10027D01*
X7041Y10069D02*
X7659Y10013D01*
X7105Y9668D02*
Y9954D01*
X7083Y10384D02*
Y10456D01*
X7617D01*
Y10384D02*
Y10456D01*
X7595Y9668D02*
Y9954D01*
X7105D02*
X7595D01*
X7083Y9992D02*
X7105Y9954D01*
X7079Y9992D02*
X7621D01*
X7041Y10013D02*
X7079Y9992D01*
X7041Y10013D02*
Y10027D01*
X7079Y10048D01*
X7041Y10069D02*
X7079Y10048D01*
X7041Y10069D02*
Y10083D01*
X7079Y10104D01*
X7041Y10125D02*
X7079Y10104D01*
X7041Y10125D02*
Y10139D01*
X7079Y10160D01*
X7041Y10181D02*
X7079Y10160D01*
X7041Y10181D02*
Y10195D01*
X7079Y10216D01*
X7041Y10237D02*
X7079Y10216D01*
X7041Y10237D02*
Y10251D01*
X7079Y10272D01*
X7041Y10293D02*
X7079Y10272D01*
X7041Y10293D02*
Y10307D01*
X7079Y10328D01*
X7041Y10349D02*
X7079Y10328D01*
X7041Y10349D02*
Y10363D01*
X7083Y10384D01*
X7621D01*
X7659Y10363D01*
Y10349D02*
Y10363D01*
X7621Y10328D02*
X7659Y10349D01*
X7621Y10328D02*
X7659Y10307D01*
Y10293D02*
Y10307D01*
X7621Y10272D02*
X7659Y10293D01*
X7621Y10272D02*
X7659Y10251D01*
Y10237D02*
Y10251D01*
X7621Y10216D02*
X7659Y10237D01*
X7621Y10216D02*
X7659Y10195D01*
Y10181D02*
Y10195D01*
X7621Y10160D02*
X7659Y10181D01*
X7621Y10160D02*
X7659Y10139D01*
Y10125D02*
Y10139D01*
X7621Y10104D02*
X7659Y10125D01*
X7621Y10104D02*
X7659Y10083D01*
Y10069D02*
Y10083D01*
X7621Y10048D02*
X7659Y10069D01*
X7621Y10048D02*
X7659Y10027D01*
Y10013D02*
Y10027D01*
X7621Y9992D02*
X7659Y10013D01*
X7595Y9954D02*
X7617Y9992D01*
X7464Y9503D02*
X7826D01*
X6874Y9668D02*
X7826D01*
X6475Y7982D02*
Y8118D01*
X7609Y8507D02*
X7635Y8481D01*
X7660Y8507D01*
X7736D01*
X7761Y8481D01*
X7787Y8507D01*
X7863D01*
X7533D02*
X7609D01*
X7507Y8481D02*
X7533Y8507D01*
X7863D02*
X7889Y8481D01*
X7507Y8319D02*
Y8481D01*
X7863Y8293D02*
X7889Y8319D01*
X7507D02*
X7533Y8293D01*
X7609D01*
X7889Y8319D02*
Y8481D01*
X7787Y8293D02*
X7863D01*
X7761Y8319D02*
X7787Y8293D01*
X7736D02*
X7761Y8319D01*
X7660Y8293D02*
X7736D01*
X7635Y8319D02*
X7660Y8293D01*
X7609D02*
X7635Y8319D01*
X5755Y8373D02*
Y8534D01*
X5855D01*
X6145Y8373D02*
Y8534D01*
X5885Y8216D02*
X6015D01*
X6045Y8487D02*
X6108Y8424D01*
X6045Y8433D02*
X6081Y8397D01*
X6045Y8534D02*
X6145D01*
X7850Y4650D02*
Y7850D01*
X5750Y4650D02*
X7850D01*
X5750D02*
Y7850D01*
X7850D01*
D41*
X7313Y4935D02*
X7307D01*
X7295Y4941D01*
X7289Y4947D01*
X7283Y4959D01*
Y4984D01*
X7289Y4996D01*
X7295Y5002D01*
X7307Y5008D01*
X7319D01*
X7331Y5002D01*
X7349Y4990D01*
X7410Y4929D01*
Y5014D01*
M02*
