G04 Layer_Color=2752767*
%FSLAX42Y42*%
%MOMM*%
G71*
G01*
G75*
%ADD17C,0.25*%
%ADD69C,0.05*%
%ADD70C,0.07*%
D17*
X8550Y8612D02*
Y9138D01*
Y4862D02*
Y5388D01*
X5000Y4500D02*
Y9500D01*
X8550D01*
X5000Y4500D02*
X8550D01*
Y6425D02*
Y7575D01*
Y5800D02*
Y6425D01*
Y7575D02*
Y8200D01*
Y8612D01*
Y9138D02*
Y9500D01*
Y4500D02*
Y4862D01*
Y5388D02*
Y5800D01*
D69*
X5230Y9252D02*
Y9292D01*
X5270D01*
Y9252D01*
X5230D01*
Y8998D02*
Y9038D01*
X5270D01*
Y8998D01*
X5230D01*
Y8744D02*
Y8784D01*
X5270D01*
Y8744D01*
X5230D01*
Y8490D02*
Y8530D01*
X5270D01*
Y8490D01*
X5230D01*
Y8236D02*
Y8276D01*
X5270D01*
Y8236D01*
X5230D01*
Y7982D02*
Y8022D01*
X5270D01*
Y7982D01*
X5230D01*
Y7728D02*
Y7768D01*
X5270D01*
Y7728D01*
X5230D01*
Y7474D02*
Y7514D01*
X5270D01*
Y7474D01*
X5230D01*
Y7220D02*
Y7260D01*
X5270D01*
Y7220D01*
X5230D01*
Y6966D02*
Y7006D01*
X5270D01*
Y6966D01*
X5230D01*
Y6712D02*
Y6752D01*
X5270D01*
Y6712D01*
X5230D01*
Y6458D02*
Y6498D01*
X5270D01*
Y6458D01*
X5230D01*
Y6204D02*
Y6244D01*
X5270D01*
Y6204D01*
X5230D01*
Y5950D02*
Y5990D01*
X5270D01*
Y5950D01*
X5230D01*
Y5696D02*
Y5736D01*
X5270D01*
Y5696D01*
X5230D01*
Y5442D02*
Y5482D01*
X5270D01*
Y5442D01*
X5230D01*
Y5188D02*
Y5228D01*
X5270D01*
Y5188D01*
X5230D01*
Y4680D02*
Y4720D01*
X5270D01*
Y4680D01*
X5230D01*
Y4934D02*
Y4974D01*
X5270D01*
Y4934D01*
X5230D01*
X8280Y9252D02*
Y9292D01*
X8320D01*
Y9252D01*
X8280D01*
Y8998D02*
Y9038D01*
X8320D01*
Y8998D01*
X8280D01*
Y8744D02*
Y8784D01*
X8320D01*
Y8744D01*
X8280D01*
Y8490D02*
Y8530D01*
X8320D01*
Y8490D01*
X8280D01*
Y8236D02*
Y8276D01*
X8320D01*
Y8236D01*
X8280D01*
Y7982D02*
Y8022D01*
X8320D01*
Y7982D01*
X8280D01*
Y7728D02*
Y7768D01*
X8320D01*
Y7728D01*
X8280D01*
Y7474D02*
Y7514D01*
X8320D01*
Y7474D01*
X8280D01*
Y7220D02*
Y7260D01*
X8320D01*
Y7220D01*
X8280D01*
Y6966D02*
Y7006D01*
X8320D01*
Y6966D01*
X8280D01*
Y6712D02*
Y6752D01*
X8320D01*
Y6712D01*
X8280D01*
Y6458D02*
Y6498D01*
X8320D01*
Y6458D01*
X8280D01*
Y6204D02*
Y6244D01*
X8320D01*
Y6204D01*
X8280D01*
Y5950D02*
Y5990D01*
X8320D01*
Y5950D01*
X8280D01*
Y5696D02*
Y5736D01*
X8320D01*
Y5696D01*
X8280D01*
Y5442D02*
Y5482D01*
X8320D01*
Y5442D01*
X8280D01*
Y5188D02*
Y5228D01*
X8320D01*
Y5188D01*
X8280D01*
Y4680D02*
Y4720D01*
X8320D01*
Y4680D01*
X8280D01*
Y4934D02*
Y4974D01*
X8320D01*
Y4934D01*
X8280D01*
X7562Y7500D02*
X7542Y7540D01*
X7582D01*
X7562Y7500D01*
X6038D02*
X6018Y7540D01*
X6058D01*
X6038Y7500D01*
X7562Y6992D02*
X7542Y7032D01*
X7582D01*
X7562Y6992D01*
Y6738D02*
X7542Y6778D01*
X7582D01*
X7562Y6738D01*
Y6484D02*
X7542Y6524D01*
X7582D01*
X7562Y6484D01*
X6038Y5214D02*
X6018Y5254D01*
X6058D01*
X6038Y5214D01*
Y4960D02*
X6018Y5000D01*
X6058D01*
X6038Y4960D01*
Y6992D02*
X6018Y7032D01*
X6058D01*
X6038Y6992D01*
Y6738D02*
X6018Y6778D01*
X6058D01*
X6038Y6738D01*
X7562Y5214D02*
X7542Y5254D01*
X7582D01*
X7562Y5214D01*
Y4960D02*
X7542Y5000D01*
X7582D01*
X7562Y4960D01*
X6038Y6484D02*
X6018Y6524D01*
X6058D01*
X6038Y6484D01*
D70*
X7591Y8400D02*
G03*
X7591Y8400I-20J0D01*
G01*
X7845D02*
G03*
X7845Y8400I-20J0D01*
G01*
X7718D02*
G03*
X7718Y8400I-20J0D01*
G01*
X6157Y6284D02*
G03*
X6157Y6284I-20J0D01*
G01*
X6038Y5789D02*
G03*
X6038Y5789I-20J0D01*
G01*
X6745Y9143D02*
G03*
X6745Y9143I-20J0D01*
G01*
X6894Y5550D02*
G03*
X6894Y5550I-20J0D01*
G01*
X7620D02*
G03*
X7620Y5550I-20J0D01*
G01*
X6795Y8550D02*
G03*
X6795Y8550I-20J0D01*
G01*
X7370Y9000D02*
G03*
X7370Y9000I-20J0D01*
G01*
M02*
