M48
;Layer_Color=9474304
;FILE_FORMAT=4:2
METRIC,LZ
;TYPE=PLATED
T1F00S00C0.71
T2F00S00C0.97
T3F00S00C1.00
%
T01
X006017Y005789
X006137Y006284
X006873Y00555
X0076
X007571Y0084
X007698
X007825
X00735Y009
X006725Y009143
X006775Y00855
T02
X0083Y0047
Y004954
Y005208
Y005462
Y005716
Y00597
Y006224
Y006478
Y006732
Y006986
Y00724
Y007494
Y007748
X00525
Y007494
Y00724
Y006986
Y006732
Y006478
Y006224
Y00597
Y005716
Y005462
Y005208
Y004954
Y0047
Y008002
Y008256
Y00851
Y008764
Y009018
Y009272
X0083
Y009018
Y008764
Y00851
Y008256
Y008002
T03
X006038Y00498
Y005234
Y006504
Y006758
Y007012
Y00752
X007562
Y007012
Y006758
Y006504
Y005234
Y00498
M30
