<?xml version="1.0" encoding="UTF-8" standalone="no"?>
<!DOCTYPE svg PUBLIC "-//W3C//DTD SVG 1.1//EN"
 "http://www.w3.org/Graphics/SVG/1.1/DTD/svg11.dtd">
<!-- Generated by graphviz version 2.38.0 (20140413.2041)
 -->
<!-- Title: %3 Pages: 1 -->
<svg width="366pt" height="260pt"
 viewBox="0.00 0.00 366.24 260.00" xmlns="http://www.w3.org/2000/svg" xmlns:xlink="http://www.w3.org/1999/xlink">
<g id="graph0" class="graph" transform="scale(1 1) rotate(0) translate(4 256)">
<title>%3</title>
<polygon fill="white" stroke="none" points="-4,4 -4,-256 362.237,-256 362.237,4 -4,4"/>
<!-- ITF&#45;B_5v -->
<g id="node1" class="node"><title>ITF&#45;B_5v</title>
<ellipse fill="none" stroke="black" cx="233.592" cy="-234" rx="46.2923" ry="18"/>
<text text-anchor="middle" x="233.592" y="-230.3" font-family="Times,serif" font-size="14.00">ITF&#45;B_5v</text>
</g>
<!-- BBB -->
<g id="node2" class="node"><title>BBB</title>
<ellipse fill="none" stroke="black" cx="233.592" cy="-162" rx="28.6953" ry="18"/>
<text text-anchor="middle" x="233.592" y="-158.3" font-family="Times,serif" font-size="14.00">BBB</text>
</g>
<!-- ITF&#45;B_5v&#45;&gt;BBB -->
<g id="edge1" class="edge"><title>ITF&#45;B_5v&#45;&gt;BBB</title>
<path fill="none" stroke="black" d="M233.592,-215.697C233.592,-207.983 233.592,-198.712 233.592,-190.112"/>
<polygon fill="black" stroke="black" points="237.092,-190.104 233.592,-180.104 230.092,-190.104 237.092,-190.104"/>
</g>
<!-- PRUDAQ -->
<g id="node3" class="node"><title>PRUDAQ</title>
<ellipse fill="none" stroke="black" cx="141.592" cy="-90" rx="46.5926" ry="18"/>
<text text-anchor="middle" x="141.592" y="-86.3" font-family="Times,serif" font-size="14.00">PRUDAQ</text>
</g>
<!-- BBB&#45;&gt;PRUDAQ -->
<g id="edge2" class="edge"><title>BBB&#45;&gt;PRUDAQ</title>
<path fill="none" stroke="black" d="M212.768,-149.125C198.553,-139.474 179.902,-125.575 165.172,-113.789"/>
<polygon fill="black" stroke="black" points="166.979,-110.747 157.016,-107.142 162.557,-116.173 166.979,-110.747"/>
</g>
<!-- File -->
<g id="node4" class="node"><title>File</title>
<ellipse fill="none" stroke="black" cx="233.592" cy="-90" rx="27" ry="18"/>
<text text-anchor="middle" x="233.592" y="-86.3" font-family="Times,serif" font-size="14.00">File</text>
</g>
<!-- BBB&#45;&gt;File -->
<g id="edge4" class="edge"><title>BBB&#45;&gt;File</title>
<path fill="none" stroke="black" d="M233.592,-143.697C233.592,-135.983 233.592,-126.712 233.592,-118.112"/>
<polygon fill="black" stroke="black" points="237.092,-118.104 233.592,-108.104 230.092,-118.104 237.092,-118.104"/>
</g>
<!-- SPI -->
<g id="node6" class="node"><title>SPI</title>
<ellipse fill="none" stroke="black" cx="305.592" cy="-90" rx="27" ry="18"/>
<text text-anchor="middle" x="305.592" y="-86.3" font-family="Times,serif" font-size="14.00">SPI</text>
</g>
<!-- BBB&#45;&gt;SPI -->
<g id="edge6" class="edge"><title>BBB&#45;&gt;SPI</title>
<path fill="none" stroke="black" d="M248.51,-146.496C258.55,-136.735 271.968,-123.69 283.272,-112.7"/>
<polygon fill="black" stroke="black" points="285.962,-114.966 290.692,-105.485 281.083,-109.947 285.962,-114.966"/>
</g>
<!-- PRUDAQ&#45;&gt;BBB -->
<g id="edge3" class="edge"><title>PRUDAQ&#45;&gt;BBB</title>
<path fill="none" stroke="black" d="M166.362,-105.584C180.56,-115.43 198.079,-128.59 211.759,-139.615"/>
<polygon fill="black" stroke="black" points="209.769,-142.509 219.717,-146.155 214.214,-137.101 209.769,-142.509"/>
</g>
<!-- ITF&#45;E_signal_envelope -->
<g id="node5" class="node"><title>ITF&#45;E_signal_envelope</title>
<ellipse fill="none" stroke="black" cx="93.5917" cy="-162" rx="93.6835" ry="18"/>
<text text-anchor="middle" x="93.5917" y="-158.3" font-family="Times,serif" font-size="14.00">ITF&#45;E_signal_envelope</text>
</g>
<!-- ITF&#45;E_signal_envelope&#45;&gt;PRUDAQ -->
<g id="edge5" class="edge"><title>ITF&#45;E_signal_envelope&#45;&gt;PRUDAQ</title>
<path fill="none" stroke="black" d="M105.211,-144.055C110.93,-135.715 117.941,-125.491 124.276,-116.252"/>
<polygon fill="black" stroke="black" points="127.31,-118.016 130.079,-107.789 121.537,-114.057 127.31,-118.016"/>
</g>
<!-- TFT Screen -->
<g id="node7" class="node"><title>TFT Screen</title>
<ellipse fill="none" stroke="black" cx="305.592" cy="-18" rx="52.7911" ry="18"/>
<text text-anchor="middle" x="305.592" y="-14.3" font-family="Times,serif" font-size="14.00">TFT Screen</text>
</g>
<!-- SPI&#45;&gt;TFT Screen -->
<g id="edge7" class="edge"><title>SPI&#45;&gt;TFT Screen</title>
<path fill="none" stroke="black" d="M305.592,-71.6966C305.592,-63.9827 305.592,-54.7125 305.592,-46.1124"/>
<polygon fill="black" stroke="black" points="309.092,-46.1043 305.592,-36.1043 302.092,-46.1044 309.092,-46.1043"/>
</g>
</g>
</svg>
