M48
;Layer_Color=9474304
;FILE_FORMAT=2:4
INCH
;TYPE=PLATED
T1F00S00C0.0118
T2F00S00C0.0276
T3F00S00C0.0354
;TYPE=NON_PLATED
T4F00S00C0.1102
%
T01
X063780Y030807
X064567Y030217
X061939Y030246
X061378Y030256
X062205Y030768
X060679Y031181
X058947Y030551
X057854Y030846
X057274Y029675
X055718Y029626
X055266Y030049
X054646Y029843
X052953Y029508
X052569Y029026
X052854Y028327
X052490Y027894
X050728Y027864
X050472Y028898
X049882Y028652
X049026Y028691
X048533Y028701
X047864Y028681
X046880Y028612
X047215Y027963
X048258Y029951
X049065Y030472
X049232Y031132
X050089Y030945
X050128Y030256
X050699Y030246
X051250Y029852
X050896Y029449
X051053Y030906
X051486Y030541
X052333Y030620
X052618Y030915
X051909Y031053
X056122Y029134
X056309Y028514
X055935Y028297
X055551Y028071
X058356Y028839
X058760Y028848
X059695Y028878
X060404Y028809
X061142Y028661
X061693Y028740
X062077Y028917
X059291Y028071
X045797Y027894
X045659Y028671
X046299Y029646
X045947Y030149
X045347Y030307
X044943Y030454
X044596Y030177
X044392Y030602
X043998Y030572
X043437Y030720
X042896Y030877
X042384Y031025
X041339Y030984
X040659Y030541
X039764Y030187
X043366Y029646
X043809Y028701
X042461Y028642
X042707Y028002
X044567Y027982
X043907Y032943
X042156Y032844
X041722Y033327
X041191Y032707
X040502
X039823Y032736
X039980Y033455
X039970Y034518
X040069Y035246
X040256Y036526
X039715Y036791
X041378Y036575
X041567Y034638
X042244Y034616
X045217Y034626
X045138Y033947
X045886Y033927
X046614Y033720
X046732Y032756
X045807Y032815
X046152Y034695
X046742
X046191Y039006
X043150Y038967
X042018Y038976
X041988Y031280
X048130Y032835
X048081Y033740
X048740Y033543
X049294Y033525
X049282Y034035
X049872Y034449
X048533
X048366Y034961
X047500Y034970
X046968Y035138
X046929Y035719
X047884Y035807
X048494Y035925
X050098Y036211
X051191Y037992
X051171Y038976
X048218Y038986
X053189Y038002
X053159Y037018
X053533Y036437
X053760Y036220
X054301Y036280
X054832Y035207
X055384Y034439
X055276Y033691
X054419Y033455
X054144Y034449
X053179Y033829
X052579Y032982
X053159Y031988
X050994Y031378
X050475Y031783
Y032708
X049144Y032854
X049636Y031368
X051772Y034449
X056142Y034016
X057618Y033514
X058465Y033652
X058878Y032982
X059235Y032984
X059636Y032972
X060138Y032943
X059970Y033514
X060600Y033258
X060951Y033008
X061401Y033092
X062106Y032972
X061339Y033858
X060217Y034616
X058110Y034646
X057362Y035453
X057067Y036093
X056378Y035778
X055659Y036024
X056161Y037146
X057156
X056211Y038986
X058159Y038967
X060177Y038996
X062264Y038947
X062175Y037037
X061211Y031309
X060118Y031368
X058297Y032736
X055837Y031260
X063780Y031388
X063799Y032441
X063120Y032736
X062953Y033150
X063583Y033661
X063809Y034646
X064488Y034813
X064360Y035974
X064596Y036772
X063091Y036388
X062697Y034724
X064370Y032874
X064557Y032028
T02
X055965Y030364
X056965
T03
X053780Y031100
X046665Y037492
X045665
X044665
X043665
X042665
Y038492
X043665
X044665
X045665
X046665
X047665
Y037492
X048665
X049665
X050665
X051665
X052665
X053665
X054665
X055665
Y038492
X056665
X057665
X058665
X059665
X060665
X061665
Y037492
X060665
X059665
X058665
X057665
X056665
X054665Y038492
X053665
X052665
X051665
X050665
X049665
X048665
X053780Y033100
Y032100
X055039Y032091
Y033091
X056039
Y032091
X057039
Y033091
T04
X063583Y028937
X040748
Y037992
X063583
M30
