G04*
G04 #@! TF.GenerationSoftware,Altium Limited,Altium Designer,20.2.5 (213)*
G04*
G04 Layer_Physical_Order=1*
G04 Layer_Color=255*
%FSLAX42Y42*%
%MOMM*%
G71*
G04*
G04 #@! TF.SameCoordinates,FD00795A-EEFA-4773-A186-A79775DAC492*
G04*
G04*
G04 #@! TF.FilePolarity,Positive*
G04*
G01*
G75*
%ADD12C,0.25*%
%ADD15R,1.60X4.90*%
%ADD16R,0.90X5.10*%
%ADD17R,5.60X5.60*%
%ADD18R,0.30X0.85*%
%ADD19R,0.85X0.30*%
%ADD20R,1.40X1.02*%
%ADD21R,1.02X1.40*%
%ADD36C,0.64*%
%ADD37R,1.50X1.50*%
%ADD38C,1.50*%
%ADD39R,1.50X1.50*%
%ADD40C,1.52*%
%ADD41R,1.52X1.52*%
%ADD42C,3.10*%
%ADD43C,0.70*%
D12*
X8850Y6178D02*
Y6190D01*
X8870Y6210D02*
X8890Y6230D01*
X8870Y6210D02*
Y6210D01*
X8850Y6190D02*
X8870Y6210D01*
X8890Y6230D02*
Y6731D01*
X7680Y7623D02*
X7740D01*
X7270Y8032D02*
Y8870D01*
Y8032D02*
X7680Y7623D01*
X7138Y9002D02*
Y9004D01*
Y9002D02*
X7270Y8870D01*
X8285Y7428D02*
Y7505D01*
Y7428D02*
X8310Y7403D01*
Y7393D02*
Y7403D01*
X8093Y7583D02*
X8285Y7775D01*
X8093Y7563D02*
Y7583D01*
X8090Y7560D02*
X8093Y7563D01*
X8090Y7549D02*
Y7560D01*
X8087Y7547D02*
X8090Y7549D01*
X8085Y7505D02*
X8087Y7507D01*
Y7547D01*
X8280Y8497D02*
Y8580D01*
X8385Y8195D02*
Y8393D01*
X8280Y8497D02*
X8385Y8393D01*
X8050Y8401D02*
Y8500D01*
X8134Y8196D02*
Y8256D01*
X8235Y8195D02*
Y8277D01*
X8134Y8196D02*
X8135Y8195D01*
X8160Y8352D02*
X8235Y8277D01*
X8160Y8352D02*
Y8430D01*
X8185Y8195D02*
Y8266D01*
X7970Y8420D02*
X8134Y8256D01*
X8050Y8401D02*
X8185Y8266D01*
X8607Y7432D02*
X8608D01*
X9081Y6731D02*
X9090D01*
X8608Y7432D02*
X8700Y7340D01*
X8587Y7452D02*
X8607Y7432D01*
X8700Y7340D02*
X9320D01*
X9090Y6731D02*
X9398D01*
X8587Y7452D02*
Y7503D01*
X8736Y7230D02*
X9010D01*
X8537Y7429D02*
X8736Y7230D01*
X8537Y7429D02*
Y7503D01*
X8730Y6990D02*
Y7175D01*
X8487Y7418D02*
X8730Y7175D01*
X8487Y7418D02*
Y7503D01*
X8645Y7131D02*
Y7199D01*
X8435Y7409D02*
X8645Y7199D01*
X8640Y7130D02*
X8644D01*
X8645Y7131D01*
X8435Y7409D02*
Y7505D01*
X8632Y7547D02*
Y7559D01*
X8360Y7850D02*
X8627Y7583D01*
X8632Y7547D02*
X8633Y7547D01*
X8627Y7563D02*
Y7583D01*
X8633Y7507D02*
Y7547D01*
X8627Y7563D02*
X8632Y7559D01*
X8707Y7927D02*
X8772D01*
X8855Y8010D01*
X9030D01*
X8705Y7875D02*
X8789D01*
X8854Y7940D02*
X8950D01*
X8789Y7875D02*
X8854Y7940D01*
X8705Y7825D02*
X8800D01*
X8845Y7870D02*
X8930D01*
X8800Y7825D02*
X8845Y7870D01*
X7740Y7770D02*
X7745Y7775D01*
X5320Y7780D02*
X5320Y7780D01*
Y7360D02*
Y7780D01*
X8020Y8640D02*
Y8884D01*
Y8640D02*
X8160Y8500D01*
Y8430D02*
Y8500D01*
X8740Y8260D02*
Y8490D01*
X8660Y8570D02*
X8780D01*
X8830Y8280D02*
Y8520D01*
X8780Y8570D02*
X8830Y8520D01*
X8780Y8670D02*
Y8900D01*
X9030Y8010D02*
Y8420D01*
X8780Y8670D02*
X9030Y8420D01*
X8280Y8580D02*
Y8590D01*
X8290Y8580D02*
X8410D01*
X8280Y8590D02*
X8290Y8580D01*
X8410D02*
X8485Y8505D01*
X8435Y8195D02*
Y8405D01*
X8380Y8480D02*
X8386D01*
X8396Y8469D01*
Y8444D02*
Y8469D01*
Y8444D02*
X8435Y8405D01*
X8868Y7800D02*
X8870D01*
X8705Y7925D02*
X8707Y7927D01*
X8705Y7875D02*
X8705Y7875D01*
X8940Y7860D02*
X8990D01*
X9030Y7900D02*
Y8010D01*
X8990Y7860D02*
X9030Y7900D01*
X8930Y7870D02*
X8940Y7860D01*
X8705Y7775D02*
X8843D01*
X8868Y7800D01*
X9130Y7800D02*
Y8790D01*
X9040Y7710D02*
X9130Y7800D01*
X8910Y7540D02*
X8990D01*
X9040Y7590D02*
Y7710D01*
X8990Y7540D02*
X9040Y7590D01*
X9025Y7725D02*
X9040Y7710D01*
X8705Y7725D02*
X9025D01*
X8825Y7625D02*
X8910Y7540D01*
X8905Y7675D02*
X8950Y7630D01*
X8705Y7625D02*
X8825D01*
X8705Y7675D02*
X8905D01*
X8760Y7460D02*
X8870D01*
X8705Y7515D02*
Y7575D01*
Y7515D02*
X8760Y7460D01*
X8705Y8075D02*
X8707Y8077D01*
X8767D01*
X8840Y8150D01*
X8705Y8125D02*
X8711D01*
X8713Y8163D02*
X8830Y8280D01*
X8711Y8125D02*
X8713Y8127D01*
Y8163D01*
X8675Y8195D02*
X8740Y8260D01*
X8585Y8255D02*
X8660Y8330D01*
X8585Y8195D02*
X8585Y8195D01*
Y8255D01*
X8660Y8330D02*
Y8570D01*
X8570Y8340D02*
Y8360D01*
X8535Y8305D02*
X8570Y8340D01*
X8590Y8570D02*
X8660D01*
X8660Y8570D02*
X8660Y8570D01*
X8635Y8195D02*
X8675D01*
X8535D02*
Y8305D01*
X8280Y8590D02*
Y8878D01*
X8485Y8195D02*
Y8505D01*
X8160Y8430D02*
X8280D01*
X8335Y8195D02*
Y8375D01*
X8280Y8430D02*
X8335Y8375D01*
X8285Y8195D02*
Y8315D01*
X8260Y8340D02*
X8285Y8315D01*
X7775Y8420D02*
X7970D01*
X7775D02*
Y8885D01*
Y8265D02*
Y8420D01*
X7915Y8125D02*
X8015D01*
X7775Y8265D02*
X7915Y8125D01*
X7943Y8340D02*
X8085Y8198D01*
X7900Y8340D02*
X7943D01*
X8085Y8195D02*
Y8198D01*
X7750Y7470D02*
X7940D01*
X7755Y8075D02*
X8015D01*
X7750Y8080D02*
X7755Y8075D01*
X7750Y7980D02*
X7890D01*
X7945Y7925D02*
X8015D01*
X7890Y7980D02*
X7945Y7925D01*
X7695D02*
X7795Y7825D01*
X7520Y8100D02*
X7695Y7925D01*
Y7925D02*
X7750Y7980D01*
X7695Y7925D02*
Y7925D01*
X7795Y7825D02*
X8015D01*
X7865Y7875D02*
X8015D01*
X7840Y7900D02*
X7865Y7875D01*
X7740Y7623D02*
Y7645D01*
Y7600D02*
Y7623D01*
Y7600D02*
X7810Y7530D01*
X7860D01*
X7740Y7645D02*
X7820Y7725D01*
X8015D01*
X7860Y7530D02*
X7955Y7625D01*
X8015D01*
X8015Y7625D01*
X7840Y7620D02*
X7895Y7675D01*
X8015D01*
X7940Y7470D02*
X8010Y7540D01*
X8012Y7575D02*
X8015D01*
X8010Y7573D02*
X8012Y7575D01*
X8010Y7540D02*
Y7573D01*
X7745Y7775D02*
X8015D01*
X6940Y7365D02*
Y7790D01*
X6940Y7790D01*
X8649Y6731D02*
X8890D01*
X8460Y6920D02*
X8649Y6731D01*
X8460Y6920D02*
Y7030D01*
X8890Y6731D02*
Y6985D01*
X7860Y5440D02*
X9340D01*
X9440Y5540D02*
Y6150D01*
X9340Y5440D02*
X9440Y5540D01*
Y6150D02*
X9652Y6362D01*
Y6731D01*
Y6985D01*
X7760Y5540D02*
X7860Y5440D01*
X7760Y5540D02*
Y5758D01*
X7952Y5950D01*
X7960Y7300D02*
X8060Y7400D01*
X8650Y6910D02*
X8730Y6990D01*
X9081Y6985D02*
Y7160D01*
X9010Y7230D02*
X9081Y7160D01*
X9320Y7340D02*
X9530Y7130D01*
X9398Y6731D02*
X9496Y6829D01*
X9499D01*
X9530Y6860D01*
Y7130D01*
X8585Y7505D02*
X8587Y7503D01*
X8535Y7505D02*
X8537Y7503D01*
X8460Y7145D02*
Y7221D01*
Y7310D01*
X8385Y7385D02*
Y7505D01*
Y7385D02*
X8460Y7310D01*
X7874Y6914D02*
X8080Y7120D01*
X8200Y7135D02*
Y7240D01*
X8185Y7120D02*
X8200Y7135D01*
X8080Y7120D02*
X8185D01*
X8200Y7240D02*
X8235Y7275D01*
X8330Y7100D02*
X8360Y7130D01*
X8445D02*
X8460Y7145D01*
X8360Y7130D02*
X8445D01*
X8128Y6748D02*
X8330Y6950D01*
X8128Y6668D02*
Y6748D01*
X8080Y7350D02*
X8120D01*
X8185Y7415D02*
Y7505D01*
X8120Y7350D02*
X8185Y7415D01*
X8060Y7400D02*
X8085D01*
X8133Y7503D02*
X8135Y7505D01*
X8133Y7448D02*
Y7503D01*
X8085Y7400D02*
X8133Y7448D01*
X8485Y7505D02*
X8487Y7503D01*
X8181Y7050D02*
X8200D01*
X8051Y6920D02*
X8181Y7050D01*
X8010Y6920D02*
X8051D01*
X8330Y6950D02*
Y7100D01*
X7874Y6668D02*
Y6914D01*
X7970Y7140D02*
X8040Y7210D01*
Y7310D02*
X8080Y7350D01*
X8040Y7210D02*
Y7310D01*
X8235Y7275D02*
Y7505D01*
X9081Y6985D02*
X9398D01*
X8335Y7825D02*
X8360Y7850D01*
X8285Y7775D02*
X8335Y7825D01*
X8185Y8025D02*
X8235Y7975D01*
X8015D02*
X8235D01*
X8360Y7850D01*
X8015Y8025D02*
X8185D01*
X8485Y7975D02*
X8535Y8025D01*
X8360Y7850D02*
X8485Y7975D01*
X8535Y8025D02*
X8705D01*
X8485Y7975D02*
X8705D01*
X8633Y7507D02*
X8635Y7505D01*
X8285D02*
Y7775D01*
X8335Y7505D02*
Y7825D01*
X8916Y9004D02*
X9130Y8790D01*
X8662Y9004D02*
X8676D01*
X8780Y8900D01*
X8530Y8630D02*
X8590Y8570D01*
X8408Y9004D02*
X8426D01*
X8530Y8900D01*
Y8630D02*
Y8900D01*
X8154Y9004D02*
X8280Y8878D01*
X7900Y9004D02*
X8020Y8884D01*
X7656Y9004D02*
X7775Y8885D01*
X7646Y9004D02*
X7656D01*
X7520Y8100D02*
Y8876D01*
X7392Y9004D02*
X7520Y8876D01*
X7640Y5300D02*
X10100D01*
X7640D02*
Y7100D01*
X4000D02*
X7640D01*
X4000D02*
Y9500D01*
X10100D01*
Y5300D02*
Y9500D01*
D15*
X4895Y7378D02*
D03*
X5745D02*
D03*
X6515Y7382D02*
D03*
X7365D02*
D03*
D16*
X5320Y7360D02*
D03*
X6940Y7365D02*
D03*
D17*
X8360Y7850D02*
D03*
D18*
X8635Y7505D02*
D03*
X8585D02*
D03*
X8535D02*
D03*
X8485D02*
D03*
X8435D02*
D03*
X8385D02*
D03*
X8335D02*
D03*
X8285D02*
D03*
X8235D02*
D03*
X8185D02*
D03*
X8135D02*
D03*
X8085D02*
D03*
Y8195D02*
D03*
X8135D02*
D03*
X8185D02*
D03*
X8235D02*
D03*
X8285D02*
D03*
X8335D02*
D03*
X8385D02*
D03*
X8435D02*
D03*
X8485D02*
D03*
X8535D02*
D03*
X8585D02*
D03*
X8635D02*
D03*
D19*
X8015Y7575D02*
D03*
Y7625D02*
D03*
Y7675D02*
D03*
Y7725D02*
D03*
Y7775D02*
D03*
Y7825D02*
D03*
Y7875D02*
D03*
Y7925D02*
D03*
Y7975D02*
D03*
Y8025D02*
D03*
Y8075D02*
D03*
Y8125D02*
D03*
X8705D02*
D03*
Y8075D02*
D03*
Y8025D02*
D03*
Y7975D02*
D03*
Y7925D02*
D03*
Y7875D02*
D03*
Y7825D02*
D03*
Y7775D02*
D03*
Y7725D02*
D03*
Y7675D02*
D03*
Y7625D02*
D03*
Y7575D02*
D03*
D20*
X8460Y7221D02*
D03*
Y7030D02*
D03*
X8200Y7221D02*
D03*
Y7030D02*
D03*
X8128Y6668D02*
D03*
Y6477D02*
D03*
X7874Y6668D02*
D03*
Y6477D02*
D03*
D21*
X8890Y6731D02*
D03*
X9081D02*
D03*
Y6985D02*
D03*
X8890D02*
D03*
D36*
X6512Y7807D02*
X6665Y7960D01*
X7210D02*
X7365Y7805D01*
X6665Y7960D02*
X7210D01*
X7365Y7382D02*
Y7805D01*
X6512Y7762D02*
Y7807D01*
Y7385D02*
Y7762D01*
X4895Y7855D02*
X5015Y7975D01*
X5645D02*
X5765Y7855D01*
X5015Y7975D02*
X5645D01*
X5765Y7397D02*
Y7855D01*
X5745Y7378D02*
X5765Y7397D01*
X4895Y7378D02*
Y7855D01*
X6512Y7385D02*
X6515Y7382D01*
X7874Y6477D02*
X8128D01*
X7874Y6216D02*
Y6477D01*
X7952Y5950D02*
Y6138D01*
X7874Y6216D02*
X7952Y6138D01*
D37*
X9222Y5696D02*
D03*
D38*
Y5950D02*
D03*
X8968Y5696D02*
D03*
X8714D02*
D03*
X8460D02*
D03*
X8206D02*
D03*
X7952D02*
D03*
X8968Y5950D02*
D03*
X8714D02*
D03*
X8460D02*
D03*
X8206D02*
D03*
X7952D02*
D03*
X9652Y6731D02*
D03*
Y6985D02*
D03*
D39*
X9398Y6731D02*
D03*
Y6985D02*
D03*
D40*
X7138Y8750D02*
D03*
Y9004D02*
D03*
X7392Y8750D02*
D03*
Y9004D02*
D03*
X7646Y8750D02*
D03*
Y9004D02*
D03*
X7900Y8750D02*
D03*
Y9004D02*
D03*
X8154Y8750D02*
D03*
Y9004D02*
D03*
X8662Y8750D02*
D03*
X8916D02*
D03*
X8408D02*
D03*
X8662Y9004D02*
D03*
X8408D02*
D03*
D41*
X8916D02*
D03*
D42*
X4300Y7400D02*
D03*
X9800Y5600D02*
D03*
Y9200D02*
D03*
X4300D02*
D03*
D43*
X6510Y7762D02*
D03*
X5765Y7770D02*
D03*
X8850Y6178D02*
D03*
X5320Y7780D02*
D03*
X6940Y7790D02*
D03*
X8050Y8500D02*
D03*
X8740Y8490D02*
D03*
X8390D02*
D03*
X8870Y7460D02*
D03*
X8870Y7800D02*
D03*
X8955Y7940D02*
D03*
X8950Y7630D02*
D03*
X8865Y8180D02*
D03*
X8570Y8360D02*
D03*
X8255Y8350D02*
D03*
X7900Y8340D02*
D03*
X7750Y7470D02*
D03*
X7745Y8080D02*
D03*
X7845Y7910D02*
D03*
X7840Y7620D02*
D03*
X7745Y7770D02*
D03*
X8655Y6910D02*
D03*
X8645Y7110D02*
D03*
X7965Y7140D02*
D03*
X7965Y7300D02*
D03*
X8010Y6920D02*
D03*
X8310Y7393D02*
D03*
M02*
