G04*
G04 #@! TF.GenerationSoftware,Altium Limited,Altium Designer,20.2.5 (213)*
G04*
G04 Layer_Color=65535*
%FSLAX42Y42*%
%MOMM*%
G71*
G04*
G04 #@! TF.SameCoordinates,FD00795A-EEFA-4773-A186-A79775DAC492*
G04*
G04*
G04 #@! TF.FilePolarity,Positive*
G04*
G01*
G75*
%ADD10C,0.25*%
%ADD11C,0.20*%
%ADD12C,0.25*%
%ADD13C,0.19*%
%ADD14C,0.16*%
G36*
X5070Y9350D02*
Y9349D01*
X5085Y9274D01*
Y9273D01*
X5086Y9271D01*
X5088Y9270D01*
X5137Y9249D01*
X5142D01*
X5205Y9293D01*
X5206D01*
X5209Y9292D01*
X5263Y9240D01*
Y9239D01*
Y9238D01*
Y9236D01*
Y9235D01*
X5219Y9173D01*
Y9170D01*
Y9169D01*
Y9167D01*
X5243Y9116D01*
Y9115D01*
X5244Y9113D01*
X5247D01*
X5318Y9100D01*
X5320D01*
X5322Y9098D01*
Y9097D01*
Y9022D01*
Y9021D01*
X5320Y9019D01*
X5318D01*
X5249Y9005D01*
X5247D01*
X5246Y9003D01*
X5244Y9002D01*
X5222Y8946D01*
Y8945D01*
Y8943D01*
Y8942D01*
Y8940D01*
X5263Y8883D01*
Y8880D01*
Y8879D01*
X5209Y8826D01*
X5208Y8824D01*
X5206D01*
X5205Y8826D01*
X5148Y8864D01*
X5142D01*
X5118Y8851D01*
X5115D01*
X5114Y8852D01*
X5061Y8978D01*
Y8980D01*
X5063Y8984D01*
X5070Y8987D01*
X5071Y8989D01*
X5073Y8990D01*
X5074Y8991D01*
X5079Y8994D01*
X5085Y9000D01*
X5092Y9008D01*
X5099Y9016D01*
X5105Y9028D01*
X5110Y9041D01*
X5111Y9057D01*
Y9059D01*
Y9063D01*
X5110Y9069D01*
X5108Y9078D01*
X5105Y9087D01*
X5101Y9097D01*
X5095Y9107D01*
X5088Y9116D01*
X5086Y9117D01*
X5083Y9120D01*
X5079Y9123D01*
X5071Y9129D01*
X5063Y9134D01*
X5052Y9136D01*
X5042Y9139D01*
X5029Y9141D01*
X5023D01*
X5017Y9139D01*
X5008Y9138D01*
X5000Y9135D01*
X4989Y9131D01*
X4981Y9125D01*
X4970Y9116D01*
X4969Y9115D01*
X4967Y9112D01*
X4963Y9107D01*
X4959Y9100D01*
X4954Y9091D01*
X4951Y9081D01*
X4948Y9071D01*
X4947Y9057D01*
Y9056D01*
Y9050D01*
X4948Y9043D01*
X4951Y9032D01*
X4956Y9022D01*
X4963Y9011D01*
X4972Y9000D01*
X4985Y8990D01*
Y8989D01*
X4986Y8987D01*
X4988D01*
X4995Y8984D01*
X4997Y8983D01*
Y8978D01*
X4945Y8852D01*
X4944D01*
X4940Y8851D01*
X4915Y8864D01*
X4910D01*
X4853Y8826D01*
X4852Y8824D01*
X4850D01*
X4849Y8826D01*
X4795Y8879D01*
Y8880D01*
Y8882D01*
Y8883D01*
X4836Y8940D01*
Y8942D01*
Y8943D01*
Y8945D01*
Y8946D01*
X4812Y9002D01*
Y9003D01*
X4809Y9005D01*
X4740Y9019D01*
X4739D01*
X4737Y9021D01*
X4736Y9022D01*
Y9097D01*
Y9098D01*
X4737Y9100D01*
X4740D01*
X4811Y9113D01*
X4812D01*
X4817Y9116D01*
X4837Y9167D01*
Y9169D01*
Y9170D01*
Y9172D01*
Y9173D01*
X4795Y9235D01*
Y9236D01*
Y9238D01*
Y9239D01*
Y9240D01*
X4849Y9292D01*
X4850Y9293D01*
X4853D01*
X4915Y9249D01*
X4921D01*
X4970Y9270D01*
X4972D01*
X4973Y9271D01*
Y9274D01*
X4988Y9349D01*
Y9350D01*
X4989Y9352D01*
X5069D01*
X5070Y9350D01*
D02*
G37*
G36*
X5269Y8761D02*
X5275Y8759D01*
X5263Y8744D01*
X5262Y8745D01*
X5260Y8747D01*
X5257Y8748D01*
X5255Y8750D01*
X5252D01*
X5247Y8748D01*
X5241Y8742D01*
X5240Y8738D01*
X5238Y8732D01*
Y8685D01*
X5222D01*
Y8764D01*
X5238D01*
Y8756D01*
X5240Y8757D01*
X5243Y8760D01*
X5250Y8763D01*
X5259Y8764D01*
X5263D01*
X5269Y8761D01*
D02*
G37*
G36*
X4932D02*
X4937Y8757D01*
X4941Y8753D01*
X4944Y8745D01*
X4945Y8737D01*
Y8685D01*
X4929D01*
Y8732D01*
Y8734D01*
Y8735D01*
X4928Y8741D01*
X4922Y8747D01*
X4919Y8750D01*
X4910D01*
X4906Y8748D01*
X4900Y8742D01*
X4899Y8738D01*
X4897Y8732D01*
Y8685D01*
X4881D01*
Y8764D01*
X4897D01*
Y8756D01*
X4899Y8757D01*
X4903Y8760D01*
X4909Y8763D01*
X4919Y8764D01*
X4923D01*
X4932Y8761D01*
D02*
G37*
G36*
X4774Y8763D02*
X4781Y8761D01*
X4789Y8756D01*
X4790Y8754D01*
X4792Y8748D01*
X4793Y8740D01*
Y8725D01*
Y8723D01*
Y8722D01*
Y8713D01*
X4792Y8703D01*
X4789Y8694D01*
X4787Y8693D01*
X4781Y8690D01*
X4774Y8685D01*
X4767Y8684D01*
X4765D01*
X4761Y8685D01*
X4754Y8688D01*
X4745Y8693D01*
Y8631D01*
X4746Y8633D01*
X4751Y8636D01*
X4757Y8638D01*
X4767Y8640D01*
X4771D01*
X4780Y8637D01*
X4784Y8634D01*
X4789Y8628D01*
X4792Y8622D01*
X4793Y8614D01*
Y8562D01*
X4777D01*
Y8608D01*
Y8609D01*
Y8611D01*
X4776Y8616D01*
X4770Y8622D01*
X4767Y8625D01*
X4758D01*
X4754Y8624D01*
X4748Y8618D01*
X4746Y8614D01*
X4745Y8608D01*
Y8562D01*
X4732D01*
Y8764D01*
X4745D01*
Y8756D01*
X4746Y8757D01*
X4752Y8760D01*
X4758Y8763D01*
X4767Y8764D01*
X4768D01*
X4774Y8763D01*
D02*
G37*
G36*
X5033D02*
X5042Y8760D01*
X5052Y8753D01*
X5044Y8742D01*
X5041Y8744D01*
X5035Y8747D01*
X5027Y8748D01*
X5022Y8750D01*
X5019D01*
X5014Y8748D01*
X5010Y8747D01*
X5007Y8741D01*
Y8740D01*
X5008Y8738D01*
X5011Y8735D01*
X5019Y8734D01*
X5032Y8732D01*
X5036D01*
X5044Y8728D01*
X5052Y8720D01*
X5054Y8716D01*
X5055Y8709D01*
Y8707D01*
Y8704D01*
X5054Y8701D01*
X5051Y8697D01*
X5047Y8691D01*
X5041Y8688D01*
X5033Y8685D01*
X5022Y8684D01*
X5019D01*
X5010Y8685D01*
X5000Y8690D01*
X4988Y8699D01*
X4998Y8709D01*
X5000Y8707D01*
X5006Y8704D01*
X5014Y8700D01*
X5023Y8699D01*
X5026D01*
X5032Y8700D01*
X5036Y8703D01*
X5039Y8706D01*
Y8709D01*
Y8710D01*
X5038Y8712D01*
X5035Y8715D01*
X5029Y8718D01*
X5013D01*
X5011Y8719D01*
X5004Y8722D01*
X4997Y8729D01*
X4995Y8734D01*
X4994Y8741D01*
Y8742D01*
Y8745D01*
X4997Y8753D01*
X5001Y8757D01*
X5006Y8761D01*
X5013Y8763D01*
X5022Y8764D01*
X5025D01*
X5033Y8763D01*
D02*
G37*
G36*
X5319D02*
X5328Y8759D01*
X5337Y8751D01*
X5325Y8741D01*
X5323Y8742D01*
X5320Y8745D01*
X5316Y8748D01*
X5309Y8750D01*
X5306D01*
X5300Y8747D01*
X5296Y8744D01*
X5293Y8740D01*
X5291Y8734D01*
X5290Y8725D01*
Y8723D01*
Y8720D01*
X5293Y8713D01*
X5298Y8704D01*
X5303Y8701D01*
X5309Y8700D01*
X5310D01*
X5315Y8701D01*
X5319Y8704D01*
X5325Y8709D01*
X5337Y8699D01*
X5335Y8696D01*
X5329Y8691D01*
X5320Y8687D01*
X5309Y8684D01*
X5303D01*
X5297Y8687D01*
X5291Y8690D01*
X5285Y8694D01*
X5279Y8701D01*
X5275Y8712D01*
X5274Y8725D01*
Y8726D01*
Y8731D01*
X5275Y8738D01*
X5278Y8745D01*
X5282Y8751D01*
X5288Y8759D01*
X5297Y8763D01*
X5309Y8764D01*
X5312D01*
X5319Y8763D01*
D02*
G37*
G36*
X5205Y8685D02*
X5189D01*
Y8693D01*
X5187Y8691D01*
X5183Y8688D01*
X5177Y8685D01*
X5170Y8684D01*
X5165D01*
X5156Y8687D01*
X5151Y8690D01*
X5146Y8696D01*
X5143Y8701D01*
X5142Y8710D01*
Y8764D01*
X5158D01*
Y8718D01*
Y8715D01*
X5159Y8709D01*
X5165Y8703D01*
X5168Y8701D01*
X5174Y8700D01*
X5177D01*
X5181Y8703D01*
X5186Y8707D01*
X5189Y8712D01*
Y8718D01*
Y8764D01*
X5205D01*
Y8685D01*
D02*
G37*
G36*
X5383Y8763D02*
X5391Y8760D01*
X5397Y8757D01*
X5401Y8751D01*
X5405Y8742D01*
X5407Y8732D01*
Y8718D01*
X5357D01*
Y8716D01*
Y8715D01*
X5360Y8709D01*
X5366Y8701D01*
X5370Y8700D01*
X5376Y8699D01*
X5378D01*
X5382Y8700D01*
X5388Y8703D01*
X5392Y8707D01*
X5404Y8697D01*
X5402Y8696D01*
X5397Y8691D01*
X5388Y8685D01*
X5376Y8684D01*
X5370D01*
X5364Y8687D01*
X5359Y8690D01*
X5353Y8694D01*
X5347Y8701D01*
X5342Y8712D01*
X5341Y8725D01*
Y8726D01*
Y8731D01*
X5342Y8738D01*
X5345Y8745D01*
X5348Y8751D01*
X5354Y8759D01*
X5363Y8763D01*
X5373Y8764D01*
X5379D01*
X5383Y8763D01*
D02*
G37*
G36*
X5105D02*
X5112Y8761D01*
X5120Y8756D01*
X5121Y8754D01*
X5124Y8748D01*
X5127Y8740D01*
X5129Y8725D01*
Y8723D01*
Y8722D01*
X5127Y8713D01*
X5126Y8703D01*
X5120Y8694D01*
X5118Y8693D01*
X5114Y8690D01*
X5107Y8685D01*
X5096Y8684D01*
X5093D01*
X5088Y8685D01*
X5080Y8688D01*
X5071Y8694D01*
X5070Y8696D01*
X5069Y8701D01*
X5066Y8712D01*
X5064Y8725D01*
Y8726D01*
Y8728D01*
X5066Y8737D01*
X5067Y8747D01*
X5071Y8756D01*
X5073Y8757D01*
X5077Y8760D01*
X5086Y8763D01*
X5096Y8764D01*
X5099D01*
X5105Y8763D01*
D02*
G37*
G36*
X4846D02*
X4853Y8760D01*
X4859Y8757D01*
X4863Y8751D01*
X4868Y8742D01*
X4869Y8732D01*
Y8718D01*
X4819D01*
Y8716D01*
Y8715D01*
X4822Y8709D01*
X4827Y8701D01*
X4831Y8700D01*
X4837Y8699D01*
X4839D01*
X4844Y8700D01*
X4849Y8703D01*
X4855Y8707D01*
X4868Y8697D01*
X4865Y8696D01*
X4859Y8691D01*
X4850Y8685D01*
X4839Y8684D01*
X4833D01*
X4827Y8687D01*
X4821Y8690D01*
X4815Y8694D01*
X4809Y8701D01*
X4805Y8712D01*
X4803Y8725D01*
Y8726D01*
Y8731D01*
X4805Y8738D01*
X4808Y8745D01*
X4811Y8751D01*
X4817Y8759D01*
X4825Y8763D01*
X4836Y8764D01*
X4841D01*
X4846Y8763D01*
D02*
G37*
G36*
X4695D02*
X4702Y8761D01*
X4708Y8756D01*
X4710Y8754D01*
X4713Y8748D01*
X4715Y8740D01*
X4717Y8725D01*
Y8723D01*
Y8722D01*
X4715Y8713D01*
X4714Y8703D01*
X4708Y8694D01*
X4707Y8693D01*
X4702Y8690D01*
X4695Y8685D01*
X4685Y8684D01*
X4682D01*
X4676Y8685D01*
X4669Y8688D01*
X4660Y8694D01*
X4658Y8696D01*
X4657Y8703D01*
X4655Y8712D01*
X4654Y8725D01*
Y8726D01*
Y8728D01*
X4655Y8737D01*
X4657Y8745D01*
X4660Y8756D01*
X4661Y8757D01*
X4666Y8760D01*
X4674Y8763D01*
X4685Y8764D01*
X4688D01*
X4695Y8763D01*
D02*
G37*
G36*
X5250Y8637D02*
X5256Y8634D01*
X5243Y8621D01*
Y8622D01*
X5240Y8624D01*
X5237Y8625D01*
X5230D01*
X5225Y8624D01*
X5221Y8618D01*
X5218Y8614D01*
Y8608D01*
Y8562D01*
X5202D01*
Y8640D01*
X5218D01*
Y8631D01*
X5219Y8633D01*
X5224Y8636D01*
X5230Y8638D01*
X5240Y8640D01*
X5244D01*
X5250Y8637D01*
D02*
G37*
G36*
X5001Y8562D02*
X4985D01*
Y8568D01*
X4984Y8567D01*
X4979Y8564D01*
X4973Y8561D01*
X4965Y8559D01*
X4963D01*
X4957Y8561D01*
X4950Y8564D01*
X4944Y8571D01*
X4943Y8573D01*
X4941Y8577D01*
X4940Y8580D01*
Y8586D01*
X4938Y8592D01*
Y8600D01*
Y8602D01*
Y8605D01*
X4940Y8614D01*
X4941Y8624D01*
X4943Y8628D01*
X4944Y8631D01*
X4945Y8633D01*
X4948Y8636D01*
X4956Y8638D01*
X4965Y8640D01*
X4966D01*
X4972Y8638D01*
X4978Y8637D01*
X4985Y8631D01*
Y8672D01*
X5001D01*
Y8562D01*
D02*
G37*
G36*
X4932Y8637D02*
X4938Y8634D01*
X4926Y8621D01*
X4925Y8622D01*
X4923Y8624D01*
X4919Y8625D01*
X4913D01*
X4909Y8624D01*
X4903Y8618D01*
X4902Y8614D01*
Y8608D01*
Y8562D01*
X4885D01*
Y8640D01*
X4902D01*
Y8631D01*
X4903Y8633D01*
X4906Y8636D01*
X4912Y8638D01*
X4921Y8640D01*
X4926D01*
X4932Y8637D01*
D02*
G37*
G36*
X5096Y8562D02*
X5082D01*
X5064Y8616D01*
X5048Y8562D01*
X5035D01*
X5010Y8640D01*
X5026D01*
X5041Y8584D01*
X5060Y8640D01*
X5071D01*
X5089Y8584D01*
X5104Y8640D01*
X5121D01*
X5096Y8562D01*
D02*
G37*
G36*
X5170Y8637D02*
X5174Y8634D01*
X5180Y8630D01*
X5183Y8624D01*
X5184Y8615D01*
Y8562D01*
X5170D01*
Y8568D01*
X5168Y8567D01*
X5165Y8564D01*
X5158Y8561D01*
X5149Y8559D01*
X5145D01*
X5136Y8562D01*
X5130Y8565D01*
X5126Y8570D01*
X5123Y8575D01*
X5121Y8584D01*
Y8586D01*
Y8589D01*
X5124Y8596D01*
X5127Y8600D01*
X5133Y8605D01*
X5139Y8606D01*
X5148Y8608D01*
X5170D01*
Y8615D01*
Y8616D01*
X5168Y8621D01*
X5162Y8624D01*
X5159Y8625D01*
X5148D01*
X5142Y8624D01*
X5139Y8621D01*
X5127Y8630D01*
X5129Y8631D01*
X5133Y8636D01*
X5140Y8638D01*
X5153Y8640D01*
X5158D01*
X5170Y8637D01*
D02*
G37*
G36*
X4844Y8638D02*
X4852Y8637D01*
X4858Y8634D01*
X4862Y8630D01*
X4866Y8624D01*
X4868Y8615D01*
Y8562D01*
X4852D01*
Y8568D01*
X4850Y8567D01*
X4847Y8564D01*
X4841Y8561D01*
X4833Y8559D01*
X4828D01*
X4818Y8562D01*
X4812Y8565D01*
X4808Y8570D01*
X4805Y8575D01*
X4803Y8584D01*
Y8586D01*
Y8589D01*
X4806Y8596D01*
X4809Y8600D01*
X4815Y8605D01*
X4821Y8606D01*
X4830Y8608D01*
X4852D01*
Y8615D01*
Y8616D01*
X4850Y8621D01*
X4844Y8624D01*
X4841Y8625D01*
X4830D01*
X4824Y8624D01*
X4819Y8621D01*
X4808Y8630D01*
X4809Y8631D01*
X4815Y8636D01*
X4822Y8638D01*
X4834Y8640D01*
X4840D01*
X4844Y8638D01*
D02*
G37*
G36*
X5298D02*
X5306Y8636D01*
X5312Y8633D01*
X5316Y8627D01*
X5320Y8618D01*
X5322Y8608D01*
Y8593D01*
X5272D01*
Y8592D01*
Y8590D01*
X5275Y8584D01*
X5279Y8577D01*
X5284Y8575D01*
X5290Y8574D01*
X5291D01*
X5297Y8575D01*
X5301Y8578D01*
X5307Y8583D01*
X5319Y8573D01*
X5318Y8571D01*
X5312Y8567D01*
X5303Y8561D01*
X5291Y8559D01*
X5285D01*
X5279Y8562D01*
X5274Y8565D01*
X5268Y8570D01*
X5262Y8577D01*
X5257Y8587D01*
X5256Y8600D01*
Y8602D01*
Y8606D01*
X5257Y8614D01*
X5260Y8621D01*
X5263Y8627D01*
X5269Y8634D01*
X5278Y8638D01*
X5288Y8640D01*
X5294D01*
X5298Y8638D01*
D02*
G37*
%LPC*%
G36*
X4761Y8750D02*
X4758D01*
X4754Y8747D01*
X4751Y8744D01*
X4748Y8740D01*
X4746Y8734D01*
X4745Y8725D01*
Y8723D01*
Y8720D01*
X4746Y8713D01*
X4752Y8704D01*
X4755Y8701D01*
X4761Y8700D01*
X4764D01*
X4770Y8703D01*
X4773Y8706D01*
X4774Y8710D01*
X4777Y8716D01*
Y8725D01*
Y8726D01*
Y8729D01*
X4776Y8738D01*
X4770Y8745D01*
X4767Y8748D01*
X4761Y8750D01*
D02*
G37*
G36*
X5378D02*
X5370D01*
X5366Y8748D01*
X5360Y8742D01*
X5359Y8738D01*
X5357Y8732D01*
X5391D01*
Y8734D01*
Y8735D01*
X5388Y8741D01*
X5382Y8747D01*
X5378Y8750D01*
D02*
G37*
G36*
X5096D02*
X5095D01*
X5092Y8748D01*
X5088Y8747D01*
X5085Y8742D01*
X5083Y8740D01*
X5082Y8734D01*
X5080Y8725D01*
Y8722D01*
Y8718D01*
X5082Y8710D01*
X5085Y8706D01*
Y8704D01*
X5086Y8703D01*
X5090Y8701D01*
X5096Y8700D01*
X5098D01*
X5101Y8701D01*
X5105Y8703D01*
X5108Y8706D01*
X5110Y8707D01*
X5111Y8710D01*
X5112Y8716D01*
Y8725D01*
Y8728D01*
Y8732D01*
X5111Y8738D01*
X5108Y8742D01*
Y8744D01*
X5105Y8747D01*
X5102Y8748D01*
X5096Y8750D01*
D02*
G37*
G36*
X4840D02*
X4833D01*
X4828Y8748D01*
X4822Y8742D01*
X4821Y8738D01*
X4819Y8732D01*
X4853D01*
Y8734D01*
Y8735D01*
X4850Y8741D01*
X4844Y8747D01*
X4840Y8750D01*
D02*
G37*
G36*
X4685D02*
X4683D01*
X4680Y8748D01*
X4676Y8747D01*
X4673Y8742D01*
X4672Y8741D01*
X4670Y8738D01*
X4669Y8732D01*
X4667Y8725D01*
Y8723D01*
X4669Y8718D01*
X4670Y8712D01*
X4673Y8706D01*
Y8704D01*
X4674Y8703D01*
X4679Y8701D01*
X4685Y8700D01*
X4686D01*
X4691Y8701D01*
X4695Y8703D01*
X4698Y8706D01*
Y8707D01*
X4699Y8710D01*
X4701Y8716D01*
Y8725D01*
Y8728D01*
Y8732D01*
X4699Y8738D01*
X4698Y8742D01*
X4696Y8744D01*
X4695Y8747D01*
X4691Y8748D01*
X4685Y8750D01*
D02*
G37*
G36*
X4970Y8625D02*
X4967D01*
X4963Y8622D01*
X4960Y8619D01*
X4957Y8615D01*
X4956Y8609D01*
X4954Y8600D01*
Y8599D01*
Y8596D01*
X4956Y8589D01*
X4962Y8580D01*
X4965Y8577D01*
X4970Y8575D01*
X4973D01*
X4978Y8578D01*
X4981Y8581D01*
X4982Y8586D01*
X4985Y8592D01*
Y8600D01*
Y8602D01*
Y8605D01*
X4984Y8614D01*
X4979Y8621D01*
X4975Y8624D01*
X4970Y8625D01*
D02*
G37*
G36*
X5170Y8593D02*
X5149D01*
X5145Y8592D01*
X5139Y8590D01*
X5137Y8584D01*
Y8583D01*
X5139Y8580D01*
X5143Y8575D01*
X5151Y8574D01*
X5153D01*
X5161Y8575D01*
X5167Y8580D01*
X5168Y8584D01*
X5170Y8589D01*
Y8593D01*
D02*
G37*
G36*
X4852D02*
X4831D01*
X4827Y8592D01*
X4821Y8590D01*
X4819Y8584D01*
Y8583D01*
X4821Y8580D01*
X4825Y8575D01*
X4834Y8574D01*
X4837D01*
X4843Y8575D01*
X4849Y8580D01*
X4852Y8584D01*
Y8589D01*
Y8593D01*
D02*
G37*
G36*
X5293Y8625D02*
X5285D01*
X5281Y8624D01*
X5275Y8618D01*
X5274Y8614D01*
X5272Y8608D01*
X5306D01*
Y8609D01*
Y8611D01*
X5303Y8616D01*
X5297Y8622D01*
X5293Y8625D01*
D02*
G37*
%LPD*%
D10*
X8760Y7500D02*
G03*
X8760Y7500I-12J0D01*
G01*
D11*
X5434Y7093D02*
X5796D01*
Y6928D02*
Y7093D01*
X4844Y6928D02*
Y7093D01*
X5565Y6775D02*
Y6928D01*
X5053Y6140D02*
X5587D01*
X5075Y6775D02*
Y6928D01*
Y6775D02*
X5565D01*
X5629Y6161D02*
Y6246D01*
X5587Y6140D02*
X5629Y6161D01*
X5011Y6163D02*
X5053Y6140D01*
X5011Y6163D02*
Y6246D01*
X4844Y7093D02*
X5206D01*
X4844Y6928D02*
X5796D01*
X5011Y6246D02*
Y6575D01*
Y6568D02*
Y6742D01*
X5044Y6775D01*
X5080D01*
X5629Y6246D02*
Y6746D01*
X5602Y6773D02*
X5629Y6746D01*
X5560Y6773D02*
X5602D01*
X5168Y6140D02*
Y6775D01*
X5485Y6140D02*
Y6775D01*
X7054Y7097D02*
X7416D01*
Y6932D02*
Y7097D01*
X6464Y6932D02*
Y7097D01*
X7185Y6781D02*
Y6932D01*
X6674Y6144D02*
X7207D01*
X6695Y6781D02*
Y6932D01*
Y6781D02*
X7185D01*
X7249Y6166D02*
Y6251D01*
X7207Y6144D02*
X7249Y6166D01*
X6631Y6168D02*
X6674Y6144D01*
X6631Y6168D02*
Y6251D01*
X6464Y7097D02*
X6826D01*
X6464Y6932D02*
X7416D01*
X6631Y6251D02*
Y6580D01*
Y6573D02*
Y6747D01*
X6664Y6780D01*
X6700D01*
X7249Y6251D02*
Y6750D01*
X7222Y6778D02*
X7249Y6750D01*
X7180Y6778D02*
X7222D01*
X6788Y6146D02*
Y6781D01*
X7105Y6146D02*
Y6781D01*
D12*
X7130Y8560D02*
X7230D01*
X7130D02*
Y8590D01*
X7390Y8560D02*
Y8590D01*
X7650Y8560D02*
Y8590D01*
X7900Y8560D02*
Y8590D01*
X8160Y8560D02*
Y8590D01*
X8410Y8560D02*
Y8590D01*
X8660Y8560D02*
Y8590D01*
X8920Y8560D02*
Y8590D01*
X7230Y8560D02*
X8920D01*
X7230Y8290D02*
Y8560D01*
X8353Y6941D02*
Y7309D01*
X8567Y6941D02*
Y7309D01*
X8353Y6941D02*
X8567D01*
X8353Y7309D02*
X8567D01*
X8093Y6941D02*
Y7309D01*
X8307Y6941D02*
Y7309D01*
X8093Y6941D02*
X8307D01*
X8093Y7309D02*
X8307D01*
X8021Y6388D02*
Y6756D01*
X8235Y6388D02*
Y6756D01*
X8021Y6388D02*
X8235D01*
X8021Y6756D02*
X8235D01*
X7767Y6388D02*
Y6756D01*
X7981Y6388D02*
Y6756D01*
X7767Y6388D02*
X7981D01*
X7767Y6756D02*
X7981D01*
X7825Y6064D02*
X9349D01*
Y5582D02*
Y6064D01*
X7825Y5569D02*
Y6064D01*
Y5569D02*
X9349D01*
X7825Y5315D02*
Y5569D01*
Y5315D02*
X9349D01*
Y5569D01*
X7825Y5315D02*
Y5569D01*
X9169Y6624D02*
Y6838D01*
X8801Y6624D02*
Y6838D01*
Y6624D02*
X9169D01*
X8801Y6838D02*
X9169D01*
X9284Y6604D02*
Y6858D01*
X9779Y6604D02*
Y6858D01*
X9284D02*
X9766D01*
X9284Y6604D02*
X9766D01*
X8801Y7092D02*
X9169D01*
X8801Y6878D02*
X9169D01*
X8801D02*
Y7092D01*
X9169Y6878D02*
Y7092D01*
X9284Y6858D02*
Y7112D01*
X9779Y6858D02*
Y7112D01*
X9284D02*
X9766D01*
X9284Y6858D02*
X9766D01*
X9132Y9004D02*
Y9106D01*
X9081Y9055D02*
X9132Y9004D01*
X9081Y9055D02*
X9132Y9106D01*
X9043Y8623D02*
Y9131D01*
X7011Y8623D02*
Y9131D01*
Y8623D02*
X9043D01*
X7011Y9131D02*
X8789D01*
X8725D02*
X9043D01*
X7640Y5300D02*
X10100D01*
X7640D02*
Y7100D01*
X4000D02*
X7640D01*
X4000D02*
Y9500D01*
X10100D01*
Y5300D02*
Y9500D01*
D13*
X9903Y6756D02*
X9853D01*
X9836Y6739D01*
Y6706D01*
X9853Y6689D01*
X9903D01*
X9936D02*
X9970D01*
X9953D01*
Y6789D01*
X9936D01*
X10020Y6756D02*
Y6689D01*
Y6722D01*
X10036Y6739D01*
X10053Y6756D01*
X10070D01*
X9829Y6944D02*
X9879D01*
X9896Y6961D01*
X9879Y6977D01*
X9846D01*
X9829Y6994D01*
X9846Y7011D01*
X9896D01*
X9979Y6944D02*
X9946D01*
X9929Y6961D01*
Y6994D01*
X9946Y7011D01*
X9979D01*
X9996Y6994D01*
Y6977D01*
X9929D01*
X10046Y7027D02*
Y7011D01*
X10029D01*
X10062D01*
X10046D01*
Y6961D01*
X10062Y6944D01*
X5051Y7864D02*
X5118D01*
X5085D01*
Y7764D01*
X5151Y7864D02*
X5218Y7764D01*
Y7864D02*
X5151Y7764D01*
X6676Y7771D02*
Y7871D01*
X6726D01*
X6743Y7855D01*
Y7821D01*
X6726Y7805D01*
X6676D01*
X6710D02*
X6743Y7771D01*
X6776Y7871D02*
X6843Y7771D01*
Y7871D02*
X6776Y7771D01*
X8871Y9179D02*
Y9246D01*
Y9212D01*
X8971D01*
Y9279D02*
X8871D01*
Y9329D01*
X8888Y9346D01*
X8921D01*
X8938Y9329D01*
Y9279D01*
Y9312D02*
X8971Y9346D01*
Y9379D02*
Y9412D01*
Y9396D01*
X8871D01*
X8888Y9379D01*
X8611Y9179D02*
Y9246D01*
Y9212D01*
X8711D01*
Y9279D02*
X8611D01*
Y9329D01*
X8628Y9346D01*
X8661D01*
X8678Y9329D01*
Y9279D01*
Y9312D02*
X8711Y9346D01*
Y9446D02*
Y9379D01*
X8644Y9446D01*
X8628D01*
X8611Y9429D01*
Y9396D01*
X8628Y9379D01*
X8361Y9179D02*
Y9246D01*
Y9212D01*
X8461D01*
Y9279D02*
X8361D01*
Y9329D01*
X8378Y9346D01*
X8411D01*
X8428Y9329D01*
Y9279D01*
Y9312D02*
X8461Y9346D01*
X8378Y9379D02*
X8361Y9396D01*
Y9429D01*
X8378Y9446D01*
X8394D01*
X8411Y9429D01*
Y9412D01*
Y9429D01*
X8428Y9446D01*
X8444D01*
X8461Y9429D01*
Y9396D01*
X8444Y9379D01*
X8101Y9179D02*
Y9246D01*
Y9212D01*
X8201D01*
Y9279D02*
X8101D01*
Y9329D01*
X8118Y9346D01*
X8151D01*
X8168Y9329D01*
Y9279D01*
Y9312D02*
X8201Y9346D01*
Y9429D02*
X8101D01*
X8151Y9379D01*
Y9446D01*
X7851Y9179D02*
Y9246D01*
Y9212D01*
X7951D01*
Y9279D02*
X7851D01*
Y9329D01*
X7868Y9346D01*
X7901D01*
X7918Y9329D01*
Y9279D01*
Y9312D02*
X7951Y9346D01*
X7851Y9446D02*
Y9379D01*
X7901D01*
X7884Y9412D01*
Y9429D01*
X7901Y9446D01*
X7934D01*
X7951Y9429D01*
Y9396D01*
X7934Y9379D01*
X7591Y9179D02*
Y9246D01*
Y9212D01*
X7691D01*
Y9279D02*
X7591D01*
Y9329D01*
X7608Y9346D01*
X7641D01*
X7658Y9329D01*
Y9279D01*
Y9312D02*
X7691Y9346D01*
X7591Y9446D02*
X7608Y9412D01*
X7641Y9379D01*
X7674D01*
X7691Y9396D01*
Y9429D01*
X7674Y9446D01*
X7658D01*
X7641Y9429D01*
Y9379D01*
X7338Y9178D02*
Y9245D01*
Y9211D01*
X7438D01*
Y9278D02*
X7338D01*
Y9328D01*
X7355Y9345D01*
X7388D01*
X7405Y9328D01*
Y9278D01*
Y9311D02*
X7438Y9345D01*
X7338Y9378D02*
Y9445D01*
X7355D01*
X7422Y9378D01*
X7438D01*
X7098Y8306D02*
X7081Y8289D01*
Y8256D01*
X7098Y8239D01*
X7164D01*
X7181Y8256D01*
Y8289D01*
X7164Y8306D01*
X7131D01*
Y8272D01*
X7181Y8339D02*
X7081D01*
X7181Y8406D01*
X7081D01*
Y8439D02*
X7181D01*
Y8489D01*
X7164Y8506D01*
X7098D01*
X7081Y8489D01*
Y8439D01*
X7091Y9179D02*
Y9246D01*
Y9212D01*
X7191D01*
Y9279D02*
X7091D01*
Y9329D01*
X7108Y9346D01*
X7141D01*
X7158Y9329D01*
Y9279D01*
Y9312D02*
X7191Y9346D01*
X7108Y9379D02*
X7091Y9396D01*
Y9429D01*
X7108Y9446D01*
X7124D01*
X7141Y9429D01*
X7158Y9446D01*
X7174D01*
X7191Y9429D01*
Y9396D01*
X7174Y9379D01*
X7158D01*
X7141Y9396D01*
X7124Y9379D01*
X7108D01*
X7141Y9396D02*
Y9429D01*
D14*
X8587Y6670D02*
Y6770D01*
X8637D01*
X8653Y6753D01*
Y6720D01*
X8637Y6703D01*
X8587D01*
X8620D02*
X8653Y6670D01*
X8687Y6753D02*
X8703Y6770D01*
X8737D01*
X8753Y6753D01*
Y6737D01*
X8737Y6720D01*
X8720D01*
X8737D01*
X8753Y6703D01*
Y6687D01*
X8737Y6670D01*
X8703D01*
X8687Y6687D01*
X9442Y5955D02*
Y5856D01*
Y5889D01*
X9508Y5955D01*
X9458Y5906D01*
X9508Y5856D01*
X9542Y5939D02*
X9558Y5955D01*
X9592D01*
X9608Y5939D01*
Y5922D01*
X9592Y5906D01*
X9575D01*
X9592D01*
X9608Y5889D01*
Y5872D01*
X9592Y5856D01*
X9558D01*
X9542Y5872D01*
X7833Y7480D02*
Y7397D01*
X7850Y7380D01*
X7883D01*
X7900Y7397D01*
Y7480D01*
X7933Y7380D02*
X7967D01*
X7950D01*
Y7480D01*
X7933Y7463D01*
X8897Y7150D02*
Y7250D01*
X8947D01*
X8963Y7233D01*
Y7200D01*
X8947Y7183D01*
X8897D01*
X8930D02*
X8963Y7150D01*
X9047D02*
Y7250D01*
X8997Y7200D01*
X9063D01*
X8045Y6237D02*
Y6336D01*
X8095D01*
X8111Y6320D01*
Y6287D01*
X8095Y6270D01*
X8045D01*
X8078D02*
X8111Y6237D01*
X8211D02*
X8145D01*
X8211Y6303D01*
Y6320D01*
X8195Y6336D01*
X8161D01*
X8145Y6320D01*
X7807Y6237D02*
Y6336D01*
X7857D01*
X7874Y6320D01*
Y6287D01*
X7857Y6270D01*
X7807D01*
X7841D02*
X7874Y6237D01*
X7907D02*
X7941D01*
X7924D01*
Y6336D01*
X7907Y6320D01*
X9158Y8779D02*
Y8879D01*
X9208D01*
X9225Y8862D01*
Y8829D01*
X9208Y8812D01*
X9158D01*
X9258Y8779D02*
X9292D01*
X9275D01*
Y8879D01*
X9258Y8862D01*
X4628Y7172D02*
X4727D01*
X4694D01*
X4628Y7238D01*
X4678Y7188D01*
X4727Y7238D01*
Y7338D02*
Y7272D01*
X4661Y7338D01*
X4644D01*
X4628Y7322D01*
Y7288D01*
X4644Y7272D01*
X6273Y7171D02*
X6372D01*
X6339D01*
X6273Y7238D01*
X6322Y7188D01*
X6372Y7238D01*
Y7271D02*
Y7304D01*
Y7287D01*
X6273D01*
X6289Y7271D01*
X8173Y6884D02*
X8157Y6900D01*
X8123D01*
X8107Y6884D01*
Y6817D01*
X8123Y6801D01*
X8157D01*
X8173Y6817D01*
X8273Y6801D02*
X8207D01*
X8273Y6867D01*
Y6884D01*
X8257Y6900D01*
X8223D01*
X8207Y6884D01*
X8460Y6881D02*
X8443Y6897D01*
X8410D01*
X8393Y6881D01*
Y6814D01*
X8410Y6798D01*
X8443D01*
X8460Y6814D01*
X8493Y6798D02*
X8527D01*
X8510D01*
Y6897D01*
X8493Y6881D01*
M02*
